<svg width="256" height="256" version="1.1" viewBox="0 0 256 256" xmlns="http://www.w3.org/2000/svg" xmlns:xlink="http://www.w3.org/1999/xlink"><title>accessories-calculator</title><defs><linearGradient id="c" x1="128" x2="128" y1="25" y2="225.85" gradientUnits="userSpaceOnUse"><stop stop-color="#F6F6F6" offset="0"/><stop stop-color="#EAEAEA" offset="1"/></linearGradient><linearGradient id="a" x1="50%" x2="50%" y2="96.217%"><stop stop-color="#fff" offset="0"/><stop stop-color="#fff" offset="1"/></linearGradient><linearGradient id="e" x1="41.497" x2="41.497" y1="2.024" y2="85.018" gradientTransform="scale(1.0121 .98802)" gradientUnits="userSpaceOnUse"><stop stop-color="#14C4FF" offset="0"/><stop stop-color="#009AFF" offset="1"/></linearGradient><linearGradient id="d" x1="41.497" x2="41.497" y1="2.024" y2="81.879" gradientTransform="scale(1.0121 .98802)" gradientUnits="userSpaceOnUse" xlink:href="#a"/><filter id="b" color-interpolation-filters="sRGB"><feFlood flood-color="#A9A69A" flood-opacity=".498" result="flood"/><feComposite in="flood" in2="SourceGraphic" operator="in" result="composite1"/><feGaussianBlur in="composite1" result="blur" stdDeviation="5"/><feOffset dx="0" dy="5" result="offset"/><feComposite in="SourceGraphic" in2="offset" result="composite2"/></filter></defs><g fill-rule="evenodd" filter="url(#b)"><path d="M30.32 25h195.36a5.32 5.32 0 0 1 5.32 5.32v195.36a5.32 5.32 0 0 1-5.32 5.32H30.32a5.32 5.32 0 0 1-5.32-5.32V30.32A5.32 5.32 0 0 1 30.32 25z" fill="url(#c)"/><path d="M231 127v98.68a5.32 5.32 0 0 1-5.32 5.32H30.32a5.32 5.32 0 0 1-5.32-5.32V127v96.68a5.32 5.32 0 0 0 5.32 5.32h195.36a5.32 5.32 0 0 0 5.32-5.32z" fill="#b5b5b5"/><path d="M231 129V30.32a5.32 5.32 0 0 0-5.32-5.32H30.32A5.32 5.32 0 0 0 25 30.32V129 32.32A5.32 5.32 0 0 1 30.32 27h195.36a5.32 5.32 0 0 1 5.32 5.32z" fill="#fff"/><g fill="none"><g transform="translate(36 136)"><rect y="2" width="84" height="84" rx="10.64" fill="#000" fill-opacity=".1"/><rect width="84" height="84" rx="10.64" fill="#fff"/><rect y="2" width="84" height="82" rx="10.64" fill="url(#d)"/><path fill="#000" d="M27.833 25L25 27.833 39.167 42 25 56.167 27.833 59 42 44.833 56.167 59 59 56.167 44.833 42 59 27.833 56.167 25 42 39.167z"/></g><g transform="translate(36 36)"><rect y="2" width="84" height="84" rx="10.64" fill="#000" fill-opacity=".1"/><rect width="84" height="84" rx="10.64" fill="#fff"/><rect y="2" width="84" height="82" rx="10.64" fill="url(#d)"/><path d="M44 40V20h-4v20H20v4h20v20h4V44h20v-4z" fill="#000"/></g><g transform="translate(136 36)"><rect y="2" width="84" height="84" rx="10.64" fill="#000" fill-opacity=".1"/><rect width="84" height="84" rx="10.64" fill="#fff"/><rect y="2" width="84" height="82" rx="10.64" fill="url(#d)"/><path fill="#000" d="M20 40h44v4H20z"/></g><g transform="translate(136 136)"><rect y="2" width="84" height="84" rx="10.64" fill="#000" fill-opacity=".1"/><rect width="84" height="84" rx="10.64" fill="#45ceff"/><rect y="2" width="84" height="82" rx="10.64" fill="url(#e)"/><path d="M24 32h36v4H24zm0 16h36v4H24z" fill="#fff"/></g></g></g></svg>