<svg width="256" height="256" version="1.1" viewBox="0 0 256 256" xmlns="http://www.w3.org/2000/svg"><title>deepin-calculator</title><defs><filter id="a" color-interpolation-filters="sRGB"><feFlood flood-color="#908B78" flood-opacity=".498" result="flood"/><feComposite in="flood" in2="SourceGraphic" operator="in" result="composite1"/><feGaussianBlur in="composite1" result="blur" stdDeviation="5"/><feOffset dx="0" dy="5" result="offset"/><feComposite in="SourceGraphic" in2="offset" result="composite2"/></filter></defs><g transform="translate(240 -2.712)" filter="url(#a)"><path d="M-215.3 210.78v4.88c0 5.662 4.593 10.22 10.299 10.22h185.4c5.706 0 10.301-4.558 10.301-10.22v-4.88c0 5.661-4.595 10.219-10.301 10.219h-185.4c-5.706 0-10.299-4.558-10.299-10.219z" fill="#3d7e4b" fill-opacity=".863" stroke-width="3.679"/><path d="M-205 36.909c-5.706 0-10.3 4.557-10.3 10.218v163.49c0 5.661 4.594 10.218 10.3 10.218h185.4c5.706 0 10.3-4.557 10.3-10.218V47.127c0-5.661-4.594-10.218-10.3-10.218z" fill="#4f4f4f" stroke-width="3.679"/><g stroke-width="0"><path opacity=".2" d="M-215.306 128.874H-9.304v11.036h-206.002zM-215.306 62.66H-9.304v11.035h-206.002zM-215.306 106.803H-9.304v11.035h-206.002z"/></g><path d="M-205 36.909c-5.706 0-10.303 4.556-10.303 10.216v3.679c0-5.661 4.597-10.216 10.303-10.216h185.39c5.706 0 10.303 4.556 10.303 10.216v-3.679c0-5.661-4.597-10.216-10.303-10.216z" fill="#fff" opacity=".1" stroke-width="3.679"/><path opacity=".2" stroke-width="0" d="M-215.3 84.731h206v11.036h-206z"/><path d="M-179.25 73.695c36.05 0 24.027 73.204 61.8 73.571 23.489.228 42.716-29.429 66.95-29.429 24.235 0 41.2 26.363 41.2 26.363v66.42c0 5.661-4.594 10.218-10.3 10.218H-205c-5.706 0-10.3-4.557-10.3-10.218v-97.074s7.621-39.85 36.05-39.85z" fill="#47da72" stroke-width="3.679"/><path d="M-179.25 73.695c36.05 0 24.023 73.204 61.796 73.571 23.489.228 42.719-29.429 66.954-29.429s41.196 26.361 41.196 26.361v3.679s-16.962-26.361-41.196-26.361c-24.235 0-43.466 29.657-66.954 29.429-37.772-.367-25.746-73.571-61.796-73.571-28.429 0-36.053 39.854-36.053 39.854v-3.679s7.624-39.854 36.053-39.854z" fill="#fff" opacity=".2" stroke-width="3.679"/></g></svg>