<svg width="256" height="256" version="1.1" viewBox="0 0 256 256" xmlns="http://www.w3.org/2000/svg">
<title>deepin-multitasking-view</title>
<defs>
<filter id="a" color-interpolation-filters="sRGB">
<feFlood flood-color="#908B78" flood-opacity=".498" result="flood"/>
<feComposite in="flood" in2="SourceGraphic" operator="in" result="composite1"/>
<feGaussianBlur in="composite1" result="blur" stdDeviation="1.5"/>
<feOffset dx="0" dy="1.5" result="offset"/>
<feComposite in="SourceGraphic" in2="offset" result="composite2"/>
</filter>
</defs>
<path d="m15.97 127.25c-0.047 1.339-0.203 2.65-0.203 4 0 62.044 49.948 111.99 111.99 111.99 62.044 0 111.99-49.948 111.99-111.99 0-1.35-0.156-2.661-0.203-4-2.112 60.164-51.1 107.99-111.79 107.99-60.692 0-109.68-47.828-111.79-107.99z" fill="#b93d30" filter="url(#a)" opacity=".8" stroke-width="4"/>
<rect transform="matrix(0,-1,-1,0,269.23,6)" x="-233.24" y="29.478" width="223.98" height="223.98" rx="111.99" ry="111.99" fill="#ea004e" filter="url(#a)" stroke-width="4"/>
<g transform="translate(269.23,6)" clip-rule="evenodd" enable-background="new" fill-rule="evenodd" filter="url(#a)" opacity=".2">
<path d="m-161.41 168.98s-5.799 3.556 4.132 4.756c12.034 1.448 18.183 1.24 31.44-1.401 0 0 3.492 2.302 8.36 4.295-29.727 13.42-67.28-0.777-43.932-7.65zm-3.635-17.515s-6.505 5.075 3.434 6.157c12.855 1.399 23.003 1.513 40.573-2.05 0 0 2.425 2.595 6.243 4.013-35.937 11.075-75.962 0.872-50.251-8.12zm30.62-29.716c7.329 8.888-1.921 16.88-1.921 16.88s18.598-10.114 10.058-22.785c-7.978-11.81-14.095-17.678 19.02-37.913 0 0-51.983 13.676-27.157 43.817z"/>
<path d="m-95.106 181.93s4.293 3.729-4.729 6.613c-17.154 5.474-71.414 7.126-86.485 0.219-5.413-2.485 4.744-5.928 7.94-6.656 3.331-0.76 5.234-0.62 5.234-0.62-6.025-4.47-38.943 8.779-16.719 12.58 60.606 10.35 110.48-4.663 94.757-12.136zm-63.513-48.62s-27.595 6.908-9.772 9.419c7.529 1.061 22.527 0.817 36.507-0.419 11.423-1.01 22.886-3.17 22.886-3.17s-4.025 1.82-6.938 3.914c-28.03 7.768-82.167 4.15-66.579-3.79 13.177-6.717 23.896-5.954 23.896-5.954zm49.509 29.153c28.49-15.595 15.316-30.583 6.12-28.564-2.248 0.495-3.257 0.923-3.257 0.923s0.838-1.383 2.433-1.978c18.19-6.735 32.178 19.871-5.866 30.407 0 0 0.437-0.417 0.57-0.789zm-17.175-117.22s15.775 16.63-14.967 42.196c-24.653 20.516-5.62 32.21-9e-3 45.576-14.391-13.68-24.947-25.723-17.867-36.93 10.398-16.45 39.206-24.427 32.843-50.841z"/>
<path d="m-155.82 204.74c27.341 1.841 69.34-1.025 70.333-14.658 0 0-1.91 5.168-22.598 9.268-23.34 4.63-52.132 4.091-69.202 1.121 0 0 3.497 3.05 21.466 4.268z"/>
</g>
<g transform="translate(269.23,6)" clip-rule="evenodd" enable-background="new" fill="#fff" fill-rule="evenodd" filter="url(#a)">
<path d="m-161.41 164.98s-5.799 3.556 4.132 4.756c12.034 1.448 18.183 1.24 31.44-1.401 0 0 3.492 2.302 8.36 4.295-29.727 13.42-67.28-0.777-43.932-7.65zm-3.635-17.515s-6.505 5.075 3.434 6.157c12.855 1.399 23.003 1.513 40.573-2.05 0 0 2.425 2.595 6.243 4.013-35.937 11.075-75.962 0.872-50.251-8.12zm30.62-29.716c7.329 8.888-1.921 16.88-1.921 16.88s18.598-10.114 10.058-22.785c-7.978-11.81-14.095-17.678 19.02-37.913 0 0-51.983 13.676-27.157 43.817z"/>
<path d="m-95.106 177.93s4.293 3.729-4.729 6.613c-17.154 5.474-71.414 7.126-86.485 0.219-5.413-2.485 4.744-5.928 7.94-6.656 3.331-0.76 5.234-0.62 5.234-0.62-6.025-4.47-38.943 8.779-16.719 12.58 60.606 10.35 110.48-4.663 94.757-12.136zm-63.513-48.62s-27.595 6.908-9.772 9.419c7.529 1.061 22.527 0.817 36.507-0.419 11.423-1.01 22.886-3.17 22.886-3.17s-4.025 1.82-6.938 3.914c-28.03 7.768-82.167 4.15-66.579-3.79 13.177-6.717 23.896-5.954 23.896-5.954zm49.509 29.153c28.49-15.595 15.316-30.583 6.12-28.564-2.248 0.495-3.257 0.923-3.257 0.923s0.838-1.383 2.433-1.978c18.19-6.735 32.178 19.871-5.866 30.407 0 0 0.437-0.417 0.57-0.789zm-17.175-117.21s15.775 16.63-14.967 42.195c-24.653 20.516-5.62 32.21-9e-3 45.576-14.391-13.68-24.947-25.723-17.867-36.93 10.398-16.45 39.206-24.427 32.843-50.841z"/>
<path d="m-155.82 200.74c27.341 1.841 69.34-1.025 70.333-14.658 0 0-1.91 5.168-22.598 9.268-23.34 4.63-52.132 4.091-69.202 1.121 0 0 3.497 3.05 21.466 4.268z"/>
</g>
<path d="m127.74 15.257c-62.044 0-111.99 49.948-111.99 111.99 0 0.454 0.045 0.896 0.07 1.343 1.406-60.804 50.768-109.34 111.92-109.34 61.148 0 110.52 48.524 111.93 109.32 0.025-0.442 0.063-0.879 0.063-1.328 0-62.044-49.948-111.99-111.99-111.99z" fill="#fff" filter="url(#a)" opacity=".2" stroke-width="4"/>
</svg>
