<svg width="256" height="256" version="1.1" viewBox="0 0 256 256" xmlns="http://www.w3.org/2000/svg"><title>deepin-calculator</title><defs><filter id="a" color-interpolation-filters="sRGB"><feFlood flood-color="#908B78" flood-opacity=".498" result="flood"/><feComposite in="flood" in2="SourceGraphic" operator="in" result="composite1"/><feGaussianBlur in="composite1" result="blur" stdDeviation="1.5"/><feOffset dx="0" dy="1.5" result="offset"/><feComposite in="SourceGraphic" in2="offset" result="composite2"/></filter></defs><g transform="translate(3.27 1.23) scale(3.9615)" filter="url(#a)"><rect x="6" y="7" width="52" height="52" rx="2.8" ry="2.8" opacity=".2"/><rect x="6" y="6" width="52" height="52" rx="2.8" ry="2.8" fill="#e4e4e4"/><path d="M13 15l10 18-10 18h6l10-18-10-18zm10 0l10 18-10 18h6l7-12.602L43 51h6L29 15zm16.668 12l2.222 4H51v-4zm4.442 8l2.222 4H51v-4z" opacity=".1"/><path d="M13 14l10 18-10 18h6l10-18-10-18zm26.668 12l2.222 4H51v-4zm4.442 8l2.222 4H51v-4z" fill="#8b82a4"/><path d="M23 14l10 18-10 18h6l7-12.602L43 50h6L29 14z" fill="#5f5088"/><path d="M8.8 6C7.25 6 6 7.25 6 8.8v1C6 8.25 7.25 7 8.8 7H55.2A2.796 2.796 0 0 1 58 9.8v-1C58 7.25 56.75 6 55.199 6z" fill="#fff" opacity=".2"/></g></svg>