<svg width="256" height="256" version="1.1" viewBox="0 0 256 256" xmlns="http://www.w3.org/2000/svg"><title>deepin-multitasking-view</title><defs><filter id="a" color-interpolation-filters="sRGB"><feFlood flood-color="#908B78" flood-opacity=".498" result="flood"/><feComposite in="flood" in2="SourceGraphic" operator="in" result="composite1"/><feGaussianBlur in="composite1" result="blur" stdDeviation="1.5"/><feOffset dx="0" dy="1.5" result="offset"/><feComposite in="SourceGraphic" in2="offset" result="composite2"/></filter></defs><g transform="translate(231.23)" filter="url(#a)" stroke-width="5.599"><rect transform="matrix(0 -1 -1 0 0 0)" x="-239.87" y="-8.532" width="223.98" height="223.98" rx="111.99" ry="111.99" fill="#48cac2"/><path d="M-103.46 15.895c-62.042 0-111.99 49.948-111.99 111.99 0 .94-.022 1.865 0 2.8 1.48-60.732 50.888-109.19 111.99-109.19S7.05 69.953 8.53 130.685c.022-.935 0-1.86 0-2.8 0-62.042-49.948-111.99-111.99-111.99z" fill="#fff" opacity=".2"/><path d="M-109.06 55.091a16.799 16.799 0 0 0-16.799 16.799 16.799 16.799 0 0 0 .405 3.598c-4.006 3.623-7.561 8.136-10.554 13.266-3.298 5.653-5.966 12.152-7.995 19.215-6.305 3.79-11.893 8.057-16.503 12.708-10.782 10.88-16.739 24.29-13.266 37.25 3.473 12.961 15.331 21.605 30.11 25.635 1.676.458 3.41.845 5.172 1.192a74.502 74.502 0 0 0 2.483 4.67c7.722 13.232 19.134 22.454 32.55 22.454 13.418 0 24.84-9.222 32.558-22.453 3.299-5.655 5.967-12.158 7.994-19.226 6.297-3.785 11.887-8.05 16.492-12.697 3.953-3.988 7.238-8.316 9.668-12.84a16.799 16.799 0 0 0 .476.023 16.799 16.799 0 0 0 16.8-16.8 16.799 16.799 0 0 0-16.8-16.798 16.799 16.799 0 0 0-1.137.043c-5.518-7.968-14.881-13.518-25.865-16.514-1.67-.455-3.398-.834-5.151-1.181a74.472 74.472 0 0 0-2.483-4.68c-5.537-9.494-13.01-16.856-21.73-20.299a16.799 16.799 0 0 0-16.43-13.366zm14.754 24.826c4.337 2.336 8.45 6.394 12.118 11.976-10.328-.366-21.491.879-32.864 3.926a119.99 119.99 0 0 0-14.447 4.878c.986-2.223 2.028-4.357 3.16-6.3 2.156-3.695 4.515-6.748 6.989-9.252a16.799 16.799 0 0 0 10.292 3.54 16.799 16.799 0 0 0 14.755-8.77zm6.879 23.131c3.913-.077 7.68.087 11.243.492 3.925 9.99 6.316 22.27 6.316 35.54 0 8.417-.982 16.417-2.69 23.711-6.603 3.54-14.078 6.559-22.212 8.738-12.812 3.433-25.301 4.304-35.97 3.095-3.931-9.995-6.322-22.28-6.322-35.546 0-8.417.982-16.419 2.69-23.71 6.603-3.54 14.081-6.56 22.212-8.739 8.536-2.287 16.925-3.433 24.727-3.587zm24.061 3.27c6.837 2.266 12.033 5.532 15.41 9.504a16.799 16.799 0 0 1-.011.011 16.799 16.799 0 0 0-5.101 12.05 16.799 16.799 0 0 0 5.774 12.664c-1.774 3.012-4.102 6.054-7.087 9.066-1.582 1.597-3.38 3.154-5.271 4.681.627-4.916.985-9.995.985-15.214 0-11.776-1.68-22.885-4.703-32.768zm-40.098 10.365a22.398 22.398 0 0 0-22.398 22.398 22.398 22.398 0 0 0 22.398 22.398 22.398 22.398 0 0 0 22.398-22.398 22.398 22.398 0 0 0-22.398-22.398zm-43.812 7.185a120.15 120.15 0 0 0-.986 15.214c0 11.777 1.686 22.891 4.714 32.777-10.707-3.543-17.463-9.516-19.424-16.832-2.13-7.95 1.375-17.359 10.412-26.477 1.585-1.6 3.387-3.15 5.282-4.68zm69.854 53.6c-.987 2.227-2.026 4.366-3.16 6.31-6.47 11.09-14.65 16.909-22.88 16.909-7.571 0-15.078-4.981-21.27-14.404 10.33.362 21.49-.89 32.863-3.937 5.045-1.352 9.862-3 14.447-4.878z" opacity=".2"/><path d="M-109.06 49.492a16.799 16.799 0 0 0-16.799 16.799 16.799 16.799 0 0 0 .405 3.598c-4.006 3.623-7.561 8.136-10.554 13.266-3.298 5.653-5.966 12.152-7.995 19.215-6.305 3.79-11.893 8.057-16.503 12.708-10.782 10.88-16.739 24.29-13.266 37.25 3.473 12.961 15.331 21.605 30.11 25.635 1.676.458 3.41.845 5.172 1.192a74.502 74.502 0 0 0 2.483 4.67c7.722 13.232 19.134 22.454 32.55 22.454 13.418 0 24.84-9.222 32.558-22.453 3.299-5.655 5.967-12.158 7.994-19.226 6.297-3.785 11.887-8.05 16.492-12.697 3.953-3.988 7.238-8.316 9.668-12.84a16.799 16.799 0 0 0 .476.023 16.799 16.799 0 0 0 16.8-16.798 16.799 16.799 0 0 0-16.8-16.8 16.799 16.799 0 0 0-1.137.044c-5.518-7.968-14.881-13.518-25.865-16.514-1.67-.455-3.398-.834-5.151-1.181a74.472 74.472 0 0 0-2.483-4.68c-5.537-9.494-13.01-16.856-21.73-20.299a16.799 16.799 0 0 0-16.43-13.366zm14.754 24.826c4.337 2.336 8.45 6.394 12.118 11.976-10.328-.366-21.491.879-32.864 3.926a119.99 119.99 0 0 0-14.447 4.878c.986-2.223 2.028-4.357 3.16-6.3 2.156-3.695 4.515-6.748 6.989-9.252a16.799 16.799 0 0 0 10.292 3.54 16.799 16.799 0 0 0 14.755-8.77zm6.879 23.131c3.913-.077 7.68.088 11.243.492 3.925 9.99 6.316 22.27 6.316 35.54 0 8.417-.982 16.417-2.69 23.711-6.603 3.54-14.078 6.559-22.212 8.738-12.812 3.433-25.301 4.304-35.97 3.095-3.931-9.995-6.322-22.28-6.322-35.546 0-8.417.982-16.419 2.69-23.71 6.603-3.54 14.081-6.56 22.212-8.739 8.536-2.287 16.925-3.433 24.727-3.587zm24.061 3.27c6.837 2.266 12.033 5.532 15.41 9.504a16.799 16.799 0 0 1-.011.011 16.799 16.799 0 0 0-5.101 12.05 16.799 16.799 0 0 0 5.774 12.664c-1.774 3.012-4.102 6.054-7.087 9.066-1.582 1.597-3.38 3.154-5.271 4.681.627-4.916.985-9.995.985-15.214 0-11.776-1.68-22.885-4.703-32.768zm-40.098 10.365a22.398 22.398 0 0 0-22.398 22.398 22.398 22.398 0 0 0 22.398 22.398 22.398 22.398 0 0 0 22.398-22.398 22.398 22.398 0 0 0-22.398-22.398zm-43.812 7.185a120.15 120.15 0 0 0-.986 15.214c0 11.777 1.686 22.891 4.714 32.777-10.707-3.543-17.463-9.516-19.424-16.832-2.13-7.95 1.375-17.359 10.412-26.477 1.585-1.6 3.387-3.15 5.282-4.68zm69.854 53.6c-.987 2.227-2.026 4.366-3.16 6.31-6.47 11.09-14.65 16.909-22.88 16.909-7.571 0-15.078-4.981-21.27-14.404 10.33.362 21.49-.89 32.863-3.937 5.045-1.352 9.862-3 14.447-4.878z" fill="#fff"/><path d="M-109.06 49.492a16.799 16.799 0 0 0-16.799 16.799A16.799 16.799 0 0 0-109.06 83.09a16.799 16.799 0 0 0 16.799-16.799 16.799 16.799 0 0 0-16.799-16.799zm72.794 55.995a16.799 16.799 0 0 0-16.799 16.799 16.799 16.799 0 0 0 16.799 16.799 16.799 16.799 0 0 0 16.799-16.799 16.799 16.799 0 0 0-16.799-16.799zm-67.194 5.6a22.398 22.398 0 0 0-22.398 22.397 22.398 22.398 0 0 0 22.398 22.398 22.398 22.398 0 0 0 22.398-22.398 22.398 22.398 0 0 0-22.398-22.398z" opacity=".7"/><path d="M-215.38 125.15c-.023.935-.066 1.859-.066 2.8 0 62.042 49.949 111.99 111.99 111.99 62.043 0 111.99-49.948 111.99-111.99 0-.94-.044-1.865-.067-2.8-1.478 60.732-50.82 109.19-111.92 109.19-61.102 0-110.44-48.458-111.92-109.19z" fill="#3aa29b"/></g></svg>