<svg width="256" height="256" version="1.1" viewBox="0 0 256 256" xmlns="http://www.w3.org/2000/svg"><title>deepin-multitasking-view</title><defs><filter id="a" color-interpolation-filters="sRGB"><feFlood flood-color="#908B78" flood-opacity=".498" result="flood"/><feComposite in="flood" in2="SourceGraphic" operator="in" result="composite1"/><feGaussianBlur in="composite1" result="blur" stdDeviation="1.5"/><feOffset dx="0" dy="1.5" result="offset"/><feComposite in="SourceGraphic" in2="offset" result="composite2"/></filter></defs><g transform="matrix(4 0 0 4 -.339 0)" filter="url(#a)"><path d="M4.05 32.001c-.011.334-.05.662-.05 1C4 48.513 16.488 61 31.999 61s27.999-12.488 27.999-27.999c0-.338-.039-.665-.05-1C59.418 47.043 47.17 59 31.997 59 16.824 59 4.578 47.042 4.05 32.001z" opacity=".2"/><rect transform="matrix(0 -1 -1 0 0 0)" x="-60" y="-60" width="55.998" height="55.998" rx="27.999" ry="27.999" fill="#e4e4e4"/><path d="M32 4.002C16.488 4.002 4 16.488 4 32c0 .114.011.224.018.336C4.369 17.135 16.712 5 32 5s27.63 12.135 27.982 27.336c.006-.112.017-.223.017-.336A27.937 27.937 0 0 0 32 4.002z" fill="#fff" opacity=".1"/><g transform="translate(0 1)" opacity=".1"><rect x="28" y="28" width="8" height="8" rx="2.6" ry="2.6"/><rect x="39" y="28" width="8" height="8" rx="2.6" ry="2.6"/><rect x="17" y="28" width="8" height="8" rx="2.6" ry="2.6"/><rect x="28" y="17" width="8" height="8" rx="2.6" ry="2.6"/><rect x="39" y="17" width="8" height="8" rx="2.6" ry="2.6"/><rect x="17" y="17" width="8" height="8" rx="2.6" ry="2.6"/><rect x="28" y="39" width="8" height="8" rx="2.6" ry="2.6"/><rect x="39" y="39" width="8" height="8" rx="2.6" ry="2.6"/><rect x="17" y="39" width="8" height="8" rx="2.6" ry="2.6"/></g><rect x="28" y="28" width="8" height="8" rx="2.6" ry="2.6" fill="#eb6253"/><rect x="39" y="28" width="8" height="8" rx="2.6" ry="2.6" fill="#2181dd"/><rect x="17" y="28" width="8" height="8" rx="2.6" ry="2.6" fill="#4d9133"/><rect x="28" y="17" width="8" height="8" rx="2.6" ry="2.6" fill="#2181dd"/><rect x="39" y="17" width="8" height="8" rx="2.6" ry="2.6" fill="#2181dd"/><rect x="17" y="17" width="8" height="8" rx="2.6" ry="2.6" fill="#eb6253"/><rect x="28" y="39" width="8" height="8" rx="2.6" ry="2.6" fill="#4d9133"/><rect x="39" y="39" width="8" height="8" rx="2.6" ry="2.6" fill="#eb6253"/><rect x="17" y="39" width="8" height="8" rx="2.6" ry="2.6" fill="#4d9133"/></g></svg>