<svg width="256" height="256" version="1.1" viewBox="0 0 256 256" xmlns="http://www.w3.org/2000/svg" xmlns:xlink="http://www.w3.org/1999/xlink"><title>crossover</title><defs><path id="b" d="M112.5 218c29.409 0 56.034-11.92 75.307-31.193S219 140.909 219 111.5C219 52.682 171.318 5 112.5 5S6 52.682 6 111.5 53.682 218 112.5 218z"/><filter id="a" color-interpolation-filters="sRGB"><feFlood flood-color="#A9A69A" flood-opacity=".498" result="flood"/><feComposite in="flood" in2="SourceGraphic" operator="in" result="composite1"/><feGaussianBlur in="composite1" result="blur" stdDeviation="5"/><feOffset dx="0" dy="5" result="offset"/><feComposite in="SourceGraphic" in2="offset" result="composite2"/></filter></defs><g transform="translate(16 11)" fill="none" fill-rule="evenodd" filter="url(#a)"><circle cx="112" cy="112" r="112" fill="#fff"/><circle cx="112" cy="112" r="112" fill="#fff"/><g><use width="100%" height="100%" fill="#fff" fill-rule="evenodd" xlink:href="#b"/><path d="M112.5 216.5c28.228 0 54.681-11.189 74.246-30.754S217.5 139.728 217.5 111.5c0-57.99-47.01-105-105-105s-105 47.01-105 105 47.01 105 105 105z" stroke="#1038fb" stroke-width="3"/></g><path d="M199.36 84.177c-9.818-7.809-21.245-14.789-33.954-20.448-52.846-23.528-107.85-15.284-122.85 18.414-15.003 33.698 15.674 80.089 68.519 103.62a165.816 165.816 0 0 0 9.891 4.029c-31.005-24.66-45.96-57.576-34.565-83.17 14.07-31.6 63.308-40.816 112.96-22.443z" fill="#1038fb"/><path d="M26.374 138.82c9.711 8.005 21.05 15.207 33.699 21.105 52.594 24.525 107.906 17.219 123.544-16.32 15.638-33.538-14.32-80.607-66.914-105.133a166.272 166.272 0 0 0-9.85-4.215c30.667 25.278 45.092 58.556 33.214 84.029-14.665 31.449-64.215 39.832-113.696 20.533z" fill="#fd5400" stroke="#fff" stroke-width="4.915"/></g></svg>