<svg width="256" height="256" version="1.1" viewBox="0 0 256 256" xmlns="http://www.w3.org/2000/svg"><title>deepin-calculator</title><defs><filter id="a" color-interpolation-filters="sRGB"><feFlood flood-color="#908B78" flood-opacity=".498" result="flood"/><feComposite in="flood" in2="SourceGraphic" operator="in" result="composite1"/><feGaussianBlur in="composite1" result="blur" stdDeviation="1.5"/><feOffset dx="0" dy="1.5" result="offset"/><feComposite in="SourceGraphic" in2="offset" result="composite2"/></filter></defs><g transform="translate(.578 -4.108) scale(2.6421)" filter="url(#a)"><path d="M9.017 75.932v2.785c0 2.219 1.74 4.004 3.9 4.004h70.17c2.159 0 3.9-1.785 3.9-4.004v-2.785c0 2.22-1.741 4.004-3.9 4.004h-70.17c-2.159 0-3.899-1.785-3.899-4.004z" opacity=".759" stroke-width="1.392"/><rect transform="matrix(0 -1 -1 0 0 0)" x="-81.328" y="-86.986" width="64.044" height="77.967" rx="4.004" ry="3.898" fill="#4f4f4f" stroke-width="1.392"/><g transform="translate(3.448 4.753) scale(2.7846)" opacity=".2"><rect x="6" y="10" width="20" height="5" rx="1.333" ry="1.25"/><rect x="6" y="18" width="20" height="5" rx="1.333" ry="1.25"/></g><g transform="translate(3.448 4.752) scale(1.3923)" fill="#fff"><rect x="12" y="19" width="39.999" height="10" rx="2.666" ry="2.5"/><rect x="12" y="35" width="39.999" height="10" rx="2.666" ry="2.5"/><path d="M6.8 9C5.25 9 4 10.282 4 11.875v1.002c0-1.593 1.25-2.875 2.8-2.875H57.2c1.55 0 2.8 1.282 2.8 2.875v-1.002C60 10.282 58.75 9 57.2 9z" opacity=".1"/></g><g stroke-width="1.392"><circle cx="27.117" cy="38.167" r="4.177" fill="#4fa0ff"/><circle cx="27.117" cy="60.444" r="4.177" fill="#ff4f4f"/><circle cx="41.04" cy="38.167" r="4.177" fill="#4fa0ff"/><circle cx="41.04" cy="60.444" r="4.177" fill="#ff4f4f"/><circle cx="54.963" cy="38.167" r="4.177" fill="#4fa0ff"/><circle cx="54.963" cy="60.444" r="4.177" fill="#ff4f4f"/></g></g></svg>