<svg width="256" height="256" version="1.1" viewBox="0 0 256 256" xmlns="http://www.w3.org/2000/svg" xmlns:xlink="http://www.w3.org/1999/xlink"><title>dde-introduction</title><defs><linearGradient id="b" x1="109.92" x2="109.92" y1="16.136" y2="240.14" gradientUnits="userSpaceOnUse"><stop stop-color="#30FFAF" offset="0"/><stop stop-color="#08C5FF" offset="1"/></linearGradient><linearGradient id="c" x1="128" x2="128" y1="16" y2="237.17" gradientUnits="userSpaceOnUse"><stop stop-color="#8BFFD4" offset="0"/><stop stop-color="#00B2D4" offset="1"/></linearGradient><path id="d" d="M121.91 12.918c26.167 0 47.38 21.213 47.38 47.38v88.62c0 5.523-4.477 10-10 10H74.53v-98.62c0-26.167 21.213-47.38 47.38-47.38z"/><path id="e" d="M105.36 97.617h56.837v7.019H105.36z"/><path id="f" d="M90.471 112.51h56.837v7.019H90.471z"/><path id="g" d="M61.364 83.703c8.14 0 14.74 6.6 14.74 14.74v22.462H46.623V98.443c0-8.14 6.6-14.74 14.74-14.74z"/><path id="h" d="M76.75 99.09c7.753 0 14.038 6.285 14.038 14.038v23.163H62.711v-23.163c0-7.753 6.285-14.038 14.038-14.038z"/><path id="i" d="M91.64 113.98c7.753 0 14.038 6.285 14.038 14.038v23.163H77.601v-23.163c0-7.753 6.285-14.038 14.038-14.038z"/><path id="j" d="M107.03 129.37c8.14 0 14.74 6.6 14.74 14.74v12.462c0 5.523-4.477 10-10 10H92.289V144.11c0-8.14 6.6-14.74 14.74-14.74z"/><path id="k" d="M107.95 37.17v25.715c0 13.807-10.999 25.001-24.567 25.001V37.17"/><filter id="a" color-interpolation-filters="sRGB"><feFlood flood-color="#908B78" flood-opacity=".498" result="flood"/><feComposite in="flood" in2="SourceGraphic" operator="in" result="composite1"/><feGaussianBlur in="composite1" result="blur" stdDeviation="5"/><feOffset dx="0" dy="5" result="offset"/><feComposite in="SourceGraphic" in2="offset" result="composite2"/></filter></defs><g filter="url(#a)"><circle cx="127.5" cy="128.14" r="112" fill="url(#b)" fill-rule="evenodd"/><path d="M128 19C67.801 19 19 67.801 19 128s48.801 109 109 109 109-48.801 109-109S188.199 19 128 19zm0-3c61.856 0 112 50.144 112 112s-50.144 112-112 112S16 189.856 16 128 66.144 16 128 16z" fill="url(#c)"/><g fill="none" fill-rule="evenodd"><g transform="rotate(45 88.747 132.181)"><use width="100%" height="100%" fill="#404040" fill-rule="evenodd" xlink:href="#d"/><path d="M78.029 155.42h81.26a6.5 6.5 0 0 0 6.5-6.5V60.3c0-24.234-19.646-43.88-43.88-43.88s-43.88 19.646-43.88 43.88z" stroke="#373737" stroke-width="7"/></g><path d="M124.808 71.051l62.416 62.416c3.905 3.905 3.905 10.237 0 14.142l-53.36 53.36c-3.905 3.905-10.237 3.905-14.142 0l-62.416-62.416c-18.64-18.64-18.64-48.862 0-67.502 18.64-18.64 48.862-18.64 67.502 0z" fill="#fff"/><path d="M124.808 71.051l62.416 62.416c3.905 3.905 3.905 10.237 0 14.142l-53.36 53.36c-3.905 3.905-10.237 3.905-14.142 0l-62.416-62.416c-18.64-18.64-18.64-48.862 0-67.502 18.64-18.64 48.862-18.64 67.502 0z" fill="#fff"/><g transform="rotate(45 100.617 147.393)"><use width="100%" height="100%" fill="#606060" fill-rule="evenodd" xlink:href="#e"/><path stroke="#373737" stroke-width="7" d="M108.86 101.12h49.837v1H108.86z"/></g><g transform="rotate(45 85.727 162.283)"><use width="100%" height="100%" fill="#606060" fill-rule="evenodd" xlink:href="#f"/><path stroke="#373737" stroke-width="7" d="M93.971 116.01h49.837v1H93.971z"/></g><g transform="rotate(45 28.201 148.563)"><use width="100%" height="100%" fill="#404040" fill-rule="evenodd" xlink:href="#g"/><path d="M50.123 117.41h22.481V98.448c0-6.208-5.032-11.24-11.24-11.24s-11.24 5.032-11.24 11.24z" stroke="#373737" stroke-width="7"/></g><g transform="rotate(45 43.587 163.953)"><use width="100%" height="100%" fill="#404040" fill-rule="evenodd" xlink:href="#h"/><path d="M66.212 132.79h21.077v-19.663c0-5.82-4.718-10.538-10.538-10.538s-10.538 4.718-10.538 10.538z" stroke="#373737" stroke-width="7"/></g><g transform="rotate(45 58.477 178.843)"><use width="100%" height="100%" fill="#404040" fill-rule="evenodd" xlink:href="#i"/><path d="M81.102 147.68h21.077v-19.663c0-5.82-4.718-10.538-10.538-10.538s-10.538 4.718-10.538 10.538z" stroke="#373737" stroke-width="7"/></g><g transform="rotate(45 73.867 194.233)"><use width="100%" height="100%" fill="#404040" fill-rule="evenodd" xlink:href="#j"/><path d="M95.786 163.07h15.981a6.5 6.5 0 0 0 6.5-6.5v-12.462c0-6.208-5.032-11.24-11.24-11.24s-11.24 5.032-11.24 11.24z" stroke="#373737" stroke-width="7"/></g><g transform="rotate(45 62.503 108.79)"><use width="100%" height="100%" fill="#404040" fill-rule="evenodd" xlink:href="#k"/><path d="M104.45 40.67H86.883v43.42c9.96-1.7 17.567-10.537 17.567-21.205z" stroke="#373737" stroke-width="7"/></g></g></g></svg>