<svg width="256" height="256" version="1.1" viewBox="0 0 256 256" xmlns="http://www.w3.org/2000/svg"><title>日历-256px</title><defs><linearGradient id="b" x1="147.34" x2="147.34" y1="20.85" y2="205.02" gradientTransform="scale(.86874 1.1511)" gradientUnits="userSpaceOnUse"><stop stop-color="#F9F9F9" offset="0"/><stop stop-color="#D7D7D7" offset="1"/></linearGradient><linearGradient id="c" x1="124.1" x2="124.1" y1="37.132" y2="231.04" gradientTransform="scale(1.0314 .96953)" gradientUnits="userSpaceOnUse"><stop stop-color="#FC5959" offset="0"/><stop stop-color="#DF2031" offset="1"/></linearGradient><filter id="a" color-interpolation-filters="sRGB"><feFlood flood-color="#908B78" flood-opacity=".498" result="flood"/><feComposite in="flood" in2="SourceGraphic" operator="in" result="composite1"/><feGaussianBlur in="composite1" result="blur" stdDeviation="5"/><feOffset dx="0" dy="5" result="offset"/><feComposite in="SourceGraphic" in2="offset" result="composite2"/></filter></defs><g fill-rule="evenodd" filter="url(#a)"><rect x="48" y="24" width="160" height="212" rx="6" fill="url(#b)"/><rect x="48" y="28" width="160" height="204" rx="6" fill="#ececec"/><path d="M28 42.003A6.006 6.006 0 0 1 34 36h188c3.313 0 5.998 2.694 5.998 6.003v175.99a6.006 6.006 0 0 1-5.999 6.003H34c-3.313 0-5.999-2.694-5.999-6.003z" fill="url(#c)"/><rect x="28" y="40" width="200" height="180" rx="6" fill="#eb3a49"/><path d="M77.167 145.68l14-8.033c6.27-3.62 10.67-6.707 13.198-9.264 3.986-4.005 5.98-8.588 5.98-13.751 0-6.031-1.824-10.82-5.47-14.366-3.645-3.546-8.506-5.32-14.583-5.32-8.993 0-15.215 3.378-18.667 10.133-1.847 3.618-2.868 8.636-3.062 15.054H55.219c.146-9.023 1.823-16.38 5.031-22.074 5.688-10.036 15.726-15.054 30.115-15.054 11.958 0 20.696 3.208 26.214 9.625s8.276 13.558 8.276 21.422c0 8.299-2.94 15.391-8.823 21.278-3.403 3.426-11.233 8.801-20.03 13.674 0 0-24.376 10-28 26h56v12h-72c.485-8.926 4-30 25.166-41.325zm130.83-62.675v12c-3.354 3.3-36 46-42.094 92h-13.906c3.306-20.189 13.906-60 40-92h-56v-12z" fill="#df2031"/><path d="M77.167 142.68l14-8.033c6.27-3.62 10.67-6.707 13.198-9.264 3.986-4.005 5.98-8.588 5.98-13.751 0-6.031-1.824-10.82-5.47-14.366s-8.506-5.32-14.583-5.32c-8.993 0-15.215 3.378-18.667 10.133-1.847 3.618-2.868 8.636-3.062 15.054H55.219c.146-9.023 1.823-16.38 5.031-22.074 5.688-10.036 15.726-15.054 30.115-15.054 11.958 0 20.696 3.208 26.214 9.625s8.276 13.558 8.276 21.422c0 8.299-2.94 15.391-8.823 21.278-3.403 3.426-11.233 8.801-20.03 13.674 0 0-24.376 10-28 26h56v12h-72c.485-8.926 4-30 25.166-41.325zm130.83-62.675v12c-3.354 3.3-36 46-42.094 92h-13.906c3.306-20.189 13.906-60 40-92h-56v-12z" fill="#fff"/></g></svg>