<svg width="256" height="256" version="1.1" viewBox="0 0 256 256" xmlns="http://www.w3.org/2000/svg"><title>文件管理器-256px</title><defs><filter id="a" color-interpolation-filters="sRGB"><feFlood flood-color="#908B78" flood-opacity=".498" result="flood"/><feComposite in="flood" in2="SourceGraphic" operator="in" result="composite1"/><feGaussianBlur in="composite1" result="blur" stdDeviation="5"/><feOffset dx="0" dy="5" result="offset"/><feComposite in="SourceGraphic" in2="offset" result="composite2"/></filter></defs><g filter="url(#a)"><g fill-rule="evenodd"><path d="M32 89.6V64.002c0-2.947 2.19-6.307 4.87-7.495l81.572-36.181c5.387-2.39 14.12-2.382 19.49.01L219.133 56.5c2.688 1.197 4.867 4.556 4.867 7.502v166c0 3.314-2.678 6-6.01 6H38.01a6.002 6.002 0 0 1-6.01-6z" fill="#00b8ff"/><path d="M224 63.984c0-2.942-2.186-6.291-4.883-7.492l-81.164-36.146c-5.392-2.402-14.125-2.409-19.51-.02L36.868 56.507c-2.68 1.189-4.87 4.54-4.87 7.477v2c0-2.936 2.19-6.288 4.87-7.477l81.573-36.18c5.387-2.39 14.12-2.383 19.511.019l81.164 36.146c2.697 1.2 4.883 4.55 4.883 7.492z" fill="#5fd3ff"/><path fill="#ffd245" d="M37.869 74.923l158.34-23.752 21.377 152.108-158.34 23.748z"/><path fill="#eef6ff" d="M48 68h160v152H48z"/><path fill="#fff" d="M208 68H48v2h160z"/><path d="M34 88h188v142c0 2.21-1.8 4-3.992 4H37.988a3.997 3.997 0 0 1-3.992-4z" fill="#39d4ff" opacity=".7"/><path fill="#b3efff" opacity=".7" d="M222 88H34v2h188z"/></g><path d="M114 172v-40s3.333 11.333 14 11.333S142 132 142 132v64" fill="none" opacity=".1" stroke="#000" stroke-linecap="round" stroke-linejoin="round" stroke-width="5.6"/><path d="M114 170v-40s3.333 11.333 14 11.333S142 130 142 130v64" fill="none" stroke="#fff" stroke-linecap="round" stroke-linejoin="round" stroke-width="4"/><g fill-rule="evenodd"><circle cx="128" cy="130" r="20" opacity=".1"/><circle cx="128" cy="128" r="20" fill="#fff"/><circle cx="128" cy="128" r="8" fill="#4ed8ff"/></g></g></svg>