<svg width="256" height="256" version="1.1" viewBox="0 0 256 256" xmlns="http://www.w3.org/2000/svg"><title>deepin-movie</title><defs><linearGradient id="b" x1="195.69" x2="39.183" y1="26.71" y2="195.06" gradientTransform="matrix(1.044 0 0 .95785 18 18)" gradientUnits="userSpaceOnUse"><stop stop-color="#0BA2FF" offset="0"/><stop stop-color="#0067FF" offset="1"/></linearGradient><linearGradient id="c" x1="161.87" x2="109.19" y1="18.792" y2="216.11" gradientTransform="matrix(1.044 0 0 .95785 18 18)" gradientUnits="userSpaceOnUse"><stop stop-color="#4BB4FF" offset="0"/><stop stop-color="#005DDB" offset="1"/></linearGradient><linearGradient id="d" x1="114.46" x2="17.247" y1="59.113" y2="65.571" gradientTransform="matrix(.57944 0 0 1.7258 18 18)" gradientUnits="userSpaceOnUse"><stop stop-color="#2BB8FF" offset="0"/><stop stop-color="#537CFF" offset="1"/></linearGradient><linearGradient id="e" x1="122.74" x2="26.204" y1="93.367" y2="104.1" gradientTransform="matrix(.57944 0 0 1.7258 18 18)" gradientUnits="userSpaceOnUse"><stop stop-color="#5BCBFF" offset="0"/><stop stop-color="#0056CB" stop-opacity=".469" offset="1"/></linearGradient><linearGradient id="f" x1="130.02" x2="130.02" y1="74.71" y2="138.19" gradientTransform="matrix(.94622 0 0 1.0568 18 18)" gradientUnits="userSpaceOnUse"><stop stop-color="#fff" offset="0"/><stop stop-color="#EFFAFD" offset="1"/></linearGradient><filter id="a" color-interpolation-filters="sRGB"><feFlood flood-color="#908B78" flood-opacity=".498" result="flood"/><feComposite in="flood" in2="SourceGraphic" operator="in" result="composite1"/><feGaussianBlur in="composite1" result="blur" stdDeviation="5"/><feOffset dx="0" dy="5" result="offset"/><feComposite in="SourceGraphic" in2="offset" result="composite2"/></filter></defs><g filter="url(#a)"><path d="M235 41.007c0-2.765-2.243-5.007-4.99-5.007H29l16.43 189H230a5 5 0 0 0 4.997-5.006zM212 66h-22V46h22zm-38 0h-22V46h22zm-38 0h-22V46h22zm-38 0H76V46h22zm114 147h-22v-20h22zm-38 0h-22v-20h22zm-38 0h-22v-20h22z" fill="url(#b)" fill-rule="evenodd"/><path d="M31.19 38l16.067 185h182.75c1.65 0 2.99-1.343 2.99-3.006V41.004a3 3 0 0 0-2.992-3.006zM235 41.006v178.99a4.997 4.997 0 0 1-4.99 5.006H45.43L29 36.002h201.01a5 5 0 0 1 4.992 5.006z" fill="url(#c)"/><path d="M114 204v11h22v-11 9h-22zm38 0v11h22v-11 9h-22zm38 0v11h22v-11 9h-22zM76 57v11h22V57v9H76zm38 0v11h22V57v9h-22zm38 0v11h22V57v9h-22zm38 0v11h22V57v9h-22z" fill="#fff" fill-opacity=".1" fill-rule="evenodd"/><path d="M210 48h-18v17h18zm2 19h-22V46h22zm-40-19h-18v17h18zm2 19h-22V46h22zm-40-19h-18v17h18zm2 19h-22V46h22zM96 48H78v17h18zm2 19H76V46h22z" fill="#1b78ff"/><path d="M210 195h-18v17h18zm2 19h-22v-21h22zm-40-19h-18v17h18zm2 19h-22v-21h22zm-40-19h-18v17h18zm2 19h-22v-21h22z" fill="#005bfc"/><path d="M88.958 236.15l-56.035-1.957c-1.357-.1-5.329-.186-5.128-5.952l-6.357-199.93c-.044-1.322.149-4.255 5.515-5.132l26.831-4.389c5.33.186 5.066 3.894 5.143 5.505.77 16.472 4.397 91.226 5.48 110.79 1.475 26.668 16.13 34.234 23.125 34.478 3.998.14 3.791 3.458 3.84 4.637l3.041 56.2c-.193 5.549-5.455 5.754-5.455 5.754z" fill="url(#d)" fill-rule="evenodd"/><path d="M89.366 234.07a4.625 4.625 0 0 0 1.276-.47c1.061-.59 1.692-1.542 1.77-3.194l-3.037-56.131c-.028-.994-.05-1.264-.146-1.631-.194-.738-.56-1.05-1.766-1.091-4.811-.168-10.521-2.951-15.051-7.993-5.727-6.372-9.308-15.828-10.002-28.374-.9-16.24-4.302-85.555-5.481-110.8-.04-1.18-.066-1.492-.172-1.91-.264-1.04-.924-1.584-2.853-1.683l-26.628 4.355c-3.244.53-3.894 1.45-3.839 3.096l6.357 199.93c-.078 2.361.47 3.283 1.472 3.7.455.19.857.254 1.721.314.028.002 18.675.654 55.942 1.956.083-.008.236-.03.437-.073zm-.408 2.075l-56.035-1.957c-1.357-.1-5.329-.186-5.127-5.952l-6.357-199.93c-.045-1.322.148-4.255 5.514-5.133l26.831-4.388c5.33.186 5.066 3.894 5.144 5.505.769 16.472 4.397 91.226 5.48 110.79 1.475 26.668 16.13 34.234 23.125 34.478 3.997.14 3.79 3.458 3.84 4.637l3.04 56.2c-.193 5.548-5.455 5.753-5.455 5.753z" fill="url(#e)"/><g fill-rule="evenodd"><path d="M115.64 163.43c-2.564 1.452-4.642.243-4.642-2.701v-60.453c0-2.943 2.071-4.157 4.642-2.701l53.496 30.298c2.564 1.452 2.57 3.802 0 5.258z" fill="url(#f)"/><path d="M111 131.5v-31.226c0-2.944 2.07-4.157 4.642-2.701l53.496 30.298c1.736.983 2.3 2.378 1.684 3.629-.294-.597-.855-1.16-1.684-1.63l-53.496-30.298c-2.571-1.456-4.642-.242-4.642 2.702z" fill="#fff"/><path d="M111 131.5v31.226c0 2.944 2.078 4.153 4.642 2.701l53.496-30.297c1.74-.986 2.299-2.38 1.684-3.63-.293.597-.855 1.16-1.684 1.63l-53.496 30.298c-2.564 1.451-4.642.242-4.642-2.702z" fill="#0766f8"/></g></g></svg>