<svg width="256" height="256" version="1.1" viewBox="0 0 256 256" xmlns="http://www.w3.org/2000/svg"><title>deepin-repair-tools</title><defs><linearGradient id="b" x1="124.22" x2="124.22" y1="216.68" y2="31.944" gradientTransform="scale(1.0305 .97044)" gradientUnits="userSpaceOnUse"><stop stop-color="#8E8E8E" offset="0"/><stop stop-color="#AFAFAF" offset=".932"/><stop stop-color="#BEBEBE" offset=".932"/><stop stop-color="#C2C2C2" offset="1"/></linearGradient><linearGradient id="c" x1="124.22" x2="124.22" y1="31.944" y2="227.54" gradientTransform="scale(1.0305 .97044)" gradientUnits="userSpaceOnUse"><stop stop-color="#B3B3B3" offset="0"/><stop stop-color="#727272" offset="1"/></linearGradient><filter id="a" color-interpolation-filters="sRGB"><feFlood flood-color="#908B78" flood-opacity=".498" result="flood"/><feComposite in="flood" in2="SourceGraphic" operator="in" result="composite1"/><feGaussianBlur in="composite1" result="blur" stdDeviation="5"/><feOffset dx="0" dy="5" result="offset"/><feComposite in="SourceGraphic" in2="offset" result="composite2"/></filter></defs><g filter="url(#a)"><path d="M27.309 41.261l7.79-7.884A8 8 0 0 1 40.789 31h174.42a8 8 0 0 1 5.691 2.377l7.79 7.884a8 8 0 0 1 2.31 5.623v174.12a4 4 0 0 1-4 4H29a4 4 0 0 1-4-4V46.884a8 8 0 0 1 2.309-5.623z" fill="url(#b)" fill-rule="evenodd"/><path d="M28.732 42.666A6 6 0 0 0 27 46.883v174.12a2 2 0 0 0 2 2h198a2 2 0 0 0 2-2V46.883a6 6 0 0 0-1.732-4.217l-7.79-7.884A6 6 0 0 0 215.21 33H40.79a6 6 0 0 0-4.268 1.782zm-1.423-1.406l7.79-7.883A8 8 0 0 1 40.79 31h174.42a8 8 0 0 1 5.691 2.377l7.79 7.883a8 8 0 0 1 2.31 5.623v174.12a4 4 0 0 1-4 4H29a4 4 0 0 1-4-4V46.883a8 8 0 0 1 2.31-5.623z" fill="url(#c)"/><path d="M134.35 116.45l11.972-13.302a10.436 10.436 0 0 0 2.596-8.324 20.614 20.614 0 0 1-.158-3.419 20.858 20.858 0 0 1-.032-.504c-.578-11.013 7.883-20.409 18.897-20.987a19.912 19.912 0 0 1 14.804 5.47l-9.57 1.86c-5.421 1.053-8.962 6.302-7.908 11.723s6.303 8.962 11.724 7.909l11.381-2.213c-2.058 8.311-9.349 14.662-18.342 15.134-.433.023-.864.032-1.291.027-.901.097-1.808.134-2.715.112a10.443 10.443 0 0 0-8.007 3.452l-12.109 13.454-6.755-6.753a8.044 8.044 0 0 0-2.649-1.76c-.594-.6-1.208-1.227-1.838-1.88zm-14.605 16.228l.356.432a8.11 8.11 0 0 0 1.582 2.9l7.609 8.943-27.941 31.045c.074.565.12.992.134 1.28a12.158 12.158 0 0 1-11.516 12.79c-6.72.353-12.438-4.795-12.79-11.515s4.808-12.44 11.516-12.79c.287-.015.712-.015 1.276-.001zm-25.779 40.708l-6.47-1.494-4.53 4.857 1.942 6.351 6.47 1.494 4.53-4.857zm42.042-50.467l49.639 49.615c3.38 3.378 3.473 8.997.27 12.502-.984.917-3.411 2.965-3.411 2.965-3.712 2.993-9.259 2.44-12.35-1.193l-45.426-53.39a4.153 4.153 0 0 1-.943-2.111c-1.364-1.712-6.642-8.11-17.534-18.831-12.867-12.664-15.058-6.282-17.43-4.182s-2.129 4.049-2.129 4.049c-.205 1.2-1.036 2.804-1.968 3.582l-3.787 3.163c-.353.172-6.955-6.871-9.049-9.202-1.799-2.002-4.67-6.009-4.67-6.009-.329-.45-.284-1.137.088-1.544 0 0 3.508-3.98 4.805-4.057 3.81-.225 5.572-.58 7.438-3.423 1.867-2.843 1.866-5.084 2.904-6.73.69-1.094 6.452-8.195 14.886-13.167 16.177-9.537 28.735-10.114 31.34-9.932l12.186.852-6.305 6.217a24.38 24.38 0 0 1-1.907.579s-7.7 1.702-13.807 6.136c-6.107 4.435-7.764 12.064-3.084 21.044 2.745 5.269 4.536 7.089 8.29 11.342a244.873 244.873 0 0 0 9.973 10.636c.73.164 1.42.528 1.982 1.09z" fill="#fff"/></g></svg>