<svg width="256" height="256" version="1.1" viewBox="0 0 256 256" xmlns="http://www.w3.org/2000/svg"><title>deepin-screen-recorder</title><defs><linearGradient id="b" x1="119.73" x2="119.73" y1="39.911" y2="239.47" gradientTransform="matrix(1.069 0 0 .93541 -14.36 12.664)" gradientUnits="userSpaceOnUse"><stop stop-color="#FF9C53" offset="0"/><stop stop-color="#FF303E" offset="1"/></linearGradient><linearGradient id="c" x1="117.99" x2="117.99" y1="42.655" y2="239.76" gradientTransform="matrix(1.0789 -.11339 .09635 .91676 -12.905 14.093)" gradientUnits="userSpaceOnUse"><stop stop-color="#FF7C44" offset="0"/><stop stop-color="#FF4E5A" offset="1"/></linearGradient><filter id="a" color-interpolation-filters="sRGB"><feFlood flood-color="#908B78" flood-opacity=".498" result="flood"/><feComposite in="flood" in2="SourceGraphic" operator="in" result="composite1"/><feGaussianBlur in="composite1" result="blur" stdDeviation="5"/><feOffset dx="0" dy="5" result="offset"/><feComposite in="SourceGraphic" in2="offset" result="composite2"/></filter></defs><g fill-rule="evenodd" filter="url(#a)"><rect transform="rotate(-6)" x="6.974" y="49.997" width="213.33" height="186.67" rx="5.333" fill="url(#b)"/><path d="M12.735 56.303c-.317-2.932 1.81-5.559 4.724-5.865l201.57-21.186c2.926-.308 5.555 1.826 5.871 4.751l18.365 170.03c.316 2.932-1.81 5.56-4.724 5.866L36.97 231.085c-2.926.307-5.555-1.827-5.871-4.752z" fill="url(#c)"/><path d="M147.49 115.03l30.495-19.116c2.498-1.566 4.779-.462 5.095 2.46l6.314 58.342c.316 2.924-1.677 4.502-4.462 3.52l-33.947-11.956.739 7.028c.616 5.857-3.638 11.104-9.494 11.72l-68.952 7.247c-5.86.615-11.108-3.638-11.723-9.49l-5.018-47.744c-.616-5.857 3.638-11.104 9.494-11.72l68.952-7.247c5.859-.615 11.108 3.638 11.723 9.49zm0 0l-28.181 17.666c-2.495 1.564-2.268 3.629.513 4.608l31.163 10.976z" fill="#ff382d"/><path d="M147.49 112.03l30.495-19.116c2.498-1.566 4.779-.462 5.095 2.46l6.314 58.342c.317 2.924-1.677 4.502-4.447 3.526l-33.962-11.962.737 7.01c.616 5.867-3.636 11.122-9.493 11.738l-68.952 7.247c-5.859.616-11.107-3.625-11.725-9.508l-5.014-47.708c-.617-5.867 3.636-11.122 9.492-11.738l68.952-7.247c5.86-.616 11.107 3.624 11.725 9.508zm0 0l-28.181 17.666c-2.495 1.564-2.274 3.626.498 4.603l31.177 10.98z" fill="#fff"/><path fill="#fff" opacity=".3" d="M172.675 96.476l55.272-35.304 12.265 116.69-61.404-23.037z"/><path d="M177.99 94.915c2.498-1.566 4.779-.462 5.095 2.46l6.314 56.342c.317 2.924-1.677 4.502-4.447 3.526l-33.95-11.943.725 4.99c.616 5.867-3.637 11.122-9.493 11.738l-68.952 7.248c-5.859.616-11.107-3.625-11.725-9.508l-5.014-43.708c-.617-5.867 3.636-11.122 9.492-11.738l68.952-7.247c5.86-.616 11.398 3.624 12.016 9.507 0 0 .626 7.334.692 7.293l30.295-18.96zm-58.676 34.782c-2.495 1.564-2.274 5.626.498 6.603l31.491 10.98-3.808-35.25z" fill="#fff3f3"/><circle cx="212" cy="48" r="6" fill="#ff4000"/><circle cx="212" cy="46" r="6" fill="#fff"/></g></svg>