<svg width="256" height="256" version="1.1" viewBox="0 0 256 256" xmlns="http://www.w3.org/2000/svg"><g transform="translate(270.47)" filter="url(#a)"><circle cx="-143" cy="128" r="112" fill="#1a7df0" fill-rule="evenodd"/><path d="M-143 18c-60.751 0-110 49.249-110 110s49.249 110 110 110 110-49.249 110-110S-82.249 18-143 18zm0-2c61.856 0 112 50.144 112 112s-50.144 112-112 112-112-50.144-112-112 50.144-112 112-112z" fill="url(#b)"/><path d="M-206.75 125.67h14.082l-18.667 37.333-18.667-37.333h13.378c1.404-41.475 35.448-74.667 77.238-74.667 42.682 0 77.283 34.623 77.283 77.333s-34.601 77.333-77.283 77.333c-21.968 0-42.467-9.228-57.013-25.124a4.938 4.938 0 0 1 .307-6.974 4.93 4.93 0 0 1 6.97.307c12.695 13.875 30.564 21.918 49.735 21.918 37.233 0 67.417-30.203 67.417-67.46 0-37.259-30.184-67.462-67.417-67.462-36.34 0-65.966 28.773-67.365 64.794zm85.274-42.88a48.008 48.008 0 0 1 18.912 11.768c-1.464.038-2.996.04-4.557-.013 0 0-13.805.659-21.546 4.603 0 0-5.772 2.629-11.543 7.087 0 0-1.224.625-1.165 2.923.052 2.29-1.175 8.397-5.264 11.976 0 0-2.918 1.532-1.459 3.726 0 0 1.971 2.923 4.747-.147 0 0 7.159-7.523 7.597-19.646 0 0 2.264-1.975 5.841-2.558 0 0 .659 18.187-8.177 27.319 0 0-8.404 9.35-11.105-4.53 0 0-3.287-13.221 13.66-28.924 0 0 7.61-7.763 14.058-13.584zm-58.127 24.063c6.228-12.422 17.688-21.767 31.489-25.144-5.896 10.99-8.893 25.422-8.606 34.824 0 0-.542 16.522 10.96 22.382 0 0 10.337 4.463 17.382-9.968 0 0 4.842-8.143 2.871-26.549 0 0 1.886.327 2.099.621.213.291 4.164 14.17 1.388 25.857 0 0-2.556 13.734-15.122 16.875-12.561 3.14-22.351-4.458-28.998-11.616-4-4.307-9.564-14.478-13.463-27.283zm4.716 50.525c14.765 2.46 34.83 3.1 49.068-6.95 13.163-9.295 11.467-24.18 11.467-24.18-.218-11.324-7.374-22.57-7.374-22.57 27.826 24.25 11.379 51.188 11.379 51.188-4.53 8.913-11.888 15.924-19.993 21.056-2.07.273-4.182.414-6.327.414-15.595 0-29.452-7.437-38.22-18.958z" fill="#006eee"/><path d="M-206.75 122.67h14.082l-18.667 37.333-18.667-37.333h13.378c1.404-41.475 35.448-74.667 77.238-74.667 42.682 0 77.283 34.623 77.283 77.333s-34.601 77.333-77.283 77.333c-21.968 0-42.467-9.228-57.013-25.124a4.938 4.938 0 0 1 .307-6.974 4.93 4.93 0 0 1 6.97.307c12.695 13.875 30.564 21.918 49.735 21.918 37.233 0 67.417-30.203 67.417-67.46 0-37.259-30.184-67.462-67.417-67.462-36.34 0-65.966 28.773-67.365 64.794zm85.274-42.88a48.008 48.008 0 0 1 18.912 11.768c-1.464.038-2.996.04-4.557-.013 0 0-13.805.659-21.546 4.603 0 0-5.772 2.629-11.543 7.087 0 0-1.224.625-1.165 2.923.052 2.29-1.175 8.397-5.264 11.976 0 0-2.918 1.532-1.459 3.726 0 0 1.971 2.923 4.747-.147 0 0 7.159-7.523 7.597-19.646 0 0 2.264-1.975 5.841-2.558 0 0 .659 18.187-8.177 27.319 0 0-8.404 9.35-11.105-4.53 0 0-3.287-13.221 13.66-28.924 0 0 7.61-7.763 14.058-13.584zm-58.127 24.063c6.228-12.422 17.688-21.767 31.489-25.144-5.896 10.99-8.893 25.422-8.606 34.824 0 0-.542 16.522 10.96 22.382 0 0 10.337 4.463 17.382-9.968 0 0 4.842-8.143 2.871-26.549 0 0 1.886.327 2.099.621.213.291 4.164 14.17 1.388 25.857 0 0-2.556 13.734-15.122 16.875-12.561 3.14-22.351-4.458-28.998-11.616-4-4.307-9.564-14.478-13.463-27.283zm4.716 50.525c14.765 2.46 34.83 3.1 49.068-6.95 13.163-9.295 11.467-24.18 11.467-24.18-.218-11.324-7.374-22.57-7.374-22.57 27.826 24.25 11.379 51.188 11.379 51.188-4.53 8.913-11.888 15.924-19.993 21.056-2.07.273-4.182.414-6.327.414-15.595 0-29.452-7.437-38.22-18.958z" fill="url(#c)"/></g><title>deepin-clone</title><defs><linearGradient id="b" x1="127" x2="127" y1="16" y2="240" gradientTransform="translate(-270)" gradientUnits="userSpaceOnUse"><stop stop-color="#53A3FF" offset="0"/><stop stop-color="#0065EA" offset="1"/></linearGradient><linearGradient id="c" x1="118.97" x2="118.97" y1="50.011" y2="211.16" gradientTransform="matrix(1.0419 0 0 .95978 -270 0)" gradientUnits="userSpaceOnUse"><stop stop-color="#fff" offset="0"/><stop stop-color="#E9F2F4" offset="1"/></linearGradient><filter id="a" color-interpolation-filters="sRGB"><feFlood flood-color="#A9A69A" flood-opacity=".498" result="flood"/><feComposite in="flood" in2="SourceGraphic" operator="in" result="composite1"/><feGaussianBlur in="composite1" result="blur" stdDeviation="5"/><feOffset dx="0" dy="5" result="offset"/><feComposite in="SourceGraphic" in2="offset" result="composite2"/></filter></defs></svg>