<svg width="256" height="256" version="1.1" viewBox="0 0 256 256" xmlns="http://www.w3.org/2000/svg" xmlns:xlink="http://www.w3.org/1999/xlink"><title>deepin-system-monitor</title><defs><linearGradient id="b" x1="126.52" x2="87.308" y1="224" y2="2.701" gradientUnits="userSpaceOnUse"><stop stop-color="#4721FF" offset="0"/><stop stop-color="#8F86FF" offset="1"/></linearGradient><linearGradient id="c" x1="126.27" x2="87.279" y1="222" y2="2" gradientUnits="userSpaceOnUse"><stop stop-color="#5F3EFF" offset="0"/><stop stop-color="#6E62FF" offset="1"/></linearGradient><linearGradient id="e" x1="88" x2="88" y2="176" gradientUnits="userSpaceOnUse"><stop stop-color="#1E007E" offset="0"/><stop stop-color="#3721B2" offset="1"/></linearGradient><circle id="d" cx="88" cy="88" r="88"/><path id="h" d="M37.736 125.66c.207.442.587 1.153 1.143 2.044a27.973 27.973 0 0 0 3.296 4.3c3.767 4.024 8.381 6.488 13.825 6.488 6.659 0 11.541-3.936 15.226-11.153 2.618-5.125 4.146-10.111 7.196-22.056 2.95-11.551 4.422-16.354 6.804-21.02 2.914-5.705 6.29-8.426 10.774-8.426 4.42 0 7.471 2.641 9.866 8.269 1.977 4.644 3.04 9.443 5.003 20.978 2.036 11.96 3.14 16.95 5.33 22.097 3.106 7.295 7.745 11.31 14.468 11.31 4.598 0 7.993-1.974 10.314-5.602 1.655-2.586 2.577-5.4 3.786-10.567.076-.321.148-.633.293-1.26 1.989-8.564 3.396-11.05 6.94-11.05 2.73 0 3.977 1.79 5.858 7.989.095.312.55 1.83.68 2.259.277.91.512 1.656.754 2.378 3.924 11.72 10.637 17.232 24.95 15.843a2.5 2.5 0 0 0-.484-4.977c-11.731 1.139-16.48-2.76-19.725-12.454a83.668 83.668 0 0 1-.712-2.245c-.127-.418-.581-1.933-.68-2.256-1.136-3.746-1.936-5.781-3.2-7.594-1.782-2.556-4.24-3.943-7.442-3.943-3.882 0-6.72 1.877-8.634 5.257-1.31 2.314-2.003 4.61-3.176 9.663l-.29 1.25c-2.159 9.22-4.135 12.31-9.233 12.31-4.42 0-7.471-2.641-9.866-8.269-1.977-4.644-3.039-9.443-5.003-20.978-2.036-11.96-3.14-16.95-5.33-22.097-3.106-7.295-7.744-11.31-14.468-11.31-6.658 0-11.54 3.936-15.226 11.152-2.617 5.125-4.145 10.111-7.195 22.056-2.95 11.551-4.422 16.354-6.805 21.02-2.914 5.705-6.289 8.426-10.774 8.426-3.89 0-7.275-1.808-10.175-4.904a23.03 23.03 0 0 1-3.37-4.677 9.317 9.317 0 0 1-.19-.37 2.5 2.5 0 1 0-4.529 2.12z"/><filter id="g" x="-11.1%" y="-24.3%" width="122.1%" height="148.6%"><feMorphology in="SourceAlpha" operator="dilate" radius="1" result="shadowSpreadOuter1"/><feOffset dx="0" dy="0" in="shadowSpreadOuter1" result="shadowOffsetOuter1"/><feGaussianBlur in="shadowOffsetOuter1" result="shadowBlurOuter1" stdDeviation="4.5"/><feColorMatrix in="shadowBlurOuter1" values="0 0 0 0 0.243137255 0 0 0 0 0.423529412 0 0 0 0 1 0 0 0 1 0"/></filter><filter id="a" color-interpolation-filters="sRGB"><feFlood flood-color="#908B78" flood-opacity=".498" result="flood"/><feComposite in="flood" in2="SourceGraphic" operator="in" result="composite1"/><feGaussianBlur in="composite1" result="blur" stdDeviation="5"/><feOffset dx="0" dy="5" result="offset"/><feComposite in="SourceGraphic" in2="offset" result="composite2"/></filter></defs><g transform="translate(16 16)" fill="none" fill-rule="evenodd" filter="url(#a)"><circle cx="112" cy="112" r="112" fill="url(#b)"/><circle cx="112" cy="112" r="110" fill="url(#c)"/><g transform="translate(24 25)"><mask id="f" fill="#fff"><use width="100%" height="100%" xlink:href="#d"/></mask><use width="100%" height="100%" fill="url(#e)" xlink:href="#d"/><g stroke="#fff" stroke-width="2"><path d="M45 8h86" mask="url(#f)" opacity=".2"/><path d="M28 21h123M16 34h148" mask="url(#f)" opacity=".1"/><path d="M10 47h158" mask="url(#f)" opacity=".2"/><path d="M1 60h176M1 73h176" mask="url(#f)" opacity=".1"/><path d="M0 86h178" mask="url(#f)" opacity=".2"/><path d="M1 99h176M3 112h171" mask="url(#f)" opacity=".1"/><path d="M9 125h160" mask="url(#f)" opacity=".2"/><path d="M16 138h147M26 151h125" mask="url(#f)" opacity=".1"/><path d="M165 135V39M9 135V39" mask="url(#f)" opacity=".2"/><path d="M22 145V24M35 167V12" mask="url(#f)" opacity=".1"/><path d="M48 168V9" mask="url(#f)" opacity=".2"/><path d="M61 173V3M74 172V-1" mask="url(#f)" opacity=".1"/><path d="M87 173V-1" mask="url(#f)" opacity=".2"/><path d="M100 172V-1M113 173V3" mask="url(#f)" opacity=".1"/><path d="M126 170V9" mask="url(#f)" opacity=".2"/><path d="M139 167V12M152 145V24" mask="url(#f)" opacity=".1"/></g></g><path d="M152.39 195.69c30.566-14.957 51.615-46.363 51.615-82.685 0-50.81-41.19-92-92-92s-92 41.19-92 92c0 36.402 21.142 67.867 51.817 82.784" opacity=".497" stroke="#fff" stroke-linecap="round" stroke-width="8"/><path d="M112 21c-50.81 0-92 41.19-92 92 0 36.402 21.142 67.867 51.817 82.784" stroke="#fff" stroke-linecap="round" stroke-linejoin="round" stroke-width="8"/><g fill-rule="nonzero"><use width="100%" height="100%" fill="#000" filter="url(#g)" xlink:href="#h"/><use width="100%" height="100%" fill="#fff" fill-rule="evenodd" xlink:href="#h"/></g><rect x="85" y="187" width="54" height="24" rx="12" fill="#6040ff"/><path d="M99.78 209.36c1.92 0 3.5-.76 4.72-2.18l-1.56-1.84c-.8.86-1.8 1.46-3.06 1.46-2.34 0-3.86-1.94-3.86-5.16 0-3.18 1.68-5.1 3.92-5.1 1.12 0 1.98.52 2.72 1.24l1.56-1.88c-.96-1-2.46-1.9-4.34-1.9-3.74 0-6.88 2.86-6.88 7.74 0 4.94 3.04 7.62 6.78 7.62zm7.1-.28v-14.8h4.86c3.28 0 5.8 1.14 5.8 4.64 0 3.38-2.54 4.9-5.72 4.9h-1.98v5.26zm2.96-7.6h1.78c2.04 0 3.02-.86 3.02-2.56 0-1.72-1.08-2.3-3.12-2.3h-1.68zm16.06 7.88c3.62 0 5.72-2.02 5.72-6.94v-8.14h-2.84v8.4c0 3.08-1.12 4.12-2.88 4.12-1.74 0-2.8-1.04-2.8-4.12v-8.4h-2.96v8.14c0 4.92 2.16 6.94 5.76 6.94z" fill="#4e30dd"/><path d="M99.78 207.36c1.92 0 3.5-.76 4.72-2.18l-1.56-1.84c-.8.86-1.8 1.46-3.06 1.46-2.34 0-3.86-1.94-3.86-5.16 0-3.18 1.68-5.1 3.92-5.1 1.12 0 1.98.52 2.72 1.24l1.56-1.88c-.96-1-2.46-1.9-4.34-1.9-3.74 0-6.88 2.86-6.88 7.74 0 4.94 3.04 7.62 6.78 7.62zm7.1-.28v-14.8h4.86c3.28 0 5.8 1.14 5.8 4.64 0 3.38-2.54 4.9-5.72 4.9h-1.98v5.26zm2.96-7.6h1.78c2.04 0 3.02-.86 3.02-2.56 0-1.72-1.08-2.3-3.12-2.3h-1.68zm16.06 7.88c3.62 0 5.72-2.02 5.72-6.94v-8.14h-2.84v8.4c0 3.08-1.12 4.12-2.88 4.12-1.74 0-2.8-1.04-2.8-4.12v-8.4h-2.96v8.14c0 4.92 2.16 6.94 5.76 6.94z" fill="#fff"/></g></svg>