<svg width="256" height="256" version="1.1" viewBox="0 0 256 256" xmlns="http://www.w3.org/2000/svg"><title>deepin-sound-recorder</title><defs><linearGradient id="b" x1="128" x2="128" y1="16" y2="239.63" gradientUnits="userSpaceOnUse"><stop stop-color="#FF9BBA" offset="0"/><stop stop-color="#DA0C0C" offset="1"/></linearGradient><linearGradient id="c" x1="128" x2="128" y1="23.035" y2="236.64" gradientUnits="userSpaceOnUse"><stop stop-color="#FF4B83" offset="0"/><stop stop-color="#EE3A3A" offset="1"/></linearGradient><linearGradient id="d" x1="179.4" x2="179.4" y1="38.529" y2="116.33" gradientTransform="scale(.71351 1.4015)" gradientUnits="userSpaceOnUse"><stop stop-color="#FF004F" offset="0"/><stop stop-color="#FF7F90" offset="1"/></linearGradient><filter id="a" color-interpolation-filters="sRGB"><feFlood flood-color="#908B78" flood-opacity=".498" result="flood"/><feComposite in="flood" in2="SourceGraphic" operator="in" result="composite1"/><feGaussianBlur in="composite1" result="blur" stdDeviation="5"/><feOffset dx="0" dy="5" result="offset"/><feComposite in="SourceGraphic" in2="offset" result="composite2"/></filter></defs><g filter="url(#a)"><circle cx="128" cy="128" r="112" fill="url(#b)" fill-rule="evenodd"/><circle cx="128" cy="128" r="109" fill="url(#c)" fill-rule="evenodd"/><path d="M92 134.07c0 19.867 17.876 35.905 36 35.905s36-12.042 36-35.905v-16.039H92zm80 0c0 29.884-21.876 43.933-44 43.933s-44-17.157-44-43.933v-16.046h88z" fill="#e40f35"/><path d="M92 138.07c0 19.867 17.876 35.905 36 35.905s36-12.042 36-35.905v-18.039H92zm80 0c0 29.884-21.876 43.933-44 43.933s-44-17.157-44-43.933v-18.046h88z" fill="#ff8090"/><path d="M92.124 135.98c0 19.798 17.876 35.78 36 35.78s36-12 36-35.78v-15.983h-72zm80 0c0 29.78-21.876 43.78-44 43.78s-44-17.097-44-43.78v-15.983h88z" fill="#fff"/><g fill-rule="evenodd"><path d="M100 82.002C100 66.537 112.533 54 128 54c15.464 0 28 12.533 28 27.992v6.386L144 102l12 20.21v13.799c0 15.459-12.533 27.99-28 27.99-15.464 0-28-12.535-28-27.996v-13.738L112 106l-12-14.053z" fill="url(#d)"/><rect x="100" y="56" width="56" height="106" rx="28" fill="#fff"/><path fill="#e40f35" d="M100 186v8h56v-8z"/><path fill="#ff8090" d="M100 190v8h56v-8z"/><path fill="#fff" d="M100 188v8h56v-8h-24v-16h-8v16z"/></g><g fill="#f94568" fill-rule="evenodd"><circle cx="128" cy="78" r="6"/><path d="M100 104h24v6h-24zM132 104h24v6h-24zM100 114h24v6h-24zM132 114h24v6h-24zM100 94h24v6h-24zM132 94h24v6h-24z"/></g><path fill="#ff0050" fill-rule="evenodd" d="M100 94h24v2h-24zM132 94h24v2h-24z"/><g fill="#fc7489" fill-rule="evenodd"><path d="M100 98h24v2h-24zM132 98h24v2h-24zM100 108h24v2h-24zM132 108h24v2h-24zM100 118h24v2h-24zM132 118h24v2h-24z"/></g><g fill="#ff0050" fill-rule="evenodd"><path d="M100 104h24v2h-24zM132 104h24v2h-24zM100 114h24v2h-24zM132 114h24v2h-24z"/></g></g></svg>