<svg width="256" height="256" version="1.1" viewBox="0 0 256 256" xmlns="http://www.w3.org/2000/svg"><title>远程协助-256px</title><defs><linearGradient id="b" x1="121.18" x2="121.18" y1="40.14" y2="240.84" gradientTransform="scale(1.0563 .94669)" gradientUnits="userSpaceOnUse"><stop stop-color="#01D2C4" offset="0"/><stop stop-color="#0D9E94" offset="1"/></linearGradient><linearGradient id="c" x1="119.25" x2="119.25" y1="44.009" y2="241.51" gradientTransform="scale(1.0734 .93162)" gradientUnits="userSpaceOnUse"><stop stop-color="#1CC3BD" offset="0"/><stop stop-color="#0FBBAF" offset="1"/></linearGradient><filter id="a" color-interpolation-filters="sRGB"><feFlood flood-color="#908B78" flood-opacity=".498" result="flood"/><feComposite in="flood" in2="SourceGraphic" operator="in" result="composite1"/><feGaussianBlur in="composite1" result="blur" stdDeviation="5"/><feOffset dx="0" dy="5" result="offset"/><feComposite in="SourceGraphic" in2="offset" result="composite2"/></filter></defs><g fill-rule="evenodd" filter="url(#a)"><path d="M228.99 38a5 5 0 0 1 5.005 5.009v179.98a5.005 5.005 0 0 1-5.005 5.008H27a5 5 0 0 1-5.005-5.008V43.009A5.005 5.005 0 0 1 27 38z" fill="url(#b)"/><path d="M228.99 41c2.764 0 5.005 2.244 5.005 4.993v174.01a4.997 4.997 0 0 1-5.005 4.993H27c-2.764 0-5.005-2.244-5.005-4.993V45.993A4.997 4.997 0 0 1 27 41z" fill="url(#c)"/><path d="M167.32 84.406c-5.208 5.316-23.833 24.011-33.781 33.792l27.917 27.833-33.375 33.885c-13.712-13.131-27.185-26.358-40.823-39.469l-.27-.24c-6.752-5.63-10.656-14.78-9.25-23.26 1.497-11.369 12.7-21.198 23.99-20.958 2.188-.029 4.396.458 6.072.813 5.337 1.145 10.288 5.96 14.865 10.594-.009.009 2.48 2.5 2.48 2.5l6.5 6.469 13.103-13.104c2.013-2.013 3.125-5.867 0-8.959-1.598-1.598-3.355-2.091-4.958-1.937-1.603.154-3.053.953-4.031 1.937l-6.094 6.094c-4.718-4.701-12.024-11.807-19.667-13.469a34.112 34.112 0 0 0-8.354-1.062c-17.05-.337-31.723 12.973-33.948 29.479-2.042 12.486 3.413 24.883 12.77 32.688l-.27-.24c13.68 13.151 28.409 27.317 42.24 40.438 1.948 1.698 3.534 1.98 5.583 1.98 1.58.02 3.378-.519 5.219-2.292l30.875-30.948s20.68-20.61 30.885-30.75c2.178-2.179 2.334-5.229.156-7.407-2.177-2.176-5.292-2.103-7.469.073l-22.062 22.062c-.578.123-1.798-1.147-1.74-1.864l32.595-32.604c2.178-2.178 2.34-5.291.156-7.47-2.178-2.177-5.083-1.873-7.26.303l-25.812 25.823c-.676.117-2.145-1.157-1.959-2.02l30.552-30.563c1.753-1.874 2.797-5.204.553-7.552-2.178-2.178-5.52-2.03-7.698.156l-31.521 31.531c-.757 0-1.91-1.06-1.896-1.844l23.073-23.073c2.175-2.177 2.572-5.218.198-7.468-1.187-1.126-2.57-1.613-3.906-1.563-1.337.05-2.628.637-3.636 1.667z" fill="#0d9e94"/><path d="M167.32 81.406c-5.208 5.316-23.833 24.011-33.781 33.792l27.917 27.833-33.375 33.885c-13.712-13.131-27.185-26.358-40.823-39.469l-.27-.24c-6.752-5.63-10.656-14.78-9.25-23.26 1.497-11.369 12.7-21.198 23.99-20.958 2.188-.029 4.396.458 6.072.813 5.337 1.145 10.288 5.96 14.865 10.594-.009.009 2.48 2.5 2.48 2.5l6.5 6.469 13.103-13.104c2.013-2.013 3.125-5.867 0-8.959-1.598-1.598-3.355-2.091-4.958-1.937-1.603.154-3.053.953-4.031 1.937l-6.094 6.094c-4.718-4.701-12.024-11.807-19.667-13.469a34.112 34.112 0 0 0-8.354-1.062c-17.05-.337-31.723 12.973-33.948 29.479-2.042 12.486 3.413 24.883 12.77 32.688l-.27-.24c13.68 13.151 28.409 27.317 42.24 40.438 1.948 1.698 3.534 1.98 5.583 1.98 1.58.02 3.378-.519 5.219-2.292l30.875-30.948s20.68-20.61 30.885-30.75c2.178-2.179 2.334-5.229.156-7.407-2.177-2.176-5.292-2.103-7.469.073l-22.062 22.062c-.578.123-1.798-1.147-1.74-1.864l32.595-32.604c2.178-2.178 2.34-5.291.156-7.47-2.178-2.177-5.083-1.873-7.26.303l-25.812 25.823c-.676.117-2.145-1.157-1.959-2.02l30.552-30.563c1.753-1.874 2.797-5.204.553-7.552-2.178-2.178-5.52-2.03-7.698.156l-31.521 31.531c-.757 0-1.91-1.06-1.896-1.844l23.073-23.073c2.175-2.177 2.572-5.218.198-7.468-1.187-1.126-2.57-1.613-3.906-1.563-1.337.05-2.628.637-3.636 1.667z" fill="#edfffd"/><path d="M135.06 116.71l-1.514-1.51c9.949-9.78 28.574-28.474 33.781-33.791 1.008-1.03 2.3-1.616 3.636-1.667 1.336-.05 2.719.437 3.906 1.563 1.571 1.489 1.929 3.325 1.36 5.028-.253-.714-.699-1.402-1.36-2.028-1.187-1.126-2.57-1.613-3.906-1.563-1.337.05-2.628.637-3.636 1.667-4.953 5.057-22.05 22.22-32.268 32.3zm24.912 27.838l-31.884 32.372c-13.712-13.131-27.185-26.358-40.823-39.469l-.27-.24c-5.434-4.531-9.023-11.342-9.485-18.249-.539 7.887 3.264 16.061 9.484 21.25l.271.239c13.638 13.111 27.111 26.338 40.823 39.469l33.375-33.885zM146.506 97.2c.48-1.857.146-4.017-1.752-5.894-1.598-1.599-3.355-2.092-4.958-1.938-1.603.155-3.053.954-4.031 1.938l-6.094 6.093c-4.718-4.701-12.024-11.807-19.667-13.469a34.112 34.112 0 0 0-8.354-1.062c-17.05-.336-31.723 12.973-33.948 29.479a32.649 32.649 0 0 0-.393 6.763c.057-1.25.187-2.506.393-3.763C69.926 98.84 84.6 85.532 101.65 85.867c2.812.008 5.625.365 8.354 1.063 7.642 1.662 14.949 8.768 19.667 13.47l6.094-6.094c.978-.984 2.428-1.783 4.03-1.938 1.604-.154 3.36.34 4.96 1.938.929.92 1.484 1.907 1.751 2.894zm49.968 23.689c.564-1.73.158-3.6-1.314-5.073-2.177-2.176-5.292-2.103-7.468.073l-22.062 22.062c-.136.029-.306-.019-.487-.118l-1.253 1.253c-.06.718 1.162 1.988 1.74 1.865l22.062-22.062c2.176-2.176 5.291-2.249 7.468-.073.632.632 1.067 1.337 1.314 2.073zm1.487-19.774c.556-1.743.149-3.634-1.321-5.1-2.178-2.179-5.083-1.874-7.26.301l-25.813 25.823c-.203.036-.477-.055-.757-.222l-1.201 1.202c-.186.864 1.283 2.138 1.958 2.02l25.812-25.823c2.178-2.176 5.083-2.48 7.26-.302a5.308 5.308 0 0 1 1.322 2.101zm-4.195-14.378c.454-1.582.285-3.332-1.053-4.733-2.178-2.178-5.52-2.03-7.698.157l-31.521 31.53c-.179 0-.379-.058-.58-.158l-1.316 1.315c-.014.784 1.14 1.844 1.896 1.844l31.52-31.531c2.178-2.187 5.52-2.335 7.699-.157a4.549 4.549 0 0 1 1.053 1.733z" fill="#fff"/></g></svg>