<svg width="256" height="256" version="1.1" viewBox="0 0 256 256" xmlns="http://www.w3.org/2000/svg" xmlns:xlink="http://www.w3.org/1999/xlink"><title>deepin-download</title><defs><linearGradient id="b" x1="128" x2="128" y1="223" y2="16" gradientUnits="userSpaceOnUse"><stop stop-color="#5141FF" offset="0"/><stop stop-color="#00C0FF" offset="1"/></linearGradient><linearGradient id="c" x1="128" x2="128" y1="16" y2="223.87" gradientUnits="userSpaceOnUse"><stop stop-color="#46CEFF" offset="0"/><stop stop-color="#3D3AEC" offset="1"/></linearGradient><linearGradient id="d" x1="2.634" x2="129.28" y1="64.028" y2="64.028" gradientTransform="scale(.90967 1.0993)" gradientUnits="userSpaceOnUse"><stop stop-color="#fff" offset="0"/><stop stop-color="#fff" offset=".499"/><stop stop-color="#F4FBFF" offset=".499"/><stop stop-color="#fff" offset="1"/></linearGradient><path id="e" d="M58.268 139L2.664 42.62a2 2 0 0 1 2.38-2.892L59.353 58.31a2 2 0 0 0 1.295 0l54.309-18.582a2 2 0 0 1 2.38 2.892L61.733 139a2 2 0 0 1-3.465 0zM32.633.88l26.735 8.912a2 2 0 0 0 1.265 0L87.368.88A2 2 0 0 1 90 2.777v2.784a2 2 0 0 1-1.367 1.897l-28 9.334a2 2 0 0 1-1.265 0l-28-9.334A2 2 0 0 1 30 5.561V2.777A2 2 0 0 1 32.633.88zm0 20l26.735 8.912a2 2 0 0 0 1.265 0l26.735-8.912A2 2 0 0 1 90 22.777v2.784a2 2 0 0 1-1.367 1.897l-28 9.334a2 2 0 0 1-1.265 0l-28-9.334A2 2 0 0 1 30 25.561v-2.784a2 2 0 0 1 2.633-1.897z"/><filter id="a" color-interpolation-filters="sRGB"><feFlood flood-color="#A9A69A" flood-opacity=".498" result="flood"/><feComposite in="flood" in2="SourceGraphic" operator="in" result="composite1"/><feGaussianBlur in="composite1" result="blur" stdDeviation="5"/><feOffset dx="0" dy="5" result="offset"/><feComposite in="SourceGraphic" in2="offset" result="composite2"/></filter></defs><g filter="url(#a)"><circle cx="128" cy="128" r="112" fill="url(#b)" fill-rule="evenodd"/><path d="M128 19C67.801 19 19 67.801 19 128s48.801 109 109 109 109-48.801 109-109S188.199 19 128 19zm0-3c61.856 0 112 50.144 112 112s-50.144 112-112 112S16 189.856 16 128 66.144 16 128 16z" fill="url(#c)"/><g transform="translate(68 59)" fill="none" fill-rule="evenodd"><use width="100%" height="100%" fill="url(#d)" fill-rule="evenodd" xlink:href="#e"/><path d="M59.134 138.5a1 1 0 0 0 1.732 0l55.604-96.38a1 1 0 0 0-1.19-1.446L60.971 59.256a3 3 0 0 1-1.942 0L4.72 40.674a1 1 0 0 0-1.19 1.446zM32.316 1.83A1 1 0 0 0 31 2.779v2.783a1 1 0 0 0 .684.949l28 9.333a1 1 0 0 0 .632 0l28-9.333A1 1 0 0 0 89 5.562V2.78a1 1 0 0 0-1.316-.949l-26.735 8.912a3 3 0 0 1-1.898 0zm0 20a1 1 0 0 0-1.316.949v2.783a1 1 0 0 0 .684.949l28 9.333a1 1 0 0 0 .632 0l28-9.333a1 1 0 0 0 .684-.949V22.78a1 1 0 0 0-1.316-.949l-26.735 8.912a3 3 0 0 1-1.898 0z" stroke="#fff" stroke-width="2"/></g></g></svg>