<svg width="256" height="256" version="1.1" viewBox="0 0 256 256" xmlns="http://www.w3.org/2000/svg"><title>深度启动盘制作工具-256px</title><g transform="translate(262)" fill-rule="evenodd" filter="url(#a)"><path d="M-221.2 215.2c-24.431-24.431-28.446-67.721-4.23-91.936l38.17-38.171 96.168 96.167-38.171 38.171c-24.22 24.219-67.5 20.206-91.936-4.23zm11.308-11.308c-13.158-13.158-19.531-35.752-13.029-52.627l65.393 65.393c-16.885 6.495-39.232.366-52.364-12.766z" fill="url(#b)"/><path d="M-218.37 212.37c-24.431-24.431-28.446-67.721-4.23-91.936l32.515-32.515 96.167 96.167-32.515 32.515c-24.22 24.219-67.5 20.206-91.936-4.23zm-4.55-61.106l65.393 65.393c-16.885 6.495-39.232.366-52.364-12.766-13.158-13.158-19.531-35.752-13.03-52.627z" fill="#f5b923"/><path d="M-103.18 16.428l80.752 80.752c4.256 4.256 4.277 11.137.106 15.309l-68.766 68.766-96.167-96.167 68.766-68.766c4.198-4.198 11.024-4.179 15.309.106z" fill="#2e2e2e"/><path d="M-106.01 19.256l80.752 80.752c4.256 4.257 4.277 11.137.106 15.309l-65.938 65.938-96.167-96.167 65.938-65.938c4.198-4.198 11.024-4.179 15.309.106z"/><path d="M-102.4 34.177l8.485 8.485-31.113 31.113-8.485-8.485zm53.74 53.74l8.485 8.485-31.113 31.113-8.485-8.485zm-42.426-31.113l8.485 8.485-19.799 19.8-8.485-8.486zm19.799 19.799l8.485 8.485-19.799 19.8-8.485-8.486zm-59.397 31.113l-8.485 8.485-8.486-8.485 8.486-8.485zm25.456 25.456l-8.485 8.485-8.486-8.485 8.486-8.485z" fill="#e0c13f"/><path d="M-102.4 34.177l8.485 8.485-28.284 28.284-8.485-8.485zm53.74 53.74l8.485 8.485-28.284 28.284-8.485-8.485zm-42.426-31.113l8.485 8.485-16.97 16.971-8.486-8.485zm19.799 19.799l8.485 8.485-16.97 16.971-8.486-8.485zm-59.397 31.113l-5.657 5.657-8.485-8.485 5.657-5.657zm25.456 25.456l-5.657 5.657-8.485-8.485 5.657-5.657z" fill="#ffeb95"/><path fill="#c38f0b" d="M-222.609 151.558l1.414-4.243 67.882 67.882-4.243 1.414z"/></g><defs><linearGradient id="b" x1="75.561" x2="75.561" y1="125.8" y2="251.4" gradientTransform="rotate(45 -49.184 -142.078) scale(1.08278 .92355)" gradientUnits="userSpaceOnUse"><stop stop-color="#FBCA48" offset="0"/><stop stop-color="#C38F0C" offset="1"/></linearGradient><filter id="a" color-interpolation-filters="sRGB"><feFlood flood-color="#908B78" flood-opacity=".498" result="flood"/><feComposite in="flood" in2="SourceGraphic" operator="in" result="composite1"/><feGaussianBlur in="composite1" result="blur" stdDeviation="5"/><feOffset dx="0" dy="5" result="offset"/><feComposite in="SourceGraphic" in2="offset" result="composite2"/></filter></defs></svg>