<svg width="256" height="256" version="1.1" viewBox="0 0 256 256" xmlns="http://www.w3.org/2000/svg"><title>深度用户反馈-256px</title><defs><linearGradient id="b" x1="124.92" x2="124.92" y1="21.86" y2="240.46" gradientTransform="scale(1.0247 .9759)" gradientUnits="userSpaceOnUse"><stop stop-color="#A9FF5A" offset="0"/><stop stop-color="#239D00" offset="1"/></linearGradient><filter id="a" color-interpolation-filters="sRGB"><feFlood flood-color="#908B78" flood-opacity=".498" result="flood"/><feComposite in="flood" in2="SourceGraphic" operator="in" result="composite1"/><feGaussianBlur in="composite1" result="blur" stdDeviation="5"/><feOffset dx="0" dy="5" result="offset"/><feComposite in="SourceGraphic" in2="offset" result="composite2"/></filter></defs><g fill-rule="evenodd" filter="url(#a)"><path d="M126 224c61.858 0 112-42.425 112-101.34 0-58.906-50.142-101.33-112-101.33S14 63.755 14 122.66c0 32.259 15.035 59.574 38.795 77.687 1.422 1.084-1.806 22.307-11.016 29.323-2.268 1.726-.806 5.272 2.027 4.975 10.834-1.136 26.743-5.2 37.773-18.503 13.62 5.092 28.638 7.854 44.42 7.854z" fill="#57c93f"/><path d="M236 122.66c0-55.565-47.104-97.325-108-97.331-60.894 0-108 41.764-108 97.331 0 29.983 13.59 56.492 37.22 74.506 4.471 3.409-.064 22.18-7.32 31.832-1.172 1.557-2.124 1.39-.95 1.209 12.587-1.945 23.693-7.14 31.55-16.618l1.815-2.19 2.665.996c13.371 5 27.934 7.601 43.019 7.601 60.895 0 108-41.765 108-97.336zM83.58 216.142c-11.03 13.303-26.939 17.367-37.773 18.503-2.834.297-4.295-3.25-2.027-4.975 9.21-7.016 12.438-28.239 11.016-29.323C31.036 182.234 16 154.92 16 122.66 16 63.754 66.143 21.33 128 21.33c61.858.005 112 42.425 112 101.33C240 181.571 189.859 224 128 224c-15.782 0-30.802-2.762-44.42-7.854z" fill="url(#b)" opacity=".3"/><path d="M182 100a6 6 0 0 0 0-12H74a6 6 0 0 0 0 12zm0 32a6 6 0 0 0 0-12H74a6 6 0 0 0 0 12zm0 32a6 6 0 0 0 0-12H74a6 6 0 0 0 0 12z" fill="#37bf14"/><path d="M182 96a6 6 0 0 0 0-12H74a6 6 0 0 0 0 12zm0 32a6 6 0 0 0 0-12H74a6 6 0 0 0 0 12zm0 32a6 6 0 0 0 0-12H74a6 6 0 0 0 0 12z" fill="#f0ffe4"/><g fill="#fff"><path d="M187.66 92a6 6 0 0 0-5.659-8h-108a6 6 0 0 0-5.658 8c.823-2.33 3.046-4 5.658-4h108a6.003 6.003 0 0 1 5.659 4zM187.66 124a6 6 0 0 0-5.659-8h-108a6 6 0 0 0-5.658 8c.823-2.33 3.046-4 5.658-4h108a6.003 6.003 0 0 1 5.659 4zM187.66 156a6 6 0 0 0-5.659-8h-108a6 6 0 0 0-5.658 8c.823-2.33 3.046-4 5.658-4h108a6.003 6.003 0 0 1 5.659 4z"/></g></g></svg>