<svg width="256" height="256" version="1.1" viewBox="0 0 256 256" xmlns="http://www.w3.org/2000/svg"><title>软件包安装器-256px</title><defs><linearGradient id="b" x1="108.12" x2="108.12" y1="163.07" y2="268.55" gradientTransform="scale(1.1838 .84471)" gradientUnits="userSpaceOnUse"><stop stop-color="#D5E6F5" offset="0"/><stop stop-color="#DEE8F2" offset="1"/></linearGradient><linearGradient id="c" x1="58.27" x2="58.27" y1="202.47" y2="222.93" gradientTransform="scale(2.1928 .45603)" gradientUnits="userSpaceOnUse"><stop stop-color="#fff" offset="0"/><stop stop-color="#C9DAE9" offset="1"/></linearGradient><filter id="a" color-interpolation-filters="sRGB"><feFlood flood-color="#A9A69A" flood-opacity=".498" result="flood"/><feComposite in="flood" in2="SourceGraphic" operator="in" result="composite1"/><feGaussianBlur in="composite1" result="blur" stdDeviation="5"/><feOffset dx="0" dy="5" result="offset"/><feComposite in="SourceGraphic" in2="offset" result="composite2"/></filter></defs><g fill-rule="evenodd" filter="url(#a)"><path d="M206 230H50c-4 0-6-2-6-6V28c0-4 2-6 6-6h110l52 52v150c0 6-6 6-6 6z" fill="#d70751"/><path d="M44 224c0 4 2 6 6 6h156s6 0 6-6v-2c0 6-6 6-6 6H50c-4 0-6-2-6-6z" fill-opacity=".2"/><path d="M44 28c0-4 2-6 6-6h110v2H50c-4 0-6 2-6 6z" fill="#fff" opacity=".25"/><path d="M80.637 195.32c-.049.045-.049 7.164-.15 9.022-.099 1.502-.25 4.73-3.859 4.73-3.709 0-4.61-3.759-4.911-5.393-.35-1.814-.35-3.319-.35-3.98 0-2.124.15-8.052 5.813-8.052 1.705 0 2.657.444 3.408.796l.049 2.877zm-14.534 5.22c0-5.132 1.454-12.031 10.425-12.032 2.055 0 3.259.31 4.21.574 0-5.836 0-6.5-1.353-7.782 3.408-.264 4.963-.751 6.766-1.504-.65 3.45-.65 14.815-.65 21.537 0 6.901.6 10.085 1.402 11.5-.45-.045-.851-.088-1.252-.088-.403-.045-.853-.045-1.404-.045-1.554 0-2.505.088-3.458.133l-.101-3.935c-.851 2.608-2.857 4.112-5.964 4.112-1.102 0-8.621 0-8.621-12.47zm40.713-1.815l-.097 2.608H93.384c0 2.166.1 8.448 7.92 8.448 3.006 0 4.36-.751 5.414-1.328-.303 1.37-.552 2.388-.503 3.98-.902.224-2.558.664-5.964.664-7.669 0-12.229-3.538-12.229-12.515 0-2.121 0-12.118 10.224-12.118 7.418 0 8.57 5.087 8.57 10.262zm-13.531-.443h8.57c.1-3.141-.2-6.944-4.11-6.944-3.557 0-4.41 3.273-4.46 6.944zm15.454 7.165h.001V194.57c0-9.509 0-12.43-1.954-13.136 2.153-.177 4.16-.397 7.416-1.724-.4 4.024-.448 11.896-.448 14.151.75-1.813 2.153-5.35 6.965-5.35 2.405 0 4.661 1.061 6.063 3.138 1.453 2.212 1.654 5.706 1.654 7.297 0 2.61-.501 6.06-1.955 8.625-3.056 5.527-8.72 5.527-10.675 5.527-3.059 0-5.613-.397-7.669-1.105.602-1.414.602-3.27.602-6.544zm14.384-4.82c0-3.449-.752-8.092-4.561-8.092-.45 0-2.806.043-3.857 3.182-.353.975-.803 2.962-.803 6.767 0 3.184 0 5.926.1 7.517.652.132 1.653.267 2.456.267 5.814 0 6.665-5.529 6.665-9.642zm14.948 12.205c-1.004-.132-1.707-.221-3.16-.221-1.601 0-2.707.09-3.858.221.501-.84.701-1.24.851-4.112.202-3.937.251-14.463-.099-16.674-.251-1.682-.701-1.946-1.403-2.388 4.11-.354 5.262-.618 7.166-1.414-.4 1.944-.452 2.92-.452 5.88-.098 15.26-.15 16.896.955 18.709zm2.265-7.075c0-5.928 4.21-8.092 10.577-8.093 1.354 0 2.157.088 3.11.13 0-3.447 0-5.88-4.162-5.88-2.605 0-5.161.796-7.118 2.3-.45-1.904-.95-2.742-1.553-3.716 1.454-.663 4.36-1.99 9.32-1.99 7.52 0 8.523 3.316 8.523 6.678l-.05 9.022c0 2.344 0 4.025.099 5.705.152 1.724.452 2.168 1.003 2.92-.85-.046-1.653-.133-2.505-.133-1.504 0-2.406.087-3.308.132-.15-1.549-.202-2.742-.15-4.688-.954 1.858-2.506 4.866-7.118 4.866-.402 0-1.655 0-2.908-.487-2.808-1.195-3.76-3.98-3.76-6.767zm13.785-5.441h-2.659c-1.902 0-6.113.312-6.113 4.468 0 2.167.649 4.377 3.659 4.377 1.303 0 3.057-.575 4.11-2.565.853-1.548.903-3.494 1.003-6.28zm28.869 8.139c.05 1.504.05 3.096.752 4.378-1.105-.087-1.756-.221-3.809-.221-1.204 0-1.855.09-2.808.221.2-.574.302-.796.402-1.549.15-1.015.25-4.421.25-5.616v-4.776c0-2.079 0-5.087-.152-6.147-.1-.751-.348-2.785-3.258-2.785-2.857 0-3.808 1.856-4.16 3.36-.4 1.547-.4 3.229-.4 9.773.05 5.662.05 6.19.55 7.74a31.375 31.375 0 0 0-3.407-.176c-1.204 0-2.005.043-3.006.175.35-.708.552-1.062.651-3.538.102-2.432.302-14.374-.152-17.203-.249-1.726-.752-2.123-1.301-2.565 4.06-.178 5.362-.753 6.616-1.326v4.686c.6-1.372 1.853-4.423 6.867-4.423 6.266 0 6.314 4.025 6.365 6.677zm-44.496-26.47l-4.151 3.66-4.15-3.66 4.15-3.661zm22.812-85.05l-.999 2.116c1.478-4.465.627-9.328.834-13.532l-.41-.11c-.362-10.575-9.507-21.814-17.64-25.62-7.015-3.237-17.81-3.794-22.797-1.353.686-.608 3.421-.863 2.597-1.33-7.809.774-6.063 2.722-12.05 4.25-1.642 1.586 4.791-1.271 1.33.783-3.211.887-4.707-.558-9.466 4.365.424.684 3.021-2.026.855.695-4.473-.554-14.126 10.232-16.177 13.806l1.072.183c-1.76 4.41-4.076 7.223-4.388 9.864-.456 6.495-2.725 18.34.424 21.979l-.306 3.038c.431.863.76 1.74 1.295 2.551l-.699.056c3.312 10.452 3.558.195 7.934 11.05-.636-.214-1.276-.448-2.2-1.695-.112.952 1.346 3.81 3.076 6.04l-.732.836c.964 1.754 1.853 2.138 2.522 2.747-3.6-1.965 3.34 6.477 3.966 7.552l.554-.986c-.082 1.419 1.015 3.25 3.071 5.784l1.713-.068c.704 1.398 3.284 3.913 4.849 4.033l-1.041 1.358c3.928 1.243 1.908 1.648 6.735 3.357l-.975-1.722c2.463 2.137 3.223 4.005 6.698 5.643 4.818 1.68 5.457 1.013 10.4 2.428-4.19-.117-9.117-.074-12.43-1.262-22.607-6.122-43.29-32.642-41.778-59.959-.347-5.53.55-12.44-.37-13.817 1.291-4.21 2.79-9.34 5.801-15.445-.218-.41.496 1.196 2.027-1.415.928-2.038 1.687-4.284 2.856-6.266l.602-.14c.602-3.5 8.164-8.866 10.414-11.567l.154 1.032c4.91-4.605 13.661-7.69 18.587-9.89-1.294 1.433 2.899-.141 5.919-.325-.953.532-1.9.948-2.791 1.575 3.624-.866 3.451.355 7.156-.135-1.3.188-2.879.705-2.628.9 4.14.48 4.773-1.279 8.603-.002l-.242-1.133c5.323 1.92 6.437 1.594 12.221 4.663 2.028.1 2.233-1.251 5.298-.003.54.947-.123 1.124 3.646 3.364.417-.167-.752-1.23-1.676-2.078 7.573 4.048 15.802 12.677 18.313 21.912-2.353-4.332-.242 2.21-1.052 1.868 1.05 2.826 1.907 5.747 2.44 8.762-.699-2.472-2.214-8.442-4.87-12.291-.218 2.483-3.428-1.717-1.673 3.753 1.335 1.939.27-1.965 1.919 1.479.026 1.637.65 3.263 1.013 5.394-.564-.091-1.26-2.357-1.67-1.726.57 2.682 1.51 4.081 1.867 4.287-.182.45-.658-.419-.692 1.406.221 4.199 1.177 2.428 1.632 2.627-.46 2.068-2.31 4.498-1.395 8.055-.262-1.078-.776-2.162-1.163-3.183-.36 3.037.672 3.629-.73 7.308 1.01-3.316.901-6.31-.052-4.87.423 4.716-3.733 8.335-3.28 11.319l-1.208-1.663c-3.27 4.74-.077 2.61-2.3 6.202.816-1.41-.428-.581.634-2.18-.706.04-3.147 3.002-5.384 4.744-8.784 7.04-19.27 7.962-29.423 4.17-.395.324 1.811 2.054 3.44 2.89 3.867 1.43 8.24 1.487 11.684 1.36-7.442 3.112-21.647-3.16-26.294-11.48 1.05.228 4.651 5.85 7.35 6.76-1.595-1.276-2.828-2.9-3.971-4.572 2.154 2.474 4.77 4.495 7.63 5.833-.181-.694.79-.834-.562-1.746-8.607-6.596-13.694-12.2-11.927-25.179 1.311-.992 1.662-6.405 4.673-8.3 1.835-4.056 7.335-7.791 13.214-7.887 5.998-.327 11.063 3.206 13.605 6.538-4.629-4.32-12.21-5.631-18.675-2.432-6.611 2.977-10.531 10.257-9.96 17.505.245-.36.465-.136.582-1.03-.203 14.09 15.185 24.418 26.26 19.205l.13.294c4.494-1.228 3.914-2.238 6.851-4.254-.228.472-1.978 1.68-.935 1.703 1.429-.38 5.888-4.531 8.085-6.482 1.006-2.171-.539-1.174.867-3.905l1.72-.855c.955-2.76 2.012-4.321 1.893-7.534z" fill="#ac0540"/><path d="M80.637 192.77c-.049.045-.049 7.164-.15 9.022-.099 1.502-.25 4.73-3.859 4.73-3.709 0-4.61-3.758-4.911-5.393-.35-1.814-.35-3.319-.35-3.98 0-2.124.15-8.052 5.813-8.052 1.705 0 2.657.444 3.408.796l.049 2.877zm-14.534 5.22c0-5.132 1.454-12.031 10.425-12.032 2.055 0 3.259.31 4.21.574 0-5.836 0-6.5-1.353-7.782 3.408-.264 4.963-.751 6.766-1.504-.65 3.45-.65 14.815-.65 21.537 0 6.901.6 10.085 1.402 11.5-.45-.045-.851-.088-1.252-.088-.403-.045-.853-.045-1.404-.045-1.554 0-2.505.088-3.458.133l-.101-3.935c-.851 2.608-2.857 4.112-5.964 4.112-1.102 0-8.621 0-8.621-12.47zm40.713-1.815l-.097 2.608H93.384c0 2.166.1 8.448 7.92 8.448 3.006 0 4.36-.751 5.414-1.328-.303 1.37-.552 2.388-.503 3.98-.902.224-2.558.664-5.964.664-7.669 0-12.229-3.538-12.229-12.515 0-2.121 0-12.118 10.224-12.118 7.418 0 8.57 5.086 8.57 10.262zm-13.531-.443h8.57c.1-3.141-.2-6.944-4.11-6.944-3.557 0-4.41 3.273-4.46 6.944zm15.454 7.165h.001V192.02c0-9.509 0-12.43-1.954-13.136 2.153-.177 4.16-.397 7.416-1.724-.4 4.024-.448 11.897-.448 14.152.75-1.814 2.153-5.352 6.965-5.352 2.405 0 4.661 1.062 6.063 3.14 1.453 2.212 1.654 5.705 1.654 7.297 0 2.609-.501 6.059-1.955 8.624-3.056 5.527-8.72 5.527-10.675 5.527-3.059 0-5.613-.397-7.669-1.105.602-1.414.602-3.27.602-6.544zm14.384-4.82c0-3.449-.752-8.092-4.561-8.092-.45 0-2.806.043-3.857 3.182-.353.975-.803 2.962-.803 6.767 0 3.184 0 5.926.1 7.518.652.131 1.653.266 2.456.266 5.814 0 6.665-5.529 6.665-9.642zm14.948 12.205c-1.004-.132-1.707-.221-3.16-.221-1.601 0-2.707.09-3.858.221.501-.84.701-1.24.851-4.112.202-3.937.251-14.463-.099-16.674-.251-1.682-.701-1.946-1.403-2.388 4.11-.354 5.262-.618 7.166-1.414-.4 1.944-.452 2.92-.452 5.88-.098 15.26-.15 16.896.955 18.709zm2.265-7.075c0-5.928 4.21-8.092 10.577-8.093 1.354 0 2.157.088 3.11.13 0-3.447 0-5.88-4.162-5.88-2.605 0-5.161.796-7.118 2.3-.45-1.904-.95-2.742-1.553-3.716 1.454-.663 4.36-1.99 9.32-1.99 7.52 0 8.523 3.316 8.523 6.678l-.05 9.022c0 2.344 0 4.025.099 5.705.152 1.724.452 2.168 1.003 2.92-.85-.046-1.653-.133-2.505-.133-1.504 0-2.406.087-3.308.132-.15-1.549-.202-2.742-.15-4.688-.954 1.858-2.506 4.866-7.118 4.866-.402 0-1.655 0-2.908-.487-2.808-1.195-3.76-3.98-3.76-6.767zm13.785-5.441h-2.659c-1.902 0-6.113.312-6.113 4.468 0 2.167.649 4.377 3.659 4.377 1.303 0 3.057-.575 4.11-2.565.853-1.548.903-3.494 1.003-6.28zm28.869 8.139c.05 1.504.05 3.096.752 4.378-1.105-.087-1.756-.221-3.809-.221-1.204 0-1.855.09-2.808.221.2-.574.302-.796.402-1.549.15-1.015.25-4.421.25-5.616v-4.776c0-2.079 0-5.087-.152-6.147-.1-.751-.348-2.785-3.258-2.785-2.857 0-3.808 1.856-4.16 3.36-.4 1.547-.4 3.229-.4 9.773.05 5.662.05 6.19.55 7.74a31.375 31.375 0 0 0-3.407-.176c-1.204 0-2.005.043-3.006.175.35-.708.552-1.062.651-3.538.102-2.432.302-14.374-.152-17.203-.249-1.726-.752-2.123-1.301-2.565 4.06-.178 5.362-.753 6.616-1.326v4.687c.6-1.373 1.853-4.424 6.867-4.424 6.266 0 6.314 4.025 6.365 6.677zm-44.496-26.47l-4.151 3.66-4.15-3.66 4.15-3.661zm22.812-85.05l-.999 2.116c1.478-4.465.627-9.327.834-13.532l-.41-.11c-.362-10.575-9.507-21.814-17.64-25.62-7.015-3.237-17.81-3.794-22.797-1.353.686-.608 3.421-.863 2.597-1.33-7.809.774-6.063 2.722-12.05 4.25-1.642 1.586 4.791-1.271 1.33.783-3.211.887-4.707-.558-9.466 4.366.424.683 3.021-2.027.855.694-4.473-.554-14.126 10.232-16.177 13.806l1.072.183c-1.76 4.41-4.076 7.223-4.388 9.864-.456 6.495-2.725 18.34.424 21.979l-.306 3.038c.431.863.76 1.74 1.295 2.551l-.699.056c3.312 10.452 3.558.195 7.934 11.05-.636-.214-1.276-.448-2.2-1.695-.112.952 1.346 3.81 3.076 6.04l-.732.836c.964 1.754 1.853 2.138 2.522 2.747-3.6-1.965 3.34 6.477 3.966 7.552l.554-.986c-.082 1.419 1.015 3.25 3.071 5.784l1.713-.068c.704 1.398 3.284 3.913 4.849 4.033l-1.041 1.358c3.928 1.243 1.908 1.648 6.735 3.357l-.975-1.722c2.463 2.137 3.223 4.005 6.698 5.643 4.818 1.68 5.457 1.013 10.4 2.428-4.19-.117-9.117-.074-12.43-1.262-22.607-6.121-43.29-32.642-41.778-59.959-.347-5.53.55-12.44-.37-13.817 1.291-4.21 2.79-9.34 5.801-15.445-.218-.41.496 1.196 2.027-1.414.928-2.039 1.687-4.285 2.856-6.267l.602-.14c.602-3.5 8.164-8.866 10.414-11.567l.154 1.032c4.91-4.605 13.661-7.69 18.587-9.89-1.294 1.433 2.899-.141 5.919-.325-.953.532-1.9.949-2.791 1.575 3.624-.866 3.451.355 7.156-.135-1.3.188-2.879.705-2.628.9 4.14.48 4.773-1.278 8.603-.002l-.242-1.133c5.323 1.92 6.437 1.594 12.221 4.663 2.028.1 2.233-1.251 5.298-.003.54.947-.123 1.124 3.646 3.365.417-.168-.752-1.232-1.676-2.079 7.573 4.048 15.802 12.677 18.313 21.912-2.353-4.332-.242 2.21-1.052 1.868 1.05 2.826 1.907 5.747 2.44 8.762-.699-2.472-2.214-8.442-4.87-12.291-.218 2.483-3.428-1.717-1.673 3.753 1.335 1.939.27-1.965 1.919 1.479.026 1.637.65 3.263 1.013 5.394-.564-.091-1.26-2.357-1.67-1.726.57 2.682 1.51 4.081 1.867 4.287-.182.45-.658-.419-.692 1.406.221 4.199 1.177 2.428 1.632 2.627-.46 2.068-2.31 4.498-1.395 8.055-.262-1.078-.776-2.162-1.163-3.183-.36 3.037.672 3.629-.73 7.308 1.01-3.316.901-6.31-.052-4.87.423 4.716-3.733 8.335-3.28 11.319l-1.208-1.662c-3.27 4.738-.077 2.61-2.3 6.201.816-1.41-.428-.58.634-2.18-.706.04-3.147 3.002-5.384 4.744-8.784 7.04-19.27 7.962-29.423 4.171-.395.323 1.811 2.053 3.44 2.89 3.867 1.429 8.24 1.486 11.684 1.358-7.442 3.113-21.647-3.159-26.294-11.48 1.05.229 4.651 5.85 7.35 6.762-1.595-1.277-2.828-2.902-3.971-4.573 2.154 2.474 4.77 4.496 7.63 5.833-.181-.694.79-.834-.562-1.746-8.607-6.596-13.694-12.2-11.927-25.179 1.311-.992 1.662-6.405 4.673-8.3 1.835-4.056 7.336-7.791 13.214-7.887 5.998-.327 11.063 3.206 13.605 6.538-4.629-4.32-12.21-5.631-18.675-2.432-6.611 2.977-10.531 10.257-9.96 17.505.245-.36.465-.136.582-1.03-.203 14.09 15.185 24.418 26.26 19.205l.13.294c4.494-1.228 3.914-2.238 6.851-4.254-.228.472-1.978 1.68-.934 1.703 1.428-.38 5.887-4.531 8.084-6.482 1.007-2.171-.539-1.174.867-3.905l1.72-.855c.955-2.76 2.012-4.321 1.893-7.534z" fill="#ffe1ec"/><g fill="#fff"><path d="M158.99 92.538l-.78 1.653c.577-1.744.782-3.55.837-5.352.027 1.223.031 2.463-.057 3.699zm.003-8.388l-.007-.356.022.006c-.006.116-.01.233-.015.35zm-74.852 17.645c.097 2.491.522 4.584 1.547 5.768l-.228 2.262c-1.166-1.652-1.429-4.66-1.319-8.03zm1.467 9.116c.318.68.605 1.36 1.026 2l-.669.053c3.169 9.998 3.404.186 7.59 10.569-.608-.205-1.221-.429-2.105-1.622a.587.587 0 0 0-.003.028c-2.292-3.083-2.953 1.559-5.482-6.422l.67-.054c-.513-.777-.827-1.615-1.24-2.44zm7.572 15.04c.372.591.784 1.184 1.213 1.737l-.7.8c.921 1.678 1.772 2.046 2.412 2.628-3.444-1.88 3.195 6.195 3.794 7.224l.53-.943c-.078 1.357.97 3.108 2.937 5.532l1.638-.064c.675 1.336 3.142 3.743 4.64 3.857l-.997 1.299c3.757 1.189 1.825 1.577 6.442 3.211l-.932-1.647c2.356 2.044 3.083 3.831 6.407 5.398 4.609 1.606 5.22.97 9.948 2.323-4.009-.112-8.721-.072-11.89-1.207-.215-.059-.43-.119-.644-.18-1.392-1.152-2.24-2.409-3.821-3.78l.932 1.646c-4.617-1.634-2.685-2.022-6.442-3.211l.996-1.299c-1.497-.114-3.964-2.52-4.639-3.857l-1.638.065c-1.966-2.425-3.015-4.176-2.938-5.533l-.529.944c-.6-1.03-7.238-9.105-3.794-7.225-.64-.582-1.49-.95-2.413-2.628l.7-.8c-1.654-2.133-3.05-4.866-2.942-5.777.703.95 1.235 1.286 1.73 1.486zM78.6 102.73a49.551 49.551 0 0 1 .002-2.64c.013.407.031.81.056 1.207-.026.478-.046.955-.058 1.432zm-.011-5.709c-.047-2.32.062-4.751.108-6.794.068 1.734-.067 4.22-.108 6.794zm.063-10.076c-.06-.657-.167-1.148-.348-1.418 1.235-4.027 2.669-8.934 5.55-14.774-.209-.392.474 1.143 1.938-1.353.888-1.95 1.614-4.098 2.732-5.995l.576-.133c.576-3.35 7.81-8.481 9.962-11.064l.147.987c4.697-4.405 13.067-7.357 17.78-9.46-1.237 1.37 2.773-.135 5.661-.311-.91.509-1.816.907-2.67 1.506 3.468-.828 3.303.34 6.846-.129-1.244.18-2.754.675-2.513.862 3.96.457 4.565-1.224 8.229-.003l-.231-1.084c5.09 1.837 6.157 1.525 11.69 4.46 1.94.096 2.135-1.196 5.067-.002.516.906-.117 1.075 3.487 3.218.4-.16-.718-1.178-1.602-1.988 7.243 3.872 15.115 12.126 17.518 20.96-1.139-2.095-1.185-1.531-1.053-.503-3.175-7.64-10.066-14.482-16.465-17.903.884.81 2.002 1.827 1.603 1.988-3.605-2.144-2.971-2.313-3.488-3.218-2.931-1.195-3.127.098-5.067.002-5.533-2.935-6.598-2.624-11.69-4.46l.232 1.083c-3.665-1.22-4.27.46-8.23.003-.24-.187 1.27-.682 2.514-.861-3.544.468-3.379-.7-6.846.128.854-.599 1.76-.997 2.67-1.506-2.888.176-6.899 1.682-5.661.31-4.712 2.104-13.083 5.056-17.78 9.461l-.148-.987c-2.152 2.583-9.385 7.715-9.961 11.064l-.576.134c-1.118 1.896-1.845 4.044-2.732 5.994-1.464 2.497-2.147.962-1.939 1.353-2.615 5.303-4.038 9.836-5.202 13.64zm88.995-14.476c.022.375-.015.613-.182.542 1.003 2.703 1.824 5.497 2.332 8.38-.413-1.465-1.127-4.214-2.214-6.97-.147-1.089-.433-2.48.064-1.952zm-4.206.44c.03.102.064.207.099.315 1.277 1.855.258-1.88 1.835 1.415.025 1.565.622 3.121.97 5.16-.243-.04-.51-.497-.767-.936a9.22 9.22 0 0 1-.203-1.671c-1.577-3.294-.558.44-1.835-1.414-.743-2.315-.556-2.82-.099-2.868zm2.842 9.102c.1.121.184.2.25.238-.175.43-.63-.401-.662 1.344.007.135.015.263.024.385-.381-.676-.826-1.763-1.148-3.277.393-.604 1.058 1.563 1.597 1.651l-.06-.341zm-.262 3.1c.341 2.006 1.045.835 1.41.995-.182.82-.592 1.7-.948 2.69-.275-.18-.516-.827-.612-2.65.01-.59.07-.885.15-1.035zm-.052 8.108c.034.194.077.391.128.592-.04-.17-.089-.34-.142-.51l.014-.082zm-.996.2c.047.638.082 1.246-.037 2.028a13.928 13.928 0 0 1-.028-.64c.054-.49.07-.919.052-1.256.003-.044.008-.088.013-.132zm-.072 2.236c-.104.579-.292 1.255-.615 2.102.25-.817.427-1.613.538-2.321a.91.91 0 0 1 .078.219zm-27.269 23.677c-2.71.516-6.002.089-9.288-1.018 3.107.826 6.224 1.18 9.288 1.018zm-12.62-2.376c-.082-.16-.27-.352-.648-.608-2.003-1.535-3.808-3.015-5.367-4.554.716.9 1.5 1.74 2.404 2.465-2.58-.87-6.026-6.248-7.03-6.467 2.08 3.723 6.159 7.017 10.64 9.164zM112.65 95.57c-.084-1.768.012-3.707.305-5.857 1.254-.949 1.59-6.127 4.47-7.94 1.755-3.88 7.017-7.453 12.64-7.544 5.737-.313 10.582 3.066 13.014 6.254-3.564-3.327-8.958-4.788-14.153-3.635-5.183.512-9.866 3.862-11.501 7.479-2.88 1.812-3.216 6.99-4.47 7.939a36.375 36.375 0 0 0-.305 3.304zm3.033-.736l.005.067c.235-.343.444-.13.556-.984-.193 13.477 14.525 23.356 25.12 18.37l.125.28c4.298-1.173 3.743-2.14 6.553-4.068-.219.451-1.893 1.607-.894 1.63 1.366-.365 5.632-4.335 7.733-6.201.963-2.077-.515-1.123.829-3.736l1.645-.818c.502-1.45 1.034-2.555 1.392-3.766l.419-.887c.114 3.073-.897 4.566-1.811 7.206l-1.645.818c-1.344 2.613.134 1.659-.83 3.736-2.1 1.866-6.366 5.837-7.732 6.2-.999-.021.675-1.177.894-1.629-2.81 1.928-2.255 2.895-6.553 4.069l-.125-.281c-10.595 4.986-25.313-4.893-25.12-18.37-.112.854-.321.64-.556.984-.069-.875-.07-1.751-.005-2.62zM73.169 190.52c-.029.475-.032.896-.032 1.222 0 .633 0 2.072.335 3.807.287 1.564 1.15 5.16 4.698 5.16 3.452 0 3.597-3.089 3.692-4.526.096-1.777.096-8.587.143-8.63l-.027-1.577c-.025 1.957-.042 6.29-.116 7.654-.095 1.437-.24 4.525-3.692 4.525-3.548 0-4.41-3.596-4.698-5.16a18.526 18.526 0 0 1-.303-2.475zM82.094 180.31c-.908-.252-2.059-.548-4.02-.548-8.581.001-9.971 6.601-9.971 11.51 0 .457.01.897.03 1.32.245-4.71 2.061-10.276 9.942-10.277 1.965 0 3.117.297 4.026.55 0-1 0-1.841-.007-2.555zm-.106-4.998c-.143-1.264-.462-1.763-1.18-2.444 3.26-.253 4.747-.718 6.472-1.439-.12.638-.218 1.559-.296 2.675-1.386.562-2.691.957-4.996 1.208zm4.67 17.118c.023 6.325.59 9.275 1.341 10.6-.289-.028-.556-.056-.816-.072-.324-1.802-.526-4.465-.526-8.375v-2.153zM94.318 189.11c-.14.797-.202 1.663-.215 2.553h8.198c.026-.833.023-1.714-.074-2.553z"/><path d="M107.01 190.59l.04-1.052c0-4.95-1.103-9.816-8.198-9.816-9.78 0-9.78 9.563-9.78 11.592 0 .42.01.828.031 1.223.18-3.305 1.408-10.26 9.749-10.26 6.374 0 7.911 3.927 8.158 8.314zm-12.607 3.995c.475 2.5 2.063 5.529 7.374 5.529 2.876 0 4.17-.719 5.18-1.27-.222 1-.413 1.804-.47 2.805-.956.496-2.259 1.018-4.71 1.018-7.48 0-7.576-6.01-7.576-8.082zM113.83 194.04l-.001.367c0 3.045 0 5.668.096 7.191.623.126 1.581.255 2.349.255 5.561 0 6.375-5.289 6.375-9.223 0-.393-.01-.803-.034-1.22-.2 3.696-1.389 7.89-6.341 7.89-.768 0-1.726-.129-2.349-.255-.072-1.143-.09-2.907-.094-5.005zM108.89 192.04v3.926h-.001c0 3.132 0 4.907-.575 6.26.162.056.328.11.498.162.077-1.017.077-2.265.077-3.869h.001zm-.342-16.641c-.26-1.423-.719-2.112-1.528-2.404 2.06-.17 3.98-.38 7.095-1.65a58.84 58.84 0 0 0-.19 2.63c-2.243.898-3.86 1.24-5.377 1.424zm5.152 9.449c.721-1.744 2.076-5.084 6.649-5.084 2.3 0 4.458 1.016 5.8 3.002 1.389 2.117 1.581 5.458 1.581 6.98 0 .41-.013.84-.04 1.286-.107-1.695-.465-4.072-1.542-5.713-1.34-1.986-3.5-3.002-5.8-3.002-4.602 0-5.944 3.384-6.662 5.119 0-.557.003-1.471.014-2.588zM136.16 202.93c.254.029.508.062.786.099-.734-1.205-.934-2.328-.957-7.793-.012 3.985.021 6.248.171 7.694zm-5.199.022c-.244.023-.485.049-.728.077.48-.805.67-1.186.815-3.934.079-1.549.133-4.164.147-6.853.019 3.474-.043 7.365-.147 9.406-.027.51-.055.939-.087 1.304zm.012-19.663a7.205 7.205 0 0 0-.02-.144c-.24-1.608-.671-1.861-1.343-2.284 3.931-.339 5.034-.592 6.855-1.353-.21 1.026-.32 1.77-.377 2.707-1.394.556-2.488.811-5.115 1.074zM144.03 196.76c-.08.337-.123.709-.123 1.12 0 2.073.621 4.187 3.5 4.187 1.247 0 2.924-.55 3.931-2.454.817-1.48.865-3.341.96-6.007h-.12c-.106 1.386-.313 2.5-.84 3.454-1.006 1.904-2.684 2.454-3.93 2.454-2.207 0-3.087-1.241-3.378-2.754zM152.11 188.64c-.872-.042-1.63-.12-2.882-.12-6.09 0-10.118 2.07-10.118 7.74 0 .428.024.857.074 1.278.574-4.708 4.433-6.465 10.044-6.466 1.296 0 2.064.084 2.975.126 0-.943 0-1.806-.093-2.558zm-11.123-4.886c-.318-.879-.666-1.454-1.06-2.09 1.392-.634 4.172-1.903 8.917-1.903 7.191 0 8.152 3.172 8.152 6.388l-.012 1.984c-.124-3.011-1.374-5.82-8.14-5.82-3.754 0-6.278.795-7.857 1.441zm15.963 13.014a63.81 63.81 0 0 0 .092 3.468c.146 1.65.432 2.074.96 2.792-.32-.017-.632-.04-.943-.062a11.683 11.683 0 0 1-.017-.177c-.095-1.607-.095-3.214-.095-5.457zM179.98 202.97c-.039-.524-.05-1.055-.068-1.576v-12.736c-.048-2.537-.095-6.386-6.089-6.386-4.795 0-5.994 2.918-6.568 4.23v-4.482c-1.06.485-2.157.971-5.08 1.195l-.004-.026c-.238-1.651-.72-2.031-1.245-2.454 3.884-.17 5.13-.72 6.33-1.268v4.483c.574-1.313 1.772-4.232 6.567-4.232 5.994 0 6.04 3.85 6.09 6.387v12.736c.048 1.439.048 2.962.718 4.189a31.732 31.732 0 0 1-.651-.06zm-5.192-.006c-.156.02-.316.043-.486.066.19-.55.29-.761.384-1.482.144-.971.24-4.23.24-5.372v-1.008 3.56c0 .848-.053 2.857-.138 4.236zm-7.484-7.207c.046 5.293.05 5.802.525 7.272-.143-.015-.29-.03-.446-.044-.048-.983-.06-2.417-.08-4.806l.001-2.422zm-5.025 7.203c-.19.02-.383.042-.585.07.335-.678.528-1.017.623-3.385.045-1.066.109-4.04.124-7.21.02 3.997-.067 8.412-.124 9.763-.011.281-.024.534-.038.762zM130.855 174.8l2.522-2.23 2.523 2.23 1.448-1.28-3.971-3.5-3.969 3.5z"/></g><path d="M164.95 76.149c-2.944 0-4.955-2.539-4.955-5.483V24l52 50v2.15z" opacity=".096"/><path d="M164.95 74.149c-2.944 0-4.955-2.539-4.955-5.483V22l52 52.15z" fill="#ff5491"/><path d="M32 101.34a5.34 5.34 0 0 1 5.336-5.338h181.33A5.334 5.334 0 0 1 224 101.34v128.67a5.993 5.993 0 0 1-6.01 5.993H38.011c-3.319 0-6.01-2.687-6.01-5.993z" fill="#c0d0df"/><path d="M32 101.33a5.335 5.335 0 0 1 5.336-5.329h181.33A5.327 5.327 0 0 1 224 101.33V227a5.995 5.995 0 0 1-6.01 5.997H38.011c-3.319 0-6.01-2.69-6.01-5.997z" fill="url(#b)"/><g fill="#16aefe"><path d="M113.96 180.07h-10.919l.002-1.799c0-.612.585-1.213 1.22-1.215.588-.002 8.5 0 9.11 0 .548 0 1.186.613 1.183 1.206-.002.47-.01.758-.01 1.206 0 0 0 .602-.586.602m3.01 8.433c.625 0 .629-.557.629-.613l-.004-1.79c0-.603-.615-.612-.615-.612l-12.737-.01c-1.221 0-1.203-1.176-1.203-1.176-.015-.076.001-1.226 0-1.226h12.126c3.367 0 3.026-2.412 3.026-2.412v-2.39s.328-4.242-4.233-4.242h-10.216c-4.642 0-4.328 4.186-4.328 4.186l.002 6.059c0 4.225 4.248 4.206 4.248 4.206zM94.545 184.9s.01.588-.606.588c-.66 0-3.887.008-5.87.002-1.982-.006-4.413-.44-4.414-4.175-.002-3.736 2.7-4.254 4.386-4.254s6.5.007 6.5.007l.004 7.832m3.033-16.294h-2.416s-.607 0-.607.623l-.003 4.804h-7.849c-5.704-.002-6.708 4.912-6.703 7.244.006 2.33 1.026 7.216 6.793 7.211 5.768-.005 5.93.007 8.37.007 3.024 0 3.028-2.997 3.028-2.997v-16.29c0-.602-.613-.602-.613-.602M161.83 172.22h-2.424a.605.605 0 0 1-.606-.603v-2.412c0-.332.271-.603.606-.603h2.424c.335 0 .606.27.606.603v2.412a.605.605 0 0 1-.606.603M161.83 188.5h-2.424a.605.605 0 0 1-.606-.603v-13.264c0-.333.271-.603.606-.603h2.424c.335 0 .606.27.606.603v13.264a.605.605 0 0 1-.606.603M173.34 174.03c-4.452-.006-9.697-.001-9.697-.001v13.855c0 .273.176.676.725.607l2.117-.007c.836.118.811-.61.811-.61l-.018-10.823s4.435-.004 6.057-.004c.101 0 2.448.045 2.448 3.009l-.018 7.84c0 .332.271.603.607.603l2.423-.002c.335 0 .606-.27.606-.603v-8.112c0-3.342-1.609-5.745-6.061-5.751M143.04 177.62s-.01-.588.606-.588c.66 0 3.887-.008 5.87-.002 1.982.006 4.413.44 4.414 4.175.001 3.736-2.7 4.254-4.386 4.254s-6.5-.007-6.5-.007l-.004-7.832m-3.029 16.294h2.414s.606 0 .606-.623l.002-4.804h7.85c5.703.002 6.707-4.912 6.702-7.244-.006-2.33-1.025-7.216-6.793-7.211-5.768.005-5.924-.007-8.366-.007-3.024 0-3.023 2.997-3.023 2.997v16.29c0 .602.608.602.608.602M133.96 180.07h-10.919l.002-1.799c0-.612.585-1.213 1.22-1.215.588-.002 8.5 0 9.11 0 .548 0 1.186.613 1.183 1.206-.002.47-.01.758-.01 1.206 0 0 0 .602-.586.602m3.01 8.433c.626 0 .63-.557.63-.613-.002-.21-.005-1.579-.005-1.79 0-.603-.615-.612-.615-.612l-12.737-.01c-1.22 0-1.202-1.176-1.202-1.176-.016-.076 0-1.226 0-1.226h12.126c3.367 0 3.025-2.412 3.025-2.412v-2.39s.329-4.242-4.232-4.242h-10.216c-4.643 0-4.328 4.186-4.328 4.186v6.059c0 4.225 4.25 4.206 4.25 4.206z"/></g><path d="M242.7 134.52c1.35 3.028-.233 5.483-3.565 5.483H16.425c-3.318 0-4.921-2.446-3.572-5.483l16.46-37.034c1.346-3.028 5.115-5.483 8.447-5.483h179.98c3.32 0 7.1 2.447 8.454 5.483z" fill="url(#c)"/><path d="M217.64 95.017c2.214 0 4.766 1.619 5.706 3.632l16.203 34.702c.936 2.007-.098 3.633-2.303 3.633l-218.94.014c-2.209 0-3.245-1.619-2.308-3.632L32.154 98.67c.934-2.006 3.49-3.632 5.7-3.632z" fill="#f0f8fa"/></g></svg>