<svg width="256" height="256" version="1.1" viewBox="0 0 256 256" xmlns="http://www.w3.org/2000/svg"><title>deepin-multitasking-view</title><defs><linearGradient id="b" x1="128" x2="128" y1="16" y2="233.23" gradientUnits="userSpaceOnUse"><stop stop-color="#FFB594" offset="0"/><stop stop-color="#FFB8A0" offset=".08"/><stop stop-color="#F94444" offset="1"/></linearGradient><linearGradient id="c" x1="128" x2="128" y1="19" y2="237" gradientUnits="userSpaceOnUse"><stop stop-color="#FFA57D" offset="0"/><stop stop-color="#FF9B7A" offset=".08"/><stop stop-color="#FF5959" offset="1"/></linearGradient><filter id="a" color-interpolation-filters="sRGB"><feFlood flood-color="#A9A69A" flood-opacity=".498" result="flood"/><feComposite in="flood" in2="SourceGraphic" operator="in" result="composite1"/><feGaussianBlur in="composite1" result="blur" stdDeviation="5"/><feOffset dx="0" dy="5" result="offset"/><feComposite in="SourceGraphic" in2="offset" result="composite2"/></filter></defs><g filter="url(#a)"><path d="M16 128C16 66.144 66.144 16 128 16s112 50.144 112 112-50.144 112-112 112S16 189.856 16 128z" fill="url(#b)" fill-rule="evenodd"/><path d="M19 128C19 67.801 67.801 19 128 19s109 48.801 109 109-48.801 109-109 109S19 188.199 19 128z" fill="url(#c)" fill-rule="evenodd"/><path d="M64 103h12v56H64zm116 0h12v56h-12zM88 91h80v80H88z" opacity=".1"/><path d="M64 100h12v56H64zm116 0h12v56h-12zM88 88h80v80H88z" fill="#fff5f2"/><g fill="#fff" fill-rule="evenodd"><path d="M88 88h80v3H88zM64 100h12v3H64zM180 100h12v3h-12z"/></g></g></svg>