<svg width="256" height="256" version="1.1" viewBox="0 0 256 256" xmlns="http://www.w3.org/2000/svg" xmlns:xlink="http://www.w3.org/1999/xlink"><title>deepin-music</title><defs><linearGradient id="c" x1="61.522" x2="248.79" y1="73.058" y2="137.07" gradientTransform="rotate(90 136 118)" gradientUnits="userSpaceOnUse"><stop stop-color="#052900" offset="0"/><stop stop-color="#47692F" offset=".257"/><stop stop-color="#122600" offset=".583"/><stop stop-color="#0E2700" offset=".72"/><stop stop-color="#0D2500" offset="1"/></linearGradient><linearGradient id="a" x1="2.055%" y1="41.813%" y2="34.486%"><stop stop-color="#0C360D" stop-opacity=".381" offset="0"/><stop offset="1"/></linearGradient><linearGradient id="o" x1="-12.124" x2="154.15" y1="147.39" y2="147.39" gradientTransform="matrix(0 1.1547 -.86603 0 190 46)" gradientUnits="userSpaceOnUse"><stop stop-color="#A1F600" offset="0"/><stop stop-color="#71CA1E" offset="1"/></linearGradient><linearGradient id="d" x1="3.492" x2="169.93" y1="71.054" y2="58.603" gradientUnits="userSpaceOnUse" xlink:href="#a"/><linearGradient id="e" x1="7.326" x2="165.87" y1="71.682" y2="59.821" gradientUnits="userSpaceOnUse" xlink:href="#a"/><linearGradient id="f" x1="11.159" x2="161.75" y1="72.288" y2="61.023" gradientUnits="userSpaceOnUse" xlink:href="#a"/><linearGradient id="g" x1="14.999" x2="157.97" y1="73.033" y2="62.338" gradientUnits="userSpaceOnUse" xlink:href="#a"/><linearGradient id="h" x1="18.834" x2="153.94" y1="73.675" y2="63.569" gradientUnits="userSpaceOnUse" xlink:href="#a"/><linearGradient id="i" x1="22.669" x2="149.87" y1="74.304" y2="64.788" gradientUnits="userSpaceOnUse" xlink:href="#a"/><linearGradient id="j" x1="26.502" x2="145.75" y1="74.907" y2="65.986" gradientUnits="userSpaceOnUse" xlink:href="#a"/><linearGradient id="k" x1="30.337" x2="141.75" y1="75.562" y2="67.228" gradientUnits="userSpaceOnUse" xlink:href="#a"/><linearGradient id="l" x1="34.175" x2="137.87" y1="76.266" y2="68.509" gradientUnits="userSpaceOnUse" xlink:href="#a"/><linearGradient id="m" x1="38.021" x2="134.35" y1="77.121" y2="69.915" gradientUnits="userSpaceOnUse" xlink:href="#a"/><linearGradient id="n" x1="41.843" x2="129.69" y1="77.815" y2="71.243" gradientUnits="userSpaceOnUse" xlink:href="#a"/><filter id="b" color-interpolation-filters="sRGB"><feFlood flood-color="#908B78" flood-opacity=".498" result="flood"/><feComposite in="flood" in2="SourceGraphic" operator="in" result="composite1"/><feGaussianBlur in="composite1" result="blur" stdDeviation="5"/><feOffset dx="0" dy="5" result="offset"/><feComposite in="SourceGraphic" in2="offset" result="composite2"/></filter></defs><g fill-rule="evenodd" filter="url(#b)"><path d="M60 128c0 50.81 41.19 92 92 92s92-41.19 92-92-41.19-92-92-92-92 41.19-92 92z" fill="#478500"/><path d="M64 128c0 48.601 39.399 88 88 88s88-39.399 88-88-39.399-88-88-88-88 39.399-88 88z" fill="url(#c)"/><circle transform="rotate(90)" cx="128" cy="-152" r="40"/><circle transform="rotate(90)" cx="128" cy="-152" r="28" fill="#478500"/><g fill="none" opacity=".7" stroke-width="2"><path transform="rotate(90 97 140)" d="M88.057 168.93c45.773 0 80.877-36.962 80.877-83.967 0-46.374-37.593-83.967-83.967-83.967C38.593.996 1 38.589 1 84.963c0 45.801 40.083 83.967 87.057 83.967z" stroke="url(#d)"/><path transform="rotate(90 97 140)" d="M87.877 164.87c43.573 0 76.991-35.185 76.991-79.934 0-44.146-35.788-79.934-79.934-79.934S5 40.79 5 84.936c0 43.601 38.159 79.934 82.877 79.934z" stroke="url(#e)"/><path transform="rotate(90 97 140)" d="M87.672 160.75c41.36 0 73.081-33.398 73.081-75.876 0-41.905-33.971-75.876-75.876-75.876-41.905 0-75.876 33.971-75.876 75.876 0 41.386 36.223 75.876 78.672 75.876z" stroke="url(#f)"/><path transform="rotate(90 97 140)" d="M84.984 156.97c39.756 0 71.984-32.228 71.984-71.984 0-39.756-32.228-71.984-71.984-71.984C45.228 13.002 13 45.23 13 84.986c0 39.756 32.228 71.984 71.984 71.984z" stroke="url(#g)"/><path transform="rotate(90 97 140)" d="M84.969 152.94c37.538 0 67.969-30.431 67.969-67.969s-30.431-67.969-67.969-67.969S17 47.433 17 84.971s30.431 67.969 67.969 67.969z" stroke="url(#h)"/><path transform="rotate(90 97 140)" d="M84.937 148.87c35.312 0 63.937-28.626 63.937-63.937 0-35.312-28.626-63.937-63.937-63.937C49.625 20.996 21 49.622 21 84.933c0 35.312 28.626 63.937 63.937 63.937z" stroke="url(#i)"/><path transform="rotate(90 97 140)" d="M84.875 144.75c33.068 0 59.875-26.807 59.875-59.875S117.943 25 84.875 25 25 51.807 25 84.875s26.807 59.875 59.875 59.875z" stroke="url(#j)"/><path transform="rotate(90 97 140)" d="M84.875 140.75c30.859 0 55.875-25.016 55.875-55.875S115.734 29 84.875 29 29 54.016 29 84.875s25.016 55.875 55.875 55.875z" stroke="url(#k)"/><path transform="rotate(90 97 140)" d="M84.934 136.87c28.682 0 51.934-23.252 51.934-51.934s-23.252-51.934-51.934-51.934S33 56.254 33 84.936s23.252 51.934 51.934 51.934z" stroke="url(#l)"/><path transform="rotate(90 97 140)" d="M85.173 133.35c26.605 0 48.173-21.568 48.173-48.173s-21.568-48.173-48.173-48.173S37 58.572 37 85.177s21.568 48.173 48.173 48.173z" stroke="url(#m)"/><path transform="rotate(90 97 140)" d="M84.843 129c24.214 0 43.843-19.629 43.843-43.843s-19.629-43.843-43.843-43.843C60.629 41.314 41 60.943 41 85.157S60.629 129 84.843 129z" stroke="url(#n)"/></g><path d="M155 32a5 5 0 0 1 4.999 5v182c0 2.762-2.233 5-4.999 5H21a5 5 0 0 1-4.999-5V37c0-2.761 2.233-5 4.999-5z" fill="url(#o)"/><path d="M155 34a5.003 5.003 0 0 1 4.999 5.004v177.99A4.998 4.998 0 0 1 155 222H21a5.003 5.003 0 0 1-4.999-5.005V39.004A4.998 4.998 0 0 1 21 34z" fill="#92dc00"/><path d="M86.511 84.452s0-2.661 2.628-2.667c2.628-.005 2.687 2.667 2.687 2.667s-.166 6.955 13.361 16c2.474 1.621 26.64 16 14.816 42.245 0 0-.64 1.35-2.053.784-1.115-.448-.736-1.872-.736-1.872s9.279-27.824-25.388-35.824c0 0 .056 37.761.022 48.086.034 7.914-5.253 15.156-14.77 17.706-10.1 2.706-19.988-1.442-22.084-9.267s4.392-16.36 14.492-19.067c6.405-1.716 12.723-.675 17.025 2.31z" fill="#71ca1e"/><path d="M86.511 88.452s0-2.661 2.628-2.667c2.628-.005 2.687 2.667 2.687 2.667s-.166 6.955 13.361 16c2.474 1.621 26.64 16 14.816 42.245 0 0-.64 1.35-2.053.784-1.115-.448-.736-1.872-.736-1.872s9.279-27.824-25.388-35.824c0 0 .056 37.761.022 48.086.034 7.914-5.253 15.156-14.77 17.706-10.1 2.706-19.988-1.442-22.084-9.267s4.392-16.36 14.492-19.067c6.405-1.716 12.723-.675 17.025 2.31z" fill="#a1f600"/><path d="M86.511 86.452s0-2.661 2.628-2.667c2.628-.005 2.687 2.667 2.687 2.667s-.166 6.955 13.361 16c2.474 1.621 26.64 16 14.816 42.245 0 0-.64 1.35-2.053.784-1.115-.448-.736-1.872-.736-1.872s9.279-27.824-25.388-35.824c0 0 .056 37.761.022 48.086.034 7.914-5.253 15.156-14.77 17.706-10.1 2.706-19.988-1.442-22.084-9.267s4.392-16.36 14.492-19.067c6.405-1.716 12.723-.675 17.025 2.31z" fill="#fff"/></g></svg>