<svg width="256" height="256" version="1.1" viewBox="0 0 256 256" xmlns="http://www.w3.org/2000/svg"><title>深度看图-256px</title><defs><linearGradient id="b" x1="109.73" x2="109.73" y1="31.978" y2="226.05" gradientTransform="matrix(1.1027 0 0 .90688 7 29)" gradientUnits="userSpaceOnUse"><stop stop-color="#fff" offset="0"/><stop stop-color="#C0C4D1" offset="1"/></linearGradient><linearGradient id="c" x1="108.48" x2="108.48" y1="34.578" y2="226.43" gradientTransform="matrix(1.1154 0 0 .89651 7 29)" gradientUnits="userSpaceOnUse"><stop stop-color="#F3F3F3" offset="0"/><stop stop-color="#F1F1F1" offset="1"/></linearGradient><linearGradient id="d" x1="98.796" x2="98.796" y1="205.76" y2="61.46" gradientTransform="matrix(1.2247 0 0 .8165 7 29)" gradientUnits="userSpaceOnUse"><stop stop-color="#FF9191" offset="0"/><stop stop-color="#FFAE00" offset="1"/></linearGradient><linearGradient id="e" x1="148.72" x2="204.24" y1="83.755" y2="150.9" gradientTransform="scale(.96719 1.0339)" gradientUnits="userSpaceOnUse"><stop stop-color="#FFE389" offset="0"/><stop stop-color="#FFC0C1" offset="1"/></linearGradient><linearGradient id="f" x1="149.92" x2="204.12" y1="86.049" y2="151.61" gradientTransform="scale(.96974 1.0312)" gradientUnits="userSpaceOnUse"><stop stop-color="#FFD241" offset="0"/><stop stop-color="#FFC0C1" offset="1"/></linearGradient><filter id="a" color-interpolation-filters="sRGB"><feFlood flood-color="#A9A69A" flood-opacity=".498" result="flood"/><feComposite in="flood" in2="SourceGraphic" operator="in" result="composite1"/><feGaussianBlur in="composite1" result="blur" stdDeviation="5"/><feOffset dx="0" dy="5" result="offset"/><feComposite in="SourceGraphic" in2="offset" result="composite2"/></filter></defs><g fill-rule="evenodd" filter="url(#a)"><rect x="54" y="38" width="150" height="176" rx="5" fill="#efefef" opacity=".7"/><rect x="37" y="48" width="182" height="176" rx="5" fill="#f0f0f0" opacity=".8"/><rect x="21" y="58" width="214" height="176" rx="5" fill="url(#b)"/><rect x="21" y="60" width="214" height="172" rx="5" fill="url(#c)"/><path fill="url(#d)" d="M32 69h192v128H32z"/><path fill="#ada1fe" d="M85.342 197.33l53.938-70.358-27.26-36.352-80.033 106.71z"/><path fill="#8173dd" d="M85.342 197.33l53.938-70.358L114 93 35.5 197.33z"/><path fill="#a2b5ff" d="M85.342 197.33l53.878-70.449 52.83 70.449H138.7z"/><path fill="#89a1f6" d="M89 197.33L142 128l50.05 69.33H138.7z"/><path transform="translate(7 29)" fill="url(#e)" d="M185.05 168.33l-52.83-70.449 15.48-20.254 69.37 90.703z"/><path transform="translate(7 29)" fill="url(#f)" d="M217.07 168.33h-32.02L134 100.3 149.5 80z"/><g fill="#fff"><path d="M42 48h172c2.5 0 4 2 4 2H38s1.5-2 4-2z"/><path d="M58.5 38H199c2.5 0 4 2 4 2H55s1.5-2 3.5-2z" opacity=".5"/><path d="M32 197h192v2H32z"/></g><path opacity=".06" d="M32 69h192v2H32z"/><path opacity=".08" d="M37 56h182v2H37z"/><path opacity=".05" d="M54 46h150v2H54z"/></g></svg>