<svg width="256" height="256" version="1.1" viewBox="0 0 256 256" xmlns="http://www.w3.org/2000/svg"><title>deepin-note</title><defs><linearGradient id="b" x1="47.061" x2="47.061" y1="431.38" y2="478.28" gradientTransform="scale(2.132 .46904)" gradientUnits="userSpaceOnUse"><stop stop-color="#CCA46B" offset="0"/><stop stop-color="#D7B672" offset="1"/></linearGradient><linearGradient id="d" x1="114.36" x2="114.36" y1="27.251" y2="114.96" gradientTransform="scale(1.0094 .99069)" gradientUnits="userSpaceOnUse"><stop stop-color="#3E2409" offset="0"/><stop stop-color="#765720" offset="1"/></linearGradient><linearGradient id="e" x1="168.6" x2="102.33" y1="4.07" y2="143.69" gradientTransform="scale(1.0094 .99069)" gradientUnits="userSpaceOnUse"><stop stop-color="#351C03" offset="0"/><stop stop-color="#5B410F" offset="1"/></linearGradient><linearGradient id="f" x1="164.01" x2=".862" y1="11.967" y2="175.11" gradientTransform="scale(.97817 1.0223)" gradientUnits="userSpaceOnUse"><stop stop-color="#241400" offset="0"/><stop stop-color="#53402E" offset="1"/></linearGradient><filter id="a" color-interpolation-filters="sRGB"><feFlood flood-color="#908B78" flood-opacity=".498" result="flood"/><feComposite in="flood" in2="SourceGraphic" operator="in" result="composite1"/><feGaussianBlur in="composite1" result="blur" stdDeviation="5"/><feOffset dx="0" dy="5" result="offset"/><feComposite in="SourceGraphic" in2="offset" result="composite2"/></filter><filter id="c" color-interpolation-filters="sRGB"><feFlood flood-color="#908B78" flood-opacity=".498" result="flood"/><feComposite in="flood" in2="SourceGraphic" operator="in" result="composite1"/><feGaussianBlur in="composite1" result="blur" stdDeviation="5"/><feOffset dx="0" dy="5" result="offset"/><feComposite in="SourceGraphic" in2="offset" result="composite2"/></filter></defs><g fill-rule="evenodd"><g transform="translate(27.667 15.667)" filter="url(#a)"><path d="M.333 180.33h200v39a5 5 0 0 1-5 5h-190a5 5 0 0 1-5-5z" fill="url(#b)"/><path d="M5.333.333h190a5 5 0 0 1 5 5v165c0 13.178-1.307 22.511-3.921 28-9.19 2.376-22.261 3.71-39.216 4H5.336a5 5 0 0 1-5-5v-192a5 5 0 0 1 5-5z" fill="#fbe9a9"/></g><g fill="#c69857" filter="url(#a)"><path d="M228 215v20a5 5 0 0 1-5 5H33a5 5 0 0 1-5-5v-20 19a5 5 0 0 0 5 5h190a5 5 0 0 0 5-5z"/><path d="M228 212v20a5 5 0 0 1-5 5H33a5 5 0 0 1-5-5v-20 19a5 5 0 0 0 5 5h190a5 5 0 0 0 5-5z"/><path d="M228 209v20a5 5 0 0 1-5 5H33a5 5 0 0 1-5-5v-20 19a5 5 0 0 0 5 5h190a5 5 0 0 0 5-5z"/><path d="M228 206v20a5 5 0 0 1-5 5H33a5 5 0 0 1-5-5v-20 19a5 5 0 0 0 5 5h190a5 5 0 0 0 5-5z"/><path d="M228 203v20a5 5 0 0 1-5 5H33a5 5 0 0 1-5-5v-20 19a5 5 0 0 0 5 5h190a5 5 0 0 0 5-5z"/><path d="M228 200v20a5 5 0 0 1-5 5H33a5 5 0 0 1-5-5v-20 19a5 5 0 0 0 5 5h190a5 5 0 0 0 5-5z"/><path d="M228 197v20a5 5 0 0 1-5 5H33a5 5 0 0 1-5-5v-20 19a5 5 0 0 0 5 5h190a5 5 0 0 0 5-5z"/><path d="M228 104v83c0 13.178-1.307 22.511-3.922 28-9.189 2.376-22.26 3.709-39.216 4H33.002a5 5 0 0 1-5-5v-96.5V213a5 5 0 0 0 5 5h151.86c16.955-.291 30.026-1.624 39.216-4 2.615-5.489 3.922-14.822 3.922-28z"/></g><path d="M54.925 137.51h10v4h-20v-4zm106 28h4v4h-4zm-12 0h4v4h-4zm-12 0h12v4h-12zm-8 0h4v4h-4zm-12 0h4v4h-4zm-12 0h12v4h-12zm-8 0h4v4h-4zm-20 0h12v4h-12zm-12 0h4v4h-4zm-12 0h4v4h-4zm-8 0h4v4h-4zm-12 0h4v4h-4zm-12 0h12v4h-12zm-8 0h4v4h-4zm-12 0h4v4h-4zm160-14h4v4h-4zm-12 0h12v4h-12zm-12 0h4v4h-4zm-8 0h4v4h-4zm-12 0h12v4h-12zm-12 0h4v4h-4zm-8 0h4v4h-4zm-20 0h12v4h-12zm-24 0h20v4h-20zm-8 0h4v4h-4zm-12 0h4v4h-4zm-12 0h12v4h-12zm-8 0h4v4h-4zm-12 0h4v4h-4zm160-14h4v4h-4zm-12 0h4v4h-4zm-12 0h12v4h-12zm-8 0h4v4h-4zm-12 0h12v4h-12zm-12 0h4v4h-4zm-8 0h4v4h-4zm-12 0h12v4h-12zm-8 0h4v4h-4zm-12 0h4v4h-4zm-32 0h4v4h-4zm-12 0h4v4h-4zm-8 0h4v4h-4zm-12 0h12v4h-12zm160-14h4v4h-4zm-24 0h20v4h-20zm-8 0h4v4h-4zm-12 0h4v4h-4zm-12 0h4v4h-4zm-8 0h4v4h-4zm-12 0h12v4h-12zm-8 0h4v4h-4zm-12 0h12v4h-12zm-12 0h4v4h-4zm-8 0h4v4h-4zm-12 0h4v4h-4zm-20 0h12v4h-12zm-12 0h4v4h-4zm160-16h4v4h-4zm-12 0h4v4h-4zm-12 0h4v4h-4zm-20 0h20v4h-20zm-12 0h12v4h-12zm-8 0h4v4h-4zm-12 0h4v4h-4zm-8 0h4v4h-4zm-12 0h4v4h-4zm-12 0h4v4h-4zm-8 0h4v4h-4zm-12 0h12v4h-12zm-12 0h4v4h-4zm-8 0h4v4h-4zm-12 0h12v4h-12zm160-16h4v4h-4zm-12 0h4v4h-4zm-20 0h12v4h-12zm-12 0h4v4h-4zm-12 0h4v4h-4zm-8 0h4v4h-4zm-12 0h4v4h-4zm-8 0h4v4h-4zm-12 0h4v4h-4zm-12 0h4v4h-4zm-8 0h4v4h-4zm-12 0h4v4h-4zm-12 0h12v4h-12zm-8 0h4v4h-4zm-12 0h4v4h-4zm160-16h4v4h-4zm-24 0h20v4h-20zm-8 0h4v4h-4zm-12 0h4v4h-4zm-12 0h4v4h-4zm-8 0h4v4h-4zm-12 0h4v4h-4zm-8 0h4v4h-4zm-12 0h4v4h-4zm-12 0h4v4h-4zm-8 0h4v4h-4zm-12 0h12v4h-12zm-20 0h12v4h-12zm-12 0h4v4h-4zm160-16h4v4h-4zm-12 0h12v4h-12zm-12 0h4v4h-4zm-8 0h4v4h-4zm-12 0h4v4h-4zm-12 0h4v4h-4zm-8 0h4v4h-4zm-12 0h4v4h-4zm-8 0h4v4h-4zm-12 0h4v4h-4zm-12 0h4v4h-4zm-8 0h4v4h-4zm-24 0h20v4h-20zm-8 0h4v4h-4zm-12 0h12v4h-12zm160-14h4v4h-4zm-12 0h4v4h-4zm-12 0h4v4h-4zm-8 0h4v4h-4zm-12 0h4v4h-4zm-12 0h4v4h-4zm-8 0h4v4h-4zm-12 0h4v4h-4zm-8 0h4v4h-4zm-32 0h32v4h-32zm-12 0h4v4h-4zm-20 0h12v4h-12zm-12 0h12v4h-12zm160-14h4v4h-4zm-12 0h4v4h-4zm-12 0h4v4h-4zm-8 0h4v4h-4zm-12 0h4v4h-4zm-12 0h4v4h-4zm-20 0h12v4h-12zm-8 0h4v4h-4zm-12 0h4v4h-4zm-12 0h12v4h-12zm-20 0h4v4h-4zm-12 0h12v4h-12zm-8 0h4v4h-4zm-12 0h12v4h-12zm160-14h4v4h-4zm-12 0h4v4h-4zm-12 0h4v4h-4zm-8 0h4v4h-4zm-12 0h4v4h-4zm-40 0h32v4h-32zm-12 0h12v4h-12zm-20 0h12v4h-12zm-12 0h4v4h-4zm-20 0h12v4h-12zm-12 0h12v4h-12zm160-16h4v4h-4zm-12 0h4v4h-4zm-12 0h4v4h-4zm-8 0h4v4h-4zm-12 0h4v4h-4zm-12 0h4v4h-4zm-20 0h20v4h-20zm-8 0h4v4h-4zm-12 0h12v4h-12zm-20 0h12v4h-12zm-12 0h4v4h-4zm-20 0h12v4h-12zm-12 0h4v4h-4z" transform="translate(43.075 32.487)" fill="#eccf87" filter="url(#a)"/><g transform="translate(58.188 10.667)" filter="url(#c)"><path d="M30.767 137.46c-.015-10.468.798-17.983 2.439-22.545-.032 2.039.81 4.198 2.525 6.476 2.574 3.419 2.158-25.987 12.943-33.777.11 9.21 1.363 15.03 3.76 17.458 3.597 3.64-6.919-15.152 5.467-26.591 12.386-11.44 63.455-67.96 94.287-73.941 30.832-5.983 23.754-5.39 20.704-2.013-3.05 3.377 3.264 16.47-4.37 25.128-7.636 8.659-14.788 8.659-14.788 8.659l6.295 1.882c-6.516 18.926-20.66 37.134-42.433 54.625-10.738 10.881-24.377 14.975-40.918 12.28 9.027 4.774 15.583 6.955 19.665 6.542-3.376 6.748-7.78 12.008-13.214 15.782-12.364.124-19.62-.17-21.768-.883 8.426 2.51 14.382 3.64 17.867 3.393 5.227-.37-18.141 12.684-24.347 12.42-4.138-.176-12.176-1.808-24.114-4.895z" fill="url(#d)"/><path d="M62.719 126.93c1.702.564 3.642 1.096 7.394 1.938 2.602.456 7.533 1.178 9.115 1.065 5.228-.37-18.14 12.684-24.347 12.42-4.137-.176-12.176-1.808-24.114-4.895-.015-10.468.798-17.983 2.439-22.545-.026 1.668.533 3.417 1.677 5.246.268.427.545.827.849 1.23.516.686.912.051 1.302-1.464 1.572-6.272 3.067-26.122 11.64-32.313.077 6.433.711 11.211 1.903 14.336.2.955.612 2.906.645 3.193.066-.41.198-.74.45-1.014.24.357.494.672.763.943 1.002 1.015.908.288.52-1.537.244-.016.471.018.677.087-.279-.465-.731-1.219-1.126-2.212-1.121-5.595-2.408-15.72 5.395-22.929 12.386-11.44 63.455-67.959 94.287-73.94 30.832-5.984 23.754-5.39 20.704-2.013-3.05 3.377 3.265 16.47-4.37 25.128-4.063 4.607-7.99 6.763-10.774 7.771l-3.44-1.029-.279 1.902c-.128.01-.226.681-.295 2.014.334 0 .868-.043 1.575-.164a17.635 17.635 0 0 0 2.482-.622l2.238.67c-6.515 18.925-20.66 37.133-42.433 54.624-9.449 9.576-21.145 13.895-35.088 12.957-2.27-.241-4.106-.45-5.506-.625-.227 0 2.856 1.598 4.995 2.594 6.332 2.924 11.114 4.223 14.346 3.896-3.376 6.748-7.78 12.008-13.214 15.782-3.82.038-7.154.037-9.999-.005-4.254-.077-7.725-.24-10.411-.488zm-28.585-4.338a20.347 20.347 0 0 1-.494-.685c-.538 3.724-.83 8.396-.869 14 10.976 2.803 18.415 4.287 22.195 4.448 2.295.098 8.835-2.492 15.434-6.016a81.945 81.945 0 0 0 4.543-2.6c-3.605-.444-8.31-1.592-14.157-3.333l.604-1.856.541-1.806c1.803.597 8.878.79 20.553.686 4.168-3.005 7.69-6.969 10.57-11.907-4.351-.604-9.913-2.602-17.14-6.423l-10.958-5.936 12.042 1.962c15.918 2.593 28.904-1.304 39.344-11.866 20.74-16.66 34.421-33.919 41.09-51.755l-4.272-1.278-13.092-3.916h13.666c.113 0 .421-.025.899-.107a14.732 14.732 0 0 0 2.897-.836c3.135-1.237 6.36-3.489 9.49-7.038 1.9-2.155 2.927-4.752 3.3-7.922.262-2.228.213-4.262-.076-7.87-.328-4.109-.411-6.127.061-7.55-5.31 1.047-13.385 2.668-17.737 3.512-9.365 1.817-21.446 8.695-35.696 19.79-6.478 5.044-13.294 10.871-20.483 17.443-11.302 10.332-37.443 36.502-37.132 36.214-2.548 2.354-4.148 5.161-4.96 8.387-.957 3.802-.793 7.756.11 12.384.049.247.722 3.388.788 3.966.04.346.048.64.003.948-.117.793-.55 1.524-1.524 1.811-.78.23-1.375.032-1.934-.344a4.783 4.783 0 0 1-.73-.625c-2.374-2.404-3.7-7.04-4.16-14.025-1.876 2.783-3.413 6.742-4.675 11.746-1.016 4.03-2.988 15.34-3.14 15.965-.275 1.133-.541 1.886-.955 2.456-1.053 1.449-2.906 1.359-3.947-.024z" fill="url(#e)" fill-rule="nonzero"/><path d="M.843 178.41c26.043-51.61 79.239-107 159.59-166.18-76.374 63.191-121.9 109.27-136.59 138.23-5.608 11.06-11.43 22.788-13.752 24.585-4.764 3.685-7.846 4.805-9.247 3.36z" fill="url(#f)"/></g></g></svg>