<svg width="256" height="256" version="1.1" viewBox="0 0 256 256" xmlns="http://www.w3.org/2000/svg"><title>深度云扫描-256px</title><defs><linearGradient id="b" x1="92.175" x2="92.175" y1="4.109" y2="179.04" gradientTransform="scale(1.2802 .78113)" gradientUnits="userSpaceOnUse"><stop stop-color="#fff" offset="0"/><stop stop-color="#C0E9FE" offset="1"/></linearGradient><linearGradient id="c" x1="92.175" x2="92.175" y1="-.001" y2="182.49" gradientTransform="scale(1.2802 .78113)" gradientUnits="userSpaceOnUse"><stop stop-color="#EBF9FF" offset="0"/><stop stop-color="#C4E6F8" offset="1"/></linearGradient><linearGradient id="d" x1="186.97" x2="186.97" y1="113.39" y2="120.24" gradientTransform="scale(1.1339 .88192)" gradientUnits="userSpaceOnUse"><stop stop-color="#fff" offset="0"/><stop stop-color="#fff" stop-opacity="0" offset="1"/></linearGradient><filter id="a" color-interpolation-filters="sRGB"><feFlood flood-color="#A9A69A" flood-opacity=".498" result="flood"/><feComposite in="flood" in2="SourceGraphic" operator="in" result="composite1"/><feGaussianBlur in="composite1" result="blur" stdDeviation="5"/><feOffset dx="0" dy="5" result="offset"/><feComposite in="SourceGraphic" in2="offset" result="composite2"/></filter></defs><g transform="translate(10 20)" fill-rule="evenodd" filter="url(#a)"><path d="M236 97.086c0-21.313-14.616-39.276-34.616-44.983-5.744-21.942-26.126-38.199-50.46-38.199a53.236 53.236 0 0 0-19.974 3.872C120.395 6.853 105.446 0 88.825 0 57.159 0 31.468 24.763 30.979 55.473 12.925 61.815-.001 78.59-.001 98.344c0 25.052 20.751 45.367 46.432 45.596V144h142.85v-.086c25.927-.762 46.716-21.409 46.716-46.828z" fill="url(#b)"/><path d="M201.61 51.099c-6.347-22.006-27.174-37.565-51.244-37.565-7.072 0-16.275 2.466-19.086 3.471C120.278 6.21 105.314 0 89.32 0 57.146 0 32.182 22.666 30.583 54.543 12.323 61.426.001 78.41.001 97.671c0 25.436 21.267 46.095 47.627 46.328l140.51-.026c26.63-.776 47.865-21.791 47.865-47.527 0-21.268-14.75-39.113-34.39-45.347zm-13.594 88.982l-140.37.082c-24.156-.27-43.645-19.202-43.645-42.492 0-18.014 11.783-33.863 29.128-39.895l1.305-.454.022-1.349c.463-28.869 24.869-52.08 54.865-52.08 15.327 0 29.63 6.112 39.96 16.697l.944.967 1.267-.507a50.731 50.731 0 0 1 18.876-3.623c22.629 0 42.152 14.86 47.668 35.72l.284 1.075 1.095.31c19.174 5.417 32.587 22.398 32.587 41.915 0 23.619-19.504 42.922-43.984 43.635z" fill="url(#c)"/><circle cx="212" cy="106" r="8" fill="#00b0df"/><rect x="44" y="70" width="148" height="144" rx="6" fill="#acdcfc"/><rect x="54" y="198" width="128" height="8" rx="2" fill="#fff"/><path fill="#145cb0" d="M54 80h128v124H54z"/><path fill="#0070ff" d="M58 84h120v116H58z"/><g fill="#fff"><path opacity=".5" d="M80 188V96h54l22 22v70z"/><path d="M90 114h40v2H90zm56 14v2H90v-2zm0 30v2H90v-2zm-20 14h20v2h-20z" opacity=".505"/><path fill-opacity=".5" d="M156 118h-22V96z"/></g><path d="M44 144c-9.5-1-14-3-14-3l14-65s-.023 52.424 0 68zM192 144c10.523-1.327 14-3.676 14-3.676L192 76s.023 52.89 0 68z" fill="#338dbc" fill-opacity=".4"/><path opacity=".1" d="M156 188H80V96h-2v94h80v-72l-22-22h-2l22 22z"/><path d="M64 148v4c0 2.21-1.8 4-4.002 4H58v-22h1.998A4.004 4.004 0 0 1 64 138v4h108v-4c0-2.21 1.8-4 4.002-4H178v22h-1.998a4.004 4.004 0 0 1-4.002-4v-4z" fill="#00fff3" opacity=".3"/><path d="M64 146v4c0 2.21-1.8 4-4.002 4H58v-22h1.998A4.004 4.004 0 0 1 64 136v4h108v-4c0-2.21 1.8-4 4.002-4H178v22h-1.998a4.004 4.004 0 0 1-4.002-4v-4z" fill="#fff"/><circle cx="212" cy="106" r="6" fill="#31d4ff"/><ellipse cx="212" cy="103.11" rx="4" ry="3.111" fill="url(#d)"/></g></svg>