<svg width="256" height="256" version="1.1" viewBox="0 0 256 256" xmlns="http://www.w3.org/2000/svg"><title>深度商店-256px</title><defs><linearGradient id="b" x1="108.91" x2="108.91" y1="112.83" y2="276.19" gradientTransform="scale(1.1753 .85086)" gradientUnits="userSpaceOnUse"><stop stop-color="#FFBE3F" offset="0"/><stop stop-color="#FF7702" offset="1"/></linearGradient><linearGradient id="c" x1="129.46" x2="129.46" y1="95.538" y2="233.87" gradientTransform="scale(.99519 1.0048)" gradientUnits="userSpaceOnUse"><stop stop-color="#FF9B27" offset="0"/><stop stop-color="#FF5400" offset="1"/></linearGradient><filter id="a" color-interpolation-filters="sRGB"><feFlood flood-color="#908B78" flood-opacity=".498" result="flood"/><feComposite in="flood" in2="SourceGraphic" operator="in" result="composite1"/><feGaussianBlur in="composite1" result="blur" stdDeviation="5"/><feOffset dx="0" dy="5" result="offset"/><feComposite in="SourceGraphic" in2="offset" result="composite2"/></filter></defs><g filter="url(#a)"><g fill-rule="evenodd"><path d="M32 47.995A4.998 4.998 0 0 1 37 43h182c2.762 0 5 2.238 5 4.995V101H32z" fill="#fff"/><path d="M32 49.995A4.998 4.998 0 0 1 37 45h182a5 5 0 0 1 5 4.995V109H32z" fill="#efefef"/><path d="M32 230V96h192v134c0 5-4.999 4.997-4.999 4.997s-176.85-.112-181.93.003c-5.076.115-5.076-4.998-5.076-4.998z" fill="url(#b)"/><path d="M32 228V98h192v130c0 5-5 5-5 5H37.04c-5.038 0-5.038-4.996-5.038-4.996z" fill="#ffa737"/><path d="M197.67 96v139h-28V96zm-54.667 0v139h-28V96zm-55 0v139h-28V96z" fill="url(#c)"/><path d="M198 98v135h-28V98zm-55 0v135h-28V98zm-55 0v135H60V98z" fill="#ff7300"/><path d="M81 74a9 9 0 1 0-18 0 9 9 0 0 0 18 0zm112 0a9 9 0 1 0-18 0 9 9 0 0 0 18 0z" fill="#d6d6d6"/><path d="M81 72a9 9 0 1 0-18 0 9 9 0 0 0 18 0zm112 0a9 9 0 1 0-18 0 9 9 0 0 0 18 0z" fill="#a5988e"/><path d="M79 72a7 7 0 1 0-14 0 7 7 0 0 0 14 0zm112 0a7 7 0 1 0-14 0 7 7 0 0 0 14 0z" fill="#4f3826"/></g><path d="M184 78.667C184 114.013 167.5 148 128 148s-56-33.987-56-69.333" fill="none" opacity=".1" stroke="#000" stroke-linecap="round" stroke-linejoin="round" stroke-width="7"/><path d="M184 71.667C184 107.013 167.5 141 128 141s-56-33.987-56-69.333" fill="none" stroke="#fff" stroke-linecap="round" stroke-linejoin="round" stroke-width="7"/></g></svg>