<svg width="256" height="256" version="1.1" viewBox="0 0 256 256" xmlns="http://www.w3.org/2000/svg"><title>深度截图-256px</title><defs><filter id="a" color-interpolation-filters="sRGB"><feFlood flood-color="#908B78" flood-opacity=".498" result="flood"/><feComposite in="flood" in2="SourceGraphic" operator="in" result="composite1"/><feGaussianBlur in="composite1" result="blur" stdDeviation="5"/><feOffset dx="0" dy="5" result="offset"/><feComposite in="SourceGraphic" in2="offset" result="composite2"/></filter></defs><g fill-rule="evenodd" filter="url(#a)"><path d="M50.31 31.755c.713-2.662 3.457-4.24 6.13-3.524l186.08 49.861c2.673.716 4.26 3.457 3.548 6.117l-40.38 150.7c-.714 2.663-3.458 4.24-6.132 3.524l-186.08-49.86c-2.672-.717-4.26-3.458-3.547-6.118z" fill="#a6dbff"/><path d="M232 213.99a4.999 4.999 0 0 1-5 5.008H29c-2.762 0-5-2.231-5-5.008V64.01a4.999 4.999 0 0 1 5-5.008h198c2.761 0 5 2.231 5 5.008z" fill="#ea004e"/><path d="M232 53.003A4.996 4.996 0 0 0 227 48H29c-2.762 0-5 2.236-5 4.994v96.41c53.333 34.69 103.04-10.75 113.72-34.537 12.032 8.059 40.037 3.608 52.1-11.688 7.425 19.78 27.857 33.655 42.182 32.881z" fill="#ff0056"/><path d="M24 52.994A4.997 4.997 0 0 1 29 48h198c2.77 0 5 2.24 5 5.003v2A4.996 4.996 0 0 0 227 50H29c-2.761 0-5 2.236-5 4.994z" fill="#ff6594"/><path d="M24 214.01a4.997 4.997 0 0 0 5 4.994h198c2.77 0 5-2.24 5-5.003v-2a4.996 4.996 0 0 1-5 5.003H29c-2.761 0-5-2.236-5-4.994zM167 111c0-2.944-3.008-6.347-5.957-6H99V89c0-2.944-2.056-5-5-5s-5 2.056-5 5v16H73c-3 0-5 2-5 5s2 5 5 5h16v45c0 2.944 3.056 6 6 6h62v16c0 2.944 2.056 5 5 5s5-2.056 5-5v-16h16c2.944 0 5-2 5-5s-2.056-5-5-5h-16zm-68 45v-41h58v41z" fill="#cf0045"/><path d="M167 109c0-2.944-3.008-6.347-5.957-6H99V87c0-2.944-2.056-5-5-5s-5 2.056-5 5v16H73c-3 0-5 2-5 5s2 5 5 5h16v45c0 2.944 3.056 6 6 6h62v16c0 2.944 2.056 5 5 5s5-2.056 5-5v-16h16c2.944 0 5-2 5-5s-2.056-5-5-5h-16zm-68 45v-41h58v41z" fill="#fff"/><path d="M167 109c0-2.944-3.008-4.347-5.957-4H99V89c0-2.944-2.056-5-5-5s-5 2.056-5 5v16H73c-3 0-5 0-5 3s2 5 5 5h16v45c0 2.944 3.056 6 6 6h62v16c0 2.944 2.056 5 5 5s5-2.056 5-5v-16h16c2.944 0 5-2 5-5s-2.056-3-5-3h-16zm-68 47v-43h58v43z" fill="#fff9f9"/></g></svg>