<svg width="256" height="256" version="1.1" viewBox="0 0 256 256" xmlns="http://www.w3.org/2000/svg"><title>深度终端-256px</title><defs><linearGradient id="b" x1="121.18" x2="121.18" y1="40.14" y2="237.64" gradientTransform="scale(1.0563 .94669)" gradientUnits="userSpaceOnUse"><stop stop-color="#FF5E70" offset="0"/><stop stop-color="#CA2935" offset="1"/></linearGradient><linearGradient id="c" x1="119.25" x2="119.25" y1="44.009" y2="241.51" gradientTransform="scale(1.0734 .93162)" gradientUnits="userSpaceOnUse"><stop stop-color="#EC3F4C" offset="0"/><stop stop-color="#DE434E" offset="1"/></linearGradient><filter id="a" color-interpolation-filters="sRGB"><feFlood flood-color="#5D4D4D" flood-opacity=".498" result="flood"/><feComposite in="flood" in2="SourceGraphic" operator="in" result="composite1"/><feGaussianBlur in="composite1" result="blur" stdDeviation="5"/><feOffset dx="0" dy="5" result="offset"/><feComposite in="SourceGraphic" in2="offset" result="composite2"/></filter></defs><g fill-rule="evenodd" filter="url(#a)"><path d="M22 43.009A5.005 5.005 0 0 1 27.005 38h201.99a5 5 0 0 1 5.006 5.009v179.98a5.005 5.005 0 0 1-5.005 5.009H27.005A5 5 0 0 1 22 222.989z" fill="url(#b)"/><rect x="22" y="41" width="212" height="184" rx="5" fill="url(#c)"/><path d="M86.356 98.846l-39.379 22.971a6 6 0 1 0 6.047 10.365l48-28c3.968-2.315 3.968-8.05 0-10.365l-48-28a6 6 0 0 0-6.047 10.366z" fill="#ca353f"/><path d="M86.356 95.846l-39.379 22.971a6 6 0 1 0 6.047 10.365l48-28c3.968-2.315 3.968-8.05 0-10.365l-48-28a6 6 0 0 0-6.047 10.366z" fill="#fff0f0"/><path d="M46.977 118.82a6.002 6.002 0 0 0-2.634 7.184c.456-1.294 1.356-2.756 2.634-3.501L86 99.003l-2.3-1.7zm56.686-20.817c.893-2.56.013-5.635-2.64-7.183l-48-28a6 6 0 0 0-8.68 7.181 6 6 0 0 1 8.68-3.181l48 28a5.92 5.92 0 0 1 2.64 3.183z" fill="#fff"/><path d="M148.55 155c3.013 0 5.455-3.134 5.455-7s-2.442-7-5.455-7H95.459c-3.013 0-5.455 3.134-5.455 7s2.443 7 5.455 7z" fill="#ca3540"/><path d="M148.55 152c3.013 0 6.455-3.134 6.455-7s-3.442-7-6.455-7H95.459c-3.013 0-6.455 3.134-6.455 7s3.443 7 6.455 7z" fill="#fff0f0"/><path d="M155 145c0-3.866-3.442-7-6.455-7h-53.09c-3.013 0-6.455 3.134-6.455 7 0 0 1.5-4 6.454-4h53.091c2.471 0 4.955.5 6.455 4z" fill="#fff"/></g></svg>