<svg width="256" height="256" version="1.1" viewBox="0 0 256 256" xmlns="http://www.w3.org/2000/svg"><title>deepin-manual</title><defs><radialGradient id="b" cx="105.83" cy="37.197" r="203.38" gradientTransform="matrix(.94491 0 0 1.0583 28 16)" gradientUnits="userSpaceOnUse"><stop stop-color="#04A38C" offset="0"/><stop stop-color="#075661" offset="1"/></radialGradient><linearGradient id="c" x1="13.009" x2="0" y1="138.89" y2="138.89" gradientTransform="matrix(.94491 0 0 1.0583 28 16)" gradientUnits="userSpaceOnUse"><stop stop-color="#04A38C" stop-opacity="0" offset="0"/><stop stop-color="#075661" offset="1"/></linearGradient><filter id="a" color-interpolation-filters="sRGB"><feFlood flood-color="#908B78" flood-opacity=".498" result="flood"/><feComposite in="flood" in2="SourceGraphic" operator="in" result="composite1"/><feGaussianBlur in="composite1" result="blur" stdDeviation="5"/><feOffset dx="0" dy="5" result="offset"/><feComposite in="SourceGraphic" in2="offset" result="composite2"/></filter></defs><g fill-rule="evenodd" filter="url(#a)"><rect x="28" y="16" width="200" height="224" rx="8" fill="url(#b)"/><path d="M228 26a8 8 0 0 0-8-8H36a8 8 0 0 0-8 8v-2a8 8 0 0 1 8-8h184a8 8 0 0 1 8 8z" fill="#00ab9d" fill-opacity=".6"/><rect x="28" y="16" width="200" height="224" rx="8" fill="url(#c)"/><path d="M36 221h185.08a7 7 0 0 0 6.997-7.196l-.106-3.804v22a8 8 0 0 1-8 8H36a8 8 0 0 1-8-8v-3a8 8 0 0 1 8-8z" fill="#034849"/><path d="M37.5 223H222a4 4 0 0 0 4-4l-.059 9.052a8 8 0 0 1-8 7.948H37.502a6.5 6.5 0 0 1 0-13z" fill="#d5fcf9"/><g fill="#fff"><path d="M110.337 142.538l2.033-25.034c1.764-3.755 4.913-6.851 9.475-9.314 5.827-3.145 9.323-3.98 16.405-4.67 1.938-.188 3.087-.325 4.203-.534l2.022 24.914c-.259.063-.522.122-.79.177-1.369.28-2.57.426-4.998.65-7.741.711-11.681 1.601-18.135 4.894-4.657 2.376-8.069 5.353-10.215 8.917zm-.722 8.891l.084.005c.433-6.9 4.321-12.213 11.783-16.02 6.177-3.152 9.888-3.99 17.392-4.68 2.5-.23 3.756-.384 5.22-.683.184-.038.366-.077.546-.118L147 159h-38zm3.115-38.369L114.278 94h27.444l.566 6.964c-1.113.218-2.23.354-4.237.55-7.33.713-11.066 1.606-17.178 4.905-3.433 1.853-6.15 4.069-8.143 6.64zM105.634 161h44.732c.562 0 1.051.447 1.094 1l1.537 20c.043.551-.41 1-1.013 1h-47.968c-.602 0-1.056-.449-1.013-1l1.537-20c.043-.553.532-1 1.094-1zM112 72h32a1 1 0 0 1 1 1v3a1 1 0 0 1-1 1h-32a1 1 0 0 1-1-1v-3a1 1 0 0 1 1-1zm2-2l14-8 14 8zm14-9a3 3 0 1 1 0-6 3 3 0 0 1 0 6zm-8 19v4a1 1 0 0 1-1 1h-4a1 1 0 0 1-1-1v-4a1 1 0 0 1 1-1h4a1 1 0 0 1 1 1zm22 0v4a1 1 0 0 1-1 1h-4a1 1 0 0 1-1-1v-4a1 1 0 0 1 1-1h4a1 1 0 0 1 1 1zm-8 0v4a1 1 0 0 1-1 1h-10a1 1 0 0 1-1-1v-4a1 1 0 0 1 1-1h10a1 1 0 0 1 1 1zm-22 7h32a1 1 0 0 1 1 1v3a1 1 0 0 1-1 1h-32a1 1 0 0 1-1-1v-3a1 1 0 0 1 1-1zm15 21a1 1 0 0 0-1 1v7a1 1 0 0 0 1 1h2a1 1 0 0 0 1-1v-7a1 1 0 0 0-1-1z"/><path d="M151.408 187.18a.15.15 0 0 0 .01.008zm-2.309-.263c-1.87-.071-4.74-.035-8.605.108-7.745.288-20.769.245-36.48 1.396-1.01-.467-1.564-.877-1.662-1.23-.148-.53-.19-1.447.75-2.033 3.046-1.408 44.097-.247 45.998-.174.967.037 2.592.078 3.07.174.742.15 1.02 2.66.798 3.263-.509 1.384-10.933.293-31.282 2.053 31.282 1.754 31.156 1.79 27.452 4.11-6.671 4.176-48.202 8.881-48.202 8.881 24.574 0 54.858 2.809 58.819 4.842 3.961 2.033-21.498 6.838-31.21 6.838 4.455-.627 14.74-1.68 20.895-4.259.621-.26 3.146-1.273 1.968-1.743-1.518-.605-4.54-1.386-9.101-1.937-9.19-1.112-24.453-2.084-45.781-2.918-4.013.174-5.478.117-4.395-.171-3.446-1.98 14.46-5.992 40.868-9.533 2.186-1.441-4.805-2.637-20.973-3.588-.228-.742 1.567-1.365 5.387-1.869 4.057-.534 32.23-1.74 33.354-2.086a18.158 18.158 0 0 0-1.667-.124z" fill-rule="nonzero" opacity=".2"/></g><path d="M110.42 85.11L28.002 95V69l82.418 9.89zm35.165-6.22L228.003 69v26l-82.418-9.89z" fill="#fff" opacity=".3"/><circle cx="128" cy="82" r="2" fill="#fefc6b"/><path d="M228 230v2a8 8 0 0 1-8 8H36a8 8 0 0 1-8-8v-2a8 8 0 0 0 8 8h184a8 8 0 0 0 8-8z" fill="#002f2b"/></g></svg>