<svg width="256" height="256" version="1.1" viewBox="0 0 256 256" xmlns="http://www.w3.org/2000/svg"><title>ISO安装器-256px</title><defs><linearGradient id="b" x1="58.27" x2="58.27" y1="202.47" y2="306.99" gradientTransform="scale(2.1928 .45603)" gradientUnits="userSpaceOnUse"><stop stop-color="#FFDD89" offset="0"/><stop stop-color="#FFAF32" offset="1"/></linearGradient><filter id="a" color-interpolation-filters="sRGB"><feFlood flood-color="#908B78" flood-opacity=".498" result="flood"/><feComposite in="flood" in2="SourceGraphic" operator="in" result="composite1"/><feGaussianBlur in="composite1" result="blur" stdDeviation="5"/><feOffset dx="0" dy="5" result="offset"/><feComposite in="SourceGraphic" in2="offset" result="composite2"/></filter></defs><g fill-rule="evenodd" filter="url(#a)"><path d="M152.7 19.561C106.06 5.921 57.203 32.662 43.56 79.302c-13.64 46.635 13.107 95.497 59.747 109.14 46.629 13.64 95.497-13.101 109.13-59.736 13.64-46.646-13.107-95.502-59.736-109.14z" fill="#eff4f8"/><path d="M152.14 21.48C106.56 8.15 58.813 34.283 45.48 79.863c-13.33 45.575 12.809 93.326 58.389 106.66 45.57 13.33 93.327-12.803 106.65-58.378 13.33-45.585-12.809-93.332-58.378-106.66z" fill="#fff"/><path d="M153.99 32.406c-10.922-3.985-22.111-5.06-32.968-4.05-12.589.994-18.734 4.891-18.371 4.186C82.066 39.892 64.661 55.7 56.6 77.87c-14.353 39.482 5.977 83.144 45.4 97.519 39.439 14.375 83.037-5.983 97.39-45.464 14.359-39.482-5.971-83.14-45.4-97.52zm-49.395 135.84c-4.202-1.536-8.127-3.49-11.824-5.722 18.371 1.412 42.343-2.823 58.51-17.952 0 0 30.818-24.624 8.523-65.034 0 0 3.594 16.286-.988 29.683 0 0-4.37 18.218-23.794 23.511-28.609 7.796-61.208-12.23-74.834-21.93-1.026-9.973-.114-20.277 3.54-30.33 5.417-14.896 15.601-26.519 28.043-34.325-3.11 21.763-.651 41.8 2.883 50.193 4.745 11.253 12.991 24.38 29.076 26.063 16.085 1.689 24.956-13.365 24.956-13.365 8.252-12.54 9.544-30.547 9.419-30.98-.125-.44-2.199-1.63-2.199-1.63-5.553 22.475-14.712 29.983-14.712 29.983-14.44 13.94-24.668 4.272-24.668 4.272-10.993-11.807-3.295-30.997-3.295-30.997 4.305-13.072 16.851-32.202 31.068-41.93 2.367.586 4.75.95 7.09 1.802 8.604 3.138 16.139 7.866 22.513 13.675-10.396 3.795-27.181 11.818-27.181 11.818-26.606 11.205-28.403 28.153-28.403 28.153-2.753 17.47 11.107 10.075 11.107 10.075C143.69 96.331 150.7 74.676 150.7 74.676c-4.452-.847-7.959.505-7.959.505-5.694 14.055-17.312 19.836-17.312 19.836-4.57 2.421-5.635-1.856-5.635-1.856-.77-3.203 3.306-3.752 3.306-3.752 6.33-2.459 10.38-9.109 11.297-11.829.912-2.725 2.612-2.936 2.612-2.936 8.675-2.769 16.585-3.388 16.585-3.388 10.77-1.324 27.257 3.811 27.257 3.811 3.697 1.487 7.241 2.6 10.39 3.49 6.042 15.098 6.997 32.29 1.01 48.77-12.91 35.53-52.159 53.858-87.657 40.922z" fill="#00b7ff" opacity=".8"/><rect x="32" y="96" width="192" height="140" rx="5.333" fill="#c58330"/><rect x="32" y="96" width="192" height="138" rx="5.333" fill="#d69a4e"/><g fill="#b08043"><path d="M113.96 180.07h-10.919l.002-1.799c0-.612.585-1.213 1.22-1.215.588-.002 8.5 0 9.11 0 .548 0 1.186.613 1.183 1.206-.002.47-.01.758-.01 1.206 0 0 0 .602-.586.602m3.01 8.433c.625 0 .629-.557.629-.613l-.004-1.79c0-.603-.615-.612-.615-.612l-12.737-.01c-1.221 0-1.203-1.176-1.203-1.176-.015-.076.001-1.226 0-1.226h12.126c3.367 0 3.026-2.412 3.026-2.412v-2.39s.328-4.242-4.233-4.242h-10.216c-4.642 0-4.328 4.186-4.328 4.186l.002 6.059c0 4.225 4.248 4.206 4.248 4.206zM94.545 184.9s.01.588-.606.588c-.66 0-3.887.008-5.87.002-1.982-.006-4.413-.44-4.414-4.175-.002-3.736 2.7-4.254 4.386-4.254s6.5.007 6.5.007l.004 7.832m3.033-16.294h-2.416s-.607 0-.607.623l-.003 4.804h-7.849c-5.704-.002-6.708 4.912-6.703 7.244.006 2.33 1.026 7.216 6.793 7.211 5.768-.005 5.93.007 8.37.007 3.024 0 3.028-2.997 3.028-2.997v-16.29c0-.602-.613-.602-.613-.602M161.83 172.22h-2.424a.605.605 0 0 1-.606-.603v-2.412c0-.332.271-.603.606-.603h2.424c.335 0 .606.27.606.603v2.412a.605.605 0 0 1-.606.603M161.83 188.5h-2.424a.605.605 0 0 1-.606-.603v-13.264c0-.333.271-.603.606-.603h2.424c.335 0 .606.27.606.603v13.264a.605.605 0 0 1-.606.603M173.34 174.03c-4.452-.006-9.697-.001-9.697-.001v13.855c0 .273.176.676.725.607l2.117-.007c.836.118.811-.61.811-.61l-.018-10.823s4.435-.004 6.057-.004c.101 0 2.448.045 2.448 3.009l-.018 7.84c0 .332.271.603.607.603l2.423-.002c.335 0 .606-.27.606-.603v-8.112c0-3.342-1.609-5.745-6.061-5.751M143.04 177.62s-.01-.588.606-.588c.66 0 3.887-.008 5.87-.002 1.982.006 4.413.44 4.414 4.175.001 3.736-2.7 4.254-4.386 4.254s-6.5-.007-6.5-.007l-.004-7.832m-3.029 16.294h2.414s.606 0 .606-.623l.002-4.804h7.85c5.703.002 6.707-4.912 6.702-7.244-.006-2.33-1.025-7.216-6.793-7.211-5.768.005-5.924-.007-8.366-.007-3.024 0-3.023 2.997-3.023 2.997v16.29c0 .602.608.602.608.602M133.96 180.07h-10.919l.002-1.799c0-.612.585-1.213 1.22-1.215.588-.002 8.5 0 9.11 0 .548 0 1.186.613 1.183 1.206-.002.47-.01.758-.01 1.206 0 0 0 .602-.586.602m3.01 8.433c.626 0 .63-.557.63-.613-.002-.21-.005-1.579-.005-1.79 0-.603-.615-.612-.615-.612l-12.737-.01c-1.22 0-1.202-1.176-1.202-1.176-.016-.076 0-1.226 0-1.226h12.126c3.367 0 3.025-2.412 3.025-2.412v-2.39s.329-4.242-4.232-4.242h-10.216c-4.643 0-4.328 4.186-4.328 4.186v6.059c0 4.225 4.25 4.206 4.25 4.206z"/></g><path d="M242.7 134.52c1.35 3.028-.233 5.483-3.565 5.483H16.425c-3.318 0-4.921-2.446-3.572-5.483l16.46-37.034c1.346-3.028 5.115-5.483 8.447-5.483h179.98c3.32 0 7.1 2.447 8.454 5.483z" fill="url(#b)"/><path d="M220.64 94.017c2.211 0 4.736 1.643 5.632 3.654l16.338 36.659c.9 2.018-.162 3.654-2.366 3.654l-224.95.014c-2.205 0-3.263-1.642-2.37-3.653l16.291-36.654c.897-2.018 3.419-3.654 5.628-3.654z" fill="#ffcd6f"/></g></svg>