<svg width="256" height="256" version="1.1" viewBox="0 0 256 256" xmlns="http://www.w3.org/2000/svg"><title>deepin-calculator</title><defs><linearGradient id="b" x1="128" x2="128" y1="25" y2="215.79" gradientUnits="userSpaceOnUse"><stop stop-color="#35C7FF" offset="0"/><stop stop-color="#00A7FF" offset="1"/></linearGradient><filter id="a" color-interpolation-filters="sRGB"><feFlood flood-color="#A9A69A" flood-opacity=".498" result="flood"/><feComposite in="flood" in2="SourceGraphic" operator="in" result="composite1"/><feGaussianBlur in="composite1" result="blur" stdDeviation="5"/><feOffset dx="0" dy="5" result="offset"/><feComposite in="SourceGraphic" in2="offset" result="composite2"/></filter></defs><g fill-rule="evenodd" filter="url(#a)"><path d="M33 25h190a8 8 0 0 1 8 8v190a8 8 0 0 1-8 8H33a8 8 0 0 1-8-8V33a8 8 0 0 1 8-8z" fill="url(#b)"/><g><path d="M231 127v96a8 8 0 0 1-8 8H33a8 8 0 0 1-8-8v-96 94a8 8 0 0 0 8 8h190a8 8 0 0 0 8-8z" fill="#248ff4"/><path d="M231 129V33a8 8 0 0 0-8-8H33a8 8 0 0 0-8 8v96-94a8 8 0 0 1 8-8h190a8 8 0 0 1 8 8z" fill="#5fd1ff"/><path d="M61 163.833L75.167 178 61 192.167 63.833 195 78 180.833 92.167 195 95 192.167 80.833 178 95 163.833 92.167 161 78 175.167 63.833 161zM128 128H27V33a6 6 0 0 1 6-6h95z" fill="#fff"/><path d="M80 76V56h-4v20H56v4h20v20h4V80h20v-4z" fill="#2abff9"/><path d="M157 76h44v4h-44zM128 128h101v95a6 6 0 0 1-6 6h-95z" fill="#fff"/><path d="M161 169h36v4h-36zm0 16h36v4h-36z" fill="#2abff9"/></g></g></svg>