<svg width="256" height="256" version="1.1" viewBox="0 0 256 256" xmlns="http://www.w3.org/2000/svg"><title>deepin-font-installer</title><defs><linearGradient id="b" x1="108.12" x2="108.12" y1="163.07" y2="268.55" gradientTransform="scale(1.1838 .84471)" gradientUnits="userSpaceOnUse"><stop stop-color="#D5E5F4" offset="0"/><stop stop-color="#DEE8F2" offset="1"/></linearGradient><linearGradient id="c" x1="58.27" x2="58.27" y1="202.47" y2="222.93" gradientTransform="scale(2.1928 .45603)" gradientUnits="userSpaceOnUse"><stop stop-color="#fff" offset="0"/><stop stop-color="#C9DAE9" offset="1"/></linearGradient><filter id="a" color-interpolation-filters="sRGB"><feFlood flood-color="#A9A69A" flood-opacity=".498" result="flood"/><feComposite in="flood" in2="SourceGraphic" operator="in" result="composite1"/><feGaussianBlur in="composite1" result="blur" stdDeviation="4"/><feOffset dx="0" dy="4" result="offset"/><feComposite in="SourceGraphic" in2="offset" result="composite2"/></filter></defs><g fill-rule="evenodd" filter="url(#a)"><path d="M206 230H50c-4 0-6-2-6-6V28c0-4 2-6 6-6h110l52 52v150c0 6-6 6-6 6z" fill="#e5b400"/><path d="M44 224c0 4 2 6 6 6h156s6 0 6-6v-2c0 6-6 6-6 6H50c-4 0-6-2-6-6z" fill-opacity=".12"/><path d="M44 28c0-4 2-6 6-6h110v2H50c-4 0-6 2-6 6z" fill="#fff" opacity=".25"/><path d="M141.73 128.05h-27.703v-3.328c2.437-.156 4.46-.469 6.07-.938 1.61-.468 2.414-1.047 2.414-1.734 0-.281-.03-.625-.093-1.031s-.157-.766-.282-1.078l-5.53-14.906H93.307c-.875 2.187-1.586 4.093-2.133 5.719a287.223 287.223 0 0 0-1.476 4.5c-.406 1.343-.688 2.437-.844 3.28-.156.844-.234 1.532-.234 2.063 0 1.25.984 2.219 2.953 2.906s4.187 1.094 6.656 1.22v3.327H73.199v-3.328c.813-.062 1.828-.242 3.047-.539 1.219-.297 2.219-.695 3-1.195 1.25-.844 2.219-1.727 2.906-2.649s1.36-2.195 2.016-3.82c3.344-8.344 7.03-17.719 11.062-28.125s7.625-19.672 10.78-27.797h3.75l22.173 57.375c.468 1.219 1 2.203 1.594 2.953.593.75 1.421 1.485 2.484 2.203.719.438 1.656.805 2.812 1.102 1.157.297 2.125.46 2.907.492zm-26.812-27.188L104.84 75.081l-9.89 25.781zm71.766 26.344a69.72 69.72 0 0 1-3.867 1.29c-1.11.327-2.367.491-3.774.491-2.437 0-4.382-.57-5.836-1.71s-2.382-2.805-2.789-4.993h-.28c-2.032 2.25-4.212 3.969-6.54 5.156-2.328 1.188-5.133 1.782-8.414 1.782-3.469 0-6.32-1.063-8.555-3.188-2.234-2.125-3.351-4.906-3.351-8.344 0-1.781.25-3.375.75-4.78s1.25-2.673 2.25-3.798c.78-.937 1.812-1.773 3.093-2.508 1.282-.734 2.485-1.32 3.61-1.757 1.406-.532 4.258-1.516 8.555-2.954 4.296-1.437 7.195-2.562 8.695-3.375v-4.64c0-.406-.086-1.188-.258-2.344a9.813 9.813 0 0 0-1.102-3.281c-.625-1.156-1.507-2.164-2.648-3.024s-2.758-1.289-4.852-1.289c-1.437 0-2.773.243-4.007.727s-2.102.992-2.602 1.523c0 .625.148 1.547.445 2.766.297 1.219.446 2.344.446 3.375 0 1.094-.493 2.094-1.477 3-.984.906-2.352 1.36-4.102 1.36-1.562 0-2.71-.555-3.445-1.665-.734-1.11-1.101-2.351-1.101-3.726 0-1.438.507-2.813 1.523-4.125 1.016-1.313 2.336-2.485 3.96-3.516 1.407-.875 3.11-1.617 5.11-2.227s3.953-.914 5.86-.914c2.625 0 4.914.18 6.867.54a12.609 12.609 0 0 1 5.32 2.32c1.594 1.156 2.805 2.726 3.633 4.71s1.242 4.54 1.242 7.665c0 4.469-.047 8.43-.14 11.883a419.55 419.55 0 0 0-.141 11.32c0 1.219.21 2.187.633 2.906.422.719 1.07 1.328 1.945 1.828.469.281 1.21.438 2.227.469 1.015.031 2.054.047 3.117.047zm-16.359-24.75c-2.656.781-4.984 1.547-6.984 2.297-2 .75-3.86 1.687-5.579 2.812-1.562 1.063-2.796 2.32-3.703 3.774-.906 1.453-1.359 3.18-1.359 5.18 0 2.593.68 4.5 2.04 5.718 1.358 1.22 3.085 1.828 5.179 1.828 2.219 0 4.172-.539 5.86-1.617s3.109-2.351 4.265-3.82z" fill="#c99e00"/><path d="M141.73 126.05h-27.703v-3.328c2.437-.156 4.46-.469 6.07-.938 1.61-.468 2.414-1.047 2.414-1.734 0-.281-.03-.625-.093-1.031s-.157-.766-.282-1.078l-5.53-14.906H93.307c-.875 2.187-1.586 4.093-2.133 5.718a287.223 287.223 0 0 0-1.476 4.5c-.406 1.344-.688 2.438-.844 3.282-.156.843-.234 1.53-.234 2.062 0 1.25.984 2.219 2.953 2.906 1.969.688 4.187 1.094 6.656 1.22v3.327H73.199v-3.328c.813-.062 1.828-.242 3.047-.539 1.219-.297 2.219-.695 3-1.195 1.25-.844 2.219-1.727 2.906-2.649s1.36-2.195 2.016-3.82c3.344-8.344 7.03-17.719 11.062-28.125s7.625-19.672 10.78-27.797h3.75l22.173 57.375c.468 1.219 1 2.203 1.594 2.953.593.75 1.421 1.485 2.484 2.203.719.438 1.656.805 2.812 1.102 1.157.297 2.125.46 2.907.492zm-26.812-27.187L104.84 73.082l-9.89 25.781zm71.766 26.344a69.72 69.72 0 0 1-3.867 1.29c-1.11.327-2.367.491-3.774.491-2.437 0-4.382-.57-5.836-1.71s-2.382-2.805-2.789-4.993h-.28c-2.032 2.25-4.212 3.969-6.54 5.156-2.328 1.188-5.133 1.782-8.414 1.782-3.469 0-6.32-1.063-8.555-3.188-2.234-2.125-3.351-4.906-3.351-8.344 0-1.781.25-3.375.75-4.78.5-1.407 1.25-2.673 2.25-3.798.78-.937 1.812-1.773 3.093-2.508 1.282-.734 2.485-1.32 3.61-1.757 1.406-.532 4.258-1.516 8.555-2.954 4.296-1.437 7.195-2.562 8.695-3.375v-4.64c0-.406-.086-1.188-.258-2.344a9.813 9.813 0 0 0-1.102-3.281c-.625-1.156-1.507-2.164-2.648-3.024s-2.758-1.289-4.852-1.289c-1.437 0-2.773.243-4.007.727s-2.102.992-2.602 1.523c0 .625.148 1.547.445 2.766.297 1.219.446 2.344.446 3.375 0 1.094-.493 2.094-1.477 3-.984.906-2.352 1.36-4.102 1.36-1.562 0-2.71-.555-3.445-1.665-.734-1.11-1.101-2.351-1.101-3.726 0-1.438.507-2.813 1.523-4.125 1.016-1.313 2.336-2.485 3.96-3.516 1.407-.875 3.11-1.617 5.11-2.227s3.953-.914 5.86-.914c2.625 0 4.914.18 6.867.54a12.609 12.609 0 0 1 5.32 2.32c1.594 1.156 2.805 2.726 3.633 4.71s1.242 4.54 1.242 7.665c0 4.469-.047 8.43-.14 11.883a419.55 419.55 0 0 0-.141 11.32c0 1.219.21 2.187.633 2.906.422.719 1.07 1.328 1.945 1.828.469.281 1.21.438 2.227.469 1.015.031 2.054.047 3.117.047zm-16.359-24.75c-2.656.781-4.984 1.547-6.984 2.297-2 .75-3.86 1.687-5.579 2.812-1.562 1.063-2.796 2.32-3.703 3.774-.906 1.453-1.359 3.18-1.359 5.18 0 2.593.68 4.5 2.04 5.718 1.358 1.22 3.085 1.828 5.179 1.828 2.219 0 4.172-.539 5.86-1.617s3.109-2.351 4.265-3.82z" fill="#fbf4db"/><g fill="#fff"><path d="M152.74 115.54c.16 2.079.827 3.644 2.001 4.697 1.36 1.219 3.086 1.828 5.18 1.828 2.219 0 4.172-.539 5.86-1.617s3.109-2.352 4.265-3.82l.246-14.162.035-.01-.281 16.171c-1.156 1.47-2.578 2.743-4.266 3.82s-3.64 1.618-5.86 1.618c-2.093 0-3.82-.61-5.179-1.828-1.36-1.22-2.039-3.125-2.039-5.72 0-.333.013-.659.038-.977zM143.31 116.65c-.02-.313-.03-.631-.03-.956 0-1.781.25-3.375.75-4.781.5-1.406 1.25-2.672 2.25-3.797.781-.938 1.813-1.773 3.094-2.508 1.281-.734 2.484-1.32 3.61-1.758 1.405-.53 4.257-1.515 8.554-2.953 4.297-1.437 7.195-2.562 8.695-3.375v2c-1.5.813-4.398 1.938-8.695 3.375-4.297 1.438-7.148 2.422-8.555 2.953-1.125.438-2.328 1.024-3.61 1.758-1.28.734-2.312 1.57-3.093 2.508-1 1.125-1.75 2.39-2.25 3.797-.4 1.125-.64 2.371-.72 3.737zm11.68-30.672c.061.303.134.63.22.982.297 1.219.445 2.344.445 3.375 0 .241-.024.478-.072.71a16.154 16.154 0 0 0-.373-2.085c-.297-1.219-.445-2.14-.445-2.766a3.21 3.21 0 0 1 .225-.216zm-9.384 4.376a7.212 7.212 0 0 1-.075-1.05c0-1.438.507-2.813 1.523-4.125 1.016-1.313 2.336-2.485 3.96-3.516 1.407-.875 3.11-1.617 5.11-2.227s3.953-.914 5.86-.914c2.625 0 4.914.18 6.867.54a12.609 12.609 0 0 1 5.32 2.32c1.594 1.156 2.805 2.726 3.633 4.71s1.242 4.54 1.242 7.665c0 .546 0 1.085-.002 1.617-.033-2.952-.446-5.379-1.24-7.281-.828-1.985-2.04-3.555-3.633-4.711a12.61 12.61 0 0 0-5.32-2.32c-1.953-.36-4.242-.54-6.867-.54-1.907 0-3.86.305-5.86.914s-3.703 1.352-5.11 2.227c-1.624 1.031-2.944 2.203-3.96 3.516-.79 1.02-1.273 2.079-1.448 3.176zm33.162 26.851c.027 1.104.236 1.991.63 2.661.421.719 1.07 1.328 1.945 1.828.469.281 1.21.438 2.226.469 1.016.031 2.055.047 3.118.047v2c-1.063 0-2.102-.016-3.118-.047-1.015-.031-1.757-.188-2.226-.469-.875-.5-1.524-1.11-1.945-1.828-.422-.719-.633-1.687-.633-2.906 0-.592 0-1.176.003-1.754zM95.717 98.866h18.42l.782 2h-19.97z"/><path d="M114.03 124.72v-2c2.438-.156 4.46-.469 6.07-.938 1.174-.341 1.92-.742 2.238-1.2.032.139.06.283.083.435.062.406.093.75.093 1.031 0 .688-.804 1.266-2.414 1.734-1.61.47-3.633.782-6.07.938zm-25.297-5.434c.306.922 1.254 1.66 2.844 2.215 1.968.688 4.187 1.094 6.656 1.22v2c-2.47-.126-4.688-.532-6.656-1.22s-2.954-1.656-2.954-2.906c0-.363.037-.8.11-1.309zm-15.531 5.434v-2c.813-.063 1.828-.242 3.047-.54 1.219-.296 2.219-.694 3-1.194 1.25-.844 2.219-1.727 2.906-2.649s1.36-2.195 2.016-3.82c3.343-8.344 7.03-17.72 11.062-28.125s7.625-19.672 10.78-27.797h3.75l22.173 57.375c.468 1.219 1 2.203 1.593 2.953.594.75 1.422 1.484 2.485 2.203.719.438 1.656.805 2.812 1.102 1.157.297 2.125.46 2.907.492v2c-.782-.031-1.75-.195-2.907-.492-1.156-.297-2.093-.664-2.812-1.102-1.063-.719-1.89-1.453-2.485-2.203-.593-.75-1.125-1.734-1.593-2.953l-22.172-57.375h-3.75c-3.157 8.125-6.75 17.39-10.781 27.797s-7.719 19.78-11.062 28.125c-.657 1.625-1.328 2.898-2.016 3.82s-1.656 1.805-2.906 2.649c-.781.5-1.781.898-3 1.195-1.219.297-2.235.476-3.047.539z"/></g><path d="M164.95 76.149c-2.944 0-4.955-2.539-4.955-5.483V24l52 50v2.15z" opacity=".096"/><path d="M164.95 74.149c-2.944 0-4.955-2.539-4.955-5.483V22l52 52.15z" fill="#ffe587"/><path d="M34 101.34a5.34 5.34 0 0 1 5.336-5.338h181.33A5.334 5.334 0 0 1 226 101.34v128.67a5.993 5.993 0 0 1-6.01 5.993H40.011c-3.319 0-6.01-2.687-6.01-5.993z" fill="#c0d0df"/><path d="M32 101.33a5.335 5.335 0 0 1 5.336-5.329h181.33A5.327 5.327 0 0 1 224 101.33V227a5.995 5.995 0 0 1-6.01 5.997H38.011c-3.319 0-6.01-2.69-6.01-5.997z" fill="url(#b)"/><g fill="#16aefe"><path d="M113.96 180.07h-10.919l.002-1.799c0-.612.585-1.213 1.22-1.215.588-.002 8.5 0 9.11 0 .548 0 1.186.613 1.183 1.206-.002.47-.01.758-.01 1.206 0 0 0 .602-.586.602m3.01 8.433c.625 0 .629-.557.629-.613l-.004-1.79c0-.603-.615-.612-.615-.612l-12.737-.01c-1.221 0-1.203-1.176-1.203-1.176-.015-.076.001-1.226 0-1.226h12.126c3.367 0 3.026-2.412 3.026-2.412v-2.39s.328-4.242-4.233-4.242h-10.216c-4.642 0-4.328 4.186-4.328 4.186l.002 6.059c0 4.225 4.248 4.206 4.248 4.206zM94.545 184.9s.01.588-.606.588c-.66 0-3.887.008-5.87.002-1.982-.006-4.413-.44-4.414-4.175-.002-3.736 2.7-4.254 4.386-4.254s6.5.007 6.5.007l.004 7.832m3.033-16.294h-2.416s-.607 0-.607.623l-.003 4.804h-7.849c-5.704-.002-6.708 4.912-6.703 7.244.006 2.33 1.026 7.216 6.793 7.211 5.768-.005 5.93.007 8.37.007 3.024 0 3.028-2.997 3.028-2.997v-16.29c0-.602-.613-.602-.613-.602M161.83 172.22h-2.424a.605.605 0 0 1-.606-.603v-2.412c0-.332.271-.603.606-.603h2.424c.335 0 .606.27.606.603v2.412a.605.605 0 0 1-.606.603M161.83 188.5h-2.424a.605.605 0 0 1-.606-.603v-13.264c0-.333.271-.603.606-.603h2.424c.335 0 .606.27.606.603v13.264a.605.605 0 0 1-.606.603M173.34 174.03c-4.452-.006-9.697-.001-9.697-.001v13.855c0 .273.176.676.725.607l2.117-.007c.836.118.811-.61.811-.61l-.018-10.823s4.435-.004 6.057-.004c.101 0 2.448.045 2.448 3.009l-.018 7.84c0 .332.271.603.607.603l2.423-.002c.335 0 .606-.27.606-.603v-8.112c0-3.342-1.609-5.745-6.061-5.751M143.04 177.62s-.01-.588.606-.588c.66 0 3.887-.008 5.87-.002 1.982.006 4.413.44 4.414 4.175.001 3.736-2.7 4.254-4.386 4.254s-6.5-.007-6.5-.007l-.004-7.832m-3.029 16.294h2.414s.606 0 .606-.623l.002-4.804h7.85c5.703.002 6.707-4.912 6.702-7.244-.006-2.33-1.025-7.216-6.793-7.211-5.768.005-5.924-.007-8.366-.007-3.024 0-3.023 2.997-3.023 2.997v16.29c0 .602.608.602.608.602M133.96 180.07h-10.919l.002-1.799c0-.612.585-1.213 1.22-1.215.588-.002 8.5 0 9.11 0 .548 0 1.186.613 1.183 1.206-.002.47-.01.758-.01 1.206 0 0 0 .602-.586.602m3.01 8.433c.626 0 .63-.557.63-.613-.002-.21-.005-1.579-.005-1.79 0-.603-.615-.612-.615-.612l-12.737-.01c-1.22 0-1.202-1.176-1.202-1.176-.016-.076 0-1.226 0-1.226h12.126c3.367 0 3.025-2.412 3.025-2.412v-2.39s.329-4.242-4.232-4.242h-10.216c-4.643 0-4.328 4.186-4.328 4.186v6.059c0 4.225 4.25 4.206 4.25 4.206z"/></g><path d="M242.7 134.52c1.35 3.028-.233 5.483-3.565 5.483H16.425c-3.318 0-4.921-2.446-3.572-5.483l16.46-37.034c1.346-3.028 5.115-5.483 8.447-5.483h179.98c3.32 0 7.1 2.447 8.454 5.483z" fill="url(#c)"/><path d="M217.64 95.017c2.214 0 4.766 1.619 5.706 3.632l16.203 34.702c.936 2.007-.098 3.633-2.303 3.633l-218.94.014c-2.209 0-3.245-1.619-2.308-3.632L32.154 98.67c.934-2.006 3.49-3.632 5.7-3.632z" fill="#f0f8fa"/></g></svg>