<svg width="256" height="256" version="1.1" viewBox="0 0 256 256" xmlns="http://www.w3.org/2000/svg"><title>deepin-multitasking-view</title><defs><filter id="a" color-interpolation-filters="sRGB"><feFlood flood-color="#908B78" flood-opacity=".498" result="flood"/><feComposite in="flood" in2="SourceGraphic" operator="in" result="composite1"/><feGaussianBlur in="composite1" result="blur" stdDeviation="1.5"/><feOffset dx="0" dy="1.5" result="offset"/><feComposite in="SourceGraphic" in2="offset" result="composite2"/></filter></defs><g transform="translate(.637 1.956) scale(2.6647)" filter="url(#a)"><path d="M48 5.22C24.797 5.22 5.986 24.03 5.969 47.23v35.53a6.509 6.509 0 0 0 6.523 6.523h35.53c23.207 0 42.009-18.824 42.009-42.031C90.03 24.038 71.213 5.22 48 5.22z" fill="#324e89" stroke-width="1.501"/><g fill="#fff"><path d="M61.51 14.225c-10.778 0-19.515 8.737-19.515 19.514v10.508h-13.51c-10.777 0-19.514 8.737-19.514 19.514s8.737 19.515 19.514 19.515S48 74.539 48 63.76V53.254h13.51c10.777 0 19.514-8.737 19.514-19.515S72.287 14.225 61.51 14.225zm0 9.007c5.803 0 10.507 4.704 10.507 10.507S67.313 44.247 61.51 44.247h-7.734s-2.774-.002-2.774-3.12V33.74c0-5.803 4.704-10.507 10.508-10.507zM28.485 53.254h7.735s2.773.002 2.773 3.12v7.387c0 5.804-4.704 10.508-10.508 10.508s-10.507-4.704-10.507-10.508 4.704-10.507 10.507-10.507z" opacity=".2"/><path d="M61.51 14.225c-10.778 0-19.515 8.737-19.515 19.514v10.508h-10.59c-2.458.183-4.392 2.16-4.391 4.662a4.66 4.66 0 0 0 2.949 4.345h6.257s2.773.002 2.773 3.12v7.387c0 5.804-4.704 10.508-10.508 10.508-1.5 0-2.07-.134-3.002-.299a4.503 4.503 0 0 0-4.503 4.503 4.503 4.503 0 0 0 4.216 4.486c.05.014.088.05.14.059 1.026.168 2.077.258 3.15.258C39.263 83.276 48 74.539 48 63.76V53.254h11.956a4.666 4.666 0 0 0 2.973-4.351c-.002-2.467-1.888-4.444-4.293-4.656h-4.86s-2.774-.002-2.774-3.12V33.74c0-5.803 4.704-10.507 10.508-10.507.728 0 1.441.074 2.128.217h.006a4.503 4.503 0 0 0 5.371-4.421 4.503 4.503 0 0 0-3.213-4.31h-.012a4.503 4.503 0 0 0-1.038-.182c-1.058-.183-2.132-.31-3.242-.31z"/><path d="M48 5.219c-23.203 0-42.015 18.808-42.031 42.006v1.501c.017-23.2 18.828-42.006 42.03-42.006 22.879 0 41.475 18.282 42.005 41.034.009-.168.026-.334.026-.505C90.03 24.036 71.212 5.22 48 5.22z" opacity=".1"/></g><path d="M90.012 46.274c-.402 22.86-19.034 41.281-41.988 41.281H12.493a6.51 6.51 0 0 1-6.523-6.523v1.502a6.51 6.51 0 0 0 6.523 6.523h35.531c23.206 0 42.008-18.824 42.008-42.031 0-.252-.015-.5-.02-.752z" fill="#324ea2" stroke-width="1.501"/></g></svg>