<svg width="256" height="256" version="1.1" viewBox="0 0 256 256" xmlns="http://www.w3.org/2000/svg"><title>deepin-multitasking-view</title><defs><filter id="a" color-interpolation-filters="sRGB"><feFlood flood-color="#908B78" flood-opacity=".498" result="flood"/><feComposite in="flood" in2="SourceGraphic" operator="in" result="composite1"/><feGaussianBlur in="composite1" result="blur" stdDeviation="1.5"/><feOffset dx="0" dy="1.5" result="offset"/><feComposite in="SourceGraphic" in2="offset" result="composite2"/></filter></defs><g transform="translate(-.053 .713) scale(3.9999)" filter="url(#a)"><path d="M32 4C16.537 4 4 16.536 4 32s12.537 28 28 28c15.462 0 28-12.536 28-28S47.462 4 32 4z" fill="#6eaa36"/><path d="M32.175 11.403c-8.59 0-13.499 3.517-16.702 7.48a96.089 96.089 0 0 1 4.723 1.417l.066-3.715.048-.106.124-.038c.756.109 16.861 2.49 23.644 6.444.84.494 1.253 1.01 1.773 1.541 1.874 1.938 4.365 10.007 4.628 11.675l-.106.173c-.097.035-.334.2-.643.411-1.582 1.107-5.283 3.697-10.027 3.275-4.266-.38-9.832-2.827-16.547-7.249.296.697 1.692 4.012 1.925 4.568l.096.114c.973.503 10.301 5.26 14.93 5.162 3.736-.074 7.723-1.897 9.319-2.854l.508-.096c.141.111.12.328.076.528-.098.457-.318 1.296-.47 1.686l-.124.325c-.182.483-.36.948-.699 1.227-.94.856-2.447 1.533-4.798 2.564-3.637 1.59-9.53 2.589-15.006 2.557-1.959-.048-3.857-.263-5.523-.454-3.477-.394-6.301-.714-7.989.597C19.505 53.272 25.5 56.2 32.18 56.2c12.371 0 22.41-10.028 22.41-22.4 0-12.37-10.039-22.4-22.41-22.4h-.002zm5.921 11.855a6.799 6.799 0 0 0-4.588 1.849 6.829 6.829 0 0 0-2.191 4.798c-.123 3.792 2.861 6.993 6.655 7.135a6.842 6.842 0 0 0 4.94-1.858 6.854 6.854 0 0 0 2.185-4.79c.13-3.796-2.855-6.997-6.656-7.134-.115-.004-.23-.002-.345 0zm-.183 2.031c.158-.01.31-.006.47 0a4.815 4.815 0 0 1 3.123 8.324 4.806 4.806 0 0 1-3.448 1.282 4.825 4.825 0 0 1-4.636-4.98 4.778 4.778 0 0 1 1.523-3.343 4.748 4.748 0 0 1 2.968-1.283zm1.263 2.405c-1.18 0-2.135.64-2.135 1.427 0 .782.954 1.427 2.135 1.427 1.177 0 2.125-.644 2.125-1.427 0-.788-.948-1.427-2.125-1.427z" opacity=".2"/><path d="M32.174 10.402c-8.59 0-13.499 3.517-16.702 7.48a96.1 96.1 0 0 1 4.723 1.417l.066-3.715.048-.106.124-.038c.756.109 16.861 2.49 23.644 6.444.84.494 1.253 1.01 1.773 1.541 1.874 1.938 4.365 10.007 4.628 11.675l-.106.173c-.097.035-.334.2-.643.411-1.582 1.107-5.283 3.697-10.027 3.275-4.266-.38-9.832-2.827-16.547-7.249.296.697 1.692 4.011 1.925 4.568l.096.114c.973.503 10.301 5.259 14.93 5.162 3.736-.074 7.723-1.897 9.319-2.854l.508-.096c.141.111.12.328.076.528-.098.457-.317 1.296-.47 1.686l-.124.325c-.182.483-.36.948-.699 1.226-.94.857-2.447 1.534-4.798 2.565-3.637 1.59-9.53 2.589-15.006 2.557-1.959-.048-3.857-.263-5.523-.454-3.477-.394-6.301-.714-7.989.597C19.504 52.27 25.498 55.2 32.178 55.2c12.371 0 22.41-10.028 22.41-22.4 0-12.37-10.039-22.4-22.41-22.4h-.002zm5.921 11.855a6.799 6.799 0 0 0-4.588 1.848 6.829 6.829 0 0 0-2.191 4.8c-.123 3.791 2.861 6.992 6.655 7.134a6.842 6.842 0 0 0 4.94-1.858 6.854 6.854 0 0 0 2.185-4.79c.13-3.796-2.855-6.997-6.655-7.134-.116-.004-.232-.002-.346 0zm-.183 2.031c.158-.01.31-.006.47 0a4.815 4.815 0 0 1 3.123 8.323 4.806 4.806 0 0 1-3.448 1.283 4.825 4.825 0 0 1-4.636-4.98 4.778 4.778 0 0 1 1.523-3.343 4.748 4.748 0 0 1 2.968-1.283zm1.263 2.405c-1.18 0-2.135.64-2.135 1.427 0 .782.954 1.427 2.135 1.427 1.177 0 2.125-.644 2.125-1.427 0-.788-.948-1.427-2.125-1.427z" fill="#fff"/><path d="M4.021 32.422A28 28 0 0 0 4 33a28 28 0 0 0 28 28 28 28 0 0 0 28-28 28 28 0 0 0-.021-.406A28 28 0 0 1 32 60 28 28 0 0 1 4.021 32.422z" opacity=".2"/><path d="M32 4A28 28 0 0 0 4 32a28 28 0 0 0 .021.406A28 28 0 0 1 32.001 5a28 28 0 0 1 27.978 27.578 28 28 0 0 0 .022-.578 28 28 0 0 0-28-28z" fill="#fff" opacity=".2"/></g></svg>