<svg width="256" height="256" version="1.1" viewBox="0 0 256 256" xmlns="http://www.w3.org/2000/svg"><title>deepin-calculator</title><defs><filter id="a" color-interpolation-filters="sRGB"><feFlood flood-color="#908B78" flood-opacity=".498" result="flood"/><feComposite in="flood" in2="SourceGraphic" operator="in" result="composite1"/><feGaussianBlur in="composite1" result="blur" stdDeviation="1.5"/><feOffset dx="0" dy="1.5" result="offset"/><feComposite in="SourceGraphic" in2="offset" result="composite2"/></filter></defs><g transform="translate(10.148 10.065) scale(3.6775)" filter="url(#a)"><path d="M58.768 6.954c-.104-.31-.095-.702-.291-.959-2.678.386-5.328 1.047-7.806 2.139-2.626 1.127-5.479 3.02-7.485 5.046 3.269 3.404 5.801 7.556 8.766 10.785 1.381 2 2.773 5.105 3.952 7.225.262-.473 1.842-2.499 2.06-2.996 1.727-3.556 2.091-7.582 2-11.476-.04-3.285-.528-6.548-1.196-9.763zM5.2 6.954c.105-.31.096-.702.292-.959 2.677.386 5.328 1.047 7.806 2.139 2.626 1.127 5.479 3.02 7.485 5.046-3.27 3.404-5.802 7.556-8.766 10.785-1.382 2-2.773 5.105-3.953 7.225-.261-.473-1.84-2.499-2.06-2.996-1.726-3.556-2.09-7.582-1.999-11.476.04-3.285.528-6.548 1.196-9.763z" opacity=".2"/><path d="M22.274 10.19a27.5 27.5 0 0 0-1.58 1.127c-1.209.901-2.314 1.938-3.391 2.99-.41.418-.81.845-1.203 1.278-.18.196-.359.394-.536.594a52.99 52.99 0 0 0-.401.468l-.002.002-.008.01c-3.707 4.333-6.649 9.289-9.004 14.457a69.233 69.233 0 0 0-.713 1.677l-.152.364-.054.142a63.179 63.179 0 0 0-1.172 3.164.586.586 0 0 0-.05.284l.001.006c.014.2.108.399.17.59a30.632 30.632 0 0 0 1.682 3.855l.022.042a28.535 28.535 0 0 0 3.42 5.127 27.808 27.808 0 0 0 2.85 2.977c.091.083.184.165.276.247l.093.082c.368.324.745.64 1.129.946a28.675 28.675 0 0 0 7.941 4.498c.096.035.191.071.287.105a28.84 28.84 0 0 0 3.011.92c1.97.49 3.992.77 6.022.844l.025.001c.177.006.354.01.531.013l.18.004h.72l.18-.004c.176-.003.353-.007.53-.013l.027-.001a29.361 29.361 0 0 0 6.614-.998l.008-.002a28.85 28.85 0 0 0 2.411-.765l.282-.102.004-.002c2.86-1.048 5.594-2.621 7.944-4.501a29.63 29.63 0 0 0 1.494-1.272 27.812 27.812 0 0 0 2.85-2.977 28.529 28.529 0 0 0 3.417-5.122l.028-.053c.088-.169.174-.338.26-.509 0-.003.002-.005.003-.008a30.626 30.626 0 0 0 1.416-3.333c.062-.19.156-.389.17-.59l.002-.005-.001-.004a.585.585 0 0 0-.05-.28 59.364 59.364 0 0 0-.423-1.203c-.24-.66-.49-1.315-.751-1.966-.017-.046-.035-.091-.051-.137l-.149-.355a69.181 69.181 0 0 0-.717-1.686c-2.355-5.169-5.297-10.125-9.003-14.458l-.006-.006-.003-.004-.002-.002a56.788 56.788 0 0 0-.401-.467c-.169-.191-.34-.38-.511-.568-.4-.442-.81-.878-1.228-1.305-1.076-1.05-2.181-2.087-3.39-2.988a27.47 27.47 0 0 0-1.58-1.128c-3.317-2.16-6.087-3.085-9.848-3.186-3.415.02-7.213 1.622-9.62 3.186z" opacity=".2"/><path d="M58.768 4.954c-.104-.31-.095-.702-.291-.959-2.678.386-5.328 1.047-7.806 2.139-2.626 1.127-5.479 3.02-7.485 5.046 3.269 3.404 5.801 7.556 8.766 10.785 1.381 2 2.773 5.105 3.952 7.225.262-.473 1.842-2.499 2.06-2.996 1.727-3.556 2.091-7.582 2-11.476-.04-3.285-.528-6.548-1.196-9.763z" fill="#db3d7f"/><path d="M58.477 3.994c-2.678.386-5.328 1.047-7.807 2.139-2.625 1.127-5.478 3.021-7.484 5.047.167.174.325.357.488.535 1.966-1.847 4.574-3.542 6.996-4.582 2.479-1.092 5.13-1.75 7.807-2.137.196.257.187.648.291.96.668 3.214 1.156 6.475 1.195 9.76.006.23.004.46.006.69.009-.564.007-1.129-.006-1.69-.04-3.285-.527-6.546-1.195-9.76-.104-.312-.095-.705-.291-.962z" fill="#fff" opacity=".1"/><path d="M5.2 4.954c.105-.31.096-.702.292-.959 2.677.386 5.328 1.047 7.806 2.139 2.626 1.127 5.479 3.02 7.485 5.046-3.27 3.404-5.802 7.556-8.766 10.785-1.382 2-2.773 5.105-3.953 7.225-.261-.473-1.84-2.499-2.06-2.996-1.726-3.556-2.09-7.582-1.999-11.476.04-3.285.528-6.548 1.196-9.763z" fill="#db3d7f"/><path d="M5.492 3.994c-.196.257-.187.65-.29.961-.669 3.215-1.157 6.476-1.196 9.762-.013.56-.014 1.125-.006 1.69.002-.23 0-.461.006-.69.04-3.286.527-6.547 1.195-9.762.104-.31.095-.702.291-.959 2.678.386 5.329 1.045 7.807 2.137 2.423 1.04 5.03 2.735 6.996 4.582.163-.178.321-.361.488-.535-2.006-2.026-4.859-3.92-7.484-5.047C10.82 5.04 8.169 4.38 5.492 3.994z" fill="#fff" opacity=".1"/><path d="M22.274 9.19a27.5 27.5 0 0 0-1.58 1.127c-1.209.901-2.314 1.938-3.391 2.99-.41.418-.81.845-1.203 1.278-.18.196-.359.394-.536.594-.134.155-.268.31-.401.467l-.002.003-.008.01c-3.707 4.333-6.649 9.289-9.004 14.457a69.233 69.233 0 0 0-.713 1.677l-.152.364-.054.142a63.179 63.179 0 0 0-1.172 3.164.586.586 0 0 0-.05.284l.001.006c.014.2.108.399.17.59a30.632 30.632 0 0 0 1.682 3.855l.022.042a28.535 28.535 0 0 0 3.42 5.127 27.808 27.808 0 0 0 2.85 2.977c.091.083.184.164.276.246l.093.083c.368.324.745.64 1.129.945a28.675 28.675 0 0 0 7.941 4.5l.287.104a28.84 28.84 0 0 0 3.011.92c1.97.49 3.992.77 6.022.844l.025.001c.177.006.354.01.531.013l.18.004h.72l.18-.004c.176-.003.353-.007.53-.013l.027-.001a29.361 29.361 0 0 0 6.614-.998l.008-.002a28.85 28.85 0 0 0 2.411-.765c.094-.033.188-.068.282-.103l.004-.001c2.86-1.048 5.594-2.621 7.944-4.502a29.63 29.63 0 0 0 1.494-1.271 27.812 27.812 0 0 0 2.85-2.977 28.529 28.529 0 0 0 3.417-5.122l.028-.053c.088-.169.174-.339.26-.509l.003-.009a30.626 30.626 0 0 0 1.416-3.332c.062-.19.156-.389.17-.59l.002-.005-.001-.004a.585.585 0 0 0-.05-.28 59.364 59.364 0 0 0-.423-1.203c-.24-.66-.49-1.315-.751-1.966-.017-.046-.035-.091-.051-.137l-.149-.355a69.181 69.181 0 0 0-.717-1.686c-2.355-5.169-5.297-10.125-9.003-14.458l-.006-.006-.003-.004-.002-.002a56.788 56.788 0 0 0-.401-.468c-.169-.19-.34-.38-.511-.567-.4-.442-.81-.878-1.228-1.305-1.076-1.05-2.181-2.087-3.39-2.988a27.47 27.47 0 0 0-1.58-1.128c-3.317-2.16-6.087-3.085-9.848-3.186-3.415.02-7.213 1.622-9.62 3.186z" fill="#e4e4e4"/><g fill="#3f3f3f"><path d="M18.086 30.005c-1.28 0-2.562.18-3.785.553-.356 2.152-.534 4.414.196 6.514.573 1.854 2.023 3.428 3.856 4.16 2.234.925 4.78.958 7.117.426.3-1.347.552-2.717.516-4.102.059-1.699-.339-3.468-1.371-4.86-1.19-1.643-3.25-2.483-5.25-2.633a13.868 13.868 0 0 0-1.279-.058zm-.026 1.772a9.355 9.355 0 0 1 2.042.178c.293.12.736.055.942.297-.937.362-1.739 1.118-1.999 2.087-.317 1.015-.003 2.176.755 2.929 1.093 1.213 3.258 1.27 4.395.092-.029.933-.06 1.884-.288 2.784-.946.095-1.92.134-2.863-.016-1.723-.185-3.503-1.02-4.37-2.554-.985-1.682-.994-3.69-.752-5.555.278-.153.603-.12.908-.15.407-.053.818-.085 1.23-.092zM26.01 44.654c-.085.173.167.291.263.426 1.405 1.324 2.792 2.66 4.22 3.968.29.275.721.395 1.139.496.003.78.01 1.562-.003 2.343.163.16.462.136.673.053-.015-.79.016-1.58-.017-2.367.43-.136.891-.255 1.209-.543 1.433-1.365 2.889-2.718 4.318-4.086.053-.09.237-.17.164-.281-1.608-.4-3.284-.568-4.957-.642-2.363-.072-4.743.086-7.009.633zM31.894 6.004c-1.448.009-2.965.302-4.416.756 1.297 4.665 2.53 9.347 3.81 14.016.177-.019.355-.036.532-.054.35-4.889.862-9.77 1.194-14.66a22.687 22.687 0 0 0-1.12-.057zm-5.03.96a21.801 21.801 0 0 0-4.59 2.226c-.722.52-2.166 1.496-.858.615 2.56 4.06 5.152 8.104 7.723 12.159.162-.063.324-.128.485-.194-.371-1.84-.658-3.694-1.035-5.532-.314-1.533-.545-3.08-.858-4.612-.32-1.55-.565-3.112-.867-4.663z"/></g><path d="M18.41 50.514l-12.9 8.98" fill="none" opacity=".2" stroke="#000" stroke-linecap="round" stroke-linejoin="round" stroke-width="3"/><path d="M18.41 49.514l-12.9 8.98" fill="none" stroke="#db3d7f" stroke-linecap="round" stroke-linejoin="round" stroke-width="3"/><path d="M46.009 30.005c1.28 0 2.562.18 3.785.553.356 2.152.534 4.414-.196 6.514-.573 1.854-2.023 3.428-3.856 4.16-2.234.925-4.78.958-7.117.426-.301-1.347-.552-2.717-.516-4.102-.06-1.699.339-3.468 1.371-4.86 1.19-1.643 3.25-2.483 5.25-2.633.425-.039.852-.058 1.279-.058zm.026 1.772a9.355 9.355 0 0 0-2.042.178c-.293.12-.736.055-.942.297.937.362 1.739 1.118 1.999 2.087.317 1.015.003 2.176-.755 2.929-1.093 1.213-3.258 1.27-4.395.092.029.933.06 1.884.288 2.784.946.095 1.92.134 2.863-.016 1.723-.185 3.503-1.02 4.37-2.554.985-1.682.994-3.69.752-5.555-.278-.153-.603-.12-.908-.15a11.072 11.072 0 0 0-1.23-.092z" fill="#3f3f3f"/><g fill="none" stroke-linecap="round" stroke-linejoin="round" stroke-width="3"><path d="M26.41 50.514l-12.9 8.98" opacity=".2" stroke="#000"/><path d="M26.41 49.514l-12.9 8.98" stroke="#db3d7f"/><path d="M45.51 50.514l12.9 8.98" opacity=".2" stroke="#000"/><path d="M45.51 49.514l12.9 8.98" stroke="#db3d7f"/><path d="M37.51 50.514l12.9 8.98" opacity=".2" stroke="#000"/><path d="M37.51 49.514l12.9 8.98" stroke="#db3d7f"/></g></g></svg>