<svg width="256" height="256" version="1.1" viewBox="0 0 256 256" xmlns="http://www.w3.org/2000/svg"><title>deepin-calculator</title><defs><filter id="a" color-interpolation-filters="sRGB"><feFlood flood-color="#908B78" flood-opacity=".498" result="flood"/><feComposite in="flood" in2="SourceGraphic" operator="in" result="composite1"/><feGaussianBlur in="composite1" result="blur" stdDeviation="1.5"/><feOffset dx="0" dy="1.5" result="offset"/><feComposite in="SourceGraphic" in2="offset" result="composite2"/></filter></defs><g transform="translate(2.162 2.705) scale(2.6215)" fill-rule="evenodd" filter="url(#a)" stroke-width="1.379"><path d="M47.995 9.88c-3.437 8.424-5.51 13.934-9.336 22.108 2.346 2.487 4.666 4.95 9.343 8.22-5.028-2.07-7.898-3.713-10.461-5.868C32.644 44.557 24.97 59.11 9.4 87.08 21.639 80.017 30.16 75.662 39 74a22.393 22.393 0 0 1-.581-5.24l.013-.392c.195-7.839 5.324-14.364 10.068-14.375 4.745-.011 9.36 8.016 9.165 15.855a22.137 22.137 0 0 1-.493 4.21c8.745 1.71 17.357 6.053 29.429 13.022-2.38-4.382-4.505-8.331-6.534-12.093C76.872 72.51 74.1 69.89 67.3 66.4c4.674 1.214 7.457 2.012 10.066 3.578-20.628-38.4-22.3-43.503-29.374-60.1z" fill="#5f8dd3"/><path d="M47.995 8.5c-3.437 8.425-5.51 13.936-9.336 22.11 2.346 2.486 4.666 4.949 9.343 8.219-5.028-2.069-7.898-3.712-10.461-5.867C32.644 43.179 24.97 57.73 9.4 85.702 21.639 78.638 30.16 74.284 39 72.622a22.393 22.393 0 0 1-.581-5.241l.013-.392c.195-7.839 5.324-14.364 10.068-14.375 4.745-.01 9.36 8.016 9.165 15.855a22.137 22.137 0 0 1-.493 4.21c8.745 1.71 17.357 6.054 29.429 13.022-2.38-4.381-4.505-8.33-6.534-12.093-3.196-2.477-5.967-5.097-12.767-8.586 4.674 1.214 7.457 2.012 10.066 3.578-20.628-38.4-22.3-43.503-29.374-60.1z" fill="#1793d1"/><path d="M47.996 8.504c-3.436 8.424-5.512 13.934-9.338 22.106.139.147.284.295.423.442 3.537-7.638 5.62-13.091 8.915-21.168 6.939 16.279 8.787 21.691 28.326 58.136.354.182.7.375 1.045.582C56.74 30.207 55.07 25.099 47.996 8.506zM37.541 32.96c-4.897 10.217-12.57 24.77-28.14 52.74.385-.222.735-.418 1.112-.635C25.249 58.552 32.776 44.279 37.54 34.339c2.563 2.155 5.433 3.799 10.461 5.867a54.01 54.01 0 0 1-4.276-3.314c-2.551-1.267-4.467-2.487-6.185-3.932zM67.302 66.4c6.8 3.489 9.57 6.11 12.766 8.586 1.695 3.142 3.537 6.554 5.458 10.1.365.21.705.4 1.077.614-2.38-4.381-4.506-8.33-6.535-12.092-2.3-1.783-4.404-3.646-7.927-5.848-1.394-.438-2.932-.865-4.839-1.36zM38.44 68.254c-.001.037-.007.073-.008.11l-.014.393c-.01 1.356.106 2.67.318 3.92.088-.016.176-.042.264-.059a22.443 22.443 0 0 1-.56-4.364zm19.212.422a22.07 22.07 0 0 1-.48 4.001c.074.015.148.037.222.052.141-.931.25-1.887.274-2.884.01-.39-.002-.78-.016-1.169z" fill="#fff" opacity=".2"/></g></svg>