<svg width="256" height="256" version="1.1" viewBox="0 0 256 256" xmlns="http://www.w3.org/2000/svg"><title>deepin-multitasking-view</title><defs><filter id="a" color-interpolation-filters="sRGB"><feFlood flood-color="#908B78" flood-opacity=".498" result="flood"/><feComposite in="flood" in2="SourceGraphic" operator="in" result="composite1"/><feGaussianBlur in="composite1" result="blur" stdDeviation="1.5"/><feOffset dx="0" dy="1.5" result="offset"/><feComposite in="SourceGraphic" in2="offset" result="composite2"/></filter></defs><g transform="translate(-5.807 2.386) scale(2.6647)" filter="url(#a)" stroke-width="1.501"><circle cx="49.999" cy="47.127" r="42.031" fill="#f9548f"/><path d="M26.099 38.847c.318-.992.375-1.587.496-2.161-.876 1.141-.404 1.385-.496 2.161m1.619-6.884c.158 1.486-1.098 2.064.278 1.083.738-1.694-.288-.467-.278-1.083m24.04-13.015c.684-.255 1.682-.14 2.41-.308-.948.081-1.89.13-2.82.25l.41.058m22 27.761l-.149.381a18.581 18.581 0 0 1-1.765 5.734 18.313 18.313 0 0 0 1.914-6.115m-27.841 6.163c-.354-.397-.56-.874-.795-1.35.224.835.682 1.553 1.107 2.285l-.312-.932m-1.573.061l-.143.722c.666.921 1.195 1.92 2.044 2.637-.611-1.214-1.065-1.715-1.901-3.36m8.292-33.187l-.38.08.354-.033.026-.047m-1.078-.305c.541.098 1.169.174 1.078.306.594-.134.728-.254-1.078-.306m11.28 25.38c.123-1.856-.36-1.268-.521-.56.188.1.338 1.31.52.56m-2.005 5.318c.605-.848 1.044-1.776 1.2-2.735-.137.683-.5 1.273-.844 1.897-1.893 1.214-.179-.72-.001-1.457-2.035 2.61-.28 1.565-.355 2.295m-5.434 1.378c-1.013.013.19.53 1.512.738.367-.292.696-.584.992-.87-.821.206-1.659.21-2.504.132M26.103 38.847c.318-.992.375-1.587.496-2.161-.876 1.141-.404 1.385-.496 2.161m1.618-6.883c.158 1.486-1.098 2.064.278 1.083.739-1.694-.287-.468-.278-1.083m24.04-13.018c.683-.255 1.681-.14 2.41-.308-.948.08-1.89.129-2.821.25l.41.058M73.762 46.71l-.148.38a18.58 18.58 0 0 1-1.765 5.735 18.312 18.312 0 0 0 1.913-6.115M45.92 52.873c-.352-.398-.56-.875-.794-1.35.224.836.682 1.554 1.107 2.286l-.313-.936m-1.573.062l-.142.723c.666.92 1.194 1.919 2.043 2.637-.61-1.214-1.064-1.716-1.9-3.36m8.29-33.188l-.38.08.355-.032.026-.048m15.1 25.849c.057 1.56-.437 2.317-.883 3.657l-.802.415c-.656 1.326.065.842-.405 1.896-1.025.946-3.106 2.961-3.772 3.146-.487-.012.33-.598.436-.827-1.37.978-1.1 1.469-3.197 2.065l-.06-.143c-5.17 2.53-12.35-2.483-12.256-9.322-.054.434-.157.326-.27.5-.268-3.518 1.562-7.052 4.647-8.497 3.017-1.553 6.555-.916 8.715 1.18-1.187-1.617-3.55-3.331-6.35-3.173-2.743.047-5.31 1.86-6.166 3.829-1.405.92-1.568 3.547-2.18 4.028-.825 6.3 1.549 9.02 5.566 12.222.63.443.177.51.262.848-1.335-.65-2.556-1.63-3.56-2.832.533.812 1.108 1.6 1.852 2.22-1.259-.442-2.94-3.171-3.43-3.282 2.17 4.039 8.798 7.083 12.272 5.572-1.607.062-3.648.034-5.453-.66-.76-.405-1.79-1.245-1.605-1.402 4.738 1.84 9.632 1.393 13.731-2.025 1.044-.845 2.183-2.283 2.512-2.302-.495.776.085.373-.296 1.058 1.038-1.743-.452-.71 1.074-3.01l.563.807c-.21-1.449 1.729-3.205 1.531-5.494.445-.7.496.754.024 2.363.655-1.786.173-2.073.34-3.547.181.496.422 1.022.544 1.545-.427-1.726.436-2.906.65-3.91-.211-.097-.658.763-.76-1.275.015-.886.237-.464.322-.683-.166-.1-.605-.779-.871-2.08.192-.307.516.793.78.837-.17-1.034-.461-1.824-.474-2.618-.77-1.672-.272.223-.895-.718-.82-2.655.679-.616.78-1.822 1.24 1.869 1.947 4.767 2.273 5.966-.248-1.463-.649-2.88-1.138-4.252.378.166-.608-3.01.49-.907-1.176-4.482-5.016-8.67-8.55-10.635.433.411.98.927.784 1.009-1.76-1.088-1.45-1.174-1.702-1.633-1.432-.606-1.525.05-2.474.001-2.699-1.49-3.218-1.331-5.701-2.263l.113.55c-1.788-.62-2.083.233-4.015 0-.117-.094.62-.345 1.226-.436-1.729.237-1.648-.355-3.34.065.417-.304.859-.506 1.303-.764-1.41.089-3.366.853-2.762.157-2.299 1.068-6.383 2.566-8.674 4.8l-.072-.5c-1.05 1.31-4.579 3.915-4.86 5.615l-.281.067c-.546.963-.9 2.053-1.333 3.042-.714 1.267-1.048.488-.946.687-1.405 2.964-2.105 5.454-2.707 7.497.43.668.01 4.022.172 6.707-.705 13.26 8.947 26.133 19.496 29.103 1.547.576 3.846.555 5.802.612-2.307-.687-2.605-.363-4.854-1.178-1.621-.796-1.976-1.702-3.125-2.74l.454.836c-2.252-.83-1.31-1.026-3.143-1.63l.486-.658c-.726-.057-1.93-1.28-2.26-1.958l-.8.033c-.959-1.23-1.47-2.119-1.433-2.807l-.258.479c-.292-.523-3.531-4.62-1.851-3.666-.312-.296-.727-.482-1.177-1.333l.342-.406c-.808-1.083-1.488-2.47-1.436-2.932.431.605.73.719 1.027.823-2.042-5.27-2.157-.29-3.703-5.363l.327-.027c-.25-.395-.404-.82-.605-1.24l.143-1.474c-1.47-1.768-.41-7.517-.198-10.67.146-1.282 1.227-2.648 2.047-4.788l-.5-.09c.956-1.734 5.461-6.97 7.549-6.7 1.01-1.321-.202-.006-.4-.338 2.221-2.39 2.92-1.688 4.418-2.119 1.615-.997-1.387.39-.621-.38 2.794-.741 1.98-1.687 5.624-2.063.384.227-.892.351-1.212.646 2.327-1.185 7.365-.915 10.639.657 3.795 1.846 8.063 7.302 8.231 12.435l.192.054c-.097 2.04.3 4.4-.389 6.568l.466-1.027M51.562 19.445c.54.098 1.168.174 1.078.306.594-.134.727-.254-1.078-.306m11.282 25.384c.123-1.857-.359-1.27-.52-.562.188.101.338 1.31.52.562m-2.008 5.317c.605-.848 1.044-1.776 1.2-2.735-.137.683-.5 1.273-.844 1.897-1.892 1.214-.178-.72-.001-1.457-2.034 2.611-.28 1.565-.355 2.295m-5.433 1.38c-1.013.013.19.53 1.513.737.366-.291.696-.584.991-.87-.822.206-1.66.21-2.504.132" opacity=".2"/><path d="M26.099 37.346c.318-.992.375-1.587.496-2.161-.875 1.14-.402 1.385-.495 2.161m1.619-6.884c.157 1.487-1.098 2.064.277 1.083.74-1.694-.287-.467-.277-1.083m24.04-13.015c.683-.254 1.682-.14 2.41-.308-.948.081-1.89.13-2.821.25l.41.058M73.76 45.208l-.148.381a18.581 18.581 0 0 1-1.766 5.735 18.314 18.314 0 0 0 1.914-6.116m-27.842 6.164c-.354-.397-.56-.874-.794-1.351.224.835.682 1.554 1.107 2.285l-.313-.932m-1.573.062l-.142.722c.666.921 1.194 1.919 2.043 2.637-.61-1.214-1.064-1.716-1.9-3.36m8.292-33.188l-.38.081.354-.033.026-.048m-1.078-.305c.54.098 1.168.174 1.078.306.594-.133.727-.253-1.078-.306m11.279 25.381c.123-1.857-.359-1.269-.52-.561.188.1.337 1.31.52.561m-2.006 5.317c.605-.848 1.045-1.775 1.2-2.735-.136.684-.499 1.274-.843 1.897-1.893 1.214-.18-.72-.002-1.456-2.034 2.61-.28 1.565-.355 2.294M55.4 50.018c-1.012.014.19.53 1.513.738.367-.291.696-.584.991-.87-.822.206-1.66.21-2.504.132M26.104 37.346c.318-.991.375-1.586.496-2.161-.876 1.141-.404 1.385-.496 2.161m1.619-6.883c.157 1.487-1.098 2.064.277 1.083.74-1.694-.287-.467-.277-1.083m24.039-13.018c.683-.255 1.682-.14 2.41-.308-.948.08-1.89.13-2.821.25l.41.058m22.003 27.764l-.149.381a18.58 18.58 0 0 1-1.765 5.734 18.312 18.312 0 0 0 1.914-6.115m-27.842 6.163c-.353-.397-.56-.875-.795-1.35.224.836.682 1.554 1.107 2.286l-.312-.936m-1.573.062l-.143.723c.666.921 1.194 1.92 2.044 2.637-.612-1.214-1.065-1.716-1.901-3.36m8.291-33.188l-.38.081.354-.033.026-.048m15.1 25.85c.057 1.559-.437 2.316-.883 3.656l-.802.415c-.656 1.326.065.842-.405 1.896-1.025.947-3.106 2.962-3.772 3.146-.487-.011.33-.598.436-.827-1.37.979-1.1 1.47-3.197 2.065l-.06-.143c-5.17 2.53-12.35-2.483-12.255-9.321-.055.433-.157.325-.272.5-.266-3.519 1.563-7.053 4.648-8.497 3.018-1.553 6.555-.917 8.715 1.18-1.187-1.617-3.55-3.332-6.35-3.174-2.743.047-5.31 1.86-6.166 3.829-1.405.92-1.568 3.547-2.18 4.029-.825 6.299 1.55 9.019 5.566 12.222.63.442.177.51.262.847-1.334-.65-2.556-1.63-3.56-2.831.533.81 1.108 1.6 1.852 2.22-1.259-.443-2.94-3.172-3.43-3.283 2.17 4.039 8.798 7.083 12.272 5.572-1.607.062-3.648.035-5.452-.66-.76-.405-1.79-1.245-1.606-1.402 4.739 1.84 9.632 1.393 13.731-2.024 1.044-.846 2.183-2.283 2.513-2.303-.496.776.085.373-.296 1.058 1.037-1.743-.453-.71 1.073-3.01l.564.807c-.211-1.448 1.728-3.205 1.53-5.494.445-.7.496.754.024 2.364.655-1.786.173-2.073.341-3.548.18.496.42 1.022.543 1.545-.427-1.726.436-2.906.65-3.91-.211-.097-.657.763-.76-1.275.015-.886.237-.464.322-.682-.166-.1-.605-.78-.871-2.081.192-.307.516.793.78.838-.17-1.035-.461-1.824-.474-2.619-.769-1.671-.272.224-.895-.717-.819-2.656.679-.617.78-1.822 1.24 1.868 1.947 4.766 2.273 5.966-.248-1.464-.648-2.882-1.138-4.253.378.166-.607-3.01.49-.907-1.176-4.482-5.016-8.67-8.55-10.635.433.411.98.928.784 1.009-1.76-1.088-1.45-1.173-1.702-1.633-1.432-.606-1.525.05-2.474.001-2.699-1.49-3.218-1.331-5.701-2.263l.113.55c-1.788-.62-2.083.233-4.015.001-.117-.095.62-.346 1.226-.437-1.729.238-1.648-.355-3.34.065.417-.304.859-.506 1.303-.764-1.41.09-3.365.853-2.762.158-2.299 1.067-6.383 2.565-8.674 4.8l-.072-.5c-1.05 1.31-4.579 3.914-4.86 5.614l-.281.068c-.546.962-.9 2.052-1.333 3.041-.714 1.267-1.048.488-.946.687-1.405 2.964-2.105 5.454-2.707 7.497.43.668.01 4.023.172 6.707-.704 13.26 8.947 26.133 19.496 29.103 1.547.576 3.846.556 5.802.612-2.307-.686-2.605-.363-4.854-1.178-1.621-.795-1.976-1.702-3.125-2.74l.455.836c-2.253-.829-1.31-1.026-3.143-1.63l.485-.658c-.726-.057-1.93-1.279-2.26-1.957l-.8.032c-.959-1.23-1.47-2.119-1.433-2.807l-.258.479c-.292-.522-3.531-4.62-1.851-3.666-.312-.295-.727-.482-1.177-1.333l.342-.406c-.808-1.083-1.488-2.47-1.436-2.932.431.606.73.72 1.027.823-2.042-5.269-2.157-.29-3.703-5.363l.327-.027c-.25-.395-.404-.82-.605-1.239l.143-1.475c-1.469-1.768-.41-7.517-.198-10.67.146-1.282 1.227-2.648 2.047-4.788l-.5-.09c.956-1.734 5.461-6.969 7.549-6.7 1.01-1.32-.201-.005-.4-.337 2.222-2.39 2.92-1.689 4.418-2.12 1.615-.996-1.387.39-.621-.38 2.794-.741 1.98-1.687 5.624-2.063.384.227-.892.351-1.212.646 2.327-1.185 7.365-.914 10.639.657 3.795 1.847 8.063 7.303 8.231 12.435l.192.054c-.097 2.04.3 4.4-.389 6.568l.466-1.027M51.563 17.944c.54.098 1.168.174 1.078.306.594-.133.727-.253-1.078-.306m11.282 25.384c.123-1.857-.358-1.269-.52-.562.188.101.338 1.31.52.562m-2.008 5.317c.605-.848 1.044-1.776 1.2-2.735-.137.683-.5 1.273-.843 1.897-1.893 1.214-.18-.72-.002-1.457-2.034 2.611-.28 1.566-.355 2.295m-5.433 1.38c-1.013.014.19.53 1.513.737.366-.29.696-.583.991-.87-.822.206-1.66.21-2.504.133" fill="#fff"/><path d="M49.996 5.096A42.031 42.031 0 0 0 7.968 47.127a42.031 42.031 0 0 0 .026.739A42.031 42.031 0 0 1 49.995 6.598h.003a42.031 42.031 0 0 1 41.99 41.28 42.031 42.031 0 0 0 .038-.75A42.031 42.031 0 0 0 49.998 5.095h-.003z" fill="#fff" opacity=".2"/><path d="M50 4.885a42.031 42.031 0 0 1 41.988 41.28 42.031 42.031 0 0 0 .01-.17A42.031 42.031 0 0 0 50 4.884zm-2.478.088a42.031 42.031 0 0 0-2.303.237 42.031 42.031 0 0 1 2.303-.237zm-4.245.473a42.031 42.031 0 0 0-2.3.473 42.031 42.031 0 0 1 2.3-.473zm-4.08.87a42.031 42.031 0 0 0-2.38.745 42.031 42.031 0 0 1 2.38-.744zM35.223 7.59a42.031 42.031 0 0 0-2.42 1.032 42.031 42.031 0 0 1 2.42-1.032zM31.39 9.252a42.031 42.031 0 0 0-2.414 1.327 42.031 42.031 0 0 1 2.414-1.327zm-3.647 2.036a42.031 42.031 0 0 0-2.367 1.629 42.031 42.031 0 0 1 2.367-1.63zM24.31 13.68a42.031 42.031 0 0 0-2.243 1.899 42.031 42.031 0 0 1 2.243-1.899zM21.13 16.4a42.031 42.031 0 0 0-2.152 2.23 42.031 42.031 0 0 1 2.152-2.23zm-2.879 3.009a42.031 42.031 0 0 0-1.935 2.45 42.031 42.031 0 0 1 1.935-2.45zm-2.598 3.322a42.031 42.031 0 0 0-1.73 2.715 42.031 42.031 0 0 1 1.73-2.715zm-2.224 3.518a42.031 42.031 0 0 0-1.483 2.93 42.031 42.031 0 0 1 1.483-2.93zm-1.881 3.757a42.031 42.031 0 0 0-1.2 3.11 42.031 42.031 0 0 1 1.2-3.11zm-1.492 3.91a42.031 42.031 0 0 0-.893 3.253 42.031 42.031 0 0 1 .893-3.252zm-1.098 4.051a42.031 42.031 0 0 0-.574 3.383 42.031 42.031 0 0 1 .574-3.383zm-.688 4.13a42.031 42.031 0 0 0-.23 3.357 42.031 42.031 0 0 1 .23-3.358zm83.727 3.935A42.031 42.031 0 0 1 50 87.446 42.031 42.031 0 0 1 8 46.3a42.031 42.031 0 0 0-.03.615A42.031 42.031 0 0 0 50 88.946a42.031 42.031 0 0 0 42.03-42.03 42.031 42.031 0 0 0-.032-.885z" fill="#ff2a7f"/></g></svg>