<svg width="256" height="256" version="1.1" viewBox="0 0 256 256" xmlns="http://www.w3.org/2000/svg"><title>evince</title><defs><linearGradient id="b" x1="104.6" x2="104.6" y1="200.72" y2="3.22" gradientTransform="scale(1.0734 .93162)" gradientUnits="userSpaceOnUse"><stop stop-color="#E91A1A" offset="0"/><stop stop-color="#F77741" offset="1"/></linearGradient><filter id="a" color-interpolation-filters="sRGB"><feFlood flood-color="#000" flood-opacity=".4" result="flood"/><feComposite in="flood" in2="SourceGraphic" operator="in" result="composite1"/><feGaussianBlur in="composite1" result="blur" stdDeviation="5"/><feOffset dx="0" dy="5" result="offset"/><feComposite in="SourceGraphic" in2="offset" result="composite2"/></filter></defs><g transform="translate(21 30)" fill-rule="evenodd" filter="url(#a)"><path d="M212 93.5V10.667C212 4.776 207.224 0 201.333 0H10.663C4.772 0-.004 4.776-.004 10.667V93.5 13.667C-.004 7.776 4.772 3 10.663 3h190.67C207.224 3 212 7.776 212 13.667z" fill="#ffa672"/><path d="M212 96.5v82.833c0 5.891-4.776 10.667-10.667 10.667H10.663c-5.891 0-10.667-4.776-10.667-10.667V96.5v79.833c0 5.891 4.776 10.667 10.667 10.667h190.67c5.891 0 10.667-4.776 10.667-10.667z" fill="#c72e2c"/><rect y="3" width="212" height="184" rx="10.667" fill="url(#b)"/><path d="M56.095 135.89h.68l-16.799 10.469c-2.591 2.596-5.25 5.253-7.976 7.97l24.774-15.439h-.679c27.493 12.237 71.017 10.143 130.57-6.281v-15.62 12.62c-39.473 10.887-71.904 15.477-97.292 13.772-4.574.094-8.662-.373-12.266-1.404-7.817-1.302-14.822-3.331-21.013-6.087zm-5.869-2.969l-.799.797.108.036-1.096 1.104a57.902 57.902 0 0 1-3.369-2.25c-7.545-5.433-10.493-12.637-10.053-20.557.39 6.733 3.473 12.818 10.053 17.557a58.733 58.733 0 0 0 5.156 3.313zm8.858-8.832l.162-.164v.002zm5.1 6.476l.27.539 2.4-1.496c2.905-1.448 5.083-2.896 6.536-4.344 1.452-1.448 20.332-19.55 56.638-54.302 3.605-3.789 4.227-5.93 4.334-9.017.015.303.022.61.022.922 0 4.344 0 6.516-4.356 11.095-36.307 34.753-55.186 52.854-56.638 54.302-1.453 1.448-3.631 2.896-6.536 4.344l-.523.326a23.95 23.95 0 0 1-2.147-2.37zm50.227-67.502c-5.874-6.01-56.14 4.457-57.373 44.165-1.403-46.184 61.835-55.161 57.741-44.954a9 9 0 0 1-.368.79z" fill="#d73020"/><path d="M56.774 135.89L32 151.329a4578.75 4578.75 0 0 0 17.535-17.575l-.108-.036.8-.796a58.733 58.733 0 0 1-5.156-3.314C5.86 101.371 90.817 25.348 130.029 49.241c2.904 2.74 4.356 6.282 4.356 10.626 0 4.345 0 6.517-4.356 11.095-36.307 34.753-55.186 52.854-56.638 54.302-1.453 1.449-3.631 2.897-6.536 4.345l-2.4 1.495-.27-.539c9.436 11.91 28.205 12.995 56.306 3.254 12.107-4.196 34.166-15.013 66.176-32.448v28.237c-59.555 16.425-103.08 18.52-130.57 6.282zm2.31-11.801c34.776-35.344 53.341-55.949 55.695-61.816 4.357-10.86-67.53 0-56.637 54.302.475 2.369 1.102 4.561 1.882 6.577z" fill="#fff"/></g></svg>