<svg width="256" height="256" version="1.1" viewBox="0 0 256 256" xmlns="http://www.w3.org/2000/svg"><title>firefox-zh</title><defs><linearGradient id="b" x1="224.61" x2="264.1" y1="16.916" y2="60.608" gradientTransform="scale(.7689 1.3006)" gradientUnits="userSpaceOnUse"><stop stop-color="#F89B09" offset="0"/><stop stop-color="#FBDB00" offset="1"/></linearGradient><linearGradient id="c" x1="496.28" x2="496.28" y1="42.268" y2="55.371" gradientTransform="scale(.42268 2.3658)" gradientUnits="userSpaceOnUse"><stop stop-color="#F6901A" offset="0"/><stop stop-color="#FF5224" offset="1"/></linearGradient><linearGradient id="d" x1="219.16" x2="204.42" y1="145.34" y2="166.59" gradientTransform="scale(.91411 1.094)" gradientUnits="userSpaceOnUse"><stop stop-color="#F95828" offset="0"/><stop stop-color="#F02044" offset="1"/></linearGradient><linearGradient id="e" x1="94.985" x2="84.151" y1="345.68" y2="354.5" gradientTransform="scale(1.6717 .59818)" gradientUnits="userSpaceOnUse"><stop stop-color="#B21969" offset="0"/><stop stop-color="#8E123B" offset="1"/></linearGradient><linearGradient id="f" x1="139.28" x2="94.82" y1="30.099" y2="176.53" gradientUnits="userSpaceOnUse"><stop stop-color="#01A2FC" offset="0"/><stop stop-color="#441A7E" offset="1"/></linearGradient><linearGradient id="g" x1="36.049" x2="36.049" y1="20.846" y2="51.502" gradientTransform="scale(.81749 1.2233)" gradientUnits="userSpaceOnUse"><stop stop-color="#EF2545" offset="0"/><stop stop-color="#C01F49" offset="1"/></linearGradient><linearGradient id="h" x1="199.72" x2="218.42" y1="30.792" y2="114.91" gradientTransform="scale(.64825 1.5426)" gradientUnits="userSpaceOnUse"><stop stop-color="#191F78" stop-opacity="0" offset="0"/><stop stop-color="#20257B" offset="1"/></linearGradient><linearGradient id="i" x1="53.941" x2="108.96" y1="100.22" y2="78.994" gradientTransform="scale(.98255 1.0178)" gradientUnits="userSpaceOnUse"><stop stop-color="#282990" offset="0"/><stop stop-color="#272D98" stop-opacity="0" offset="1"/></linearGradient><linearGradient id="j" x1="171.72" x2="-30.285" y1=".761" y2="100.02" gradientTransform="scale(.97852 1.0219)" gradientUnits="userSpaceOnUse"><stop stop-color="#FEEA04" offset="0"/><stop stop-color="#FFE900" offset=".273"/><stop stop-color="#FF7916" offset=".461"/><stop stop-color="#FF282F" offset=".762"/><stop stop-color="#BF0573" offset="1"/></linearGradient><linearGradient id="k" x1="77.169" x2="61.546" y1="46.025" y2="65.824" gradientTransform="scale(1.1775 .84922)" gradientUnits="userSpaceOnUse"><stop stop-color="#F79C0F" offset="0"/><stop stop-color="#FF681C" offset="1"/></linearGradient><linearGradient id="l" x1="43.081" x2="99.182" y1="71.287" y2="71.287" gradientTransform="scale(.85131 1.1747)" gradientUnits="userSpaceOnUse"><stop stop-color="#FF372A" offset="0"/><stop stop-color="#FF8703" offset=".788"/><stop stop-color="#FCAA00" offset="1"/></linearGradient><linearGradient id="m" x1="80.493" x2="78.761" y1="195.8" y2="178.19" gradientTransform="scale(1.3027 .76763)" gradientUnits="userSpaceOnUse"><stop stop-color="#211B61" offset="0"/><stop stop-color="#222982" stop-opacity="0" offset="1"/></linearGradient><linearGradient id="n" x1="38.151" x2="90.159" y1="145.01" y2="182.62" gradientTransform="scale(1.3027 .76763)" gradientUnits="userSpaceOnUse"><stop stop-color="#D93A20" offset="0"/><stop stop-color="#FF4D1E" offset=".274"/><stop stop-color="#FF8703" offset=".535"/><stop stop-color="#FFBC01" offset="1"/></linearGradient><linearGradient id="o" x1="47.441" x2="73.35" y1="127.13" y2="174.6" gradientTransform="scale(1.1282 .88636)" gradientUnits="userSpaceOnUse"><stop stop-color="#E3311F" offset="0"/><stop stop-color="#F14719" offset=".5"/><stop stop-color="#EA2C16" offset="1"/></linearGradient><linearGradient id="p" x1="226.62" x2="173.09" y1="64.903" y2="141.5" gradientTransform="scale(.68899 1.4514)" gradientUnits="userSpaceOnUse"><stop stop-color="#FF9302" offset="0"/><stop stop-color="#FFCA00" offset=".317"/><stop stop-color="#FF7B16" offset=".765"/><stop stop-color="#FF5F1F" stop-opacity="0" offset="1"/></linearGradient><linearGradient id="q" x1="221.26" x2="289.23" y1="7.546" y2="108.98" gradientTransform="scale(.65756 1.5208)" gradientUnits="userSpaceOnUse"><stop stop-color="#FFF150" offset="0"/><stop stop-color="#FFEE4C" offset=".208"/><stop stop-color="#FFCD28" offset=".672"/><stop stop-color="#FF9601" offset="1"/></linearGradient><linearGradient id="r" x1="228.15" x2="266.57" y1="10.725" y2="123.79" gradientTransform="scale(.60793 1.6449)" gradientUnits="userSpaceOnUse"><stop stop-color="#FFEB02" offset="0"/><stop stop-color="#FFAC00" offset=".718"/><stop stop-color="#FF7417" offset="1"/></linearGradient><linearGradient id="s" x1="183.79" x2="160.97" y1="25.021" y2="3.166" gradientTransform="scale(.88181 1.134)" gradientUnits="userSpaceOnUse"><stop stop-color="#FFE900" offset="0"/><stop stop-color="#FFE309" offset="1"/></linearGradient><filter id="a" color-interpolation-filters="sRGB"><feFlood flood-color="#000" flood-opacity=".314" result="flood"/><feComposite in="flood" in2="SourceGraphic" operator="in" result="composite1"/><feGaussianBlur in="composite1" result="blur" stdDeviation="5"/><feOffset dx="0" dy="5" result="offset"/><feComposite in="SourceGraphic" in2="offset" result="composite2"/></filter></defs><g transform="translate(21 16)" fill-rule="evenodd" filter="url(#a)"><path d="M168.5 44c-2.333-8.333-1-15.667 4-22 3.087 6.96 5.587 11.959 7.5 15 11.048 17.563 19.854 30.709 22.5 40.5 3.333 12.333-8 1.167-34-33.5z" fill="url(#b)"/><path d="M207.5 106l5-6c.333 18-1.5 28.333-5.5 31" fill="url(#c)"/><path d="M200 159c-11.667 14.333-18 22-19 23-1.5 1.5 16-4 18-12.5 1.333-5.667 1.667-9.167 1-10.5z" fill="url(#d)"/><path d="M165 201.5L135.5 212c13.333.333 21.333-.833 24-3.5s4.5-5 5.5-7z" fill="url(#e)"/><circle cx="104.5" cy="114.5" r="94.5" fill="url(#f)"/><path d="M42 48c-9-8-12.5-15.5-10.5-22.5C21.167 36.167 16.333 48.667 17 63" fill="url(#g)"/><path d="M125 47.5c-6.333 14.333 1.667 29.667 24 46 13 26 7 48.833-18 68.5s-21.893 20.333 9.32 2c26.454-31 34.513-53.5 24.18-67.5" fill="url(#h)"/><path d="M105.5 74c3.333 3 1.333 7.5-6 13.5-8.333 4.667-13.167 7.167-14.5 7.5-2 .5-2 13-3.5 14s-7.5 4-11.5 8c-2.667 2.667-.333 7 7 13l-24-7.5 16.5-21 17-13.5z" fill="url(#i)"/><path d="M86 68c-3-1.5-7-4-7.5-9.5S56.5 39 32 50s-44 61-23 108.5S75 222 99 223s45.5.5 61-15c-5.333 2.667-12.833 4-22.5 4 9.52-3.239 16.322-5.71 20.406-7.412 26.377-10.993 40.241-23.522 41.594-37.588-2.227 3.722-4.227 6.389-6 8-1.894 1.722-5.394 3.889-10.5 6.5 12-13.667 20.333-26.167 25-37.5s6.167-26 4.5-44c-.348 8.384-.848 14.384-1.5 18s-1.985 7.783-4 12.5c1.818-13.816 2.484-23.316 2-28.5-.484-5.183-2.818-13.517-7-25-11.667-21.333-23.333-36-35-44-17-17-25.333-27.5-25-31.5a1.713 1.713 0 0 0-.014-.5c-.724-3.148-16.968 27.968-16.486 40.5.5 13 1 33 25.5 49 10 17 10.833 34.333 2.5 52-12.5 26.5-58 39.5-82 7.5-22.117-29.489.86-48.498 10-55 .778-.554.95-2.147 1.5-2.5s12.176-5.18 17.5-9.5c3.549-2.88 5.746-7.9 5.5-9.5-.617-4-17-4-20-5.5z" fill="url(#j)"/><path d="M65.5 49.5c10.333-9 20-12.167 29-9.5C83.5 49.333 78 56 78 60" fill="url(#k)"/><path d="M65.5 49c10.333-8.333 20-11.333 29-9C83.167 48.333 76.667 58.667 75 71c-.667 9 1.5 17 6.5 24-.667 7.667-1.5 11.833-2.5 12.5-2.667.333-7-.5-13-2.5-9-3-23.5 10.5-21.5 20.5 1.014 5.068-6.449-8.742-12.168-24.573-5.567-15.407 10.953-42.906 18.931-46.249C54.241 53.43 58.987 51.538 65.5 49z" fill="url(#l)"/><path d="M89 135c2 0 2.87-.312 4-.5 7.589-2.333 13.089-3.5 16.5-3.5 5.117 0 17 5.5 15.5 12.5-.333 1.333-2 2.5-4 2-2-.667-3.333-.833-4-.5-.13.065-.503.256-1.061.54-.668.427-2.458 1.327-5.371 2.7C105.6 150.7 99.3 153.7 97.5 154a16.08 16.08 0 0 0-.292.052c-3.328.965-6.898 1.448-10.708 1.448-.909 0-1.793-.02-2.654-.062a36.602 36.602 0 0 1-3.081-.247c-3.794-.436-7.049-1.333-9.765-2.691-8.184-3.035-13.517-5.369-16-7-8.58-5.636-9.95-10.302-10-10.5-.05-.199-5-16 3-22.5s14.296-5.8 23-3.5c1.54.407 2.11 1.784.018 2.352-5.252 1.426-6.925 4.642-5.018 9.648 2.63 6.906 10.005 12.095 22.5 14z" fill="url(#m)"/><path d="M89 132c2 0 2.87-.312 4-.5 7.589-2.333 13.089-3.5 16.5-3.5 5.117 0 17 5.5 15.5 12.5-.333 1.333-2 2.5-4 2-2-.667-3.333-.833-4-.5-.13.065-.503.256-1.061.54-.668.427-2.458 1.327-5.371 2.7C105.6 147.7 99.3 150.7 97.5 151a16.08 16.08 0 0 0-.292.052c-3.328.965-6.898 1.448-10.708 1.448-.909 0-1.793-.02-2.654-.062a36.602 36.602 0 0 1-3.081-.247c-3.794-.436-7.049-1.333-9.765-2.691-8.184-3.035-13.517-5.369-16-7-8.58-5.636-9.95-10.302-10-10.5-.05-.199-5-16 3-22.5s14.296-5.8 23-3.5c1.54.407 4.206.907 8 1.5-11.333 0-15.667 3.5-13 10.5 2.63 6.906 10.005 12.095 22.5 14z" fill="url(#n)"/><path transform="rotate(16 70.546 132.62)" d="M36.988 125.09c3.382-22.006 34.761-18.947 34.761-18.947-.922.923-25.33 18.039 1.49 37.543 9.747 7.088 41.624 16.673 27.75 15.45-13.875-1.223-69.073-1.32-64-34.047z" fill="url(#o)" fill-rule="nonzero"/><path d="M158.5 203.5c1.12-.688 10.16-14.046 12.5-15.5 8.667-27.333 10.833-48.833 6.5-64.5S163.667 97.667 151 91c24 30.333 19.833 63.5-14.5 101.5a453.423 453.423 0 0 0-3.731 4.179c-6.855 4.838-8.944 7.612-6.269 8.321 3.043.807 13.71.307 32-1.5z" fill="url(#p)"/><path d="M167 33c11.667 8 23.333 22.667 35 44 4.734 11.5 6.734 19.5 7 25s.5 13-2 28c2.015-4.718 3.114-8.384 3.766-12 .652-3.616 1.386-9.616 1.734-18 1.667 18 .167 32.667-4.5 44s-13 23.833-25 37.5c-1.575 1.566-3.05 2.934-4.734 4.5 12-78.5-3.5-76-30-105C130.6 61.667 128.344 35 141.5 1c.5-.5.5 0 .5.5-.115 4.11 8.212 14.712 25 31.5z" fill="url(#q)"/><path d="M141.5 1c-25.333 37.333-22.167 67.333 9.5 90 47.5 34 15.221 103.5 8 111s39.5-12 40.5-35c-4.333 6.333-9.833 11.167-16.5 14.5 12-47.667 5.667-79.167-19-94.5-24.667-15.333-32.167-44-22.5-86z" fill="url(#r)"/><path d="M165.85 31.85c.653.798 1.06 1.062.563.798C153.16 25.6 141.157 10.478 141.988 1c.937 4.691 8.871 14.971 23.862 30.85z" fill="url(#s)"/></g></svg>