<svg width="256px" height="256px" version="1.1" viewBox="0 0 256 256" xmlns="http://www.w3.org/2000/svg">
<title>foxitreader</title>
<desc>Created with Sketch.</desc>
<defs>
<linearGradient id="linearGradient-1" x1="84.865" x2="91.76" y1="22.468" y2="200.54" gradientTransform="matrix(.92977 .032468 -.037513 1.0742 4.0804 -4.1805)" gradientUnits="userSpaceOnUse">
<stop stop-color="#FF9E00" offset="0"/>
<stop stop-color="#FF5C11" offset="1"/>
</linearGradient>
<linearGradient id="linearGradient-2" x1="341.91" x2="341.91" y1="1.0619" y2="25.381" gradientTransform="matrix(.12081 .0042188 -.2887 8.2673 3.911 -1.3746)" gradientUnits="userSpaceOnUse">
<stop stop-color="#F07900" offset="0"/>
<stop stop-color="#F30101" offset="1"/>
</linearGradient>
<filter id="filter1071" color-interpolation-filters="sRGB">
<feFlood flood-color="rgb(0,0,0)" flood-opacity=".31373" result="flood"/>
<feComposite in="flood" in2="SourceGraphic" operator="in" result="composite1"/>
<feGaussianBlur in="composite1" result="blur" stdDeviation="3"/>
<feOffset dx="0" dy="3" result="offset"/>
<feComposite in="SourceGraphic" in2="offset" result="composite2"/>
</filter>
</defs>
<g filter="url(#filter1071)">
<g fill-rule="evenodd">
<path id="Mask" d="m44.581 9.9599 2.9246 1.1722 2.7236-0.43991 167.46 5.8478c7.1753 0.25057 12.789 6.2704 12.538 13.446l-6.9114 197.92c-0.25056 7.1753-6.2704 12.789-13.446 12.538l-177.26-6.1902c-4.4156-0.15419-7.8701-3.8587-7.7159-8.2743l7.1346-204.31c0.234-6.7009 5.8559-11.943 12.557-11.709z" fill="#ff5e00"/>
<path d="m47.228 10.164 2.7899 1.1394 2.5993-0.43022 159.2 5.5593c7.1753 0.25057 12.789 6.2704 12.538 13.446l-6.7063 192.04c-0.25056 7.1753-6.2704 12.789-13.446 12.538l-171.18-5.9779c-2.7597-0.0964-4.9188-2.4117-4.8225-5.1714l7.053-201.97c0.22329-6.3941 5.5877-11.396 11.982-11.173z" fill="#fff"/>
<path d="m44.521 8.513 2.8681 1.1702 3.4389-0.41493 154.4 0.78956c7.1796 0.03671 12.97 5.8867 12.933 13.066-8e-4 0.13752-4e-3 0.27503-8e-3 0.41247l-6.8774 186.55c-0.26446 7.1748-6.2953 12.777-13.47 12.512-0.01-3.7e-4 -0.0195-7.3e-4 -0.0292-1e-3l-166.9-6.5289c-0.74669-0.0291-1.4831 0.18132-2.1015 0.60079l-3.5489 2.4072 6.6795-198.79c0.22605-6.7282 5.8636-11.999 12.592-11.773 0.0054 1.815e-4 0.0107 3.628e-4 0.01606 5.498e-4z" fill="url(#linearGradient-1)"/>
<path id="Combined-Shape" d="m218.12 24.567 0.038-1.0299c5e-3 -0.13743 8e-3 -0.27495 8e-3 -0.41247 0.0367-7.1796-5.7537-13.03-12.933-13.066l-154.4-0.78956-3.4389 0.41493-2.8681-1.1702c-0.0054-1.884e-4 -0.0107-3.698e-4 -0.01606-5.498e-4 -6.7282-0.22605-12.366 5.0449-12.592 11.773l-6.6792 198.79 0.14124-0.0958 6.5756-195.7c0.22605-6.7282 5.8636-11.999 12.592-11.773 0.0054 1.82e-4 0.0107 3.64e-4 0.01606 5.51e-4l2.8681 1.1702 3.4389-0.41493 154.4 0.78956c6.6538 0.03402 12.114 5.061 12.849 11.512z" fill="#ffbd67"/>
<path d="m216.72 17.967c0.93489 1.8062 1.4585 3.859 1.4473 6.0338-8e-4 0.13752-4e-3 0.27503-8e-3 0.41247l-6.8778 186.55c-0.26446 7.1748-6.2953 12.777-13.47 12.512-0.01-3.7e-4 -0.0195-7.3e-4 -0.0292-1e-3l-166.9-6.5289c-0.74669-0.0291-1.4831 0.18132-2.1015 0.60079l-3.5489 2.4072 0.1288-3.8344 2.3135-1.5692c0.61841-0.41947 1.3548-0.63 2.1015-0.6008l166.9 6.5288c0.01 3.9e-4 0.0195 7.5e-4 0.0292 1e-3 7.1748 0.26445 13.206-5.3374 13.47-12.512l6.8774-186.55c5e-3 -0.13743 8e-3 -0.27495 8e-3 -0.41247 5e-3 -1.0452-0.11281-2.0623-0.34078-3.0373z" fill="#e51c1a"/>
</g>
<path id="Line" d="m44.858 10.346-7.06 202.17" fill="none" opacity=".5" stroke="url(#linearGradient-2)" stroke-linecap="square" stroke-width="3"/>
<path d="m142.27 160.76c-2.7992 2.6103-49.346 17.233-39.626-28.464 9.2475-32.173 33.401-25.914 38.81-25.725s18.65 8.7753 18.65 8.7753-2.0436-19.027-20.882-22.393c0 0 19.122-4.7483 39.721 25.759 0 0-1.3824-37.96-36.449-41.893-43.181-4.2159-63.342 30.284-63.342 30.284s-34.251 50.256 16.383 73.688c45.508 15.129 62.775-14.056 62.775-14.056s14.185-18.461 1.5112-43.275c0 0-0.28336 8.1141-5.7872 10.63 0 0 0.28335-8.1141-7.7363-11.102 0 0 1.7602 27.142-27.897 23.398 0 0 7.6419 13.807 23.87 14.374z" fill="#fff"/>
<path d="m120.64 147.48c-1.5288-1.8783-2.2787-3.2332-2.2787-3.2332 29.657 3.7437 27.897-23.398 27.897-23.398 8.0197 2.9881 7.7363 11.102 7.7363 11.102 5.5039-2.5158 5.7872-10.63 5.7872-10.63 4.1268 8.0803 5.4058 15.487 5.254 21.802-0.27406-5.616-1.7274-11.966-5.2167-18.798 0 0-0.28335 8.1141-5.7872 10.63 0 0 0.28335-8.1141-7.7363-11.102 0 0 1.6702 25.754-25.656 23.628zm-52.804-5.266c-0.89514-19.39 11.277-37.25 11.277-37.25s20.161-34.5 63.342-30.284c35.067 3.9326 36.449 41.893 36.449 41.893-0.10408-0.15415-0.20813-0.30741-0.31213-0.45976-1.3243-9.4566-7.5419-35.227-36.1-38.43-43.181-4.2159-63.342 30.284-63.342 30.284s-10.942 16.055-11.314 34.246zm80.678-47.827c10.237 6.5829 11.552 18.821 11.552 18.821s-0.24792-0.16079-0.68979-0.43883c-1.5803-5.6445-6.3734-16.489-20.155-18.951 0 0 3.5727-0.88716 9.2931 0.56927zm-47.19 49.101c-0.85359 32.986 38.382 20.526 40.945 18.137-1.9785-0.0691-3.8294-0.33499-5.5544-0.74866-10.962 3.1977-34.159 5.6468-35.391-17.388z" fill="#ea7221"/>
<text id="PDF-READER" transform="rotate(1)" x="0.63281989" y="-2.2271407" fill="#ffffff" fill-rule="evenodd" font-family="SourceHanSansSC-Medium, 'Source Han Sans SC'" font-size="15px" font-weight="400"><tspan x="83.158928" y="41.143417">PDF READER</tspan></text>
</g>
</svg>
