<svg width="256" height="256" version="1.1" viewBox="0 0 256 256" xmlns="http://www.w3.org/2000/svg" xmlns:xlink="http://www.w3.org/1999/xlink"><title>gimp</title><defs><radialGradient id="b" cx="122.98" cy="94.544" r="86.738" gradientTransform="scale(1.1026 .90691)" gradientUnits="userSpaceOnUse"><stop stop-color="#DEE0F2" offset="0"/><stop stop-color="#3B3A4C" offset="1"/></radialGradient><linearGradient id="c" x1="40.795" x2="36.168" y1="67.172" y2="107.03" gradientTransform="scale(.87423 1.1439)" gradientUnits="userSpaceOnUse"><stop stop-color="#757681" offset="0"/><stop stop-color="#41414A" stop-opacity="0" offset="1"/></linearGradient><linearGradient id="d" x1="30.109" x2="33.521" y1="76.835" y2="98.732" gradientTransform="scale(1.0016 .99845)" gradientUnits="userSpaceOnUse"><stop stop-color="#fff" offset="0"/><stop stop-color="#fff" stop-opacity=".318" offset="1"/></linearGradient><linearGradient id="e" x1="399.94" x2="407.82" y1="27.807" y2="36.985" gradientTransform="scale(.52474 1.9057)" gradientUnits="userSpaceOnUse"><stop stop-color="#4C495E" offset="0"/><stop stop-color="#252330" offset="1"/></linearGradient><linearGradient id="f" x1="416.56" x2="387.68" y1="4.557" y2="34.1" gradientTransform="scale(.53864 1.8565)" gradientUnits="userSpaceOnUse"><stop stop-color="#C1C2E1" stop-opacity=".105" offset="0"/><stop stop-color="#676779" offset="1"/></linearGradient><path id="g" d="M244.43 218.61c-23.581-10.265-32.492-22.763-26.731-37.496 5.594-9.746 21.201-.659 21.657 11.452.68 7.948 2.372 16.629 5.075 26.045z"/><linearGradient id="i" x1="285.04" x2="303.1" y1="141.99" y2="166.24" gradientTransform="scale(.77903 1.2837)" gradientUnits="userSpaceOnUse"><stop stop-color="#fff" stop-opacity=".104" offset="0"/><stop stop-color="#fff" stop-opacity=".069" offset="1"/></linearGradient><path id="h" d="M229.06 210.19c4.14 2.958 9.262 5.766 15.37 8.425-2.468-8.6-4.093-16.588-4.875-23.964-5.547-8.71-10.035-14.554-13.464-17.535-2.56-.383-5.029.2-6.913 2.06.252.48.548.996.888 1.55 3.534 15.43 6.532 25.252 8.994 29.464z"/><linearGradient id="k" x1="299.62" x2="313.98" y1="133.49" y2="154.04" gradientTransform="scale(.74535 1.3417)" gradientUnits="userSpaceOnUse"><stop stop-color="#fff" stop-opacity=".2" offset="0"/><stop stop-color="#fff" stop-opacity="0" offset="1"/></linearGradient><path id="j" d="M219.76 178.65c1.694-1.361 3.772-1.827 5.935-1.586 9.06 18.165 12.281 27.98 9.665 29.443-2.72 1.522-7.921-7.763-15.6-27.857z"/><linearGradient id="m" x1="346.91" x2="359" y1="115.95" y2="133.25" gradientTransform="scale(.64758 1.5442)" gradientUnits="userSpaceOnUse"><stop stop-color="#fff" stop-opacity=".275" offset="0"/><stop stop-color="#fff" stop-opacity="0" offset="1"/></linearGradient><path id="l" d="M222.36 177.31a8.074 8.074 0 0 1 1.706-.288c7.312 17.366 10.628 26.877 9.947 28.532-.713 1.733-4.702-7.243-11.967-26.928l.314-1.316z"/><linearGradient id="n" x1="511.05" x2="478.61" y1="52.915" y2="52.915" gradientTransform="scale(.37868 2.6407)" gradientUnits="userSpaceOnUse"><stop stop-color="#FF4900" offset="0"/><stop stop-color="#FFD052" offset=".492"/><stop stop-color="#FF3800" offset="1"/></linearGradient><linearGradient id="o" x1="196.9" x2="187.16" y1="166.44" y2="176.94" gradientTransform="scale(1.0649 .93907)" gradientUnits="userSpaceOnUse"><stop stop-color="#fff" stop-opacity="0" offset="0"/><stop stop-color="#fff" offset="1"/></linearGradient><filter id="a" color-interpolation-filters="sRGB"><feFlood flood-color="#000" flood-opacity=".137" result="flood"/><feComposite in="flood" in2="SourceGraphic" operator="in" result="composite1"/><feGaussianBlur in="composite1" result="blur" stdDeviation="4"/><feOffset dx="0" dy="4" result="offset"/><feComposite in="SourceGraphic" in2="offset" result="fbSourceGraphic"/><feColorMatrix in="fbSourceGraphic" result="fbSourceGraphicAlpha" values="0 0 0 -1 0 0 0 0 -1 0 0 0 0 -1 0 0 0 0 1 0"/><feFlood flood-color="#000" flood-opacity=".196" in="fbSourceGraphic" result="flood"/><feComposite in="flood" in2="fbSourceGraphic" operator="in" result="composite1"/><feGaussianBlur in="composite1" result="blur" stdDeviation="4"/><feOffset dx="0" dy="4" result="offset"/><feComposite in="fbSourceGraphic" in2="offset" result="composite2"/></filter></defs><g transform="translate(2 20)" fill="none" fill-rule="evenodd" filter="url(#a)"><path d="M66.185 27.524c14.621 28.63 41.773 39.562 81.458 32.795 59.527-10.151 71.038-64.443 75.976-54.658 4.937 9.785 14.099 119.47-37.596 149.92-34.463 20.302-77.542 13.534-129.24-20.302-19.32-11.452-28.197-20.562-26.631-27.329 20.887-8.329 32.113-14.836 33.68-19.521 1.566-4.685 2.35-24.986 2.35-60.905z" fill="url(#b)"/><path d="M113.18 135.77c17.609 1.406 32.309-1.95 44.1-10.07.568-.592-1.664-2.346-6.695-5.261 15.027 5.08 11.93 10.809-9.287 17.184-8.037 2.022-17.41 1.405-28.119-1.853z" fill="#252330"/><ellipse transform="rotate(-29 38.262 101.9)" cx="38.262" cy="101.9" rx="25.064" ry="32.795" fill="#252330"/><ellipse transform="rotate(-29 35.664 96.529)" cx="35.664" cy="96.529" rx="15.051" ry="19.693" fill="url(#c)"/><ellipse cx="139.03" cy="77.497" rx="30.547" ry="30.452" fill="#fff"/><ellipse cx="146.08" cy="84.525" rx="12.532" ry="12.493" fill="#424b4e"/><ellipse cx="146.86" cy="85.305" rx="7.049" ry="7.027" fill="#171717"/><ellipse cx="83.416" cy="79.84" rx="20.365" ry="20.302" fill="#fff"/><ellipse cx="85.766" cy="85.305" rx="10.182" ry="10.151" fill="#424b4e"/><ellipse cx="86.403" cy="85.94" rx="5.728" ry="5.71" fill="#171717"/><ellipse cx="30.155" cy="87.648" rx="10.966" ry="10.932" fill="url(#d)"/><path d="M204.94 63.818c11.024-37.14 17.027-56.806 18.009-58.997 1.473-3.287-13.283 64.435-15.151 65.525-1.245.727-2.198-1.45-2.858-6.528z" fill="url(#e)"/><path d="M205.36 67.369c-1.8-4.116 9.626-26.604 17.866-63.747.305-1.377.756-2.27 1.145-3.426-14.047 41.671-21.513 61.453-19.01 67.172z" fill="url(#f)" fill-rule="nonzero"/><use width="100%" height="100%" fill="#252330" xlink:href="#g"/><use width="100%" height="100%" fill="url(#i)" xlink:href="#h"/><use width="100%" height="100%" fill="url(#k)" xlink:href="#j"/><use width="100%" height="100%" fill="url(#m)" xlink:href="#l"/><path transform="rotate(-52 187.38 155.94)" d="M181.26 113.28c-.205-.263 1.096-.222 3.903.123 4.211.517 8.048 1.367 8.302 35.802.17 22.957-.036 39.478-.617 49.563l-10.528-1.293c-.425-22.427-.622-39.193-.592-50.298.03-11.105-.126-22.405-.468-33.897z" fill="url(#n)"/><path d="M196.07 154.93c12.878 10.041 22.356 17.731 28.434 23.07l-7.5 7.5c-11.346-8.523-20.851-15.723-28.514-21.601 2.704-3.202 5.23-6.191 7.58-8.97z" fill="#d8d8d8"/><path d="M197.82 156.3c11.989 9.374 20.883 16.608 26.681 21.701l-4.449 4.449c-16.172-11.931-24.503-18.646-24.994-20.145-.794-2.425.778-4.43 2.761-6.006z" fill="url(#o)"/></g></svg>