<svg width="256" height="256" version="1.1" viewBox="0 0 256 256" xmlns="http://www.w3.org/2000/svg" xmlns:xlink="http://www.w3.org/1999/xlink"><title>deepin-multitasking-view</title><defs><linearGradient id="c" x1="6.901" x2="6.901" y1="1" y2="15" gradientTransform="translate(-1.714 -1.714) scale(1.7144)" gradientUnits="userSpaceOnUse" xlink:href="#a"/><linearGradient id="a" x1="6.901" x2="6.901" y1="1" y2="15" gradientTransform="translate(-1.714 -1.714) scale(1.7144)" gradientUnits="userSpaceOnUse"><stop stop-color="#30FFAF" offset="0"/><stop stop-color="#08C5FF" offset="1"/></linearGradient><linearGradient id="d" x1="6.901" x2="6.901" y1="1" y2="15" gradientTransform="translate(-.024 -.05) scale(2.0001)" gradientUnits="userSpaceOnUse" xlink:href="#a"/><filter id="b" color-interpolation-filters="sRGB"><feFlood flood-color="#908B78" flood-opacity=".498" result="flood"/><feComposite in="flood" in2="SourceGraphic" operator="in" result="composite1"/><feGaussianBlur in="composite1" result="blur" stdDeviation=".5"/><feOffset dx="0" dy=".5" result="offset"/><feComposite in="SourceGraphic" in2="offset" result="composite2"/></filter></defs><g transform="translate(-.198 .454) scale(7.9998)" filter="url(#b)"><g transform="translate(1.976 2.95) scale(1.1667)" opacity=".2"><circle cx="12" cy="12" r="12" fill="url(#c)" fill-rule="evenodd" stroke-width="1.5"/><path d="M14.384 11.827l-.873-.843a1.163 1.163 0 0 0-.35-.232 26.243 26.243 0 0 1-.16-.158l1.318-1.413c.25-.269.367-.63.32-.988a2.361 2.361 0 0 1-.02-.406 2.353 2.353 0 0 1-.004-.06c-.071-1.307.97-2.422 2.325-2.49a2.502 2.502 0 0 1 1.82.648l-1.17.217c-.672.124-1.111.744-.98 1.384l.002.012c.13.64.782 1.058 1.454.934l1.387-.257c-.253.986-1.15 1.74-2.256 1.795a2.416 2.416 0 0 1-.159.003c-.11.012-.222.016-.334.014a1.307 1.307 0 0 0-.985.41zm-2.243 2.404l-3.356 3.596c.01.068.015.118.017.153.043.797-.59 1.476-1.417 1.518-.827.041-1.53-.57-1.574-1.367-.043-.798.592-1.477 1.417-1.518.035-.002.088-.002.157 0l3.564-3.82c.045.106.108.206.187.295zm-4.257 3.287l-.8-.172-.564.577.235.748.8.17.564-.576zm5.156-6.092l6.138 5.928c.418.404.43 1.076.032 1.496-.122.11-.422.355-.422.355a1.136 1.136 0 0 1-1.53-.141l-5.615-6.38a.488.488 0 0 1-.117-.253c-.168-.205-.821-.97-2.168-2.25-1.591-1.513-1.863-.75-2.157-.498-.294.251-.264.484-.264.484a.808.808 0 0 1-.244.43l-.47.378c-.043.02-.86-.821-1.118-1.1-.223-.239-.578-.718-.578-.718a.148.148 0 0 1 .012-.185s.434-.476.595-.485c.471-.028.69-.07.921-.41.231-.341.232-.609.36-.806.086-.13.8-.981 1.845-1.577 2.004-1.142 3.558-1.213 3.88-1.191l1.51.1-.782.744c-.065.023-.17.054-.236.07 0 0-.954.204-1.71.735-.757.532-.963 1.444-.385 2.518.34.63.56.847 1.025 1.355a29.58 29.58 0 0 0 1.233 1.271c.09.02.176.063.245.13z" fill="#fff"/></g><circle cx="15.977" cy="15.95" r="14" fill="url(#d)" fill-rule="evenodd" stroke-width="1.75"/><path d="M18.758 15.748l-1.018-.983a1.357 1.357 0 0 0-.408-.271l-.188-.185 1.538-1.648c.292-.313.429-.735.372-1.153a2.754 2.754 0 0 1-.022-.473 2.67 2.67 0 0 1-.005-.07C18.944 9.44 20.16 8.14 21.74 8.06a2.92 2.92 0 0 1 2.124.757l-1.365.253c-.785.145-1.297.868-1.145 1.615l.003.014c.153.747.912 1.235 1.697 1.09l1.618-.3c-.296 1.15-1.342 2.029-2.632 2.094a2.807 2.807 0 0 1-.186.004 3.06 3.06 0 0 1-.39.015 1.525 1.525 0 0 0-1.149.478zm-2.616 2.804l-3.916 4.197c.01.078.017.137.02.177.05.93-.689 1.722-1.654 1.771-.964.049-1.785-.664-1.836-1.595-.05-.93.69-1.722 1.653-1.77.042-.003.103-.003.184 0l4.157-4.457c.053.124.126.24.218.344zm-4.967 3.835l-.933-.2-.66.673.275.872.933.2.66-.673zm6.015-7.106l7.161 6.916c.488.47.5 1.255.037 1.744-.142.128-.493.414-.493.414a1.325 1.325 0 0 1-1.783-.164l-6.552-7.444a.57.57 0 0 1-.136-.294c-.197-.239-.958-1.131-2.53-2.626-1.856-1.765-2.173-.874-2.516-.58-.343.293-.308.565-.308.565a.942.942 0 0 1-.285.5l-.548.442c-.05.024-1.003-.958-1.305-1.283-.26-.28-.674-.838-.674-.838a.172.172 0 0 1 .014-.215s.507-.556.694-.567c.55-.032.805-.082 1.075-.479.27-.397.27-.71.42-.94.1-.152.933-1.144 2.152-1.839 2.338-1.333 4.151-1.415 4.528-1.39l1.76.117-.912.868a3.62 3.62 0 0 1-.275.081s-1.113.239-1.995.859c-.883.62-1.124 1.684-.45 2.937.396.734.655.988 1.196 1.581a34.542 34.542 0 0 0 1.439 1.483.59.59 0 0 1 .286.151z" fill="#fff" stroke-width="1.167"/><path d="M18.758 17.023l-1.018-.983a1.357 1.357 0 0 0-.408-.271l-.188-.185 1.538-1.648c.292-.313.429-.735.372-1.153a2.754 2.754 0 0 1-.022-.473 2.67 2.67 0 0 1-.005-.07c-.083-1.525 1.132-2.826 2.713-2.906a2.92 2.92 0 0 1 2.124.757l-1.365.253c-.785.145-1.297.868-1.145 1.615l.003.014c.153.747.912 1.234 1.697 1.09l1.618-.3c-.296 1.15-1.342 2.029-2.632 2.094a2.807 2.807 0 0 1-.186.004 3.06 3.06 0 0 1-.39.015 1.525 1.525 0 0 0-1.149.478zm-2.616 2.804l-3.916 4.197c.01.078.017.137.02.177.05.93-.689 1.722-1.654 1.771-.964.049-1.785-.664-1.836-1.595-.05-.93.69-1.722 1.653-1.77.042-.003.103-.003.184 0l4.157-4.457c.053.124.126.24.218.344zm-4.967 3.835l-.933-.2-.66.673.275.872.933.2.66-.673zm6.015-7.106l7.161 6.916c.488.47.5 1.255.037 1.744-.142.128-.493.414-.493.414a1.325 1.325 0 0 1-1.783-.164l-6.552-7.444a.57.57 0 0 1-.136-.294c-.197-.239-.958-1.131-2.53-2.626-1.856-1.765-2.173-.874-2.516-.58-.343.293-.308.565-.308.565a.942.942 0 0 1-.285.5l-.548.442c-.05.024-1.003-.958-1.305-1.283-.26-.28-.674-.838-.674-.838a.172.172 0 0 1 .014-.215s.507-.556.694-.567c.55-.032.805-.082 1.075-.479.27-.397.27-.71.42-.94.1-.152.933-1.144 2.152-1.839 2.338-1.333 4.151-1.415 4.528-1.39l1.76.117-.912.868a3.62 3.62 0 0 1-.275.081s-1.113.239-1.995.859c-.883.62-1.124 1.684-.45 2.937.396.734.655.988 1.196 1.581a34.542 34.542 0 0 0 1.439 1.483.59.59 0 0 1 .286.151z" fill="#fff" opacity=".2" stroke-width="1.167"/></g></svg>