<?xml version="1.0" encoding="UTF-8"?>
<svg width="256" height="256" version="1.1" viewBox="0 0 256 256" xmlns="http://www.w3.org/2000/svg" xmlns:cc="http://creativecommons.org/ns#" xmlns:dc="http://purl.org/dc/elements/1.1/" xmlns:rdf="http://www.w3.org/1999/02/22-rdf-syntax-ns#">
 <metadata>
  <rdf:RDF>
   <cc:Work rdf:about="">
    <dc:format>image/svg+xml</dc:format>
    <dc:type rdf:resource="http://purl.org/dc/dcmitype/StillImage"/>
    <dc:title>deepin-multitasking-view</dc:title>
   </cc:Work>
  </rdf:RDF>
 </metadata>
 <title>deepin-multitasking-view</title>
 <defs>
  <filter id="filter844" color-interpolation-filters="sRGB">
   <feFlood flood-color="rgb(0,0,0)" flood-opacity=".19608" result="flood"/>
   <feComposite in="flood" in2="SourceGraphic" operator="in" result="composite1"/>
   <feGaussianBlur in="composite1" result="blur" stdDeviation="1"/>
   <feOffset dx="0" dy="1" result="offset"/>
   <feComposite in="SourceGraphic" in2="offset" result="composite2"/>
  </filter>
 </defs>
 <g transform="matrix(5.0885 0 0 5.0885 5.0535 9.6258)" filter="url(#filter844)">
  <ellipse cx="24" cy="23.021" rx="17.852" ry="18.03" fill="#343535"/>
  <g fill="#585959">
   <path d="m22.456 2.498c-0.741 1.681-0.924 2.404-0.964 2.629-0.01 0.058 0.038 0.05 0.095 0.064l1.129 0.263a5.868 5.868 0 0 0 2.669-3e-3l1.171-0.275s0.358 0.14-1.054-2.706c-1.631-3.289-3.046 0.028-3.046 0.028zm4.001 38.341-1.129-0.263a5.868 5.868 0 0 0-2.669 3e-3l-1.171 0.275s-0.358-0.14 1.054 2.706c1.631 3.288 3.045-0.03 3.045-0.03 0.741-1.681 0.924-2.404 0.964-2.629 0.011-0.056-0.037-0.048-0.094-0.062zm-19.039-24.556c0.045 0.038 0.062-8e-3 0.102-0.051l0.79-0.857a5.98 5.98 0 0 0 1.331-2.336l0.349-1.162s0.299-0.243-2.847-0.431c-3.635-0.217-1.497 2.679-1.497 2.679 1.071 1.489 1.599 2.011 1.772 2.158zm34.979 15.621c-1.071-1.488-1.599-2.01-1.772-2.158-0.045-0.038-0.062 8e-3 -0.102 0.051l-0.79 0.857a5.98 5.98 0 0 0-1.331 2.336l-0.349 1.162s-0.299 0.243 2.847 0.431c3.635 0.217 1.497-2.679 1.497-2.679zm-32.782 1.034a5.982 5.982 0 0 0-1.337-2.332l-0.821-0.886s-0.059-0.383-1.793 2.275c-2.004 3.07 1.548 2.649 1.548 2.649 1.812-0.192 2.523-0.394 2.736-0.471 0.055-0.02 0.024-0.058 7e-3 -0.115zm28.813-19.846c0.264 0.87 0.721 1.668 1.337 2.332l0.821 0.886s0.059 0.383 1.793-2.275c2.004-3.07-1.548-2.649-1.548-2.649-1.812 0.193-2.523 0.394-2.736 0.471-0.055 0.02-0.024 0.058-7e-3 0.115zm-19.429 0.913c1.004-0.586 1.769-1.147 1.079-2.354-0.471-0.824-2.623-2.688-3.627-2.103-1.004 0.586-0.471 3.417-0.01 4.224 0.641 1.121 1.554 0.819 2.558 0.233zm-5.832 6.937c-0.942 0-3.617 0.95-3.617 2.121s2.695 2.121 3.617 2.121c1.282 0 1.479-0.95 1.479-2.121s-0.098-2.121-1.479-2.121zm21.666 0c-1.282 0-1.479 0.95-1.479 2.121s0.099 2.121 1.479 2.121c0.942 0 3.617-0.95 3.617-2.121s-2.695-2.121-3.617-2.121zm-5.77 10.114c-1.004 0.586-1.769 1.147-1.079 2.354 0.471 0.824 2.623 2.688 3.627 2.103 1.004-0.586 0.471-3.417 0.01-4.224-0.64-1.12-1.553-0.818-2.558-0.233zm-0.016-17.06c1.008 0.588 1.876 0.978 2.569-0.234 0.473-0.828 0.998-3.653-0.01-4.241-1.009-0.588-3.179 1.302-3.642 2.111-0.644 1.126 0.075 1.776 1.083 2.364zm-10.032 17.069c-1.008-0.588-1.876-0.978-2.569 0.234-0.473 0.828-0.998 3.653 0.01 4.241s3.179-1.302 3.642-2.111c0.644-1.126-0.075-1.776-1.083-2.364z"/>
   <ellipse cx="24" cy="23" rx="2.479" ry="2.504"/>
  </g>
 </g>
</svg>
