<svg width="256" height="256" version="1.1" viewBox="0 0 256 256" xmlns="http://www.w3.org/2000/svg"><title>chrome-256px</title><defs><linearGradient id="b" x1="111.16" x2="111.16" y1="19.262" y2="182.8" gradientTransform="scale(1.1862 .843)" gradientUnits="userSpaceOnUse"><stop stop-color="#F7503B" offset="0"/><stop stop-color="#F34735" offset=".217"/><stop stop-color="#E72F25" offset=".572"/><stop stop-color="#D5090D" offset="1"/></linearGradient><linearGradient id="c" x1="99.427" x2="99.427" y1="62.711" y2="228.06" gradientTransform="scale(.95035 1.0522)" gradientUnits="userSpaceOnUse"><stop stop-color="#35C230" offset="0"/><stop stop-color="#34BE30" offset=".348"/><stop stop-color="#31B331" offset=".681"/><stop stop-color="#2CA032" offset="1"/></linearGradient><linearGradient id="d" x1="128" x2="128" y1="91.236" y2="168" gradientUnits="userSpaceOnUse"><stop stop-color="#31B2FF" offset="0"/><stop stop-color="#1E79FF" offset="1"/></linearGradient><linearGradient id="e" x1="128" x2="128" y1="92.001" y2="164" gradientUnits="userSpaceOnUse"><stop stop-color="#47BAFF" offset="0"/><stop stop-color="#3D8BFF" offset="1"/></linearGradient><linearGradient id="f" x1="128" x2="128" y1="16" y2="240" gradientUnits="userSpaceOnUse"><stop stop-color="#fff" offset="0"/><stop stop-color="#515151" offset="1"/></linearGradient><filter id="a" color-interpolation-filters="sRGB"><feFlood flood-color="#000" flood-opacity=".235" result="flood"/><feComposite in="flood" in2="SourceGraphic" operator="in" result="composite1"/><feGaussianBlur in="composite1" result="blur" stdDeviation="5"/><feOffset dx="0" dy="5" result="offset"/><feComposite in="SourceGraphic" in2="offset" result="composite2"/></filter></defs><g filter="url(#a)"><g fill-rule="evenodd"><path d="M228.85 78.683C210.525 41.691 172.338 16.24 128.19 16.24c-38.661 0-73.131 20.075-93.323 49.749l51.563 88.107z" fill="url(#b)"/><path d="M120.69 239.97c41.259 2.853 81.691-17.685 103.95-55.728 19.488-33.307 19.717-73.205 4.208-105.56l-101.37-.213z" fill="#ffcf00"/><path d="M86.432 154.1L34.869 65.993c-11.963 17.803-18.944 39.216-18.944 62.256 0 59.344 46.267 107.88 104.77 111.73l52.368-89.221z" fill="url(#c)"/><path d="M128 184c-28.673 0-52-23.332-52-52.005S99.327 80 128 80c28.668 0 52 23.322 52 51.995S156.668 184 128 184z" opacity=".099"/><path d="M128 180c-28.673 0-52-23.332-52-52.005S99.327 76 128 76c28.668 0 52 23.322 52 51.995S156.668 180 128 180z" fill="#f8f8f8"/><path d="M76.038 129.99a52.666 52.666 0 0 1-.038-2c0-28.673 23.327-51.995 52-51.995 28.668 0 52 23.322 52 51.995 0 .67-.013 1.336-.038 2-1.055-27.749-23.964-49.995-51.962-49.995-28.003 0-50.907 22.245-51.962 49.995z" fill="#fff"/><circle cx="128" cy="128" r="40" fill="url(#d)"/><circle cx="128" cy="128" r="36" fill="url(#e)"/></g><circle cx="128" cy="128" r="110" fill="none" opacity=".196" stroke="url(#f)" stroke-width="4"/></g></svg>