<svg width="256" height="256" version="1.1" viewBox="0 0 256 256" xmlns="http://www.w3.org/2000/svg" xmlns:xlink="http://www.w3.org/1999/xlink"><title>gparted</title><defs><linearGradient id="c" x1="70.001" x2="70.001" y1="6" y2="81.536" gradientTransform="scale(.99999 1)" gradientUnits="userSpaceOnUse"><stop stop-color="#464646" offset="0"/><stop stop-color="#3E3E3F" offset=".914"/><stop stop-color="#fff" stop-opacity="0" offset="1"/></linearGradient><linearGradient id="d" x1="70.001" x2="70.001" y2="71.914" gradientTransform="scale(.99999 1)" gradientUnits="userSpaceOnUse"><stop stop-color="#D5D5D5" offset="0"/><stop stop-color="#D6D6D7" offset=".896"/><stop stop-color="#fff" stop-opacity="0" offset="1"/></linearGradient><linearGradient id="f" x1="22" x2="22" y2="44" gradientUnits="userSpaceOnUse"><stop stop-color="#020300" offset="0"/><stop stop-color="#000200" offset="1"/></linearGradient><path id="e" d="M22 44C9.849 44 0 34.15 0 21.999 0 9.85 9.85 0 22 0s22 9.85 22 21.999C44 34.149 34.15 44 22 44z"/><path id="g" d="M10.201 40.571a22.101 22.101 0 0 1-7.898-8.761L41.81 12.418a22.093 22.093 0 0 0-6.68-8.073L10.202 40.57z"/><linearGradient id="h" x1="22" x2="22" y1="26" y2="18" gradientUnits="userSpaceOnUse"><stop stop-color="#E2E096" offset="0"/><stop stop-color="#F9F8D2" offset="1"/></linearGradient><linearGradient id="a" x1="50%" x2="50%" y1="1.833%" y2="50%"><stop stop-color="#989898" offset="0"/><stop stop-color="#D5D5D5" offset="1"/></linearGradient><linearGradient id="i" x1="8" x2="8" y1="4.147" y2="8" gradientUnits="userSpaceOnUse" xlink:href="#a"/><filter id="b" color-interpolation-filters="sRGB"><feFlood flood-color="#000" flood-opacity=".196" result="flood"/><feComposite in="flood" in2="SourceGraphic" operator="in" result="composite1"/><feGaussianBlur in="composite1" result="blur" stdDeviation="4"/><feOffset dx="0" dy="4" result="offset"/><feComposite in="SourceGraphic" in2="offset" result="composite2"/></filter></defs><g fill="none" filter="url(#b)"><g fill-rule="evenodd"><g fill-rule="nonzero"><path d="M218 218c0 10.633-8.486 19-18.895 19H56.895C46.486 237 38 228.633 38 218V41c0-10.63 8.486-19 18.895-19h142.21C209.514 22 218 30.37 218 41z" fill="#8d8d8d"/><path d="M218 215c0 10.626-8.486 19-18.895 19H56.895C46.486 234 38 225.627 38 215V38c0-10.627 8.486-19 18.895-19h142.21C209.514 19 218 27.373 218 38z" fill="#d0d1d6"/><path d="M218 215.27c0 10.478-8.486 18.735-18.895 18.735H56.895C46.486 234.005 38 225.749 38 215.27V40.74c0-10.479 8.486-18.735 18.895-18.735h142.21c10.409 0 18.895 8.256 18.895 18.735z" fill="#cacbcf"/><path d="M55 159H38v56c0 10.602 8.58 19 19 19h72v-37c-30.672-.496-57.809-15.3-74-38z" fill="#949496"/></g><g fill-rule="nonzero"><path transform="matrix(1 0 0 -1 58 187)" d="M70 6C31.343 6 0 37.339 0 76s31.343 70.004 70 70.004S140 114.661 140 76 108.657 6 70 6zm42.896 112.9a60.59 60.59 0 0 1-19.284 13.009c-7.472 3.158-15.415 4.758-23.611 4.758s-16.14-1.6-23.611-4.758A60.578 60.578 0 0 1 27.106 118.9a60.407 60.407 0 0 1-13.009-19.288c-3.158-7.472-4.765-15.415-4.765-23.611a60.422 60.422 0 0 1 17.774-42.895A60.36 60.36 0 0 1 46.39 20.1c7.472-3.162 15.415-4.765 23.611-4.765 8.196 0 16.14 1.603 23.611 4.765a60.335 60.335 0 0 1 19.284 13.006 60.444 60.444 0 0 1 13.009 19.284c3.158 7.475 4.765 15.418 4.765 23.611 0 8.196-1.607 16.14-4.765 23.611a60.421 60.421 0 0 1-13.009 19.288z" fill="url(#c)"/><path d="M70 0C31.343 0 0 31.339 0 70s31.343 70.004 70 70.004S140 108.661 140 70 108.657 0 70 0zm42.896 112.9a60.59 60.59 0 0 1-19.284 13.009c-7.472 3.158-15.415 4.758-23.611 4.758s-16.14-1.6-23.611-4.758A60.578 60.578 0 0 1 27.106 112.9a60.407 60.407 0 0 1-13.009-19.288c-3.158-7.472-4.765-15.415-4.765-23.611a60.422 60.422 0 0 1 17.774-42.895A60.36 60.36 0 0 1 46.39 14.1c7.472-3.162 15.415-4.765 23.611-4.765 8.196 0 16.14 1.603 23.611 4.765a60.335 60.335 0 0 1 19.284 13.006 60.444 60.444 0 0 1 13.009 19.284c3.158 7.475 4.765 15.418 4.765 23.611 0 8.196-1.607 16.14-4.765 23.611a60.421 60.421 0 0 1-13.009 19.288z" fill="url(#d)" transform="translate(58 35)"/></g><path d="M193 109.496C193 144.898 163.9 174 128 174s-65-29.102-65-64.504C63 73.102 92.1 44 128 44s65 29.103 65 65.496" fill="#49494c"/><path fill="#4f4f50" d="M99.995 45.231l59.096 125.904 26.721-22.888-113.448-81.03z"/><g transform="translate(106 87)"><use width="100%" height="100%" fill="url(#f)" xlink:href="#e"/><use width="100%" height="100%" fill="#4f4f50" opacity=".5" xlink:href="#g"/></g><path d="M128 119c-5.523 0-10-4.478-10-10s4.477-10 10-10 10 4.478 10 10c0 5.523-4.477 10-10 10z" fill="#85858a"/><path d="M26 21.999a4 4 0 1 1-8 0 4 4 0 0 1 8 0" fill="url(#h)" transform="translate(106 87)"/><path d="M128 38c-38.657 0-70 31.339-70 70s31.343 70.004 70 70.004 70-31.343 70-70.004-31.343-70-70-70zm42.896 112.9a60.59 60.59 0 0 1-19.284 13.009c-7.472 3.158-15.415 4.758-23.611 4.758s-16.14-1.6-23.611-4.758A60.578 60.578 0 0 1 85.106 150.9a60.407 60.407 0 0 1-13.009-19.288c-3.158-7.472-4.765-15.415-4.765-23.611a60.422 60.422 0 0 1 17.774-42.895A60.36 60.36 0 0 1 104.39 52.1c7.472-3.162 15.415-4.765 23.611-4.765 8.196 0 16.14 1.603 23.611 4.765a60.335 60.335 0 0 1 19.284 13.006 60.444 60.444 0 0 1 13.009 19.284c3.158 7.475 4.765 15.418 4.765 23.611 0 8.196-1.607 16.14-4.765 23.611a60.421 60.421 0 0 1-13.009 19.288z" fill="#595959" fill-rule="nonzero"/><g fill="#ecf1f6" fill-rule="nonzero"><path d="M91.857 206.312l49.304-61.291a4.62 4.62 0 0 0 1.13-3.021c0-2.57-2.135-4.662-4.766-4.662-1.173 0-2.247.41-3.078 1.107L71.87 186.74c-3.524 2.55-5.806 6.645-5.806 11.259 0 7.738 6.4 14 14.292 14 4.718 0 8.898-2.235 11.5-5.688z"/></g><g><g transform="matrix(-1 0 0 1 175 204)" fill="#d9d9d9"><rect width="3" height="28" rx="1.5"/><rect x="8" width="3" height="28" rx="1.5"/><rect x="16" width="3" height="28" rx="1.5"/><rect x="24" width="3" height="28" rx="1.5"/><rect x="32" width="3" height="28" rx="1.5"/></g><g fill="#747474" transform="matrix(-1 0 0 1 175 198)"><rect width="3" height="28" rx="1.5"/><rect x="8" width="3" height="28" rx="1.5"/><rect x="16" width="3" height="28" rx="1.5"/><rect x="24" width="3" height="28" rx="1.5"/><rect x="32" width="3" height="28" rx="1.5"/></g><g transform="matrix(-1 0 0 1 175 201)" fill="#949496"><rect width="3" height="28" rx="1.5"/><rect x="8" width="3" height="28" rx="1.5"/><rect x="16" width="3" height="28" rx="1.5"/><rect x="24" width="3" height="28" rx="1.5"/><rect x="32" width="3" height="28" rx="1.5"/></g></g></g><path d="M68 41.003A8 8 0 0 1 60 49a8 8 0 1 1 0-16c4.416 0 8 3.585 8 8.003z" fill="#85858a"/><path d="M56.031 41.498A4.002 4.002 0 0 0 60 46a4.002 4.002 0 0 0 3.97-4.5A4.003 4.003 0 0 1 60 45a4.003 4.003 0 0 1-3.969-3.502z" fill="#68686b"/><path transform="matrix(1 0 0 -1 52 49)" d="M12 8.002a4 4 0 1 1-8-.003 4 4 0 0 1 8 .003z" fill="url(#i)"/><path d="M63.97 41.5A4.002 4.002 0 0 0 60 37a4.002 4.002 0 0 0-3.97 4.5 4 4 0 0 1 7.94 0z" fill="#eaeaea"/><path d="M67.938 42.003c.04-.328.062-.661.062-1C68 36.585 64.416 33 60 33s-8 3.585-8 8.003c0 .339.021.672.062 1C52.554 38.057 55.922 35 60 35c4.077 0 7.446 3.057 7.938 7.003z" fill="#727272"/><path d="M52.062 42.003A8 8 0 0 0 60 51a8 8 0 0 0 7.938-8.997 8.001 8.001 0 0 1-15.876 0z" fill="#d8d8d8"/><path d="M204 41.003A8 8 0 0 1 196 49a8 8 0 1 1 0-16c4.416 0 8 3.585 8 8.003z" fill="#85858a"/><path d="M192.031 41.498A4.002 4.002 0 0 0 196 46a4.002 4.002 0 0 0 3.97-4.5A4.003 4.003 0 0 1 196 45a4.003 4.003 0 0 1-3.969-3.502z" fill="#68686b"/><path transform="matrix(1 0 0 -1 188 49)" d="M12 8.002a4 4 0 1 1-8-.003 4 4 0 0 1 8 .003z" fill="url(#i)"/><path d="M199.97 41.5A4.002 4.002 0 0 0 196 37a4.002 4.002 0 0 0-3.97 4.5 4 4 0 0 1 7.94 0z" fill="#eaeaea"/><path d="M203.938 42.003c.04-.328.062-.661.062-1 0-4.418-3.584-8.003-8-8.003s-8 3.585-8 8.003c0 .339.021.672.062 1C188.554 38.057 191.922 35 196 35c4.077 0 7.446 3.057 7.938 7.003z" fill="#727272"/><path d="M188.062 42.003A8 8 0 0 0 196 51a8 8 0 0 0 7.938-8.997 8.001 8.001 0 0 1-15.876 0z" fill="#d8d8d8"/><g><path d="M68 215.003A8 8 0 0 1 60 223a8 8 0 1 1 0-16c4.416 0 8 3.585 8 8.003z" fill="#636363"/><path d="M64 215.999a4 4 0 1 0-8 .002 4 4 0 0 0 8-.002z" fill="#505050"/><path transform="matrix(1 0 0 -1 52 223)" d="M12 8.002a4 4 0 1 1-8-.003 4 4 0 0 1 8 .003z" fill="url(#i)"/><path d="M63.97 215.5A4.002 4.002 0 0 0 60 211a4.002 4.002 0 0 0-3.97 4.5 4 4 0 0 1 7.94 0z" fill="#eaeaea"/><path d="M67.938 216.003c.04-.328.062-.661.062-1 0-4.418-3.584-8.003-8-8.003s-8 3.585-8 8.003c0 .339.021.672.062 1C52.554 212.057 55.922 209 60 209c4.077 0 7.446 3.057 7.938 7.003z" fill="#6a6a6a"/><path d="M52.062 216.003A8 8 0 0 0 60 225a8 8 0 0 0 7.938-8.997 8.001 8.001 0 0 1-15.876 0z" fill="#a8a8a8"/><path d="M204 217.003a8 8 0 0 1-8 7.997 8 8 0 1 1 0-16c4.416 0 8 3.585 8 8.003z" fill="#85858a"/><path d="M192.031 215.499A4.002 4.002 0 0 0 196 220a4.002 4.002 0 0 0 3.97-4.501A4.003 4.003 0 0 1 196 219a4.003 4.003 0 0 1-3.969-3.502z" fill="#68686b"/><path transform="matrix(1 0 0 -1 188 223)" d="M12 8.002a4 4 0 1 1-8-.003 4 4 0 0 1 8 .003z" fill="url(#i)"/><path d="M199.97 215.5A4.002 4.002 0 0 0 196 211a4.002 4.002 0 0 0-3.97 4.5 4 4 0 0 1 7.94 0z" fill="#eaeaea"/><path d="M203.938 216.003c.04-.328.062-.661.062-1 0-4.418-3.584-8.003-8-8.003s-8 3.585-8 8.003c0 .339.021.672.062 1 .492-3.946 3.86-7.003 7.938-7.003 4.077 0 7.446 3.057 7.938 7.003z" fill="#727272"/><path d="M188.062 216.003A8 8 0 0 0 196 225a8 8 0 0 0 7.938-8.997 8.001 8.001 0 0 1-15.876 0z" fill="#d8d8d8"/></g></g></svg>