<svg width="256" height="256" version="1.1" viewBox="0 0 256 256" xmlns="http://www.w3.org/2000/svg">
<title>deepin-multitasking-view</title>
<defs>
<filter id="a" color-interpolation-filters="sRGB">
<feFlood flood-color="#908B78" flood-opacity=".498" result="flood"/>
<feComposite in="flood" in2="SourceGraphic" operator="in" result="composite1"/>
<feGaussianBlur in="composite1" result="blur" stdDeviation="1.5"/>
<feOffset dx="0" dy="1.5" result="offset"/>
<feComposite in="SourceGraphic" in2="offset" result="composite2"/>
</filter>
</defs>
<path transform="matrix(4 0 0 4 -.16 -.188)" d="M 59.958,31.828 A 28,28 0 0 1 32,59 28,28 0 0 1 4.044,32.172 28,28 0 0 0 4,33 28,28 0 0 0 32,61 28,28 0 0 0 60,33 28,28 0 0 0 59.958,31.828 Z" filter="url(#a)" opacity=".2"/>
<circle transform="matrix(4 0 0 4 -.16 -.188)" cx="32" cy="32" r="28" fill="#4f4f4f" filter="url(#a)"/>
<circle transform="matrix(4 0 0 4 -.16 -.188)" cx="32" cy="33" r="22" filter="url(#a)" opacity=".2"/>
<circle transform="matrix(4 0 0 4 -.16 -.188)" cx="32" cy="32" r="22" fill="#ea004e" filter="url(#a)"/>
<path transform="matrix(4 0 0 4 -.16 -.188)" d="m30 15v12h4v-12zm4.078 4.168m-4.668 0.082m6.016 0.188m-7.395 0.148m8.828 0.293m-9.945 0.094a14 14 0 0 0-8.914 13.027c0 7.732 6.268 14 14 14s14-6.268 14-14a14 14 0 0 0-8.492-12.855l-1.508 3.697a10 10 0 0 1 6 9.16 10 10 0 0 1-10 10 10 10 0 0 1-10-10 10 10 0 0 1 6.129-9.211l-1.215-3.817z" filter="url(#a)" opacity=".2"/>
<path transform="matrix(4 0 0 4 -.16 -.188)" d="m30 14v12h4v-12zm4.078 4.168m-4.668 0.082m6.016 0.188m-7.395 0.148m8.828 0.293m-9.945 0.094a13.997 13.997 0 0 0-8.914 13.027c0 7.732 6.268 14 14 14s14-6.268 14-14a14 14 0 0 0-8.492-12.855l-1.508 3.695a10 10 0 0 1 6 9.16 10 10 0 0 1-10 10 10 10 0 0 1-10-10 10 10 0 0 1 6.128-9.21z" fill="#fff" filter="url(#a)"/>
<path transform="matrix(4 0 0 4 -.16 -.188)" d="M 31.998,4 A 28,28 0 0 0 4,32 28,28 0 0 0 4.018,32.492 28,28 0 0 1 31.998,5 H 32 A 28,28 0 0 1 59.973,32.5 28,28 0 0 0 59.998,32 28,28 0 0 0 32,4 Z" fill="#fff" filter="url(#a)" opacity=".1"/>
</svg>
