<svg width="256" height="256" version="1.1" viewBox="0 0 256 256" xmlns="http://www.w3.org/2000/svg"><title>drive-harddisk-256px</title><defs><linearGradient id="b" x1="105.72" x2="105.72" y1="7.87" y2="184.28" gradientTransform="matrix(.98374 0 0 1.0165 24 14)" gradientUnits="userSpaceOnUse"><stop stop-color="#B0F400" offset="0"/><stop stop-color="#9DDA00" offset=".019"/><stop stop-color="#73C300" offset="1"/></linearGradient><linearGradient id="c" x1="45.2" x2="45.2" y1="427.97" y2="506.2" gradientTransform="matrix(2.3009 0 0 .43461 24 14)" gradientUnits="userSpaceOnUse"><stop stop-color="#fff" offset="0"/><stop stop-color="#BEC8BD" offset="1"/></linearGradient><linearGradient id="d" x1="29.023" x2="29.023" y1="262.65" y2="266.31" gradientTransform="matrix(1.3093 0 0 .76376 24 14)" gradientUnits="userSpaceOnUse"><stop stop-color="#fff" offset="0"/><stop stop-color="#fff" stop-opacity="0" offset="1"/></linearGradient><filter id="a" color-interpolation-filters="sRGB"><feFlood flood-color="#000" flood-opacity=".235" result="flood"/><feComposite in="flood" in2="SourceGraphic" operator="in" result="composite1"/><feGaussianBlur in="composite1" result="blur" stdDeviation="5"/><feOffset dx="0" dy="5" result="offset"/><feComposite in="SourceGraphic" in2="offset" result="composite2"/></filter></defs><g fill-rule="evenodd" filter="url(#a)"><path d="M38 29.992A7.991 7.991 0 0 1 45.996 22h164.01c4.416 0 7.996 3.59 7.996 7.992v178.01h-180z" fill="url(#b)"/><path d="M38 188c0-4.419 3.575-8 7.996-8h164.01c4.416 0 7.996 3.58 7.996 8.007v18.984c0 4.423-3.576 8.028-7.996 8.052l-164.01.911A7.946 7.946 0 0 1 38 207.998z" fill="#6fb400"/><path d="M38 190c0-4.419 3.575-8 7.996-8h164.01c4.416 0 7.996 3.58 7.996 8.005v20.989c0 4.421-3.576 8.025-7.996 8.05l-164.01.911A7.94 7.94 0 0 1 38 212z" fill="#f3f3f3"/><path d="M38 207.99a7.992 7.992 0 0 1 7.996-7.993h164.01a7.992 7.992 0 0 1 7.996 7.993v18.014a7.992 7.992 0 0 1-7.996 7.993H45.996A7.992 7.992 0 0 1 38 226.004z" fill="url(#c)"/><path d="M38 210c0-4.418 3.575-8 7.996-8h164.01c4.416 0 7.996 3.589 7.996 8v14c0 4.418-3.576 8-7.996 8H45.996C41.58 232 38 228.411 38 224z" fill="#cbd8ca"/><path d="M144 212l6 .042V224h-5.924v-11.958zm10 0l6 .042V224h-5.924v-11.958zm10 0l6 .042V224h-5.924v-11.958zm10 0l6 .042V224h-5.924v-11.958zm10 0l6 .042V224h-5.924v-11.958zm10 0l6 .042V224h-5.924v-11.958z" fill="#75c500"/><path d="M144 212l6 .007V214h-5.924v-1.993zm10 0l6 .007V214h-5.924v-1.993zm10 0l6 .007V214h-5.924v-1.993zm10 0l6 .007V214h-5.924v-1.993zm10 0l6 .007V214h-5.924v-1.993zm10 0l6 .007V214h-5.924v-1.993z" fill="#67ac01"/><path d="M144 222l6 .007V224h-5.924v-1.993zm10 0l6 .007V224h-5.924v-1.993zm10 0l6 .007V224h-5.924v-1.993zm10 0l6 .007V224h-5.924v-1.993zm10 0l6 .007V224h-5.924v-1.993zm10 0l6 .007V224h-5.924v-1.993z" fill="#e0f0df"/><path d="M62 224a6 6 0 1 0 0-12 6 6 0 0 0 0 12z" fill="#7cbb22"/><path d="M62 222a4 4 0 1 0 0-8 4 4 0 0 0 0 8z" fill="#87e200"/><ellipse cx="62" cy="216" rx="2.4" ry="1.4" fill="url(#d)"/></g></svg>