<svg width="256" height="256" version="1.1" viewBox="0 0 256 256" xmlns="http://www.w3.org/2000/svg"><title>deepin-multitasking-view</title><defs><filter id="a" color-interpolation-filters="sRGB"><feFlood flood-color="#000" flood-opacity=".235" result="flood"/><feComposite in="flood" in2="SourceGraphic" operator="in" result="composite1"/><feGaussianBlur in="composite1" result="blur" stdDeviation="1.5"/><feOffset dx="0" dy="1.5" result="offset"/><feComposite in="SourceGraphic" in2="offset" result="composite2"/></filter></defs><g transform="translate(-.442 -.007) scale(4.0001)" filter="url(#a)"><path d="M4.055 32.006c-.012.335-.051.662-.051 1C4.004 48.515 16.489 61 31.998 61s27.994-12.485 27.994-27.994c0-.338-.04-.665-.05-1-.529 15.039-12.774 26.995-27.945 26.995S4.581 47.045 4.053 32.006z" opacity=".2"/><rect transform="matrix(0 -1 -1 0 0 0)" x="-60" y="-59.99" width="55.989" height="55.989" rx="27.994" ry="27.994" fill="#6573c3"/><path d="M51.776 12.229L12.222 51.781c10.956 10.956 28.598 10.956 39.554 0s10.956-28.598 0-39.554z" opacity=".1"/><path d="M12.223 51.782l17.305-22.249 4.944 4.944z" fill="#f2f2f2"/><path d="M51.776 12.229L29.527 29.534l4.944 4.944z" fill="#f34235"/><path d="M51.776 12.229L12.222 51.781c-10.956-10.956-10.956-28.598 0-39.554s28.598-10.956 39.554 0z" fill="#fff" opacity=".2"/><path d="M32 4.012A27.932 27.932 0 0 0 4.006 32.006c0 .147-.012.292 0 .437C4.305 17.197 16.68 5.011 32 5.011s27.694 12.187 27.994 27.432c.012-.145 0-.29 0-.437A27.932 27.932 0 0 0 32 4.012z" fill="#fff" opacity=".2"/></g></svg>