<?xml version="1.0" encoding="UTF-8"?>
<svg width="256" height="256" version="1.1" viewBox="0 0 256 256" xmlns="http://www.w3.org/2000/svg" xmlns:cc="http://creativecommons.org/ns#" xmlns:dc="http://purl.org/dc/elements/1.1/" xmlns:rdf="http://www.w3.org/1999/02/22-rdf-syntax-ns#">
 <metadata>
  <rdf:RDF>
   <cc:Work rdf:about="">
    <dc:format>image/svg+xml</dc:format>
    <dc:type rdf:resource="http://purl.org/dc/dcmitype/StillImage"/>
    <dc:title>deepin-multitasking-view</dc:title>
   </cc:Work>
  </rdf:RDF>
 </metadata>
 <title>deepin-multitasking-view</title>
 <defs>
  <filter id="filter892" color-interpolation-filters="sRGB">
   <feFlood flood-color="rgb(0,0,0)" flood-opacity=".19608" result="flood"/>
   <feComposite in="flood" in2="SourceGraphic" operator="in" result="composite1"/>
   <feGaussianBlur in="composite1" result="blur" stdDeviation="1"/>
   <feOffset dx="0" dy="1" result="offset"/>
   <feComposite in="SourceGraphic" in2="offset" result="composite2"/>
  </filter>
  <linearGradient id="linearGradient871" x1="24" x2="24" y1="3.7774" y2="44.93" gradientUnits="userSpaceOnUse">
   <stop stop-color="#FF4B83" offset="0"/>
   <stop stop-color="#EE3A3A" offset="1"/>
  </linearGradient>
 </defs>
 <g transform="matrix(5.24 0 0 5.24 1.6981 1.6981)" fill-rule="evenodd" filter="url(#filter892)">
  <circle cx="24" cy="24" r="21" fill="url(#linearGradient871)"/>
  <circle cx="24" cy="16" r="1" fill="#f94568"/>
  <path id="Shape" d="m32.51 21.709c0.6885-0.81375 0.6465-2.0093-0.09525-2.751l-3.3743-3.3728c-0.74175-0.74175-1.9388-0.78375-2.7533-0.0945l-4.5525 3.6c-0.9165 0.7755-0.98625 2.1615-0.15 2.997l4.3283 4.3268c0.837 0.837 2.2238 0.76725 3-0.15075zm-4.5435-5.0505 3.3743 3.3735c0.18225 0.1815 0.18525 0.48825 9e-3 0.6975l-0.66825 0.79125-4.203-4.2023 0.79125-0.669c0.20775-0.177 0.5145-0.1725 0.69675 9e-3zm-3.687 10.244-6.0975 6.0983h-2.121l-0.53025-0.53025 5.469-5.4698-0.53025-0.53025-5.469 5.4698-7.5e-4 -2.121 6.0975-6.0975z" fill="#fff"/>
 </g>
</svg>
