<svg width="256" height="256" version="1.1" viewBox="0 0 256 256" xmlns="http://www.w3.org/2000/svg"><title>deepin-calculator</title><defs><filter id="b" color-interpolation-filters="sRGB"><feFlood flood-color="#908B78" flood-opacity=".498" result="flood"/><feComposite in="flood" in2="SourceGraphic" operator="in" result="composite1"/><feGaussianBlur in="composite1" result="blur" stdDeviation="1.5"/><feOffset dx="0" dy="1.5" result="offset"/><feComposite in="SourceGraphic" in2="offset" result="composite2"/></filter><filter id="a" color-interpolation-filters="sRGB"><feFlood flood-color="#908B78" flood-opacity=".498" result="flood"/><feComposite in="flood" in2="SourceGraphic" operator="in" result="composite1"/><feGaussianBlur in="composite1" result="blur" stdDeviation="1.5"/><feOffset dx="0" dy="1.5" result="offset"/><feComposite in="SourceGraphic" in2="offset" result="composite2"/></filter></defs><g fill-rule="evenodd" filter="url(#a)" stroke-width="7.923"><path d="M207.23 230.31H48.77c-7.923 0-7.923-7.923-7.923-7.923V32.237s0-7.923 7.923-7.923h110.92l55.462 55.462v142.62c0 7.923-7.923 7.923-7.923 7.923z" fill="#e5b400"/><path d="M141.14 119.39h-28.826v-3.518c2.536-.165 4.642-.496 6.316-.991 1.675-.496 2.512-1.107 2.512-1.834 0-.297-.032-.66-.097-1.09a5.27 5.27 0 0 0-.293-1.14l-5.755-15.758H90.756c-.91 2.313-1.65 4.328-2.22 6.046A306.808 306.808 0 0 0 87 105.862c-.423 1.42-.715 2.577-.878 3.469-.163.892-.244 1.619-.244 2.18 0 1.322 1.024 2.346 3.073 3.072 2.048.727 4.357 1.157 6.926 1.289v3.518H69.83v-3.518c.845-.066 1.902-.256 3.17-.57 1.268-.314 2.309-.735 3.121-1.264 1.301-.892 2.31-1.825 3.024-2.8.716-.974 1.415-2.32 2.098-4.038 3.48-8.82 7.316-18.731 11.51-29.732 4.195-11.001 7.935-20.796 11.219-29.385h3.902l23.07 60.654c.488 1.288 1.04 2.329 1.658 3.122.618.793 1.48 1.569 2.585 2.329.748.462 1.723.85 2.927 1.164s2.21.487 3.024.52zM113.656 89.6l-10.587-27.082L92.679 89.6zm75.386 27.659a72.926 72.926 0 0 1-4.062 1.363c-1.166.347-2.487.52-3.964.52-2.56 0-4.604-.602-6.13-1.809s-2.503-2.965-2.93-5.278h-.295c-2.134 2.379-4.424 4.196-6.87 5.452-2.445 1.255-5.39 1.883-8.838 1.883-3.643 0-6.639-1.123-8.986-3.37-2.347-2.247-3.52-5.188-3.52-8.823 0-1.884.262-3.569.787-5.056a12.102 12.102 0 0 1 2.364-4.015c.82-.991 1.904-1.875 3.25-2.652 1.345-.776 2.61-1.396 3.79-1.859 1.478-.561 4.473-1.602 8.987-3.122 4.514-1.52 7.558-2.71 9.134-3.57v-4.906c0-.43-.09-1.256-.27-2.479a10.427 10.427 0 0 0-1.158-3.47c-.656-1.222-1.584-2.288-2.782-3.196-1.198-.909-2.897-1.363-5.096-1.363-1.51 0-2.914.256-4.21.768-1.297.512-2.208 1.049-2.733 1.61 0 .662.156 1.636.468 2.925.312 1.289.467 2.478.467 3.569 0 1.156-.516 2.214-1.55 3.172-1.035.958-2.47 1.438-4.309 1.438-1.641 0-2.848-.587-3.619-1.76-.771-1.173-1.157-2.487-1.157-3.94 0-1.52.533-2.975 1.6-4.362 1.067-1.388 2.454-2.628 4.16-3.718 1.478-.925 3.267-1.71 5.368-2.354 2.1-.645 4.152-.967 6.155-.967 2.757 0 5.162.19 7.214.57a13.202 13.202 0 0 1 5.588 2.454c1.674 1.222 2.946 2.883 3.816 4.981.87 2.098 1.305 4.8 1.305 8.105 0 4.725-.049 8.913-.147 12.565a446.293 446.293 0 0 0-.148 11.97c0 1.288.221 2.313.665 3.073.443.76 1.124 1.404 2.043 1.933.492.297 1.272.462 2.339.495 1.067.034 2.158.05 3.274.05zm-17.184-25.985c-2.79.82-5.236 1.625-7.337 2.413s-4.054 1.772-5.86 2.954c-1.64 1.116-2.937 2.437-3.89 3.964-.951 1.526-1.427 3.34-1.427 5.44 0 2.725.714 4.728 2.142 6.008 1.428 1.28 3.241 1.92 5.44 1.92 2.331 0 4.383-.566 6.156-1.699 1.772-1.132 3.266-2.47 4.48-4.013z" fill="#fff" filter="url(#b)"/><path d="M167.62 79.924c-7.923 0-7.923-8.071-7.923-8.071V24.315l55.462 55.61z" fill="#f7d760"/></g></svg>