<svg width="256" height="256" version="1.1" viewBox="0 0 256 256" xmlns="http://www.w3.org/2000/svg"><title>deepin-calculator</title><defs><filter id="a" color-interpolation-filters="sRGB"><feFlood flood-color="#000" flood-opacity=".235" result="flood"/><feComposite in="flood" in2="SourceGraphic" operator="in" result="composite1"/><feGaussianBlur in="composite1" result="blur" stdDeviation="1.5"/><feOffset dx="0" dy="1.5" result="offset"/><feComposite in="SourceGraphic" in2="offset" result="composite2"/></filter></defs><g transform="translate(9.422 9.536) scale(3.6786)" filter="url(#a)"><path d="M4 56v2c0 1.662 1.338 3 3 3h50c1.662 0 3-1.338 3-3v-2c0 1.662-1.338 3-3 3H7c-1.662 0-3-1.338-3-3z" opacity=".2"/><rect transform="matrix(0 -1 -1 0 0 0)" x="-60" y="-60" width="56" height="56" rx="3" ry="3" fill="#4ab3e4"/><path d="M7 4C5.338 4 4 5.338 4 7v1c0-1.662 1.338-3 3-3h50c1.662 0 3 1.338 3 3V7c0-1.662-1.338-3-3-3z" fill="#fff" opacity=".2"/><path d="M57 33l-8 6v-4h-8v-4h8v-4z" opacity=".2"/><path d="M57 32l-8 6v-4h-8v-4h8v-4z" fill="#b3e5fc"/><rect x="29" y="9" width="6" height="48" rx="1.5" ry="1.5" fill="#fff" opacity=".2"/><rect x="29" y="8" width="6" height="48" rx="1.5" ry="1.5" fill="#4f4f4f"/><path d="M7 33l8 6v-4h8v-4h-8v-4z" opacity=".2"/><path d="M7 32l8 6v-4h8v-4h-8v-4z" fill="#b3e5fc"/></g></svg>