<svg width="256" height="256" version="1.1" viewBox="0 0 256 256" xmlns="http://www.w3.org/2000/svg"><title>deepin-multitasking-view</title><defs><filter id="a" color-interpolation-filters="sRGB"><feFlood flood-color="#000" flood-opacity=".314" result="flood"/><feComposite in="flood" in2="SourceGraphic" operator="in" result="composite1"/><feGaussianBlur in="composite1" result="blur" stdDeviation="1.5"/><feOffset dx="0" dy="1.5" result="offset"/><feComposite in="SourceGraphic" in2="offset" result="composite2"/></filter></defs><g transform="matrix(4 0 0 4 0 .233)" filter="url(#a)"><rect transform="matrix(0 -1 -1 0 0 0)" x="-60" y="-60" width="56" height="56" rx="28" ry="28" fill="#3e50b4"/><path d="M32 15a4 4 0 1 0 0 8 4 4 0 0 0 0-8zM18 25v2h10v24h2V39h4v12h2V27h10v-2H28z" opacity=".2"/><path d="M32 14a4 4 0 1 0 0 8 4 4 0 0 0 0-8zM18 24v2h10v24h2V38h4v12h2V26h10v-2H28z" fill="#fff"/><path d="M32 4C16.488 4 4 16.488 4 32c0 .113.011.224.018.336C4.369 17.134 16.712 5 32 5s27.63 12.134 27.982 27.336c.006-.112.017-.223.017-.336C60 16.488 47.511 4 32 4z" fill="#fff" opacity=".1"/><path d="M4.049 33l.002.018V33zm.002.018c-.013.328-.051.65-.051.982 0 .224.012.445.018.668.012-.217.024-.433.033-.65L4.049 34h.002v.018C4.588 49.052 16.83 61 32 61c15.174 0 27.42-11.958 27.949-27 .008.222.02.443.033.664.005-.222.018-.442.018-.664 0-.338-.04-.666-.051-1-.528 15.042-12.775 27-27.95 27C16.833 60 4.589 48.05 4.052 33.018z" opacity=".2"/></g></svg>