<svg width="256" height="256" version="1.1" viewBox="0 0 256 256" xmlns="http://www.w3.org/2000/svg" xmlns:xlink="http://www.w3.org/1999/xlink">
<title>deepin-calculator</title>
<defs>
<filter id="a" color-interpolation-filters="sRGB">
<feFlood flood-opacity=".294" result="flood"/>
<feComposite in="flood" in2="SourceGraphic" operator="in" result="composite1"/>
<feGaussianBlur in="composite1" result="blur" stdDeviation="1.5"/>
<feOffset dx="0" dy="1.5" result="offset"/>
<feComposite in="SourceGraphic" in2="offset" result="composite2"/>
</filter>
<linearGradient id="linearGradient999" x1="-1.599" x2="65.601" y1="29" y2="29" gradientTransform="matrix(1.0734 0 0 .93162 -292.13 -48.388)" gradientUnits="userSpaceOnUse">
<stop stop-color="#23FFBE" offset="0"/>
<stop stop-color="#3FDA88" offset="1"/>
</linearGradient>
</defs>
<path transform="matrix(3.6785,0,0,3.6785,10.287,8.447)" d="m6.8 57a2.783 2.783 0 0 1-2.8-2.778v-3.222h56v3.222a2.783 2.783 0 0 1-2.8 2.778z" fill="#4f4f4f" filter="url(#a)"/>
<path transform="matrix(3.6785,0,0,3.6785,10.287,8.447)" d="m6.801 7a2.783 2.783 0 0 0-2.8 2.777v41.223h56v-41.22a2.783 2.783 0 0 0-2.8-2.778h-50.401z" fill="url(#linearGradient999)" filter="url(#a)"/>
<path transform="matrix(3.6785,0,0,3.6785,10.287,8.447)" d="m6.8 7a2.783 2.783 0 0 0-2.8 2.777v1a2.783 2.783 0 0 1 2.8-2.777h50.4c1.55 0 2.8 1.238 2.8 2.777v-1a2.784 2.784 0 0 0-2.8-2.777z" fill="#fff" filter="url(#a)" opacity=".1"/>
<rect transform="matrix(3.6785,0,0,3.6785,10.287,8.447)" x="20" y="24" width="24" height="16" rx="1.5" ry="1.334" filter="url(#a)" opacity=".2"/>
<path transform="matrix(3.6785,0,0,3.6785,10.287,8.447)" d="m20 27v10.668c0 0.738 0.668 1.332 1.5 1.332h21c0.832 0 1.5-0.594 1.5-1.332v-10.668z" fill="#fff" filter="url(#a)"/>
<path transform="matrix(3.6785,0,0,3.6785,10.287,8.447)" d="m21.5 23h21c0.832 0 1.5 0.594 1.5 1.334v2.666h-24v-2.667c0-0.738 0.669-1.333 1.5-1.333z" fill="#4f4f4f" filter="url(#a)"/>
<rect transform="matrix(3.6785,0,0,3.6785,10.287,8.447)" x="6" y="34" width="6" height="6" rx=".75" ry=".75" filter="url(#a)" opacity=".2"/>
<rect transform="matrix(3.6785,0,0,3.6785,10.287,8.447)" x="6" y="10" width="6" height="6" rx=".75" ry=".75" filter="url(#a)" opacity=".2"/>
<rect transform="matrix(3.6785,0,0,3.6785,10.287,8.447)" x="6" y="9" width="6" height="6" rx=".75" ry=".75" fill="#fff" filter="url(#a)"/>
<rect transform="matrix(3.6785,0,0,3.6785,10.287,8.447)" x="6" y="18" width="6" height="6" rx=".75" ry=".75" filter="url(#a)" opacity=".2"/>
<rect transform="matrix(3.6785,0,0,3.6785,10.287,8.447)" x="6" y="17" width="6" height="6" rx=".75" ry=".75" fill="#fff" filter="url(#a)"/>
<rect transform="matrix(3.6785,0,0,3.6785,10.287,8.447)" x="6" y="26" width="6" height="6" rx=".75" ry=".75" filter="url(#a)" opacity=".2"/>
<rect transform="matrix(3.6785,0,0,3.6785,10.287,8.447)" x="6" y="25" width="6" height="6" rx=".75" ry=".75" fill="#fff" filter="url(#a)"/>
<rect transform="matrix(3.6785,0,0,3.6785,10.287,8.447)" x="6" y="33" width="6" height="6" rx=".75" ry=".75" fill="#fff" filter="url(#a)"/>
<path transform="matrix(3.6785,0,0,3.6785,10.287,8.447)" d="m4 54.223v1c0 1.54 1.25 2.777 2.8 2.777h50.4a2.781 2.781 0 0 0 2.8-2.777v-1a2.781 2.781 0 0 1-2.8 2.777h-50.4a2.782 2.782 0 0 1-2.8-2.777z" filter="url(#a)" opacity=".2"/>
</svg>
