<svg width="256" height="256" version="1.1" viewBox="0 0 256 256" xmlns="http://www.w3.org/2000/svg" xmlns:xlink="http://www.w3.org/1999/xlink">
<title>deepin-calculator</title>
<defs>
<filter id="a" color-interpolation-filters="sRGB">
<feFlood flood-opacity=".294" result="flood"/>
<feComposite in="flood" in2="SourceGraphic" operator="in" result="composite1"/>
<feGaussianBlur in="composite1" result="blur" stdDeviation="1.5"/>
<feOffset dx="0" dy="1.5" result="offset"/>
<feComposite in="SourceGraphic" in2="offset" result="composite2"/>
</filter>
<linearGradient id="linearGradient908" x1="-2.8" x2="66.8" y1="32" y2="32" gradientTransform="matrix(.5487 0 0 1.8225 -117.93 -50.722)" gradientUnits="userSpaceOnUse">
<stop stop-color="#628FFF" offset="0"/>
<stop stop-color="#4084FF" offset="1"/>
</linearGradient>
</defs>
<path transform="matrix(3.5517,0,0,3.5517,14.346,12.569)" d="m27 4c-3.324 0-6 2.676-6 6v6h-14c-2.216 0-4 1.784-4 4v12h6c3.324 0 6 2.676 6 6s-2.676 6-6 6h-6v14c0 2.216 1.784 4 4 4h14v-4c0-3.324 2.676-6 6-6s6 2.676 6 6v4h12c2.216 0 4-1.784 4-4v-14h6c3.324 0 6-2.676 6-6s-2.676-6-6-6h-6v-12c0-2.216-1.784-4-4-4h-12v-6c0-3.324-2.676-6-6-6z" filter="url(#a)" opacity=".2"/>
<path transform="matrix(3.5517,0,0,3.5517,14.346,12.569)" d="m27 3c-3.324 0-6 2.676-6 6v6h-14c-2.216 0-4 1.784-4 4v12h6c3.324 0 6 2.676 6 6s-2.676 6-6 6h-6v14c0 2.216 1.784 4 4 4h14v-4c0-3.324 2.676-6 6-6s6 2.676 6 6v4h12c2.216 0 4-1.784 4-4v-14h6c3.324 0 6-2.676 6-6s-2.676-6-6-6h-6v-12c0-2.216-1.784-4-4-4h-12v-6c0-3.324-2.676-6-6-6z" fill="url(#linearGradient908)" filter="url(#a)"/>
<path transform="matrix(3.5517,0,0,3.5517,14.346,12.569)" d="m27 3c-3.324 0-6 2.676-6 6v1c0-3.324 2.676-6 6-6s6 2.676 6 6v-1c0-3.324-2.676-6-6-6zm-20 12c-2.216 0-4 1.784-4 4v1c0-2.216 1.784-4 4-4h14v-1zm26 0v1h12c2.216 0 4 1.784 4 4v-1c0-2.216-1.784-4-4-4zm16 16v1h6a5.983 5.983 0 0 1 5.973 5.467c0.016-0.154 0.027-0.308 0.027-0.467 0-3.324-2.676-6-6-6zm-34.102 7a5.975 5.975 0 0 1-5.898 5h-6v1h6c2.98 0 5.422-2.16 5.898-5 0.03 0.182 0.055 0.364 0.074 0.549 0.017-0.181 0.028-0.364 0.028-0.549a6.01 6.01 0 0 0-0.102-1z" fill="#fff" filter="url(#a)" opacity=".1"/>
</svg>
