<svg width="256" height="256" version="1.1" viewBox="0 0 256 256" xmlns="http://www.w3.org/2000/svg" xmlns:xlink="http://www.w3.org/1999/xlink">
<title>deepin-calculator</title>
<defs>
<filter id="a" color-interpolation-filters="sRGB">
<feFlood flood-opacity=".294" result="flood"/>
<feComposite in="flood" in2="SourceGraphic" operator="in" result="composite1"/>
<feGaussianBlur in="composite1" result="blur" stdDeviation="1.5"/>
<feOffset dx="0" dy="1.5" result="offset"/>
<feComposite in="SourceGraphic" in2="offset" result="composite2"/>
</filter>
<linearGradient id="linearGradient1118" x1="-65.6" x2="1.6" y1="-32" y2="-32" gradientTransform="matrix(1.0734 0 0 .93162 -292.13 -48.388)" gradientUnits="userSpaceOnUse">
<stop stop-color="#23FFBE" offset="0"/>
<stop stop-color="#3FDA88" offset="1"/>
</linearGradient>
</defs>
<rect transform="matrix(0,-3.6786,-3.6786,0,10.071,9.333)" x="-60" y="-60" width="56" height="56" rx="2.8" ry="2.8" fill="url(#linearGradient1118)" filter="url(#a)"/>
<path transform="matrix(3.6786,0,0,3.6786,10.071,9.333)" d="m6.8 4c-1.55 0-2.8 1.25-2.8 2.8v1c0-1.55 1.25-2.8 2.8-2.8h50.4c1.55 0 2.8 1.25 2.8 2.8v-1c0-1.55-1.25-2.8-2.8-2.8z" fill="#fff" filter="url(#a)" opacity=".1"/>
<path transform="matrix(3.6786,0,0,3.6786,10.071,9.333)" d="m4 57.2v1c0 1.55 1.25 2.8 2.8 2.8h50.4c1.55 0 2.8-1.25 2.8-2.8v-1c0 1.55-1.25 2.8-2.8 2.8h-50.4c-1.55 0-2.8-1.25-2.8-2.8z" filter="url(#a)" opacity=".2"/>
<g transform="matrix(7.3572 0 0 7.3572 10.071 13.012)" filter="url(#a)" opacity=".2">
<rect x="5" y="5" width="6" height="6" rx=".75" ry=".75"/>
<rect x="13" y="5" width="6" height="6" rx=".75" ry=".75"/>
<rect x="5" y="13" width="6" height="6" rx=".75" ry=".75"/>
<rect x="13" y="13" width="6" height="6" rx=".75" ry=".75"/>
<rect x="5" y="21" width="6" height="6" rx=".75" ry=".75"/>
</g>
<g transform="matrix(7.3572,0,0,7.3572,10.071,9.333)" fill="#fff" filter="url(#a)">
<rect x="5" y="5" width="6" height="6" rx=".75" ry=".75"/>
<rect x="13" y="5" width="6" height="6" rx=".75" ry=".75"/>
<rect x="5" y="13" width="6" height="6" rx=".75" ry=".75"/>
<rect x="13" y="13" width="6" height="6" rx=".75" ry=".75"/>
<rect x="5" y="21" width="6" height="6" rx=".75" ry=".75"/>
</g>
</svg>
