<svg width="256" height="256" version="1.1" viewBox="0 0 256 256" xmlns="http://www.w3.org/2000/svg">
<title>deepin-calculator</title>
<defs>
<linearGradient id="a-3" x1="114.22" x2="114.22" y1="40.343" y2="233.09" gradientTransform="matrix(1.1206 0 0 .89235 -280.95 26.458)" gradientUnits="userSpaceOnUse">
<stop stop-color="#FFF" offset="0"/>
<stop stop-color="#C3D6DE" offset="1"/>
</linearGradient>
<linearGradient id="b" x1="102.03" x2="102.03" y1="70.074" y2="213.27" gradientTransform="matrix(1.2545 0 0 .79713 -280.95 26.458)" gradientUnits="userSpaceOnUse">
<stop stop-color="#0E004D" offset="0"/>
<stop stop-color="#4735E4" offset="1"/>
</linearGradient>
<filter id="filter971" color-interpolation-filters="sRGB">
<feFlood flood-color="rgb(0,0,0)" flood-opacity=".19608" result="flood"/>
<feComposite in="flood" in2="SourceGraphic" operator="in" result="composite1"/>
<feGaussianBlur in="composite1" result="blur" stdDeviation="2"/>
<feOffset dx="0" dy="2" result="offset"/>
<feComposite in="SourceGraphic" in2="offset" result="composite2"/>
</filter>
</defs>
<g transform="matrix(.95095 0 0 .95095 273.45 -14.936)" fill-rule="evenodd" filter="url(#filter971)">
<path d="m-260.95 68.454a6.002 6.002 0 0 1 6.003-5.996h203.99a6 6 0 0 1 6.003 5.996v160.01a6.002 6.002 0 0 1-6.003 5.996h-203.99a6 6 0 0 1-6.003-5.996z" fill="url(#a-3)"/>
<path d="m-260.95 69.787a5.333 5.333 0 0 1 5.34-5.329h205.32a5.337 5.337 0 0 1 5.34 5.329v157.34a5.333 5.333 0 0 1-5.34 5.329h-205.32a5.337 5.337 0 0 1-5.34-5.329z" fill="#eff7fb"/>
<path d="m-254.95 71.461a3.002 3.002 0 0 1 3.002-3.003h198a3.005 3.005 0 0 1 3.002 3.003v127.99a3.002 3.002 0 0 1-3.002 3.003h-198a3.005 3.005 0 0 1-3.002-3.003z"/>
<path d="m-248.95 74.458h192v122h-192z" fill="url(#b)"/>
<path d="m-184.95 196.46 101.33-23.684 26.667 14.21v9.474z" fill="#4224ca"/>
<path d="m-248.95 74.458h50.955l67.045 122h-118z" fill="#fff" opacity=".123"/>
</g>
</svg>
