<svg width="256" height="256" version="1.1" viewBox="0 0 256 256" xmlns="http://www.w3.org/2000/svg"><title>deepin-multitasking-view</title><defs><filter id="a" color-interpolation-filters="sRGB"><feFlood flood-color="#000" flood-opacity=".294" result="flood"/><feComposite in="flood" in2="SourceGraphic" operator="in" result="composite1"/><feGaussianBlur in="composite1" result="blur" stdDeviation="1.5"/><feOffset dx="0" dy="1.5" result="offset"/><feComposite in="SourceGraphic" in2="offset" result="composite2"/></filter></defs><g transform="matrix(4 0 0 4 0 -.914)" filter="url(#a)"><rect transform="matrix(0 -1 -1 0 0 0)" x="-60" y="-60" width="56" height="56" rx="28" ry="28" fill="#325f78"/><rect transform="matrix(0 -1 -1 0 0 0)" x="-55" y="-54" width="44" height="44" rx="22" ry="22" opacity=".2"/><rect transform="matrix(0 -1 -1 0 0 0)" x="-54" y="-54" width="44" height="44" rx="22" ry="22" fill="#5c8ba2"/><path d="M32 16.5l-4.453 5.344A12.001 12.001 0 0 0 20 33c0 6.627 5.372 12 12 12s12-5.373 12-12a12 12 0 0 0-7.547-11.156L32 16.5z" opacity=".2"/><g fill="#fff"><path d="M32 15.5l-4.453 5.344A12.001 12.001 0 0 0 20 32c0 6.627 5.372 12 12 12s12-5.373 12-12a12 12 0 0 0-7.547-11.156L32 15.5z"/><path d="M32 4C16.488 4 4 16.488 4 32c0 .114.011.224.018.336C4.369 17.134 16.712 5 32 5c15.289 0 27.63 12.134 27.982 27.336.006-.112.017-.223.017-.336C60 16.488 47.511 4 32 4z" opacity=".1"/><path d="M32 10c-12.188 0-22 9.812-22 22 0 .114.012.225.018.338C10.366 20.46 20.035 11 32 11s21.634 9.46 21.982 21.338c.006-.113.017-.224.017-.338 0-12.188-9.812-22-22-22z" opacity=".1"/></g><path d="M59.982 32.664C59.63 47.866 47.289 60 32 60 16.712 60 4.371 47.868 4.018 32.668c-.006.11-.018.22-.018.332 0 15.512 12.488 28 28 28s28-12.488 28-28c0-.113-.01-.224-.017-.336z" opacity=".2"/></g></svg>