<?xml version="1.0" encoding="UTF-8"?>
<svg width="256" height="256" version="1.1" viewBox="0 0 256 256" xmlns="http://www.w3.org/2000/svg" xmlns:cc="http://creativecommons.org/ns#" xmlns:dc="http://purl.org/dc/elements/1.1/" xmlns:rdf="http://www.w3.org/1999/02/22-rdf-syntax-ns#">
 <metadata>
  <rdf:RDF>
   <cc:Work rdf:about="">
    <dc:format>image/svg+xml</dc:format>
    <dc:type rdf:resource="http://purl.org/dc/dcmitype/StillImage"/>
    <dc:title>deepin-calculator</dc:title>
   </cc:Work>
  </rdf:RDF>
 </metadata>
 <title>deepin-calculator</title>
 <defs>
  <filter id="filter903" color-interpolation-filters="sRGB">
   <feFlood flood-color="rgb(0,0,0)" flood-opacity=".19608" result="flood"/>
   <feComposite in="flood" in2="SourceGraphic" operator="in" result="composite1"/>
   <feGaussianBlur in="composite1" result="blur" stdDeviation="1.5"/>
   <feOffset dx="4.57967e-15" dy="1.5" result="offset"/>
   <feComposite in="SourceGraphic" in2="offset" result="composite2"/>
  </filter>
  <linearGradient id="deepin-virtualkeyboard-c" x1="23.392" x2="23.392" y1="5.1299" y2="43.392" gradientTransform="scale(1.026 .97468)" gradientUnits="userSpaceOnUse">
   <stop stop-color="#FFF" offset="0"/>
   <stop stop-color="#EDEDED" offset="1"/>
  </linearGradient>
  <linearGradient id="deepin-virtualkeyboard-d" x1="17.611" x2="17.611" y1="23.167" y2="42.246" gradientTransform="scale(1.3628 .7338)" gradientUnits="userSpaceOnUse">
   <stop stop-color="#4A4A4A" offset="0"/>
   <stop stop-color="#363636" offset=".97645"/>
  </linearGradient>
 </defs>
 <g transform="matrix(5.1356 0 0 5.1356 4.933 2.3166)" filter="url(#filter903)">
  <rect x="4" y="5" width="40" height="38" rx="7.573" fill="url(#deepin-virtualkeyboard-c)" fill-rule="evenodd"/>
  <path d="m33 17h4v4h-4zm-5 0h4v4h-4zm-5 0h4v4h-4zm6 5v4h-4v-4zm-11-5h4v4h-4zm6 5v4h-4v-4zm-13-5h6v4h-6zm0 5h8v4h-8zm21 9h-15v-4h15zm-16 0h-5v-4h5zm21-5h-7v-4h7zm0 5h-4v-4h4z" fill="url(#deepin-virtualkeyboard-d)"/>
 </g>
</svg>
