<svg width="256" height="256" version="1.1" viewBox="0 0 256 256" xmlns="http://www.w3.org/2000/svg">
<title>deepin-multitasking-view</title>
<defs>
<filter id="a" color-interpolation-filters="sRGB">
<feFlood flood-opacity=".314" result="flood"/>
<feComposite in="flood" in2="SourceGraphic" operator="in" result="composite1"/>
<feGaussianBlur in="composite1" result="blur" stdDeviation="1.5"/>
<feOffset dx="0" dy="1.5" result="offset"/>
<feComposite in="SourceGraphic" in2="offset" result="composite2"/>
</filter>
</defs>
<rect transform="matrix(0 -4 -4 0 0 .578)" x="-60" y="-60" width="56" height="56" rx="28" ry="28" fill="#f5b923" filter="url(#a)"/>
<path transform="matrix(4 0 0 4 0 .578)" d="M 32,4 C 16.488,4 4,16.488 4,32 4,32.113 4.011,32.224 4.018,32.336 4.369,17.134 16.712,5 32,5 47.288,5 59.63,17.134 59.982,32.336 59.988,32.224 59.999,32.113 59.999,32 60,16.488 47.511,4 32,4 Z" fill="#fff" filter="url(#a)" opacity=".1"/>
<path transform="matrix(4 0 0 4 0 .578)" d="M 32,16 27.762,27.556 16,28.222 25.144,36.032 22.112,48 32,41.27 41.888,48 38.856,36.032 48,28.222 36.238,27.556 Z" fill="#3f3f3f" filter="url(#a)"/>
<path transform="matrix(4 0 0 4 0 .578)" d="m4.049 33 2e-3 0.018v-0.018zm2e-3 0.018c-0.013 0.328-0.051 0.65-0.051 0.982 0 0.224 0.012 0.445 0.018 0.668 0.012-0.217 0.024-0.433 0.033-0.65l-2e-3 -0.018h2e-3v0.018c0.537 15.034 12.779 26.982 27.949 26.982 15.174 0 27.42-11.958 27.949-27 8e-3 0.222 0.02 0.443 0.033 0.664 5e-3 -0.222 0.018-0.442 0.018-0.664 0-0.338-0.04-0.666-0.051-1-0.528 15.042-12.775 27-27.95 27-15.166 0-27.41-11.95-27.947-26.982z" filter="url(#a)" opacity=".2"/>
</svg>
