<svg width="256" height="256" version="1.1" viewBox="0 0 256 256" xmlns="http://www.w3.org/2000/svg"><title>deepin-calculator</title><defs><filter id="a" color-interpolation-filters="sRGB"><feFlood flood-color="#000" flood-opacity=".294" result="flood"/><feComposite in="flood" in2="SourceGraphic" operator="in" result="composite1"/><feGaussianBlur in="composite1" result="blur" stdDeviation="1.5"/><feOffset dx="0" dy="1.5" result="offset"/><feComposite in="SourceGraphic" in2="offset" result="composite2"/></filter></defs><g transform="translate(10.286 8.446) scale(3.6786)" filter="url(#a)"><rect transform="matrix(0 -1 -1 0 0 0)" x="-56" y="-60" width="48" height="56" rx="2.572" ry="3" fill="#4ab3e4"/><path d="M4 53.43v1C4 55.854 5.338 57 7 57h50c1.662 0 3-1.145 3-2.57v-1c0 1.425-1.338 2.57-3 2.57H7c-1.662 0-3-1.146-3-2.57z" opacity=".2"/><path d="M7 8c-1.662 0-3 1.138-3 2.563v1C4 10.137 5.338 9 7 9h50c1.662 0 3 1.138 3 2.563v-1C60 9.137 58.662 8 57 8z" fill="#fff" opacity=".2"/><path d="M27.743 15c-.832.007-1.64.09-2.356.265-5.43 1.329-10.928 3.836-13.714 9.595-4.27 9.35-.077 20.408 9.348 24.644 5.21 2.296 10.142 2.078 14.237-1.55 1.206-1.09 2.192-2.334 2.582-4.126.776-3.564-1.116-8.594-8.741-12.024-7.178-3.226-8.532-8.006-7.512-11.12 1.028-3.143 4.816-5.981 10.7-4.782.627.131 1.25.301 1.861.504-1.178-.786-3.907-1.429-6.405-1.406zM38 15a4 4 0 0 0-4 4 4 4 0 0 0 4 4 4 4 0 0 0 4-4 4 4 0 0 0-4-4zm8 6a4 4 0 0 0-4 4 4 4 0 0 0 4 4 4 4 0 0 0 4-4 4 4 0 0 0-4-4zm4 10a4 4 0 0 0-4 4 4 4 0 0 0 4 4 4 4 0 0 0 4-4 4 4 0 0 0-4-4z" opacity=".2"/><path d="M27.743 14c-.832.007-1.64.09-2.356.265-5.43 1.329-10.928 3.836-13.714 9.595-4.27 9.35-.077 20.408 9.348 24.644 5.21 2.296 10.142 2.078 14.237-1.55 1.206-1.09 2.192-2.334 2.582-4.126.776-3.564-1.116-8.594-8.741-12.024-7.178-3.226-8.532-8.006-7.512-11.12 1.028-3.143 4.816-5.981 10.7-4.782.627.131 1.25.301 1.861.504-1.178-.786-3.907-1.429-6.405-1.406zM38 14a4 4 0 0 0-4 4 4 4 0 0 0 4 4 4 4 0 0 0 4-4 4 4 0 0 0-4-4zm8 6a4 4 0 0 0-4 4 4 4 0 0 0 4 4 4 4 0 0 0 4-4 4 4 0 0 0-4-4zm4 10a4 4 0 0 0-4 4 4 4 0 0 0 4 4 4 4 0 0 0 4-4 4 4 0 0 0-4-4z" fill="#fff"/></g></svg>