<svg width="256" height="256" version="1.1" viewBox="0 0 256 256" xmlns="http://www.w3.org/2000/svg"><title>deepin-calculator</title><defs><filter id="a" color-interpolation-filters="sRGB"><feFlood flood-color="#000" flood-opacity=".294" result="flood"/><feComposite in="flood" in2="SourceGraphic" operator="in" result="composite1"/><feGaussianBlur in="composite1" result="blur" stdDeviation="1.5"/><feOffset dx="0" dy="1.5" result="offset"/><feComposite in="SourceGraphic" in2="offset" result="composite2"/></filter></defs><g transform="translate(10.286 9.98) scale(3.6786)" filter="url(#a)"><rect transform="matrix(0 -1 -1 0 0 0)" x="-60" y="-60" width="56" height="56" rx="2.8" ry="2.8" fill="#fecd38"/><path d="M27.024 14c-2.756 0-4.99 2.239-4.99 5s2.235 5 4.99 5 4.99-2.239 4.99-5-2.235-5-4.99-5zm-3.991 12c-.807 0-1.534.485-1.844 1.23l-4.99 10c-1.103 2.494 2.693 4.08 3.684 1.54l2.214-5.32-.07.55v14c0 1.108.89 2 1.996 2h.008a1.993 1.993 0 0 0 1.995-2l-.008-8h1.996l.008 8c.001 1.108.89 2 1.996 2a1.993 1.993 0 0 0 1.995-2l-.008-14-.074-.598 2.23 5.368a1.994 1.994 0 0 0 2.853 1.003l3.052-.164c-.026.13-.078.253-.078.391v9a.997.997 0 1 0 1.996 0l-.008-5h2.003l.008 5a.997.997 0 1 0 1.996 0v-7.582l2.28 2.289c.94.982 2.39-.472 1.411-1.414l-3.983-4a.997.997 0 0 0-.706-.293h-3.722l-3.247.043c0-.28-.058-.557-.172-.813l-4.989-10a1.996 1.996 0 0 0-1.84-1.23zm19.949 3.5c-1.923 0-3.493 1.573-3.493 3.5s1.57 3.5 3.493 3.5c1.923 0 3.492-1.573 3.492-3.5s-1.57-3.5-3.492-3.5z" fill="#333"/><path d="M6.8 4C5.25 4 4 5.25 4 6.8v1C4 6.25 5.25 5 6.8 5H57.2c1.55 0 2.8 1.25 2.8 2.8v-1C60 5.25 58.75 4 57.2 4z" fill="#fff" opacity=".2"/><path d="M4 57.199v1c0 1.55 1.25 2.8 2.8 2.8H57.2c1.55 0 2.8-1.25 2.8-2.8v-1c0 1.55-1.25 2.8-2.8 2.8H6.8C5.25 60 4 58.75 4 57.2z" opacity=".2"/></g></svg>