<svg width="256" height="256" version="1.1" viewBox="0 0 256 256" xmlns="http://www.w3.org/2000/svg"><title>wps-office-wpsmain</title><defs><linearGradient id="b" x1="103" x2="103" y1=".717" y2="200.62" gradientTransform="translate(25 25)" gradientUnits="userSpaceOnUse"><stop stop-color="#535CFF" offset="0"/><stop stop-color="#3F4CFF" offset="1"/></linearGradient><linearGradient id="c" x1="51.972" x2="51.972" y1="60.671" y2="150.13" gradientTransform="matrix(1.2297 0 0 .8132 64 64)" gradientUnits="userSpaceOnUse"><stop stop-color="#A2BAFF" offset="0"/><stop stop-color="#93BDFF" offset="1"/></linearGradient><filter id="a" color-interpolation-filters="sRGB"><feFlood flood-color="#000" flood-opacity=".255" result="flood"/><feComposite in="flood" in2="SourceGraphic" operator="in" result="composite1"/><feGaussianBlur in="composite1" result="blur" stdDeviation="5"/><feOffset dx="0" dy="5" result="offset"/><feComposite in="SourceGraphic" in2="offset" result="composite2"/></filter></defs><g filter="url(#a)"><g fill-rule="evenodd"><path d="M31 25h161.73a6 6 0 0 1 3.965 1.497l32.265 28.415a6 6 0 0 1 2.035 4.503v165.59a6 6 0 0 1-6 6h-194a6 6 0 0 1-6-6v-194a6 6 0 0 1 6-6z" fill="url(#b)"/><path d="M231 147.53V59.394a5.333 5.333 0 0 0-1.79-3.986l-32.694-29.062a5.333 5.333 0 0 0-3.543-1.347H30.333a5.333 5.333 0 0 0-5.334 5.333v102.67-100.67a5.333 5.333 0 0 1 5.334-5.333h162.64c1.306 0 2.567.479 3.543 1.347l32.694 29.062a5.333 5.333 0 0 1 1.79 3.986z" fill="#858fff"/><path d="M231 136.43v89.238a5.333 5.333 0 0 1-5.333 5.333H30.337a5.333 5.333 0 0 1-5.334-5.333v-102.67 100.67a5.333 5.333 0 0 0 5.334 5.333h195.33a5.333 5.333 0 0 0 5.333-5.333z" fill="#3e23ff"/></g><path d="M160 190.8l-.043.034-28.277-28.277a5.333 5.333 0 0 0-7.542 0L96 190.695v.635H69.333a5.333 5.333 0 0 1-5.334-5.334V69.666a5.333 5.333 0 0 1 5.334-5.333h21.333a5.333 5.333 0 0 1 5.333 5.333v73.576l28.138-28.138a5.333 5.333 0 0 1 7.543 0l28.319 28.32V69.665a5.333 5.333 0 0 1 5.333-5.333h21.333a5.333 5.333 0 0 1 5.333 5.333v116.33a5.333 5.333 0 0 1-5.333 5.334h-26.667z" fill="#482fff"/><path d="M124.14 113.1l-54.671 54.671 26.395 21.061 28.277-28.277a5.333 5.333 0 0 1 7.542 0l28.277 28.277 26.395-21.061-54.67-54.671a5.333 5.333 0 0 0-7.543 0z" fill="url(#c)"/><path d="M69.333 64.333h21.333a5.333 5.333 0 0 1 5.333 5.333v119.67H69.332A5.333 5.333 0 0 1 64 184.003V69.673a5.333 5.333 0 0 1 5.333-5.333zm96 0h21.333a5.333 5.333 0 0 1 5.333 5.333v114.33a5.333 5.333 0 0 1-5.333 5.334h-26.667V69.66a5.333 5.333 0 0 1 5.333-5.334z" fill="#fff"/><path d="M69.333 66.333h21.333a5.333 5.333 0 0 1 5.333 5.333v117.67H69.332A5.333 5.333 0 0 1 64 184.003V71.673a5.333 5.333 0 0 1 5.333-5.333zm96 0h21.333a5.333 5.333 0 0 1 5.333 5.333v112.33a5.333 5.333 0 0 1-5.333 5.334h-26.667V71.66a5.333 5.333 0 0 1 5.333-5.334z" fill="#ebf1ff"/></g></svg>