<svg width="256" height="256" version="1.1" viewBox="0 0 256 256" xmlns="http://www.w3.org/2000/svg"><title>wps-office-wppmain</title><defs><linearGradient id="b" x1="113" x2="113" y1="6" y2="212" gradientTransform="translate(15 19)" gradientUnits="userSpaceOnUse"><stop stop-color="#FF8767" offset="0"/><stop stop-color="#FF6134" offset="1"/></linearGradient><linearGradient id="c" x1="70.214" x2="23.995" y1="96.017" y2="96.017" gradientTransform="matrix(1.3587 0 0 .73598 64 63)" gradientUnits="userSpaceOnUse"><stop stop-color="#FFD6C2" offset="0"/><stop stop-color="#FFC4B1" offset="1"/></linearGradient><filter id="a" color-interpolation-filters="sRGB"><feFlood flood-color="#000" flood-opacity=".255" result="flood"/><feComposite in="flood" in2="SourceGraphic" operator="in" result="composite1"/><feGaussianBlur in="composite1" result="blur" stdDeviation="5"/><feOffset dx="0" dy="5" result="offset"/><feComposite in="SourceGraphic" in2="offset" result="composite2"/></filter></defs><g filter="url(#a)"><g fill-rule="evenodd"><path d="M31 25h161.73a6 6 0 0 1 3.965 1.497l32.265 28.415a6 6 0 0 1 2.035 4.503v165.59a6 6 0 0 1-6 6h-194a6 6 0 0 1-6-6v-194a6 6 0 0 1 6-6z" fill="url(#b)"/><path d="M231 147.53V59.394a5.333 5.333 0 0 0-1.79-3.986l-32.694-29.062a5.333 5.333 0 0 0-3.543-1.347H30.333a5.333 5.333 0 0 0-5.334 5.333v102.67-100.67a5.333 5.333 0 0 1 5.334-5.333h162.64c1.306 0 2.567.479 3.543 1.347l32.694 29.062a5.333 5.333 0 0 1 1.79 3.986z" fill="#ffa187"/><path d="M231 136.43v89.238a5.333 5.333 0 0 1-5.333 5.333H30.337a5.333 5.333 0 0 1-5.334-5.333v-102.67 100.67a5.333 5.333 0 0 0 5.334 5.333h195.33a5.333 5.333 0 0 0 5.333-5.333z" fill="#f53600"/></g><path d="M96 135.67v17.333h64v-32 4h-58.667A5.333 5.333 0 0 1 96 119.67v-17.334a5.333 5.333 0 0 1 5.333-5.334h53.333a5.333 5.333 0 0 1 5.333 5.334v50.667h26.667a5.333 5.333 0 0 0 5.334-5.334V74.336a5.333 5.333 0 0 0-5.334-5.333H69.336a5.333 5.333 0 0 0-5.333 5.333v113.33A5.333 5.333 0 0 0 69.336 193H90.67a5.333 5.333 0 0 0 5.334-5.334z" fill="#f53600"/><path d="M160 119v32H96v-34.667 1.333a5.333 5.333 0 0 0 5.333 5.334H160z" fill="url(#c)"/><path d="M154.67 95h-53.333a5.333 5.333 0 0 0-5.333 5.333v85.333A5.333 5.333 0 0 1 90.67 191H69.337a5.333 5.333 0 0 1-5.333-5.334V68.336a5.333 5.333 0 0 1 5.333-5.333h117.33a5.333 5.333 0 0 1 5.334 5.333v77.333a5.333 5.333 0 0 1-5.334 5.334H160v-50.667a5.333 5.333 0 0 0-5.333-5.334z" fill="#fff"/><path d="M154.67 95h-53.333a5.333 5.333 0 0 0-5.333 5.333v85.333A5.333 5.333 0 0 1 90.67 191H69.337a5.333 5.333 0 0 1-5.333-5.334V70.336a5.333 5.333 0 0 1 5.333-5.333h117.33a5.333 5.333 0 0 1 5.334 5.333v75.333a5.333 5.333 0 0 1-5.334 5.334H160v-50.667a5.333 5.333 0 0 0-5.333-5.334z" fill="#fff0ec"/></g></svg>