<svg width="256" height="256" version="1.1" viewBox="0 0 256 256" xmlns="http://www.w3.org/2000/svg"><title>wps-office-etmain</title><defs><linearGradient id="b" x1="113" x2="113" y1="6" y2="212" gradientTransform="translate(15 19)" gradientUnits="userSpaceOnUse"><stop stop-color="#92CF00" offset="0"/><stop stop-color="#57AC00" offset="1"/></linearGradient><linearGradient id="c" x1="75.333" x2="25.997" y1="82.606" y2="82.606" gradientTransform="matrix(1.3009 0 0 .76871 63 63)" gradientUnits="userSpaceOnUse"><stop stop-color="#F5F5F5" offset="0"/><stop stop-color="#A1E37D" offset="1"/></linearGradient><filter id="a" color-interpolation-filters="sRGB"><feFlood flood-color="#000" flood-opacity=".255" result="flood"/><feComposite in="flood" in2="SourceGraphic" operator="in" result="composite1"/><feGaussianBlur in="composite1" result="blur" stdDeviation="5"/><feOffset dx="0" dy="5" result="offset"/><feComposite in="SourceGraphic" in2="offset" result="composite2"/></filter></defs><g filter="url(#a)"><g fill-rule="evenodd"><path d="M31 25h161.73a6 6 0 0 1 3.965 1.497l32.265 28.415a6 6 0 0 1 2.035 4.503v165.59a6 6 0 0 1-6 6h-194a6 6 0 0 1-6-6v-194a6 6 0 0 1 6-6z" fill="url(#b)"/><path d="M231 147.53V59.394a5.333 5.333 0 0 0-1.79-3.986l-32.694-29.062a5.333 5.333 0 0 0-3.543-1.347H30.333a5.333 5.333 0 0 0-5.334 5.333v102.67-100.67a5.333 5.333 0 0 1 5.334-5.333h162.64c1.306 0 2.567.479 3.543 1.347l32.694 29.062a5.333 5.333 0 0 1 1.79 3.986z" fill="#9af300"/><path d="M231 136.43v89.238a5.333 5.333 0 0 1-5.333 5.333H30.337a5.333 5.333 0 0 1-5.334-5.333v-102.67 100.67a5.333 5.333 0 0 0 5.334 5.333h195.33a5.333 5.333 0 0 0 5.333-5.333z" fill="#4b9000"/></g><path d="M95 146v-37h.01a5.32 5.32 0 0 0 5.31 5H160v-2.5V148h-.165c-.587-2.3-2.672-4-5.155-4H95zm92.68 47H68.32a5.32 5.32 0 0 1-5.32-5.32v-18.36a5.32 5.32 0 0 1 5.32-5.32h87.36a5.32 5.32 0 0 0 5.32-5.32V114h26.68a5.32 5.32 0 0 1 5.32 5.32v68.36a5.32 5.32 0 0 1-5.32 5.32zM95 99.32V144H68.32a5.32 5.32 0 0 1-5.32-5.32V70.32A5.32 5.32 0 0 1 68.32 65h119.36a5.32 5.32 0 0 1 5.32 5.32v18.36a5.32 5.32 0 0 1-5.32 5.32h-87.36A5.32 5.32 0 0 0 95 99.32z" fill="#58aa00"/><path d="M95 144v-37h.01a5.32 5.32 0 0 0 5.31 5H161v-2.5V146h-.438c-.587-2.3-2.672-4-5.155-4H95z" fill="url(#c)"/><path d="M187.68 191H68.32a5.32 5.32 0 0 1-5.32-5.32v-18.36a5.32 5.32 0 0 1 5.32-5.32h87.36a5.32 5.32 0 0 0 5.32-5.32V112h26.68a5.32 5.32 0 0 1 5.32 5.32v68.36a5.32 5.32 0 0 1-5.32 5.32zM95 97.32V142H68.32a5.32 5.32 0 0 1-5.32-5.32V68.32A5.32 5.32 0 0 1 68.32 63h119.36a5.32 5.32 0 0 1 5.32 5.32v18.36a5.32 5.32 0 0 1-5.32 5.32h-87.36A5.32 5.32 0 0 0 95 97.32z" fill="#fff"/><path d="M187.68 191H68.32a5.32 5.32 0 0 1-5.32-5.32v-16.36a5.32 5.32 0 0 1 5.32-5.32h87.36a5.32 5.32 0 0 0 5.32-5.32V114h26.68a5.32 5.32 0 0 1 5.32 5.32v66.36a5.32 5.32 0 0 1-5.32 5.32zM95 98.32V142H68.32a5.32 5.32 0 0 1-5.32-5.32V70.32A5.32 5.32 0 0 1 68.32 65h119.36a5.32 5.32 0 0 1 5.32 5.32v17.36a5.32 5.32 0 0 1-5.32 5.32h-87.36A5.32 5.32 0 0 0 95 98.32z" fill="#f7ffed"/></g></svg>