<?xml version="1.0" encoding="UTF-8" standalone="no"?>
<svg
   xmlns:osb="http://www.openswatchbook.org/uri/2009/osb"
   xmlns:dc="http://purl.org/dc/elements/1.1/"
   xmlns:cc="http://creativecommons.org/ns#"
   xmlns:rdf="http://www.w3.org/1999/02/22-rdf-syntax-ns#"
   xmlns:svg="http://www.w3.org/2000/svg"
   xmlns="http://www.w3.org/2000/svg"
   xmlns:sodipodi="http://sodipodi.sourceforge.net/DTD/sodipodi-0.dtd"
   xmlns:inkscape="http://www.inkscape.org/namespaces/inkscape"
   height="16.000008"
   id="svg7384"
   style="enable-background:new"
   version="1.1"
   width="16.000002"
   sodipodi:docname="applications-graphics-symbolic.svg"
   inkscape:version="0.92.5 (2060ec1f9f, 2020-04-08)">
  <sodipodi:namedview
     pagecolor="#ffffff"
     bordercolor="#666666"
     borderopacity="1"
     objecttolerance="10"
     gridtolerance="10"
     guidetolerance="10"
     inkscape:pageopacity="0"
     inkscape:pageshadow="2"
     inkscape:window-width="1366"
     inkscape:window-height="703"
     id="namedview24"
     showgrid="true"
     inkscape:zoom="10.42982"
     inkscape:cx="-8.5122719"
     inkscape:cy="-2.2257646"
     inkscape:window-x="0"
     inkscape:window-y="0"
     inkscape:window-maximized="1"
     inkscape:current-layer="svg7384">
    <inkscape:grid
       type="xygrid"
       id="grid867" />
  </sodipodi:namedview>
  <metadata
     id="metadata90">
    <rdf:RDF>
      <cc:Work
         rdf:about="">
        <dc:format>image/svg+xml</dc:format>
        <dc:type
           rdf:resource="http://purl.org/dc/dcmitype/StillImage" />
        <dc:title>Pop Symbolic Icon Theme</dc:title>
        <cc:license
           rdf:resource="http://creativecommons.org/licenses/by-sa/4.0/" />
      </cc:Work>
      <cc:License
         rdf:about="http://creativecommons.org/licenses/by-sa/4.0/">
        <cc:permits
           rdf:resource="http://creativecommons.org/ns#Reproduction" />
        <cc:permits
           rdf:resource="http://creativecommons.org/ns#Distribution" />
        <cc:requires
           rdf:resource="http://creativecommons.org/ns#Notice" />
        <cc:requires
           rdf:resource="http://creativecommons.org/ns#Attribution" />
        <cc:permits
           rdf:resource="http://creativecommons.org/ns#DerivativeWorks" />
        <cc:requires
           rdf:resource="http://creativecommons.org/ns#ShareAlike" />
      </cc:License>
    </rdf:RDF>
  </metadata>
  <title
     id="title8473">Pop Symbolic Icon Theme</title>
  <defs
     id="defs7386">
    <linearGradient
       id="linearGradient6882"
       osb:paint="solid">
      <stop
         id="stop6884"
         offset="0"
         style="stop-color:#555555;stop-opacity:1;" />
    </linearGradient>
    <linearGradient
       id="linearGradient5606"
       osb:paint="solid">
      <stop
         id="stop5608"
         offset="0"
         style="stop-color:#000000;stop-opacity:1;" />
    </linearGradient>
    <filter
       id="filter7554"
       style="color-interpolation-filters:sRGB">
      <feBlend
         id="feBlend7556"
         in2="BackgroundImage"
         mode="darken" />
    </filter>
  </defs>
  <g
     id="g882">
    <path
       inkscape:connector-curvature="0"
       id="path851"
       d="M 7.1210938,0.00585938 C 6.1686452,0.01803083 5.0585435,0.17499964 4.140625,0.61328125 3.2227065,1.0515629 2.4699034,1.8542949 2.4941406,3 2.5066682,3.5913951 2.7170621,4.0570702 3.0351562,4.3613281 3.3532504,4.6655861 3.742038,4.8102436 4.0957031,4.90625 c 0.3536652,0.096006 0.6866002,0.1489299 0.9003907,0.2148438 0.1068952,0.032957 0.1803889,0.068936 0.2089843,0.089844 0.028595,0.020908 0.014814,0.00837 0.015625,0.011719 L 5.4101562,6.0019531 5.9316406,5.3945312 c -0.025716,0.029862 0.021276,-0.00789 0.085937,-0.074219 l 0.011719,-0.011719 C 6.178379,5.1631598 6.3403617,5.0314264 6.5214844,4.859375 l 0.00586,-0.00586 0.00586,-0.00586 C 6.7919437,4.5817396 7.069264,4.3281957 7.359375,4.046875 8.3148842,3.1203526 8.3013906,3.1093934 10.576172,1.5410156 L 11.126953,1.1601562 10.541016,0.83984375 C 9.5859304,0.31767974 8.4840859,0.03487105 7.515625,0.00585938 c -0.1318049,-0.00450006 -0.2745083,-0.00155655 -0.3945312,0 z m 0.00977,0.82226562 c 0.1224068,-0.001587 0.2596547,-0.003338 0.3574218,0 h 0.00195 C 8.0990395,0.84636265 8.7936498,1.1129176 9.4570312,1.3710938 8.2199815,2.2412266 7.5504783,2.7149264 6.7851562,3.4570312 6.5052492,3.7284572 6.2231822,3.987807 5.9433594,4.2753906 5.8579851,4.3558391 5.755983,4.447883 5.6601562,4.5332031 5.5239088,4.4401446 5.3815073,4.3781425 5.2382812,4.3339844 4.9308937,4.2392136 4.6070969,4.1912998 4.3125,4.1113281 4.0179031,4.0313564 3.7671245,3.9240705 3.6035156,3.7675781 3.4399068,3.6110858 3.3253795,3.4060279 3.3164062,2.9824219 3.299486,2.1825957 3.748096,1.7126177 4.4960938,1.3554688 5.2440915,0.99831978 6.2651301,0.83918826 7.1308594,0.828125 Z"
       style="color:#000000;font-style:normal;font-variant:normal;font-weight:normal;font-stretch:normal;font-size:medium;line-height:normal;font-family:sans-serif;font-variant-ligatures:normal;font-variant-position:normal;font-variant-caps:normal;font-variant-numeric:normal;font-variant-alternates:normal;font-feature-settings:normal;text-indent:0;text-align:start;text-decoration:none;text-decoration-line:none;text-decoration-style:solid;text-decoration-color:#000000;letter-spacing:normal;word-spacing:normal;text-transform:none;writing-mode:lr-tb;direction:ltr;text-orientation:mixed;dominant-baseline:auto;baseline-shift:baseline;text-anchor:start;white-space:normal;shape-padding:0;clip-rule:nonzero;display:inline;overflow:visible;visibility:visible;opacity:1;isolation:auto;mix-blend-mode:normal;color-interpolation:sRGB;color-interpolation-filters:linearRGB;solid-color:#000000;solid-opacity:1;vector-effect:none;fill:#303030;fill-opacity:1;fill-rule:nonzero;stroke:none;stroke-width:0.82246923;stroke-linecap:butt;stroke-linejoin:miter;stroke-miterlimit:4;stroke-dasharray:none;stroke-dashoffset:0;stroke-opacity:1;color-rendering:auto;image-rendering:auto;shape-rendering:auto;text-rendering:auto;enable-background:accumulate" />
    <path
       inkscape:connector-curvature="0"
       id="path849"
       d="m 5,2.0000076 c 0.5522815,0 1,0.4477161 1,1.0000033 0,0.5522872 -0.4477185,0.9999967 -1,0.9999967 -0.5522881,0 -1,-0.4477095 -1,-0.9999967 C 4,2.4477237 4.4477119,2.0000076 5,2.0000076 Z"
       style="fill:#303030;fill-opacity:1;stroke:none;stroke-width:0.66732866" />
    <path
       inkscape:connector-curvature="0"
       id="path847"
       d="M 13.009766,2.7460938 12.703125,3.2226562 C 11.4102,5.232833 10.558186,6.4006542 9.6757812,7.296875 9.0718352,7.9102674 8.5847666,8.5090473 8.1914062,8.90625 l -0.00391,0.00391 -0.00195,0.00195 C 7.4308815,9.7027194 6.4282178,10.65012 5.3183594,11.691406 l -0.1523438,0.142578 0.00977,0.208985 c 0.032132,0.736158 0.24801,1.478658 0.7871094,2.078125 0.5390995,0.599467 1.3707968,1.031885 2.5507813,1.257812 C 10.42132,15.744158 12.393888,15.306952 13.851562,14.125 15.309237,12.943048 16.223849,11.004845 16.023438,8.5117188 15.848478,6.3352899 14.667989,4.420154 13.408203,3.1484375 Z m 0.07422,1.484375 c 0.996171,1.1368947 1.895277,2.6640138 2.03125,4.3554687 C 15.295411,10.827335 14.50902,12.422804 13.279297,13.419922 12.049574,14.41704 10.347149,14.80447 8.6855469,14.486328 7.6376063,14.285683 7.0133296,13.92833 6.6386719,13.511719 6.3029284,13.138379 6.1906074,12.673433 6.1425781,12.160156 c 1.0181323,-0.956242 1.9685,-1.852251 2.6953125,-2.613281 l 0.00195,-0.00195 C 9.2864532,9.0936813 9.7582283,8.51039 10.324219,7.9355469 11.161753,7.0848998 12.02221,5.8457401 13.083984,4.2304688 Z"
       style="color:#000000;font-style:normal;font-variant:normal;font-weight:normal;font-stretch:normal;font-size:medium;line-height:normal;font-family:sans-serif;font-variant-ligatures:normal;font-variant-position:normal;font-variant-caps:normal;font-variant-numeric:normal;font-variant-alternates:normal;font-feature-settings:normal;text-indent:0;text-align:start;text-decoration:none;text-decoration-line:none;text-decoration-style:solid;text-decoration-color:#000000;letter-spacing:normal;word-spacing:normal;text-transform:none;writing-mode:lr-tb;direction:ltr;text-orientation:mixed;dominant-baseline:auto;baseline-shift:baseline;text-anchor:start;white-space:normal;shape-padding:0;clip-rule:nonzero;display:inline;overflow:visible;visibility:visible;opacity:1;isolation:auto;mix-blend-mode:normal;color-interpolation:sRGB;color-interpolation-filters:linearRGB;solid-color:#000000;solid-opacity:1;vector-effect:none;fill:#303030;fill-opacity:1;fill-rule:nonzero;stroke:none;stroke-width:0.90982437;stroke-linecap:butt;stroke-linejoin:miter;stroke-miterlimit:4;stroke-dasharray:none;stroke-dashoffset:0;stroke-opacity:1;color-rendering:auto;image-rendering:auto;shape-rendering:auto;text-rendering:auto;enable-background:accumulate" />
    <path
       inkscape:connector-curvature="0"
       id="path845"
       d="m 12.999995,6.0003476 c 0.549798,0 1.000005,0.44764 1.000005,0.99983 0,0.55218 -0.450207,0.99983 -1.000005,0.99983 -0.549788,0 -0.999995,-0.44765 -0.999995,-0.99983 0,-0.55219 0.450207,-0.99983 0.999995,-0.99983 z"
       style="fill:#303030;fill-opacity:1;stroke:none;stroke-width:1.00090873" />
    <path
       inkscape:connector-curvature="0"
       id="path843"
       d="m 13.000005,9.0003576 c 0.549788,0 0.999995,0.44764 0.999995,0.9998304 0,0.55218 -0.450207,0.99982 -0.999995,0.99982 C 12.450207,11.000008 12,10.552368 12,10.000188 12,9.4479976 12.450207,9.0003576 13.000005,9.0003576 Z"
       style="fill:#303030;fill-opacity:1;stroke:none;stroke-width:1.00090873" />
    <path
       inkscape:connector-curvature="0"
       id="path841"
       d="M 8.000005,11.000348 C 8.5497929,11.000348 9,11.447998 9,12.000178 9,12.552368 8.5497929,13.000008 8.000005,13.000008 7.4502071,13.000008 7,12.552368 7,12.000178 c 0,-0.55218 0.4502071,-0.99983 1.000005,-0.99983 z"
       style="fill:#303030;fill-opacity:1;stroke:none;stroke-width:1.00090873" />
    <path
       inkscape:connector-curvature="0"
       id="path9234"
       d="m 11,11.000348 c 0.549795,0 1,0.44765 1,0.99983 0,0.55219 -0.450205,0.99983 -1,0.99983 -0.549795,0 -1,-0.44764 -1,-0.99983 0,-0.55218 0.450205,-0.99983 1,-0.99983 z"
       style="fill:#303030;fill-opacity:1;stroke:none;stroke-width:1.00090623" />
    <path
       d="m 0,13.49915 c 1.55209,6e-4 1.39367,-1.78749 2.14726,-2.28535 0.87328,-0.57692 1.63857,0.13795 1.79136,0.72627 0.19279,0.74234 -0.11685,1.63129 -1.12998,1.8846 C 1.73528,14.09303 0.14696,14.101 0,13.49915 Z"
       id="path9274"
       style="fill:#303030;fill-opacity:1;stroke:none;stroke-width:0.51800233"
       inkscape:connector-curvature="0" />
    <path
       d="M 14.03703,0.00274 C 12.23738,1.30154 9.83069,3.30458 7.92215,5.33624 7.74891,5.52066 7.5815,5.69859 7.41783,5.88327 7.31437,5.99115 7.20606,6.07915 7.10263,6.19098 7.03733,6.26768 6.97678,6.35377 6.91351,6.4303 5.04045,8.50046 3.19379,11.11096 1.99639,13.063 4.97368,10.76563 6.91242,8.89825 8.14279,7.59274 8.38319,7.34687 8.67208,7.02638 8.99382,6.66963 10.19743,5.33507 11.91901,3.23215 14.03703,0.00274 Z"
       id="path9264"
       style="fill:#303030;fill-opacity:1;stroke:none"
       inkscape:connector-curvature="0" />
  </g>
</svg>
