<?xml version="1.0" encoding="UTF-8" standalone="no"?>
<svg
   xmlns:osb="http://www.openswatchbook.org/uri/2009/osb"
   xmlns:dc="http://purl.org/dc/elements/1.1/"
   xmlns:cc="http://creativecommons.org/ns#"
   xmlns:rdf="http://www.w3.org/1999/02/22-rdf-syntax-ns#"
   xmlns:svg="http://www.w3.org/2000/svg"
   xmlns="http://www.w3.org/2000/svg"
   xmlns:sodipodi="http://sodipodi.sourceforge.net/DTD/sodipodi-0.dtd"
   xmlns:inkscape="http://www.inkscape.org/namespaces/inkscape"
   height="16.000193"
   id="svg7384"
   style="enable-background:new"
   version="1.1"
   width="16"
   sodipodi:docname="applications-engineering-symbolic.svg"
   inkscape:version="0.92.5 (2060ec1f9f, 2020-04-08)">
  <sodipodi:namedview
     pagecolor="#ffffff"
     bordercolor="#666666"
     borderopacity="1"
     objecttolerance="10"
     gridtolerance="10"
     guidetolerance="10"
     inkscape:pageopacity="0"
     inkscape:pageshadow="2"
     inkscape:window-width="1366"
     inkscape:window-height="703"
     id="namedview23"
     showgrid="true"
     inkscape:zoom="10.429699"
     inkscape:cx="3.5297186"
     inkscape:cy="-2.2016963"
     inkscape:window-x="0"
     inkscape:window-y="0"
     inkscape:window-maximized="1"
     inkscape:current-layer="svg7384">
    <inkscape:grid
       type="xygrid"
       id="grid830" />
  </sodipodi:namedview>
  <metadata
     id="metadata90">
    <rdf:RDF>
      <cc:Work
         rdf:about="">
        <dc:format>image/svg+xml</dc:format>
        <dc:type
           rdf:resource="http://purl.org/dc/dcmitype/StillImage" />
        <dc:title>Pop Symbolic Icon Theme</dc:title>
        <cc:license
           rdf:resource="http://creativecommons.org/licenses/by-sa/4.0/" />
      </cc:Work>
      <cc:License
         rdf:about="http://creativecommons.org/licenses/by-sa/4.0/">
        <cc:permits
           rdf:resource="http://creativecommons.org/ns#Reproduction" />
        <cc:permits
           rdf:resource="http://creativecommons.org/ns#Distribution" />
        <cc:requires
           rdf:resource="http://creativecommons.org/ns#Notice" />
        <cc:requires
           rdf:resource="http://creativecommons.org/ns#Attribution" />
        <cc:permits
           rdf:resource="http://creativecommons.org/ns#DerivativeWorks" />
        <cc:requires
           rdf:resource="http://creativecommons.org/ns#ShareAlike" />
      </cc:License>
    </rdf:RDF>
  </metadata>
  <title
     id="title8473">Pop Symbolic Icon Theme</title>
  <defs
     id="defs7386">
    <linearGradient
       id="linearGradient6882"
       osb:paint="solid">
      <stop
         id="stop6884"
         offset="0"
         style="stop-color:#555555;stop-opacity:1;" />
    </linearGradient>
    <linearGradient
       id="linearGradient5606"
       osb:paint="solid">
      <stop
         id="stop5608"
         offset="0"
         style="stop-color:#000000;stop-opacity:1;" />
    </linearGradient>
    <filter
       id="filter7554"
       style="color-interpolation-filters:sRGB">
      <feBlend
         id="feBlend7556"
         in2="BackgroundImage"
         mode="darken" />
    </filter>
  </defs>
  <g
     id="layer9"
     style="display:inline;fill:#363636;fill-opacity:1"
     transform="translate(-785.0002,214.00019)" />
  <g
     id="layer1"
     style="display:inline;fill:#363636;fill-opacity:1"
     transform="translate(-544,-402.99981)" />
  <g
     id="layer14"
     style="display:inline;fill:#363636;fill-opacity:1"
     transform="translate(-785.0002,214.00019)" />
  <g
     id="layer15"
     style="display:inline;fill:#363636;fill-opacity:1"
     transform="translate(-785.0002,214.00019)" />
  <g
     id="g71291"
     style="display:inline;fill:#363636;fill-opacity:1"
     transform="translate(-785.0002,214.00019)" />
  <path
     inkscape:connector-curvature="0"
     style="color:#000000;font-style:normal;font-variant:normal;font-weight:normal;font-stretch:normal;font-size:medium;line-height:normal;font-family:Sans;-inkscape-font-specification:Sans;text-indent:0;text-align:start;text-decoration:none;text-decoration-line:none;letter-spacing:normal;word-spacing:normal;text-transform:none;writing-mode:lr-tb;direction:ltr;text-anchor:start;display:inline;overflow:visible;visibility:visible;fill:#363636;fill-opacity:1;fill-rule:nonzero;stroke:none;stroke-width:3.0031631;marker:none;enable-background:accumulate"
     d="m 11.023438,2.0001926 c -0.345547,0.1335002 -0.690652,0.3038398 -0.978516,0.5371094 -1.3778253,1.1164632 -1.3948358,2.955835 -0.03906,4.1074218 0.283262,0.240595 0.623941,0.4201312 0.966797,0.5625 0.0057,0.00231 0.0022,1.0727565 0.0059,1.5898438 A 6,6 0 0 1 14,14.000193 a 6,6 0 0 1 -0.08984,1 h 0.0918 L 14,7.2638645 c 0.345537,-0.1335002 0.667204,-0.3233812 0.955078,-0.5566407 1.377816,-1.1164632 1.394836,-2.9538817 0.03906,-4.1054687 -0.283263,-0.2405949 -0.623931,-0.4201412 -0.966797,-0.5625 l -0.02149,2.2363281 C 14.000859,4.7352178 13.554039,5.006052 13,5.006052 H 12 C 11.446021,4.999042 10.997492,4.6961554 11.001953,4.2365207 Z"
     id="path3908-6" />
  <g
     id="layer3"
     transform="translate(-544,-512.99981)"
     style="fill:#363636;fill-opacity:1" />
  <g
     id="layer12"
     style="display:inline;fill:#363636;fill-opacity:1"
     transform="translate(-785.0002,214.00019)" />
  <path
     inkscape:connector-curvature="0"
     style="fill:#363636;fill-opacity:1;stroke:none;stroke-width:1.84178078;stroke-miterlimit:4;stroke-dasharray:none;stroke-opacity:1;paint-order:stroke markers fill"
     d="M 8,9.0001926 A 5,5 0 0 0 3.1054688,13.000193 H 1.4824219 C 1.2151742,13.000193 1,13.225232 1,13.504099 v 0.992188 c 0,0.278867 0.2151742,0.503906 0.4824219,0.503906 H 14.517578 C 14.784826,15.000193 15,14.775154 15,14.496287 v -0.992188 c 0,-0.278867 -0.215174,-0.503906 -0.482422,-0.503906 h -1.61914 A 5,5 0 0 0 8,9.0001926 Z m 0,1.0000004 a 4,4 0 0 1 3.869141,3 H 4.1328125 A 4,4 0 0 1 8,10.000193 Z"
     id="rect839" />
</svg>
