<svg width="16" height="16" version="1" xmlns="http://www.w3.org/2000/svg">
<path d="m3.25 0c-0.70297 0-1.25 0.60711-1.25 1.3027v13.395c0 0.69569 0.54719 1.3027 1.25 1.3027h9.5c0.70272 0 1.25-0.60698 1.25-1.3027v-13.395c0-0.69564-0.54706-1.3027-1.25-1.3027zm0 1h9.5c0.12754 0 0.25 0.1083 0.25 0.30273v13.395c0 0.19486-0.12224 0.30273-0.25 0.30273h-9.5c-0.12823 0-0.25-0.1078-0.25-0.30273v-13.395c0-0.19471 0.1223-0.30273 0.25-0.30273z" color="#000000" color-rendering="auto" dominant-baseline="auto" fill="#303030" image-rendering="auto" shape-rendering="auto" solid-color="#000000" style="font-feature-settings:normal;font-variant-alternates:normal;font-variant-caps:normal;font-variant-ligatures:normal;font-variant-numeric:normal;font-variant-position:normal;isolation:auto;mix-blend-mode:normal;shape-padding:0;text-decoration-color:#000000;text-decoration-line:none;text-decoration-style:solid;text-indent:0;text-orientation:mixed;text-transform:none;white-space:normal"/>
<g transform="translate(0 -.5)" fill="#303030">
<path d="m4 4.5v1h8v-1h-8z"/>
<path d="m4 6.5v1h8v-1h-8z"/>
<path d="m4 8.5v1h8v-1h-8z"/>
<path d="m4 10.5v1h8v-1h-8z"/>
<path d="m4 12.5v1h8v-1h-8z"/>
</g>
</svg>
