<?xml version="1.0" encoding="UTF-8" standalone="no"?>
<svg
   xmlns:osb="http://www.openswatchbook.org/uri/2009/osb"
   xmlns:dc="http://purl.org/dc/elements/1.1/"
   xmlns:cc="http://creativecommons.org/ns#"
   xmlns:rdf="http://www.w3.org/1999/02/22-rdf-syntax-ns#"
   xmlns:svg="http://www.w3.org/2000/svg"
   xmlns="http://www.w3.org/2000/svg"
   xmlns:sodipodi="http://sodipodi.sourceforge.net/DTD/sodipodi-0.dtd"
   xmlns:inkscape="http://www.inkscape.org/namespaces/inkscape"
   height="16.000259"
   id="svg7384"
   style="enable-background:new"
   version="1.1"
   width="16"
   sodipodi:docname="applications-science-symbolic.svg"
   inkscape:version="0.92.5 (2060ec1f9f, 2020-04-08)">
  <sodipodi:namedview
     pagecolor="#ffffff"
     bordercolor="#666666"
     borderopacity="1"
     objecttolerance="10"
     gridtolerance="10"
     guidetolerance="10"
     inkscape:pageopacity="0"
     inkscape:pageshadow="2"
     inkscape:window-width="1366"
     inkscape:window-height="703"
     id="namedview23"
     showgrid="true"
     inkscape:zoom="14.749761"
     inkscape:cx="-6.4128638"
     inkscape:cy="8.0121186"
     inkscape:window-x="0"
     inkscape:window-y="0"
     inkscape:window-maximized="1"
     inkscape:current-layer="svg7384">
    <inkscape:grid
       type="xygrid"
       id="grid836" />
  </sodipodi:namedview>
  <metadata
     id="metadata90">
    <rdf:RDF>
      <cc:Work
         rdf:about="">
        <dc:format>image/svg+xml</dc:format>
        <dc:type
           rdf:resource="http://purl.org/dc/dcmitype/StillImage" />
        <dc:title>Pop Symbolic Icon Theme</dc:title>
        <cc:license
           rdf:resource="http://creativecommons.org/licenses/by-sa/4.0/" />
      </cc:Work>
      <cc:License
         rdf:about="http://creativecommons.org/licenses/by-sa/4.0/">
        <cc:permits
           rdf:resource="http://creativecommons.org/ns#Reproduction" />
        <cc:permits
           rdf:resource="http://creativecommons.org/ns#Distribution" />
        <cc:requires
           rdf:resource="http://creativecommons.org/ns#Notice" />
        <cc:requires
           rdf:resource="http://creativecommons.org/ns#Attribution" />
        <cc:permits
           rdf:resource="http://creativecommons.org/ns#DerivativeWorks" />
        <cc:requires
           rdf:resource="http://creativecommons.org/ns#ShareAlike" />
      </cc:License>
    </rdf:RDF>
  </metadata>
  <title
     id="title8473">Pop Symbolic Icon Theme</title>
  <defs
     id="defs7386">
    <linearGradient
       id="linearGradient6882"
       osb:paint="solid">
      <stop
         id="stop6884"
         offset="0"
         style="stop-color:#555555;stop-opacity:1;" />
    </linearGradient>
    <linearGradient
       id="linearGradient5606"
       osb:paint="solid">
      <stop
         id="stop5608"
         offset="0"
         style="stop-color:#000000;stop-opacity:1;" />
    </linearGradient>
    <filter
       id="filter7554"
       style="color-interpolation-filters:sRGB">
      <feBlend
         id="feBlend7556"
         in2="BackgroundImage"
         mode="darken" />
    </filter>
  </defs>
  <g
     id="layer9"
     style="display:inline"
     transform="translate(-765.0002,215.00026)" />
  <g
     id="layer10"
     style="display:inline;filter:url(#filter7554)"
     transform="translate(-765.0002,215.00026)" />
  <g
     id="layer1"
     style="display:inline"
     transform="translate(-524,-401.99974)" />
  <g
     id="layer14"
     style="display:inline"
     transform="translate(-765.0002,215.00026)" />
  <g
     id="layer15"
     style="display:inline"
     transform="translate(-765.0002,215.00026)" />
  <g
     id="g71291"
     style="display:inline"
     transform="translate(-765.0002,215.00026)" />
  <path
     style="color:#000000;font-style:normal;font-variant:normal;font-weight:normal;font-stretch:normal;font-size:medium;line-height:normal;font-family:sans-serif;font-variant-ligatures:normal;font-variant-position:normal;font-variant-caps:normal;font-variant-numeric:normal;font-variant-alternates:normal;font-feature-settings:normal;text-indent:0;text-align:start;text-decoration:none;text-decoration-line:none;text-decoration-style:solid;text-decoration-color:#000000;letter-spacing:normal;word-spacing:normal;text-transform:none;writing-mode:lr-tb;direction:ltr;text-orientation:mixed;dominant-baseline:auto;baseline-shift:baseline;text-anchor:start;white-space:normal;shape-padding:0;clip-rule:nonzero;display:inline;overflow:visible;visibility:visible;opacity:1;isolation:auto;mix-blend-mode:normal;color-interpolation:sRGB;color-interpolation-filters:linearRGB;solid-color:#000000;solid-opacity:1;vector-effect:none;fill:#303030;fill-opacity:1;fill-rule:nonzero;stroke:none;stroke-width:1.00461447;stroke-linecap:round;stroke-linejoin:round;stroke-miterlimit:4;stroke-dasharray:none;stroke-dashoffset:0;stroke-opacity:1;color-rendering:auto;image-rendering:auto;shape-rendering:auto;text-rendering:auto;enable-background:accumulate"
     d="m 4.4998667,2.0002133 c -0.277,0 -0.5,0.223 -0.5,0.5 0,0.277 0.223,0.5 0.5,0.5 H 6.0115855 V 5.6349789 C 6.0117417,5.7429315 5.9785423,5.849061 5.9158823,5.9357602 5.8423863,6.0372596 5.8199153,6.0826454 5.7244761,6.2384945 5.6290361,6.3943438 5.5034477,6.6009175 5.3690073,6.8341977 5.1032971,7.295267 4.7699732,7.8869806 4.4100229,8.5353695 3.6902423,9.8319145 2.8613967,11.357914 2.2147107,12.549041 c -0.303902,0.559714 -0.312692,1.311778 0.152344,1.882813 a 0.50235747,0.50235747 0 0 0 0.00195,0.002 c 0.0052,0.0063 0.010725,0.01297 0.015625,0.01953 0.302214,0.41755 0.810556,0.546875 1.4374996,0.546875 h 7.3554697 c 0.626943,0 1.135282,-0.129089 1.4375,-0.546875 0.0049,-0.0066 0.01042,-0.01323 0.01563,-0.01953 a 0.50235747,0.50235747 0 0 0 0.002,-0.002 c 0.465009,-0.571022 0.456219,-1.323086 0.152343,-1.882813 -8.33e-4,-0.0018 -0.0011,-0.004 -0.002,-0.0059 a 0.50235747,0.50235747 0 0 0 -0.0078,-0.01563 C 11.638779,10.188097 10.267443,8.2901222 9.0858042,5.8576352 9.0521099,5.7882258 9.0349975,5.7125266 9.0350229,5.6349789 V 3.0002133 h 1.4648441 c 0.277,0 0.5,-0.223 0.5,-0.5 0,-0.277 -0.223,-0.5 -0.5,-0.5 H 8.5330698 6.5135386 Z m 2.5175781,1.0039062 h 1.0136719 v 2.6308594 c -7.53e-5,0.2294951 0.050169,0.4556562 0.1503906,0.6621094 1.2246648,2.5210598 2.6014297,4.4260987 3.6914067,6.6699217 0.0071,0.01548 0.01386,0.03164 0.02148,0.04687 a 0.50235747,0.50235747 0 0 0 0.0078,0.01563 c 0.176148,0.324457 0.196406,0.468834 -0.04687,0.767578 -0.01762,0.02142 -0.03437,0.04209 -0.05078,0.06445 a 0.50235747,0.50235747 0 0 0 -0.002,0.0039 c 0.01309,-0.0181 -0.169905,0.13086 -0.625,0.13086 H 3.8221323 c -0.4550958,0 -0.638023,-0.148851 -0.625,-0.13086 a 0.50235747,0.50235747 0 0 0 -0.00195,-0.0039 C 3.1787652,13.839181 3.162018,13.818508 3.1443979,13.797088 2.9011027,13.498335 2.9213707,13.35394 3.0975229,13.02951 3.7439835,11.838797 4.5725256,10.314112 5.2889292,9.0236508 5.6470613,8.3785366 5.9786291,7.7898656 6.2401011,7.3361508 6.3692519,7.112049 6.4888048,6.9107604 6.5799448,6.7619321 6.6710848,6.6131036 6.7772786,6.4588218 6.7303355,6.5236508 6.9173608,6.264873 7.0179069,5.9542696 7.0174448,5.6349789 Z"
     id="path29274-9-1"
     inkscape:connector-curvature="0" />
  <g
     id="layer3"
     transform="translate(-524,-511.99974)" />
  <g
     id="layer12"
     style="display:inline"
     transform="translate(-765.0002,215.00026)" />
</svg>
