<svg xmlns="http://www.w3.org/2000/svg" xmlns:xlink="http://www.w3.org/1999/xlink" height="24" width="24">
    <defs>
        <linearGradient id="a">
            <stop stop-color="#fce080" offset="0"/>
            <stop stop-color="#fee69d" offset="1"/>
        </linearGradient>
        <linearGradient y2="13" x2="-30" y1="35.868" x1="-30" gradientTransform="matrix(1.3 0 0 1.3 73.6 6.6)" gradientUnits="userSpaceOnUse" id="b" xlink:href="#a"/>
    </defs>
    <path d="M12.6 6.964L12.5 4C11 2.384 11.036 2 9.537 2H1.89C.69 2 .052 2.652.036 3.954L0 6.964" fill="#ecc359"/>
    <path d="M9.9 56C7.3 56 6 54.7 6 52.1V22.075l20.635.055c3.198.009 3.198-.82 6.448-4.046H54.1c2.6 0 3.9.692 3.9 3.292V52.1c0 2.6-1.3 3.9-3.9 3.9z" fill="url(#b)" transform="matrix(.46154 0 0 .50111 -2.77 -5.062)"/>
    <path d="M.135 22c.236.664.788 1 1.666 1h20.398c.878 0 1.43-.336 1.666-1z" fill-opacity=".392"/>
                <g transform="translate(4 7)">
            <g fill="#6f5f34" color="#6f5f34">
        <path d="M5 6v1H4v1h1v1h1V8h1V7H6V6zm5.5-.1a.6.6 0 0 0-.6.6.6.6 0 0 0 .6.6.6.6 0 0 0 .6-.6.6.6 0 0 0-.6-.6zm-1 1a.6.6 0 0 0-.6.6.6.6 0 0 0 .6.6.6.6 0 0 0 .6-.6.6.6 0 0 0-.6-.6zm2 0a.6.6 0 0 0-.6.6.6.6 0 0 0 .6.6.6.6 0 0 0 .6-.6.6.6 0 0 0-.6-.6zm-1 1a.6.6 0 0 0-.6.6.6.6 0 0 0 .6.6.6.6 0 0 0 .6-.6.6.6 0 0 0-.6-.6z"/>
        <path d="M4 4a2 4 0 0 0-2 4v2.5a1.5 1.5 0 0 0 2.56 1.06l.944-.943A1.5 1.5 0 0 0 6.5 11 1.5 1.5 0 0 0 8 9.5a1.5 1.5 0 0 0 2.498 1.12l.941.94A1.5 1.5 0 0 0 14 10.5V8a2 4 0 0 0-2-4zm0 1h8a1 3 0 0 1 1 3v2.5a.5.5 0 0 1-.854.354L10.293 9H10v.5a.5.5 0 0 1-1 0V9H7v.5a.5.5 0 0 1-1 0V9h-.293l-1.853 1.854A.5.5 0 0 1 3 10.5V8a1 3 0 0 1 1-3z"/>
    </g>

    </g>
</svg>
