<svg width="16" height="16" version="1.1" viewBox="0 0 16 16" xmlns="http://www.w3.org/2000/svg">
<title>Android-phone-normal-16px</title>
<path d="m8 1c-2.0417 0-3.2252 0.25101-3.9355 0.53516-0.35519 0.14208-0.59299 0.2951-0.75 0.42969-0.078507 0.067292-0.13546 0.12979-0.17773 0.18359-0.042273 0.053802-0.083984 0.12891-0.083984 0.12891a0.50005 0.50005 0 0 0-0.052734 0.22266v1 9 1a0.50005 0.50005 0 0 0 0.052734 0.22266s0.041711 0.075101 0.083984 0.12891c0.042273 0.053801 0.099227 0.1163 0.17773 0.18359 0.15701 0.13458 0.39481 0.28761 0.75 0.42969 0.71038 0.28415 1.8939 0.53516 3.9355 0.53516 2.0417 0 3.2252-0.251 3.9355-0.53516 0.35519-0.14208 0.59298-0.2951 0.75-0.42969 0.07851-0.06729 0.13546-0.12979 0.17773-0.18359 0.04227-0.0538 0.083985-0.12891 0.083985-0.12891a0.50005 0.50005 0 0 0 0.052734-0.22266v-1-9-1a0.50005 0.50005 0 0 0-0.052734-0.22266s-0.041705-0.075104-0.083985-0.12891c-0.04227-0.053802-0.09923-0.1163-0.17773-0.18359-0.15702-0.13458-0.39481-0.28761-0.75-0.42969-0.71038-0.28415-1.8939-0.53516-3.9355-0.53516zm0 1c1.9583 0 3.0248 0.24899 3.5645 0.46484 0.25087 0.10035 0.36792 0.18527 0.43555 0.24023v0.29492h-8v-0.29492c0.067629-0.054962 0.18468-0.13989 0.43555-0.24023 0.53962-0.21585 1.6061-0.46484 3.5645-0.46484zm-4 2h8v8h-8v-8zm0 9h8v0.29492c-0.06763 0.05496-0.18468 0.13989-0.43555 0.24023-0.53962 0.21585-1.6061 0.46484-3.5645 0.46484s-3.0248-0.249-3.5645-0.46484c-0.25087-0.10035-0.36792-0.18527-0.43555-0.24023v-0.29492z" color="#000000" color-rendering="auto" dominant-baseline="auto" fill="#808080" fill-rule="evenodd" image-rendering="auto" shape-rendering="auto" solid-color="#000000" style="font-feature-settings:normal;font-variant-alternates:normal;font-variant-caps:normal;font-variant-ligatures:normal;font-variant-numeric:normal;font-variant-position:normal;isolation:auto;mix-blend-mode:normal;shape-padding:0;text-decoration-color:#000000;text-decoration-line:none;text-decoration-style:solid;text-indent:0;text-orientation:mixed;text-transform:none;white-space:normal"/>
</svg>
