<svg width="16px" height="16px" version="1.1" viewBox="0 0 16 16" xmlns="http://www.w3.org/2000/svg">
<title>audio-volume-high</title>
<desc>Created with Sketch.</desc>
<polygon points="16 0 0 0 0 16 16 16" opacity="0"/>
<polygon points="4.5086 10.504 7.5086 13.504 7.5086 2.5035 4.5086 5.5035 1.5086 5.5035 1.5086 10.504" fill="#808080" fill-rule="evenodd" stroke="#fff" stroke-linejoin="round"/>
<g fill="#808080" fill-rule="evenodd" shape-rendering="auto">
<path d="m9.4922 5.9922a0.50005 0.50005 0 0 0-0.49219 0.50781v3a0.50005 0.50005 0 1 0 1 0v-3a0.50005 0.50005 0 0 0-0.50781-0.50781z" color="#000000" color-rendering="auto" dominant-baseline="auto" image-rendering="auto" solid-color="#000000" style="font-feature-settings:normal;font-variant-alternates:normal;font-variant-caps:normal;font-variant-ligatures:normal;font-variant-numeric:normal;font-variant-position:normal;isolation:auto;mix-blend-mode:normal;shape-padding:0;text-decoration-color:#000000;text-decoration-line:none;text-decoration-style:solid;text-indent:0;text-orientation:mixed;text-transform:none;white-space:normal"/>
<path d="m11.492 4.9922a0.50005 0.50005 0 0 0-0.49219 0.50781v5a0.50005 0.50005 0 1 0 1 0v-5a0.50005 0.50005 0 0 0-0.50781-0.50781z" color="#000000" color-rendering="auto" dominant-baseline="auto" image-rendering="auto" solid-color="#000000" style="font-feature-settings:normal;font-variant-alternates:normal;font-variant-caps:normal;font-variant-ligatures:normal;font-variant-numeric:normal;font-variant-position:normal;isolation:auto;mix-blend-mode:normal;shape-padding:0;text-decoration-color:#000000;text-decoration-line:none;text-decoration-style:solid;text-indent:0;text-orientation:mixed;text-transform:none;white-space:normal"/>
<path d="m13.492 3.9922a0.50005 0.50005 0 0 0-0.49219 0.50781v7a0.50005 0.50005 0 1 0 1 0v-7a0.50005 0.50005 0 0 0-0.50781-0.50781z" color="#000000" color-rendering="auto" dominant-baseline="auto" image-rendering="auto" solid-color="#000000" style="font-feature-settings:normal;font-variant-alternates:normal;font-variant-caps:normal;font-variant-ligatures:normal;font-variant-numeric:normal;font-variant-position:normal;isolation:auto;mix-blend-mode:normal;shape-padding:0;text-decoration-color:#000000;text-decoration-line:none;text-decoration-style:solid;text-indent:0;text-orientation:mixed;text-transform:none;white-space:normal"/>
</g>
</svg>
