<svg id="SVGRoot" width="16px" height="16px" version="1.1" viewBox="0 0 16 16" xmlns="http://www.w3.org/2000/svg">
<path d="m7.5527 0.54102a0.50005 0.50005 0 0 0-0.29297 0.11133 0.50005 0.50005 0 0 0-0.26953 0.44531l0.029297 6.0449-4.6387-2.7969a0.50005 0.50005 0 0 0-0.28711-0.076172 0.50005 0.50005 0 0 0-0.22852 0.93164l4.6562 2.8066-4.6504 2.6992a0.50015 0.50015 0 0 0 0.50195 0.86524l4.6191-2.6836 0.029297 5.8125a0.50005 0.50005 0 0 0 0.083984 0.2832 0.50005 0.50005 0 0 0 0.23047 0.18555 0.50005 0.50005 0 0 0 0.0058594 0.001953 0.50015 0.50015 0 0 0 0.49023-0.005859l5.3809-3.125a0.50005 0.50005 0 0 0 0.23242-0.54883 0.50015 0.50015 0 0 0-0.25-0.54688l-3.6875-2-1.5059-0.9082a0.50005 0.50005 0 0 0-0.060547-0.25781l5.2715-3.0605a0.50005 0.50005 0 0 0 0.23242-0.54883 0.50015 0.50015 0 0 0-0.25-0.54688l-3.6875-2-1.668-1.0059a0.50005 0.50005 0 0 0-0.28711-0.076172zm0.43945 1.3965 1.0332 0.56055 2.9551 1.7812-3.9648 2.3008-0.023438-4.6426zm0 7.3203 1.0078 0.54688 2.9805 1.7969-3.9648 2.3008-0.023438-4.6445z" color="#000000" color-rendering="auto" dominant-baseline="auto" fill="#808080" image-rendering="auto" shape-rendering="auto" solid-color="#000000" style="font-feature-settings:normal;font-variant-alternates:normal;font-variant-caps:normal;font-variant-ligatures:normal;font-variant-numeric:normal;font-variant-position:normal;isolation:auto;mix-blend-mode:normal;shape-padding:0;text-decoration-color:#000000;text-decoration-line:none;text-decoration-style:solid;text-indent:0;text-orientation:mixed;text-transform:none;white-space:normal"/>
</svg>
