<svg width="16px" height="16px" version="1.1" viewBox="0 0 16 16" xmlns="http://www.w3.org/2000/svg">
<title>user-bookmarks-symbolic</title>
<desc>Created with Sketch.</desc>
<g id="camera-on" transform="translate(-4 -4)" fill="#808080">
<g transform="translate(6,5)" fill="#808080" stroke-width="1.0002">
<path id="Path" d="m1 13h10c0-0.10861-0.03883-0.34159-0.14443-0.55279-0.14871-0.29742-0.3734-0.44721-0.85557-0.44721h-0.6875c-0.99005 0-1.3781-1.2846-0.55367-1.8327 1.3888-0.9234 2.2412-2.4742 2.2412-4.1673 0-2.7614-2.2386-5-5-5s-5 2.2386-5 5c0 1.6931 0.85232 3.2439 2.2412 4.1673 0.82445 0.54816 0.43638 1.8327-0.55367 1.8327h-0.6875c-0.48217 0-0.70686 0.14979-0.85557 0.44721-0.1056 0.21119-0.14443 0.44417-0.14443 0.55279zm1.6875-2c-0.75461-0.64935-1.1319-0.97402-1.1319-0.97402-0.96547-1.0646-1.5556-2.4767-1.5556-4.026 0-3.3137 2.6863-6 6-6s6 2.6863 6 6c0 1.5493-0.59011 2.9614-1.5556 4.026 0 0-0.37731 0.32467-1.1319 0.97402 0.97081 0.08029 1.4562 0.12043 1.4562 0.12043 1.2313 0.43219 1.2313 1.8796 1.2313 1.8796v1h-12v-1s0-1.4474 1.2313-1.8796c0 0 0.4854-0.04014 1.4562-0.12043z"/>
<path d="m6 4.0039c1.1046 0 2 0.89543 2 2s-0.89543 2-2 2-2-0.89543-2-2 0.89543-2 2-2zm0 2.9961c0.55228 0 1-0.44772 1-1s-0.44772-1-1-1-1 0.44772-1 1 0.44772 1 1 1z"/>
</g>
</g>
</svg>
