<svg enable-background="new 0 0 16 16" version="1.1" viewBox="0 0 16 16" xml:space="preserve" xmlns="http://www.w3.org/2000/svg"><g fill="#808080">
<path d="m8.005 11.985c3.027 0 5.491-2.467 5.491-5.498s-2.464-5.498-5.491-5.498-5.491 2.467-5.491 5.498 2.464 5.498 5.491 5.498zm0-9.896c2.422 0 4.392 1.973 4.392 4.398s-1.97 4.398-4.392 4.398-4.391-1.972-4.391-4.398 1.97-4.398 4.391-4.398z"/><path d="m13.487 14.297c-0.389-0.874-0.982-1.781-1.74-2.39-1.084 0.689-2.365 1.094-3.742 1.094-1.382 0-2.669-0.408-3.756-1.103-0.869 0.664-1.364 1.521-1.756 2.398-0.147 0.332-0.189 0.704 0.459 0.704 1.069 0 3.054-1 5.054-1s4.016 1 5.023 1c0.363 0 0.606-0.371 0.458-0.703z"/><path d="m8.005 9.487c1.657 0 3-1.343 3-3s-1.343-3-3-3c-0.532 0-1.027 0.148-1.46 0.391 2e-3 0 4e-3 -1e-3 7e-3 -1e-3 0.656 0 1.188 0.532 1.188 1.188s-0.532 1.188-1.188 1.188c-0.647 0-1.169-0.519-1.183-1.163-0.224 0.418-0.364 0.889-0.364 1.397 0 1.657 1.344 3 3 3z"/>
</g></svg>
