<svg width="16" height="16" enable-background="new" version="1.1" xmlns="http://www.w3.org/2000/svg">
<title>Pop Symbolic Icon Theme</title>
<g transform="translate(-4,-4.004)" fill="#808080">
<path d="m9.414 7.004-1 1h-1.414c-0.482 0-0.707 0.15-0.856 0.447a1.403 1.403 0 0 0-0.144 0.553v7c0 0.482 0.15 0.707 0.447 0.855 0.211 0.106 0.444 0.145 0.553 0.145h10c0.482 0 0.707-0.15 0.856-0.447 0.105-0.212 0.144-0.444 0.144-0.553v-7c0-0.482-0.15-0.707-0.447-0.856a1.403 1.403 0 0 0-0.553-0.144h-1.414l-1-1zm-0.414-1h6l1 1h1s2 0 2 2v7s0 2-2 2h-10s-2 0-2-2v-7s0-2 2-2h1z"/>
<path d="m12 9.004a3 3 0 1 1 0 6 3 3 0 0 1 0-6zm0 4.996a2 2 0 1 0 0-4 2 2 0 0 0 0 4z"/>
</g>
</svg>
