<svg width="16" height="16" version="1.1" viewBox="0 0 16 16" xmlns="http://www.w3.org/2000/svg">
<title>drive_harddisk_usb_symbolic_normal_16px</title>
<path d="m6.9961 2c-1.0991 0-2 0.90215-2 2.002 2.497e-4 0.37469 0.14014 0.694 0.31055 0.98438l-1.1602 1.1602a0.50005 0.50005 0 0 0-0.10547 0.55078l1.3672 3.1875-0.70898 0.70898a0.50005 0.50005 0 0 0-0.0058594 0.003906 0.50005 0.50005 0 0 0-0.10352 0.10547l-0.60547 0.60547c-0.29116-0.17131-0.61227-0.30859-0.98828-0.30859-1.0991 0-2 0.90215-2 2.002 5.797e-4 0.86957 0.54604 1.5602 1.2363 1.8457 0.69032 0.2855 1.5631 0.18144 2.1777-0.43359 0.61462-0.61503 0.71955-1.4896 0.43359-2.1797-0.033526-0.08091-0.12169-0.12882-0.16602-0.20508l0.47656-0.47656 3.7246 0.93164a0.50005 0.50005 0 0 0 0.47461-0.13086l1.7891-1.7891 0.50781 0.50781a0.50005 0.50005 0 0 0 0.70703 0l1.707-1.707a0.50005 0.50005 0 0 0 0-0.70703l-1.707-1.707a0.50005 0.50005 0 0 0-0.70703 0l-1.7051 1.707a0.50005 0.50005 0 0 0 0 0.70703l0.49023 0.49219-1.5898 1.5879-2.8672-0.7168 0.31445-0.31445a0.50005 0.50005 0 0 0 0.10742-0.10547 0.50005 0.50005 0 0 0 0.0058594-0.007813l5.5938-5.5937 1.1465 1.1465a0.50005 0.50005 0 0 0 0.85352-0.35352v-3a0.50005 0.50005 0 0 0-0.5-0.5h-3a0.50005 0.50005 0 0 0-0.35352 0.85352l1.1465 1.1465-5.125 5.125-1.0742-2.5117 0.93164-0.93164c0.076775 0.044648 0.12554 0.13231 0.20703 0.16602 0.69032 0.2855 1.5631 0.18144 2.1777-0.43359 0.61462-0.61503 0.71955-1.4896 0.43359-2.1797s-0.97805-1.2344-1.8477-1.2344zm0 1c0.46664 1e-7 0.77726 0.26345 0.92383 0.61719s0.11299 0.75987-0.2168 1.0898c-0.32979 0.33001-0.73605 0.36313-1.0898 0.2168-0.35331-0.14612-0.61611-0.45638-0.61719-0.92188v-0.0019531c0.00103-0.5613 0.43974-1 1-1zm4.7109 0h1.293v1.293l-0.58203-0.58008a0.50005 0.50005 0 0 0-0.00586-0.0078125 0.50005 0.50005 0 0 0-0.11523-0.11523l-0.58984-0.58984zm0.29688 5.0117 1 1-1 1-0.99805-1 0.99805-1zm-9.0078 3.9883c0.46664 0 0.77726 0.26345 0.92383 0.61719 0.14657 0.35373 0.11299 0.75987-0.2168 1.0898-0.32979 0.33001-0.73605 0.36313-1.0898 0.2168-0.35331-0.14612-0.61611-0.45638-0.61719-0.92188v-0.001953c0.00103-0.5613 0.43974-1 1-1z" fill="#808080" style="font-feature-settings:normal;font-variant-alternates:normal;font-variant-caps:normal;font-variant-ligatures:normal;font-variant-numeric:normal;font-variant-position:normal;isolation:auto;mix-blend-mode:normal;shape-padding:0;text-decoration-color:#000000;text-decoration-line:none;text-decoration-style:solid;text-indent:0;text-orientation:mixed;text-transform:none;white-space:normal"/>
</svg>
