<svg enable-background="new 0 0 16 16" version="1.1" viewBox="0 0 16 16" xml:space="preserve" xmlns="http://www.w3.org/2000/svg"><g fill="#808080">
<path d="m2 1v14h12v-14zm11 13h-10v-12h10z"/><rect x="4" y="12" width="8" height="1"/><path d="m5.485 10.103c0.708 0.571 1.599 0.886 2.508 0.886 1.217 0 2.353-0.544 3.116-1.491 1.384-1.717 1.112-4.239-0.605-5.624-0.708-0.572-1.599-0.886-2.508-0.886-1.217 0-2.353 0.544-3.116 1.491-0.67 0.832-0.977 1.875-0.862 2.936 0.114 1.063 0.635 2.017 1.467 2.688zm3.137-3.894c0.208 0.168 0.338 0.407 0.367 0.672 0.029 0.266-0.049 0.527-0.217 0.735-0.335 0.417-0.987 0.488-1.405 0.15-0.208-0.167-0.339-0.406-0.367-0.671s0.048-0.526 0.216-0.734c0.19-0.236 0.476-0.373 0.78-0.373 0.23 0 0.446 0.077 0.626 0.221zm1.708 2.662c-0.762 0.946-2.072 1.294-3.206 0.97l0.289-0.945c0.187 0.057 0.383 0.093 0.581 0.093 0.608 0 1.176-0.272 1.557-0.745 0.336-0.416 0.489-0.938 0.433-1.469-0.029-0.262-0.108-0.511-0.229-0.736l0.879-0.474c0.555 1.03 0.476 2.338-0.304 3.306zm-4.671-3.765c0.572-0.71 1.424-1.118 2.337-1.118 0.295 0 0.579 0.05 0.854 0.132-0.081 0.27-0.181 0.607-0.287 0.963-0.753-0.207-1.624 0.027-2.126 0.651-0.335 0.415-0.489 0.937-0.431 1.468 0.029 0.263 0.108 0.513 0.23 0.739l-0.88 0.477c-0.183-0.34-0.302-0.714-0.344-1.109-0.086-0.797 0.144-1.579 0.647-2.203z"/>
</g></svg>
