<svg width="16" height="16" version="1.1" viewBox="0 0 16 16" xmlns="http://www.w3.org/2000/svg">
<defs>
<style id="current-color-scheme" type="text/css">.ColorScheme-Text { color:#444444; } .ColorScheme-Highlight { color:#5294e2; }</style>
</defs>
<path d="m2.0355 8.009c-1.517 1.517-1.2795 4.2172 0.23754 5.7342 1.518 1.518 4.2172 1.7545 5.7342 0.23754l2.5066-2.5066 0.0083 0.0083 4.302-4.302a0.676 0.676 0 0 0-0.0041-0.95432l-5.0133-5.0133a0.673 0.673 0 0 0-0.46818-0.20026 0.673 0.673 0 0 0-0.48475 0.19749l-4.0631 4.0631-0.00967-0.00967zm0.78583 0.62839 6.2065-6.2065c0.16319-0.16319 0.42514-0.16319 0.58833-3e-7l3.9775 3.9775c0.16319 0.16319 0.16319 0.42514 0 0.58833l-6.2065 6.2065c-0.16319 0.16319-0.42514 0.16319-0.58834 0l-3.9775-3.9775c-0.16319-0.16319-0.16319-0.42514 0-0.58833zm-0.67534 1.156 4.0603 4.0603c-1.018 0.374-2.3836-0.02745-3.1986-0.84245-0.817-0.817-1.2358-2.2009-0.86179-3.2179z" fill="#808080" fill-rule="evenodd"/>
</svg>
