<svg width="16" height="16" enable-background="new" version="1.1" xmlns="http://www.w3.org/2000/svg" xmlns:osb="http://www.openswatchbook.org/uri/2009/osb">
<title>Pop Symbolic Icon Theme</title>
<g fill="#808080">
<path d="m8.5 5.0312c-1.3807 0-2.5 1.1193-2.5 2.5s1.1193 2.5 2.5 2.5 2.5-1.1193 2.5-2.5-1.1193-2.5-2.5-2.5zm0 1c0.82843 0 1.5 0.67157 1.5 1.5s-0.67157 1.5-1.5 1.5-1.5-0.67157-1.5-1.5 0.67157-1.5 1.5-1.5z"/>
<rect x="7" y="11.031" width="3" height="1"/>
<rect x="7" y="13.031" width="3" height="1"/>
<rect transform="rotate(-45)" x="-.81498" y="4.8358" width="3" height="1"/>
<rect transform="rotate(-45)" x="-.81498" y="6.8358" width="3" height="1"/>
<rect transform="rotate(45)" x="9.8358" y="-7.1851" width="3" height="3"/>
</g>
</svg>
