<svg width="16" height="16" version="1" xmlns="http://www.w3.org/2000/svg">
<g fill="#808080" shape-rendering="auto">
<path d="m4.252 1.0352c-0.00146-3.9e-6 -0.00244 0.00196-0.00391 0.00195-2.3433-0.00388-4.257 1.9062-4.252 4.25v0.00195l0.0097656 1.7754c0.00111-0.03989-0.0078125-0.00776-0.0078125 0.099609 0 0.12122 0.0103 0.15149 0.0078125 0.091797l0.019531 5.6699 0.0078125-0.08398c-0.14721 0.86701 0.19975 1.6886 0.89648 2.0039 0.69673 0.3153 1.5913 1.19e-4 2.2422-0.87305l0.00195-0.0039 1.8477-2.5547h5.9551l1.8496 2.5547 2e-3 0.0039c0.65088 0.87321 1.5475 1.1886 2.2441 0.87305 0.69668-0.31558 1.0431-1.1388 0.89648-2.0059l0.0059 0.08594 0.01953-5.6895v-0.00195c0 0.073222 0.0078 0.05091 0.0078-0.070312 0-0.12171-0.01027-0.14929-0.0078-0.085937 5.5e-5 0.00143-7e-5 -0.00348 0-0.00195l0.0078-1.7871c0.0043219-2.344-1.908-4.257-4.252-4.252h-7.0938zm-0.013672 1.002h7.5137c1.8021-0.00385 3.2534 1.4479 3.25 3.25l-0.0078 1.8203v0.013672c0.0051 0.11331 0.0078 0.12142 0.0078 0.042969 0-0.073222-0.0078-0.05091-0.0078 0.070312l-0.01953 5.7305 0.0078 0.04297c0.08842 0.52298-0.1224 0.83436-0.32422 0.92578-0.20115 0.09112-0.54383 0.08573-1.0234-0.55469v-2e-3c-0.0012-0.0016-0.0027-3.17e-4 -0.0039-2e-3l-2.1445-2.9608h-6.9746l-2.1465 2.9648c-0.47964 0.64046-0.82259 0.64753-1.0234 0.55664-0.20152-0.091195-0.41106-0.40475-0.32227-0.92774l0.00586-0.04101-0.019531-5.7422v-0.00977c-0.00449-0.10769-0.007813-0.124-0.007813-0.050781 0 0.05146 0.004251 0.03331 0.007813-0.066406v-0.00977l-0.0097664-1.8027c-0.003853-1.7997 1.4438-3.2473 3.2422-3.248z" color="#000000" color-rendering="auto" dominant-baseline="auto" image-rendering="auto" solid-color="#000000" style="font-feature-settings:normal;font-variant-alternates:normal;font-variant-caps:normal;font-variant-ligatures:normal;font-variant-numeric:normal;font-variant-position:normal;isolation:auto;mix-blend-mode:normal;shape-padding:0;text-decoration-color:#000000;text-decoration-line:none;text-decoration-style:solid;text-indent:0;text-orientation:mixed;text-transform:none;white-space:normal"/>
<path d="m2.7871 3.0566v4.4004h2.4004v-4.4004zm0.40039 0.40039h1.5996v3.5996h-1.5996z" color="#000000" color-rendering="auto" dominant-baseline="auto" image-rendering="auto" solid-color="#000000" style="font-feature-settings:normal;font-variant-alternates:normal;font-variant-caps:normal;font-variant-ligatures:normal;font-variant-numeric:normal;font-variant-position:normal;isolation:auto;mix-blend-mode:normal;shape-padding:0;text-decoration-color:#000000;text-decoration-line:none;text-decoration-style:solid;text-indent:0;text-orientation:mixed;text-transform:none;white-space:normal"/>
<path d="m1.7871 4.0566h4.4004v2.4004h-4.4004zm0.40039 0.40039v1.5996h3.5996v-1.5996z" color="#000000" color-rendering="auto" dominant-baseline="auto" image-rendering="auto" solid-color="#000000" style="font-feature-settings:normal;font-variant-alternates:normal;font-variant-caps:normal;font-variant-ligatures:normal;font-variant-numeric:normal;font-variant-position:normal;isolation:auto;mix-blend-mode:normal;shape-padding:0;text-decoration-color:#000000;text-decoration-line:none;text-decoration-style:solid;text-indent:0;text-orientation:mixed;text-transform:none;white-space:normal"/>
<path d="m12.01 2.8613c-0.5223 0-0.94922 0.42887-0.94922 0.95117s0.42692 0.94922 0.94922 0.94922c0.5223 0 0.95117-0.42692 0.95117-0.94922s-0.42887-0.95117-0.95117-0.95117zm0 0.40039c0.30612 0 0.55078 0.24466 0.55078 0.55078s-0.24466 0.54883-0.55078 0.54883c-0.30613 0-0.54883-0.2427-0.54883-0.54883 0-0.30613 0.2427-0.55078 0.54883-0.55078zm1.4375 1.0059c-0.5223 0-0.95117 0.42887-0.95117 0.95117s0.42887 0.94922 0.95117 0.94922c0.5223 0 0.94922-0.42692 0.94922-0.94922s-0.42692-0.95117-0.94922-0.95117zm-2.9609 0.033203c-0.5223 0-0.94922 0.42692-0.94922 0.94922s0.42692 0.94922 0.94922 0.94922c0.5223 0 0.95117-0.42692 0.95117-0.94922s-0.42887-0.94922-0.95117-0.94922zm2.9609 0.36719c0.30612 0 0.54883 0.24466 0.54883 0.55078s-0.2427 0.54883-0.54883 0.54883c-0.30613 0-0.55078-0.2427-0.55078-0.54883s0.24466-0.55078 0.55078-0.55078zm-2.9609 0.03125c0.30613 0 0.55078 0.24466 0.55078 0.55078s-0.24466 0.55078-0.55078 0.55078c-0.30612 1e-7 -0.54883-0.24466-0.54883-0.55078s0.2427-0.55078 0.54883-0.55078zm1.5254 1.0762c-0.5223 0-0.95117 0.42887-0.95117 0.95117s0.42887 0.94922 0.95117 0.94922c0.5223 0 0.94922-0.42692 0.94922-0.94922s-0.42692-0.95117-0.94922-0.95117zm0 0.40039c0.30612 0 0.54883 0.24466 0.54883 0.55078s-0.2427 0.54883-0.54883 0.54883c-0.30613 0-0.55078-0.2427-0.55078-0.54883s0.24466-0.55078 0.55078-0.55078z" color="#000000" color-rendering="auto" dominant-baseline="auto" image-rendering="auto" solid-color="#000000" style="font-feature-settings:normal;font-variant-alternates:normal;font-variant-caps:normal;font-variant-ligatures:normal;font-variant-numeric:normal;font-variant-position:normal;isolation:auto;mix-blend-mode:normal;shape-padding:0;text-decoration-color:#000000;text-decoration-line:none;text-decoration-style:solid;text-indent:0;text-orientation:mixed;text-transform:none;white-space:normal"/>
</g>
</svg>
