<svg width="16" height="16" version="1.1" viewBox="0 0 16 16" xmlns="http://www.w3.org/2000/svg">
<title>iphone-normal-16px</title>
<path d="m4.498 1c-0.82197-4.1e-7 -1.4989 0.67803-1.498 1.5v11c0 0.82132 0.67612 1.498 1.498 1.498h7.0039c0.82142 0 1.498-0.67612 1.498-1.498v-11c8.24e-4 -0.82197-0.67608-1.498-1.498-1.498h-6.9687a0.50005 0.50005 0 0 0-0.035156-0.0019531zm-0.00195 1.002a0.50005 0.50005 0 0 0 0.00195 0h7.0039c0.28117-1e-7 0.49833 0.21687 0.49805 0.49805v11c0 0.28207-0.21746 0.49805-0.49805 0.49805h-7.0039c-0.28207 0-0.49805-0.21537-0.49805-0.49805v-11.002c-2.806e-4 -0.28007 0.21653-0.4944 0.49609-0.49609z" color="#000000" color-rendering="auto" dominant-baseline="auto" fill="#808080" fill-rule="evenodd" image-rendering="auto" shape-rendering="auto" solid-color="#000000" style="font-feature-settings:normal;font-variant-alternates:normal;font-variant-caps:normal;font-variant-ligatures:normal;font-variant-numeric:normal;font-variant-position:normal;isolation:auto;mix-blend-mode:normal;shape-padding:0;text-decoration-color:#000000;text-decoration-line:none;text-decoration-style:solid;text-indent:0;text-orientation:mixed;text-transform:none;white-space:normal"/>
<path d="m3.5 3a0.50005 0.50005 0 0 0-0.5 0.5v9a0.50005 0.50005 0 0 0 0.5 0.5h4a0.50005 0.50005 0 1 0 0 1h1a0.50031 0.50031 0 0 0 0.035156-1h3.9648a0.50005 0.50005 0 0 0 0.5-0.5v-9a0.50005 0.50005 0 0 0-0.5-0.5zm0.5 1h8v8h-8z" color="#000000" color-rendering="auto" dominant-baseline="auto" fill="#808080" fill-rule="evenodd" image-rendering="auto" shape-rendering="auto" solid-color="#000000" style="font-feature-settings:normal;font-variant-alternates:normal;font-variant-caps:normal;font-variant-ligatures:normal;font-variant-numeric:normal;font-variant-position:normal;isolation:auto;mix-blend-mode:normal;shape-padding:0;text-decoration-color:#000000;text-decoration-line:none;text-decoration-style:solid;text-indent:0;text-orientation:mixed;text-transform:none;white-space:normal"/>
</svg>
