<svg width="16px" height="16px" version="1.1" viewBox="0 0 16 16" xmlns="http://www.w3.org/2000/svg">
<title>folder-recent-symbolic</title>
<desc>Created with Sketch.</desc>
<g fill="#808080">
<path id="Combined-Shape" d="m8 15c-3.866 0-7-3.134-7-7s3.134-7 7-7 7 3.134 7 7-3.134 7-7 7zm0-1c3.3137 0 6-2.6863 6-6s-2.6863-6-6-6-6 2.6863-6 6 2.6863 6 6 6z"/>
<path d="m8 5c-0.95833 0-1.7397 0.37738-2.248 0.94922-0.5083 0.57184-0.75195 1.3147-0.75195 2.0508s0.24365 1.4789 0.75195 2.0508c0.5083 0.57184 1.2897 0.94922 2.248 0.94922s1.7397-0.37738 2.248-0.94922c0.5083-0.57184 0.75195-1.3147 0.75195-2.0508s-0.24365-1.4789-0.75195-2.0508c-0.5083-0.57184-1.2897-0.94922-2.248-0.94922zm0 1c0.70833 0 1.1769 0.24762 1.502 0.61328 0.32503 0.36566 0.49805 0.87283 0.49805 1.3867s-0.17302 1.0211-0.49805 1.3867c-0.32503 0.36566-0.79362 0.61328-1.502 0.61328s-1.1769-0.24762-1.502-0.61328c-0.32503-0.36566-0.49805-0.87283-0.49805-1.3867s0.17302-1.0211 0.49805-1.3867c0.32503-0.36566 0.79362-0.61328 1.502-0.61328z" color="#000000" color-rendering="auto" dominant-baseline="auto" image-rendering="auto" shape-rendering="auto" solid-color="#000000" style="font-feature-settings:normal;font-variant-alternates:normal;font-variant-caps:normal;font-variant-ligatures:normal;font-variant-numeric:normal;font-variant-position:normal;isolation:auto;mix-blend-mode:normal;shape-padding:0;text-decoration-color:#000000;text-decoration-line:none;text-decoration-style:solid;text-indent:0;text-orientation:mixed;text-transform:none;white-space:normal"/>
<path d="m8 3c-2.7555 0-5 2.2445-5 5a0.50005 0.50005 0 1 0 1 0c0-2.2151 1.7849-4 4-4a0.50005 0.50005 0 1 0 0-1z" color="#000000" color-rendering="auto" dominant-baseline="auto" image-rendering="auto" shape-rendering="auto" solid-color="#000000" style="font-feature-settings:normal;font-variant-alternates:normal;font-variant-caps:normal;font-variant-ligatures:normal;font-variant-numeric:normal;font-variant-position:normal;isolation:auto;mix-blend-mode:normal;shape-padding:0;text-decoration-color:#000000;text-decoration-line:none;text-decoration-style:solid;text-indent:0;text-orientation:mixed;text-transform:none;white-space:normal"/>
</g>
</svg>
