<svg width="16px" height="16px" version="1.1" viewBox="0 0 16 16" xmlns="http://www.w3.org/2000/svg">
<title>folder-recent-symbolic</title>
<desc>Created with Sketch.</desc>
<g id="folder-recent-symbolic" fill="#808080">
<path id="Combined-Shape" d="m8 15c-3.866 0-7-3.134-7-7s3.134-7 7-7 7 3.134 7 7-3.134 7-7 7zm0-1c3.3137 0 6-2.6863 6-6s-2.6863-6-6-6-6 2.6863-6 6 2.6863 6 6 6z" fill="#808080"/>
</g>
<g transform="translate(13.863 -.041)" fill="none" stroke="#808080" stroke-linecap="round" stroke-linejoin="round">
<path d="m-5.8629 10.541a2.5 2.5 0 1 0 0-5 2.5 2.5 0 0 0 0 5z"/>
<path d="m-5.8629 3.541a4.5 4.5 0 0 0-4.5 4.5"/>
</g>
</svg>
