<?xml version="1.0" encoding="UTF-8"?>
<svg width="16" height="16" version="1.1" viewBox="0 0 16 16" xmlns="http://www.w3.org/2000/svg" xmlns:cc="http://creativecommons.org/ns#" xmlns:dc="http://purl.org/dc/elements/1.1/" xmlns:rdf="http://www.w3.org/1999/02/22-rdf-syntax-ns#">
 <metadata>
  <rdf:RDF>
   <cc:Work rdf:about="">
    <dc:format>image/svg+xml</dc:format>
    <dc:type rdf:resource="http://purl.org/dc/dcmitype/StillImage"/>
    <dc:title/>
   </cc:Work>
  </rdf:RDF>
 </metadata>
 <polygon points="16 0 0 0 0 16 16 16" opacity="0"/>
 <path d="m5.3568 8.515c-0.191 0.027-0.372 0.12-0.503 0.26l-1.19 1.188c-0.161 0.155-0.257 0.373-0.261 0.595v1.206l-2.229 2.2c-0.233 0.233-0.233 0.621 0 0.854 0.235 0.232 0.623 0.232 0.857 0l2.227-2.218h1.192c0.221-6e-3 0.44-0.101 0.595-0.261l1.19-1.188c0.307-0.315 0.307-0.874 0-1.188l-1.19-1.188c-0.176-0.182-0.436-0.281-0.688-0.26m5.2861-1.0463c0.19-0.026 0.37-0.12 0.503-0.26l1.189-1.187c0.162-0.156 0.257-0.373 0.261-0.595v-1.206l2.228-2.201c0.234-0.232 0.234-0.621 0-0.854-0.233-0.232-0.622-0.232-0.856 0l-2.228 2.218h-1.19c-0.222 6e-3 -0.441 0.102-0.596 0.262l-1.191 1.187c-0.306 0.315-0.306 0.874 0 1.189l1.191 1.187c0.176 0.183 0.436 0.281 0.689 0.26" fill="#dfdfdf" fill-rule="evenodd"/>
 <path d="m9.5053 10.483 2.995 2.995m4e-4 -2.995-2.995 2.995" fill="none" stroke="#fff" stroke-linecap="round" stroke-width="1.003"/>
</svg>
