<svg width="16" height="16" enable-background="new" version="1.1" xmlns="http://www.w3.org/2000/svg" xmlns:osb="http://www.openswatchbook.org/uri/2009/osb">
<title>Pop Symbolic Icon Theme</title>
<path d="m3 2.002c-2 0-2 2-2 2v8s0 2 2 2h10l2-2v-8c0-2-2-2-2-2zm0.99805 0.99805v2h-2l2e-3 -0.99805c0-1 1-1 1-1zm1 0h2v10h-2zm2.9961 0 1.0059 0.00195s1 0 1 1l-0.005859 0.99805h-2zm-5.9961 3h2v4h-2zm5.9961 0h2v4h-2zm-5.9922 4.998h2v2l-1.002 0.001953c-1 0-1-1-1-1zm5.9961 0h2l0.001953 1.002c0 1-1 1-1 1l-1.002-2e-3z" fill="#808080"/>
</svg>
