<svg width="16" height="16" version="1.1" xmlns="http://www.w3.org/2000/svg">
<path d="m8 0a8 8 0 0 0-0.97266 0.066406l-0.017578 0.039062a8 8 0 0 0-7.0078 7.8867c-3.3561e-4 -0.0033076-0.0015007-0.0064821-0.0019531-0.0097656a8 8 0 0 0 0 0.017578 8 8 0 0 0 0 0.013672 8 8 0 0 0 0 0.023438 8 8 0 0 0 8 8 8 8 0 0 0 7.959-7.2676 8 8 0 0 0 0.001954-0.0058593v-0.0019531a8 8 0 0 0 0.039062-0.72461 8 8 0 0 0-0.011719-0.23438 8 8 0 0 0-0.001953-0.048828 8 8 0 0 0-0.039062-0.59961 8 8 0 0 0-0.013672-0.13281c0.00287 0.023438 0.003174 0.046867 0.005859 0.070312a8 8 0 0 0-5.2559-6.584l0.015625-0.03125a8 8 0 0 0-2.6992-0.47656zm2.6992 0.47656a8 8 0 0 1 2.0293 1.082c-0.39991-0.29751-0.82264-0.57847-1.3047-0.8125v-0.0039062c-0.23147-0.1096-0.46807-0.20802-0.70898-0.29492l-0.015625 0.029297zm2.0293 1.082c0.046858 0.034859 0.098396 0.06618 0.14453 0.10156a8 8 0 0 0-0.14453-0.10156zm3.2051 5.4629c-1e-3 -0.00846-8.49e-4 -0.016932-0.001953-0.025391-0.0049-0.042359-0.010075-0.084681-0.015625-0.12695-0.0054-0.038059-0.017558-0.075275-0.023438-0.11328a8 8 0 0 1 0.041016 0.26562zm-8.9063-6.9551 0.013672-0.029297c-2.2293 0.2653-4.1789 1.4478-5.457 3.1602-0.00139 0.00186-0.0025163 0.0039894-0.0039063 0.0058594-0.13105 0.17589-0.25262 0.3583-0.36914 0.54492-0.019086 0.030471-0.037967 0.061071-0.056641 0.091797-0.10275 0.16962-0.19887 0.34392-0.28906 0.52148-0.025956 0.051806-0.051348 0.10389-0.076172 0.15625-0.079872 0.16611-0.15416 0.33558-0.22266 0.50781-0.027046 0.070591-0.05309 0.14156-0.078125 0.21289-0.057013 0.15622-0.11278 0.31206-0.16016 0.47266-0.013568 0.049169-0.024485 0.099021-0.037109 0.14844a8 8 0 0 1 6.7363-5.793zm-6.7363 5.793c-0.013485 0.052784-0.028611 0.10515-0.041016 0.1582-0.036037 0.14282-0.073325 0.28588-0.10156 0.43164-0.00931 0.053901-0.017186 0.10803-0.025391 0.16211a8 8 0 0 1 0.16797-0.75195zm6.2168-4.6523-3.0801 6.7559h4.2441l-2.0586 4.1309-1.1562-1.3789-0.27344 3.1836a7 7 0 0 1-3.1836-5.8613 7 7 0 0 1 5.5078-6.8301zm3.707 0.19531a7 7 0 0 1 4.7852 6.6348 7 7 0 0 1-7 7 7 7 0 0 1-1.2344-0.11523l2.2383-1.9141-1.9102-0.19922 4.959-6.8457h-4.2207l2.3828-4.5605zm2.8438 0.4043a8 8 0 0 1 1.125 1.1211c-0.21918-0.27755-0.45189-0.54783-0.7207-0.79688-0.0046-0.00456-0.009102-0.0091199-0.013672-0.013672-0.0037-0.00337-0.007999-0.0063956-0.011719-0.0097656-0.11631-0.10681-0.25436-0.19937-0.37891-0.30078zm1.5684 1.7129a8 8 0 0 1 0.38672 0.63086c-0.02696-0.049576-0.048192-0.10124-0.076172-0.15039-0.03681-0.066944-0.07457-0.13336-0.11328-0.19922-0.05898-0.096874-0.13384-0.18638-0.19727-0.28125zm0.43164 0.7207a8 8 0 0 1 0.43359 0.98242c-0.039501-0.10892-0.06694-0.22054-0.11133-0.32812-0.01978-0.044454-0.039957-0.088729-0.060547-0.13281-0.076999-0.17738-0.1706-0.34903-0.26172-0.52148zm-14.949 2.4668c-0.00228 0.016326-0.0056425 0.032488-0.0078125 0.048828-0.023152 0.15054-0.049816 0.29994-0.064453 0.45312-0.00368 0.046161-0.0049425 0.092459-0.0078125 0.13867a8 8 0 0 1 0.080078-0.64062z" fill="#808080" fill-rule="evenodd" style="paint-order:normal"/>
</svg>
