<svg width="32" height="32" version="1.1" viewBox="0 0 32 32" xmlns="http://www.w3.org/2000/svg"><title>accessories-calculator</title><defs><linearGradient id="b" x1="14" x2="14" y1="0" y2="27.3" gradientTransform="translate(2 2)" gradientUnits="userSpaceOnUse"><stop stop-color="#F6F6F6" offset="0"/><stop stop-color="#EAEAEA" offset="1"/></linearGradient><linearGradient id="c" x1="5.5" x2="5.5" y2="11" gradientUnits="userSpaceOnUse"><stop stop-color="#14C4FF" offset="0"/><stop stop-color="#009AFF" offset="1"/></linearGradient><filter id="a" color-interpolation-filters="sRGB"><feFlood flood-color="#000" flood-opacity=".196" result="flood"/><feComposite in="flood" in2="SourceGraphic" operator="in" result="composite1"/><feGaussianBlur in="composite1" result="blur" stdDeviation=".7"/><feOffset dx="0" dy=".7" result="offset"/><feComposite in="SourceGraphic" in2="offset" result="composite2"/></filter></defs><g fill-rule="evenodd" filter="url(#a)"><path d="M2.665 2h26.67c.367 0 .665.298.665.665v26.67a.665.665 0 0 1-.665.665H2.665A.665.665 0 0 1 2 29.335V2.665C2 2.298 2.298 2 2.665 2z" fill="url(#b)"/><g fill="none"><g transform="translate(4 17)"><rect width="11" height="11" rx="1.33" fill="#fff"/><path d="M6.207 5.5l1.414-1.414-.707-.707L5.5 4.793 4.086 3.379l-.707.707L4.793 5.5 3.379 6.914l.707.707L5.5 6.207l1.414 1.414.707-.707z" fill="#000"/></g><g transform="translate(4 4)"><rect width="11" height="11" rx="1.33" fill="#fff"/><path d="M6 5V3H5v2H3v1h2v2h1V6h2V5z" fill="#000"/></g><g transform="translate(17 4)"><rect width="11" height="11" rx="1.33" fill="#fff"/><path fill="#000" d="M3 5h5v1H3z"/></g><g transform="translate(17 17)"><rect width="11" height="11" rx="1.33" fill="url(#c)"/><path d="M3 4h5v1H3zm0 2h5v1H3z" fill="#fff"/></g></g></g></svg>