<svg width="32" height="32" version="1.1" viewBox="0 0 32 32" xmlns="http://www.w3.org/2000/svg"><defs><filter id="a" color-interpolation-filters="sRGB"><feFlood flood-color="#000" flood-opacity=".196" result="flood"/><feComposite in="flood" in2="SourceGraphic" operator="in" result="composite1"/><feGaussianBlur in="composite1" result="blur" stdDeviation=".7"/><feOffset dx="0" dy=".7" result="offset"/><feComposite in="SourceGraphic" in2="offset" result="composite2"/></filter></defs><g filter="url(#a)"><path d="M2 3v22c0 2 2 2 2 2h26zm5 10.871L16.482 22H7z" opacity=".2"/><path d="M2 2v22c0 2 2 2 2 2h26zm5 10.871L16.482 21H7z" fill="#009688"/><path d="M2 2v1l26.834 23H30zm5 19v1h9.482l-1.166-1z" fill="#fff" opacity=".2"/><path d="M14.056 12a1.5 1.5 0 0 1 1.257.77l7.5 13.5L23 30l-2.812-2.27L14 16.59v-4.584c.02 0 .037-.006.056-.006z" fill-rule="evenodd" opacity=".2"/><path d="M14.056 11a1.5 1.5 0 0 1 1.257.77l7.5 13.5L23 29l-2.812-2.27L14 15.59v-4.584c.02 0 .037-.006.056-.006z" fill="#a2a2a2" fill-rule="evenodd"/><path d="M13.944 12a1.5 1.5 0 0 0-1.257.77l-7.5 13.5L5 30l2.812-2.27 1.055-1.896A12 12 0 0 0 14 27a12 12 0 0 0 12-12h-3a9 9 0 0 1-9 9 9 9 0 0 1-3.671-.8l3.67-6.61v-4.584c-.018 0-.036-.006-.055-.006z" opacity=".2"/><path d="M13.944 11a1.5 1.5 0 0 0-1.257.77l-7.5 13.5L5 29l2.812-2.27 1.055-1.896A12 12 0 0 0 14 26a12 12 0 0 0 12-12h-3a9 9 0 0 1-9 9 9 9 0 0 1-3.671-.8l3.67-6.61v-4.584c-.018 0-.036-.006-.055-.006z" fill="#e4e4e4"/><path d="M12 6v3h-1c-2 0-2 2-2 2v5l3.5 3.5c.9.7 2.392.756 3.165-.165L19 16v-5s0-2-2-2h-1V6z" opacity=".2"/><path d="M13.943 11a1.503 1.503 0 0 0-1.256.771l-7.5 13.5L5 29l.052-.043.135-2.686 7.5-13.5A1.503 1.503 0 0 1 13.943 12h.002c.018 0 .036.006.055.006v-1c-.019 0-.037-.005-.055-.006h-.002zM23 14a9 9 0 0 1-9 9 9 9 0 0 1-3.217-.62l-.455.821A9 9 0 0 0 14 24a9 9 0 0 0 9-9h2.953A12 12 0 0 0 26 14h-3z" fill="#fff" opacity=".2"/><path d="M12 5v3h-1c-2 0-2 2-2 2v5l3.5 3.5c.9.7 2.392.756 3.165-.165L19 15v-5s0-2-2-2h-1V5z" fill="#4f4f4f"/><circle cx="14" cy="13" r="2" opacity=".2"/><circle cx="14" cy="12" r="2" fill="#fff"/><path d="M12 5v1h4V5zm-1 3c-2 0-2 2-2 2v1s0-2 2-2h1V8zm5 0v1h1c2 0 2 2 2 2v-1s0-2-2-2z" fill="#fff" opacity=".1"/></g></svg>