<svg width="32" height="32" version="1" xmlns="http://www.w3.org/2000/svg"><defs><filter id="a" color-interpolation-filters="sRGB"><feFlood flood-color="#000" flood-opacity=".196" result="flood"/><feComposite in="flood" in2="SourceGraphic" operator="in" result="composite1"/><feGaussianBlur in="composite1" result="blur" stdDeviation=".7"/><feOffset dx="0" dy=".7" result="offset"/><feComposite in="SourceGraphic" in2="offset" result="composite2"/></filter></defs><g filter="url(#a)"><rect x="3" y="4" width="26" height="26" rx="1.4" ry="1.4" opacity=".2"/><rect x="3" y="3" width="26" height="26" rx="1.4" ry="1.4" fill="#e4e4e4"/><path d="M6.5 8l5 9-5 9h3l5-9-5-9zm5 0l5 9-5 9h3l3.5-6.301L21.5 26h3l-10-18zm8.334 6l1.111 2H25.5v-2zm2.221 4l1.111 2H25.5v-2z" opacity=".1"/><path d="M4.4 3C3.625 3 3 3.625 3 4.4v1C3 4.625 3.625 4 4.4 4h23.2c.775 0 1.4.625 1.4 1.4v-1c0-.775-.625-1.4-1.4-1.4H4.4z" fill="#fff" opacity=".2"/><path d="M6.5 7l5 9-5 9h3l5-9-5-9h-3zm13.334 6l1.111 2H25.5v-2h-5.666zm2.221 4l1.111 2H25.5v-2h-3.445z" fill="#8b82a4"/><path d="M11.5 7l5 9-5 9h3l3.5-6.301L21.5 25h3l-10-18z" fill="#5f5088"/></g></svg>