<svg width="32" height="32" version="1.1" viewBox="0 0 32 32" xmlns="http://www.w3.org/2000/svg"><defs><filter id="a" color-interpolation-filters="sRGB"><feFlood flood-color="#000" flood-opacity=".196" result="flood"/><feComposite in="flood" in2="SourceGraphic" operator="in" result="composite1"/><feGaussianBlur in="composite1" result="blur" stdDeviation=".7"/><feOffset dx="0" dy=".7" result="offset"/><feComposite in="SourceGraphic" in2="offset" result="composite2"/></filter></defs><g filter="url(#a)"><path d="M19 5l-8 8" fill="none" stroke="#7d7d7d" stroke-width="6"/><rect transform="scale(-1 1)" x="-13" y="11" width="8" height="17" ry="0" fill="#7d7d7d"/><path d="M13 26c1 0 1 1 1 1v2H4v-2c0-1 1-1 1-1z" fill="#909090"/><path d="M15 27c1 0 1 1 1 1v2H2v-2c0-1 1-1 1-1z" fill="#4f4f4f"/><path d="M19 5l4 4" fill="none" stroke="#7d7d7d" stroke-linecap="square" stroke-width="4"/><rect transform="scale(-1 1)" x="-23" y="2" width="8" height="8" ry="4" opacity=".2"/><rect transform="scale(-1 1)" x="-15" y="10" width="12" height="12" ry="6" opacity=".2"/><rect transform="scale(-1 1)" x="-15" y="9" width="12" height="12" ry="6" fill="#909090"/><rect transform="scale(-1 1)" x="-13" y="11" width="8" height="8" ry="4" fill="#4f4f4f"/><rect transform="scale(-1 1)" x="-12" y="12" width="6" height="6" ry="3" fill="#fff" opacity=".1"/><rect transform="scale(-1 1)" x="-23" y="1" width="8" height="8" ry="4" fill="#909090"/><path d="M25 16l-2-1v-4l2-2h4l1 2" fill="none" stroke="#4f4f4f" stroke-linecap="round" stroke-width="2"/><rect transform="scale(-1 1)" x="-21" y="3" width="4" height="4" ry="2" fill="#4f4f4f"/><path d="M9 9c-3.324 0-6 2.676-6 6 0 .169.012.335.025.5C3.278 12.412 5.845 10 9 10s5.721 2.412 5.975 5.5c.013-.165.025-.331.025-.5 0-3.324-2.676-6-6-6zM19 1c-2.216 0-4 1.784-4 4 0 .171.028.335.049.5A3.978 3.978 0 0 1 19 2a3.978 3.978 0 0 1 3.951 3.5c.02-.165.049-.329.049-.5 0-2.216-1.784-4-4-4z" fill="#f9f9f9" opacity=".2"/><path d="M3 27s-1 0-1 1v1c0-1 1-1 1-1h12c1 0 1 1 1 1v-1s0-1-1-1H3z" fill="#fff" opacity=".1"/></g></svg>