<svg width="32" height="32" version="1" xmlns="http://www.w3.org/2000/svg">
<defs>
<filter id="a" color-interpolation-filters="sRGB">
<feFlood flood-opacity=".196" result="flood"/>
<feComposite in="flood" in2="SourceGraphic" operator="in" result="composite1"/>
<feGaussianBlur in="composite1" result="blur" stdDeviation=".7"/>
<feOffset dx="0" dy=".7" result="offset"/>
<feComposite in="SourceGraphic" in2="offset" result="composite2"/>
</filter>
</defs>
<rect transform="matrix(0,-1,-1,0,0,0)" x="-30" y="-30" width="28" height="28" rx="14" ry="14" fill="#ea004e" filter="url(#a)"/>
<g clip-rule="evenodd" enable-background="new" fill-rule="evenodd" filter="url(#a)" opacity=".2">
<path d="m13.509 22.467s-0.725 0.444 0.517 0.595c1.504 0.18 2.273 0.154 3.93-0.176 0 0 0.436 0.288 1.045 0.537-3.716 1.678-8.41-0.097-5.492-0.956zm-0.454-2.19s-0.814 0.635 0.429 0.77c1.607 0.175 2.875 0.19 5.072-0.256 0 0 0.303 0.324 0.78 0.502-4.492 1.384-9.496 0.108-6.282-1.016zm3.827-3.714c0.917 1.11-0.24 2.11-0.24 2.11s2.325-1.265 1.258-2.849c-0.998-1.476-1.762-2.21 2.377-4.74 0 0-6.498 1.71-3.395 5.478z"/>
<path d="m21.797 24.086s0.537 0.467-0.59 0.827c-2.145 0.685-8.928 0.89-10.812 0.028-0.677-0.311 0.593-0.742 0.992-0.832 0.417-0.095 0.655-0.078 0.655-0.078-0.753-0.559-4.869 1.097-2.09 1.572 7.576 1.294 13.81-0.582 11.845-1.516zm-7.939-6.078s-3.45 0.864-1.222 1.178c0.941 0.133 2.816 0.102 4.564-0.052 1.428-0.127 2.86-0.397 2.86-0.397s-0.502 0.228-0.867 0.49c-3.504 0.97-10.271 0.518-8.322-0.474 1.647-0.84 2.987-0.745 2.987-0.745zm6.189 3.645c3.561-1.95 1.914-3.823 0.765-3.57-0.281 0.06-0.407 0.114-0.407 0.114s0.104-0.172 0.304-0.247c2.274-0.842 4.022 2.484-0.733 3.801 0 0 0.054-0.052 0.07-0.098zm-2.147-14.653s1.972 2.079-1.871 5.275c-3.082 2.564-0.703 4.026-1e-3 5.697-1.8-1.71-3.119-3.216-2.234-4.616 1.3-2.057 4.901-3.054 4.106-6.356z"/>
<path d="m14.208 26.937c3.418 0.23 8.668-0.128 8.792-1.832 0 0-0.239 0.646-2.825 1.159-2.917 0.578-6.517 0.51-8.65 0.14 0 0 0.436 0.381 2.683 0.533z"/>
</g>
<g clip-rule="evenodd" enable-background="new" fill="#fff" fill-rule="evenodd" filter="url(#a)">
<path d="m13.509 21.467s-0.725 0.445 0.517 0.595c1.504 0.18 2.273 0.154 3.93-0.176 0 0 0.436 0.288 1.045 0.537-3.716 1.678-8.41-0.097-5.492-0.956zm-0.454-2.189s-0.814 0.634 0.429 0.77c1.607 0.174 2.875 0.188 5.072-0.257 0 0 0.303 0.324 0.78 0.502-4.492 1.384-9.496 0.109-6.282-1.015zm3.827-3.715c0.917 1.11-0.24 2.11-0.24 2.11s2.325-1.264 1.258-2.848c-0.998-1.477-1.762-2.21 2.377-4.74 0 0-6.498 1.71-3.395 5.478z"/>
<path d="m21.797 23.087s0.537 0.466-0.59 0.826c-2.145 0.685-8.928 0.891-10.812 0.028-0.677-0.311 0.593-0.741 0.992-0.832 0.417-0.095 0.655-0.078 0.655-0.078-0.753-0.559-4.869 1.098-2.09 1.573 7.576 1.294 13.81-0.583 11.845-1.517zm-7.939-6.078s-3.45 0.863-1.222 1.177c0.941 0.133 2.816 0.102 4.564-0.052 1.428-0.127 2.86-0.397 2.86-0.397s-0.502 0.228-0.867 0.49c-3.504 0.97-10.271 0.518-8.322-0.474 1.647-0.84 2.987-0.744 2.987-0.744zm6.189 3.644c3.561-1.95 1.914-3.823 0.765-3.57-0.281 0.061-0.407 0.115-0.407 0.115s0.104-0.173 0.304-0.248c2.274-0.842 4.022 2.484-0.733 3.802 0 0 0.054-0.053 0.07-0.1zm-2.147-14.653s1.972 2.079-1.871 5.275c-3.082 2.564-0.703 4.026-1e-3 5.697-1.8-1.71-3.119-3.215-2.234-4.616 1.3-2.057 4.901-3.054 4.106-6.356z"/>
<path d="m14.208 25.937c3.418 0.23 8.668-0.128 8.792-1.832 0 0-0.239 0.646-2.825 1.159-2.917 0.578-6.517 0.511-8.65 0.14 0 0 0.436 0.381 2.683 0.533z"/>
</g>
<path d="m2.027 16.5c-6e-3 0.167-0.025 0.331-0.025 0.5 0 7.756 6.244 14 14 14s14-6.244 14-14c0-0.169-0.02-0.333-0.025-0.5-0.264 7.521-6.388 13.5-13.975 13.5-7.588 0-13.712-5.979-13.975-13.5z" filter="url(#a)" opacity=".2"/>
<path d="M 16,2 C 8.244,2 2,8.244 2,16 c 0,0.169 0.02,0.333 0.025,0.5 A 13.957,13.957 0 0 1 16,3 C 23.587,3 29.711,8.98 29.975,16.5 29.98,16.333 30,16.169 30,16 30,8.244 23.756,2 16,2 Z" fill="#fff" filter="url(#a)" opacity=".2"/>
</svg>
