<svg width="32" height="32" version="1" xmlns="http://www.w3.org/2000/svg"><defs><filter id="a" color-interpolation-filters="sRGB"><feFlood flood-color="#000" flood-opacity=".196" result="flood"/><feComposite in="flood" in2="SourceGraphic" operator="in" result="composite1"/><feGaussianBlur in="composite1" result="blur" stdDeviation=".7"/><feOffset dx="0" dy=".7" result="offset"/><feComposite in="SourceGraphic" in2="offset" result="composite2"/></filter></defs><g filter="url(#a)"><path d="M27 28.5v-25c0-.831-.669-1.5-1.5-1.5h-19C5.669 2 5 2.669 5 3.5v25c0 .831.669 1.5 1.5 1.5h19c.831 0 1.5-.669 1.5-1.5z" fill="#395d6d"/><path d="M6.5 2C5.669 2 5 2.669 5 3.5v1C5 3.669 5.669 3 6.5 3h19c.831 0 1.5.669 1.5 1.5v-1c0-.831-.669-1.5-1.5-1.5z" fill="#fff" opacity=".1"/><path d="M13.531 11l-.094.406-1.492 8.024-1.057-3.34-.029-.09-.33-1H8v1h1.813l1.899 6h.739l1.894-10H21v-1zm2.406 3l2.5 4-2.5 4h1l2-3.188 2 3.188h1l-2.5-4 2.5-4h-1l-2 3.188-2-3.188z" opacity=".2"/><path d="M13.531 10l-.094.406-1.492 8.024-1.057-3.34-.029-.09-.33-1H8v1h1.813l1.899 6h.739l1.894-10H21v-1zm2.406 3l2.5 4-2.5 4h1l2-3.188 2 3.188h1l-2.5-4 2.5-4h-1l-2 3.188-2-3.188z" fill="#ff6868"/><path d="M5 28.5v1c0 .831.669 1.5 1.5 1.5h19c.831 0 1.5-.669 1.5-1.5v-1c0 .831-.669 1.5-1.5 1.5h-19c-.831 0-1.5-.669-1.5-1.5z" opacity=".2"/></g></svg>