<svg width="32" height="32" version="1" xmlns="http://www.w3.org/2000/svg">
<defs>
<filter id="a" color-interpolation-filters="sRGB">
<feFlood flood-opacity=".196" result="flood"/>
<feComposite in="flood" in2="SourceGraphic" operator="in" result="composite1"/>
<feGaussianBlur in="composite1" result="blur" stdDeviation=".7"/>
<feOffset dx="0" dy=".7" result="offset"/>
<feComposite in="SourceGraphic" in2="offset" result="composite2"/>
</filter>
</defs>
<path d="m21.922 2c-2.34 0-4.446 1.191-5.922 3-1.475-1.809-3.582-3-5.922-3-4.461 0-8.078 4.116-8.078 9.193 0 1.364 0.212 2.677 0.582 3.93 0 0 0.337 1.131 0.635 1.754 3.405 7.96 12.783 13.123 12.783 13.123s9.378-5.162 12.783-13.123 0.44-1.06 0.634-1.754c0.354-1.26 0.583-2.566 0.583-3.93 0-5.077-3.617-9.193-8.078-9.193z" fill="#ea004e" filter="url(#a)"/>
<path d="M 10.078,2 C 5.617,2 2,6.117 2,11.193 2,11.373 2.012,11.548 2.02,11.725 2.234,6.867 5.755,3 10.077,3 c 2.34,0 4.447,1.191 5.922,3 1.475,-1.809 3.582,-3 5.922,-3 4.318,0 7.835,3.86 8.057,8.711 0.007,-0.173 0.02,-0.343 0.02,-0.518 C 30,6.117 26.384,2 21.923,2 19.582,2 17.475,3.191 16,5 14.525,3.191 12.418,2 10.078,2 Z" fill="#fff" filter="url(#a)" opacity=".2"/>
<path d="m29.979 11.71a14.9 14.9 0 0 1-0.561 3.412c-0.195 0.693-0.635 1.754-0.635 1.754-3.405 7.962-12.783 13.124-12.783 13.124s-9.378-5.162-12.783-13.124c-0.298-0.623-0.635-1.754-0.635-1.754a13.937 13.937 0 0 1-0.563-3.398c-6e-3 0.156-0.02 0.31-0.02 0.468 0 1.364 0.212 2.676 0.583 3.93 0 0 0.337 1.131 0.635 1.754 3.405 7.962 12.783 13.124 12.783 13.124s9.377-5.162 12.782-13.124 0.44-1.06 0.635-1.754c0.354-1.259 0.582-2.566 0.582-3.93 0-0.162-0.014-0.322-0.02-0.482z" filter="url(#a)" opacity=".2"/>
</svg>
