<svg width="32" height="32" version="1" xmlns="http://www.w3.org/2000/svg"><defs><filter id="a" color-interpolation-filters="sRGB"><feFlood flood-color="#000" flood-opacity=".196" result="flood"/><feComposite in="flood" in2="SourceGraphic" operator="in" result="composite1"/><feGaussianBlur in="composite1" result="blur" stdDeviation=".7"/><feOffset dx="0" dy=".7" result="offset"/><feComposite in="SourceGraphic" in2="offset" result="composite2"/></filter></defs><g filter="url(#a)"><path d="M2 7v20.611C2 28.381 2.624 29 3.4 29h25.201c.776 0 1.4-.619 1.4-1.389V7z" opacity=".2"/><rect x="4.8" y="20.55" width="22.4" height="2.8" rx="1.066" ry="1.161" opacity=".2"/><path d="M2 6v20.611C2 27.381 2.624 28 3.4 28h25.201c.776 0 1.4-.619 1.4-1.389V6z" fill="#c7c7c7"/><path d="M3.4 3C2.624 3 2 3.62 2 4.389V6h28V4.389A1.39 1.39 0 0 0 28.6 3z" fill="#5a6367"/><rect x="5" y="21" width="22" height="3" rx="1.047" ry="1.244" opacity=".2"/><rect x="5" y="20" width="22" height="3" rx="1.047" ry="1.244" fill="#fff"/><path d="M24 22.5c0 1.932-1.568 3.5-3.5 3.5a3.501 3.501 0 0 1-3.5-3.5c0-1.932 1.568-3.5 3.5-3.5s3.5 1.568 3.5 3.5z" fill-rule="evenodd" opacity=".1"/><path d="M24 21.5c0 1.932-1.568 3.5-3.5 3.5a3.501 3.501 0 0 1-3.5-3.5c0-1.932 1.568-3.5 3.5-3.5s3.5 1.568 3.5 3.5z" fill="#5294e2" fill-rule="evenodd"/><circle cx="6.5" cy="11.5" r="1.5" opacity=".2"/><circle cx="6.5" cy="10.5" r="1.5" fill="#fffff7"/><rect x="11" y="15" width="3" height="3" rx=".472" ry=".516" opacity=".1"/><rect x="11" y="14" width="3" height="3" rx=".472" ry=".516" fill="#5294e2"/><circle cx="6.5" cy="16.5" r="1.5" opacity=".1"/><circle cx="6.5" cy="15.5" r="1.5" fill="#5294e2"/><rect x="11" y="10" width="3" height="3" rx=".472" ry=".516" opacity=".2"/><rect x="11" y="9" width="3" height="3" rx=".472" ry=".516" fill="#fff"/><path d="M3.4 3C2.624 3 2 3.62 2 4.389v1C2 4.619 2.624 4 3.4 4h25.2c.776 0 1.4.62 1.4 1.389v-1C30 3.619 29.376 3 28.6 3H3.4z" fill="#fff" opacity=".1"/></g></svg>