<svg width="32" height="32" version="1" xmlns="http://www.w3.org/2000/svg"><defs><filter id="a" color-interpolation-filters="sRGB"><feFlood flood-color="#000" flood-opacity=".196" result="flood"/><feComposite in="flood" in2="SourceGraphic" operator="in" result="composite1"/><feGaussianBlur in="composite1" result="blur" stdDeviation=".7"/><feOffset dx="0" dy=".7" result="offset"/><feComposite in="SourceGraphic" in2="offset" result="composite2"/></filter></defs><g filter="url(#a)"><path d="M27 28.5v-25c0-.831-.669-1.5-1.5-1.5h-19C5.669 2 5 2.669 5 3.5v25c0 .831.669 1.5 1.5 1.5h19c.831 0 1.5-.669 1.5-1.5z" fill="#e4e4e4"/><path d="M6.5 2C5.669 2 5 2.669 5 3.5v1C5 3.669 5.669 3 6.5 3h19c.831 0 1.5.669 1.5 1.5v-1c0-.831-.669-1.5-1.5-1.5z" fill="#fff" opacity=".1"/><g fill="#4c4c4c"><path d="M9 8h14v1H9zM9 11h14v1H9zM9 14h14v1H9zM9 17h14v1H9zM9 20h14v1H9zM9 23h14v1H9z"/></g><path d="M5 28.5v1c0 .831.669 1.5 1.5 1.5h19c.831 0 1.5-.669 1.5-1.5v-1c0 .831-.669 1.5-1.5 1.5h-19c-.831 0-1.5-.669-1.5-1.5z" opacity=".2"/></g></svg>