<svg width="32" height="32" version="1.1" viewBox="0 0 32 32" xmlns="http://www.w3.org/2000/svg">
<defs>
<filter id="filter850" color-interpolation-filters="sRGB">
<feFlood flood-color="rgb(0,0,0)" flood-opacity=".19608" result="flood"/>
<feComposite in="flood" in2="SourceGraphic" operator="in" result="composite1"/>
<feGaussianBlur in="composite1" result="blur" stdDeviation="0.5"/>
<feOffset dx="0" dy="0.5" result="offset"/>
<feComposite in="SourceGraphic" in2="offset" result="composite2"/>
</filter>
</defs>
<title>深度终端-32px</title>
<g transform="matrix(1.6964 0 0 1.6964 38.199 4.9697)" filter="url(#filter850)">
<path d="m-6.5641 13.386h-13.043c-0.21739 0-0.36232-0.14493-0.36232-0.36232v-13.043c0-0.21739 0.14493-0.36232 0.36232-0.36232h13.043c0.21739 0 0.36232 0.14493 0.36232 0.36232v13.043c0 0.21739-0.18116 0.36232-0.36232 0.36232z" fill="#e0ba01" stroke-width=".36232"/>
<g transform="matrix(.36232 0 0 .36232 -21.782 -2.1934)" fill="#fff">
<path d="m11.1 22.5h-1.9c0-1.4 0.4-2.4 1.3-3 0.5-0.4 1.2-0.5 2-0.5 1 0 1.8 0.3 2.4 0.8s1 1.3 1 2.3c0 0.8-0.2 1.4-0.7 2-0.3 0.4-0.8 0.8-1.4 1.2l-1.2 0.9c-0.3 0.2-0.7 0.5-0.8 0.8h4.2v2h-7c0-0.7 0.1-1.4 0.3-1.8 0.3-0.7 1-1.4 2-2.1 0.8-0.6 1.3-1 1.6-1.2 0.6-0.6 0.9-1.1 0.9-1.7 0-0.4-0.1-0.7-0.3-1-0.3-0.3-0.6-0.5-1-0.5-0.6 0-1 0.2-1.2 0.7-0.2 0.2-0.2 0.6-0.2 1.1zm5.9 1.5c0-1.7 0.3-2.9 0.9-3.8s1.4-1.2 2.6-1.2 2.1 0.4 2.6 1.2c0.6 0.8 0.9 2.1 0.9 3.8s-0.3 3-0.9 3.8-1.4 1.2-2.6 1.2-2.1-0.4-2.6-1.2c-0.6-0.9-0.9-2.1-0.9-3.8zm2 0c0 1.3 0.1 2.2 0.3 2.7s0.6 0.8 1.1 0.8c0.6 0 0.9-0.3 1.1-0.8s0.3-1.4 0.3-2.7-0.1-2.2-0.3-2.7-0.6-0.8-1.1-0.8c-0.6 0-0.9 0.3-1.1 0.8s-0.3 1.4-0.3 2.7zm21 1.8c0 0.8-0.2 1.5-0.7 2-0.6 0.8-1.5 1.1-2.7 1.1s-2.1-0.3-2.7-1c-0.5-0.6-0.8-1.2-0.8-2 0-0.5 0.1-0.9 0.2-1.2 0.2-0.6 0.7-1 1.3-1.3-0.8-0.4-1.2-1-1.2-1.9 0-0.8 0.3-1.5 0.9-1.9 0.6-0.5 1.3-0.7 2.2-0.7 1 0 1.8 0.3 2.4 0.8 0.5 0.5 0.8 1.1 0.8 1.8 0 0.4-0.1 0.8-0.3 1.2-0.2 0.3-0.5 0.6-0.9 0.8 0.5 0.2 0.9 0.5 1.1 0.9 0.2 0.3 0.4 0.8 0.4 1.4zm-2.1 0.1c0-0.4-0.1-0.8-0.3-1-0.3-0.3-0.6-0.5-1.2-0.5-0.4 0-0.7 0.1-1 0.4s-0.4 0.7-0.4 1.2 0.1 0.9 0.4 1.1c0.3 0.3 0.6 0.4 1.1 0.4s0.8-0.2 1.1-0.5c0.2-0.4 0.3-0.7 0.3-1.1zm-1.4-3c0.4 0 0.7-0.1 0.9-0.3s0.3-0.5 0.3-0.9-0.1-0.6-0.3-0.9c-0.2-0.2-0.5-0.3-0.8-0.3-0.4 0-0.8 0.1-1 0.3s-0.3 0.5-0.3 0.9c0 0.3 0.1 0.6 0.3 0.8 0.2 0.3 0.5 0.4 0.9 0.4zm-5.5 2.1v-6h-2.4l-3.6 6v2h4v2h2v-2h1v-2zm-2 0h-2l2-3.5z"/>
</g>
</g>
</svg>
