<svg width="32" height="32" version="1.1" viewBox="0 0 32 32" xmlns="http://www.w3.org/2000/svg" xmlns:xlink="http://www.w3.org/1999/xlink"><title>chmsee-icon</title><defs><linearGradient id="b" x1="0" x2="20.315" y1="10.157" y2="10.157" gradientTransform="scale(.85891 1.1643)" gradientUnits="userSpaceOnUse"><stop stop-color="#E9E9E9" offset="0"/><stop stop-color="#fff" offset=".123"/><stop stop-color="#fff" offset="1"/></linearGradient><linearGradient id="d" x1="0" x2="9.81" y1="4.905" y2="4.905" gradientTransform="scale(.40775 2.4525)" gradientUnits="userSpaceOnUse"><stop stop-color="#FAFAFA" offset="0"/><stop stop-color="#F4F4F4" offset=".419"/><stop stop-color="#FEFEFE" offset=".699"/><stop stop-color="#E3E1E1" offset="1"/></linearGradient><path id="c" d="M.58 0h2.84c.32 0 .58.26.58.58v23.478H.58a.58.58 0 0 1-.58-.58V.579c0-.32.26-.58.58-.58z"/><linearGradient id="g" x1="15.088" x2=".425" y1="5.618" y2="10.409" gradientTransform="scale(1.2455 .80288)" gradientUnits="userSpaceOnUse"><stop stop-color="#474747" offset="0"/><stop stop-color="#010101" offset=".038"/><stop offset="1"/></linearGradient><path id="f" d="M3.758 6.497c.799 0 3.46.041 4.445 1.308.263.338.259 1.047.113 1.448-.302.845-1.041 2.143-2.769 2.408a5.62 5.62 0 0 1-1.538-.028c-1.563-.276-2.105-1.263-2.292-1.974-.057-.215-.406-1.684-.047-2.406.333-.667 1.564-.756 2.088-.756zm12.146 0c.427 0 1.63-.086 1.976.547.404.74-.01 2.39-.068 2.612-.214.817-.9 2.002-3.062 2.05-2.282.054-3.194-1.49-3.538-2.453-.144-.401-.15-1.11.112-1.448.986-1.267 3.782-1.308 4.58-1.308zM3.758 12.396c.423.059 1.116.082 1.542.059 1.1-.056 3.055-.448 3.639-2.451.12-.411.204-.96.393-1.103a.653.653 0 0 1 .402-.13c.164 0 .283.046.368.112.174.131.328.65.536 1.028.521.952 1.702 2.535 3.769 2.535 0 0 3.95.277 4.454-3.252.06-.423.058-1.268.242-1.653a2.32 2.32 0 0 0 .232-1.01c0-.3-.03-.52-.09-.683-.128-.358-.331-.504-.438-.917-.253-.98-.6-2.21-.927-2.987-.166-.392-.6-.947-.966-1.169-.194-.119-.397-.182-.62-.146-.22.035-.09.678-.001.637a.462.462 0 0 1 .195-.043c.675 0 1.1 2.501 1.1 2.501l.197 1.168a.65.65 0 0 1-.644.778c-1.574.047-3.965.206-5.19.76-.388.175-.923.62-1.312.798-.307.143-.66.272-.92.272-.316 0-.531-.104-.762-.247-.362-.225-.95-.595-1.345-.756-1.405-.574-3.73-.822-5.298-.828-.427 0-.715-.32-.644-.742l.31-1.821S2.403.605 3.077.605c.18 0 .318.099.418.221.172.21.369.436.545.44.178.004.331-.209.228-.444A1.25 1.25 0 0 0 4 .444c-.548-.54-.969-.523-1.35-.289-.365.223-.801.777-.965 1.17-.423 1-.878 2.754-1.12 3.753-.1.415-.084.709-.338 1.007A.98.98 0 0 0 0 6.744s-.012.63.217 1.14A7 7 0 0 1 .66 9.342c.17 1.027.805 2.742 3.098 3.055z"/><filter id="a" color-interpolation-filters="sRGB"><feFlood flood-color="#000" flood-opacity=".196" result="flood"/><feComposite in="flood" in2="SourceGraphic" operator="in" result="composite1"/><feGaussianBlur in="composite1" result="blur" stdDeviation=".7"/><feOffset dx="0" dy=".7" result="offset"/><feComposite in="SourceGraphic" in2="offset" result="composite2"/></filter></defs><g transform="translate(2.55 3.768)" fill="none" fill-rule="evenodd" filter="url(#a)"><rect y=".232" width="23.652" height="24.058" rx="1.159" fill="#e35b00"/><path d="M4 .406h18.261c.128 0 .232.104.232.232v23.188a.232.232 0 0 1-.232.232H4V.406z" fill="#fff"/><path d="M4.522.406h17.217c.128 0 .232.104.232.232v23.188a.232.232 0 0 1-.232.232H4.522V.406z" fill="#e6e6e6"/><path fill="#fff" d="M22 11.53h1v2.126h-1z"/><path d="M0 0h17.217c.128 0 .232.104.232.232V23.42a.232.232 0 0 1-.232.232H0V0z" fill="url(#b)" transform="translate(4 .406)"/><path d="M4 7.478c.315-.154.953-.232 1.916-.232s1.851.04 2.664.116v2.667c-1.196-.077-2.084-.116-2.664-.116S4.698 9.99 4 10.145z" fill="#e35b00"/><g><mask id="e" fill="#fff"><use width="100%" height="100%" xlink:href="#c"/></mask><use width="100%" height="100%" fill="url(#d)" xlink:href="#c"/><path d="M0 7.478c.71-.193 1.391-.29 2.043-.29s1.305.097 1.957.29v2.667c-.633-.193-1.285-.29-1.956-.29S.69 9.952 0 10.145" fill="#e35b00" mask="url(#e)"/></g><g transform="translate(7.371 10.899)"><use width="100%" height="100%" fill="url(#g)" fill-rule="nonzero" xlink:href="#f"/></g></g></svg>