<svg width="32" height="32" version="1.1" viewBox="0 0 32 32" xmlns="http://www.w3.org/2000/svg" xmlns:xlink="http://www.w3.org/1999/xlink"><title>crossover</title><defs><path id="b" d="M14.481 27c3.108 0 6.358-1.455 8.667-3.852C25.545 20.84 27 17.59 27 14.481c0-7.66-5.82-13.48-12.52-13.48C6.82 1 1 6.82 1 14.48c0 6.699 5.82 12.52 13.48 12.52z"/><filter id="a" color-interpolation-filters="sRGB"><feFlood flood-color="#000" flood-opacity=".196" result="flood"/><feComposite in="flood" in2="SourceGraphic" operator="in" result="composite1"/><feGaussianBlur in="composite1" result="blur" stdDeviation=".7"/><feOffset dx="0" dy=".7" result="offset"/><feComposite in="SourceGraphic" in2="offset" result="composite2"/></filter></defs><g transform="translate(2 1)" fill="none" fill-rule="evenodd" filter="url(#a)"><circle cx="14" cy="14" r="14" fill="#fff"/><use width="100%" height="100%" fill="#fff" fill-rule="evenodd" xlink:href="#b"/><path d="M14.481 26.5c2.96 0 6.084-1.39 8.32-3.712 2.308-2.223 3.699-5.346 3.699-8.306C26.5 7.244 21.041 1.5 14.48 1.5 7.097 1.5 1.5 7.097 1.5 14.48c0 6.562 5.743 12.02 12.98 12.02z" stroke="#1038fb"/><path d="M25.295 10.522a19.701 19.701 0 0 0-4.244-2.556C14.445 5.025 7.57 6.056 5.695 10.268 3.819 14.48 7.654 20.278 14.26 23.22c.411.183.824.35 1.236.503-3.875-3.082-5.745-7.197-4.32-10.396 1.758-3.95 7.913-5.102 14.12-2.805z" fill="#1038fb"/><path d="M3.672 17.353c1.214 1 2.631 1.9 4.212 2.638 6.575 3.065 13.489 2.152 15.443-2.04 1.955-4.192-1.79-10.076-8.364-13.142-.41-.191-.82-.367-1.231-.527 3.833 3.16 5.636 7.32 4.152 10.503-1.833 3.931-8.027 4.979-14.212 2.567z" fill="#fd5400" stroke="#fff" stroke-width=".614"/></g></svg>