<svg width="32" height="32" version="1" xmlns="http://www.w3.org/2000/svg"><defs><filter id="a" color-interpolation-filters="sRGB"><feFlood flood-color="#000" flood-opacity=".196" result="flood"/><feComposite in="flood" in2="SourceGraphic" operator="in" result="composite1"/><feGaussianBlur in="composite1" result="blur" stdDeviation=".7"/><feOffset dx="0" dy=".7" result="offset"/><feComposite in="SourceGraphic" in2="offset" result="composite2"/></filter></defs><g filter="url(#a)"><rect transform="matrix(0 -1 -1 0 0 0)" x="-28" y="-30" width="23" height="28" rx="1.438" ry="1.4" fill="#4f4f4f"/><g transform="translate(0 1)" opacity=".2"><rect x="6" y="10" width="20" height="5" rx="1.333" ry="1.25"/><rect x="6" y="18" width="20" height="5" rx="1.333" ry="1.25"/></g><g fill="#fff"><rect x="6" y="10" width="20" height="5" rx="1.333" ry="1.25"/><rect x="6" y="18" width="20" height="5" rx="1.333" ry="1.25"/><path d="M3.4 5C2.625 5 2 5.641 2 6.438v1C2 6.64 2.625 6 3.4 6h25.2c.775 0 1.4.641 1.4 1.438v-1C30 5.64 29.375 5 28.6 5H3.4z" opacity=".1"/></g><path d="M2 26.562v1C2 28.359 2.625 29 3.4 29h25.2c.775 0 1.4-.641 1.4-1.438v-1c0 .797-.625 1.438-1.4 1.438H3.4c-.775 0-1.4-.641-1.4-1.438z" opacity=".2"/><circle cx="8.5" cy="12.5" r="1.5" fill="#4fa0ff"/><circle cx="8.5" cy="20.5" r="1.5" fill="#ff4f4f"/><circle cx="13.5" cy="12.5" r="1.5" fill="#4fa0ff"/><circle cx="13.5" cy="20.5" r="1.5" fill="#ff4f4f"/><circle cx="18.5" cy="12.5" r="1.5" fill="#4fa0ff"/><circle cx="18.5" cy="20.5" r="1.5" fill="#ff4f4f"/></g></svg>