<svg width="32" height="32" viewBox="0 0 32 32" version="1.1" xmlns="http://www.w3.org/2000/svg" xmlns:xlink="http://www.w3.org/1999/xlink"><title>deepin-manual</title><defs><rect id="b" x="0" y="0" width="24" height="28" rx="1.5"/><filter x="-8.3%" y="-3.6%" width="116.7%" height="114.3%" filterUnits="objectBoundingBox" id="a"><feOffset dx="0" dy="1" in="SourceAlpha" result="shadowOffsetOuter1"/><feGaussianBlur stdDeviation=".5" in="shadowOffsetOuter1" result="shadowBlurOuter1"/><feComposite in="shadowBlurOuter1" in2="SourceAlpha" operator="out" result="shadowBlurOuter1"/><feColorMatrix values="0 0 0 0 0 0 0 0 0 0 0 0 0 0 0 0 0 0 0.15 0" type="matrix" in="shadowBlurOuter1"/></filter><radialGradient cx="50%" cy="17.574%" fx="50%" fy="17.574%" r="96.089%" gradientTransform="matrix(0 .85714 -1 0 .676 -.253)" id="c"><stop stop-color="#04A38C" offset="0%"/><stop stop-color="#075661" offset="100%"/></radialGradient><linearGradient x1="6.146%" y1="65.618%" x2="0%" y2="65.618%" id="d"><stop stop-color="#04A38C" stop-opacity="0" offset="0%"/><stop stop-color="#075661" offset="100%"/></linearGradient></defs><g transform="translate(4 2)" stroke="none" stroke-width="1" fill="none" fill-rule="evenodd"><g fill="#000"><use fill-opacity="1" filter="url(#a)" xlink:href="#b"/><use fill-opacity=".1" fill-rule="evenodd" xlink:href="#b"/></g><rect fill="url(#c)" x="0" y="0" width="24" height="28" rx="1.5"/><rect fill="url(#d)" x="0" y="0" width="24" height="28" rx="1.5"/><g fill="#FFF"><path d="M12.949 4.316L15 5h-.125c.069 0 .125.056.125.125v.75a.125.125 0 0 1-.125.125h-5.75A.125.125 0 0 1 9 5.875v-.75C9 5.056 9.056 5 9.125 5H9l2.051-.684A.999.999 0 0 1 12 3a1 1 0 0 1 .949 1.316zM8.42 19h7.158c.09 0 .168.061.175.136L16 21.864c.006.075-.066.136-.163.136H8.163c-.097 0-.17-.061-.163-.136l.246-2.728c.007-.075.086-.136.175-.136zM10 7.125v.75A.125.125 0 0 1 9.875 8h-.75A.125.125 0 0 1 9 7.875v-.75C9 7.056 9.056 7 9.125 7h.75c.069 0 .125.056.125.125zm5 0v.75a.125.125 0 0 1-.125.125h-.75A.125.125 0 0 1 14 7.875v-.75c0-.069.056-.125.125-.125h.75c.069 0 .125.056.125.125zm-2 0v.75a.125.125 0 0 1-.125.125h-1.75A.125.125 0 0 1 11 7.875v-.75c0-.069.056-.125.125-.125h1.75c.069 0 .125.056.125.125zM9.125 9h5.75c.069 0 .125.056.125.125v.75a.125.125 0 0 1-.125.125h-5.75A.125.125 0 0 1 9 9.875v-.75C9 9.056 9.056 9 9.125 9zM9 18l.833-7h4.334L15 18H9z"/><path d="M0 9.5v-4l9.12 1.522v.956L0 9.5zm14.88-2.478L24 5.5v4l-9.12-1.522v-.956z" opacity=".3"/></g><path d="M1.5 25h21.487a1 1 0 0 0 1-1v-.5V27a1 1 0 0 1-1 1H1.5a1.5 1.5 0 0 1 0-3z" fill="#034849"/><path d="M1.5 26H23v-1 1a1 1 0 0 1-1 1H1.5a.5.5 0 1 1 0-1z" fill="#D5FCF9"/></g></svg>