<svg width="32" height="32" version="1.1" viewBox="0 0 32 32" xmlns="http://www.w3.org/2000/svg" xmlns:xlink="http://www.w3.org/1999/xlink"><title>deepin-clone</title><defs><linearGradient id="b" x1="50%" x2="50%" y1="2.868%" y2="100%"><stop stop-color="#0090FF" offset="0"/><stop stop-color="#0076FF" offset="1"/></linearGradient><ellipse id="c" cx="7.615" cy="7.5" rx="7.615" ry="7.5"/><filter id="a" color-interpolation-filters="sRGB"><feFlood flood-color="#000" flood-opacity=".196" result="flood"/><feComposite in="flood" in2="SourceGraphic" operator="in" result="composite1"/><feGaussianBlur in="composite1" result="blur" stdDeviation=".7"/><feOffset dx="0" dy=".7" result="offset"/><feComposite in="SourceGraphic" in2="offset" result="composite2"/></filter></defs><g fill="none" fill-rule="evenodd" filter="url(#a)"><circle cx="16" cy="16" r="14" fill="url(#b)"/><g fill="#fff"><path d="M6.989 16c0-4.818 3.965-8.723 8.857-8.723 4.892 0 8.858 3.905 8.858 8.723 0 4.818-3.966 8.723-8.858 8.723a8.893 8.893 0 0 1-6.535-2.834.655.655 0 0 0-.915-.04.632.632 0 0 0-.04.902A10.198 10.198 0 0 0 15.845 26C21.454 26 26 21.523 26 16S21.454 6 15.846 6 5.692 10.477 5.692 16H4l2.446 4.828L8.892 16H6.988z" fill-rule="nonzero"/><g transform="translate(8.23 8.5)"><mask id="d"><use xlink:href="#c"/></mask><path d="M-.846 11.5c1.863.535 6.962 1.691 10.183-.548 2.088-1.452 1.82-3.778 1.82-3.778-.035-1.769-1.17-3.526-1.17-3.526 4.414 3.789 1.805 7.998 1.805 7.998-1.344 2.603-4.256 4.169-6.579 4.717A8.846 8.846 0 0 1-.846 11.5zM.35 2.338c.547 2.823 1.773 5.203 2.59 6.068 1.054 1.119 2.607 2.306 4.6 1.815 1.994-.49 2.4-2.636 2.4-2.636.44-1.826-.187-3.995-.221-4.04-.034-.046-.333-.097-.333-.097.313 2.875-.455 4.148-.455 4.148C7.813 9.85 6.173 9.153 6.173 9.153c-1.825-.915-1.739-3.497-1.739-3.497C4.378 3.861 5.1.894 6.488-.834A8.885 8.885 0 0 0 .35 2.339zM10.673-.167C9.607.685 7.795 2.506 7.795 2.506c-2.69 2.454-2.168 4.52-2.168 4.52.429 2.168 1.762.707 1.762.707 1.402-1.426 1.298-4.268 1.298-4.268-.568.09-.927.4-.927.4-.07 1.894-1.205 3.07-1.205 3.07-.44.479-.754.022-.754.022-.231-.343.232-.582.232-.582.649-.56.843-1.513.835-1.871-.01-.36.185-.457.185-.457.915-.697 1.831-1.107 1.831-1.107 1.228-.617 3.419-.72 3.419-.72.594.02 1.162-.009 1.616-.048a8.87 8.87 0 0 0-3.246-2.34z" mask="url(#d)"/></g></g></g></svg>