<svg width="32" height="32" version="1.1" viewBox="0 0 32 32" xmlns="http://www.w3.org/2000/svg"><title>软件包安装器-32px</title><defs><filter id="a" color-interpolation-filters="sRGB"><feFlood flood-color="#000" flood-opacity=".196" result="flood"/><feComposite in="flood" in2="SourceGraphic" operator="in" result="composite1"/><feGaussianBlur in="composite1" result="blur" stdDeviation=".7"/><feOffset dx="0" dy=".7" result="offset"/><feComposite in="SourceGraphic" in2="offset" result="composite2"/></filter></defs><g fill-rule="evenodd" filter="url(#a)"><path d="M25 27H7c-.5 0-1-.5-1-1V3.667C6 3.28 6.251 3 6.667 3h13.34L26 9v17c0 1-1 1-1 1z" fill="#d70751"/><path d="M20.085 11.839c.014.368-.107.547-.217.863l-.197.098c-.161.313.016.199-.1.448-.251.223-.762.699-.926.743-.12-.003.081-.142.107-.196-.336.231-.27.347-.785.488l-.014-.034c-1.27.597-3.033-.586-3.01-2.2-.013.102-.038.076-.066.117-.066-.83.384-1.664 1.141-2.005.741-.367 1.61-.217 2.14.278-.291-.382-.872-.786-1.559-.749-.674.011-1.304.439-1.514.904-.345.217-.385.837-.536.95-.202 1.488.38 2.13 1.367 2.886.155.105.044.12.064.2a2.675 2.675 0 0 1-.874-.668c.131.191.272.377.455.524-.31-.105-.722-.749-.842-.775.532.953 2.16 1.672 3.013 1.315-.395.015-.896.008-1.339-.155-.186-.096-.44-.294-.394-.331 1.163.434 2.365.328 3.372-.478.256-.2.536-.54.616-.544-.121.183.021.088-.072.25.254-.412-.111-.168.263-.71l.139.19c-.052-.342.424-.757.376-1.297.109-.165.121.178.005.558.161-.422.043-.49.084-.838.044.117.103.242.133.365-.104-.407.108-.686.16-.923-.052-.023-.161.18-.187-.3.004-.21.059-.11.08-.162-.041-.024-.149-.184-.214-.491.047-.073.126.187.191.198-.042-.245-.113-.431-.116-.619-.19-.394-.067.053-.22-.169-.201-.627.167-.146.192-.43.304.441.478 1.125.558 1.408-.061-.345-.16-.68-.28-1.004.093.04-.149-.71.12-.214-.287-1.058-1.23-2.047-2.098-2.51.106.097.24.218.192.238-.432-.257-.356-.277-.418-.386-.35-.143-.374.012-.607 0-.662-.351-.79-.314-1.4-.534l.028.13c-.44-.146-.512.055-.986 0-.029-.022.152-.081.301-.103-.424.056-.405-.084-.82.015.102-.071.21-.119.32-.18-.346.021-.827.202-.678.037-.565.252-1.567.606-2.13 1.134l-.018-.119c-.258.31-1.124.925-1.193 1.326l-.07.016c-.133.227-.22.484-.326.718-.176.299-.258.115-.233.162-.345.7-.516 1.287-.664 1.77.105.157.002.95.042 1.583-.173 3.13 2.197 6.169 4.787 6.87.38.136.944.132 1.425.145-.567-.162-.64-.086-1.192-.278-.398-.188-.486-.402-.768-.647l.112.198c-.553-.196-.322-.243-.772-.385l.12-.156c-.18-.013-.475-.302-.556-.462l-.196.008c-.236-.29-.362-.5-.352-.663l-.064.113c-.071-.123-.867-1.09-.454-.865-.077-.07-.179-.114-.29-.315l.085-.096c-.198-.255-.366-.583-.353-.692.106.143.18.17.252.194-.501-1.244-.53-.068-.909-1.266l.08-.006c-.061-.093-.099-.194-.148-.292l.035-.349c-.36-.416-.1-1.774-.049-2.518.036-.303.302-.625.503-1.13l-.123-.021c.235-.41 1.341-1.646 1.854-1.582.248-.312-.05-.002-.098-.08.545-.564.717-.398 1.085-.5.396-.236-.34.092-.153-.09.686-.175.486-.398 1.381-.487.095.054-.219.083-.297.153.57-.28 1.808-.216 2.612.155.932.436 1.98 1.723 2.02 2.935l.048.013c-.024.482.074 1.039-.096 1.55l.115-.242" fill="#fff"/><path d="M20.619 9.019c-.368 0-.62-.318-.62-.686V3l6 6z" fill="#ff5491"/><path d="M4 13a1 1 0 0 1 1-1h22c.552 0 1 .455 1 1v15a1 1 0 0 1-1 1H5c-.552 0-1-.455-1-1z" fill="#d0dfed"/><g fill="#10acff"><path d="M13.794 21.862h-1.638v-.278c0-.094.088-.187.183-.187h1.367c.082 0 .178.094.177.186l-.001.186s0 .093-.088.093m.451 1.3c.094 0 .095-.085.095-.094l-.001-.276c0-.093-.092-.094-.092-.094l-1.91-.002c-.184 0-.181-.181-.181-.181-.002-.012 0-.19 0-.19h1.819c.505 0 .454-.371.454-.371v-.37s.049-.654-.635-.654H12.26c-.696 0-.649.646-.649.646v.935c0 .652.638.649.638.649zM10.882 22.607s.001.09-.091.09c-.1 0-.583.002-.88 0-.298 0-.663-.067-.663-.643 0-.577.405-.657.658-.657l.975.001v1.209m.456-2.514h-.363s-.09 0-.09.096l-.001.741H9.705c-.855 0-1.006.758-1.005 1.118 0 .36.154 1.113 1.019 1.112.865 0 .89.002 1.255.002.454 0 .454-.463.454-.463v-2.513c0-.093-.091-.093-.091-.093M20.974 20.651h-.364a.092.092 0 0 1-.09-.093v-.372c0-.051.04-.093.09-.093h.364c.05 0 .09.042.09.093v.372c0 .051-.04.093-.09.093M20.974 23.163h-.364a.092.092 0 0 1-.09-.093v-2.047c0-.051.04-.093.09-.093h.364c.05 0 .09.042.09.093v2.047c0 .051-.04.093-.09.093M22.701 20.93h-1.454v2.138c0 .043.026.105.108.094l.318-.001c.125.018.122-.094.122-.094l-.003-1.67h.908c.016 0 .368.006.368.463l-.003 1.21c0 .051.04.093.09.093h.364c.05 0 .091-.042.091-.093v-1.252c0-.515-.241-.886-.909-.887M18.156 21.485s-.001-.09.09-.09c.1 0 .584-.002.881-.001.298 0 .662.068.663.644 0 .576-.406.656-.658.656h-.976v-1.21M17.702 24h.362s.09 0 .09-.096v-.741h1.178c.856 0 1.007-.758 1.006-1.118-.001-.36-.154-1.114-1.02-1.113h-1.254c-.454 0-.453.462-.453.462v2.513c0 .093.09.093.09.093M16.794 21.862h-1.638v-.278c0-.094.088-.187.183-.187h1.367c.082 0 .178.094.177.186l-.001.186s0 .093-.088.093m.451 1.3c.094 0 .095-.085.095-.094l-.001-.276c0-.093-.092-.094-.092-.094l-1.91-.002c-.184 0-.181-.181-.181-.181-.002-.012 0-.19 0-.19h1.819c.505 0 .454-.371.454-.371v-.37s.049-.654-.635-.654H15.26c-.696 0-.649.646-.649.646v.935c0 .652.638.649.638.649z"/></g><path d="M30.405 17.379c.131.343-.053.621-.43.621H1.968c-.369 0-.56-.283-.43-.621l2.192-5.758c.131-.343.54-.62.904-.62h22.666c.368 0 .775.282.904.62z" fill="#ccdcea"/><path fill="#fff" d="M29 17H3l1.969-6h22z"/></g></svg>