<svg width="32" height="32" version="1.1" viewBox="0 0 32 32" xmlns="http://www.w3.org/2000/svg"><title>深度商店-32px</title><defs><filter id="a" color-interpolation-filters="sRGB"><feFlood flood-color="#000" flood-opacity=".196" result="flood"/><feComposite in="flood" in2="SourceGraphic" operator="in" result="composite1"/><feGaussianBlur in="composite1" result="blur" stdDeviation=".7"/><feOffset dx="0" dy=".7" result="offset"/><feComposite in="SourceGraphic" in2="offset" result="composite2"/></filter></defs><g fill="none" fill-rule="evenodd" filter="url(#a)"><path d="M4 6.003C4 5.449 4.447 5 5 5h22c.552 0 1 .438 1 1.003V12H4V6.003z" fill="#EFEFEF"/><path d="M4 27.985V12h24v16c0 1-1.003 1-1.003 1H5.001C5 29 4 29 4 27.985z" fill="#FFA737"/><path d="M25 12v17h-4V12h4zm-7 0v17h-4V12h4zm-7 0v17H7V12h4z" fill="#FF7300"/><path d="M9 10a1 1 0 1 0 0-2 1 1 0 0 0 0 2zm14 0a1 1 0 1 0 0-2 1 1 0 0 0 0 2z" fill="#785C46"/><path d="M23 9c0 4.333-2 8.5-7 8.5S9 13.333 9 9" stroke="#fff" stroke-linecap="round" stroke-linejoin="round" stroke-width="1.2"/></g></svg>