<svg width="32" height="32" version="1" xmlns="http://www.w3.org/2000/svg"><defs><filter id="a" color-interpolation-filters="sRGB"><feFlood flood-color="#000" flood-opacity=".196" result="flood"/><feComposite in="flood" in2="SourceGraphic" operator="in" result="composite1"/><feGaussianBlur in="composite1" result="blur" stdDeviation=".7"/><feOffset dx="0" dy=".7" result="offset"/><feComposite in="SourceGraphic" in2="offset" result="composite2"/></filter></defs><g filter="url(#a)"><path d="M23.168 3c-1.899 0-3.632.836-4.77 1.96-.026.027-.038.06-.064.087C17.63 4.078 16.9 4 15.317 4.043 14.1 4 12.667 5.157 11.971 6.172c-.635-.257-1.234-.062-1.828.082-1.31.441-2.567 1.65-2.957 2.967-.007.02 0 .037-.006.058-.25.072-.529.06-.754.166-1.144.54-2.369 2-2.422 3.483-.053 1.483.599 2.417 1.187 3.088.374.426.841.668 1.282.957-.1.299-.243.57-.309.89h.002c-.67 3.254.6 6.315 2.52 8.733S13.416 31 16.87 31c4.12 0 7.4-3.09 8.129-7.283C25 20 22 17 27.03 10.916c.65-1.215 1.279-2.55.86-4.463-.208-.957-.877-2.044-1.816-2.66C25.136 3.176 24.117 3 23.168 3z" opacity=".2"/><path d="M23.168 2c-1.899 0-3.632.836-4.77 1.96-.026.027-.038.06-.064.087C17.63 3.078 16.9 3 15.317 3.043 14.1 3 12.667 4.157 11.971 5.172c-.635-.257-1.234-.062-1.828.082-1.31.441-2.567 1.65-2.957 2.967-.007.02 0 .037-.006.058-.25.072-.529.06-.754.166-1.144.54-2.369 2-2.422 3.483-.053 1.483.599 2.417 1.187 3.088.374.426.841.668 1.282.957-.1.299-.243.57-.309.89h.002c-.67 3.254.6 6.315 2.52 8.733S13.416 30 16.87 30c4.12 0 7.4-3.09 8.129-7.283C25 19 22 16 27.03 9.916c.65-1.215 1.279-2.55.86-4.463-.208-.957-.877-2.044-1.816-2.66C25.136 2.176 24.117 2 23.168 2z" fill="#569c3b"/><path d="M23.168 6c-4.443 0-5.275 7-2.775 7 2.499 0 7.218-7 2.775-7zm-7.553 1.016c-2.54.34-1.646 4.897-.293 4.982 1.353.085 2.835-5.323.293-4.982zm-4.095 1.99c-.13.011-.27.04-.418.09-2.38.802-.362 4.117.97 3.894 1.25-.208 1.394-4.153-.552-3.984zM8.39 12a1.517 1.517 0 0 0-.685.158c-1.955.922.658 3.152 1.809 2.807 1.006-.303.363-2.931-1.123-2.965zm9.29 1.002c-3.371-.062-7.818 1.775-8.576 5.465C8.282 22.46 12.486 28 16.87 28c2.157 0 4.644-2.116 5.11-4.797.156-.898-.625-1.213-1.536-1.203-1.162.012-2.536.571-2.445 1.33.133 1.105-.552 1.68-1.32 1.697-1.05-.132-1.563-.76-1.701-1.71-.188-2.495 7.12-4.273 6.521-8.141-.22-1.415-1.797-2.137-3.82-2.174z" opacity=".2"/><path d="M23.168 5c-4.443 0-5.275 7-2.775 7 2.499 0 7.218-7 2.775-7zm-7.553 1.016c-2.54.34-1.646 4.897-.293 4.982 1.353.085 2.835-5.323.293-4.982zm-4.095 1.99c-.13.011-.27.04-.418.09-2.38.802-.362 4.117.97 3.894 1.25-.208 1.394-4.153-.552-3.984zM8.39 11a1.517 1.517 0 0 0-.685.158c-1.955.922.658 3.152 1.809 2.807 1.006-.303.363-2.931-1.123-2.965zm9.29 1.002c-3.371-.062-7.818 1.775-8.576 5.465C8.282 21.46 12.486 27 16.87 27c2.157 0 4.644-2.116 5.11-4.797.156-.898-.625-1.213-1.536-1.203-1.162.012-2.536.571-2.445 1.33.133 1.105-.552 1.68-1.32 1.697-1.05-.132-1.563-.76-1.701-1.71-.188-2.495 7.12-4.273 6.521-8.141-.22-1.415-1.797-2.137-3.82-2.174z" fill="#fff"/><path d="M23.168 2c-1.899 0-3.632.836-4.77 1.96-.026.027-.038.06-.064.087-.704-.969-1.435-1.047-3.018-1.004C14.1 3 12.666 4.157 11.971 5.172c-.635-.257-1.234-.062-1.828.082-1.31.441-2.567 1.65-2.957 2.967-.007.02 0 .037-.006.058-.25.072-.529.06-.754.166-1.144.54-2.369 2-2.422 3.483-.01.255.008.488.037.713.187-1.381 1.315-2.691 2.385-3.196.225-.106.505-.094.754-.166.006-.02 0-.037.006-.058.39-1.318 1.648-2.526 2.957-2.967.594-.144 1.193-.34 1.828-.082.696-1.015 2.129-2.172 3.345-2.13C16.9 4 17.63 4.079 18.334 5.048c.026-.027.038-.06.065-.086C19.536 3.836 21.269 3 23.168 3c.95 0 1.968.176 2.906.793.939.617 1.608 1.703 1.817 2.66.05.23.083.45.105.664a5.385 5.385 0 0 0-.105-1.664c-.21-.957-.878-2.043-1.817-2.66C25.136 2.176 24.117 2 23.168 2zM6.188 16.789c-.006.026-.018.048-.023.074h.002a8.753 8.753 0 0 0-.159 2.188 8.79 8.79 0 0 1 .159-1.188h-.002c.065-.32.209-.591.308-.89a16.11 16.11 0 0 0-.285-.184zm17.945.447c-.115 2.114.633 3.848.822 5.694.014-.072.033-.141.045-.213 0-1.849-.74-3.52-.867-5.48z" fill="#fff" opacity=".2"/></g></svg>