<svg width="32" height="32" version="1" xmlns="http://www.w3.org/2000/svg"><defs><filter id="a" color-interpolation-filters="sRGB"><feFlood flood-color="#000" flood-opacity=".196" result="flood"/><feComposite in="flood" in2="SourceGraphic" operator="in" result="composite1"/><feGaussianBlur in="composite1" result="blur" stdDeviation=".7"/><feOffset dx="0" dy=".7" result="offset"/><feComposite in="SourceGraphic" in2="offset" result="composite2"/></filter></defs><g filter="url(#a)"><path d="M16 2C8.269 2 2 8.268 2 16s6.269 14 14 14c7.73 0 14-6.268 14-14S23.73 2 16 2z" fill="#6eaa36"/><path d="M16.087 6.202c-4.295 0-6.75 1.758-8.351 3.74 1.227.336 2.085.617 2.361.708l.033-1.857.024-.054.063-.019c.377.055 8.43 1.246 11.822 3.222.42.247.626.505.886.771.937.97 2.182 5.003 2.314 5.837l-.053.087c-.049.018-.167.1-.321.205-.792.554-2.642 1.849-5.014 1.638-2.133-.19-4.916-1.414-8.274-3.624.148.348.846 2.005.963 2.283l.048.058c.486.25 5.15 2.629 7.465 2.58 1.868-.037 3.861-.948 4.66-1.426l.253-.049c.07.056.06.164.038.264a7.246 7.246 0 0 1-.235.843l-.062.163c-.09.241-.18.474-.35.613-.47.428-1.223.767-2.398 1.282-1.819.795-4.765 1.295-7.503 1.279-.98-.024-1.929-.132-2.762-.227-1.738-.197-3.15-.357-3.994.298a11.173 11.173 0 0 0 8.389 3.783c6.185 0 11.205-5.014 11.205-11.2 0-6.185-5.02-11.2-11.205-11.2h-.001zm2.96 5.927a3.4 3.4 0 0 0-2.293.924 3.415 3.415 0 0 0-1.096 2.4 3.465 3.465 0 0 0 3.328 3.567c.923.03 1.797-.299 2.47-.929a3.427 3.427 0 0 0 1.092-2.394 3.458 3.458 0 0 0-3.328-3.568c-.057-.002-.115 0-.172 0zm-.09 1.016c.078-.005.154-.003.234 0a2.407 2.407 0 0 1 1.562 4.162c-.47.436-1.08.66-1.724.64a2.413 2.413 0 0 1-2.319-2.489c.02-.641.296-1.235.762-1.672.409-.383.93-.607 1.484-.641zm.63 1.202c-.59 0-1.067.32-1.067.713 0 .391.477.714 1.068.714.588 0 1.062-.322 1.062-.714 0-.393-.474-.713-1.062-.713z" opacity=".2"/><path d="M16.087 5.201c-4.295 0-6.75 1.759-8.351 3.74 1.227.337 2.085.617 2.361.709l.033-1.858.024-.053.063-.02c.377.055 8.43 1.246 11.822 3.223.42.247.626.505.886.77.937.97 2.182 5.004 2.314 5.838l-.053.086c-.049.018-.167.1-.321.206-.792.553-2.642 1.848-5.014 1.638-2.133-.19-4.916-1.414-8.274-3.625l.963 2.284.048.057c.486.251 5.15 2.63 7.465 2.581 1.868-.037 3.861-.948 4.66-1.427l.253-.048c.07.056.06.164.038.264a7.246 7.246 0 0 1-.235.843l-.062.162c-.09.242-.18.474-.35.614-.47.428-1.223.766-2.398 1.282-1.819.794-4.765 1.294-7.503 1.278-.98-.024-1.929-.131-2.762-.227-1.738-.197-3.15-.357-3.994.299a11.172 11.172 0 0 0 8.39 3.783c6.185 0 11.204-5.014 11.204-11.2 0-6.185-5.02-11.2-11.205-11.2h-.001zm2.96 5.928a3.4 3.4 0 0 0-2.293.924 3.415 3.415 0 0 0-1.096 2.4 3.465 3.465 0 0 0 3.328 3.567c.923.03 1.797-.3 2.47-.93a3.427 3.427 0 0 0 1.092-2.394 3.458 3.458 0 0 0-3.328-3.567c-.057-.002-.115-.001-.172 0zm-.09 1.015c.078-.004.154-.003.234 0a2.407 2.407 0 0 1 1.562 4.162c-.47.436-1.08.661-1.724.641a2.413 2.413 0 0 1-2.319-2.49c.02-.641.296-1.234.762-1.671.409-.384.93-.608 1.484-.642zm.63 1.203c-.59 0-1.067.32-1.067.713 0 .391.477.713 1.068.713.588 0 1.062-.321 1.062-.713 0-.394-.474-.713-1.062-.713z" fill="#fff"/><path d="M2.022 16.414A14 14 0 0 0 2 17a14 14 0 0 0 14 14 14 14 0 0 0 14-14 14 14 0 0 0-.021-.414A14 14 0 0 1 16 30 14 14 0 0 1 2.022 16.414z" opacity=".2"/><path d="M16 2A14 14 0 0 0 2 16a14 14 0 0 0 .022.414A14 14 0 0 1 16 3a14 14 0 0 1 13.979 13.586 14 14 0 0 0 .02-.586A14 14 0 0 0 16 2z" fill="#fff" opacity=".2"/></g></svg>