<svg width="32" height="32" version="1.1" viewBox="0 0 32 32" xmlns="http://www.w3.org/2000/svg"><defs><filter id="a" color-interpolation-filters="sRGB"><feFlood flood-color="#000" flood-opacity=".196" result="flood"/><feComposite in="flood" in2="SourceGraphic" operator="in" result="composite1"/><feGaussianBlur in="composite1" result="blur" stdDeviation=".7"/><feOffset dx="0" dy=".7" result="offset"/><feComposite in="SourceGraphic" in2="offset" result="composite2"/></filter></defs><g filter="url(#a)"><path d="M6.475 3.02c-1.171.097-2.927.935-3.739 2.22-1.006 1.594-.772 2.405-.722 3.17.05.765.2 1.452.441 2.162.365 1.078.967 1.932 1.49 2.871-.554 1.459-.941 2.974-.945 4.547V18c0 7.132 5.868 13 13 13s13-5.868 13-13v-.006c-.003-1.575-.391-3.092-.945-4.553.523-.938 1.125-1.791 1.49-2.869a8.24 8.24 0 0 0 .441-2.162c.05-.765.283-1.576-.722-3.17-.54-.855-1.527-1.624-2.448-1.949-.919-.324-1.7-.322-2.34-.264a7.68 7.68 0 0 0-1.177.201c-1.766.427-3.316 1.25-4.881 2.239-.806-.157-1.582-.465-2.406-.467h-.014c-.829 0-1.61.308-2.42.465-1.564-.987-3.113-1.81-4.877-2.236a7.677 7.677 0 0 0-1.181-.202 6.005 6.005 0 0 0-1.045-.007z" opacity=".2"/><path d="M6.475 2.02c-1.171.097-2.927.935-3.739 2.22-1.006 1.594-.772 2.405-.722 3.17.05.765.2 1.452.441 2.162.365 1.078.967 1.932 1.49 2.871-.554 1.459-.941 2.974-.945 4.547V17c0 7.132 5.868 13 13 13s13-5.868 13-13v-.006c-.003-1.575-.391-3.092-.945-4.553.523-.939 1.125-1.791 1.49-2.869a8.24 8.24 0 0 0 .441-2.162c.05-.765.283-1.576-.722-3.17-.54-.855-1.527-1.624-2.448-1.949-.919-.324-1.7-.322-2.34-.264a7.68 7.68 0 0 0-1.177.202c-1.766.426-3.316 1.25-4.881 2.238-.806-.157-1.582-.465-2.406-.467h-.014c-.829 0-1.61.308-2.42.465-1.564-.987-3.113-1.81-4.877-2.236a7.677 7.677 0 0 0-1.181-.202 6.005 6.005 0 0 0-1.045-.007z" fill="#fb5140"/><path d="M6.805 7.006c-.325.027-.547.15-.686.369-.198.313-.145 1.115.125 1.914.269.794.911 2.048 1.512 3.066a10.066 10.066 0 0 1 3.949-3.37c-1.417-.895-2.941-1.629-3.95-1.872a3.728 3.728 0 0 0-.59-.103 2.072 2.072 0 0 0-.36-.004zm18.39 0a2.071 2.071 0 0 0-.359.004 3.728 3.728 0 0 0-.591.103c-1.118.27-2.877 1.13-4.413 2.158-.781.524-.832.593-.832 1.123 0 .38.032.506.223.903.53 1.099 1.715 2.222 2.729 2.586.45.161 1.025.156 1.238-.012.535-.42 2.107-3.227 2.566-4.582.27-.799.323-1.6.125-1.914-.138-.22-.36-.342-.685-.37zM16 9a9 9 0 0 0-9 9 9 9 0 0 0 9 9 9 9 0 0 0 9-9 9 9 0 0 0-.816-3.72c-.104.127-.214.25-.375.376-.447.352-.792.34-1.14.344s-.7-.048-1.055-.176c-1.397-.5-2.624-1.71-3.291-3.094A3.138 3.138 0 0 1 18 10.394c0-.28.044-.724.282-1.09A9 9 0 0 0 16 9z" opacity=".2"/><path d="M6.805 6.006c-.325.027-.547.15-.686.369-.198.313-.145 1.115.125 1.914.269.794.911 2.048 1.512 3.067a10.066 10.066 0 0 1 3.949-3.372c-1.417-.894-2.941-1.628-3.95-1.87a3.728 3.728 0 0 0-.59-.104 2.072 2.072 0 0 0-.36-.004zm18.39 0a2.072 2.072 0 0 0-.359.004 3.728 3.728 0 0 0-.591.103c-1.118.27-2.877 1.13-4.413 2.159-.781.523-.832.592-.832 1.123 0 .379.032.505.223.902.53 1.1 1.715 2.222 2.729 2.586.45.161 1.025.156 1.238-.012.535-.42 2.107-3.227 2.566-4.582.27-.799.323-1.6.125-1.914-.138-.22-.36-.342-.685-.37zM16 8a9 9 0 0 0-9 9 9 9 0 0 0 9 9 9 9 0 0 0 9-9 9 9 0 0 0-.816-3.72c-.104.127-.214.25-.375.376-.447.352-.792.34-1.14.344-.35.003-.7-.048-1.055-.176-1.397-.5-2.624-1.71-3.291-3.094A3.138 3.138 0 0 1 18 9.395c0-.28.044-.724.282-1.09A9 9 0 0 0 16 8z" fill="#fff"/><path d="M24.982 1.998a7.68 7.68 0 0 0-1.684.23c-1.765.427-3.315 1.25-4.88 2.239-.806-.157-1.582-.465-2.407-.467h-.013c-.829 0-1.61.308-2.42.465-1.564-.987-3.113-1.81-4.877-2.236a7.677 7.677 0 0 0-1.182-.202 6.005 6.005 0 0 0-1.045-.007c-1.17.097-2.927.935-3.738 2.22-.87 1.38-.812 2.166-.748 2.85.067-.489.26-1.076.748-1.85.811-1.285 2.567-2.123 3.738-2.22.368-.031.714-.023 1.045.007.399.035.791.104 1.182.202 1.764.426 3.313 1.249 4.877 2.236.81-.157 1.591-.465 2.42-.465h.013c.825.002 1.6.31 2.407.467 1.565-.989 3.115-1.812 4.88-2.239a7.68 7.68 0 0 1 1.178-.2c.64-.059 1.421-.06 2.34.263.921.325 1.907 1.094 2.447 1.95.488.772.681 1.36.748 1.849.064-.685.122-1.47-.748-2.85-.54-.855-1.526-1.624-2.447-1.949a5.123 5.123 0 0 0-1.834-.293zM3.728 13.07c-.43 1.265-.725 2.57-.729 3.92V17c0 .181.02.359.028.539.068-1.412.417-2.778.918-4.096-.07-.127-.144-.249-.217-.373zm24.543 0c-.072.124-.146.245-.217.371.5 1.317.85 2.683.918 4.094.008-.179.028-.355.028-.535v-.006c-.003-1.352-.298-2.657-.729-3.924z" fill="#fff" opacity=".2"/></g></svg>