<svg width="32" height="32" version="1.1" xmlns="http://www.w3.org/2000/svg"><defs><filter id="a" color-interpolation-filters="sRGB"><feFlood flood-color="#000" flood-opacity=".196" result="flood"/><feComposite in="flood" in2="SourceGraphic" operator="in" result="composite1"/><feGaussianBlur in="composite1" result="blur" stdDeviation=".7"/><feOffset dx="0" dy=".7" result="offset"/><feComposite in="SourceGraphic" in2="offset" result="composite2"/></filter></defs><g fill-rule="evenodd" filter="url(#a)"><path d="M15.998 3C14.752 6.057 14 8.056 12.612 11.02c.85.9 1.895 1.951 3.591 3.137-1.823-.75-3.067-1.503-3.997-2.285C10.43 15.577 7.647 20.856 2 31c4.439-2.562 7.03-4.141 10.235-4.744a8.122 8.122 0 0 1-.21-1.9l.005-.143c.07-2.843 2.43-5.21 4.152-5.213 1.72-.004 3.894 2.907 3.824 5.75a8.029 8.029 0 0 1-.18 1.527c3.172.62 5.796 2.196 10.175 4.723-.864-1.589-1.634-3.021-2.37-4.386-1.16-.898-2.368-2.067-4.835-3.333 1.696.44 2.91.949 3.855 1.517C19.17 10.87 18.564 9.02 15.998 3z" opacity=".2"/><path d="M15.998 2C14.752 5.057 14 7.056 12.612 10.02c.85.9 1.895 1.951 3.591 3.137-1.823-.75-3.067-1.503-3.997-2.285C10.43 14.577 7.647 19.856 2 30c4.439-2.562 7.03-4.141 10.235-4.744a8.122 8.122 0 0 1-.21-1.9l.005-.143c.07-2.843 2.43-5.21 4.152-5.213 1.72-.004 3.894 2.907 3.824 5.75a8.029 8.029 0 0 1-.18 1.527c3.172.62 5.796 2.196 10.175 4.723-.864-1.589-1.634-3.021-2.37-4.386-1.16-.898-2.368-2.067-4.835-3.333 1.696.44 2.91.949 3.855 1.517C19.17 9.87 18.564 8.02 15.998 2z" fill="#1793d1"/><path d="M15.998 2c-1.246 3.055-1.999 5.055-3.387 8.02.097.102.207.212.309.318C14.105 7.75 14.854 5.804 15.998 3c2.46 5.77 3.274 7.981 9.912 20.395.264.13.511.265.74.402C19.17 9.87 18.564 8.02 15.998 2zm-3.793 8.871C10.429 14.577 7.647 19.856 2 30.001l.809-.466c5.051-9.103 7.716-14.16 9.396-17.664.93.782 2.175 1.535 3.998 2.285a21.08 21.08 0 0 1-3.068-2.595 11.009 11.009 0 0 1-.93-.69zm10.59 12.41c2.466 1.266 3.677 2.434 4.836 3.332l1.586 2.938c.272.157.496.283.783.449-.863-1.59-1.633-3.023-2.37-4.387a80.176 80.176 0 0 1-1.138-.902c-.924-.533-2.09-1.012-3.697-1.43zm-10.742.61c-.01.107-.02.213-.023.322l-.004.142c-.003.32.015.633.048.938.055-.011.106-.027.16-.037-.1-.43-.153-.892-.181-1.365zm7.918.359c-.03.354-.073.702-.145 1.027.048.01.094.024.141.033.017-.185.034-.37.04-.56.003-.167-.025-.333-.036-.5z" fill="#fff" opacity=".2"/></g></svg>