<svg width="32" height="32" version="1" xmlns="http://www.w3.org/2000/svg"><defs><filter id="a" color-interpolation-filters="sRGB"><feFlood flood-color="#000" flood-opacity=".196" result="flood"/><feComposite in="flood" in2="SourceGraphic" operator="in" result="composite1"/><feGaussianBlur in="composite1" result="blur" stdDeviation=".7"/><feOffset dx="0" dy=".7" result="offset"/><feComposite in="SourceGraphic" in2="offset" result="composite2"/></filter></defs><g filter="url(#a)"><path d="M20 3c-5.523 0-10 4.477-10 10s4.477 10 10 10 10-4.477 10-10V4.53C30 3.68 29.321 3 28.471 3z" opacity=".2"/><path d="M20 2c-5.523 0-10 4.477-10 10s4.477 10 10 10 10-4.477 10-10V3.53C30 2.68 29.321 2 28.471 2z" fill="#666"/><path d="M20 20c3.88 0 7-3.12 7-7V6h-7c-3.88 0-7 3.12-7 7s3.12 7 7 7z" opacity=".2"/><path d="M20 19c3.88 0 7-3.12 7-7V5h-7c-3.88 0-7 3.12-7 7s3.12 7 7 7z" fill="#ececec"/><path d="M12 11C6.477 11 2 15.477 2 21v8.47c0 .85.683 1.53 1.53 1.53H12c5.523 0 10-4.477 10-10s-4.477-10-10-10z" opacity=".2"/><path d="M20 2c-5.523 0-10 4.477-10 10 0 .169.017.333.025.5C10.288 7.211 14.646 3 20 3h8.471C29.321 3 30 3.68 30 4.53v-1C30 2.68 29.321 2 28.471 2H20z" fill="#fff" opacity=".1"/><path d="M12 10C6.477 10 2 14.477 2 20v8.47c0 .85.683 1.53 1.53 1.53H12c5.523 0 10-4.477 10-10s-4.477-10-10-10z" fill="gray"/><path d="M12 14c-3.88 0-7 3.12-7 7v7h7c3.88 0 7-3.12 7-7s-3.12-7-7-7z" opacity=".2"/><path d="M12 13c-3.88 0-7 3.12-7 7v7h7c3.88 0 7-3.12 7-7s-3.12-7-7-7z" fill="#fff"/><path d="M12 10C6.477 10 2 14.477 2 20v1c0-5.523 4.477-10 10-10 5.354 0 9.713 4.211 9.975 9.5.008-.167.025-.331.025-.5 0-5.523-4.477-10-10-10z" fill="#fff" opacity=".2"/></g></svg>