<svg width="32" height="32" version="1" xmlns="http://www.w3.org/2000/svg"><defs><filter id="a" color-interpolation-filters="sRGB"><feFlood flood-color="#000" flood-opacity=".196" result="flood"/><feComposite in="flood" in2="SourceGraphic" operator="in" result="composite1"/><feGaussianBlur in="composite1" result="blur" stdDeviation=".7"/><feOffset dx="0" dy=".7" result="offset"/><feComposite in="SourceGraphic" in2="offset" result="composite2"/></filter></defs><g filter="url(#a)"><path d="M3.4 3C2.624 3 2 3.624 2 4.4v25.2c0 .776.624 1.4 1.4 1.4H10V11h10V3zM22 3v28h6.6c.776 0 1.4-.624 1.4-1.4V4.4c0-.776-.624-1.4-1.4-1.4zM12 13v18h8V13z" opacity=".2"/><path d="M3.4 2C2.624 2 2 2.624 2 3.4v25.2c0 .776.624 1.4 1.4 1.4H10V10h10V2zM22 2v28h6.6c.776 0 1.4-.624 1.4-1.4V3.4c0-.776-.624-1.4-1.4-1.4zM12 12v18h8V12z" fill="#16a085"/><path d="M3.4 2C2.625 2 2 2.625 2 3.4v1C2 3.625 2.625 3 3.4 3H20V2H3.4zM22 2v1h6.6c.776 0 1.4.625 1.4 1.4v-1c0-.775-.624-1.4-1.4-1.4H22zM12 12v1h8v-1h-8z" fill="#fff" opacity=".2"/></g></svg>