<svg width="32" height="32" version="1.1" viewBox="0 0 32 32" xmlns="http://www.w3.org/2000/svg"><defs><filter id="a" color-interpolation-filters="sRGB"><feFlood flood-color="#000" flood-opacity=".196" result="flood"/><feComposite in="flood" in2="SourceGraphic" operator="in" result="composite1"/><feGaussianBlur in="composite1" result="blur" stdDeviation=".7"/><feOffset dx="0" dy=".7" result="offset"/><feComposite in="SourceGraphic" in2="offset" result="composite2"/></filter></defs><g filter="url(#a)"><circle cx="16" cy="17" r="14" opacity=".2"/><circle cx="16" cy="16" r="14" fill="#7ea043"/><path d="M18 7v6l5-3zm-2 1a9 9 0 0 0-8.406 5.791l.879.527A8 8 0 0 1 16 9a8 8 0 0 1 1 .07V8.066A9 9 0 0 0 16 8zm0 3a6 6 0 0 0-5.773 4.371l.898.537A5 5 0 0 1 16 12a5 5 0 0 1 1 .102v-1.016A6 6 0 0 0 16 11zm6.9.225l-.877.527A8 8 0 0 1 24 17a8 8 0 0 1-1.97 5.252l.865.52A9 9 0 0 0 25 17a9 9 0 0 0-2.1-5.775zm-2.623 1.574l-.888.533A5 5 0 0 1 21 17a5 5 0 0 1-1.61 3.668l.89.535A6 6 0 0 0 22 17a6 6 0 0 0-1.723-4.201zM6 14v6l5-3zm5.127 4.09l-.896.537A6 6 0 0 0 16 23a6 6 0 0 0 1-.09v-1.016A5 5 0 0 1 16 22a5 5 0 0 1-4.874-3.91zm-2.656 1.594l-.869.521A9 9 0 0 0 16 26a9 9 0 0 0 1-.06v-1.012A8 8 0 0 1 16 25a8 8 0 0 1-7.529-5.316zM18.001 21v6l5-3z" opacity=".2"/><path d="M18 6v6l5-3-5-3zm-2 1a9 9 0 0 0-8.406 5.791l.879.527A8 8 0 0 1 16 8a8 8 0 0 1 1 .07V7.066A9 9 0 0 0 16 7zm0 3a6 6 0 0 0-5.773 4.371l.898.537A5 5 0 0 1 16 11a5 5 0 0 1 1 .102v-1.016A6 6 0 0 0 16 10zm6.9.225l-.877.527A8 8 0 0 1 24 16a8 8 0 0 1-1.97 5.252l.865.52A9 9 0 0 0 25 16a9 9 0 0 0-2.1-5.775zm-2.623 1.574l-.888.533A5 5 0 0 1 21 16a5 5 0 0 1-1.61 3.668l.89.535A6 6 0 0 0 22 16a6 6 0 0 0-1.723-4.201zM6 13v6l5-3-5-3zm5.127 4.09l-.896.537A6 6 0 0 0 16 22a6 6 0 0 0 1-.09v-1.016A5 5 0 0 1 16 21a5 5 0 0 1-4.874-3.91zm-2.656 1.594l-.869.521A9 9 0 0 0 16 25a9 9 0 0 0 1-.06v-1.012A8 8 0 0 1 16 24a8 8 0 0 1-7.529-5.316zM18.001 20v6l5-3-5-3z" fill="#fff"/><path d="M16 2A14 14 0 0 0 2 16a14 14 0 0 0 .021.586A14 14 0 0 1 16.001 3a14 14 0 0 1 13.978 13.414 14 14 0 0 0 .022-.414 14 14 0 0 0-14-14z" fill="#fff" opacity=".2"/></g></svg>