<svg width="32" height="32" version="1.1" xmlns="http://www.w3.org/2000/svg"><defs><filter id="a" color-interpolation-filters="sRGB"><feFlood flood-color="#000" flood-opacity=".196" result="flood"/><feComposite in="flood" in2="SourceGraphic" operator="in" result="composite1"/><feGaussianBlur in="composite1" result="blur" stdDeviation=".7"/><feOffset dx="0" dy=".7" result="offset"/><feComposite in="SourceGraphic" in2="offset" result="composite2"/></filter></defs><g filter="url(#a)"><rect x="2" y="3" width="28" height="28" rx="1.4" ry="1.4" opacity=".2"/><rect x="2" y="2" width="28" height="28" rx="1.4" ry="1.4" fill="#7ec242"/><path d="M10.636 9.963v10.37a2.95 2.95 0 0 0 2.949 2.963h6.636a2.95 2.95 0 0 0 2.949-2.963v-5.555a2.587 2.587 0 0 0-2.58-2.593c-.724 0-1.375.305-1.843.787a2.567 2.567 0 0 0-1.844-.787 2.587 2.587 0 0 0-2.58 2.593v4.444h1.474v-4.444c0-.614.495-1.111 1.106-1.111s1.106.497 1.106 1.111v4.444h1.475v-4.444c0-.614.495-1.111 1.106-1.111s1.106.497 1.106 1.111v5.555c0 .821-.658 1.482-1.475 1.482h-6.636a1.475 1.475 0 0 1-1.474-1.482V9.963z" opacity=".2"/><path d="M10.636 8.963v10.37a2.95 2.95 0 0 0 2.949 2.963h6.636a2.95 2.95 0 0 0 2.949-2.963v-5.555a2.587 2.587 0 0 0-2.58-2.593c-.724 0-1.375.305-1.843.787a2.567 2.567 0 0 0-1.844-.787 2.587 2.587 0 0 0-2.58 2.593v4.444h1.474v-4.444c0-.614.495-1.111 1.106-1.111s1.106.497 1.106 1.111v4.444h1.475v-4.444c0-.614.495-1.111 1.106-1.111s1.106.497 1.106 1.111v5.555c0 .821-.658 1.482-1.475 1.482h-6.636a1.475 1.475 0 0 1-1.474-1.482V8.963z" fill="#fff"/><path d="M4 7v5.926h2.95v6.736c0 4.062 3.26 7.338 7.303 7.338h12.604V14.338c0-4.062-3.26-7.338-7.304-7.338zm1.475 1.482h14.078c3.252 0 5.829 2.589 5.829 5.856v11.181h-11.13c-3.25 0-5.828-2.59-5.828-5.857v-6.736c0-.776-.703-1.482-1.475-1.482H5.474z" opacity=".2"/><path d="M4 6v5.926h2.95v6.736c0 4.062 3.26 7.338 7.303 7.338h12.604V13.338c0-4.062-3.26-7.338-7.304-7.338zm1.475 1.482h14.078c3.252 0 5.829 2.589 5.829 5.856v11.181h-11.13c-3.25 0-5.828-2.59-5.828-5.857v-6.736c0-.776-.703-1.482-1.475-1.482H5.474z" fill="#fff"/><path d="M3.4 2C2.625 2 2 2.625 2 3.4v1C2 3.625 2.625 3 3.4 3h25.2c.775 0 1.4.625 1.4 1.4v-1c0-.775-.625-1.4-1.4-1.4H3.4z" fill="#fff" opacity=".2"/></g></svg>