<svg width="32" height="32" version="1.1" viewBox="0 0 32 32" xmlns="http://www.w3.org/2000/svg"><defs><filter id="a" color-interpolation-filters="sRGB"><feFlood flood-color="#000" flood-opacity=".196" result="flood"/><feComposite in="flood" in2="SourceGraphic" operator="in" result="composite1"/><feGaussianBlur in="composite1" result="blur" stdDeviation=".7"/><feOffset dx="0" dy=".7" result="offset"/><feComposite in="SourceGraphic" in2="offset" result="composite2"/></filter></defs><g filter="url(#a)"><path d="M29.388 3.475c-.052-.155-.048-.351-.145-.48-1.34.193-2.664.524-3.904 1.07-1.312.563-2.739 1.51-3.742 2.523 1.635 1.702 2.9 3.778 4.383 5.392.69 1 1.386 2.552 1.976 3.613.131-.237.92-1.25 1.03-1.498.863-1.778 1.046-3.791 1-5.738-.02-1.643-.264-3.275-.598-4.882zM2.604 3.475c.052-.155.048-.351.146-.48 1.339.193 2.664.524 3.903 1.07 1.313.563 2.74 1.51 3.742 2.523-1.634 1.702-2.9 3.778-4.383 5.392-.69 1-1.386 2.552-1.976 3.613-.13-.237-.92-1.25-1.03-1.498-.863-1.778-1.045-3.791-1-5.738.02-1.643.264-3.275.598-4.882z" opacity=".2"/><path d="M11.141 5.593c-.27.178-.533.367-.79.563-.604.45-1.157.97-1.695 1.495a23.572 23.572 0 0 0-1.07 1.17l-.002.001c0 .002-.002.003-.004.005-1.853 2.167-3.324 4.645-4.501 7.229-.123.278-.242.557-.357.838l-.076.182-.027.071a31.602 31.602 0 0 0-.586 1.582.293.293 0 0 0-.025.142v.003c.008.1.055.2.086.295a15.316 15.316 0 0 0 .84 1.928l.012.02a14.263 14.263 0 0 0 1.71 2.564c.436.532.915 1.027 1.425 1.489l.138.123.046.041a14.337 14.337 0 0 0 4.535 2.722l.144.053a14.425 14.425 0 0 0 1.505.46 14.68 14.68 0 0 0 3.01.422h.013l.266.007.09.001h.36l.09-.001.265-.007h.013a14.681 14.681 0 0 0 3.307-.5h.004c.408-.11.81-.238 1.206-.383l.14-.051.003-.001a14.341 14.341 0 0 0 3.972-2.25 14.814 14.814 0 0 0 .747-.636c.51-.462.989-.957 1.425-1.489a14.267 14.267 0 0 0 1.709-2.56 14.995 14.995 0 0 0 .143-.281l.002-.005c.269-.541.505-1.098.708-1.666.03-.095.078-.195.085-.295v-.003-.002a.292.292 0 0 0-.025-.14 29.633 29.633 0 0 0-.211-.601c-.12-.33-.245-.658-.376-.983l-.025-.069-.074-.178a34.561 34.561 0 0 0-.359-.842c-1.177-2.585-2.648-5.062-4.502-7.23l-.002-.002-.002-.002V8.82a28.427 28.427 0 0 0-.202-.234l-.255-.284a23.57 23.57 0 0 0-.614-.652c-.538-.526-1.09-1.044-1.695-1.494a13.74 13.74 0 0 0-.79-.564C19.217 4.513 17.832 4.05 15.95 4c-1.707.01-3.606.81-4.81 1.593z" opacity=".2"/><path d="M29.388 2.475c-.052-.155-.048-.351-.145-.48-1.34.193-2.664.524-3.904 1.07-1.312.563-2.739 1.51-3.742 2.523 1.635 1.702 2.9 3.778 4.383 5.392.69 1 1.386 2.552 1.976 3.613.131-.237.92-1.25 1.03-1.498.863-1.778 1.046-3.791 1-5.738-.02-1.643-.264-3.275-.598-4.882z" fill="#db3d7f"/><path d="M29.242 1.996c-1.339.193-2.663.523-3.902 1.069-1.313.563-2.74 1.51-3.742 2.523.17.178.324.373.488.558.95-.84 2.136-1.602 3.254-2.082 1.239-.545 2.563-.875 3.902-1.068.098.129.094.323.146.479.321 1.544.555 3.112.59 4.69.004-.27.014-.54.008-.808-.02-1.642-.264-3.275-.598-4.882-.052-.156-.048-.35-.146-.479z" fill="#fff" opacity=".1"/><path d="M2.604 2.475c.052-.155.048-.351.146-.48 1.339.193 2.664.524 3.903 1.07 1.313.563 2.74 1.51 3.742 2.523-1.634 1.702-2.9 3.778-4.383 5.392-.69 1-1.386 2.552-1.976 3.613-.13-.237-.92-1.25-1.03-1.498-.863-1.778-1.045-3.791-1-5.738.02-1.643.264-3.275.598-4.882z" fill="#db3d7f"/><path d="M2.75 1.996c-.098.129-.094.323-.146.479-.334 1.607-.578 3.24-.598 4.882-.006.268.004.538.008.807.035-1.577.269-3.145.59-4.69.052-.155.048-.35.146-.478 1.339.193 2.663.523 3.902 1.068 1.118.48 2.303 1.243 3.254 2.082.164-.185.317-.38.488-.558-1.003-1.013-2.429-1.96-3.742-2.524C5.413 2.52 4.09 2.19 2.75 1.996z" fill="#fff" opacity=".1"/><path d="M11.141 4.593c-.27.178-.533.367-.79.563-.604.45-1.157.97-1.695 1.495a23.572 23.572 0 0 0-1.07 1.17l-.002.001c0 .002-.002.003-.004.005-1.853 2.167-3.324 4.645-4.501 7.229-.123.278-.242.557-.357.838l-.076.182-.027.071a31.602 31.602 0 0 0-.586 1.582.293.293 0 0 0-.025.142v.003c.008.1.055.2.086.295a15.316 15.316 0 0 0 .84 1.928l.012.02a14.263 14.263 0 0 0 1.71 2.564c.436.532.915 1.027 1.425 1.489l.138.123.046.041a14.337 14.337 0 0 0 4.535 2.722l.144.053a14.425 14.425 0 0 0 1.505.46 14.68 14.68 0 0 0 3.01.422h.013l.266.007.09.001h.36l.09-.001.265-.007h.013a14.681 14.681 0 0 0 3.307-.5h.004c.408-.11.81-.238 1.206-.383l.14-.051.003-.001a14.341 14.341 0 0 0 3.972-2.25 14.814 14.814 0 0 0 .747-.636c.51-.462.989-.957 1.425-1.489a14.267 14.267 0 0 0 1.709-2.56 14.995 14.995 0 0 0 .143-.281l.002-.005c.269-.541.505-1.098.708-1.666.03-.095.078-.195.085-.295v-.003-.002a.292.292 0 0 0-.025-.14 29.633 29.633 0 0 0-.211-.601c-.12-.33-.245-.658-.376-.983l-.025-.069-.074-.178a34.561 34.561 0 0 0-.359-.842c-1.177-2.585-2.648-5.062-4.502-7.23l-.002-.002-.002-.002V7.82a28.427 28.427 0 0 0-.202-.234l-.255-.284a23.57 23.57 0 0 0-.614-.652c-.538-.526-1.09-1.044-1.695-1.494a13.74 13.74 0 0 0-.79-.564C19.217 3.513 17.832 3.05 15.95 3c-1.707.01-3.606.81-4.81 1.593z" fill="#e4e4e4"/><g fill="#3f3f3f"><path d="M9.047 15c-.64 0-1.281.09-1.893.276-.177 1.076-.267 2.208.099 3.257a3.336 3.336 0 0 0 1.928 2.08c1.116.463 2.389.48 3.558.214.15-.674.276-1.36.258-2.051.03-.85-.17-1.734-.686-2.43-.594-.822-1.625-1.242-2.625-1.317a6.934 6.934 0 0 0-.64-.03zm-.013.886c.343-.007.687.02 1.021.089.147.06.368.027.471.148-.468.181-.87.56-1 1.044a1.48 1.48 0 0 0 .378 1.464c.546.607 1.63.635 2.198.047-.015.466-.03.941-.144 1.391-.473.048-.96.067-1.432-.008-.861-.092-1.751-.51-2.185-1.277-.492-.84-.497-1.845-.376-2.777.14-.077.302-.06.454-.075.203-.026.41-.042.615-.046zM13.009 22.325c-.043.087.083.146.132.213.702.662 1.395 1.33 2.11 1.984.144.138.36.198.569.248.001.39.005.78-.001 1.172.081.08.23.068.336.026-.007-.395.008-.79-.009-1.184.215-.068.446-.127.605-.271.716-.682 1.444-1.359 2.159-2.043.026-.045.118-.085.082-.14-.804-.2-1.642-.284-2.479-.321-1.18-.037-2.371.042-3.504.316zM15.951 3c-.724.004-1.483.151-2.208.378.649 2.332 1.265 4.673 1.905 7.008.088-.01.177-.018.266-.027.175-2.444.431-4.885.597-7.33A11.344 11.344 0 0 0 15.95 3zm-2.515.48c-.869.302-1.674.71-2.295 1.113-.36.26-1.083.748-.429.307 1.28 2.03 2.576 4.052 3.862 6.08l.242-.097c-.185-.92-.33-1.847-.518-2.766-.156-.767-.272-1.54-.429-2.306-.16-.775-.282-1.556-.433-2.332z"/></g><path d="M9.209 25.754l-6.45 4.49" fill="none" opacity=".2" stroke="#000" stroke-linecap="round" stroke-linejoin="round" stroke-width="1.5"/><path d="M9.209 24.754l-6.45 4.49" fill="none" stroke="#db3d7f" stroke-linecap="round" stroke-linejoin="round" stroke-width="1.5"/><path d="M23.008 15c.64 0 1.281.09 1.893.276.177 1.076.267 2.208-.099 3.257a3.336 3.336 0 0 1-1.928 2.08c-1.116.463-2.389.48-3.558.214-.15-.674-.276-1.36-.258-2.051-.03-.85.17-1.734.686-2.43.594-.822 1.625-1.242 2.625-1.317.212-.02.426-.03.64-.03zm.013.886a4.678 4.678 0 0 0-1.021.089c-.147.06-.368.027-.471.148.468.181.87.56 1 1.044a1.48 1.48 0 0 1-.378 1.464c-.546.607-1.63.635-2.198.047.015.466.03.941.144 1.391.473.048.96.067 1.432-.008.861-.092 1.751-.51 2.185-1.277.492-.84.497-1.845.376-2.777-.14-.077-.302-.06-.454-.075a5.536 5.536 0 0 0-.615-.046z" fill="#3f3f3f"/><g fill="none" stroke-linecap="round" stroke-linejoin="round" stroke-width="1.5"><path d="M13.209 25.754l-6.45 4.49" opacity=".2" stroke="#000"/><path d="M13.209 24.754l-6.45 4.49" stroke="#db3d7f"/><path d="M22.759 25.754l6.45 4.49" opacity=".2" stroke="#000"/><path d="M22.759 24.754l6.45 4.49" stroke="#db3d7f"/><path d="M18.759 25.754l6.45 4.49" opacity=".2" stroke="#000"/><path d="M18.759 24.754l6.45 4.49" stroke="#db3d7f"/></g></g></svg>