<svg width="32" height="32" version="1" xmlns="http://www.w3.org/2000/svg"><defs><filter id="a" color-interpolation-filters="sRGB"><feFlood flood-color="#000" flood-opacity=".196" result="flood"/><feComposite in="flood" in2="SourceGraphic" operator="in" result="composite1"/><feGaussianBlur in="composite1" result="blur" stdDeviation=".7"/><feOffset dx="0" dy=".7" result="offset"/><feComposite in="SourceGraphic" in2="offset" result="composite2"/></filter></defs><g fill-rule="evenodd" filter="url(#a)"><circle cx="13.5" cy="27.5" r="3.5" opacity=".2"/><circle cx="8.5" cy="19.5" r="3.5" fill="#ff6bf4"/><circle cx="13.5" cy="26.5" r="3.5" fill="#ff6bf4"/><circle cx="9.5" cy="25.5" r="5.5" opacity=".2"/><circle cx="9.5" cy="24.5" r="5.5" fill="#cc4e38"/><circle cx="19.5" cy="21.5" r="6.5" opacity=".2"/><circle cx="19.5" cy="20.5" r="6.5" fill="#f26666"/><circle cx="17" cy="16" r="9" opacity=".2"/><circle cx="17" cy="15" r="9" fill="#fdcc58"/><circle cx="7" cy="27" r="4" opacity=".2"/><circle cx="7" cy="26" r="4" fill="#ff6bf4"/><path d="M15.592 15.256c-1.022 3.743-3.472 6.542-7.288 5.539-3.816-1.003-6.08-4.85-5.058-8.593 1.022-3.743 4.945-5.964 8.76-4.96 3.817 1.002 4.609 4.271 3.586 8.014z" opacity=".2"/><path d="M15.592 14.256c-1.022 3.743-3.472 6.542-7.288 5.539-3.816-1.003-6.08-4.85-5.058-8.593 1.022-3.743 4.945-5.964 8.76-4.96 3.817 1.002 4.609 4.271 3.586 8.014z" fill="#f26666"/><path d="M9.87 6.006C6.821 6.125 4.076 8.16 3.245 11.2a6.866 6.866 0 0 0-.22 2.303c.032-.433.101-.868.22-1.303 1.023-3.743 4.944-5.964 8.76-4.96 2.595.681 3.79 2.412 3.969 4.626.125-2.683-.997-4.846-3.97-5.627a7.275 7.275 0 0 0-2.136-.234z" fill="#fff" opacity=".2"/><circle cx="24" cy="6" r="4" fill="#98ecef"/><circle cx="23" cy="15" r="4" opacity=".2"/><circle cx="23" cy="14" r="4" fill="#98ecef"/><circle cx="22.5" cy="10.5" r="5.5" opacity=".2"/><path d="M24 2a4 4 0 0 0-4 4 4 4 0 0 0 .035.494A4 4 0 0 1 24 3a4 4 0 0 1 3.965 3.506A4 4 0 0 0 28 6a4 4 0 0 0-4-4z" fill="#fff" opacity=".2"/><circle cx="22.5" cy="9.5" r="5.5" fill="#4e59b3"/><path d="M21 10c0 2.21-1.073 4-3.182 4S14 12.21 14 10s1.71-4 3.818-4S21 7.79 21 10z" opacity=".2"/><path d="M21 9c0 2.21-1.073 4-3.182 4S14 11.21 14 9s1.71-4 3.818-4S21 6.79 21 9z" fill="#98ecef"/><path d="M17.818 5C15.709 5 14 6.79 14 9c0 .171.029.334.048.5.238-1.97 1.825-3.5 3.77-3.5s2.997 1.53 3.15 3.5c.013-.166.032-.329.032-.5 0-2.21-1.073-4-3.182-4z" fill="#fff" opacity=".2"/></g></svg>