<svg width="32" height="32" version="1.1" viewBox="0 0 32 32" xmlns="http://www.w3.org/2000/svg"><title>firefox-zh</title><defs><linearGradient id="b" x1="28.075" x2="33.012" y1="2.115" y2="7.576" gradientTransform="scale(.7689 1.3006)" gradientUnits="userSpaceOnUse"><stop stop-color="#F89B09" offset="0"/><stop stop-color="#FBDB00" offset="1"/></linearGradient><linearGradient id="c" x1="62.036" x2="62.036" y1="5.284" y2="6.921" gradientTransform="scale(.42268 2.3658)" gradientUnits="userSpaceOnUse"><stop stop-color="#F6901A" offset="0"/><stop stop-color="#FF5224" offset="1"/></linearGradient><linearGradient id="d" x1="27.395" x2="25.553" y1="18.168" y2="20.824" gradientTransform="scale(.91411 1.094)" gradientUnits="userSpaceOnUse"><stop stop-color="#F95828" offset="0"/><stop stop-color="#F02044" offset="1"/></linearGradient><linearGradient id="e" x1="11.873" x2="10.519" y1="43.211" y2="44.314" gradientTransform="scale(1.6717 .59818)" gradientUnits="userSpaceOnUse"><stop stop-color="#B21969" offset="0"/><stop stop-color="#8E123B" offset="1"/></linearGradient><linearGradient id="f" x1="17.917" x2="12.271" y1="3.282" y2="21.877" gradientUnits="userSpaceOnUse"><stop stop-color="#01A2FC" offset="0"/><stop stop-color="#441A7E" offset="1"/></linearGradient><linearGradient id="g" x1="4.506" x2="4.506" y1="2.606" y2="6.438" gradientTransform="scale(.81749 1.2233)" gradientUnits="userSpaceOnUse"><stop stop-color="#EF2545" offset="0"/><stop stop-color="#C01F49" offset="1"/></linearGradient><linearGradient id="h" x1="21.465" x2="-3.785" y1=".095" y2="12.502" gradientTransform="scale(.97852 1.0219)" gradientUnits="userSpaceOnUse"><stop stop-color="#FEEA04" offset="0"/><stop stop-color="#FFE900" offset=".273"/><stop stop-color="#FF7916" offset=".461"/><stop stop-color="#FF282F" offset=".762"/><stop stop-color="#BF0573" offset="1"/></linearGradient><linearGradient id="i" x1="9.646" x2="7.693" y1="5.753" y2="8.228" gradientTransform="scale(1.1775 .84922)" gradientUnits="userSpaceOnUse"><stop stop-color="#F79C0F" offset="0"/><stop stop-color="#FF681C" offset="1"/></linearGradient><linearGradient id="j" x1="5.385" x2="12.398" y1="8.911" y2="8.911" gradientTransform="scale(.85132 1.1747)" gradientUnits="userSpaceOnUse"><stop stop-color="#FF372A" offset="0"/><stop stop-color="#FF8703" offset=".788"/><stop stop-color="#FCAA00" offset="1"/></linearGradient><linearGradient id="k" x1="4.769" x2="11.27" y1="18.126" y2="22.827" gradientTransform="scale(1.3027 .76763)" gradientUnits="userSpaceOnUse"><stop stop-color="#D93A20" offset="0"/><stop stop-color="#FF4D1E" offset=".274"/><stop stop-color="#FF8703" offset=".535"/><stop stop-color="#FFBC01" offset="1"/></linearGradient><linearGradient id="l" x1="5.93" x2="9.169" y1="15.892" y2="21.825" gradientTransform="scale(1.1282 .88635)" gradientUnits="userSpaceOnUse"><stop stop-color="#E3311F" offset="0"/><stop stop-color="#F14719" offset=".5"/><stop stop-color="#EA2C16" offset="1"/></linearGradient><linearGradient id="m" x1="28.328" x2="21.635" y1="8.113" y2="17.688" gradientTransform="scale(.68897 1.4514)" gradientUnits="userSpaceOnUse"><stop stop-color="#FF9302" offset="0"/><stop stop-color="#FFCA00" offset=".317"/><stop stop-color="#FF7B16" offset=".765"/><stop stop-color="#FF5F1F" stop-opacity="0" offset="1"/></linearGradient><linearGradient id="n" x1="27.657" x2="36.154" y1=".943" y2="13.623" gradientTransform="scale(.65756 1.5208)" gradientUnits="userSpaceOnUse"><stop stop-color="#FFF150" offset="0"/><stop stop-color="#FFEE4C" offset=".208"/><stop stop-color="#FFCD28" offset=".672"/><stop stop-color="#FF9601" offset="1"/></linearGradient><linearGradient id="o" x1="28.519" x2="33.322" y1="1.341" y2="15.474" gradientTransform="scale(.60793 1.6449)" gradientUnits="userSpaceOnUse"><stop stop-color="#FFEB02" offset="0"/><stop stop-color="#FFAC00" offset=".718"/><stop stop-color="#FF7417" offset="1"/></linearGradient><linearGradient id="p" x1="22.974" x2="20.121" y1="3.128" y2=".396" gradientTransform="scale(.88182 1.134)" gradientUnits="userSpaceOnUse"><stop stop-color="#FFE900" offset="0"/><stop stop-color="#FFE309" offset="1"/></linearGradient><filter id="a" color-interpolation-filters="sRGB"><feFlood flood-color="#000" flood-opacity=".196" result="flood"/><feComposite in="flood" in2="SourceGraphic" operator="in" result="composite1"/><feGaussianBlur in="composite1" result="blur" stdDeviation=".7"/><feOffset dx="0" dy=".7" result="offset"/><feComposite in="SourceGraphic" in2="offset" result="composite2"/></filter></defs><g transform="translate(2.5 2)" fill-rule="evenodd" filter="url(#a)"><path d="M21.062 5.5c-.292-1.042-.125-1.958.5-2.75.386.87.698 1.495.938 1.875 1.38 2.195 2.481 3.839 2.812 5.063.417 1.541-1 .145-4.25-4.188z" fill="url(#b)"/><path d="M25.938 13.25l.625-.75c.042 2.25-.188 3.542-.688 3.875" fill="url(#c)"/><path d="M25 19.875c-1.458 1.792-2.25 2.75-2.375 2.875-.188.188 2-.5 2.25-1.563.167-.708.208-1.145.125-1.312z" fill="url(#d)"/><path d="M20.625 25.188l-3.688 1.313c1.667.041 2.667-.105 3-.438s.563-.625.688-.875z" fill="url(#e)"/><circle cx="13.5" cy="14" r="12" fill="url(#f)"/><path d="M5.25 6C4.125 5 3.687 4.062 3.937 3.187c-1.29 1.334-1.895 2.896-1.812 4.688" fill="url(#g)"/><path d="M10.75 8.5c-.375-.188-.875-.5-.938-1.188S7.063 4.876 4 6.25s-5.5 7.625-2.875 13.562 8.25 7.937 11.25 8.062S18.063 27.937 20 26c-.667.334-1.604.5-2.813.5 1.19-.404 2.04-.713 2.551-.926 3.297-1.374 5.03-2.94 5.2-4.698-.279.465-.529.798-.75 1-.237.215-.675.486-1.313.812 1.5-1.708 2.542-3.27 3.125-4.687s.77-3.25.563-5.5c-.044 1.048-.106 1.798-.188 2.25s-.248.972-.5 1.562c.227-1.727.31-2.915.25-3.562s-.352-1.69-.875-3.125c-1.458-2.667-2.917-4.5-4.375-5.5C18.75 2 17.708.687 17.75.187a.212.212 0 0 0-.002-.062c-.09-.394-2.12 3.496-2.06 5.062.062 1.625.124 4.125 3.187 6.125 1.25 2.125 1.354 4.292.313 6.5-1.563 3.313-7.25 4.938-10.25.938-2.765-3.687.107-6.063 1.25-6.875.097-.07.118-.269.187-.313s1.522-.647 2.188-1.187c.443-.36.718-.988.687-1.188-.077-.5-2.125-.5-2.5-.687z" fill="url(#h)"/><path d="M8.188 6.188c1.291-1.125 2.5-1.521 3.624-1.188C10.438 6.167 9.75 7 9.75 7.5" fill="url(#i)"/><path d="M8.188 6.125c1.291-1.042 2.5-1.417 3.624-1.125-1.416 1.042-2.229 2.333-2.437 3.875-.083 1.125.188 2.125.813 3-.084.958-.188 1.48-.313 1.563-.333.041-.875-.063-1.625-.313-1.125-.375-2.938 1.313-2.688 2.563.127.633-.806-1.093-1.52-3.072-.696-1.926 1.369-5.363 2.366-5.781a84.93 84.93 0 0 1 1.78-.71z" fill="url(#j)"/><path d="M11.125 16.5c.25 0 .359-.039.5-.063.949-.291 1.636-.437 2.063-.437.64 0 2.124.688 1.937 1.563-.042.166-.25.312-.5.25-.25-.084-.417-.105-.5-.063l-.133.067a8.35 8.35 0 0 1-.671.338c-.621.308-1.409.682-1.634.72a1.456 1.456 0 0 0-.036.006 4.772 4.772 0 0 1-1.339.182 7.003 7.003 0 0 1-.716-.04 3.66 3.66 0 0 1-1.221-.335c-1.023-.38-1.69-.672-2-.875-1.073-.705-1.244-1.288-1.25-1.313S5 14.5 6 13.688s1.787-.725 2.875-.438a12 12 0 0 0 1 .188c-1.417 0-1.958.437-1.625 1.312.329.863 1.25 1.512 2.812 1.75h.063z" fill="url(#k)"/><path transform="rotate(16 8.818 16.578)" d="M4.623 15.636c.423-2.75 4.346-2.368 4.346-2.368-.116.115-3.167 2.254.186 4.693 1.218.886 5.203 2.084 3.469 1.93-1.735-.152-8.635-.164-8-4.255z" fill="url(#l)" fill-rule="nonzero"/><path d="M19.812 25.438c.14-.086 1.27-1.756 1.563-1.938 1.083-3.416 1.354-6.104.812-8.062s-1.73-3.23-3.313-4.063c3 3.792 2.48 7.938-1.812 12.688-.164.182-.32.356-.466.523-.857.605-1.118.951-.784 1.04.38.1 1.714.038 4-.188z" fill="url(#m)"/><path d="M20.875 4.125c1.458 1 2.917 2.833 4.375 5.5.592 1.438.842 2.438.875 3.125s.063 1.625-.25 3.5c.252-.59.39-1.048.47-1.5.082-.452.174-1.202.218-2.25.208 2.25.02 4.083-.563 5.5s-1.625 2.98-3.125 4.688c-.197.195-.381.366-.592.562 1.5-9.813-.437-9.5-3.75-13.125-2.208-2.417-2.49-5.75-.846-10 .063-.063.063 0 .063.063-.014.513 1.026 1.839 3.125 3.937z" fill="url(#n)"/><path d="M17.688.125c-3.167 4.667-2.77 8.417 1.188 11.25 5.937 4.25 1.902 12.938 1 13.875s4.937-1.5 5.062-4.375a5.388 5.388 0 0 1-2.063 1.813c1.5-5.959.709-9.896-2.375-11.812-3.083-1.917-4.02-5.5-2.812-10.75z" fill="url(#o)"/><path d="M20.731 3.981c.082.1.132.133.07.1C19.145 3.2 17.644 1.31 17.748.125c.117.586 1.11 1.871 2.983 3.856z" fill="url(#p)"/></g></svg>