<?xml version="1.0" encoding="UTF-8"?>
<svg width="32" height="32" version="1" xmlns="http://www.w3.org/2000/svg" xmlns:cc="http://creativecommons.org/ns#" xmlns:dc="http://purl.org/dc/elements/1.1/" xmlns:rdf="http://www.w3.org/1999/02/22-rdf-syntax-ns#" xmlns:xlink="http://www.w3.org/1999/xlink">
 <defs>
  <linearGradient id="linearGradient873" x1="1" x2="30" y1="15.5" y2="15.5" gradientUnits="userSpaceOnUse">
   <stop stop-color="#1E007E" offset="0"/>
   <stop stop-color="#3721B2" offset="1"/>
  </linearGradient>
 </defs>
 <metadata>
  <rdf:RDF>
   <cc:Work rdf:about="">
    <dc:format>image/svg+xml</dc:format>
    <dc:type rdf:resource="http://purl.org/dc/dcmitype/StillImage"/>
    <dc:title/>
   </cc:Work>
  </rdf:RDF>
 </metadata>
 <circle cx="15.5" cy="16.5" r="14.5" opacity=".2"/>
 <circle cx="15.5" cy="15.5" r="14.5" fill="url(#linearGradient873)"/>
 <path d="m15.5 5a11.5 11.5 0 0 0-11.5 11.5 11.5 11.5 0 0 0 11.5 11.5 11.5 11.5 0 0 0 11.387-10h3.0332a14.5 14.5 0 0 0 0.080078-1.5 14.5 14.5 0 0 0-0.09375-1.5h-8.9062v3h2.8594a8.5 8.5 0 0 1-8.3594 7 8.5 8.5 0 0 1-8.5-8.5 8.5 8.5 0 0 1 8.5-8.5h7.7324a11.5 11.5 0 0 0-7.7324-3z" opacity=".2"/>
 <path d="m15.5 4a11.5 11.5 0 0 0-11.5 11.5 11.5 11.5 0 0 0 11.5 11.5 11.5 11.5 0 0 0 11.387-10h3.0332a14.5 14.5 0 0 0 0.080078-1.5 14.5 14.5 0 0 0-0.09375-1.5h-8.9062v3h2.8594a8.5 8.5 0 0 1-8.3594 7 8.5 8.5 0 0 1-8.5-8.5 8.5 8.5 0 0 1 8.5-8.5h7.7324a11.5 11.5 0 0 0-7.7324-3z" fill="#fff"/>
 <path d="m15.5 11a5.5 5.5 0 0 0-5.5 5.5 5.5 5.5 0 0 0 5.5 5.5 5.5 5.5 0 0 0 2.5-0.60742v0.60742h3v-11h-3v0.60156a5.5 5.5 0 0 0-2.5-0.60156zm0 3a2.5 2.5 0 0 1 2.5 2.5 2.5 2.5 0 0 1-2.5 2.5 2.5 2.5 0 0 1-2.5-2.5 2.5 2.5 0 0 1 2.5-2.5z" opacity=".2"/>
 <g fill="#fff">
  <path d="m15.5 10a5.5 5.5 0 0 0-5.5 5.5 5.5 5.5 0 0 0 5.5 5.5 5.5 5.5 0 0 0 2.5-0.60742v0.60742h3v-11h-3v0.60156a5.5 5.5 0 0 0-2.5-0.60156zm0 3a2.5 2.5 0 0 1 2.5 2.5 2.5 2.5 0 0 1-2.5 2.5 2.5 2.5 0 0 1-2.5-2.5 2.5 2.5 0 0 1 2.5-2.5z"/>
  <path d="m15.5 1a14.5 14.5 0 0 0-14.5 14.5 14.5 14.5 0 0 0 0.021484 0.58008 14.5 14.5 0 0 1 14.479-14.08 14.5 14.5 0 0 1 14.479 13.92 14.5 14.5 0 0 0 0.021484-0.41992 14.5 14.5 0 0 0-14.5-14.5z" opacity=".1"/>
  <path d="m15.5 4a11.5 11.5 0 0 0-11.5 11.5 11.5 11.5 0 0 0 0.021484 0.42188 11.5 11.5 0 0 1 11.479-10.922 11.5 11.5 0 0 1 6.4414 2h1.291a11.5 11.5 0 0 0-7.7324-3zm5.5 10v1h8.9062a14.5 14.5 0 0 1 0.066406 1.0488 14.5 14.5 0 0 0 0.027344-0.54883 14.5 14.5 0 0 0-0.09375-1.5h-8.9062zm-13.979 2.0859a8.5 8.5 0 0 0-0.021484 0.41406 8.5 8.5 0 0 0 8.5 8.5 8.5 8.5 0 0 0 8.3594-7h-0.25a8.5 8.5 0 0 1-8.1094 6 8.5 8.5 0 0 1-8.4785-7.9141z" opacity=".2"/>
 </g>
</svg>
