<svg width="32" height="32" version="1" xmlns="http://www.w3.org/2000/svg"><defs><filter id="a" color-interpolation-filters="sRGB"><feFlood flood-color="#000" flood-opacity=".196" result="flood"/><feComposite in="flood" in2="SourceGraphic" operator="in" result="composite1"/><feGaussianBlur in="composite1" result="blur" stdDeviation=".7"/><feOffset dx="0" dy=".7" result="offset"/><feComposite in="SourceGraphic" in2="offset" result="composite2"/></filter></defs><g filter="url(#a)"><rect transform="matrix(0 -1 -1 0 0 0)" x="-30" y="-30" width="28" height="28" rx="1.5" ry="1.5" fill="#959595"/><path d="M16 11c-2.097 0-3.89.69-4.632 1.667a2.024 2.024 0 0 0-.164.251 1.712 1.712 0 0 0-.113.249 5 2.667 0 0 0-.021.078c-.017.057-.036.115-.046.173a5 2.667 0 0 0-.024.248c0 .087.009.173.025.26a5 2.667 0 0 0 .068.25 5 2.667 0 0 0 .116.248 5 2.667 0 0 0 .159.242A5 2.667 0 0 0 16 16.333a5 2.667 0 0 0 4.631-1.667 5 2.667 0 0 0 .002-.003 5 2.667 0 0 0 .135-.205l.025-.04a5 2.667 0 0 0 .083-.178c.011-.028.026-.055.036-.083a5 2.667 0 0 0 .04-.149c.01-.039.02-.077.027-.117a5 2.667 0 0 0 .02-.225 5 2.667 0 0 0-.026-.266 1.713 1.713 0 0 0-.34-.736c-.743-.977-2.535-1.667-4.632-1.667zm-4.632 5A5 2.667 0 0 0 11 17a5 2.667 0 0 0 5 2.667A5 2.667 0 0 0 21 17a5 2.667 0 0 0-.368-1A5 2.667 0 0 1 16 17.667 5 2.667 0 0 1 11.368 16zm0 3.333a5 2.667 0 0 0-.368 1A5 2.667 0 0 0 16 23a5 2.667 0 0 0 5-2.666 5 2.667 0 0 0-.368-1A5 2.667 0 0 1 16 21a5 2.667 0 0 1-4.632-1.667z" opacity=".1"/><path d="M3.5 2C2.669 2 2 2.669 2 3.5v1C2 3.669 2.669 3 3.5 3h25c.831 0 1.5.669 1.5 1.5v-1c0-.831-.669-1.5-1.5-1.5h-25z" fill="#fff" opacity=".1"/><path d="M2 28.5v1c0 .831.669 1.5 1.5 1.5h25c.831 0 1.5-.669 1.5-1.5v-1c0 .831-.669 1.5-1.5 1.5h-25c-.831 0-1.5-.669-1.5-1.5z" opacity=".2"/><path d="M16 10c-2.097 0-3.89.69-4.632 1.667a2.024 2.024 0 0 0-.164.251 1.712 1.712 0 0 0-.113.249 5 2.667 0 0 0-.021.078c-.017.057-.036.115-.046.173a5 2.667 0 0 0-.024.249c0 .087.009.173.025.26a5 2.667 0 0 0 .068.25 5 2.667 0 0 0 .116.248 5 2.667 0 0 0 .159.242A5 2.667 0 0 0 16 15.334a5 2.667 0 0 0 4.631-1.667 5 2.667 0 0 0 .002-.003 5 2.667 0 0 0 .135-.205l.025-.04a5 2.667 0 0 0 .083-.178c.011-.028.026-.055.036-.083a5 2.667 0 0 0 .04-.149c.01-.039.02-.077.027-.117a5 2.667 0 0 0 .02-.225 5 2.667 0 0 0-.026-.266 1.713 1.713 0 0 0-.34-.736c-.743-.977-2.535-1.667-4.632-1.667zm-4.632 5A5 2.667 0 0 0 11 16a5 2.667 0 0 0 5 2.667A5 2.667 0 0 0 21 16a5 2.667 0 0 0-.368-1A5 2.667 0 0 1 16 16.667 5 2.667 0 0 1 11.368 15zm0 3.333a5 2.667 0 0 0-.368 1A5 2.667 0 0 0 16 22a5 2.667 0 0 0 5-2.666 5 2.667 0 0 0-.368-1A5 2.667 0 0 1 16 20a5 2.667 0 0 1-4.632-1.667z" fill="#4d4d4d"/><circle cx="24" cy="23" r="8" fill="#cc5e55" fill-rule="evenodd"/><path d="M23 19l-.088 1.054a3.143 3.143 0 0 0-.919.53l-.957-.45-1 1.732.87.604a3.143 3.143 0 0 0-.049.53 3.143 3.143 0 0 0 .046.532l-.867.602 1 1.732.955-.45a3.143 3.143 0 0 0 .92.528L23 27h2l.088-1.054a3.143 3.143 0 0 0 .919-.53l.957.45 1-1.732-.87-.604a3.143 3.143 0 0 0 .049-.53 3.143 3.143 0 0 0-.046-.532l.867-.602-1-1.732-.955.45a3.143 3.143 0 0 0-.921-.528L25 19h-2zm1 2.857A1.143 1.143 0 0 1 25.143 23 1.143 1.143 0 0 1 24 24.143 1.143 1.143 0 0 1 22.857 23 1.143 1.143 0 0 1 24 21.857z" fill="#fff"/><path d="M31.979 23.424A8 8 0 0 1 24 31a8 8 0 0 1-7.979-7.424A8 8 0 0 0 16 24a8 8 0 0 0 8 8 8 8 0 0 0 8-8 8 8 0 0 0-.021-.576z" fill-rule="evenodd" opacity=".2"/></g></svg>