<svg width="32" height="32" version="1.1" viewBox="0 0 32 32" xmlns="http://www.w3.org/2000/svg"><defs><filter id="a" color-interpolation-filters="sRGB"><feFlood flood-color="#000" flood-opacity=".196" result="flood"/><feComposite in="flood" in2="SourceGraphic" operator="in" result="composite1"/><feGaussianBlur in="composite1" result="blur" stdDeviation=".7"/><feOffset dx="0" dy=".7" result="offset"/><feComposite in="SourceGraphic" in2="offset" result="composite2"/></filter></defs><g filter="url(#a)"><ellipse cx="16" cy="16" rx="14" ry="14" fill="#4f4f4f"/><ellipse cx="16" cy="17" rx="11" ry="11" opacity=".2"/><ellipse cx="16" cy="16" rx="11" ry="11" fill="#cb4444"/><path d="M15 8v6h2V8h-2zm2.04 2.084zm-2.335.041zm3.008.094zm-3.697.074zm4.414.146zm-4.973.047A7 7 0 0 0 9 17a7 7 0 1 0 14 0 7 7 0 0 0-4.246-6.427L18 12.42A5 5 0 0 1 21 17a5 5 0 0 1-5 5 5 5 0 0 1-5-5 5 5 0 0 1 3.064-4.606l-.607-1.908z" opacity=".2"/><path d="M15 7v6h2V7h-2zm2.04 2.084zm-2.335.041zm3.008.094zm-3.697.074zm4.414.146zm-4.973.047A6.999 6.999 0 0 0 9 16a7 7 0 1 0 14 0 7 7 0 0 0-4.246-6.428L18 11.42A5 5 0 0 1 21 16a5 5 0 0 1-5 5 5 5 0 0 1-5-5 5 5 0 0 1 3.064-4.605l-.607-1.909z" fill="#fff"/><path d="M16 2A14 14 0 0 0 2 16a14 14 0 0 0 .021.586A14 14 0 0 1 16 3a14 14 0 0 1 13.978 13.414A14 14 0 0 0 30 16 14 14 0 0 0 16 2z" fill="#fff" opacity=".1"/><path d="M29.979 16.414A14 14 0 0 1 16 30 14 14 0 0 1 2.022 16.586 14 14 0 0 0 2 17a14 14 0 0 0 14 14 14 14 0 0 0 14-14 14 14 0 0 0-.021-.586z" opacity=".2"/></g></svg>