<svg width="32" height="32" version="1" xmlns="http://www.w3.org/2000/svg"><defs><filter id="a" color-interpolation-filters="sRGB"><feFlood flood-color="#000" flood-opacity=".196" result="flood"/><feComposite in="flood" in2="SourceGraphic" operator="in" result="composite1"/><feGaussianBlur in="composite1" result="blur" stdDeviation=".7"/><feOffset dx="0" dy=".7" result="offset"/><feComposite in="SourceGraphic" in2="offset" result="composite2"/></filter></defs><g filter="url(#a)"><g fill="#8e8e8e"><path d="M29 20v1H3v-1zM29 23v1H3v-1zM29 26v1H3v-1zM29 11v1H3v-1zM29 14v1H3v-1zM29 17v1H3v-1zM29 8v1H3V8zM29 5v1H3V5z"/></g><g fill="#8e8e8e"><path d="M12 29h-1V3h1zM9 29H8V3h1zM6 29H5V3h1zM21 29h-1V3h1zM18 29h-1V3h1zM15 29h-1V3h1zM24 29h-1V3h1zM27 29h-1V3h1z"/></g><rect transform="matrix(0 -1 -1 0 0 0)" x="-28" y="-28" width="24" height="24" rx="1.2" ry="1.5" fill="#b7b7b7"/><path d="M5.5 4C4.669 4 4 4.534 4 5.2v1C4 5.533 4.669 5 5.5 5h21c.831 0 1.5.534 1.5 1.2v-1c0-.666-.669-1.2-1.5-1.2h-21z" fill="#fff" opacity=".2"/><path d="M4 26.801v1C4 28.466 4.669 29 5.5 29h21c.831 0 1.5-.534 1.5-1.199v-1c0 .665-.669 1.199-1.5 1.199h-21c-.831 0-1.5-.534-1.5-1.199z" opacity=".2"/><rect x="7" y="7" width="18" height="18" rx="1" ry="1" fill="#d13232"/></g></svg>