<svg width="32" height="32" version="1" xmlns="http://www.w3.org/2000/svg"><defs><filter id="a" color-interpolation-filters="sRGB"><feFlood flood-color="#000" flood-opacity=".196" result="flood"/><feComposite in="flood" in2="SourceGraphic" operator="in" result="composite1"/><feGaussianBlur in="composite1" result="blur" stdDeviation=".7"/><feOffset dx="0" dy=".7" result="offset"/><feComposite in="SourceGraphic" in2="offset" result="composite2"/></filter></defs><g filter="url(#a)"><rect transform="matrix(0 -1 -1 0 0 0)" x="-30" y="-30" width="28" height="28" rx="14" ry="14" fill="#6573c3"/><path d="M25.893 6.11L6.112 25.89a13.957 13.957 0 0 0 19.781 0 13.957 13.957 0 0 0 0-19.781z" opacity=".1"/><path d="M6.112 25.89l8.654-11.127 2.473 2.473z" fill="#f2f2f2"/><path d="M25.893 6.11l-11.127 8.654 2.473 2.472z" fill="#f34235"/><path d="M25.893 6.11L6.112 25.89a13.957 13.957 0 0 1 0-19.781 13.957 13.957 0 0 1 19.781 0z" fill="#fff" opacity=".2"/><path d="M16.003 2c-7.756 0-14 6.244-14 14 0 .073-.006.146 0 .219a13.972 13.972 0 0 1 14-13.72c7.661 0 13.85 6.095 14 13.72.006-.073 0-.145 0-.219 0-7.756-6.244-14-14-14z" fill="#fff" opacity=".4"/><path d="M2.027 16.5c-.006.167-.025.331-.025.5 0 7.756 6.244 14 14 14s14-6.244 14-14c0-.169-.02-.333-.025-.5-.264 7.521-6.388 13.5-13.975 13.5C8.414 30 2.29 24.021 2.027 16.5z" opacity=".2"/></g></svg>