<svg width="32" height="32" version="1" xmlns="http://www.w3.org/2000/svg"><defs><filter id="a" color-interpolation-filters="sRGB"><feFlood flood-color="#000" flood-opacity=".196" result="flood"/><feComposite in="flood" in2="SourceGraphic" operator="in" result="composite1"/><feGaussianBlur in="composite1" result="blur" stdDeviation=".7"/><feOffset dx="0" dy=".7" result="offset"/><feComposite in="SourceGraphic" in2="offset" result="composite2"/></filter></defs><g filter="url(#a)"><path d="M30 26.611V4.389C30 3.619 29.376 3 28.6 3H3.4C2.624 3 2 3.62 2 4.389V26.61C2 27.38 2.624 28 3.4 28h25.2c.776 0 1.4-.62 1.4-1.389z" fill="#4789d2"/><g opacity=".2"><g transform="translate(-.504 -1.999)"><path d="M10.939 9a.589.589 0 0 0-.496.232c-.673.863-1.376 2.028-2.045 3.069l-.797-1.367a.59.59 0 1 0-1.017.594l1.271 2.18a.589.589 0 0 0 .996.033c.828-1.228 1.765-2.816 2.52-3.784A.589.589 0 0 0 10.939 9z" fill-rule="evenodd"/><rect x="12.5" y="11" width="13" height="2" rx="1" ry="1"/></g><g transform="translate(-.504)"><rect x="12.5" y="16" width="13" height="2" rx="1" ry="1"/><circle cx="8.5" cy="17" r="1"/></g><g transform="translate(-.504 1)"><rect x="12.5" y="21" width="13" height="2" rx="1" ry="1"/><circle cx="8.5" cy="22" r="1"/></g></g><g fill="#ffdd73"><g transform="translate(-.504 -2.999)"><path d="M10.939 9a.589.589 0 0 0-.496.232c-.673.863-1.376 2.028-2.045 3.069l-.796-1.367a.59.59 0 1 0-1.018.594l1.271 2.18a.589.589 0 0 0 .997.032c.827-1.227 1.764-2.815 2.519-3.783A.589.589 0 0 0 10.939 9z" fill-rule="evenodd"/><rect x="12.5" y="11" width="13" height="2" rx="1" ry="1"/></g><g transform="translate(-.504 -1)"><rect x="12.5" y="16" width="13" height="2" rx="1" ry="1"/><circle cx="8.5" cy="17" r="1"/></g><g transform="translate(-.504)"><rect x="12.5" y="21" width="13" height="2" rx="1" ry="1"/><circle cx="8.5" cy="22" r="1"/></g></g><path d="M2 26.611v1C2 28.381 2.625 29 3.4 29h25.2c.775 0 1.4-.619 1.4-1.389v-1c0 .77-.625 1.389-1.4 1.389H3.4c-.775 0-1.4-.619-1.4-1.389z" opacity=".2"/><path d="M3.4 3C2.625 3 2 3.62 2 4.389v1C2 4.619 2.625 4 3.4 4h25.2c.776 0 1.4.62 1.4 1.389v-1A1.39 1.39 0 0 0 28.6 3H3.4z" fill="#fff" opacity=".2"/></g></svg>