<svg width="32" height="32" version="1" xmlns="http://www.w3.org/2000/svg"><defs><filter id="a" color-interpolation-filters="sRGB"><feFlood flood-color="#000" flood-opacity=".196" result="flood"/><feComposite in="flood" in2="SourceGraphic" operator="in" result="composite1"/><feGaussianBlur in="composite1" result="blur" stdDeviation=".7"/><feOffset dx="0" dy=".7" result="offset"/><feComposite in="SourceGraphic" in2="offset" result="composite2"/></filter></defs><g filter="url(#a)"><circle cx="16" cy="17" r="14" fill="#00100f" opacity=".2"/><circle cx="16" cy="16" r="14" fill="#f5b35d"/><g opacity=".2"><path d="M16 7a4 4 0 1 0 0 8 4 4 0 0 0 0-8zM16 17c-7 .004-7 4.43-7 4.43v1.8S10.292 26 16 26s7-2.77 7-2.77v-1.8s0-4.433-6.999-4.43z"/></g><g fill="#3f3f3f"><path d="M16 6a4 4 0 1 0 0 8 4 4 0 0 0 0-8zM16 16c-7 .004-7 4.43-7 4.43v1.8S10.292 25 16 25s7-2.77 7-2.77v-1.8s0-4.433-6.999-4.43z"/></g><path d="M16 2A14 14 0 0 0 2 16a14 14 0 0 0 .021.586A14 14 0 0 1 16.001 3a14 14 0 0 1 13.978 13.414 14 14 0 0 0 .022-.414 14 14 0 0 0-14-14z" fill="#fff" opacity=".2"/></g></svg>