<svg width="32" height="32" version="1" xmlns="http://www.w3.org/2000/svg"><defs><filter id="a" color-interpolation-filters="sRGB"><feFlood flood-color="#000" flood-opacity=".196" result="flood"/><feComposite in="flood" in2="SourceGraphic" operator="in" result="composite1"/><feGaussianBlur in="composite1" result="blur" stdDeviation=".7"/><feOffset dx="0" dy=".7" result="offset"/><feComposite in="SourceGraphic" in2="offset" result="composite2"/></filter></defs><g filter="url(#a)"><rect transform="matrix(0 -1 -1 0 0 0)" x="-30" y="-30" width="28" height="28" rx="1.5" ry="1.5" fill="#4ab3e4"/><path d="M4 17l4-3v2h4v2H8v2zM28 17l-4-3v2h-4v2h4v2z" opacity=".2"/><path d="M3.5 2C2.669 2 2 2.669 2 3.5v1C2 3.669 2.669 3 3.5 3h25c.831 0 1.5.669 1.5 1.5v-1c0-.831-.669-1.5-1.5-1.5h-25z" fill="#fff" opacity=".2"/><path d="M2 28.5v1c0 .831.669 1.5 1.5 1.5h25c.831 0 1.5-.669 1.5-1.5v-1c0 .831-.669 1.5-1.5 1.5h-25c-.831 0-1.5-.669-1.5-1.5z" opacity=".2"/><path d="M4 16l4-3v2h4v2H8v2z" fill="#b3e5fc"/><rect x="15" y="5" width="2" height="24" rx=".5" ry=".5" fill="#fff" opacity=".2"/><rect x="15" y="4" width="2" height="24" rx=".5" ry=".5" fill="#4f4f4f"/><path d="M28 16l-4-3v2h-4v2h4v2z" fill="#b3e5fc"/></g></svg>