<svg width="32" height="32" version="1" xmlns="http://www.w3.org/2000/svg"><defs><filter id="a" color-interpolation-filters="sRGB"><feFlood flood-color="#000" flood-opacity=".196" result="flood"/><feComposite in="flood" in2="SourceGraphic" operator="in" result="composite1"/><feGaussianBlur in="composite1" result="blur" stdDeviation=".7"/><feOffset dx="0" dy=".7" result="offset"/><feComposite in="SourceGraphic" in2="offset" result="composite2"/></filter></defs><g filter="url(#a)"><path d="M30 26.6V5.4c0-.776-.624-1.4-1.4-1.4H3.4C2.624 4 2 4.624 2 5.4v21.2c0 .776.624 1.4 1.4 1.4h25.2c.776 0 1.4-.624 1.4-1.4z" fill="#e3af4a"/><rect x="6" y="9" width="20" height="16" rx="1.35" ry="1.456" opacity=".2"/><rect x="6" y="8" width="20" height="16" rx="1.35" ry="1.456" fill="#faff84"/><rect x="12" y="15" width="8" height="3" rx="1.322" ry="1.368" opacity=".2"/><rect x="12" y="14" width="8" height="3" rx="1.322" ry="1.368" fill="#4e4e4e"/><path d="M2 26.6v1c0 .775.625 1.4 1.4 1.4h25.2c.775 0 1.4-.625 1.4-1.4v-1c0 .775-.625 1.4-1.4 1.4H3.4c-.775 0-1.4-.625-1.4-1.4z" opacity=".2"/><path d="M3.4 4C2.625 4 2 4.625 2 5.4v1C2 5.625 2.625 5 3.4 5h25.2c.775 0 1.4.625 1.4 1.4v-1c0-.775-.625-1.4-1.4-1.4H3.4z" fill="#fff" opacity=".2"/></g></svg>