<svg width="32" height="32" version="1.1" viewBox="0 0 32 32" xmlns="http://www.w3.org/2000/svg"><defs><filter id="a" color-interpolation-filters="sRGB"><feFlood flood-color="#000" flood-opacity=".196" result="flood"/><feComposite in="flood" in2="SourceGraphic" operator="in" result="composite1"/><feGaussianBlur in="composite1" result="blur" stdDeviation=".7"/><feOffset dx="0" dy=".7" result="offset"/><feComposite in="SourceGraphic" in2="offset" result="composite2"/></filter></defs><g filter="url(#a)"><path d="M2.5 5.5h3v22" fill="none" opacity=".2" stroke="#030303" stroke-linecap="round" stroke-linejoin="round" stroke-width="3"/><path d="M8 24v4.5C8 30 9.5 30 9.5 30h18s1.5 0 1.5-1.5V24H11z" opacity=".2"/><path fill="#ff0" d="M11 23h3v6h-3z"/><path d="M8 23h3v6H9.5S8 29 8 27.5z" fill="#38732b"/><path fill="#ff0" d="M17 23h3v6h-3z"/><path fill="#38732b" d="M14 23h3v6h-3z"/><path fill="#ff0" d="M23 23h3v6h-3z"/><path fill="#38732b" d="M20 23h3v6h-3zM29 23h-3v6h1.5s1.5 0 1.5-1.5z"/><rect transform="matrix(0 -1 -1 0 0 0)" x="-27" y="-31" width="21" height="27" rx="1.313" ry="1.35" opacity=".2"/><rect transform="matrix(0 -1 -1 0 0 0)" x="-26" y="-31" width="21" height="27" rx="1.313" ry="1.35" fill="#5bbd41"/><path d="M5.35 5C4.602 5 4 5.585 4 6.313v1C4 6.585 4.602 6 5.35 6h24.3c.748 0 1.35.585 1.35 1.313v-1C31 5.585 30.398 5 29.65 5H5.35z" fill="#fff" opacity=".2"/><g fill="none" stroke-linecap="round" stroke-linejoin="round"><path d="M10.5 10.5h9l-9 12h9" opacity=".1" stroke="#000" stroke-width="3"/><path d="M10.5 9.5h9l-9 12h9" stroke="#3f3f3f" stroke-width="3"/><path d="M23 10h4l-4 6h4" opacity=".1" stroke="#000" stroke-width="2"/><path d="M23 9h4l-4 6h4" stroke="#3f3f3f" stroke-width="2"/><path d="M2.5 4.5h3v22" stroke="#e4e4e4" stroke-width="3"/></g></g></svg>