<svg width="32" height="32" version="1" xmlns="http://www.w3.org/2000/svg"><defs><filter id="a" color-interpolation-filters="sRGB"><feFlood flood-color="#000" flood-opacity=".196" result="flood"/><feComposite in="flood" in2="SourceGraphic" operator="in" result="composite1"/><feGaussianBlur in="composite1" result="blur" stdDeviation=".7"/><feOffset dx="0" dy=".7" result="offset"/><feComposite in="SourceGraphic" in2="offset" result="composite2"/></filter></defs><g filter="url(#a)"><path d="M30 26.611V4.389C30 3.619 29.376 3 28.6 3H3.4C2.624 3 2 3.62 2 4.389V26.61C2 27.38 2.624 28 3.4 28h25.2c.776 0 1.4-.62 1.4-1.389z" fill="#316fb5"/><path d="M12.637 11a.625.667 0 0 0-.637.667v10.666a.625.667 0 0 0 .935.58l8.75-5.334a.625.667 0 0 0 0-1.158l-8.75-5.333a.625.667 0 0 0-.298-.087z" opacity=".2"/><path d="M12.637 10a.625.667 0 0 0-.637.667v10.666a.625.667 0 0 0 .935.58l8.75-5.334a.625.667 0 0 0 0-1.158l-8.75-5.333a.625.667 0 0 0-.298-.087z" fill="#60e5bd"/><path d="M2 26.611v1C2 28.381 2.625 29 3.4 29h25.2c.775 0 1.4-.619 1.4-1.389v-1c0 .77-.625 1.389-1.4 1.389H3.4c-.775 0-1.4-.619-1.4-1.389z" opacity=".2"/><path d="M3.4 3C2.625 3 2 3.62 2 4.389v1C2 4.619 2.625 4 3.4 4h25.2c.776 0 1.4.62 1.4 1.389v-1A1.39 1.39 0 0 0 28.6 3H3.4z" fill="#fff" opacity=".1"/></g></svg>