<svg width="32" height="32" version="1" xmlns="http://www.w3.org/2000/svg"><defs><filter id="a" color-interpolation-filters="sRGB"><feFlood flood-color="#000" flood-opacity=".196" result="flood"/><feComposite in="flood" in2="SourceGraphic" operator="in" result="composite1"/><feGaussianBlur in="composite1" result="blur" stdDeviation=".7"/><feOffset dx="0" dy=".7" result="offset"/><feComposite in="SourceGraphic" in2="offset" result="composite2"/></filter></defs><g filter="url(#a)"><path d="M16 2c-4.432 0-8 3.568-8 8v3h3v-3c0-2.77 2.23-5 5-5s5 2.23 5 5v3h3v-3c0-4.432-3.568-8-8-8z" fill="#d2d2d2"/><rect transform="matrix(0 -1 -1 0 0 0)" x="-30" y="-27" width="17" height="22" rx="1.4" ry="1.4" fill="#ffb437"/><path d="M16 2c-4.432 0-8 3.568-8 8v1c0-4.432 3.568-8 8-8s8 3.568 8 8v-1c0-4.432-3.568-8-8-8zM6.4 13c-.775 0-1.4.625-1.4 1.4v1c0-.775.625-1.4 1.4-1.4h19.2c.775 0 1.4.625 1.4 1.4v-1c0-.775-.625-1.4-1.4-1.4H6.4z" fill="#fff" opacity=".2"/><rect x="5" y="16" width="22" height="10" rx="0" ry="0" fill="#fed96a"/><path d="M16 5c-2.77 0-5 2.23-5 5v1c0-2.77 2.23-5 5-5s5 2.23 5 5v-1c0-2.77-2.23-5-5-5zM5 28.6v1c0 .775.625 1.4 1.4 1.4h19.2c.775 0 1.4-.625 1.4-1.4v-1c0 .775-.625 1.4-1.4 1.4H6.4c-.775 0-1.4-.625-1.4-1.4z" opacity=".2"/></g></svg>