<svg width="32" height="32" version="1" xmlns="http://www.w3.org/2000/svg"><defs><filter id="a" color-interpolation-filters="sRGB"><feFlood flood-color="#000" flood-opacity=".196" result="flood"/><feComposite in="flood" in2="SourceGraphic" operator="in" result="composite1"/><feGaussianBlur in="composite1" result="blur" stdDeviation=".7"/><feOffset dx="0" dy=".7" result="offset"/><feComposite in="SourceGraphic" in2="offset" result="composite2"/></filter></defs><g filter="url(#a)"><rect transform="matrix(0 -1 -1 0 0 0)" x="-30" y="-30" width="28" height="28" rx="14" ry="14" fill="#325f78"/><rect transform="matrix(0 -1 -1 0 0 0)" x="-28" y="-27" width="22" height="22" rx="11" ry="11" opacity=".2"/><rect transform="matrix(0 -1 -1 0 0 0)" x="-27" y="-27" width="22" height="22" rx="11" ry="11" fill="#5c8ba2"/><path d="M16 8.75l-2.227 2.672A6 6 0 0 0 10 17a6 6 0 0 0 12 0 6 6 0 0 0-3.773-5.578L16 8.75z" opacity=".2"/><g fill="#fff"><path d="M16 7.75l-2.227 2.672A6 6 0 0 0 10 16a6 6 0 0 0 12 0 6 6 0 0 0-3.773-5.578L16 7.75z"/><path d="M16 2C8.244 2 2 8.244 2 16c0 .169.02.333.025.5A13.957 13.957 0 0 1 16 3c7.588 0 13.711 5.98 13.975 13.5.006-.167.026-.331.026-.5 0-7.756-6.244-14-14-14z" opacity=".1"/><path d="M16 5C9.906 5 5 9.906 5 16c0 .169.018.333.025.5A10.966 10.966 0 0 1 16 6a10.966 10.966 0 0 1 10.975 10.5c.007-.167.026-.331.026-.5 0-6.094-4.906-11-11-11z" opacity=".1"/></g><path d="M2.025 16.5c-.006.167-.025.331-.025.5 0 7.756 6.244 14 14 14s14-6.244 14-14c0-.169-.02-.333-.025-.5C29.71 24.021 23.587 30 16 30 8.412 30 2.289 24.021 2.025 16.5z" opacity=".2"/></g></svg>