<svg width="32" height="32" version="1" xmlns="http://www.w3.org/2000/svg"><defs><filter id="a" color-interpolation-filters="sRGB"><feFlood flood-color="#000" flood-opacity=".196" result="flood"/><feComposite in="flood" in2="SourceGraphic" operator="in" result="composite1"/><feGaussianBlur in="composite1" result="blur" stdDeviation=".7"/><feOffset dx="0" dy=".7" result="offset"/><feComposite in="SourceGraphic" in2="offset" result="composite2"/></filter></defs><g filter="url(#a)"><path d="M20.989 10l.007 19H3.503c-1.5 0-1.507-1.256-1.507-1.256V11.5s0-1.5 1.5-1.5z" fill="#e4e4e4"/><path d="M3.41 10c-1.5 0-1.5 1.5-1.5 1.5l.006.95C1.92 12.303 1.992 11 3.41 11h17.586v-1z" fill="#fff" opacity=".1"/><path d="M9.668 14.381c.412.286.793.635 1.143 1.048l-.62.76A7.034 7.034 0 0 0 9.002 15l.666-.618m0 3c.381.285.746.603 1.096.952l-.62.81A6.458 6.458 0 0 0 9 18l.667-.62m.19 3.286l.763.524a15.833 15.833 0 0 1-1.667 3.761l-.81-.619a16.713 16.713 0 0 0 1.715-3.667M12.096 14l.904.19c-.063.318-.158.62-.285.906h3.714v.857h-4.095l-.429.714c-.127.254-.333.524-.619.81l-.571-.667c.603-.73 1.063-1.667 1.38-2.81m-.237 2.953h4.38c0 .984-.015 1.905-.047 2.762h.619v.857h-.667A43.497 43.497 0 0 0 16 22.523h.715v.81h-.81c-.127 1.11-.572 1.667-1.334 1.667-.19 0-.46-.032-.81-.095l-.142-.81c.412.063.73.095.952.095s.365-.286.429-.857h-3.715c.127-.857.239-1.778.334-2.762h-.667v-.857h.762c.064-.889.111-1.81.143-2.762m.714 2.762h2.714c.032-.667.048-1.317.048-1.952h-2.619c-.032.698-.08 1.349-.143 1.952M13.763 18c.35.222.667.476.953.762l-.572.714a6.122 6.122 0 0 0-.952-.857l.57-.619m1.334 4.524a43.54 43.54 0 0 0 .143-1.953h-2.714c-.064.699-.143 1.35-.238 1.953h2.81M13.62 20.81c.38.222.73.476 1.048.761l-.62.715c-.317-.35-.65-.651-1-.905l.572-.571m-5-5.667v7.476h-.857v-.81h-.81v1.239h-.857v-7.905H8.62M6.953 21h.81v-5.048h-.81V21M1.996 27.744v1S2.004 30 3.504 30h17.492v-1H3.504c-1.5 0-1.508-1.256-1.508-1.256z" opacity=".2"/><path d="M20.996 10l-10-9v19l10 9z" fill="#a3a3a3"/><path d="M10.996 1v19h17.5c1.5 0 1.507-1.256 1.507-1.256L29.996 2.5s0-1.5-1.5-1.5z" fill="#2095f2"/><path d="M19.277 12.445l.27-1.012c.304-1.097.59-2.38.86-3.543h.068c.287 1.147.59 2.446.894 3.543l.253 1.012h-2.345M22.804 17h2.632L21.994 6h-2.986l-3.442 11h2.531l.675-2.615h3.357L22.804 17" opacity=".2"/><path d="M19.277 11.445l.27-1.012c.304-1.097.59-2.38.86-3.543h.068c.287 1.147.59 2.446.894 3.543l.253 1.012h-2.345M22.804 16h2.632L21.994 5h-2.986l-3.442 11h2.531l.675-2.615h3.357L22.804 16" fill="#fff"/><path d="M10.996 1v1h17.5c1.5 0 1.5 1.5 1.5 1.5v-1s0-1.5-1.5-1.5h-17.5z" fill="#fff" opacity=".1"/><path d="M30.004 18.748c0 .012-.015 1.252-1.508 1.252h-17.5v1h17.5c1.5 0 1.508-1.256 1.508-1.256v-.996z" opacity=".2"/></g></svg>