<svg width="32" height="32" version="1.1" viewBox="0 0 32 32" xmlns="http://www.w3.org/2000/svg"><defs><filter id="a" color-interpolation-filters="sRGB"><feFlood flood-color="#000" flood-opacity=".196" result="flood"/><feComposite in="flood" in2="SourceGraphic" operator="in" result="composite1"/><feGaussianBlur in="composite1" result="blur" stdDeviation=".7"/><feOffset dx="0" dy=".7" result="offset"/><feComposite in="SourceGraphic" in2="offset" result="composite2"/></filter></defs><g filter="url(#a)"><rect transform="matrix(0 -1 -1 0 0 0)" x="-28" y="-30" width="24" height="28" rx="1.286" ry="1.5" fill="#4ab3e4"/><path d="M2 26.715v1C2 28.427 2.669 29 3.5 29h25c.831 0 1.5-.573 1.5-1.285v-1c0 .712-.669 1.285-1.5 1.285h-25c-.831 0-1.5-.573-1.5-1.285z" opacity=".2"/><path d="M3.5 4C2.669 4 2 4.569 2 5.281v1C2 5.57 2.669 5 3.5 5h25c.831 0 1.5.569 1.5 1.281v-1C30 4.57 29.331 4 28.5 4h-25z" fill="#fff" opacity=".2"/><path d="M13.871 7.999c-.416.004-.82.045-1.178.133-2.715.664-5.464 1.918-6.857 4.797C3.7 17.604 5.797 23.133 10.51 25.25c2.605 1.148 5.071 1.04 7.119-.775.603-.545 1.096-1.167 1.291-2.063.388-1.782-.558-4.297-4.371-6.012-3.589-1.613-4.266-4.003-3.756-5.56.514-1.571 2.408-2.99 5.35-2.391.314.066.625.15.931.252-.589-.393-1.954-.714-3.203-.703zm5.129 0a2 2 0 0 0-2 2 2 2 0 0 0 2 2 2 2 0 0 0 2-2 2 2 0 0 0-2-2zm4 3a2 2 0 0 0-2 2 2 2 0 0 0 2 2 2 2 0 0 0 2-2 2 2 0 0 0-2-2zm2 5a2 2 0 0 0-2 2 2 2 0 0 0 2 2 2 2 0 0 0 2-2 2 2 0 0 0-2-2z" opacity=".2"/><path d="M13.871 7c-.416.004-.82.045-1.178.133-2.715.664-5.464 1.918-6.857 4.797-2.135 4.675-.039 10.204 4.674 12.322 2.605 1.148 5.071 1.04 7.119-.775.603-.545 1.096-1.167 1.291-2.063.388-1.782-.558-4.297-4.371-6.012-3.589-1.613-4.266-4.003-3.756-5.56.514-1.571 2.408-2.99 5.35-2.391.314.066.625.15.931.252-.589-.393-1.954-.714-3.203-.703zM19 7a2 2 0 0 0-2 2 2 2 0 0 0 2 2 2 2 0 0 0 2-2 2 2 0 0 0-2-2zm4 3a2 2 0 0 0-2 2 2 2 0 0 0 2 2 2 2 0 0 0 2-2 2 2 0 0 0-2-2zm2 5a2 2 0 0 0-2 2 2 2 0 0 0 2 2 2 2 0 0 0 2-2 2 2 0 0 0-2-2z" fill="#fff"/></g></svg>