<svg width="32" height="32" version="1" xmlns="http://www.w3.org/2000/svg"><defs><filter id="a" color-interpolation-filters="sRGB"><feFlood flood-color="#000" flood-opacity=".196" result="flood"/><feComposite in="flood" in2="SourceGraphic" operator="in" result="composite1"/><feGaussianBlur in="composite1" result="blur" stdDeviation=".7"/><feOffset dx="0" dy=".7" result="offset"/><feComposite in="SourceGraphic" in2="offset" result="composite2"/></filter></defs><g filter="url(#a)"><path d="M16 2C8.244 2 2 8.244 2 16s6.244 14 14 14 14-6.244 14-14S23.756 2 16 2z" fill="#fecd38"/><path d="M16 2C8.244 2 2 8.244 2 16c0 .169.025.333.031.5C2.295 8.98 8.413 3 16.001 3c7.586 0 13.704 5.98 13.968 13.5.006-.167.031-.331.031-.5 0-7.756-6.244-14-14-14z" fill="#fff" opacity=".2"/><path d="M16 8v6h6l-6 10v-6h-6z" fill="#3f3f3f"/><path d="M2.025 16.5c-.006.167-.025.331-.025.5 0 7.756 6.244 14 14 14s14-6.244 14-14c0-.169-.02-.333-.025-.5C29.71 24.021 23.587 30 16 30 8.412 30 2.289 24.021 2.025 16.5z" opacity=".2"/></g></svg>