<svg width="32" height="32" version="1" xmlns="http://www.w3.org/2000/svg" xmlns:xlink="http://www.w3.org/1999/xlink">
<defs>
<filter id="a" color-interpolation-filters="sRGB">
<feFlood flood-opacity=".196" result="flood"/>
<feComposite in="flood" in2="SourceGraphic" operator="in" result="composite1"/>
<feGaussianBlur in="composite1" result="blur" stdDeviation=".7"/>
<feOffset dx="0" dy=".7" result="offset"/>
<feComposite in="SourceGraphic" in2="offset" result="composite2"/>
</filter>
<linearGradient id="linearGradient903" x1="-32.8" x2=".8" y1="-16" y2="-16" gradientTransform="scale(1.0408 .96077)" gradientUnits="userSpaceOnUse">
<stop stop-color="#23FFBE" offset="0"/>
<stop stop-color="#3FDA88" offset="1"/>
</linearGradient>
</defs>
<rect transform="matrix(0,-1,-1,0,0,0)" x="-30" y="-30" width="28" height="28" rx="1.4" ry="1.4" fill="url(#linearGradient903)" filter="url(#a)"/>
<path d="m3.4 2c-0.775 0-1.4 0.625-1.4 1.4v1c0-0.775 0.625-1.4 1.4-1.4h25.2c0.775 0 1.4 0.625 1.4 1.4v-1c0-0.775-0.625-1.4-1.4-1.4z" fill="#fff" filter="url(#a)" opacity=".1"/>
<path d="m2 28.6v1c0 0.775 0.625 1.4 1.4 1.4h25.2c0.775 0 1.4-0.625 1.4-1.4v-1c0 0.775-0.625 1.4-1.4 1.4h-25.2c-0.775 0-1.4-0.625-1.4-1.4z" filter="url(#a)" opacity=".2"/>
<g transform="translate(0,1)" filter="url(#a)" opacity=".2">
<rect x="5" y="5" width="6" height="6" rx=".75" ry=".75"/>
<rect x="13" y="5" width="6" height="6" rx=".75" ry=".75"/>
<rect x="5" y="13" width="6" height="6" rx=".75" ry=".75"/>
<rect x="13" y="13" width="6" height="6" rx=".75" ry=".75"/>
<rect x="5" y="21" width="6" height="6" rx=".75" ry=".75"/>
</g>
<g fill="#fff" filter="url(#a)">
<rect x="5" y="5" width="6" height="6" rx=".75" ry=".75"/>
<rect x="13" y="5" width="6" height="6" rx=".75" ry=".75"/>
<rect x="5" y="13" width="6" height="6" rx=".75" ry=".75"/>
<rect x="13" y="13" width="6" height="6" rx=".75" ry=".75"/>
<rect x="5" y="21" width="6" height="6" rx=".75" ry=".75"/>
</g>
</svg>
