<svg width="32" height="32" version="1" xmlns="http://www.w3.org/2000/svg"><defs><filter id="a" color-interpolation-filters="sRGB"><feFlood flood-color="#000" flood-opacity=".196" result="flood"/><feComposite in="flood" in2="SourceGraphic" operator="in" result="composite1"/><feGaussianBlur in="composite1" result="blur" stdDeviation=".7"/><feOffset dx="0" dy=".7" result="offset"/><feComposite in="SourceGraphic" in2="offset" result="composite2"/></filter></defs><g filter="url(#a)"><path d="M16 3l-.037.002h-.004C11.473 3.03 7 7.679 7 11.168v11.535C7 27.444 10.375 31 16 31c5.625.001 9-3.554 9-8.295V11.486c0-3.626-4.494-8.453-9-8.482z" opacity=".2"/><path d="M16 2l-.037.002h-.004C11.473 2.03 7 6.679 7 10.168v11.535C7 26.444 10.375 30 16 30c5.625.001 9-3.554 9-8.295V10.486c0-3.626-4.494-8.453-9-8.482z" fill="#4f4f4f"/><path d="M16 2l-.036.001h-.005C11.473 2.03 7 6.68 7 10.168V16h18v-5.514c0-3.626-4.494-8.453-9-8.482z" opacity=".1"/><path d="M16 2l-.036.001h-.005C11.473 2.03 7 6.68 7 10.168V16h9V2.004z" opacity=".1"/><path d="M16 7c.551 0 1 .576 1 1.286v3.429c0 .709-.449 1.285-1 1.285s-1-.576-1-1.286V8.285C15 7.576 15.449 7 16 7" opacity=".2"/><path d="M16 6c.551 0 1 .576 1 1.286v3.429c0 .709-.449 1.285-1 1.285s-1-.576-1-1.286V7.285C15 6.576 15.449 6 16 6" fill="#e4e4e4"/><path d="M16 2l-.037.002h-.004C11.473 2.03 7 6.679 7 10.168v1c0-3.489 4.473-8.138 8.959-8.166h.004L16 3v.004c4.506.029 9 4.856 9 8.482v-1c0-3.626-4.494-8.453-9-8.482V2z" fill="#fff" opacity=".1"/></g></svg>