<svg width="32" height="32" version="1.1" viewBox="0 0 32 32" xmlns="http://www.w3.org/2000/svg"><defs><filter id="a" color-interpolation-filters="sRGB"><feFlood flood-color="#000" flood-opacity=".196" result="flood"/><feComposite in="flood" in2="SourceGraphic" operator="in" result="composite1"/><feGaussianBlur in="composite1" result="blur" stdDeviation=".7"/><feOffset dx="0" dy=".7" result="offset"/><feComposite in="SourceGraphic" in2="offset" result="composite2"/></filter></defs><g filter="url(#a)"><path d="M3.4 4C2.625 4 2 4.62 2 5.389V27.61C2 28.381 2.625 29 3.4 29h25.2c.775 0 1.4-.62 1.4-1.389V5.39c0-.769-.626-1.388-1.4-1.388H3.4V4z" fill="#8b346f"/><path d="M3.4 4C2.625 4 2 4.62 2 5.389V27.61C2 28.381 2.625 29 3.4 29H9V4.002H3.4z" opacity=".2"/><path d="M3.4 4C2.625 4 2 4.62 2 5.389v1C2 5.619 2.625 5 3.4 5h25.2c.775 0 1.4.62 1.4 1.389v-1C30 4.619 29.375 4 28.6 4H3.4z" fill="#fff" opacity=".1"/><rect x="4" y="19" width="3" height="3" rx=".375" ry=".375" opacity=".2"/><rect x="4" y="7" width="3" height="3" rx=".375" ry=".375" opacity=".2"/><rect x="4" y="6" width="3" height="3" rx=".375" ry=".375" fill="#fff"/><rect x="4" y="11" width="3" height="3" rx=".375" ry=".375" opacity=".2"/><rect x="4" y="10" width="3" height="3" rx=".375" ry=".375" fill="#fff"/><rect x="4" y="15" width="3" height="3" rx=".375" ry=".375" opacity=".2"/><rect x="4" y="14" width="3" height="3" rx=".375" ry=".375" fill="#fff"/><rect x="4" y="18" width="3" height="3" rx=".375" ry=".375" fill="#fff"/><path d="M2 27.611v1C2 29.381 2.625 30 3.4 30h25.2c.775 0 1.4-.619 1.4-1.389v-1c0 .77-.625 1.389-1.4 1.389H3.4c-.775 0-1.4-.619-1.4-1.389z" opacity=".2"/></g></svg>