<svg width="32" height="32" version="1.1" viewBox="0 0 32 32" xmlns="http://www.w3.org/2000/svg">
<title>计算机-32px</title>
<defs>
<linearGradient id="a" x1="12.649" x2="12.649" y1="8.8116" y2="26.563" gradientTransform="scale(1.2649 .79057)" gradientUnits="userSpaceOnUse">
<stop stop-color="#0E004D" offset="0"/>
<stop stop-color="#4735E4" offset="1"/>
</linearGradient>
<filter id="filter968" color-interpolation-filters="sRGB">
<feFlood flood-color="rgb(0,0,0)" flood-opacity=".19608" result="flood"/>
<feComposite in="flood" in2="SourceGraphic" operator="in" result="composite1"/>
<feGaussianBlur in="composite1" result="blur" stdDeviation="1"/>
<feOffset dx="0" dy="1" result="offset"/>
<feComposite in="SourceGraphic" in2="offset" result="composite2"/>
</filter>
</defs>
<g fill-rule="evenodd" filter="url(#filter968)">
<path d="M 2,5.002 C 2,4.45 2.44,4 2.997,4 H 29.003 C 29.553,4 30,4.44 30,5.002 V 24.998 A 0.995,0.995 0 0 1 29.003,26 H 2.997 A 0.994,0.994 0 0 1 2,24.998 Z" fill="#f6fcff"/>
<path d="m3 5.49c0-0.27 0.225-0.49 0.496-0.49h25.008a0.49 0.49 0 0 1 0.496 0.49v16.02c0 0.27-0.225 0.49-0.496 0.49h-25.008a0.49 0.49 0 0 1-0.496-0.49z"/>
<path d="m4 6h24v15h-24z" fill="url(#a)"/>
<path d="m4 6h6.5l8.5 15h-15z" fill="#fff" opacity=".123"/>
</g>
</svg>
