<svg width="32" height="32" version="1" xmlns="http://www.w3.org/2000/svg"><defs><filter id="a" color-interpolation-filters="sRGB"><feFlood flood-color="#000" flood-opacity=".196" result="flood"/><feComposite in="flood" in2="SourceGraphic" operator="in" result="composite1"/><feGaussianBlur in="composite1" result="blur" stdDeviation=".7"/><feOffset dx="0" dy=".7" result="offset"/><feComposite in="SourceGraphic" in2="offset" result="composite2"/></filter></defs><g filter="url(#a)"><rect transform="matrix(0 -1 -1 0 0 0)" x="-30" y="-30" width="28" height="28" rx="14" ry="14" fill="#fecd38"/><path d="M16 2C8.244 2 2 8.244 2 16c0 .169.02.333.025.5A13.957 13.957 0 0 1 16 3c7.588 0 13.711 5.98 13.975 13.5.006-.167.026-.331.026-.5 0-7.756-6.244-14-14-14z" fill="#fff" opacity=".1"/><g transform="matrix(.7 0 0 .7 -37.937 2.258)" fill="#3f3f3f"><ellipse cx="69.91" cy="12.489" rx="2.857" ry="2.857"/><ellipse cx="84.196" cy="12.489" rx="2.857" ry="2.857"/><path d="M69.444 24.355a8.795 10.554 0 0 0 7.61 5.277 8.795 10.554 0 0 0 7.602-5.277h-1.068a8.795 10.554 0 0 1-6.535 3.518 8.795 10.554 0 0 1-6.537-3.518h-1.072z"/></g><path d="M2.025 16.5c-.006.167-.025.331-.025.5 0 7.756 6.244 14 14 14s14-6.244 14-14c0-.169-.02-.333-.025-.5C29.71 24.021 23.587 30 16 30 8.412 30 2.289 24.021 2.025 16.5z" opacity=".2"/></g></svg>