<svg width="32" height="32" version="1" xmlns="http://www.w3.org/2000/svg" xmlns:xlink="http://www.w3.org/1999/xlink">
<defs>
<filter id="a" color-interpolation-filters="sRGB">
<feFlood flood-opacity=".196" result="flood"/>
<feComposite in="flood" in2="SourceGraphic" operator="in" result="composite1"/>
<feGaussianBlur in="composite1" result="blur" stdDeviation=".7"/>
<feOffset dx="0" dy=".7" result="offset"/>
<feComposite in="SourceGraphic" in2="offset" result="composite2"/>
</filter>
<linearGradient id="linearGradient900" x1="-.35021" x2="32.35" y1="15" y2="15" gradientTransform="matrix(.57735 0 0 1.7321 5 3)" gradientUnits="userSpaceOnUse">
<stop stop-color="#628FFF" offset="0"/>
<stop stop-color="#4084FF" offset="1"/>
</linearGradient>
</defs>
<path d="m13.134 1a0.72 0.72 0 0 0-0.613 0.57l-0.59 2.996c-1.06 0.415-2.057 0.985-2.931 1.685l-2.91-0.985a0.722 0.722 0 0 0-0.83 0.306l-2.8 4.857a0.723 0.723 0 0 0 0.153 0.875l2.318 2.034a11.166 11.166 0 0 0-0.131 1.662c0 0.569 0.05 1.117 0.131 1.663l-2.318 2.034a0.723 0.723 0 0 0-0.154 0.875l2.8 4.856c0.163 0.276 0.53 0.41 0.832 0.307l2.909-0.985c0.874 0.7 1.87 1.27 2.931 1.685l0.59 2.997c0.06 0.313 0.36 0.564 0.679 0.568h5.6a0.722 0.722 0 0 0 0.678-0.568l0.59-2.997a11.268 11.268 0 0 0 2.932-1.685l2.91 0.985a0.722 0.722 0 0 0 0.83-0.307l2.8-4.856a0.723 0.723 0 0 0-0.153-0.875l-2.319-2.034c0.082-0.546 0.132-1.094 0.132-1.663 0-0.568-0.05-1.117-0.132-1.662l2.32-2.034a0.723 0.723 0 0 0 0.152-0.875l-2.8-4.857a0.722 0.722 0 0 0-0.83-0.306l-2.91 0.985a11.27 11.27 0 0 0-2.931-1.685l-0.59-2.997a0.722 0.722 0 0 0-0.679-0.569h-5.665z" fill="url(#linearGradient900)" filter="url(#a)"/>
<path d="m16 10a6 6 0 1 1 0 12 6 6 0 0 1 0-12z" filter="url(#a)" opacity=".2"/>
<path d="m16 9a6 6 0 1 1 0 12 6 6 0 0 1 0-12z" fill="#fff" filter="url(#a)"/>
<path d="m13.125 1a0.692 0.692 0 0 0-0.594 0.563l-0.594 3c-1.06 0.414-2.063 0.987-2.937 1.687l-2.906-0.969c-0.302-0.104-0.681 6e-3 -0.844 0.282l-2.687 4.687c0.019 0.022 0.04 0.044 0.062 0.063l0.313 0.28 2.312-4.03c0.163-0.276 0.542-0.386 0.844-0.282l2.906 0.97c0.875-0.7 1.878-1.274 2.938-1.688l0.594-3a0.692 0.692 0 0 1 0.593-0.563h5.688c0.32 4e-3 0.596 0.249 0.656 0.563l0.594 3c1.06 0.414 2.063 0.987 2.937 1.687l2.907-0.969c0.302-0.104 0.681 6e-3 0.843 0.282l2.313 4.03 0.312-0.28a0.67 0.67 0 0 0 0.063-0.063l-2.688-4.687c-0.162-0.276-0.541-0.386-0.843-0.282l-2.907 0.97a11.317 11.317 0 0 0-2.937-1.688l-0.594-3a0.693 0.693 0 0 0-0.656-0.563zm-10.719 9.656a0.58 0.58 0 0 0 0 0.25 0.808 0.808 0 0 1 0-0.25zm27.188 0a0.806 0.806 0 0 1 0 0.25 0.58 0.58 0 0 0 0-0.25zm-24.75 3.594c-6e-3 0.082 5e-3 0.167 0 0.25 9e-3 0.17 0.02 0.334 0.031 0.5 0.015-0.218 0.03-0.438 0.063-0.656zm22.312 0-0.094 0.094c0.033 0.218 0.049 0.438 0.063 0.656 0.01-0.166 0.023-0.33 0.031-0.5-5e-3 -0.083 6e-3 -0.168 0-0.25zm-22.312 2.5-2.219 1.938a0.676 0.676 0 0 0-0.062 0.062l0.375 0.656 2-1.75a11.95 11.95 0 0 1-0.094-0.906zm22.312 0c-0.023 0.308-0.048 0.603-0.094 0.906l2 1.75 0.375-0.656a0.683 0.683 0 0 0-0.062-0.062z" fill="#fff" filter="url(#a)" opacity=".1"/>
<path d="m2.566 11.243-0.107 0.186a0.723 0.723 0 0 0 0.154 0.875l2.219 1.947c0.023-0.307 0.054-0.61 0.1-0.913l-2.319-2.035c-0.02-0.018-0.03-0.042-0.047-0.06zm26.867 0c-0.017 0.019-0.027 0.044-0.046 0.06l-2.319 2.036c0.045 0.302 0.077 0.605 0.1 0.912l2.219-1.947a0.723 0.723 0 0 0 0.154-0.875l-0.107-0.186zm-24.61 4.258c-9e-3 0.166-0.022 0.33-0.022 0.5 0 0.254 0.013 0.503 0.031 0.75l0.1-0.088c-0.058-0.383-0.09-0.77-0.11-1.162zm22.354 0c-0.02 0.392-0.052 0.779-0.109 1.162l0.1 0.088c0.018-0.247 0.03-0.496 0.03-0.75 0-0.17-0.012-0.334-0.02-0.5zm-24.61 4.258c-0.198 0.217-0.253 0.557-0.108 0.814l2.8 4.856c0.163 0.275 0.529 0.41 0.83 0.306l2.911-0.985c0.874 0.7 1.871 1.271 2.932 1.686l0.59 2.996c0.06 0.313 0.358 0.564 0.677 0.568h5.602a0.721 0.721 0 0 0 0.677-0.568l0.59-2.996a11.29 11.29 0 0 0 2.93-1.686l2.91 0.984a0.721 0.721 0 0 0 0.83-0.307l2.801-4.855c0.145-0.257 0.09-0.598-0.107-0.815l-2.693 4.67a0.721 0.721 0 0 1-0.83 0.307l-2.911-0.985c-0.875 0.7-1.872 1.269-2.932 1.684l-0.59 2.998a0.72 0.72 0 0 1-0.677 0.568h-5.602a0.722 0.722 0 0 1-0.677-0.569l-0.59-2.998a11.27 11.27 0 0 1-2.93-1.684l-2.91 0.984a0.72 0.72 0 0 1-0.83-0.306l-2.694-4.67z" filter="url(#a)" opacity=".2"/>
</svg>
