<svg width="32" height="32" version="1" xmlns="http://www.w3.org/2000/svg"><defs><filter id="a" color-interpolation-filters="sRGB"><feFlood flood-color="#000" flood-opacity=".196" result="flood"/><feComposite in="flood" in2="SourceGraphic" operator="in" result="composite1"/><feGaussianBlur in="composite1" result="blur" stdDeviation=".7"/><feOffset dx="0" dy=".7" result="offset"/><feComposite in="SourceGraphic" in2="offset" result="composite2"/></filter></defs><g filter="url(#a)"><rect transform="matrix(0 -1 -1 0 0 0)" x="-30" y="-30" width="28" height="28" rx="14" ry="14" fill="#37dbad"/><path d="M16 9a8 8 0 1 0 0 16h5s.938 0 1-1c0-1-1-1-1-1h-5a6 6 0 1 1 6-6v1a1 1 0 0 1-2 0v-1a4 4 0 1 0-4 4c1.046 0 1.99-.41 2.703-1.068A3.003 3.003 0 0 0 24 18v-1a8 8 0 0 0-8-8zm0 6a2 2 0 1 1 0 4 2 2 0 0 1 0-4z" opacity=".2"/><path d="M16 8a8 8 0 1 0 0 16h5s.938 0 1-1c0-1-1-1-1-1h-5a6 6 0 1 1 6-6v1a1 1 0 0 1-2 0v-1a4 4 0 1 0-4 4c1.046 0 1.99-.41 2.703-1.068A3.003 3.003 0 0 0 24 17v-1a8 8 0 0 0-8-8zm0 6a2 2 0 1 1 0 4 2 2 0 0 1 0-4z" fill="#fff"/><path d="M2.025 16.5c-.006.167-.025.331-.025.5 0 7.756 6.244 14 14 14s14-6.244 14-14c0-.169-.02-.333-.025-.5C29.71 24.021 23.587 30 16 30 8.412 30 2.289 24.021 2.025 16.5z" opacity=".2"/><path d="M16 2C8.244 2 2 8.244 2 16c0 .169.02.333.025.5A13.957 13.957 0 0 1 16 3c7.587 0 13.711 5.98 13.975 13.5.005-.167.025-.331.025-.5 0-7.756-6.244-14-14-14z" fill="#fff" opacity=".2"/></g></svg>