<svg width="32" height="32" version="1" xmlns="http://www.w3.org/2000/svg"><defs><filter id="a" color-interpolation-filters="sRGB"><feFlood flood-color="#000" flood-opacity=".196" result="flood"/><feComposite in="flood" in2="SourceGraphic" operator="in" result="composite1"/><feGaussianBlur in="composite1" result="blur" stdDeviation=".7"/><feOffset dx="0" dy=".7" result="offset"/><feComposite in="SourceGraphic" in2="offset" result="composite2"/></filter></defs><g filter="url(#a)"><rect transform="matrix(0 -1 -1 0 0 0)" x="-30" y="-30" width="28" height="28" rx="1.4" ry="1.4" fill="#fecd38"/><path d="M13.524 7a2.5 2.5 0 1 0 0 5 2.5 2.5 0 0 0 0-5zm-2 6a1 1 0 0 0-.924.615l-2.5 5c-.553 1.247 1.35 2.04 1.846.77l1.11-2.66-.036.275v7c0 .554.446 1 1 1h.004c.554 0 1-.446 1-1l-.004-4h1l.004 4c0 .554.446 1 1 1s1-.446 1-1l-.004-7-.037-.299 1.117 2.684a1 1 0 0 0 1.43.502l1.53-.082c-.014.065-.04.126-.04.195v4.5a.499.499 0 1 0 1 0l-.004-2.5h1.004l.004 2.5a.5.5 0 1 0 1 0v-3.791l1.143 1.144c.47.491 1.197-.235.707-.707l-1.996-2a.5.5 0 0 0-.354-.146h-1.865l-1.627.021c0-.14-.03-.278-.086-.406l-2.5-5a1 1 0 0 0-.922-.615zm9.996 1.75c-.963 0-1.75.786-1.75 1.75s.787 1.75 1.75 1.75 1.75-.786 1.75-1.75-.786-1.75-1.75-1.75z" fill="#333"/><path d="M3.4 2C2.625 2 2 2.625 2 3.4v1C2 3.625 2.625 3 3.4 3h25.2c.775 0 1.4.625 1.4 1.4v-1c0-.775-.625-1.4-1.4-1.4H3.4z" fill="#fff" opacity=".2"/><path d="M2 28.6v1c0 .775.625 1.4 1.4 1.4h25.2c.775 0 1.4-.625 1.4-1.4v-1c0 .775-.625 1.4-1.4 1.4H3.4c-.775 0-1.4-.625-1.4-1.4z" opacity=".2"/></g></svg>