<svg width="32" height="32" version="1" xmlns="http://www.w3.org/2000/svg"><defs><filter id="a" color-interpolation-filters="sRGB"><feFlood flood-color="#000" flood-opacity=".196" result="flood"/><feComposite in="flood" in2="SourceGraphic" operator="in" result="composite1"/><feGaussianBlur in="composite1" result="blur" stdDeviation=".7"/><feOffset dx="0" dy=".7" result="offset"/><feComposite in="SourceGraphic" in2="offset" result="composite2"/></filter></defs><g filter="url(#a)"><path d="M22.001 1a11.885 11.833 0 0 1-9.383 7.61 11.885 11.833 0 0 1 .158 1.88A11.885 11.833 0 0 1 1 22.316 15.806 15.806 0 0 0 15.153 31C23.932 31 31 23.963 31 15.223 31 8.931 27.328 3.537 22 1z" fill="#dfbe57"/><path d="M22 1a11.885 11.833 0 0 1-9.383 7.61 11.885 11.833 0 0 1 .112.978A11.885 11.833 0 0 0 22 2c5.162 2.458 8.76 7.602 8.979 13.643.003-.141.021-.278.021-.42C31 8.93 27.327 3.537 22 1zm-9.244 9.883A11.885 11.833 0 0 1 1 22.316c.168.334.348.66.54.979A11.885 11.833 0 0 0 12.774 11.49a11.885 11.833 0 0 0-.019-.607z" fill="#fff" opacity=".2"/><path d="M12.729 9.588a11.885 11.833 0 0 1-.111.022 11.885 11.833 0 0 1 .138 1.273 11.885 11.833 0 0 0 .02-.392 11.885 11.833 0 0 0-.047-.903zm18.25 6.055C30.754 24.186 23.789 31 15.152 31a15.803 15.803 0 0 1-13.613-7.705 11.885 11.833 0 0 1-.539.021A15.805 15.805 0 0 0 15.152 32C23.932 32 31 24.963 31 16.223c0-.195-.014-.387-.021-.58z" opacity=".2"/></g></svg>