<svg width="32px" height="32px" version="1.1" viewBox="0 0 32 32" xmlns="http://www.w3.org/2000/svg" xmlns:xlink="http://www.w3.org/1999/xlink">
<title>application-x-gzip</title>
<desc>Created with Sketch.</desc>
<defs>
<path id="path-1" d="m7 2.75c0-0.41421 0.33579-0.75 0.75-0.75h6.5c0.41421 0 0.75 0.33579 0.75 0.75v-2c0-0.41421 0.33579-0.75 0.75-0.75h5.5c0.41421-7.609e-17 0.75 0.33579 0.75 0.75v24.5c0 0.41421-0.33579 0.75-0.75 0.75h-5.5c-0.41421 0-0.75-0.33579-0.75-0.75 0 0.41421-0.33579 0.75-0.75 0.75h-6.5c-0.41421 0-0.75-0.33579-0.75-0.75 0 0.41421-0.33579 0.75-0.75 0.75h-5.5c-0.41421 0-0.75-0.33579-0.75-0.75v-23.5c-5.0727e-17 -0.41421 0.33579-0.75 0.75-0.75h5.5c0.41421 0 0.75 0.33579 0.75 0.75v1z"/>
<filter id="filter-2" x="-9.1%" y="-3.8%" width="118.2%" height="115.4%">
<feOffset dx="0" dy="1" in="SourceAlpha" result="shadowOffsetOuter1"/>
<feGaussianBlur in="shadowOffsetOuter1" result="shadowBlurOuter1" stdDeviation="0.5"/>
<feComposite in="shadowBlurOuter1" in2="SourceAlpha" operator="out" result="shadowBlurOuter1"/>
<feColorMatrix in="shadowBlurOuter1" values="0 0 0 0 0   0 0 0 0 0   0 0 0 0 0  0 0 0 0.15 0"/>
</filter>
<linearGradient id="linearGradient-3" x1="42.194" x2="29.114" y1="6.5396" y2="6.5396" gradientTransform="matrix(.51887 0 0 1.9272 5 3)" gradientUnits="userSpaceOnUse">
<stop stop-color="#C926EA" offset="0"/>
<stop stop-color="#B505C3" offset="1"/>
</linearGradient>
<linearGradient id="linearGradient-4" x1="25.905" x2="12.678" y1="8.1584" y2="8.1584" gradientTransform="matrix(.57735 0 0 1.7321 5 3)" gradientUnits="userSpaceOnUse">
<stop stop-color="#628FFF" offset="0"/>
<stop stop-color="#4084FF" offset="1"/>
</linearGradient>
<linearGradient id="linearGradient-5" x1="13.229" x2=".86393" y1="7.1435" y2="7.1435" gradientTransform="matrix(.52915 0 0 1.8898 5 3)" gradientUnits="userSpaceOnUse">
<stop stop-color="#6DBD00" offset="0"/>
<stop stop-color="#8FBF12" offset="1"/>
</linearGradient>
</defs>
<g fill-rule="evenodd">
<g id="Combined-Shape" transform="translate(5,3)" fill="#000000">
<use width="100%" height="100%" filter="url(#filter-2)" xlink:href="#path-1"/>
<use width="100%" height="100%" fill-opacity=".1" fill-rule="evenodd" xlink:href="#path-1"/>
</g>
<path d="m27 3.75v24.5c0 0.41421-0.33579 0.75-0.75 0.75h-5.5c-0.41421 0-0.75-0.33579-0.75-0.75v-24.5c0-0.41421 0.33579-0.75 0.75-0.75h5.5c0.41421 0 0.75 0.33579 0.75 0.75z" fill="url(#linearGradient-3)"/>
<path d="m20 5.75v22.5c0 0.41421-0.33579 0.75-0.75 0.75h-6.5c-0.41421 0-0.75-0.33579-0.75-0.75v-22.5c0-0.41421 0.33579-0.75 0.75-0.75h6.5c0.41421 0 0.75 0.33579 0.75 0.75z" fill="url(#linearGradient-4)"/>
<path d="m12 4.75v23.5c0 0.41421-0.33579 0.75-0.75 0.75h-5.5c-0.41421 0-0.75-0.33579-0.75-0.75v-23.5c0-0.41421 0.33579-0.75 0.75-0.75h5.5c0.41421 0 0.75 0.33579 0.75 0.75z" fill="url(#linearGradient-5)"/>
</g>
</svg>
