<svg width="32" height="32" version="1" xmlns="http://www.w3.org/2000/svg" xmlns:xlink="http://www.w3.org/1999/xlink">
<defs>
<linearGradient id="linearGradient893" x1="1.437" x2="30.562" y1="16.038" y2="16.038" gradientTransform="matrix(.57735 0 0 1.7321 5 3)" gradientUnits="userSpaceOnUse">
<stop stop-color="#628FFF" offset="0"/>
<stop stop-color="#4084FF" offset="1"/>
</linearGradient>
</defs>
<path d="M16 2.475c-1.476 1.456-2.888 3.114-4.381 4.563h-5.62v5.619c-1.448 1.493-3.105 2.905-4.562 4.38C2.893 18.514 4.551 19.983 6 21.48v5.559h5.619c1.493 1.448 2.905 3.106 4.38 4.562 1.476-1.456 2.945-3.114 4.442-4.563H26v-5.56c1.449-1.497 3.106-2.964 4.562-4.44-1.456-1.475-3.113-2.887-4.562-4.38v-5.62H20.44c-1.497-1.449-2.965-3.106-4.44-4.562zm0 8.563a6 6 0 0 0 0 12z" opacity=".2"/>
<path d="M16 1.475c-1.476 1.456-2.888 3.114-4.381 4.563h-5.62v5.619c-1.448 1.493-3.105 2.905-4.562 4.38C2.893 17.514 4.551 18.983 6 20.48v5.559h5.619c1.493 1.448 2.905 3.106 4.38 4.562 1.476-1.456 2.945-3.114 4.442-4.563H26v-5.56c1.449-1.497 3.106-2.964 4.562-4.44-1.456-1.475-3.113-2.887-4.562-4.38v-5.62H20.44c-1.497-1.449-2.965-3.106-4.44-4.562zm0 8.563a6 6 0 0 0 0 12z" fill="url(#linearGradient893)"/>
<path d="M16 9a8 8 0 0 0-8 8 8 8 0 0 0 8 8V9z" opacity=".2"/>
<path d="M16 8a8 8 0 0 0-8 8 8 8 0 0 0 8 8V8z" fill="#fff"/>
<path d="M16 1.475c-1.476 1.456-2.888 3.114-4.38 4.563H6v1h5.62c1.492-1.45 2.904-3.107 4.38-4.563 1.476 1.456 2.944 3.114 4.441 4.563H26v-1h-5.559c-1.497-1.45-2.965-3.107-4.44-4.563zM6 11.657c-1.449 1.493-3.106 2.905-4.563 4.38.166.169.35.337.52.505C3.284 15.245 4.716 13.98 6 12.657v-1zm20 0v1c1.284 1.323 2.716 2.588 4.043 3.885.17-.168.354-.336.52-.504-1.457-1.476-3.114-2.888-4.563-4.381z" fill="#fff" opacity=".1"/>
</svg>
