<svg width="32" height="32" version="1" xmlns="http://www.w3.org/2000/svg" xmlns:xlink="http://www.w3.org/1999/xlink">
<defs>
<filter id="a" color-interpolation-filters="sRGB">
<feFlood flood-opacity=".196" result="flood"/>
<feComposite in="flood" in2="SourceGraphic" operator="in" result="composite1"/>
<feGaussianBlur in="composite1" result="blur" stdDeviation=".7"/>
<feOffset dx="0" dy=".7" result="offset"/>
<feComposite in="SourceGraphic" in2="offset" result="composite2"/>
</filter>
<linearGradient id="linearGradient924" x1="-1.9" x2="32.9" y1="16" y2="16" gradientTransform="matrix(.51887 0 0 1.9272 5 3)" gradientUnits="userSpaceOnUse">
<stop stop-color="#C926EA" offset="0"/>
<stop stop-color="#B505C3" offset="1"/>
</linearGradient>
</defs>
<path d="m2.45 4c-0.803 0-1.45 0.644-1.45 1.444v23.111c0 0.8 0.647 1.445 1.45 1.445h26.1c0.803 0 1.45-0.644 1.45-1.445v-23.11c0-0.801-0.647-1.445-1.45-1.445z" filter="url(#a)" opacity=".2"/>
<path d="m2.45 3c-0.803 0-1.45 0.644-1.45 1.444v23.111c0 0.8 0.647 1.445 1.45 1.445h26.1c0.803 0 1.45-0.644 1.45-1.445v-23.11c0-0.801-0.647-1.445-1.45-1.445z" fill="url(#linearGradient924)" filter="url(#a)"/>
<g fill="#fff" filter="url(#a)">
<circle transform="scale(-1,1)" cx="-15.5" cy="8.5" r="1.5" opacity=".6"/>
<circle transform="scale(-1,1)" cx="-15.5" cy="22.5" r="1.5"/>
<circle transform="matrix(0,-1,-1,0,0,0)" cx="-15.5" cy="-22.5" r="1.5" opacity=".4"/>
<circle transform="matrix(0,-1,-1,0,0,0)" cx="-15.5" cy="-8.5" r="1.5" opacity=".8"/>
<circle transform="matrix(.70711 -.70711 -.70711 -.70711 0 0)" cy="-28.92" r="1.5" opacity=".3"/>
<circle transform="matrix(.70711 -.70711 -.70711 -.70711 0 0)" cy="-14.92" r="1.5" opacity=".7"/>
<circle transform="rotate(225)" cx="-21.92" cy="-7" r="1.5" opacity=".9"/>
<circle transform="rotate(225)" cx="-21.92" cy="7" r="1.5" opacity=".5"/>
</g>
<path d="m14.088 9a1.5 1.5 0 0 0-0.088 0.5 1.5 1.5 0 0 0 1.5 1.5 1.5 1.5 0 0 0 1.5-1.5 1.5 1.5 0 0 0-0.088-0.5 1.5 1.5 0 0 1-1.412 1 1.5 1.5 0 0 1-1.412-1zm-4.95 2.05a1.5 1.5 0 0 0 0.352 1.561 1.5 1.5 0 0 0 2.121 0 1.5 1.5 0 0 0 0.352-1.56 1.5 1.5 0 0 1-0.352 0.56 1.5 1.5 0 0 1-2.12 0 1.5 1.5 0 0 1-0.352-0.56zm9.9 0a1.5 1.5 0 0 0 0.35 1.561 1.5 1.5 0 0 0 2.122 0 1.5 1.5 0 0 0 0.351-1.56 1.5 1.5 0 0 1-0.351 0.56 1.5 1.5 0 0 1-2.121 0 1.5 1.5 0 0 1-0.352-0.56zm-11.951 4.95a1.5 1.5 0 0 0-0.088 0.5 1.5 1.5 0 0 0 1.501 1.5 1.5 1.5 0 0 0 1.5-1.5 1.5 1.5 0 0 0-0.088-0.5 1.5 1.5 0 0 1-1.412 1 1.5 1.5 0 0 1-1.412-1zm14 0a1.5 1.5 0 0 0-0.088 0.5 1.5 1.5 0 0 0 1.5 1.5 1.5 1.5 0 0 0 1.5-1.5 1.5 1.5 0 0 0-0.088-0.5 1.5 1.5 0 0 1-1.412 1 1.5 1.5 0 0 1-1.412-1zm-11.947 4.95a1.5 1.5 0 0 0 0.352 1.56 1.5 1.5 0 0 0 2.12 0 1.5 1.5 0 0 0 0.352-1.56 1.5 1.5 0 0 1-0.351 0.56 1.5 1.5 0 0 1-2.121 0 1.5 1.5 0 0 1-0.352-0.56zm9.899 0a1.5 1.5 0 0 0 0.351 1.56 1.5 1.5 0 0 0 2.121 0 1.5 1.5 0 0 0 0.352-1.56 1.5 1.5 0 0 1-0.352 0.56 1.5 1.5 0 0 1-2.12 0 1.5 1.5 0 0 1-0.352-0.56zm-4.951 2.05a1.5 1.5 0 0 0-0.087 0.5 1.5 1.5 0 0 0 1.5 1.5 1.5 1.5 0 0 0 1.5-1.5 1.5 1.5 0 0 0-0.088-0.5 1.5 1.5 0 0 1-1.412 1 1.5 1.5 0 0 1-1.413-1z" filter="url(#a)" opacity=".2"/>
<path d="M 2.45,3 C 1.645,3 1,3.645 1,4.445 v 1 C 1,4.645 1.646,4 2.45,4 h 26.1 C 29.354,4 30,4.645 30,5.445 v -1 C 30,3.645 29.353,3 28.55,3 Z" fill="#fff" filter="url(#a)" opacity=".1"/>
</svg>
