<svg width="32" height="32" version="1" xmlns="http://www.w3.org/2000/svg"><defs><filter id="a" color-interpolation-filters="sRGB"><feFlood flood-color="#000" flood-opacity=".196" result="flood"/><feComposite in="flood" in2="SourceGraphic" operator="in" result="composite1"/><feGaussianBlur in="composite1" result="blur" stdDeviation=".7"/><feOffset dx="0" dy=".7" result="offset"/><feComposite in="SourceGraphic" in2="offset" result="composite2"/></filter></defs><g filter="url(#a)"><rect x="2" y="5" width="28" height="24" rx="1.5" ry="1.5" opacity=".2"/><rect x="2" y="4" width="28" height="24" rx="1.5" ry="1.5" fill="#4ab3e4"/><rect x="18" y="8" width="14" height="10" rx=".6" ry=".6" opacity=".2"/><rect x="18" y="7" width="14" height="10" rx=".6" ry=".6" fill="#ebebeb"/><rect x="9" y="22" width="14" height="10" rx=".6" ry=".6" opacity=".2"/><rect x="9" y="21" width="14" height="10" rx=".6" ry=".6" fill="#ebebeb"/><rect y="8" width="14" height="10" rx=".6" ry=".6" opacity=".2"/><rect y="7" width="14" height="10" rx=".6" ry=".6" fill="#ebebeb"/><path d="M3.5 4C2.669 4 2 4.669 2 5.5v1C2 5.669 2.669 5 3.5 5h25c.831 0 1.5.669 1.5 1.5v-1c0-.831-.669-1.5-1.5-1.5h-25z" fill="#fff" opacity=".2"/></g></svg>