<svg width="32" height="32" version="1.1" viewBox="0 0 32 32" xmlns="http://www.w3.org/2000/svg"><defs><filter id="a" color-interpolation-filters="sRGB"><feFlood flood-color="#000" flood-opacity=".196" result="flood"/><feComposite in="flood" in2="SourceGraphic" operator="in" result="composite1"/><feGaussianBlur in="composite1" result="blur" stdDeviation=".7"/><feOffset dx="0" dy=".7" result="offset"/><feComposite in="SourceGraphic" in2="offset" result="composite2"/></filter></defs><g filter="url(#a)"><path d="M24.502 3.002c-3.913.046-9.95 1.142-11.836 3.409h-.006c-1.506 2.206-1.696 10.84-1.305 10.308C14.56 12.337 22.24 6.922 26.826 4.746c2.477-1.18.72-1.78-2.324-1.744zM9.887 7.934c-.989.17-4.957 2.927-4.043 7.88l.002.003c.867 2.53 6.423 5.897 6.23 5.264-1.577-5.225-2.148-8.606-1.972-13.061.003-.083-.076-.11-.217-.086zm10.836 2.219c-2.648.192-7.304 4.737-6.65 4.71 5.416-.188 8.8.124 13.025 1.448.627.196-.677-5.713-6.375-6.158zm-2.865 4.73c-.138.008-.197.046-.15.113 3.095 4.482 4.67 7.516 5.86 11.812.178.638 4.394-3.673 1.67-8.738-1.395-1.871-6.397-3.238-7.378-3.187h-.002zm-14.342.854c-.51-.068-1.705 5.54 3.054 8.39 2.461 1.011 8.632-.98 8.034-1.256-4.94-2.244-7.836-4.041-11.043-7.11a.076.076 0 0 0-.045-.024zm15.955 2.738c-.03-.008-.053.007-.063.047-1.37 5.285-2.637 8.465-5.101 12.17-.369.546 5.621.981 7.672-4.399l.002.002c.539-2.45-2.051-7.699-2.51-7.82zm-1.506 3.377c-.013-.003-.027-.001-.045.008-4.89 2.357-8.117 3.437-12.52 3.924-.65.075 2.884 4.97 8.285 3.08l.006-.002c2.278-1.206 4.664-6.912 4.275-7.01h-.002z" opacity=".2"/><path d="M24.501 2.001c-3.913.046-9.949 1.142-11.836 3.409h-.004c-1.506 2.206-1.697 10.84-1.306 10.308 3.204-4.383 10.884-9.797 15.47-11.973 2.477-1.18.719-1.78-2.324-1.744zm-3.778 7.15c-2.648.193-7.306 4.738-6.652 4.712 5.417-.188 8.8.124 13.025 1.448.627.196-.675-5.714-6.373-6.16zm-2.865 4.732c-.14.008-.197.045-.15.113 3.095 4.481 4.668 7.517 5.86 11.814.176.637 4.394-3.674 1.67-8.74-1.396-1.872-6.401-3.238-7.38-3.186zm1.612 3.592c-.03-.008-.052.007-.063.046-1.37 5.286-2.636 8.467-5.101 12.171-.368.547 5.623.98 7.673-4.4l.002.004c.539-2.452-2.052-7.7-2.51-7.821zm-1.504 3.377c-.013-.003-.028 0-.047.008-4.89 2.357-8.116 3.437-12.519 3.924-.65.075 2.884 4.969 8.285 3.079l.006-.002c2.277-1.206 4.663-6.911 4.275-7.01z" fill="#37a0f2"/><path d="M9.886 6.934c-.989.17-4.956 2.926-4.042 7.88l.001.003c.868 2.531 6.424 5.896 6.232 5.262-1.578-5.224-2.149-8.604-1.973-13.059.004-.082-.077-.11-.218-.086zm-6.371 7.802c-.51-.067-1.703 5.541 3.056 8.392 2.46 1.01 8.63-.982 8.032-1.257-4.94-2.244-7.834-4.04-11.042-7.11a.081.081 0 0 0-.046-.025z" fill="#4f4f4f"/><path d="M24.502 2.002c-3.913.046-9.95 1.142-11.836 3.408h-.006c-1.162 1.703-1.534 7.197-1.467 9.387.046-2.555.454-6.902 1.467-8.387h.006c1.887-2.266 7.923-3.362 11.836-3.408 1.375-.016 2.459.104 3.037.342 1.314-.913-.362-1.373-3.037-1.342zM9.887 6.934c-.927.158-4.472 2.592-4.158 6.978.236-3.753 3.304-5.832 4.158-5.978.117-.02.177.005.197.058.005-.322.007-.64.02-.972.003-.083-.076-.11-.217-.086zm.197 2.123c-.047 3.676.47 6.767 1.705 11.035.19.065.316.082.287-.012-1.328-4.399-1.936-7.497-1.992-11.023zm10.64.095c-.654.048-1.428.36-2.216.803a48.587 48.587 0 0 0-4.474 3.797c-.023.067-.02.114.039.111.247-.008.47-.01.709-.017 1.323-1.343 4.1-3.56 5.941-3.694 4.131.323 5.933 3.498 6.383 5.156.604.134-.714-5.713-6.383-6.156zM3.515 14.736c-.232-.03-.601 1.126-.488 2.659.064-.996.311-1.682.488-1.659.017.002.03.01.045.024 2.991 2.862 5.733 4.622 10.092 6.666.7-.251 1.124-.476.951-.555-.969-.44-1.84-.862-2.67-1.281.05.166.092.32.143.49.144.474-2.923-1.288-4.844-3.266a32.06 32.06 0 0 1-3.672-3.054.076.076 0 0 0-.045-.024zm14.764.108l.055.08c1.577.222 5.661 1.48 6.904 3.146a7.374 7.374 0 0 1 .885 2.989c.086-1.21-.12-2.567-.885-3.989-.526-.705-1.566-1.338-2.709-1.851-1.349-.214-2.736-.328-4.25-.375zm1.12 2.715c-1.368 5.262-2.634 8.437-5.092 12.133-.072.105.147.193.476.25 2.149-3.396 3.348-6.497 4.625-11.42.01-.04.032-.055.063-.047.39.103 2.312 3.914 2.545 6.56.16-1.246-.338-3.05-.946-4.592A41.604 41.604 0 0 0 19.4 17.56zm-1.434 3.293c-.013-.004-.027-.002-.045.007a63.33 63.33 0 0 1-3.904 1.737c.199.092.381.181.587.275.504.232-3.776 1.672-6.615 1.523-.831.157-1.681.289-2.588.39-.18.02-.008.426.41.944 4.134-.501 7.295-1.562 11.92-3.779.237-.632.34-1.071.237-1.098h-.002z" fill="#fff" opacity=".1"/></g></svg>