<svg width="32" height="32" version="1" xmlns="http://www.w3.org/2000/svg">
<defs>
<filter id="a" color-interpolation-filters="sRGB">
<feFlood flood-opacity=".196" result="flood"/>
<feComposite in="flood" in2="SourceGraphic" operator="in" result="composite1"/>
<feGaussianBlur in="composite1" result="blur" stdDeviation=".7"/>
<feOffset dx="0" dy=".7" result="offset"/>
<feComposite in="SourceGraphic" in2="offset" result="composite2"/>
</filter>
</defs>
<path d="m 16.087,3.5 a 13.511,13.511 0 0 0 -5.264,1.043 13.459,13.459 0 0 0 -7.28,17.633 13.459,13.459 0 0 0 17.633,7.28 13.459,13.459 0 0 0 7.28,-17.633 A 13.46,13.46 0 0 0 16.087,3.5 Z M 16,9.893 A 7.106,7.106 0 0 1 23.105,17 7.106,7.106 0 0 1 16,24.106 7.106,7.106 0 0 1 8.894,17 7.106,7.106 0 0 1 16,9.894 Z" filter="url(#a)" opacity=".2"/>
<path d="m 16.087,2.5 a 13.511,13.511 0 0 0 -5.264,1.043 13.459,13.459 0 0 0 -7.28,17.633 13.459,13.459 0 0 0 17.633,7.28 13.459,13.459 0 0 0 7.28,-17.632 A 13.46,13.46 0 0 0 16.087,2.5 Z M 16,8.895 A 7.106,7.106 0 0 1 23.105,16 7.106,7.106 0 0 1 16,23.106 7.106,7.106 0 0 1 8.894,16 7.106,7.106 0 0 1 16,8.895 Z" fill="#e4e4e4" filter="url(#a)"/>
<path d="m16.088 2.5a13.509 13.509 0 0 0-5.264 1.043 13.45 13.45 0 0 0-8.3 12.918 13.448 13.448 0 0 1 8.3-11.918 13.51 13.51 0 0 1 5.264-1.043 13.459 13.459 0 0 1 12.369 8.324c0.643 1.546 0.963 3.14 1.02 4.715 0.073-1.897-0.241-3.84-1.02-5.715a13.46 13.46 0 0 0-12.369-8.324zm6.994 13.957a7.106 7.106 0 0 1-7.082 6.648 7.106 7.106 0 0 1-7.082-6.56 7.106 7.106 0 0 0-0.023 0.455 7.106 7.106 0 0 0 7.105 7.105 7.106 7.106 0 0 0 7.106-7.105 7.106 7.106 0 0 0-0.024-0.543z" fill="#fff" filter="url(#a)" opacity=".2"/>
<path d="m16.09 2a15.415 15.415 0 0 0-5.242 0.896 1.317 1.227 0 0 0-0.762 1.584l2.34 5.723a1.317 1.227 0 0 0 1.7 0.71 5.614 5.614 0 0 1 1.872-0.321c0.64 2e-3 1.272 0.112 1.87 0.326a1.317 1.227 0 0 0 1.702-0.707l2.344-5.733a1.317 1.227 0 0 0-0.764-1.584 15.36 15.36 0 0 0-5.06-0.894zm-13.055 9a1.227 1.317 0 0 0-1.139 0.847 15.416 15.416 0 0 0-0.896 5.243 15.36 15.36 0 0 0 0.894 5.06 1.227 1.317 0 0 0 1.584 0.764l5.733-2.344a1.227 1.317 0 0 0 0.707-1.703 5.603 5.603 0 0 1-0.326-1.87c0-0.64 0.11-1.274 0.322-1.872a1.227 1.317 0 0 0-0.711-1.7l-5.723-2.34a1.227 1.317 0 0 0-0.445-0.085zm25.93 0a1.227 1.317 0 0 0-0.445 0.086l-5.723 2.34a1.227 1.317 0 0 0-0.71 1.699c0.212 0.598 0.32 1.233 0.321 1.873a5.603 5.603 0 0 1-0.326 1.869 1.227 1.317 0 0 0 0.707 1.703l5.733 2.344a1.227 1.317 0 0 0 1.584-0.764 15.36 15.36 0 0 0 0.894-5.06 15.416 15.416 0 0 0-0.896-5.243 1.227 1.317 0 0 0-1.14-0.847zm-10.582 12a1.317 1.227 0 0 0-0.516 0.082 5.603 5.603 0 0 1-1.869 0.326c-0.64 0-1.275-0.11-1.873-0.322a1.317 1.227 0 0 0-1.699 0.71l-2.34 5.723a1.317 1.227 0 0 0 0.762 1.584c1.72 0.612 3.494 0.905 5.242 0.897a15.359 15.359 0 0 0 5.06-0.895 1.317 1.227 0 0 0 0.764-1.584l-2.343-5.732a1.317 1.227 0 0 0-1.188-0.79z" filter="url(#a)" opacity=".2"/>
<path d="m16.09 1a15.415 15.415 0 0 0-5.242 0.896 1.317 1.227 0 0 0-0.762 1.584l2.34 5.723a1.317 1.227 0 0 0 1.7 0.711 5.614 5.614 0 0 1 1.872-0.322c0.64 2e-3 1.272 0.112 1.87 0.326a1.317 1.227 0 0 0 1.702-0.707l2.344-5.732a1.317 1.227 0 0 0-0.764-1.584 15.36 15.36 0 0 0-5.06-0.895zm-13.055 9a1.227 1.317 0 0 0-1.139 0.848 15.416 15.416 0 0 0-0.896 5.242 15.36 15.36 0 0 0 0.894 5.06 1.227 1.317 0 0 0 1.584 0.764l5.733-2.344a1.227 1.317 0 0 0 0.707-1.703 5.603 5.603 0 0 1-0.326-1.869c0-0.64 0.11-1.275 0.322-1.873a1.227 1.317 0 0 0-0.711-1.7l-5.723-2.338a1.227 1.317 0 0 0-0.445-0.087zm25.93 0a1.227 1.317 0 0 0-0.445 0.086l-5.723 2.34a1.227 1.317 0 0 0-0.71 1.699c0.212 0.598 0.32 1.233 0.321 1.873a5.603 5.603 0 0 1-0.326 1.869 1.227 1.317 0 0 0 0.707 1.703l5.733 2.344a1.227 1.317 0 0 0 1.584-0.764 15.36 15.36 0 0 0 0.894-5.06 15.416 15.416 0 0 0-0.896-5.242 1.227 1.317 0 0 0-1.14-0.848zm-10.582 12a1.317 1.227 0 0 0-0.516 0.082 5.603 5.603 0 0 1-1.869 0.326c-0.64 0-1.275-0.11-1.873-0.322a1.317 1.227 0 0 0-1.699 0.71l-2.34 5.724a1.317 1.227 0 0 0 0.762 1.584c1.72 0.611 3.494 0.904 5.242 0.896a15.36 15.36 0 0 0 5.06-0.894 1.317 1.227 0 0 0 0.764-1.584l-2.343-5.733a1.317 1.227 0 0 0-1.188-0.789z" fill="#ea004e" filter="url(#a)"/>
</svg>
