<svg width="32" height="32" version="1" xmlns="http://www.w3.org/2000/svg"><defs><filter id="a" color-interpolation-filters="sRGB"><feFlood flood-color="#000" flood-opacity=".196" result="flood"/><feComposite in="flood" in2="SourceGraphic" operator="in" result="composite1"/><feGaussianBlur in="composite1" result="blur" stdDeviation=".7"/><feOffset dx="0" dy=".7" result="offset"/><feComposite in="SourceGraphic" in2="offset" result="composite2"/></filter></defs><g filter="url(#a)"><path d="M1 8.261v20.294c0 .8.657 1.445 1.474 1.445h25.053c.816 0 1.473-.645 1.473-1.445V8.261z" opacity=".2"/><path d="M1 7.261v20.294c0 .8.657 1.444 1.474 1.444h25.053c.816 0 1.473-.644 1.473-1.444V7.261z" fill="#3575b8"/><rect x="3" y="20" width="10" height="7" rx="1.066" ry="1.19" opacity=".3"/><path d="M29 8V4.444C29 3.644 28.343 3 27.526 3H2.473C1.657 3 1 3.644 1 4.444V8z" fill="#e4e4e4"/><rect x="17" y="10" width="10" height="7" rx="1.066" ry="1.19" opacity=".3"/><path d="M19.625 14.001a2.306 2.456 0 0 0-1.084.326l-3.693 2.274-3.696 2.271a2.306 2.456 0 0 0 0 4.254l3.696 2.271 3.693 2.274A2.306 2.456 0 0 0 22 25.542v-1.543h7.555c.8 0 1.445-.669 1.445-1.5v-3c0-.831-.645-1.5-1.445-1.5H22v-1.545a2.306 2.456 0 0 0-2.375-2.453z" opacity=".2"/><rect x="18" y="17" width="13" height="6" rx="1.444" ry="1.5" fill="#c7db59"/><path d="M19.626 13.001a2.306 2.456 0 0 0-1.084.328L14.847 15.6l-3.693 2.272a2.306 2.456 0 0 0 0 4.254l3.693 2.272 3.695 2.272A2.306 2.456 0 0 0 22 24.543v-9.088a2.306 2.456 0 0 0-2.374-2.454z" fill="#c7db59"/><path d="M1 8v1h28V8H1z" opacity=".2"/><path d="M2.475 3C1.658 3 1 3.645 1 4.445v1C1 4.645 1.658 4 2.475 4h25.05C28.343 4 29 4.645 29 5.445v-1C29 3.645 28.342 3 27.526 3H2.475zM19.625 13.002a2.306 2.456 0 0 0-1.084.326l-3.693 2.274-3.696 2.271a2.306 2.456 0 0 0-1.101 2.629 2.306 2.456 0 0 1 1.101-1.63l3.696-2.272 3.693-2.274A2.306 2.456 0 0 1 19.625 14 2.306 2.456 0 0 1 22 16.453v-.998a2.306 2.456 0 0 0-2.375-2.453zM22 17v.998h7.555c.8 0 1.445.669 1.445 1.5V18.5c0-.831-.645-1.5-1.445-1.5H22z" fill="#fff" opacity=".2"/></g></svg>