<svg width="32" height="32" version="1" xmlns="http://www.w3.org/2000/svg"><defs><filter id="a" color-interpolation-filters="sRGB"><feFlood flood-color="#000" flood-opacity=".196" result="flood"/><feComposite in="flood" in2="SourceGraphic" operator="in" result="composite1"/><feGaussianBlur in="composite1" result="blur" stdDeviation=".7"/><feOffset dx="0" dy=".7" result="offset"/><feComposite in="SourceGraphic" in2="offset" result="composite2"/></filter></defs><g filter="url(#a)"><circle cx="9" cy="14" r="8" opacity=".2"/><circle cx="9" cy="13" r="8" fill="#ccc"/><path d="M9 5a8 8 0 0 0-8 8 8 8 0 0 0 .021.576A8 8 0 0 1 9 6a8 8 0 0 1 7.978 7.424A8 8 0 0 0 17 13a8 8 0 0 0-8-8z" fill="#fff" opacity=".2"/><circle cx="9" cy="12" r="3" fill="#478be5"/><circle cx="9" cy="12" r="1" fill="#3f3f3f"/><circle cx="21" cy="18" r="10" opacity=".2"/><circle cx="21" cy="17" r="10" fill="#e4e4e4"/><circle cx="22.5" cy="15.5" r="4.5" fill="#478be5"/><circle cx="22.5" cy="15.5" r="1.5" fill="#3f3f3f"/><path d="M21 7a10 10 0 0 0-10 10 10 10 0 0 0 .021.586A10 10 0 0 1 21 8a10 10 0 0 1 9.978 9.414A10 10 0 0 0 31 17 10 10 0 0 0 21 7z" fill="#fff" opacity=".2"/></g></svg>