<svg width="16px" height="16px" version="1.1" viewBox="0 0 16 16" xmlns="http://www.w3.org/2000/svg">
<title>folder-recent-symbolic</title>
<desc>Created with Sketch.</desc>
<g id="folder-recent-symbolic" fill="#303030">
<path id="Combined-Shape" d="m8 15c-3.866 0-7-3.134-7-7s3.134-7 7-7 7 3.134 7 7-3.134 7-7 7zm0-1c3.3137 0 6-2.6863 6-6s-2.6863-6-6-6-6 2.6863-6 6 2.6863 6 6 6zm0-10v4h4c0.27614 0 0.5 0.22386 0.5 0.5s-0.22386 0.5-0.5 0.5h-4.5c-0.27614 0-0.5-0.22386-0.5-0.5v-4.5c0-0.27614 0.22386-0.5 0.5-0.5s0.5 0.22386 0.5 0.5z" fill="#303030"/>
</g>
</svg>
