<svg width="16px" height="16px" version="1.1" viewBox="0 0 16 16" xmlns="http://www.w3.org/2000/svg">
<title>accessories-calculator</title>
<desc>Created with Sketch.</desc>
<g fill="#303030" fill-rule="evenodd">
<path id="数字背景" d="m2.4277 1c-0.78304 0-1.4277 0.64466-1.4277 1.4277v11.145c0 0.78304 0.64466 1.4277 1.4277 1.4277h11.145c0.78304 0 1.4277-0.64466 1.4277-1.4277v-11.145c0-0.78304-0.64466-1.4277-1.4277-1.4277h-5.5721zm0 0.99995h11.145c0.24261 0 0.42773 0.18511 0.42773 0.42773v11.145c0 0.24261-0.18511 0.42773-0.42773 0.42773h-11.145c-0.24261 0-0.42773-0.18511-0.42773-0.42773v-11.145c0-0.24261 0.18511-0.42773 0.42773-0.42773z" color="#000000" color-rendering="auto" dominant-baseline="auto" image-rendering="auto" shape-rendering="auto" solid-color="#000000" style="font-feature-settings:normal;font-variant-alternates:normal;font-variant-caps:normal;font-variant-ligatures:normal;font-variant-numeric:normal;font-variant-position:normal;isolation:auto;mix-blend-mode:normal;shape-padding:0;text-decoration-color:#000000;text-decoration-line:none;text-decoration-style:solid;text-indent:0;text-orientation:mixed;text-transform:none;white-space:normal"/>
<polygon id="Combined-Shape" transform="translate(2.5)" points="5.5 9.1667 4.8333 8.5 3.5 9.8333 2.1667 8.5 1.5 9.1667 2.8333 10.5 1.5 11.833 2.1667 12.5 3.5 11.167 4.8333 12.5 5.5 11.833 4.1667 10.5"/>
<path d="m6 5v-2h-1v2h-2v1h2v2h1v-2h2v-1z"/>
<rect x="9" y="5" width="4" height="1"/>
<path d="m9 9h4v1h-4zm0 2h4v1h-4z"/>
</g>
</svg>
