<svg width="16" height="16" version="1.1" viewBox="0 0 16 16" xmlns="http://www.w3.org/2000/svg">
<title>深度截图-16px</title>
<path d="m1 2v13h14v-13zm1 1h12v11h-12z" color="#000000" color-rendering="auto" dominant-baseline="auto" fill="#303030" fill-rule="evenodd" image-rendering="auto" shape-rendering="auto" solid-color="#000000" style="font-feature-settings:normal;font-variant-alternates:normal;font-variant-caps:normal;font-variant-ligatures:normal;font-variant-numeric:normal;font-variant-position:normal;isolation:auto;mix-blend-mode:normal;shape-padding:0;text-decoration-color:#000000;text-decoration-line:none;text-decoration-style:solid;text-indent:0;text-orientation:mixed;text-transform:none;white-space:normal"/>
<path d="m5.5 4c-0.5 0-0.5 0.5-0.5 0.5v1.5h-1.5s-0.5 0-0.5 0.5 0.5 0.5 0.5 0.5h1.5v3.5c0 0.5 0.5 0.5 0.5 0.5h4.5v1.5s0 0.5 0.5 0.5 0.5-0.5 0.5-0.5v-1.5h1.5117s0.48828 0 0.48828-0.5-0.48828-0.5-0.48828-0.5h-1.5117v-3.5s-5.94e-4 -0.5-0.55859-0.5h-4.4414v-1.5s0-0.5-0.5-0.5zm0.5 3h4v3h-4v-3z" fill="#303030" fill-rule="evenodd"/>
</svg>
