<svg width="16" height="16" version="1.1" viewBox="0 0 16 16" xmlns="http://www.w3.org/2000/svg">
<title>adress-book-new</title>
<g transform="translate(-4,-4.01)" fill="#303030">
<path d="m7 5.01h10c1.108 0 2 0.892 2 2v10c0 1.108-0.892 2-2 2h-10c-1.108 0-2-0.892-2-2v-10c0-1.108 0.892-2 2-2zm0 0.99a1 1 0 0 0-1 1v10a1 1 0 0 0 1 1h10a1 1 0 0 0 1-1v-10a1 1 0 0 0-1-1z"/>
<path d="m12 8a4 4 0 0 1 4 4v0.5a1.5 1.5 0 0 1-2.648 0.965 1.987 1.987 0 0 1-1.352 0.535 2 2 0 1 1 2-2v0.5a0.5 0.5 0 0 0 1 0v-0.5a3 3 0 1 0-3 3h2.5s0.5 0 0.5 0.5c-0.031 0.5-0.5 0.5-0.5 0.5h-2.5a4 4 0 0 1 0-8zm0 3a1 1 0 1 0 0 2 1 1 0 0 0 0-2z"/>
</g>
</svg>
