<svg width="16" height="16" version="1.1" viewBox="0 0 16 16" xmlns="http://www.w3.org/2000/svg">
<title>日历-16px</title>
<path d="m3 2v1h-2v0.5 10.5h2v1h10v-1h2v-11h-2v-1h-10zm-1 2h12v9h-12v-9z" fill="#303030" fill-rule="evenodd"/>
<path d="m5.5 9c0.756-0.646 1.5-0.898 1.5-2 0 0 0-1-1-1s-1 1-1 1h-0.951s-0.049-1.967 1.951-2c1.5 0.033 2 1 2 2 0 2.448-2.5 2.5-2.8 4h2.8v1h-4c0.027-0.6 0-2 1.5-3zm7-4v1c-0.21 0.206-2.5 3-2.5 6h-1c3e-3 -0.017 0-3 2.25-6h-2.75v-1z" fill="#303030" fill-rule="evenodd"/>
</svg>
