<svg width="16" height="16" version="1.1" viewBox="0 0 16 16" xmlns="http://www.w3.org/2000/svg">
<g fill="#303030">
<path d="m8 2a8 6 0 0 0-8 6 8 6 0 0 0 2.303 4.205c0.035-0.233 0.082-0.452 0.11-0.695a1 1 0 0 0-0.194-0.711 1 1 0 0 0-0.065-0.076c-0.012-0.013-0.02-0.028-0.031-0.041a4.818 4.818 0 0 1-0.46-0.586c-0.042-0.062-0.07-0.127-0.106-0.19-0.091-0.155-0.182-0.31-0.25-0.472a3.735 3.735 0 0 1-0.215-0.662l-6e-3 -0.022v-2e-3l-0.02-0.092v-4e-3a3.603 3.603 0 0 1-0.066-0.65v-4e-3c0-0.218 0.028-0.434 0.066-0.646v-6e-3l0.02-0.096v-2e-3c0.053-0.252 0.132-0.498 0.238-0.738 0.102-0.23 0.229-0.455 0.377-0.672l0.03-0.045c0.143-0.205 0.306-0.403 0.49-0.594 0.031-0.033 0.065-0.065 0.097-0.097 0.191-0.19 0.396-0.373 0.625-0.545a6.82 6.82 0 0 1 0.721-0.463 7.794 7.794 0 0 1 0.99-0.477h2e-3l6e-3 -2e-3a9.174 9.174 0 0 1 2.08-0.527l0.012-2e-3c0.02-3e-3 0.042-4e-3 0.062-6e-3l0.055-6e-3a9.563 9.563 0 0 1 1.129-0.074c0.502 0 0.99 0.039 1.46 0.111a9.01 9.01 0 0 1 1.204 0.274l6e-3 2e-3c0.072 0.021 0.144 0.043 0.215 0.066 0.03 0.012 0.06 0.023 0.091 0.033 0.296 0.1 0.578 0.215 0.848 0.342l0.014 6e-3c0.445 0.21 0.857 0.451 1.219 0.723 1.252 0.939 1.943 2.146 1.943 3.443s-0.691 2.504-1.943 3.443a6.616 6.616 0 0 1-1.21 0.717l-0.01 6e-3c-4e-3 3e-3 -0.01 4e-3 -0.015 6e-3a8.155 8.155 0 0 1-1.148 0.44l-4e-3 2e-3c-2e-3 0-4e-3 0-6e-3 2e-3a9.041 9.041 0 0 1-1.203 0.273 9.57 9.57 0 0 1-1.461 0.111c-0.053 0-0.103-8e-3 -0.156-0.01a9.618 9.618 0 0 1-0.973-0.064c-0.036-4e-3 -0.072-5e-3 -0.107-0.01l-0.01-2e-3a9.262 9.262 0 0 1-1.117-0.218h-2e-3a1 1 0 0 0-0.977 0.277c-0.118 0.124-0.25 0.226-0.379 0.336a8 6 0 0 0 3.721 0.691 8 6 0 0 0 8-6 8 6 0 0 0-8-6z"/>
<path d="m1.533 9.863c-0.127 2.618-0.607 5.003-1.533 6.137 2.496 0 4.706-1.267 6.096-3.215-0.154-0.032-0.312-0.05-0.461-0.09a1 1 0 0 0-0.977 0.278c-0.788 0.826-1.804 1.328-2.893 1.654 0.306-0.935 0.52-1.97 0.647-3.117a1 1 0 0 0-0.258-0.787 4.747 4.747 0 0 1-0.621-0.86z"/>
<circle cx="8" cy="8" r="1"/>
<circle cx="11" cy="8" r="1"/>
<circle cx="5" cy="8" r="1"/>
</g>
</svg>
