<svg width="16" height="16" version="1.1" viewBox="0 0 16 16" xmlns="http://www.w3.org/2000/svg">
<title>deepin-system-monitor</title>
<g fill="#303030" stroke-width=".33333">
<path d="m7.999 1a7.0009 6.9999 0 0 0-6.999 7 7.0009 6.9999 0 0 0 6.999 7 7.0009 6.9999 0 0 0 7.001-7 7.0009 6.9999 0 0 0-7.001-7zm-0.013674 1.0156a6.0008 5.9999 0 0 1 6.0008 6 6.0008 5.9999 0 0 1-6.0008 6 6.0008 5.9999 0 0 1-6.0008-6 6.0008 5.9999 0 0 1 6.0008-6z"/>
<path d="m8 3a4.9999 4.9999 0 0 0-5 5 4.9999 4.9999 0 0 0 5 5 4.9999 4.9999 0 0 0 5-5 4.9999 4.9999 0 0 0-5-5zm0 1a4 4 0 0 1 4 4 4 4 0 0 1-4 4 4 4 0 0 1-4-4 4 4 0 0 1 4-4z"/>
<circle cx="9.5" cy="7.5" r="1.5"/>
<circle cx="6.5" cy="9.5" r=".5"/>
</g>
</svg>
