<svg width="16" height="16" version="1.1" xmlns="http://www.w3.org/2000/svg">
<path id="XMLID_9_" d="m7.9062 1a7 7 0 0 0-0.66602 0.041016 7 7 0 0 0-0.2207 0.027344 7 7 0 0 0-0.2207 0.035156 7 7 0 0 0-0.21875 0.041016 7 7 0 0 0-0.2168 0.048828 7 7 0 0 0-1.0547 0.34375 7 7 0 0 0-0.00195 0.00195 7 7 0 0 0-0.79688 0.39258 7 7 0 0 0-0.37891 0.23438 7 7 0 0 0-0.18359 0.125 7 7 0 0 0-0.074219 0.056641 7 7 0 0 0-0.2793 0.21289 7 7 0 0 0-0.33594 0.29102 7 7 0 0 0-0.16211 0.1543 7 7 0 0 0-0.15625 0.15625 7 7 0 0 0 0 0.00195 7 7 0 0 0-0.4375 0.50195 7 7 0 0 0 0 0.00195 7 7 0 0 0-0.26367 0.35547 7 7 0 0 0 0 0.00195 7 7 0 0 0-0.12305 0.18359 7 7 0 0 0 0 0.00195 7 7 0 0 0-0.52539 0.97656 7 7 0 0 0 0 0.00195 7 7 0 0 0-0.30469 0.83398 7 7 0 0 0 0 0.00195 7 7 0 0 0-0.060547 0.21289 7 7 0 0 0 0 0.00195 7 7 0 0 0-0.097656 0.43164 7 7 0 0 0 0 0.00195 7 7 0 0 0-0.039063 0.2168 7 7 0 0 0 0 0.00195 7 7 0 0 0-0.03125 0.21875 7 7 0 0 0 0 0.00195 7 7 0 0 0-0.025391 0.21875 7 7 0 0 0 0 0.00195 7 7 0 0 0-0.031249 0.66605 7 7 0 0 0 0 0.09375 7 7 0 0 0 0.00391 0.09375 7 7 0 0 0 0.00391 0.10547 7 7 0 0 0 0 0.023437 7 7 0 0 0 0 0.011719 7 7 0 0 0 0.013672 0.21094 7 7 0 0 0 0.015625 0.18164 7 7 0 0 0 0.00391 0.039063 7 7 0 0 0 0.013672 0.11523 7 7 0 0 0 0.00195 0.017578 7 7 0 0 0 0.011719 0.087891 7 7 0 0 0 0.013672 0.082031 7 7 0 0 0 0.013672 0.09375 7 7 0 0 0 0.00781 0.044922 7 7 0 0 0 0.023437 0.125 7 7 0 0 0 0.017578 0.09375 7 7 0 0 0 0.019531 0.083984 7 7 0 0 0 0.017578 0.080078 7 7 0 0 0 0.011719 0.052734 7 7 0 0 0 0.015625 0.058594 7 7 0 0 0 0.033203 0.12891 7 7 0 0 0 0.00781 0.027344 7 7 0 0 0 0.011719 0.041016 7 7 0 0 0 0.039062 0.13477 7 7 0 0 0 0.011719 0.03711 7 7 0 0 0 0.017578 0.05664 7 7 0 0 0 0.037109 0.10938 7 7 0 0 0 0.013672 0.04492 7 7 0 0 0 0 2e-3 7 7 0 0 0 0.025391 0.06836 7 7 0 0 0 0.037109 0.10547 7 7 0 0 0 0.013672 0.03516 7 7 0 0 0 0.033203 0.08398 7 7 0 0 0 0.019531 0.04883 7 7 0 0 0 0.029297 0.07422 7 7 0 0 0 0.050781 0.11719 7 7 0 0 0 0.037109 0.08594 7 7 0 0 0 0.035156 0.07227 7 7 0 0 0 0.041016 0.08789 7 7 0 0 0 0.019531 0.04101 7 7 0 0 0 0.033203 0.06641 7 7 0 0 0 0.041016 0.07813 7 7 0 0 0 0.027344 0.05273 7 7 0 0 0 0.0625 0.11328 7 7 0 0 0 0.044922 0.08203 7 7 0 0 0 0.052734 0.08789 7 7 0 0 0 0.03125 0.05078 7 7 0 0 0 0.03125 0.05274 7 7 0 0 0 0.068359 0.10742 7 7 0 0 0 0.050781 0.08008 7 7 0 0 0 0.072266 0.10547 7 7 0 0 0 0.052734 0.07813 7 7 0 0 0 0.054687 0.07227 7 7 0 0 0 0.068359 0.0918 7 7 0 0 0 0.00977 0.01367 7 7 0 0 0 0.017578 0.02344 7 7 0 0 0 0.083984 0.10547 7 7 0 0 0 0.035156 0.04687 7 7 0 0 0 0.041016 0.04883 7 7 0 0 0 0.082031 0.09766 7 7 0 0 0 0.019531 0.02344 7 7 0 0 0 0.03125 0.03516 7 7 0 0 0 0.091797 0.10352 7 7 0 0 0 0.025391 0.02734 7 7 0 0 0 0.037109 0.03906 7 7 0 0 0 0.087891 0.0918 7 7 0 0 0 0.029297 0.03125 7 7 0 0 0 0.044922 0.04492 7 7 0 0 0 0.076172 0.07422 7 7 0 0 0 0.037109 0.03711 7 7 0 0 0 0.054687 0.05078 7 7 0 0 0 0.066406 0.0625 7 7 0 0 0 0.041016 0.03711 7 7 0 0 0 0.0625 0.05469 7 7 0 0 0 0.058594 0.05078 7 7 0 0 0 0.046875 0.04102 7 7 0 0 0 0.050781 0.04102 7 7 0 0 0 0.095703 0.07617 7 7 0 0 0 0.027344 0.02344 7 7 0 0 0 0.078125 0.06055 7 7 0 0 0 0.037109 0.02734 7 7 0 0 0 0.060547 0.04687 7 7 0 0 0 0.03125 0.02149 7 7 0 0 0 0.15039 0.10742 7 7 0 0 0 0.18555 0.12305 7 7 0 0 0 0.16016 0.09961 7 7 0 0 0 0.027344 0.01758 7 7 0 0 0 0.023437 0.01367 7 7 0 0 0 0.16992 0.09766 7 7 0 0 0 0.16602 0.08984 7 7 0 0 0 0.029297 0.01563 7 7 0 0 0 0.048828 0.02539 7 7 0 0 0 0.10742 0.05273 7 7 0 0 0 0.042969 0.02148 7 7 0 0 0 0.044922 0.01953 7 7 0 0 0 0.1582 0.07226 7 7 0 0 0 0.19141 0.08008 7 7 0 0 0 0.013672 0.0059 7 7 0 0 0 0.035156 0.01367 7 7 0 0 0 0.11914 0.04687 7 7 0 0 0 0.052734 0.01953 7 7 0 0 0 0.052734 0.01758 7 7 0 0 0 0.13672 0.04687 7 7 0 0 0 0.021484 0.0078 7 7 0 0 0 0.048828 0.01562 7 7 0 0 0 0.11133 0.03516 7 7 0 0 0 0.052734 0.01563 7 7 0 0 0 0.082031 0.02344 7 7 0 0 0 0.068359 0.01953 7 7 0 0 0 0.064453 0.01758 7 7 0 0 0 0.064453 0.01563 7 7 0 0 0 0.11133 0.02734 7 7 0 0 0 0.039063 0.0098 7 7 0 0 0 0.041016 0.0078 7 7 0 0 0 0.17773 0.03711 7 7 0 0 0 0.18359 0.0332 7 7 0 0 0 0.035156 0.0059 7 7 0 0 0 0.039063 0.0059 7 7 0 0 0 0.17578 0.02539 7 7 0 0 0 0.00586 0 7 7 0 0 0 0.011719 2e-3 7 7 0 0 0 0.1543 0.01758 7 7 0 0 0 0.054687 0.0059 7 7 0 0 0 0.12695 0.0098 7 7 0 0 0 0.09375 0.0078 7 7 0 0 0 0.11719 0.0059 7 7 0 0 0 0.10547 0.0039 7 7 0 0 0 0.035156 0 7 7 0 0 0 0.1875 0.00356 7 7 0 0 0 0.09375 0 7 7 0 0 0 0.09375-0.0039 7 7 0 0 0 0.03516 0 7 7 0 0 0 0.07031-0.0039 7 7 0 0 0 0.02344 0 7 7 0 0 0 0.01172 0 7 7 0 0 0 0.21094-0.01367 7 7 0 0 0 0.18164-0.01563 7 7 0 0 0 0.1543-0.01758 7 7 0 0 0 0.01172-2e-3 7 7 0 0 0 0.0059 0 7 7 0 0 0 0.08789-0.01172 7 7 0 0 0 0.08203-0.01367 7 7 0 0 0 0.09375-0.01367 7 7 0 0 0 0.16992-0.03125 7 7 0 0 0 0.09375-0.01758 7 7 0 0 0 0.08398-0.01953 7 7 0 0 0 0.08008-0.01758 7 7 0 0 0 0.11133-0.02734 7 7 0 0 0 0.12891-0.0332 7 7 0 0 0 0.06836-0.01953 7 7 0 0 0 0.13477-0.03906 7 7 0 0 0 0.09375-0.0293 7 7 0 0 0 0.10938-0.03711 7 7 0 0 0 0.04492-0.01367 7 7 0 0 0 2e-3 0 7 7 0 0 0 0.06836-0.02539 7 7 0 0 0 0.10547-0.03711 7 7 0 0 0 0.11914-0.04687 7 7 0 0 0 0.04883-0.01953 7 7 0 0 0 0.07422-0.0293 7 7 0 0 0 0.11719-0.05078 7 7 0 0 0 0.08594-0.03711 7 7 0 0 0 0.07227-0.03516 7 7 0 0 0 0.08789-0.04102 7 7 0 0 0 0.10742-0.05273 7 7 0 0 0 0.07813-0.04102 7 7 0 0 0 0.16602-0.08984 7 7 0 0 0 0.08203-0.04492 7 7 0 0 0 0.08789-0.05273 7 7 0 0 0 0.05078-0.03125 7 7 0 0 0 0.05274-0.03125 7 7 0 0 0 0.10742-0.06836 7 7 0 0 0 0.08008-0.05078 7 7 0 0 0 0.10547-0.07226 7 7 0 0 0 0.07813-0.05274 7 7 0 0 0 0.07227-0.05469 7 7 0 0 0 0.03125-0.02149 7 7 0 0 0 0.07422-0.05664 7 7 0 0 0 0.10156-0.07813 7 7 0 0 0 0.07422-0.05859 7 7 0 0 0 0.09961-0.08203 7 7 0 0 0 0.07031-0.06055 7 7 0 0 0 0.09766-0.08594 7 7 0 0 0 0.06836-0.0625 7 7 0 0 0 0.09375-0.08789 7 7 0 0 0 0.06836-0.06641 7 7 0 0 0 0.08984-0.08984 7 7 0 0 0 0.06641-0.06836 7 7 0 0 0 0.08789-0.09375 7 7 0 0 0 0.0625-0.06836 7 7 0 0 0 0.08594-0.09766 7 7 0 0 0 0.06055-0.07031 7 7 0 0 0 0.08203-0.09961 7 7 0 0 0 0.05859-0.07422 7 7 0 0 0 0.07813-0.10156 7 7 0 0 0 0.05664-0.07422 7 7 0 0 0 0.02149-0.03125 7 7 0 0 0 0.10742-0.15039 7 7 0 0 0 0.12305-0.18555 7 7 0 0 0 0.06836-0.10742 7 7 0 0 0 0.04883-0.08008 7 7 0 0 0 0.01367-0.02344 7 7 0 0 0 0.09766-0.16992 7 7 0 0 0 0.0625-0.11328 7 7 0 0 0 0.04297-0.08203 7 7 0 0 0 0.05859-0.11524 7 7 0 0 0 0.04102-0.08398 7 7 0 0 0 0.01953-0.04492 7 7 0 0 0 0.07227-0.1582 7 7 0 0 0 0.08008-0.19141 7 7 0 0 0 0.0059-0.01367 7 7 0 0 0 0.04687-0.11914 7 7 0 0 0 0.0332-0.08789 7 7 0 0 0 0.01758-0.05274 7 7 0 0 0 0.04687-0.13672 7 7 0 0 0 0.0078-0.02148 7 7 0 0 0 0.03906-0.12305 7 7 0 0 0 0.02734-0.089844 7 7 0 0 0 0.03516-0.12305 7 7 0 0 0 0.02539-0.091797 7 7 0 0 0 0.03125-0.12305 7 7 0 0 0 0.02148-0.091797 7 7 0 0 0 0.0078-0.041016 7 7 0 0 0 0.03711-0.17773 7 7 0 0 0 0.02344-0.125 7 7 0 0 0 0.01563-0.09375 7 7 0 0 0 0.0059-0.039063 7 7 0 0 0 0.02539-0.17578 7 7 0 0 0 0-0.00586 7 7 0 0 0 0.01563-0.12695 7 7 0 0 0 0.0039-0.039063 7 7 0 0 0 0.0059-0.054687 7 7 0 0 0 0.0098-0.12695 7 7 0 0 0 0.0078-0.09375 7 7 0 0 0 0.0059-0.11719 7 7 0 0 0 0-0.011719 7 7 0 0 0 0.0039-0.09375 7 7 0 0 0 0-0.035156 7 7 0 0 0 0.003624-0.18746 7 7 0 0 0 0-0.09375 7 7 0 0 0-0.0039-0.09375 7 7 0 0 0 0-0.035156 7 7 0 0 0-0.0039-0.09375 7 7 0 0 0 0-0.011719 7 7 0 0 0-0.01367-0.21094 7 7 0 0 0-0.01563-0.18164 7 7 0 0 0-0.0039-0.039063 7 7 0 0 0-0.01563-0.12695 7 7 0 0 0 0-0.00586 7 7 0 0 0-0.01172-0.087891 7 7 0 0 0-0.01367-0.082031 7 7 0 0 0-0.0059-0.044922 7 7 0 0 0-0.01563-0.091797 7 7 0 0 0 0-0.00195 7 7 0 0 0-0.02344-0.125 7 7 0 0 0-0.01758-0.09375 7 7 0 0 0-0.01953-0.083984 7 7 0 0 0-0.0078-0.041016 7 7 0 0 0-0.02148-0.091797 7 7 0 0 0-0.031229-0.12305 7 7 0 0 0-0.025391-0.091797 7 7 0 0 0-0.035156-0.12305 7 7 0 0 0-0.027344-0.089844 7 7 0 0 0-0.039062-0.12305 7 7 0 0 0-0.0293-0.087891 7 7 0 0 0 0-0.00195 7 7 0 0 0-0.02539-0.068359 7 7 0 0 0-0.01758-0.052734 7 7 0 0 0-0.0332-0.087891 7 7 0 0 0-0.04687-0.11914 7 7 0 0 0-0.0059-0.013672 7 7 0 0 0-0.0293-0.074219 7 7 0 0 0-0.05078-0.11719 7 7 0 0 0-0.03711-0.085937 7 7 0 0 0-0.03516-0.072266 7 7 0 0 0-0.01953-0.044922 7 7 0 0 0-0.04102-0.083984 7 7 0 0 0-0.05859-0.11523 7 7 0 0 0-0.04297-0.082031 7 7 0 0 0-0.0625-0.11328 7 7 0 0 0-0.04492-0.082031 7 7 0 0 0-0.05273-0.087891 7 7 0 0 0-0.01367-0.023437 7 7 0 0 0-0.04883-0.080078 7 7 0 0 0-0.06836-0.10742 7 7 0 0 0-0.05078-0.080078 7 7 0 0 0-0.07226-0.10547 7 7 0 0 0-0.05274-0.078125 7 7 0 0 0-0.05469-0.072266 7 7 0 0 0-0.02149-0.03125 7 7 0 0 0-0.05664-0.074219 7 7 0 0 0-0.07813-0.10156 7 7 0 0 0-0.05859-0.074219 7 7 0 0 0-0.08203-0.099609 7 7 0 0 0-0.06055-0.070312 7 7 0 0 0-0.08594-0.097656 7 7 0 0 0-0.0625-0.068359 7 7 0 0 0-0.08789-0.09375 7 7 0 0 0-0.06641-0.068359 7 7 0 0 0-0.08984-0.089844 7 7 0 0 0-0.06836-0.066406 7 7 0 0 0-0.09375-0.087891 7 7 0 0 0-0.06836-0.0625 7 7 0 0 0-0.09766-0.085937 7 7 0 0 0-0.07031-0.060547 7 7 0 0 0-0.09961-0.082031 7 7 0 0 0-0.07422-0.058594 7 7 0 0 0-0.10151-0.07813 7 7 0 0 0-0.074219-0.056641 7 7 0 0 0-0.03125-0.021484 7 7 0 0 0-0.15039-0.10742 7 7 0 0 0-0.18555-0.12305 7 7 0 0 0-0.10742-0.068359 7 7 0 0 0-0.08008-0.048828 7 7 0 0 0-0.02344-0.013672 7 7 0 0 0-0.16992-0.097656 7 7 0 0 0-0.11328-0.0625 7 7 0 0 0-0.08203-0.042969 7 7 0 0 0-0.11524-0.058594 7 7 0 0 0-0.08398-0.041016 7 7 0 0 0-0.04492-0.019531 7 7 0 0 0-0.1582-0.072266 7 7 0 0 0-0.19141-0.080078 7 7 0 0 0-0.01367-0.00586 7 7 0 0 0-0.11914-0.046875 7 7 0 0 0-0.08789-0.033203 7 7 0 0 0-0.05274-0.017578 7 7 0 0 0-0.13672-0.046875 7 7 0 0 0-0.02148-0.00781 7 7 0 0 0-0.16016-0.050781 7 7 0 0 0-0.05274-0.015625 7 7 0 0 0-0.15039-0.042969 7 7 0 0 0-0.06445-0.017578 7 7 0 0 0-0.17578-0.042969 7 7 0 0 0-0.03906-0.00977 7 7 0 0 0-0.04102-0.00781 7 7 0 0 0-0.17773-0.037109 7 7 0 0 0-0.18359-0.033203 7 7 0 0 0-0.03516-0.00586 7 7 0 0 0-0.03906-0.00586 7 7 0 0 0-0.17578-0.025391 7 7 0 0 0-0.0059 0 7 7 0 0 0-0.16602-0.019531 7 7 0 0 0-0.05469-0.00586 7 7 0 0 0-0.12695-0.00977 7 7 0 0 0-0.09375-0.00781 7 7 0 0 0-0.11719-0.00586 7 7 0 0 0-0.01172 0 7 7 0 0 0-0.09375-0.00391 7 7 0 0 0-0.03516 0 7 7 0 0 0-0.18745-0.003898 7 7 0 0 0-0.09375 0zm0.09375 1a6 6 0 0 1 6 6 6 6 0 0 1-0.0957 1.0605l-2.6348-2.9336-4.0352 4.5957 1.9473-3.8984-0.97266-1.7402-5.2969 6.0937a6 6 0 0 1-0.91211-3.1777 6 6 0 0 1 6-6z" fill="#303030" stroke-width=".69584"/>
</svg>
