<svg width="16" height="16" version="1.1" viewBox="0 0 16 16" xmlns="http://www.w3.org/2000/svg">
<title>cache</title>
<g transform="translate(-4,-4.03)" fill="#303030">
<path d="m17 18.03c6e-3 0.012 6e-3 -3.988 0-12 0 0.016-8e-3 -0.03-0.02-0.053 8e-3 0.015 0.065 0.052 0.02 0.052h-10c-0.045 0 0.012-0.037 0.02-0.052-0.013 0.023-0.02 0.069-0.02 0.052v12c-0.013 7e-3 3.32 7e-3 10 0zm-10-13h10c1 0 1 1 1 1v12c0 1-1 1-1 1h-10c-1 0-1-1-1-1v-12s0-1 1-1z"/>
<path d="m12 14.03a3 3 0 1 0-3-3v3zm0-7a4 4 0 0 1 0 8h-4v-4a4 4 0 0 1 4-4z"/>
<path d="m12 10.03a1 1 0 1 0 0 2 1 1 0 0 0 0-2zm0-1a2 2 0 1 1 0 4 2 2 0 0 1 0-4z"/>
</g>
</svg>
