<svg width="16" height="16" version="1.1" viewBox="0 0 16 16" xmlns="http://www.w3.org/2000/svg">
<title>evince</title>
<path d="m2.168 2c-0.63787 0-1.168 0.5301-1.168 1.168v9.6641c0 0.63787 0.5301 1.168 1.168 1.168h11.664c0.63787 0 1.168-0.5301 1.168-1.168v-9.6641c0-0.63787-0.5301-1.168-1.168-1.168zm0 1h11.664c0.10117 0 0.16797 0.066802 0.16797 0.16797v9.6641c0 0.10117-0.066802 0.16797-0.16797 0.16797h-11.664c-0.10117 0-0.16797-0.066802-0.16797-0.16797v-9.6641c0-0.10117 0.066802-0.16797 0.16797-0.16797z" color="#000000" color-rendering="auto" dominant-baseline="auto" fill="#303030" fill-rule="evenodd" image-rendering="auto" shape-rendering="auto" solid-color="#000000" style="font-feature-settings:normal;font-variant-alternates:normal;font-variant-caps:normal;font-variant-ligatures:normal;font-variant-numeric:normal;font-variant-position:normal;isolation:auto;mix-blend-mode:normal;shape-padding:0;text-decoration-color:#000000;text-decoration-line:none;text-decoration-style:solid;text-indent:0;text-orientation:mixed;text-transform:none;white-space:normal"/>
<path d="m4.8835 10.603-1.707 1.064c3.268-3.258 4.992-5.114 5.174-5.567 0.272-0.68-4.221 0-3.54 3.394 0.03 0.154 0.072 0.297 0.124 0.428l-0.17 0.507h-0.227l0.195 0.097-0.057 0.172a3.858 3.858 0 0 1-0.682-0.39c-2.45-1.765 2.86-6.516 5.31-5.023 0.181 0.171 0.272 0.393 0.272 0.664s0 0.408-0.272 0.694c-2.27 2.172-3.45 3.303-3.54 3.394-0.09 0.09-0.227 0.18-0.409 0.271l-0.15 0.094-0.016-0.034c0.59 0.744 1.762 0.812 3.519 0.203 0.756-0.262 2.135-0.938 4.136-2.028v1.767c-3.727 1.026-6.447 1.157-8.165 0.39l0.2-0.1 5e-3 4e-3z" fill="#303030" fill-rule="evenodd" stroke="#303030" stroke-width=".5"/>
</svg>
