<svg width="16" height="16" version="1.1" viewBox="0 0 16 16" xmlns="http://www.w3.org/2000/svg">
<title>plugins</title>
<path d="m12 14v-4h2.553c0.229 0 0.447-0.23 0.447-0.5 0-0.221-0.196-0.427-0.536-0.5h-2.464v-4h-4v-2.55c0-0.23-0.23-0.45-0.5-0.45s-0.5 0.22-0.5 0.45v2.55h-4v2h0.45c1.352 0 2.55 1.144 2.55 2.5 0 1.356-1.197 2.5-2.55 2.5h-0.45v2h2c6e-3 -1.835 0.541-2.946 2.472-3 1.075-0.03 1.862 0.46 2.246 1.312 0.23 0.51 0.28 0.958 0.282 1.688zm-4.5-13c0.802 0 1.5 0.647 1.5 1.45v1.55h3.139c0.535 0 0.861 0.326 0.861 0.861v3.139h1.553c0.793 0.123 1.447 0.698 1.447 1.5 0 0.802-0.645 1.5-1.447 1.5h-1.553v3.033c0 0.535-0.326 0.967-0.861 0.967h-3.139v-0.967c0-0.742-0.018-2.074-1.5-2.033s-1.5 1.231-1.5 2.033v0.967h-3.035a0.964 0.964 0 0 1-0.965-0.967v-3.033h1.45c0.801 0 1.55-0.698 1.55-1.5 0-0.802-0.748-1.5-1.55-1.5h-1.45v-3.139c0-0.535 0.43-0.861 0.965-0.861h3.035v-1.55c0-0.804 0.698-1.45 1.5-1.45z" fill="#303030"/>
</svg>
