<?xml version="1.0" encoding="UTF-8" standalone="no"?>
<svg
   xmlns:dc="http://purl.org/dc/elements/1.1/"
   xmlns:cc="http://creativecommons.org/ns#"
   xmlns:rdf="http://www.w3.org/1999/02/22-rdf-syntax-ns#"
   xmlns:svg="http://www.w3.org/2000/svg"
   xmlns="http://www.w3.org/2000/svg"
   xmlns:sodipodi="http://sodipodi.sourceforge.net/DTD/sodipodi-0.dtd"
   xmlns:inkscape="http://www.inkscape.org/namespaces/inkscape"
   inkscape:version="1.0 (4035a4fb49, 2020-05-01)"
   sodipodi:docname="tab-new.svg"
   id="svg6"
   version="1.1"
   viewBox="0 0 24 24">
  <metadata
     id="metadata10">
    <rdf:RDF>
      <cc:Work
         rdf:about="">
        <dc:format>image/svg+xml</dc:format>
        <dc:type
           rdf:resource="http://purl.org/dc/dcmitype/StillImage" />
        <dc:title></dc:title>
      </cc:Work>
    </rdf:RDF>
  </metadata>
  <sodipodi:namedview
     inkscape:current-layer="svg6"
     inkscape:window-maximized="1"
     inkscape:window-y="0"
     inkscape:window-x="0"
     inkscape:cy="10.564446"
     inkscape:cx="32.492761"
     inkscape:zoom="16"
     showgrid="false"
     id="namedview8"
     inkscape:window-height="1006"
     inkscape:window-width="1920"
     inkscape:pageshadow="2"
     inkscape:pageopacity="0"
     guidetolerance="10"
     gridtolerance="10"
     objecttolerance="10"
     borderopacity="1"
     bordercolor="#666666"
     pagecolor="#ffffff" />
  <defs
     id="defs3051">
    <style
       id="current-color-scheme"
       type="text/css">
      .ColorScheme-Text {
        color:#eff0f1;
      }
      </style>
  </defs>
  <path
     id="path4"
     class="ColorScheme-Text"
     d="M 4 4 L 4 5 L 4 19 L 4 20 L 14 20 L 14 19 L 5 19 L 5 5 L 9 5 L 9 8 L 17 8 L 19 8 L 19 14 L 20 14 L 20 7 L 19 7 L 17 7 L 17 4 L 9 4 L 5 4 L 4 4 z M 17 15 L 17 17 L 15 17 L 15 18 L 17 18 L 17 20 L 18 20 L 18 18 L 20 18 L 20 17 L 18 17 L 18 15 L 17 15 z "
     style="fill:currentColor;fill-opacity:1;stroke:none" />
  <path
     id="path835"
     d="M 17,19.832011 V 18.392005 H 15.494613 13.989226 V 17.696002 17 H 15.494613 17 v -1.416006 -1.416007 h 0.739935 0.739935 V 15.583994 17 h 1.530902 1.530901 v 0.695288 0.695289 l -1.518143,0.01273 -1.518145,0.01273 -0.01353,1.428008 -0.01353,1.428005 h -0.739178 -0.739175 z"
     style="fill:#00ff00;stroke-width:0.0494919" />
</svg>
