<svg width="96" height="96" version="1.1" viewBox="0 0 96 96" xml:space="preserve" xmlns="http://www.w3.org/2000/svg"><defs>
	<filter id="filter927" x="-.05" y="-.046154" width="1.1" height="1.0923" color-interpolation-filters="sRGB"><feGaussianBlur stdDeviation="1.538457"/></filter></defs>
<path d="m16.197 8c-2.8882 0-5.1973 2.6899-5.1973 5.4961v69.58c0 2.8062 2.3091 4.9238 5.1973 4.9238h51.084c2.8862 0 5.2578-2.1177 5.2578-4.9238v-3.2812h12.307v-26.666h-12.307v-4.1035h12.307v-22.564h-12.307v-12.965c0-2.8062-2.3696-5.4961-5.2578-5.4961z" fill="#999" filter="url(#filter927)" stroke-width="2.0513"/><g transform="matrix(2.0513 0 0 2.0513 -1.3138 -.19692)">
			<polygon points="42.003 38.996 42.003 25.996 36.003 25.996 36.003 23.996 42.003 23.996 42.003 12.996 35.003 12.996 35.003 38.996" fill="#dae000"/>
			<path d="m36.003 40.596c0 1.368-1.156 2.4-2.563 2.4h-24.903c-1.408 0-2.534-1.032-2.534-2.4v-33.921c0-1.368 1.126-2.679 2.534-2.679h24.903c1.408 0 2.563 1.311 2.563 2.679z" fill="#4a9e06"/>
			<rect x="8.003" y="6.996" width="16" height="16" fill="#3d3123"/>
			<g fill="#f9f0f7">
				<rect x="22.003" y="25.996" width="2" height="5"/>
				<rect x="25.003" y="33.996" width="1" height="6"/>
				<rect x="20.003" y="25.996" width="1" height="5"/>
				<rect x="19.003" y="33.996" width="1" height="6"/>
				<rect x="28.003" y="25.996" width="2" height="5"/>
				<rect x="25.003" y="25.996" width="2" height="5"/>
				<rect x="27.003" y="33.996" width="3" height="6"/>
				<rect x="21.003" y="33.996" width="3" height="6"/>
				<rect x="12.003" y="25.996" width="1" height="5"/>
				<rect x="31.003" y="25.996" width="2" height="5"/>
				<rect x="8.003" y="25.996" width="3" height="5"/>
				<rect x="14.003" y="25.996" width="5" height="5"/>
			</g>
			<rect x="26.003" y="6.996" width="7" height="4" fill="#3d3123"/>
			<rect x="32.003" y="10.996" width="1" height="7" fill="#dae000"/>
	</g>
</svg>
