<svg width="96" height="96" version="1.1" viewBox="0 0 96 96" xml:space="preserve" xmlns="http://www.w3.org/2000/svg"><defs><filter id="filter849" x="-.056806" y="-.063575" width="1.1136" height="1.1271" color-interpolation-filters="sRGB"><feGaussianBlur stdDeviation="1.8542574"/></filter></defs><path d="m42.964 13.333c-19.585 2.2384-34.135 19.866-34.135 39.73v10.912c0 10.352 8.3936 18.467 18.467 18.467 2.2384 0 3.917-1.6787 3.917-3.917v-20.425c0-3.6372-3.0777-6.7149-6.7149-6.7149h-4.4766c-3.3575 0-5.5957-2.7979-5.0362-6.1554 2.7979-15.668 16.508-26.86 33.014-26.86 16.506 0 30.218 11.192 33.014 27.419 0.55957 3.3575-1.9585 6.1554-5.0362 6.1554h-4.4766c-3.6372 0-6.7149 3.0777-6.7149 6.7149v20.425c0 2.2384 1.6787 3.917 3.917 3.917 10.352 0 18.467-8.3936 18.467-18.467v-12.59c0-22.943-20.425-41.688-44.206-38.611z" fill="#999" filter="url(#filter849)" stroke-width="2.7979"/><path d="m42.964 13.333c-19.585 2.2384-34.135 19.866-34.135 39.73v10.912c0 10.352 8.3936 18.467 18.467 18.467 2.2384 0 3.917-1.6787 3.917-3.917v-20.425c0-3.6372-3.0777-6.7149-6.7149-6.7149h-4.4766c-3.3575 0-5.5957-2.7979-5.0362-6.1554 2.7979-15.668 16.508-26.86 33.014-26.86 16.506 0 30.218 11.192 33.014 27.419 0.55957 3.3575-1.9585 6.1554-5.0362 6.1554h-4.4766c-3.6372 0-6.7149 3.0777-6.7149 6.7149v20.425c0 2.2384 1.6787 3.917 3.917 3.917 10.352 0 18.467-8.3936 18.467-18.467v-12.59c0-22.943-20.425-41.688-44.206-38.611z" fill="#0c7bc6" stroke-width="2.7979"/></svg>
