<svg width="96" height="96" version="1.1" viewBox="0 0 96 96" xmlns="http://www.w3.org/2000/svg">
<title>deepin-sound-recorder</title>
<defs>
<filter id="filter862" x="-.077728" y="-.048857" width="1.1555" height="1.0977" color-interpolation-filters="sRGB">
<feGaussianBlur stdDeviation="1.0178513"/>
</filter>
</defs>
<g transform="matrix(1.6 0 0 1.6 -3.1999 -3.2)" fill="#999" filter="url(#filter862)" stroke-width="1.4286">
<path d="m19.143 35.596c0 7.0957 6.3857 12.823 12.857 12.823s12.857-4.3 12.857-12.823v-7.1571h-25.714zm28.571 0c0 10.673-7.8142 15.69-15.714 15.69s-15.714-6.1285-15.714-15.69v-7.1671h31.428v0.72142z"/>
<path d="m32 7c-5.54 0-9.9999 4.46-9.9999 9.9999v4.2857h8.5714v1.4286h-8.5714v1.4286h8.5714v1.4286h-8.5714v1.4286h8.5714v1.4286h-8.5714v7.1428c0 5.54 4.46 9.9999 9.9999 9.9999s9.9999-4.46 9.9999-9.9999v-7.1428h-8.5714v-1.4286h8.5714v-1.4286h-8.5714v-1.4286h8.5714v-1.4286h-8.5714v-1.4286h8.5714v-4.2857c0-5.54-4.46-9.9999-9.9999-9.9999zm0 5.7142a2.1428 2.1428 0 0 1 2.1428 2.1428 2.1428 2.1428 0 0 1-2.1428 2.1428 2.1428 2.1428 0 0 1-2.1428-2.1428 2.1428 2.1428 0 0 1 2.1428-2.1428z" fill-rule="evenodd"/>
<path d="m22 54.143v2.8571h20v-2.8571h-8.5714v-5.7142h-2.8571v5.7142z" fill-rule="evenodd"/>
</g>
<g transform="matrix(1.6 0 0 1.6 -3.1999 -3.2)" stroke-width="1.4286">
<path d="m19.143 35.596c0 7.0957 6.3857 12.823 12.857 12.823s12.857-4.3 12.857-12.823v-7.1571h-25.714zm28.571 0c0 10.673-7.8142 15.69-15.714 15.69s-15.714-6.1285-15.714-15.69v-7.1671h31.428v0.72142z" fill="#666"/>
<path d="m32 7c-5.54 0-9.9999 4.46-9.9999 9.9999v4.2857h8.5714v1.4286h-8.5714v1.4286h8.5714v1.4286h-8.5714v1.4286h8.5714v1.4286h-8.5714v7.1428c0 5.54 4.46 9.9999 9.9999 9.9999s9.9999-4.46 9.9999-9.9999v-7.1428h-8.5714v-1.4286h8.5714v-1.4286h-8.5714v-1.4286h8.5714v-1.4286h-8.5714v-1.4286h8.5714v-4.2857c0-5.54-4.46-9.9999-9.9999-9.9999zm0 5.7142a2.1428 2.1428 0 0 1 2.1428 2.1428 2.1428 2.1428 0 0 1-2.1428 2.1428 2.1428 2.1428 0 0 1-2.1428-2.1428 2.1428 2.1428 0 0 1 2.1428-2.1428z" fill="#999" fill-rule="evenodd"/>
<path d="m22 54.143v2.8571h20v-2.8571h-8.5714v-5.7142h-2.8571v5.7142z" fill="#666" fill-rule="evenodd"/>
</g>
</svg>
