<svg width="96" height="96" version="1.1" viewBox="0 0 96 96" xmlns="http://www.w3.org/2000/svg">
<title>计算机-96px</title>
<defs>
<linearGradient id="a" x1="42.933" x2="42.933" y1="15.652" y2="87.207" gradientTransform="scale(1.118 .89443)" gradientUnits="userSpaceOnUse">
<stop stop-color="#FFF" offset="0"/>
<stop stop-color="#C3D6DE" offset="1"/>
</linearGradient>
<linearGradient id="b" x1="38.367" x2="38.367" y1="26.226" y2="80.07" gradientTransform="scale(1.2511 .79931)" gradientUnits="userSpaceOnUse">
<stop stop-color="#0E004D" offset="0"/>
<stop stop-color="#4735E4" offset="1"/>
</linearGradient>
<filter id="filter953" x="-.0342" y="-.038" width="1.0684" height="1.076" color-interpolation-filters="sRGB">
<feGaussianBlur stdDeviation="1.14"/>
</filter>
</defs>
<g fill-rule="evenodd">
<path d="m9.9961 15c-1.099 0-1.9961 0.89219-1.9961 1.9922v58.016a2 2 0 0 0 1.9961 1.9922h76.008c1.099 0 1.9961-0.89219 1.9961-1.9922v-58.016a2 2 0 0 0-1.9961-1.9922h-76.008zm0.87695 62.9c-1.5918 0-2.873 1.2813-2.873 2.873v3.3535c0 1.5918 1.2813 2.873 2.873 2.873h74.254c1.5918 0 2.873-1.2813 2.873-2.873v-3.3535c0-1.5918-1.2813-2.873-2.873-2.873h-74.254z" fill="#b3b3b3" filter="url(#filter953)"/>
<rect x="8" y="14" width="80" height="64" rx="4" fill="url(#a)"/>
<path d="m8 16.993c0-1.1 0.898-1.993 1.997-1.993h76.006a2 2 0 0 1 1.997 1.993v58.014c0 1.1-0.898 1.993-1.997 1.993h-76.006a2 2 0 0 1-1.997-1.993z" fill="#eff7fb"/>
<rect x="10" y="16" width="76" height="50" rx="1"/>
<path d="m12 18h72v46h-72z" fill="url(#b)"/>
<path d="m84 48.79-6-2.79-8-8.842-4 1.79-8-8.948-4 3.579-4-3.579-16.144 17.153-14.856 1.637-7 3.58v11.63h70a2 2 0 0 0 2-2.004v-13.207z" fill="#3612c1"/>
<path d="m36 64 38-8.947 10 5.368v3.579z" fill="#4224ca"/>
<path d="m65 48.789 5-11.631 4 17.895z" fill="#5042ec"/>
<path d="m50 30-6 12-6 7.684-10 3.579z" fill="#ab76ef"/>
<path d="m54 38.947-4 1.79 10 2.684 2-1.61-4-4.653z" fill="#4531d8"/>
<path d="m52 35.368-8 6.632 6-1.263 8-3.579z" fill="#7365ee"/>
<path d="m44 42 5 8.937-11-1.253z" fill="#5241eb"/>
<path d="m38 49.684-10 3.579 6 3.937z" fill="#6c51ef"/>
<path d="m22 57.379 12-0.179 2 6.8z" fill="#3e2bcd"/>
<path d="m34 57.2 18-7.516 4-3.579 1 3.579-21 14.316z" fill="#593ef3"/>
<path d="m12 64 10-6.621 14 6.621z" fill="#4735e4"/>
<path d="m52 35.368-2-5.368-4 8z" fill="#523de0"/>
<path d="m36 64 18-14.316 11-0.895 9 6.264z" fill="#654af8"/>
<path d="m56 46.105 10-7.158 4-1.789-5 11.631-13 2.685z" fill="#7f5ef1"/>
<path d="m56 46.105-4 5.369 9-4.474 9-9.842-4 1.789z" fill="#b57bff"/>
<path d="m58 30-6 5.368 6 1.79z" fill="#ab76ef"/>
<path d="m50 40.737 6 5.368-4 3.579-3.2 1.074z" fill="#442ae7"/>
<path d="m28 53.263-9-4.474 15-1.789z" fill="#7f5ef1"/>
<path d="m19 48.789-7 3.579 16 0.895z" fill="#593ef3"/>
<path d="m24 54.158-2 3.221-10 6.621v-7.158z" fill="#452ac5"/>
<path d="m65 48.789-1 8.59 10-2.326z" fill="#411bce"/>
<path d="m12 56.842v-4.474l16 0.895z" fill="#6f4ee6"/>
<path d="m12 18h19l25 46h-44z" fill="#fff" opacity=".123"/>
<rect x="8" y="77.9" width="80" height="9.1" ry="2.8732" fill="#eff7fb" style="paint-order:normal"/>
<path d="m8 83.127v1c0 1.5918 1.2813 2.873 2.873 2.873h74.254c1.5918 0 2.873-1.2813 2.873-2.873v-1c0 1.5918-1.2813 2.873-2.873 2.873h-74.254c-1.5918 0-2.873-1.2813-2.873-2.873z" fill="#c3d6de" style="paint-order:normal"/>
</g>
</svg>
