<svg width="96" height="96" version="1" xmlns="http://www.w3.org/2000/svg">
<defs>
<filter id="filter923" x="-.048" y="-.048" width="1.096" height="1.096" color-interpolation-filters="sRGB">
<feGaussianBlur stdDeviation="1.52"/>
</filter>
</defs>
<rect transform="matrix(0,-1,-1,0,86,0)" x="-86" y="-1.2373e-6" width="76" height="76" rx="3.6538" ry="3.6538" fill="#999" filter="url(#filter923)" stroke-width="1.4615"/>
<g transform="matrix(1.064 0 0 1.064 2.3757 -8.5197)">
<rect transform="matrix(0,-1,-1,0,0,0)" x="-88.834" y="-78.594" width="71.429" height="71.429" rx="3.4341" ry="3.4341" fill="#4f4f4f" stroke-width="1.3736"/>
<g transform="matrix(2.7473 0 0 2.7473 -1.0758 9.164)" opacity=".4">
<rect x="4" y="22" width="11" height="6" rx="1.25" ry="1.25"/>
<rect x="17" y="22" width="11" height="6" rx="1.25" ry="1.25"/>
<rect x="24" y="7" width="4" height="1"/>
<rect x="24" y="9" width="4" height="1"/>
<rect x="24" y="11" width="4" height="1"/>
<rect x="24" y="13" width="4" height="1"/>
<rect x="24" y="15" width="4" height="1"/>
<rect x="24" y="17" width="4" height="1"/>
</g>
</g>
</svg>
