<svg width="96" height="96" enable-background="new 0 0 48 48" version="1.1" viewBox="0 0 96 96" xml:space="preserve" xmlns="http://www.w3.org/2000/svg"><defs><linearGradient id="linearGradient914" x1="9.737" x2="19.02" y1="2.5e-8" y2="27.517" gradientTransform="matrix(2.1248 0 0 2.1248 12.327 30.379)" gradientUnits="userSpaceOnUse"><stop stop-color="#909090" offset=".01378"/><stop stop-color="#585858" offset="1"/></linearGradient><filter id="dcc_nav_mouse_42px-a" x="-.429" y="-.429" width="1.857" height="1.857"><feOffset dy="2" in="SourceAlpha" result="shadowOffsetOuter1"/><feGaussianBlur in="shadowOffsetOuter1" result="shadowBlurOuter1" stdDeviation="2"/><feColorMatrix in="shadowBlurOuter1" result="shadowMatrixOuter1" values="0 0 0 0 0   0 0 0 0 0   0 0 0 0 0  0 0 0 0.2 0"/><feMerge><feMergeNode in="shadowMatrixOuter1"/><feMergeNode in="SourceGraphic"/></feMerge></filter><filter id="dcc_nav_mouse_42px-d" x="-.073" y="-.073" width="1.145" height="1.145"><feGaussianBlur in="SourceAlpha" result="shadowBlurInner1" stdDeviation="1.5"/><feOffset dx="-1" dy="-1" in="shadowBlurInner1" result="shadowOffsetInner1"/><feComposite in="shadowOffsetInner1" in2="SourceAlpha" k2="-1" k3="1" operator="arithmetic" result="shadowInnerInner1"/><feColorMatrix in="shadowInnerInner1" values="0 0 0 0 0   0 0 0 0 0   0 0 0 0 0  0 0 0 0.25 0"/></filter><filter id="dcc_nav_mouse_42px-f" x="-.055" y="-.055" width="1.109" height="1.218"><feOffset dy="1" in="SourceAlpha" result="shadowOffsetOuter1"/><feColorMatrix in="shadowOffsetOuter1" values="0 0 0 0 1   0 0 0 0 1   0 0 0 0 1  0 0 0 0.1 0"/></filter><filter id="dcc_nav_mouse_42px-h" x="-.031" y="-.032" width="1.063" height="1.129"><feOffset dy="1" in="SourceAlpha" result="shadowOffsetOuter1"/><feColorMatrix in="shadowOffsetOuter1" values="0 0 0 0 1   0 0 0 0 1   0 0 0 0 1  0 0 0 0.1 0"/></filter><filter id="filter951" x="-.06" y="-.06" width="1.12" height="1.12" color-interpolation-filters="sRGB"><feGaussianBlur stdDeviation="0.68793653"/></filter></defs>
<path transform="matrix(2.4075 0 0 2.4075 17.044 16.595)" d="m17.818 3.0571 6.6424 6.6423c4.0761 4.0761 4.0761 10.685 0 14.761s-10.685 4.0761-14.761 0l-6.6423-6.6424c-4.0761-4.0761-4.0761-10.685 0-14.761s10.685-4.0761 14.761 0z" fill="#b3b3b3" fill-rule="evenodd" filter="url(#filter951)"/><g transform="translate(0,48)" display="none" opacity=".5">
	<polyline points="47.996 -3e-3 47.996 47.997 -4e-3 47.997 -4e-3 -3e-3" display="inline"/>
</g>
<g transform="matrix(1.1331 0 0 1.1331 3.262 -17.441)"><path d="m50.186 36.874 14.114 14.114c8.6606 8.6606 8.6606 22.703 0 31.364-8.6606 8.6605-22.703 8.6606-31.364 0l-14.114-14.114c-8.6606-8.6606-8.6606-22.703 0-31.364 8.6606-8.6605 22.703-8.6606 31.364 0z" fill="url(#linearGradient914)" fill-rule="evenodd" stroke-width="2.1248"/><path transform="matrix(2.1248 0 0 2.1248 12.327 30.379)" d="m17.818 3.0571 6.6424 6.6423c4.0761 4.0761 4.0761 10.685 0 14.761s-10.685 4.0761-14.761 0l-6.6423-6.6424c-4.0761-4.0761-4.0761-10.685 0-14.761s10.685-4.0761 14.761 0z" fill-rule="evenodd" filter="url(#dcc_nav_mouse_42px-d)"/><polygon transform="matrix(2.1248 0 0 2.1248 12.327 30.379)" points="2.414 3.054 3.537 1.931 11.586 9.981 10.463 11.103" filter="url(#dcc_nav_mouse_42px-f)"/><polygon transform="matrix(2.1248 0 0 2.1248 12.327 30.379)" points="2.414 3.054 3.537 1.931 11.586 9.981 10.463 11.103" fill="#4a4a4a" filter="url(#dcc_nav_mouse_42px-a)"/><polygon transform="matrix(2.1248 0 0 2.1248 12.327 30.379)" points="3.983 18.345 2.897 17.242 17.741 2.897 18.828 3.999" filter="url(#dcc_nav_mouse_42px-h)"/><polygon transform="matrix(2.1248 0 0 2.1248 12.327 30.379)" points="3.983 18.345 2.897 17.242 17.741 2.897 18.828 3.999" fill="#4a4a4a" filter="url(#dcc_nav_mouse_42px-a)"/></g></svg>
