<svg width="96" height="96" version="1.1" viewBox="0 0 96 96" xml:space="preserve" xmlns="http://www.w3.org/2000/svg"><defs><filter id="filter872" x="-.051332" y="-.045074" width="1.1027" height="1.0901" color-interpolation-filters="sRGB"><feGaussianBlur stdDeviation="1.5024609"/></filter></defs><path d="m32.391 8v9.7559h-5.8555v13.658h-1.9512v2e-3h-5.8516c-3.8752 0-5.8555 1.9881-5.8555 5.9141v26.717c0 4.2186 1.678 6.3926 5.959 6.3926h7.6992v5.8535h5.8555v11.707h31.219v-11.707h5.8535v-5.8535h7.7012c4.3141 0 5.959-2.174 5.959-6.3926v-13.121h-0.0019l0.0019-13.656c0-3.8421-1.951-5.8535-5.8223-5.8535h-5.8867v-2e-3h-1.9512v-13.658h-5.8535v-3.9023l-5.8848-5.8535z" fill="#b3b3b3" filter="url(#filter872)" stroke-width="1.9513"/><g transform="matrix(1.4049 0 0 1.4049 3.042 3.042)" stroke-width="1.3889"><path d="m56.999 38.919c0 4.9749-3.7555 9.0525-8.8886 9.0525h-32.221c-5.1332 0-8.8886-4.0791-8.8886-9.0525v-14.513c0-2.7944 1.4083-4.2096 4.1666-4.2096h41.688c2.7555 0 4.1443 1.4319 4.1443 4.1666z" fill="#edf1ff"/><path d="m7 34.083v9.3386c0 3.0027 1.1944 4.5499 4.2415 4.5499h41.517c3.0707 0 4.2415-1.5472 4.2415-4.5499v-9.3386z" fill="#bccadd"/><path d="m15.333 20.195h33.332v4.1666h-33.332zm0 20.833h33.332v5.5554h-33.332z" fill="#282a2f"/><path d="m16.722 46.583h30.555v5.5554h-30.555zm0-36.11h30.555v9.722h-30.555z" fill="#b3b5c9"/><path d="m20.889 43.805h22.222v16.666h-22.222zm22.222-23.61h-22.222v-16.666h18.033l4.1888 4.1666z" fill="#fff"/><circle cx="52.27" cy="30.968" r="1.7263" fill="#22ac38"/><circle cx="52.286" cy="37.868" r="1.7416" fill="#e60012"/></g></svg>
