<svg width="96" height="96" version="1.1" viewBox="0 0 96 96" xmlns="http://www.w3.org/2000/svg">
<defs>
<filter id="filter899" x="-.05475" y="-.042732" width="1.1095" height="1.0855" color-interpolation-filters="sRGB">
<feGaussianBlur stdDeviation="1.46"/>
</filter>
</defs>
<title>android-device-96px</title>
<g fill-rule="evenodd">
<path d="m16 9.991a4.1753 3.001 0 0 1 4.1739-2.991h55.652c2.3054 0 4.1739 1.338 4.1739 2.991v76.019a4.1753 3.001 0 0 1-4.1739 2.99h-55.652c-2.3054 0-4.1739-1.338-4.1739-2.991v-76.019z" fill="#999" filter="url(#filter899)"/>
<path d="m16 9.991a4.1753 3.001 0 0 1 4.1739-2.991h55.652c2.3054 0 4.1739 1.338 4.1739 2.991v76.019a4.1753 3.001 0 0 1-4.1739 2.99h-55.652c-2.3054 0-4.1739-1.338-4.1739-2.991v-76.019z" fill="#c1b6aa"/>
<path d="m17.391 9.997c0-1.103 1.2508-1.997 2.7896-1.997h55.638c1.5402 0 2.7896 0.898 2.7896 1.997v76.006a2.7854 2.002 0 0 1-2.7896 1.997h-55.638a2.7882 2.004 0 0 1-2.7896-1.997z" fill="#f7ebde"/>
<path d="m18.783 16h58.435v64h-58.435z" fill="#1a1a1a"/>
<circle cx="57" cy="12" r="1" fill="#1c1c1c"/>
</g>
<path d="m45.754 12.5h7m-14.5 0h1.5" fill="none" stroke="#8a837b" stroke-linecap="round"/>
</svg>
