<svg width="18" height="18" version="1.1" viewBox="0 0 18 18" xmlns="http://www.w3.org/2000/svg">
<style id="current-color-scheme" type="text/css">.ColorScheme-Text {
            color:#232629;
        }</style>
<path class="ColorScheme-Text" d="m13.5 3c-0.3978 6.01e-5 -0.77929 0.15813-1.0605 0.43945l-2 2-0.93945-0.93945-1 1 0.64648 0.64648-4.5898 4.5898c-0.37168 0.37168-0.55664 0.8626-0.55664 1.3535v0.91016l-1.5 1.5 1 1 1.5-1.5h0.91016c0.49092 0 0.98184-0.18496 1.3535-0.55664l4.5898-4.5898 0.64648 0.64648 1-1-0.93945-0.93945 2-2c0.28132-0.28126 0.43939-0.66275 0.43945-1.0605v-0.5c0-0.55228-0.44772-1-1-1zm-3.6465 3.8535 1.293 1.293-2.8535 2.8535h-2.5859z" color="#232629" fill="currentColor"/>
</svg>
