<svg width="18" height="18" version="1.1" viewBox="0 0 18 18" xmlns="http://www.w3.org/2000/svg">
<defs>
<style id="current-color-scheme" type="text/css">.ColorScheme-Text {
        color:#232629;
      }</style>
</defs>
<g transform="translate(.9965 -1)" fill="currentColor">
<path class="ColorScheme-Text" d="m6.39 5-4.383 11h1.357l1.189-3h4.928l1.152 3h1.373l-4.252-11zm0.68 1.328c0.113 0.376 0.711 2.082 1.797 5.115l0.225 0.557h-4.143z" color="#232629"/>
<path class="ColorScheme-Text" d="m13 4a1 1 0 0 0-1 1 1 1 0 0 0 1 1 1 1 0 0 0 1-1 1 1 0 0 0-1-1zm0 3a1 1 0 0 0-1 1 1 1 0 0 0 1 1 1 1 0 0 0 1-1 1 1 0 0 0-1-1zm0 3a1 1 0 0 0-1 1 1 1 0 0 0 1 1 1 1 0 0 0 1-1 1 1 0 0 0-1-1z" color="#232629" fill-rule="evenodd"/>
</g>
</svg>
