<svg width="18" height="18" version="1.1" viewBox="0 0 18 18" xmlns="http://www.w3.org/2000/svg">
<defs>
<style id="current-color-scheme" type="text/css">.ColorScheme-Text {
        color:#232629;
      }</style>
</defs>
<g transform="translate(1,-1)" fill="currentColor">
<path class="ColorScheme-Text" d="m8 4-6 4.604 2.32 7.396h7.418l2.262-7.449zm0 1 5 3.793-1.885 6.207h-6.182l-1.934-6.164z" color="#232629"/>
<path class="ColorScheme-Text" d="m4.5911 15.531c-0.060547-0.10174-2.0889-6.5473-2.0886-6.6372 1.413e-4 -0.048025 1.2273-1.0186 2.727-2.1569 2.3728-1.8009 2.7448-2.0584 2.8661-1.9835 0.076661 0.047365 1.3246 0.97565 2.7732 2.0629l2.6338 1.9767-0.1428 0.46721c-0.07854 0.25696-0.54489 1.777-1.0363 3.3779l-0.89353 2.9107-3.4025 0.01942c-1.8714 0.01068-3.4177-0.0062-3.4363-0.03732z" color="#232629" fill-opacity=".50196"/>
</g>
</svg>
