<svg width="18" height="18" version="1.1" viewBox="0 0 18 18" xmlns="http://www.w3.org/2000/svg">
<defs>
<style id="current-color-scheme" type="text/css">.ColorScheme-Text {
        color:#232629;
      }</style>
</defs>
<g transform="translate(1,-1)" fill="currentColor">
<path class="ColorScheme-Text" d="m8 5a6 5 0 0 0-6 5 6 5 0 0 0 6 5 6 5 0 0 0 6-5 6 5 0 0 0-6-5zm0 1a5 4 0 0 1 5 4 5 4 0 0 1-5 4 5 4 0 0 1-5-4 5 4 0 0 1 5-4z" color="#232629"/>
<path class="ColorScheme-Text" d="m6.7193 14.268c-1.2434-0.2902-2.0788-0.73177-2.8654-1.5146-0.65181-0.64869-0.98629-1.2395-1.1528-2.0363-0.43784-2.0951 1.1965-4.1608 3.7986-4.801 0.77881-0.19161 2.1684-0.22507 2.8911-0.069604 1.6695 0.35916 3.0857 1.3657 3.7198 2.6438 1.1314 2.2805-0.3136 4.7823-3.2772 5.674-0.67174 0.20211-2.4402 0.26106-3.114 0.1038z" color="#232629" fill-opacity=".50196"/>
</g>
</svg>
