<svg width="18" height="18" version="1.1" viewBox="0 0 18 18" xmlns="http://www.w3.org/2000/svg">
<defs>
<style id="current-color-scheme" type="text/css">.ColorScheme-Text {
        color:#232629;
      }</style>
</defs>
<g transform="translate(1 1.1504)" fill="currentColor">
<path class="ColorScheme-Text" d="m6.9844 2-4.9844 3.8379 1.9355 6.1621 2.291-0.011719-0.3125 1.8613 3.0898-1.6973 3.0918 1.6914-0.60352-3.5645 2.5078-2.5215-2.4883-0.36523 0.48828-1.6016zm0.0019531 1 1.8301 1.3828-1.3555 2.8691-3.4609 0.51367 2.5117 2.5176-0.11914 0.70898-1.8438 0.007812-1.5488-4.9297zm2.3945 1.8086 1.6191 1.2246-0.375 1.2285-0.085938-0.011719zm-0.38281 0.69141 1.0801 2.2754 2.4219 0.35547-1.7559 1.7656 0.42188 2.4941-2.1641-1.1836-2.1621 1.1875 0.41797-2.4961-1.7578-1.7637 2.4219-0.35938z" color="#232629"/>
<g class="ColorScheme-Text" color="#232629" fill-opacity=".50196">
<path d="m2.8743 5.8896c2.0375-1.6685 2.1446-1.728 4.2277-3.3577 0.62631 0.47328 1.2488 0.95189 1.8697 1.4321 0.036093 0.03273-0.25675 0.74852-0.65965 1.6124l-0.72456 1.8755c-1.1601 0.15873-1.8499 0.23162-3.132 0.36978 0.68572 0.72271 1.1366 1.1472 2.272 2.313-0.092702 0.3896-0.20426 0.74338-0.28984 1.1196h-1.9409c-0.55499-1.7828-1.1188-3.5705-1.6224-5.3646z"/>
<path d="m6.5891 12.829c0-0.02964 0.42836-2.6203 0.4459-2.6968 0.00773-0.03366-0.16473-0.21668-0.96621-1.0254l-0.97561-0.98447 1.3315-0.19638c0.73232-0.10801 1.3401-0.20295 1.3507-0.21097 0.010585-0.0080248 0.28385-0.57434 0.60725-1.2585 0.3234-0.68414 0.59295-1.2439 0.599-1.2439 0.00605-2.87e-5 0.27859 0.56356 0.60565 1.2524 0.46942 0.98869 0.60298 1.2544 0.6342 1.2616 0.02175 0.00504 0.62386 0.094546 1.338 0.19892 0.71416 0.10437 1.3025 0.19375 1.3073 0.19863 0.0049 0.00488-0.42947 0.44873-0.96522 0.98635l-0.97409 0.97748 0.23316 1.3766c0.12824 0.75713 0.23019 1.3796 0.22656 1.3832-0.0036 0.0036-0.54542-0.28771-1.204-0.64742l-1.1974-0.65402-1.1367 0.62422c-1.3876 0.76198-1.2601 0.69534-1.2601 0.65851z"/>
<path d="m9.9016 6.0111c-0.37734-0.75629-0.68239-1.3786-0.67789-1.3828 0.010835-0.010291 1.9013 1.3489 1.8977 1.3645-0.0015 0.00663-0.09326 0.29427-0.20386 0.63921-0.11061 0.34494-0.20962 0.65582-0.22003 0.69086-0.01404 0.047228-0.03068 0.063657-0.06439 0.063545-0.03987-1.372e-4 -0.12983-0.16926-0.73153-1.3752z"/>
</g>
</g>
</svg>
