<svg width="18" height="18" version="1.1" viewBox="0 0 18 18" xmlns="http://www.w3.org/2000/svg">
<defs>
<style id="current-color-scheme" type="text/css">.ColorScheme-Text {
        color:#232629;
      }</style>
</defs>
<g transform="translate(1,1)" fill="currentColor">
<path class="ColorScheme-Text" d="m8.2746 13.953c0.00833 0 1.1495-0.75382 2.5359-1.6748l2.5205-1.6748v-2.6001c0-1.4307-0.0074-2.6014-0.01668-2.6014-0.0093 0-1.1504 0.75468-2.5359 1.6774l-2.5193 1.6774v2.5988c0 1.429 0.00706 2.5975 0.015402 2.5975z" color="#232629" fill-opacity=".2"/>
<path class="ColorScheme-Text" d="m7.941 8.355c0.075387-0.0030883 5.0484-3.3586 5.0193-3.3868-0.014404-0.013864-1.1312-0.76522-2.482-1.6684-1.3508-0.90316-2.4637-1.6377-2.473-1.6312-0.42054 0.27256-4.9954 3.3678-5 3.383-0.00988 0.032723 4.8804 3.3034 4.9358 3.3034z" color="#232629" fill-opacity=".4"/>
<path class="ColorScheme-Text" d="m7.7189 13.994c0.00828 0 0.015875-1.1506 0.015402-2.5565l-0.0013141-2.5552-2.518-1.6851c-1.3845-0.92649-2.5204-1.6863-2.5244-1.6863-0.00421-0.00112-0.0077 1.1517-0.0077 2.5616v2.5629l2.5103 1.6799c1.3808 0.92353 2.5174 1.6786 2.5257 1.6786z" color="#232629" fill-opacity=".6"/>
<path class="ColorScheme-Text" d="m8 15c5.7699-3.7585 4.0777-2.7209 6-4v-6c-1.2928-0.85607-3.9694-2.6575-6-4-3 2-3.6428 2.3856-6 4v6zm0.50832-1.5876-0.011985-4.4124c1.9149-1.3476 3.2758-2.1662 4.5037-3v4.5944zm-0.99266-0.011985-4.5157-2.83v-4.5705l4.5276 3zm0.48435-5.4005-4.5515-3 4.5515-3 4.4779 3c-1.5218 1.0868-2.9411 1.9353-4.4779 3z" color="#232629"/>
</g>
</svg>
