<svg width="18" height="18" version="1.1" viewBox="0 0 18 18" xmlns="http://www.w3.org/2000/svg">
<defs>
<style id="current-color-scheme" type="text/css">.ColorScheme-Text {
        color:#232629;
      }</style>
</defs>
<path class="ColorScheme-Text" d="m6 3c-0.433 0.75-0.65175 0.75-0.21875 1.5l2.625 4.5-1.5 2.2188c-0.272-0.138-0.58125-0.21875-0.90625-0.21875-1.105 0-2 0.895-2 2s0.895 2 2 2 2-0.895 2-2c0-0.405-0.13675-0.77875-0.34375-1.0938-5e-3 -8e-3 5e-3 -0.02425 0-0.03125l0.4375-0.625c0.802-0.025 0.91425-0.59275 1.4062-0.59375 0.011 0 0.02025-1e-3 0.03125 0l0.03125 0.0625 0.78125 1.1562v0.03125c-0.206 0.315-0.3457 0.68875-0.3457 1.0938 0 1.105 0.895 2 2 2 1.105 0 2-0.895 2-2s-0.895-2-2-2c-0.325 0-0.6333 0.08075-0.9043 0.21875l-1.5-2.2188s2.635-4.508 2.625-4.5c0.433-0.75 0.2123-0.75-0.2207-1.5l-3 5.125zm2.998 6h0.00195c0.276 0 0.5 0.224 0.5 0.5 0 0.254-0.1925 0.468-0.4375 0.5h-0.125c-0.245-0.032-0.43945-0.246-0.43945-0.5 0-0.276 0.224-0.5 0.5-0.5zm-3 3c0.552 0 1 0.448 1 1s-0.448 1-1 1-1-0.448-1-1 0.448-1 1-1zm6 0c0.552 0 1 0.448 1 1s-0.448 1-1 1c-0.552 0-1-0.448-1-1s0.448-1 1-1z" color="#232629" fill="currentColor"/>
</svg>
