<svg width="18" height="18" version="1.1" viewBox="0 0 18 18" xmlns="http://www.w3.org/2000/svg">
<defs>
<style id="current-color-scheme" type="text/css">.ColorScheme-Text {
        color:#232629;
      }
      .ColorScheme-NegativeText {
        color:#da4453;
      }</style>
</defs>
<g transform="translate(1,1)" fill="currentColor">
<path class="ColorScheme-Text" d="m2 2v3h1v-2h2v-1h-2zm9 0v1h2v2h1v-3zm-7 2v3h3v-3zm5 0v3h3v-3zm-4 1h1v1h-1zm5 0h1v1h-1zm-6 4v3h3v-3zm1 1h1v1h-1zm-3 1v3h3v-1h-2v-2z" color="#232629"/>
<path class="ColorScheme-NegativeText" d="m9 9.83 1.667 1.667-1.667 1.667 0.833 0.833 1.667-1.667 1.667 1.667 0.833-0.833-1.667-1.667 1.667-1.667-0.833-0.833-1.667 1.667-1.667-1.667z" color="#da4453"/>
</g>
</svg>
