<svg width="18" height="18" version="1.1" viewBox="0 0 18 18" xmlns="http://www.w3.org/2000/svg">
<defs>
<style id="current-color-scheme" type="text/css">.ColorScheme-Text {
        color:#232629;
      }</style>
</defs>
<path class="ColorScheme-Text" d="m4 3v1h-1v1h1v2h-1v1h1v2h-1v1h1v2h-1v1h1v1h1v-1h2v1h1v-1h2v1h1v-1h2v1h1v-1h1v-1h-1v-2h1v-1h-1v-2h1v-1h-1v-2h1v-1h-1v-1h-1v1h-2v-1h-1v1h-2v-1h-1v1h-2v-1zm1 2h2v2h-2zm3 0h2v2h-2zm3 0h2v2h-2zm-6 3h2v2h-2zm3 0h2v2h-2zm3 0h2v2h-2zm-6 3h2v2h-2zm3 0h2v2h-2zm3 0h2v2h-2z" color="#232629" fill="currentColor"/>
</svg>
