<svg width="18" height="18" version="1.1" viewBox="0 0 18 18" xmlns="http://www.w3.org/2000/svg">
<defs>
<style id="current-color-scheme" type="text/css">.ColorScheme-Text {
        color:#232629;
      }</style>
</defs>
<path class="ColorScheme-Text" d="m11 3.5c-0.93198 0-1.7155 0.6373-1.9375 1.5h-6.0625v1h6.0625c0.22196 0.8627 1.0055 1.5 1.9375 1.5 0.93198 0 1.7155-0.6373 1.9375-1.5h2.0625v-1h-2.0625c-0.22196-0.8627-1.0055-1.5-1.9375-1.5zm-5 7c-0.93198 0-1.7155 0.6373-1.9375 1.5h-1.0625v1h1.0625c0.22196 0.8627 1.0055 1.5 1.9375 1.5s1.7155-0.6373 1.9375-1.5h7.0625v-1h-7.0625c-0.22196-0.8627-1.0055-1.5-1.9375-1.5zm0 1c0.55228 0 1 0.44772 1 1s-0.44772 1-1 1-1-0.44772-1-1 0.44772-1 1-1z" color="#232629" fill="currentColor"/>
</svg>
