<svg width="18" height="18" version="1.1" viewBox="0 0 18 18" xmlns="http://www.w3.org/2000/svg">
<title>mesh-gradient</title>
<g transform="translate(-3,-3)">
<path d="m8.799 4.77a4.95 4.95 0 0 1 0.8 0.013c1.017 0.102 1.819 0.506 2.569 0.881s1.448 0.72 2.307 0.807c0.858 0.086 1.902-0.08 3.357-0.807l0.336-0.168 0.168 0.336c0.772 1.545 0.982 2.751 0.88 3.768-0.1 1.016-0.505 1.818-0.88 2.568s-0.72 1.448-0.807 2.307c-0.086 0.858 0.08 1.902 0.807 3.357l0.168 0.336-0.336 0.168c-1.545 0.772-2.751 0.982-3.768 0.88-1.016-0.1-1.818-0.505-2.568-0.88s-1.448-0.72-2.307-0.807c-0.858-0.086-1.902 0.08-3.357 0.807l-0.336 0.168-0.168-0.336c-0.772-1.545-0.982-2.751-0.88-3.768 0.1-1.016 0.505-1.818 0.88-2.568s0.72-1.448 0.807-2.307c0.086-0.858-0.08-1.902-0.807-3.357l-0.168-0.336 0.336-0.168c1.159-0.58 2.126-0.842 2.967-0.895zm-2.395 12.601c0.045-0.257 0.441-0.478 1.187-0.662 0.984-0.297 2.225-0.257 3.331 0.13 0.425 0.124 1.705 0.807 2.578 1.15 1.911 0.681 3.708-0.343 3.744-0.364-0.501-0.436-0.921-2.707-0.621-3.795 0.472-1.946 0.802-1.788 1.401-3.385 0.591-1.648-0.213-3.318-0.354-3.709-2.46 1.392-4.563 0.617-6.674-0.51-2.12-1.151-4.244 0.13-4.245 0.13 0.899 1.525 0.954 3.262 0.166 5.209-0.209 0.362-0.441 0.837-0.698 1.424-0.688 1.277-0.627 2.737 0.185 4.382z" opacity=".3"/>
<path d="m4 4v3h3v-3zm13 0v3h3v-3zm-13 13v3h3v-3zm13 0h3v3h-3zm-12-12h1v1h-1zm13 0h1v1h-1zm0 13v1h1v-1zm-13 0h1v1h-1z" fill="#303030"/>
</g>
</svg>
