<svg width="18" height="18" version="1.1" viewBox="0 0 18 18" xmlns="http://www.w3.org/2000/svg">
<defs>
<style id="current-color-scheme" type="text/css">.ColorScheme-Text {
        color:#232629;
      }
      .ColorScheme-Highlight {
        color:#3daee9;
      }</style>
</defs>
<g transform="translate(1,1)" fill="currentColor">
<path class="ColorScheme-Text" d="m2 2v3h3v-3zm9 0v3h3v-3zm-8 1h1v1h-1zm9 0h1v1h-1zm-6 1v1h1v-1zm3 0v1h1v-1zm-5 2v1h1v-1zm7 0v1h1v-1zm-7 3v1h1v-1zm-2 2v3h3v-3zm4 0v1h1v-1zm-3 1h1v1h-1z" color="#232629"/>
<path class="ColorScheme-Highlight" d="m8 8v2h1v-1h1v-1zm4 0v1h1v1h1v-2zm-4 4v2h2v-1h-1v-1zm5 0v1h-1v1h2v-2z" color="#3daee9"/>
</g>
</svg>
