<svg width="18" height="18" version="1.1" viewBox="0 0 18 18" xmlns="http://www.w3.org/2000/svg">
<defs>
<style id="current-color-scheme" type="text/css">.ColorScheme-Text {
        color:#232629;
      }
      .ColorScheme-Highlight {
        color:#3daee9;
      }</style>
</defs>
<g transform="translate(1 -1.0007)" fill="currentColor">
<path class="ColorScheme-Text" d="m1 4a7 9 0 0 0 4.5039 8.3965 2.5 2.5 0 0 1 0.25195-0.99219 6 8 0 0 1-3.7559-7.4043zm13 0a6 8 0 0 1-3.752 7.4102 2.5 2.5 0 0 1 0.24805 0.97852 7 9 0 0 0 4.5039-8.3887z" color="#232629"/>
<path class="ColorScheme-Highlight" d="m8.0043 10.001a2.5 2.5 0 0 0-2.5 2.5 2.5 2.5 0 0 0 2.5 2.5 2.5 2.5 0 0 0 2.5-2.5 2.5 2.5 0 0 0-2.5-2.5m0 1a1.5 1.5 0 0 1 1.5 1.5 1.5 1.5 0 0 1-1.5 1.5 1.5 1.5 0 0 1-1.5-1.5 1.5 1.5 0 0 1 1.5-1.5" color="#3daee9"/>
</g>
</svg>
