<svg width="18" height="18" version="1.1" viewBox="0 0 18 18" xmlns="http://www.w3.org/2000/svg">
<defs>
<style id="current-color-scheme" type="text/css">.ColorScheme-Text {
        color:#232629;
      }
      .ColorScheme-Highlight {
        color:#3daee9;
      }</style>
</defs>
<g transform="translate(.99609 -1)" fill="currentColor">
<path class="ColorScheme-Text" d="m1.0039 4a7 9 0 0 0 6 8.8984v-1.0195a6 8 0 0 1-5-7.8789zm13 0a6 8 0 0 1-5 7.8867v1.0098a7 9 0 0 0 6-8.8945zm-10.5 8a1.5 1.5 0 0 0-1.5 1.5 1.5 1.5 0 0 0 1.5 1.5 1.5 1.5 0 0 0 1.4141-1h2.082v-1h-2.082a1.5 1.5 0 0 0-1.4141-1zm10 0a1.5 1.5 0 0 0-1.4121 1h-1.0918v1h1.0918a1.5 1.5 0 0 0 1.4121 1 1.5 1.5 0 0 0 1.5-1.5 1.5 1.5 0 0 0-1.5-1.5zm-10 1a0.5 0.5 0 0 1 0.49609 0.44141v0.12109a0.5 0.5 0 0 1-0.49609 0.4375 0.5 0.5 0 0 1-0.5-0.5 0.5 0.5 0 0 1 0.5-0.5zm10 0a0.5 0.5 0 0 1 0.5 0.5 0.5 0.5 0 0 1-0.5 0.5 0.5 0.5 0 0 1-0.5-0.5 0.5 0.5 0 0 1 0.5-0.5z" color="#232629"/>
<path class="ColorScheme-Highlight" d="m6 11v4h4v-4zm1 1h2v2h-2z" color="#3daee9"/>
</g>
</svg>
