<svg width="18" height="18" version="1.1" viewBox="0 0 18 18" xmlns="http://www.w3.org/2000/svg">
<defs>
<style id="current-color-scheme" type="text/css">.ColorScheme-Text {
        color:#232629;
      }</style>
</defs>
<path class="ColorScheme-Text" d="m4.5 3c-0.82843 0-1.5 0.67157-1.5 1.5 0 0.65584 0.41359 1.2024 1 1.4062v6.0938h-1v3h3v-1h3v-1h-3v-1h-1v-6.0938c0.43209-0.1502 0.75605-0.47416 0.90625-0.90625h6.0938v1h1v3h1v-3h1v-3h-3v1h-6.0938c-0.20384-0.58641-0.75041-1-1.4062-1zm0 1c0.27614 0 0.5 0.22386 0.5 0.5s-0.22386 0.5-0.5 0.5-0.5-0.22386-0.5-0.5 0.22386-0.5 0.5-0.5zm8.5 0h1v1h-1zm-1 6v2h-2v1h2v2h1v-2h2v-1h-2v-2zm-8 3h1v1h-1z" color="#232629" fill="currentColor"/>
</svg>
