<svg width="18" height="18" version="1.1" viewBox="0 0 18 18" xmlns="http://www.w3.org/2000/svg">
<defs>
<style id="current-color-scheme" type="text/css">.ColorScheme-Text {
        color:#232629;
      }</style>
</defs>
<path class="ColorScheme-Text" d="m3 2.9949v3h1v5.1113l-1 1.0137v2.875c0.56696 0.01 0.9083 0.0027 1.5 0 0.53007-0.0025 1.3438 0 1.3438 0 0.00392 1.64e-4 0.78891-0.80562 0.98242-1h5.1738v1h3v-3h-3v1h-4.1895c2.4095-2.4433 7.0332-7.1563 7.0332-7.1563l-2.8438-2.8438-7 7.0977v-4.0977h1v-3zm1 1h1v1h-1zm7.2812 1.1562 1.4062 1.4062-5.4141 5.5605-1.4082-1.3965zm3.6875 4.8438c-7e-3 3e-5 -0.02961 0.0059-0.03711 0.0059h0.06836c-0.0121-2e-3 -0.01885-0.0039-0.03125-0.0059zm-1.9688 3h1v1h-1z" color="#232629" fill="currentColor"/>
</svg>
