<svg width="18" height="18" version="1.1" viewBox="0 0 18 18" xmlns="http://www.w3.org/2000/svg">
<defs>
<style id="current-color-scheme" type="text/css">.ColorScheme-Text {
        color:#232629;
      }
      .ColorScheme-Highlight {
        color:#3daee9;
      }</style>
</defs>
<g transform="translate(1,1)" fill="currentColor">
<path class="ColorScheme-Text" d="m5 2-2 1.5 2 1.5v-1h4v-1h-4zm8 0c0 2.419-1.718 4.8209-4 5.3789v1.0156c2.837-0.56 5-3.4215 5-6.3945zm-6 5.6055c-2.837 0.56-5 3.4215-5 6.3945h1c0-2.419 1.718-4.8209 4-5.3789zm4 3.3945v1h-4v1h4v1l2-1.5z" color="#232629"/>
<path class="ColorScheme-Highlight" d="m6 6v4h4v-4zm1 1h2v2h-2z" color="#3daee9"/>
</g>
</svg>
