<svg width="18" height="18" version="1.1" viewBox="0 0 18 18" xmlns="http://www.w3.org/2000/svg">
<defs>
<style id="current-color-scheme" type="text/css">.ColorScheme-Text {
        color:#232629;
      }
      .ColorScheme-Highlight {
        color:#3daee9;
      }</style>
</defs>
<g transform="translate(1 .99902)" fill="currentColor">
<path class="ColorScheme-Text" d="m11 2v3h3v-3zm1 1h1v1h-1zm1 6v5h1v-5zm-3.3926 0.00195c0.029-0.015997-0.60742 0.60742-0.60742 0.60742l1.9043 1.8926-1.873 1.9336 0.57617 0.56641 2.3926-2.5zm-6.1074 1.998c-0.831 0-1.5 0.02227-1.5 0.048828v2.9023c0 0.026558 0.669 0.048828 1.5 0.048828s1.5-0.02227 1.5-0.048828v-2.9023c0-0.026558-0.669-0.048828-1.5-0.048828zm-0.5 1h1v1h-1z" color="#232629"/>
<path class="ColorScheme-Highlight" d="m11 3a8 8 0 0 0-8 8h1a7 7 0 0 1 7-7z" color="#3daee9"/>
</g>
</svg>
