<svg width="18" height="18" version="1.1" viewBox="0 0 18 18" xmlns="http://www.w3.org/2000/svg">
<defs>
<style id="current-color-scheme" type="text/css">.ColorScheme-Text {
        color:#232629;
      }
      .ColorScheme-Highlight {
        color:#3daee9;
      }</style>
</defs>
<g transform="translate(1,1)" fill="currentColor">
<path class="ColorScheme-Text" d="m11 2v1a8 8 0 0 0-8 8h1a7 7 0 0 1 7-7v1h3v-3zm1 1h1v1h-1z" color="#232629"/>
<path class="ColorScheme-Highlight" d="m3.5 2a1.5 1.5 0 0 0-1.5 1.5 1.5 1.5 0 0 0 1 1.4121v2.0879h1v-2.0879a1.5 1.5 0 0 0 1-1.4121 1.5 1.5 0 0 0-1.5-1.5zm0 1a0.5 0.5 0 0 1 0.5 0.5 0.5 0.5 0 0 1-0.5 0.5 0.5 0.5 0 0 1-0.5-0.5 0.5 0.5 0 0 1 0.5-0.5zm-0.5 5v1h1v-1zm0 2v1h-1v3h3v-3h-1v-1zm0 2h1v1h-1z" color="#3daee9"/>
</g>
</svg>
