<svg width="18" height="18" version="1.1" viewBox="0 0 18 18" xmlns="http://www.w3.org/2000/svg">
<defs>
<style id="current-color-scheme" type="text/css">.ColorScheme-Text {
        color:#232629;
      }
      .ColorScheme-Highlight {
        color:#3daee9;
      }</style>
</defs>
<g transform="translate(0,2)" fill="currentColor">
<path class="ColorScheme-Text" d="m8 2.0254a5.5 5.5 0 0 0-4.9727 4.9746h1.0039a4.5 4.5 0 0 1 3.9688-3.9668v-0.033203zm1 0.00195v1.0039a4.5 4.5 0 0 1 3.9668 3.9688h1.0078a5.5 5.5 0 0 0-4.9746-4.9727zm-5.9707 5.9727a5.5 5.5 0 0 0 4.9707 4.9727v-1.0039a4.5 4.5 0 0 1-3.9668-3.9688h-0.033203zm9.9395 0a4.5 4.5 0 0 1-3.9688 3.9668v1.0078a5.5 5.5 0 0 0 4.9727-4.9746h-0.97266z" color="#232629"/>
<path class="ColorScheme-Highlight" d="m7 1v3h3v-3zm1 1h1v1h-1zm-6 4v3h3v-3zm10 0v3h3v-3zm-9 1h1v1h-1zm10 0h1v1h-1zm-6 4v3h3v-3zm1 1h1v1h-1z" color="#3daee9"/>
</g>
</svg>
