<svg width="18" height="18" version="1.1" viewBox="0 0 18 18" xmlns="http://www.w3.org/2000/svg">
<defs>
<style id="current-color-scheme" type="text/css">.ColorScheme-Text {
        color:#232629;
      }
      .ColorScheme-Highlight {
        color:#3daee9;
      }</style>
</defs>
<g transform="translate(1,1)" fill="currentColor">
<path class="ColorScheme-Text" d="m2 2v3h3v-3zm9 0v3h3v-3zm-8 1h1v1h-1zm3 0v1h1v-1zm3 0v1h1v-1zm3 0h1v1h-1zm-9 3v1h1v-1zm9 0v1h1v-1zm-9 3v1h1v-1zm9 0v1h1v-1zm-10 2v3h3v-3zm9 0v3h3v-3zm-8 1h1v1h-1zm9 0h1v1h-1z" color="#232629"/>
<path class="ColorScheme-Highlight" d="m8.0039 7a2 2 0 0 0-2 2 2 2 0 0 0 1.9961 2 2 2 0 0 0-2 2 2 2 0 0 0 2 2 2 2 0 0 0 2-2 2 2 0 0 0-1.9961-2 2 2 0 0 0 2-2 2 2 0 0 0-2-2zm0 1a1 1 0 0 1 1 1 1 1 0 0 1-1 1 1 1 0 0 1-1-1 1 1 0 0 1 1-1zm-0.0039062 4a1 1 0 0 1 1 1 1 1 0 0 1-1 1 1 1 0 0 1-1-1 1 1 0 0 1 1-1z" color="#3daee9"/>
</g>
</svg>
