<svg width="18" height="18" version="1.1" viewBox="0 0 18 18" xmlns="http://www.w3.org/2000/svg">
<defs>
<style id="current-color-scheme" type="text/css">.ColorScheme-Text {
        color:#232629;
      }
      .ColorScheme-Highlight {
        color:#3daee9;
      }</style>
</defs>
<g transform="translate(1,1)" fill="currentColor">
<path class="ColorScheme-Text" d="m5 3v1h6v-1zm-2 2v6h1v-6zm9 0v6h1v-6zm-7 7v1h6v-1z" color="#232629"/>
<path class="ColorScheme-Highlight" d="m2 2v3h3v-3zm9 0v3h3v-3zm-8 1h1v1h-1zm9 0h1v1h-1zm-10 8v3h3v-3zm9 0v3h3v-3zm-8 1h1v1h-1zm9 0h1v1h-1z" color="#3daee9"/>
</g>
</svg>
