<svg width="18" height="18" version="1.1" viewBox="0 0 18 18" xmlns="http://www.w3.org/2000/svg">
<defs>
<style id="current-color-scheme" type="text/css">.ColorScheme-Text {
        color:#232629;
      }</style>
</defs>
<g transform="translate(-.0039062 -1)">
<path d="m11.553 6.6602-1.5527 5.7949 0.96484 0.25977 0.19922-0.74219a3 3 0 0 0 1.7324 1.2598 3 3 0 0 0 3.6738-2.1211 3 3 0 0 0-2.1211-3.6738 3 3 0 0 0-2.1309 0.22461l0.19922-0.74219zm2.1035 1.6738a2 2 0 0 1 0.53516 0.068359 2 2 0 0 1 1.4141 2.4492 2 2 0 0 1-2.4492 1.4141 2 2 0 0 1-1.4141-2.4492 2 2 0 0 1 1.9141-1.4824z" color="#232629" fill="#232629"/>
<path d="m4.0039 7a3 3 0 0 0-3 3 3 3 0 0 0 3 3 3 3 0 0 0 2-0.76758v0.76953h1v-6h-1v0.76953a3 3 0 0 0-2-0.76953zm0 1.002a2 2 0 0 1 2 2 2 2 0 0 1-2 2 2 2 0 0 1-2-2 2 2 0 0 1 2-2z" color="#232629" fill="#232629"/>
<path d="m8 4v12h1v-1.6113l6.002 1.6094 0.25977-0.9668-6.2617-1.6758v-9.3555z" fill="#1d99f3"/>
</g>
</svg>
