<svg width="18" height="18" version="1.1" viewBox="0 0 18 18" xmlns="http://www.w3.org/2000/svg">
<defs>
<style id="current-color-scheme" type="text/css">.ColorScheme-Text {
        color:#232629;
      }</style>
</defs>
<g transform="translate(.99805 .99902)">
<path class="ColorScheme-Text" d="m4.0039 8a3 3 0 0 0-3 3 3 3 0 0 0 3 3 3 3 0 0 0 2-0.76758v0.76953h1v-6h-1v0.76953a3 3 0 0 0-2-0.76953zm4.9961 0v6h1v-0.76953a3 3 0 0 0 2 0.76953 3 3 0 0 0 3-3 3 3 0 0 0-3-3 3 3 0 0 0-2 0.76758v-0.76758zm3 1a2 2 0 0 1 2 2 2 2 0 0 1-2 2 2 2 0 0 1-2-2 2 2 0 0 1 2-2zm-7.9961 0.00195a2 2 0 0 1 2 2 2 2 0 0 1-2 2 2 2 0 0 1-2-2 2 2 0 0 1 2-2z" color="#232629" fill="currentColor"/>
<path d="m7 2-3 2.5 3 2.5zm2 0v5l3-2.5z" fill="#1d99f3"/>
</g>
</svg>
