<svg width="18" height="18" version="1.1" viewBox="0 0 18 18" xmlns="http://www.w3.org/2000/svg">
<title>tool-spray</title>
<path d="m9.8163 3.068a1.001 1.001 0 0 0-0.163 1.987 1 1 0 1 0 0.163-1.987zm-0.01-1zm-4.225 1.346a1 1 0 1 1 0 2 1 1 0 0 1 0-2zm8.318 0.973a1 1 0 1 1 0 2 1 1 0 0 1 0-2zm-10.82 3.63a1 1 0 1 0 1.973 0.328 1 1 0 0 0-1.973-0.328zm0.975-1.835a2 2 0 0 1 1.64 0.836 2 2 0 1 1-1.64-0.836zm5.185 1.425a1 1 0 1 1 0 2 1 1 0 0 1 0-2zm3.705 2.047a1.0005 1.0005 0 1 0 1.974 0.328 1.0005 1.0005 0 0 0-1.974-0.328zm0.975-1.836a2 2 0 0 1 1.64 0.837 2 2 0 1 1-1.64-0.837zm-9.928 3.582a1 1 0 1 1 0 2 1 1 0 0 1 0-2zm3.203 2.37a1 1 0 1 0 1.973 0.327 1 1 0 0 0-1.973-0.328zm0.973-1.838a2 2 0 1 1 0.024 4 2 2 0 0 1-0.024-4zm4.59 1.068a1 1 0 1 1 0 2 1 1 0 0 1 0-2z" fill="#232629"/>
</svg>
