<svg width="18" height="18" version="1.1" viewBox="0 0 18 18" xmlns="http://www.w3.org/2000/svg">
<defs>
<style id="current-color-scheme" type="text/css">.ColorScheme-Text {
        color:#232629;
      }
      .ColorScheme-Highlight {
        color:#3daee9;
      }</style>
</defs>
<g transform="translate(1,1)" fill="currentColor">
<path class="ColorScheme-Text" d="m2 2v2l1-1 2 2 2-2 2 2 2-2 2 2-2 2 2 2-2 2h3v-9zm9 9-2-2v2zm-2-2 2-2-2-2-2 2h2zm-2-2-2-2-2 2zm-4 0-1-1v1z" color="#232629"/>
<path class="ColorScheme-Highlight" d="m5.17 14.33-0.707-0.707 1.621-1.621h-4.076v-1h4.076l-1.621-1.621 0.707-0.707 2.828 2.828-0.707 0.707z" color="#3daee9"/>
</g>
</svg>
