<svg width="18" height="18" version="1.1" viewBox="0 0 18 18" xmlns="http://www.w3.org/2000/svg">
<defs>
<style id="current-color-scheme" type="text/css">.ColorScheme-Text {
        color:#232629;
      }</style>
</defs>
<path class="ColorScheme-Text" d="m3 3v2h1v-1h1v-1h-1zm5 0v1h2v-1zm5 0v1h1v1h1v-2h-1zm-4 2v1h2.293l-3.293 3.293 0.70703 0.70703 3.293-3.293v2.293h1v-4h-1zm-6 3v2h1v-2zm11 0v2h1v-2zm-11 3v4h4v-4zm1 1h2v2h-2zm10 1v1h-1v1h2v-2zm-6 1v1h2v-1z" color="#232629" fill="currentColor"/>
</svg>
