<svg width="24" height="24" viewBox="0 0 24 24" version="1.1" xmlns="http://www.w3.org/2000/svg"><title>adjustlevels</title><g fill="#303030" fill-rule="nonzero" stroke="none" stroke-width="1"><path d="M8.085 14a1.498 1.498 0 0 0 0 1H5v-1h3.085zm2.83 0H19v1h-8.085a1.498 1.498 0 0 0 0-1z"/><path d="M9.5 17a2.5 2.5 0 1 1 0-5 2.5 2.5 0 0 1 0 5zm0-1a1.5 1.5 0 1 0 0-3 1.5 1.5 0 0 0 0 3zM15.915 9a1.498 1.498 0 0 1 0 1H19V9h-3.085zm-2.83 0H5v1h8.085a1.498 1.498 0 0 1 0-1z"/><path d="M14.5 12a2.5 2.5 0 1 0 0-5 2.5 2.5 0 0 0 0 5zm0-1a1.5 1.5 0 1 1 0-3 1.5 1.5 0 0 1 0 3z"/></g></svg>