<svg width="24" height="24" viewBox="0 0 24 24" version="1.1" xmlns="http://www.w3.org/2000/svg"><title>adjustrgb</title><g fill="#303030" fill-rule="nonzero" stroke="none" stroke-width="1"><path d="M10 8.085a1.498 1.498 0 0 0-1 0V5h1v3.085zm0 2.83V19H9v-8.085a1.498 1.498 0 0 0 1 0z"/><path d="M7 9.5a2.5 2.5 0 1 1 5 0 2.5 2.5 0 0 1-5 0zm1 0a1.5 1.5 0 1 0 3 0 1.5 1.5 0 0 0-3 0zM15 15.915a1.498 1.498 0 0 1-1 0V19h1v-3.085zm0-2.83V5h-1v8.085a1.498 1.498 0 0 1 1 0z"/><path d="M12 14.5a2.5 2.5 0 1 0 5 0 2.5 2.5 0 0 0-5 0zm1 0a1.5 1.5 0 1 1 3 0 1.5 1.5 0 0 1-3 0z"/></g></svg>