<svg width="24" height="24" viewBox="0 0 24 24" version="1.1" xmlns="http://www.w3.org/2000/svg"><title>application-rss+xml</title><g stroke="none" stroke-width="1" fill="#303030" fill-rule="nonzero"><path d="M7.09 14.82a1.09 1.09 0 1 0 .001 2.181 1.09 1.09 0 0 0-.001-2.18zm0-1a2.092 2.092 0 0 1 0 4.184 2.092 2.092 0 0 1 0-4.184zM15 18h-1a9 9 0 0 0-9-9V8c5.523 0 10 4.477 10 10z"/><path d="M18.962 18H17.96c.027-.33.041-.663.041-1 0-6.627-5.373-12-12-12-.337 0-.67.014-1 .041V4.038C5.33 4.013 5.664 4 6 4c7.18 0 13 5.82 13 13 0 .336-.013.67-.038 1z"/></g></svg>