<svg version="1.1" viewBox="0 0 24 24" xmlns="http://www.w3.org/2000/svg">
<defs>
<style id="current-color-scheme" type="text/css">.ColorScheme-Text {
        color:#232629;
      }</style>
</defs>
<g transform="translate(5 3.9748)" fill="#303030" fill-rule="evenodd" shape-rendering="auto">
<path d="m9.4941 5.9941a0.50155 0.50155 0 0 0-0.34961 0.86133l1.1445 1.1445-1.1445 1.1445a0.50271 0.50271 0 1 0 0.71094 0.71094l1.1445-1.1445 1.1445 1.1445a0.50271 0.50271 0 1 0 0.71094-0.71094l-1.1445-1.1445 1.1445-1.1445a0.50155 0.50155 0 0 0-0.36524-0.86133 0.50155 0.50155 0 0 0-0.3457 0.15039l-1.1445 1.1445-1.1445-1.1445a0.50155 0.50155 0 0 0-0.36133-0.15039z" color="#000000" color-rendering="auto" dominant-baseline="auto" image-rendering="auto" opacity=".3" solid-color="#000000" style="font-feature-settings:normal;font-variant-alternates:normal;font-variant-caps:normal;font-variant-ligatures:normal;font-variant-numeric:normal;font-variant-position:normal;isolation:auto;mix-blend-mode:normal;shape-padding:0;text-decoration-color:#000000;text-decoration-line:none;text-decoration-style:solid;text-indent:0;text-orientation:mixed;text-transform:none;white-space:normal"/>
<path d="m7.4863 2.0273a0.50005 0.50005 0 0 0-0.33984 0.14453l-2.8535 2.8535h-2.793a0.50005 0.50005 0 0 0-0.5 0.5v5a0.50005 0.50005 0 0 0 0.5 0.5h2.793l2.8535 2.8535a0.50005 0.50005 0 0 0 0.85352-0.35352v-11a0.50005 0.50005 0 0 0-0.51367-0.49805z" color="#000000" color-rendering="auto" dominant-baseline="auto" image-rendering="auto" opacity=".3" solid-color="#000000" style="font-feature-settings:normal;font-variant-alternates:normal;font-variant-caps:normal;font-variant-ligatures:normal;font-variant-numeric:normal;font-variant-position:normal;isolation:auto;mix-blend-mode:normal;shape-padding:0;text-decoration-color:#000000;text-decoration-line:none;text-decoration-style:solid;text-indent:0;text-orientation:mixed;text-transform:none;white-space:normal"/>
</g>
</svg>
