<svg width="24" height="24" viewBox="0 0 24 24" version="1.1" xmlns="http://www.w3.org/2000/svg"><title>automated-tasks</title><g stroke="none" stroke-width="1" fill="#303030" fill-rule="nonzero"><path d="M12 4a1 1 0 1 0 0 2 1 1 0 0 0 0-2zM10.25 19H13v-4h4.6c.1 0 .4-.393.4-.7V7.634c0-.286-.278-.633-.4-.633H6.4c-.122 0-.4.347-.4.633V14.3c0 .306.3.699.4.699H11v4h-.75zM6.4 6h11.2c.775 0 1.4.894 1.4 1.633V14.3c0 .738-.625 1.699-1.4 1.699H14v2h2v1H8v-1h2v-2H6.4c-.775 0-1.4-.961-1.4-1.7V7.634C5 6.894 5.625 6 6.4 6z"/><path d="M10 18h4v1h-4zM7.5 8h9a.515.515 0 0 1 0 1h-9a.511.511 0 0 1 0-1z"/></g></svg>