<svg width="24" height="24" viewBox="0 0 24 24" version="1.1" xmlns="http://www.w3.org/2000/svg"><title>bell</title><g fill="#303030" fill-rule="nonzero" stroke="none" stroke-width="1"><path d="M5.522 16h12.957c.15 0 .278-.005.384-.013a6.033 6.033 0 0 0-.08-.158c-.091-.177-.528-.958-.628-1.145-.71-1.327-1.08-2.41-1.08-3.623C17.074 7.205 15.426 5 12 5c-3.427 0-5.074 2.205-5.074 6.06 0 1.214-.37 2.297-1.081 3.625-.1.186-.537.967-.629 1.144-.03.057-.056.11-.079.158.106.008.235.013.385.013zM12 4c4.454 0 6.074 3.243 6.074 7.06 0 3.424 4.049 5.94.405 5.94H5.522c-3.645 0 .404-2.516.404-5.94C5.926 7.244 7.546 4 12 4zM9 18c.443 1.158 1.612 2 3 2s2.557-.842 3-2H9z"/></g></svg>