<svg width="24" height="24" viewBox="0 0 24 24" version="1.1" xmlns="http://www.w3.org/2000/svg"><title>bitmap-trace</title><g fill="#303030" fill-rule="nonzero" stroke="none" stroke-width="1"><path d="M5 5h12s1 0 1 1v5.582l-1-1-.707.707-1 1-.158.158-1.197-1.197-2.126 2.063L8.5 9.563 5 12.5V16h7v1H5s-1 0-1-1V6s0-1 1-1zm.022 6.16L8.6 8.186l3.342 3.655L13.96 9.86 15.146 11l1.867-1.82V5.987H5.023v5.173z"/><path d="M16.707 13.703l-1 1L14 16.41v.586h.586l3-3L17 13.41l-.293.293zM17 11.996l2 2-4 4h-2v-2l2-2 1-1 1-1z"/></g></svg>