<svg width="24" height="24" viewBox="0 0 24 24" version="1.1" xmlns="http://www.w3.org/2000/svg"><title>blurfx</title><g stroke="none" stroke-width="1" fill="#303030" fill-rule="nonzero"><path d="M15 4l-.574 1.613-1.547-.734.734 1.547L12 7l1.613.574-.734 1.547 1.547-.734L15 10l.574-1.613 1.547.734-.734-1.547L18 7l-1.613-.574.734-1.547-1.547.734zM8.579 9.982c-.157.232-1.462 2.088-1.762 2.562-.46.728-.71 1.273-.795 1.792l-.005.077c-.004.052-.004.052-.009.091l-.006.044C6.002 16.427 7.768 18 10 18c2.23 0 3.996-1.57 4-3.448-.01-.066-.01-.066-.017-.14l-.004-.06c-.057-.468-.307-1.035-.796-1.809-.3-.474-1.606-2.332-1.762-2.562a21.947 21.947 0 0 1-1.42-2.374c-.393.774-.85 1.528-1.422 2.375zm-2.621 4.635l.002-.007-.002.007zm8.084 0l-.003-.01.003.01zM10 5c.207.664.487 1.311.79 1.947 1.54 3.15 3.95 5.307 4.183 7.295.006.03.022.062.027.092-.015.074 0 .143 0 .21C15 17.006 12.761 19 10 19s-5-1.995-5-4.455c0-.068.015-.137.02-.205-.015-.036.001-.068.007-.098C5.26 12.254 7.67 10.1 9.211 6.95 9.513 6.313 9.793 5.664 10 5z"/></g></svg>