<svg width="24" height="24" viewBox="0 0 24 24" version="1.1" xmlns="http://www.w3.org/2000/svg"><title>bwtonal</title><path d="M12 6a4 4 0 0 0-4 4v.508l-.4.3A4 4 0 0 0 6 14a4 4 0 0 0 3.997 4 4 4 0 0 0 1.597-.337l.402-.177.402.177A4 4 0 0 0 18 14.003a4 4 0 0 0-1.6-3.195l-.4-.3v-.501A4.004 4.004 0 0 0 12 6zm0-1a5 5 0 0 1 5 5 5.026 5.026 0 0 1 2 4 5 5 0 0 1-5 5 5 5 0 0 1-2.004-.422A5 5 0 0 1 10 19a5 5 0 0 1-5-5 5 5 0 0 1 2-3.992A5.002 5.002 0 0 1 12 5z" fill="#303030" fill-rule="nonzero" stroke="none" stroke-width="1"/></svg>