<svg width="24" height="24" viewBox="0 0 24 24" version="1.1" xmlns="http://www.w3.org/2000/svg"><title>cache</title><g fill="#303030" fill-rule="nonzero" stroke="none" stroke-width="1"><path d="M17 18.03c.006.012.006-3.988 0-12 0 .016-.008-.03-.02-.053.008.015.065.052.02.052H7c-.045 0 .012-.037.02-.052C7.007 6 7 6.046 7 6.029v12c-.013.007 3.32.007 10 0zm-10-13h10c1 0 1 1 1 1v12c0 1-1 1-1 1H7c-1 0-1-1-1-1v-12s0-1 1-1z"/><path d="M12 14.03a3 3 0 1 0-3-3v3h3zm0-7a4 4 0 0 1 0 8H8v-4a4 4 0 0 1 4-4z"/><path d="M12 10.03a1 1 0 1 0 0 2 1 1 0 0 0 0-2zm0-1a2 2 0 1 1 0 4 2 2 0 0 1 0-4z"/></g></svg>