<svg width="24" height="24" viewBox="0 0 24 24" version="1.1" xmlns="http://www.w3.org/2000/svg"><title>calendar-go-today</title><g fill="#303030" fill-rule="nonzero" stroke="none" stroke-width="1"><path d="M5 5h12.01c1 0 1 1 1 1v12s0 1-1 1h-12c-1 0-1-1-1-1v-3.996l1 .006V18H8.71l.504.459L9.77 18H17v-8h-5.375L9.211 7.586l-.707.707L6.806 10H5v1l-1-.006V6c0-1 1-1 1-1zm-.014 3.996h1.409l2.818-2.799 2.84 2.8h4.98V5.98H4.987v3.015z"/><path d="M9.753 9.024L9 9.75 11.149 12H4v1h7.149l-2.146 2.036.75.75L13 12.5z"/></g></svg>