<svg width="24" height="24" viewBox="0 0 24 24" version="1.1" xmlns="http://www.w3.org/2000/svg"><title>camera-ready</title><g fill="#000" fill-rule="nonzero" stroke="none" stroke-width="1" opacity=".3"><path d="M7 18h10c0-.109-.039-.342-.144-.553-.15-.297-.374-.447-.856-.447h-.688c-.99 0-1.378-1.285-.553-1.833A4.998 4.998 0 0 0 12 6a4.998 4.998 0 1 0-2.759 9.167c.825.548.437 1.833-.554 1.833H8c-.482 0-.707.15-.856.447A1.403 1.403 0 0 0 7 18zm1.688-2l-1.132-.974A5.975 5.975 0 0 1 6 11a6 6 0 0 1 12 0c0 1.55-.59 2.961-1.556 4.026L15.313 16l1.456.12C18 16.553 18 18 18 18v1H6v-1s0-1.447 1.231-1.88L8.688 16z"/><path d="M12 9.004a2 2 0 1 1 0 4 2 2 0 0 1 0-4zM12 12a1 1 0 1 0 0-2 1 1 0 0 0 0 2z"/></g></svg>