<svg width="24" height="24" viewBox="0 0 24 24" version="1.1" xmlns="http://www.w3.org/2000/svg"><title>channelmixer</title><g stroke="none" stroke-width="1" fill="none" fill-rule="nonzero"><path d="M14 18a4 4 0 0 0 2.855-6.802A4.999 4.999 0 0 1 15 14a5 5 0 0 1-1.875 3.903c.284.063.577.096.875.096zm0-4c0-.175-.011-.347-.033-.516a3.999 3.999 0 0 0 1.988-4.087 5.001 5.001 0 1 1-5.08 8.507A4.002 4.002 0 0 0 14 14z" fill="#FDBC4B"/><path d="M6 14a4 4 0 0 0 7.955.603 5.002 5.002 0 0 1-6.81-3.405A3.996 3.996 0 0 0 6 14zm2-4a4 4 0 0 0 6.855 2.801 5 5 0 1 1-6.81-3.405C8.015 9.594 8 9.796 8 10z" fill="#5294E2"/><path d="M12 14a4 4 0 1 0 0-8 4 4 0 0 0 0 8zm0 1a5 5 0 1 1 0-10 5 5 0 0 1 0 10z" fill="#4FEF42"/></g></svg>