<svg width="24" height="24" viewBox="0 0 24 24" version="1.1" xmlns="http://www.w3.org/2000/svg"><title>cm_extractfiles</title><g fill="#303030" fill-rule="nonzero" stroke="none" stroke-width="1"><path d="M6.86 6.263a720.674 720.674 0 0 1-.467 1.534l-.328 1.09-.061.263v7.885h11v-7.88l-.07-.286a72.432 72.432 0 0 1-.362-1.185l-.059-.198a75.863 75.863 0 0 0-.46-1.49c.012.022.004.026-.06.033l-.107.006H6.9c.021.016-.005.073-.04.228zm-.086-1.228h9.112c.421-.045.875.093 1.073.531.332.983.615 2.01.929 3l.116.47v8c0 .553-.414 1-.929 1H5.932c-.514 0-.928-.447-.928-1v-8l.087-.376c.263-.894.542-1.796.812-2.687.094-.458.408-.895.871-.938z"/><path d="M7.693 7h7.605l.296 1H7.402l.291-1zM11.004 16h1v-2.965H14l-2.496-3-2.504 3h2.004z"/></g></svg>