<svg width="24" height="24" viewBox="0 0 24 24" version="1.1" xmlns="http://www.w3.org/2000/svg"><title>cm_viewhistoryprev</title><g fill="#303030" fill-rule="nonzero" stroke="none" stroke-width="1"><path d="M17 4c1.108 0 2 .892 2 2v2.994L18 9V6a1 1 0 0 0-1-1H7a1 1 0 0 0-1 1v11a1 1 0 0 0 1 1h10a1 1 0 0 0 1-1v-3l1-.006V17c0 1.108-.892 2-2 2H7c-1.108 0-2-.892-2-2V6c0-1.108.892-2 2-2h10z"/><path d="M10.09 11.012l2.38-2.38.707-.706-.707-.707-.707.707-2.829 2.828-.707.707 3.536 3.536.707.707.707-.707-.707-.707-2.261-2.262h8.765v-1.016H10.09z"/></g></svg>