<svg width="24" height="24" viewBox="0 0 24 24" version="1.1" xmlns="http://www.w3.org/2000/svg"><title>colorfx</title><g fill="#303030" fill-rule="nonzero" stroke="none" stroke-width="1"><path d="M11.5 4v1.813h1V4zM6.688 5.969l-.719.719L7.25 8l.719-.75zM17.311 5.969l-1.28 1.281.719.75 1.281-1.312zM12 7a5 5 0 1 1 0 10 5 5 0 0 1 0-10zm0 1a4 4 0 1 0 0 8 4 4 0 0 0 0-8zM4 11.5v1h1.813v-1zM18.188 11.5v1H20v-1zM7.25 16.031l-1.281 1.282.719.718 1.281-1.281zM16.75 16.031l-.719.719 1.28 1.281.72-.718zM11.5 18.188V20h1v-1.812z"/></g></svg>