<svg width="24" height="24" viewBox="0 0 24 24" version="1.1" xmlns="http://www.w3.org/2000/svg"><title>colors-chromared</title><path d="M10.568 10.02c-.056.083-1.54 2.18-1.86 2.697-.488.79-.708 1.361-.708 1.828C8 16.425 9.767 18 12 18s4-1.574 4-3.455c0-.467-.22-1.038-.708-1.828-.32-.517-1.804-2.614-1.86-2.696A22.148 22.148 0 0 1 12 7.65a22.148 22.148 0 0 1-1.432 2.37zM12 5c1.34 4.454 5 7.085 5 9.545S14.761 19 12 19s-5-1.995-5-4.455S10.66 9.455 12 5z" fill="#E15052" fill-rule="nonzero" stroke="none" stroke-width="1"/></svg>