<svg width="24" height="24" viewBox="0 0 24 24" version="1.1" xmlns="http://www.w3.org/2000/svg"><title>color-select</title><path d="M17.47 4.992a1.5 1.5 0 0 0-1.03.453l-1.962 1.962-1.769-1.768-.707.707 1.415 1.414-8.276 8.276-.149 2.97 2.979-.143 8.274-8.274 1.414 1.414.707-.707L16.6 9.528l1.962-1.962c.979-.953.276-2.613-1.09-2.574zm-4.053 4.183l1.414 1.414-7.071 7.07-1.415-1.413 7.072-7.071zm1.072-.362a2949.19 2949.19 0 0 0 2.685-2.703c.137-.14.45-.159.672 0 .149.106.181.338.098.698l-2.766 2.695-.689-.69z" fill="#303030" fill-rule="nonzero" stroke="none" stroke-width="1"/></svg>