<svg width="24" height="24" viewBox="0 0 24 24" version="1.1" xmlns="http://www.w3.org/2000/svg"><title>colorneg</title><g stroke="none" stroke-width="1" fill="#303030" fill-rule="nonzero"><path d="M5 5.04v14h14v-14H5zm-1-1h16v16H4v-16z"/><path d="M9.152 14.887A4 4 0 1 0 14.81 9.23L19 5.04l-3.469 3.466-.723.724.723-.722A4.977 4.977 0 0 1 17 12.039a5 5 0 0 1-5 5 4.98 4.98 0 0 1-3.531-1.47L5 19.038l4.152-4.152zm0 0l-.683.681.682-.682z"/><path d="M9.153 14.895l5.667-5.667a3.924 3.924 0 0 0-5.649-.056c-1.562 1.562-1.594 4.147-.032 5.71l.014.013z"/></g></svg>