<svg width="24" height="24" viewBox="0 0 24 24" version="1.1" xmlns="http://www.w3.org/2000/svg"><title>colors-chromagreen</title><path d="M12 7.606c-.393.774-.85 1.527-1.421 2.375-.156.23-1.462 2.088-1.762 2.563-.46.728-.71 1.273-.795 1.793l-.005.076c-.004.05-.004.05-.009.088l-.006.047C8.002 16.427 9.768 18 12 18c2.23 0 3.996-1.57 4-3.448-.01-.07-.01-.07-.017-.14l-.004-.06c-.057-.468-.307-1.035-.796-1.809-.3-.474-1.606-2.332-1.762-2.563a21.948 21.948 0 0 1-1.42-2.374zm-4.042 7.01l.002-.006-.002.007zm8.084 0l-.003-.008.003.008zM12 5c.207.664.487 1.311.79 1.947 1.54 3.15 3.95 5.307 4.183 7.295.006.03.022.062.027.092-.015.074 0 .143 0 .21C17 17.006 14.761 19 12 19s-5-1.995-5-4.455c0-.068.015-.137.02-.205-.015-.036.001-.068.007-.098.233-1.988 2.643-4.145 4.184-7.295.302-.636.582-1.283.789-1.947z" fill="#303030" fill-rule="nonzero" stroke="none" stroke-width="1"/></svg>