<svg width="24" height="24" viewBox="0 0 24 24" version="1.1" xmlns="http://www.w3.org/2000/svg"><title>compass</title><g stroke="none" stroke-width="1" fill="#303030" fill-rule="nonzero"><path d="M12 6a6 6 0 1 0 0 12 6 6 0 0 0 0-12zm0-1a7 7 0 1 1 0 14 7 7 0 0 1 0-14z"/><path d="M12.162 10.666H12c-.67 0-1.334.665-1.334 1.334v.162l-.585 1.757 1.757-.585H12c.67 0 1.334-.665 1.334-1.334v-.162l.585-1.757-1.757.585zM15.5 8.5L14.334 12c0 1.222-1.112 2.334-2.334 2.334L8.5 15.5 9.666 12c0-1.222 1.112-2.334 2.334-2.334L15.5 8.5z"/><path d="M12 10.834c.61 0 1.166.555 1.166 1.166 0 .61-.555 1.166-1.166 1.166-.61 0-1.166-.555-1.166-1.166 0-.61.555-1.166 1.166-1.166z"/></g></svg>