<svg width="24" height="24" viewBox="0 0 24 24" version="1.1" xmlns="http://www.w3.org/2000/svg"><title>curve-connector</title><path d="M16.5 4a2.5 2.5 0 1 1 0 5 2.5 2.5 0 0 1-2.445-2H8.5C7.672 7 7 8.172 7 9c0 .828.672 2 1.5 2h7c1.381 0 2.5 1.62 2.5 3 0 1.381-1.119 3-2.5 3H9.95a2.5 2.5 0 1 1-2.45-3 2.5 2.5 0 0 1 2.445 2H15.5c.828 0 1.5-1.172 1.5-2 0-.828-.672-2-1.5-2h-7C7.12 12 6 10.38 6 9s1.12-3 2.5-3h5.55a2.5 2.5 0 0 1 2.45-2zm0 4a1.5 1.5 0 1 0 0-3 1.5 1.5 0 0 0 0 3zm-9 10a1.5 1.5 0 1 0 0-3 1.5 1.5 0 0 0 0 3z" fill="#303030" fill-rule="nonzero" stroke="none" stroke-width="1"/></svg>