<svg width="24" height="24" viewBox="0 0 24 24" version="1.1" xmlns="http://www.w3.org/2000/svg"><title>delete-comment</title><g stroke="none" stroke-width="1" fill="#303030" fill-rule="nonzero"><path d="M14 16.2l1.464-2.2H17c.109 0 .342-.039.553-.144.297-.15.447-.374.447-.856V7c0-.482-.15-.707-.447-.856A1.403 1.403 0 0 0 17 6H6.969c-.103 0-.328.038-.532.142C6.147 6.289 6 6.514 6 7v6c0 .556.444 1 1 1h5.536L14 16.2zM6.969 5H17s2 0 2 2v6c0 2-2 2-2 2h-1l-2 3.004L12 15H7c-1.108 0-2-.892-2-2V7c0-2 1.969-2 1.969-2z"/><path d="M13 7v2h2v1h-2v2h-1v-2h-2V9h2V7z"/></g></svg>