<svg width="24" height="24" viewBox="0 0 24 24" version="1.1" xmlns="http://www.w3.org/2000/svg"><title>depth8to16</title><path d="M7 5a2 2 0 0 0-1.32 3.5 2 2 0 1 0 2.64 0A2 2 0 0 0 7 5zm4 0v1c2.803.006 5.354 1.562 6.555 4H14v1h5V6h-1.04v2.656C16.434 6.382 13.815 5.006 11 5zM7 6a1 1 0 1 1 0 2 1 1 0 0 1 0-2zm0 3a1 1 0 1 1 0 2 1 1 0 0 1 0-2zm5 3v1h1v6h1v-7h-2zm5 0a2 2 0 0 0-2 2v3a2 2 0 1 0 1-1.73V14a1 1 0 0 1 2 0h1a2 2 0 0 0-2-2zM4 13v5h1v-2.656A8 8 0 0 0 11.7 19v-1a7 7 0 0 1-6.31-4H9v-1H4zm13 3a1 1 0 1 1 0 2 1 1 0 0 1 0-2z" fill="#303030" fill-rule="nonzero" stroke="none" stroke-width="1"/></svg>