<svg width="24" height="24" viewBox="0 0 24 24" version="1.1" xmlns="http://www.w3.org/2000/svg"><title>dialog-fill-and-stroke</title><g fill="#303030" fill-rule="nonzero" stroke="none" stroke-width="1"><path d="M8.5 14.33c1.81.097 1.75 1.168 1.75 1.75C10.25 17.248 8.5 19 5 19c2.625-1.514 0-3.73 3.5-4.668v-.002zm-1.267 3.356c.87-.266 1.514-.697 1.933-1.294.156-.555.102-.877-.162-.966-.396-.134-.421-.08-.993.134-.624.249-.59.946-.629 1.25-.02.229-.15.876-.15.876zM13.826 11.236c1.448-1.448 2.673-2.928 3.438-4.13.212-.334.382-.636.506-.896-1.08.538-3.08 2.042-5.002 3.966a31.547 31.547 0 0 0-2.261 2.493c.312.235.59.513.824.825a31.059 31.059 0 0 0 2.495-2.258zm4.748-6.23c.123.016.22.06.29.13.682.685-1.256 3.732-4.33 6.807-1.21 1.21-2.407 2.253-3.534 3.057a3.108 3.108 0 0 0-2-2c.803-1.127 1.852-2.322 3.06-3.531 2.71-2.711 5.46-4.596 6.514-4.463z"/></g></svg>