<svg width="24" height="24" viewBox="0 0 24 24" version="1.1" xmlns="http://www.w3.org/2000/svg"><title>edit-select-all-layers</title><g stroke="none" stroke-width="1" fill="#303030" fill-rule="nonzero"><path d="M4.502 4l-.412.219-.053.465.354.304L4.5 5h1l.414-.219.051-.465-.354-.304L5.502 4zM7.502 4l-.412.219-.053.465.354.304L7.5 5h1l.414-.219.051-.465-.354-.304L8.502 4zM10.502 4l-.412.219-.053.465.354.304L10.5 5h1l.414-.219.051-.465-.354-.304L11.502 4zM13.502 4l-.412.219-.053.465.354.304L13.5 5h1l.414-.219.051-.465-.354-.304L14.502 4zM16.502 4l-.412.219-.053.465.354.304L16.5 5h1l.414-.219.051-.465-.354-.304L17.502 4zM19.498 4.5L19 5.5l.219.414.465.051.304-.354.01-.111zM4.316 6.035l-.306.354L4 6.5v1l.219.414.465.051.304-.354.01-.111v-1l-.219-.414zM7 7v1h6V7zM19.316 7.035l-.306.354L19 7.5v1l.219.414.465.051.304-.354.01-.111v-1l-.219-.414zM4.316 9.035l-.306.354L4 9.5v1l.219.414.465.051.304-.354.01-.111v-1l-.219-.414zM19.316 10.035l-.306.354-.01.111v1l.219.414.465.051.304-.354.01-.111v-1l-.219-.414zM9 11v1h6v-1zM4.316 12.035l-.306.354L4 12.5v1l.219.414.465.051.304-.354.01-.111v-1l-.219-.414zM19.316 13.035l-.306.354-.01.111v1l.219.414.465.051.304-.354.01-.111v-1l-.219-.414zM11 15v1h6v-1zM4.316 15.035l-.306.354L4 15.5v1l.219.414.465.051.304-.354.01-.111v-1l-.219-.414zM19.316 16.035l-.306.354-.01.111v1l.219.414.465.051.304-.354.01-.111v-1l-.219-.414zM4.318 18.035l-.308.354L4 18.5l.5 1 .5-1-.219-.414zM6.506 19l-.422.219-.053.465.354.304.121.012h1l.414-.219.051-.465-.354-.304L7.506 19zM9.506 19l-.422.219-.053.465.354.304.121.012h1l.414-.219.051-.465-.354-.304-.111-.012zM12.506 19l-.422.219-.053.465.354.304.121.012h1l.414-.219.051-.465-.354-.304-.111-.012zM15.506 19l-.422.219-.053.465.354.304.121.012h1l.414-.219.051-.465-.354-.304-.111-.012zM18.506 19l-.422.219-.053.465.354.304.121.012 1-.5z"/></g></svg>