<svg width="24" height="24" viewBox="0 0 24 24" version="1.1" xmlns="http://www.w3.org/2000/svg"><title>edit-clear-rtl</title><g fill="#303030" fill-rule="nonzero" stroke="none" stroke-width="1"><path d="M14.532 7.004l4.166 5-4.166 5H5v-10h9.532zm.468-1H4v12h11l5-6-5-6z"/><path d="M9.966 10.293l-1.293 1.293-1.293-1.293a.487.487 0 0 0-.818.484.564.564 0 0 0 .119.223l1.298 1.293-1.293 1.293a.496.496 0 0 0 .547.806.516.516 0 0 0 .16-.1L8.686 13l1.293 1.293a.485.485 0 0 0 .808-.515.633.633 0 0 0-.118-.192l-1.3-1.293L10.67 11a.49.49 0 0 0-.48-.818.51.51 0 0 0-.223.111z"/></g></svg>