<svg width="24" height="24" viewBox="0 0 24 24" version="1.1" xmlns="http://www.w3.org/2000/svg"><title>edit-clone-unlink</title><g fill="#303030" fill-rule="nonzero" stroke="none" stroke-width="1"><path d="M7 7v6h4v4h6v-6h-4V7H7zM6 6h8v4h4v8h-8v-4H6V6z"/><path d="M14 11c.739 0 1.334.683 1.334 1.523V14h.332c.185 0 .334.167.334.375v2.25c0 .208-.149.375-.334.375h-3.332c-.185 0-.334-.167-.334-.375v-2.25c0-.208.15-.375.334-.375h2.332v-1.5c0-.415-.297-.75-.666-.75-.37 0-.666.335-.666.75v.375h-.668V12.5c.011-.83.602-1.5 1.334-1.5zm-1 4v1h2v-1h-2z"/></g></svg>