<svg width="24" height="24" viewBox="0 0 24 24" version="1.1" xmlns="http://www.w3.org/2000/svg"><title>edit-link</title><g stroke="none" stroke-width="1" fill="#303030" fill-rule="nonzero"><path d="M11 7.9H9c-1.653 0-3.975 1.067-4 3.56a4.78 4.78 0 0 0 0 .08c.025 2.493 2.347 3.56 4 3.56h2v.9h-1v-.9h1v.9H9c-2.77 0-5-2.007-5-4.5S6.23 7 9 7h2v.9zm0-.9v.9h-1V7h1zM9 7h2v.9H9c-1.662 0-4 1.079-4 3.6s2.338 3.6 4 3.6h2v.9H9c-2.77 0-5-2.007-5-4.5S6.23 7 9 7zM13.5 7H15c.968 0 1.87.245 2.635.67 1.33.808 2.33 2.175 2.364 3.745a3.665 3.665 0 0 1 0 .17c-.035 1.57-1.034 2.937-2.364 3.744A5.408 5.408 0 0 1 15 16h-1.25.25v-.9h-.5H15c.587 0 1.257-.18 1.88-.507 1.27-.59 2.12-1.762 2.12-3.093s-.85-2.502-2.12-3.093C16.257 8.08 15.587 7.9 15 7.9h-1.25.25V7h-.5zm0 8.1H13v.9-.9h.5zm.25.9h-.25.25zm-.25-9H13v.9V7h.5zM13 7h2c2.77 0 5 2.007 5 4.5S17.77 16 15 16h-2v-.9h2c1.662 0 4-1.442 4-3.6 0-2.158-2.338-3.6-4-3.6h-2V7z"/><path d="M9 11.012V12h6v-.988z"/></g></svg>