<svg width="24" height="24" viewBox="0 0 24 24" version="1.1" xmlns="http://www.w3.org/2000/svg"><title>escape-direction-all</title><g stroke="none" stroke-width="1" fill="#303030" fill-rule="nonzero"><path d="M6 6v12h12V6H6zM5 5h14v14H5V5z"/><path d="M8 8v2h1.775c.07-.079.146-.154.225-.225V8H8zM7 7h4v3.277a1.99 1.99 0 0 0-.723.723H7V7zM14 9.775c.079.07.154.146.225.225H16V8h-2v1.775zM13 7h4v4h-3.277a1.99 1.99 0 0 0-.723-.723V7zM8 16h2v-1.775A2.984 2.984 0 0 1 9.775 14H8v2zm-1-3h3.277c.175.3.422.548.723.723V17H7v-4zM14 14.225V16h2v-2h-1.775a2.984 2.984 0 0 1-.225.225zM13.723 13H17v4h-4v-3.277c.3-.175.548-.422.723-.723z"/></g></svg>