<svg width="24" height="24" viewBox="0 0 24 24" version="1.1" xmlns="http://www.w3.org/2000/svg"><title>escape-direction-up</title><g fill="#303030" fill-rule="nonzero" stroke="none" stroke-width="1"><path d="M6 18V6h12v12H6zm-1 1h14V5H5v14z"/><path d="M6 18V6h4v3.615c-.652.763-1 1.518-1 2.385a3 3 0 1 0 6 0c0-.867-.348-1.622-1-2.385V6h4v12H6zm-1 1h14V5h-6v5c.596.624 1 1.261 1 2a2 2 0 1 1-4 0c0-.739.404-1.376 1-2V5H5v14z"/><path d="M12 9a3 3 0 1 0 0 6 3 3 0 0 0 0-6zm0 1a2 2 0 1 1 0 4 2 2 0 0 1 0-4z"/></g></svg>