<svg width="24" height="24" viewBox="0 0 24 24" version="1.1" xmlns="http://www.w3.org/2000/svg"><title>escape-direction-right</title><g fill="#303030" fill-rule="nonzero" stroke="none" stroke-width="1"><path d="M6 6h12v12H6V6zM5 5v14h14V5H5z"/><path d="M6 6h12v4h-3.615c-.763-.652-1.518-1-2.385-1a3 3 0 1 0 0 6c.867 0 1.622-.348 2.385-1H18v4H6V6zM5 5v14h14v-6h-5c-.624.596-1.261 1-2 1a2 2 0 1 1 0-4c.739 0 1.376.404 2 1h5V5H5z"/><path d="M15 12a3 3 0 1 0-6 0 3 3 0 0 0 6 0zm-1 0a2 2 0 1 1-4 0 2 2 0 0 1 4 0z"/></g></svg>