<svg width="24" height="24" viewBox="0 0 24 24" version="1.1" xmlns="http://www.w3.org/2000/svg"><title>escape-direction-down</title><g fill="#303030" fill-rule="nonzero" stroke="none" stroke-width="1"><path d="M6 6v12h12V6H6zM5 5h14v14H5V5z"/><path d="M6 6v12h4v-3.615c-.652-.763-1-1.518-1-2.385a3 3 0 1 1 6 0c0 .867-.348 1.622-1 2.385V18h4V6H6zM5 5h14v14h-6v-5c.596-.624 1-1.261 1-2a2 2 0 1 0-4 0c0 .739.404 1.376 1 2v5H5V5z"/><path d="M12 15a3 3 0 1 1 0-6 3 3 0 0 1 0 6zm0-1a2 2 0 1 0 0-4 2 2 0 0 0 0 4z"/></g></svg>