<svg width="24" height="24" viewBox="0 0 24 24" version="1.1" xmlns="http://www.w3.org/2000/svg"><title>escape-direction-left</title><g fill="#303030" fill-rule="nonzero" stroke="none" stroke-width="1"><path d="M18 6H6v12h12V6zm1-1v14H5V5h14z"/><path d="M18 6H6v4h3.615c.763-.652 1.518-1 2.385-1a3 3 0 1 1 0 6c-.867 0-1.622-.348-2.385-1H6v4h12V6zm1-1v14H5v-6h5c.624.596 1.261 1 2 1a2 2 0 1 0 0-4c-.739 0-1.376.404-2 1H5V5h14z"/><path d="M9 12a3 3 0 1 1 6 0 3 3 0 0 1-6 0zm1 0a2 2 0 1 0 4 0 2 2 0 0 0-4 0z"/></g></svg>