<svg width="24" height="24" viewBox="0 0 24 24" version="1.1" xmlns="http://www.w3.org/2000/svg"><title>filename-initial-amarok</title><path d="M7.313 6.576h.784L12.593 18h-1.107l-1.172-3H5.022l-1.216 3H2.729L7.313 6.576zM5.438 14h4.545l-2.29-6.016H7.63L5.438 14zM13 6.352h1v4.896c.64-1.168 1.598-1.744 2.782-1.744 1.168 0 2.096.432 2.768 1.328.608.8.928 1.792.928 3.008 0 1.248-.32 2.272-.928 3.072-.688.864-1.632 1.312-2.832 1.312-1.28 0-2.158-.528-2.718-1.584V18h-1V6.352zm3.51 4.208c-.752 0-1.36.288-1.808.896-.48.592-.702 1.376-.702 2.336v.16c0 .928.206 1.68.622 2.256.448.64 1.104.96 1.936.96.896 0 1.568-.336 2.016-.976.384-.576.592-1.36.592-2.352 0-.992-.208-1.76-.624-2.32-.464-.64-1.136-.96-2.032-.96z" fill="#303030" fill-rule="nonzero" stroke="none" stroke-width="1"/></svg>