<svg width="24" height="24" viewBox="0 0 24 24" version="1.1" xmlns="http://www.w3.org/2000/svg"><title>filename-and-amarok</title><path d="M7.493 13.095a3.226 3.226 0 0 0-.336.733l-.02.082a3.66 3.66 0 0 0-.131 1.002c0 .375.101.756.28 1.08.22.385.5.708.844.978.347.272.768.493 1.221.648l.043.013a5.04 5.04 0 0 0 1.565.244c.893 0 1.821-.29 2.834-.86l.681-.383.537.568.75.796c.01.01.048.013.064.001l.94-.745-1.36-1.414.576-.688.2-.238c.453-.534.65-.787.852-1.118l-.932-.583a.065.065 0 0 0-.046-.006c-.151.237-.265.39-.5.68a6.357 6.357 0 0 0-.19.24l-.704.952-3.355-3.483 1.113-.638c.215-.123.35-.209.455-.29.14-.107.277-.217.352-.273l.07-.064c.171-.141.291-.267.384-.4.091-.134.171-.268.267-.439.093-.161.16-.336.197-.515.02-.096.03-.205.04-.443l.017-.139c0-.71-.287-1.343-.781-1.725-.525-.405-1.256-.617-2.14-.617-.942 0-1.748.244-2.343.706a2.26 2.26 0 0 0-.882 1.782c0 .6.272 1.251.83 2.008l.614.834-.854.585a4.962 4.962 0 0 0-.59.467c-.207.192-.38.392-.521.599l-.04.063zm6.71-4.712a.066.066 0 0 0-.002.01l.001-.01zM8.08 11.141l-.317-.463c-.428-.68-.708-1.391-.708-2.139a3.26 3.26 0 0 1 1.27-2.572c.802-.624 1.836-.916 2.954-.916 1.045 0 2.01.252 2.752.826.77.595 1.17 1.538 1.17 2.518 0 .06-.006.121-.017.181-.01.204-.02.407-.061.604a2.765 2.765 0 0 1-.309.808 7.4 7.4 0 0 1-.302.5c-.17.241-.36.431-.578.612l-.184.149-.834.575 1.645 1.707.607-.81a1.03 1.03 0 0 1 .659-.49c.275-.064.567-.016.804.132l.959.6a.952.952 0 0 1 .326 1.305c-.356.592-.767 1.044-1.168 1.523l.773.805c.19.197.287.46.268.728a.964.964 0 0 1-.37.686l-.974.771a1.058 1.058 0 0 1-1.412-.1l-.75-.794c-1.05.59-2.159.988-3.324.988a6.04 6.04 0 0 1-1.875-.293 5.24 5.24 0 0 1-1.572-.826 4.281 4.281 0 0 1-1.08-1.244 3.293 3.293 0 0 1-.426-1.6c0-.44.054-.868.17-1.275.117-.398.269-.755.472-1.076.201-.315.446-.6.725-.86.105-.097.21-.188.317-.273l.39-.287zm3.217-3.182c.37 0 .476.075.51.105l.005.006c.038.034.09.076.09.366a.764.764 0 0 1-.066.322.944.944 0 0 1-.154.267 2.406 2.406 0 0 1-.342.3c-.152.104-.274.179-.399.255-.296-.415-.605-.838-.605-1.129 0-.173-.01-.16.158-.277.2-.139.428-.215.803-.215zm-1.162 5.533l1.885 2c-.333.112-.688.37-1.008.37-.562 0-.92-.128-1.23-.372-.317-.252-.386-.41-.386-.707 0-.43.098-.691.276-.914a.958.958 0 0 0 .004-.008c.095-.12.317-.245.459-.369z" fill="#303030" fill-rule="nonzero" stroke="none" stroke-width="1"/></svg>