<svg width="24" height="24" viewBox="0 0 24 24" version="1.1" xmlns="http://www.w3.org/2000/svg"><title>fill-rule-nonzero</title><path d="M5.633 3c-2.172 0-3.295 3.95-2.24 8.787C4.577 17.203 7.827 21 12.028 21c4.119 0 7.351-3.801 8.557-9.217C21.662 6.943 20.582 3 18.447 3c-1.58 0-3.706 1.25-5.696 3.337l-.725.76-.723-.762C9.32 4.25 7.205 3 5.633 3zm6.394 2.646c.227-.237.458-.467.693-.689C14.587 3.201 16.656 2 18.447 2c6.465 0 3.977 20-6.42 20C1.447 22-.889 2 5.633 2c1.784 0 3.844 1.2 5.686 2.94.251.238.482.469.708.706z" fill="#303030" fill-rule="nonzero" stroke="none" stroke-width="1"/></svg>