<svg width="24" height="24" viewBox="0 0 24 24" version="1.1" xmlns="http://www.w3.org/2000/svg"><title>fill-rule-even-odd</title><path d="M17.395 13.461c.458 3.365-1.423 5.543-5.33 5.543-3.945 0-5.855-2.172-5.41-5.539.32-2.413 1.858-5.33 3.99-7.786C8.863 3.99 7.034 3 5.634 3c-2.172 0-3.295 3.95-2.24 8.787C4.577 17.203 7.827 21 12.028 21c4.119 0 7.352-3.801 8.558-9.217C21.663 6.943 20.584 3 18.45 3c-1.408 0-3.249.992-5.04 2.682 2.122 2.452 3.658 5.368 3.986 7.78zM12 5.648c-.442.482-.658.73-.646.742-4.08 4.737-6.146 11.614.71 11.614 6.77 0 4.7-6.876.635-11.613.012-.012-.221-.26-.699-.743l.752-.69C14.587 3.2 16.658 2 18.45 2c6.465 0 3.975 20-6.422 20C1.447 22-.889 2 5.633 2c1.784 0 3.844 1.2 5.686 2.94l.681.708z" fill="#303030" fill-rule="nonzero" stroke="none" stroke-width="1"/></svg>