<svg width="24" height="24" viewBox="0 0 24 24" version="1.1" xmlns="http://www.w3.org/2000/svg"><title>find-location</title><g fill="#303030" fill-rule="nonzero" stroke="none" stroke-width="1"><path d="M12 6.022a5.57 5.57 0 0 0-1 0V4h1v2.022zM6.022 11a5.57 5.57 0 0 0 0 1H4v-1h2.022zM11 16.978a5.57 5.57 0 0 0 1 0V19h-1v-2.022zM16.978 12a5.57 5.57 0 0 0 0-1H19v1h-2.022z"/><path d="M11.5 17a5.5 5.5 0 1 1 0-11 5.5 5.5 0 0 1 0 11zm0-1a4.5 4.5 0 1 0 0-9 4.5 4.5 0 0 0 0 9z"/><path d="M11.5 14a2.5 2.5 0 1 1 0-5 2.5 2.5 0 0 1 0 5zm0-1a1.5 1.5 0 1 0 0-3 1.5 1.5 0 0 0 0 3z"/></g></svg>