<svg width="24" height="24" viewBox="0 0 24 24" version="1.1" xmlns="http://www.w3.org/2000/svg"><title>focus-windows</title><g stroke="none" stroke-width="1" fill="#303030" fill-rule="nonzero"><path d="M9.5 5c-.5 0-.5.5-.5.5v8c0 .5.5.5.5.5h9s.5 0 .5-.5v-8c0-.5-.5-.5-.5-.5h-9zm.5 3h8v4.996h-8V8zm-5.48 2H8v3H5v5.002h8v-3h1V18.5c0 .477-.5.5-.5.5h-9s-.5 0-.5-.5v-8c0-.5.52-.5.52-.5zM5 11v1h2v-1H5zm5-5h8v1h-8V6z"/><path d="M9.5 5c-.5 0-.5.5-.5.5v8c0 .5.5.5.5.5h9s.5 0 .5-.5v-8c0-.5-.5-.5-.5-.5h-9zm.5 3h8v4.996h-8V8zm-5.48 2H8v3H5v5.002h8v-3h1V18.5c0 .477-.5.5-.5.5h-9s-.5 0-.5-.5v-8c0-.5.52-.5.52-.5zM5 11v1h2v-1H5zm5-5h8v1h-8V6z"/></g></svg>