<svg width="24" height="24" viewBox="0 0 24 24" version="1.1" xmlns="http://www.w3.org/2000/svg"><title>folder-copy</title><g fill="#303030" fill-rule="nonzero" stroke="none" stroke-width="1"><path d="M6 6.006V14h8V8h-3.413l-2-1.994H6zm-.396-1a.236.236 0 0 1 .11 0H9L11 7h3.285s.715.023.715.932v6.16c0 .909-.715.908-.715.908h-8.57C5 15 5 14.092 5 14.092V5.914c0-.681.403-.865.604-.908z"/><path d="M17 15.092c0 .733-.303 1.31-.821 1.639-.32.204-.618.266-.894.27H10v1h8v-6h-1v3.091zM16 11h2.285s.715.023.715.932v6.16c0 .909-.715.908-.715.908h-8.57C9 19 9 18.092 9 18.092V16h6.285S16 16 16 15.092V11z"/></g></svg>