<svg width="24" height="24" viewBox="0 0 24 24" version="1.1" xmlns="http://www.w3.org/2000/svg"><title>font-select</title><g stroke="none" stroke-width="1" fill="#303030" fill-rule="nonzero"><path d="M11.996 12.018c-1.18 0-2.04.71-2.055 1.502-.007.375.179.769.499 1.034.363.3.896.47 1.556.47H14v-3.006h-2.004zM9.992 9l.014-1 2.91.012c1.197 0 2.084.91 2.084 2.082v5.93h-3.004c-.878 0-1.638-.24-2.193-.7-.556-.46-.874-1.143-.862-1.822.025-1.359 1.34-2.484 3.055-2.484H14V10a1 1 0 0 0-1-1H9.992zM3.996 11v5L8 13.5zM20 11v5l-4.004-2.5z"/></g></svg>