<svg width="24" height="24" viewBox="0 0 24 24" version="1.1" xmlns="http://www.w3.org/2000/svg"><title>giggle-branch</title><g fill="#303030" fill-rule="nonzero" stroke="none" stroke-width="1"><path d="M8.5 18a1.5 1.5 0 1 0 0-3 1.5 1.5 0 0 0 0 3zm0 1a2.5 2.5 0 1 1 0-5 2.5 2.5 0 0 1 0 5zM8.5 9a1.5 1.5 0 1 0 0-3 1.5 1.5 0 0 0 0 3zm0 1a2.5 2.5 0 1 1 0-5 2.5 2.5 0 0 1 0 5zM15.5 16a1.5 1.5 0 1 0 0-3 1.5 1.5 0 0 0 0 3zm0 1a2.5 2.5 0 1 1 0-5 2.5 2.5 0 0 1 0 5z"/><path d="M8 14.05v-4.1a2.511 2.511 0 0 0 1 0v4.1a2.511 2.511 0 0 0-1 0zm2.586-5.171l3.535 3.535c-.28.186-.521.427-.707.707L9.88 9.586c.28-.186.521-.427.707-.707z"/></g></svg>