<svg width="24px" height="24px" version="1.1" viewBox="0 0 24 24" xmlns="http://www.w3.org/2000/svg">
<title>folder-home-24px</title>
<desc>Created with Sketch.</desc>
<g transform="matrix(.21591 0 0 .21591 -15.637 -21.682)" fill-rule="evenodd">
<rect id="Rectangle" x="92" y="191" width="72" height="5" fill="#81d4fe"/>
<g id="Group" transform="translate(73.973,112)">
<path d="m18 85c0 1.1046 0.23001 3 3 3h66c3 0 3-3 3-3v-31h14.647c3.0373 0 3.3533-3 1.3682-4.6667l-50.576-48.776c-0.80385-0.74297-2.0734-0.74297-2.8772-2e-8l-50.576 48.776c-1.9851 1.6667-1.4851 4.6667 1.3682 4.6667h14.647zm18.901-45.783c-4.8985 4.7276-4.8985 12.386-3.7e-4 17.113l15.631 15.082c0.81167 0.78321 2.1296 0.78316 2.9412-1.21e-4l15.628-15.082c4.8981-4.7272 4.8981-12.385 1.2e-5 -17.113-4.444-4.29-11.657-4.29-16.101 1.63e-4l-1.0523 0.90887-0.9423-0.90921c-4.4469-4.2896-11.657-4.2896-16.103-1.82e-4z" fill="#3ab0fc"/>
<path d="m2.5 51.5 50.5-48.5c0.80385-0.74297 1.1962-0.74297 2 0l50.5 48.5c0.4903 0.41164 1 1.991-0.5 2.5 3.5-0.50902 2.1713-3.6957 1.0148-4.6667l-50.576-48.776c-0.80385-0.74297-2.0734-0.74297-2.8772-2e-8l-50.576 48.776c-1.1334 0.95156-1.9851 3.1667 0 4.3667-0.48515-0.7-0.48515-1.2 0.51485-2.2z" fill="#1da3f9"/>
<path d="m33.269 48.774c-0.29234-3.4207 0.91806-6.9383 3.6312-9.5568 4.4467-4.2895 11.656-4.2895 16.103 1.82e-4l0.9423 0.90921 1.0523-0.90887c4.4442-4.2902 11.657-4.2902 16.101-1.63e-4 2.7129 2.6183 3.9232 6.1358 3.6309 9.5563-0.23546-2.7551-1.4458-5.4474-3.6309-7.5563-4.444-4.29-11.657-4.29-16.101 1.63e-4l-1.0523 0.90887-0.9423-0.90921c-4.4469-4.2896-11.657-4.2896-16.103-1.82e-4 -2.1854 2.1091-3.3958 4.8016-3.6312 7.5568z" fill="#81d4fe"/>
<path d="m36.9 57 15.631 15c0.81167 0.78321 2.1296 0.78316 2.9412-1.21e-4l15.628-15c2.7129-2.6183 3.9233-6.8056 3.6309-10.226-0.23546 2.7551-1.4458 5.4474-3.6309 7.5564l-15.628 15.082c-0.8116 0.78328-2.1295 0.78333-2.9412 1.21e-4l-15.631-15.082c-2.1851-2.1089-3.3954-4.8011-3.6309-7.5562-0.29233 3.4206 0.91799 7.6078 3.6309 10.226z" fill="#1da3f8"/>
</g>
</g>
</svg>
