<svg width="24" height="24" viewBox="0 0 24 24" version="1.1" xmlns="http://www.w3.org/2000/svg"><title>help-contents</title><path d="M11.986 4.896c1.152 0 2.088.306 2.772.954.666.612 1.008 1.458 1.008 2.538 0 .81-.234 1.512-.666 2.106-.18.216-.684.684-1.476 1.386-.378.324-.648.648-.828.972a2.577 2.577 0 0 0-.342 1.332v.414h-1.458v-.414c0-.594.108-1.116.342-1.566.234-.54.846-1.224 1.818-2.088.288-.288.486-.504.612-.648.342-.45.522-.918.522-1.422 0-.72-.198-1.278-.594-1.674-.432-.432-1.026-.63-1.782-.63-.882 0-1.548.288-1.998.882-.378.504-.576 1.188-.576 2.07H7.9c0-1.26.36-2.268 1.062-3.024.738-.792 1.746-1.188 3.024-1.188zm-.252 10.962c.306 0 .558.09.774.306.198.198.306.45.306.756 0 .324-.108.576-.306.774a1.136 1.136 0 0 1-.774.306c-.324 0-.576-.108-.774-.306a1.047 1.047 0 0 1-.324-.774.98.98 0 0 1 .324-.756c.198-.216.45-.306.774-.306z" fill="#303030" fill-rule="nonzero" stroke="none" stroke-width="1"/></svg>