<svg width="24" height="24" viewBox="0 0 24 24" version="1.1" xmlns="http://www.w3.org/2000/svg"><title>image-straighten</title><g stroke="none" stroke-width="1" fill="#303030" fill-rule="nonzero"><path d="M17.046 6.049L5.238 8.109v.022L5.562 10h1.676l1.417-2.44 3.07 2.44h1.46l1.186-1.593L16.658 10h1.087l-.699-3.951zM8.938 9.062L7.812 11H4.72L4.25 8.281s-.172-.982.813-1.156l11.81-2.063s.061-.03.156-.03c.287-.003.872.104 1.002.843L18.938 11h-2.594l-1.75-1.219L13.688 11h-2.313L8.937 9.062zM5 12v1h1v-1zM7 12v1h1v-1zM9 12v1h1v-1zM11 12v1h1v-1zM13 12v1h1v-1zM15 12v1h1v-1zM17 12v1h1v-1zM19 12v1h1v-1zM18.453 14.178l.985-.178.31 1.719c.174.985-.812 1.156-.812 1.156L7.125 18.969s-.983.172-1.156-.813L5.423 15l-.177-1h1.019l.688 3.98c.005 0 3.941-.696 11.81-2.09-.013.002.02-.01.044-.024-.006.009-.037.067-.043.03l-.133-.738-.046-.252-.132-.728z"/></g></svg>