<svg width="24" height="24" viewBox="0 0 24 24" version="1.1" xmlns="http://www.w3.org/2000/svg"><title>image-red-eye</title><g fill="#303030" fill-rule="nonzero" stroke="none" stroke-width="1"><path d="M10.94 8.064c.343-.04.697-.06 1.05-.06 1.455.014 2.833.355 3.927.973.634.412 1.16.801 1.518 1.136a7.968 7.968 0 0 1 1.45 1.891 7.638 7.638 0 0 1-2.436 2.675l-1.764.894a6.973 6.973 0 0 1-1.622.37c-1.786.203-3.579-.125-4.98-.912-.635-.413-1.16-.801-1.518-1.136a7.973 7.973 0 0 1-1.45-1.892 7.644 7.644 0 0 1 2.44-2.678l1.764-.892a6.965 6.965 0 0 1 1.621-.37zm-2.014-.552l-1.88.949c-1.31.878-2.392 2.102-3.046 3.543.443.98 1.1 1.855 1.865 2.605.487.457 1.134.91 1.672 1.26 1.694.954 3.711 1.287 5.639 1.069a7.998 7.998 0 0 0 1.904-.444l1.877-.951c1.31-.878 2.39-2.1 3.043-3.54-.443-.979-1.099-1.854-1.865-2.605-.487-.456-1.134-.909-1.672-1.26C15.113 7.374 13.55 7.02 12 7.005c-.392 0-.786.02-1.176.066a7.985 7.985 0 0 0-1.898.442z"/><path d="M6.686 6l-.707.707L17.293 18.02l.707-.707zM12 9.004a2.759 2.759 0 0 0-1.281.3l3.969 3.97c.321-.667.425-1.436.175-2.157-.369-1.23-1.576-2.128-2.863-2.113zM9.305 10.719A2.779 2.779 0 0 0 9 12.004c-.052 1.766 1.709 3.29 3.45 2.96.299-.034.575-.136.837-.263l-1.932-1.933a1 1 0 0 1-.035-.034l-.037-.035a1 1 0 0 1-.017-.02l-1.961-1.96z"/></g></svg>