<svg width="24" height="24" viewBox="0 0 24 24" version="1.1" xmlns="http://www.w3.org/2000/svg"><title>inbox</title><g fill="#303030" fill-rule="nonzero" stroke="none" stroke-width="1"><path d="M6 15v3h12c.022 0 .02.01.01.02-.012-.02-.01-.028-.01-.02v-3h-3.166c-.41 1.167-1.52 2-2.83 2s-2.42-.833-2.83-2H6zM5 6s-.031-.938 1.004-1h3v1h-3v8h4c0 1.108.892 2 2 2s2-.892 2-2H18V6h-3V5h3c1 0 1 1 1 1v12s0 1-1 1H6c-1.031-.063-1-1-1-1V6z"/><path d="M13.92 10H13V6h-2v4h-.92L12 12.4l1.92-2.4zM10 5h4v4h2l-4 5-4-5h2V5z"/></g></svg>