<svg width="24" height="24" viewBox="0 0 24 24" version="1.1" xmlns="http://www.w3.org/2000/svg"><title>insert-math-expression</title><path d="M12 4.98c-.917.001-1.81.293-2.355.97-.546.675-.7 1.503-.768 2.462-.034.473-.044.995-.04 1.568H8c-.554 0-1 .446-1 1s.446 1 1 1h.889c.047 1.399.111 3.043.111 5a1 1 0 1 0 2 0c0-1.961-.056-3.619-.102-5H12c.554 0 1-.446 1-1s-.446-1-1-1h-1.154a17.605 17.605 0 0 1 .027-1.425c.057-.79.217-1.212.328-1.35.111-.138.218-.224.801-.225a1 1 0 1 0-.002-2zm.707 8.758l-.707.707 1.414 1.414L12 17.273l.707.707 1.414-1.414 1.414 1.414.707-.707-1.414-1.414 1.414-1.414-.707-.707-1.414 1.414-1.414-1.414z" fill="#303030" fill-rule="nonzero" stroke="none" stroke-width="1"/></svg>