<svg width="24" height="24" viewBox="0 0 24 24" version="1.1" xmlns="http://www.w3.org/2000/svg"><title>insert-button</title><g fill="#303030" fill-rule="nonzero" stroke="none" stroke-width="1"><path d="M6.273 9.006c-.175 0-.273.087-.273.142v5.713c0 .055.098.143.273.143h11.454c.175 0 .273-.088.273-.143V9.148c0-.055-.098-.142-.273-.142H6.273zm0-1h11.454c.705 0 1.273.51 1.273 1.142v5.713c0 .633-.568 1.143-1.273 1.143H6.273c-.705 0-1.273-.51-1.273-1.143V9.148c0-.633.568-1.142 1.273-1.142z"/><path d="M14 10.004h1v3h-5v1l-2-1.5 2-1.5v1h4z"/></g></svg>