<svg width="24" height="24" viewBox="0 0 24 24" version="1.1" xmlns="http://www.w3.org/2000/svg"><title>insert-more-mark</title><g stroke="none" stroke-width="1" fill="#303030" fill-rule="nonzero"><path d="M7 6.006V18h9.989l.001-.142a.84.84 0 0 0 .006-.114l.003-.82v-2.645c-.001-1.532-.004-3.19-.008-5.105L13.6 6.006H7zM6.925 17.98l.004.001-.004-.001zm10.065.036a.536.536 0 0 0 .004-.014h-.004v.014zm-.006.046c.002-.004.006-.028.006.005v-.015a.074.074 0 0 0-.006.01zM6.844 5.006a.45.45 0 0 1 .156 0h6.994L17.99 8.74c.005 2.376.019 9.285 0 9.328 0 0 0 .934-1 .934H7S6 19 6 18.067V5.94c0-.7.563-.89.844-.934z"/><path d="M7 10.999h10V12H7z"/></g></svg>