<svg width="24" height="24" viewBox="0 0 24 24" version="1.1" xmlns="http://www.w3.org/2000/svg"><title>kdeconnect</title><g stroke="none" stroke-width="1" fill="#303030" fill-rule="nonzero"><path d="M16 19V5c.013-.006-2.654-.006-8 0-.045 0 .012-.038.02-.053-.012.024-.02.07-.02.053v14c-.013.006 2.654.006 8 0zm-.005-14.011a.25.25 0 0 0-.014-.042c.003.008.02.02.029.032l-.015.01zM8 4h8c1 0 1 1 1 1v14s0 1-1 1H8c-1 0-1-1-1-1V5s0-1 1-1z"/><path d="M9 6h6v10H9V6zm1 1v8h4V7h-4zM12 17a1 1 0 1 1 0 2 1 1 0 0 1 0-2z"/></g></svg>