<svg width="24" height="24" viewBox="0 0 24 24" version="1.1" xmlns="http://www.w3.org/2000/svg"><title>kdenlive-object-height</title><path d="M14.261 10c-.31-.542-.692-1.211-1.13-1.982l-.013-.023c-.36-.631-.739-1.3-1.121-1.974L9.723 10h4.538zm0 0h1.153c.353.615.586 1.015.586 1h-1.164a175.056 175.056 0 0 1-.575-1zm.989 1H8l4-7s2.478 4.376 3.533 6.208c-.546.415-.544.454-.533.792h.25zm-5.527 3L12 17.984 14.277 14H9.723zM16 13l-4 7-4-7h8z" fill="#303030" fill-rule="nonzero" stroke="none" stroke-width="1"/></svg>