<svg width="24" height="24" viewBox="0 0 24 24" version="1.1" xmlns="http://www.w3.org/2000/svg"><title>kdenlive-split-audio</title><g stroke="none" stroke-width="1" fill="#303030" fill-rule="nonzero"><path d="M16.15 5.026L4.995 7.083v.04L5.305 9h1.506l1.374-2.495L11.161 9h1.318l1.152-1.634L15.857 9h.96l-.667-3.974zM8.475 8.053L7.402 10H4.457l-.451-2.732s-.165-.988.773-1.163l11.252-2.074s.058-.03.153-.029c.271-.003.827.105.95.848l.864 5.15h-2.469l-.861-.633-.807-.592-.565.802-.298.423h-2.201L8.475 8.053zM4 11v1h1v-1zM6 11v1h1v-1zM8 11v1h1v-1zM10 11v1h1v-1zM12 11v1h1v-1zM14 11v1h1v-1zM16 11v1h1v-1zM18 11v1h1v-1zM10 14H5.002v1H7.22L10 17.66V14zm-5.998-1H11v7l-4.182-4H4.002v-3zM13 13v3c1.07-.58 1.7-1.7 1.7-3H13zM16.91 13c0 2.57-1.59 4.76-3.91 5.5V20c3.15-.78 5.41-3.6 5.41-7h-1.5z"/></g></svg>