<svg width="24" height="24" viewBox="0 0 24 24" version="1.1" xmlns="http://www.w3.org/2000/svg"><title>kdenlive-object-width</title><path d="M10 9.739c-.542.31-1.211.692-1.982 1.13l-.023.013c-.631.36-1.3.739-1.974 1.121L10 14.277V9.739zm0 0V8.586C10.615 8.233 11.015 8 11 8v1.164a175.056 175.056 0 0 1-1 .575zm1-.989V16l-7-4s4.376-2.478 6.208-3.533c.415.546.454.544.792.533v-.25zm3 5.527L17.984 12 14 9.723v4.554zM13 8l7 4-7 4V8z" fill="#303030" fill-rule="nonzero" stroke="none" stroke-width="1"/></svg>