<svg width="24" height="24" viewBox="0 0 24 24" version="1.1" xmlns="http://www.w3.org/2000/svg"><title>kdenlive-show-markers</title><g stroke="none" stroke-width="1" fill="none" fill-rule="evenodd"><path d="M6 6.016v12h12v-12H6zm-1-1h14v14H5v-14z" fill="#303030" fill-rule="nonzero"/><path d="M10.124 12.003H9.083L8.11 15h3.045l-1.03-2.997zm-1.69-1h2.324c.056 0 .089.025.101.075l2.045 5.932a.101.101 0 0 1-.01.094c-.018.03-.05.046-.093.046h-.85a.155.155 0 0 1-.066-.02.136.136 0 0 1-.037-.064L11.411 16H7.848c-.056.236-.307.836-.363 1.066-.012.056-.05.084-.112.084H6.51c-.044 0-.075-.015-.094-.046a.1.1 0 0 1-.008-.094l1.924-5.932c.012-.05.046-.075.102-.075z" fill="#303030" fill-rule="nonzero"/><path d="M14.68 15.75a.7.7 0 1 1 .002 1.4.7.7 0 0 1-.002-1.4zM16.9 15.75a.7.7 0 1 1-.001 1.4.7.7 0 0 1 .001-1.4z" fill="#DDD"/></g></svg>