<svg width="24" height="24" viewBox="0 0 24 24" version="1.1" xmlns="http://www.w3.org/2000/svg"><title>kdenlive-custom-effect</title><g transform="translate(4 4)" fill="#303030" fill-rule="nonzero" stroke="none" stroke-width="1"><path d="M2 1c-.556 0-1 .444-1 1v12c0 .556.444 1 1 1h12c.556 0 1-.444 1-1V2c0-.556-.444-1-1-1H2zm0-1h12c1.108 0 2 .892 2 2v12c0 1.108-.892 2-2 2H2c-1.108 0-2-.892-2-2V2C0 .892.892 0 2 0z"/><path d="M7.66 4l-.088 1.035-.598.22a2.973 2.973 0 0 0-.867.497l-.486.401-.954-.444-.335.576.863.595-.113.634a2.876 2.876 0 0 0-.045.484c0 .166.015.332.044.495l.11.633-.858.59.333.574.948-.443.486.399c.26.212.554.379.87.494l.602.218L7.659 12h.684l.087-1.035.598-.22c.316-.116.609-.284.867-.497l.486-.401.955.444.335-.575-.864-.596.113-.634c.029-.162.044-.327.045-.487 0-.166-.014-.332-.042-.495l-.11-.631.858-.59-.335-.573-.948.443-.486-.399a2.973 2.973 0 0 0-.87-.494l-.602-.218L8.342 4H7.66zm-.92-1h2.522l.111 1.32c.422.153.815.377 1.162.66l1.205-.562 1.262 2.164-1.094.752c.038.22.057.443.057.666a3.895 3.895 0 0 1-.06.662l1.097.756-1.262 2.164-1.209-.562c-.345.284-.737.509-1.158.664L9.262 13H6.74l-.111-1.32a3.973 3.973 0 0 1-1.162-.66l-1.205.562-1.26-2.164 1.094-.752A3.894 3.894 0 0 1 4.037 8c.001-.222.022-.443.06-.662l-1.095-.756 1.26-2.164 1.209.562c.345-.284.737-.509 1.158-.664L6.74 3z"/><circle cx="8" cy="8" r="1"/></g></svg>