<svg width="24" height="24" viewBox="0 0 24 24" version="1.1" xmlns="http://www.w3.org/2000/svg"><title>kr_comparedirs</title><path d="M7.5 5A2.515 2.515 0 0 0 5 7.5v.002c.001.763.43 1.382 1 1.848V15c0 1.645 1.355 3 3 3a1 1 0 0 0 1.6.8l2-1.5a1 1 0 0 0 0-1.599l-2-1.5a1 1 0 0 0-1.6.785V9.35c.57-.466.999-1.085 1-1.848V7.5C10 6.131 8.869 5 7.5 5zm9.566 10.11V9.013c0-1.204-.692-1.87-2.078-1.995h-.98V6.015L12 7.524l2.043 1.488h1.974v6.068M8.004 8.913v6.138h1.955L12 16.52l-2.041 1.513a26.332 26.332 0 0 1 0-1.046c-1.898.146-2.875-.5-2.933-1.935V8.924a1.5 1.5 0 1 1 .978-.01zM13.971 5A1 1 0 0 1 15 6c1.645 0 3 1.355 3 3v5.65c.571.466.999 1.085 1 1.848v.002c0 1.369-1.131 2.5-2.5 2.5a2.515 2.515 0 0 1-2.5-2.5v-.002c.001-.763.429-1.382 1-1.848V9.014a1 1 0 0 1-1.6.785l-2-1.5a1 1 0 0 1 0-1.6l2-1.5A1 1 0 0 1 13.97 5zM8.004 8.913v-.04m-.978 0v.05m8.99 6.157a1.5 1.5 0 1 0 1.05.03" fill="#303030" fill-rule="nonzero" stroke="none" stroke-width="1"/></svg>