<svg width="24" height="24" viewBox="0 0 24 24" version="1.1" xmlns="http://www.w3.org/2000/svg"><title>kr_syncbrowse_off</title><g fill="#303030" fill-rule="nonzero" stroke="none" stroke-width="1"><path d="M4 6.004c0-1 1.071-1 1.071-1h5.358l2.142 2h5.358s1.071 0 1.071 1v9c0 1-1.071 1-1.071 1H5.07c-1.071 0-1.071-1-1.071-1v-11zM5.082 6v11h12.856V8h-5.754L10.05 6H5.082z"/><path d="M15.5 11l1.666 1.285-1.666 1.287v-.857c-.92 0-1.666.766-1.666 1.713 0 .947.746 1.715 1.666 1.715.92 0 1.666-.768 1.666-1.715 0-.114.044-.223.123-.303a.41.41 0 0 1 .295-.125.423.423 0 0 1 .414.471C17.976 15.871 16.867 17 15.5 17c-1.381 0-2.5-1.152-2.5-2.572 0-1.42 1.119-2.57 2.5-2.57V11z"/></g></svg>