<svg width="24" height="24" viewBox="0 0 24 24" version="1.1" xmlns="http://www.w3.org/2000/svg"><title>kstars_horizon</title><g stroke="none" stroke-width="1" fill="none" fill-rule="nonzero"><path d="M12 4a8 8 0 1 0 0 16 8 8 0 0 0 0-16zm0 1a7 7 0 1 1 0 14 7 7 0 0 1 0-14z" fill="#303030"/><path d="M4.035 11.264l-.004.07a8 8 0 0 1 .008-.059c0-.004-.003-.007-.004-.011zm.98 1.18A7 7 0 0 0 12 19a7 7 0 0 0 6.977-6.547C17.603 13.378 14.987 14 12 14c-2.997-.001-5.616-.627-6.984-1.557zm14.95.243zm-15.924.131zm.186 1.034zm.07.279zm15.564-.68zm-.183.783zm-.26.75zm-14.787.131zm14.463.574zM5.08 16c.095.164.19.33.297.486A8 8 0 0 1 5.08 16zm13.598.398a8 8 0 0 1-.233.327c.08-.108.159-.215.233-.327zm-13.063.407a8 8 0 0 0 .239.31c-.084-.1-.158-.206-.237-.31h-.002zm12.602.226a8 8 0 0 1-.27.305c.09-.1.184-.2.27-.305zm-12.096.381c.086.093.17.189.26.277a8 8 0 0 1-.26-.277zm11.568.207a8 8 0 0 1-.277.26c.093-.086.189-.17.277-.26zm-11.025.328c.1.09.2.184.305.27a8 8 0 0 1-.305-.27zm10.451.201a8 8 0 0 1-.31.237c.104-.079.21-.153.31-.237zm-9.84.297a8 8 0 0 1 0 0zm9.211.178a8 8 0 0 1-.486.297c.164-.095.33-.19.486-.297zm-8.597.23zm.66.356zm6.564.162zm-.976.33zm-.285.074zm-4.545-.25zm.76.23v.003a8 8 0 0 0 0-.002zm.792.155z" fill="#000" opacity=".3"/></g></svg>