<svg width="24" height="24" viewBox="0 0 24 24" version="1.1" xmlns="http://www.w3.org/2000/svg"><title>kstars_deepsky</title><path d="M10.5 4a.5.5 0 1 0 0 1 .5.5 0 0 0 0-1zm3 0a.5.5 0 1 0 0 1 .5.5 0 0 0 0-1zm-5 1a.5.5 0 1 0 0 1 .5.5 0 0 0 0-1zm7 0a.5.5 0 1 0 0 1 .5.5 0 0 0 0-1zm-9 1a.5.5 0 1 0 0 1 .5.5 0 0 0 0-1zm11 0a.5.5 0 1 0 0 1 .5.5 0 0 0 0-1zm-12 2a.5.5 0 1 0 0 1 .5.5 0 0 0 0-1zm13 0a.5.5 0 1 0 0 1 .5.5 0 0 0 0-1zm-14 2a.5.5 0 1 0 0 1 .5.5 0 0 0 0-1zm15 0a.5.5 0 1 0 0 1 .5.5 0 0 0 0-1zm-15 3a.5.5 0 1 0 0 1 .5.5 0 0 0 0-1zm15 0a.5.5 0 1 0 0 1 .5.5 0 0 0 0-1zm-14 2a.5.5 0 1 0 0 1 .5.5 0 0 0 0-1zm13 0a.5.5 0 1 0 0 1 .5.5 0 0 0 0-1zm-12 2a.5.5 0 1 0 0 1 .5.5 0 0 0 0-1zm11 0a.5.5 0 1 0 0 1 .5.5 0 0 0 0-1zm-9 1a.5.5 0 1 0 0 1 .5.5 0 0 0 0-1zm7 0a.5.5 0 1 0 0 1 .5.5 0 0 0 0-1zm-5 1a.5.5 0 1 0 0 1 .5.5 0 0 0 0-1zm3 0a.5.5 0 1 0 0 1 .5.5 0 0 0 0-1z" fill="#303030" fill-rule="nonzero" stroke="none" stroke-width="1"/></svg>