<svg width="24" height="24" viewBox="0 0 24 24" version="1.1" xmlns="http://www.w3.org/2000/svg"><title>kstars_supernovae</title><path d="M19.81 4c-.33-.029-1.331.337-1.681.553-.783.365-2.194 1.109-3.861 2.443.114.081.227.172.336.266 1.59-1.174 2.697-1.604 3.042-1.139.325.436-.254 1.508-1.363 2.924-1.045-1.77-2.946-2.727-4.875-2.453-2.74.392-4.668 3.109-4.304 6.068.057.462.17.915.335 1.346-1.88 2.43-3.83 5.197-3.37 5.814.495.668 3.226-.642 6.126-2.861.802.35 1.674.47 2.532.348 2.74-.394 4.666-3.11 4.302-6.069a5.766 5.766 0 0 0-.23-1.035c2.16-2.86 3.585-5.528 3.11-6.168-.017-.022-.051-.033-.098-.037zM7.624 14.432a5.308 5.308 0 0 0 1.527 1.904c-1.463 1.188-2.54 1.757-2.88 1.299-.338-.455.203-1.586 1.353-3.203zM12 16.378c-2.21 0-4-1.99-4-4.446 0-2.456 1.79-4.447 4-4.447s4 1.991 4 4.447-1.79 4.446-4 4.446z" fill="#303030" fill-rule="nonzero" stroke="none" stroke-width="1"/></svg>