<svg width="24" height="24" viewBox="0 0 24 24" version="1.1" xmlns="http://www.w3.org/2000/svg"><title>kstars_indi</title><g stroke="none" stroke-width="1" fill="#303030" fill-rule="nonzero"><path d="M7.191 5l2.461 14h3.805L16.74 5H7.19zM6 4h12l-3.75 16H8.812L6 4z"/><path d="M7.5 6a.5.5 0 1 1 0 1 .5.5 0 0 1 0-1zM14.5 6a.5.5 0 1 1 0 1 .5.5 0 0 1 0-1zM11.904 8.002a3 3 0 0 1 .49 5.973 3 3 0 1 1-.49-5.973zM12 13a2 2 0 1 0 0-4 2 2 0 0 0 0 4zM13.5 15.002a.5.5 0 1 1 0 1 .5.5 0 0 1 0-1zM10.5 17.002a.5.5 0 1 1 0 1 .5.5 0 0 1 0-1z"/></g></svg>