<svg width="24" height="24" viewBox="0 0 24 24" version="1.1" xmlns="http://www.w3.org/2000/svg"><title>kstars_ekos</title><path d="M12 4a8.146 8.146 0 0 0-.92.059 8.115 8.115 0 0 0-.162.017C7.521 4.533 5.015 7.032 5 9.976v8c0 1.105 3.134 2 7 2s7-.895 7-2v-8c-.003-2.422-1.705-4.605-4.314-5.535l-.055-.017a7.804 7.804 0 0 0-.39-.12 7.846 7.846 0 0 0-.282-.08 7.974 7.974 0 0 0-.38-.081 8.01 8.01 0 0 0-.304-.059 8.103 8.103 0 0 0-.37-.045C12.831 4.03 12.53 4.017 12 4zm2.115 1.326c2.346.737 3.895 2.61 3.885 4.7 0 1.104-2.686 2-6 2s-6-.896-6-2c.001-2.038 1.486-3.87 3.752-4.633-1.024 1.485-1.561 3.426-1.711 5.132 1.094.322 2.5.5 3.959.5.299-2.495 1.193-4.244 2.115-5.673v-.026zM6 11.526c1.26.905 3.539 1.46 6 1.462 2.46-.001 4.738-.556 6-1.46v6.46c0 .553-2.686 1-6 1s-6-.447-6-1v-6.463zm3.128-1.784c.361-2.005 1.047-3.567 2.059-4.684.057-.019 1.497-.106 1.938 0-.795.949-1.441 2.598-1.938 4.948l-2.06-.264z" fill="#303030" fill-rule="nonzero" stroke="none" stroke-width="1"/></svg>