<svg width="24" height="24" viewBox="0 0 24 24" version="1.1" xmlns="http://www.w3.org/2000/svg"><title>kstars_cnames</title><g stroke="none" stroke-width="1" fill="#303030" fill-rule="nonzero"><path d="M7.9 5C5.994 5 5 6.428 5 9v6c0 2.572.994 4 2.9 4 1.965 0 3.1-1.51 3.1-4V9c0-2.49-1.134-4-3.1-4zm0-1C10.662 4 12 6.239 12 9v6c0 2.761-1.338 5-4.1 5C5.14 20 4 17.761 4 15V9c0-2.761 1.139-5 3.9-5zM19 8v1h1V8zM13 11v9h1v-6a2 2 0 0 1 2-2c1.105 0 1 .895 1 2h1c0-1.657-.343-3-2-3a3 3 0 0 0-2 .768V11h-1zM19 11v9h1v-9z"/></g></svg>