<svg width="24" height="24" viewBox="0 0 24 24" version="1.1" xmlns="http://www.w3.org/2000/svg"><title>kstars_satellites</title><g stroke="none" stroke-width="1" fill="#303030" fill-rule="nonzero"><path d="M15 3.861l5 5-7.176 5.4a4.5 4.5 0 0 0-.144-.404c.2.51.32 1.062.32 1.643a4.5 4.5 0 0 1-1.32 3.18 4.5 4.5 0 0 1-.785.629l-2.096-2.096-1.903 1.394a3.5 3.5 0 0 1-1.505-1.502l1.396-1.904-2.094-2.094A4.5 4.5 0 0 1 8.5 11a4.478 4.478 0 0 1 1.236.178L15 4v-.139zM6.641 17.15l.248.265 1.994-1.47c1.37 1.319 2.07 1.991 2.1 2.018.986-.998 1.25-2.236.79-3.716l.778-.328-.297-.437 6.235-4.733-3.307-3.27-4.619 6.296-.409-.289c-.09.15-.207.419-.348.805-1.4-.594-2.662-.352-3.786.726l2.064 2.096-1.443 2.037z"/><path d="M6.914 4.086l3.672 3.672-2.828 2.828-3.672-3.67 2.828-2.83zm-1.41 2.843l2.272 2.237 1.41-1.431L6.895 5.52 5.504 6.93zM16.242 13.414l3.672 3.672-2.828 2.83-3.672-3.672 2.828-2.83zm-1.397 2.846l2.27 2.233 1.37-1.381-2.24-2.274-1.4 1.422zM4.748 17.914L4 19.014l1 1 1.02-.748a4.5 4.5 0 0 1-1.272-1.272v-.08z"/></g></svg>