<svg width="24" height="24" viewBox="0 0 24 24" version="1.1" xmlns="http://www.w3.org/2000/svg"><title>kstars_solarsystem</title><path d="M12 4.05A8 8 0 0 0 5.385 16.55a1.5 1.5 0 0 0-.184.252 1.5 1.5 0 0 0 .549 2 1.5 1.5 0 0 0 1.758-.2A8 8 0 0 0 12 20a8 8 0 0 0 5.657-13.657c-1.5-1.5-3.535-2.292-5.657-2.292zM12 5a7 7 0 0 1 0 14 7 7 0 0 1-4.018-1.271 1.5 1.5 0 0 0-.732-1.5 1.5 1.5 0 0 0-.973-.2 7 7 0 0 1-1.277-4 7 7 0 0 1 7-7V5zm0 2.05a5 5 0 1 0 0 10 5 5 0 0 0 3.072-1.062 1.5 1.5 0 0 0 1.649-2.306A5 5 0 0 0 17 12.05a5 5 0 0 0-5-5zm0 1a4 4 0 0 1 4 4 4 4 0 0 1-.143 1.044 1.5 1.5 0 0 0-1.619 2.267 4 4 0 0 1-2.238.7 4 4 0 1 1 0-8v-.01zm0 2a2 2 0 1 1 0 4 2 2 0 0 1 0-4zm0 3a1 1 0 1 0 0-2 1 1 0 0 0 0 2zM6.5 18a.5.5 0 1 1 0-1 .5.5 0 0 1 0 1zm9-3a.5.5 0 1 1 0-1 .5.5 0 0 1 0 1z" fill="#303030" fill-rule="nonzero" stroke="none" stroke-width="1"/></svg>