<svg width="24" height="24" viewBox="0 0 24 24" version="1.1" xmlns="http://www.w3.org/2000/svg"><title>kstars_mw</title><path d="M8.654 18.995l.836.003h.244c1.699-2.654 2.22-3.943 2.237-5.816v-2.944l.006-.11c.131-1.177.614-2.1 1.75-2.228 1.013-.055 1.959.2 2.69.668.28.18.245.159.35.214.269.14.55.218.88.218H19V5.997h-.06c-.674.054-1.155-.113-1.922-.525l-.093-.05a4.753 4.753 0 0 0-.534-.264c-.161-.04-.22-.053-.321-.075a5.264 5.264 0 0 0-1.127-.134c-.192.005-.346.007-.681.009-.329.002-.474.004-.651.008-.633.017-1.11.068-1.587.185-1.406.616-2.39 1.962-2.86 3.765.002-.013-.092.32-.124.455-.067.29-.106.578-.106.865l-.001 2.905c-.064 1.714-.913 2.786-2.737 4.146-.196.14-.374.258-.686.462l-.075.05c-.179.117-.317.208-.434.287l.001.908c1.314-.003 2.35-.002 3.652.001zM14.932 3.95c.756 0 1.386.161 1.754.252.737.265 1.368.864 2.173.799H20v5h-2.354c-.92 0-1.505-.42-1.771-.592-.477-.305-1.206-.558-2.094-.51-.507.059-.74.716-.81 1.34v2.944c-.024 2.56-1.09 4.356-2.694 6.818-1.993-.005-3.304-.013-6.273-.003L4 17.568c.525-.39 1.083-.719 1.62-1.097 1.15-.858 2.255-1.81 2.314-3.367v-2.868c0-.775.22-1.406.26-1.564.498-1.912 1.608-3.676 3.51-4.47 1.13-.295 2.132-.226 3.228-.253z" fill="#303030" fill-rule="nonzero" stroke="none" stroke-width="1"/></svg>