<svg width="24" height="24" viewBox="0 0 24 24" version="1.1" xmlns="http://www.w3.org/2000/svg"><title>kt-speed-limits</title><g fill="#303030" fill-rule="nonzero" stroke="none" stroke-width="1"><path d="M12.78 6.002a.184.184 0 0 0-.143.044.211.211 0 0 0-.069.141l-.226 2.486c-.01.115.069.218.176.229a4.958 4.958 0 0 1 1.771.531.189.189 0 0 0 .149.008.2.2 0 0 0 .11-.105l1.013-2.25a.214.214 0 0 0-.09-.278 7.541 7.541 0 0 0-2.692-.806zM10.916 6.039a7.564 7.564 0 0 0-2.66.918.216.216 0 0 0-.08.28l1.092 2.208c.034.07.102.11.171.11.031 0 .061-.008.09-.024a4.981 4.981 0 0 1 1.752-.604c.107-.015.18-.12.166-.234l-.312-2.477c-.015-.114-.113-.193-.219-.177zM16.902 7.836a.192.192 0 0 0-.13.076L15.3 9.849a.217.217 0 0 0-.041.153c.005.054.03.105.07.14.483.421.888.923 1.207 1.494a.194.194 0 0 0 .168.102c.034 0 .069-.01.1-.03l2-1.28a.205.205 0 0 0 .088-.128.223.223 0 0 0-.022-.158 8.444 8.444 0 0 0-1.826-2.262.186.186 0 0 0-.143-.044zM6.861 8.043a.185.185 0 0 0-.14.05 8.5 8.5 0 0 0-1.744 2.334.226.226 0 0 0-.016.16.202.202 0 0 0 .092.124l2.045 1.199a.185.185 0 0 0 .263-.084 5.622 5.622 0 0 1 1.155-1.543.211.211 0 0 0 .064-.143.22.22 0 0 0-.047-.152L6.994 8.113a.189.189 0 0 0-.133-.07zM19.393 11.834l-2.225.746c-.102.034-.159.152-.127.261a6.04 6.04 0 0 1 .234 1.961.219.219 0 0 0 .051.15.19.19 0 0 0 .135.07l2.328.114h.008c.103 0 .188-.087.193-.199a9.143 9.143 0 0 0-.355-2.967c-.032-.11-.14-.17-.242-.136zM10.616 14.473l.588 1.182-.027.284a1.01 1.01 0 0 0 .26.806.75.75 0 0 0 .555.255.754.754 0 0 0 .558-.255c.17-.182.264-.426.264-.697 0-.27-.095-.517-.264-.698a.754.754 0 0 0-.556-.255H11.951l-.32.02-.273-.172-.742-.47zm-1.878-2.37l3.155 1.994c.032-.002.066-.002.1-.002.487 0 .945.204 1.288.573.344.368.533.859.533 1.38 0 .522-.189 1.01-.533 1.38a1.753 1.753 0 0 1-1.289.572c-.486 0-.943-.204-1.287-.573a2.008 2.008 0 0 1-.523-1.582L8.46 12.388a.226.226 0 0 1 .037-.256.195.195 0 0 1 .115-.058.19.19 0 0 1 .125.03zM4.518 12.14a.185.185 0 0 0-.149.02.207.207 0 0 0-.09.127 9.181 9.181 0 0 0-.27 2.65c.006.112.091.2.194.2h.01l2.326-.116a.19.19 0 0 0 .135-.068.219.219 0 0 0 .05-.15 6.089 6.089 0 0 1 .178-1.753c.028-.11-.033-.225-.136-.256l-2.248-.654z"/></g></svg>