<svg width="24" height="24" viewBox="0 0 24 24" version="1.1" xmlns="http://www.w3.org/2000/svg"><title>lensautofix</title><g stroke="none" stroke-width="1" fill="#303030" fill-rule="nonzero"><path d="M12 6a6 6 0 1 0 0 12 6 6 0 0 0 0-12zm0-1a7 7 0 1 1 0 14 7 7 0 0 1 0-14z"/><path d="M12 8a4 4 0 1 0 0 8 4 4 0 0 0 0-8zm0-1a5 5 0 1 1 0 10 5 5 0 0 1 0-10z"/><path d="M13.096 12c.404 0 .746-.24.904-.584.057.186.096.38.096.584 0 .293-.063.57-.175.821a1.985 1.985 0 0 1-1.413.092.995.995 0 0 0 .588-.913zm-2-1c0-.292.063-.572.179-.825.25-.113.528-.175.82-.175.206 0 .399.039.585.096a.993.993 0 0 0-.584.904.995.995 0 0 0-.913.588 2.006 2.006 0 0 1-.087-.588zm1-1c.205 0 .398.039.584.096a.998.998 0 1 0 1.32 1.32c.057.186.096.38.096.584 0 1.108-.892 2-2 2s-2-.892-2-2 .892-2 2-2z"/></g></svg>