<svg width="24" height="24" viewBox="0 0 24 24" version="1.1" xmlns="http://www.w3.org/2000/svg"><title>lensdistortion</title><path d="M4 4v16h16V4H4zm1 1h14v2.387C17.033 6.495 14.558 6.004 12 6c-2.557.003-5.032.49-7 1.38V5zm7 2c2.621.003 5.135.52 7 1.441v2.108C17.592 9.593 14.911 9 12 9c-2.914.001-5.596.597-7 1.555v-2.11C6.864 7.523 9.378 7.005 12 7zm0 3c3.866 0 7 .895 7 2s-3.134 2-7 2-7-.895-7-2 3.134-2 7-2zm7 3.445v2.114c-1.865.92-4.379 1.438-7 1.441-2.622-.004-5.136-.523-7-1.445V13.45C6.408 14.407 9.089 15 12 15c2.914-.001 5.596-.597 7-1.555zm0 3.168V19H5v-2.38c1.968.89 4.443 1.377 7 1.38 2.558-.004 5.033-.495 7-1.387z" fill="#303030" fill-rule="nonzero" stroke="none" stroke-width="1"/></svg>