<svg width="24" height="24" viewBox="0 0 24 24" version="1.1" xmlns="http://www.w3.org/2000/svg"><title>love-amarok</title><path d="M14.377 15.185C16.792 12.706 18 10.677 18 8.5c0-1.412-.933-2.5-2-2.5-1.081 0-1.893.295-2.5.78-.345.277-.54.538-.606.667L12 9.237l-.894-1.79c-.065-.13-.261-.39-.606-.666C9.893 6.295 9.081 6 8 6 6.933 6 6 7.088 6 8.5c0 2.177 1.208 4.206 3.623 6.685.117.12 1.46 1.43 2.377 2.364.917-.933 2.26-2.243 2.377-2.364zM12 7s.066-.271.668-.823C13.27 5.626 14.322 5 16 5c1.657 0 3 1.567 3 3.5 0 4.667-5 8.167-7 10.5-2-2.333-7-5.833-7-10.5C5 6.567 6.343 5 8 5c1.678 0 2.73.626 3.332 1.177C11.934 6.73 12 7 12 7z" fill="#303030" fill-rule="nonzero" stroke="none" stroke-width="1"/></svg>