<svg width="24" height="24" viewBox="0 0 24 24" version="1.1" xmlns="http://www.w3.org/2000/svg"><title>mail-unread-multiple</title><g stroke="none" stroke-width="1" fill="#303030" fill-rule="nonzero"><path d="M19 9V7c0-.556-.444-1-1-1H6c-.556 0-1 .444-1 1v8c0 .556.444 1 1 1h5v-4a3 3 0 0 1 3-3h5zM6 5h12c1.108 0 2 .892 2 2v3.283A1.958 1.958 0 0 0 19 10h-5a2 2 0 0 0-2 2v5H6c-1.108 0-2-.892-2-2V7c0-1.108.892-2 2-2z"/><path d="M14.014 10H13a1 1 0 0 0-1 1L6.006 8.004v-1l6 3 6-3v1L14.014 10zM14 11h5c.554 0 1 .446 1 1v5c0 .554-.446 1-1 1h-5c-.554 0-1-.446-1-1v-5c0-.554.446-1 1-1zm0 1v5h1v-3h1v1h1v-1h1v3h1v-5h-1v1h-1v1h-1v-1h-1v-1h-1z"/></g></svg>