<svg width="24" height="24" viewBox="0 0 24 24" version="1.1" xmlns="http://www.w3.org/2000/svg"><title>mail-open-multiple</title><g stroke="none" stroke-width="1" fill="#303030" fill-rule="nonzero"><path d="M7 5v1h10V5zM5 10.309V16c0 .556.444 1 1 1h5v-3.382l-6-3v-.309zM6 6v4l6 3v5H6c-1.108 0-2-.892-2-2V8c0-1.108.892-2 2-2zM18 6v4l-2 1h3c.364 0 .703.108 1 .283V8c0-1.108-.892-2-2-2z"/><path d="M7 9v1h10V9zM14 12h5c.554 0 1 .446 1 1v5c0 .554-.446 1-1 1h-5c-.554 0-1-.446-1-1v-5c0-.554.446-1 1-1zm0 1v5h1v-3h1v1h1v-1h1v3h1v-5h-1v1h-1v1h-1v-1h-1v-1h-1z"/></g></svg>