<svg width="24" height="24" viewBox="0 0 24 24" version="1.1" xmlns="http://www.w3.org/2000/svg"><title>mail-thread-watch</title><g fill="#303030" fill-rule="nonzero" stroke="none" stroke-width="1"><path d="M8.5 8C7.211 8 6 9.73 6 12s1.211 4 2.5 4 2.5-1.73 2.5-4-1.211-4-2.5-4zm3.5 4c0 2.761-1.567 5-3.5 5S5 14.761 5 12s1.567-5 3.5-5S12 9.239 12 12zM13 12c0 2.27 1.211 4 2.5 4s2.5-1.73 2.5-4-1.211-4-2.5-4S13 9.73 13 12zm-1 0c0-2.761 1.567-5 3.5-5S19 9.239 19 12s-1.567 5-3.5 5-3.5-2.239-3.5-5z"/><path d="M9 12a2 2 0 1 1 0 4 2 2 0 0 1 0-4zm0 3a1 1 0 1 0 0-2 1 1 0 0 0 0 2zM16 12a2 2 0 1 1 0 4 2 2 0 0 1 0-4zm0 3a1 1 0 1 0 0-2 1 1 0 0 0 0 2z"/></g></svg>