<svg width="24" height="24" viewBox="0 0 24 24" version="1.1" xmlns="http://www.w3.org/2000/svg"><title>mail-folder-sent</title><g stroke="none" stroke-width="1" fill="#303030" fill-rule="nonzero"><path d="M6 6.01v11c-.013.006 3.987.006 12 0 .006.013.006-2.987 0-9h-5.414l-2-2H6zm-.156-1a.42.42 0 0 1 .156 0h5l2 2h5s1 0 1 1v9c0 1-1 1-1 1H6c-1 0-1-1-1-1v-11c0-.75.562-.953.844-1z"/><path d="M12.309 8c.536 0 1.029.084 1.48.25.452.163.84.4 1.166.709.33.307.586.68.77 1.121.183.44.275.935.275 1.486 0 .31-.04.617-.117.92-.075.304-.19.577-.346.819a1.931 1.931 0 0 1-.592.582 1.525 1.525 0 0 1-.83.218c-.129 0-.25-.013-.365-.043a1.237 1.237 0 0 1-.56-.332.924.924 0 0 1-.159-.255h-.076a1.618 1.618 0 0 1-.51.441 1.604 1.604 0 0 1-.351.14 1.665 1.665 0 0 1-.412.05 1.96 1.96 0 0 1-.754-.137 1.54 1.54 0 0 1-.55-.397 1.772 1.772 0 0 1-.34-.615 2.588 2.588 0 0 1-.118-.799c0-.336.053-.643.158-.924.105-.28.256-.522.453-.724.197-.206.435-.364.717-.475.282-.114.598-.172.947-.172.153 0 .312.01.475.026a6.455 6.455 0 0 1 1.236.25l-.105 2.049a2.187 2.187 0 0 0-.012.21v.133c0 .137.01.25.031.338a.738.738 0 0 0 .086.21c.038.048.08.083.123.103a.425.425 0 0 0 .459-.104.993.993 0 0 0 .219-.355c.058-.15.1-.327.13-.526.03-.202.048-.415.048-.64 0-.418-.065-.79-.194-1.116a2.336 2.336 0 0 0-.54-.826 2.26 2.26 0 0 0-.815-.513 2.92 2.92 0 0 0-1.027-.178c-.52 0-.978.084-1.375.25-.394.166-.726.399-.995.699-.264.297-.466.65-.605 1.059a4.216 4.216 0 0 0-.203 1.34c0 .45.059.85.178 1.199.118.346.295.637.529.875.234.235.522.415.865.539.343.12.74.181 1.188.181.19 0 .385-.012.586-.035a7.431 7.431 0 0 0 1.73-.416v.94c-.32.137-.674.244-1.064.322-.387.082-.801.123-1.243.123-.614 0-1.165-.084-1.65-.254a3.295 3.295 0 0 1-1.22-.725 3.133 3.133 0 0 1-.764-1.16A4.329 4.329 0 0 1 8 12.301c0-.405.045-.792.137-1.16.091-.372.225-.715.398-1.032.173-.32.383-.61.631-.867.251-.26.536-.481.855-.664.32-.186.672-.328 1.055-.426A4.821 4.821 0 0 1 12.31 8zm.48 4.498l.078-1.613c-.158-.044-.492-.044-1 0-.762.067-1.123.93-.922 1.677.2.748.94.5 1.055.5.076 0 .234-.187.475-.564h.314z"/></g></svg>