<svg width="24" height="24" viewBox="0 0 24 24" version="1.1" xmlns="http://www.w3.org/2000/svg"><title>map-globe</title><path d="M12.11 4a8 8 0 1 0 5.54 2.344A8 8 0 0 0 12.108 4zm-.22 1a7 7 0 0 1 4.68 1.715l-1.404 1.404c-1.668-1.54-3.64-2.537-5.424-2.742A7 7 0 0 1 11.891 5zM8.864 6.307c1.671-.095 3.793.861 5.594 2.521l-2.465 2.465-4.55-4.55c.392-.255.873-.402 1.421-.436zm8.42 1.109a7 7 0 0 1 1.336 6.81c-.216-1.778-1.215-3.739-2.75-5.396l1.414-1.414zm-10.55.031L11.284 12l-2.467 2.467c-2.254-2.45-3.127-5.387-2.086-7.02zm8.433 2.086c2.255 2.45 3.128 5.387 2.086 7.02L12.699 12l2.467-2.467zm-9.8.24c.216 1.779 1.215 3.74 2.75 5.397L6.7 16.584a7 7 0 0 1-1.336-6.81zm6.626 2.934l4.551 4.55c-1.633 1.04-4.567.167-7.016-2.085l2.465-2.465zm-3.174 3.174c1.668 1.54 3.64 2.537 5.424 2.742a7 7 0 0 1-6.828-1.338l1.404-1.404z" fill="#303030" fill-rule="nonzero" stroke="none" stroke-width="1"/></svg>