<svg width="24" height="24" viewBox="0 0 24 24" version="1.1" xmlns="http://www.w3.org/2000/svg"><title>map-gnomonic</title><path d="M4 4v16h16V4H4zm1 1h4v4.707C6.56 9.211 5.003 8.157 5 7V5zm5 0h4v4.873a15.837 15.837 0 0 1-4 0V5zm5 0h4v2c-.003 1.157-1.56 2.211-4 2.707V5zM5 8.928c.886.804 2.298 1.432 4 1.777v2.59c-1.702.345-3.114.973-4 1.777V8.928zm14 .008v6.128c-.889-.801-2.3-1.426-4-1.77v-2.589c1.7-.343 3.111-.968 4-1.77zm-9 1.931c.653.086 1.325.131 2 .133a15.65 15.65 0 0 0 2-.13v2.26a15.65 15.65 0 0 0-2-.13c-.675.002-1.347.047-2 .133v-2.266zM12 14c.677 0 1.351.043 2 .127V19h-4v-4.873A15.837 15.837 0 0 1 12 14zm-3 .293V19H5v-2c.003-1.157 1.56-2.211 4-2.707zm6 0c2.44.496 3.997 1.55 4 2.707v2h-4v-4.707z" fill="#303030" fill-rule="nonzero" stroke="none" stroke-width="1"/></svg>