<svg width="24" height="24" viewBox="0 0 24 24" version="1.1" xmlns="http://www.w3.org/2000/svg"><title>mark-location</title><g stroke="none" stroke-width="1" fill="#303030" fill-rule="nonzero"><path d="M15.92 10.843a5.54 5.54 0 0 0 .054-.44c.019-.186.026-.291.026-.4a4 4 0 0 0-8 0c0 .108.007.212.028.42.01.13.028.271.053.42.396 2.434 1.545 4.258 3.919 6.735 2.375-2.477 3.523-4.3 3.92-6.735zM12 5.003a5 5 0 0 1 5 5c0 .173-.014.333-.031.5a6.355 6.355 0 0 1-.063.5C16.334 14.519 14 17.007 12 19.007c-2-2-4.334-4.488-4.906-8.002a6.355 6.355 0 0 1-.063-.5 4.854 4.854 0 0 1-.031-.5 5 5 0 0 1 5-5z"/><path d="M12 9.004a1 1 0 1 0 0 2 1 1 0 0 0 0-2zm0-1a2 2 0 1 1 0 4 2 2 0 0 1 0-4z"/></g></svg>