<svg width="24" height="24" viewBox="0 0 24 24" version="1.1" xmlns="http://www.w3.org/2000/svg"><title>mesh-gradient</title><g stroke="none" stroke-width="1" fill="none" fill-rule="nonzero"><path d="M8.799 4.77a4.95 4.95 0 0 1 .8.013c1.017.102 1.819.506 2.569.881s1.448.72 2.307.807c.858.086 1.902-.08 3.357-.807l.336-.168.168.336c.772 1.545.982 2.751.88 3.768-.1 1.016-.505 1.818-.88 2.568s-.72 1.448-.807 2.307c-.086.858.08 1.902.807 3.357l.168.336-.336.168c-1.545.772-2.751.982-3.768.88-1.016-.1-1.818-.505-2.568-.88s-1.448-.72-2.307-.807c-.858-.086-1.902.08-3.357.807l-.336.168-.168-.336c-.772-1.545-.982-2.751-.88-3.768.1-1.016.505-1.818.88-2.568s.72-1.448.807-2.307c.086-.858-.08-1.902-.807-3.357l-.168-.336.336-.168c1.159-.58 2.126-.842 2.967-.895zM6.404 17.371c.045-.257.441-.478 1.187-.662.984-.297 2.225-.257 3.331.13.425.124 1.705.807 2.578 1.15 1.911.681 3.708-.343 3.744-.364-.501-.436-.921-2.707-.621-3.795.472-1.946.802-1.788 1.401-3.385.591-1.648-.213-3.318-.354-3.709-2.46 1.392-4.563.617-6.674-.51-2.12-1.151-4.244.13-4.245.13.899 1.525.954 3.262.166 5.209-.209.362-.441.837-.698 1.424-.688 1.277-.627 2.737.185 4.382z" fill="#000" opacity=".3"/><path d="M4 4v3h3V4H4zm13 0v3h3V4h-3zM4 17v3h3v-3H4zm13 0h3v3h-3v-3zM5 5h1v1H5V5zm13 0h1v1h-1V5zm0 13v1h1v-1h-1zM5 18h1v1H5v-1z" fill="#303030"/></g></svg>