<svg width="24" height="24" viewBox="0 0 24 24" version="1.1" xmlns="http://www.w3.org/2000/svg"><title>mic-on</title><g fill="#303030" fill-rule="nonzero" stroke="none" stroke-width="1"><path d="M11.5 5.111c-.82 0-1.5.775-1.5 1.891v5.002c0 1.145.711 1.998 1.5 1.998s1.5-.853 1.5-1.998V7.002c0-1.116-.68-1.89-1.5-1.89zm0-1c1.385 0 2.5 1.23 2.5 2.891v5.002c0 1.662-1.115 2.998-2.5 2.998S9 13.666 9 12.004V7.002c0-1.662 1.115-2.89 2.5-2.89z"/><path d="M8 12v.5a3.5 3.5 0 0 0 7 0V12h1v.5a4.5 4.5 0 1 1-9 0V12h1"/><path d="M11 16h1v3h-1z"/></g></svg>