<svg width="24" height="24" viewBox="0 0 24 24" version="1.1" xmlns="http://www.w3.org/2000/svg"><title>news-unsubscribe copy</title><g stroke="none" stroke-width="1" fill="#303030" fill-rule="nonzero"><path d="M4 5c5.333-.002 10.667.006 16 .004V13h-7v3h1v1H5v1h9v1c-3.474-.002-6.526-.001-10 0V5zm1 1v6h14V6H5zm0 6v4h7v-4H5z"/><path d="M10 7v6.996L6 14V7.004L10 7zM7 8v5h2V8H7zM13 7h6v1h-6zM13 10h6v1h-6zM15.834 14l-.834.834 1.666 1.666L15 18.166l.834.834 1.666-1.666L19.166 19l.834-.834-1.666-1.666L20 14.834 19.166 14 17.5 15.666z"/></g></svg>