<svg width="24" height="24" viewBox="0 0 24 24" version="1.1" xmlns="http://www.w3.org/2000/svg"><title>object-straighten</title><path d="M15.052 6.205L5.213 7.953v.021L5.566 10H15.72l-.669-3.795zm-.015-.998c.285-.002.87.086 1 .824L16.912 11H4.725l-.5-2.875s-.173-.983.812-1.156l9.844-1.75s.061-.011.156-.012zM4 12h1.037L5 13H4v-1zm2 0h1v1H6v-1zm2 0h1v1H8v-1zm2 0h1v1h-1v-1zm2 0h1v1h-1v-1zm2 0h1v1h-1v-1zm2 0h1v1h-1v-1zm2 0h1v1h-1v-1zM6.953 17.793c.005 0 3.286-.582 9.843-1.747L16.606 15H6.447l.506 2.793zM5.25 14h12.191l.34 1.875c.174.985-.812 1.156-.812 1.156l-9.844 1.75s-.983.173-1.156-.812L5.25 14z" fill="#303030" fill-rule="nonzero" stroke="none" stroke-width="1"/></svg>