<svg width="24" height="24" viewBox="0 0 24 24" version="1.1" xmlns="http://www.w3.org/2000/svg"><title>outbox</title><g fill="#303030" fill-rule="nonzero" stroke="none" stroke-width="1"><path d="M5.998 4.994h5.531l-.31.381-.541.625H6v8h4c0 1.108.892 2 2 2s2-.892 2-2h4V6h-4.7l-.519-.625L12.47 5H18c1 0 1 1 1 1v12s0 1-1 1H6c-1.031-.063-1-1-1-1V6s-.031-.938.998-1.006zm0 10.055v2.971H18.02V15.05h-3.183c-.683 1.315-1.63 1.973-2.838 1.973-1.209 0-2.16-.658-2.856-1.973H5.997z"/><path d="M10.08 10H11v2h2v-2h.92L12 7.6 10.08 10zM12 6l4 5h-2v2h-4v-2H8l4-5z"/></g></svg>