<svg width="24" height="24" viewBox="0 0 24 24" version="1.1" xmlns="http://www.w3.org/2000/svg"><title>paint-none</title><path d="M13.885 8.086l-2.55 2.55L8.793 8.09c-.097-.095-.421-.127-.632.085-.212.211-.185.534-.09.63l2.553 2.556-2.509 2.509a.516.516 0 0 0 .044.67c.24.24.574.122.667.029l2.51-2.509 2.536 2.537c.097.1.407.181.683-.095.276-.276.124-.512.033-.603l-2.554-2.552 2.54-2.54c.052-.049.25-.33-.051-.63-.301-.302-.592-.136-.638-.09z" fill="#303030" fill-rule="nonzero" stroke="none" stroke-width="1"/></svg>