<svg width="24" height="24" viewBox="0 0 24 24" version="1.1" xmlns="http://www.w3.org/2000/svg"><title>paint-unknown</title><g stroke="none" stroke-width="1" fill="#303030" fill-rule="nonzero"><path d="M12.281 3c1.565 0 2.952.377 4.162 1.13 1.372.864 2.057 2.025 2.057 3.485 0 1.225-.419 2.19-1.258 2.897l-2.299 1.857c-.758.487-.76.752-.76 1.631h-5.04c-.277-2.153.637-2.487 1.347-3.162.194-.189 1.008-.811 1.96-1.621.592-.505 1.066-.785 1.066-1.365 0-.409-.171-.74-.51-.99-.323-.252-.709-.376-1.16-.376-.5 0-1.36.188-1.385 1.766l.023.777H5.5c0-.942.193-2.182.58-2.873.371-.706.928-1.304 1.67-1.79C8.976 3.548 10.265 3 12.281 3zM6.582 8.022h2.833c.227-1.696 1.09-2.543 2.585-2.543 2.125.122 2.575 1.915 2.544 2.543-.113.555-.202.793-.792 1.412-.416.376-1.4 1.204-2.95 2.485-.43.288-.646.649-.646 1.084.334-.002 1.376-.002 3.125 0 .057-.511.308-.894.753-1.148.72-.582 2.787-2.13 3.041-2.614.333-.437.9-2.224-.262-3.503-1.163-1.279-3.545-2.247-6.777-1.404-2.196.832-3.347 2.06-3.454 3.688zM10 17v3h3v-3h-3zm-1-1h5v5H9v-5z"/></g></svg>