<svg width="24" height="24" viewBox="0 0 24 24" version="1.1" xmlns="http://www.w3.org/2000/svg"><title>pgp-keys</title><path d="M12.03 11l-.236-.667A3.5 3.5 0 0 0 8.499 8a3.5 3.5 0 0 0 0 7 3.5 3.5 0 0 0 3.295-2.333l.235-.666L17 11.995v2.001h1v-2.008l1 .004v-.995L12.03 11zM19 9.997h1v.999h-1v-1zm-3 3h-.999L12.736 13A4.5 4.5 0 0 1 8.5 16a4.5 4.5 0 1 1 0-9 4.5 4.5 0 0 1 4.236 3L20 9.996v3l-1-.004v2.004h-3v-2zM8.5 10a1.5 1.5 0 1 1 0 3 1.5 1.5 0 0 1 0-3z" fill="#303030" fill-rule="nonzero" stroke="none" stroke-width="1"/></svg>