<svg width="24" height="24" viewBox="0 0 24 24" version="1.1" xmlns="http://www.w3.org/2000/svg"><title>pipe</title><g fill="#303030" fill-rule="nonzero" stroke="none" stroke-width="1"><path d="M14.24 8l.53.848-4.24 2.65-.53-.848zM13.844 16.25l.53-.848-3.845-2.403-.53.849z"/><path d="M16 10a3 3 0 1 1 0-6 3 3 0 0 1 0 6zm0-1a2 2 0 1 0 0-4 2 2 0 0 0 0 4zM16 20a3 3 0 1 1 0-6 3 3 0 0 1 0 6zm0-1a2 2 0 1 0 0-4 2 2 0 0 0 0 4zM8 15a3 3 0 1 1 0-6 3 3 0 0 1 0 6zm0-1a2 2 0 1 0 0-4 2 2 0 0 0 0 4z"/></g></svg>