<svg width="24" height="24" viewBox="0 0 24 24" version="1.1" xmlns="http://www.w3.org/2000/svg"><title>record</title><g fill="#303030" fill-rule="nonzero" stroke="none" stroke-width="1"><path d="M4.99 7.98c.01-.012.026-.025.03-.033a.25.25 0 0 0-.015.042l-.015-.01zM5 16c0 .045-.038-.012-.053-.02.024.012.07.02.053.02h9c.006.013.006-2.654 0-8 0 .016-.008-.03-.02-.053.008.015.065.053.02.053H5v8zm0-9h9c1 0 1 1 1 1v8c0 1-1 1-1 1H5s-1 0-1-1V8s0-1 1-1zM15 12l4-3.5V16l-4-4zm1.494.081l1.499 1.488V10.69l-1.499 1.391z"/></g></svg>