<svg width="24" height="24" viewBox="0 0 24 24" version="1.1" xmlns="http://www.w3.org/2000/svg"><title>remove-link</title><g fill="#303030" fill-rule="nonzero" stroke="none" stroke-width="1"><path d="M9 4C6.23 4 4 6.007 4 8.5S6.23 13 9 13h2v-.9H9c-1.999 0-4-1.781-4-3.6 0-1.819 2.001-3.6 4-3.6h2V4H9zM13 4v.9h2c1.975 0 4 1.774 4 3.6s-2.025 3.6-4 3.6h-2v.9h2c2.77 0 5-2.007 5-4.5S17.77 4 15 4h-2z"/><path d="M9 8v1h6V8zM16.086 15.379l-.707.707 1.414 1.414-1.414 1.414.707.707 1.414-1.414 1.414 1.414.707-.707-1.414-1.414 1.414-1.414-.707-.707-1.414 1.414z"/></g></svg>