<svg width="24" height="24" viewBox="0 0 24 24" version="1.1" xmlns="http://www.w3.org/2000/svg"><title>reply-all-rtl</title><g fill="#303030" fill-rule="nonzero" stroke="none" stroke-width="1"><path d="M13.5 5.5v1.043L18.471 10 13.5 13.457V14.5l6.471-4.5z"/><path d="M11 7.418v1.586H9c-2.427 0-4 1.658-4 4.25 0 .598.184 1.154.527 1.669-.06-.439-.04-.847.084-1.228.51-1.571 2.126-2.691 3.889-2.691H11v1.586l3.718-2.586L11 7.418zm-7 5.836c0-3.124 2-5.25 5-5.25h1v-2.5l6.469 4.5-6.469 4.5v-2.5H9v.04c-1.152.18-2.117.973-2.438 1.96-.437 1.346 1.434 3.995 1.438 4-.006-.002-4-1.503-4-4.75z"/></g></svg>