<svg width="24" height="24" viewBox="0 0 24 24" version="1.1" xmlns="http://www.w3.org/2000/svg"><title>restoration</title><path d="M16.99 9.73v-.557L13.6 6.006H7V10h9.99v-.27zM6.844 5.005a.45.45 0 0 1 .156 0h6.994l3.996 3.732V11H6V5.94c0-.7.563-.89.844-.934zM7 17.999l9.989.001.001-.015v-.127c.004-.034.004-.067.004-.123l.001-.839c0-.578 0-1.12-.003-2.573v-.18V14H7v4zm-.075-.02h.004-.004zm10.065.041a.685.685 0 0 0 .006-.02h-.006v.02zm-.006.04c.003-.008.006-.024.006.005v-.014a.076.076 0 0 0-.006.01zM6 13h11.99c.003 2.248.01 5.043 0 5.066 0 0 0 .934-1 .934H7s-1 0-1-.934V13z" fill="#303030" fill-rule="nonzero" stroke="none" stroke-width="1"/></svg>