<svg width="24" height="24" viewBox="0 0 24 24" version="1.1" xmlns="http://www.w3.org/2000/svg"><title>tool_color_eraser</title><path d="M11.09 6.188l-5 8.66 3.465 2 5-8.66-3.465-2zM9.397 17.049a.202.202 0 0 0 .016-.014l-.016.014zm1.552-12.006a.304.304 0 0 1 .21.03l4.33 2.5c.24.138.21.635-.067 1.114l-5 8.66c-.277.48-.694.756-.934.618l-4.33-2.5c-.24-.139-.21-.638.067-1.117l5-8.66c.207-.36.493-.604.724-.645zm4.208 9.47c-.087.11-.731.894-.87 1.083-.159.215-.244.365-.284.506a1.49 1.49 0 0 1-.004.037c.044.42.652.859 1.497.859.852 0 1.463-.446 1.498-.87l-.002-.024-.003-.023c-.017-.08-.103-.241-.284-.486-.14-.19-.784-.975-.87-1.084a12.675 12.675 0 0 1-.338-.449c-.105.146-.218.295-.34.45zm-1.16 1.577zm-.07.27zm3.07-.24v-.016c-.001-.003-.001.004-.002.01l.002.006zm0-.016a.8.8 0 0 1 0-.01v.01zm.004.076v-.004a12.738 12.738 0 0 1 0 .004zm-1.505-4.182c.104.284.243.561.395.834.77 1.35 1.975 2.275 2.091 3.127.004.013.012.026.014.039-.007.033 0 .063 0 .092 0 1.054-1.12 1.908-2.5 1.908s-2.5-.854-2.5-1.908c0-.03.01-.059.012-.088-.01-.017-.001-.03.002-.043.116-.852 1.321-1.775 2.092-3.125.15-.273.29-.552.394-.836z" fill="#303030" fill-rule="nonzero" stroke="none" stroke-width="1"/></svg>