<svg width="24" height="24" viewBox="0 0 24 24" version="1.1" xmlns="http://www.w3.org/2000/svg"><title>view-user-offline-kopete</title><g fill="#303030" fill-rule="nonzero" stroke="none" stroke-width="1"><path d="M10 6a2 2 0 1 0 0 4 2 2 0 0 0 0-4zm0-1a3 3 0 1 1 0 6 3 3 0 0 1 0-6zM15 7.95v.048c0 1-.3 1.958-.843 2.768.246.149.535.232.84.232.885 0 1.593-.689 1.593-1.525 0-.801-.648-1.467-1.479-1.524H15zm2.59 1.523c0 1.395-1.161 2.525-2.594 2.525a2.6 2.6 0 0 1-2.18-1.17 3.987 3.987 0 0 0 1.122-3.527c.257-.181.61-.299 1.062-.352 1.654 0 2.59 1.13 2.59 2.524zM10 12.996V13c6-.01 6 4 6 4v1H4v-1s0-4 6-4.004zm-4.98 3.978h9.99c-.335-1.956-1.992-2.74-3.952-2.907-.639-.086-1.308-.063-2.038-.033-2.465.279-3.798 1.259-4 2.94z"/><path d="M15 12.998c5 0 5 3 5 3v1h-3s-.01-1.34-.95-2.6c-.374-.5-.905-.977-1.603-1.377.181-.008.357-.021.553-.021v-.002zm2.866 3.016c.549-.012.928-.02 1.137-.022-.238-1.297-1.677-1.668-1.83-1.707.332.555.563 1.131.693 1.73z"/></g></svg>