<svg width="24" height="24" viewBox="0 0 24 24" version="1.1" xmlns="http://www.w3.org/2000/svg"><title>view-dual</title><g fill="#303030" fill-rule="nonzero" stroke="none" stroke-width="1"><path d="M14.181 6.003L12 6.002C8.612 6 6.82 5.999 5 6v12a7406.262 7406.262 0 0 1 7 .002c3.388.002 5.181.003 7 .002v-12h-4.819zM5 19H4v-1h1v1zM19 5.004h1v1h-1v-1zM4 5c5.333-.002 10.667.006 16 .004v14c-5.333.002-10.667-.006-16-.004V5z"/><path d="M11 7v10.004l-5 .002V7.004L11 7zM7 8v8h3V8H7zM18 7v10.004l-5 .002V7.004L18 7zm-4 1v8h3V8h-3z"/></g></svg>