<svg width="24" height="24" viewBox="0 0 24 24" version="1.1" xmlns="http://www.w3.org/2000/svg"><title>view-readermode</title><g stroke="none" stroke-width="1" fill="#303030" fill-rule="nonzero"><path d="M12 19v1H4V5.828l.516.016c1.353.04 2.222-.413 3.29-.69 1.008-.26 2.208-.208 3.749.645.764-.407 1.448-.681 2.015-.76.16-.022.312-.036.46-.039.441-.009.835.062 1.202.172.98.293 1.734.746 3.25.691L19 5.846v11.873l-1-.188V6.701c-1 .207-2.516-.4-3.05-.56a3.844 3.844 0 0 0-.612-.139 2.368 2.368 0 0 0-.658.006c-.435.064-.977.276-1.68.662V19zM4.999 6.832v9.38c1.131.196 2.117.13 2.96-.198 1.16-.471 1.934-.558 3.039-.304.016.006.016-3.02 0-9.08-.882-.504-1.78-.7-2.694-.59-.487.148-.547.158-1.427.443-.805.208-1.431.325-1.878.35zm-.007 10.405v1.727h6.017V16.76c-.765-.342-1.736-.259-2.913.25-.92.307-1.954.383-3.104.226z"/><path d="M12.001 19L12 20H4c.004-2.282.004-3.615 0-4 .932.241 2.63.577 4 0s2.503-.56 3.89 0L12 19zm-7.009-1.763v1.727h6.017V16.76c-.765-.342-1.736-.259-2.913.25-.92.307-1.954.383-3.104.226z"/><path d="M11 19l.001 1h8a630.883 630.883 0 0 1 0-4c-.932.241-2.63.577-4 0s-2.502-.56-3.889 0L11 19zm7.009-1.763v1.727h-6.016V16.76c.764-.342 1.735-.259 2.913.25.919.307 1.953.383 3.103.226z"/></g></svg>