<svg width="24" height="24" viewBox="0 0 24 24" version="1.1" xmlns="http://www.w3.org/2000/svg"><title>view-more</title><g fill="#303030" fill-rule="nonzero" stroke="none" stroke-width="1"><path d="M10 15.5c0-.822.678-1.5 1.5-1.5s1.5.678 1.5 1.5-.678 1.5-1.5 1.5-1.5-.678-1.5-1.5zm2 0a.5.5 0 1 0-1 0 .5.5 0 0 0 1 0zM10 11.5c0-.822.678-1.5 1.5-1.5s1.5.678 1.5 1.5-.678 1.5-1.5 1.5-1.5-.678-1.5-1.5zm2 0a.5.5 0 1 0-1 0 .5.5 0 0 0 1 0zM10 7.5c0-.822.678-1.5 1.5-1.5s1.5.678 1.5 1.5S12.322 9 11.5 9 10 8.322 10 7.5zm2 0a.5.5 0 1 0-1 0 .5.5 0 0 0 1 0z"/></g></svg>