<svg width="24" height="24" viewBox="0 0 24 24" version="1.1" xmlns="http://www.w3.org/2000/svg"><title>view-split-top-bottom.svg</title><g fill="#303030" fill-rule="nonzero" stroke="none" stroke-width="1"><path d="M17.997 14.181L17.998 12C18 8.612 18.001 6.82 18 5H6v4.819L5.997 12c-.002 3.387-.003 5.18-.002 6.999h12v-4.819zM19 4c.002 5.333-.006 10.667-.004 16h-14C4.994 14.667 5.002 9.333 5 4h14z"/><path d="M17 11H6.996l-.002-5h10.002L17 11zm-1-4H8v3h8V7zM17 18H6.996l-.002-5h10.002L17 18zm-1-4H8v3h8v-3z"/></g></svg>