<svg width="24" height="24" viewBox="0 0 24 24" version="1.1" xmlns="http://www.w3.org/2000/svg"><title>view-list-images</title><g fill="#303030" fill-rule="nonzero" stroke="none" stroke-width="1"><path d="M9.414 7.004l-1 1H7c-.482 0-.707.15-.856.447A1.403 1.403 0 0 0 6 9.004v7c0 .482.15.707.447.855.211.106.444.145.553.145h10c.482 0 .707-.15.856-.447.105-.212.144-.444.144-.553v-7c0-.482-.15-.707-.447-.856A1.403 1.403 0 0 0 17 8.004h-1.414l-1-1H9.414zm-.414-1h6l1 1h1s2 0 2 2v7s0 2-2 2H7s-2 0-2-2v-7s0-2 2-2h1l1-1z"/><path d="M12 9.004a3 3 0 1 1 0 6 3 3 0 0 1 0-6zM12 14a2 2 0 1 0 0-4 2 2 0 0 0 0 4z"/></g></svg>