<svg width="24" height="24" viewBox="0 0 24 24" version="1.1" xmlns="http://www.w3.org/2000/svg"><title>view-compact</title><path d="M6.25 8.004a.25.25 0 0 0-.25.25v1.5c0 .138.112.25.25.25h1.5a.25.25 0 0 0 .25-.25v-1.5a.25.25 0 0 0-.25-.25h-1.5zm3 0a.25.25 0 0 0-.25.25v1.5c0 .138.111.25.25.25h1.5a.25.25 0 0 0 .25-.25v-1.5a.25.25 0 0 0-.25-.25h-1.5zm3 0a.25.25 0 0 0-.25.25v1.5c0 .138.112.25.25.25h1.5a.25.25 0 0 0 .25-.25v-1.5a.25.25 0 0 0-.25-.25h-1.5zm3 0a.25.25 0 0 0-.25.25v1.5c0 .138.111.25.25.25h1.5a.25.25 0 0 0 .25-.25v-1.5a.25.25 0 0 0-.25-.25h-1.5zm-9 3a.25.25 0 0 0-.25.25v1.5c0 .138.112.25.25.25h1.5a.25.25 0 0 0 .25-.25v-1.5a.25.25 0 0 0-.25-.25h-1.5zm3 0a.25.25 0 0 0-.25.25v1.5c0 .138.111.25.25.25h1.5a.25.25 0 0 0 .25-.25v-1.5a.25.25 0 0 0-.25-.25h-1.5zm3 0a.25.25 0 0 0-.25.25v1.5c0 .138.112.25.25.25h1.5a.25.25 0 0 0 .25-.25v-1.5a.25.25 0 0 0-.25-.25h-1.5zm3 0a.25.25 0 0 0-.25.25v1.5c0 .138.111.25.25.25h1.5a.25.25 0 0 0 .25-.25v-1.5a.25.25 0 0 0-.25-.25h-1.5zm-9 3a.25.25 0 0 0-.25.25v1.5c0 .138.112.25.25.25h1.5a.25.25 0 0 0 .25-.25v-1.5a.25.25 0 0 0-.25-.25h-1.5zm3 0a.25.25 0 0 0-.25.25v1.5c0 .138.111.25.25.25h1.5a.25.25 0 0 0 .25-.25v-1.5a.25.25 0 0 0-.25-.25h-1.5zm3 0a.25.25 0 0 0-.25.25v1.5c0 .138.112.25.25.25h1.5a.25.25 0 0 0 .25-.25v-1.5a.25.25 0 0 0-.25-.25h-1.5zm3 0a.25.25 0 0 0-.25.25v1.5c0 .138.111.25.25.25h1.5a.25.25 0 0 0 .25-.25v-1.5a.25.25 0 0 0-.25-.25h-1.5z" fill="#303030" fill-rule="nonzero" stroke="none" stroke-width="1"/></svg>