<svg width="24" height="24" viewBox="0 0 24 24" version="1.1" xmlns="http://www.w3.org/2000/svg"><title>view-pim-summary</title><g fill="#303030" fill-rule="nonzero" stroke="none" stroke-width="1"><path d="M12 6.004c-3.29 0-6 2.71-6 6s2.71 6 6 6 6-2.71 6-6-2.71-6-6-6zm0-1c3.842 0 7 3.158 7 7s-3.158 7-7 7-7-3.158-7-7 3.158-7 7-7z"/><path d="M12 9a1 1 0 1 0 0 2 1 1 0 0 0 0-2zm0-1a2 2 0 1 1 0 4 2 2 0 0 1 0-4zM14.847 15a1.323 1.323 0 0 0-.115-.16c-.42-.504-1.26-.84-2.732-.84-1.47 0-2.311.337-2.732.84a1.324 1.324 0 0 0-.114.16h5.693zM12 13c4-.002 4 2.4 4 2.4v.6H8v-.6s0-2.398 4-2.4z"/></g></svg>