<svg width="24" height="24" viewBox="0 0 24 24" version="1.1" xmlns="http://www.w3.org/2000/svg"><title>view-more-horizontal</title><g fill="#303030" fill-rule="nonzero" stroke="none" stroke-width="1"><path d="M7.5 10c.822 0 1.5.678 1.5 1.5S8.322 13 7.5 13 6 12.322 6 11.5 6.678 10 7.5 10zm0 2a.5.5 0 1 0 0-1 .5.5 0 0 0 0 1zM11.5 10c.822 0 1.5.678 1.5 1.5s-.678 1.5-1.5 1.5-1.5-.678-1.5-1.5.678-1.5 1.5-1.5zm0 2a.5.5 0 1 0 0-1 .5.5 0 0 0 0 1zM15.5 10c.822 0 1.5.678 1.5 1.5s-.678 1.5-1.5 1.5-1.5-.678-1.5-1.5.678-1.5 1.5-1.5zm0 2a.5.5 0 1 0 0-1 .5.5 0 0 0 0 1z"/></g></svg>