<svg width="24" height="24" viewBox="0 0 24 24" version="1.1" xmlns="http://www.w3.org/2000/svg"><title>window</title><path d="M6 5h12s.076.004.182.023a.9.9 0 0 1 .472.204.88.88 0 0 1 .065.054c.019.021.037.043.054.065.1.114.173.268.204.472C18.996 5.924 19 6 19 6v12c0 1-1 1-1 1H6s-1 0-1-1V6s.004-.076.023-.182a.9.9 0 0 1 .204-.472.86.86 0 0 1 .054-.065.86.86 0 0 1 .065-.054.9.9 0 0 1 .472-.204C5.924 5.004 6 5 6 5zm0 5v8h12v-8H6zm0-4v3h12V6H6z" fill="#303030" fill-rule="nonzero" stroke="none" stroke-width="1"/></svg>