<svg width="128" height="128" version="1.1" viewBox="0 0 128 128" xmlns="http://www.w3.org/2000/svg" xmlns:xlink="http://www.w3.org/1999/xlink">
<defs>
<filter id="folder-documents-stack-a" x="-14.5%" y="-20.8%" width="129.1%" height="143.8%">
<feOffset dy="2" in="SourceAlpha" result="shadowOffsetOuter1"/>
<feGaussianBlur in="shadowOffsetOuter1" result="shadowBlurOuter1" stdDeviation="3"/>
<feColorMatrix in="shadowBlurOuter1" result="shadowMatrixOuter1" values="0 0 0 0 0   0 0 0 0 0   0 0 0 0 0  0 0 0 0.5 0"/>
<feMerge>
<feMergeNode in="shadowMatrixOuter1"/>
<feMergeNode in="SourceGraphic"/>
</feMerge>
</filter>
<linearGradient id="folder-documents-stack-d" x1="50%" x2="50%" y2="98.094%">
<stop stop-color="#FFAD34" offset="0"/>
<stop stop-color="#BEBEBE" offset="1"/>
</linearGradient>
<path id="folder-documents-stack-c" d="m94.995 0c1.6594 0 3.0047 1.3439 3.0047 3.0084v83.658c0 1.4871-1.2222 2.6667-2.6875 2.6667h-80.625c-1.4849 0-2.6875-1.1541-2.6875-2.6667v-79.676c0-1.6519 1.3346-2.991 3.0012-2.991l50.099 1.3e-7c1.1009 0 2.6232-0.625 3.4146-1.4103l1.1887-1.1795c0.78494-0.77886 2.3154-1.4103 3.4193-1.4103h21.872z"/>
<filter id="folder-documents-stack-b" x="-16.3%" y="-11.2%" width="132.6%" height="131.3%">
<feOffset dy="4" in="SourceAlpha" result="shadowOffsetOuter1"/>
<feGaussianBlur in="shadowOffsetOuter1" result="shadowBlurOuter1" stdDeviation="4"/>
<feColorMatrix in="shadowBlurOuter1" values="0 0 0 0 0   0 0 0 0 0   0 0 0 0 0  0 0 0 0.5 0"/>
</filter>
<linearGradient id="folder-documents-stack-e" x1="50%" x2="50%" y2="98.094%">
<stop stop-color="#D9630F" offset="0"/>
<stop stop-color="#BEBEBE" offset="1"/>
</linearGradient>
<linearGradient id="folder-documents-stack-f" x1="50%" x2="50%" y2="96.707%">
<stop stop-color="#FFA221" offset="0"/>
<stop stop-color="#FF7248" offset="1"/>
</linearGradient>
<linearGradient id="folder-documents-stack-g" x1="50%" x2="50%" y2="100%">
<stop stop-color="#FFF" offset="0"/>
<stop stop-color="#FFE3C0" offset="1"/>
</linearGradient>
<radialGradient id="folder-documents-stack-h" cx="79.957%" cy="71.832%" r="100%" gradientTransform="matrix(0 -1 .64286 0 .338 1.518)">
<stop stop-color="#FA9361" offset="0"/>
<stop stop-color="#5F1CF7" offset="1"/>
</radialGradient>
<linearGradient id="folder-documents-stack-i" x1="50%" x2="50%" y1="20.953%" y2="100%">
<stop stop-color="#0E3BAC" offset="0"/>
<stop stop-color="#1A0570" offset="1"/>
</linearGradient>
<filter id="folder-documents-stack-j" x="-100%" y="-9.4%" width="300%" height="118.8%">
<feGaussianBlur in="SourceGraphic" stdDeviation="2"/>
</filter>
<linearGradient id="folder-documents-stack-k" x1="50%" x2="50%" y2="100%">
<stop stop-color="#242424" offset="0"/>
<stop offset="1"/>
</linearGradient>
<linearGradient id="folder-documents-stack-l" x1="50.345%" x2="49.934%" y1="45.328%" y2="60.059%">
<stop stop-color="#463417" offset="0"/>
<stop stop-color="#281212" offset="1"/>
</linearGradient>
<linearGradient id="folder-documents-stack-m" x1="50%" x2="50%" y2="100%">
<stop stop-color="#080808" offset="0"/>
<stop stop-color="#481D1D" offset="1"/>
</linearGradient>
<linearGradient id="folder-documents-stack-n" x1="11.779%" x2="76.358%" y1="79.249%" y2="79.249%">
<stop stop-color="#6A6A6A" offset="0"/>
<stop stop-color="#0A0A0A" offset="1"/>
</linearGradient>
</defs>
<g transform="translate(9 23)" fill="none" fill-rule="evenodd" filter="url(#folder-documents-stack-a)">
<use fill="#000" filter="url(#folder-documents-stack-b)" xlink:href="#folder-documents-stack-c"/>
<use fill="url(#folder-documents-stack-d)" xlink:href="#folder-documents-stack-c"/>
<path d="m95.007 1c1.6527 0 2.9926 1.34 2.9926 2.9986v82.309h-86v-78.317c0-1.6514 1.3452-2.9902 2.9964-2.9902l51.108 7e-8c1.1027 0 2.6266-0.625 3.418-1.4103l1.1887-1.1795c0.78494-0.77886 2.3117-1.4103 3.4295-1.4103h20.866z" fill="url(#folder-documents-stack-e)"/>
<path d="m7 89-2e-8 -77.01c0-1.6514 1.3388-2.9901 3.0049-2.9901h89.99c1.6596 0 3.0049 1.3383 3.0049 2.9901v77.01h-96z" fill="#FFF"/>
<path d="m7 87.333v-74.326c0-1.6612 1.3388-3.0078 3.0049-3.0078h89.99c1.6596 0 3.0049 1.3423 3.0049 3.0078v74.326h-96z" fill="#F1F1F1"/>
<path d="m2.9993 96c-1.6565 0-2.9993-1.338-2.9993-2.9912l1.769e-9 -76.018c3.8443e-11 -1.652 1.3511-2.9912 2.9993-2.9912h104c1.6565 0 2.9993 1.338 2.9993 2.9912v76.018c0 1.652-1.3511 2.9912-2.9993 2.9912h-104z" fill="url(#folder-documents-stack-f)"/>
<polygon points="16.027 31 72 31 71.951 95 16 95" fill="#1D1D1D" fill-opacity=".1"/>
<polygon points="17.026 32 71 32 70.953 96 17 96" fill="url(#folder-documents-stack-g)"/>
<g transform="translate(22 38)">
<path d="m0.5 0.5v17h27v-17h-27z" fill="url(#folder-documents-stack-h)" stroke="#000" stroke-opacity=".1"/>
<circle cx="22" cy="12" r="2" fill="#FF5151"/>
<path d="m1 17h17l-3.927-5.0799c-0.33778-0.43695-0.96582-0.51734-1.4028-0.17956-0.0093427 0.0072223-0.018557 0.01461-0.027638 0.022158l-1.8233 1.5156c-0.42471 0.35304-1.0552 0.29495-1.4082-0.12976-0.03998-0.048095-0.075359-0.099835-0.10567-0.15454l-1.9379-3.4971c-0.26769-0.48307-0.87631-0.65767-1.3594-0.38998-0.15044 0.083367-0.27684 0.20413-0.36697 0.35061l-4.6411 7.5425z" fill="url(#folder-documents-stack-i)"/>
</g>
<path d="m52 38h14v2h-14v-2zm0 4h14v2h-14v-2zm0 4h14v2h-14v-2zm0 4h14v2h-14v-2zm0 4h14v2h-14v-2zm-30 4h44v2h-44v-2zm0 4h44v2h-44v-2zm0 4h44v2h-44v-2zm0 4h44v2h-44v-2zm0 4h44v2h-44v-2zm0 4h28v2h-28v-2zm0 8h44v2h-44v-2z" fill="#000" fill-opacity=".5"/>
<g transform="translate(83 31)">
<polygon points="2 10.313 5 0 8 10.313 8 64 2 64" fill="#7B3400" fill-opacity=".3" filter="url(#folder-documents-stack-j)"/>
<polygon points="0 10 6 10 6 65 0 65" fill="url(#folder-documents-stack-k)"/>
<polygon points="0 10 2 10 2 65 0 65" fill="url(#folder-documents-stack-l)"/>
<polygon points="4 10 6 10 6 65 4 65" fill="url(#folder-documents-stack-m)"/>
<polygon points="3 0 6 10 0 10" fill="#FFDCAC"/>
<polygon points="3 0 4 10 2 10" fill="#D8915B"/>
<polygon points="3 0 6 10 4 10" fill="#965600"/>
<polygon points="3.6 2 2.4 2 3 0" fill="url(#folder-documents-stack-n)"/>
</g>
<g transform="translate(0 14)">
<path d="m1.745e-9 3.9912 2.3271e-11 -1c3.8443e-11 -1.652 1.3511-2.9912 2.9993-2.9912h104c1.6565 0 2.9993 1.338 2.9993 2.9912v1c0-1.6532-1.3428-2.9912-2.9993-2.9912h-104c-1.6482 0-2.9993 1.3392-2.9993 2.9912z" fill="#FFF" fill-opacity=".3"/>
<path d="m3.9993-3.5527e-15c-1.6482 0-2.9993 1.3392-2.9993 2.9912v76.018c0 1.6532 1.3428 2.9912 2.9993 2.9912h-1c-1.6565 0-2.9993-1.338-2.9993-2.9912l1.769e-9 -76.018c3.8443e-11 -1.652 1.3511-2.9912 2.9993-2.9912h1zm102 0h1c1.6565 0 2.9993 1.338 2.9993 2.9912v76.018c0 1.652-1.3511 2.9912-2.9993 2.9912h-1c1.6482 0 2.9993-1.3392 2.9993-2.9912v-76.018c0-1.6532-1.3428-2.9912-2.9993-2.9912z" fill="#FFF" fill-opacity=".06"/>
<path d="m-6.6395e-13 78.009c-3.8472e-11 1.6532 1.3428 2.9912 2.9993 2.9912h104c1.6482 0 2.9993-1.3392 2.9993-2.9912v1c0 1.652-1.3511 2.9912-2.9993 2.9912h-104c-1.6565 0-2.9993-1.338-2.9993-2.9912l2.3271e-11 -1z" fill="#000" fill-opacity=".3"/>
</g>
</g>
</svg>
