<svg width="128" height="128" version="1.1" viewBox="0 0 128 128" xmlns="http://www.w3.org/2000/svg">
<g transform="translate(9 23)" fill="none" fill-rule="evenodd">
<path d="m8.5 11.99v3.5099h-5.5007c-0.82414 0-1.4993 0.67204-1.4993 1.4912v76.018c0 0.82338 0.66983 1.4912 1.4993 1.4912h104c0.82414 0 1.4993-0.67204 1.4993-1.4912v-76.018c0-0.82338-0.66983-1.4912-1.4993-1.4912h-5.5007v-3.5099c0-0.82149-0.67197-1.4901-1.5049-1.4901h-3.4951v-7.4916c0-0.83523-0.67282-1.5084-1.5047-1.5084h-21.872c-0.70768 0-1.8585 0.47469-2.3628 0.97503l-1.1887 1.1795c-1.07 1.0617-2.9712 1.8455-4.4712 1.8455l-50.099-1.3e-7c-0.83549 0-1.5012 0.66484-1.5012 1.491v3.509h-3.4951c-0.83663 0-1.5049 0.66602-1.5049 1.4901z" fill="#000" fill-opacity=".5" stroke="#FFF" stroke-opacity=".4" stroke-width="3"/>
<g transform="translate(35 28)">
<circle cx="20" cy="20" r="22" fill="#000" fill-opacity=".4" stroke="#FFF" stroke-opacity=".5" stroke-width="4"/>
<path transform="rotate(-45 20 18)" d="m16 10v12h12v4h-16v-16h4z" fill="#FFF"/>
</g>
</g>
</svg>
