<svg width="128" height="128" version="1.1" viewBox="0 0 128 128" xmlns="http://www.w3.org/2000/svg" xmlns:xlink="http://www.w3.org/1999/xlink">
<defs>
<filter id="stack-app-a" x="-14.5%" y="-16.7%" width="129.1%" height="133.3%">
<feOffset dy="2" in="SourceAlpha" result="shadowOffsetOuter1"/>
<feGaussianBlur in="shadowOffsetOuter1" result="shadowBlurOuter1" stdDeviation="3"/>
<feColorMatrix in="shadowBlurOuter1" result="shadowMatrixOuter1" values="0 0 0 0 0   0 0 0 0 0   0 0 0 0 0  0 0 0 0.5 0"/>
<feMerge>
<feMergeNode in="shadowMatrixOuter1"/>
<feMergeNode in="SourceGraphic"/>
</feMerge>
</filter>
<linearGradient id="stack-app-c" x1="50%" x2="50%" y2="97.162%">
<stop stop-color="#582BFF" offset="0"/>
<stop stop-color="#7D5FFF" offset="1"/>
</linearGradient>
<path id="stack-app-b" d="m2.9993 96c-1.6565 0-2.9993-1.338-2.9993-2.9912l1.769e-9 -76.018c3.8443e-11 -1.652 1.3511-2.9912 2.9993-2.9912h104c1.6565 0 2.9993 1.338 2.9993 2.9912v76.018c0 1.652-1.3511 2.9912-2.9993 2.9912h-104z"/>
<linearGradient id="stack-app-e" x1="66.942%" x2="46.177%" y1="100%" y2="-16.413%">
<stop stop-color="#5700FC" offset="0"/>
<stop stop-color="#5867FF" stop-opacity="0" offset="1"/>
</linearGradient>
<linearGradient id="stack-app-f" x1="100%" x2="8.859%" y1="77.19%" y2="4.533%">
<stop stop-color="#D1C0FF" offset="0"/>
<stop stop-color="#8375FF" offset="1"/>
</linearGradient>
<linearGradient id="stack-app-g" x1="62.412%" x2="43.803%" y1="25.945%" y2="86.932%">
<stop stop-color="#5C3FFF" offset="0"/>
<stop stop-color="#816AFF" stop-opacity=".054" offset="1"/>
</linearGradient>
<linearGradient id="stack-app-h" x1="50%" x2="50%" y1="-22.147%" y2="100%">
<stop stop-color="#B6A2FF" offset="0"/>
<stop stop-color="#6249F0" offset="1"/>
</linearGradient>
<linearGradient id="stack-app-i" x1="50%" x2="50%" y2="392.79%">
<stop stop-color="#FFF" stop-opacity=".8" offset="0"/>
<stop stop-color="#882AFF" stop-opacity=".117" offset="1"/>
</linearGradient>
<linearGradient id="stack-app-j" x1="50%" x2="50%" y1="-22.147%" y2="100%">
<stop stop-color="#CAA2FF" stop-opacity=".3" offset="0"/>
<stop stop-color="#6249F0" offset="1"/>
</linearGradient>
<linearGradient id="stack-app-k" x1="50%" x2="50%" y2="100%">
<stop stop-color="#FFF" stop-opacity=".1" offset="0"/>
<stop stop-color="#C6B9FF" offset="1"/>
</linearGradient>
<linearGradient id="stack-app-l" x1="-3.822%" y1="55.584%" y2="40.499%">
<stop stop-color="#B9B7FF" offset="0"/>
<stop stop-color="#8174FF" offset="1"/>
</linearGradient>
</defs>
<g transform="translate(9 23)" fill="none" fill-rule="evenodd" filter="url(#stack-app-a)">
<path d="m94.995 0c1.6594 0 3.0047 1.3439 3.0047 3.0084v83.658c0 1.4871-1.2222 2.6667-2.6875 2.6667h-80.625c-1.4849 0-2.6875-1.1541-2.6875-2.6667v-79.676c0-1.6519 1.3346-2.991 3.0012-2.991l50.099 1.3e-7c1.1009 0 2.6232-0.625 3.4146-1.4103l1.1887-1.1795c0.78494-0.77886 2.3154-1.4103 3.4193-1.4103h21.872z" fill="#9252FF"/>
<path d="m95.007 1c1.6527 0 2.9926 1.34 2.9926 2.9986v82.309h-86v-78.317c0-1.6514 1.3452-2.9902 2.9964-2.9902l51.108 7e-8c1.1027 0 2.6266-0.625 3.418-1.4103l1.1887-1.1795c0.78494-0.77886 2.3117-1.4103 3.4295-1.4103h20.866z" fill="#4A00D5"/>
<path d="m7 89-2e-8 -77.01c0-1.6514 1.3388-2.9901 3.0049-2.9901h89.99c1.6596 0 3.0049 1.3383 3.0049 2.9901v77.01h-96z" fill="#FFF"/>
<path d="m7 87.333v-74.326c0-1.6612 1.3388-3.0078 3.0049-3.0078h89.99c1.6596 0 3.0049 1.3423 3.0049 3.0078v74.326h-96z" fill="#D7D7D7"/>
<mask id="stack-app-d" fill="#fff">
<use xlink:href="#stack-app-b"/>
</mask>
<use fill="url(#stack-app-c)" xlink:href="#stack-app-b"/>
<g mask="url(#stack-app-d)">
<g transform="translate(4.5 10)">
<polygon points="0 66 50.019 85.22 76.039 75.22 26.019 56" fill="url(#stack-app-e)"/>
<polygon transform="matrix(-1 0 0 1 124.04 0)" points="24 66 74.019 85.22 100.04 75.22 50.019 56" fill="url(#stack-app-e)"/>
<g transform="translate(16 26)">
<path d="m33.5 20v34l-26-10v-19.244l18.833 7.2436 7.1666-12z" fill="url(#stack-app-f)"/>
<polygon points="7.5 10 33.5 20 27.5 38 7.5 30.309" fill="url(#stack-app-g)" opacity=".5"/>
<polygon points="7.5 10 33.5 20 26.333 32 0.333 22" fill="url(#stack-app-h)"/>
<polygon points="7.5 10 33.5 20 59.519 10 33.519 0" fill="url(#stack-app-i)"/>
<polygon points="33.5 20 59.519 10 33.519 0" fill="url(#stack-app-j)"/>
<path d="m8.8933 10 24.607 9.4641 24.626-9.4645-24.607-9.4641-24.626 9.4645z" stroke="url(#stack-app-k)"/>
<path d="m59.5 24.756v19.244l-26 10v-34l7.1666 12 18.833-7.2436z" fill="url(#stack-app-l)"/>
<polygon transform="matrix(-1 0 0 1 93 0)" points="33.5 10 59.5 20 53.5 38 33.5 30.309" fill="url(#stack-app-g)" opacity=".5"/>
<polygon transform="matrix(-1 0 0 1 100.17 0)" points="40.667 10 66.667 20 59.5 32 33.5 22" fill="url(#stack-app-h)"/>
</g>
<g transform="translate(4)">
<circle cx="58" cy="26" r="2" fill="#FFD506"/>
<circle cx="31" cy="23" r="1" fill="#FF00FE"/>
<circle cx="4" cy="20" r="2" fill="#4000E0"/>
<rect transform="rotate(23 42.622 12.622)" x="40.622" y="10.622" width="4" height="4" fill="#4000E0"/>
<rect transform="rotate(23 82.678 33.311)" x="81.678" y="32.311" width="2" height="2" fill="#EB5959"/>
<rect transform="rotate(45 49.414 37.414)" x="48.414" y="36.414" width="2" height="2" fill="#4000E0"/>
<rect transform="rotate(45 45.414 39.414)" x="44.414" y="38.414" width="2" height="2" fill="#FF00FE" opacity=".2"/>
<rect transform="rotate(45 41.414 41.414)" x="40.414" y="40.414" width="2" height="2" fill="#8A0991"/>
<rect transform="rotate(45 47.414 43.414)" x="46.414" y="42.414" width="2" height="2" fill="#FFD506"/>
<circle cx="49" cy="31" r="1" fill="#FFF"/>
<circle cx="53" cy="39" r="1" fill="#6D39FF"/>
<circle cx="41" cy="39" r="1" fill="#FFF"/>
<rect transform="rotate(45 49.414 21.414)" x="48.414" y="20.414" width="2" height="2" fill="#8A0991"/>
<rect transform="rotate(72 43.57 34.211)" x="41.569" y="33.211" width="4" height="2" fill="#FFF" opacity=".6"/>
<rect transform="rotate(45 55.414 19.414)" x="54.414" y="18.414" width="2" height="2" fill="#6D39FF"/>
<rect transform="rotate(45 23.414 23.414)" x="22.414" y="22.414" width="2" height="2" fill="#4000E0"/>
<rect transform="rotate(45 37.414 25.414)" x="36.414" y="24.414" width="2" height="2" fill="#9757FF"/>
<rect transform="rotate(45 23.414 19.414)" x="22.414" y="18.414" width="2" height="2" fill="#FFD506"/>
<rect transform="rotate(45 67.414 26)" x="65.414" y="24" width="4" height="4" fill="#7DAC00" opacity=".9"/>
<rect transform="rotate(45 65.414 21.414)" x="64.414" y="20.414" width="2" height="2" fill="#8A0991"/>
<rect transform="rotate(45 62.364 36.121)" x="61.364" y="34.121" width="2" height="4" fill="#00C894"/>
<rect transform="rotate(45 32 38.586)" x="31" y="37.586" width="2" height="2" fill="#6D39FF"/>
<rect transform="rotate(45 40 36.586)" x="39" y="35.586" width="2" height="2" fill="#FF00FE" opacity=".3"/>
<rect transform="rotate(76 58 38.586)" x="57" y="37.586" width="2" height="2" fill="#FFF" opacity=".3"/>
<rect transform="rotate(45 54.828 34.828)" x="52.828" y="32.828" width="4" height="4" fill="#9757FF"/>
<rect transform="rotate(45 62.243 12.243)" x="59.243" y="9.243" width="6" height="6" fill="#00C894"/>
<rect transform="rotate(24 82.601 6.601)" x="77.601" y="1.601" width="10" height="10" fill="#396EFF"/>
<rect transform="rotate(-51 10.855 8.439)" x="4.855" y="2.439" width="12" height="12" fill="#88A1FF"/>
<rect transform="rotate(45 4.243 28.243)" x="1.243" y="25.243" width="6" height="6" fill="#FF8100" fill-opacity=".8"/>
<rect transform="rotate(23 22.678 43.311)" x="21.678" y="42.311" width="2" height="2" fill="#7DAC00" opacity=".5"/>
<rect transform="rotate(45 23.536 34.121)" x="21.536" y="33.121" width="4" height="2" fill="#FF00FE"/>
<g fill="#FE002E">
<polygon points="16 29 14.824 29.618 15.049 28.309 14.098 27.382 15.412 27.191 16 26 16.588 27.191 17.902 27.382 16.951 28.309 17.176 29.618"/>
<polygon transform="rotate(-37 58.8 30.8)" points="58.801 31.801 57.625 32.419 57.85 31.11 56.899 30.183 58.213 29.992 58.801 28.801 59.389 29.992 60.703 30.183 59.752 31.11 59.976 32.419"/>
<polygon transform="rotate(-37 36.8 10.8)" points="36.801 11.801 35.625 12.419 35.85 11.11 34.899 10.183 36.213 9.992 36.801 8.801 37.389 9.992 38.703 10.183 37.752 11.11 37.976 12.419"/>
</g>
<g fill="#FE9D0B">
<polygon transform="rotate(-37 40.8 28.8)" points="40.801 29.801 39.625 30.419 39.85 29.11 38.899 28.183 40.213 27.992 40.801 26.801 41.389 27.992 42.703 28.183 41.752 29.11 41.976 30.419"/>
<polygon transform="rotate(-37 56.201 6.998)" points="56.201 8.498 54.438 9.425 54.775 7.461 53.348 6.071 55.32 5.784 56.201 3.998 57.083 5.784 59.055 6.071 57.628 7.461 57.965 9.425"/>
<polygon transform="rotate(-37 44.201 42.998)" points="44.201 43.498 43.614 43.807 43.726 43.152 43.25 42.689 43.907 42.593 44.201 41.998 44.495 42.593 45.152 42.689 44.677 43.152 44.789 43.807"/>
<polygon transform="rotate(-13 51.2 41.2)" points="51.199 41.699 50.612 42.008 50.724 41.354 50.248 40.89 50.905 40.795 51.199 40.199 51.493 40.795 52.15 40.89 51.675 41.354 51.787 42.008"/>
</g>
<polygon transform="rotate(45 77.536 21.536)" points="75.536 18.536 79.536 18.536 79.536 24.536 75.536 24.536" fill="#88A1FF" opacity=".8"/>
<polygon transform="rotate(-18 25.78 11.162)" points="22.78 8.162 28.78 8.162 28.78 14.162 22.78 14.162" fill="#00C894"/>
<polygon transform="rotate(7 32.52 28.52)" points="30.52 26.52 34.52 26.52 34.52 30.52 30.52 30.52" fill="#EB5959"/>
</g>
</g>
</g>
<g mask="url(#stack-app-d)">
<g transform="translate(0 14)">
<path d="m1.745e-9 3.9912 2.3271e-11 -1c3.8443e-11 -1.652 1.3511-2.9912 2.9993-2.9912h104c1.6565 0 2.9993 1.338 2.9993 2.9912v1c0-1.6532-1.3428-2.9912-2.9993-2.9912h-104c-1.6482 0-2.9993 1.3392-2.9993 2.9912z" fill="#FFF" fill-opacity=".3"/>
<path d="m3.9993-3.5527e-15c-1.6482 0-2.9993 1.3392-2.9993 2.9912v76.018c0 1.6532 1.3428 2.9912 2.9993 2.9912h-1c-1.6565 0-2.9993-1.338-2.9993-2.9912l1.769e-9 -76.018c3.8443e-11 -1.652 1.3511-2.9912 2.9993-2.9912h1zm102 0h1c1.6565 0 2.9993 1.338 2.9993 2.9912v76.018c0 1.652-1.3511 2.9912-2.9993 2.9912h-1c1.6482 0 2.9993-1.3392 2.9993-2.9912v-76.018c0-1.6532-1.3428-2.9912-2.9993-2.9912z" fill="#FFF" fill-opacity=".06"/>
<path d="m-6.6395e-13 78.009c-3.8472e-11 1.6532 1.3428 2.9912 2.9993 2.9912h104c1.6482 0 2.9993-1.3392 2.9993-2.9912v1c0 1.652-1.3511 2.9912-2.9993 2.9912h-104c-1.6565 0-2.9993-1.338-2.9993-2.9912l2.3271e-11 -1z" fill="#25006C" fill-opacity=".5"/>
</g>
</g>
</g>
</svg>
