<svg width="128" height="128" version="1.1" viewBox="0 0 128 128" xmlns="http://www.w3.org/2000/svg">
<defs>
<filter id="a" color-interpolation-filters="sRGB">
<feFlood flood-color="#908B78" flood-opacity=".498" result="flood"/>
<feComposite in="flood" in2="SourceGraphic" operator="in" result="composite1"/>
<feGaussianBlur in="composite1" result="blur" stdDeviation="1.5"/>
<feOffset dx="0" dy="1.5" result="offset"/>
<feComposite in="SourceGraphic" in2="offset" result="composite2"/>
</filter>
</defs>
<title>deepin-clone</title>
<path transform="matrix(1.9946 0 0 1.9946 .174 -.827)" d="m4.055 32.002c-0.012 0.335-0.051 0.662-0.051 1 0 15.51 12.486 27.998 27.998 27.998s27.998-12.487 27.998-27.998c0-0.338-0.04-0.665-0.051-1-0.528 15.041-12.775 26.998-27.948 26.998s-27.42-11.957-27.948-26.998z" filter="url(#a)" opacity=".2"/>
<rect transform="matrix(0 -1.9946 -1.9946 0 .174 -.827)" x="-60" y="-60" width="55.996" height="55.996" rx="27.998" ry="27.998" fill="#ea004e" filter="url(#a)"/>
<g transform="matrix(1.9946 0 0 1.9946 .174 -.827)" clip-rule="evenodd" enable-background="new" fill-rule="evenodd" filter="url(#a)" opacity=".2">
<path d="m27.016 43.935s-1.45 0.889 1.034 1.189c3.008 0.362 4.545 0.31 7.86-0.35 0 0 0.872 0.575 2.09 1.073-7.432 3.355-16.82-0.194-10.984-1.912zm-0.908-4.379s-1.627 1.269 0.858 1.54c3.214 0.349 5.751 0.378 10.144-0.513 0 0 0.606 0.649 1.56 1.003-8.984 2.769-18.99 0.218-12.563-2.03zm7.655-7.429c1.832 2.222-0.48 4.22-0.48 4.22s4.649-2.529 2.514-5.696c-1.995-2.953-3.524-4.42 4.755-9.479 0 0-12.996 3.42-6.79 10.955z"/>
<path d="m43.592 47.174s1.074 0.932-1.182 1.653c-4.289 1.368-17.854 1.781-21.621 0.055-1.354-0.622 1.185-1.482 1.984-1.664 0.833-0.19 1.31-0.155 1.31-0.155-1.507-1.118-9.737 2.194-4.18 3.144 15.151 2.588 27.62-1.165 23.689-3.033zm-15.878-12.155s-6.9 1.727-2.443 2.354c1.882 0.266 5.632 0.204 9.127-0.104 2.856-0.253 5.721-0.793 5.721-0.793s-1.006 0.455-1.734 0.979c-7.008 1.941-20.542 1.037-16.645-0.948 3.294-1.68 5.974-1.488 5.974-1.488zm12.377 7.288c7.123-3.899 3.83-7.646 1.53-7.141-0.562 0.123-0.814 0.23-0.814 0.23s0.21-0.345 0.608-0.494c4.548-1.684 8.045 4.968-1.466 7.602 0 0 0.11-0.105 0.142-0.197zm-4.293-29.304s3.943 4.157-3.742 10.549c-6.164 5.129-1.405 8.052-2e-3 11.394-3.598-3.42-6.237-6.431-4.467-9.233 2.6-4.112 9.801-6.107 8.21-12.71z"/>
<path d="m28.414 52.875c6.836 0.46 17.335-0.256 17.584-3.665 0 0-0.478 1.292-5.65 2.318-5.835 1.157-13.033 1.022-17.3 0.28 0 0 0.874 0.762 5.366 1.067z"/>
</g>
<g transform="matrix(1.9946 0 0 1.9946 .174 -.827)" clip-rule="evenodd" enable-background="new" fill="#fff" fill-rule="evenodd" filter="url(#a)">
<path d="m27.016 42.935s-1.45 0.89 1.034 1.19c3.008 0.361 4.545 0.309 7.86-0.351 0 0 0.872 0.575 2.09 1.074-7.432 3.355-16.82-0.195-10.984-1.913zm-0.908-4.379s-1.627 1.27 0.858 1.54c3.214 0.35 5.751 0.378 10.144-0.513 0 0 0.606 0.649 1.56 1.004-8.984 2.768-18.99 0.217-12.563-2.03zm7.655-7.429c1.832 2.222-0.48 4.22-0.48 4.22s4.649-2.528 2.514-5.696c-1.995-2.953-3.524-4.42 4.755-9.478 0 0-12.996 3.419-6.79 10.954z"/>
<path d="m43.592 46.174s1.074 0.932-1.182 1.653c-4.289 1.369-17.854 1.782-21.621 0.055-1.354-0.621 1.185-1.482 1.984-1.664 0.833-0.19 1.31-0.155 1.31-0.155-1.507-1.118-9.737 2.195-4.18 3.145 15.151 2.587 27.62-1.166 23.689-3.034zm-15.878-12.155s-6.9 1.727-2.443 2.355c1.882 0.265 5.632 0.204 9.127-0.105 2.856-0.253 5.721-0.793 5.721-0.793s-1.006 0.455-1.734 0.979c-7.008 1.942-20.542 1.037-16.645-0.948 3.294-1.679 5.974-1.488 5.974-1.488zm12.377 7.288c7.123-3.899 3.83-7.646 1.53-7.14-0.562 0.123-0.814 0.23-0.814 0.23s0.21-0.346 0.608-0.495c4.548-1.683 8.045 4.968-1.466 7.602 0 0 0.11-0.104 0.142-0.197zm-4.293-29.304s3.943 4.158-3.742 10.55c-6.164 5.128-1.405 8.052-2e-3 11.393-3.598-3.42-6.237-6.43-4.467-9.232 2.6-4.113 9.801-6.107 8.21-12.71z"/>
<path d="m28.414 51.875c6.836 0.46 17.335-0.256 17.584-3.664 0 0-0.478 1.292-5.65 2.317-5.835 1.157-13.033 1.023-17.3 0.28 0 0 0.874 0.763 5.366 1.067z"/>
</g>
<path transform="matrix(1.9946 0 0 1.9946 .174 -.827)" d="m31.998 4.004a27.937 27.937 0 0 0-27.998 27.998c0 0.113 0.011 0.224 0.018 0.336 0.351-15.201 12.692-27.334 27.98-27.334 15.287 0 27.629 12.13 27.982 27.33 6e-3 -0.11 0.015-0.22 0.015-0.332a27.937 27.937 0 0 0-27.998-27.998z" fill="#fff" filter="url(#a)" opacity=".2"/>
</svg>
