<svg width="128" height="128" version="1.1" viewBox="0 0 128 128" xmlns="http://www.w3.org/2000/svg"><defs><filter id="a" color-interpolation-filters="sRGB"><feFlood flood-color="#A9A69A" flood-opacity=".498" result="flood"/><feComposite in="flood" in2="SourceGraphic" operator="in" result="composite1"/><feGaussianBlur in="composite1" result="blur" stdDeviation="1.5"/><feOffset dx="0" dy="1.5" result="offset"/><feComposite in="SourceGraphic" in2="offset" result="composite2"/></filter></defs><title>deepin-calculator</title><g transform="translate(7.867 7.867) scale(1.7542)" filter="url(#a)"><path d="M36.992 11.005L20.996 27.001" fill="none" stroke="#7d7d7d" stroke-width="11.997"/><rect transform="scale(-1 1)" x="-25" y="23" width="15.996" height="33.992" ry="0" fill="#7d7d7d"/><path d="M24.995 52.995c2 0 2 2 2 2v3.999H6.999v-4c0-1.999 2-1.999 2-1.999z" fill="#909090"/><path d="M28.994 54.995c2 0 2 2 2 2v3.999H3v-4c0-1.999 2-1.999 2-1.999z" fill="#4f4f4f"/><path d="M36.992 11.005l7.998 7.998" fill="none" stroke="#7d7d7d" stroke-linecap="square" stroke-width="7.998"/><rect transform="scale(-1 1)" x="-44.99" y="4" width="15.996" height="15.996" ry="7.998" opacity=".2"/><rect transform="scale(-1 1)" x="-28.99" y="20" width="23.995" height="23.995" ry="11.997" opacity=".2"/><rect transform="scale(-1 1)" x="-28.99" y="19" width="23.995" height="23.995" ry="11.997" fill="#909090"/><rect transform="scale(-1 1)" x="-25" y="23" width="15.996" height="15.996" ry="7.998" fill="#4f4f4f"/><rect transform="scale(-1 1)" x="-23" y="25" width="11.997" height="11.997" ry="5.999" fill="#fff" opacity=".1"/><rect transform="scale(-1 1)" x="-44.99" y="3.01" width="15.996" height="15.996" ry="7.998" fill="#909090"/><path d="M48.99 33l-4-2v-7.998l4-3.999h7.998l2 4" fill="none" stroke="#4f4f4f" stroke-linecap="round" stroke-width="3.999"/><rect transform="scale(-1 1)" x="-40.99" y="7.01" width="7.998" height="7.998" ry="3.999" fill="#4f4f4f"/><g fill="#fff"><path d="M16.996 19.002A11.97 11.97 0 0 0 5 31c0 .166.016.328.025.492a11.96 11.96 0 0 1 11.971-11.49c6.478 0 11.71 5.087 11.973 11.498.01-.166.026-.331.026-.5a11.972 11.972 0 0 0-11.998-11.998zM36.992 3.006a7.98 7.98 0 0 0-7.998 7.998c0 .116.023.226.033.34.335-4.119 3.757-7.338 7.965-7.338s7.63 3.22 7.965 7.338c.01-.114.033-.224.033-.34a7.98 7.98 0 0 0-7.998-7.998z" opacity=".2"/><path d="M5 54.994s-2 0-2 2V58c0-2 2-2 2-2h23.994c2 0 2 2 2 2v-1.006s0-2-2-2z" opacity=".1"/></g></g></svg>