<svg width="128" height="128" version="1.1" viewBox="0 0 128 128" xmlns="http://www.w3.org/2000/svg"><defs><filter id="a" color-interpolation-filters="sRGB"><feFlood flood-color="#A9A69A" flood-opacity=".498" result="flood"/><feComposite in="flood" in2="SourceGraphic" operator="in" result="composite1"/><feGaussianBlur in="composite1" result="blur" stdDeviation="1.5"/><feOffset dx="0" dy="1.5" result="offset"/><feComposite in="SourceGraphic" in2="offset" result="composite2"/></filter></defs><title>deepin-calculator</title><g transform="translate(8.003 4.656) scale(1.8168)" filter="url(#a)"><path d="M6.8 8A2.783 2.783 0 0 0 4 10.778v44.444A2.783 2.783 0 0 0 6.8 58h50.4c1.551 0 2.8-1.24 2.8-2.778V10.778A2.783 2.783 0 0 0 57.2 8z" opacity=".2"/><path d="M6.8 7A2.783 2.783 0 0 0 4 9.778v44.444A2.783 2.783 0 0 0 6.8 57h50.4c1.551 0 2.8-1.24 2.8-2.778V9.778A2.783 2.783 0 0 0 57.2 7z" fill="#4f4f4f"/><g stroke-width="0"><path opacity=".2" d="M4 32h56v3H4zM4 14h56v3H4zM4 26h56v3H4z"/></g><path d="M6.8 7A2.783 2.783 0 0 0 4 9.777v1A2.783 2.783 0 0 1 6.8 8H57.2c1.551 0 2.8 1.238 2.8 2.777v-1A2.783 2.783 0 0 0 57.2 7z" fill="#fff" opacity=".1"/><path opacity=".2" stroke-width="0" d="M4 20h56v3H4z"/><path d="M13.8 17c9.8 0 6.532 19.9 16.8 20 6.385.062 11.612-8 18.2-8 6.588 0 11.2 7.167 11.2 7.167v18.056A2.783 2.783 0 0 1 57.2 57H6.8A2.783 2.783 0 0 1 4 54.223v-26.39s2.072-10.832 9.8-10.832z" fill="#47da72"/><path d="M13.801 17c9.8 0 6.53 19.9 16.799 20 6.385.062 11.613-8 18.201-8C55.389 29 60 36.166 60 36.166v1S55.389 30 48.801 30 36.985 38.062 30.6 38c-10.268-.1-6.999-20-16.799-20-7.728 0-9.8 10.834-9.8 10.834v-1S6.072 17 13.8 17z" fill="#fff" opacity=".2"/></g></svg>