<?xml version="1.0" encoding="UTF-8"?>
<svg width="128" height="128" version="1.1" viewBox="0 0 128 128" xmlns="http://www.w3.org/2000/svg" xmlns:cc="http://creativecommons.org/ns#" xmlns:dc="http://purl.org/dc/elements/1.1/" xmlns:rdf="http://www.w3.org/1999/02/22-rdf-syntax-ns#">
 <metadata>
  <rdf:RDF>
   <cc:Work rdf:about="">
    <dc:format>image/svg+xml</dc:format>
    <dc:type rdf:resource="http://purl.org/dc/dcmitype/StillImage"/>
    <dc:title>deepin-multitasking-view</dc:title>
   </cc:Work>
  </rdf:RDF>
 </metadata>
 <title>deepin-multitasking-view</title>
 <defs>
  <filter id="filter966" color-interpolation-filters="sRGB">
   <feFlood flood-color="rgb(0,0,0)" flood-opacity=".19608" result="flood"/>
   <feComposite in="flood" in2="SourceGraphic" operator="in" result="composite1"/>
   <feGaussianBlur in="composite1" result="blur" stdDeviation="1.2"/>
   <feOffset dx="0" dy="1.2" result="offset"/>
   <feComposite in="SourceGraphic" in2="offset" result="composite2"/>
  </filter>
 </defs>
 <g transform="matrix(2.668 0 0 2.668 138.49 -.3008)" filter="url(#filter966)">
  <path d="m-28.022 44.999c-11.58 0-21-9.421-21-21s9.42-21 21-21c11.579 0 21 9.421 21 21s-9.421 21-21 21z" fill="#f7f8f8"/>
  <g transform="translate(-52)" fill="#212426">
   <path d="m30.831 8.967h-8.12l1.49 1.23c-0.3 0.52-0.595 1.005-0.885 1.455a23 23 0 0 1-1.305 1.814l0.45 0.271h4.77l0.63-0.811 1.39 0.99-0.45 0.63s0.09 3.03 0.09 4.62-1.375 1.724-1.39 1.68c0.075-0.844-0.5-1.26-0.5-1.26h-4.81s-0.082 2.35-1.71 2.35l0.09-6.579c-0.17 0.17-0.335 0.34-0.495 0.51-0.44 0.43-0.885 0.82-1.335 1.17-0.64 0.5-1.29 0.93-1.95 1.29 0.02 0 0.229-0.23 0.63-0.69 0.56-0.63 1.055-1.229 1.485-1.8 0.64-0.84 1.195-1.66 1.665-2.46l0.27-0.45c0.09-0.189 0.18-0.385 0.27-0.585 0.28-0.609 0.495-1.095 0.645-1.455 0.28-0.689 0.515-1.33 0.705-1.92l-4.5 2e-3 -0.54-0.271h10.44l1.26-1.44 1.71 1.53zm-3.33 9.799v-4.669h-5.31v5.13h4.981c0.344 0 0.329-0.461 0.329-0.461zm3.69 13.922h-12.33c0.33 0.38 0.495 0.875 0.495 1.484 0 0.45-0.11 0.83-0.33 1.141-0.25 0.35-0.605 0.524-1.065 0.524a0.725 0.725 0 0 1-0.578-0.277 0.926 0.926 0 0 1-0.232-0.607c0-0.33 0.15-0.545 0.45-0.646 0.28-0.109 0.49-0.22 0.63-0.329 0.42-0.33 0.63-0.761 0.63-1.29l-1.893-4e-3 -0.267-0.267h6.3v-1.62l-4.595-4e-3 -0.355-0.265h4.95v-1.62h-3.06s-0.253 0.63-1.53 0.63v-4.41a21.727 21.727 0 0 0 1.71 0.45h7.2l0.54-0.63 1.89 0.99-0.45 0.449v2.53l-4.95-0.01v1.62h2.52l1.17-1.17 1.26 1.26v0.18h-4.95v1.62h4.32l1.26-1.17 1.26 1.26zm-0.36 6.3-13.597-8e-3 -0.263-0.263h6.03v-1.89l-4.035 0.015-0.375-0.375h4.41v-1.89c0.26 0.01 0.47 0.025 0.63 0.045 0.48 0.07 0.9 0.205 1.26 0.405l-0.36 0.54v0.899h2.07l1.08-1.08 1.26 1.261v0.18h-4.41v1.89h3.78l1.26-1.17 1.26 1.26zm-7.83-10.351v-2.79h-2.88l-0.18 0.271v2.52h3.06zm-0.99-0.54a0.614 0.614 0 0 1-0.45 0.195c-0.291 0-0.5-0.155-0.63-0.465 0.01-0.2 5e-3 -0.36-0.015-0.48a1.932 1.932 0 0 0-0.435-0.96c0.05-0.01 0.13-0.015 0.24-0.015 0.36 0 0.718 0.115 1.073 0.345 0.354 0.23 0.532 0.49 0.532 0.78 0 0.12-0.022 0.223-0.067 0.308s-0.128 0.183-0.248 0.292zm0.36 6.931c-0.17 0.14-0.37 0.21-0.6 0.21a0.728 0.728 0 0 1-0.488-0.173 0.586 0.586 0 0 1-0.202-0.473c0-0.029 0.01-0.095 0.03-0.194 0.02-0.04 0.03-0.075 0.03-0.105 0.02-0.1 0.03-0.205 0.03-0.314 0-0.181-0.03-0.365-0.09-0.556a1.548 1.548 0 0 0-0.33-0.555c0.44 0 0.86 0.155 1.26 0.465 0.4 0.311 0.6 0.66 0.6 1.05a0.894 0.894 0 0 1-0.24 0.645zm5.31-9.181h-2.97l-0.36 0.181v2.609h0.81l0.45-2.43c0.2 0.07 0.36 0.13 0.48 0.18 0.39 0.16 0.71 0.311 0.96 0.45-0.13 0.12-0.235 0.221-0.315 0.3a8.6 8.6 0 0 0-1.215 1.5h2.16zm-1.26 9.181a0.703 0.703 0 0 1-0.495 0.194 0.847 0.847 0 0 1-0.615-0.27 0.88 0.88 0 0 1-0.27-0.646c0-0.039 0.01-0.1 0.03-0.18-0.01-0.109-0.025-0.2-0.045-0.27-0.12-0.42-0.345-0.75-0.675-0.99 0.06-0.021 0.165-0.03 0.315-0.03 0.459 0 0.917 0.16 1.372 0.48s0.683 0.67 0.683 1.05c0 0.242-0.1 0.461-0.3 0.662zm4.14 0c-0.14 0.45-0.44 0.675-0.9 0.675a0.93 0.93 0 0 1-0.9-0.675c-0.05-0.32-0.11-0.57-0.18-0.75-0.22-0.55-0.58-0.96-1.08-1.23 0.18-0.02 0.33-0.03 0.45-0.03 0.67 0 1.255 0.146 1.755 0.436 0.58 0.34 0.87 0.795 0.87 1.365 0 0.089-5e-3 0.159-0.015 0.209z"/>
  </g>
 </g>
</svg>
