<svg width="128" height="128" version="1.1" viewBox="0 0 128 128" xmlns="http://www.w3.org/2000/svg" xmlns:xlink="http://www.w3.org/1999/xlink"><title>chmsee-icon</title><defs><linearGradient id="d" x1="18.628" x2="99.89" y1="42.025" y2="42.025" gradientTransform="scale(.85892 1.1643)" gradientUnits="userSpaceOnUse"><stop stop-color="#E9E9E9" offset="0"/><stop stop-color="#fff" offset=".123"/><stop stop-color="#fff" offset="1"/></linearGradient><path id="c" d="M16 1.623h68.87c.512 0 .928.415.928.928v92.754a.928.928 0 0 1-.928.927H16V1.623z"/><filter id="b" x="-2.9%" y="-1.1%" width="105.7%" height="104.2%"><feOffset dx="0" dy="1" in="SourceAlpha" result="shadowOffsetOuter1"/><feGaussianBlur in="shadowOffsetOuter1" result="shadowBlurOuter1" stdDeviation=".5"/><feColorMatrix in="shadowBlurOuter1" values="0 0 0 0 0 0 0 0 0 0 0 0 0 0 0 0 0 0 0.196218297 0"/></filter><linearGradient id="e" x1="27.303" x2="12.729" y1="43.721" y2="43.721" gradientTransform="scale(1.257 .79557)" gradientUnits="userSpaceOnUse"><stop stop-color="#E45C02" offset="0"/><stop stop-color="#FD6E0F" offset=".608"/><stop stop-color="#D65600" offset="1"/></linearGradient><linearGradient id="g" x1="0" x2="39.238" y1="19.619" y2="19.619" gradientTransform="scale(.40775 2.4525)" gradientUnits="userSpaceOnUse"><stop stop-color="#FAFAFA" offset="0"/><stop stop-color="#F4F4F4" offset=".419"/><stop stop-color="#FEFEFE" offset=".699"/><stop stop-color="#E3E1E1" offset="1"/></linearGradient><path id="f" d="M2.319 0H13.68A2.319 2.319 0 0 1 16 2.319v93.913H2.319a2.319 2.319 0 0 1-2.32-2.319V2.319A2.319 2.319 0 0 1 2.32 0z"/><linearGradient id="h" x1="13.756" x2=".746" y1="40.323" y2="40.323" gradientTransform="scale(1.1631 .85974)" gradientUnits="userSpaceOnUse"><stop stop-color="#E35B00" offset="0"/><stop stop-color="#FF9650" offset=".311"/><stop stop-color="#F27A29" offset=".433"/><stop stop-color="#E35B00" offset="1"/></linearGradient><path id="l" d="M15.033 25.986c3.194 0 13.836.167 17.78 5.234 1.052 1.352 1.034 4.187.452 5.793-1.207 3.38-4.166 8.57-11.075 9.631-1.69.26-4.47.192-6.154-.111-6.252-1.104-8.42-5.055-9.168-7.895-.229-.864-1.626-6.74-.186-9.626 1.33-2.667 6.254-3.026 8.351-3.026zm48.583 0c1.705 0 6.522-.344 7.902 2.188 1.617 2.965-.038 9.562-.272 10.451-.854 3.268-3.597 8.007-12.245 8.199-9.132.217-12.778-5.96-14.152-9.811-.576-1.607-.6-4.441.446-5.793 3.943-5.067 15.128-5.234 18.322-5.234zM15.033 49.584c1.69.236 4.464.329 6.166.236 4.402-.224 12.221-1.793 14.555-9.805.483-1.644.817-3.84 1.573-4.41a2.61 2.61 0 0 1 1.61-.52c.655 0 1.132.185 1.473.446.693.527 1.312 2.604 2.142 4.111 2.086 3.808 6.81 10.14 15.075 10.14 0 0 15.805 1.11 17.817-13.005.241-1.693.232-5.074.968-6.612a9.277 9.277 0 0 0 .929-4.044c0-1.197-.124-2.077-.36-2.729-.513-1.432-1.327-2.014-1.754-3.67-1.01-3.92-2.396-8.837-3.708-11.945-.663-1.569-2.402-3.789-3.863-4.676-.775-.475-1.587-.728-2.482-.585-.88.141-.356 2.712-.002 2.549.234-.108.493-.171.781-.171 2.7 0 4.396 10.004 4.396 10.004l.792 4.67c.279 1.686-.873 3.07-2.575 3.113-6.297.186-15.861.825-20.764 3.039-1.548.7-3.69 2.48-5.244 3.194-1.232.57-2.644 1.085-3.684 1.085-1.262 0-2.123-.416-3.045-.986-1.45-.9-3.802-2.382-5.38-3.027-5.622-2.294-14.92-3.287-21.191-3.311-1.709 0-2.86-1.278-2.576-2.965l1.239-7.287S9.61 2.419 12.31 2.419c.718 0 1.269.397 1.671.887.688.837 1.474 1.742 2.18 1.761.712.012 1.324-.837.91-1.78a5.002 5.002 0 0 0-1.065-1.513C13.814-.384 12.13-.316 10.6.62c-1.455.894-3.2 3.108-3.857 4.683-1.69 4-3.51 11.014-4.482 15.008-.396 1.662-.336 2.836-1.351 4.027-.557.658-.91 1.507-.91 2.636 0 0-.05 2.518.867 4.564.705 1.563 1.493 4.147 1.772 5.828.68 4.105 3.219 10.965 12.394 12.218z"/><filter id="k" color-interpolation-filters="sRGB"><feFlood flood-color="#000" flood-opacity=".196" result="flood"/><feComposite in="flood" in2="SourceGraphic" operator="in" result="composite1"/><feGaussianBlur in="composite1" result="blur" stdDeviation="1.5"/><feOffset dx="-5.08" dy="1.5" result="offset"/><feComposite in="SourceGraphic" in2="offset" result="composite2"/></filter><linearGradient id="j" x1="60.352" x2="1.7" y1="22.472" y2="41.637" gradientTransform="scale(1.2455 .80288)" gradientUnits="userSpaceOnUse"><stop stop-color="#474747" offset="0"/><stop stop-color="#010101" offset=".038"/><stop offset="1"/></linearGradient><linearGradient id="m" x1="21.499" x2="17.996" y1="8.437" y2="8.968" gradientTransform="matrix(.44475 0 0 2.2485 39.689 58.666)" gradientUnits="userSpaceOnUse"><stop stop-color="#2E2E2E" offset="0"/><stop stop-color="#1D1D1D" offset="1"/></linearGradient><filter id="a" color-interpolation-filters="sRGB"><feFlood flood-color="#000" flood-opacity=".196" result="flood"/><feComposite in="flood" in2="SourceGraphic" operator="in" result="composite1"/><feGaussianBlur in="composite1" result="blur" stdDeviation="1.5"/><feOffset dx="0" dy="1.5" result="offset"/><feComposite in="SourceGraphic" in2="offset" result="composite2"/></filter></defs><g filter="url(#a)"><g fill-rule="evenodd"><g transform="translate(10.203 15.072)"><rect y="1.623" width="94" height="96" rx="4.638" fill="#e35b00"/><path d="M16 1.623h73.043c.512 0 .928.415.928.928v92.754a.928.928 0 0 1-.928.927H16V1.623z" fill="#fff"/><path d="M18.087 1.623h68.87c.512 0 .928.415.928.928v92.754a.928.928 0 0 1-.928.927h-68.87V1.623z" fill="#e6e6e6"/><path fill="#fff" d="M88 46.123h2v8.5h-2z"/><use width="100%" height="100%" fill="#000" filter="url(#b)" xlink:href="#c"/><use width="100%" height="100%" fill="url(#d)" fill-rule="evenodd" xlink:href="#c"/><path d="M16 29.913c1.258-.618 3.813-.928 7.665-.928s7.403.155 10.654.464v10.667c-4.784-.309-8.335-.464-10.654-.464-2.319 0-4.874.31-7.665.928z" fill="url(#e)"/><mask id="i" fill="#fff"><use width="100%" height="100%" xlink:href="#f"/></mask><use width="100%" height="100%" fill="url(#g)" xlink:href="#f"/><path d="M0 29.913c2.84-.773 5.564-1.16 8.174-1.16 2.61 0 5.218.387 7.826 1.16V40.58c-2.532-.773-5.14-1.16-7.826-1.16s-5.41.387-8.174 1.16" fill="url(#h)" mask="url(#i)"/></g><path fill="#e35b00" d="M98.174 57.739h4.029v21.333h-4.029z"/><path d="M49.099 48.822c0 .039.017.067.052.083s.082.024.142.024h.38a.518.518 0 0 0 .174-.026c.048-.017.09-.042.125-.074s.065-.073.092-.12.05-.102.071-.162c.007-.019.021-.028.042-.028.012 0 .024.003.036.009l.04.019c-.016.07-.031.143-.046.22a3.662 3.662 0 0 0-.04.263c-.003.026-.01.042-.021.049a.08.08 0 0 1-.042.01c-.04 0-.089-.002-.148-.008s-.11-.009-.155-.009h-.87a9.134 9.134 0 0 0-.435.017.3.3 0 0 1-.006-.055c0-.033.012-.051.035-.056a.673.673 0 0 0 .195-.054.099.099 0 0 0 .052-.092v-1.774c0-.046-.016-.08-.049-.099s-.095-.037-.188-.05a.037.037 0 0 1-.026-.02.074.074 0 0 1-.009-.036.31.31 0 0 1 .007-.06c.08.005.157.01.233.013a4.394 4.394 0 0 0 .446 0l.236-.012a.3.3 0 0 1 .007.055c0 .04-.013.06-.038.063a.77.77 0 0 0-.221.05c-.048.023-.071.063-.071.12v1.74zm1.871.08a.585.585 0 0 1-.25-.05.488.488 0 0 1-.178-.138c-.046-.058-.081-.127-.104-.205s-.035-.164-.035-.254c0-.123.02-.232.063-.326a.699.699 0 0 1 .391-.377.718.718 0 0 1 .26-.049.54.54 0 0 1 .126.014 1.056 1.056 0 0 1 .207.073l.195-.1.031.01c0 .18 0 .361.002.54l.001.542c0 .092.04.136.119.132a.101.101 0 0 0 .045-.009.519.519 0 0 0 .035-.02l.031-.023.035.02a.432.432 0 0 1-.063.112.369.369 0 0 1-.087.075.223.223 0 0 1-.121.033c-.08 0-.135-.025-.167-.075s-.05-.119-.05-.207v-.105a.636.636 0 0 1-.06.143.471.471 0 0 1-.426.243zm.487-.77c0-.078-.006-.15-.02-.215a.452.452 0 0 0-.064-.165.305.305 0 0 0-.116-.104.391.391 0 0 0-.18-.037c-.048 0-.1.01-.154.03a.391.391 0 0 0-.148.097.538.538 0 0 0-.11.174.819.819 0 0 0-.014.477.61.61 0 0 0 .086.186.429.429 0 0 0 .136.127.357.357 0 0 0 .184.047.301.301 0 0 0 .155-.042c.047-.028.088-.067.123-.117s.063-.108.085-.175a.774.774 0 0 0 .037-.22v-.062zm2.334.742a6.457 6.457 0 0 0-.734 0v-.06l.184-.027c.051-.007.077-.052.077-.136v-.588a.63.63 0 0 0-.063-.304c-.042-.075-.124-.113-.247-.113-.141 0-.281.07-.42.209v.834c0 .038.027.063.083.077l.195.049v.059l-.117-.007a3.24 3.24 0 0 0-.151-.004h-.115c-.081 0-.154 0-.217.002a1.77 1.77 0 0 0-.159.009v-.06l.181-.034c.047-.007.07-.042.07-.104v-.69c0-.071-.015-.12-.044-.145a.314.314 0 0 0-.154-.056v-.063a.55.55 0 0 0 .368-.31h.06v.317c.088-.078.183-.14.286-.186a.701.701 0 0 1 .277-.068c.269 0 .403.16.403.477v.689c0 .044.006.077.018.1s.035.039.07.046l.149.028v.059zm.779-.021a.533.533 0 0 1-.403-.176.567.567 0 0 1-.119-.196.728.728 0 0 1-.041-.25.78.78 0 0 1 .053-.295.692.692 0 0 1 .366-.379.65.65 0 0 1 .262-.054.92.92 0 0 1 .292.046c.04.011.072.025.098.041l.202-.128.03.01v1.318a.578.578 0 0 1-.196.442c-.061.056-.134.1-.219.132s-.178.049-.28.049a1.25 1.25 0 0 1-.304-.03c-.076-.02-.132-.044-.17-.073a.213.213 0 0 1-.093-.172c0-.04.012-.069.035-.089a.135.135 0 0 1 .09-.03c.056 0 .091.016.107.046l.047.101c.017.037.044.07.083.1s.111.046.216.046c.301 0 .452-.159.452-.476v-.414a.832.832 0 0 1-.066.156.574.574 0 0 1-.105.138.509.509 0 0 1-.147.099.458.458 0 0 1-.19.038zm.508-.737c0-.07-.006-.136-.018-.197s-.033-.116-.064-.163-.074-.085-.127-.112-.122-.04-.205-.04a.366.366 0 0 0-.29.136.514.514 0 0 0-.091.174.808.808 0 0 0-.033.243c0 .07.007.138.02.205a.57.57 0 0 0 .069.18.376.376 0 0 0 .12.125.321.321 0 0 0 .177.047c.065 0 .124-.016.177-.049s.1-.076.138-.13a.735.735 0 0 0 .127-.388v-.031zm.508-.574h.466v.89c0 .111.019.19.057.237.038.046.109.07.21.07.151 0 .29-.058.418-.171v-.835a.126.126 0 0 0-.01-.056c-.007-.014-.022-.025-.044-.033a.558.558 0 0 0-.096-.022 2.764 2.764 0 0 0-.163-.021v-.06h.56v1.02c0 .041.002.074.007.097.005.023.015.04.031.052s.04.02.072.023c.03.003.074.005.13.005 0 .01 0 .019.002.028l.001.028-.49.125v-.264a1.757 1.757 0 0 1-.273.2.505.505 0 0 1-.252.067.362.362 0 0 1-.29-.128.508.508 0 0 1-.11-.341v-.724c0-.044-.015-.074-.044-.09s-.09-.031-.182-.045v-.052zm2.42 1.36a.585.585 0 0 1-.25-.05.488.488 0 0 1-.177-.138.592.592 0 0 1-.105-.205.896.896 0 0 1-.034-.254c0-.123.02-.232.062-.326a.699.699 0 0 1 .65-.426.54.54 0 0 1 .128.014 1.057 1.057 0 0 1 .207.073l.194-.1.032.01.001.54c.002.18.002.36.002.542 0 .092.04.136.118.132a.101.101 0 0 0 .046-.009.519.519 0 0 0 .034-.02c.01-.008.02-.016.032-.023l.034.02a.432.432 0 0 1-.062.112.369.369 0 0 1-.087.075.223.223 0 0 1-.122.033c-.079 0-.134-.025-.167-.075a.377.377 0 0 1-.049-.207v-.105a.636.636 0 0 1-.06.143.478.478 0 0 1-.426.243zm.488-.77c0-.078-.007-.15-.02-.215-.012-.065-.034-.12-.064-.165s-.069-.08-.116-.104a.391.391 0 0 0-.18-.037c-.048 0-.1.01-.154.03a.391.391 0 0 0-.148.097.538.538 0 0 0-.11.174.82.82 0 0 0-.014.477.61.61 0 0 0 .086.186.429.429 0 0 0 .135.127.357.357 0 0 0 .185.047.301.301 0 0 0 .154-.042.392.392 0 0 0 .124-.117.67.67 0 0 0 .085-.175.774.774 0 0 0 .037-.22v-.062zm1.262.72a.533.533 0 0 1-.403-.175.567.567 0 0 1-.119-.196.728.728 0 0 1-.041-.25.78.78 0 0 1 .054-.295.692.692 0 0 1 .365-.379.65.65 0 0 1 .262-.054.92.92 0 0 1 .293.046c.039.011.071.025.097.041l.202-.128.031.01v1.318a.578.578 0 0 1-.197.442c-.061.056-.134.1-.219.132s-.178.049-.28.049a1.25 1.25 0 0 1-.304-.03.492.492 0 0 1-.17-.073.21.21 0 0 1-.093-.172c0-.04.012-.069.035-.089a.135.135 0 0 1 .09-.03c.056 0 .092.016.107.046l.047.101c.017.037.044.07.083.1s.111.046.216.046c.301 0 .452-.159.452-.476v-.414a.832.832 0 0 1-.066.156.574.574 0 0 1-.105.138.509.509 0 0 1-.147.099.458.458 0 0 1-.19.038zm.508-.736c0-.07-.006-.136-.017-.197s-.033-.116-.065-.163c-.031-.048-.073-.085-.127-.112s-.121-.04-.205-.04a.359.359 0 0 0-.29.136.514.514 0 0 0-.09.174.808.808 0 0 0-.034.243c0 .07.007.138.021.205a.57.57 0 0 0 .068.18.376.376 0 0 0 .12.125.321.321 0 0 0 .177.047c.065 0 .124-.016.178-.049s.099-.076.137-.13a.735.735 0 0 0 .127-.388v-.031zm1.77-.119h-.956a.887.887 0 0 0-.01.132.64.64 0 0 0 .142.433c.095.11.226.166.393.166a.521.521 0 0 0 .223-.047.867.867 0 0 0 .219-.159l.014.08c-.08.105-.17.184-.273.237s-.224.08-.36.08c-.086 0-.166-.018-.239-.054s-.136-.086-.19-.151-.098-.141-.128-.228a.86.86 0 0 1 .005-.57.652.652 0 0 1 .838-.402.484.484 0 0 1 .275.271.66.66 0 0 1 .047.212zm-.939-.08h.505l.09-.001a.156.156 0 0 0 .063-.014.052.052 0 0 0 .03-.037.171.171 0 0 0-.006-.07.37.37 0 0 0-.085-.163c-.043-.049-.109-.073-.197-.073-.104 0-.191.032-.26.096s-.117.15-.14.262zm2.821.96a1.815 1.815 0 0 0-.151-.01 6.628 6.628 0 0 0-.621.01v-.059l.188-.038c.072-.014.108-.056.108-.125v-.693c0-.055-.014-.096-.042-.121a.387.387 0 0 0-.167-.066v-.053c.081-.02.155-.052.22-.093s.12-.094.159-.157h.06v1.193c0 .035.004.06.015.077.01.016.03.027.06.034l.171.042v.06zm-.379-2.125c.044 0 .082.016.115.047s.048.069.048.113c0 .04-.016.074-.05.104a.174.174 0 0 1-.12.046.144.144 0 0 1-.106-.044.144.144 0 0 1-.044-.106c0-.044.016-.082.047-.113a.15.15 0 0 1 .11-.047zm2.23 2.122a6.457 6.457 0 0 0-.734 0v-.06l.184-.027c.051-.007.077-.052.077-.136v-.588a.63.63 0 0 0-.063-.304c-.042-.075-.124-.113-.247-.113-.141 0-.282.07-.42.209v.834c0 .038.027.063.083.077l.194.049v.059l-.116-.007a3.24 3.24 0 0 0-.151-.004h-.115c-.081 0-.154 0-.218.002a1.77 1.77 0 0 0-.158.009v-.06l.181-.034c.046-.007.07-.042.07-.105v-.688c0-.072-.015-.12-.044-.146a.314.314 0 0 0-.155-.056v-.063a.55.55 0 0 0 .369-.31h.06v.317c.087-.078.183-.14.286-.186s.195-.068.277-.068c.269 0 .403.16.403.477v.689c0 .044.006.077.017.1s.035.039.07.046l.15.028v.059zm.626-1.687h.045c0 .062 0 .124.002.186l.001.186.466-.01v.128l-.466.014v.7c0 .136.01.238.03.305.02.068.075.099.165.094a.386.386 0 0 0 .12-.022.824.824 0 0 0 .151-.072l.032.049c-.047.056-.103.099-.169.129s-.157.045-.273.045a.424.424 0 0 1-.146-.02.191.191 0 0 1-.09-.07.303.303 0 0 1-.048-.134 1.558 1.558 0 0 1-.012-.214v-.783c-.032 0-.063 0-.094.002l-.094.002c-.033 0-.048-.01-.048-.028 0-.019.015-.035.045-.049a.65.65 0 0 0 .22-.143 1.002 1.002 0 0 0 .163-.296zm1.923.81h-.956a.886.886 0 0 0-.01.132.64.64 0 0 0 .142.433c.095.11.226.166.393.166a.521.521 0 0 0 .222-.047.867.867 0 0 0 .22-.159l.014.08c-.08.105-.17.184-.274.237s-.223.08-.36.08c-.085 0-.165-.018-.238-.054s-.137-.086-.191-.151-.097-.141-.127-.228a.86.86 0 0 1 .005-.57.652.652 0 0 1 .838-.402.484.484 0 0 1 .275.271.66.66 0 0 1 .047.212zm-.939-.08h.504c.035 0 .065 0 .09-.002a.156.156 0 0 0 .063-.013.052.052 0 0 0 .03-.037.171.171 0 0 0-.005-.07.37.37 0 0 0-.085-.163c-.043-.049-.109-.073-.197-.073-.104 0-.191.032-.26.096s-.117.15-.14.262zm1.18.96v-.055l.166-.032c.046-.011.076-.029.089-.052a.285.285 0 0 0 .019-.125v-.668c0-.046-.01-.08-.03-.1-.02-.022-.063-.04-.13-.053l-.09-.02.007-.053a.908.908 0 0 0 .233-.113.56.56 0 0 0 .17-.21h.063a4.965 4.965 0 0 1 .014.43 1.015 1.015 0 0 1 .184-.236c.079-.076.15-.115.212-.115.058 0 .103.017.136.05s.048.073.048.124c0 .047-.013.083-.04.11s-.06.04-.099.04-.08-.012-.121-.035-.078-.035-.108-.035c-.023 0-.047.012-.072.035-.024.023-.047.051-.067.084s-.039.066-.053.102-.02.066-.02.089v.58c0 .061.01.101.03.12.019.02.061.035.126.044l.25.039v.055a7.88 7.88 0 0 0-.445-.014h-.048a6.973 6.973 0 0 0-.425.014zm1.717-1.19c.214-.155.418-.226.613-.212.162.01.292.076.39.199a.755.755 0 0 1 .149.487.789.789 0 0 1-.056.295.706.706 0 0 1-.395.4.744.744 0 0 1-.297.06.94.94 0 0 1-.404-.101v.528c0 .03.01.054.03.072.02.017.059.03.117.04l.208.034v.06c-.032-.005-.069-.008-.11-.01l-.14-.004h-.143a7.136 7.136 0 0 0-.424.013v-.059l.146-.028c.035-.006.057-.017.068-.033s.015-.044.015-.088v-1.534c0-.086-.015-.13-.045-.132l-.17-.028.01-.049a2.314 2.314 0 0 0 .25-.118.49.49 0 0 0 .136-.132h.052v.34zm0 .108v.748c0 .084.037.153.11.207a.468.468 0 0 0 .287.082.46.46 0 0 0 .358-.165c.044-.052.078-.114.101-.186s.035-.151.035-.237a.84.84 0 0 0-.038-.262.548.548 0 0 0-.11-.197.422.422 0 0 0-.384-.14.82.82 0 0 0-.359.15zm1.367 1.082v-.056l.167-.03c.047-.012.076-.03.09-.053a.285.285 0 0 0 .018-.125v-.668c0-.046-.01-.08-.03-.1-.019-.022-.063-.04-.13-.053l-.09-.021.007-.052a.908.908 0 0 0 .233-.113.56.56 0 0 0 .17-.21h.063a4.965 4.965 0 0 1 .014.43 1.015 1.015 0 0 1 .184-.236c.079-.076.15-.115.212-.115.058 0 .104.017.136.05s.049.073.049.124c0 .047-.014.083-.04.11s-.06.04-.1.04-.08-.012-.121-.035-.078-.035-.108-.035c-.023 0-.047.012-.071.035a.578.578 0 0 0-.12.186.258.258 0 0 0-.021.089v.58c0 .061.01.101.03.12.02.02.061.035.126.044l.25.038v.056a7.88 7.88 0 0 0-.445-.014h-.048a6.973 6.973 0 0 0-.424.014zm2.519-.88h-.957a.886.886 0 0 0-.01.132.64.64 0 0 0 .142.433c.095.11.226.166.393.166a.521.521 0 0 0 .223-.047.867.867 0 0 0 .22-.159l.013.08c-.079.105-.17.184-.273.237s-.223.08-.36.08c-.086 0-.165-.018-.238-.054s-.137-.086-.192-.151a.715.715 0 0 1-.126-.228.86.86 0 0 1 .005-.57.648.648 0 0 1 .628-.44c.076 0 .146.012.21.038s.119.06.165.106c.047.045.083.1.11.165s.042.136.047.212zm-.94-.08h.505c.035 0 .065 0 .09-.002a.156.156 0 0 0 .063-.014.052.052 0 0 0 .03-.036.171.171 0 0 0-.006-.07.37.37 0 0 0-.085-.163c-.043-.049-.108-.073-.196-.073-.105 0-.192.032-.261.095s-.116.152-.14.263zm1.639-.73h.045c0 .062 0 .124.002.186l.002.186.466-.01v.128l-.466.014v.7c0 .136.01.238.03.305.019.068.074.099.164.094a.386.386 0 0 0 .12-.022.824.824 0 0 0 .152-.072l.03.049c-.045.056-.102.099-.168.129s-.157.045-.273.045a.424.424 0 0 1-.146-.021.191.191 0 0 1-.09-.07.303.303 0 0 1-.047-.133 1.558 1.558 0 0 1-.012-.214v-.783c-.033 0-.064 0-.094.002l-.094.001c-.032 0-.049-.009-.049-.027 0-.019.015-.035.045-.049a.65.65 0 0 0 .22-.143 1.003 1.003 0 0 0 .163-.296zm1.28 1.714a.585.585 0 0 1-.25-.05.488.488 0 0 1-.178-.137.592.592 0 0 1-.104-.206.896.896 0 0 1-.035-.253c0-.123.02-.232.063-.326a.699.699 0 0 1 .65-.426.54.54 0 0 1 .127.014 1.057 1.057 0 0 1 .207.073l.195-.1.031.01c0 .18 0 .36.002.54l.001.541c0 .093.04.137.119.133a.101.101 0 0 0 .045-.009.519.519 0 0 0 .035-.02c.009-.008.02-.017.031-.024l.035.021a.432.432 0 0 1-.063.112.369.369 0 0 1-.087.074.223.223 0 0 1-.122.033c-.078 0-.134-.024-.167-.074a.377.377 0 0 1-.048-.207v-.105a.636.636 0 0 1-.061.143.5.5 0 0 1-.238.21.49.49 0 0 1-.188.033zm.487-.768c0-.08-.007-.15-.02-.216a.452.452 0 0 0-.064-.165.305.305 0 0 0-.116-.104.391.391 0 0 0-.18-.037c-.048 0-.1.01-.154.03a.391.391 0 0 0-.148.097.538.538 0 0 0-.11.174.82.82 0 0 0-.014.477c.02.07.049.132.086.186s.082.095.136.126a.357.357 0 0 0 .184.047.301.301 0 0 0 .155-.041.392.392 0 0 0 .123-.117.67.67 0 0 0 .085-.175.774.774 0 0 0 .037-.22v-.062zm1.11-.946h.045l.001.186c.002.061.002.123.002.186l.466-.01v.128l-.466.014v.7c0 .136.01.238.03.305.02.068.074.099.165.094a.386.386 0 0 0 .12-.022.824.824 0 0 0 .151-.072l.031.049c-.046.056-.102.099-.168.129s-.157.045-.273.045a.424.424 0 0 1-.146-.021.191.191 0 0 1-.09-.07.303.303 0 0 1-.048-.133 1.558 1.558 0 0 1-.012-.214v-.783c-.032 0-.064 0-.094.002l-.094.001c-.033 0-.048-.009-.048-.027 0-.019.015-.035.045-.049a.65.65 0 0 0 .219-.143 1.003 1.003 0 0 0 .163-.296zm1.436 1.69a1.815 1.815 0 0 0-.151-.01 6.628 6.628 0 0 0-.621.01v-.059l.188-.038c.072-.014.107-.056.107-.126v-.692c0-.055-.013-.096-.041-.121a.387.387 0 0 0-.167-.067v-.052c.08-.02.155-.052.22-.094s.12-.094.159-.156h.059v1.193c0 .035.005.06.016.076.01.017.03.028.06.035l.171.042v.059zm-.38-2.125c.045 0 .083.016.116.047s.048.069.048.113c0 .04-.016.074-.05.104a.174.174 0 0 1-.12.045.144.144 0 0 1-.106-.043.144.144 0 0 1-.044-.106c0-.044.016-.082.047-.113a.15.15 0 0 1 .11-.047zm1.323 2.167c-.105 0-.201-.018-.29-.054a.694.694 0 0 1-.437-.666c0-.107.018-.204.055-.292s.09-.164.157-.228a.73.73 0 0 1 .238-.15.827.827 0 0 1 .304-.054c.114 0 .217.02.308.058a.706.706 0 0 1 .44.673.684.684 0 0 1-.217.508.723.723 0 0 1-.245.151.879.879 0 0 1-.313.054zm-.453-.692c0 .192.043.343.13.454s.197.165.336.165a.43.43 0 0 0 .35-.176.655.655 0 0 0 .1-.203c.025-.08.037-.167.037-.265s-.01-.186-.033-.266-.054-.149-.095-.207a.431.431 0 0 0-.355-.18.404.404 0 0 0-.344.17c-.084.114-.126.283-.126.508zm3.127.647a6.457 6.457 0 0 0-.734 0v-.06l.185-.027c.05-.007.076-.052.076-.136v-.588a.63.63 0 0 0-.062-.304c-.042-.075-.124-.113-.247-.113-.142 0-.282.07-.421.209v.834c0 .037.028.063.083.077l.195.049v.059l-.116-.007a3.24 3.24 0 0 0-.152-.004h-.114c-.082 0-.154 0-.218.002a1.77 1.77 0 0 0-.158.009v-.06l.18-.034c.047-.007.07-.042.07-.105v-.688c0-.072-.014-.12-.043-.146a.314.314 0 0 0-.155-.056v-.063a.55.55 0 0 0 .369-.31h.059v.317c.088-.079.184-.14.287-.186s.195-.068.276-.068c.27 0 .404.16.404.477v.689c0 .044.006.077.017.1s.035.039.07.046l.15.028v.059zm1.81.003a1.815 1.815 0 0 0-.152-.01 6.628 6.628 0 0 0-.621.01v-.059l.188-.038c.072-.014.108-.056.108-.125v-.693c0-.055-.014-.096-.042-.121a.387.387 0 0 0-.167-.066v-.053c.081-.02.155-.052.22-.094s.12-.093.159-.156h.06v1.193c0 .035.004.06.015.076.01.017.03.028.06.035l.171.042v.06zm-.38-2.125c.044 0 .082.016.115.047s.048.069.048.113c0 .04-.016.074-.05.104a.174.174 0 0 1-.12.046.144.144 0 0 1-.106-.044.144.144 0 0 1-.044-.106c0-.044.016-.082.047-.113a.15.15 0 0 1 .11-.047zm1.436 1.12a.484.484 0 0 0-.23-.282.214.214 0 0 0-.1-.028c-.167 0-.25.075-.25.223a.19.19 0 0 0 .085.16.995.995 0 0 0 .255.122c.262.095.393.235.393.42a.399.399 0 0 1-.15.317c-.045.037-.099.066-.16.085s-.123.03-.19.03a.848.848 0 0 1-.414-.09l-.035-.397h.063a.599.599 0 0 0 .166.297c.08.073.163.11.25.11.082 0 .149-.023.2-.068s.08-.105.08-.179c0-.13-.11-.233-.328-.31a.947.947 0 0 1-.332-.179.339.339 0 0 1-.1-.255c0-.056.014-.107.04-.153.025-.047.06-.086.104-.119s.095-.057.154-.074a.669.669 0 0 1 .19-.027.7.7 0 0 1 .358.084l.021.313h-.07zm1.705-.685h.045c0 .062 0 .124.002.186l.001.186.466-.01v.128l-.466.014v.7c0 .136.01.238.03.305.02.068.075.099.165.094a.386.386 0 0 0 .12-.022.824.824 0 0 0 .151-.072l.032.049a.472.472 0 0 1-.169.129.672.672 0 0 1-.273.045.424.424 0 0 1-.146-.02.191.191 0 0 1-.09-.07.303.303 0 0 1-.047-.134 1.558 1.558 0 0 1-.013-.214v-.783c-.032 0-.063 0-.094.002l-.093.002c-.032 0-.05-.01-.05-.028 0-.019.016-.035.046-.049a.65.65 0 0 0 .22-.143 1.002 1.002 0 0 0 .163-.296zm.918-.244c0-.03-.003-.055-.009-.076s-.017-.04-.034-.054c-.018-.015-.043-.029-.077-.04s-.077-.023-.13-.035v-.045c.046-.002.104-.014.175-.035s.146-.051.225-.09h.083v1.224c.165-.209.344-.314.54-.317a.491.491 0 0 1 .114.014c.097.021.173.071.228.15a.534.534 0 0 1 .082.31v.744a.09.09 0 0 0 .013.054c.01.012.034.025.073.036l.147.035v.06a8.017 8.017 0 0 0-.341-.015c-.04 0-.089.001-.148.004l-.197.01v-.059l.14-.038c.03-.01.051-.02.064-.033.013-.013.019-.04.019-.079v-.71a.31.31 0 0 0-.082-.225.286.286 0 0 0-.214-.084.398.398 0 0 0-.234.07.973.973 0 0 0-.204.205v.744c0 .026.004.046.012.06.008.013.026.024.054.03l.226.06v.06a1.844 1.844 0 0 0-.155-.011 6.815 6.815 0 0 0-.62.01v-.059l.177-.038c.03-.007.05-.016.06-.026.008-.01.013-.03.013-.058v-1.753zm2.856 1.054h-.957a.886.886 0 0 0-.01.132.64.64 0 0 0 .142.433c.095.11.226.166.393.166a.521.521 0 0 0 .223-.047.867.867 0 0 0 .22-.159l.013.08a.807.807 0 0 1-.273.237.773.773 0 0 1-.36.08c-.086 0-.165-.018-.238-.054s-.137-.086-.192-.151-.096-.141-.127-.228a.86.86 0 0 1 .006-.57.652.652 0 0 1 .838-.402.484.484 0 0 1 .275.271.66.66 0 0 1 .047.212zm-.94-.08h.505c.035 0 .065 0 .09-.002a.156.156 0 0 0 .063-.013.052.052 0 0 0 .03-.037.171.171 0 0 0-.006-.07c-.014-.06-.042-.114-.085-.163s-.108-.073-.196-.073c-.105 0-.192.032-.261.096s-.116.15-.14.262zm-46.114 4.61c.05.008.158.011.323.011a4.1 4.1 0 0 0 .355-.01v.059a.51.51 0 0 0-.169.045c-.024.016-.026.05-.005.1l.435.926.268-.543-.133-.347c-.025-.065-.047-.107-.064-.124s-.035-.027-.054-.03l-.139-.027v-.06c.065.008.192.011.383.011.187 0 .311-.003.372-.01v.059l-.157.028c-.035.006-.06.015-.075.026s-.024.022-.03.034c-.004.013-.004.026 0 .04s.008.028.015.042l.337.877.345-.804c.013-.02.02-.044.02-.07s-.004-.048-.014-.069c-.009-.02-.023-.039-.041-.054s-.04-.024-.066-.026l-.143-.024v-.06c.051.008.148.011.292.011.146 0 .253-.003.32-.01v.059l-.087.017c-.07.02-.128.086-.177.195l-.501 1.144h-.063l-.295-.72-.365.72h-.074l-.608-1.242c-.033-.062-.077-.097-.132-.104l-.073-.01v-.06zm2.688-.584c0-.03-.003-.055-.008-.076s-.018-.04-.035-.054a.234.234 0 0 0-.077-.04 1.184 1.184 0 0 0-.13-.035v-.045c.046-.003.105-.014.175-.035s.146-.051.225-.09H47v1.224c.165-.209.345-.314.54-.317a.491.491 0 0 1 .114.014c.098.021.174.071.228.15a.534.534 0 0 1 .082.31v.744a.09.09 0 0 0 .014.054c.009.012.033.025.073.036l.146.035v.06a8.018 8.018 0 0 0-.341-.015c-.04 0-.089.001-.148.004l-.196.01v-.059l.139-.038c.03-.01.051-.02.064-.033s.02-.04.02-.079v-.71a.31.31 0 0 0-.083-.225.286.286 0 0 0-.213-.084.398.398 0 0 0-.235.07.973.973 0 0 0-.204.205v.744c0 .026.004.046.012.06.009.013.027.024.054.03l.226.06v.06a1.843 1.843 0 0 0-.154-.011 6.815 6.815 0 0 0-.621.01v-.059l.177-.038c.03-.007.05-.016.06-.026.009-.01.013-.03.013-.058v-1.753zm2.372 1.976c-.104 0-.2-.018-.288-.054s-.165-.086-.23-.15a.691.691 0 0 1-.153-.227.736.736 0 0 1-.055-.29c0-.106.018-.203.055-.291a.666.666 0 0 1 .157-.228.73.73 0 0 1 .238-.15.827.827 0 0 1 .304-.054c.114 0 .217.02.308.058a.706.706 0 0 1 .44.673.684.684 0 0 1-.217.508c-.069.065-.15.115-.245.151s-.2.054-.314.054zm-.452-.692c0 .192.043.344.129.454s.198.165.337.165a.43.43 0 0 0 .35-.176.655.655 0 0 0 .1-.203c.025-.08.037-.167.037-.265s-.01-.186-.033-.266-.054-.149-.095-.207a.431.431 0 0 0-.355-.18.404.404 0 0 0-.344.17c-.084.114-.126.283-.126.508zm2.223.647l-.184-.007a6.872 6.872 0 0 0-.595.007v-.06l.208-.041c.03-.007.051-.016.063-.028s.017-.035.017-.07v-1.76c0-.048-.013-.084-.041-.107a.587.587 0 0 0-.185-.077v-.049c.044-.009.1-.023.167-.041s.138-.043.213-.073h.08v2.1c0 .045.004.073.013.086.01.012.032.022.067.03l.177.03v.06zm1.426-.877h-.957a.886.886 0 0 0-.01.132.64.64 0 0 0 .143.433c.095.11.226.166.393.166a.521.521 0 0 0 .222-.047.867.867 0 0 0 .22-.159l.013.08c-.078.105-.17.184-.273.237s-.223.08-.36.08c-.085 0-.165-.018-.238-.054s-.137-.086-.191-.151a.715.715 0 0 1-.127-.228.86.86 0 0 1 .005-.57.652.652 0 0 1 .838-.402.484.484 0 0 1 .275.271.66.66 0 0 1 .047.212zm-.94-.08h.505c.035 0 .065 0 .09-.002a.156.156 0 0 0 .063-.013.052.052 0 0 0 .03-.037.171.171 0 0 0-.005-.07.37.37 0 0 0-.086-.163c-.043-.049-.108-.073-.196-.073-.104 0-.191.032-.261.096s-.116.15-.14.262zm2.509-.23c.213-.155.417-.225.612-.212.162.01.293.076.391.199a.755.755 0 0 1 .148.487.789.789 0 0 1-.056.295.706.706 0 0 1-.394.4.744.744 0 0 1-.298.06.94.94 0 0 1-.403-.101v.528c0 .03.01.054.03.072.019.017.058.03.116.04l.208.034v.06c-.032-.005-.069-.008-.11-.01l-.14-.004h-.143a7.136 7.136 0 0 0-.424.013v-.059l.146-.027c.035-.007.058-.018.068-.034.01-.015.016-.044.016-.088v-1.534c0-.086-.015-.13-.046-.132l-.17-.028.01-.049a2.314 2.314 0 0 0 .25-.118.49.49 0 0 0 .136-.132h.053v.34zm0 .108v.748c0 .084.036.153.11.207a.468.468 0 0 0 .286.082.46.46 0 0 0 .358-.165.543.543 0 0 0 .101-.186.767.767 0 0 0 .035-.237c0-.097-.013-.185-.038-.262s-.062-.144-.11-.197a.428.428 0 0 0-.384-.14.82.82 0 0 0-.358.15zm2.142 1.124c-.104 0-.2-.018-.288-.054s-.165-.086-.23-.15a.691.691 0 0 1-.153-.227.736.736 0 0 1-.056-.29c0-.106.019-.203.056-.291a.667.667 0 0 1 .156-.228.73.73 0 0 1 .239-.15.827.827 0 0 1 .304-.054c.114 0 .216.02.308.058a.706.706 0 0 1 .44.673.684.684 0 0 1-.217.508.723.723 0 0 1-.246.151.879.879 0 0 1-.313.054zm-.452-.692c0 .192.043.344.129.454.086.11.198.165.337.165a.43.43 0 0 0 .35-.176.655.655 0 0 0 .1-.203c.025-.08.037-.167.037-.265s-.01-.186-.033-.266-.054-.149-.096-.207a.431.431 0 0 0-.355-.18.404.404 0 0 0-.344.17c-.083.114-.125.283-.125.508zm2.216.65a1.815 1.815 0 0 0-.152-.01 6.628 6.628 0 0 0-.62.01v-.059l.187-.038c.072-.014.108-.056.108-.125v-.693c0-.055-.014-.096-.041-.121a.387.387 0 0 0-.167-.066v-.053c.08-.02.154-.052.22-.093s.12-.094.159-.157h.059v1.193c0 .035.005.06.016.077.01.016.03.027.06.034l.17.042v.06zm-.38-2.125c.045 0 .083.016.115.047s.05.069.05.113c0 .04-.018.074-.051.104a.174.174 0 0 1-.12.046.144.144 0 0 1-.106-.044.144.144 0 0 1-.044-.106c0-.044.016-.082.047-.113a.15.15 0 0 1 .11-.047zm2.23 2.122a6.457 6.457 0 0 0-.734 0v-.06l.185-.027c.05-.007.076-.052.076-.136v-.588a.63.63 0 0 0-.062-.304c-.042-.075-.124-.113-.247-.113-.142 0-.282.07-.421.209v.834c0 .037.028.063.083.077l.195.049v.059l-.116-.007a3.206 3.206 0 0 0-.152-.004h-.115c-.08 0-.153 0-.217.002a1.77 1.77 0 0 0-.158.009v-.06l.18-.034c.047-.007.07-.042.07-.105v-.688c0-.072-.014-.12-.043-.146a.314.314 0 0 0-.155-.056v-.063a.55.55 0 0 0 .369-.31h.059v.317c.088-.079.184-.14.287-.186s.195-.068.276-.068c.27 0 .404.16.404.477v.689c0 .044.006.077.017.1s.035.039.07.046l.15.028v.059zm.626-1.687h.046l.001.186.002.186.466-.01v.128l-.466.014v.7c0 .136.01.238.03.305.02.068.074.099.165.094a.386.386 0 0 0 .12-.022.824.824 0 0 0 .151-.072l.031.049c-.046.056-.102.099-.168.129s-.157.045-.273.045a.424.424 0 0 1-.146-.021c-.038-.014-.068-.037-.09-.07s-.04-.077-.048-.133a1.558 1.558 0 0 1-.012-.214v-.783c-.032 0-.064 0-.094.002l-.094.002c-.033 0-.049-.01-.049-.028 0-.019.016-.035.046-.049a.65.65 0 0 0 .219-.143 1.003 1.003 0 0 0 .163-.296zm2.31 1.732c-.104 0-.2-.018-.289-.054a.694.694 0 0 1-.438-.666c0-.107.019-.204.056-.292a.667.667 0 0 1 .156-.228.73.73 0 0 1 .238-.15.827.827 0 0 1 .305-.054c.113 0 .216.02.308.058a.698.698 0 0 1 .386.39.752.752 0 0 1-.004.565.704.704 0 0 1-.405.377.879.879 0 0 1-.313.054zm-.452-.692c0 .192.043.344.128.454.086.11.199.165.338.165a.43.43 0 0 0 .35-.176.655.655 0 0 0 .1-.203c.025-.08.037-.167.037-.265s-.011-.186-.033-.266-.054-.149-.096-.207a.431.431 0 0 0-.355-.18.404.404 0 0 0-.344.17c-.083.114-.125.283-.125.508zm1.996-.696l.449.01v.122l-.442.014v.87c0 .141.049.219.146.233l.226.035v.059a6.707 6.707 0 0 0-.379-.01h-.1c-.17 0-.297.003-.383.01v-.056l.108-.024a.334.334 0 0 0 .083-.025.096.096 0 0 0 .042-.038.134.134 0 0 0 .016-.06 2.05 2.05 0 0 0 .001-.096v-.856a1.814 1.814 0 0 0-.254-.021v-.052c.054-.021.097-.04.129-.058a.506.506 0 0 0 .075-.046.111.111 0 0 0 .035-.042.126.126 0 0 0 .008-.049c0-.05.009-.123.026-.217s.05-.188.096-.28a.85.85 0 0 1 .19-.249.53.53 0 0 1 .307-.13.693.693 0 0 1 .101-.007c.19.004.285.055.285.153 0 .085-.046.128-.139.128a.175.175 0 0 1-.07-.019 5.198 5.198 0 0 1-.088-.042c-.031-.015-.064-.029-.097-.041s-.067-.02-.1-.02c-.069 0-.123.017-.161.05s-.066.075-.082.128a.7.7 0 0 0-.028.18 5.85 5.85 0 0 0-.003.203v.154c0 .041.001.07.003.09zm1.913-.344h.046l.001.186.002.186.466-.01v.128l-.466.014v.7c0 .136.01.238.03.305.02.068.074.099.165.094a.386.386 0 0 0 .12-.022.824.824 0 0 0 .151-.072l.031.049c-.046.056-.102.099-.168.129s-.157.045-.273.045a.424.424 0 0 1-.147-.02.191.191 0 0 1-.09-.07.303.303 0 0 1-.047-.134 1.558 1.558 0 0 1-.012-.214v-.783c-.033 0-.064 0-.094.002l-.094.002c-.033 0-.049-.01-.049-.028 0-.019.015-.035.046-.049a.65.65 0 0 0 .219-.143 1.002 1.002 0 0 0 .163-.296zm.919-.244c0-.03-.003-.055-.01-.076s-.017-.04-.034-.054c-.017-.015-.043-.029-.076-.04s-.078-.023-.13-.035v-.045c.045-.003.104-.014.175-.035s.145-.051.224-.09h.084v1.224c.164-.209.344-.314.539-.317a.491.491 0 0 1 .115.014c.097.021.173.071.227.15a.534.534 0 0 1 .082.31v.744a.09.09 0 0 0 .014.054c.01.012.034.025.073.036l.146.035v.06a8.017 8.017 0 0 0-.34-.015c-.04 0-.09.001-.149.004l-.196.01v-.059l.139-.038c.03-.01.052-.02.064-.033.013-.013.02-.04.02-.079v-.71a.31.31 0 0 0-.082-.225.286.286 0 0 0-.214-.084.398.398 0 0 0-.235.07.973.973 0 0 0-.203.205v.744c0 .026.004.046.012.06.008.013.026.024.054.03l.226.06v.06a1.844 1.844 0 0 0-.155-.011 6.815 6.815 0 0 0-.62.01v-.059l.177-.038c.03-.007.05-.016.059-.026.009-.01.014-.03.014-.058v-1.753zm2.855 1.054h-.956a.887.887 0 0 0-.01.132.64.64 0 0 0 .142.433c.095.11.226.166.393.166a.521.521 0 0 0 .223-.047.867.867 0 0 0 .219-.159l.014.08c-.08.105-.17.184-.273.237s-.224.08-.36.08c-.086 0-.166-.018-.239-.054s-.137-.086-.191-.151-.097-.141-.127-.228a.86.86 0 0 1 .005-.57.652.652 0 0 1 .838-.402.484.484 0 0 1 .275.271.66.66 0 0 1 .047.212zm-.939-.08h.504c.035 0 .065 0 .09-.002a.156.156 0 0 0 .064-.014.052.052 0 0 0 .03-.036.171.171 0 0 0-.006-.07.37.37 0 0 0-.085-.163c-.043-.049-.109-.073-.197-.073-.104 0-.191.032-.26.096s-.117.15-.14.262zm2.664.985a.585.585 0 0 1-.25-.05.488.488 0 0 1-.177-.138.592.592 0 0 1-.105-.206.896.896 0 0 1-.035-.253c0-.123.021-.232.063-.326a.699.699 0 0 1 .65-.426.54.54 0 0 1 .127.014 1.057 1.057 0 0 1 .207.073l.195-.1.032.01.001.54.002.542c0 .092.04.136.118.132a.101.101 0 0 0 .045-.009.519.519 0 0 0 .035-.02c.01-.008.02-.017.031-.024l.035.021a.432.432 0 0 1-.062.112.369.369 0 0 1-.087.074.223.223 0 0 1-.122.033c-.079 0-.135-.024-.167-.074a.377.377 0 0 1-.049-.207v-.105a.636.636 0 0 1-.06.143.5.5 0 0 1-.238.21.49.49 0 0 1-.189.033zm.487-.77c0-.078-.006-.15-.019-.215s-.034-.12-.064-.165-.07-.08-.117-.104a.391.391 0 0 0-.179-.037c-.048 0-.1.01-.155.03a.391.391 0 0 0-.147.097.538.538 0 0 0-.11.174.82.82 0 0 0-.014.477.61.61 0 0 0 .085.186.429.429 0 0 0 .136.126.357.357 0 0 0 .184.047.301.301 0 0 0 .155-.041.392.392 0 0 0 .124-.117.67.67 0 0 0 .085-.175.774.774 0 0 0 .036-.22v-.062zm1.913.543a.59.59 0 0 1-.227.181.71.71 0 0 1-.576.005.652.652 0 0 1-.362-.377.852.852 0 0 1 .002-.57.64.64 0 0 1 .386-.385.896.896 0 0 1 .322-.054c.127 0 .231.02.311.058s.12.089.12.151c0 .035-.01.064-.031.089a.106.106 0 0 1-.073.04.12.12 0 0 1-.087-.038l-.087-.087c-.033-.033-.07-.062-.113-.09s-.096-.04-.159-.04a.29.29 0 0 0-.177.055c-.049.036-.089.083-.12.14s-.054.124-.07.195a1.048 1.048 0 0 0-.022.216c0 .081.013.158.038.231a.594.594 0 0 0 .108.192.5.5 0 0 0 .39.18c.092-.001.167-.016.222-.046s.11-.073.16-.13l.045.084zm.63-1.488h.045c0 .062 0 .124.002.186l.002.186.466-.01v.128l-.466.014v.7c0 .136.01.238.03.305.019.068.074.099.164.094a.386.386 0 0 0 .12-.022.824.824 0 0 0 .152-.072l.03.049c-.045.056-.102.099-.168.129s-.157.045-.273.045a.424.424 0 0 1-.146-.021.191.191 0 0 1-.09-.07.303.303 0 0 1-.047-.133 1.558 1.558 0 0 1-.012-.214v-.783c-.033 0-.064 0-.094.002l-.094.002c-.032 0-.049-.01-.049-.028 0-.019.015-.035.045-.049a.65.65 0 0 0 .22-.143 1.003 1.003 0 0 0 .163-.296zm2.31 1.732c-.105 0-.201-.018-.29-.054a.694.694 0 0 1-.437-.666c0-.107.018-.204.055-.292a.666.666 0 0 1 .157-.228.73.73 0 0 1 .238-.15.827.827 0 0 1 .304-.054c.114 0 .217.02.308.058a.706.706 0 0 1 .44.673.684.684 0 0 1-.217.508.723.723 0 0 1-.245.151.879.879 0 0 1-.313.054zm-.453-.692c0 .192.043.344.13.454.085.11.197.165.336.165a.43.43 0 0 0 .35-.176.655.655 0 0 0 .1-.203c.025-.08.037-.167.037-.265s-.01-.186-.033-.266-.054-.149-.095-.207a.431.431 0 0 0-.355-.18.404.404 0 0 0-.344.17c-.084.114-.126.283-.126.508zm1.997-.696l.449.01v.122l-.442.014v.87c0 .141.049.219.146.233l.226.035v.059a6.707 6.707 0 0 0-.38-.01h-.1c-.17 0-.297.003-.383.01v-.056l.108-.024a.334.334 0 0 0 .084-.025.096.096 0 0 0 .041-.038.134.134 0 0 0 .016-.06 2.05 2.05 0 0 0 .002-.096v-.856a1.814 1.814 0 0 0-.254-.02v-.053c.053-.021.096-.04.129-.058a.506.506 0 0 0 .074-.046.111.111 0 0 0 .035-.042.126.126 0 0 0 .009-.049c0-.05.009-.123.026-.217s.05-.188.096-.28a.85.85 0 0 1 .19-.249.53.53 0 0 1 .307-.13.693.693 0 0 1 .1-.007c.191.004.286.055.286.153 0 .085-.046.128-.139.128a.175.175 0 0 1-.07-.019 5.198 5.198 0 0 1-.088-.042c-.032-.015-.064-.029-.098-.041s-.066-.02-.099-.02c-.07 0-.123.017-.162.05s-.065.075-.081.128-.026.113-.028.18a5.85 5.85 0 0 0-.004.203v.154c0 .041.002.07.004.09zm1.454 1.346v-.055l.167-.032c.046-.011.076-.029.088-.052a.285.285 0 0 0 .02-.125v-.668c0-.046-.01-.08-.03-.1-.02-.022-.063-.04-.13-.053l-.09-.02.006-.053a.908.908 0 0 0 .233-.113.56.56 0 0 0 .17-.21h.063a4.965 4.965 0 0 1 .014.43 1.015 1.015 0 0 1 .185-.236c.078-.076.15-.115.212-.115.058 0 .103.017.135.05s.049.073.049.124c0 .047-.013.083-.04.11s-.06.04-.1.04-.08-.012-.12-.035-.079-.035-.109-.035c-.023 0-.047.012-.071.035a.578.578 0 0 0-.12.186.258.258 0 0 0-.02.089v.58c0 .061.01.101.029.12.02.02.062.035.127.044l.25.039v.055a7.88 7.88 0 0 0-.445-.014h-.049a6.973 6.973 0 0 0-.424.014zm2.518-.88h-.956a.887.887 0 0 0-.01.132c0 .179.047.323.142.433s.226.166.393.166a.521.521 0 0 0 .222-.047.867.867 0 0 0 .22-.159l.013.08a.807.807 0 0 1-.273.237.773.773 0 0 1-.36.08c-.085 0-.165-.018-.238-.054s-.137-.086-.191-.151a.715.715 0 0 1-.127-.228.86.86 0 0 1 .005-.57.652.652 0 0 1 .838-.402.484.484 0 0 1 .275.271.66.66 0 0 1 .047.212zm-.94-.08h.505c.035 0 .065 0 .09-.002a.156.156 0 0 0 .063-.013.052.052 0 0 0 .03-.037.171.171 0 0 0-.005-.07.37.37 0 0 0-.086-.163c-.042-.049-.108-.073-.196-.073-.104 0-.191.032-.26.096s-.117.15-.14.262zm1.796.985a.585.585 0 0 1-.25-.05.488.488 0 0 1-.178-.138c-.046-.058-.081-.127-.104-.206a.904.904 0 0 1 .027-.579.699.699 0 0 1 .65-.426.54.54 0 0 1 .128.014 1.057 1.057 0 0 1 .207.073l.195-.1.03.01a81.016 81.016 0 0 1 .003 1.082c.001.092.04.136.12.132a.101.101 0 0 0 .045-.009.519.519 0 0 0 .035-.02c.009-.008.02-.017.03-.023l.036.02a.432.432 0 0 1-.063.112.369.369 0 0 1-.087.074.223.223 0 0 1-.122.034c-.079 0-.134-.025-.167-.075a.377.377 0 0 1-.048-.207v-.105a.636.636 0 0 1-.061.143.478.478 0 0 1-.426.243zm.487-.77c0-.078-.007-.15-.02-.215a.452.452 0 0 0-.064-.165.305.305 0 0 0-.116-.104.391.391 0 0 0-.18-.037c-.048 0-.1.01-.154.03a.391.391 0 0 0-.148.097.538.538 0 0 0-.11.174.82.82 0 0 0-.014.477.61.61 0 0 0 .086.186.429.429 0 0 0 .135.127.357.357 0 0 0 .185.046.301.301 0 0 0 .154-.041c.048-.028.09-.067.124-.117s.063-.108.085-.175a.774.774 0 0 0 .037-.22v-.062zm1.795-1.164a.568.568 0 0 0-.01-.112c-.005-.027-.018-.05-.037-.067s-.048-.033-.084-.046a1.441 1.441 0 0 0-.14-.04v-.055a1.825 1.825 0 0 0 .424-.08h.087v2.055c0 .042.002.075.007.098.004.023.015.04.03.05s.04.017.072.02l.127.006v.06a6.503 6.503 0 0 1-.476.08v-.168c-.058.026-.11.048-.157.067a1.167 1.167 0 0 1-.396.083.5.5 0 0 1-.397-.195.701.701 0 0 1-.167-.466.835.835 0 0 1 .207-.555c.064-.07.137-.126.22-.167s.168-.06.258-.06c.176 0 .32.03.432.093v-.601zm0 1.71v-.65c0-.048-.003-.1-.01-.154a.384.384 0 0 0-.046-.15.299.299 0 0 0-.12-.113.475.475 0 0 0-.228-.045c-.063 0-.121.016-.176.049s-.101.076-.14.132-.07.122-.093.198a.852.852 0 0 0 .004.487.564.564 0 0 0 .1.184.442.442 0 0 0 .35.16c.072 0 .141-.009.207-.027a.429.429 0 0 0 .151-.07zm1.415.2a1.815 1.815 0 0 0-.151-.011 6.628 6.628 0 0 0-.621.01v-.059l.188-.038c.072-.014.108-.056.108-.125v-.693c0-.055-.014-.096-.042-.121a.387.387 0 0 0-.167-.066v-.053c.081-.02.155-.052.22-.093s.12-.094.16-.157h.058v1.193c0 .035.005.06.016.077.01.016.03.027.06.034l.171.042v.06zm-.379-2.126c.044 0 .082.016.115.047s.049.069.049.113c0 .04-.017.074-.05.104a.174.174 0 0 1-.12.046.144.144 0 0 1-.107-.044.144.144 0 0 1-.043-.106c0-.044.015-.082.047-.113a.15.15 0 0 1 .11-.047zm2.23 2.122a6.457 6.457 0 0 0-.734 0v-.06l.184-.027c.051-.007.077-.052.077-.136v-.588a.63.63 0 0 0-.063-.304c-.042-.075-.124-.113-.247-.113-.141 0-.282.07-.42.209v.834c0 .037.027.063.083.077l.194.049v.059l-.116-.007a3.24 3.24 0 0 0-.151-.004h-.115c-.081 0-.154 0-.218.002a1.77 1.77 0 0 0-.158.009v-.06l.181-.034c.046-.007.07-.042.07-.105v-.688c0-.072-.015-.12-.044-.146a.314.314 0 0 0-.155-.056v-.063a.55.55 0 0 0 .37-.31h.058v.317c.088-.079.184-.14.287-.186a.701.701 0 0 1 .277-.068c.269 0 .403.16.403.477v.689c0 .044.006.077.018.1s.034.039.07.046l.149.028v.059zm.779-.021a.533.533 0 0 1-.404-.176.567.567 0 0 1-.118-.196.728.728 0 0 1-.042-.25.78.78 0 0 1 .054-.295.692.692 0 0 1 .365-.379.65.65 0 0 1 .263-.054.92.92 0 0 1 .292.045c.04.012.072.026.098.042l.201-.128.032.01v1.318a.578.578 0 0 1-.197.442c-.061.056-.134.1-.219.132s-.178.049-.28.049a1.25 1.25 0 0 1-.304-.03c-.076-.02-.133-.044-.17-.073s-.064-.059-.076-.09-.017-.059-.017-.082c0-.04.012-.069.035-.089a.135.135 0 0 1 .09-.03c.056 0 .091.016.106.046l.047.1c.016.037.044.072.084.102s.111.045.215.045c.302 0 .453-.159.453-.477v-.413a.832.832 0 0 1-.066.156.574.574 0 0 1-.105.137.509.509 0 0 1-.148.1.458.458 0 0 1-.19.038zm.508-.738c0-.07-.006-.135-.018-.196s-.033-.116-.064-.164c-.031-.047-.074-.084-.127-.11a.467.467 0 0 0-.364-.008.359.359 0 0 0-.132.103.514.514 0 0 0-.09.174.808.808 0 0 0-.033.243c0 .07.007.138.02.205a.57.57 0 0 0 .069.18.376.376 0 0 0 .12.125.321.321 0 0 0 .177.047c.065 0 .124-.017.177-.049s.1-.076.138-.13a.734.734 0 0 0 .127-.388v-.032zm.81.797a.18.18 0 0 1-.184-.184.18.18 0 0 1 .184-.185.18.18 0 0 1 .184.185.18.18 0 0 1-.184.184z" fill="#1d1d1d"/><path d="M71.63 42.12c-.56 0-1.05-.087-1.47-.26s-.768-.412-1.045-.715-.483-.66-.62-1.07-.205-.852-.205-1.325c0-.393.068-.79.205-1.19s.343-.762.62-1.085c.277-.323.625-.587 1.045-.79s.91-.305 1.47-.305c.22 0 .422.005.605.015s.358.027.525.05.33.053.49.09.327.078.5.125c.007.18.03.4.07.66s.093.523.16.79c-.053.027-.107.04-.16.04s-.102-.007-.145-.02c-.043-.013-.072-.05-.085-.11-.12-.44-.31-.753-.57-.94s-.637-.28-1.13-.28c-.413 0-.778.067-1.095.2s-.583.32-.8.56-.38.528-.49.865-.165.712-.165 1.125c0 .46.07.883.21 1.27s.328.72.565 1 .513.497.83.65.655.23 1.015.23c.287 0 .528-.028.725-.085s.36-.138.49-.245.24-.238.33-.395.175-.335.255-.535c.047-.1.127-.15.24-.15a.4.4 0 0 1 .19.05c-.08.233-.16.49-.24.77s-.147.56-.2.84a12.808 12.808 0 0 1-2.12.17zm9.15-.82c0 .133.043.225.13.275s.26.102.52.155c.067.013.1.06.1.14a.93.93 0 0 1-.02.18 16.836 16.836 0 0 0-1.2-.05c-.187 0-.385.005-.595.015s-.415.022-.615.035a.927.927 0 0 1-.02-.18c0-.08.033-.127.1-.14.247-.047.417-.097.51-.15s.14-.147.14-.28v-2.42h-3.14v2.42c0 .133.043.225.13.275s.26.102.52.155c.073.013.11.06.11.14a.93.93 0 0 1-.02.18 18.644 18.644 0 0 0-1.21-.05c-.187 0-.383.005-.59.015s-.413.022-.62.035a.927.927 0 0 1-.02-.18c0-.08.033-.127.1-.14.253-.047.427-.097.52-.15s.14-.147.14-.28v-5.08a.464.464 0 0 0-.025-.165c-.017-.043-.048-.082-.095-.115s-.112-.062-.195-.085-.192-.048-.325-.075c-.067-.007-.1-.06-.1-.16 0-.047.007-.103.02-.17a17.139 17.139 0 0 0 1.18.05c.187 0 .383-.005.59-.015s.41-.022.61-.035a.89.89 0 0 1 .02.17c0 .093-.033.147-.1.16-.26.04-.432.09-.515.15s-.125.157-.125.29v2.24h3.14v-2.24c0-.113-.04-.205-.12-.275s-.25-.125-.51-.165c-.073-.007-.11-.06-.11-.16 0-.047.007-.103.02-.17a16.98 16.98 0 0 0 1.19.05c.187 0 .382-.005.585-.015s.408-.022.615-.035a.89.89 0 0 1 .02.17c0 .093-.033.147-.1.16-.26.04-.432.09-.515.15s-.125.157-.125.29zm7.83-5.61c.013-.027.028-.053.045-.08s.045-.047.085-.06.093-.025.16-.035.16-.015.28-.015c.053 0 .123-.002.21-.005l.28-.01c.1-.003.202-.008.305-.015l.285-.02a.86.86 0 0 1 .02.16c0 .107-.033.163-.1.17-.24.033-.4.078-.48.135s-.12.132-.12.225l.015.265a338.36 338.36 0 0 1 .12 2.435c.03.66.065 1.48.105 2.46.007.127.05.22.13.28s.243.11.49.15c.033.007.058.025.075.055s.025.065.025.105-.007.093-.02.16l-.635-.035a10.044 10.044 0 0 0-.775-.01l-.315.01a9.166 9.166 0 0 0-.605.035.86.86 0 0 1-.02-.16c0-.107.033-.16.1-.16.267-.053.448-.107.545-.16s.145-.143.145-.27l-.015-.37c-.01-.227-.023-.503-.04-.83s-.033-.68-.05-1.06-.033-.738-.05-1.075l-.045-.87a13.28 13.28 0 0 1-.02-.445l-2.19 5.29c-.027.06-.052.105-.075.135s-.055.045-.095.045a.248.248 0 0 1-.09-.01l-2.45-5.62c-.007.067-.015.228-.025.485s-.023.562-.04.915l-.055 1.12-.055 1.09a110.982 110.982 0 0 0-.055 1.2c0 .207.227.35.68.43.067.007.1.06.1.16 0 .04-.007.093-.02.16-.18-.013-.357-.025-.53-.035S83.513 42 83.38 42c-.107 0-.25.005-.43.015s-.35.022-.51.035a.86.86 0 0 1-.02-.16c0-.093.033-.147.1-.16.18-.033.325-.082.435-.145s.172-.158.185-.285c0-.06.007-.228.02-.505l.045-.985.055-1.21a1249.147 1249.147 0 0 0 .11-2.45c0-.107-.042-.185-.125-.235s-.242-.095-.475-.135c-.067-.007-.1-.063-.1-.17 0-.04.007-.093.02-.16a18.06 18.06 0 0 0 .625.035l.315.01c.1.003.18.005.24.005.12 0 .213.005.28.015s.12.022.16.035.068.033.085.06.032.053.045.08l2.14 4.99z"/></g><use transform="translate(39.689 58.666)" width="100%" height="100%" fill="url(#j)" filter="url(#k)" xlink:href="#l"/><path d="M49.251 64.499c-3 8.333-3.833 13.583-2.5 15.75z" fill="url(#m)" fill-rule="evenodd" filter="url(#k)" mask="url(#mask-11)"/></g></svg>