<?xml version="1.0" encoding="UTF-8"?>
<svg width="128" height="128" version="1.1" viewBox="0 0 128 128" xmlns="http://www.w3.org/2000/svg" xmlns:cc="http://creativecommons.org/ns#" xmlns:dc="http://purl.org/dc/elements/1.1/" xmlns:rdf="http://www.w3.org/1999/02/22-rdf-syntax-ns#">
 <metadata>
  <rdf:RDF>
   <cc:Work rdf:about="">
    <dc:format>image/svg+xml</dc:format>
    <dc:type rdf:resource="http://purl.org/dc/dcmitype/StillImage"/>
    <dc:title>deepin-repair-tools</dc:title>
   </cc:Work>
  </rdf:RDF>
 </metadata>
 <title>deepin-repair-tools</title>
 <defs>
  <linearGradient id="b" x1="56.302" x2="56.302" y1="97.413" y2="4.121" gradientTransform="matrix(1.0302 0 0 .97072 6 11)" gradientUnits="userSpaceOnUse">
   <stop stop-color="#8E8E8E" offset="0"/>
   <stop stop-color="#AFAFAF" offset=".932"/>
   <stop stop-color="#BEBEBE" offset=".932"/>
   <stop stop-color="#C2C2C2" offset="1"/>
  </linearGradient>
  <linearGradient id="c" x1="56.302" x2="56.302" y1="4.121" y2="102.9" gradientTransform="matrix(1.0302 0 0 .97072 6 11)" gradientUnits="userSpaceOnUse">
   <stop stop-color="#B3B3B3" offset="0"/>
   <stop stop-color="#727272" offset="1"/>
  </linearGradient>
  <filter id="a" color-interpolation-filters="sRGB">
   <feFlood flood-opacity=".196" result="flood"/>
   <feComposite in="flood" in2="SourceGraphic" operator="in" result="composite1"/>
   <feGaussianBlur in="composite1" result="blur" stdDeviation="2"/>
   <feOffset dx="0" dy="2" result="offset"/>
   <feComposite in="SourceGraphic" in2="offset" result="composite2"/>
  </filter>
 </defs>
 <path d="m13.154 20.195 3.956-4.006a4 4 0 0 1 2.846-1.19h88.088a4 4 0 0 1 2.846 1.19l3.956 4.006a4 4 0 0 1 1.154 2.81v87.974a2.02 2.02 0 0 1-2.02 2.02h-99.96a2.02 2.02 0 0 1-2.02-2.02v-87.973a4 4 0 0 1 1.154-2.811z" fill="url(#b)" fill-rule="evenodd" filter="url(#a)"/>
 <path d="m13.866 20.833a3 3 0 0 0-0.866 2.109v88.058a1 1 0 0 0 1 1h100a1 1 0 0 0 1-1v-88.058a3 3 0 0 0-0.866-2.109l-3.895-3.942a3 3 0 0 0-2.134-0.891h-88.21a3 3 0 0 0-2.134 0.891zm-0.711-0.703 3.895-3.942a4 4 0 0 1 2.845-1.188h88.21a4 4 0 0 1 2.845 1.188l3.895 3.942a4 4 0 0 1 1.155 2.812v88.058a2 2 0 0 1-2 2h-100a2 2 0 0 1-2-2v-88.058a4 4 0 0 1 1.155-2.812z" fill="url(#c)" filter="url(#a)"/>
 <g transform="matrix(1.8867 0 0 1.8867 6.2059 -1.4416)" fill-rule="evenodd">
  <path d="m12 13.001v33.602l7.9999-11.902 11.086 24.3h9.6279l-16.714-26h16z" opacity=".2"/>
  <path d="m12 12.001v33.6l7.9999-11.9 12 26.3h9.9999l-18-28h16z" fill="#fff"/>
 </g>
</svg>
