<svg width="128" height="128" version="1.1" viewBox="0 0 128 128" xmlns="http://www.w3.org/2000/svg" xmlns:xlink="http://www.w3.org/1999/xlink"><title>crossover</title><defs><path id="b" d="M56 109c14.636 0 27.886-5.932 37.477-15.523C103.068 83.886 109 70.636 109 56c0-29.271-23.729-53-53-53S3 26.729 3 56s23.729 53 53 53z"/><filter id="a" color-interpolation-filters="sRGB"><feFlood flood-color="#000" flood-opacity=".196" result="flood"/><feComposite in="flood" in2="SourceGraphic" operator="in" result="composite1"/><feGaussianBlur in="composite1" result="blur" stdDeviation="1.5"/><feOffset dx="0" dy="1.5" result="offset"/><feComposite in="SourceGraphic" in2="offset" result="composite2"/></filter></defs><g transform="translate(8 6)" fill="none" fill-rule="evenodd" filter="url(#a)"><circle cx="56" cy="56" r="56" fill="#fff"/><use width="100%" height="100%" fill="#fff" fill-rule="evenodd" xlink:href="#b"/><path d="M56 108c13.98 0 27.08-5.54 36.77-15.23C102.46 83.08 108 69.98 108 56c0-28.719-23.281-52-52-52S4 27.281 4 56s23.281 52 52 52z" stroke="#1038fb" stroke-width="2"/><path d="M99.304 43.063c-4.918-3.931-10.651-7.443-17.033-10.285-26.385-11.747-53.869-7.581-61.388 9.306-7.518 16.887 7.776 40.099 34.161 51.847 1.617.72 3.238 1.38 4.858 1.98C44.486 83.59 37.075 67.152 42.774 54.35c7.058-15.852 31.709-20.495 56.53-11.287z" fill="#1038fb"/><path d="M12.863 70.352c4.86 3.98 10.525 7.565 16.835 10.509 26.44 12.329 54.217 8.721 62.041-8.058 7.825-16.78-7.266-40.376-33.706-52.706a83.96 83.96 0 0 0-5.059-2.16c15.503 12.697 22.828 29.422 16.871 42.197C62.52 75.846 37.7 80.008 12.863 70.354z" fill="#fd5400" stroke="#fff" stroke-width="2.458"/></g></svg>