<svg width="128" height="128" version="1.1" viewBox="0 0 128 128" xmlns="http://www.w3.org/2000/svg"><defs><filter id="a" color-interpolation-filters="sRGB"><feFlood flood-color="#A9A69A" flood-opacity=".498" result="flood"/><feComposite in="flood" in2="SourceGraphic" operator="in" result="composite1"/><feGaussianBlur in="composite1" result="blur" stdDeviation="1.5"/><feOffset dx="0" dy="1.5" result="offset"/><feComposite in="SourceGraphic" in2="offset" result="fbSourceGraphic"/><feColorMatrix in="fbSourceGraphic" result="fbSourceGraphicAlpha" values="0 0 0 -1 0 0 0 0 -1 0 0 0 0 -1 0 0 0 0 1 0"/><feFlood flood-color="#A9A69A" flood-opacity=".498" in="fbSourceGraphic" result="flood"/><feComposite in="flood" in2="fbSourceGraphic" operator="in" result="composite1"/><feGaussianBlur in="composite1" result="blur" stdDeviation="1.5"/><feOffset dx="0" dy="1.5" result="offset"/><feComposite in="fbSourceGraphic" in2="offset" result="composite2"/></filter></defs><title>deepin-calculator</title><g transform="translate(5.862 4.953) scale(1.8168)" filter="url(#a)"><path d="M4 51.124v2C4 54.718 5.25 56 6.8 56h50.4c1.55 0 2.8-1.282 2.8-2.876v-2C60 52.718 58.75 54 57.2 54H6.8C5.25 54 4 52.718 4 51.124z" opacity=".2"/><rect transform="matrix(0 -1 -1 0 0 0)" x="-55" y="-60" width="45.999" height="55.999" rx="2.876" ry="2.8" fill="#4f4f4f"/><g transform="matrix(2 0 0 2 0 0)" opacity=".2"><rect x="6" y="10" width="20" height="5" rx="1.333" ry="1.25"/><rect x="6" y="18" width="20" height="5" rx="1.333" ry="1.25"/></g><g fill="#fff"><rect x="12" y="19" width="39.999" height="10" rx="2.666" ry="2.5"/><rect x="12" y="35" width="39.999" height="10" rx="2.666" ry="2.5"/><path d="M6.8 9C5.25 9 4 10.282 4 11.875v1.002c0-1.593 1.25-2.875 2.8-2.875H57.2c1.55 0 2.8 1.282 2.8 2.875v-1.002C60 10.282 58.75 9 57.2 9z" opacity=".1"/></g><circle cx="17" cy="24" r="3" fill="#4fa0ff"/><circle cx="17" cy="40" r="3" fill="#ff4f4f"/><circle cx="27" cy="24" r="3" fill="#4fa0ff"/><circle cx="27" cy="40" r="3" fill="#ff4f4f"/><circle cx="37" cy="24" r="3" fill="#4fa0ff"/><circle cx="37" cy="40" r="3" fill="#ff4f4f"/></g></svg>