<svg width="128" height="128" version="1.1" viewBox="0 0 128 128" xmlns="http://www.w3.org/2000/svg"><title>日历-128px</title><defs><linearGradient id="b" x1="73.67" x2="73.67" y1="10.425" y2="102.51" gradientTransform="scale(.86874 1.1511)" gradientUnits="userSpaceOnUse"><stop stop-color="#F9F9F9" offset="0"/><stop stop-color="#D7D7D7" offset="1"/></linearGradient><linearGradient id="c" x1="62.05" x2="62.05" y1="18.566" y2="115.52" gradientTransform="scale(1.0314 .96954)" gradientUnits="userSpaceOnUse"><stop stop-color="#FC5959" offset="0"/><stop stop-color="#DF2031" offset="1"/></linearGradient><filter id="a" color-interpolation-filters="sRGB"><feFlood flood-color="#000" flood-opacity=".196" result="flood"/><feComposite in="flood" in2="SourceGraphic" operator="in" result="composite1"/><feGaussianBlur in="composite1" result="blur" stdDeviation="1.5"/><feOffset dx="0" dy="1.5" result="offset"/><feComposite in="SourceGraphic" in2="offset" result="composite2"/></filter></defs><g fill-rule="evenodd" filter="url(#a)"><rect x="24" y="12" width="80" height="106" rx="3" fill="url(#b)"/><rect x="24" y="14" width="80" height="102" rx="3" fill="#ececec"/><path d="M14 20.995A2.993 2.993 0 0 1 16.993 18h94.014A2.998 2.998 0 0 1 114 20.995v88.011a2.993 2.993 0 0 1-2.993 2.995H16.993A2.998 2.998 0 0 1 14 109.006z" fill="url(#c)"/><rect x="14" y="20" width="100" height="90" rx="3" fill="#eb3a49"/><path d="M38.583 73.338l7-4.017c3.135-1.809 5.335-3.353 6.599-4.632 1.993-2.002 2.99-4.294 2.99-6.875 0-3.016-.912-5.41-2.735-7.183-1.823-1.773-4.253-2.66-7.291-2.66-4.497 0-7.608 1.689-9.334 5.066-.923 1.81-1.434 4.319-1.531 7.527h-6.672c.073-4.511.912-8.19 2.516-11.037C32.969 44.51 37.988 42 45.182 42c5.979 0 10.348 1.605 13.107 4.813 2.758 3.209 4.138 6.78 4.138 10.711 0 4.15-1.47 7.696-4.412 10.64C56.314 69.875 52.4 72.563 48 75c0 0-12.188 5-14 13h28v6H26c.243-4.463 2-15 12.583-20.662zM104 42v6c-1.677 1.65-18 23-21.047 46H76c1.653-10.095 6.953-30 20-46H68v-6h36z" fill="#df2031"/><path d="M38.583 71.338l7-4.017c3.135-1.809 5.335-3.353 6.599-4.632 1.993-2.002 2.99-4.294 2.99-6.875 0-3.016-.912-5.41-2.735-7.183-1.823-1.773-4.253-2.66-7.291-2.66-4.497 0-7.608 1.689-9.334 5.066-.923 1.81-1.434 4.319-1.531 7.527h-6.672c.073-4.511.912-8.19 2.516-11.037C32.969 42.51 37.988 40 45.182 40c5.979 0 10.348 1.605 13.107 4.813 2.758 3.209 4.138 6.78 4.138 10.711 0 4.15-1.47 7.696-4.412 10.64C56.314 67.875 52.4 70.563 48 73c0 0-12.188 5-14 13h28v6H26c.243-4.463 2-15 12.583-20.662zM104 40v6c-1.677 1.65-18 23-21.047 46H76c1.653-10.095 6.953-30 20-46H68v-6h36z" fill="#fff"/></g></svg>