<svg width="128" height="128" version="1.1" viewBox="0 0 128 128" xmlns="http://www.w3.org/2000/svg"><defs><filter id="a" color-interpolation-filters="sRGB"><feFlood flood-color="#000" flood-opacity=".294" result="flood"/><feComposite in="flood" in2="SourceGraphic" operator="in" result="composite1"/><feGaussianBlur in="composite1" result="blur" stdDeviation="1.5"/><feOffset dx="0" dy="1.5" result="offset"/><feComposite in="SourceGraphic" in2="offset" result="composite2"/></filter></defs><title>文件管理器-128px</title><g filter="url(#a)"><g fill-rule="evenodd"><path d="M16 44.8V31.992c0-1.468 1.095-3.145 2.435-3.739l40.786-18.09c2.693-1.194 7.059-1.19 9.755.01l40.582 18.073c1.348.6 2.441 2.275 2.441 3.746v83.002a3.001 3.001 0 0 1-3.004 3.006h-89.99A3.007 3.007 0 0 1 16 114.994V44.8z" fill="#00b8ff"/><path d="M112 31.992c0-1.47-1.093-3.146-2.441-3.746L68.977 10.173c-2.697-1.2-7.063-1.205-9.756-.01l-40.786 18.09c-1.34.594-2.435 2.27-2.435 3.739v1c0-1.469 1.095-3.145 2.435-3.739l40.786-18.09c2.693-1.195 7.06-1.19 9.756.01l40.582 18.073c1.348.6 2.441 2.275 2.441 3.746z" fill="#5fd3ff"/><path fill="#ffd245" d="M18.935 37.462l79.17-11.877 10.688 76.054-79.17 11.874z"/><path fill="#eef6ff" d="M24 34h80v76H24z"/><path fill="#fff" d="M104 34H24v1h80z"/><path d="M17 44h94v71.01a2 2 0 0 1-2.007 1.99H19.007A2.002 2.002 0 0 1 17 115.01V44z" fill="#39d4ff" opacity=".7"/><path fill="#b3efff" opacity=".7" d="M111 44H17v1h94z"/></g><path d="M57 86V66s1.667 5.667 7 5.667S71 66 71 66v32" fill="none" opacity=".1" stroke="#000" stroke-width="2.8"/><path d="M57 85V65s1.667 5.667 7 5.667S71 65 71 65v32" fill="none" stroke="#fff" stroke-width="2"/><g fill-rule="evenodd"><circle cx="64" cy="66" r="12" opacity=".1"/><circle cx="64" cy="64" r="12" fill="#fff"/><circle cx="64" cy="64" r="4" fill="#4ed8ff"/></g></g></svg>