<svg width="128" height="128" version="1.1" viewBox="0 0 128 128" xmlns="http://www.w3.org/2000/svg" xmlns:xlink="http://www.w3.org/1999/xlink"><title>dde-introduction</title><defs><linearGradient id="b" x1="55.211" x2="55.211" y1="8" y2="120" gradientUnits="userSpaceOnUse"><stop stop-color="#30FFAF" offset="0"/><stop stop-color="#08C5FF" offset="1"/></linearGradient><linearGradient id="c" x1="64" x2="64" y1="8" y2="118.58" gradientUnits="userSpaceOnUse"><stop stop-color="#8BFFD4" offset="0"/><stop stop-color="#00B2D4" offset="1"/></linearGradient><path id="d" d="M60.955 6.459c13.084 0 23.69 10.606 23.69 23.69v44.31a5 5 0 0 1-5 5h-42.38v-49.31c0-13.084 10.606-23.69 23.69-23.69z"/><path id="e" d="M52.68 48.809h28.418v3.51H52.68z"/><path id="f" d="M45.235 56.254h28.418v3.51H45.235z"/><path id="g" d="M30.682 41.852c4.07 0 7.37 3.3 7.37 7.37v11.231h-14.74v-11.23c0-4.071 3.3-7.371 7.37-7.371z"/><path id="h" d="M38.375 49.545a7.02 7.02 0 0 1 7.02 7.02v11.581H31.355V56.564a7.02 7.02 0 0 1 7.02-7.019z"/><path id="i" d="M45.82 56.99a7.02 7.02 0 0 1 7.02 7.02V75.59H38.8V64.01a7.02 7.02 0 0 1 7.02-7.019z"/><path id="j" d="M53.513 64.683c4.07 0 7.37 3.3 7.37 7.37v6.231a5 5 0 0 1-5 5h-9.74V72.053c0-4.07 3.3-7.37 7.37-7.37z"/><path id="k" d="M54.1 18.283V31.32c0 7-5.5 12.675-12.284 12.675V18.284"/><filter id="a" color-interpolation-filters="sRGB"><feFlood flood-color="#000" flood-opacity=".196" result="flood"/><feComposite in="flood" in2="SourceGraphic" operator="in" result="composite1"/><feGaussianBlur in="composite1" result="blur" stdDeviation="1.5"/><feOffset dx="0" dy="1.5" result="offset"/><feComposite in="SourceGraphic" in2="offset" result="composite2"/></filter></defs><g filter="url(#a)"><circle cx="64" cy="64" r="56" fill="url(#b)" fill-rule="evenodd"/><path d="M64 9.5C33.9 9.5 9.5 33.9 9.5 64s24.4 54.5 54.5 54.5 54.5-24.4 54.5-54.5S94.1 9.5 64 9.5zM64 8c30.928 0 56 25.072 56 56s-25.072 56-56 56S8 94.928 8 64 33.072 8 64 8z" fill="url(#c)"/><g fill="none" fill-rule="evenodd"><g transform="rotate(45 41.606 67.944)"><use width="100%" height="100%" fill="#404040" fill-rule="evenodd" xlink:href="#d"/><path d="M38.765 77.959h40.88a3.5 3.5 0 0 0 3.5-3.5v-44.31c0-12.255-9.935-22.19-22.19-22.19s-22.19 9.935-22.19 22.19z" stroke="#373737" stroke-width="3"/></g><path d="M62.904 38.026l31.208 31.208a5 5 0 0 1 0 7.07l-26.68 26.68a5 5 0 0 1-7.07 0L29.152 71.778c-9.32-9.32-9.32-24.431 0-33.75s24.43-9.32 33.75 0z" fill="#fff"/><g transform="rotate(45 47.54 75.548)"><use width="100%" height="100%" fill="#606060" fill-rule="evenodd" xlink:href="#e"/><path stroke="#373737" stroke-width="3.5" d="M54.43 50.559h24.918v1H54.43z"/></g><g transform="rotate(45 40.096 82.994)"><use width="100%" height="100%" fill="#606060" fill-rule="evenodd" xlink:href="#f"/><path stroke="#373737" stroke-width="3.5" d="M46.985 58.004h24.918v1H46.985z"/></g><g transform="rotate(45 11.333 76.137)"><use width="100%" height="100%" fill="#404040" fill-rule="evenodd" xlink:href="#g"/><path d="M25.062 58.703h11.24v-9.48a5.62 5.62 0 0 0-11.24 0v9.48z" stroke="#373737" stroke-width="3.5"/></g><g transform="rotate(45 19.026 83.83)"><use width="100%" height="100%" fill="#404040" fill-rule="evenodd" xlink:href="#h"/><path d="M33.106 66.396h10.538v-9.832a5.27 5.27 0 1 0-10.538 0v9.832z" stroke="#373737" stroke-width="3.5"/></g><g transform="rotate(45 26.47 91.275)"><use width="100%" height="100%" fill="#404040" fill-rule="evenodd" xlink:href="#i"/><path d="M40.551 73.841h10.538v-9.832a5.27 5.27 0 1 0-10.538 0v9.832z" stroke="#373737" stroke-width="3.5"/></g><g transform="rotate(45 34.164 98.968)"><use width="100%" height="100%" fill="#404040" fill-rule="evenodd" xlink:href="#j"/><path d="M47.893 81.534h7.99a3.25 3.25 0 0 0 3.25-3.25v-6.23a5.62 5.62 0 0 0-11.24 0z" stroke="#373737" stroke-width="3.5"/></g><g transform="rotate(45 28.609 56.124)"><use width="100%" height="100%" fill="#404040" fill-rule="evenodd" xlink:href="#k"/><path d="M52.35 20.033h-8.784v22.061c4.976-.864 8.784-5.35 8.784-10.774z" stroke="#373737" stroke-width="3.5"/></g></g></g></svg>