<svg width="128" height="128" version="1.1" viewBox="0 0 128 128" xmlns="http://www.w3.org/2000/svg" xmlns:xlink="http://www.w3.org/1999/xlink"><title>deepin-clone</title><defs><linearGradient id="c" x1="64" x2="64" y1="11.212" y2="120" gradientUnits="userSpaceOnUse"><stop stop-color="#0090FF" offset="0"/><stop stop-color="#0076FF" offset="1"/></linearGradient><linearGradient id="d" x1="64" x2="64" y1="8" y2="120" gradientUnits="userSpaceOnUse"><stop stop-color="#53A3FF" offset="0"/><stop stop-color="#0065EA" offset="1"/></linearGradient><linearGradient id="a" x1="50%" x2="50%" y2="100%"><stop stop-color="#fff" offset="0"/><stop stop-color="#E9F2F4" offset="1"/></linearGradient><linearGradient id="e" x1="40.607" x2="40.607" y1="-.002" y2="80.573" gradientTransform="scale(1.0419 .95979)" gradientUnits="userSpaceOnUse" xlink:href="#a"/><linearGradient id="f" x1="71.437" x2="71.437" y1="35.509" y2="78.2" gradientTransform="scale(.9023 1.1083)" gradientUnits="userSpaceOnUse" xlink:href="#a"/><filter id="b" color-interpolation-filters="sRGB"><feFlood flood-color="#000" flood-opacity=".235" result="flood"/><feComposite in="flood" in2="SourceGraphic" operator="in" result="composite1"/><feGaussianBlur in="composite1" result="blur" stdDeviation="2"/><feOffset dx="0" dy="2" result="offset"/><feComposite in="SourceGraphic" in2="offset" result="composite2"/></filter></defs><g filter="url(#b)"><circle cx="64" cy="64" r="56" fill="url(#c)" fill-rule="evenodd"/><path d="M64 8c30.928 0 56 25.072 56 56s-25.072 56-56 56S8 94.928 8 64 33.072 8 64 8zm0 1C33.624 9 9 33.624 9 64s24.624 55 55 55 55-24.624 55-55S94.376 9 64 9z" fill="url(#d)"/><path d="M31.626 62.333c.7-18.011 15.512-32.397 33.683-32.397 18.617 0 33.709 15.102 33.709 33.73s-15.092 33.73-33.709 33.73c-9.586 0-18.52-4.022-24.868-10.959a2.465 2.465 0 0 0-3.485-.154 2.47 2.47 0 0 0-.153 3.487c7.273 7.949 17.522 12.562 28.506 12.562 21.34 0 38.642-17.312 38.642-38.667s-17.3-38.667-38.642-38.667c-20.895 0-37.917 16.596-38.62 37.333h-6.688l9.333 18.667 9.333-18.667h-7.041z" fill="#006be7"/><path d="M11.959 37.333c.7-18.011 15.512-32.397 33.683-32.397 18.617 0 33.709 15.102 33.709 33.73s-15.092 33.73-33.709 33.73c-9.586 0-18.52-4.022-24.868-10.959a2.465 2.465 0 0 0-3.485-.154 2.47 2.47 0 0 0-.153 3.487c7.273 7.949 17.522 12.562 28.506 12.562 21.34 0 38.642-17.312 38.642-38.667S66.984-.002 45.642-.002c-20.895 0-37.917 16.596-38.62 37.333H.335l9.333 18.667L19 37.331H11.96z" fill="url(#e)" transform="translate(19.667 24)"/><path d="M74.262 40.894a24.004 24.004 0 0 1 9.456 5.884c-.732.019-1.498.02-2.279-.006 0 0-6.902.329-10.773 2.3 0 0-2.886 1.315-5.771 3.544 0 0-.612.313-.583 1.462.026 1.145-.587 4.198-2.631 5.988 0 0-1.46.766-.73 1.863 0 0 .985 1.461 2.374-.073 0 0 3.579-3.762 3.798-9.824 0 0 1.132-.987 2.92-1.279 0 0 .33 9.094-4.088 13.66 0 0-4.202 4.674-5.552-2.265 0 0-1.644-6.611 6.83-14.462 0 0 3.805-3.881 7.03-6.792zM45.198 52.926c3.114-6.211 8.844-10.884 15.745-12.572-2.948 5.495-4.446 12.711-4.303 17.412 0 0-.271 8.261 5.48 11.191 0 0 5.169 2.231 8.691-4.984 0 0 2.42-4.072 1.436-13.274 0 0 .942.164 1.049.31.106.146 2.082 7.085.694 12.93 0 0-1.278 6.866-7.561 8.437-6.28 1.57-11.176-2.23-14.5-5.808-1.999-2.154-4.781-7.24-6.73-13.641zm2.358 25.263c7.383 1.23 17.416 1.55 24.534-3.475 6.581-4.648 5.733-12.09 5.733-12.09-.109-5.662-3.686-11.285-3.686-11.285 13.913 12.124 5.69 25.594 5.69 25.594-2.266 4.456-5.945 7.962-9.997 10.528a24.224 24.224 0 0 1-3.164.206c-7.797 0-14.726-3.718-19.11-9.478z" fill="#006be7" fill-rule="evenodd"/><path d="M74.262 39.894a24.004 24.004 0 0 1 9.456 5.884c-.732.019-1.498.02-2.279-.006 0 0-6.902.329-10.773 2.3 0 0-2.886 1.315-5.771 3.544 0 0-.612.313-.583 1.462.026 1.145-.587 4.198-2.631 5.988 0 0-1.46.766-.73 1.863 0 0 .985 1.461 2.374-.073 0 0 3.579-3.762 3.798-9.824 0 0 1.132-.987 2.92-1.279 0 0 .33 9.094-4.088 13.66 0 0-4.202 4.674-5.552-2.265 0 0-1.644-6.611 6.83-14.462 0 0 3.805-3.881 7.03-6.792zM45.198 51.926c3.114-6.211 8.844-10.884 15.745-12.572-2.948 5.495-4.446 12.711-4.303 17.412 0 0-.271 8.261 5.48 11.191 0 0 5.169 2.231 8.691-4.984 0 0 2.42-4.072 1.436-13.274 0 0 .942.164 1.049.31.106.146 2.082 7.085.694 12.93 0 0-1.278 6.866-7.561 8.437-6.28 1.57-11.176-2.23-14.5-5.808-1.999-2.154-4.781-7.24-6.73-13.641zm2.358 25.263c7.383 1.23 17.416 1.55 24.534-3.475 6.581-4.648 5.733-12.09 5.733-12.09-.109-5.662-3.686-11.285-3.686-11.285 13.913 12.124 5.69 25.594 5.69 25.594-2.266 4.456-5.945 7.962-9.997 10.528a24.224 24.224 0 0 1-3.164.206c-7.797 0-14.726-3.718-19.11-9.478z" fill="url(#f)" fill-rule="evenodd"/></g></svg>