<svg width="128" height="128" version="1.1" viewBox="0 0 128 128" xmlns="http://www.w3.org/2000/svg"><title>深度启动盘制作工具-128px</title><defs><linearGradient id="b" x1="37.781" x2="37.781" y1="62.899" y2="125.7" gradientTransform="rotate(45 40.908 87.092) scale(1.08278 .92355)" gradientUnits="userSpaceOnUse"><stop stop-color="#FBCA48" offset="0"/><stop stop-color="#C38F0C" offset="1"/></linearGradient><filter id="a" color-interpolation-filters="sRGB"><feFlood flood-color="#000" flood-opacity=".196" result="flood"/><feComposite in="flood" in2="SourceGraphic" operator="in" result="composite1"/><feGaussianBlur in="composite1" result="blur" stdDeviation="2"/><feOffset dx="0" dy="2" result="offset"/><feComposite in="SourceGraphic" in2="offset" result="composite2"/></filter></defs><g fill-rule="evenodd" filter="url(#a)"><path d="M20.403 107.6C8.188 95.385 6.18 73.739 18.288 61.632l19.086-19.086 48.083 48.083-19.086 19.086c-12.11 12.11-33.75 10.103-45.968-2.115zm5.654-5.654c-6.58-6.579-9.765-17.876-6.515-26.314L52.24 108.33c-8.442 3.247-19.617.183-26.182-6.383z" fill="url(#b)"/><path d="M21.818 106.18C9.603 93.965 7.595 72.319 19.703 60.212L35.96 43.955l48.083 48.083-16.257 16.257c-12.11 12.11-33.75 10.103-45.968-2.115zm-2.275-30.553l32.697 32.697c-8.442 3.247-19.617.182-26.182-6.383-6.579-6.579-9.765-17.876-6.514-26.314z" fill="#f5b923"/><path d="M79.41 8.214l40.376 40.376c2.128 2.128 2.139 5.569.053 7.655L85.456 90.628 37.373 42.545 71.756 8.162c2.099-2.1 5.512-2.09 7.654.052z" fill="#2e2e2e"/><path d="M77.996 9.628l40.376 40.376c2.128 2.129 2.139 5.569.053 7.655l-32.97 32.969-48.082-48.083 32.969-32.97c2.099-2.098 5.512-2.089 7.654.054z"/><path d="M79.799 17.088l4.243 4.243-15.556 15.556-4.243-4.243zm26.87 26.87l4.243 4.243-15.556 15.556-4.243-4.243zM85.456 28.402l4.243 4.243-9.9 9.9-4.242-4.244zm9.9 9.9l4.242 4.242-9.9 9.9-4.242-4.243zM65.658 53.858L61.415 58.1l-4.243-4.242 4.243-4.243zm12.728 12.728l-4.243 4.242-4.243-4.243 4.243-4.242z" fill="#e0c13f"/><path d="M79.799 17.089l4.243 4.243L69.9 35.474l-4.243-4.243zm26.87 26.87l4.243 4.243L96.77 62.344 92.527 58.1zM85.456 28.403l4.243 4.243-8.486 8.485-4.242-4.243zm9.9 9.9l4.242 4.242-8.485 8.485-4.243-4.242zM65.658 53.859l-2.829 2.828-4.242-4.243 2.828-2.828zm12.728 12.728l-2.829 2.828-4.242-4.243 2.828-2.828z" fill="#ffeb95"/><path fill="#c38f0b" d="M20.402 73.657l33.94 33.941-2.12.708-32.528-32.527z"/></g></svg>