<svg width="128" height="128" version="1.1" viewBox="0 0 128 128" xmlns="http://www.w3.org/2000/svg"><title>deepin-calculator</title><defs><linearGradient id="b" x1="57" x2="57" y1="4" y2="98.47" gradientTransform="translate(7 9)" gradientUnits="userSpaceOnUse"><stop stop-color="#35C7FF" offset="0"/><stop stop-color="#00A7FF" offset="1"/></linearGradient><linearGradient id="c" x1="25" x2="25" y2="48.108" gradientUnits="userSpaceOnUse"><stop stop-color="#fff" offset="0"/><stop stop-color="#fff" offset="1"/></linearGradient><filter id="a" color-interpolation-filters="sRGB"><feFlood flood-color="#000" flood-opacity=".196" result="flood"/><feComposite in="flood" in2="SourceGraphic" operator="in" result="composite1"/><feGaussianBlur in="composite1" result="blur" stdDeviation="2"/><feOffset dx="0" dy="2" result="offset"/><feComposite in="SourceGraphic" in2="offset" result="composite2"/></filter></defs><g fill-rule="evenodd" filter="url(#a)"><path d="M17 13h94a4 4 0 0 1 4 4v94a4 4 0 0 1-4 4H17a4 4 0 0 1-4-4V17a4 4 0 0 1 4-4z" fill="url(#b)"/><path d="M115 63.5V111a4 4 0 0 1-4 4H17a4 4 0 0 1-4-4V63.5 110a4 4 0 0 0 4 4h94a4 4 0 0 0 4-4z" fill="#248ff4"/><path d="M115 64.5V17a4 4 0 0 0-4-4H17a4 4 0 0 0-4 4v47.5V18a4 4 0 0 1 4-4h94a4 4 0 0 1 4 4z" fill="#5fd1ff"/><path d="M39.899 88.486l7.071-7.071L45.556 80l-7.071 7.07-7.071-7.07-1.415 1.414 7.072 7.07-7.072 7.072 1.415 1.414 7.07-7.07 7.072 7.07 1.414-1.414z" fill="#fff"/><path d="M3 0h47v50H0V3a3 3 0 0 1 3-3z" fill="url(#c)" transform="translate(14 14)"/><path d="M40 38V28h-2v10H28v2h10v10h2V40h10v-2z" fill="#2abff9"/><path d="M79 39h22v2H79z" fill="#fff"/><g><path d="M64 64h50v47a3 3 0 0 1-3 3H64z" fill="#fff"/><path d="M80 84h18v2H80zm0 8h18v2H80z" fill="#2abff9"/></g></g></svg>