<svg width="128" height="128" version="1.1" viewBox="0 0 128 128" xmlns="http://www.w3.org/2000/svg"><title>软件包安装器-128px</title><defs><linearGradient id="b" x1="53.864" x2="53.864" y1="81.655" y2="133.44" gradientTransform="scale(1.1882 .84163)" gradientUnits="userSpaceOnUse"><stop stop-color="#D5E6F5" offset="0"/><stop stop-color="#DEE8F2" offset="1"/></linearGradient><linearGradient id="c" x1="29.137" x2="29.137" y1="102.24" y2="117.61" gradientTransform="scale(2.1928 .45604)" gradientUnits="userSpaceOnUse"><stop stop-color="#fff" offset="0"/><stop stop-color="#C9DAE9" offset="1"/></linearGradient><filter id="a" color-interpolation-filters="sRGB"><feFlood flood-color="#000" flood-opacity=".196" result="flood"/><feComposite in="flood" in2="SourceGraphic" operator="in" result="composite1"/><feGaussianBlur in="composite1" result="blur" stdDeviation="2"/><feOffset dx="0" dy="2" result="offset"/><feComposite in="SourceGraphic" in2="offset" result="composite2"/></filter></defs><g fill-rule="evenodd" filter="url(#a)"><path d="M103 116H25c-2 0-3-1-3-3V15c0-2 1-3 3-3h55l26 26v75c0 3-3 3-3 3z" fill="#d70751"/><path d="M22 113c0 2 1 3 3 3h78s3 0 3-3v-1c0 3-3 3-3 3H25c-2 0-3-1-3-3z" fill-opacity=".2"/><path d="M22 15c0-2 1-3 3-3h55v1H25c-2 0-3 1-3 3z" fill="#fff" opacity=".25"/><path d="M40.859 95.847c-.023.021-.023 3.414-.071 4.3-.048.716-.12 2.255-1.84 2.255-1.767 0-2.197-1.792-2.34-2.571-.168-.864-.168-1.582-.168-1.897 0-1.012.072-3.837 2.771-3.837.813 0 1.267.211 1.625.379l.023 1.371zm-6.927 2.488c0-2.446.693-5.735 4.969-5.735.979 0 1.553.148 2.006.274 0-2.782 0-3.098-.645-3.71 1.625-.125 2.366-.357 3.225-.716-.31 1.644-.31 7.06-.31 10.265 0 3.289.287 4.807.669 5.48-.215-.02-.406-.041-.597-.041-.192-.022-.407-.022-.67-.022-.74 0-1.194.042-1.648.064l-.048-1.876c-.405 1.243-1.361 1.96-2.842 1.96-.526 0-4.11 0-4.11-5.943zm19.405-.865l-.047 1.243h-6.355c0 1.032.047 4.027 3.774 4.027 1.434 0 2.079-.358 2.581-.633-.144.653-.263 1.138-.24 1.897-.43.106-1.219.316-2.842.316-3.656 0-5.83-1.686-5.83-5.965 0-1.011 0-5.776 4.874-5.776 3.535 0 4.085 2.425 4.085 4.891zm-6.45-.211h4.085c.047-1.498-.095-3.31-1.959-3.31-1.695 0-2.102 1.56-2.126 3.31zm7.366 3.415v-5.185c0-4.532 0-5.925-.931-6.261 1.026-.085 1.982-.19 3.535-.822-.191 1.918-.214 5.67-.214 6.745.358-.864 1.026-2.55 3.32-2.55 1.146 0 2.221.506 2.89 1.496.692 1.054.788 2.719.788 3.478 0 1.243-.239 2.888-.932 4.11-1.457 2.635-4.156 2.635-5.088 2.635-1.458 0-2.675-.19-3.655-.527.287-.674.287-1.559.287-3.12zm6.856-2.298c0-1.643-.359-3.856-2.175-3.856-.214 0-1.337.02-1.838 1.516-.168.465-.383 1.412-.383 3.225 0 1.518 0 2.825.048 3.584.31.062.788.127 1.17.127 2.772 0 3.178-2.636 3.178-4.596zm7.124 5.818a9.65 9.65 0 0 0-1.506-.106c-.763 0-1.29.043-1.838.106.238-.4.334-.591.405-1.96.096-1.877.12-6.894-.047-7.948-.12-.801-.334-.927-.669-1.138 1.959-.169 2.508-.295 3.416-.674-.19.927-.216 1.392-.216 2.803-.047 7.273-.07 8.053.455 8.917zm1.08-3.373c0-2.825 2.006-3.856 5.042-3.857.645 0 1.027.042 1.482.063 0-1.644 0-2.804-1.984-2.804-1.241 0-2.46.38-3.392 1.097-.215-.908-.454-1.307-.74-1.771.692-.316 2.077-.95 4.442-.95 3.583 0 4.062 1.582 4.062 3.184l-.024 4.3c0 1.118 0 1.919.047 2.72.073.821.215 1.033.478 1.39-.405-.02-.788-.062-1.194-.062-.717 0-1.147.041-1.577.063-.071-.738-.096-1.307-.071-2.235-.455.886-1.194 2.32-3.393 2.32-.191 0-.788 0-1.385-.232-1.339-.57-1.793-1.897-1.793-3.226zm6.57-2.593h-1.267c-.907 0-2.914.149-2.914 2.13 0 1.032.31 2.086 1.744 2.086.621 0 1.457-.274 1.959-1.223.406-.737.43-1.665.478-2.993zm13.76 3.88c.024.716.024 1.475.358 2.086-.526-.041-.836-.105-1.815-.105a8.33 8.33 0 0 0-1.338.105c.095-.274.144-.38.191-.738.072-.484.12-2.107.12-2.677v-2.276c0-.991 0-2.425-.073-2.93-.047-.358-.166-1.328-1.553-1.328-1.361 0-1.815.885-1.983 1.602-.19.737-.19 1.539-.19 4.658.023 2.698.023 2.95.262 3.689a14.967 14.967 0 0 0-1.624-.084c-.574 0-.956.02-1.433.084.167-.338.263-.507.31-1.687.05-1.16.145-6.85-.072-8.2-.119-.822-.358-1.011-.62-1.222 1.935-.085 2.555-.359 3.153-.632v2.234c.287-.654.884-2.109 3.273-2.109 2.987 0 3.01 1.919 3.034 3.183v6.346zM68.435 89.49l-1.979 1.745-1.977-1.745 1.977-1.745zm10.873-40.537l-.476 1.009c.704-2.129.299-4.446.398-6.45l-.196-.053c-.173-5.04-4.531-10.397-8.408-12.21-3.343-1.544-8.489-1.81-10.866-.646.327-.29 1.631-.411 1.238-.634-3.722.369-2.89 1.297-5.744 2.026-.782.756 2.284-.606.635.373-1.53.423-2.244-.266-4.512 2.08.202.326 1.44-.965.407.331-2.132-.263-6.733 4.877-7.71 6.58l.51.088c-.838 2.102-1.942 3.443-2.09 4.701-.218 3.096-1.3 8.742.202 10.476l-.146 1.448c.205.412.362.83.617 1.217l-.333.026c1.579 4.982 1.696.093 3.781 5.267-.303-.102-.608-.214-1.048-.808-.054.453.642 1.815 1.466 2.878l-.35.399c.46.836.884 1.019 1.203 1.31-1.716-.938 1.592 3.086 1.89 3.599l.264-.47c-.038.676.484 1.549 1.464 2.757l.816-.033c.336.666 1.566 1.865 2.312 1.922l-.496.648c1.872.592.909.785 3.21 1.6l-.465-.821c1.174 1.018 1.536 1.909 3.192 2.69 2.297.8 2.601.483 4.957 1.157-1.997-.056-4.345-.036-5.925-.602C48.33 77.891 38.472 65.25 39.192 52.23c-.165-2.635.263-5.93-.176-6.585.616-2.006 1.33-4.451 2.765-7.362-.104-.195.237.57.966-.674.443-.972.804-2.042 1.362-2.987l.287-.066c.287-1.67 3.89-4.226 4.963-5.514l.074.492c2.34-2.194 6.51-3.665 8.859-4.714-.617.684 1.382-.067 2.82-.154-.453.253-.904.452-1.33.75 1.728-.412 1.646.17 3.412-.064-.62.09-1.373.336-1.253.43 1.973.227 2.275-.61 4.1-.002l-.115-.54c2.537.915 3.068.76 5.825 2.223.967.047 1.064-.597 2.525-.002.257.451-.058.536 1.738 1.604.199-.08-.358-.587-.799-.991 3.61 1.93 7.532 6.042 8.73 10.444-1.123-2.065-.116 1.053-.502.89.5 1.347.909 2.74 1.162 4.176-.333-1.178-1.054-4.023-2.32-5.858-.105 1.184-1.634-.818-.798 1.789.636.924.129-.937.915.705.012.78.31 1.555.483 2.57-.27-.043-.6-1.123-.796-.822.271 1.278.72 1.945.89 2.043-.088.215-.314-.2-.33.67.105 2.002.56 1.157.777 1.253-.219.985-1.1 2.144-.664 3.839-.125-.514-.37-1.03-.555-1.517-.171 1.447.32 1.73-.348 3.483.482-1.58.43-3.008-.025-2.321.202 2.247-1.779 3.972-1.563 5.395l-.576-.793c-1.558 2.26-.036 1.244-1.096 2.956.39-.672-.204-.277.302-1.038-.336.019-1.5 1.43-2.566 2.26-4.186 3.356-9.184 3.795-14.024 1.988-.188.154.863.979 1.64 1.377 1.843.682 3.927.709 5.569.648-3.548 1.484-10.318-1.506-12.533-5.472.5.11 2.216 2.789 3.502 3.223-.76-.608-1.347-1.383-1.892-2.18 1.027 1.18 2.274 2.143 3.636 2.78-.086-.33.377-.397-.267-.831-4.102-3.144-6.527-5.816-5.685-12.001.625-.473.792-3.053 2.227-3.956.875-1.934 3.497-3.714 6.298-3.76 2.86-.156 5.273 1.528 6.485 3.116-2.206-2.059-5.82-2.684-8.901-1.159-3.151 1.42-5.02 4.89-4.747 8.344.117-.171.221-.065.277-.49-.096 6.715 7.238 11.637 12.517 9.153l.062.14c2.142-.585 1.865-1.067 3.265-2.028-.109.225-.943.801-.445.812.68-.181 2.806-2.16 3.853-3.09.48-1.034-.257-.56.413-1.86l.82-.408c.455-1.316.96-2.06.902-3.591z" fill="#ac0540"/><path d="M40.859 94.847c-.023.021-.023 3.414-.071 4.3-.048.716-.12 2.255-1.84 2.255-1.767 0-2.197-1.792-2.34-2.571-.168-.864-.168-1.582-.168-1.897 0-1.012.072-3.837 2.771-3.837.813 0 1.267.211 1.625.379l.023 1.371zm-6.927 2.488c0-2.446.693-5.735 4.969-5.735.979 0 1.553.148 2.006.274 0-2.782 0-3.098-.645-3.71 1.625-.125 2.366-.357 3.225-.716-.31 1.644-.31 7.06-.31 10.265 0 3.289.287 4.807.669 5.48-.215-.02-.406-.041-.597-.041-.192-.022-.407-.022-.67-.022-.74 0-1.194.042-1.648.064l-.048-1.876c-.405 1.243-1.361 1.96-2.842 1.96-.526 0-4.11 0-4.11-5.943zm19.405-.865l-.047 1.243h-6.355c0 1.032.047 4.027 3.774 4.027 1.434 0 2.079-.358 2.581-.633-.144.653-.263 1.138-.24 1.897-.43.106-1.219.316-2.842.316-3.656 0-5.83-1.686-5.83-5.965 0-1.011 0-5.776 4.874-5.776 3.535 0 4.085 2.425 4.085 4.891zm-6.45-.211h4.085c.047-1.498-.095-3.31-1.959-3.31-1.695 0-2.102 1.56-2.126 3.31zm7.366 3.415v-5.185c0-4.532 0-5.925-.931-6.261 1.026-.085 1.982-.19 3.535-.822-.191 1.918-.214 5.67-.214 6.745.358-.864 1.026-2.55 3.32-2.55 1.146 0 2.221.506 2.89 1.496.692 1.054.788 2.719.788 3.478 0 1.243-.239 2.888-.932 4.11-1.457 2.635-4.156 2.635-5.088 2.635-1.458 0-2.675-.19-3.655-.527.287-.674.287-1.559.287-3.12zm6.856-2.298c0-1.643-.359-3.856-2.175-3.856-.214 0-1.337.02-1.838 1.516-.168.465-.383 1.412-.383 3.225 0 1.518 0 2.825.048 3.584.31.062.788.127 1.17.127 2.772 0 3.178-2.636 3.178-4.596zm7.124 5.818a9.65 9.65 0 0 0-1.506-.106c-.763 0-1.29.043-1.838.106.238-.4.334-.591.405-1.96.096-1.877.12-6.894-.047-7.948-.12-.801-.334-.927-.669-1.138 1.959-.169 2.508-.295 3.416-.674-.19.927-.216 1.392-.216 2.803-.047 7.273-.07 8.053.455 8.917zm1.08-3.373c0-2.825 2.006-3.856 5.042-3.857.645 0 1.027.042 1.482.063 0-1.644 0-2.804-1.984-2.804-1.241 0-2.46.38-3.392 1.097-.215-.908-.454-1.307-.74-1.771.692-.316 2.077-.95 4.442-.95 3.583 0 4.062 1.582 4.062 3.184l-.024 4.3c0 1.118 0 1.919.047 2.72.073.821.215 1.033.478 1.39-.405-.02-.788-.062-1.194-.062-.717 0-1.147.041-1.577.063-.071-.738-.096-1.307-.071-2.235-.455.886-1.194 2.32-3.393 2.32-.191 0-.788 0-1.385-.232-1.339-.57-1.793-1.897-1.793-3.226zm6.57-2.593h-1.267c-.907 0-2.914.149-2.914 2.13 0 1.032.31 2.086 1.744 2.086.621 0 1.457-.274 1.959-1.223.406-.737.43-1.665.478-2.993zm13.76 3.88c.024.716.024 1.475.358 2.086-.526-.041-.836-.105-1.815-.105a8.33 8.33 0 0 0-1.338.105c.095-.274.144-.38.191-.738.072-.484.12-2.107.12-2.677v-2.276c0-.991 0-2.425-.073-2.93-.047-.358-.166-1.328-1.553-1.328-1.361 0-1.815.885-1.983 1.602-.19.737-.19 1.539-.19 4.658.023 2.698.023 2.95.262 3.689a14.967 14.967 0 0 0-1.624-.084c-.574 0-.956.02-1.433.084.167-.338.263-.507.31-1.687.05-1.16.145-6.85-.072-8.2-.119-.822-.358-1.011-.62-1.222 1.935-.085 2.555-.359 3.153-.632v2.234c.287-.654.884-2.109 3.273-2.109 2.987 0 3.01 1.919 3.034 3.183v6.346zM68.435 88.49l-1.979 1.745-1.977-1.745 1.977-1.745zm10.873-40.537l-.476 1.009c.704-2.129.299-4.446.398-6.45l-.196-.053c-.173-5.04-4.531-10.397-8.408-12.21-3.343-1.544-8.489-1.81-10.866-.646.327-.29 1.631-.411 1.238-.634-3.722.369-2.89 1.297-5.744 2.026-.782.756 2.284-.606.635.373-1.53.423-2.244-.266-4.512 2.08.202.326 1.44-.965.407.331-2.132-.263-6.733 4.877-7.71 6.58l.51.088c-.838 2.102-1.942 3.443-2.09 4.701-.218 3.096-1.3 8.742.202 10.476l-.146 1.448c.205.412.362.83.617 1.217l-.333.026c1.579 4.982 1.696.093 3.781 5.267-.303-.102-.608-.214-1.048-.808-.054.453.642 1.815 1.466 2.878l-.35.399c.46.836.884 1.019 1.203 1.31-1.716-.938 1.592 3.086 1.89 3.599l.264-.47c-.038.676.484 1.549 1.464 2.757l.816-.033c.336.666 1.566 1.865 2.312 1.922l-.496.648c1.872.592.909.785 3.21 1.6l-.465-.821c1.174 1.018 1.536 1.909 3.192 2.69 2.297.8 2.601.483 4.957 1.157-1.997-.056-4.345-.036-5.925-.602C48.33 76.891 38.472 64.25 39.192 51.23c-.165-2.635.263-5.93-.176-6.585.616-2.006 1.33-4.451 2.765-7.362-.104-.195.237.57.966-.674.443-.972.804-2.042 1.362-2.987l.287-.066c.287-1.67 3.89-4.226 4.963-5.514l.074.492c2.34-2.194 6.51-3.665 8.859-4.714-.617.684 1.382-.067 2.82-.154-.453.253-.904.452-1.33.75 1.728-.412 1.646.17 3.412-.064-.62.09-1.373.336-1.253.43 1.973.227 2.275-.61 4.1-.002l-.115-.54c2.537.915 3.068.76 5.825 2.223.967.047 1.064-.597 2.525-.002.257.451-.058.536 1.738 1.604.199-.08-.358-.587-.799-.991 3.61 1.93 7.532 6.042 8.73 10.444-1.123-2.065-.116 1.053-.502.89.5 1.347.909 2.74 1.162 4.176-.333-1.178-1.054-4.023-2.32-5.858-.105 1.184-1.634-.818-.798 1.789.636.924.129-.937.915.705.012.78.31 1.555.483 2.57-.27-.043-.6-1.123-.796-.822.271 1.278.72 1.945.89 2.043-.088.215-.314-.2-.33.67.105 2.002.56 1.157.777 1.253-.219.985-1.1 2.144-.664 3.839-.125-.514-.37-1.03-.555-1.517-.171 1.447.32 1.73-.348 3.483.482-1.58.43-3.008-.025-2.321.202 2.247-1.779 3.972-1.563 5.395l-.576-.793c-1.558 2.26-.036 1.244-1.096 2.956.39-.672-.204-.277.302-1.038-.336.019-1.5 1.43-2.566 2.26-4.186 3.356-9.184 3.795-14.024 1.988-.188.154.863.979 1.64 1.377 1.843.682 3.927.709 5.569.648-3.548 1.484-10.318-1.506-12.533-5.472.5.11 2.216 2.789 3.502 3.223-.76-.608-1.347-1.383-1.892-2.18 1.027 1.18 2.274 2.143 3.636 2.78-.086-.33.377-.397-.267-.831-4.102-3.144-6.527-5.816-5.685-12.001.625-.473.792-3.053 2.227-3.956.875-1.934 3.497-3.714 6.298-3.76 2.86-.156 5.273 1.528 6.485 3.116-2.206-2.059-5.82-2.684-8.901-1.159-3.151 1.42-5.02 4.89-4.747 8.344.117-.171.221-.065.277-.49-.096 6.715 7.238 11.637 12.517 9.153l.062.14c2.142-.585 1.865-1.067 3.265-2.028-.109.225-.943.801-.445.812.68-.181 2.806-2.16 3.853-3.09.48-1.034-.257-.56.413-1.86l.82-.408c.455-1.316.96-2.06.902-3.591z" fill="#fff"/><path d="M82.477 38.075c-1.472 0-2.477-1.27-2.477-2.741V12l26 26.075H82.477z" fill="#ff5491"/><path d="M16 50.659A2.664 2.664 0 0 1 18.668 48h90.664A2.66 2.66 0 0 1 112 50.66v64.334a3.002 3.002 0 0 1-3.005 3.008h-89.99A3 3 0 0 1 16 114.993V50.659z" fill="#c0d0df"/><path d="M16 50.666A2.668 2.668 0 0 1 18.668 48h90.664A2.668 2.668 0 0 1 112 50.666v62.325a3.003 3.003 0 0 1-3.005 3.01h-89.99A3.004 3.004 0 0 1 16 112.99V50.666z" fill="url(#b)"/><g fill="#10acff"><path d="M56.979 90.034h-5.46l.002-.9c0-.306.292-.606.61-.607h4.554c.275 0 .593.306.592.603-.001.235-.005.378-.005.602 0 0 0 .302-.293.302m1.505 4.216c.313 0 .315-.278.315-.306l-.002-.895c0-.302-.308-.306-.308-.306l-6.368-.005c-.611 0-.602-.588-.602-.588-.008-.038 0-.613 0-.613h6.063c1.684 0 1.513-1.206 1.513-1.206v-1.195s.164-2.121-2.116-2.121H51.87c-2.321 0-2.164 2.093-2.164 2.093v3.03c0 2.112 2.125 2.102 2.125 2.102l6.652.01zM47.272 92.448s.005.294-.303.294c-.33 0-1.943.004-2.934.001-.991-.003-2.207-.22-2.208-2.087 0-1.868 1.35-2.127 2.193-2.127l3.25.003.002 3.916m1.517-8.147h-1.208s-.304 0-.304.311l-.001 2.403H43.35C40.5 87.014 39.998 89.47 40 90.637c.003 1.165.513 3.608 3.396 3.605 2.884-.003 2.965.004 4.186.004 1.512 0 1.513-1.499 1.513-1.499v-8.144c0-.302-.306-.302-.306-.302M80.913 86.11h-1.212a.302.302 0 0 1-.303-.301v-1.206c0-.167.136-.302.303-.302h1.212c.167 0 .303.135.303.302v1.206a.302.302 0 0 1-.303.301M80.913 94.25h-1.212a.302.302 0 0 1-.303-.301v-6.633c0-.166.136-.301.303-.301h1.212c.167 0 .303.135.303.301v6.633a.302.302 0 0 1-.303.301M86.671 87.017c-2.226-.003-4.849-.001-4.849-.001v6.928c0 .136.088.338.363.303l1.059-.004c.417.06.405-.304.405-.304l-.009-5.412 3.029-.003c.05 0 1.223.023 1.223 1.505l-.008 3.92c0 .166.135.302.303.302l1.212-.001a.302.302 0 0 0 .302-.302v-4.056c0-1.67-.804-2.873-3.03-2.876M71.52 88.812s-.005-.294.303-.294c.33 0 1.943-.004 2.935 0 .99.002 2.207.219 2.207 2.087s-1.35 2.126-2.193 2.126l-3.25-.003-.002-3.916m-1.514 8.147h1.207s.303 0 .303-.311v-2.402h3.925c2.852 0 3.354-2.456 3.351-3.622-.003-1.166-.512-3.609-3.396-3.606-2.884.003-2.962-.003-4.183-.003-1.512 0-1.511 1.498-1.511 1.498v8.145c0 .301.304.301.304.301M66.979 90.034h-5.46l.002-.9c0-.306.292-.606.61-.607h4.554c.275 0 .593.306.592.603-.001.235-.005.378-.005.602 0 0 0 .302-.293.302m1.505 4.216c.313 0 .315-.278.315-.306l-.002-.895c0-.302-.308-.306-.308-.306l-6.368-.005c-.611 0-.602-.588-.602-.588-.008-.038 0-.613 0-.613h6.063c1.684 0 1.513-1.206 1.513-1.206v-1.195s.164-2.121-2.116-2.121H61.87c-2.321 0-2.164 2.093-2.164 2.093v3.03c0 2.112 2.125 2.102 2.125 2.102l6.652.01z"/></g><path d="M121.35 67.259c.675 1.514-.117 2.741-1.782 2.741H8.218c-1.66 0-2.461-1.223-1.786-2.741l8.23-18.517c.673-1.514 2.557-2.741 4.223-2.741h89.99c1.66 0 3.55 1.223 4.227 2.741l8.252 18.517z" fill="url(#c)"/><path d="M108.32 48.009c1.107 0 2.401.808 2.883 1.79l8.041 16.403c.485.989-.027 1.79-1.121 1.791L9.653 68c-1.105 0-1.605-.808-1.125-1.79l8.018-16.4c.484-.989 1.765-1.79 2.88-1.79l88.893-.01z" fill="#f0f8fa"/></g></svg>