<svg width="128" height="128" version="1.1" viewBox="0 0 128 128" xmlns="http://www.w3.org/2000/svg"><title>deepin-note</title><defs><linearGradient id="b" x1="23.764" x2="23.764" y1="223.15" y2="246.6" gradientTransform="matrix(2.132 0 0 .46904 13.333 4.333)" gradientUnits="userSpaceOnUse"><stop stop-color="#CCA46B" offset="0"/><stop stop-color="#D7B672" offset="1"/></linearGradient><linearGradient id="d" x1="57.18" x2="57.18" y1="13.626" y2="57.478" gradientTransform="matrix(1.0094 0 0 .99069 -133.91 5.333)" gradientUnits="userSpaceOnUse"><stop stop-color="#3E2409" offset="0"/><stop stop-color="#765720" offset="1"/></linearGradient><linearGradient id="e" x1="84.296" x2="51.163" y1="2.036" y2="71.848" gradientTransform="matrix(1.0094 0 0 .99069 -133.91 5.333)" gradientUnits="userSpaceOnUse"><stop stop-color="#351C03" offset="0"/><stop stop-color="#5B410F" offset="1"/></linearGradient><linearGradient id="f" x1="82.005" x2=".431" y1="5.984" y2="87.557" gradientTransform="matrix(.97817 0 0 1.0223 -133.91 5.333)" gradientUnits="userSpaceOnUse"><stop stop-color="#241400" offset="0"/><stop stop-color="#53402E" offset="1"/></linearGradient><filter id="c" color-interpolation-filters="sRGB"><feFlood flood-color="#000" flood-opacity=".196" result="flood"/><feComposite in="flood" in2="SourceGraphic" operator="in" result="composite1"/><feGaussianBlur in="composite1" result="blur" stdDeviation="2"/><feOffset dx="0" dy="2" result="offset"/><feComposite in="SourceGraphic" in2="offset" result="composite2"/></filter><filter id="a" color-interpolation-filters="sRGB"><feFlood flood-color="#000" flood-opacity=".196" result="flood"/><feComposite in="flood" in2="SourceGraphic" operator="in" result="composite1"/><feGaussianBlur in="composite1" result="blur" stdDeviation="2"/><feOffset dx="0" dy="2" result="offset"/><feComposite in="SourceGraphic" in2="offset" result="composite2"/></filter></defs><g filter="url(#a)"><g fill-rule="evenodd"><path d="M14 98h100v19.333a2.667 2.667 0 0 1-2.667 2.667H16.666A2.667 2.667 0 0 1 14 117.333V98z" fill="url(#b)"/><path d="M16.666 8h94.667A2.667 2.667 0 0 1 114 10.667V95c0 6.589-.654 11.256-1.961 14-4.595 1.188-11.131 1.854-19.608 2H17a3 3 0 0 1-3-3V10.667A2.667 2.667 0 0 1 16.667 8z" fill="#fbe9a9"/><g fill="#c69857"><path d="M114.003 107.163v10.167a2.667 2.667 0 0 1-2.667 2.667H16.67a2.667 2.667 0 0 1-2.666-2.667v-10.167 9.167a2.667 2.667 0 0 0 2.666 2.667h94.667a2.667 2.667 0 0 0 2.667-2.667z"/><path d="M114.003 105.163v10.167a2.667 2.667 0 0 1-2.667 2.667H16.67a2.667 2.667 0 0 1-2.666-2.667v-10.167 9.167a2.667 2.667 0 0 0 2.666 2.667h94.667a2.667 2.667 0 0 0 2.667-2.667z"/><path d="M114.003 103.166v10.167a2.667 2.667 0 0 1-2.667 2.667H16.67a2.667 2.667 0 0 1-2.666-2.667v-10.167 9.167A2.667 2.667 0 0 0 16.669 115h94.667a2.667 2.667 0 0 0 2.667-2.667z"/><path d="M114.003 101.166v10.167a2.667 2.667 0 0 1-2.667 2.667H16.67a2.667 2.667 0 0 1-2.666-2.667v-10.167 9.167A2.667 2.667 0 0 0 16.669 113h94.667a2.667 2.667 0 0 0 2.667-2.667z"/><path d="M114.003 53.333V96c0 6.59-.654 11.256-1.96 14-4.595 1.188-11.132 1.855-19.609 2h-75.43a3 3 0 0 1-3-3V59.833 108a3 3 0 0 0 3 3h75.43c8.477-.145 15.013-.812 19.608-2 1.307-2.744 1.961-7.41 1.961-14z"/></g><path d="M31.999 80h2v-2h-2v2h2v-2h-6v2zm17 5h5v2h-10v-2zm53 14h2v2h-2zm-6 0h2v2h-2zm-6 0h6v2h-6zm-4 0h2v2h-2zm-6 0h2v2h-2zm-6 0h6v2h-6zm-4 0h2v2h-2zm-10 0h6v2h-6zm-6 0h2v2h-2zm-6 0h2v2h-2zm-4 0h2v2h-2zm-6 0h2v2h-2zm-6 0h6v2h-6zm-4 0h2v2h-2zm-6 0h2v2h-2zm80-7h2v2h-2zm-6 0h6v2h-6zm-6 0h2v2h-2zm-4 0h2v2h-2zm-6 0h6v2h-6zm-6 0h2v2h-2zm-4 0h2v2h-2zm-10 0h6v2h-6zm-12 0h10v2h-10zm-4 0h2v2h-2zm-6 0h2v2h-2zm-6 0h6v2h-6zm-4 0h2v2h-2zm-6 0h2v2h-2zm80-7h2v2h-2zm-6 0h2v2h-2zm-6 0h6v2h-6zm-4 0h2v2h-2zm-6 0h6v2h-6zm-6 0h2v2h-2zm-4 0h2v2h-2zm-6 0h6v2h-6zm-4 0h2v2h-2zm-6 0h2v2h-2zm-16 0h2v2h-2zm-6 0h2v2h-2zm-4 0h2v2h-2zm-6 0h6v2h-6zm80-7h2v2h-2zm-12 0h10v2h-10zm-4 0h2v2h-2zm-6 0h2v2h-2zm-6 0h2v2h-2zm-4 0h2v2h-2zm-6 0h6v2h-6zm-4 0h2v2h-2zm-6 0h6v2h-6zm-6 0h2v2h-2zm-4 0h2v2h-2zm-6 0h2v2h-2zm-16 0h2v2h-2zm80-8h2v2h-2zm-6 0h2v2h-2zm-6 0h2v2h-2zm-10 0h10v2h-10zm-6 0h6v2h-6zm-4 0h2v2h-2zm-6 0h2v2h-2zm-4 0h2v2h-2zm-6 0h2v2h-2zm-6 0h2v2h-2zm-4 0h2v2h-2zm-6 0h6v2h-6zm-6 0h2v2h-2zm-4 0h2v2h-2zm-6 0h6v2h-6zm80-8h2v2h-2zm-6 0h2v2h-2zm-10 0h6v2h-6zm-6 0h2v2h-2zm-6 0h2v2h-2zm-4 0h2v2h-2zm-6 0h2v2h-2zm-4 0h2v2h-2zm-6 0h2v2h-2zm-6 0h2v2h-2zm-4 0h2v2h-2zm-6 0h2v2h-2zm-6 0h6v2h-6zm-4 0h2v2h-2zm-6 0h2v2h-2zm80-8h2v2h-2zm-12 0h10v2h-10zm-4 0h2v2h-2zm-6 0h2v2h-2zm-6 0h2v2h-2zm-4 0h2v2h-2zm-6 0h2v2h-2zm-4 0h2v2h-2zm-6 0h2v2h-2zm-6 0h2v2h-2zm-4 0h2v2h-2zm-6 0h6v2h-6zm-10 0h6v2h-6zm-6 0h2v2h-2zm80-8h2v2h-2zm-6 0h6v2h-6zm-6 0h2v2h-2zm-4 0h2v2h-2zm-6 0h2v2h-2zm-6 0h2v2h-2zm-4 0h2v2h-2zm-6 0h2v2h-2zm-4 0h2v2h-2zm-6 0h2v2h-2zm-6 0h2v2h-2zm-4 0h2v2h-2zm-12 0h10v2h-10zm-4 0h2v2h-2zm-6 0h6v2h-6zm80-7h2v2h-2zm-6 0h2v2h-2zm-6 0h2v2h-2zm-4 0h2v2h-2zm-6 0h2v2h-2zm-6 0h2v2h-2zm-4 0h2v2h-2zm-6 0h2v2h-2zm-4 0h2v2h-2zm-16 0h16v2h-16zm-6 0h2v2h-2zm-10 0h6v2h-6zm-6 0h6v2h-6zm80-7h2v2h-2zm-6 0h2v2h-2zm-6 0h2v2h-2zm-4 0h2v2h-2zm-6 0h2v2h-2zm-6 0h2v2h-2zm-10 0h6v2h-6zm-4 0h2v2h-2zm-6 0h2v2h-2zm-6 0h6v2h-6zm-10 0h2v2h-2zm-6 0h6v2h-6zm-4 0h2v2h-2zm-6 0h6v2h-6zm80-7h2v2h-2zm-6 0h2v2h-2zm-6 0h2v2h-2zm-4 0h2v2h-2zm-6 0h2v2h-2zm-20 0h16v2h-16zm-6 0h6v2h-6zm-10 0h6v2h-6zm-6 0h2v2h-2zm-10 0h6v2h-6zm-6 0h6v2h-6zm80-8h2v2h-2zm-6 0h2v2h-2zm-6 0h2v2h-2zm-4 0h2v2h-2zm-6 0h2v2h-2zm-6 0h2v2h-2zm-10 0h10v2h-10zm-4 0h2v2h-2zm-6 0h6v2h-6zm-10 0h6v2h-6zm-6 0h2v2h-2zm-10 0h6v2h-6zm-6 0h2v2h-2z" fill="#eccf87"/></g><g transform="translate(166)" filter="url(#c)"><path d="M-118.52 74.062c-.008-5.234.399-8.992 1.22-11.272-.017 1.02.404 2.099 1.262 3.238 1.287 1.71 1.079-12.994 6.472-16.889.054 4.606.68 7.515 1.88 8.73 1.798 1.82-3.46-7.577 2.733-13.297 6.193-5.72 31.727-33.979 47.143-36.97 15.416-2.992 11.877-2.696 10.352-1.007-1.525 1.689 1.632 8.235-2.186 12.564-3.817 4.33-7.393 4.33-7.393 4.33l3.147.94c-3.257 9.463-10.33 18.568-21.216 27.314-5.369 5.44-12.189 7.487-20.459 6.14 4.514 2.387 7.792 3.477 9.833 3.27-1.688 3.375-3.89 6.005-6.607 7.892-6.182.061-9.81-.086-10.884-.442 4.213 1.255 7.191 1.82 8.934 1.697 2.613-.186-9.07 6.342-12.174 6.21-2.07-.089-6.088-.905-12.057-2.448z" fill="url(#d)" fill-rule="evenodd"/><path d="M-97.431 70.042c1.3.228 2.347.314 3.138.258 2.614-.185-9.07 6.342-12.174 6.21-2.069-.088-6.088-.904-12.057-2.448-.008-5.234.4-8.992 1.22-11.272-.013.834.266 1.709.838 2.623.135.214.273.414.425.615.258.344.456.025.652-.736.785-3.132 1.532-13.056 5.82-16.152.037 3.216.354 5.605.95 7.167.1.478.306 1.453.323 1.597a.929.929 0 0 1 .225-.507c.12.178.247.336.381.472.504.51.454.139.256-.786.292-.069.351-.023.455.083-.252-.255-.478-.632-.675-1.129-.56-2.797-1.204-7.86 2.697-11.464 6.193-5.72 31.727-33.979 47.143-36.97 15.416-2.992 11.877-2.696 10.352-1.007-1.524 1.689 1.633 8.235-2.185 12.564-2.031 2.304-3.994 3.382-5.386 3.886 0 0-1.09.441-2.013.437-.002-.006.787.242 2.036.614l1.117.334c-3.258 9.463-10.33 18.567-21.216 27.313-4.725 4.788-10.573 6.947-17.544 6.479-1.65-.154-2.567-.258-2.753-.313-.114 0 .382.313 2.498 1.297 3.165 1.462 5.556 2.112 7.173 1.948-1.688 3.374-3.89 6.004-6.607 7.891a894.59 894.59 0 0 1-8.591 0c-.005.174 1.163.506 3.502.997zm-19.409-3.413a10.17 10.17 0 0 1-.247-.342c-.27 1.862-.415 4.198-.434 7 5.488 1.401 9.207 2.143 11.097 2.224 1.147.049 4.417-1.247 7.717-3.008a41 41 0 0 0 2.271-1.3c-1.802-.222-6.95-1.624-8.82-2.968l2.2-.187c.416 0 4.553.052 10.39 0 2.084-1.503 3.846-3.484 5.286-5.953-2.176-.302-5.043-1.417-8.656-3.328l-5.393-2.852 6.021.981c7.96 1.297 14.452-.652 19.672-5.933 10.37-8.33 17.211-16.96 20.545-25.878l-2.136-.639-6.546-1.958h6.833c.056 0 .21-.012.45-.053a7.365 7.365 0 0 0 1.448-.418c1.567-.619 3.18-1.745 4.745-3.52.95-1.076 1.463-2.375 1.65-3.96.13-1.114.106-2.131-.038-3.935-.164-2.055-.206-3.064.03-3.775-2.655.523-6.692 1.334-8.868 1.756-4.683.909-10.723 4.348-17.848 9.895-3.24 2.522-6.647 5.436-10.241 8.722-5.651 5.166-18.722 18.25-18.566 18.107-1.274 1.176-2.075 2.58-2.48 4.193-.479 1.901-.397 3.878.055 6.192.024.124.36 1.694.394 1.983.02.173.024.32 0 .474-.057.397-.274.762-.761.906-.59.173-.866-.013-1.332-.485-1.187-1.202-1.85-3.52-2.08-7.012-.938 1.391-1.707 3.371-2.337 5.873-.508 2.015-1.494 7.67-1.57 7.982-.138.566-.271.943-.478 1.228-.527.724-1.453.68-1.974-.012z" fill="url(#e)"/><path d="M-133.49 94.538c13.022-25.805 39.619-53.501 79.793-83.088-38.187 31.596-60.951 54.634-68.293 69.116-2.804 5.53-5.715 11.394-6.876 12.293-2.382 1.843-3.923 2.403-4.624 1.68z" fill="url(#f)" fill-rule="evenodd"/></g></g></svg>