<svg width="128" height="128" version="1.1" viewBox="0 0 128 128" xmlns="http://www.w3.org/2000/svg"><title>ISO安装器-128px</title><defs><linearGradient id="b" x1="29.137" x2="29.137" y1="101.23" y2="153.5" gradientTransform="scale(2.1928 .45604)" gradientUnits="userSpaceOnUse"><stop stop-color="#FFDD89" offset="0"/><stop stop-color="#FFAF32" offset="1"/></linearGradient><filter id="a" color-interpolation-filters="sRGB"><feFlood flood-color="#000" flood-opacity=".196" result="flood"/><feComposite in="flood" in2="SourceGraphic" operator="in" result="composite1"/><feGaussianBlur in="composite1" result="blur" stdDeviation="2"/><feOffset dx="0" dy="2" result="offset"/><feComposite in="SourceGraphic" in2="offset" result="composite2"/></filter></defs><g fill-rule="evenodd" filter="url(#a)"><path d="M76.352 9.78c-23.32-6.82-47.749 6.551-54.571 29.872-6.82 23.317 6.553 47.748 29.873 54.568 23.315 6.82 47.749-6.55 54.566-29.868C113.04 41.029 99.667 16.6 76.352 9.78z" fill="#eff4f8"/><path d="M76.071 10.74c-22.79-6.665-46.663 6.402-53.331 29.192-6.665 22.787 6.404 46.663 29.194 53.328 22.785 6.665 46.663-6.402 53.326-29.189 6.665-22.793-6.404-46.666-29.189-53.331z" fill="#fff"/><path d="M76.997 16.203c-5.461-1.992-11.055-2.53-16.484-2.025-6.295.497-9.367 2.446-9.185 2.093-10.293 3.675-18.995 11.579-23.026 22.664-7.177 19.74 2.988 41.572 22.7 48.76 19.72 7.187 41.518-2.991 48.695-22.732 7.18-19.741-2.986-41.57-22.7-48.76zM52.299 84.125c-2.1-.768-4.063-1.745-5.912-2.86 9.185.705 21.172-1.412 29.255-8.977 0 0 15.41-12.312 4.262-32.517 0 0 1.797 8.143-.494 14.842 0 0-2.185 9.11-11.897 11.756-14.304 3.898-30.604-6.115-37.417-10.966-.513-4.986-.057-10.138 1.77-15.165 2.708-7.448 7.8-13.26 14.021-17.162-1.555 10.882-.325 20.9 1.442 25.096 2.372 5.627 6.495 12.19 14.538 13.03 8.042.845 12.478-6.682 12.478-6.682 4.125-6.27 4.771-15.273 4.71-15.49-.063-.22-1.1-.814-1.1-.814-2.777 11.237-7.356 14.991-7.356 14.991-7.22 6.97-12.334 2.136-12.334 2.136-5.497-5.903-1.648-15.499-1.648-15.499 2.153-6.536 8.426-16.1 15.534-20.965 1.184.293 2.375.475 3.545.901a33.916 33.916 0 0 1 11.256 6.838c-5.198 1.897-13.59 5.909-13.59 5.909C60.057 38.129 59.16 46.603 59.16 46.603c-1.376 8.734 5.554 5.037 5.554 5.037 7.133-3.474 10.637-14.302 10.637-14.302-2.226-.423-3.98.253-3.98.253-2.847 7.027-8.655 9.918-8.655 9.918-2.286 1.21-2.818-.929-2.818-.929-.385-1.601 1.653-1.875 1.653-1.875 3.165-1.23 5.19-4.555 5.649-5.915.456-1.362 1.305-1.468 1.305-1.468 4.338-1.384 8.292-1.694 8.292-1.694 5.386-.662 13.63 1.906 13.63 1.906 1.848.743 3.62 1.3 5.195 1.745 3.02 7.548 3.498 16.145.505 24.385-6.455 17.765-26.08 26.928-43.828 20.46z" fill="#00b7ff" opacity=".8"/><rect x="16" y="48" width="96" height="70" rx="2.667" fill="#c58330"/><rect x="16" y="48" width="96" height="69" rx="2.667" fill="#d69a4e"/><g fill="#b08043"><path d="M56.979 90.034h-5.46l.002-.9c0-.306.292-.606.61-.607h4.554c.275 0 .593.306.592.603-.001.235-.005.378-.005.602 0 0 0 .302-.293.302m1.505 4.216c.313 0 .315-.278.315-.306l-.002-.895c0-.302-.308-.306-.308-.306l-6.368-.005c-.611 0-.602-.588-.602-.588-.008-.038 0-.613 0-.613h6.063c1.684 0 1.513-1.206 1.513-1.206v-1.195s.164-2.121-2.116-2.121H51.87c-2.321 0-2.164 2.093-2.164 2.093v3.03c0 2.112 2.125 2.102 2.125 2.102l6.652.01zM47.272 92.448s.005.294-.303.294c-.33 0-1.943.004-2.934.001-.991-.003-2.207-.22-2.208-2.087 0-1.868 1.35-2.127 2.193-2.127l3.25.003.002 3.916m1.517-8.147h-1.208s-.304 0-.304.311l-.001 2.403H43.35C40.5 87.014 39.998 89.47 40 90.637c.003 1.165.513 3.608 3.396 3.605 2.884-.003 2.965.004 4.186.004 1.512 0 1.513-1.499 1.513-1.499v-8.144c0-.302-.306-.302-.306-.302M80.913 86.11h-1.212a.302.302 0 0 1-.303-.301v-1.206c0-.167.136-.302.303-.302h1.212c.167 0 .303.135.303.302v1.206a.302.302 0 0 1-.303.301M80.913 94.25h-1.212a.302.302 0 0 1-.303-.301v-6.633c0-.166.136-.301.303-.301h1.212c.167 0 .303.135.303.301v6.633a.302.302 0 0 1-.303.301M86.671 87.017c-2.226-.003-4.849-.001-4.849-.001v6.928c0 .136.088.338.363.303l1.059-.004c.417.06.405-.304.405-.304l-.009-5.412 3.029-.003c.05 0 1.223.023 1.223 1.505l-.008 3.92c0 .166.135.302.303.302l1.212-.001a.302.302 0 0 0 .302-.302v-4.056c0-1.67-.804-2.873-3.03-2.876M71.52 88.812s-.005-.294.303-.294c.33 0 1.943-.004 2.935 0 .99.002 2.207.219 2.207 2.087s-1.35 2.126-2.193 2.126l-3.25-.003-.002-3.916m-1.514 8.147h1.207s.303 0 .303-.311v-2.402h3.925c2.852 0 3.354-2.456 3.351-3.622-.003-1.166-.512-3.609-3.396-3.606-2.884.003-2.962-.003-4.183-.003-1.512 0-1.511 1.498-1.511 1.498v8.145c0 .301.304.301.304.301M66.979 90.034h-5.46l.002-.9c0-.306.292-.606.61-.607h4.554c.275 0 .593.306.592.603-.001.235-.005.378-.005.602 0 0 0 .302-.293.302m1.505 4.216c.313 0 .315-.278.315-.306l-.002-.895c0-.302-.308-.306-.308-.306l-6.368-.005c-.611 0-.602-.588-.602-.588-.008-.038 0-.613 0-.613h6.063c1.684 0 1.513-1.206 1.513-1.206v-1.195s.164-2.121-2.116-2.121H61.87c-2.321 0-2.164 2.093-2.164 2.093v3.03c0 2.112 2.125 2.102 2.125 2.102l6.652.01z"/></g><path d="M121.35 67.259c.675 1.514-.117 2.741-1.782 2.741H8.218c-1.66 0-2.461-1.223-1.786-2.741l8.23-18.517c.673-1.514 2.557-2.741 4.223-2.741h89.99c1.66 0 3.55 1.223 4.227 2.741l8.252 18.517z" fill="url(#b)"/><path d="M110.32 47.009c1.105 0 2.368.821 2.812 1.817l8.177 18.349c.448 1.003-.093 1.817-1.187 1.817L7.652 69c-1.103 0-1.632-.821-1.18-1.836l8.136-18.308c.45-1.014 1.714-1.836 2.818-1.836l92.899-.01z" fill="#ffcd6f"/></g></svg>