<svg width="128" height="128" version="1.1" viewBox="0 0 128 128" xmlns="http://www.w3.org/2000/svg"><title>深度云扫描-128px</title><defs><linearGradient id="b" x1="46.086" x2="46.086" y1="2.054" y2="89.518" gradientTransform="scale(1.2802 .78112)" gradientUnits="userSpaceOnUse"><stop stop-color="#fff" offset="0"/><stop stop-color="#C0E9FE" offset="1"/></linearGradient><linearGradient id="c" x1="46.083" x2="46.083" y1=".001" y2="91.244" gradientTransform="scale(1.2802 .78114)" gradientUnits="userSpaceOnUse"><stop stop-color="#EBF9FF" offset="0"/><stop stop-color="#C4E6F8" offset="1"/></linearGradient><linearGradient id="d" x1="93.485" x2="93.485" y1="56.694" y2="60.12" gradientTransform="scale(1.1339 .88193)" gradientUnits="userSpaceOnUse"><stop stop-color="#fff" offset="0"/><stop stop-color="#fff" stop-opacity="0" offset="1"/></linearGradient><filter id="a" color-interpolation-filters="sRGB"><feFlood flood-color="#000" flood-opacity=".196" result="flood"/><feComposite in="flood" in2="SourceGraphic" operator="in" result="composite1"/><feGaussianBlur in="composite1" result="blur" stdDeviation="2"/><feOffset dx="0" dy="2" result="offset"/><feComposite in="SourceGraphic" in2="offset" result="composite2"/></filter></defs><g transform="translate(5 10)" fill-rule="evenodd" filter="url(#a)"><path d="M118 48.541c0-10.656-7.308-19.637-17.308-22.491C97.82 15.079 87.629 6.951 75.462 6.951c-3.54 0-6.908.693-9.987 1.936C60.197 3.426 52.723-.001 44.412-.001 28.58-.001 15.733 12.38 15.49 27.735 6.462 30.905 0 39.292 0 49.17c0 12.525 10.376 22.683 23.216 22.797v.03h71.426v-.043C107.605 71.572 118 61.25 118 48.54z" fill="url(#b)"/><path d="M100.8 25.55C97.627 14.547 87.213 6.768 75.178 6.768c-3.536 0-8.137 1.233-9.543 1.736C60.135 3.106 52.652 0 44.655 0c-16.087 0-28.57 11.333-29.37 27.272C6.157 30.714-.004 39.206-.004 48.837c0 12.718 10.634 23.048 23.813 23.164l70.254-.013c13.315-.388 23.932-10.895 23.932-23.763 0-10.634-7.375-19.557-17.195-22.674zm-6.797 44.491l-70.185.041c-12.078-.135-21.822-9.6-21.822-21.246 0-9.007 5.892-16.932 14.564-19.948l.653-.227.01-.674c.232-14.434 12.436-26.04 27.434-26.04 7.663 0 14.815 3.056 19.98 8.348l.472.483.633-.253a25.365 25.365 0 0 1 9.438-1.811c11.314 0 21.076 7.43 23.834 17.86l.142.537.548.155c9.587 2.708 16.293 11.199 16.293 20.957 0 11.81-9.752 21.461-21.992 21.817z" fill="url(#c)"/><circle cx="106" cy="53" r="4" fill="#00b0df"/><rect x="22" y="35" width="74" height="72" rx="3" fill="#acdcfc"/><rect x="27" y="99" width="64" height="4" rx="1.333" fill="#fff"/><path fill="#145cb0" d="M27 40h64v62H27z"/><path fill="#0070ff" d="M29 42h60v58H29z"/><g fill="#fff"><path opacity=".5" d="M40 94V48h27l11 11v35z"/><path d="M45 57h20v1H45zm28 7v1H45v-1zm0 15v1H45v-1zm-10 7h10v1H63z" opacity=".505"/><path fill-opacity=".5" d="M78 59H67V48z"/></g><path d="M22 72c-5.262-.923-7-1.7-7-1.7L22 38s-.012 26.212 0 34zM96 72c5.262-.664 7-1.838 7-1.838L96 38s.012 26.445 0 34z" fill="#338dbc" fill-opacity=".4"/><path opacity=".1" d="M78 94H40V48h-1v47h40V59L68 48h-1l11 11z"/><path d="M32 74v2c0 1.105-.9 2-2.001 2H29V67h.999c1.105 0 2.001.888 2.001 2v2h54v-2c0-1.105.9-2 2.001-2H89v11h-.999A1.996 1.996 0 0 1 86 76v-2z" fill="#00fff3" opacity=".3"/><path d="M32 73v2c0 1.105-.9 2-2.001 2H29V66h.999c1.105 0 2.001.888 2.001 2v2h54v-2c0-1.105.9-2 2.001-2H89v11h-.999A1.996 1.996 0 0 1 86 75v-2z" fill="#fff"/><circle cx="106" cy="53" r="3" fill="#31d4ff"/><ellipse cx="106" cy="51.556" rx="2" ry="1.556" fill="url(#d)"/></g></svg>