<svg width="128" height="128" version="1.1" viewBox="0 0 128 128" xmlns="http://www.w3.org/2000/svg" xmlns:xlink="http://www.w3.org/1999/xlink"><title>deepin-system-monitor</title><defs><linearGradient id="b" x1="63.262" x2="43.654" y1="112" y2="1.351" gradientUnits="userSpaceOnUse"><stop stop-color="#4721FF" offset="0"/><stop stop-color="#8F86FF" offset="1"/></linearGradient><linearGradient id="c" x1="63.132" x2="43.639" y1="111" y2="1" gradientUnits="userSpaceOnUse"><stop stop-color="#5F3EFF" offset="0"/><stop stop-color="#6E62FF" offset="1"/></linearGradient><linearGradient id="e" x1="45" x2="45" y1=".5" y2="89.5" gradientUnits="userSpaceOnUse"><stop stop-color="#1E007E" offset="0"/><stop stop-color="#3721B2" offset="1"/></linearGradient><circle id="d" cx="45" cy="45" r="44.5"/><path id="h" d="M18.642 62.934c.395.843 1.14 2.038 2.264 3.237C22.833 68.23 25.2 69.494 28 69.494c3.437 0 5.954-2.029 7.835-5.713 1.32-2.585 2.088-5.088 3.618-11.08C42.253 41.742 44.079 38.166 48 38.166c3.836 0 5.333 3.518 7.188 14.415 1.022 6.002 1.576 8.507 2.682 11.105 1.588 3.731 3.987 5.808 7.464 5.808 2.387 0 4.162-1.033 5.367-2.917.848-1.325 1.316-2.75 1.927-5.361l.146-.63c.968-4.17 1.627-5.332 3.227-5.332 1.21 0 1.78.817 2.69 3.816.046.156.274.915.34 1.13.139.457.257.832.379 1.196 1.995 5.961 5.45 8.798 12.736 8.09a1.5 1.5 0 1 0-.29-2.985c-5.737.557-8.013-1.312-9.602-6.058a41.622 41.622 0 0 1-.353-1.116c-.064-.208-.29-.965-.34-1.127-1.272-4.194-2.493-5.946-5.56-5.946-2.038 0-3.536.99-4.535 2.755-.672 1.186-1.022 2.347-1.614 4.898l-.145.625c-1.055 4.505-1.987 5.962-4.373 5.962-3.836 0-5.333-3.518-7.188-14.415-1.022-6.002-1.576-8.507-2.682-11.105-1.588-3.731-3.987-5.808-7.463-5.808-3.438 0-5.955 2.029-7.836 5.713-1.32 2.585-2.088 5.088-3.618 11.08-2.798 10.959-4.625 14.535-8.546 14.535-1.867 0-3.5-.871-4.905-2.373a11.266 11.266 0 0 1-1.323-1.727 7.838 7.838 0 0 1-.414-.732 1.5 1.5 0 0 0-2.717 1.272z"/><filter id="g" x="-22%" y="-47.9%" width="144%" height="195.9%"><feMorphology in="SourceAlpha" operator="dilate" radius="1" result="shadowSpreadOuter1"/><feOffset dx="0" dy="0" in="shadowSpreadOuter1" result="shadowOffsetOuter1"/><feGaussianBlur in="shadowOffsetOuter1" result="shadowBlurOuter1" stdDeviation="4.5"/><feColorMatrix in="shadowBlurOuter1" values="0 0 0 0 0.243137255 0 0 0 0 0.423529412 0 0 0 0 1 0 0 0 1 0"/></filter><filter id="a" color-interpolation-filters="sRGB"><feFlood flood-color="#000" flood-opacity=".196" result="flood"/><feComposite in="flood" in2="SourceGraphic" operator="in" result="composite1"/><feGaussianBlur in="composite1" result="blur" stdDeviation="2"/><feOffset dx="0" dy="2" result="offset"/><feComposite in="SourceGraphic" in2="offset" result="composite2"/></filter></defs><g transform="translate(8 8)" fill="none" fill-rule="evenodd" filter="url(#a)"><circle cx="56" cy="56" r="56" fill="url(#b)"/><circle cx="56" cy="56" r="55" fill="url(#c)"/><g transform="translate(11 11.5)"><mask id="f" fill="#fff"><use width="100%" height="100%" xlink:href="#d"/></mask><use width="100%" height="100%" fill="url(#e)" xlink:href="#d"/><g stroke="#fff"><g mask="url(#f)"><path d="M23.5 5h43" opacity=".2"/><path d="M15 12h61.5M9 18h74" opacity=".1"/><path d="M6 25h79" opacity=".2"/><path d="M1.5 31h88M1.5 38h88" opacity=".1"/><path d="M1 44h89" opacity=".2"/><path d="M1.5 51h88M2.5 57H88" opacity=".1"/><path d="M5.5 64h80" opacity=".2"/><path d="M9 70h73.5M14 77h62.5" opacity=".1"/></g><path d="M83.5 68.5v-48M5.5 68.5v-48" mask="url(#f)" opacity=".2"/><path d="M11.5 73.5V13M18.5 84.5V7" mask="url(#f)" opacity=".1"/><path d="M24.5 85V5.5" mask="url(#f)" opacity=".2"/><path d="M31.5 87.5v-85M37.5 87V.5" mask="url(#f)" opacity=".1"/><path d="M44.5 87.5V.5" mask="url(#f)" opacity=".2"/><path d="M50.5 87V.5M57.5 87.5v-85" mask="url(#f)" opacity=".1"/><path d="M63.5 86V5.5" mask="url(#f)" opacity=".2"/><path d="M70.5 84.5V7M76.5 73.5V13" mask="url(#f)" opacity=".1"/></g></g><path d="M76.193 97.843C91.476 90.364 102 74.662 102 56.5c0-25.405-20.595-46-46-46s-46 20.595-46 46c0 18.201 10.571 33.933 25.908 41.392" opacity=".497" stroke="#fff" stroke-linecap="round" stroke-width="3"/><path d="M56 10.5c-25.405 0-46 20.503-46 45.794 0 18.12 10.571 33.781 25.908 41.206" stroke="#fff" stroke-linecap="round" stroke-linejoin="round" stroke-width="3"/><g fill-rule="nonzero"><use width="100%" height="100%" fill="#000" filter="url(#g)" xlink:href="#h"/><use width="100%" height="100%" fill="#fff" fill-rule="evenodd" xlink:href="#h"/></g><rect x="42.5" y="93.5" width="27" height="12" rx="6" fill="#6040ff"/><path d="M49.89 104.68c.96 0 1.75-.38 2.36-1.09l-.78-.92c-.4.43-.9.73-1.53.73-1.17 0-1.93-.97-1.93-2.58 0-1.59.84-2.55 1.96-2.55.56 0 .99.26 1.36.62l.78-.94c-.48-.5-1.23-.95-2.17-.95-1.87 0-3.44 1.43-3.44 3.87 0 2.47 1.52 3.81 3.39 3.81zm3.55-.14v-7.4h2.43c1.64 0 2.9.57 2.9 2.32 0 1.69-1.27 2.45-2.86 2.45h-.99v2.63zm1.48-3.8h.89c1.02 0 1.51-.43 1.51-1.28 0-.86-.54-1.15-1.56-1.15h-.84zm8.03 3.94c1.81 0 2.86-1.01 2.86-3.47v-4.07h-1.42v4.2c0 1.54-.56 2.06-1.44 2.06-.87 0-1.4-.52-1.4-2.06v-4.2h-1.48v4.07c0 2.46 1.08 3.47 2.88 3.47z" fill="#4e30dd"/><path d="M49.89 103.68c.96 0 1.75-.38 2.36-1.09l-.78-.92c-.4.43-.9.73-1.53.73-1.17 0-1.93-.97-1.93-2.58 0-1.59.84-2.55 1.96-2.55.56 0 .99.26 1.36.62l.78-.94c-.48-.5-1.23-.95-2.17-.95-1.87 0-3.44 1.43-3.44 3.87 0 2.47 1.52 3.81 3.39 3.81zm3.55-.14v-7.4h2.43c1.64 0 2.9.57 2.9 2.32 0 1.69-1.27 2.45-2.86 2.45h-.99v2.63zm1.48-3.8h.89c1.02 0 1.51-.43 1.51-1.28 0-.86-.54-1.15-1.56-1.15h-.84zm8.03 3.94c1.81 0 2.86-1.01 2.86-3.47v-4.07h-1.42v4.2c0 1.54-.56 2.06-1.44 2.06-.87 0-1.4-.52-1.4-2.06v-4.2h-1.48v4.07c0 2.46 1.08 3.47 2.88 3.47z" fill="#fff"/></g></svg>