<svg width="128" height="128" version="1.1" viewBox="0 0 128 128" xmlns="http://www.w3.org/2000/svg"><title>deepin-movie</title><defs><linearGradient id="b" x1="102.85" x2="24.419" y1="17.047" y2="101.41" gradientTransform="matrix(1.0464 0 0 .95569 3 6)" gradientUnits="userSpaceOnUse"><stop stop-color="#0BA2FF" offset="0"/><stop stop-color="#0067FF" offset="1"/></linearGradient><linearGradient id="c" x1="85.911" x2="59.511" y1="13.08" y2="111.96" gradientTransform="matrix(1.0464 0 0 .95568 3 6)" gradientUnits="userSpaceOnUse"><stop stop-color="#4BB4FF" offset="0"/><stop stop-color="#005DDB" offset="1"/></linearGradient><linearGradient id="d" x1="65.984" x2="17.254" y1="31.666" y2="34.902" gradientTransform="matrix(.58087 0 0 1.7215 3 6)" gradientUnits="userSpaceOnUse"><stop stop-color="#2BB8FF" offset="0"/><stop stop-color="#537CFF" offset="1"/></linearGradient><linearGradient id="e" x1="70.134" x2="21.745" y1="48.831" y2="54.211" gradientTransform="matrix(.58087 0 0 1.7215 3 6)" gradientUnits="userSpaceOnUse"><stop stop-color="#5BCBFF" offset="0"/><stop stop-color="#0056CB" stop-opacity=".469" offset="1"/></linearGradient><linearGradient id="f" x1="69.75" x2="69.75" y1="41.753" y2="71.98" gradientTransform="matrix(.95175 0 0 1.0507 3 6)" gradientUnits="userSpaceOnUse"><stop stop-color="#fff" offset="0"/><stop stop-color="#EFFAFD" offset="1"/></linearGradient><filter id="a" color-interpolation-filters="sRGB"><feFlood flood-color="#000" flood-opacity=".294" result="flood"/><feComposite in="flood" in2="SourceGraphic" operator="in" result="composite1"/><feGaussianBlur in="composite1" result="blur" stdDeviation="2"/><feOffset dx="0" dy="2" result="offset"/><feComposite in="SourceGraphic" in2="offset" result="composite2"/></filter></defs><g filter="url(#a)"><path d="M114.5 18.5H13.53l8.252 94.5h92.714a2.5 2.5 0 0 0 2.5-2.5V21a2.5 2.5 0 0 0-2.5-2.5zm-9.052 15h-11.05v-10h11.05zm-19.086 0h-11.05v-10h11.05zm-19.086 0h-11.05v-10h11.05zm-19.086 0H37.14v-10h11.05zm57.258 73.5h-11.05V97h11.05zm-19.086 0h-11.05V97h11.05zm-19.086 0h-11.05V97h11.05z" fill="url(#b)" fill-rule="evenodd"/><path d="M14.634 19.5l8.07 92.5h91.79c.829 0 1.502-.672 1.502-1.503V21.003c0-.83-.674-1.503-1.503-1.503h-99.86zm102.37 1.503v89.494a2.504 2.504 0 0 1-2.506 2.503H21.79l-8.253-94.5h100.96a2.505 2.505 0 0 1 2.508 2.503z" fill="url(#c)"/><path d="M56.226 102.5v5.5h11.05v-5.5 4.5h-11.05zm19.086 0v5.5h11.05v-5.5 4.5h-11.05zm19.086 0v5.5h11.05v-5.5 4.5h-11.05zM37.14 29v5.5h11.05V29v4.5H37.14zm19.086 0v5.5h11.05V29v4.5h-11.05zm19.086 0v5.5h11.05V29v4.5h-11.05zm19.086 0v5.5h11.05V29v4.5h-11.05z" fill="#fff" fill-opacity=".1" fill-rule="evenodd"/><path d="M104.45 24.5H95.4V33h9.05zm1 9.5H94.4V23.5h11.05zm-20.086-9.5h-9.05V33h9.05zm1 9.5h-11.05V23.5h11.05zm-20.086-9.5h-9.05V33h9.05zm1 9.5h-11.05V23.5h11.05zm-20.086-9.5h-9.05V33h9.05zm1 9.5h-11.05V23.5h11.05z" fill="#1b78ff"/><path d="M104.45 98H95.4v8.5h9.05zm1 9.5H94.4V97h11.05zM85.364 98h-9.05v8.5h9.05zm1 9.5h-11.05V97h11.05zM66.278 98h-9.05v8.5h9.05zm1 9.5h-11.05V97h11.05z" fill="#005bfc"/><path d="M43.657 118.58l-28.144-.983c-.682-.05-2.677-.093-2.576-2.976L9.728 14.655c-.022-.661.075-2.128 2.77-2.566l13.476-2.192c2.676.093 2.545 1.947 2.584 2.753.387 8.236 2.215 45.613 2.76 55.394.744 13.334 8.105 17.118 11.619 17.24 2.008.07 1.904 1.73 1.929 2.32l1.532 28.1c-.097 2.774-2.74 2.876-2.74 2.876z" fill="url(#d)" fill-rule="evenodd"/><path d="M44.507 117.3c.543-.3.861-.787.892-1.549l-1.532-28.113c-.014-.496-.025-.631-.074-.814-.097-.37-.282-.526-.891-.547-6.096-.213-11.941-6.688-12.581-18.185-.453-8.12-2.168-42.778-2.762-55.401-.02-.59-.033-.746-.086-.955-.133-.52-.466-.793-1.44-.843L12.66 13.069c-1.632.265-1.959.724-1.93 1.547l3.208 100.03c-.039 1.113.236 1.573.741 1.783.23.095.432.127.867.158l28.104.982c.194-.014.53-.09.858-.272zm-.85 1.273l-28.143-.983c-.682-.05-2.677-.094-2.576-2.976L9.729 14.648c-.022-.662.075-2.128 2.77-2.566l13.476-2.193c2.676.094 2.544 1.948 2.583 2.753.388 8.236 2.216 45.613 2.761 55.394.743 13.334 8.104 17.118 11.618 17.241 2.008.07 1.905 1.73 1.93 2.32l1.531 28.1c-.097 2.774-2.74 2.876-2.74 2.876z" fill="url(#e)"/><g fill-rule="evenodd"><path d="M55 78.963V52.536a2.667 2.667 0 0 1 3.976-2.323l23.435 13.213a2.667 2.667 0 0 1 0 4.646L58.976 81.285A2.667 2.667 0 0 1 55 78.962z" fill="url(#f)"/><path d="M55 66.25V52.537a2.667 2.667 0 0 1 3.976-2.323l23.435 13.213a2.668 2.668 0 0 1 1.31 2.825 2.661 2.661 0 0 0-1.31-1.825L58.976 51.214A2.667 2.667 0 0 0 55 53.537z" fill="#fff"/><path d="M55 66.25v13.713a2.667 2.667 0 0 0 3.976 2.323l23.435-13.213a2.667 2.667 0 0 0 1.31-2.821 2.664 2.664 0 0 1-1.31 1.82L58.976 81.287A2.667 2.667 0 0 1 55 78.963V66.25z" fill="#0766f8"/></g></g></svg>