<svg width="128" height="128" version="1.1" viewBox="0 0 128 128" xmlns="http://www.w3.org/2000/svg"><title>深度看图-128px</title><defs><linearGradient id="b" x1="54.669" x2="54.669" y1="15.365" y2="111.95" gradientTransform="matrix(1.0975 0 0 .91115 4 16)" gradientUnits="userSpaceOnUse"><stop stop-color="#fff" offset="0"/><stop stop-color="#BFC3D0" offset="1"/></linearGradient><linearGradient id="c" x1="54.044" x2="54.044" y1="16.653" y2="112.13" gradientTransform="matrix(1.1102 0 0 .90073 4 16)" gradientUnits="userSpaceOnUse"><stop stop-color="#F3F3F3" offset="0"/><stop stop-color="#F1F1F1" offset="1"/></linearGradient><linearGradient id="d" x1="48.99" x2="48.99" y1="101.65" y2="29.505" gradientTransform="matrix(1.2247 0 0 .8165 4 16)" gradientUnits="userSpaceOnUse"><stop stop-color="#FF9191" offset="0"/><stop stop-color="#FFAE00" offset="1"/></linearGradient><linearGradient id="e" x1="73.887" x2="101.64" y1="40.773" y2="74.346" gradientTransform="scale(.96724 1.0339)" gradientUnits="userSpaceOnUse"><stop stop-color="#FFE38A" offset="0"/><stop stop-color="#FFC0C1" offset="1"/></linearGradient><linearGradient id="f" x1="74.531" x2="101.79" y1="41.51" y2="74.48" gradientTransform="scale(.96756 1.0335)" gradientUnits="userSpaceOnUse"><stop stop-color="#FFD241" offset="0"/><stop stop-color="#FFC0C1" offset="1"/></linearGradient><filter id="a" color-interpolation-filters="sRGB"><feFlood flood-color="#000" flood-opacity=".196" result="flood"/><feComposite in="flood" in2="SourceGraphic" operator="in" result="composite1"/><feGaussianBlur in="composite1" result="blur" stdDeviation="2"/><feOffset dx="0" dy="2" result="offset"/><feComposite in="SourceGraphic" in2="offset" result="composite2"/></filter></defs><g fill-rule="evenodd" filter="url(#a)"><rect x="27" y="20" width="74" height="90" rx="3" fill="#efefef" opacity=".7"/><rect x="19" y="25" width="90" height="87" rx="3" fill="#efefef" opacity=".8"/><rect x="11" y="30" width="106" height="88" rx="3" fill="url(#b)"/><rect x="11" y="31" width="106" height="86" rx="3" fill="url(#c)"/><path fill="url(#d)" d="M16 35h96v64H16z"/><path fill="#ada1fe" d="M42.714 99.022l26.971-35.179-13.632-18.176-40.017 53.355z"/><path fill="#8173dd" d="M42.714 99.022l26.971-35.179L57 46.7 17.2 99.022z"/><path fill="#a2b6ff" d="M42.714 99.022l26.937-35.225 26.418 35.225H69.391z"/><path fill="#89a1f6" d="M44 99.022L70.4 64.8l25.669 34.222H69.391z"/><path transform="translate(4 16)" fill="url(#e)" d="M92.069 83.022L65.651 47.797l7.744-10.127 34.685 45.352z"/><path transform="translate(4 16)" fill="url(#f)" d="M92.069 83.022L66.4 48.8 74 38.5l34.08 44.522z"/><path d="M22 25h84c1.5 0 2.2 1 2.2 1H19.8s.7-1 2.2-1z" fill="#fff"/><path opacity=".06" d="M16 35h96v1H16z"/><path opacity=".08" d="M19 29h90v1H19z"/><path opacity=".05" d="M27 24h74v1H27z"/><path d="M30 20h68c1.5 0 2.2 1 2.2 1H27.8s.7-1 2.2-1z" fill="#fff" opacity=".5"/><path fill="#fff" d="M16 99h96v1H16z"/></g></svg>