<svg width="128" height="128" version="1.1" viewBox="0 0 128 128" xmlns="http://www.w3.org/2000/svg" xmlns:xlink="http://www.w3.org/1999/xlink"><title>deepin-download</title><defs><linearGradient id="b" x1="64" x2="64" y1="111.5" y2="8" gradientUnits="userSpaceOnUse"><stop stop-color="#5141FF" offset="0"/><stop stop-color="#00C0FF" offset="1"/></linearGradient><linearGradient id="c" x1="64" x2="64" y1="8" y2="111.94" gradientUnits="userSpaceOnUse"><stop stop-color="#46CEFF" offset="0"/><stop stop-color="#3D3AEC" offset="1"/></linearGradient><linearGradient id="d" x1="1.317" x2="64.641" y1="32.014" y2="32.014" gradientTransform="scale(.90966 1.0993)" gradientUnits="userSpaceOnUse"><stop stop-color="#fff" offset="0"/><stop stop-color="#fff" offset=".499"/><stop stop-color="#F4FBFF" offset=".499"/><stop stop-color="#fff" offset="1"/></linearGradient><path id="e" d="M29.134 69.499L1.332 21.309a1 1 0 0 1 1.19-1.446l27.154 9.291a1 1 0 0 0 .647 0l27.154-9.29a1 1 0 0 1 1.19 1.445l-27.802 48.19a1 1 0 0 1-1.732 0zM16.316.439l13.368 4.456a1 1 0 0 0 .632 0L43.684.439a1 1 0 0 1 1.317.949v1.391a1 1 0 0 1-.684.95l-14 4.666a1 1 0 0 1-.633 0l-14-4.667a1 1 0 0 1-.683-.949V1.388a1 1 0 0 1 1.316-.949zm0 10l13.368 4.456a1 1 0 0 0 .632 0l13.368-4.456a1 1 0 0 1 1.317.949v1.391a1 1 0 0 1-.684.95l-14 4.666a1 1 0 0 1-.633 0l-14-4.667a1 1 0 0 1-.683-.949v-1.391a1 1 0 0 1 1.316-.949z"/><filter id="a" color-interpolation-filters="sRGB"><feFlood flood-color="#000" flood-opacity=".196" result="flood"/><feComposite in="flood" in2="SourceGraphic" operator="in" result="composite1"/><feGaussianBlur in="composite1" result="blur" stdDeviation="2"/><feOffset dx="0" dy="2" result="offset"/><feComposite in="SourceGraphic" in2="offset" result="composite2"/></filter></defs><g filter="url(#a)"><circle cx="64" cy="64" r="56" fill="url(#b)" fill-rule="evenodd"/><path d="M64 9.5C33.9 9.5 9.5 33.9 9.5 64s24.4 54.5 54.5 54.5 54.5-24.4 54.5-54.5S94.1 9.5 64 9.5zM64 8c30.928 0 56 25.072 56 56s-25.072 56-56 56S8 94.928 8 64 33.072 8 64 8z" fill="url(#c)"/><g transform="translate(34 30)" fill="none" fill-rule="evenodd"><use width="100%" height="100%" fill="url(#d)" fill-rule="evenodd" xlink:href="#e"/><path d="M29.567 69.249a.5.5 0 0 0 .866 0l27.802-48.19a.5.5 0 0 0-.595-.723l-27.154 9.291a1.5 1.5 0 0 1-.971 0l-27.154-9.29a.5.5 0 0 0-.595.722l27.802 48.19zM16.158.913a.5.5 0 0 0-.658.474V2.78a.5.5 0 0 0 .342.474l14 4.667a.5.5 0 0 0 .316 0l14-4.667a.5.5 0 0 0 .342-.474V1.387a.5.5 0 0 0-.658-.474L30.474 5.369a1.5 1.5 0 0 1-.949 0L16.157.913zm0 10a.5.5 0 0 0-.658.474v1.392a.5.5 0 0 0 .342.474l14 4.667a.5.5 0 0 0 .316 0l14-4.667a.5.5 0 0 0 .342-.474v-1.392a.5.5 0 0 0-.658-.474l-13.368 4.456a1.5 1.5 0 0 1-.949 0l-13.368-4.456z" stroke="#fff"/></g></g></svg>