<svg width="128" height="128" version="1.1" viewBox="0 0 128 128" xmlns="http://www.w3.org/2000/svg"><title>deepin-multitasking-view</title><defs><linearGradient id="b" x1="64" x2="64" y1="8" y2="116.62" gradientUnits="userSpaceOnUse"><stop stop-color="#FFB594" offset="0"/><stop stop-color="#FFB8A0" offset=".08"/><stop stop-color="#F94444" offset="1"/></linearGradient><linearGradient id="c" x1="64" x2="64" y1="10" y2="118" gradientUnits="userSpaceOnUse"><stop stop-color="#FFA57D" offset="0"/><stop stop-color="#FF9B7A" offset=".08"/><stop stop-color="#FF5959" offset="1"/></linearGradient><filter id="a" color-interpolation-filters="sRGB"><feFlood flood-color="#000" flood-opacity=".196" result="flood"/><feComposite in="flood" in2="SourceGraphic" operator="in" result="composite1"/><feGaussianBlur in="composite1" result="blur" stdDeviation="2"/><feOffset dx="0" dy="2" result="offset"/><feComposite in="SourceGraphic" in2="offset" result="composite2"/></filter></defs><g filter="url(#a)"><path d="M8 64C8 33.072 33.072 8 64 8s56 25.072 56 56-25.072 56-56 56S8 94.928 8 64z" fill="url(#b)" fill-rule="evenodd"/><path d="M10 64c0-29.823 24.177-54 54-54s54 24.177 54 54-24.177 54-54 54-54-24.177-54-54z" fill="url(#c)" fill-rule="evenodd"/><path d="M32 52h6v28h-6zm58 0h6v28h-6zm-46-6h40v40H44z" opacity=".1"/><path d="M32 50h6v28h-6zm58 0h6v28h-6zm-46-6h40v40H44z" fill="#fff5f2"/><g fill="#fff" fill-rule="evenodd"><path d="M44 44h40v2H44zM32 50h6v2h-6zM90 50h6v2h-6z"/></g></g></svg>