<svg width="128" height="128" version="1.1" viewBox="0 0 128 128" xmlns="http://www.w3.org/2000/svg"><title>deepin-screen-recorder</title><defs><linearGradient id="b" x1="59.867" x2="59.867" y1="11.404" y2="111.18" gradientTransform="matrix(1.0691 0 0 .9354 -7.18 14.332)" gradientUnits="userSpaceOnUse"><stop stop-color="#FF9C53" offset="0"/><stop stop-color="#FF303E" offset="1"/></linearGradient><linearGradient id="c" x1="58.469" x2="58.469" y1="13.853" y2="111.66" gradientTransform="matrix(1.0886 -.11442 .0955 .90858 -5.642 15.004)" gradientUnits="userSpaceOnUse"><stop stop-color="#FF7C44" offset="0"/><stop stop-color="#FF4E5A" offset="1"/></linearGradient><filter id="a" color-interpolation-filters="sRGB"><feFlood flood-color="#000" flood-opacity=".196" result="flood"/><feComposite in="flood" in2="SourceGraphic" operator="in" result="composite1"/><feGaussianBlur in="composite1" result="blur" stdDeviation="2"/><feOffset dx="0" dy="2" result="offset"/><feComposite in="SourceGraphic" in2="offset" result="composite2"/></filter></defs><g fill-rule="evenodd" filter="url(#a)"><rect transform="rotate(-6)" x="3.487" y="24.999" width="106.67" height="93.333" rx="2.667" fill="url(#b)"/><path d="M6.373 29.156a2.657 2.657 0 0 1 2.356-2.937l100.78-10.593a2.683 2.683 0 0 1 2.941 2.38l9.172 83.506a2.657 2.657 0 0 1-2.357 2.937l-100.78 10.593a2.683 2.683 0 0 1-2.94-2.38z" fill="url(#c)"/><path d="M73.746 58.015l15.247-9.558c1.249-.783 2.39-.231 2.547 1.23l3.157 29.17c.159 1.463-.838 2.252-2.223 1.764L75.493 74.64l.368 3.505a5.338 5.338 0 0 1-4.746 5.869L36.64 87.637a5.332 5.332 0 0 1-5.862-4.754L28.269 59.03a5.338 5.338 0 0 1 4.747-5.869l34.476-3.623a5.332 5.332 0 0 1 5.862 4.754l.392 3.724zm0 0l-14.091 8.833c-1.248.782-1.137 1.813.249 2.301l15.588 5.491-1.747-16.625z" fill="#ff382d"/><path d="M73.746 56.015l15.247-9.558c1.249-.783 2.39-.231 2.547 1.23l3.158 29.17c.158 1.463-.839 2.252-2.224 1.764L75.493 72.64l.368 3.505a5.338 5.338 0 0 1-4.746 5.869L36.64 85.637a5.332 5.332 0 0 1-5.862-4.754L28.269 57.03a5.338 5.338 0 0 1 4.747-5.87l34.476-3.623a5.332 5.332 0 0 1 5.862 4.754l.392 3.724zm0 0l-14.09 8.833c-1.248.782-1.137 1.813.25 2.301l15.588 5.491-1.747-16.625z" fill="#fff"/><path fill="#fff" opacity=".3" d="M120.106 88.93L89.4 77.41l-3.066-29.173 27.638-17.652z"/><path d="M88.993 47.457c1.249-.783 2.39-.231 2.547 1.23l3.158 28.17c.158 1.463-.839 2.252-2.224 1.764L75.5 72.65l.362 2.495a5.338 5.338 0 0 1-4.746 5.869L36.64 84.637a5.332 5.332 0 0 1-5.863-4.753L28.27 58.03a5.338 5.338 0 0 1 4.746-5.87l34.476-3.623c2.93-.308 5.699 1.812 6.008 4.754 0 0 .313 3.667.346 3.646l15.147-9.48zM59.655 64.848c-1.248.782-1.137 2.813.25 3.301l15.744 5.491-1.904-17.625-14.09 8.833z" fill="#fff3f3"/><circle cx="106" cy="24" r="3" fill="#ff4000"/><circle cx="106" cy="23" r="3" fill="#fff"/></g></svg>