<svg width="128" height="128" version="1.1" viewBox="0 0 128 128" xmlns="http://www.w3.org/2000/svg"><title>deepin-show-desktop</title><defs><linearGradient id="b" x1="60.59" x2="60.59" y1="20.07" y2="120.42" gradientTransform="scale(1.0563 .94669)" gradientUnits="userSpaceOnUse"><stop stop-color="#54FFCD" offset="0"/><stop stop-color="#23C06D" offset="1"/></linearGradient><linearGradient id="c" x1="59.3" x2="59.3" y1="23.254" y2="120.88" gradientTransform="scale(1.0793 .92654)" gradientUnits="userSpaceOnUse"><stop stop-color="#23FFBE" offset="0"/><stop stop-color="#3FDA88" offset="1"/></linearGradient><filter id="a" color-interpolation-filters="sRGB"><feFlood flood-color="#000" flood-opacity=".196" result="flood"/><feComposite in="flood" in2="SourceGraphic" operator="in" result="composite1"/><feGaussianBlur in="composite1" result="blur" stdDeviation="2"/><feOffset dx="0" dy="2" result="offset"/><feComposite in="SourceGraphic" in2="offset" result="composite2"/></filter></defs><g fill-rule="evenodd" filter="url(#a)"><path d="M114 19a3 3 0 0 1 3.002 3v89c0 1.657-1.34 3-3.002 3H14.003a3 3 0 0 1-3.002-3V22c0-1.657 1.34-3 3.002-3z" fill="url(#b)"/><path d="M114 21a2.999 2.999 0 0 1 3.002 3.002v84.996A3 3 0 0 1 114 112H14.003a2.999 2.999 0 0 1-3.002-3.002V24.002A3 3 0 0 1 14.003 21z" fill="url(#c)"/><g transform="translate(20 29)"><rect y="60" width="88" height="16" rx="2.5" fill="#1fb366" opacity=".801"/><rect y="1" width="16" height="16" rx="2.5" opacity=".1"/><rect y="29" width="16" height="16" rx="2.5" opacity=".1"/><rect width="16" height="16" rx="2.5" fill="#fff"/><rect y="28" width="16" height="16" rx="2.5" fill="#fff"/></g></g></svg>