<svg width="128" height="128" version="1.1" viewBox="0 0 128 128" xmlns="http://www.w3.org/2000/svg" xmlns:xlink="http://www.w3.org/1999/xlink"><title>deepin-manual</title><defs><rect id="b" width="100" height="112" rx="4"/><radialGradient id="c" cx="52.915" cy="18.599" r="101.69" gradientTransform="matrix(.94491 0 0 1.0583 14 8)" gradientUnits="userSpaceOnUse"><stop stop-color="#04A38C" offset="0"/><stop stop-color="#075661" offset="1"/></radialGradient><linearGradient id="d" x1="6.504" x2="0" y1="69.444" y2="69.444" gradientTransform="matrix(.94491 0 0 1.0583 14 8)" gradientUnits="userSpaceOnUse"><stop stop-color="#04A38C" stop-opacity="0" offset="0"/><stop stop-color="#075661" offset="1"/></linearGradient><filter id="a" color-interpolation-filters="sRGB"><feFlood flood-color="#000" flood-opacity=".196" result="flood"/><feComposite in="flood" in2="SourceGraphic" operator="in" result="composite1"/><feGaussianBlur in="composite1" result="blur" stdDeviation="2"/><feOffset dx="0" dy="2" result="offset"/><feComposite in="SourceGraphic" in2="offset" result="composite2"/></filter></defs><g fill-rule="evenodd" filter="url(#a)"><use transform="translate(14 8)" width="100%" height="100%" fill="#000" fill-opacity=".1" xlink:href="#b"/><rect x="14" y="8" width="100" height="112" rx="4" fill="url(#c)"/><path d="M114 13a4 4 0 0 0-4-4H18a4 4 0 0 0-4 4v-1a4 4 0 0 1 4-4h92a4 4 0 0 1 4 4z" fill="#00ab9d" fill-opacity=".6"/><rect x="14" y="8" width="100" height="112" rx="4" fill="url(#d)"/><path d="M18 110h92.391a3.5 3.5 0 0 0 3.498-3.608l-.043-1.392v11a4 4 0 0 1-4 4H18a4 4 0 0 1-4-4v-2a4 4 0 0 1 4-4z" fill="#034849"/><path d="M18.5 111H111a2 2 0 0 0 2-2v5a4 4 0 0 1-4 4H18.5a3.5 3.5 0 1 1 0-7z" fill="#d5fcf9"/><g fill="#fff"><path d="M76.012 93.589a.078.078 0 0 0 .005.004zm-1.16-.131c-.94-.036-2.382-.018-4.324.054-3.892.143-10.436.122-18.33.697-.508-.233-.786-.438-.836-.614-.074-.265-.095-.724.377-1.017 1.53-.704 22.158-.123 23.113-.087.486.018 1.303.039 1.542.087.374.075.513 1.33.402 1.631-.256.692-5.494.147-15.72 1.027 15.72.877 15.657.895 13.795 2.055-3.352 2.088-24.221 4.44-24.221 4.44 12.348 0 27.565 1.405 29.556 2.421 1.99 1.017-10.803 3.42-15.682 3.42 2.238-.314 7.406-.84 10.499-2.13.312-.13 1.58-.636.989-.871-.763-.303-2.281-.693-4.574-.97-4.618-.555-12.287-1.041-23.004-1.458-2.016.087-2.752.058-2.208-.086-1.732-.99 7.266-2.996 20.536-4.766 1.098-.72-2.414-1.319-10.539-1.794-.115-.371.788-.683 2.707-.934 2.039-.268 16.195-.87 16.76-1.043a9.162 9.162 0 0 0-.838-.062z" fill-rule="nonzero" opacity=".2"/><path d="M53.698 70.961l1.087-12.526c.9-1.96 2.565-3.57 5.014-4.84 3.03-1.573 4.848-1.99 8.53-2.335 1.04-.097 1.642-.167 2.24-.277l1.08 12.447c-.161.039-.325.074-.493.107-.712.14-1.336.214-2.599.325-4.025.356-6.074.801-9.43 2.448-2.508 1.23-4.322 2.783-5.429 4.65zm-.369 4.247l.155.009c.225-3.45 2.247-6.107 6.127-8.01 3.212-1.576 5.142-1.995 9.044-2.34 1.3-.116 1.953-.192 2.715-.342.124-.024.246-.05.367-.077L73 79H53l.33-3.792zm1.657-19.085L55.778 47h14.444l.258 2.972c-.595.115-1.18.184-2.254.285-3.811.356-5.754.803-8.933 2.453-1.827.948-3.265 2.087-4.307 3.413zM51.37 80h23.261c.292 0 .547.223.569.5l.8 10c.021.276-.215.5-.528.5H50.53c-.313 0-.549-.224-.527-.5l.8-10c.022-.277.277-.5.568-.5zm3.13-45h17a.5.5 0 0 1 .5.5v2a.5.5 0 0 1-.5.5h-17a.5.5 0 0 1-.5-.5v-2a.5.5 0 0 1 .5-.5zm.5-1l8-4 8 4zm8-5a2 2 0 1 1 0-4 2 2 0 0 1 0 4zm-4 10.5v2a.5.5 0 0 1-.5.5h-2a.5.5 0 0 1-.5-.5v-2a.5.5 0 0 1 .5-.5h2a.5.5 0 0 1 .5.5zm11 0v2a.5.5 0 0 1-.5.5h-2a.5.5 0 0 1-.5-.5v-2a.5.5 0 0 1 .5-.5h2a.5.5 0 0 1 .5.5zm-4 0v2a.5.5 0 0 1-.5.5h-5a.5.5 0 0 1-.5-.5v-2a.5.5 0 0 1 .5-.5h5a.5.5 0 0 1 .5.5zM54.5 43h17a.5.5 0 0 1 .5.5v2a.5.5 0 0 1-.5.5h-17a.5.5 0 0 1-.5-.5v-2a.5.5 0 0 1 .5-.5zm8 11a.5.5 0 0 0-.5.5v4a.5.5 0 0 0 .5.5h1a.5.5 0 0 0 .5-.5v-4a.5.5 0 0 0-.5-.5z"/></g><path d="M14 47.5v-14l41 5.325v3.35L14 47.5zm57-8.675l43-5.325v14l-43-5.325v-3.35z" fill="#fff" opacity=".3"/><circle cx="63" cy="40.5" r="1" fill="#fefc6b"/><path d="M114 115v1a4 4 0 0 1-4 4H18a4 4 0 0 1-4-4v-1a4 4 0 0 0 4 4h92a4 4 0 0 0 4-4z" fill="#002f2b"/></g></svg>