<svg width="128" height="128" version="1.1" viewBox="0 0 128 128" xmlns="http://www.w3.org/2000/svg"><title>deepin-sound-recorder</title><defs><linearGradient id="b" x1="64" x2="64" y1="8" y2="119.81" gradientUnits="userSpaceOnUse"><stop stop-color="#FF9BBA" offset="0"/><stop stop-color="#DA0C0C" offset="1"/></linearGradient><linearGradient id="c" x1="64" x2="64" y1="11.999" y2="117.82" gradientUnits="userSpaceOnUse"><stop stop-color="#FF4B83" offset="0"/><stop stop-color="#EE3A3A" offset="1"/></linearGradient><linearGradient id="d" x1="89.698" x2="89.698" y1="19.265" y2="58.166" gradientTransform="scale(.71351 1.4015)" gradientUnits="userSpaceOnUse"><stop stop-color="#FF004F" offset="0"/><stop stop-color="#FF7F90" offset="1"/></linearGradient><filter id="a" color-interpolation-filters="sRGB"><feFlood flood-color="#000" flood-opacity=".196" result="flood"/><feComposite in="flood" in2="SourceGraphic" operator="in" result="composite1"/><feGaussianBlur in="composite1" result="blur" stdDeviation="2"/><feOffset dx="0" dy="2" result="offset"/><feComposite in="SourceGraphic" in2="offset" result="composite2"/></filter></defs><g filter="url(#a)"><circle cx="64" cy="64" r="56" fill="url(#b)" fill-rule="evenodd"/><circle cx="64" cy="64" r="54" fill="url(#c)" fill-rule="evenodd"/><path d="M46 67.034c0 9.934 8.938 17.952 18 17.952s18-6.02 18-17.952v-8.02H46zm40 0C86 81.976 75.062 89 64 89s-22-8.579-22-21.966v-8.023h44z" fill="#e40f35"/><path d="M46 69.034c0 9.934 8.938 17.952 18 17.952s18-6.02 18-17.952v-9.02H46zm40 0C86 83.976 75.062 91 64 91s-22-8.579-22-21.966v-9.023h44z" fill="#ff8090"/><path d="M46.062 67.992c0 9.899 8.938 17.89 18 17.89s18-6 18-17.89V60h-36zm40 0c0 14.89-10.938 21.89-22 21.89s-22-8.549-22-21.89V60h44z" fill="#fff"/><g fill-rule="evenodd"><path d="M50 41.001C50 33.269 56.266 27 64 27c7.732 0 14 6.266 14 13.996v3.193L72 51l6 10.105v6.9C78 75.735 71.734 82 64 82c-7.732 0-14-6.261-14-14.005v-6.862L56 53l-6-7.026V41z" fill="url(#d)"/><rect x="50" y="28" width="28" height="53" rx="14" fill="#fff"/><path fill="#e40f35" d="M50 93v4h28v-4z"/><path fill="#ff8090" d="M50 95v4h28v-4z"/><path fill="#fff" d="M50 94v4h28v-4H66v-8h-4v8z"/><g fill="#f94568"><circle cx="64" cy="39" r="3"/><path d="M50 52h12v3H50zM66 52h12v3H66zM50 57h12v3H50zM66 57h12v3H66zM50 47h12v3H50zM66 47h12v3H66z"/></g><path fill="#ff0050" d="M50 47h12v1H50zM66 47h12v1H66z"/><g fill="#fc7489"><path d="M50 49h12v1H50zM66 49h12v1H66zM50 54h12v1H50zM66 54h12v1H66zM50 59h12v1H50zM66 59h12v1H66z"/></g><g fill="#ff0050"><path d="M50 52h12v1H50zM66 52h12v1H66zM50 57h12v1H50zM66 57h12v1H66z"/></g></g></g></svg>