<svg width="128" height="128" version="1.1" viewBox="0 0 128 128" xmlns="http://www.w3.org/2000/svg"><title>深度商店-128px</title><defs><linearGradient id="b" x1="54.65" x2="54.65" y1="55.042" y2="137.02" gradientTransform="scale(1.1711 .85391)" gradientUnits="userSpaceOnUse"><stop stop-color="#FFBF40" offset="0"/><stop stop-color="#FF7500" offset="1"/></linearGradient><linearGradient id="c" x1="64" x2="64" y1="47" y2="117" gradientUnits="userSpaceOnUse"><stop stop-color="#FF9D28" offset="0"/><stop stop-color="#FF5300" offset="1"/></linearGradient><filter id="a" color-interpolation-filters="sRGB"><feFlood flood-color="#000" flood-opacity=".196" result="flood"/><feComposite in="flood" in2="SourceGraphic" operator="in" result="composite1"/><feGaussianBlur in="composite1" result="blur" stdDeviation="2"/><feOffset dx="0" dy="2" result="offset"/><feComposite in="SourceGraphic" in2="offset" result="composite2"/></filter></defs><g filter="url(#a)"><g fill-rule="evenodd"><path d="M16 23.996a2.997 2.997 0 0 1 3.005-2.997h89.99c1.66 0 3.005 1.351 3.005 2.997V49H16V23.996z" fill="#fff"/><path d="M16 24.993A2.995 2.995 0 0 1 19.005 22h89.99A2.998 2.998 0 0 1 112 24.993V49H16V24.993z" fill="#efefef"/><path d="M16 114V47.001h96v67c0 3-2.994 3-2.994 3H19.06C16 117.001 16 114 16 114z" fill="url(#b)"/><path d="M16 113.01V48h96v65c0 3-2.994 3-2.994 3H19.063C16 116 16 113.01 16 113.01z" fill="#ffa737"/><path d="M99 47v70H85V47zm-28 0v70H56V47zm-28 0v70H29V47z" fill="url(#c)"/><path d="M99 48v68H85V48zm-28 0v68H56V48zm-28 0v68H29V48z" fill="#ff7300"/><path d="M40 37a4 4 0 1 0-8 0 4 4 0 0 0 8 0zm56 0a4 4 0 1 0-8 0 4 4 0 0 0 8 0z" fill="#d6d6d6"/><path d="M40 36a4 4 0 1 0-8 0 4 4 0 0 0 8 0zm56 0a4 4 0 1 0-8 0 4 4 0 0 0 8 0z" fill="#a5988e"/><path d="M39 36a3 3 0 1 0-6 0 3 3 0 0 0 6 0zm56 0a3 3 0 1 0-6 0 3 3 0 0 0 6 0z" fill="#4f3826"/></g><path d="M92 40.499c0 17.673-7 34.667-28 34.667S36 58.172 36 40.499" fill="none" opacity=".1" stroke="#000" stroke-linecap="round" stroke-linejoin="round" stroke-width="3.5"/><path d="M92 36.499c0 17.673-8 34.667-28 34.667S36 54.172 36 36.499" fill="none" stroke="#fff" stroke-linecap="round" stroke-linejoin="round" stroke-width="3.5"/></g></svg>