<svg width="128" height="128" version="1.1" viewBox="0 0 128 128" xmlns="http://www.w3.org/2000/svg"><title>deepin-font-installer</title><defs><linearGradient id="b" x1="53.864" x2="53.864" y1="81.655" y2="133.44" gradientTransform="scale(1.1882 .84163)" gradientUnits="userSpaceOnUse"><stop stop-color="#D5E5F4" offset="0"/><stop stop-color="#DEE8F2" offset="1"/></linearGradient><linearGradient id="c" x1="29.137" x2="29.137" y1="102.24" y2="117.61" gradientTransform="scale(2.1928 .45604)" gradientUnits="userSpaceOnUse"><stop stop-color="#fff" offset="0"/><stop stop-color="#C9DAE9" offset="1"/></linearGradient><filter id="a" color-interpolation-filters="sRGB"><feFlood flood-color="#000" flood-opacity=".196" result="flood"/><feComposite in="flood" in2="SourceGraphic" operator="in" result="composite1"/><feGaussianBlur in="composite1" result="blur" stdDeviation="2"/><feOffset dx="0" dy="2" result="offset"/><feComposite in="SourceGraphic" in2="offset" result="composite2"/></filter></defs><g fill-rule="evenodd" filter="url(#a)"><path d="M103 116H25c-2 0-3-1-3-3V15c0-2 1-3 3-3h55l26 26v75c0 3-3 3-3 3z" fill="#e5b400"/><path d="M22 113c0 2 1 3 3 3h78s3 0 3-3v-1c0 3-3 3-3 3H25c-2 0-3-1-3-3z" fill-opacity=".12"/><path d="M22 15c0-2 1-3 3-3h55v1H25c-2 0-3 1-3 3z" fill="#fff" opacity=".25"/><path d="M82.477 38.075c-1.472 0-2.477-1.27-2.477-2.741V12l26 26.075H82.477z" fill="#ffe587"/><path d="M68.366 63.027H54.514v-1.664c1.219-.078 2.23-.234 3.035-.469.805-.234 1.207-.523 1.207-.867 0-.14-.015-.313-.047-.516a2.461 2.461 0 0 0-.14-.539l-2.766-7.453H44.155a55.668 55.668 0 0 0-1.066 2.86c-.274.812-.52 1.562-.739 2.25-.203.671-.343 1.218-.421 1.64s-.118.766-.118 1.031c0 .625.493 1.11 1.477 1.453.984.344 2.094.547 3.328.61v1.664H34.1v-1.664c.406-.031.914-.121 1.523-.27.61-.148 1.11-.347 1.5-.597.625-.422 1.11-.864 1.454-1.325s.68-1.097 1.007-1.91c1.672-4.172 3.516-8.859 5.532-14.062 2.015-5.203 3.812-9.836 5.39-13.898h1.875L63.467 57.99c.235.61.5 1.102.797 1.477s.711.742 1.242 1.101c.36.22.828.403 1.406.551.579.149 1.063.23 1.454.246v1.664zM54.96 49.433l-5.04-12.891-4.944 12.891zm35.883 13.172c-.734.266-1.379.48-1.934.645-.554.164-1.183.246-1.886.246-1.22 0-2.192-.286-2.918-.856-.727-.57-1.192-1.402-1.395-2.496h-.14c-1.016 1.125-2.106 1.984-3.27 2.578-1.164.594-2.566.89-4.207.89-1.734 0-3.16-.53-4.277-1.593s-1.676-2.453-1.676-4.172c0-.89.125-1.687.375-2.39a5.714 5.714 0 0 1 1.125-1.899c.39-.469.906-.887 1.547-1.254s1.242-.66 1.805-.879c.703-.265 2.128-.758 4.277-1.476 2.148-.72 3.598-1.282 4.348-1.688v-2.32c0-.203-.043-.594-.13-1.172a4.907 4.907 0 0 0-.55-1.64 4.667 4.667 0 0 0-1.324-1.512c-.57-.43-1.38-.645-2.426-.645-.719 0-1.387.121-2.004.363s-1.05.497-1.3.762c0 .313.073.774.222 1.383.148.61.223 1.172.223 1.687 0 .547-.247 1.047-.739 1.5-.492.454-1.176.68-2.05.68-.782 0-1.356-.277-1.723-.832a3.301 3.301 0 0 1-.551-1.863c0-.719.254-1.406.762-2.063.507-.656 1.168-1.242 1.98-1.758.703-.437 1.555-.808 2.555-1.113s1.976-.457 2.93-.457c1.312 0 2.457.09 3.433.27.977.18 1.863.566 2.66 1.16.797.578 1.403 1.363 1.817 2.355.414.993.62 2.27.62 3.832 0 2.235-.023 4.215-.07 5.942s-.07 3.613-.07 5.66c0 .61.106 1.094.317 1.453.21.36.535.664.972.914.235.14.606.219 1.114.235.507.015 1.027.023 1.558.023v1.5zm-8.18-12.375a51.22 51.22 0 0 0-3.492 1.148c-1 .375-1.93.844-2.789 1.407-.781.53-1.398 1.16-1.852 1.886-.453.727-.68 1.59-.68 2.59 0 1.297.34 2.25 1.02 2.86.68.609 1.543.914 2.59.914 1.11 0 2.086-.27 2.93-.809s1.554-1.176 2.133-1.91l.14-8.086z" fill="#c99e00"/><path d="M68.366 62.027H54.514v-1.664c1.219-.078 2.23-.234 3.035-.469.805-.234 1.207-.523 1.207-.867 0-.14-.015-.313-.047-.516a2.461 2.461 0 0 0-.14-.539l-2.766-7.453H44.155a55.668 55.668 0 0 0-1.066 2.86c-.274.812-.52 1.562-.739 2.25-.203.671-.343 1.218-.421 1.64s-.118.766-.118 1.031c0 .625.493 1.11 1.477 1.453.984.344 2.094.547 3.328.61v1.664H34.1v-1.664c.406-.031.914-.121 1.523-.27.61-.148 1.11-.347 1.5-.597.625-.422 1.11-.864 1.454-1.325s.68-1.097 1.007-1.91c1.672-4.172 3.516-8.859 5.532-14.062 2.015-5.203 3.812-9.836 5.39-13.898h1.875L63.467 56.99c.235.61.5 1.102.797 1.477s.711.742 1.242 1.101c.36.22.828.403 1.406.551.579.149 1.063.23 1.454.246v1.664zM54.96 48.433l-5.04-12.891-4.944 12.891zm35.883 13.172c-.734.266-1.379.48-1.934.645-.554.164-1.183.246-1.886.246-1.22 0-2.192-.286-2.918-.856-.727-.57-1.192-1.402-1.395-2.496h-.14c-1.016 1.125-2.106 1.984-3.27 2.578-1.164.594-2.566.89-4.207.89-1.734 0-3.16-.53-4.277-1.593s-1.676-2.453-1.676-4.172c0-.89.125-1.687.375-2.39a5.714 5.714 0 0 1 1.125-1.899c.39-.469.906-.887 1.547-1.254s1.242-.66 1.805-.879c.703-.265 2.128-.758 4.277-1.476 2.148-.72 3.598-1.282 4.348-1.688v-2.32c0-.203-.043-.594-.13-1.172a4.907 4.907 0 0 0-.55-1.64 4.667 4.667 0 0 0-1.324-1.512c-.57-.43-1.38-.645-2.426-.645-.719 0-1.387.121-2.004.363s-1.05.497-1.3.762c0 .313.073.774.222 1.383.148.61.223 1.172.223 1.687 0 .547-.247 1.047-.739 1.5-.492.454-1.176.68-2.05.68-.782 0-1.356-.277-1.723-.832a3.301 3.301 0 0 1-.551-1.863c0-.719.254-1.406.762-2.063.507-.656 1.168-1.242 1.98-1.758.703-.437 1.555-.808 2.555-1.113s1.976-.457 2.93-.457c1.312 0 2.457.09 3.433.27.977.18 1.863.566 2.66 1.16.797.578 1.403 1.363 1.817 2.355.414.993.62 2.27.62 3.832 0 2.235-.023 4.215-.07 5.942s-.07 3.613-.07 5.66c0 .61.106 1.094.317 1.453.21.36.535.664.972.914.235.14.606.219 1.114.235.507.015 1.027.023 1.558.023v1.5zm-8.18-12.375a51.22 51.22 0 0 0-3.492 1.148c-1 .375-1.93.844-2.789 1.407-.781.53-1.398 1.16-1.852 1.886-.453.727-.68 1.59-.68 2.59 0 1.297.34 2.25 1.02 2.86.68.609 1.543.914 2.59.914 1.11 0 2.086-.27 2.93-.809s1.554-1.176 2.133-1.91l.14-8.086z" fill="#fff"/><path d="M16 50.659A2.664 2.664 0 0 1 18.668 48h90.664A2.66 2.66 0 0 1 112 50.66v64.334a3.002 3.002 0 0 1-3.005 3.008h-89.99A3 3 0 0 1 16 114.993V50.659z" fill="#c0d0df"/><path d="M16 50.666A2.668 2.668 0 0 1 18.668 48h90.664A2.668 2.668 0 0 1 112 50.666v62.325a3.003 3.003 0 0 1-3.005 3.01h-89.99A3.004 3.004 0 0 1 16 112.99V50.666z" fill="url(#b)"/><g fill="#10acff"><path d="M56.979 90.034h-5.46l.002-.9c0-.306.292-.606.61-.607h4.554c.275 0 .593.306.592.603-.001.235-.005.379-.005.603 0 0 0 .301-.293.301m1.505 4.216c.313 0 .315-.278.315-.306l-.002-.895c0-.301-.308-.306-.308-.306l-6.368-.005c-.611 0-.602-.588-.602-.588-.008-.038 0-.613 0-.613h6.063c1.684 0 1.513-1.206 1.513-1.206v-1.195s.164-2.12-2.116-2.12H51.87c-2.321 0-2.164 2.092-2.164 2.092v3.03c0 2.112 2.125 2.103 2.125 2.103l6.652.01zM47.272 92.448s.005.294-.303.294c-.33 0-1.943.004-2.935 0-.99-.002-2.207-.219-2.207-2.087s1.35-2.127 2.193-2.127 3.25.004 3.25.004l.002 3.916m1.517-8.147H47.58s-.303 0-.303.311l-.001 2.402H43.35c-2.852 0-3.354 2.456-3.351 3.622.003 1.166.512 3.608 3.396 3.606 2.884-.003 2.965.003 4.186.003 1.511 0 1.513-1.498 1.513-1.498v-8.145c0-.301-.306-.301-.306-.301M80.913 86.11h-1.212a.302.302 0 0 1-.303-.301v-1.206c0-.167.136-.302.303-.302h1.212c.167 0 .303.135.303.302v1.206a.302.302 0 0 1-.303.301M80.913 94.25h-1.212a.302.302 0 0 1-.303-.301v-6.633c0-.166.136-.301.303-.301h1.212c.167 0 .303.135.303.301v6.633a.302.302 0 0 1-.303.301M86.671 87.017c-2.226-.003-4.848 0-4.848 0v6.927c0 .137.087.338.362.303l1.059-.003c.417.06.405-.305.405-.305l-.009-5.412 3.029-.002c.05 0 1.223.022 1.223 1.504l-.008 3.92c0 .167.135.302.303.302h1.212a.302.302 0 0 0 .302-.302v-4.056c0-1.671-.804-2.873-3.03-2.876M71.52 88.812s-.005-.294.303-.294c.33 0 1.943-.004 2.935 0 .99.002 2.207.219 2.207 2.087s-1.35 2.127-2.193 2.127l-3.25-.004-.002-3.916m-1.514 8.147h1.207s.303 0 .303-.311v-2.402h3.925c2.852 0 3.354-2.456 3.351-3.622-.003-1.166-.512-3.608-3.396-3.606-2.884.003-2.962-.003-4.183-.003-1.512 0-1.511 1.498-1.511 1.498v8.145c0 .301.304.301.304.301M66.979 90.034h-5.46l.002-.9c0-.306.292-.606.61-.607h4.554c.275 0 .593.306.592.603-.001.235-.005.379-.005.603 0 0 0 .301-.293.301m1.505 4.216c.313 0 .315-.278.315-.306l-.002-.895c0-.301-.308-.306-.308-.306l-6.368-.005c-.611 0-.602-.588-.602-.588-.008-.038 0-.613 0-.613h6.063c1.684 0 1.513-1.206 1.513-1.206v-1.195s.164-2.12-2.116-2.12H61.87c-2.321 0-2.164 2.092-2.164 2.092v3.03c0 2.112 2.125 2.103 2.125 2.103l6.652.01z"/></g><path d="M121.35 67.259c.675 1.514-.117 2.741-1.782 2.741H8.218c-1.66 0-2.461-1.223-1.786-2.741l8.23-18.517c.673-1.514 2.557-2.741 4.223-2.741h89.99c1.66 0 3.55 1.223 4.227 2.741l8.252 18.517z" fill="url(#c)"/><path d="M108.32 48.009c1.107 0 2.401.808 2.883 1.79l8.041 16.403c.485.989-.027 1.79-1.121 1.791L9.653 68c-1.105 0-1.605-.808-1.125-1.79l8.018-16.4c.484-.989 1.765-1.79 2.88-1.79l88.893-.01z" fill="#f0f8fa"/></g></svg>