<svg width="128" height="128" version="1.1" viewBox="0 0 128 128" xmlns="http://www.w3.org/2000/svg"><defs><filter id="a" color-interpolation-filters="sRGB"><feFlood flood-color="#000" flood-opacity=".196" result="flood"/><feComposite in="flood" in2="SourceGraphic" operator="in" result="composite1"/><feGaussianBlur in="composite1" result="blur" stdDeviation="2"/><feOffset dx="0" dy="2" result="offset"/><feComposite in="SourceGraphic" in2="offset" result="composite2"/></filter></defs><title>深度截图-128px</title><g fill-rule="evenodd" filter="url(#a)"><path d="M24.978 17.128a2.993 2.993 0 0 1 3.677-2.111l92.075 24.67a3.004 3.004 0 0 1 2.129 3.668l-19.848 74.072a2.993 2.993 0 0 1-3.677 2.11L7.259 94.868A3.004 3.004 0 0 1 5.13 91.2z" fill="#a6dbff"/><path d="M103.01 117.43a2.993 2.993 0 0 1-3.677 2.111L7.258 94.871a3.007 3.007 0 0 1-2.187-3.4 3.012 3.012 0 0 0 2.187 2.4l92.075 24.67a2.993 2.993 0 0 0 3.677-2.111z" fill="#7fcafd"/><path d="M120.73 39.689L28.655 15.018a2.993 2.993 0 0 0-3.677 2.111v1a2.993 2.993 0 0 1 3.677-2.111l92.075 24.671a3.012 3.012 0 0 1 2.187 2.4 3.007 3.007 0 0 0-2.187-3.4z" fill="#c4e7ff"/><path d="M116 107.01a3.001 3.001 0 0 1-3 2.99H15c-1.656 0-3-1.338-3-2.99V32.99A3.001 3.001 0 0 1 15 30h98c1.657 0 3 1.338 3 2.99z" fill="#ea004e"/><path d="M116 27.007A3.01 3.01 0 0 0 113 24H15a3 3 0 0 0-3 2.999v47.668C38.667 92 63.52 69.297 68.86 57.411c6.015 4.027 20.018 1.803 26.05-5.84 3.712 9.883 13.928 16.816 21.091 16.429V27.007z" fill="#ff0056"/><path d="M12 26.999A3 3 0 0 1 15 24h98c1.647 0 3 1.346 3 3.007v1A3.01 3.01 0 0 0 113 25H15a3 3 0 0 0-3 2.999z" fill="#ff6594"/><path d="M12 107a3 3 0 0 0 3 2.999h98c1.647 0 3-1.346 3-3.007v-1a3.01 3.01 0 0 1-3 3.007H15A3 3 0 0 1 12 106zM84 79V55c0-1.472-1.525-3.173-3-3H49v-8c0-1.472-1.028-2.5-2.5-2.5S44 42.528 44 44v8h-8c-1.472-.173-2.5 1.028-2.5 2.5S34.528 57 36 57h8v24c0 1.472 1.55 3 3.021 3h31.98v8c0 1.472 1.027 2.5 2.5 2.5S84 93.472 84 92v-8h9c1.471 0 2.5-1.028 2.5-2.5S94.471 79 93 79h-9zm-35 0V57h30v22z" fill="#cf0045"/><path d="M84 78V54c0-1.472-1.525-3.173-3-3H49v-8c0-1.472-1.028-2.5-2.5-2.5S44 41.528 44 43v8h-8c-1.472-.173-2.5 1.028-2.5 2.5S34.528 56 36 56h8v24c0 1.472 1.55 3 3.021 3h31.98v8c0 1.472 1.027 2.5 2.5 2.5S84 92.472 84 91v-8h9c1.471 0 2.5-1.028 2.5-2.5S94.471 78 93 78h-9zm-35 0V56h30v22z" fill="#fff9f9"/><g fill="#fff"><path d="M49.2 51H81c1.35 0 2.1 1 2.1 1H49zM44 51h-8.2c-1.2 0-1.89 1-1.89 1H44zM84 78h9c1.52 0 2 1 2 1H84zM49 78h30v1H46z"/></g></g></svg>