<svg width="128" height="128" version="1.1" viewBox="0 0 128 128" xmlns="http://www.w3.org/2000/svg" xmlns:xlink="http://www.w3.org/1999/xlink"><title>deepin-music</title><defs><linearGradient id="c" x1="31.761" x2="125.39" y1="37.529" y2="69.534" gradientTransform="rotate(90 68.5 58.5)" gradientUnits="userSpaceOnUse"><stop stop-color="#052900" offset="0"/><stop stop-color="#47692F" offset=".257"/><stop stop-color="#122600" offset=".583"/><stop stop-color="#0E2700" offset=".72"/><stop stop-color="#0D2500" offset="1"/></linearGradient><linearGradient id="a" x1="2.055%" y1="41.813%" y2="34.486%"><stop stop-color="#0C360D" stop-opacity=".381" offset="0"/><stop offset="1"/></linearGradient><linearGradient id="o" x1="-5.196" x2="77.942" y1="74.85" y2="74.85" gradientTransform="matrix(0 1.1547 -.86603 0 95 22)" gradientUnits="userSpaceOnUse"><stop stop-color="#A1F600" offset="0"/><stop stop-color="#71CA1E" offset="1"/></linearGradient><linearGradient id="d" x1="1.745" x2="84.967" y1="35.527" y2="29.301" gradientUnits="userSpaceOnUse" xlink:href="#a"/><linearGradient id="e" x1="3.664" x2="82.935" y1="35.841" y2="29.911" gradientUnits="userSpaceOnUse" xlink:href="#a"/><linearGradient id="f" x1="5.58" x2="80.876" y1="36.144" y2="30.511" gradientUnits="userSpaceOnUse" xlink:href="#a"/><linearGradient id="g" x1="7.5" x2="78.984" y1="36.517" y2="31.169" gradientUnits="userSpaceOnUse" xlink:href="#a"/><linearGradient id="h" x1="9.417" x2="76.968" y1="36.839" y2="31.785" gradientUnits="userSpaceOnUse" xlink:href="#a"/><linearGradient id="i" x1="11.334" x2="74.938" y1="37.152" y2="32.394" gradientUnits="userSpaceOnUse" xlink:href="#a"/><linearGradient id="j" x1="13.251" x2="72.876" y1="37.453" y2="32.993" gradientUnits="userSpaceOnUse" xlink:href="#a"/><linearGradient id="k" x1="15.169" x2="70.876" y1="37.781" y2="33.613" gradientUnits="userSpaceOnUse" xlink:href="#a"/><linearGradient id="l" x1="17.088" x2="68.934" y1="38.133" y2="34.255" gradientUnits="userSpaceOnUse" xlink:href="#a"/><linearGradient id="m" x1="19.01" x2="67.174" y1="38.56" y2="34.957" gradientUnits="userSpaceOnUse" xlink:href="#a"/><linearGradient id="n" x1="20.921" x2="64.842" y1="38.908" y2="35.622" gradientUnits="userSpaceOnUse" xlink:href="#a"/><filter id="b" color-interpolation-filters="sRGB"><feFlood flood-color="#000" flood-opacity=".196" result="flood"/><feComposite in="flood" in2="SourceGraphic" operator="in" result="composite1"/><feGaussianBlur in="composite1" result="blur" stdDeviation="2"/><feOffset dx="0" dy="2" result="offset"/><feComposite in="SourceGraphic" in2="offset" result="composite2"/></filter></defs><g fill-rule="evenodd" filter="url(#b)"><path d="M29 64c0 25.405 20.595 46 46 46s46-20.595 46-46-20.595-46-46-46-46 20.595-46 46z" fill="#478500"/><path d="M31 64c0 24.301 19.699 44 44 44s44-19.699 44-44-19.699-44-44-44-44 19.699-44 44z" fill="url(#c)"/><circle transform="rotate(90)" cx="64" cy="-75" r="20"/><circle transform="rotate(90)" cx="64" cy="-75" r="14" fill="#478500"/><g fill="none" opacity=".8"><path transform="rotate(90 48 69.5)" d="M44.028 84.467c22.886 0 40.439-18.481 40.439-41.984C84.467 19.296 65.67.499 42.483.499S.499 19.296.499 42.483c0 22.901 20.042 41.984 43.528 41.984z" stroke="url(#d)"/><path transform="rotate(90 48 69.5)" d="M43.939 82.434c21.787 0 38.496-17.593 38.496-39.967C82.435 20.394 64.541 2.5 42.468 2.5S2.501 20.394 2.501 42.467c0 21.8 19.079 39.967 41.439 39.967z" stroke="url(#e)"/><path transform="rotate(90 48 69.5)" d="M43.836 80.376c20.68 0 36.54-16.699 36.54-37.938C80.376 21.485 63.391 4.5 42.438 4.5S4.5 21.485 4.5 42.438c0 20.693 18.111 37.938 39.336 37.938z" stroke="url(#f)"/><path transform="rotate(90 48 69.5)" d="M42.492 78.484c19.878 0 35.992-16.114 35.992-35.992S62.37 6.5 42.492 6.5 6.5 22.614 6.5 42.492s16.114 35.992 35.992 35.992z" stroke="url(#g)"/><path transform="rotate(90 48 69.5)" d="M42.484 76.469c18.769 0 33.984-15.215 33.984-33.984S61.253 8.501 42.484 8.501 8.5 23.716 8.5 42.485s15.215 33.984 33.984 33.984z" stroke="url(#h)"/><path transform="rotate(90 48 69.5)" d="M42.469 74.437c17.656 0 31.969-14.313 31.969-31.969S60.125 10.499 42.469 10.499 10.5 24.812 10.5 42.468s14.313 31.969 31.969 31.969z" stroke="url(#i)"/><path transform="rotate(90 48 69.5)" d="M42.438 72.375c16.534 0 29.938-13.403 29.938-29.938S58.973 12.499 42.438 12.499 12.5 25.902 12.5 42.437s13.403 29.938 29.938 29.938z" stroke="url(#j)"/><path transform="rotate(90 48 69.5)" d="M42.438 70.375c15.43 0 27.938-12.508 27.938-27.938S57.868 14.499 42.438 14.499 14.5 27.007 14.5 42.437s12.508 27.938 27.938 27.938z" stroke="url(#k)"/><path transform="rotate(90 48 69.5)" d="M42.467 68.434c14.341 0 25.967-11.626 25.967-25.967S56.808 16.5 42.467 16.5 16.5 28.126 16.5 42.467s11.626 25.967 25.967 25.967z" stroke="url(#l)"/><path transform="rotate(90 48 69.5)" d="M42.587 66.673c13.303 0 24.087-10.784 24.087-24.087S55.89 18.499 42.587 18.499 18.5 29.283 18.5 42.586s10.784 24.087 24.087 24.087z" stroke="url(#m)"/><path transform="rotate(90 48 69.5)" d="M42.421 64.5c12.107 0 21.921-9.815 21.921-21.921s-9.815-21.921-21.921-21.921S20.5 30.473 20.5 42.579 30.315 64.5 42.421 64.5z" stroke="url(#n)"/></g><path d="M79 18.5v91a2.5 2.5 0 0 1-2.5 2.5h-67a2.5 2.5 0 0 1-2.5-2.5v-91A2.5 2.5 0 0 1 9.5 16h67a2.5 2.5 0 0 1 2.5 2.5z" fill="url(#o)"/><path d="M79 19.5v89a2.5 2.5 0 0 1-2.5 2.5h-67a2.5 2.5 0 0 1-2.5-2.5v-89A2.5 2.5 0 0 1 9.5 17h67a2.5 2.5 0 0 1 2.5 2.5z" fill="#92dc00"/><path d="M41.955 42.226s0-1.33 1.314-1.333c1.314-.003 1.344 1.333 1.344 1.333s-.083 3.477 6.68 8c1.237.81 13.32 8 7.408 21.123 0 0-.32.675-1.027.392-.557-.224-.368-.936-.368-.936s4.64-13.912-12.694-17.912c0 0 .028 18.88.012 24.043.016 3.957-2.627 7.578-7.386 8.853-5.05 1.353-9.993-.721-11.042-4.633-1.048-3.912 2.196-8.18 7.247-9.534 3.202-.858 6.361-.338 8.512 1.155v-30.55z" fill="#71ca1e"/><path d="M41.955 44.226s0-1.33 1.314-1.333c1.314-.003 1.344 1.333 1.344 1.333s-.083 3.477 6.68 8c1.237.81 13.32 8 7.408 21.123 0 0-.32.675-1.027.392-.557-.224-.368-.936-.368-.936s4.64-13.912-12.694-17.912c0 0 .028 18.88.012 24.043.016 3.957-2.627 7.578-7.386 8.853-5.05 1.353-9.993-.721-11.042-4.633-1.048-3.912 2.196-8.18 7.247-9.534 3.202-.858 6.361-.338 8.512 1.155v-30.55z" fill="#a1f600"/><path d="M41.955 43.226s0-1.33 1.314-1.333c1.314-.003 1.344 1.333 1.344 1.333s-.083 3.477 6.68 8c1.237.81 13.32 8 7.408 21.123 0 0-.32.675-1.027.392-.557-.224-.368-.936-.368-.936s4.64-13.912-12.694-17.912c0 0 .028 18.88.012 24.043.016 3.957-2.627 7.578-7.386 8.853-5.05 1.353-9.993-.721-11.042-4.633-1.048-3.912 2.196-8.18 7.247-9.534 3.202-.858 6.361-.338 8.512 1.155v-30.55z" fill="#fff"/></g></svg>