<svg width="128" height="128" version="1.1" viewBox="0 0 128 128" xmlns="http://www.w3.org/2000/svg"><title>深度用户反馈-128px</title><defs><linearGradient id="b" x1="62.457" x2="62.457" y1="10.931" y2="120.23" gradientTransform="scale(1.0247 .9759)" gradientUnits="userSpaceOnUse"><stop stop-color="#A9FF5A" offset="0"/><stop stop-color="#239D00" offset="1"/></linearGradient><filter id="a" color-interpolation-filters="sRGB"><feFlood flood-color="#000" flood-opacity=".196" result="flood"/><feComposite in="flood" in2="SourceGraphic" operator="in" result="composite1"/><feGaussianBlur in="composite1" result="blur" stdDeviation="2"/><feOffset dx="0" dy="2" result="offset"/><feComposite in="SourceGraphic" in2="offset" result="composite2"/></filter></defs><g fill-rule="evenodd" filter="url(#a)"><path d="M64 112c30.929 0 56-21.212 56-50.668 0-29.453-25.071-50.663-56-50.665-30.929 0-56 21.212-56 50.665 0 16.129 7.517 29.787 19.398 38.843.711.542-.903 11.154-5.508 14.662-1.134.863-.403 2.636 1.014 2.487 5.417-.567 13.37-2.6 18.887-9.251C48.6 110.619 56.11 112 64 112z" fill="#57c93f"/><path d="M118 61.332c0-27.782-23.552-48.663-54-48.665-30.447 0-54 20.882-54 48.665 0 14.992 6.795 28.246 18.61 37.253 2.107 1.606.214 10.035-3.048 15.039-.758 1.162-1.08 1.376-1.08 1.48 6.29-.973 11.84-3.571 15.769-8.308l.907-1.095 1.333.498c6.685 2.5 13.967 3.8 21.51 3.8 30.448 0 54-20.881 54-48.667zm-76.21 46.741c-5.515 6.652-13.47 8.684-18.887 9.252-1.417.148-2.148-1.625-1.014-2.488 4.606-3.508 6.22-14.12 5.508-14.662C15.517 91.12 8 77.461 8 61.332 8 31.88 33.07 10.667 64 10.667c30.93.003 56 21.212 56 50.665C120 90.788 94.93 112 64 112c-7.89 0-15.4-1.38-22.21-3.927z" fill="url(#b)" opacity=".3"/><path d="M91 50a3 3 0 1 0 0-6H37a3 3 0 1 0 0 6zm0 16a3 3 0 1 0 0-6H37a3 3 0 1 0 0 6zm0 16a3 3 0 1 0 0-6H37a3 3 0 1 0 0 6z" fill="#37bf14"/><path d="M91 48a3 3 0 1 0 0-6H37a3 3 0 1 0 0 6zm0 16a3 3 0 1 0 0-6H37a3 3 0 1 0 0 6zm0 16a3 3 0 1 0 0-6H37a3 3 0 1 0 0 6z" fill="#f0ffe4"/><g fill="#fff"><path d="M93.829 46a3 3 0 0 0-2.83-4H37a3 3 0 0 0-2.829 4A3.001 3.001 0 0 1 37 44h54c1.306 0 2.417.835 2.829 2zM93.829 62a3 3 0 0 0-2.83-4H37a3 3 0 0 0-2.829 4A3.001 3.001 0 0 1 37 60h54c1.306 0 2.417.835 2.829 2zM93.829 78a3 3 0 0 0-2.83-4H37a3 3 0 0 0-2.829 4A3.001 3.001 0 0 1 37 76h54c1.306 0 2.417.835 2.829 2z"/></g></g></svg>