<svg width="128" height="128" version="1.1" viewBox="0 0 128 128" xmlns="http://www.w3.org/2000/svg"><title>deepin-repair-tools</title><defs><linearGradient id="b" x1="56.302" x2="56.302" y1="97.413" y2="4.121" gradientTransform="matrix(1.0302 0 0 .97072 6 11)" gradientUnits="userSpaceOnUse"><stop stop-color="#8E8E8E" offset="0"/><stop stop-color="#AFAFAF" offset=".932"/><stop stop-color="#BEBEBE" offset=".932"/><stop stop-color="#C2C2C2" offset="1"/></linearGradient><linearGradient id="c" x1="56.302" x2="56.302" y1="4.121" y2="102.9" gradientTransform="matrix(1.0302 0 0 .97072 6 11)" gradientUnits="userSpaceOnUse"><stop stop-color="#B3B3B3" offset="0"/><stop stop-color="#727272" offset="1"/></linearGradient><filter id="a" color-interpolation-filters="sRGB"><feFlood flood-color="#000" flood-opacity=".196" result="flood"/><feComposite in="flood" in2="SourceGraphic" operator="in" result="composite1"/><feGaussianBlur in="composite1" result="blur" stdDeviation="2"/><feOffset dx="0" dy="2" result="offset"/><feComposite in="SourceGraphic" in2="offset" result="composite2"/></filter></defs><g filter="url(#a)"><path d="M13.154 20.195l3.956-4.006a4 4 0 0 1 2.846-1.19h88.088a4 4 0 0 1 2.846 1.19l3.956 4.006a4 4 0 0 1 1.154 2.81v87.974a2.02 2.02 0 0 1-2.02 2.02H14.02a2.02 2.02 0 0 1-2.02-2.02V23.006a4 4 0 0 1 1.154-2.811z" fill="url(#b)" fill-rule="evenodd"/><path d="M13.866 20.833A3 3 0 0 0 13 22.942V111a1 1 0 0 0 1 1h100a1 1 0 0 0 1-1V22.942a3 3 0 0 0-.866-2.109l-3.895-3.942a3 3 0 0 0-2.134-.891h-88.21a3 3 0 0 0-2.134.891l-3.895 3.942zm-.711-.703l3.895-3.942A4 4 0 0 1 19.895 15h88.21a4 4 0 0 1 2.845 1.188l3.895 3.942A4 4 0 0 1 116 22.942V111a2 2 0 0 1-2 2H14a2 2 0 0 1-2-2V22.942a4 4 0 0 1 1.155-2.812z" fill="url(#c)"/><path d="M73.124 65.224l-3.558-3.585a4.013 4.013 0 0 0-1.321-.885c-.227-.231-.46-.47-.697-.717l5.753-6.434a5.232 5.232 0 0 0 1.288-4.155c-.073-.566-.1-1.137-.078-1.707a10.294 10.294 0 0 1-.017-.251c-.286-5.498 3.91-10.188 9.372-10.476a9.84 9.84 0 0 1 7.342 2.729l-4.72.917a4.992 4.992 0 0 0 1.905 9.8l5.606-1.09c-1.021 4.148-4.637 7.317-9.096 7.552a9.989 9.989 0 0 1-.64.014c-.447.048-.897.067-1.347.055a5.164 5.164 0 0 0-3.97 1.724l-5.822 6.509zm-8.154 9.118L50.997 89.967c.037.282.06.495.067.64.174 3.354-2.379 6.208-5.712 6.384s-6.169-2.394-6.344-5.749c-.174-3.354 2.385-6.209 5.712-6.384.142-.008.353-.008.633 0L60.22 68.23c.16.506.419.98.767 1.392l3.982 4.72zM47.35 88.664l-3.217-.733-2.261 2.424.955 3.158 3.217.733 2.26-2.424zm20.796-25.616L92.9 87.992c1.686 1.699 1.73 4.525.13 6.289a69.064 69.064 0 0 1-1.702 1.492c-1.852 1.507-4.62 1.23-6.161-.596l-22.65-26.844a2.095 2.095 0 0 1-.47-1.062c-.68-.86-3.312-4.078-8.744-9.468-6.416-6.367-7.511-3.156-8.695-2.099s-1.064 2.038-1.064 2.038c-.103.603-.518 1.41-.983 1.803l-1.89 1.592c-.176.086-3.468-3.455-4.512-4.627-.898-1.006-2.329-3.021-2.329-3.021a.643.643 0 0 1 .045-.777s1.75-2.003 2.398-2.042c1.9-.114 2.78-.293 3.712-1.724.933-1.431.933-2.558 1.451-3.386.345-.551 3.222-4.125 7.431-6.628 8.074-4.803 14.34-5.097 15.64-5.006l6.08.426-3.147 3.128c-.26.095-.687.226-.952.292 0 0-3.842.859-6.89 3.091s-3.878 6.071-1.546 10.587c1.368 2.65 2.262 3.565 4.133 5.703a122.37 122.37 0 0 0 4.973 5.348c.364.082.709.265.989.547z" fill="#fff"/></g></svg>