<svg width="128" height="128" version="1.1" viewBox="0 0 128 128" xmlns="http://www.w3.org/2000/svg"><title>远程协助-128px</title><defs><linearGradient id="b" x1="60.59" x2="60.59" y1="20.07" y2="120.42" gradientTransform="scale(1.0563 .94669)" gradientUnits="userSpaceOnUse"><stop stop-color="#00D2C4" offset="0"/><stop stop-color="#0D9E94" offset="1"/></linearGradient><linearGradient id="c" x1="59.3" x2="59.3" y1="22.665" y2="120.88" gradientTransform="scale(1.0793 .92654)" gradientUnits="userSpaceOnUse"><stop stop-color="#1CC3BD" offset="0"/><stop stop-color="#0FBBAF" offset="1"/></linearGradient><filter id="d" color-interpolation-filters="sRGB"><feFlood flood-color="#0D9E94" flood-opacity=".686" result="flood"/><feComposite in="flood" in2="SourceGraphic" operator="in" result="composite1"/><feGaussianBlur in="composite1" result="blur"/><feOffset dx="0" dy="2" result="offset"/><feComposite in="SourceGraphic" in2="offset" result="composite2"/></filter><filter id="a" color-interpolation-filters="sRGB"><feFlood flood-color="#000" flood-opacity=".196" result="flood"/><feComposite in="flood" in2="SourceGraphic" operator="in" result="composite1"/><feGaussianBlur in="composite1" result="blur" stdDeviation="2"/><feOffset dx="0" dy="2" result="offset"/><feComposite in="SourceGraphic" in2="offset" result="composite2"/></filter></defs><g fill-rule="evenodd" filter="url(#a)"><path d="M114 19a3 3 0 0 1 3.002 3v89c0 1.657-1.34 3-3.002 3H14.003a3 3 0 0 1-3.002-3V22c0-1.657 1.34-3 3.002-3z" fill="url(#b)"/><path d="M114 21a2.999 2.999 0 0 1 3.002 3.002v84.996A3 3 0 0 1 114 112H14.003a2.999 2.999 0 0 1-3.002-3.002V24.002A3 3 0 0 1 14.003 21z" fill="url(#c)"/><path d="M83.661 41.203A1915.802 1915.802 0 0 1 66.77 58.099l13.958 13.917L64.04 88.959c-6.856-6.566-13.592-13.179-20.411-19.734l-.135-.12c-3.376-2.815-5.328-7.39-4.625-11.63.748-5.684 6.35-10.599 11.995-10.479 1.094-.014 2.198.229 3.036.406 2.669.573 5.144 2.98 7.432 5.297-.005.005 1.24 1.25 1.24 1.25l3.25 3.235 6.552-6.552c1.006-1.006 1.562-2.934 0-4.48-.8-.799-1.678-1.045-2.48-.968a3.366 3.366 0 0 0-2.015.968L64.832 49.2c-2.359-2.35-6.012-5.903-9.833-6.734a17.055 17.055 0 0 0-4.177-.531c-8.525-.168-15.862 6.486-16.974 14.74-1.021 6.243 1.707 12.44 6.385 16.344l-.135-.12c6.84 6.575 14.204 13.658 21.12 20.219.974.849 1.767.99 2.792.99.79.01 1.688-.26 2.61-1.146l15.436-15.474S92.396 67.182 97.5 62.112c1.089-1.09 1.167-2.614.078-3.703-1.088-1.088-2.646-1.052-3.734.036L82.812 69.476c-.29.061-.9-.574-.87-.932l16.297-16.302c1.089-1.09 1.17-2.646.078-3.735-1.089-1.089-2.541-.937-3.63.151L81.78 61.57c-.338.06-1.072-.578-.98-1.01l15.277-15.281c.876-.937 1.398-2.602.276-3.776-1.09-1.09-2.76-1.015-3.85.078l-15.76 15.766c-.377 0-.954-.53-.947-.922l11.536-11.536c1.088-1.088 1.286-2.609.099-3.734-.594-.563-1.285-.807-1.953-.781-.669.025-1.314.318-1.818.833z" fill="#ecfefd" filter="url(#d)"/></g></svg>