<svg width="128" height="128" version="1.1" viewBox="0 0 128 128" xmlns="http://www.w3.org/2000/svg"><defs><filter id="a" color-interpolation-filters="sRGB"><feFlood flood-color="#908B78" flood-opacity=".498" result="flood"/><feComposite in="flood" in2="SourceGraphic" operator="in" result="composite1"/><feGaussianBlur in="composite1" result="blur" stdDeviation="1.5"/><feOffset dx="0" dy="1.5" result="offset"/><feComposite in="SourceGraphic" in2="offset" result="composite2"/></filter></defs><title>deepin-calculator</title><g transform="translate(5.783 4.872) scale(1.8193)" fill-rule="evenodd" filter="url(#a)"><path d="M31.995 5.001c-2.493 6.111-3.997 10.108-6.772 16.037C26.925 22.842 28.607 24.628 32 27c-3.647-1.5-5.729-2.693-7.588-4.256C20.86 30.155 15.294 40.711 4 61c8.877-5.123 15.058-8.282 21.47-9.487a16.243 16.243 0 0 1-.42-3.802l.01-.284c.14-5.686 3.86-10.42 7.303-10.427 3.442-.008 6.789 5.815 6.648 11.5-.027 1.07-.147 2.1-.358 3.055C44.996 52.795 51.243 55.946 60 61c-1.727-3.178-3.268-6.043-4.74-8.771C52.942 50.432 50.932 48.53 46 46c3.39.88 5.41 1.46 7.301 2.596C38.338 20.742 37.126 17.04 31.994 5z" opacity=".2"/><path d="M31.995 4.001c-2.493 6.111-3.997 10.108-6.772 16.037C26.925 21.842 28.607 23.628 32 26c-3.647-1.5-5.729-2.693-7.588-4.256C20.86 29.155 15.294 39.711 4 60c8.877-5.123 15.058-8.282 21.47-9.487a16.243 16.243 0 0 1-.42-3.802l.01-.284c.14-5.686 3.86-10.42 7.303-10.427 3.442-.008 6.789 5.815 6.648 11.5-.027 1.07-.147 2.1-.358 3.055C44.996 51.795 51.243 54.946 60 60c-1.727-3.178-3.268-6.043-4.74-8.771C52.942 49.432 50.932 47.53 46 45c3.39.88 5.41 1.46 7.301 2.596C38.338 19.742 37.126 16.04 31.994 4z" fill="#1793d1"/><path d="M31.996 4.004c-2.493 6.11-3.998 10.107-6.773 16.035l.306.32c2.566-5.54 4.076-9.495 6.467-15.355 5.033 11.808 6.374 15.734 20.547 42.17.257.133.508.272.758.422C38.339 19.746 37.127 16.04 31.996 4.004zm-7.584 17.74C20.86 29.154 15.294 39.71 4 60l.807-.461c10.689-19.232 16.149-29.585 19.605-36.795C26.27 24.307 28.352 25.499 32 27a39.185 39.185 0 0 1-3.102-2.404c-1.85-.92-3.24-1.804-4.486-2.852zM46 46c4.932 2.531 6.941 4.432 9.26 6.228 1.229 2.28 2.565 4.754 3.959 7.327.265.152.511.29.781.445-1.727-3.178-3.268-6.043-4.74-8.772-1.67-1.293-3.195-2.644-5.75-4.242A73.394 73.394 0 0 0 46 46zm-20.936 1.346c0 .027-.005.053-.006.08l-.01.285a16.23 16.23 0 0 0 .23 2.844c.065-.013.128-.031.192-.043a16.28 16.28 0 0 1-.406-3.166zM39 47.652a16.009 16.009 0 0 1-.348 2.903c.054.01.107.026.16.037.103-.676.182-1.37.2-2.092.007-.283-.002-.565-.012-.848z" fill="#fff" opacity=".2"/></g></svg>