<svg width="128" height="128" version="1.1" viewBox="0 0 128 128" xmlns="http://www.w3.org/2000/svg"><title>evince</title><defs><linearGradient id="b" x1="51.291" x2="51.291" y1="100.37" y2="2.159" gradientTransform="scale(1.0793 .92655)" gradientUnits="userSpaceOnUse"><stop stop-color="#E91A1A" offset="0"/><stop stop-color="#FA8C55" offset="1"/></linearGradient><filter id="a" color-interpolation-filters="sRGB"><feFlood flood-color="#000" flood-opacity=".196" result="flood"/><feComposite in="flood" in2="SourceGraphic" operator="in" result="composite1"/><feGaussianBlur in="composite1" result="blur" stdDeviation="2"/><feOffset dx="0" dy="2" result="offset"/><feComposite in="SourceGraphic" in2="offset" result="composite2"/></filter></defs><g transform="translate(11 14)" fill-rule="evenodd" filter="url(#a)"><path d="M106 46.5V5.333A5.333 5.333 0 0 0 100.667 0H5.334A5.333 5.333 0 0 0 0 5.333V46.5 7.333A5.333 5.333 0 0 1 5.334 2h95.333A5.333 5.333 0 0 1 106 7.333z" fill="#ff9e71"/><path d="M106 48.5v41.167A5.333 5.333 0 0 1 100.667 95H5.334A5.333 5.333 0 0 1 0 89.667V48.5v39.167A5.333 5.333 0 0 0 5.334 93h95.333A5.333 5.333 0 0 0 106 87.667z" fill="#d41e1c"/><rect y="2" width="106" height="91" rx="5.333" fill="url(#b)"/><path d="M28.048 68.947h.34l-7.081 4.413A2388.739 2388.739 0 0 1 16 78.667l12.387-7.72h-.34c13.747 6.119 35.509 5.072 65.287-3.14v-8.06 6.06c-17.712 4.884-32.588 7.234-44.628 7.048-5.244.736-9.467.288-12.668-1.346-2.911-.633-5.575-1.487-7.99-2.562zm-2.934-1.484l-.4.398.054.018-.854.86c-.472-.3-.931-.61-1.378-.933-3.854-2.775-5.31-6.474-5.01-10.534.253 3.27 1.799 6.222 5.01 8.534.818.59 1.677 1.142 2.578 1.657zm6.978-1.179l.136.27 1.2-.748c1.452-.724 2.541-1.448 3.267-2.172.726-.724 10.166-9.774 28.32-27.151 1.69-1.776 2.068-2.828 2.153-4.225.016.221.025.447.025.677 0 2.173 0 3.259-2.179 5.548C46.861 55.86 37.421 64.91 36.695 65.633c-.715.714-1.782 1.427-3.201 2.14a11.904 11.904 0 0 1-1.402-1.489zm24.926-33.41c-3.667-2.633-27.69 2.715-28.49 21.995-.94-23.312 30.916-27.852 28.861-22.73a5.73 5.73 0 0 1-.372.735z" fill="#d73020"/><path d="M28.387 68.947L16 76.667c3.096-3.087 6.018-6.016 8.767-8.788l-.053-.018.399-.398c-.9-.516-1.76-1.068-2.578-1.657-19.606-14.119 22.873-52.13 42.48-40.184 1.452 1.37 2.178 3.141 2.178 5.313s0 3.258-2.179 5.547C46.861 53.86 37.421 62.91 36.695 63.633c-.726.725-1.815 1.449-3.267 2.173l-1.2.747-.136-.27c4.718 5.956 14.102 6.498 28.153 1.628 6.054-2.098 17.083-7.506 33.088-16.224v14.119c-29.777 8.212-51.539 9.26-65.286 3.14h.34zm1.155-5.9C46.93 45.375 56.212 35.073 57.39 32.139c2.178-5.43-33.765 0-28.32 27.15a20.01 20.01 0 0 0 .942 3.29l-.47.468z" fill="#fff"/></g></svg>