<?xml version="1.0" encoding="UTF-8"?>
<svg width="128" height="128" version="1.1" viewBox="0 0 128 128" xmlns="http://www.w3.org/2000/svg" xmlns:cc="http://creativecommons.org/ns#" xmlns:dc="http://purl.org/dc/elements/1.1/" xmlns:rdf="http://www.w3.org/1999/02/22-rdf-syntax-ns#">
 <metadata>
  <rdf:RDF>
   <cc:Work rdf:about="">
    <dc:format>image/svg+xml</dc:format>
    <dc:type rdf:resource="http://purl.org/dc/dcmitype/StillImage"/>
    <dc:title>deepin-manual</dc:title>
   </cc:Work>
  </rdf:RDF>
 </metadata>
 <title>deepin-manual</title>
 <defs>
  <filter id="filter960" color-interpolation-filters="sRGB">
   <feFlood flood-color="rgb(0,0,0)" flood-opacity=".19608" result="flood"/>
   <feComposite in="flood" in2="SourceGraphic" operator="in" result="composite1"/>
   <feGaussianBlur in="composite1" result="blur" stdDeviation="1"/>
   <feOffset dx="0" dy="1" result="offset"/>
   <feComposite in="SourceGraphic" in2="offset" result="composite2"/>
  </filter>
  <linearGradient id="a-3" x1="23.998" x2="23.998" y1="3.992" y2="43.992" gradientTransform="matrix(1,0,0,-1,0,48)" gradientUnits="userSpaceOnUse">
   <stop stop-color="#63b01e" offset="0"/>
   <stop stop-color="#a1e153" offset="1"/>
  </linearGradient>
 </defs>
 <g transform="matrix(2.7966 0 0 2.7966 -3.1131 -3.4122)" filter="url(#filter960)">
  <path d="m41.998 43.008a1 1 0 0 1-1 1h-34a1 1 0 0 1-1-1v-38a1 1 0 0 1 1-1h34a1 1 0 0 1 1 1z" fill="url(#a-3)"/>
  <path d="m25.998 4.008v32.234c0 0.949 0.881 1.766 1.832 1.766h3.428c0.95 0 1.741-0.816 1.741-1.766v-32.234z" fill="#252525"/>
  <path d="m28.4 5.578h2.287v28h-2.287z" fill="#4d4d4d"/>
  <path d="m28.4 33.006h2.287a0.57 0.57 0 0 1 0.57 0.572v1.143a0.57 0.57 0 0 1-0.57 0.571h-2.287a0.57 0.57 0 0 1-0.57-0.571v-1.143c0-0.316 0.256-0.572 0.57-0.572z" fill="#b5b5b6"/>
  <path d="m28.4 33.006h2.287a0.57 0.57 0 0 1 0.57 0.572v1.143a0.57 0.57 0 0 1-0.57 0.571h-2.287a0.57 0.57 0 0 1-0.57-0.571v-1.143c0-0.316 0.256-0.572 0.57-0.572z" fill="none" opacity=".564" stroke="#000" stroke-linecap="square" stroke-width=".5"/>
  <path d="m28.027 30.236a0.286 0.286 0 0 0-0.285 0.287v1.713c0 0.162 0.131 0.287 0.285 0.287h0.572a0.287 0.287 0 0 0 0.285-0.287v-0.285h0.857a0.284 0.284 0 0 0 0.285-0.285v-0.572a0.284 0.284 0 0 0-0.285-0.285h-0.857v-0.285a0.287 0.287 0 0 0-0.285-0.287h-0.572z" fill="#b5b5b6"/>
  <path d="m28.027 30.236a0.286 0.286 0 0 0-0.285 0.287v1.713c0 0.162 0.131 0.287 0.285 0.287h0.572a0.287 0.287 0 0 0 0.285-0.287v-0.285h0.857a0.284 0.284 0 0 0 0.285-0.285v-0.572a0.284 0.284 0 0 0-0.285-0.285h-0.857v-0.285a0.287 0.287 0 0 0-0.285-0.287h-0.572z" fill="none" opacity=".564" stroke="#000" stroke-linecap="square" stroke-width=".5"/>
  <path d="m28.115 20.721a0.284 0.284 0 0 0-0.285 0.285v1.715c0 0.161 0.131 0.285 0.285 0.285h0.572a0.285 0.285 0 0 0 0.285-0.285v-0.285h0.857a0.285 0.285 0 0 0 0.285-0.287v-0.57a0.285 0.285 0 0 0-0.285-0.286h-0.857v-0.286a0.285 0.285 0 0 0-0.285-0.285h-0.572z" fill="#b5b5b6"/>
  <path d="m28.115 20.721a0.284 0.284 0 0 0-0.285 0.285v1.715c0 0.161 0.131 0.285 0.285 0.285h0.572a0.285 0.285 0 0 0 0.285-0.285v-0.285h0.857a0.285 0.285 0 0 0 0.285-0.287v-0.57a0.285 0.285 0 0 0-0.285-0.286h-0.857v-0.286a0.285 0.285 0 0 0-0.285-0.285h-0.572z" fill="none" opacity=".564" stroke="#000" stroke-linecap="square" stroke-width=".5"/>
  <path d="m28.115 17.292a0.285 0.285 0 0 0-0.285 0.286v1.714c0 0.161 0.131 0.286 0.285 0.286h0.572a0.286 0.286 0 0 0 0.285-0.286v-0.286h0.857a0.284 0.284 0 0 0 0.285-0.285v-0.572a0.284 0.284 0 0 0-0.285-0.285h-0.857v-0.285a0.286 0.286 0 0 0-0.285-0.286h-0.572z" fill="#b5b5b6"/>
  <path d="m28.115 17.292a0.285 0.285 0 0 0-0.285 0.286v1.714c0 0.161 0.131 0.286 0.285 0.286h0.572a0.286 0.286 0 0 0 0.285-0.286v-0.286h0.857a0.284 0.284 0 0 0 0.285-0.285v-0.572a0.284 0.284 0 0 0-0.285-0.285h-0.857v-0.285a0.286 0.286 0 0 0-0.285-0.286h-0.572z" fill="none" opacity=".564" stroke="#000" stroke-linecap="square" stroke-width=".5"/>
  <path d="m28.115 13.863a0.286 0.286 0 0 0-0.285 0.285v1.715c0 0.16 0.131 0.285 0.285 0.285h0.572a0.286 0.286 0 0 0 0.285-0.285v-0.285h0.857a0.284 0.284 0 0 0 0.285-0.286v-0.571a0.284 0.284 0 0 0-0.285-0.285h-0.857v-0.287a0.286 0.286 0 0 0-0.285-0.285h-0.572z" fill="#b5b5b6"/>
  <path d="m28.115 13.863a0.286 0.286 0 0 0-0.285 0.285v1.715c0 0.16 0.131 0.285 0.285 0.285h0.572a0.286 0.286 0 0 0 0.285-0.285v-0.285h0.857a0.284 0.284 0 0 0 0.285-0.286v-0.571a0.284 0.284 0 0 0-0.285-0.285h-0.857v-0.287a0.286 0.286 0 0 0-0.285-0.285h-0.572z" fill="none" opacity=".564" stroke="#000" stroke-linecap="square" stroke-width=".5"/>
  <path d="m28.115 23.646a0.286 0.286 0 0 0-0.285 0.285v1.715c0 0.16 0.131 0.285 0.285 0.285h0.572a0.286 0.286 0 0 0 0.285-0.285v-0.287h0.857a0.284 0.284 0 0 0 0.285-0.285v-0.571a0.284 0.284 0 0 0-0.285-0.286h-0.857v-0.285a0.286 0.286 0 0 0-0.285-0.285h-0.572z" fill="#b5b5b6"/>
  <path d="m28.115 23.646a0.286 0.286 0 0 0-0.285 0.285v1.715c0 0.16 0.131 0.285 0.285 0.285h0.572a0.286 0.286 0 0 0 0.285-0.285v-0.287h0.857a0.284 0.284 0 0 0 0.285-0.285v-0.571a0.284 0.284 0 0 0-0.285-0.286h-0.857v-0.285a0.286 0.286 0 0 0-0.285-0.285h-0.572z" fill="none" opacity=".564" stroke="#000" stroke-linecap="square" stroke-width=".5"/>
  <path d="m30.597 28.544a0.287 0.287 0 0 0-0.285 0.287v0.285h-0.857a0.284 0.284 0 0 0-0.285 0.285v0.572c0 0.158 0.127 0.285 0.285 0.285h0.857v0.285c0 0.162 0.132 0.287 0.285 0.287h0.572a0.286 0.286 0 0 0 0.285-0.287v-1.713a0.286 0.286 0 0 0-0.285-0.287h-0.572z" fill="#b5b5b6"/>
  <path d="m30.597 28.544a0.287 0.287 0 0 0-0.285 0.287v0.285h-0.857a0.284 0.284 0 0 0-0.285 0.285v0.572c0 0.158 0.127 0.285 0.285 0.285h0.857v0.285c0 0.162 0.132 0.287 0.285 0.287h0.572a0.286 0.286 0 0 0 0.285-0.287v-1.713a0.286 0.286 0 0 0-0.285-0.287h-0.572z" fill="none" opacity=".564" stroke="#000" stroke-linecap="square" stroke-width=".5"/>
  <path d="m30.4 19.006a0.285 0.285 0 0 0-0.285 0.285v0.286h-0.857a0.285 0.285 0 0 0-0.285 0.286v0.57c0 0.159 0.127 0.287 0.285 0.287h0.857v0.285c0 0.161 0.132 0.285 0.285 0.285h0.572a0.285 0.285 0 0 0 0.285-0.285v-1.715a0.284 0.284 0 0 0-0.285-0.285z" fill="#b5b5b6"/>
  <path d="m30.4 19.006a0.285 0.285 0 0 0-0.285 0.285v0.286h-0.857a0.285 0.285 0 0 0-0.285 0.286v0.57c0 0.159 0.127 0.287 0.285 0.287h0.857v0.285c0 0.161 0.132 0.285 0.285 0.285h0.572a0.285 0.285 0 0 0 0.285-0.285v-1.715a0.284 0.284 0 0 0-0.285-0.285z" fill="none" opacity=".564" stroke="#000" stroke-linecap="square" stroke-width=".5"/>
  <path d="m30.597 15.577a0.286 0.286 0 0 0-0.285 0.286v0.285h-0.857a0.284 0.284 0 0 0-0.285 0.285v0.572c0 0.158 0.127 0.285 0.285 0.285h0.857v0.286c0 0.161 0.132 0.286 0.285 0.286h0.572a0.286 0.286 0 0 0 0.285-0.286v-1.714a0.285 0.285 0 0 0-0.285-0.286h-0.572z" fill="#b5b5b6"/>
  <path d="m30.597 15.577a0.286 0.286 0 0 0-0.285 0.286v0.285h-0.857a0.284 0.284 0 0 0-0.285 0.285v0.572c0 0.158 0.127 0.285 0.285 0.285h0.857v0.286c0 0.161 0.132 0.286 0.285 0.286h0.572a0.286 0.286 0 0 0 0.285-0.286v-1.714a0.285 0.285 0 0 0-0.285-0.286h-0.572z" fill="none" opacity=".564" stroke="#000" stroke-linecap="square" stroke-width=".5"/>
  <path d="m30.4 12.148a0.286 0.286 0 0 0-0.285 0.285v0.287h-0.857a0.284 0.284 0 0 0-0.285 0.285v0.571c0 0.159 0.127 0.286 0.285 0.286h0.857v0.285c0 0.16 0.132 0.285 0.285 0.285h0.572a0.286 0.286 0 0 0 0.285-0.285v-1.715a0.286 0.286 0 0 0-0.285-0.285h-0.572z" fill="#b5b5b6"/>
  <path d="m30.4 12.148a0.286 0.286 0 0 0-0.285 0.285v0.287h-0.857a0.284 0.284 0 0 0-0.285 0.285v0.571c0 0.159 0.127 0.286 0.285 0.286h0.857v0.285c0 0.16 0.132 0.285 0.285 0.285h0.572a0.286 0.286 0 0 0 0.285-0.285v-1.715a0.286 0.286 0 0 0-0.285-0.285h-0.572z" fill="none" opacity=".564" stroke="#000" stroke-linecap="square" stroke-width=".5"/>
  <path d="m30.792 22.161a0.286 0.286 0 0 0-0.285 0.285v0.285h-0.857a0.284 0.284 0 0 0-0.285 0.286v0.571c0 0.158 0.127 0.285 0.285 0.285h0.857v0.287c0 0.16 0.132 0.285 0.285 0.285h0.572a0.286 0.286 0 0 0 0.285-0.285v-1.715a0.286 0.286 0 0 0-0.285-0.285z" fill="#b5b5b6"/>
  <path d="m30.792 22.161a0.286 0.286 0 0 0-0.285 0.285v0.285h-0.857a0.284 0.284 0 0 0-0.285 0.286v0.571c0 0.158 0.127 0.285 0.285 0.285h0.857v0.287c0 0.16 0.132 0.285 0.285 0.285h0.572a0.286 0.286 0 0 0 0.285-0.285v-1.715a0.286 0.286 0 0 0-0.285-0.285z" fill="none" opacity=".564" stroke="#000" stroke-linecap="square" stroke-width=".5"/>
  <path d="m28.027 27.025a0.286 0.286 0 0 0-0.285 0.285v1.715c0 0.16 0.131 0.285 0.285 0.285h0.572a0.286 0.286 0 0 0 0.285-0.285v-0.287h0.857a0.284 0.284 0 0 0 0.285-0.285v-0.571a0.284 0.284 0 0 0-0.285-0.286h-0.857v-0.285a0.286 0.286 0 0 0-0.285-0.285h-0.572z" fill="#b5b5b6"/>
  <path d="m28.027 27.025a0.286 0.286 0 0 0-0.285 0.285v1.715c0 0.16 0.131 0.285 0.285 0.285h0.572a0.286 0.286 0 0 0 0.285-0.285v-0.287h0.857a0.284 0.284 0 0 0 0.285-0.285v-0.571a0.284 0.284 0 0 0-0.285-0.286h-0.857v-0.285a0.286 0.286 0 0 0-0.285-0.285h-0.572z" fill="none" opacity=".564" stroke="#000" stroke-linecap="square" stroke-width=".5"/>
  <path d="m30.597 25.365a0.286 0.286 0 0 0-0.285 0.285v0.285h-0.857a0.284 0.284 0 0 0-0.285 0.286v0.571c0 0.158 0.127 0.285 0.285 0.285h0.857v0.287c0 0.16 0.132 0.285 0.285 0.285h0.572a0.286 0.286 0 0 0 0.285-0.285v-1.715a0.286 0.286 0 0 0-0.285-0.285h-0.572z" fill="#b5b5b6"/>
  <path d="m30.597 25.365a0.286 0.286 0 0 0-0.285 0.285v0.285h-0.857a0.284 0.284 0 0 0-0.285 0.286v0.571c0 0.158 0.127 0.285 0.285 0.285h0.857v0.287c0 0.16 0.132 0.285 0.285 0.285h0.572a0.286 0.286 0 0 0 0.285-0.285v-1.715a0.286 0.286 0 0 0-0.285-0.285h-0.572z" fill="none" opacity=".564" stroke="#000" stroke-linecap="square" stroke-width=".5"/>
  <path d="m28.115 7.006a0.286 0.286 0 0 0-0.285 0.286v1.714c0 0.162 0.131 0.286 0.285 0.286h0.572a0.286 0.286 0 0 0 0.285-0.286v-0.285h0.857a0.284 0.284 0 0 0 0.285-0.285v-0.572a0.284 0.284 0 0 0-0.285-0.285h-0.857v-0.286a0.286 0.286 0 0 0-0.285-0.286h-0.572z" fill="#b5b5b6"/>
  <path d="m28.115 7.006a0.286 0.286 0 0 0-0.285 0.286v1.714c0 0.162 0.131 0.286 0.285 0.286h0.572a0.286 0.286 0 0 0 0.285-0.286v-0.285h0.857a0.284 0.284 0 0 0 0.285-0.285v-0.572a0.284 0.284 0 0 0-0.285-0.285h-0.857v-0.286a0.286 0.286 0 0 0-0.285-0.286h-0.572z" fill="none" opacity=".564" stroke="#000" stroke-linecap="square" stroke-width=".5"/>
  <path d="m32.044 12.9c0 0.525-0.373 0.952-0.833 0.952h-3.334c-0.46 0-0.833-0.427-0.833-0.952v-6.095c0-0.525 0.373-0.952 0.833-0.952h3.334c0.46 0 0.833 0.427 0.833 0.952z" fill="#b5b5b6"/>
  <path d="m31.211 14.353h-3.334c-0.735 0-1.333-0.651-1.333-1.452v-6.096c0-0.801 0.598-1.452 1.333-1.452h3.334c0.735 0 1.333 0.651 1.333 1.452v6.095c0 0.801-0.598 1.453-1.333 1.453zm-3.334-8c-0.181 0-0.333 0.207-0.333 0.452v6.095c0 0.245 0.152 0.452 0.333 0.452h3.334c0.181 0 0.333-0.207 0.333-0.452v-6.095c0-0.245-0.152-0.452-0.333-0.452z"/>
  <path d="m30.507 7.402a0.2 0.2 0 0 1-0.2 0.2h-1.6a0.2 0.2 0 0 1-0.2-0.2v-2.6c0-0.11 0.09-0.2 0.2-0.2h1.6c0.11 0 0.2 0.09 0.2 0.2z" fill="#727171"/>
  <path d="m30.007 6.753a0.1 0.1 0 0 1-0.1 0.1h-0.801a0.1 0.1 0 0 1-0.1-0.1v-1.301a0.1 0.1 0 0 1 0.1-0.1h0.801a0.1 0.1 0 0 1 0.1 0.1z" fill="#b5b5b6"/>
 </g>
</svg>
