<svg width="128" height="128" version="1.1" viewBox="0 0 128 128" xmlns="http://www.w3.org/2000/svg"><title>firefox-zh</title><defs><linearGradient id="b" x1="112.3" x2="132.05" y1="8.458" y2="30.304" gradientTransform="scale(.7689 1.3006)" gradientUnits="userSpaceOnUse"><stop stop-color="#F89B09" offset="0"/><stop stop-color="#FBDB00" offset="1"/></linearGradient><linearGradient id="c" x1="248.14" x2="248.14" y1="21.134" y2="27.686" gradientTransform="scale(.42268 2.3658)" gradientUnits="userSpaceOnUse"><stop stop-color="#F6901A" offset="0"/><stop stop-color="#FF5224" offset="1"/></linearGradient><linearGradient id="d" x1="109.58" x2="102.21" y1="72.672" y2="83.296" gradientTransform="scale(.91411 1.094)" gradientUnits="userSpaceOnUse"><stop stop-color="#F95828" offset="0"/><stop stop-color="#F02044" offset="1"/></linearGradient><linearGradient id="e" x1="47.492" x2="42.075" y1="172.84" y2="177.25" gradientTransform="scale(1.6717 .59818)" gradientUnits="userSpaceOnUse"><stop stop-color="#B21969" offset="0"/><stop stop-color="#8E123B" offset="1"/></linearGradient><linearGradient id="f" x1="71.299" x2="49.185" y1="15.023" y2="87.851" gradientUnits="userSpaceOnUse"><stop stop-color="#01A2FC" offset="0"/><stop stop-color="#441A7E" offset="1"/></linearGradient><linearGradient id="g" x1="18.025" x2="18.025" y1="10.423" y2="25.751" gradientTransform="scale(.81749 1.2233)" gradientUnits="userSpaceOnUse"><stop stop-color="#EF2545" offset="0"/><stop stop-color="#C01F49" offset="1"/></linearGradient><linearGradient id="h" x1="99.859" x2="109.21" y1="15.396" y2="57.457" gradientTransform="scale(.64825 1.5426)" gradientUnits="userSpaceOnUse"><stop stop-color="#191F78" stop-opacity="0" offset="0"/><stop stop-color="#20257B" offset="1"/></linearGradient><linearGradient id="i" x1="26.971" x2="54.482" y1="50.11" y2="39.497" gradientTransform="scale(.98255 1.0178)" gradientUnits="userSpaceOnUse"><stop stop-color="#282990" offset="0"/><stop stop-color="#272D98" stop-opacity="0" offset="1"/></linearGradient><linearGradient id="j" x1="85.86" x2="-15.142" y1=".381" y2="50.009" gradientTransform="scale(.97852 1.0219)" gradientUnits="userSpaceOnUse"><stop stop-color="#FEEA04" offset="0"/><stop stop-color="#FFE900" offset=".273"/><stop stop-color="#FF7916" offset=".461"/><stop stop-color="#FF282F" offset=".762"/><stop stop-color="#BF0573" offset="1"/></linearGradient><linearGradient id="k" x1="38.585" x2="30.773" y1="23.013" y2="32.912" gradientTransform="scale(1.1775 .84922)" gradientUnits="userSpaceOnUse"><stop stop-color="#F79C0F" offset="0"/><stop stop-color="#FF681C" offset="1"/></linearGradient><linearGradient id="l" x1="21.54" x2="49.591" y1="35.643" y2="35.643" gradientTransform="scale(.85131 1.1747)" gradientUnits="userSpaceOnUse"><stop stop-color="#FF372A" offset="0"/><stop stop-color="#FF8703" offset=".788"/><stop stop-color="#FCAA00" offset="1"/></linearGradient><linearGradient id="m" x1="40.246" x2="39.38" y1="97.903" y2="89.094" gradientTransform="scale(1.3027 .76763)" gradientUnits="userSpaceOnUse"><stop stop-color="#211B61" offset="0"/><stop stop-color="#222982" stop-opacity="0" offset="1"/></linearGradient><linearGradient id="n" x1="19.075" x2="45.079" y1="72.503" y2="91.31" gradientTransform="scale(1.3027 .76763)" gradientUnits="userSpaceOnUse"><stop stop-color="#D93A20" offset="0"/><stop stop-color="#FF4D1E" offset=".274"/><stop stop-color="#FF8703" offset=".535"/><stop stop-color="#FFBC01" offset="1"/></linearGradient><linearGradient id="o" x1="23.72" x2="36.675" y1="63.567" y2="87.301" gradientTransform="scale(1.1282 .88636)" gradientUnits="userSpaceOnUse"><stop stop-color="#E3311F" offset="0"/><stop stop-color="#F14719" offset=".5"/><stop stop-color="#EA2C16" offset="1"/></linearGradient><linearGradient id="p" x1="113.31" x2="86.543" y1="32.452" y2="70.75" gradientTransform="scale(.68899 1.4514)" gradientUnits="userSpaceOnUse"><stop stop-color="#FF9302" offset="0"/><stop stop-color="#FFCA00" offset=".317"/><stop stop-color="#FF7B16" offset=".765"/><stop stop-color="#FF5F1F" stop-opacity="0" offset="1"/></linearGradient><linearGradient id="q" x1="110.63" x2="144.62" y1="3.773" y2="54.491" gradientTransform="scale(.65756 1.5208)" gradientUnits="userSpaceOnUse"><stop stop-color="#FFF150" offset="0"/><stop stop-color="#FFEE4C" offset=".208"/><stop stop-color="#FFCD28" offset=".672"/><stop stop-color="#FF9601" offset="1"/></linearGradient><linearGradient id="r" x1="114.07" x2="133.28" y1="5.362" y2="61.897" gradientTransform="scale(.60793 1.6449)" gradientUnits="userSpaceOnUse"><stop stop-color="#FFEB02" offset="0"/><stop stop-color="#FFAC00" offset=".718"/><stop stop-color="#FF7417" offset="1"/></linearGradient><linearGradient id="s" x1="91.897" x2="80.486" y1="12.511" y2="1.583" gradientTransform="scale(.8818 1.134)" gradientUnits="userSpaceOnUse"><stop stop-color="#FFE900" offset="0"/><stop stop-color="#FFE309" offset="1"/></linearGradient><filter id="a" color-interpolation-filters="sRGB"><feFlood flood-color="#908B78" flood-opacity=".498" result="flood"/><feComposite in="flood" in2="SourceGraphic" operator="in" result="composite1"/><feGaussianBlur in="composite1" result="blur" stdDeviation="1.5"/><feOffset dx="0" dy="1.5" result="offset"/><feComposite in="SourceGraphic" in2="offset" result="composite2"/></filter></defs><g transform="translate(11 8)" fill-rule="evenodd" filter="url(#a)"><path d="M84.25 22c-1.167-4.167-.5-7.833 2-11 1.544 3.48 2.793 5.98 3.75 7.5 5.524 8.781 9.927 15.355 11.25 20.25 1.667 6.167-4 .583-17-16.75z" fill="url(#b)"/><path d="M103.75 53l2.5-3c.167 9-.75 14.167-2.75 15.5" fill="url(#c)"/><path d="M100 79.5c-5.833 7.167-9 11-9.5 11.5-.75.75 8-2 9-6.25.667-2.833.833-4.583.5-5.25z" fill="url(#d)"/><path d="M82.5 100.75L67.75 106c6.667.167 10.667-.417 12-1.75s2.25-2.5 2.75-3.5z" fill="url(#e)"/><circle cx="54" cy="57" r="47" fill="url(#f)"/><path d="M21 24c-4.5-4-6.25-7.75-5.25-11.25-5.167 5.333-7.583 11.583-7.25 18.75" fill="url(#g)"/><path d="M62.5 23.75c-3.167 7.167.833 14.833 12 23 6.5 13 3.5 24.417-9 34.25s-10.947 10.167 4.66 1c13.227-15.5 17.257-26.75 12.09-33.75" fill="url(#h)"/><path d="M52.75 37c1.667 1.5.667 3.75-3 6.75-4.167 2.333-6.583 3.583-7.25 3.75-1 .25-1 6.5-1.75 7s-3.75 2-5.75 4c-1.333 1.333-.167 3.5 3.5 6.5l-12-3.75 8.25-10.5 8.5-6.75z" fill="url(#i)"/><path d="M43 34c-1.5-.75-3.5-2-3.75-4.75S28.25 19.5 16 25-6 55.5 4.5 79.25s33 31.75 45 32.25 22.75.25 30.5-7.5c-2.667 1.333-6.417 2-11.25 2 4.76-1.62 8.16-2.855 10.203-3.706C92.141 96.798 99.074 90.534 99.75 83.5c-1.114 1.86-2.114 3.194-3 4-.947.861-2.697 1.944-5.25 3.25 6-6.833 10.167-13.083 12.5-18.75s3.083-13 2.25-22c-.174 4.192-.424 7.192-.75 9s-.993 3.891-2 6.25c.909-6.908 1.242-11.658 1-14.25s-1.409-6.758-3.5-12.5c-5.833-10.667-11.667-18-17.5-22C75 8 70.833 2.75 71 .75a.858.858 0 0 0-.007-.25c-.362-1.574-8.484 13.984-8.243 20.25.25 6.5.5 16.5 12.75 24.5 5 8.5 5.417 17.167 1.25 26-6.25 13.25-29 19.75-41 3.75-11.058-14.744.43-24.249 5-27.5.39-.277.475-1.073.75-1.25s6.088-2.59 8.75-4.75c1.775-1.44 2.873-3.95 2.75-4.75-.309-2-8.5-2-10-2.75z" fill="url(#j)"/><path d="M32.75 24.75c5.167-4.5 10-6.083 14.5-4.75-5.5 4.667-8.25 8-8.25 10" fill="url(#k)"/><path d="M32.75 24.5c5.167-4.167 10-5.667 14.5-4.5-5.667 4.167-8.917 9.333-9.75 15.5-.333 4.5.75 8.5 3.25 12-.333 3.833-.75 5.917-1.25 6.25-1.333.167-3.5-.25-6.5-1.25-4.5-1.5-11.75 5.25-10.75 10.25.507 2.534-3.224-4.37-6.084-12.286-2.783-7.703 5.476-21.453 9.465-23.124 1.49-.624 3.862-1.57 7.119-2.84z" fill="url(#l)"/><path d="M44.5 67.5c1 0 1.435-.156 2-.25 3.794-1.167 6.544-1.75 8.25-1.75 2.558 0 8.5 2.75 7.75 6.25-.167.667-1 1.25-2 1-1-.333-1.667-.417-2-.25l-.53.27c-.335.214-1.23.664-2.686 1.35C52.8 75.35 49.65 76.85 48.75 77a7.962 7.962 0 0 0-.146.026c-1.664.483-3.449.724-5.354.724-.454 0-.896-.01-1.327-.03a18.314 18.314 0 0 1-1.54-.124c-1.897-.218-3.525-.667-4.883-1.346-4.092-1.518-6.758-2.684-8-3.5-4.29-2.818-4.975-5.15-5-5.25s-2.5-8 1.5-11.25 7.148-2.9 11.5-1.75c.77.203 1.055.892.01 1.176-2.627.713-3.464 2.321-2.51 4.824 1.315 3.453 5.002 6.047 11.25 7h.25z" fill="url(#m)"/><path d="M44.5 66c1 0 1.435-.156 2-.25 3.794-1.167 6.544-1.75 8.25-1.75 2.558 0 8.5 2.75 7.75 6.25-.167.667-1 1.25-2 1-1-.333-1.667-.417-2-.25l-.53.27c-.335.214-1.23.664-2.686 1.35-2.484 1.23-5.634 2.73-6.534 2.88a7.962 7.962 0 0 0-.146.026c-1.664.483-3.449.724-5.354.724-.454 0-.896-.01-1.327-.03a18.314 18.314 0 0 1-1.54-.124c-1.897-.218-3.525-.667-4.883-1.346-4.092-1.518-6.758-2.684-8-3.5-4.29-2.818-4.975-5.15-5-5.25S20 58 24 54.75s7.148-2.9 11.5-1.75c.77.203 2.103.453 4 .75-5.667 0-7.833 1.75-6.5 5.25 1.315 3.453 5.002 6.047 11.25 7h.25z" fill="url(#n)"/><path transform="rotate(16 35.273 66.31)" d="M18.494 62.545c1.691-11.003 17.38-9.473 17.38-9.473-.461.461-12.665 9.019.745 18.772 4.874 3.544 20.812 8.336 13.874 7.725-6.937-.612-34.537-.66-32-17.023z" fill="url(#o)" fill-rule="nonzero"/><path d="M79.25 101.75c.56-.344 5.08-7.023 6.25-7.75 4.333-13.667 5.417-24.417 3.25-32.25S81.833 48.833 75.5 45.5c12 15.167 9.917 31.75-7.25 50.75a227.78 227.78 0 0 0-1.866 2.09c-3.427 2.419-4.472 3.805-3.134 4.16 1.521.403 6.855.153 16-.75z" fill="url(#p)"/><path d="M83.5 16.5c5.833 4 11.667 11.333 17.5 22 2.367 5.75 3.367 9.75 3.5 12.5s.25 6.5-1 14c1.007-2.359 1.557-4.192 1.883-6s.693-4.808.867-9c.833 9 .083 16.333-2.25 22s-6.5 11.917-12.5 18.75c-.787.783-1.525 1.467-2.367 2.25 6-39.25-1.75-38-15-52.5-8.833-9.667-9.96-23-3.383-40 .25-.25.25 0 .25.25-.058 2.055 4.106 7.356 12.5 15.75z" fill="url(#q)"/><path d="M70.75.5c-12.667 18.667-11.083 33.667 4.75 45 23.75 17 7.61 51.75 4 55.5s19.75-6 20.25-17.5c-2.167 3.167-4.917 5.583-8.25 7.25 6-23.833 2.833-39.583-9.5-47.25s-16.083-22-11.25-43z" fill="url(#r)"/><path d="M82.924 15.925c.326.4.53.531.282.4C76.579 12.8 70.578 5.237 70.994.5c.468 2.346 4.435 7.485 11.93 15.425z" fill="url(#s)"/></g></svg>