<svg width="128px" height="128px" version="1.1" viewBox="0 0 128 128" xmlns="http://www.w3.org/2000/svg">
<title>foxitreader</title>
<desc>Created with Sketch.</desc>
<defs>
<linearGradient id="linearGradient-1" x1="43.532" x2="46.949" y1="12.802" y2="101.05" gradientTransform="matrix(.92983 .03247 -.03751 1.0742 2.0857 -2.1187)" gradientUnits="userSpaceOnUse">
<stop stop-color="#FF9E00" offset="0"/>
<stop stop-color="#FF5C11" offset="1"/>
</linearGradient>
<linearGradient id="linearGradient-2" x1="215.62" x2="215.62" y1=".64968" y2="10.805" gradientTransform="matrix(.10222 .0035696 -.3412 9.7708 2.0016 -.73497)" gradientUnits="userSpaceOnUse">
<stop stop-color="#F07900" offset="0"/>
<stop stop-color="#F30101" offset="1"/>
</linearGradient>
<filter id="filter1061" color-interpolation-filters="sRGB">
<feFlood flood-color="rgb(144,139,120)" flood-opacity=".49804" result="flood"/>
<feComposite in="flood" in2="SourceGraphic" operator="in" result="composite1"/>
<feGaussianBlur in="composite1" result="blur" stdDeviation="2.5"/>
<feOffset dx="0" dy="2" result="offset"/>
<feComposite in="SourceGraphic" in2="offset" result="composite2"/>
</filter>
</defs>
<g filter="url(#filter1061)">
<g fill-rule="evenodd">
<path id="Mask" d="m23.468 6.714 1.4494 0.58094 1.3498-0.21802 82.548 2.8826c3.8029 0.1328 6.7782 3.3234 6.6454 7.1263l-3.3942 97.196c-0.1328 3.8029-3.3234 6.7781-7.1263 6.6453l-87.132-3.0427c-2.3403-0.0817-4.1712-2.0451-4.0894-4.3854l3.5262-100.98c0.11598-3.3211 2.9022-5.9192 6.2232-5.8032z" fill="#ff5e00"/>
<path d="m24.78 6.8153 1.3827 0.56469 1.2882-0.21322 78.452 2.7396c3.8029 0.1328 6.7782 3.3234 6.6454 7.1263l-3.2925 94.285c-0.1328 3.8029-3.3234 6.7782-7.1263 6.6454l-84.222-2.9411c-1.4627-0.0511-2.607-1.2782-2.5559-2.7409l3.4895-99.927c0.11066-3.169 2.7693-5.6482 5.9383-5.5375z" fill="#fff"/>
<path d="m23.438 5.9969 1.4214 0.57996 1.7043-0.20565 76.062 0.38895c3.8052 0.019463 6.8741 3.1199 6.8547 6.9251-5.5e-4 0.07288-2e-3 0.14576-5e-3 0.2186l-3.375 91.546c-0.1398 3.8026-3.3365 6.7717-7.1392 6.6315-5e-3 -1.9e-4 -0.01029-3.9e-4 -0.01549-5.9e-4l-82.228-3.2167c-0.39573-0.0158-0.78605 0.0961-1.1138 0.31842l-1.7261 1.1708 3.3104-98.521c0.11204-3.3345 2.906-5.9469 6.2405-5.8349 0.0027 9.07e-5 0.0053 1.797e-4 8e-3 2.739e-4z" fill="url(#linearGradient-1)"/>
<path id="Combined-Shape" d="m109.48 14.07 6e-3 -0.16594c3e-3 -0.07284 4e-3 -0.14572 5e-3 -0.2186 0.0195-3.8052-3.0494-6.9057-6.8547-6.9251l-76.062-0.38895-1.7043 0.20565-1.4214-0.57996c-0.0027-9.42e-5 -0.0053-1.832e-4 -8e-3 -2.74e-4 -3.3345-0.11204-6.1285 2.5003-6.2405 5.8349l-3.3104 98.521 0.05538-0.0376 3.2735-97.424c0.11204-3.3345 2.906-5.9469 6.2405-5.8349 0.0027 9.08e-5 0.0053 1.797e-4 8e-3 2.739e-4l1.4214 0.57996 1.7043-0.20565 76.062 0.38895c3.5774 0.018292 6.504 2.7598 6.8254 6.2498z" fill="#ffbd67"/>
<path d="m108.41 9.9527c0.68693 1.078 1.0822 2.3595 1.0752 3.7328-5.5e-4 0.07289-2e-3 0.14576-5e-3 0.2186l-3.375 91.546c-0.13979 3.8026-3.3365 6.7717-7.1392 6.6315-5e-3 -1.8e-4 -0.01029-3.8e-4 -0.01549-5.9e-4l-82.228-3.2167c-0.39573-0.0158-0.78605 0.0961-1.1138 0.31843l-1.7261 1.1708 0.04894-1.4558 1.1288-0.76565c0.32776-0.22232 0.71807-0.33391 1.1138-0.31843l82.228 3.2167c5e-3 2e-4 0.01029 4e-4 0.01549 6e-4 3.8026 0.13979 6.999-2.8289 7.1392-6.6315l3.375-91.546c3e-3 -0.07284 4e-3 -0.14572 5e-3 -0.2186 5e-3 -0.95038-0.18293-1.8568-0.52672-2.6822z" fill="#e51c1a"/>
</g>
<path id="Line" d="m23.802 6.9123-3.499 100.2" fill="none" opacity=".5" stroke="url(#linearGradient-2)" stroke-linecap="square" stroke-width="1.06"/>
<path d="m71.884 81.451c-1.3873 1.2937-24.456 8.5408-19.639-14.107 4.5832-15.946 16.554-12.843 19.235-12.749 2.681 0.09362 9.2429 4.3491 9.2429 4.3491s-1.0128-9.4302-10.349-11.098c0 0 9.477-2.3533 19.685 12.767 0 0-0.68514-18.813-18.064-20.762-21.401-2.0895-31.393 15.01-31.393 15.01s-16.976 24.908 8.1195 36.521c22.554 7.4982 31.112-6.9662 31.112-6.9662s7.0301-9.1493 0.74898-21.448c0 0-0.14043 4.0214-2.8682 5.2683 0 0 0.14043-4.0214-3.8342-5.5024 0 0 0.87238 13.452-13.826 11.597 0 0 3.7874 6.8428 11.831 7.1237z" fill="#fff"/>
<path d="m60.804 74.411c-0.51551-0.68434-0.76921-1.1427-0.76921-1.1427 14.698 1.8554 13.826-11.597 13.826-11.597 3.9746 1.4809 3.8342 5.5024 3.8342 5.5024 2.7278-1.2469 2.8682-5.2683 2.8682-5.2683 1.9766 3.8702 2.635 7.4287 2.609 10.488-0.12183-2.8108-0.83812-5.997-2.5906-9.4284 0 0-0.14043 4.0214-2.8682 5.2683 0 0 0.14043-4.0214-3.8342-5.5024 0 0 0.84239 12.989-13.076 11.679zm-25.814-2.2503c-0.39743-9.5712 5.5933-18.361 5.5933-18.361s9.9919-17.099 31.393-15.01c17.38 1.949 18.064 20.762 18.064 20.762-0.02874-0.04257-0.05748-0.085-0.0862-0.12729-0.49297-4.1611-3.232-17.924-17.96-19.576-21.401-2.0895-31.393 15.01-31.393 15.01s-5.5552 8.151-5.6118 17.302zm38.77-24.287c6.1905 3.0016 6.9434 10.011 6.9434 10.011s-0.07345-0.04763-0.208-0.13294c-0.62577-2.591-2.8465-8.6055-10.122-9.9055 0 0 1.2726-0.31601 3.3875 0.02759zm-22.176 24.903c-0.1665 15.954 19.037 9.851 20.299 8.6742-0.67257-0.02349-1.3154-0.09286-1.9287-0.20028-4.9997 1.6802-17.801 3.6854-18.369-8.4739z" fill="#ea7221"/>
<text id="PDF-READER" transform="rotate(1)" x="0.34741697" y="-1.1279601" fill="#ffffff" fill-rule="evenodd" font-family="SourceHanSansSC-Medium, 'Source Han Sans SC'" font-size="7.95px" font-weight="400"><tspan x="41.076771" y="22.34091">PDF READER</tspan></text>
</g>
</svg>
