<svg width="128" height="128" version="1.1" viewBox="0 0 128 128" xmlns="http://www.w3.org/2000/svg" xmlns:xlink="http://www.w3.org/1999/xlink"><title>gimp</title><defs><radialGradient id="b" cx="61.488" cy="47.271" r="43.369" gradientTransform="matrix(1.1026 0 0 .90691 1 10)" gradientUnits="userSpaceOnUse"><stop stop-color="#DEE0F2" offset="0"/><stop stop-color="#3B3A4C" offset="1"/></radialGradient><linearGradient id="c" x1="20.397" x2="18.084" y1="33.586" y2="53.516" gradientTransform="matrix(.87422 0 0 1.1439 -29.609 11.825)" gradientUnits="userSpaceOnUse"><stop stop-color="#757681" offset="0"/><stop stop-color="#41414A" stop-opacity="0" offset="1"/></linearGradient><linearGradient id="d" x1="15.055" x2="16.761" y1="38.418" y2="49.366" gradientTransform="matrix(1.0016 0 0 .99845 1 10)" gradientUnits="userSpaceOnUse"><stop stop-color="#fff" offset="0"/><stop stop-color="#fff" stop-opacity=".318" offset="1"/></linearGradient><linearGradient id="e" x1="199.97" x2="203.91" y1="13.903" y2="18.492" gradientTransform="matrix(.52474 0 0 1.9057 1 10)" gradientUnits="userSpaceOnUse"><stop stop-color="#4C495E" offset="0"/><stop stop-color="#252330" offset="1"/></linearGradient><linearGradient id="f" x1="208.28" x2="193.84" y1="2.279" y2="17.05" gradientTransform="matrix(.53863 0 0 1.8566 1 10)" gradientUnits="userSpaceOnUse"><stop stop-color="#C1C2E1" stop-opacity=".105" offset="0"/><stop stop-color="#676779" offset="1"/></linearGradient><path id="g" d="M122.21 109.31c-11.791-5.132-16.246-11.382-13.366-18.748 2.797-4.873 10.601-.33 10.828 5.726.34 3.974 1.186 8.315 2.537 13.022z"/><linearGradient id="h" x1="142.52" x2="151.55" y1="70.995" y2="83.119" gradientTransform="scale(.77902 1.2837)" gradientUnits="userSpaceOnUse"><stop stop-color="#fff" stop-opacity=".104" offset="0"/><stop stop-color="#fff" stop-opacity=".069" offset="1"/></linearGradient><path id="i" d="M114.53 105.09c2.07 1.48 4.631 2.883 7.685 4.213-1.234-4.3-2.047-8.295-2.438-11.982-2.773-4.355-5.017-7.278-6.732-8.768-1.28-.192-2.514.1-3.456 1.03.126.24.274.498.444.775 1.767 7.715 3.266 12.626 4.497 14.732z"/><linearGradient id="j" x1="149.81" x2="156.99" y1="66.743" y2="77.017" gradientTransform="scale(.74534 1.3417)" gradientUnits="userSpaceOnUse"><stop stop-color="#fff" stop-opacity=".2" offset="0"/><stop stop-color="#fff" stop-opacity="0" offset="1"/></linearGradient><path id="k" d="M109.88 89.323c.847-.68 1.886-.913 2.968-.793 4.53 9.083 6.14 13.99 4.832 14.722-1.36.761-3.96-3.882-7.8-13.929z"/><linearGradient id="l" x1="173.45" x2="179.5" y1="57.975" y2="66.624" gradientTransform="scale(.64759 1.5442)" gradientUnits="userSpaceOnUse"><stop stop-color="#fff" stop-opacity=".275" offset="0"/><stop stop-color="#fff" stop-opacity="0" offset="1"/></linearGradient><path id="m" d="M111.18 88.653c.276-.078.561-.126.853-.144 3.656 8.683 5.314 13.438 4.973 14.266-.356.866-2.35-3.622-5.983-13.464l.157-.658z"/><linearGradient id="n" x1="255.53" x2="239.31" y1="26.458" y2="26.458" gradientTransform="matrix(.23314 -.2984 2.0809 1.6258 -24.432 113.8)" gradientUnits="userSpaceOnUse"><stop stop-color="#FF4900" offset="0"/><stop stop-color="#FFD052" offset=".492"/><stop stop-color="#FF3800" offset="1"/></linearGradient><linearGradient id="o" x1="98.452" x2="93.581" y1="83.217" y2="88.466" gradientTransform="matrix(1.0649 0 0 .9391 1 10)" gradientUnits="userSpaceOnUse"><stop stop-color="#fff" stop-opacity="0" offset="0"/><stop stop-color="#fff" offset="1"/></linearGradient><filter id="a" color-interpolation-filters="sRGB"><feFlood flood-color="#908B78" flood-opacity=".498" result="flood"/><feComposite in="flood" in2="SourceGraphic" operator="in" result="composite1"/><feGaussianBlur in="composite1" result="blur" stdDeviation="1.5"/><feOffset dx="0" dy="1.5" result="offset"/><feComposite in="SourceGraphic" in2="offset" result="composite2"/></filter></defs><g filter="url(#a)"><g fill-rule="evenodd"><path d="M34.092 23.762c7.31 14.315 20.887 19.781 40.729 16.397 29.764-5.075 35.519-32.222 37.988-27.329 2.469 4.893 7.05 59.733-18.798 74.959C76.779 97.94 55.24 94.556 29.393 77.638c-9.66-5.726-14.099-10.281-13.315-13.664 10.443-4.164 16.057-7.418 16.84-9.76.783-2.343 1.175-12.493 1.175-30.452z" fill="url(#b)"/><path d="M57.59 77.887c8.805.703 16.155-.975 22.05-5.035.284-.296-.832-1.173-3.348-2.63 7.514 2.54 5.966 5.404-4.643 8.591-4.018 1.012-8.705.703-14.059-.926z" fill="#252330"/><ellipse transform="rotate(-29)" cx="-11.941" cy="63.066" rx="12.532" ry="16.397" fill="#252330"/><ellipse transform="rotate(-29)" cx="-11.777" cy="60.09" rx="7.525" ry="9.846" fill="url(#c)"/><ellipse cx="70.514" cy="48.749" rx="15.273" ry="15.226" fill="#fff"/><ellipse cx="74.038" cy="52.262" rx="6.266" ry="6.247" fill="#424b4e"/><ellipse cx="74.43" cy="52.653" rx="3.525" ry="3.514" fill="#171717"/><ellipse cx="42.708" cy="49.92" rx="10.182" ry="10.151" fill="#fff"/><ellipse cx="43.883" cy="52.653" rx="5.091" ry="5.075" fill="#424b4e"/><ellipse cx="44.201" cy="52.97" rx="2.864" ry="2.855" fill="#171717"/><ellipse cx="16.078" cy="53.824" rx="5.483" ry="5.466" fill="url(#d)"/><path d="M103.47 41.909c5.512-18.57 8.514-28.403 9.004-29.499.737-1.644-6.641 32.218-7.575 32.763-.623.363-1.099-.725-1.429-3.264z" fill="url(#e)"/></g><path d="M103.68 43.684c-.9-2.058 4.813-13.302 8.933-31.873.153-.688.378-1.135.573-1.713-7.024 20.836-10.756 30.727-9.506 33.587z" fill="url(#f)"/><g fill-rule="evenodd"><use transform="translate(1 10)" width="100%" height="100%" fill="#252330" xlink:href="#g"/><use transform="translate(1 10)" width="100%" height="100%" fill="url(#h)" xlink:href="#i"/><use transform="translate(1 10)" width="100%" height="100%" fill="url(#j)" xlink:href="#k"/><use transform="translate(1 10)" width="100%" height="100%" fill="url(#l)" xlink:href="#m"/><path d="M76.001 77.25c-.167 0 .25-.5 1.25-1.5 1.5-1.5 3.016-2.75 16.662 7.75 9.097 7 15.543 12.167 19.339 15.5l-3.75 3.75c-8.967-6.736-15.634-11.819-20-15.25a520.373 520.373 0 0 0-13.5-10.25z" fill="url(#n)"/><path d="M99.033 87.465c6.44 5.02 11.178 8.866 14.217 11.535l-3.75 3.75a1857.343 1857.343 0 0 1-14.257-10.8l3.79-4.485z" fill="#d8d8d8"/><path d="M99.909 88.149c5.994 4.687 10.441 8.304 13.341 10.851l-2.224 2.224c-8.087-5.965-12.252-9.323-12.497-10.072-.397-1.212.39-2.214 1.38-3.002z" fill="url(#o)"/></g></g></svg>