<svg width="128" height="128" version="1.1" viewBox="0 0 128 128" xmlns="http://www.w3.org/2000/svg"><title>chrome-128px</title><defs><linearGradient id="b" x1="55.579" x2="55.579" y1="9.631" y2="91.398" gradientTransform="scale(1.1862 .843)" gradientUnits="userSpaceOnUse"><stop stop-color="#F7503B" offset="0"/><stop stop-color="#F34735" offset=".217"/><stop stop-color="#E72F25" offset=".572"/><stop stop-color="#D5090D" offset="1"/></linearGradient><linearGradient id="c" x1="49.713" x2="49.713" y1="31.356" y2="114.03" gradientTransform="scale(.95035 1.0522)" gradientUnits="userSpaceOnUse"><stop stop-color="#35C230" offset="0"/><stop stop-color="#34BE30" offset=".348"/><stop stop-color="#31B331" offset=".681"/><stop stop-color="#2CA032" offset="1"/></linearGradient><linearGradient id="d" x1="63.999" x2="63.999" y1="45.618" y2="84.001" gradientUnits="userSpaceOnUse"><stop stop-color="#31B2FF" offset="0"/><stop stop-color="#1E79FF" offset="1"/></linearGradient><linearGradient id="e" x1="64" x2="64" y1="46" y2="82" gradientUnits="userSpaceOnUse"><stop stop-color="#47BAFF" offset="0"/><stop stop-color="#3D8BFF" offset="1"/></linearGradient><linearGradient id="f" x1="64" x2="64" y1="8" y2="120" gradientUnits="userSpaceOnUse"><stop stop-color="#fff" offset="0"/><stop stop-color="#515151" offset="1"/></linearGradient><filter id="a" color-interpolation-filters="sRGB"><feFlood flood-color="#000" flood-opacity=".196" result="flood"/><feComposite in="flood" in2="SourceGraphic" operator="in" result="composite1"/><feGaussianBlur in="composite1" result="blur" stdDeviation="2"/><feOffset dx="0" dy="2" result="offset"/><feComposite in="SourceGraphic" in2="offset" result="composite2"/></filter></defs><g filter="url(#a)"><g fill-rule="evenodd"><path d="M114.43 39.341C105.267 20.845 86.174 8.12 64.099 8.12c-19.331 0-36.565 10.037-46.661 24.875l25.781 44.053z" fill="url(#b)"/><path d="M60.344 119.99c20.629 1.427 40.845-8.843 51.976-27.864 9.744-16.653 9.859-36.603 2.104-52.781l-50.683-.107z" fill="#ffcf00"/><path d="M43.216 77.048L17.435 32.995a55.62 55.62 0 0 0-9.472 31.128c0 29.672 23.133 53.941 52.384 55.864l26.184-44.611z" fill="url(#c)"/><path d="M64 92c-14.336 0-26-11.666-26-26.003S49.664 40 64 40c14.334 0 26 11.661 26 25.997S78.334 92 64 92z" opacity=".099"/><path d="M64 90c-14.336 0-26-11.666-26-26.003S49.664 38 64 38c14.334 0 26 11.661 26 25.997S78.334 90 64 90z" fill="#f8f8f8"/><path d="M38.019 64.997a26.331 26.331 0 0 1-.019-1C38 49.661 49.664 38 64 38c14.334 0 26 11.661 26 25.997 0 .335-.006.668-.019 1C89.454 51.122 77.999 40 64 40c-14.002 0-25.454 11.123-25.981 24.997z" fill="#fff"/><circle cx="64" cy="64" r="20" fill="url(#d)"/><circle cx="64" cy="64" r="18" fill="url(#e)"/></g><circle cx="64" cy="64" r="55" fill="none" opacity=".196" stroke="url(#f)" stroke-width="2"/></g></svg>