<svg width="128" height="128" version="1.1" viewBox="0 0 128 128" xmlns="http://www.w3.org/2000/svg" xmlns:xlink="http://www.w3.org/1999/xlink"><title>gparted</title><defs><linearGradient id="a" x1="50%" x2="50%" y1="1.833%" y2="50%"><stop stop-color="#989898" offset="0"/><stop stop-color="#D5D5D5" offset="1"/></linearGradient><linearGradient id="d" x1="35" x2="35" y1="4.5" y2="42.268" gradientTransform="scale(.99999 1)" gradientUnits="userSpaceOnUse"><stop stop-color="#3E3E3E" offset="0"/><stop stop-color="#3E3E3F" offset=".914"/><stop stop-color="#fff" stop-opacity="0" offset="1"/></linearGradient><linearGradient id="e" x1="35" x2="35" y1=".5" y2="36.457" gradientTransform="scale(.99999 1)" gradientUnits="userSpaceOnUse"><stop stop-color="#D5D5D5" offset="0"/><stop stop-color="#D6D6D7" offset=".896"/><stop stop-color="#fff" stop-opacity="0" offset="1"/></linearGradient><linearGradient id="h" x1="11" x2="11" y2="22" gradientUnits="userSpaceOnUse"><stop stop-color="#020300" offset="0"/><stop stop-color="#000200" offset="1"/></linearGradient><path id="g" d="M11 22C4.925 22 0 17.075 0 11 0 4.926 4.925 0 11 0s11 4.925 11 11-4.925 11-11 11z"/><path id="i" d="M5.1 20.286a11.05 11.05 0 0 1-3.948-4.38l19.753-9.697a11.046 11.046 0 0 0-3.34-4.036L5.1 20.286z"/><linearGradient id="j" x1="11" x2="11" y1="13" y2="9" gradientUnits="userSpaceOnUse"><stop stop-color="#E2E096" offset="0"/><stop stop-color="#F9F8D2" offset="1"/></linearGradient><linearGradient id="c" x1="4" x2="4" y1="2.073" y2="4" gradientUnits="userSpaceOnUse" xlink:href="#a"/><linearGradient id="f" x1="2" x2="2" y1=".073" y2="2" gradientUnits="userSpaceOnUse" xlink:href="#a"/><filter id="b" color-interpolation-filters="sRGB"><feFlood flood-color="#000" flood-opacity=".196" result="flood"/><feComposite in="flood" in2="SourceGraphic" operator="in" result="composite1"/><feGaussianBlur in="composite1" result="blur" stdDeviation="2"/><feOffset dx="0" dy="2" result="offset"/><feComposite in="SourceGraphic" in2="offset" result="composite2"/></filter></defs><g fill="none" fill-rule="evenodd" filter="url(#b)"><g fill-rule="nonzero"><path d="M109 109.04a9.416 9.416 0 0 1-9.447 9.456H28.447A9.416 9.416 0 0 1 19 109.04V20.952a9.417 9.417 0 0 1 9.447-9.456h71.105A9.417 9.417 0 0 1 109 20.952z" fill="#8d8d8d"/><path d="M109 107.044a9.418 9.418 0 0 1-9.447 9.456H28.447A9.418 9.418 0 0 1 19 107.044V18.956A9.418 9.418 0 0 1 28.447 9.5h71.105A9.418 9.418 0 0 1 109 18.956z" fill="#d0d1d6"/><path d="M109 106.633c0 5.24-4.243 9.367-9.447 9.367H28.447c-5.204 0-9.447-4.128-9.447-9.367V19.368c0-5.24 4.243-9.367 9.447-9.367h71.105c5.205 0 9.448 4.128 9.448 9.367z" fill="#cacbcf"/><path d="M34 19.502a4 4 0 1 1-8-.003 4 4 0 0 1 8 .003z" fill="#85858a"/><path d="M32 20.5a2 2 0 1 0-4 0 2 2 0 0 0 4 0z" fill="#68686b"/><path transform="matrix(1 0 0 -1 26 23.5)" d="M6 4a2 2 0 1 1-4 0 2 2 0 0 1 4 0z" fill="url(#c)"/><path d="M31.985 19.75a2.001 2.001 0 1 0-3.97 0 2 2 0 0 1 3.97 0z" fill="#eaeaea"/><path d="M33.969 20.002A4.002 4.002 0 0 0 30 15.5a4.002 4.002 0 0 0-3.97 4.5c.247-1.973 1.931-3.501 3.97-3.501s3.723 1.528 3.969 3.502z" fill="#727272"/><path d="M26.031 20.002a4 4 0 1 0 7.938 0 4 4 0 0 1-7.938 0z" fill="#d8d8d8"/><path d="M102 19.502a4 4 0 1 1-8-.003 4 4 0 0 1 8 .003z" fill="#85858a"/><path d="M100 20.5a2 2 0 1 0-4 0 2 2 0 0 0 4 0z" fill="#68686b"/><path transform="matrix(1 0 0 -1 94 23.5)" d="M6 4a2 2 0 1 1-4 0 2 2 0 0 1 4 0z" fill="url(#c)"/><path d="M99.985 19.75a2.001 2.001 0 1 0-3.97 0 2 2 0 0 1 3.97 0z" fill="#eaeaea"/><path d="M101.969 20.002A4.002 4.002 0 0 0 98 15.5a4.002 4.002 0 0 0-3.97 4.5c.247-1.973 1.931-3.501 3.97-3.501s3.723 1.528 3.969 3.502z" fill="#727272"/><path d="M94.031 20.002a4 4 0 1 0 7.938 0 4 4 0 0 1-7.938 0z" fill="#d8d8d8"/><path d="M27.5 79H19v28c0 5.301 4.29 9.5 9.5 9.5h36V98c-15.336-.248-28.904-7.65-37-19z" fill="#949496"/><g><path d="M34 107.001a4 4 0 1 1-8-.002 4 4 0 0 1 8 .002z" fill="#747476"/><path d="M32 108a2 2 0 1 0-4 0 2 2 0 0 0 4 0z" fill="#505050"/><path transform="matrix(1 0 0 -1 26 111)" d="M6 4a2 2 0 1 1-4 0 2 2 0 0 1 4 0z" fill="url(#c)"/><path d="M31.985 107.25a2.001 2.001 0 1 0-3.97 0 2 2 0 0 1 3.97 0z" fill="#eaeaea"/><path d="M33.969 107.501A4.002 4.002 0 0 0 30 103a4.002 4.002 0 0 0-3.97 4.501C26.278 105.528 27.962 104 30 104s3.723 1.528 3.969 3.501z" fill="#6a6a6a"/><path d="M26.031 107.501a4 4 0 1 0 7.938 0 4 4 0 0 1-7.938 0z" fill="#a8a8a8"/><g><path transform="matrix(1 0 0 -1 29 95.002)" d="M35 4.5c-19.329 0-35 15.67-35 35s15.671 35.002 35 35.002S70 58.831 70 39.5s-15.671-35-35-35zm21.448 56.45a30.292 30.292 0 0 1-9.642 6.504A30.153 30.153 0 0 1 35 69.834c-4.098 0-8.07-.8-11.806-2.38a30.293 30.293 0 0 1-9.642-6.504 30.201 30.201 0 0 1-6.504-9.644A30.155 30.155 0 0 1 4.665 39.5a30.217 30.217 0 0 1 8.887-21.448 30.178 30.178 0 0 1 9.642-6.503A30.125 30.125 0 0 1 35 9.167c4.098 0 8.07.801 11.806 2.382a30.17 30.17 0 0 1 9.642 6.503A30.215 30.215 0 0 1 65.335 39.5a30.21 30.21 0 0 1-8.887 21.45z" fill="url(#d)"/><path d="M35 .5C15.671.5 0 16.17 0 35.5s15.671 35.002 35 35.002S70 54.831 70 35.5 54.329.5 35 .5zm21.448 56.45a30.292 30.292 0 0 1-9.642 6.504A30.153 30.153 0 0 1 35 65.834c-4.098 0-8.07-.8-11.806-2.38a30.293 30.293 0 0 1-9.642-6.504 30.201 30.201 0 0 1-6.504-9.644A30.155 30.155 0 0 1 4.665 35.5a30.217 30.217 0 0 1 8.887-21.448 30.178 30.178 0 0 1 9.642-6.503A30.125 30.125 0 0 1 35 5.167c4.098 0 8.07.801 11.806 2.382a30.172 30.172 0 0 1 9.642 6.503A30.215 30.215 0 0 1 65.335 35.5a30.21 30.21 0 0 1-8.887 21.45z" fill="url(#e)" transform="translate(29 16)"/><path d="M102 107.002a4 4 0 1 1-8-.002 4 4 0 0 1 8 .002z" fill="#85858a"/><path d="M100 107.999a2 2 0 1 0-4 .001 2 2 0 0 0 4-.001z" fill="#68686b"/><path transform="matrix(1 0 0 -1 96 109)" d="M4 2a2 2 0 1 1-4 0 2 2 0 0 1 4 0z" fill="url(#f)"/><path d="M99.985 107.25a2.001 2.001 0 1 0-3.97 0 2 2 0 0 1 3.97 0z" fill="#eaeaea"/><path d="M101.969 107.501A4.002 4.002 0 0 0 98 103a4.002 4.002 0 0 0-3.97 4.501c.247-1.973 1.931-3.502 3.97-3.502s3.723 1.529 3.969 3.502z" fill="#727272"/><path d="M94.031 107.501a4 4 0 1 0 7.938 0 4 4 0 0 1-7.938 0z" fill="#d8d8d8"/></g></g></g><path d="M96.5 54.248C96.5 71.949 81.95 86.5 64 86.5S31.5 71.949 31.5 54.248C31.5 36.051 46.05 21.5 64 21.5s32.5 14.551 32.5 32.748" fill="#49494c"/><path fill="#4f4f50" d="M49.997 22.116l29.548 62.952 13.361-11.446-56.725-40.513z"/><g transform="translate(53 43)"><use width="100%" height="100%" fill="url(#h)" xlink:href="#g"/><use width="100%" height="100%" fill="#4f4f50" opacity=".5" xlink:href="#i"/></g><path d="M64 59a5 5 0 1 1 0-10 5 5 0 0 1 0 10z" fill="#85858a"/><path d="M13 11a2 2 0 1 1-4 .002A2 2 0 0 1 13 11" fill="url(#j)" transform="translate(53 43)"/><path d="M64 19c-19.329 0-35 15.67-35 35s15.671 35.002 35 35.002S99 73.331 99 54 83.329 19 64 19zm21.448 56.45a30.292 30.292 0 0 1-9.642 6.504A30.153 30.153 0 0 1 64 84.334c-4.098 0-8.07-.8-11.806-2.38a30.293 30.293 0 0 1-9.642-6.504 30.201 30.201 0 0 1-6.504-9.644A30.155 30.155 0 0 1 33.665 54a30.217 30.217 0 0 1 8.887-21.448 30.178 30.178 0 0 1 9.642-6.503A30.125 30.125 0 0 1 64 23.667c4.098 0 8.07.801 11.806 2.382a30.172 30.172 0 0 1 9.642 6.503A30.215 30.215 0 0 1 94.335 54a30.21 30.21 0 0 1-8.887 21.45z" fill="#595959" fill-rule="nonzero"/><g fill="#ecf1f6" fill-rule="nonzero"><path d="M45.929 102.656L70.581 72.01a2.31 2.31 0 0 0 .565-1.51c0-1.286-1.067-2.332-2.383-2.332-.586 0-1.123.205-1.539.554L35.935 92.87c-1.762 1.275-2.903 3.322-2.903 5.63 0 3.868 3.2 7 7.146 7a7.18 7.18 0 0 0 5.75-2.845z"/></g><g><g transform="matrix(-1 0 0 1 87.5 101.5)" fill="#d9d9d9"><rect width="1.5" height="14" rx=".75"/><rect x="4" width="1.5" height="14" rx=".75"/><rect x="8" width="1.5" height="14" rx=".75"/><rect x="12" width="1.5" height="14" rx=".75"/><rect x="16" width="1.5" height="14" rx=".75"/></g><g fill="#747474" transform="matrix(-1 0 0 1 87.5 98.5)"><rect width="1.5" height="14" rx=".75"/><rect x="4" width="1.5" height="14" rx=".75"/><rect x="8" width="1.5" height="14" rx=".75"/><rect x="12" width="1.5" height="14" rx=".75"/><rect x="16" width="1.5" height="14" rx=".75"/></g><g transform="matrix(-1 0 0 1 87.5 100)" fill="#949496"><rect width="1.5" height="14" rx=".75"/><rect x="4" width="1.5" height="14" rx=".75"/><rect x="8" width="1.5" height="14" rx=".75"/><rect x="12" width="1.5" height="14" rx=".75"/><rect x="16" width="1.5" height="14" rx=".75"/></g></g></g></svg>