<svg width="128" height="128" version="1.1" viewBox="0 0 128 128" xmlns="http://www.w3.org/2000/svg"><title>drive-harddisk-128px</title><defs><linearGradient id="b" x1="45.744" x2="45.744" y1="0" y2="88.206" gradientTransform="scale(.98374 1.0165)" gradientUnits="userSpaceOnUse"><stop stop-color="#B0F400" offset="0"/><stop stop-color="#9DDA00" offset=".019"/><stop stop-color="#73C300" offset="1"/></linearGradient><linearGradient id="c" x1="19.558" x2="19.558" y1="204.78" y2="243.89" gradientTransform="scale(2.3009 .43461)" gradientUnits="userSpaceOnUse"><stop stop-color="#fff" offset="0"/><stop stop-color="#BEC8BD" offset="1"/></linearGradient><linearGradient id="d" x1="9.165" x2="9.165" y1="126.09" y2="127.92" gradientTransform="scale(1.3093 .76376)" gradientUnits="userSpaceOnUse"><stop stop-color="#fff" offset="0"/><stop stop-color="#fff" stop-opacity="0" offset="1"/></linearGradient><filter id="a" color-interpolation-filters="sRGB"><feFlood flood-color="#000" flood-opacity=".196" result="flood"/><feComposite in="flood" in2="SourceGraphic" operator="in" result="composite1"/><feGaussianBlur in="composite1" result="blur" stdDeviation="2"/><feOffset dx="0" dy="2" result="offset"/><feComposite in="SourceGraphic" in2="offset" result="composite2"/></filter></defs><g transform="translate(19 11)" fill-rule="evenodd" filter="url(#a)"><path d="M0 3.996A4.002 4.002 0 0 1 3.998 0h82.004A4.001 4.001 0 0 1 90 3.996V93H0z" fill="url(#b)"/><path d="M0 82.995A4.001 4.001 0 0 1 3.998 79h82.004A3.997 3.997 0 0 1 90 82.993v9.514a4.027 4.027 0 0 1-3.998 4.015l-82.004.456A3.972 3.972 0 0 1 0 93.005z" fill="#6fb400"/><path d="M0 84.006A4.007 4.007 0 0 1 3.998 80h82.004A3.997 3.997 0 0 1 90 83.99v10.517a4.027 4.027 0 0 1-3.998 4.014l-82.004.455A3.971 3.971 0 0 1 0 94.993z" fill="#f3f3f3"/><path d="M0 93.007A4.008 4.008 0 0 1 3.998 89h82.004A3.998 3.998 0 0 1 90 93.007v8.986A4.008 4.008 0 0 1 86.002 106H3.998A3.998 3.998 0 0 1 0 101.993z" fill="url(#c)"/><path d="M0 94c0-2.21 1.798-4 3.998-4h82.004A4.001 4.001 0 0 1 90 94v7c0 2.21-1.798 4-3.998 4H3.998A4.001 4.001 0 0 1 0 101z" fill="#cbd8ca"/><path d="M53 95l3 .02V101h-2.962v-5.98zm5 0l3 .02V101h-2.962v-5.98zm5 0l3 .02V101h-2.962v-5.98zm5 0l3 .02V101h-2.962v-5.98zm5 0l3 .02V101h-2.962v-5.98zm5 0l3 .02V101h-2.962v-5.98z" fill="#75c500"/><path d="M12 101a3 3 0 1 0 0-6 3 3 0 0 0 0 6z" fill="#7cbb22"/><path d="M12 100a2 2 0 1 0 0-4 2 2 0 0 0 0 4z" fill="#87e200"/><ellipse cx="12" cy="97" rx="1.2" ry=".7" fill="url(#d)"/></g></svg>