<svg width="128" height="128" version="1.1" viewBox="0 0 128 128" xmlns="http://www.w3.org/2000/svg"><defs><filter id="a" color-interpolation-filters="sRGB"><feFlood flood-color="#908B78" flood-opacity=".498" result="flood"/><feComposite in="flood" in2="SourceGraphic" operator="in" result="composite1"/><feGaussianBlur in="composite1" result="blur" stdDeviation="1"/><feOffset dx="0" dy="1" result="offset"/><feComposite in="SourceGraphic" in2="offset" result="composite2"/></filter></defs><title>deepin-calculator</title><g fill-rule="evenodd" transform="translate(.185 .185) scale(1.9942)" filter="url(#a)"><path d="M52 58H12c-2 0-2-2-2-2V8s0-2 2-2h28l14 14v36c0 2-2 2-2 2z" fill="#e5b400"/><path d="M35.316 30H28.04v-.888c.64-.042 1.171-.125 1.594-.25.423-.125.634-.28.634-.463 0-.075-.008-.167-.025-.275a1.33 1.33 0 0 0-.073-.288l-1.453-3.978h-6.12c-.229.584-.416 1.093-.56 1.526s-.272.834-.387 1.201c-.107.359-.18.65-.222.876a3.205 3.205 0 0 0-.061.55c0 .334.258.592.775.776s1.1.291 1.749.325V30h-6.575v-.888c.213-.017.48-.065.8-.144.32-.08.583-.186.788-.319.328-.225.583-.46.763-.707.181-.246.358-.586.53-1.02.878-2.226 1.847-4.727 2.906-7.504s2.002-5.25 2.831-7.418h.985l5.824 15.31c.123.326.263.588.418.789.156.2.374.396.653.588.189.116.435.214.739.293s.558.123.763.132zm-6.938-7.52l-2.672-6.836-2.623 6.836zm19.03 6.982c-.39.142-.732.257-1.026.344s-.627.131-1 .131c-.647 0-1.163-.152-1.548-.456s-.632-.749-.74-1.333h-.074c-.539.6-1.117 1.06-1.734 1.377-.617.317-1.36.475-2.23.475-.92 0-1.677-.284-2.27-.85-.592-.568-.888-1.31-.888-2.228 0-.475.066-.9.199-1.276.132-.376.331-.713.597-1.014.207-.25.48-.473.82-.67a7.15 7.15 0 0 1 .957-.468c.373-.142 1.129-.405 2.268-.789s1.908-.684 2.306-.9v-1.24c0-.108-.023-.316-.068-.625s-.143-.6-.293-.876a2.486 2.486 0 0 0-.702-.807c-.302-.229-.731-.344-1.286-.344-.381 0-.736.065-1.063.194-.327.13-.557.265-.69.407 0 .167.04.413.118.738s.118.626.118.901c0 .292-.13.559-.391.8-.261.243-.624.364-1.088.364-.414 0-.719-.148-.913-.445s-.292-.627-.292-.994c0-.384.134-.751.404-1.101.269-.35.619-.663 1.05-.939a5.697 5.697 0 0 1 1.355-.594A5.283 5.283 0 0 1 40.857 17c.696 0 1.303.048 1.821.144.518.096.988.302 1.411.62.423.308.744.727.963 1.257.22.53.33 1.211.33 2.045 0 1.193-.013 2.25-.038 3.172-.024.922-.037 1.93-.037 3.022 0 .325.056.584.168.776.112.191.284.354.516.488.124.075.32.116.59.125.27.008.545.012.827.012zm-4.338-6.56c-.705.208-1.322.411-1.852.61s-1.024.447-1.48.746a3.365 3.365 0 0 0-.981 1c-.24.385-.36.843-.36 1.374 0 .687.18 1.193.54 1.516s.818.485 1.373.485c.589 0 1.107-.143 1.554-.43s.825-.623 1.131-1.012z" fill="#fff"/><path d="M42 20.038c-2 0-2-2.037-2-2.037V6l14 14.037z" fill="#f7d760"/></g></svg>