<svg width="128" height="128" version="1.1" viewBox="0 0 128 128" xmlns="http://www.w3.org/2000/svg"><defs><filter id="a" color-interpolation-filters="sRGB"><feFlood flood-color="#908B78" flood-opacity=".498" result="flood"/><feComposite in="flood" in2="SourceGraphic" operator="in" result="composite1"/><feGaussianBlur in="composite1" result="blur" stdDeviation="1"/><feOffset dx="0" dy="1" result="offset"/><feComposite in="SourceGraphic" in2="offset" result="composite2"/></filter></defs><title>deepin-clone</title><g transform="translate(.174 -.823) scale(1.9946)" filter="url(#a)"><circle cx="32" cy="33" r="28" fill="#00100f" opacity=".2"/><circle cx="32" cy="32" r="28" fill="#f5b35d"/><g opacity=".2"><path d="M32 15a7 7 0 1 0 0 14 7 7 0 0 0 0-14zM32 34c-13.999.008-14 8.861-14 8.861v3.6S20.585 52 32 52s14-5.538 14-5.538v-3.6S46 33.993 32.003 34z"/></g><g fill="#3f3f3f"><path d="M32 14a7 7 0 1 0 0 14 7 7 0 0 0 0-14zM32 33c-13.999.008-14 8.861-14 8.861v3.6S20.585 51 32 51s14-5.538 14-5.538v-3.6S46 32.993 32.003 33z"/></g><path d="M32 4A28 28 0 0 0 4 32a28 28 0 0 0 .018.492A28 28 0 0 1 32 5a28 28 0 0 1 27.975 27.492A28 28 0 0 0 60 32 28 28 0 0 0 32 4z" fill="#fff" opacity=".2"/></g></svg>