<svg width="128" height="128" version="1.1" viewBox="0 0 128 128" xmlns="http://www.w3.org/2000/svg"><defs><filter id="a" color-interpolation-filters="sRGB"><feFlood flood-color="#908B78" flood-opacity=".498" result="flood"/><feComposite in="flood" in2="SourceGraphic" operator="in" result="composite1"/><feGaussianBlur in="composite1" result="blur" stdDeviation="1"/><feOffset dx="0" dy="1" result="offset"/><feComposite in="SourceGraphic" in2="offset" result="composite2"/></filter></defs><title>deepin-clone</title><g transform="translate(.174 -.823) scale(1.9946)" filter="url(#a)"><path d="M4.05 32.001c-.011.334-.05.662-.05 1C4 48.513 16.488 61 31.999 61s27.999-12.488 27.999-27.999c0-.338-.039-.665-.05-1C59.418 47.043 47.17 59 31.997 59 16.824 59 4.578 47.042 4.05 32.001z" opacity=".2"/><rect transform="matrix(0 -1 -1 0 0 0)" x="-60" y="-60" width="56" height="56" rx="28" ry="28" fill="#1da6e8"/><path d="M32 4.002C16.488 4.002 4 16.488 4 32c0 .113.011.224.018.336C4.37 17.136 16.712 5.002 32 5.002s27.63 12.134 27.982 27.334c.006-.112.017-.223.017-.336A27.937 27.937 0 0 0 32 4.002z" fill="#fff" opacity=".2"/><path d="M37.999 22.001l-16 10 16 10" fill="none" opacity=".4" stroke="#000" stroke-width="4"/><path d="M37.999 17.001a6 6 0 0 0-6 6 6 6 0 0 0 6 6 6 6 0 0 0 6-6 6 6 0 0 0-6-6zm-16 10a6 6 0 0 0-6 6 6 6 0 0 0 6 6 6 6 0 0 0 6-6 6 6 0 0 0-6-6zm16 10a6 6 0 0 0-6 6A6 6 0 0 0 38 49a6 6 0 0 0 6-6 6 6 0 0 0-6-6z" fill-rule="evenodd" opacity=".2"/><path d="M37.999 16.001a6 6 0 0 0-6 6 6 6 0 0 0 6 6 6 6 0 0 0 6-6 6 6 0 0 0-6-6zm-16 10a6 6 0 0 0-6 6 6 6 0 0 0 6 6 6 6 0 0 0 6-6 6 6 0 0 0-6-6zm16 10a6 6 0 0 0-6 6A6 6 0 0 0 38 48a6 6 0 0 0 6-6 6 6 0 0 0-6-6z" fill="#fff" fill-rule="evenodd"/></g></svg>