<svg width="128" height="128" version="1.1" viewBox="0 0 128 128" xmlns="http://www.w3.org/2000/svg"><defs><filter id="a" color-interpolation-filters="sRGB"><feFlood flood-color="#908B78" flood-opacity=".498" result="flood"/><feComposite in="flood" in2="SourceGraphic" operator="in" result="composite1"/><feGaussianBlur in="composite1" result="blur" stdDeviation="1.5"/><feOffset dx="0" dy="1.5" result="offset"/><feComposite in="SourceGraphic" in2="offset" result="composite2"/></filter></defs><title>deepin-calculator</title><g transform="matrix(1.8168 0 0 1.8168 5.861 4.953)" filter="url(#a)"><path d="M4 52.2v2C4 55.75 5.25 57 6.8 57h50.4c1.55 0 2.8-1.25 2.8-2.8v-2c0 1.55-1.25 2.8-2.8 2.8H6.8C5.25 55 4 53.75 4 52.2z" opacity=".2"/><path d="M59.999 53.2V10.801c0-1.551-1.248-2.8-2.8-2.8H6.8a2.794 2.794 0 0 0-2.8 2.8V53.2C4 54.752 5.249 56 6.8 56h50.399c1.551 0 2.8-1.249 2.8-2.8z" fill="#e3af4a"/><rect x="12" y="17" width="39.999" height="32" rx="2.7" ry="2.912" opacity=".2"/><rect x="12" y="16" width="39.999" height="32" rx="2.7" ry="2.912" fill="#faff84"/><rect x="24" y="29" width="16" height="6" rx="2.644" ry="2.736" opacity=".2"/><rect x="24" y="28" width="16" height="6" rx="2.644" ry="2.736" fill="#4e4e4e"/><path d="M6.8 8C5.25 8 4 9.25 4 10.8v1C4 10.25 5.25 9 6.8 9H57.2c1.55 0 2.8 1.25 2.8 2.8v-1C60 9.25 58.75 8 57.2 8z" fill="#fff" opacity=".2"/></g></svg>