<svg width="128" height="128" version="1.1" viewBox="0 0 128 128" xmlns="http://www.w3.org/2000/svg"><defs><filter id="a" color-interpolation-filters="sRGB"><feFlood flood-color="#908B78" flood-opacity=".498" result="flood"/><feComposite in="flood" in2="SourceGraphic" operator="in" result="composite1"/><feGaussianBlur in="composite1" result="blur" stdDeviation="1.5"/><feOffset dx="0" dy="1.5" result="offset"/><feComposite in="SourceGraphic" in2="offset" result="composite2"/></filter></defs><title>deepin-calculator</title><g transform="translate(5.861 4.952) scale(1.8168)" filter="url(#a)"><path d="M60 54.222V9.778A2.782 2.782 0 0 0 57.2 7H6.8A2.783 2.783 0 0 0 4 9.778v44.444A2.782 2.782 0 0 0 6.8 57h50.4c1.551 0 2.8-1.24 2.8-2.778z" fill="#316fb5"/><path d="M25.274 22A1.25 1.333 0 0 0 24 23.334v21.331a1.25 1.333 0 0 0 1.87 1.159l17.498-10.666a1.25 1.333 0 0 0 0-2.318L25.87 22.174a1.25 1.333 0 0 0-.596-.174z" opacity=".2"/><path d="M25.274 21.001A1.25 1.333 0 0 0 24 22.335v21.331a1.25 1.333 0 0 0 1.87 1.159l17.498-10.666a1.25 1.333 0 0 0 0-2.318L25.87 21.175a1.25 1.333 0 0 0-.596-.174z" fill="#60e5bd"/><path d="M4 54.223v1C4 56.763 5.25 58 6.8 58H57.2c1.55 0 2.8-1.237 2.8-2.777v-1C60 55.763 58.75 57 57.2 57H6.8C5.25 57 4 55.763 4 54.223z" opacity=".2"/><path d="M6.8 7A2.783 2.783 0 0 0 4 9.777v1A2.783 2.783 0 0 1 6.8 8H57.2c1.552 0 2.8 1.238 2.8 2.777v-1A2.782 2.782 0 0 0 57.2 7z" fill="#fff" opacity=".1"/></g></svg>