<svg width="128" height="128" version="1.1" viewBox="0 0 128 128" xmlns="http://www.w3.org/2000/svg" xmlns:xlink="http://www.w3.org/1999/xlink">
<defs>
<filter id="a" color-interpolation-filters="sRGB">
<feFlood flood-color="#908B78" flood-opacity=".498" result="flood"/>
<feComposite in="flood" in2="SourceGraphic" operator="in" result="composite1"/>
<feGaussianBlur in="composite1" result="blur" stdDeviation="1"/>
<feOffset dx="0" dy="1" result="offset"/>
<feComposite in="SourceGraphic" in2="offset" result="composite2"/>
</filter>
<linearGradient id="linearGradient925" x1="-.70101" x2="64.701" y1="32.001" y2="32.001" gradientTransform="matrix(.5487 0 0 1.8225 -114.14 -7.8743)" gradientUnits="userSpaceOnUse">
<stop stop-color="#628FFF" offset="0"/>
<stop stop-color="#4084FF" offset="1"/>
</linearGradient>
</defs>
<title>deepin-clone</title>
<path transform="matrix(2.0494,0,0,2.0494,-1.582,-2.606)" d="m5.134 23.486-0.215 0.371c-0.315 0.559-0.177 1.332 0.309 1.75l4.437 3.894c0.045-0.613 0.109-1.22 0.2-1.824l-4.637-4.07c-0.04-0.036-0.06-0.084-0.094-0.122zm53.731 0c-0.034 0.038-0.054 0.087-0.094 0.121l-4.636 4.07c0.09 0.604 0.154 1.211 0.2 1.825l4.436-3.895c0.487-0.418 0.624-1.191 0.309-1.75l-0.214-0.372zm-49.22 8.516c-0.016 0.332-0.043 0.662-0.043 1 0 0.507 0.026 1.005 0.063 1.5l0.199-0.176a23.62 23.62 0 0 1-0.219-2.324zm44.708 0c-0.04 0.784-0.104 1.558-0.219 2.324l0.2 0.176c0.036-0.495 0.062-0.993 0.062-1.5 0-0.338-0.026-0.668-0.043-1zm-49.22 8.516c-0.394 0.434-0.505 1.114-0.215 1.628l5.602 9.711c0.324 0.55 1.055 0.822 1.66 0.613l5.82-1.97a22.548 22.548 0 0 0 5.863 3.371l1.18 5.992c0.119 0.628 0.716 1.128 1.355 1.137h11.202c0.638-8e-3 1.235-0.51 1.355-1.137l1.18-5.992a22.579 22.579 0 0 0 5.86-3.372l5.82 1.97c0.604 0.208 1.335-0.063 1.66-0.614l5.6-9.711c0.29-0.514 0.18-1.195-0.214-1.63l-5.387 9.34c-0.324 0.552-1.055 0.822-1.66 0.614l-5.821-1.97a22.542 22.542 0 0 1-5.863 3.367l-1.18 5.996c-0.118 0.626-0.716 1.128-1.354 1.136h-11.202a1.443 1.443 0 0 1-1.355-1.137l-1.178-5.996a22.537 22.537 0 0 1-5.864-3.368l-5.82 1.968c-0.604 0.21-1.335-0.062-1.66-0.612l-5.386-9.34z" filter="url(#a)" opacity=".2"/>
<path transform="matrix(2.0494,0,0,2.0494,-1.582,-2.606)" d="m26.269 4.003a1.44 1.44 0 0 0-1.225 1.137l-1.181 5.993a22.535 22.535 0 0 0-5.863 3.37l-5.818-1.97a1.445 1.445 0 0 0-1.663 0.613l-5.6 9.712c-0.315 0.559-0.18 1.332 0.307 1.75l4.637 4.068c-0.163 1.091-0.262 2.189-0.262 3.325s0.099 2.234 0.262 3.325l-4.637 4.069c-0.487 0.418-0.622 1.191-0.306 1.75l5.6 9.712c0.324 0.55 1.057 0.82 1.662 0.612l5.818-1.968a22.54 22.54 0 0 0 5.862 3.368l1.182 5.994c0.12 0.627 0.717 1.129 1.356 1.137h11.2c0.638-8e-3 1.236-0.51 1.356-1.137l1.181-5.994a22.535 22.535 0 0 0 5.863-3.368l5.819 1.968a1.445 1.445 0 0 0 1.662-0.612l5.6-9.712c0.315-0.559 0.18-1.332-0.306-1.75l-4.637-4.069c0.163-1.09 0.262-2.188 0.262-3.325 0-1.136-0.1-2.234-0.262-3.325l4.637-4.068c0.486-0.418 0.621-1.191 0.306-1.75l-5.6-9.712c-0.325-0.55-1.058-0.821-1.662-0.613l-5.819 1.97a22.538 22.538 0 0 0-5.861-3.37l-1.182-5.994a1.445 1.445 0 0 0-1.357-1.137h-11.199a2.813 2.813 0 0 0-0.131 0z" fill="url(#linearGradient925)" filter="url(#a)"/>
<path transform="matrix(2.0494,0,0,2.0494,-1.582,-2.606)" d="m32 21c6.627 0 12 5.373 12 12s-5.373 12-12 12-12-5.373-12-12 5.373-12 12-12z" filter="url(#a)" opacity=".2"/>
<path transform="matrix(2.0494,0,0,2.0494,-1.582,-2.606)" d="m32.001 20c6.627 0 12 5.373 12 12s-5.373 12-12 12-12-5.373-12-12 5.373-12 12-12z" fill="#fff" filter="url(#a)"/>
<path transform="matrix(2.0494,0,0,2.0494,-1.582,-2.606)" d="m26.252 4c-0.594 0.065-1.079 0.538-1.188 1.125l-1.187 6a22.632 22.632 0 0 0-5.875 3.375l-5.813-1.938c-0.604-0.208-1.362 0.013-1.687 0.563l-5.375 9.375c0.038 0.043 0.081 0.087 0.125 0.125l0.248 0.223 5.002-8.723c0.325-0.55 1.083-0.771 1.688-0.563l5.812 1.938a22.631 22.631 0 0 1 5.875-3.375l1.188-6c0.108-0.587 0.593-1.06 1.187-1.125h11.375c0.639 9e-3 1.193 0.498 1.313 1.125l1.187 6c2.12 0.83 4.126 1.975 5.875 3.375l5.813-1.938c0.604-0.208 1.362 0.012 1.687 0.563l5.002 8.723 0.248-0.223a1.34 1.34 0 0 0 0.125-0.125l-5.375-9.375c-0.325-0.55-1.083-0.77-1.687-0.563l-5.813 1.938a22.634 22.634 0 0 0-5.875-3.375l-1.187-6c-0.12-0.627-0.674-1.116-1.313-1.125h-11.25a2.553 2.553 0 0 0-0.125 0zm-21.439 19.312a1.16 1.16 0 0 0 0 0.5 1.617 1.617 0 0 1 0-0.5zm54.377 0c0.024 0.158 0.028 0.342 0 0.5a1.158 1.158 0 0 0 0-0.5zm-49.5 12.188-4.438 3.875a1.353 1.353 0 0 0-0.125 0.125l0.375 0.656 4.188-3.656c0.022 0.304 0.062 0.598 0.092 0.895l0.095-0.082a23.9 23.9 0 0 1-0.187-1.813zm44.623 0a23.992 23.992 0 0 1-0.188 1.813l0.096 0.082c0.03-0.297 0.07-0.591 0.092-0.895l4.187 3.656 0.375-0.656a1.365 1.365 0 0 0-0.125-0.125z" fill="#fff" filter="url(#a)" opacity=".1"/>
</svg>
