<svg width="128" height="128" version="1.1" viewBox="0 0 128 128" xmlns="http://www.w3.org/2000/svg"><defs><filter id="a" color-interpolation-filters="sRGB"><feFlood flood-color="#908B78" flood-opacity=".498" result="flood"/><feComposite in="flood" in2="SourceGraphic" operator="in" result="composite1"/><feGaussianBlur in="composite1" result="blur" stdDeviation="1"/><feOffset dx="0" dy="1" result="offset"/><feComposite in="SourceGraphic" in2="offset" result="composite2"/></filter></defs><title>deepin-clone</title><g transform="translate(.174 -.823) scale(1.9946)" filter="url(#a)"><rect transform="matrix(0 -1 -1 0 0 0)" x="-60" y="-60" width="56" height="56" rx="28" ry="28" fill="#fecd38"/><path d="M32 4C16.488 4 4 16.488 4 32c0 .114.011.224.018.336C4.369 17.134 16.712 5 32 5c15.289 0 27.63 12.134 27.982 27.336.006-.112.017-.223.017-.336C60 16.488 47.511 4 32 4z" fill="#fff" opacity=".1"/><g transform="matrix(1.4 0 0 1.4 -75.874 4.516)" fill="#3f3f3f"><circle cx="69.91" cy="12.489" r="2.857"/><circle cx="84.196" cy="12.489" r="2.857"/><path d="M69.444 24.355a8.795 10.554 0 0 0 7.61 5.277 8.795 10.554 0 0 0 7.602-5.277h-1.068a8.795 10.554 0 0 1-6.535 3.518 8.795 10.554 0 0 1-6.537-3.518z"/></g><path d="M4.049 33l.002.018V33zm.002.018c-.013.328-.051.65-.051.982 0 .224.012.445.018.668.012-.217.024-.433.033-.65L4.049 34h.002v.018C4.588 49.052 16.83 61 32 61c15.174 0 27.42-11.958 27.949-27 .008.222.02.443.033.664.005-.222.018-.442.018-.664 0-.338-.04-.666-.051-1-.528 15.042-12.775 27-27.95 27C16.833 60 4.589 48.05 4.052 33.018z" opacity=".2"/></g></svg>