<svg width="128" height="128" version="1.1" viewBox="0 0 128 128" xmlns="http://www.w3.org/2000/svg"><defs><filter id="a" color-interpolation-filters="sRGB"><feFlood flood-color="#908B78" flood-opacity=".498" result="flood"/><feComposite in="flood" in2="SourceGraphic" operator="in" result="composite1"/><feGaussianBlur in="composite1" result="blur" stdDeviation="1"/><feOffset dx="0" dy="1" result="offset"/><feComposite in="SourceGraphic" in2="offset" result="composite2"/></filter></defs><title>deepin-clone</title><g transform="translate(.174 -.823) scale(1.9945)" filter="url(#a)"><rect transform="matrix(0 -1 -1 0 0 0)" x="-60" y="-60" width="56" height="56" rx="28" ry="28" fill="#37dbad"/><path d="M32 17c-8.836 0-16 7.163-16 16 0 8.836 7.163 16 16 16h10s1.875 0 2-2c0-2-2-2-2-2H32c-6.627 0-12-5.372-12-12 0-6.627 5.372-12 12-12 6.627 0 12 5.372 12 12v2a2 2 0 0 1-4 0v-2a8 8 0 1 0-8 8c2.093 0 3.98-.822 5.406-2.137A6.006 6.006 0 0 0 42 41a6 6 0 0 0 6-6v-2c0-8.836-7.164-16-16-16zm0 12a4 4 0 1 1 0 8 4 4 0 0 1 0-8z" opacity=".2"/><path d="M32 16.001c-8.836 0-16 7.163-16 16s7.163 16 16 16h10s1.875 0 2-2c0-2-2-2-2-2H32c-6.627 0-12-5.372-12-12s5.372-12 12-12c6.627 0 12 5.373 12 12v2a2 2 0 0 1-4 0v-2a8 8 0 1 0-8 8c2.093 0 3.98-.822 5.406-2.137A6.006 6.006 0 0 0 42 40a6 6 0 0 0 6-6v-2c0-8.836-7.164-16-16-16zm0 12a4 4 0 1 1 0 8 4 4 0 0 1 0-8z" fill="#fff"/><path d="M59.982 32.664C59.63 47.866 47.289 60 32 60 16.712 60 4.371 47.868 4.018 32.668c-.006.11-.018.22-.018.332 0 15.512 12.488 28 28 28s28-12.488 28-28c0-.113-.01-.224-.017-.336z" opacity=".2"/><path d="M32 4C16.488 4 4 16.488 4 32c0 .114.011.224.018.336C4.369 17.134 16.71 5 32 5s27.63 12.134 27.982 27.336c.006-.112.017-.222.017-.336C60 16.488 47.511 4 32 4z" fill="#fff" opacity=".2"/></g></svg>