<svg width="128" height="128" version="1.1" viewBox="0 0 128 128" xmlns="http://www.w3.org/2000/svg" xmlns:xlink="http://www.w3.org/1999/xlink">
<defs>
<filter id="a" color-interpolation-filters="sRGB">
<feFlood flood-color="#908B78" flood-opacity=".498" result="flood"/>
<feComposite in="flood" in2="SourceGraphic" operator="in" result="composite1"/>
<feGaussianBlur in="composite1" result="blur" stdDeviation="1.5"/>
<feOffset dx="0" dy="1.5" result="offset"/>
<feComposite in="SourceGraphic" in2="offset" result="composite2"/>
</filter>
<linearGradient id="linearGradient998" x1="-65.6" x2="1.6" y1="-32" y2="-32" gradientTransform="matrix(1.0793 0 0 .92654 -132.34 -71.924)" gradientUnits="userSpaceOnUse">
<stop stop-color="#23FFBE" offset="0"/>
<stop stop-color="#3FDA88" offset="1"/>
</linearGradient>
</defs>
<title>deepin-calculator</title>
<rect transform="matrix(0,-1.8168,-1.8168,0,5.861,4.953)" x="-60" y="-60" width="56" height="56" rx="2.8" ry="2.8" fill="url(#linearGradient998)" filter="url(#a)"/>
<path transform="matrix(1.8168,0,0,1.8168,5.861,4.953)" d="m6.8 4c-1.55 0-2.8 1.25-2.8 2.8v1c0-1.55 1.25-2.8 2.8-2.8h50.4c1.55 0 2.8 1.25 2.8 2.8v-1c0-1.55-1.25-2.8-2.8-2.8z" fill="#fff" filter="url(#a)" opacity=".1"/>
<path transform="matrix(1.8168,0,0,1.8168,5.861,4.953)" d="m4 57.2v1c0 1.55 1.25 2.8 2.8 2.8h50.4c1.55 0 2.8-1.25 2.8-2.8v-1c0 1.55-1.25 2.8-2.8 2.8h-50.4c-1.55 0-2.8-1.25-2.8-2.8z" filter="url(#a)" opacity=".2"/>
<g transform="matrix(3.6336,0,0,3.6336,5.861,6.7698)" filter="url(#a)" opacity=".2">
<rect x="5" y="5" width="6" height="6" rx=".75" ry=".75"/>
<rect x="13" y="5" width="6" height="6" rx=".75" ry=".75"/>
<rect x="5" y="13" width="6" height="6" rx=".75" ry=".75"/>
<rect x="13" y="13" width="6" height="6" rx=".75" ry=".75"/>
<rect x="5" y="21" width="6" height="6" rx=".75" ry=".75"/>
</g>
<g transform="matrix(3.6336,0,0,3.6336,5.861,4.953)" fill="#fff" filter="url(#a)">
<rect x="5" y="5" width="6" height="6" rx=".75" ry=".75"/>
<rect x="13" y="5" width="6" height="6" rx=".75" ry=".75"/>
<rect x="5" y="13" width="6" height="6" rx=".75" ry=".75"/>
<rect x="13" y="13" width="6" height="6" rx=".75" ry=".75"/>
<rect x="5" y="21" width="6" height="6" rx=".75" ry=".75"/>
</g>
</svg>
