<svg width="128" height="128" version="1.1" viewBox="0 0 128 128" xmlns="http://www.w3.org/2000/svg"><defs><filter id="a" color-interpolation-filters="sRGB"><feFlood flood-color="#908B78" flood-opacity=".498" result="flood"/><feComposite in="flood" in2="SourceGraphic" operator="in" result="composite1"/><feGaussianBlur in="composite1" result="blur" stdDeviation="1.5"/><feOffset dx="0" dy="1.5" result="offset"/><feComposite in="SourceGraphic" in2="offset" result="composite2"/></filter></defs><title>deepin-calculator</title><g transform="translate(5.861 4.953) scale(1.8168)" filter="url(#a)"><path d="M10.741 32.484C10.741 43.732-3.432 52 9.324 52h45.352c12.756 0-1.416-8.268-1.416-19.516C53.26 19.939 47.59 6 32 6S10.74 19.939 10.74 32.484z" fill="#efb055"/><path d="M22 52c1.477 3.475 5.373 6 10 6s8.523-2.525 10-6z" fill="#ce903c"/><path d="M32 6C16.399 6 10.728 19.938 10.728 32.484c0 6.928-5.365 12.718-6.516 16.148a1.523 1.523 0 0 1-.157-.392c-.1.534-.072 1.006.157 1.392 1.15-3.43 6.516-9.22 6.516-16.148C10.728 20.938 16.399 7 32 7c15.601 0 21.272 13.938 21.272 26.484 0 6.928 5.365 12.718 6.516 16.148.23-.386.257-.858.157-1.392-.037.137-.084.27-.157.392-1.15-3.43-6.516-9.22-6.516-16.148C53.272 19.938 47.6 6 32 6z" fill="#fff" opacity=".1"/><path d="M59.948 50.24c-.295 1.133-1.756 1.76-5.251 1.76H9.302c-3.491 0-4.952-.626-5.25-1.756C3.725 52 4.893 53 9.303 53h45.395c4.413 0 5.58-1.002 5.251-2.76zM22 53c1.478 3.476 5.374 6 10 6s8.522-2.524 10-6h-.514c-1.748 2.948-5.318 5-9.486 5s-7.738-2.052-9.486-5z" opacity=".2"/></g></svg>