<svg width="128" height="128" version="1.1" viewBox="0 0 128 128" xmlns="http://www.w3.org/2000/svg"><defs><filter id="a" color-interpolation-filters="sRGB"><feFlood flood-color="#908B78" flood-opacity=".498" result="flood"/><feComposite in="flood" in2="SourceGraphic" operator="in" result="composite1"/><feGaussianBlur in="composite1" result="blur" stdDeviation="1"/><feOffset dx="0" dy="1" result="offset"/><feComposite in="SourceGraphic" in2="offset" result="composite2"/></filter></defs><title>deepin-clone</title><g transform="translate(.175 -.823) scale(1.9945)" filter="url(#a)"><path d="M60 32a28 28 0 0 1-28 28A28 28 0 0 1 4 32 28 28 0 0 1 32 4a28 28 0 0 1 28 28z" fill="#f56e2c"/><path d="M59.982 32.508A28 28 0 0 1 32 60 28 28 0 0 1 4.025 32.52 28 28 0 0 0 4 33a28 28 0 0 0 28 28 28 28 0 0 0 28-28 28 28 0 0 0-.018-.492z" opacity=".2"/><path d="M31.999 4A28.001 28 0 0 0 4 32a28.001 28 0 0 0 .018.492A28.001 28 0 0 1 31.998 5h.003a28.001 28 0 0 1 27.974 27.5A28.001 28 0 0 0 60 32 28.001 28 0 0 0 32.001 4h-.002z" fill="#fff" opacity=".2"/><path d="M22 17v32h20v-8H30V17z" opacity=".2"/><path d="M22 16v32h20v-8H30V16z" fill="#fff"/></g></svg>