<svg width="128" height="128" version="1.1" viewBox="0 0 128 128" xmlns="http://www.w3.org/2000/svg"><defs><filter id="a" color-interpolation-filters="sRGB"><feFlood flood-color="#908B78" flood-opacity=".498" result="flood"/><feComposite in="flood" in2="SourceGraphic" operator="in" result="composite1"/><feGaussianBlur in="composite1" result="blur" stdDeviation="1"/><feOffset dx="0" dy="1" result="offset"/><feComposite in="SourceGraphic" in2="offset" result="composite2"/></filter></defs><title>deepin-clone</title><g transform="translate(4.53 3.602) scale(1.8584)" filter="url(#a)"><path d="M44.002 2a23.77 23.666 0 0 1-18.766 15.219 23.77 23.666 0 0 1 .316 3.76A23.77 23.666 0 0 1 2 44.631 31.612 31.612 0 0 0 30.306 62C47.864 62 62 47.926 62 30.447c0-12.585-7.344-23.372-17.998-28.446z" fill="#dfbe57"/><path d="M44 2a23.77 23.666 0 0 1-18.766 15.219 23.77 23.666 0 0 1 .113.979A23.77 23.666 0 0 0 44 3c10.488 4.995 17.754 15.53 17.98 27.863.009-.139.02-.277.02-.418C62 17.86 54.655 7.075 44 2zM25.512 21.766A23.77 23.666 0 0 1 2 44.633c.17.337.362.658.543.986a23.77 23.666 0 0 0 22.969-22.854 23.77 23.666 0 0 1 .023.746 23.77 23.666 0 0 0 .016-.53 23.77 23.666 0 0 0-.039-1.216z" fill="#fff" opacity=".2"/><path d="M25.348 18.199a23.77 23.666 0 0 1-.111.021 23.77 23.666 0 0 1 .277 2.545 23.77 23.666 0 0 0 .04-.785 23.77 23.666 0 0 0-.026-.488 23.77 23.666 0 0 1-.014.273 23.77 23.666 0 0 0-.166-1.566zm36.637 12.842C61.667 48.243 47.665 62 30.305 62 18.286 62 7.911 55.38 2.537 45.611a23.77 23.666 0 0 1-.537.021A31.61 31.61 0 0 0 30.305 63C47.865 63 62 48.924 62 31.444c0-.136-.01-.269-.016-.404z" opacity=".2"/></g></svg>