<svg width="128" height="128" version="1.1" viewBox="0 0 128 128" xmlns="http://www.w3.org/2000/svg"><defs><filter id="a" color-interpolation-filters="sRGB"><feFlood flood-color="#908B78" flood-opacity=".498" result="flood"/><feComposite in="flood" in2="SourceGraphic" operator="in" result="composite1"/><feGaussianBlur in="composite1" result="blur" stdDeviation="1.5"/><feOffset dx="0" dy="1.5" result="offset"/><feComposite in="SourceGraphic" in2="offset" result="composite2"/></filter></defs><title>deepin-calculator</title><g transform="translate(5.783 4.873) scale(1.8193)" filter="url(#a)"><path d="M32 5c-.024 0-.05.004-.074.004h-.008C22.946 5.06 14 14.358 14 21.336v23.07C14 53.888 20.75 61 32 61c11.25.002 18-7.108 18-16.59V21.972c0-7.252-8.988-16.906-18-16.964z" opacity=".2"/><path d="M32 4c-.024 0-.05.004-.074.004h-.008C22.946 4.06 14 13.358 14 20.336v23.07C14 52.888 20.75 60 32 60c11.25.002 18-7.108 18-16.59V20.972c0-7.252-8.988-16.906-18-16.964z" fill="#4f4f4f"/><path d="M32 4l-.073.003h-.008c-8.972.056-17.92 9.354-17.92 16.332V32h36V20.972c0-7.252-8.987-16.906-18-16.964z" opacity=".1"/><path d="M32 4l-.073.003h-.008c-8.972.056-17.92 9.354-17.92 16.332V32h18V4.008z" opacity=".1"/><path d="M32 12.001c1.653 0 3 1.248 3 2.786v7.429C35 23.752 33.653 25 32 25s-3-1.248-3-2.786v-7.43C29 13.25 30.347 12 32 12" opacity=".2"/><path d="M32 11.001c1.653 0 3 1.248 3 2.786v7.429C35 22.752 33.653 24 32 24s-3-1.248-3-2.786v-7.43C29 12.25 30.347 11 32 11" fill="#e4e4e4"/><path d="M32 4c-.024 0-.05.004-.074.004h-.008C22.946 4.06 14 13.358 14 20.336v1c0-6.978 8.946-16.276 17.918-16.332h.008c.024 0 .05-.004.074-.004v.008c9.012.058 18 9.713 18 16.965v-1c0-7.252-8.988-16.907-18-16.965z" fill="#fff" opacity=".1"/></g></svg>