<svg width="128" height="128" version="1.1" viewBox="0 0 128 128" xmlns="http://www.w3.org/2000/svg"><defs><filter id="a" color-interpolation-filters="sRGB"><feFlood flood-color="#908B78" flood-opacity=".498" result="flood"/><feComposite in="flood" in2="SourceGraphic" operator="in" result="composite1"/><feGaussianBlur in="composite1" result="blur" stdDeviation="1.5"/><feOffset dx="0" dy="1.5" result="offset"/><feComposite in="SourceGraphic" in2="offset" result="composite2"/></filter></defs><title>deepin-calculator</title><g transform="translate(5.861 4.953) scale(1.8168)" filter="url(#a)"><path d="M41.986 22L42 60H7.014C4.014 60 4 57.488 4 57.488V25s0-3 3-3z" fill="#e4e4e4"/><path d="M6.986 22C4 22 4 25 4 25l.006.941c.003-.176.087-2.941 2.98-2.941H42v-1z" fill="#fff" opacity=".1"/><path d="M19.143 30.763c.825.571 1.587 1.27 2.286 2.095L20.19 34.38c-.763-.952-1.557-1.746-2.382-2.38l1.333-1.238m0 6a20.454 20.454 0 0 1 2.19 1.905l-1.237 1.619A12.916 12.916 0 0 0 17.809 38l1.333-1.238m.38 6.57l1.525 1.049a31.665 31.665 0 0 1-3.334 7.521l-1.619-1.238a33.425 33.425 0 0 0 3.43-7.333M23.998 30l1.81.381a8.587 8.587 0 0 1-.572 1.81h7.428v1.714h-8.19l-.857 1.428c-.254.508-.667 1.048-1.238 1.62l-1.143-1.334c1.206-1.46 2.127-3.333 2.762-5.619m-.476 5.905h8.762c0 1.968-.032 3.81-.096 5.523h1.238v1.715h-1.333a86.985 86.985 0 0 0-.286 3.904h1.429v1.62h-1.62c-.253 2.221-1.143 3.333-2.667 3.333-.381 0-.92-.063-1.62-.19l-.285-1.62c.826.128 1.46.191 1.905.191s.73-.571.857-1.714H22.38c.254-1.714.476-3.555.666-5.524h-1.333v-1.714h1.524c.127-1.777.222-3.619.285-5.523m1.429 5.523h5.429c.063-1.333.095-2.634.095-3.904h-5.238a66.247 66.247 0 0 1-.286 3.904M27.334 38a11.15 11.15 0 0 1 1.905 1.524l-1.143 1.429a12.24 12.24 0 0 0-1.905-1.715L27.333 38M30 47.048c.127-1.334.222-2.635.286-3.905h-5.429a59.898 59.898 0 0 1-.476 3.905H30m-2.952-3.429c.761.445 1.46.952 2.095 1.524l-1.238 1.428a13.222 13.222 0 0 0-2-1.81l1.143-1.142m-10-11.333v14.952h-1.715v-1.619h-1.619v2.476H12V32.286h5.048M13.714 44h1.62V33.905h-1.62V44M4 57.488v1S4.015 61 7.016 61H42v-1H7.016C4.016 60 4 57.488 4 57.488z" opacity=".2"/><path d="M41.992 22l-20-18v38l20 18z" fill="#a3a3a3"/><path d="M22 4.001V42h34.987C59.986 42 60 39.487 60 39.487L59.986 7s0-3-2.999-3z" fill="#2095f2"/><path d="M38.421 26c.85-3.063 1.623-6.246 2.26-9h.136c.793 3.28 1.51 5.863 2.294 9h-4.69m7.054 9h5.264l-6.884-22h-5.972L31 35h5.061l1.35-5h6.714l1.35 5" opacity=".2"/><path d="M38.421 25c.85-3.063 1.623-6.246 2.26-9h.136c.793 3.28 1.51 5.863 2.294 9h-4.69m7.054 9h5.264l-6.884-22h-5.972L31 34h5.061l1.35-5h6.714l1.35 5" fill="#fff"/><path d="M22 4v1h35c3 0 3 3 3 3V7s0-3-3-3z" fill="#fff" opacity=".1"/><path d="M60 39.496C60 39.52 59.97 42 56.984 42H22v1h34.984C59.97 43 60 40.52 60 40.496z" opacity=".2"/></g></svg>