<svg width="128" height="128" version="1.1" viewBox="0 0 128 128" xmlns="http://www.w3.org/2000/svg"><defs><filter id="a" color-interpolation-filters="sRGB"><feFlood flood-color="#908B78" flood-opacity=".498" result="flood"/><feComposite in="flood" in2="SourceGraphic" operator="in" result="composite1"/><feGaussianBlur in="composite1" result="blur" stdDeviation="1"/><feOffset dx="0" dy="1" result="offset"/><feComposite in="SourceGraphic" in2="offset" result="composite2"/></filter></defs><title>deepin-clone</title><g transform="translate(.282 -.713) scale(1.9912)" filter="url(#a)"><path d="M59.958 31.828A28 28 0 0 1 32 59 28 28 0 0 1 4.044 32.172 28 28 0 0 0 4 33a28 28 0 0 0 28 28 28 28 0 0 0 28-28 28 28 0 0 0-.042-1.172z" opacity=".2"/><circle cx="32" cy="32" r="28" fill="#36bb94"/><path d="M26 17c-1.33 0-2 .826-2 1.852V41h-6l8 8 8-8h-6V18.852C28 17.826 27.33 17 26 17zm12 0l-8 8h6v22.148c0 1.026.67 1.852 2 1.852s2-.826 2-1.852V25h6l-8-8z" fill-rule="evenodd" opacity=".2"/><path d="M26 16c-1.33 0-2 .826-2 1.852V40h-6l8 8 8-8h-6V17.852C28 16.826 27.33 16 26 16zm12 0l-8 8h6v22.148c0 1.026.67 1.852 2 1.852s2-.826 2-1.852V24h6l-8-8z" fill="#fff" fill-rule="evenodd"/><path d="M31.998 4A28 28 0 0 0 4 32a28 28 0 0 0 .018.492A28 28 0 0 1 31.998 5H32a28 28 0 0 1 27.973 27.5 28 28 0 0 0 .025-.5A28 28 0 0 0 32 4z" fill="#fff" opacity=".2"/></g></svg>