<svg width="128" height="128" version="1.1" viewBox="0 0 128 128" xmlns="http://www.w3.org/2000/svg"><title>软件包安装器-128px</title><defs><linearGradient id="b" x1="21.831" x2="21.831" y1="74.9" y2="85.096" gradientTransform="scale(2.1949 .45561)" gradientUnits="userSpaceOnUse"><stop stop-color="#fff" offset="0"/><stop stop-color="#C9DAE9" offset="1"/></linearGradient><filter id="a" color-interpolation-filters="sRGB"><feFlood flood-color="#908B78" flood-opacity=".498" result="flood"/><feComposite in="flood" in2="SourceGraphic" operator="in" result="composite1"/><feGaussianBlur in="composite1" result="blur" stdDeviation="1.5"/><feOffset dx="0" dy="1.5" result="offset"/><feComposite in="SourceGraphic" in2="offset" result="composite2"/></filter></defs><g fill-rule="evenodd" filter="url(#a)"><path d="M22 112.355c0 1.378.993 2.63 2.636 2.63h79.083s2.549 0 2.633-2.63v-1.316c-.084 2.631-2.633 2.631-2.633 2.631H24.636c-1.643 0-2.636-1.252-2.636-2.631z" opacity=".1"/><path d="M22 15c0-1.526.993-2.631 2.636-2.631h55.382v1.316H24.636c-1.643 0-2.636 1.105-2.636 2.63v48.02z" fill="#fff" opacity=".197"/><path d="M103.72 114.986H24.636c-1.644 0-2.636-1.252-2.636-2.631V15c0-1.526.992-2.63 2.636-2.63h55.382l26.334 26.311v73.674c-.085 2.631-2.634 2.631-2.634 2.631z" fill="#92d700"/><path d="M82.441 38.755c-1.455 0-2.448-1.253-2.448-2.705V12.37l26.36 26.311z" fill="#ff5491"/><g><path d="M100.045 113.336H27.999c-6.004 0-6.004-5.393-6.004-5.393V14.256c0-1.622 1.256-2.797 3.002-2.797h57.036l24.015 23.971v71.915c0 5.993-6.004 5.993-6.004 5.993z" fill="#d70751" stroke-width="2.546"/><path d="M85.035 35.43c-1.547 0-3.002-1.452-3.002-2.996V11.459l24.015 23.971z" fill="#ff5491" stroke-width="2.546"/><path d="M64.022 68.492L40.007 36.89l24.015 6.238 24.015-6.238zm-14.41-47.943l14.41 3.038 14.41-3.038v4.794l-14.41 3.26-14.41-3.26zm0 9.588l14.41 3.039 14.41-3.039v4.795l-14.41 3.26-14.41-3.26z" fill="#fff" stroke-width="5.091"/></g><g transform="matrix(1.318 0 0 1.3156 .913 1.844)"><rect x="12" y="36" width="72" height="52" rx="2" fill="#c0d0df"/><path d="M12 37.999c0-1.104.897-2 2-2H82a2 2 0 0 1 2 2V85c0 1.104-.897 2-2 2H14A2 2 0 0 1 12 85z" fill="#dee8f2"/><path d="M91.115 50.175c.45 1.008-.087 1.825-1.19 1.825H5.91c-1.107 0-1.64-.82-1.193-1.825l6.378-14.35C11.544 34.817 12.804 34 13.907 34h67.999c1.104 0 2.366.82 2.814 1.825z" fill="url(#b)"/><path d="M82.371 35.048c.554 0 1.185.41 1.41.915l6.287 14.109c.225.504-.03.914-.593.914l-83.14.051c-.553 0-.818-.412-.598-.907l6.318-14.214c.223-.501.856-.907 1.406-.907z" fill="#f0f8fa"/><g fill="#10acff"><path d="M41.904 66.654h-4.15l.002-.693c0-.236.222-.468.463-.47h3.462c.208 0 .45.237.45.466-.002.181-.004.292-.004.465 0 0 0 .233-.223.233m1.144 3.252c.238 0 .239-.215.239-.236l-.002-.69c0-.233-.233-.237-.233-.237l-4.84-.003c-.464 0-.457-.454-.457-.454-.006-.03 0-.473 0-.473h4.608c1.279 0 1.15-.93 1.15-.93v-.922s.124-1.636-1.61-1.636h-3.881c-1.764 0-1.645 1.614-1.645 1.614v2.337c0 1.63 1.615 1.623 1.615 1.623zM34.527 68.517s.004.227-.23.227c-.251 0-1.477.003-2.23 0-.754-.002-1.678-.169-1.678-1.61 0-1.44 1.026-1.64 1.667-1.64l2.47.002v3.021m1.154-6.285h-.919s-.23 0-.23.24l-.001 1.853h-2.983c-2.167 0-2.549 1.895-2.547 2.795.002.899.39 2.783 2.581 2.781 2.192-.002 2.253.003 3.18.003 1.15 0 1.151-1.156 1.151-1.156v-6.283c0-.233-.233-.233-.233-.233M60.094 63.628h-.921a.232.232 0 0 1-.23-.233v-.93c0-.128.103-.232.23-.232h.921c.127 0 .23.104.23.232v.93a.232.232 0 0 1-.23.233M60.094 69.907h-.921a.232.232 0 0 1-.23-.233v-5.116c0-.128.103-.232.23-.232h.921c.127 0 .23.104.23.232v5.116a.232.232 0 0 1-.23.233M64.47 64.327c-1.692-.002-3.685 0-3.685 0v5.344c0 .105.067.26.276.234l.804-.003c.318.046.308-.235.308-.235l-.006-4.175 2.301-.002c.039 0 .93.018.93 1.161l-.006 3.024c0 .128.103.233.23.233h.92c.128 0 .231-.105.231-.233v-3.13c0-1.289-.611-2.216-2.303-2.218M52.955 65.712s-.004-.227.23-.227c.251 0 1.477-.003 2.23 0 .754.002 1.678.169 1.678 1.61s-1.026 1.64-1.667 1.64l-2.47-.002v-3.021m-1.152 6.285h.917s.23 0 .23-.24l.001-1.853h2.983c2.167 0 2.55-1.895 2.547-2.794-.002-.9-.39-2.784-2.581-2.782-2.192.002-2.251-.002-3.18-.002-1.148 0-1.148 1.156-1.148 1.156v6.282c0 .233.231.233.231.233M49.504 66.654h-4.15l.002-.693c0-.236.222-.468.463-.47h3.462c.208 0 .45.237.45.466-.002.181-.004.292-.004.465 0 0 0 .233-.223.233m1.144 3.252c.238 0 .239-.215.239-.236l-.002-.69c0-.233-.233-.237-.233-.237l-4.84-.003c-.465 0-.457-.454-.457-.454-.006-.03 0-.473 0-.473h4.608c1.279 0 1.15-.93 1.15-.93v-.922s.124-1.636-1.61-1.636h-3.881c-1.764 0-1.645 1.614-1.645 1.614v2.337c0 1.63 1.615 1.623 1.615 1.623z"/></g></g></g></svg>