<svg width="128" height="128" version="1.1" viewBox="0 0 128 128" xmlns="http://www.w3.org/2000/svg"><defs><linearGradient id="b" x1="57" x2="57" y1="4" y2="106" gradientTransform="translate(7.604 8.495)" gradientUnits="userSpaceOnUse"><stop stop-color="#92CF00" offset="0"/><stop stop-color="#57AC00" offset="1"/></linearGradient><linearGradient id="c" x1="37.421" x2="12.171" y1="41.79" y2="41.79" gradientTransform="matrix(1.3094 0 0 .7637 32.604 31.495)" gradientUnits="userSpaceOnUse"><stop stop-color="#F5F5F5" offset="0"/><stop stop-color="#A1E37D" offset="1"/></linearGradient><filter id="a" color-interpolation-filters="sRGB"><feFlood flood-color="#000" flood-opacity=".196" result="flood"/><feComposite in="flood" in2="SourceGraphic" operator="in" result="composite1"/><feGaussianBlur in="composite1" result="blur" stdDeviation="2"/><feOffset dx="0" dy="2" result="offset"/><feComposite in="SourceGraphic" in2="offset" result="composite2"/></filter></defs><title>deepin-calculator</title><g filter="url(#a)"><g fill-rule="evenodd"><path d="M16.271 12.495H96.59c.653 0 1.284.24 1.772.674l16.347 14.53c.569.507.895 1.232.895 1.994v82.136a2.667 2.667 0 0 1-2.667 2.666H16.27a2.667 2.667 0 0 1-2.667-2.666V15.162a2.667 2.667 0 0 1 2.667-2.667z" fill="url(#b)"/><path d="M115.6 70.709V28.59c0-.805-.363-1.566-.989-2.073L98.024 13.09a2.667 2.667 0 0 0-1.678-.594h-80.08a2.667 2.667 0 0 0-2.666 2.667v48.833-47.833a2.667 2.667 0 0 1 2.666-2.667h80.08c.611 0 1.203.21 1.678.594l16.587 13.428c.626.507.989 1.268.989 2.073z" fill="#9af300"/><path d="M115.6 70.209v42.119a2.667 2.667 0 0 1-2.667 2.667H16.266a2.667 2.667 0 0 1-2.666-2.667V63.495v47.833a2.667 2.667 0 0 0 2.666 2.667h96.667a2.667 2.667 0 0 0 2.667-2.667z" fill="#4b9000"/></g><path d="M82.604 56.495h11.34a2.66 2.66 0 0 1 2.66 2.66v33.68a2.66 2.66 0 0 1-2.66 2.66h-58.68a2.66 2.66 0 0 1-2.66-2.66v-9.68a2.66 2.66 0 0 1 2.66-2.66h43.68a2.66 2.66 0 0 0 2.66-2.66v-5.759a2.649 2.649 0 0 0-1.66-.581h-32.34v1.5-18.5h.083c.293 1.15 1.336 2 2.577 2h32.34v-1zm-35-6.34v21.34h-12.34a2.66 2.66 0 0 1-2.66-2.66v-33.68a2.66 2.66 0 0 1 2.66-2.66h58.68a2.66 2.66 0 0 1 2.66 2.66v9.68a2.66 2.66 0 0 1-2.66 2.66h-43.68a2.66 2.66 0 0 0-2.66 2.66z" fill="#58aa00"/><path d="M47.604 70.495v-17h.083c.293 1.15 1.336 2 2.577 2h31.34v-1 18.83-.17a2.66 2.66 0 0 0-2.66-2.66z" fill="url(#c)"/><path d="M93.944 94.495h-58.68a2.66 2.66 0 0 1-2.66-2.66v-9.68a2.66 2.66 0 0 1 2.66-2.66h43.68a2.66 2.66 0 0 0 2.66-2.66v-21.34h12.34a2.66 2.66 0 0 1 2.66 2.66v33.68a2.66 2.66 0 0 1-2.66 2.66zm-46.34-45.34v21.34h-12.34a2.66 2.66 0 0 1-2.66-2.66v-33.68a2.66 2.66 0 0 1 2.66-2.66h58.68a2.66 2.66 0 0 1 2.66 2.66v9.68a2.66 2.66 0 0 1-2.66 2.66h-43.68a2.66 2.66 0 0 0-2.66 2.66z" fill="#fff"/><path d="M93.944 94.495h-58.68a2.66 2.66 0 0 1-2.66-2.66v-8.68a2.66 2.66 0 0 1 2.66-2.66h43.68a2.66 2.66 0 0 0 2.66-2.66v-21.34h12.34a2.66 2.66 0 0 1 2.66 2.66v32.68a2.66 2.66 0 0 1-2.66 2.66zm-46.34-45.34v21.34h-12.34a2.66 2.66 0 0 1-2.66-2.66v-32.68a2.66 2.66 0 0 1 2.66-2.66h58.68a2.66 2.66 0 0 1 2.66 2.66v8.68a2.66 2.66 0 0 1-2.66 2.66h-43.68a2.66 2.66 0 0 0-2.66 2.66z" fill="#f7ffed"/></g></svg>