<svg width="128" height="128" version="1.1" viewBox="0 0 128 128" xmlns="http://www.w3.org/2000/svg"><defs><linearGradient id="b" x1="57" x2="57" y1="4" y2="106" gradientTransform="translate(7 7)" gradientUnits="userSpaceOnUse"><stop stop-color="#FF8767" offset="0"/><stop stop-color="#FF6134" offset="1"/></linearGradient><linearGradient id="c" x1="35.107" x2="11.998" y1="48.009" y2="48.009" gradientTransform="matrix(1.3587 0 0 .73598 32 29)" gradientUnits="userSpaceOnUse"><stop stop-color="#FFD6C2" offset="0"/><stop stop-color="#FFC4B1" offset="1"/></linearGradient><filter id="a" color-interpolation-filters="sRGB"><feFlood flood-color="#000" flood-opacity=".196" result="flood"/><feComposite in="flood" in2="SourceGraphic" operator="in" result="composite1"/><feGaussianBlur in="composite1" result="blur" stdDeviation="2"/><feOffset dx="0" dy="2" result="offset"/><feComposite in="SourceGraphic" in2="offset" result="composite2"/></filter></defs><title>deepin-calculator</title><g filter="url(#a)"><g fill-rule="evenodd"><path d="M15.667 11h80.319c.653 0 1.284.24 1.772.674l16.347 14.53c.569.507.895 1.232.895 1.994v82.136a2.667 2.667 0 0 1-2.667 2.666H15.666a2.667 2.667 0 0 1-2.667-2.666V13.667A2.667 2.667 0 0 1 15.666 11z" fill="url(#b)"/><path d="M115 69.214V27.095c0-.805-.363-1.566-.989-2.073L97.424 11.594A2.667 2.667 0 0 0 95.746 11h-80.08A2.667 2.667 0 0 0 13 13.667V62.5 14.667A2.667 2.667 0 0 1 15.666 12h80.08c.611 0 1.203.21 1.678.594l16.587 13.428c.626.507.989 1.268.989 2.073z" fill="#ffa187"/><path d="M115 68.714v42.119a2.667 2.667 0 0 1-2.667 2.667H15.666A2.667 2.667 0 0 1 13 110.833V62v47.833a2.667 2.667 0 0 0 2.666 2.667h96.667a2.667 2.667 0 0 0 2.667-2.667z" fill="#f53600"/></g><path d="M48 65.333V74h32V58v2H50.667A2.667 2.667 0 0 1 48 57.333v-8.667A2.667 2.667 0 0 1 50.667 46h26.667a2.667 2.667 0 0 1 2.667 2.666V74h13.333A2.667 2.667 0 0 0 96 71.333V34.664A2.667 2.667 0 0 0 93.334 32H34.667A2.667 2.667 0 0 0 32 34.665v56.667A2.667 2.667 0 0 0 34.667 94h10.667A2.667 2.667 0 0 0 48 91.333z" fill="#f53600"/><path d="M80 57v16H48V55.667v.667A2.667 2.667 0 0 0 50.667 59H80z" fill="url(#c)"/><path d="M77.333 45H50.666a2.667 2.667 0 0 0-2.667 2.667v42.667A2.667 2.667 0 0 1 45.333 93H34.666a2.667 2.667 0 0 1-2.667-2.666V31.667A2.667 2.667 0 0 1 34.666 29h58.667a2.667 2.667 0 0 1 2.666 2.667v38.667A2.667 2.667 0 0 1 93.333 73H80V47.667a2.667 2.667 0 0 0-2.667-2.666z" fill="#fff"/><path d="M77.333 45H50.666a2.667 2.667 0 0 0-2.667 2.667v42.667A2.667 2.667 0 0 1 45.333 93H34.666a2.667 2.667 0 0 1-2.667-2.666V32.667A2.667 2.667 0 0 1 34.666 30h58.667a2.667 2.667 0 0 1 2.666 2.667v37.667A2.667 2.667 0 0 1 93.333 73H80V47.667a2.667 2.667 0 0 0-2.667-2.666z" fill="#fff0ec"/></g></svg>