<svg width="32" height="32" version="1.1" viewBox="0 0 32 32" xmlns="http://www.w3.org/2000/svg">
<title>deepin-sound-recorder</title>
<g stroke-width=".72727">
<path d="m9.4545 18.103c0 3.6124 3.2509 6.528 6.5455 6.528s6.5455-2.1891 6.5455-6.528v-3.6436h-13.091zm14.545 0c0 5.4335-3.9782 7.9876-8 7.9876s-8-3.12-8-7.9876v-3.6487h16v0.36727z" fill="#666"/>
<path d="m16 3.5452c-2.8204 0-5.0909 2.2705-5.0909 5.0909v2.1818h4.3636v0.72727h-4.3636v0.72727h4.3636v0.72727h-4.3636v0.72727h4.3636v0.72727h-4.3636v3.6364c0 2.8204 2.2705 5.0909 5.0909 5.0909s5.0909-2.2705 5.0909-5.0909v-3.6364h-4.3636v-0.72727h4.3636v-0.72727h-4.3636v-0.72727h4.3636v-0.72727h-4.3636v-0.72727h4.3636v-2.1818c0-2.8204-2.2705-5.0909-5.0909-5.0909zm0 2.9091a1.0909 1.0909 0 0 1 1.0909 1.0909 1.0909 1.0909 0 0 1-1.0909 1.0909 1.0909 1.0909 0 0 1-1.0909-1.0909 1.0909 1.0909 0 0 1 1.0909-1.0909z" fill="#999" fill-rule="evenodd"/>
<path d="m10.909 27.545v1.4545h10.182v-1.4545h-4.3636v-2.9091h-1.4545v2.9091z" fill="#666" fill-rule="evenodd"/>
</g>
</svg>
