<svg width="32" height="32" version="1.1" viewBox="0 0 32 32" xmlns="http://www.w3.org/2000/svg" xmlns:xlink="http://www.w3.org/1999/xlink">
<defs>
<linearGradient id="linear0" x1="7.8695" x2="20.831" y1="21.8" y2="21.8" gradientTransform="matrix(.51679 .89511 -.76726 .44297 18.799 -1.1005)" gradientUnits="userSpaceOnUse">
<stop stop-color="#cfd4dd" offset="0"/>
<stop stop-color="#e7eaf5" offset=".13714"/>
<stop stop-color="#a5a6ad" offset=".63023"/>
<stop stop-color="#adb0b9" offset="1"/>
</linearGradient>
<linearGradient id="linear1" x1="8.5484" x2="18.076" y1="21.918" y2="23.568" gradientTransform="matrix(.51679 .89511 -.76726 .44297 18.799 -1.1005)" gradientUnits="userSpaceOnUse">
<stop stop-color="#dbdbdb" offset="0"/>
<stop stop-color="#8f959c" offset="1"/>
</linearGradient>
<linearGradient id="linear2" x1="6.8533" x2="16.665" y1="23.513" y2="23.893" gradientTransform="matrix(.63296 1.0963 -.62646 .36169 18.799 -1.1005)" gradientUnits="userSpaceOnUse">
<stop stop-color="#373737" offset="0"/>
<stop stop-color="#5a5a5a" offset=".26111"/>
<stop stop-color="#191919" offset="1"/>
</linearGradient>
<linearGradient id="linear3" x1="11.404" x2="11.404" y1="7.2741" y2="12.356" gradientTransform="matrix(.65028 1.1263 .60975 -.35204 -.65609 10.132)" gradientUnits="userSpaceOnUse">
<stop stop-color="#e4e4e4" offset="0"/>
<stop stop-color="#b1b1b3" offset="1"/>
</linearGradient>
<linearGradient id="linear4" x1="15.758" x2="8.95" y1="13.46" y2="14.037" gradientTransform="matrix(.65028 1.1263 .60975 -.35204 -.65609 10.132)" gradientUnits="userSpaceOnUse">
<stop stop-color="#e4e4e4" stop-opacity="0" offset="0"/>
<stop stop-color="#97979f" stop-opacity=".61961" offset="1"/>
</linearGradient>
<radialGradient id="radial0" cx="13.626" cy="14.12" r="28.176" gradientTransform="matrix(.71612 1.2404 -.55372 .31969 18.799 -1.1005)" gradientUnits="userSpaceOnUse">
<stop stop-color="#4f5254" offset="0"/>
<stop stop-color="#1e1f20" offset="1"/>
</radialGradient>
<linearGradient id="linear5" x1="17.178" x2="1.5313" y1="11.413" y2="10.851" gradientTransform="matrix(.71612 1.2404 -.55372 .31969 18.799 -1.1005)" gradientUnits="userSpaceOnUse">
<stop stop-color="#343434" offset="0"/>
<stop stop-color="#141414" offset="1"/>
</linearGradient>
<radialGradient id="radial1" cx="9.7503" cy="15.797" r="7.4826" gradientTransform="matrix(.67665 1.172 -.58601 .33833 18.799 -1.1005)" gradientUnits="userSpaceOnUse">
<stop stop-color="#ababab" offset="0"/>
<stop stop-color="#5d6168" offset="1"/>
</radialGradient>
<filter id="filter973" x="-.037381" y="-.034718" width="1.0748" height="1.0694" color-interpolation-filters="sRGB">
<feGaussianBlur stdDeviation="0.38586507"/>
</filter>
</defs>
<path d="m14.764 2c-0.73343-0.035163-1.4078 0.10505-2.0117 0.41211 0.01597-0.011101 0.02876-0.026264 0.04492-0.037109-0.06745 0.031951-0.1304 0.068044-0.19141 0.10352-0.0074 0.0042-0.01606 0.00551-0.02344 0.00977-1.1163 0.64463-1.8056 1.8673-2.0957 3.457-0.74412 1.8772-1.3096 4.6343-1.7109 8.1895-0.14206 0.04735-0.28101 0.10617-0.41211 0.18164-0.30452 0.17596-0.55338 0.42262-0.75586 0.71875-2.5937 1.5332-3.4766 4.8685-1.9668 7.4844l0.95703 1.6562c1.5122 2.6201 4.8495 3.524 7.4766 2.0352 0.35312-0.02864 0.68724-0.11902 0.98828-0.29297 0.13144-0.07567 0.25086-0.16621 0.36328-0.26562 3.2873 1.4339 5.9617 2.3247 7.9609 2.6172l0.0019 2e-3c1.517 0.53884 2.915 0.5509 4.0293-0.0918 0.06641-0.03907 0.13672-0.08204 0.20312-0.12891l-0.08203 0.04102c0.16592-0.10563 0.33026-0.21445 0.47656-0.3457 2.7522-2.4692 2.0408-9.3496-1.8008-16-3.3261-5.7637-7.981-9.5798-11.451-9.7461z" fill="#ccc" fill-rule="evenodd" filter="url(#filter973)"/>
<g fill-rule="evenodd">
<path d="m14.93 16.602c-1.3867-2.4023-4.457-3.2266-6.8594-1.8398l-0.41406 0.24219c-2.6328 1.5195-3.5352 4.8828-2.0156 7.5156l0.95703 1.6562c1.5195 2.6328 4.8828 3.5352 7.5156 2.0156l0.41406-0.23828c2.4023-1.3906 3.2266-4.4609 1.8398-6.8633z" fill="url(#linear0)" stroke="url(#linear1)" stroke-width=".47847"/>
<path d="m15.062 25.918c1.832-1.0547 1.8164-4.5117-0.035156-7.7148-1.8477-3.2031-4.832-4.9414-6.6641-3.8867-1.832 1.0586-1.8164 4.5117 0.035157 7.7148 1.8477 3.2031 4.832 4.9453 6.6641 3.8867z" fill="url(#linear2)"/>
<path d="m14.16 25.105c8.3008 3.8008 12.879 4.3047 13.746 1.5156 1.4102-4.5586-9.0781-22.723-13.73-23.777-2.8438-0.64453-4.6992 3.5742-5.5586 12.66-0.38281 4.0547 1.8398 7.9062 5.543 9.6016z" fill="url(#linear3)"/>
<path d="m14.16 25.105c8.3008 3.8008 12.879 4.3047 13.746 1.5156 1.4102-4.5586-9.0781-22.723-13.73-23.777-2.8438-0.64453-4.6992 3.5742-5.5586 12.66-0.38281 4.0547 1.8398 7.9062 5.543 9.6016z" fill="url(#linear4)"/>
<g>
<path d="m27.418 28.18c3.4297-1.9844 2.8945-9.3398-1.2031-16.434-4.0938-7.0938-10.199-11.238-13.633-9.2578-3.4297 1.9805-2.8945 9.3398 1.2031 16.434 4.0938 7.0938 10.199 11.238 13.633 9.2578z"/>
<path d="m27.418 28.18c3.4297-1.9844 2.8945-9.3398-1.2031-16.434-4.0938-7.0938-10.199-11.238-13.633-9.2578-3.4297 1.9805-2.8945 9.3398 1.2031 16.434 4.0938 7.0938 10.199 11.238 13.633 9.2578z" fill="#fafafa"/>
<path d="m27.621 28.051c-0.06641 0.04687-0.13672 0.08984-0.20312 0.12891-3.4336 1.9805-9.5391-2.1641-13.633-9.2578-4.0977-7.0938-4.6328-14.453-1.1992-16.434 0.066406-0.039062 0.13672-0.078125 0.21094-0.11328-3.207 2.1523-2.6094 9.3555 1.4023 16.309 3.9727 6.8789 9.832 10.984 13.312 9.4219z" fill="#a1a1a1"/>
</g>
<path d="m26.785 26.609c2.7461-1.5859 2.0273-7.9727-1.6055-14.266-3.6328-6.293-8.8047-10.109-11.551-8.5234-2.7461 1.582-2.0273 7.9727 1.6055 14.266 3.6328 6.293 8.8047 10.109 11.551 8.5234z" fill="url(#radial0)" stroke="url(#linear5)" stroke-width=".47847"/>
<path d="m20 15.332c1.5859 2.7461 1.6641 5.668 0.17578 6.5273-0.83984 0.48828-2 0.20703-3.1406-0.62109-0.70312-0.92969-1.3789-1.9453-2.0078-3.0352s-1.1719-2.1836-1.6211-3.2539c-0.15234-1.4023 0.1875-2.5469 1.0312-3.0352 1.4844-0.85547 3.9766 0.67188 5.5625 3.418z"/>
<path d="m20 15.332c1.5859 2.7461 1.6641 5.668 0.17578 6.5273-0.83984 0.48828-2 0.20703-3.1406-0.62109-0.70312-0.92969-1.3789-1.9453-2.0078-3.0352s-1.1719-2.1836-1.6211-3.2539c-0.15234-1.4023 0.1875-2.5469 1.0312-3.0352 1.4844-0.85547 3.9766 0.67188 5.5625 3.418z" fill="url(#radial1)"/>
</g>
</svg>
