<svg width="32" height="32" version="1.1" viewBox="0 0 32 32" xmlns="http://www.w3.org/2000/svg" xmlns:xlink="http://www.w3.org/1999/xlink">
<defs>
<filter id="filter839" x="-.034087" y="-.038141" width="1.0682" height="1.0763" color-interpolation-filters="sRGB">
<feGaussianBlur stdDeviation="0.26508131"/>
</filter>
</defs>
<path d="m14.801 7.3984c-4.668 0.53516-8.1328 4.7344-8.1328 9.4688v2.6016c0 2.4648 2 4.3984 4.3984 4.3984 0.53516 0 0.93359-0.39844 0.93359-0.93359v-4.8672c0-0.86719-0.73438-1.5977-1.6016-1.5977h-1.0664c-0.79688 0-1.332-0.66797-1.1992-1.4688 0.66797-3.7344 3.9336-6.3984 7.8672-6.3984s7.1992 2.6641 7.8672 6.5312c0.13281 0.80078-0.46875 1.4688-1.1992 1.4688h-1.0664c-0.86719 0-1.6016 0.73047-1.6016 1.5977v4.8672c0 0.53516 0.39844 0.93359 0.93359 0.93359 2.4648 0 4.3984-2 4.3984-4.3984v-3c0-5.4688-4.8672-9.9336-10.531-9.2031z" fill="#b3b3b3" filter="url(#filter839)"/>
<path d="m14.801 7.3984c-4.668 0.53516-8.1328 4.7344-8.1328 9.4688v2.6016c0 2.4648 2 4.3984 4.3984 4.3984 0.53516 0 0.93359-0.39844 0.93359-0.93359v-4.8672c0-0.86719-0.73438-1.5977-1.6016-1.5977h-1.0664c-0.79688 0-1.332-0.66797-1.1992-1.4688 0.66797-3.7344 3.9336-6.3984 7.8672-6.3984s7.1992 2.6641 7.8672 6.5312c0.13281 0.80078-0.46875 1.4688-1.1992 1.4688h-1.0664c-0.86719 0-1.6016 0.73047-1.6016 1.5977v4.8672c0 0.53516 0.39844 0.93359 0.93359 0.93359 2.4648 0 4.3984-2 4.3984-4.3984v-3c0-5.4688-4.8672-9.9336-10.531-9.2031z" fill="#0a7ac5"/>
</svg>
