<svg width="32" height="32" version="1.1" viewBox="0 0 32 32" xmlns="http://www.w3.org/2000/svg" xmlns:xlink="http://www.w3.org/1999/xlink">
<defs>
<clipPath>
<rect width="32" height="32"/>
</clipPath>
<linearGradient id="linear0" x1="9.9897" x2="37.99" y1="26.5" y2="26.5" gradientTransform="matrix(.64323 0 0 .65718 .56225 .085384)" gradientUnits="userSpaceOnUse">
<stop stop-color="#92e000" offset="0"/>
<stop stop-color="#92d600" offset="1"/>
</linearGradient>
<filter id="filter880" x="-.043983" y="-.03047" width="1.088" height="1.0609" color-interpolation-filters="sRGB">
<feGaussianBlur stdDeviation="0.33008789"/>
</filter>
</defs>
<path d="m12.652 3c-0.36719 0-0.66406 0.30078-0.66406 0.66797v2.332h-4.3555c-0.35805 0-0.64453 0.29239-0.64453 0.6582v21.687c1e-7 0.36196 0.28648 0.6543 0.64453 0.6543h16.723c0.35428 0 0.64453-0.29234 0.64453-0.6543v-21.687c0-0.36581-0.29025-0.6582-0.64453-0.6582h-4.3672v-2.332c0-0.36719-0.30078-0.66797-0.66797-0.66797z" fill="#ccc" filter="url(#filter880)"/>
<g>
<path d="m25 28.345c0 0.36196-0.29021 0.65461-0.64449 0.65461h-16.723c-0.35805 0-0.64449-0.29265-0.64449-0.65461v-21.687c0-0.36581 0.28644-0.65846 0.64449-0.65846h16.723c0.35428 0 0.64449 0.29265 0.64449 0.65846z" fill="url(#linear0)"/>
<path d="m19.988 3.668c0-0.36719-0.30078-0.66797-0.66797-0.66797h-6.668c-0.36719 0-0.66406 0.30078-0.66406 0.66797v2.332h8z" fill="#dcebc7"/>
</g>
</svg>
