<svg width="32" height="32" version="1.1" viewBox="0 0 32 32" xmlns="http://www.w3.org/2000/svg">
<title>计算机-32px</title>
<defs>
<linearGradient id="a" x1="12.649" x2="12.649" y1="8.8116" y2="26.563" gradientTransform="scale(1.2649 .79057)" gradientUnits="userSpaceOnUse">
<stop stop-color="#0E004D" offset="0"/>
<stop stop-color="#4735E4" offset="1"/>
</linearGradient>
<filter id="filter924" x="-.034071" y="-.03816" width="1.0681" height="1.0763" color-interpolation-filters="sRGB">
<feGaussianBlur stdDeviation="0.39750042"/>
</filter>
</defs>
<g fill-rule="evenodd">
<path d="m2.9961 4c-0.557 0-0.99609 0.44995-0.99609 1.002v19.996a0.994 0.994 0 0 0 0.99609 1.002h-0.12109c-0.48475 0-0.875 0.39025-0.875 0.875v1.25c0 0.48475 0.39025 0.875 0.875 0.875h26.25c0.48475 0 0.875-0.39025 0.875-0.875v-1.25c0-0.48475-0.39025-0.875-0.875-0.875h-0.12109a0.995 0.995 0 0 0 0.99609-1.002v-19.996c0-0.562-0.44609-1.002-0.99609-1.002h-26.008z" fill="#ccc" filter="url(#filter924)"/>
<path d="M 2,5.002 C 2,4.45 2.44,4 2.997,4 H 29.003 C 29.553,4 30,4.44 30,5.002 V 24.998 A 0.995,0.995 0 0 1 29.003,26 H 2.997 A 0.994,0.994 0 0 1 2,24.998 Z" fill="#f6fcff"/>
<rect x="2" y="26" width="28" height="3" rx=".875" fill="#f6fcff"/>
<path d="m3 5.49c0-0.27 0.225-0.49 0.496-0.49h25.008a0.49 0.49 0 0 1 0.496 0.49v16.02c0 0.27-0.225 0.49-0.496 0.49h-25.008a0.49 0.49 0 0 1-0.496-0.49z"/>
<path d="m4 6h24v15h-24z" fill="url(#a)"/>
<path d="M 28,15.632 26,14.647 23.333,11.527 22,12.157 19.333,9 18,10.263 16.667,9 11.285,15.054 6.333,15.632 4,16.895 V 21 H 27.333 A 0.659,0.659 0 0 0 28,20.342 Z" fill="#3612c1"/>
<path d="m12 21 12.667-3.158 3.333 1.895v1.263z" fill="#4224ca"/>
<path d="m21.667 15.632 1.666-4.106 1.334 6.316z" fill="#5042ec"/>
<path d="m16.667 9-2 4.235-2 2.712-3.334 1.264z" fill="#ab76ef"/>
<path d="m18 12.158-1.333 0.631 3.333 0.948 0.667-0.569-1.334-1.642z" fill="#4531d8"/>
<path d="m17.333 10.895-2.666 2.34 2-0.446 2.666-1.263z" fill="#7365ee"/>
<path d="m14.667 13.235 1.666 3.154-3.666-0.442z" fill="#5241eb"/>
<path d="m12.667 15.947-3.334 1.264 2 1.389z" fill="#6c51ef"/>
<path d="m7.333 18.663 4-0.063 0.667 2.4z" fill="#3e2bcd"/>
<path d="m11.333 18.6 6-2.653 1.334-1.263 0.333 1.263-7 5.053z" fill="#593ef3"/>
<path d="M 4,21 7.333,18.663 12,21 Z" fill="#4735e4"/>
<path d="m17.333 10.895-0.666-1.895-1.334 2.824z" fill="#523de0"/>
<path d="m12 21 6-5.053 3.667-0.315 3 2.21z" fill="#654af8"/>
<path d="m18.667 14.684 3.333-2.526 1.333-0.632-1.666 4.106-4.334 0.947z" fill="#7f5ef1"/>
<path d="m18.667 14.684-1.334 1.895 3-1.579 3-3.474-1.333 0.632z" fill="#b57bff"/>
<path d="m19.333 9-2 1.895 2 0.631z" fill="#ab76ef"/>
<path d="m16.667 12.789 2 1.895-1.334 1.263-1.066 0.379z" fill="#442ae7"/>
<path d="m9.333 17.211-3-1.579 5-0.632z" fill="#7f5ef1"/>
<path d="m6.333 15.632-2.333 1.263 5.333 0.316z" fill="#593ef3"/>
<path d="M 8,17.526 7.333,18.663 4,21 v -2.526 z" fill="#452ac5"/>
<path d="m21.667 15.632-0.334 3.031 3.334-0.821z" fill="#411bce"/>
<path d="m4 18.474v-1.579l5.333 0.316z" fill="#6f4ee6"/>
<path d="m4 6h6.5l8.5 15h-15z" fill="#fff" opacity=".123"/>
</g>
</svg>
