<svg width="32" height="32" version="1.1" viewBox="0 0 32 32" xmlns="http://www.w3.org/2000/svg">
<defs>
<filter id="filter856" x="-.0423" y="-.031333" width="1.0846" height="1.0627" color-interpolation-filters="sRGB">
<feGaussianBlur stdDeviation="0.35250019"/>
</filter>
</defs>
<title>android-device-32px</title>
<g fill-rule="evenodd">
<path d="m6 2.993a1.2438 0.995 0 0 1 1.25-0.993h17.5c0.69 0 1.25 0.446 1.25 0.993v25.014a1.2438 0.995 0 0 1-1.25 0.993h-17.5c-0.69 0-1.25-0.446-1.25-0.993z" fill="#b3b3b3" filter="url(#filter856)"/>
<path d="m6 2.993a1.2438 0.995 0 0 1 1.25-0.993h17.5c0.69 0 1.25 0.446 1.25 0.993v25.014a1.2438 0.995 0 0 1-1.25 0.993h-17.5c-0.69 0-1.25-0.446-1.25-0.993z" fill="#c1b6aa"/>
<path d="m7 3.5c0-0.276 0.28286-0.5 0.64028-0.5h16.719c0.35357 0 0.64028 0.216 0.64028 0.5v24c0 0.276-0.28286 0.5-0.64028 0.5h-16.719a0.63514 0.494 0 0 1-0.64028-0.5z" fill="#f7ebde"/>
<path d="m8 6h16v20h-16z" fill="#1a1a1a"/>
<circle cx="19.5" cy="4.5" r=".5" fill="#1c1c1c"/>
</g>
<path d="m14.5 4.5h3" fill="none" stroke="#8a837b" stroke-linecap="round"/>
</svg>
