<?xml version="1.0" encoding="UTF-8" standalone="no"?>
<svg viewBox="0 0 50 50"
 xmlns="http://www.w3.org/2000/svg" xmlns:xlink="http://www.w3.org/1999/xlink"  version="1.2" baseProfile="tiny">
<title>Qt SVG Document</title>
<desc>Generated with Qt</desc>
<defs>
</defs>
<g fill="none" stroke="black" stroke-width="1" fill-rule="evenodd" stroke-linecap="square" stroke-linejoin="bevel" >

<g fill="#2eb398" fill-opacity="1" stroke="none" transform="matrix(2.27273,0,0,2.27273,-155.519,149.162)"
font-family="Noto Sans" font-size="10" font-weight="400" font-style="normal" 
opacity="0.905294" >
<ellipse cx="79.4283" cy="-54.6314" rx="8.25" ry="8.25"/>
</g>

<g fill="#888888" fill-opacity="1" stroke="none" transform="matrix(2.27273,0,0,2.27273,-155.519,149.162)"
font-family="Noto Sans" font-size="10" font-weight="400" font-style="normal" 
opacity="0.15" >
<path vector-effect="none" fill-rule="nonzero" d="M79.4283,-64.2564 C74.1126,-64.2564 69.8033,-59.9472 69.8033,-54.6314 C69.8033,-49.3157 74.1126,-45.0064 79.4283,-45.0064 C84.744,-45.0064 89.0533,-49.3157 89.0533,-54.6314 C89.0533,-59.9472 84.744,-64.2564 79.4283,-64.2564 M79.4283,-62.8814 C83.9846,-62.8814 87.6783,-59.1878 87.6783,-54.6314 C87.6783,-50.0751 83.9846,-46.3814 79.4283,-46.3814 C74.872,-46.3814 71.1783,-50.0751 71.1783,-54.6314 C71.1783,-59.1878 74.872,-62.8814 79.4283,-62.8814 "/>
</g>

<g fill="#ffffff" fill-opacity="1" stroke="none" transform="matrix(3.125,0,0,3.125,-253.842,-3022.22)"
font-family="Noto Sans" font-size="10" font-weight="400" font-style="normal" 
>
<path vector-effect="none" fill-rule="evenodd" d="M84.8679,975.159 L88.2496,975.159 C88.6999,975.159 89.0659,975.528 89.0684,975.978 L89.0684,979.36 L84.8679,975.159"/>
</g>

<g fill="#ffffff" fill-opacity="1" stroke="none" transform="matrix(3.125,0,0,3.125,-253.842,-3022.22)"
font-family="Noto Sans" font-size="10" font-weight="400" font-style="normal" 
>
<path vector-effect="none" fill-rule="evenodd" d="M93.5911,975.064 L90.2094,975.064 C89.7591,975.064 89.3931,974.696 89.3906,974.245 L89.3906,970.864 L93.5911,975.064"/>
</g>

<g fill="none" stroke="none" transform="matrix(2.27273,0,0,2.27273,-155.519,149.162)"
font-family="Noto Sans" font-size="10" font-weight="400" font-style="normal" 
>
<rect x="68.4283" y="-65.6314" width="22" height="22"/>
</g>

<g fill="none" stroke="#000000" stroke-opacity="1" stroke-width="1" stroke-linecap="square" stroke-linejoin="bevel" transform="matrix(1,0,0,1,0,0)"
font-family="Noto Sans" font-size="10" font-weight="400" font-style="normal" 
>
</g>
</g>
</svg>
