<?xml version="1.0" encoding="UTF-8" standalone="no"?>
<svg viewBox="0 0 50 50"
 xmlns="http://www.w3.org/2000/svg" xmlns:xlink="http://www.w3.org/1999/xlink"  version="1.2" baseProfile="tiny">
<title>Qt SVG Document</title>
<desc>Generated with Qt</desc>
<defs>
</defs>
<g fill="none" stroke="black" stroke-width="1" fill-rule="evenodd" stroke-linecap="square" stroke-linejoin="bevel" >

<g fill="#2eb398" fill-opacity="1" stroke="none" transform="matrix(3.125,0,0,3.125,-4043.75,-771.875)"
font-family="Noto Sans" font-size="10" font-weight="400" font-style="normal" 
opacity="0.905294" >
<ellipse cx="1302" cy="255" rx="6" ry="6"/>
</g>

<g fill="#888888" fill-opacity="1" stroke="none" transform="matrix(3.125,0,0,3.125,-4043.75,-771.875)"
font-family="Noto Sans" font-size="10" font-weight="400" font-style="normal" 
opacity="0.15" >
<path vector-effect="none" fill-rule="nonzero" d="M1302,248 C1298.13,248 1295,251.134 1295,255 C1295,258.866 1298.13,262 1302,262 C1305.87,262 1309,258.866 1309,255 C1309,251.134 1305.87,248 1302,248 M1302,249 C1305.31,249 1308,251.686 1308,255 C1308,258.314 1305.31,261 1302,261 C1298.69,261 1296,258.314 1296,255 C1296,251.686 1298.69,249 1302,249 "/>
</g>

<g fill="#ffffff" fill-opacity="1" stroke="none" transform="matrix(3.125,0,0,3.125,-253.126,-3021.88)"
font-family="Noto Sans" font-size="10" font-weight="400" font-style="normal" 
>
<path vector-effect="none" fill-rule="evenodd" d="M87.7997,972 L91.1814,972 C91.6317,972 91.9977,972.368 92.0002,972.819 L92.0002,976.201 L87.7997,972 M90.2071,978.007 L86.812,978.007 C86.3617,978.007 85.9933,977.639 85.9933,977.188 L85.9933,973.793 L90.2071,978.007"/>
</g>

<g fill="none" stroke="none" transform="matrix(3.125,0,0,3.125,-1603.13,580.118)"
font-family="Noto Sans" font-size="10" font-weight="400" font-style="normal" 
>
<rect x="513" y="-185.638" width="16" height="16"/>
</g>

<g fill="none" stroke="#000000" stroke-opacity="1" stroke-width="1" stroke-linecap="square" stroke-linejoin="bevel" transform="matrix(1,0,0,1,0,0)"
font-family="Noto Sans" font-size="10" font-weight="400" font-style="normal" 
>
</g>
</g>
</svg>
