<?xml version="1.0" encoding="UTF-8" standalone="no"?>
<svg viewBox="0 0 50 50"
 xmlns="http://www.w3.org/2000/svg" xmlns:xlink="http://www.w3.org/1999/xlink"  version="1.2" baseProfile="tiny">
<title>Qt SVG Document</title>
<desc>Generated with Qt</desc>
<defs>
</defs>
<g fill="none" stroke="black" stroke-width="1" fill-rule="evenodd" stroke-linecap="square" stroke-linejoin="bevel" >

<g fill="#fac536" fill-opacity="1" stroke="none" transform="matrix(2.27273,0,0,2.27273,-2868.18,-554.546)"
font-family="Noto Sans" font-size="10" font-weight="400" font-style="normal" 
opacity="0.905294" >
<ellipse cx="1273" cy="255" rx="6" ry="6"/>
</g>

<g fill="#888888" fill-opacity="1" stroke="none" transform="matrix(2.27273,0,0,2.27273,-2868.18,-554.546)"
font-family="Noto Sans" font-size="10" font-weight="400" font-style="normal" 
opacity="0.15" >
<path vector-effect="none" fill-rule="nonzero" d="M1273,248 C1269.13,248 1266,251.134 1266,255 C1266,258.866 1269.13,262 1273,262 C1276.87,262 1280,258.866 1280,255 C1280,251.134 1276.87,248 1273,248 M1273,249 C1276.31,249 1279,251.686 1279,255 C1279,258.314 1276.31,261 1273,261 C1269.69,261 1267,258.314 1267,255 C1267,251.686 1269.69,249 1273,249 "/>
</g>

<g fill="none" stroke="none" transform="matrix(2.27273,0,0,2.27273,-1093.18,428.722)"
font-family="Noto Sans" font-size="10" font-weight="400" font-style="normal" 
>
<rect x="484" y="-185.638" width="16" height="16"/>
</g>

<g fill="#000000" fill-opacity="1" stroke="none" transform="matrix(2.27273,0,0,2.27273,-57.6271,4.66101)"
font-family="Noto Sans" font-size="10" font-weight="400" font-style="normal" 
opacity="0" >
<rect x="25.3559" y="-2.05085" width="22" height="22"/>
</g>

<g fill="none" stroke="#000000" stroke-opacity="1" stroke-width="1" stroke-linecap="square" stroke-linejoin="bevel" transform="matrix(1,0,0,1,0,0)"
font-family="Noto Sans" font-size="10" font-weight="400" font-style="normal" 
>
</g>
</g>
</svg>
