<?xml version="1.0" encoding="UTF-8" standalone="no"?>
<svg
   xmlns:dc="http://purl.org/dc/elements/1.1/"
   xmlns:cc="http://creativecommons.org/ns#"
   xmlns:rdf="http://www.w3.org/1999/02/22-rdf-syntax-ns#"
   xmlns:svg="http://www.w3.org/2000/svg"
   xmlns="http://www.w3.org/2000/svg"
   version="1.1"
   id="svg2"
   width="1024"
   height="1024"
   viewBox="0 0 1024 1024">
  <metadata
     id="metadata8">
    <rdf:RDF>
      <cc:Work
         rdf:about="">
        <dc:format>image/svg+xml</dc:format>
        <dc:type
           rdf:resource="http://purl.org/dc/dcmitype/StillImage" />
        <dc:title></dc:title>
      </cc:Work>
    </rdf:RDF>
  </metadata>
  <defs
     id="defs6" />
  <g
     style="fill:#000000"
     id="g10">
    <path
       style="fill:#000000;fill-opacity:1"
       d="m 333,900 v -74 h 20 20 v 74 74 h -20 -20 z m 106,0 v -74 h 20 20 v 74 74 h -20 -20 z m 106,0 v -74 h 20 20 v 74 74 h -20 -20 z m 106,0 v -74 h 20.5 20.5 v 74 74 H 671.5 651 Z M 122,811 v -91 h 17 17 v 74 74 h 73.5 73.5 v 17 17 H 212.5 122 Z m 599,74 v -17 h 74 74 v -74 -74 h 17 17 v 91 91 H 812 721 Z M 299,511 V 297 H 512 725 V 511 725 L 667.25,724.9786 609.5,724.9572 591,707.02761 572.5,689.09802 H 512 451.5 L 433,707.02761 414.5,724.9572 356.75,724.9786 299,725 Z M 413.97214,667.5 431.5704,650 H 512 592.4296 l 17.5983,17.5 17.5982,17.5 H 657.813 688 V 510.5 336 H 512 336 V 510.5 685 h 30.18695 30.18694 z M 50.000005,671 V 651 H 123.5 197 v 20 20 H 123.5 50.000005 Z M 827,670 v -20 h 73.5 73.5 v 20 20 H 900.5 827 Z M 50.000005,565 V 545 H 123.5 197 v 20 20 H 123.5 50.000005 Z M 827,564 v -20 h 73.5 73.5 v 20 20 H 900.5 827 Z M 50.000005,459 V 439 H 123.5 197 v 20 20 H 123.5 50.000005 Z M 827,458 v -20 h 73.5 73.5 v 20 20 H 900.5 827 Z M 50.000005,353 V 333 H 123.5 197 v 20 20 H 123.5 50.000005 Z M 827,352 v -20 h 73.5 73.5 v 20 20 H 900.5 827 Z M 122,211.5 V 121 h 91 91 v 17 17 h -74 -74 v 73.5 73.5 h -17 -17 z m 747,17 V 155 h -74 -74 v -17 -17 h 91 91 V 211.5 302 H 886 869 Z M 333,123 V 49.999999 H 352.5 372 V 123 196 H 352.5 333 Z m 105,0 V 49.999999 h 20 20 V 123 196 h -20 -20 z m 106,0 V 49.999999 h 20 20 V 123 196 h -20 -20 z m 106,0 V 49.999999 h 20 20 V 123 196 h -20 -20 z"
       id="path839" />
  </g>
</svg>
