<?xml version="1.0" encoding="UTF-8" standalone="no"?>
<svg
   xmlns:dc="http://purl.org/dc/elements/1.1/"
   xmlns:cc="http://creativecommons.org/ns#"
   xmlns:rdf="http://www.w3.org/1999/02/22-rdf-syntax-ns#"
   xmlns:svg="http://www.w3.org/2000/svg"
   xmlns="http://www.w3.org/2000/svg"
   viewBox="0 0 1024 1024"
   height="1024"
   width="1024"
   id="svg2"
   version="1.1">
  <metadata
     id="metadata8">
    <rdf:RDF>
      <cc:Work
         rdf:about="">
        <dc:format>image/svg+xml</dc:format>
        <dc:type
           rdf:resource="http://purl.org/dc/dcmitype/StillImage" />
        <dc:title></dc:title>
      </cc:Work>
    </rdf:RDF>
  </metadata>
  <defs
     id="defs6" />
  <g
     style="display:inline"
     id="g10">
    <path
       d="m 614.70019,878.54452 h 54.3002 v 54.45578 h -54.3002 z m -259.69982,0 h 54.30024 V 933.0003 H 355.00037 Z M 201.00001,50.00002 V 973.99998 H 822.77349 V 50.00002 Z M 258.1504,97.058618 H 766.49999 V 933.00002 H 258.1504 Z M 144.00001,116.00002 v 48 H 259.2129 v -48 z m 621.86328,0 v 48 h 114.1367 v -48 z m -621.86328,144 v 48 H 259.2129 v -48 z m 621.86328,0 v 48 h 114.1367 v -48 z m -621.86328,140 v 48 H 259.2129 v -48 z m 621.86328,0 v 48 h 114.1367 v -48 z m -621.86328,140 v 48 H 259.2129 v -48 z m 621.86328,0 v 48 h 114.1367 v -48 z m -621.86328,144 v 48 H 259.2129 v -48 z m 621.86328,0 v 48 h 114.1367 v -48 z m -621.86328,140 v 48 H 259.2129 v -48 z m 621.86328,0 v 48 h 114.1367 v -48 z M 512.23047,764.5 c -77.2696,6.8e-4 -143.33809,48.2001 -157.2301,114.04452 h 54.30024 c 11.21181,-41.31391 53.29452,-70.87815 102.28728,-70.8785 48.99276,3.5e-4 91.90049,29.56459 103.1123,70.8785 h 54.3002 C 655.10838,812.7001 589.50007,764.50068 512.23047,764.5 Z"
       style="display:inline;fill:#000000"
       id="rect900-6" />
  </g>
</svg>
