<svg xmlns="http://www.w3.org/2000/svg" xmlns:xlink="http://www.w3.org/1999/xlink" height="64" width="64">
    <defs>
        <linearGradient id="a">
            <stop offset="0" stop-color="#fce080"/>
            <stop offset="1" stop-color="#fee69d"/>
        </linearGradient>
        <linearGradient xlink:href="#a" id="b" gradientUnits="userSpaceOnUse" gradientTransform="matrix(1.3 0 0 1.3 73.6 6.6)" x1="-30" y1="35.868" x2="-30" y2="13"/>
    </defs>
    <path d="M33.3 24v-6c-3.9-3.9-3.9-5-6.5-5H9.9C7.3 13 6 14.3 6 16.9V24" fill="#ecc359"/>
    <path d="M9.9 56C7.3 56 6 54.7 6 52.1V23h20.8c2.6 0 2.6-1.1 6.5-5h20.8c2.6 0 3.9 1.6 3.9 4.2v29.9c0 2.6-1.3 3.9-3.9 3.9z" fill="url(#b)"/>
    <path d="M6.995 55c.65.665 1.63 1 2.945 1h44.2c1.315 0 2.295-.335 2.945-1z" fill-opacity=".392"/>
        <g transform="translate(21 28)">
            <g fill="#6f5f34" color="#6f5f34">
        <path d="M7 8v1H6v1h1v1h1v-1h1V9H8V8zm7.5 1.9a.6.6 0 0 0-.6.6.6.6 0 0 0 .6.6.6.6 0 0 0 .6-.6.6.6 0 0 0-.6-.6zm1-1a.6.6 0 0 0-.6.6.6.6 0 0 0 .6.6.6.6 0 0 0 .6-.6.6.6 0 0 0-.6-.6zm-2 0a.6.6 0 0 0-.6.6.6.6 0 0 0 .6.6.6.6 0 0 0 .6-.6.6.6 0 0 0-.6-.6zm1-1a.6.6 0 0 0-.6.6.6.6 0 0 0 .6.6.6.6 0 0 0 .6-.6.6.6 0 0 0-.6-.6z"/>
        <path d="M6 6c-1.657 0-3 2.239-3 5v3.5a1.5 1.5 0 0 0 2.56 1.06l2.536-2.535A1.5 1.5 0 0 0 11 12.5a1.5 1.5 0 0 0 2.904.525l2.535 2.536A1.5 1.5 0 0 0 19 14.5V11c0-2.761-1.343-5-3-5zm0 1h10c1.105 0 2 1.79 2 4v3.5a.5.5 0 0 1-.854.354L14.293 12H13v.5a.5.5 0 0 1-1 0V12h-2v.5a.5.5 0 0 1-1 0V12H7.707l-2.853 2.854A.5.5 0 0 1 4 14.5V11c0-2.21.895-4 2-4z"/>
    </g>

    </g>
</svg>
