<?xml version="1.0" encoding="UTF-8" standalone="no"?>
<svg
   xmlns:dc="http://purl.org/dc/elements/1.1/"
   xmlns:cc="http://creativecommons.org/ns#"
   xmlns:rdf="http://www.w3.org/1999/02/22-rdf-syntax-ns#"
   xmlns:svg="http://www.w3.org/2000/svg"
   xmlns="http://www.w3.org/2000/svg"
   xmlns:xlink="http://www.w3.org/1999/xlink"
   xmlns:sodipodi="http://sodipodi.sourceforge.net/DTD/sodipodi-0.dtd"
   xmlns:inkscape="http://www.inkscape.org/namespaces/inkscape"
   height="64"
   width="64"
   version="1.1"
   id="svg20"
   sodipodi:docname="folder-gdrive.svg"
   inkscape:version="0.92.5 (2060ec1f9f, 2020-04-08)">
  <metadata
     id="metadata24">
    <rdf:RDF>
      <cc:Work
         rdf:about="">
        <dc:format>image/svg+xml</dc:format>
        <dc:type
           rdf:resource="http://purl.org/dc/dcmitype/StillImage" />
      </cc:Work>
    </rdf:RDF>
  </metadata>
  <sodipodi:namedview
     pagecolor="#ffffff"
     bordercolor="#666666"
     borderopacity="1"
     objecttolerance="10"
     gridtolerance="10"
     guidetolerance="10"
     inkscape:pageopacity="0"
     inkscape:pageshadow="2"
     inkscape:window-width="1366"
     inkscape:window-height="705"
     id="namedview22"
     showgrid="false"
     inkscape:zoom="3.6875"
     inkscape:cx="32.271186"
     inkscape:cy="32"
     inkscape:window-x="0"
     inkscape:window-y="0"
     inkscape:window-maximized="1"
     inkscape:current-layer="svg20" />
  <defs
     id="defs8">
    <linearGradient
       id="a">
      <stop
         offset="0"
         stop-color="#fce080"
         id="stop2" />
      <stop
         offset="1"
         stop-color="#fee69d"
         id="stop4" />
    </linearGradient>
    <linearGradient
       xlink:href="#a"
       id="b"
       gradientUnits="userSpaceOnUse"
       gradientTransform="matrix(1.3 0 0 1.3 73.6 6.6)"
       x1="-30"
       y1="35.868"
       x2="-30"
       y2="13" />
  </defs>
  <path
     d="M33.3 24v-6c-3.9-3.9-3.9-5-6.5-5H9.9C7.3 13 6 14.3 6 16.9V24"
     fill="#ecc359"
     id="path10" />
  <path
     d="M9.9 56C7.3 56 6 54.7 6 52.1V23h20.8c2.6 0 2.6-1.1 6.5-5h20.8c2.6 0 3.9 1.6 3.9 4.2v29.9c0 2.6-1.3 3.9-3.9 3.9z"
     fill="url(#b)"
     id="path12" />
  <path
     d="M6.995 55c.65.665 1.63 1 2.945 1h44.2c1.315 0 2.295-.335 2.945-1z"
     fill-opacity=".392"
     id="path14" />
  <g
     transform="translate(21 28)"
     id="g18">
    <path
       d="M8.592 3l5.703 10.285H20L14.295 3H8.592zm-.914.912L2 13.09l2.658 5.33 5.53-9.703-2.51-4.805zm.779 10.516L5.572 19h11.541L20 14.428H8.457z"
       id="path16"
       fill="#6f5f34"
       color="#6f5f34" />
  </g>
</svg>
