<?xml version="1.0" encoding="UTF-8" standalone="no"?>
<svg
   xmlns:dc="http://purl.org/dc/elements/1.1/"
   xmlns:cc="http://creativecommons.org/ns#"
   xmlns:rdf="http://www.w3.org/1999/02/22-rdf-syntax-ns#"
   xmlns:svg="http://www.w3.org/2000/svg"
   xmlns="http://www.w3.org/2000/svg"
   xmlns:sodipodi="http://sodipodi.sourceforge.net/DTD/sodipodi-0.dtd"
   xmlns:inkscape="http://www.inkscape.org/namespaces/inkscape"
   inkscape:version="1.0 (4035a4fb49, 2020-05-01)"
   sodipodi:docname="tab-new.svg"
   id="svg6"
   version="1.1"
   viewBox="0 0 22 22">
  <metadata
     id="metadata10">
    <rdf:RDF>
      <cc:Work
         rdf:about="">
        <dc:format>image/svg+xml</dc:format>
        <dc:type
           rdf:resource="http://purl.org/dc/dcmitype/StillImage" />
        <dc:title></dc:title>
      </cc:Work>
    </rdf:RDF>
  </metadata>
  <sodipodi:namedview
     inkscape:current-layer="svg6"
     inkscape:window-maximized="1"
     inkscape:window-y="0"
     inkscape:window-x="0"
     inkscape:cy="10.969231"
     inkscape:cx="11"
     inkscape:zoom="32.5"
     showgrid="false"
     id="namedview8"
     inkscape:window-height="1006"
     inkscape:window-width="1920"
     inkscape:pageshadow="2"
     inkscape:pageopacity="0"
     guidetolerance="10"
     gridtolerance="10"
     objecttolerance="10"
     borderopacity="1"
     bordercolor="#666666"
     pagecolor="#ffffff" />
  <defs
     id="defs3051">
    <style
       id="current-color-scheme"
       type="text/css">
      .ColorScheme-Text {
        color:#eff0f1;
      }
      </style>
  </defs>
  <path
     id="path4"
     class="ColorScheme-Text"
     d="M 3 3 L 3 4 L 3 18 L 3 19 L 13 19 L 13 18 L 4 18 L 4 4 L 8 4 L 8 7 L 16 7 L 18 7 L 18 13 L 19 13 L 19 6 L 18 6 L 16 6 L 16 3 L 8 3 L 4 3 L 3 3 z M 16 14 L 16 16 L 14 16 L 14 17 L 16 17 L 16 19 L 17 19 L 17 17 L 19 17 L 19 16 L 17 16 L 17 14 L 16 14 z "
     style="fill:currentColor;fill-opacity:1;stroke:none" />
  <path
     id="path835"
     d="m 16.015385,18 v -1 h -1 -1 v -0.492308 -0.492307 h 1 1 v -1 -1 H 16.507692 17 v 1 1 h 1 1 V 16.507692 17 h -1 -1 v 1 1 h -0.492308 -0.492307 z"
     style="fill:#00ff00;stroke-width:0.0307692" />
</svg>
