<?xml version="1.0" encoding="UTF-8" standalone="no"?>
<svg
   xmlns:dc="http://purl.org/dc/elements/1.1/"
   xmlns:cc="http://creativecommons.org/ns#"
   xmlns:rdf="http://www.w3.org/1999/02/22-rdf-syntax-ns#"
   xmlns:svg="http://www.w3.org/2000/svg"
   xmlns="http://www.w3.org/2000/svg"
   height="1024"
   width="1024"
   id="svg4"
   viewBox="-10 0 1024 1024"
   version="1.1">
  <metadata
     id="metadata10">
    <rdf:RDF>
      <cc:Work
         rdf:about="">
        <dc:format>image/svg+xml</dc:format>
        <dc:type
           rdf:resource="http://purl.org/dc/dcmitype/StillImage" />
        <dc:title></dc:title>
      </cc:Work>
    </rdf:RDF>
  </metadata>
  <defs
     id="defs8" />
  <path
     style="stroke-width:0.6561"
     fill="currentColor"
     d="m -9.1019239,483.78766 q 0,-33.4611 24.2756699,-59.04898 l 49.2075,-49.2075 q 24.93185,-24.9318 59.705154,-24.9318 35.4294,0 59.049,24.9318 L 376.02878,567.76846 V 105.87408 q 0,-34.117204 24.60375,-55.440454 24.60375,-21.3232 59.37705,-21.3232 h 83.9808 q 34.77333,0 59.37708,21.3232 24.60375,21.32325 24.60375,55.440454 V 567.76846 L 820.8646,375.53118 q 23.6196,-24.9318 59.049,-24.9318 35.42939,0 59.04899,24.9318 l 49.20751,49.2075 q 24.9318,24.93178 24.9318,59.04898 0,34.7733 -24.9318,59.7051 l -427.12109,427.1211 q -22.96353,24.2757 -59.04903,24.2757 -35.4294,0 -59.7051,-24.2757 L 15.173746,543.49276 q -24.2756699,-25.5879 -24.2756699,-59.7051 z"
     id="path884" />
</svg>
