<?xml version="1.0" encoding="UTF-8" standalone="no"?>
<svg
   xmlns:dc="http://purl.org/dc/elements/1.1/"
   xmlns:cc="http://creativecommons.org/ns#"
   xmlns:rdf="http://www.w3.org/1999/02/22-rdf-syntax-ns#"
   xmlns:svg="http://www.w3.org/2000/svg"
   xmlns="http://www.w3.org/2000/svg"
   height="1024"
   width="1024"
   id="svg4"
   viewBox="-10 0 1024 1024"
   version="1.1">
  <metadata
     id="metadata10">
    <rdf:RDF>
      <cc:Work
         rdf:about="">
        <dc:format>image/svg+xml</dc:format>
        <dc:type
           rdf:resource="http://purl.org/dc/dcmitype/StillImage" />
        <dc:title></dc:title>
      </cc:Work>
    </rdf:RDF>
  </metadata>
  <defs
     id="defs8" />
  <path
     style="stroke-width:0.6561"
     fill="currentColor"
     d="m 1013.1019,540.21233 q 0,33.4611 -24.27568,59.04898 l -49.2075,49.2075 q -24.93185,24.9318 -59.70515,24.9318 -35.4294,0 -59.049,-24.9318 L 627.97119,456.23153 v 461.89438 q 0,34.1172 -24.60375,55.44045 -24.60375,21.3232 -59.37705,21.3232 h -83.9808 q -34.77333,0 -59.37708,-21.3232 -24.60375,-21.32325 -24.60375,-55.44045 V 456.23153 L 183.13537,648.46881 q -23.6196,24.9318 -59.049,24.9318 -35.429401,0 -59.049001,-24.9318 l -49.207503,-49.2075 q -24.9317995,-24.93178 -24.9317995,-59.04898 0,-34.7733 24.9317995,-59.7051 L 442.95096,53.386136 q 22.96353,-24.2757 59.04903,-24.2757 35.4294,0 59.7051,24.2757 L 988.82622,480.50723 q 24.27568,25.5879 24.27568,59.7051 z"
     id="path884" />
</svg>
