<?xml version="1.0" encoding="UTF-8" standalone="no"?>
<svg
   xmlns:dc="http://purl.org/dc/elements/1.1/"
   xmlns:cc="http://creativecommons.org/ns#"
   xmlns:rdf="http://www.w3.org/1999/02/22-rdf-syntax-ns#"
   xmlns:svg="http://www.w3.org/2000/svg"
   xmlns="http://www.w3.org/2000/svg"
   height="1024"
   width="1024"
   id="svg4"
   viewBox="-10 0 1024 1024"
   version="1.1">
  <metadata
     id="metadata10">
    <rdf:RDF>
      <cc:Work
         rdf:about="">
        <dc:format>image/svg+xml</dc:format>
        <dc:type
           rdf:resource="http://purl.org/dc/dcmitype/StillImage" />
        <dc:title></dc:title>
      </cc:Work>
    </rdf:RDF>
  </metadata>
  <defs
     id="defs8" />
  <path
     style="stroke-width:0.531441"
     fill="currentColor"
     d="m 510.50306,937.1528 q 0,-8.50302 -8.50306,-8.50302 -31.35502,0 -53.94127,-22.58622 -22.58623,-22.5863 -22.58623,-53.94132 0,-8.50306 -8.50306,-8.50306 -8.50306,0 -8.50306,8.50306 0,38.79519 27.36921,66.16449 27.36922,27.36907 66.16441,27.36907 8.50306,0 8.50306,-8.503 z M 156.56335,784.09784 H 847.43666 Q 706.07334,624.66554 706.07334,341.93893 q 0,-27.1035 -12.75458,-55.80131 Q 680.56418,257.43981 656.64933,231.3992 632.73449,205.35859 592.07924,188.61819 551.42401,171.8778 502,171.8778 q -49.42401,0 -90.07925,16.74039 -40.65524,16.7404 -64.57008,42.78101 -23.91485,26.04061 -36.66943,54.73842 -12.75458,28.69781 -12.75458,55.80131 0,282.72661 -141.36331,442.15891 z m 787.59556,0 q 0,27.63493 -20.19476,47.82964 -20.19475,20.19476 -47.82968,20.19476 H 638.0489 q 0,56.33271 -39.85808,96.19086 -39.85807,39.858 -96.19082,39.858 -56.33275,0 -96.19082,-39.858 Q 365.9511,908.45495 365.9511,852.12224 H 127.86554 q -27.63494,0 -47.829693,-20.19476 -20.194758,-20.19471 -20.194758,-47.82964 26.57205,-22.32052 48.361131,-46.76681 21.78908,-24.44629 45.17248,-63.5072 23.38341,-39.06091 39.59235,-84.2334 16.20896,-45.17248 26.57205,-109.47684 10.36311,-64.30437 10.36311,-138.17466 0,-80.77904 62.17859,-150.13209 62.1786,-69.35306 163.15239,-84.2334 -4.25153,-10.097382 -4.25153,-20.726202 0,-21.25764 14.88035,-36.13799 Q 480.74236,35.828901 502,35.828901 q 21.25764,0 36.13799,14.880347 14.88035,14.88035 14.88035,36.137991 0,10.628819 -4.25153,20.726201 100.97379,14.88034 163.15238,84.2334 62.17861,69.35305 62.17861,150.13209 0,73.87029 10.3631,138.17466 10.3631,64.30436 26.57205,109.47684 16.20895,45.17249 39.59235,84.2334 23.38341,39.06091 45.17248,63.5072 21.78908,24.44629 48.36113,46.76681 z"
     id="path1441" />
</svg>
