<?xml version="1.0" encoding="UTF-8" standalone="no"?>
<svg
   xmlns:dc="http://purl.org/dc/elements/1.1/"
   xmlns:cc="http://creativecommons.org/ns#"
   xmlns:rdf="http://www.w3.org/1999/02/22-rdf-syntax-ns#"
   xmlns:svg="http://www.w3.org/2000/svg"
   xmlns="http://www.w3.org/2000/svg"
   version="1.1"
   id="svg2"
   width="1024"
   height="1024"
   viewBox="0 0 1024 1024">
  <metadata
     id="metadata8">
    <rdf:RDF>
      <cc:Work
         rdf:about="">
        <dc:format>image/svg+xml</dc:format>
        <dc:type
           rdf:resource="http://purl.org/dc/dcmitype/StillImage" />
        <dc:title></dc:title>
      </cc:Work>
    </rdf:RDF>
  </metadata>
  <defs
     id="defs6" />
  <g
     id="g851" />
  <path
     id="path1348"
     d=""
     style="fill:#67f361;fill-opacity:0.851299;stroke:#60ffa1;stroke-width:0.21021;stroke-opacity:1" />
  <path
     id="path1350"
     d=""
     style="fill:#67f361;fill-opacity:0.851299;stroke:#60ffa1;stroke-width:0.21021;stroke-opacity:1" />
  <path
     id="path1401"
     d=""
     style="fill:#67f361;fill-opacity:0.851299;stroke:#60ffa1;stroke-width:0.162384;stroke-opacity:1" />
  <path
     id="path1403"
     d=""
     style="fill:#67f361;fill-opacity:0.851299;stroke:#60ffa1;stroke-width:0.162384;stroke-opacity:1" />
  <path
     id="path1405"
     d=""
     style="fill:#67f361;fill-opacity:0.851299;stroke:#60ffa1;stroke-width:0.162384;stroke-opacity:1" />
  <path
     id="path1409"
     d=""
     style="fill:#67f361;fill-opacity:0.851299;stroke:#60ffa1;stroke-width:0.162384;stroke-opacity:1" />
  <path
     id="path1417"
     d=""
     style="fill:#67f361;fill-opacity:0.851299;stroke:#60ffa1;stroke-width:0.162384;stroke-opacity:1" />
  <path
     id="path1421"
     d=""
     style="fill:#67f361;fill-opacity:0.851299;stroke:#60ffa1;stroke-width:0.162384;stroke-opacity:1" />
  <path
     id="path1429"
     d=""
     style="fill:#67f361;fill-opacity:0.851299;stroke:#60ffa1;stroke-width:0.162384;stroke-opacity:1" />
  <path
     id="path1435"
     d=""
     style="fill:#67f361;fill-opacity:0.851299;stroke:#60ffa1;stroke-width:0.162384;stroke-opacity:1" />
  <path
     id="path1449"
     d=""
     style="fill:#67f361;fill-opacity:0.851299;stroke:#60ffa1;stroke-width:0.162384;stroke-opacity:1" />
  <path
     id="path1451"
     d=""
     style="fill:#67f361;fill-opacity:0.851299;stroke:#60ffa1;stroke-width:0.162384;stroke-opacity:1" />
  <path
     id="path1453"
     d=""
     style="fill:#67f361;fill-opacity:0.851299;stroke:#60ffa1;stroke-width:0.162384;stroke-opacity:1" />
  <path
     d="M 304.54492,-0.06054687 V 162.3418 H 366.8418 V -0.06054687 Z m 117.40625,0 V 162.3418 h 62.29688 V -0.06054687 Z m 117.40625,0 V 162.3418 H 601.6543 V -0.06054687 Z m 117.40625,0 V 162.3418 h 62.29688 V -0.06054687 Z M 79.894531,79.271484 V 279.74805 H 135.32812 V 134.70703 H 281.45117 V 79.271484 Z m 664.447269,0 v 55.435546 h 145.04297 v 146.12305 h 55.43554 V 79.271484 Z M 275.91406,274.21094 v 473.45898 c 41.85511,0.0142 85.10414,0 127.91211,0 L 444.80078,708.5 h 134.48438 l 40.97461,39.30273 H 747.69141 V 274.21094 Z M 0.55078125,305.08789 v 62.29688 H 162.95312 v -62.29688 z m 860.49609875,0 v 62.29688 H 1023.4492 V 305.08789 Z M 335.9043,335.84375 H 686.83203 V 686.76953 H 639.44727 L 601.17773,646.83594 H 422.9082 l -38.26953,39.93359 H 335.9043 Z M 0.55078125,422.49414 v 62.29688 H 162.95312 v -62.29688 z m 860.49609875,0 v 62.29688 H 1023.4492 V 422.49414 Z M 0.55078125,539.90039 v 62.29688 H 162.95312 v -62.29688 z m 860.49609875,0 v 62.29688 H 1023.4492 V 539.90039 Z M 0.55078125,657.30664 v 62.29688 H 162.95312 v -62.29688 z m 860.49609875,0 v 62.29688 H 1023.4492 V 657.30664 Z M 79.894531,742.75586 V 944.3125 H 280.37109 V 888.87891 H 135.32812 V 742.75586 Z m 809.490239,1.08008 V 888.87891 H 743.26172 V 944.3125 H 944.82031 V 743.83594 Z M 304.54492,861.6582 v 162.4023 H 366.8418 V 861.6582 Z m 117.40625,0 v 162.4023 h 62.29688 V 861.6582 Z m 117.40625,0 v 162.4023 H 601.6543 V 861.6582 Z m 117.40625,0 v 162.4023 h 62.29688 V 861.6582 Z"
     style="fill:#000000;fill-opacity:0.851299;stroke:none;stroke-width:1px;stroke-linecap:butt;stroke-linejoin:miter;stroke-opacity:1"
     id="path1468-7" />
</svg>
