<?xml version="1.0" encoding="UTF-8" standalone="no"?>
<svg
   xmlns:dc="http://purl.org/dc/elements/1.1/"
   xmlns:cc="http://creativecommons.org/ns#"
   xmlns:rdf="http://www.w3.org/1999/02/22-rdf-syntax-ns#"
   xmlns:svg="http://www.w3.org/2000/svg"
   xmlns="http://www.w3.org/2000/svg"
   xmlns:sodipodi="http://sodipodi.sourceforge.net/DTD/sodipodi-0.dtd"
   xmlns:inkscape="http://www.inkscape.org/namespaces/inkscape"
   viewBox="0 0 22 22"
   version="1.1"
   id="svg6"
   sodipodi:docname="home.svg"
   inkscape:version="1.0.1 (3bc2e813f5, 2020-09-07, custom)">
  <metadata
     id="metadata10">
    <rdf:RDF>
      <cc:Work
         rdf:about="">
        <dc:format>image/svg+xml</dc:format>
        <dc:type
           rdf:resource="http://purl.org/dc/dcmitype/StillImage" />
        <dc:title />
      </cc:Work>
    </rdf:RDF>
  </metadata>
  <sodipodi:namedview
     pagecolor="#ffffff"
     bordercolor="#666666"
     borderopacity="1"
     objecttolerance="10"
     gridtolerance="10"
     guidetolerance="10"
     inkscape:pageopacity="0"
     inkscape:pageshadow="2"
     inkscape:window-width="1920"
     inkscape:window-height="971"
     id="namedview8"
     showgrid="false"
     inkscape:snap-intersection-paths="true"
     inkscape:object-nodes="false"
     inkscape:snap-smooth-nodes="true"
     inkscape:zoom="30.255924"
     inkscape:cx="10.298899"
     inkscape:cy="10.277673"
     inkscape:window-x="0"
     inkscape:window-y="36"
     inkscape:window-maximized="1"
     inkscape:current-layer="svg6"
     inkscape:document-rotation="0" />
  <defs
     id="defs3051">
    <style
       type="text/css"
       id="current-color-scheme">
      .ColorScheme-Text {
        color:#eff0f1
      }
      </style>
  </defs>
  <path
     id="path4"
     style="fill:currentColor;fill-opacity:1;stroke:none;stroke-width:1.32728"
     d="M 11 0.38085938 C 7.4625481 3.9228317 3.9209295 7.4606441 0.38085938 11 L 1.3203125 11.9375 L 1.7089844 11.548828 L 1.7089844 21.619141 L 3.0371094 21.619141 L 20.291016 21.619141 L 20.291016 20.291016 L 20.291016 11.548828 L 20.679688 11.9375 L 21.619141 11 L 18.966797 8.3476562 L 18.962891 8.3457031 L 17.636719 7.0175781 L 17.636719 3.0371094 L 14.982422 3.0371094 L 14.982422 4.3652344 C 13.654482 3.0375684 12.326418 1.7100403 11 0.38085938 z M 11 2.2578125 L 18.027344 9.28125 L 18.025391 9.2832031 L 18.962891 10.222656 L 18.962891 20.291016 L 13.654297 20.291016 L 13.654297 13.654297 L 8.3457031 13.654297 L 8.3457031 20.291016 L 3.0371094 20.291016 L 3.0371094 10.222656 L 11 2.2578125 z " />
</svg>
