<?xml version="1.0" encoding="UTF-8" standalone="no"?>
<svg
   xmlns:dc="http://purl.org/dc/elements/1.1/"
   xmlns:cc="http://creativecommons.org/ns#"
   xmlns:rdf="http://www.w3.org/1999/02/22-rdf-syntax-ns#"
   xmlns:svg="http://www.w3.org/2000/svg"
   xmlns="http://www.w3.org/2000/svg"
   id="svg1143"
   version="1.1"
   viewBox="0 0 270.93333 270.93334"
   height="1024"
   width="1024">
  <defs
     id="defs1137">
    <clipPath
       clipPathUnits="userSpaceOnUse"
       id="clipPath855">
      <g
         transform="translate(0.62726867,-0.83637385)"
         id="g859">
        <path
           d="m 39.251377,20.305958 v 27.460286 l 7.26933,0.0765 c -0.0379,1.0807 -0.0223,2.23953 0,3.32125 -4.00389,0 -5.25082,-0.0139 -9.19479,-0.0139 -0.13175,40.66693 -0.004,37.78687 0,40.66729 1.30015,0.0244 7.68862,-0.004 8.93434,0.15038 0.0112,0.95138 -0.0372,2.19274 -0.0372,3.18688 h -5.14646 v 9.816966 9.81749 h 2.4505 2.45101 v 1.86397 1.86397 h -2.45101 -2.56263 c 0.091,6.41054 0.15229,12.8169 0,19.22466 h 5.39191 v 3.14296 h -8.85785 v 26.09609 h 4.10672 l 5.39347,0.0754 v 107.2431 c 0.46791,0.5388 235.494033,0.47638 236.025393,-0.0625 -0.0771,-85.74053 0.28495,-158.50617 0,-253.930792 z m 8.89041,5.940196 c 81.085373,-0.01212 159.210903,0.02929 228.459453,0 v 0.005 h 0.0522 v 4.98678 h -0.0522 c 0,79.189136 0,158.378266 0,237.567396 -74.21798,-0.68871 -148.43715,0 -222.657213,0 -0.70893,-36.28365 0,-107.56138 0,-107.56138 0.0296,-1.72219 -0.0697,-3.60484 -3.18069,-3.62097 h -5.71903 c -0.0983,-3.1995 0,-6.39945 0,-9.59993 h 2.19366 v 0.003 h 3.51142 c 3.11101,-0.0161 3.2103,-1.89877 3.18068,-3.62096 0,0 -0.007,-0.83905 -0.0129,-1.54306 h 0.0269 v -7.91106 h -0.0196 c 7.9e-4,-0.0846 0.004,-0.42116 0.004,-0.42116 0.0296,-1.72219 -0.0697,-3.60483 -3.18068,-3.62097 h -1.95854 v -4.69739 h 2.0469 c 3.11101,-0.0161 3.15864,-1.89877 3.12901,-3.62096 -0.0148,-4.07087 -0.0449,-8.05926 0,-11.79308 0.0296,-1.72219 -0.12187,-3.60484 -3.23288,-3.62097 h -1.94303 v -3.54604 h 1.97559 c 3.11101,-0.0161 3.21031,-1.89877 3.18068,-3.62097 0,0 -0.005,-0.643366 -0.009,-1.068146 h 0.008 v -9.68364 h -0.0145 c 0.006,-0.77904 0.0145,-1.69499 0.0145,-1.69499 0.0296,-1.72219 -0.0697,-3.60484 -3.18068,-3.62097 h -3.51144 v 0.0207 h -2.25413 v -12.57752 -12.48245 c 1.92525,0.002 3.9684,0.005 5.76554,0 2.62321,-0.0136 3.10354,-1.32039 3.17242,-2.77295 l 0.008,-0.009 v -0.80459 -12.14809 -0.72037 l -0.004,-0.004 c -0.0538,-1.48633 -0.49984,-2.88258 -3.17655,-2.89646 h -0.18448 c -0.2652,-0.0606 -0.56949,-0.0641 -1.02061,-0.0641 h -1.41653 v -13.23177 z m 142.190303,5.78104 V 149.58333 h 16.11839 l 0.1478,-0.55863 c 0.19942,-0.75458 0.19636,-113.534496 -0.003,-115.469946 l -0.15761,-1.52756 z m 21.32221,0 V 149.58333 h 16.17524 V 32.027194 Z m 21.07727,0 V 149.58333 h 16.17575 V 32.027194 Z m 19.60655,0 V 149.58333 h 16.17576 V 32.027194 Z m -180.381243,2.23656 v 37.77702 37.777536 c 33.004533,0 66.009063,0 99.013603,0 V 72.040774 34.263754 c -33.00454,0 -66.00907,0 -99.013603,0 z m 123.031253,3.72794 h 6.86264 V 143.61883 h -6.86264 z m 21.32273,0 h 6.86263 V 143.61883 h -6.86263 z m 21.07675,0 h 6.86263 V 143.61883 h -6.86263 z m 19.60707,0 h 6.86212 V 143.61883 h -6.86212 z m -178.665583,2.7342 H 164.35331 V 103.60474 H 78.329097 Z m 65.191893,84.004166 v 26.09609 h 33.3313 v -26.09609 z m 4.90203,5.21932 h 23.03787 v 15.65745 h -23.03787 z m -65.208433,5.5144 c -6.89774,-2e-4 -12.48958,5.59142 -12.48967,12.48916 -2e-4,6.89793 5.59173,12.48987 12.48967,12.48967 6.89774,-9e-5 12.48935,-5.59194 12.48916,-12.48967 -9e-5,-6.89754 -5.59163,-12.48907 -12.48916,-12.48916 z m 0.13126,5.42757 c 3.97302,-2.6e-4 7.19395,3.22034 7.19388,7.19336 7e-5,3.97302 -3.22086,7.19372 -7.19388,7.19336 -3.97261,-2.1e-4 -7.19292,-3.22075 -7.19284,-7.19336 -8e-5,-3.97261 3.22023,-7.19315 7.19284,-7.19336 z m -20.45715,22.36143 v 19.3859 c 41.092243,0 82.184483,0 123.276723,0 v -19.3859 c -41.09224,0 -82.18448,0 -123.276723,0 z m 6.86211,6.21357 c 36.599323,0 73.198643,0 109.797963,0 v 6.95875 c -36.59932,0 -73.19864,0 -109.797963,0 z m -6.86211,17.39739 v 19.38538 h 71.564113 v -19.38538 z m 6.86211,6.21306 h 58.085353 v 6.95926 H 69.750807 Z m -6.86211,18.39164 v 19.38641 H 124.5268 186.16542 V 211.46844 H 124.5268 Z m 151.461563,1.24282 v 42.74829 h 44.36008 v -42.74829 z m -144.599453,4.97075 h 54.898983 54.89898 v 6.95875 H 124.64979 69.750807 Z m 150.236313,0.99374 h 33.08636 v 30.57023 H 219.98712 Z M 62.888697,235.07992 v 19.38538 h 71.564113 v -19.38538 z m 6.86211,6.21305 h 58.085353 v 6.95927 H 69.750807 Z"
           style="fill:#ffffff;fill-opacity:1;stroke-width:0.246803"
           id="path857" />
      </g>
    </clipPath>
  </defs>
  <metadata
     id="metadata1140">
    <rdf:RDF>
      <cc:Work
         rdf:about="">
        <dc:format>image/svg+xml</dc:format>
        <dc:type
           rdf:resource="http://purl.org/dc/dcmitype/StillImage" />
        <dc:title></dc:title>
      </cc:Work>
    </rdf:RDF>
  </metadata>
  <g
     id="g906"
     transform="matrix(1.0601373,0,0,1.0601373,-4.6983175,-6.8926771)">
    <g
       style="fill:#000000"
       transform="translate(0.5657036,-20.17757)"
       id="g862">
      <g
         style="fill:#000000"
         id="g879" />
      <g
         style="fill:#000000"
         id="g901"
         transform="translate(-25.0074,5.0994573)">
        <g
           style="fill:#000000"
           transform="translate(0.62726869,-0.83636357)"
           id="layer1">
          <g
             id="g909">
            <path
               id="path913"
               style="color:#000000;font-style:normal;font-variant:normal;font-weight:normal;font-stretch:normal;font-size:medium;line-height:normal;font-family:sans-serif;font-variant-ligatures:normal;font-variant-position:normal;font-variant-caps:normal;font-variant-numeric:normal;font-variant-alternates:normal;font-variant-east-asian:normal;font-feature-settings:normal;font-variation-settings:normal;text-indent:0;text-align:start;text-decoration:none;text-decoration-line:none;text-decoration-style:solid;text-decoration-color:#000000;letter-spacing:normal;word-spacing:normal;text-transform:none;writing-mode:lr-tb;direction:ltr;text-orientation:mixed;dominant-baseline:auto;baseline-shift:baseline;text-anchor:start;white-space:normal;shape-padding:0;shape-margin:0;inline-size:0;clip-rule:nonzero;display:inline;overflow:visible;visibility:visible;isolation:auto;mix-blend-mode:normal;color-interpolation:sRGB;color-interpolation-filters:linearRGB;solid-color:#000000;solid-opacity:1;vector-effect:none;fill:#000000;fill-opacity:1;fill-rule:nonzero;stroke:none;stroke-width:0.246803;stroke-linecap:butt;stroke-linejoin:miter;stroke-miterlimit:4;stroke-dasharray:none;stroke-dashoffset:0;stroke-opacity:1;color-rendering:auto;image-rendering:auto;shape-rendering:auto;text-rendering:auto;enable-background:accumulate;stop-color:#000000"
               d="m 35.070675,23.014622 0.05529,27.535785 h 6.844544 v 5.271514 h -8.808765 c -0.13175,40.666928 -0.004,35.945116 0,38.825537 1.296371,0.02432 7.519358,0.06707 8.808765,5.29e-4 v 5.276151 H 36.95118 c -0.03915,5.332132 -0.07499,10.664292 -0.111104,15.996432 2.281478,0.0498 3.146326,2.7e-4 5.130436,0 v 5.30511 h -5.186764 c 0.091,6.41054 0.15229,12.8169 0,19.22466 h 5.186764 v 5.25653 l -8.747786,-0.0222 v 24.00473 c 3.167122,-0.0252 6.428628,0.031 9.595279,0.0754 v 107.24307 c 0.46791,0.5388 235.494025,0.47632 236.025385,-0.0625 -0.0771,-85.74052 0.28495,-158.50615 0,-253.930751 z m 8.890413,5.940206 c 81.085352,-0.01212 159.210892,0.02929 228.459432,0 v 0.0052 h 0.0522 v 4.986776 h -0.0522 V 271.51418 c -74.21796,-0.68871 -148.43716,0 -222.657202,0 -0.70893,-36.28365 0,-107.56139 0,-107.56139 0.0296,-1.7222 -0.07693,-3.60484 -3.187919,-3.62097 h -5.711796 c -0.0983,-3.1995 0,-6.3212 0,-9.52167 2.093776,-1.7e-4 5.252392,0 5.252392,0 1.952042,0 3.5233,-1.493 3.5233,-3.44505 v -10.07328 c 0,-1.95205 -1.571258,-3.48258 -3.5233,-3.48258 h -1.481869 c -0.08705,-2.35455 -0.01746,-4.70573 -2.12e-4,-7.15605 h 1.77612 c 1.789144,0 3.229261,-1.41377 3.229261,-3.20291 v -9.23251 c 0,-1.78914 -1.440117,-3.20394 -3.229261,-3.20394 -0.58357,-0.006 -0.534271,0 -1.771986,0 -0.0061,-2.0055 -0.0037,-4.04177 -0.0036,-5.76486 h 1.756484 c 1.799749,0 3.24838,-1.44982 3.24838,-3.24957 v -9.287287 c 0,-1.799752 -1.448631,-3.248382 -3.24838,-3.248382 -1.962213,0.0323 -3.837969,-5.3e-4 -5.61723,-5.3e-4 0.08577,-9.465119 0.01871,-18.89453 0.01871,-28.359904 h 5.618156 c 1.788821,0 3.228745,-1.443103 3.228745,-3.231925 v -9.23096 c 0,-1.788824 -1.439924,-3.249769 -3.228745,-3.249769 -0.837729,0.06375 -0.981096,0.01916 -2.394274,0 L 43.961088,28.959995 Z M 186.15137,34.73587 V 152.292 h 16.1122 c 0.1341,-40.79285 0.24289,-82.607696 0,-117.55613 z m 21.32222,0 V 152.292 h 16.17524 V 34.73587 Z m 21.07726,0 V 152.292 h 16.17576 V 34.73587 Z m 19.60656,0 V 152.292 h 16.17575 V 34.73587 Z M 67.776172,36.972426 V 74.749447 112.52698 H 166.78977 V 74.749447 36.972426 Z m 123.031248,3.727938 h 6.86263 V 146.3275 h -6.86263 z m 21.32273,0 h 6.86263 V 146.3275 h -6.86263 z m 21.07675,0 h 6.86263 V 146.3275 h -6.86263 z m 19.60707,0 h 6.86211 V 146.3275 h -6.86211 z M 74.148392,43.434563 H 160.1726 V 106.31341 H 74.148392 Z m 65.191888,84.004177 v 26.09608 h 33.33129 v -26.09608 z m 4.90203,5.21931 h 23.03786 v 15.65745 h -23.03786 z m -67.589161,4.09278 c -6.798008,4e-5 -12.29955,5.43216 -12.299508,12.21011 -4.5e-5,6.77795 5.5015,12.33513 12.299508,12.33516 6.798009,-3e-5 12.318156,-5.55721 12.318111,-12.33516 4.3e-5,-6.77795 -5.520105,-12.21007 -12.318111,-12.21011 z m 0,4.93768 c 4.059143,-2.3e-4 7.340569,3.29062 7.340637,7.27243 -6.8e-5,3.98181 -3.281494,7.14656 -7.340637,7.14633 -4.058941,-5e-5 -7.358655,-3.16473 -7.358723,-7.14633 6.8e-5,-3.98162 3.299782,-7.27238 7.358723,-7.27243 z m -17.945158,24.27294 v 19.3859 H 181.9847 v -19.3859 z m 6.862115,6.21357 H 175.36805 v 6.95875 H 65.570106 Z m -6.862115,17.39739 v 19.38538 H 130.2721 v -19.38538 z m 6.862115,6.21306 h 58.085344 v 6.95926 H 65.570106 Z m -6.862115,18.39164 v 19.38641 H 181.9847 v -19.38641 z m 151.461549,1.24282 v 42.74829 h 44.36009 V 215.41993 Z M 65.570106,220.39068 H 175.36805 v 6.95875 H 65.570106 Z m 150.236304,0.99374 h 33.08635 v 30.57023 H 215.80641 Z M 58.707991,237.78859 v 19.38538 H 130.2721 v -19.38538 z m 6.862115,6.21305 h 58.085344 v 6.95927 H 65.570106 Z" />
          </g>
        </g>
      </g>
    </g>
  </g>
</svg>
