<?xml version="1.0" encoding="UTF-8" standalone="no"?>
<svg
   xmlns:dc="http://purl.org/dc/elements/1.1/"
   xmlns:cc="http://creativecommons.org/ns#"
   xmlns:rdf="http://www.w3.org/1999/02/22-rdf-syntax-ns#"
   xmlns:svg="http://www.w3.org/2000/svg"
   xmlns="http://www.w3.org/2000/svg"
   version="1.1"
   id="svg2"
   width="1024"
   height="1024"
   viewBox="0 0 1024 1024">
  <metadata
     id="metadata8">
    <rdf:RDF>
      <cc:Work
         rdf:about="">
        <dc:format>image/svg+xml</dc:format>
        <dc:type
           rdf:resource="http://purl.org/dc/dcmitype/StillImage" />
        <dc:title></dc:title>
      </cc:Work>
    </rdf:RDF>
  </metadata>
  <defs
     id="defs6" />
  <g
     transform="matrix(1.1003903,0,0,1.1003903,-51.399834,-51.399834)"
     id="g10"
     style="display:inline">
    <path
       id="rect900-6"
       style="display:inline;fill:#000000"
       d="m 201.22266,50 v 67.08203 L 144,116 v 48 h 57.22266 v 96 H 144 v 48 h 57.22266 v 92 H 144 v 48 h 57.22266 v 92 H 144 v 48 h 57.22266 v 96 H 144 v 48 h 57.22266 v 92 H 144 v 48 h 57.22266 v 102 h 621.5039 V 872 H 880 V 823.63867 H 822.72656 V 732 H 880 V 684 H 822.72656 V 588 H 880 V 540 H 822.72656 V 448 H 880 V 400 H 822.72656 V 308 H 880 V 260 H 822.72656 V 164 H 880 V 116 H 822.72656 V 50 Z m 56.92773,47.058594 H 766.5 V 933 H 669 V 878.54492 C 655.10799,812.7005 589.50007,764.50068 512.23047,764.5 434.96087,764.50068 368.89201,812.7005 355,878.54492 V 933 h -96.84961 z m 253.4375,710.607426 c 48.99276,3.5e-4 91.89952,29.56499 103.11133,70.8789 V 933 H 409.30078 v -54.45508 c 11.21181,-41.31391 53.29435,-70.87855 102.28711,-70.8789 z" />
  </g>
</svg>
