<?xml version="1.0" encoding="UTF-8" standalone="no"?>
<svg
   xmlns:dc="http://purl.org/dc/elements/1.1/"
   xmlns:cc="http://creativecommons.org/ns#"
   xmlns:rdf="http://www.w3.org/1999/02/22-rdf-syntax-ns#"
   xmlns:svg="http://www.w3.org/2000/svg"
   xmlns="http://www.w3.org/2000/svg"
   height="1024"
   width="1024"
   id="svg4"
   viewBox="-10 0 1024 1024"
   version="1.1">
  <metadata
     id="metadata10">
    <rdf:RDF>
      <cc:Work
         rdf:about="">
        <dc:format>image/svg+xml</dc:format>
        <dc:type
           rdf:resource="http://purl.org/dc/dcmitype/StillImage" />
        <dc:title></dc:title>
      </cc:Work>
    </rdf:RDF>
  </metadata>
  <defs
     id="defs8" />
  <path
     style="stroke-width:0.654079"
     id="path2"
     d="m 987.98087,616.65271 q 0,3.27039 -0.65408,4.57855 -41.86107,175.29323 -175.29324,284.19743 -133.43215,108.90411 -312.64986,108.90411 -95.49558,0 -184.77739,-35.97428 Q 225.32449,942.38416 155.338,875.66808 L 70.961786,960.0443 q -12.427505,12.4275 -29.433565,12.4275 -17.00606,0 -29.433566,-12.4275 Q -0.33285,947.61679 -0.33285,930.61074 v -293.0275 q 0,-17.00607 12.427505,-29.43357 12.427506,-12.42751 29.433566,-12.42751 H 334.55571 q 17.00607,0 29.43357,12.42751 12.42751,12.4275 12.42751,29.43357 0,17.00606 -12.42751,29.43356 l -89.60885,89.60886 q 46.43962,43.16922 105.30675,66.71608 58.86714,23.54685 122.31282,23.54685 87.64662,0 163.51981,-42.51515 75.87319,-42.51515 121.65873,-117.08018 7.19487,-11.11935 34.66621,-76.52727 5.23263,-15.04383 19.62237,-15.04383 h 125.58321 q 8.50303,0 14.71679,6.21376 6.21375,6.21375 6.21375,14.71679 z M 1004.3328,93.389311 V 386.41681 q 0,17.00607 -12.42745,29.43357 -12.42751,12.42751 -29.43357,12.42751 H 669.44429 q -17.00607,0 -29.43357,-12.42751 -12.42751,-12.4275 -12.42751,-29.43357 0,-17.00606 12.42751,-29.43356 l 90.26293,-90.26293 Q 633.46993,177.11146 502,177.11146 q -87.64662,0 -163.51981,42.51515 -75.87319,42.51515 -121.65873,117.08018 -7.19487,11.11935 -34.66621,76.52727 -5.23263,15.04383 -19.62237,15.04383 H 32.371112 q -8.50303,0 -14.716783,-6.21376 -6.213752,-6.21375 -6.213752,-14.71679 v -4.57855 Q 53.955726,227.47556 188.04197,118.57137 322.12821,9.6671723 502,9.6671723 q 95.49557,0 185.7585,36.3013957 90.26294,36.301395 160.24941,102.363402 l 85.0303,-84.376223 q 12.42751,-12.4275 29.43357,-12.4275 17.00606,0 29.43357,12.4275 12.42755,12.42751 12.42745,29.433564 z"
     fill="currentColor" />
</svg>
