<?xml version="1.0" encoding="UTF-8" standalone="no"?>
<svg
   xmlns:dc="http://purl.org/dc/elements/1.1/"
   xmlns:cc="http://creativecommons.org/ns#"
   xmlns:rdf="http://www.w3.org/1999/02/22-rdf-syntax-ns#"
   xmlns:svg="http://www.w3.org/2000/svg"
   xmlns="http://www.w3.org/2000/svg"
   height="1024"
   width="1024"
   id="svg4"
   viewBox="-10 0 1024 1024"
   version="1.1">
  <metadata
     id="metadata10">
    <rdf:RDF>
      <cc:Work
         rdf:about="">
        <dc:format>image/svg+xml</dc:format>
        <dc:type
           rdf:resource="http://purl.org/dc/dcmitype/StillImage" />
        <dc:title></dc:title>
      </cc:Work>
    </rdf:RDF>
  </metadata>
  <defs
     id="defs8" />
  <path
     style="stroke-width:0.59049"
     id="path955-3"
     d="m 463.54632,187.80157 v 642.453 c 0,10.2351 -3.7398,19.0925 -11.2193,26.572 -7.4796,7.4796 -16.3369,11.2193 -26.5721,11.2193 -10.2351,0 -19.0925,-3.7397 -26.572,-11.2193 L 202.54972,660.19347 H 47.84132 c -10.2351,0 -19.0925,-3.7397 -26.572,-11.2193 -7.4796,-7.4795 -11.2194,-16.3369 -11.2194,-26.572 v -226.7482 c 0,-10.2351 3.7398,-19.0925 11.2194,-26.572 7.4795,-7.4795 16.3369,-11.2193 26.572,-11.2193 h 154.7084 l 196.6332,-196.6332 c 7.4795,-7.4795 16.3369,-11.2193 26.572,-11.2193 10.2352,0 19.0925,3.7398 26.5721,11.2193 7.4795,7.4796 11.2193,16.3369 11.2193,26.5721 z m 226.7481,321.2265 c 0,29.9182 -8.3653,57.7697 -25.0959,83.5543 -16.7305,25.7848 -38.8739,44.1884 -66.43,55.2109 -3.9366,1.9683 -8.8574,2.9524 -14.7623,2.9524 -10.2351,0 -19.0925,-3.6414 -26.572,-10.9241 -7.4796,-7.2827 -11.2193,-16.2384 -11.2193,-26.8673 0,-8.2668 2.3619,-15.2543 7.0859,-20.9624 4.7239,-5.708 10.4319,-10.6288 17.1242,-14.7622 6.6922,-4.1334 13.3844,-8.6605 20.0766,-13.5813 6.6922,-4.9207 12.4003,-12.0066 17.1242,-21.2576 4.7239,-9.251 7.0859,-20.3719 7.0859,-33.3627 0,-12.9908 -2.362,-24.1117 -7.0859,-33.3627 -4.7239,-9.2509 -10.432,-16.3368 -17.1242,-21.2576 -6.6922,-4.9208 -13.3844,-9.4479 -20.0766,-13.5813 -6.6923,-4.1334 -12.4003,-9.0542 -17.1242,-14.7622 -4.724,-5.708 -7.0859,-12.6956 -7.0859,-20.9624 0,-10.6289 3.7397,-19.5846 11.2193,-26.8673 7.4795,-7.2827 16.3369,-10.9241 26.572,-10.9241 5.9049,0 10.8257,0.9842 14.7623,2.9525 27.5561,10.6288 49.6995,28.934 66.43,54.9155 16.7306,25.9816 25.0959,53.9315 25.0959,83.8496 z m 151.1654,0 c 0,60.23 -16.7306,115.8345 -50.1917,166.8134 -33.4611,50.9789 -77.7478,88.0813 -132.8602,111.3073 -5.1176,1.9683 -10.0383,2.9524 -14.7622,2.9524 -10.6288,0 -19.683,-3.7398 -27.1626,-11.2193 -7.4795,-7.4795 -11.2192,-16.3369 -11.2192,-26.572 0,-15.3528 7.6763,-26.9658 23.029,-34.839 22.0449,-11.4161 37.0041,-20.0766 44.8773,-25.9815 29.1308,-21.2575 51.8647,-47.928 68.2016,-80.0113 16.3368,-32.0833 24.5052,-66.2332 24.5052,-102.45 0,-36.2167 -8.1684,-70.3667 -24.5052,-102.45 -16.3369,-32.0833 -39.0708,-58.7538 -68.2016,-80.0114 -7.8732,-5.9049 -22.8324,-14.5654 -44.8773,-25.9816 -15.3527,-7.8732 -23.029,-19.4861 -23.029,-34.8389 0,-10.2351 3.7397,-19.0925 11.2192,-26.572 7.4796,-7.4796 16.3369,-11.2193 26.5721,-11.2193 5.1175,0 10.2351,0.9841 15.3527,2.9524 55.1124,23.226 99.3991,60.3284 132.8602,111.3074 33.4611,50.979 50.1917,106.5834 50.1917,166.8134 z"
     fill="currentColor" />
</svg>
