<?xml version="1.0" encoding="UTF-8" standalone="no"?>
<svg
   xmlns:dc="http://purl.org/dc/elements/1.1/"
   xmlns:cc="http://creativecommons.org/ns#"
   xmlns:rdf="http://www.w3.org/1999/02/22-rdf-syntax-ns#"
   xmlns:svg="http://www.w3.org/2000/svg"
   xmlns="http://www.w3.org/2000/svg"
   height="1024"
   width="1024"
   id="svg4"
   viewBox="-10 0 1024 1024"
   version="1.1">
  <metadata
     id="metadata10">
    <rdf:RDF>
      <cc:Work
         rdf:about="">
        <dc:format>image/svg+xml</dc:format>
        <dc:type
           rdf:resource="http://purl.org/dc/dcmitype/StillImage" />
        <dc:title></dc:title>
      </cc:Work>
    </rdf:RDF>
  </metadata>
  <defs
     id="defs8" />
  <path
     style="stroke-width:0.527419"
     id="path2"
     d="m 670.77406,562.6322 q 0,-7.38387 -4.7468,-12.13064 -4.7468,-4.74677 -12.1306,-4.74677 H 535.75486 V 360.10341 q 0,-6.85643 -5.0105,-11.86691 -5.0105,-5.01048 -11.8669,-5.01048 h -101.2644 q -6.85645,0 -11.86694,5.01048 -5.01047,5.01048 -5.01047,11.86691 V 545.75479 H 282.59387 q -6.85644,0 -11.86691,5.01048 -5.01048,5.01047 -5.01048,11.86693 0,7.38385 4.74676,12.13062 l 185.65138,185.65137 q 4.74674,4.74678 12.13064,4.74678 7.3839,0 12.13059,-4.74678 L 665.49986,575.29024 q 5.27419,-6.32902 5.2742,-12.65804 z m 337.54784,118.14179 q 0,83.85956 -59.3345,143.19416 -59.3346,59.3346 -143.19424,59.3346 H 231.96168 q -97.57246,0 -166.928025,-69.35556 -69.35555,-69.35555 -69.35555,-166.928 0,-68.56443 36.9193,-126.58049 36.91931,-58.01605 99.154725,-87.02408 -1.05484,-15.82257 -1.05484,-22.679 0,-111.81277 79.1128,-190.92557 79.11281,-79.1128 190.92557,-79.1128 82.2773,0 150.578,45.88543 68.3008,45.88541 99.4185,121.8337 37.44669,-32.69995 87.5515,-32.69995 55.9063,0 95.4627,39.55641 39.55644,39.55639 39.55644,95.46278 0,40.08382 -21.6241,72.78377 68.5644,16.34998 112.6039,71.46523 44.0393,55.11525 44.0393,125.78937 z"
     fill="currentColor" />
</svg>
