<?xml version="1.0" encoding="UTF-8" standalone="no"?>
<svg
   xmlns:dc="http://purl.org/dc/elements/1.1/"
   xmlns:cc="http://creativecommons.org/ns#"
   xmlns:rdf="http://www.w3.org/1999/02/22-rdf-syntax-ns#"
   xmlns:svg="http://www.w3.org/2000/svg"
   xmlns="http://www.w3.org/2000/svg"
   height="1024"
   width="1024"
   id="svg4"
   viewBox="-10 0 1024 1024"
   version="1.1">
  <metadata
     id="metadata10">
    <rdf:RDF>
      <cc:Work
         rdf:about="">
        <dc:format>image/svg+xml</dc:format>
        <dc:type
           rdf:resource="http://purl.org/dc/dcmitype/StillImage" />
        <dc:title></dc:title>
      </cc:Work>
    </rdf:RDF>
  </metadata>
  <defs
     id="defs8" />
  <path
     style="fill:#000000;fill-opacity:1;stroke-width:0.52743"
     fill="currentColor"
     d="m 670.77275,528.87732 q 0,-7.38375 -4.7454,-12.13053 L 480.37471,331.09551 q -4.7455,-4.74678 -12.1308,-4.74678 -7.3835,0 -12.1287,4.74678 L 270.99041,516.2194 q -5.27419,6.32897 -5.27419,12.65792 0,7.38398 4.74664,12.13079 4.74675,4.74679 12.13065,4.74679 h 118.14167 v 185.65123 q 0,6.85636 5.01055,11.86669 5.01043,5.01063 11.86798,5.01063 h 101.2624 q 6.8566,0 11.8673,-5.01063 5.0106,-5.01033 5.0106,-11.86669 V 545.7549 h 118.14254 q 6.8574,0 11.8656,-5.01061 5.0106,-5.01036 5.0106,-11.86697 z M 1008.322,680.77393 q 0,83.85945 -59.33557,143.19403 -59.3348,59.33454 -143.1933,59.33454 H 231.9613 q -97.57231,0 -166.92774,-69.35552 -69.35559,-69.35555 -69.35559,-166.92794 0,-68.56429 36.91922,-126.58024 36.91934,-58.01623 99.15465,-87.02413 -1.05475,-15.82256 -1.05475,-22.67898 0,-111.81269 79.11279,-190.92552 79.11278,-79.11267 190.9253,-79.11267 82.27673,0 150.57703,45.88544 68.30154,45.88541 99.42034,121.83359 37.4469,-32.69992 87.5503,-32.69992 55.90638,0 95.46248,39.55636 39.5562,39.55636 39.5562,95.46272 0,40.08375 -21.6234,72.7836 68.5648,16.35017 112.6037,71.46536 44.04017,55.11515 44.04017,125.78928 z"
     id="path1294" />
</svg>
