<svg width="16" height="16" version="1.1" viewBox="0 0 16 16" xmlns="http://www.w3.org/2000/svg">
<title>deepin-manual</title>
<defs>
<linearGradient id="a-3" x1="23.983" x2="23.983" y1="43.001" y2="6.017" gradientTransform="matrix(.33192 0 0 .33192 .01295 .68731)" gradientUnits="userSpaceOnUse">
<stop stop-color="#e8e8e8" offset="0"/>
<stop stop-color="#fff" offset="1"/>
</linearGradient>
</defs>
<g stroke-width=".33192">
<path d="m13.948 2.6845h-0.86798v0.9108a0.78732 0.78732 0 0 1 0.35117 0.87926 0.77703 0.77703 0 0 1-0.54734 0.55166 0.78466 0.78466 0 0 1-0.99012-0.7601 0.78334 0.78334 0 0 1 0.3993-0.68243v-0.89918h-1.5743v0.9108a0.78732 0.78732 0 0 1 0.35117 0.87926 0.77703 0.77703 0 0 1-0.54734 0.55166 0.78466 0.78466 0 0 1-0.99012-0.7601 0.78334 0.78334 0 0 1 0.3993-0.68243v-0.89918h-1.5743v0.9108a0.78732 0.78732 0 0 1 0.35117 0.87926 0.77703 0.77703 0 0 1-0.54734 0.55166 0.78466 0.78466 0 0 1-0.99012-0.7601 0.78334 0.78334 0 0 1 0.3993-0.68243v-0.89918h-1.5743v0.9108a0.78732 0.78732 0 0 1 0.35117 0.87926 0.77703 0.77703 0 0 1-0.54734 0.55166 0.78466 0.78466 0 0 1-0.99012-0.7601 0.78334 0.78334 0 0 1 0.3993-0.68243v-0.89918h-1.5743v0.9108a0.78732 0.78732 0 0 1 0.35117 0.87926 0.77703 0.77703 0 0 1-0.54734 0.55166 0.78466 0.78466 0 0 1-0.99012-0.7601 0.78334 0.78334 0 0 1 0.3993-0.68243v-0.89918h-0.84906a0.33192 0.33192 0 0 0-0.33192 0.33192v11.548c0 0.21774 0.17824 0.39598 0.39598 0.39598h11.804c0.21741 0 0.41291-0.11252 0.41291-0.33126v-11.607c0-0.21874-0.11418-0.33757-0.33192-0.33757z" fill="url(#a-3)"/>
<path d="m13.948 2.6845v11.65c0 0.21874-0.09526 0.29475-0.30404 0.29475h-11.36c-0.20911 0-0.28479-0.07601-0.28479-0.29475v-11.65s-0.33192 0.073355-0.33192 0.39598v11.549c0 0.18256 0.14937 0.33192 0.33192 0.33192h11.949c0.18256 0 0.33192-0.14936 0.33192-0.33192v-11.549c-3.32e-4 -0.39034-0.33226-0.39598-0.33226-0.39598z" fill="#f7f8f8"/>
<path d="m2.8658 6.1677h9.5912v0.39963h-9.5912zm0 1.5985h9.5912v0.39963h-9.5912zm0 3.597h9.5912v0.39963h-9.5912zm2.2624 1.9982h-2.2624v-0.39964h2.4283zm-2.2624-3.9963h7.5931v0.39963h-7.5931z" fill="#b5b5b6"/>
<path d="m7.4009 11.453-1.251 0.34188 0.010954-1.1518 5.8392-8.9446 0.9576 1.2348z" fill="#ed9920"/>
<path d="m6.1758 11.698-0.25392-1.2109 5.101-7.7169 1.3453-0.39366z" fill="#f9c975"/>
<path d="m13.003 2.8631a0.42685 0.42685 0 0 1-0.59115 0.12447l-0.71562-0.46735a0.42752 0.42752 0 0 1-0.12447-0.59115l0.46801-0.71596a0.42718 0.42718 0 0 1 0.59115-0.12414l0.71529 0.46735c0.19749 0.12912 0.25326 0.39366 0.12414 0.59115z" fill="#fc3a3a"/>
<path d="m12.867 2.6307a0.30636 0.30636 0 0 1-0.42453 0.089287l-0.51448-0.33591a0.3067 0.3067 0 0 1-0.08929-0.4242l0.33591-0.51448a0.30603 0.30603 0 0 1 0.4242-0.088955l0.51481 0.33557c0.14173 0.092938 0.18156 0.2828 0.08896 0.42453z" fill="#ff948f"/>
<path d="m11.805 1.5715 1.4312 0.93469-1.1684 1.7884-1.4306-0.93469z" fill="#727171"/>
<path d="m11.897 1.855 1.0416 0.68044-0.96258 1.4737-1.0416-0.68044z" fill="#c9caca"/>
<path d="m11.6 2.2905 1.0588 0.69106-0.11717 0.17924-1.0588-0.69139zm-0.28081 0.45009 1.0489 0.68509-0.11684 0.17924-1.0489-0.68509z" fill="#595757"/>
<path d="m5.1455 13.339 0.78666-2.8708s0.49589 0.24861 0.2048 0.69405c-0.29043 0.44577 0.21741-0.41856 0.54502-0.2048 0.3286 0.21409-0.30636 1.0708-0.014937 0.62567 0.29043-0.4461 0.75612-0.14206 0.75612-0.14206z" fill="#c9a063"/>
<path d="m5.3904 12.445-0.26454 0.8162s-0.073023 0.22372 0.099909 0.06506c0.17326-0.15833 0.63132-0.5802 0.63132-0.5802z" fill="#231815"/>
</g>
</svg>
