<?xml version="1.0" encoding="UTF-8"?>
<svg width="16" height="16" version="1.1" viewBox="0 0 16 16" xmlns="http://www.w3.org/2000/svg" xmlns:cc="http://creativecommons.org/ns#" xmlns:dc="http://purl.org/dc/elements/1.1/" xmlns:rdf="http://www.w3.org/1999/02/22-rdf-syntax-ns#">
 <metadata>
  <rdf:RDF>
   <cc:Work rdf:about="">
    <dc:format>image/svg+xml</dc:format>
    <dc:type rdf:resource="http://purl.org/dc/dcmitype/StillImage"/>
    <dc:title>深度终端-16px</dc:title>
   </cc:Work>
  </rdf:RDF>
 </metadata>
 <title>深度终端-16px</title>
 <g transform="matrix(.3169 0 0 .3169 .39445 .39445)">
  <path d="m45 43h-42a1 1 0 0 1-1-1v-36a1 1 0 0 1 1-1h42a1 1 0 0 1 1 1v36a1 1 0 0 1-1 1z" fill="#5d1800"/>
  <path d="m21 5h6v38h-6z" fill="#ba7c00"/>
  <path d="m4 7h20v34h-20z" fill="#837d7a"/>
  <path d="m5 7h19v34h-19z" fill="#aba5a1"/>
  <path d="m5.988 7h18.012v34h-18.012z" fill="#d0c4b7"/>
  <path d="m7 7h17v34h-17z" fill="#e1e1e1"/>
  <path d="m7.984 7h16.016v34h-16.016z" fill="#f9f9f9"/>
  <path d="m24 7h20v34h-20z" fill="#837d7a"/>
  <path d="m24 7h19v34h-19z" fill="#aba5a1"/>
  <path d="m24 7h18.012v34h-18.012z" fill="#d0c4b7"/>
  <path d="m24 7h17v34h-17z" fill="#ebebeb"/>
  <path d="m3 42v-4h-1v4a1 1 0 0 0 1 1h4v-1zm0-36h4v-1h-4a1 1 0 0 0-1 1v4h1zm42 36v-4h1v4a1 1 0 0 1-1 1h-4v-1zm0-36h-4v-1h4a1 1 0 0 1 1 1v4h-1z" fill="#ba7c00"/>
  <path d="m9 10h14v6h-14zm0 7h14v6h-14zm0 7h14v6h-14zm0 7h14v6h-14z" fill="#e6e6e6"/>
  <path d="m25 10h14v6h-14zm0 7h14v6h-14zm0 7h14v6h-14zm0 7h14v6h-14z" fill="#cfcfcf"/>
 </g>
</svg>
