<svg width="16" height="16" version="1.1" viewBox="0 0 16 16" xmlns="http://www.w3.org/2000/svg">
<title>deepin-music</title>
<path d="m4 8.5a5.5 5.5 0 1 0 11 0 5.5 5.5 0 0 0-11 0" fill="#1a7fd4" fill-rule="evenodd"/>
<path d="m5 8.5a4.5 4.5 0 1 0 9 0 4.5 4.5 0 0 0-9 0" fill="none"/>
<g fill-rule="evenodd">
<circle transform="rotate(90)" cx="8.5" cy="-9.5" r="2.5"/>
<circle transform="rotate(90)" cx="8.5" cy="-9.5" r="1.5" fill="#234db8"/>
<path d="m10 2v13h-9v-13z" fill="#2f5fdd"/>
<path d="m5.88 5.225c0-0.1 0.08-0.225 0.245-0.225 0.164 0 0.202 0.153 0.202 0.153s-0.01 0.435 0.835 1c0.154 0.102 1.665 1 0.926 2.64 0 0-0.04 0.085-0.129 0.05-0.07-0.028-0.046-0.117-0.046-0.117s0.58-1.74-1.586-2.24c0 0 3e-3 2.36 1e-3 3.006 2e-3 0.495-0.328 0.947-0.923 1.107-0.631 0.169-1.25-0.09-1.38-0.58-0.131-0.489 0.274-1.022 0.905-1.191 0.347-0.093 0.69-0.057 0.95 0.076z" fill="#fff"/>
</g>
</svg>
