<svg width="16px" height="16px" version="1.1" viewBox="0 0 16 16" xmlns="http://www.w3.org/2000/svg">
<title>deepin-movie</title>
<desc>Created with Sketch.</desc>
<defs>
<linearGradient id="linearGradient-1" x1="12.681" x2="2.7741" y1="1.542" y2="12.198" gradientTransform="matrix(1.0408 0 0 .96077 1 1)" gradientUnits="userSpaceOnUse">
<stop stop-color="#0BA2FF" offset="0"/>
<stop stop-color="#0067FF" offset="1"/>
</linearGradient>
<linearGradient id="linearGradient-2" x1="6.84" x2=".71341" y1="3.6966" y2="4.1036" gradientTransform="matrix(.56695 0 0 1.7638 1 1)" gradientUnits="userSpaceOnUse">
<stop stop-color="#2BB8FF" offset="0"/>
<stop stop-color="#537CFF" offset="1"/>
</linearGradient>
</defs>
<g fill-rule="evenodd">
<path id="Combined-Shape" d="m14.5 2h-12.5l1 12h11.5c0.27614 0 0.5-0.22386 0.5-0.5v-11c0-0.27614-0.22386-0.5-0.5-0.5z" fill="url(#linearGradient-1)"/>
<path d="m5.1651 15h-3.4405c-0.083321-0.006745-0.32719-0.14398-0.31489-0.52952l-0.40943-12.834c-0.0027476-0.088416 0.0090795-0.28452 0.33854-0.34315l1.6473-0.29314c0.32719 0.012503 0.31109 0.26044 0.31585 0.36816 0.047406 1.1014 0.27944 5.8327 0.34614 7.1407 0.09084 1.7832 0.9907 2.2893 1.4202 2.3057 0.24545 0.0094 0.2328 0.23128 0.23585 0.3101l0.19579 3.4907c-0.011837 0.37095-0.33489 0.3846-0.33489 0.3846z" fill="url(#linearGradient-2)"/>
<path d="m9.0205 5.5743c0-0.1 0.08-0.225 0.245-0.225 0.164 0 0.202 0.153 0.202 0.153s-0.01 0.435 0.835 1c0.154 0.102 1.665 1 0.926 2.64 0 0-0.04 0.085-0.129 0.05-0.07-0.028-0.046-0.117-0.046-0.117s0.58-1.74-1.586-2.24c0 0 3e-3 2.36 1e-3 3.006 2e-3 0.495-0.328 0.947-0.923 1.107-0.631 0.169-1.25-0.09-1.38-0.58-0.131-0.489 0.274-1.022 0.905-1.191 0.347-0.093 0.69-0.057 0.95 0.076z" fill="#fff"/>
</g>
</svg>
