<?xml version="1.0" encoding="UTF-8" standalone="no"?>
<svg
   xmlns:dc="http://purl.org/dc/elements/1.1/"
   xmlns:cc="http://creativecommons.org/ns#"
   xmlns:rdf="http://www.w3.org/1999/02/22-rdf-syntax-ns#"
   xmlns:svg="http://www.w3.org/2000/svg"
   xmlns="http://www.w3.org/2000/svg"
   xmlns:sodipodi="http://sodipodi.sourceforge.net/DTD/sodipodi-0.dtd"
   xmlns:inkscape="http://www.inkscape.org/namespaces/inkscape"
   width="16"
   height="16"
   version="1.1"
   id="svg10"
   sodipodi:docname="applications-other.svg"
   inkscape:version="0.92.5 (2060ec1f9f, 2020-04-08)">
  <metadata
     id="metadata16">
    <rdf:RDF>
      <cc:Work
         rdf:about="">
        <dc:format>image/svg+xml</dc:format>
        <dc:type
           rdf:resource="http://purl.org/dc/dcmitype/StillImage" />
      </cc:Work>
    </rdf:RDF>
  </metadata>
  <defs
     id="defs14" />
  <sodipodi:namedview
     pagecolor="#ffffff"
     bordercolor="#666666"
     borderopacity="1"
     objecttolerance="10"
     gridtolerance="10"
     guidetolerance="10"
     inkscape:pageopacity="0"
     inkscape:pageshadow="2"
     inkscape:window-width="1366"
     inkscape:window-height="703"
     id="namedview12"
     showgrid="true"
     inkscape:zoom="14.75"
     inkscape:cx="-16.576271"
     inkscape:cy="7.9661017"
     inkscape:window-x="0"
     inkscape:window-y="0"
     inkscape:window-maximized="1"
     inkscape:current-layer="svg10">
    <inkscape:grid
       type="xygrid"
       id="grid823" />
  </sodipodi:namedview>
  <path
     style="fill:#808080;fill-opacity:1"
     d="M 8.5 1 A 7.5 7.5 0 0 0 1 8.5 A 7.5 7.5 0 0 0 8.5 16 A 7.5 7.5 0 0 0 16 8.5 A 7.5 7.5 0 0 0 8.5 1 z M 8.5 2 A 6.5 6.5 0 0 1 15 8.5 A 6.5 6.5 0 0 1 8.5 15 A 6.5 6.5 0 0 1 2 8.5 A 6.5 6.5 0 0 1 8.5 2 z "
     id="circle2" />
  <circle
     style="fill:#808080;fill-opacity:1"
     cx="8.5"
     cy="8.5"
     r="1.5"
     id="circle4" />
  <circle
     style="fill:#808080;fill-opacity:1"
     cx="12.5"
     cy="8.5"
     r="1.5"
     id="circle6" />
  <circle
     style="fill:#808080;fill-opacity:1"
     cx="4.5"
     cy="8.5"
     r="1.5"
     id="circle8" />
</svg>
