<svg width="16" height="16" version="1.1" viewBox="0 0 16 16" xmlns="http://www.w3.org/2000/svg"><g stroke="#a9a69a"><g fill="#4f4f4f"><path d="M8.916 2.353L5.15 6.118" stroke-width="2.824"/><g stroke-width=".941"><rect transform="scale(-1 1)" x="-6.092" y="6.118" width="3.765" height="8" ry="0"/><path d="M6.092 12.706H2.328c-.522 0-.942.42-.942.941s.42.941.942.941h3.764a.94.94 0 1 0 0-1.882z"/><path d="M7.033 13.647c.942 0 .942.941.942.941v.941H.445v-.94c0-.942.941-.942.941-.942z"/></g><path d="M8.916 2.353l1.882 1.882" stroke-linecap="square" stroke-width="1.882"/><g stroke-width=".941" transform="scale(-1 1)"><rect x="-10.798" y="1.412" width="3.765" height="3.765" ry="1.882" opacity=".2"/><rect x="-7.033" y="5.176" width="5.647" height="5.647" ry="2.824" opacity=".2"/><rect x="-7.033" y="4.235" width="5.647" height="5.647" ry="2.824"/><rect x="-6.092" y="5.176" width="3.765" height="3.765" ry="1.882"/><rect x="-5.151" y="6.118" width="1.882" height="1.882" ry=".941" opacity=".1"/><rect x="-10.798" y=".471" width="3.765" height="3.765" ry="1.882"/></g></g><path d="M12.21 7.53l-1.882-.003V5.644l1.882-1.882h1.882v1.882" fill="none" stroke-linecap="round" stroke-linejoin="round" stroke-width=".941"/><rect transform="scale(-1 1)" x="-9.857" y="1.412" width="1.882" height="1.882" ry=".941" fill="#4f4f4f" stroke-width=".941"/></g></svg>