<svg width="16" height="16" version="1.1" viewBox="0 0 16 16" xmlns="http://www.w3.org/2000/svg">
<g fill="#0090ff">
<path d="M8 2a8 6 0 0 0-8 6 8 6 0 0 0 2.303 4.205c.035-.233.082-.452.11-.695a1 1 0 0 0-.194-.711 1 1 0 0 0-.065-.076c-.012-.013-.02-.028-.031-.041a4.818 4.818 0 0 1-.46-.586c-.042-.062-.07-.127-.106-.19-.091-.155-.182-.31-.25-.472a3.735 3.735 0 0 1-.215-.662l-.006-.022v-.002l-.02-.092v-.004A3.603 3.603 0 0 1 1 8.002v-.004c0-.218.028-.434.066-.646v-.006l.02-.096v-.002c.053-.252.132-.498.238-.738.102-.23.229-.455.377-.672l.03-.045c.143-.205.306-.403.49-.594.031-.033.065-.065.097-.097.191-.19.396-.373.625-.545a6.82 6.82 0 0 1 .721-.463 7.794 7.794 0 0 1 .99-.477h.002l.006-.002a9.174 9.174 0 0 1 2.08-.527l.012-.002c.02-.003.042-.004.062-.006l.055-.006A9.563 9.563 0 0 1 8 3c.502 0 .99.039 1.46.111a9.01 9.01 0 0 1 1.204.274l.006.002c.072.021.144.043.215.066.03.012.06.023.091.033.296.1.578.215.848.342l.014.006c.445.21.857.451 1.219.723C14.309 5.496 15 6.703 15 8s-.691 2.504-1.943 3.443a6.616 6.616 0 0 1-1.21.717l-.01.006c-.004.003-.01.004-.015.006a8.155 8.155 0 0 1-1.148.44l-.004.002c-.002 0-.004 0-.006.002a9.041 9.041 0 0 1-1.203.273A9.57 9.57 0 0 1 8 13H8c-.053 0-.103-.008-.156-.01a9.618 9.618 0 0 1-.973-.064c-.036-.004-.072-.005-.107-.01l-.01-.002a9.262 9.262 0 0 1-1.117-.218h-.002a1 1 0 0 0-.977.277c-.118.124-.25.226-.379.336A8 6 0 0 0 8 14a8 6 0 0 0 8-6 8 6 0 0 0-8-6z"/>
<path d="M1.533 9.863C1.406 12.481.926 14.866 0 16c2.496 0 4.706-1.267 6.096-3.215-.154-.032-.312-.05-.461-.09a1 1 0 0 0-.977.278c-.788.826-1.804 1.328-2.893 1.654.306-.935.52-1.97.647-3.117a1 1 0 0 0-.258-.787 4.747 4.747 0 0 1-.621-.86z"/>
<circle cx="8" cy="8" r="1"/>
<circle cx="11" cy="8" r="1"/>
<circle cx="5" cy="8" r="1"/>
</g>
</svg>
