<svg width="16" height="16" version="1.1" viewBox="0 0 16 16" xmlns="http://www.w3.org/2000/svg" xmlns:xlink="http://www.w3.org/1999/xlink"><title>chmsee-icon</title><defs><linearGradient id="b" x1="100%" x2="2.736%" y1="34.689%" y2="67.054%"><stop stop-color="#474747" offset="0"/><stop stop-color="#010101" offset=".038"/><stop offset="1"/></linearGradient><path id="a" d="M1.88.939c.398 0 1.729.02 2.222.654.131.169.129.523.056.724-.15.423-.52 1.071-1.384 1.204a2.81 2.81 0 0 1-.77-.014C1.224 3.369.953 2.875.859 2.52.83 2.412.655 1.678.835 1.317 1.002.983 1.617.939 1.88.939zm6.072 0c.213 0 .815-.043.988.273.202.37-.005 1.195-.034 1.307-.107.408-.45 1-1.531 1.025-1.141.027-1.597-.745-1.769-1.227-.072-.2-.075-.555.056-.724.493-.633 1.89-.654 2.29-.654zm-6.073 2.95c.211.029.558.04.771.029.55-.028 1.528-.224 1.82-1.226.06-.205.101-.48.196-.55a.326.326 0 0 1 .201-.066c.082 0 .142.023.184.056.087.066.164.325.268.514.26.476.851 1.267 1.884 1.267 0 0 1.976.139 2.227-1.625.03-.212.03-.635.121-.827a1.16 1.16 0 0 0 .117-.505c0-.15-.016-.26-.045-.342C9.558.435 8.783.52 8.57.525 7.784.55 6.588.63 5.975.905c-.193.088-.461.31-.655.4-.154.07-.33.135-.46.135a.674.674 0 0 1-.381-.123c-.182-.112-.476-.298-.673-.378C3.103.652 1.941.528 1.157.525.944.525.241.584.114.733a.49.49 0 0 0-.114.33s-.006.314.108.57a3.5 3.5 0 0 1 .222.728c.085.513.402 1.37 1.55 1.527z"/><path id="c" d="M1.88.939c.398 0 1.729.02 2.222.654.131.169.129.523.056.724-.15.423-.52 1.071-1.384 1.204a2.81 2.81 0 0 1-.77-.014C1.224 3.369.953 2.875.859 2.52.83 2.412.655 1.678.835 1.317 1.002.983 1.617.939 1.88.939zm6.072 0c.213 0 .815-.043.988.273.202.37-.005 1.195-.034 1.307-.107.408-.45 1-1.531 1.025-1.141.027-1.597-.745-1.769-1.227-.072-.2-.075-.555.056-.724.493-.633 1.89-.654 2.29-.654zm-6.073 2.95c.211.029.558.04.771.029.55-.028 1.528-.224 1.82-1.226.06-.205.101-.48.196-.55a.326.326 0 0 1 .201-.066c.082 0 .142.023.184.056.087.066.164.325.268.514.26.476.851 1.267 1.884 1.267 0 0 1.976.139 2.227-1.625.03-.212.03-.635.121-.827a1.16 1.16 0 0 0 .117-.505c0-.15-.016-.26-.045-.342C9.558.435 8.783.52 8.57.525 7.784.55 6.588.63 5.975.905c-.193.088-.461.31-.655.4-.154.07-.33.135-.46.135a.674.674 0 0 1-.381-.123c-.182-.112-.476-.298-.673-.378C3.103.652 1.941.528 1.157.525.944.525.241.584.114.733a.49.49 0 0 0-.114.33s-.006.314.108.57a3.5 3.5 0 0 1 .222.728c.085.513.402 1.37 1.55 1.527z"/><path id="d" d="M1.88.939c.398 0 1.729.02 2.222.654.131.169.129.523.056.724-.15.423-.52 1.071-1.384 1.204a2.81 2.81 0 0 1-.77-.014C1.224 3.369.953 2.875.859 2.52.83 2.412.655 1.678.835 1.317 1.002.983 1.617.939 1.88.939zm6.072 0c.213 0 .815-.043.988.273.202.37-.005 1.195-.034 1.307-.107.408-.45 1-1.531 1.025-1.141.027-1.597-.745-1.769-1.227-.072-.2-.075-.555.056-.724.493-.633 1.89-.654 2.29-.654zm-6.073 2.95c.211.029.558.04.771.029.55-.028 1.528-.224 1.82-1.226.06-.205.101-.48.196-.55a.326.326 0 0 1 .201-.066c.082 0 .142.023.184.056.087.066.164.325.268.514.26.476.851 1.267 1.884 1.267 0 0 1.976.139 2.227-1.625.03-.212.03-.635.121-.827a1.16 1.16 0 0 0 .117-.505c0-.15-.016-.26-.045-.342C9.558.435 8.783.52 8.57.525 7.784.55 6.588.63 5.975.905c-.193.088-.461.31-.655.4-.154.07-.33.135-.46.135a.674.674 0 0 1-.381-.123c-.182-.112-.476-.298-.673-.378C3.103.652 1.941.528 1.157.525.944.525.241.584.114.733a.49.49 0 0 0-.114.33s-.006.314.108.57a3.5 3.5 0 0 1 .222.728c.085.513.402 1.37 1.55 1.527z"/><path id="e" d="M1.88.939c.398 0 1.729.02 2.222.654.131.169.129.523.056.724-.15.423-.52 1.071-1.384 1.204a2.81 2.81 0 0 1-.77-.014C1.224 3.369.953 2.875.859 2.52.83 2.412.655 1.678.835 1.317 1.002.983 1.617.939 1.88.939zm6.072 0c.213 0 .815-.043.988.273.202.37-.005 1.195-.034 1.307-.107.408-.45 1-1.531 1.025-1.141.027-1.597-.745-1.769-1.227-.072-.2-.075-.555.056-.724.493-.633 1.89-.654 2.29-.654zm-6.073 2.95c.211.029.558.04.771.029.55-.028 1.528-.224 1.82-1.226.06-.205.101-.48.196-.55a.326.326 0 0 1 .201-.066c.082 0 .142.023.184.056.087.066.164.325.268.514.26.476.851 1.267 1.884 1.267 0 0 1.976.139 2.227-1.625.03-.212.03-.635.121-.827a1.16 1.16 0 0 0 .117-.505c0-.15-.016-.26-.045-.342C9.558.435 8.783.52 8.57.525 7.784.55 6.588.63 5.975.905c-.193.088-.461.31-.655.4-.154.07-.33.135-.46.135a.674.674 0 0 1-.381-.123c-.182-.112-.476-.298-.673-.378C3.103.652 1.941.528 1.157.525.944.525.241.584.114.733a.49.49 0 0 0-.114.33s-.006.314.108.57a3.5 3.5 0 0 1 .222.728c.085.513.402 1.37 1.55 1.527z"/></defs><g fill="none" fill-rule="evenodd"><g transform="translate(.275 1.884)"><rect x="1.725" y=".116" width="11" height="12" rx=".58" fill="#E35B00"/><rect x=".725" y=".116" width="1" height="12" rx=".5" fill="#E35B00"/><path d="M2.725 1.116h8.884c.064 0 .116.052.116.116V11a.116.116 0 0 1-.116.116H2.725v-10zM1.725 1.116h1v10h-1z" fill="#fff"/><path fill="#CDCDCD" d="M2.725 1.116h1v10h-1z"/><g><g transform="translate(4.686 8.45)"><use fill="url(#b)" fill-rule="nonzero" xlink:href="#a"/><use fill="url(#b)" fill-rule="nonzero" xlink:href="#c"/><use fill="url(#b)" fill-rule="nonzero" xlink:href="#d"/><mask id="f" fill="#fff"><use xlink:href="#e"/></mask><use fill="url(#b)" fill-rule="nonzero" xlink:href="#e"/></g></g></g><path d="M492.72 290.43c0 51.993-42.151 94.144-94.144 94.144H147.524L66.83 196.284h-89.663l-80.694 188.29h-251.052c-51.993 0-94.144-42.151-94.144-94.144V-23.38c0-20.724 6.904-39.723 18.258-55.275l3.277-6.415 135.37-261.85 13.132-21.66h143.78v62.763h-110.77l-101.29 188.29h730.75l-100.72-188.29h-104.16v-62.762H317.04l18.773 35.097 118.32 229.21 4.077 8.6c20.906 17.266 34.507 43.056 34.507 72.284v313.81zM429.958 8c0-34.663-28.099-62.762-62.762-62.762h-690.39c-34.663 0-62.762 28.099-62.762 62.762v251.05c0 34.663 28.099 62.762 62.762 62.762h183.81l53.794-125.53h-.52c.438-.753.997-1.418 1.45-2.16l17.051-21.295 7.556-7.927c21.936-19.375 50.443-31.382 82.056-31.382s60.12 12.006 82.056 31.382l8.552 8.224 16.058 20.992c.452.74 1.01 1.412 1.45 2.165h-.52l53.793 125.53h183.81c34.663 0 62.762-28.1 62.762-62.762V7.999z" fill="#000" fill-rule="nonzero"/></g></svg>