<?xml version="1.0" encoding="UTF-8"?>
<svg width="16" height="16" version="1.1" viewBox="0 0 16 16" xmlns="http://www.w3.org/2000/svg" xmlns:cc="http://creativecommons.org/ns#" xmlns:dc="http://purl.org/dc/elements/1.1/" xmlns:rdf="http://www.w3.org/1999/02/22-rdf-syntax-ns#" xmlns:xlink="http://www.w3.org/1999/xlink">
 <metadata>
  <rdf:RDF>
   <cc:Work rdf:about="">
    <dc:format>image/svg+xml</dc:format>
    <dc:type rdf:resource="http://purl.org/dc/dcmitype/StillImage"/>
    <dc:title>deepin-repair-tools</dc:title>
   </cc:Work>
  </rdf:RDF>
 </metadata>
 <title>deepin-repair-tools</title>
 <defs>
  <linearGradient id="a" x1="7" x2="7" y1="12.937" gradientUnits="userSpaceOnUse">
   <stop stop-color="#8E8E8E" offset="0"/>
   <stop stop-color="#AFAFAF" offset=".932"/>
   <stop stop-color="#BEBEBE" offset=".932"/>
   <stop stop-color="#C2C2C2" offset="1"/>
  </linearGradient>
  <linearGradient id="c" x1="7" x2="7" y1="-1.011e-6" y2="13.662" gradientUnits="userSpaceOnUse">
   <stop stop-color="#A2A2A2" offset="0"/>
   <stop stop-color="#7B7B7B" offset="1"/>
  </linearGradient>
  <path id="b" d="M.144.754L.686.172A.538.538 0 0 1 1.08 0h11.84c.149 0 .292.062.394.172l.542.582c.092.1.144.23.144.367v12.59c0 .16-.122.289-.272.289H.272C.122 14 0 13.87 0 13.71V1.12C0 .986.052.855.145.755z"/>
 </defs>
 <g transform="translate(1,1)" fill="none" fill-rule="evenodd">
  <use width="100%" height="100%" fill="url(#a)" fill-rule="evenodd" xlink:href="#b"/>
  <path d="m0.5 13.5h13v-12.379c0-0.01-4e-3 -0.02-0.01-0.026l-0.542-0.583a0.038 0.038 0 0 0-0.028-0.012h-11.84c-0.01 0-0.02 5e-3 -0.028 0.012l-0.542 0.583a0.038 0.038 0 0 0-0.01 0.026z" stroke="url(#c)"/>
 </g>
 <path d="m4.0127 1.9322v8.4l2-2.975 3 6.575h2.5l-4.5-7h4z" fill="#fff" fill-rule="evenodd"/>
</svg>
