<svg width="16" height="16" version="1.1" viewBox="0 0 16 16" xmlns="http://www.w3.org/2000/svg"><title>crossover</title><g transform="translate(1 1)" fill="none" fill-rule="evenodd"><circle cx="7" cy="7" r="7" fill="#fff" stroke="#1038FB"/><path d="M12.403 4.568a9.851 9.851 0 0 0-2.122-1.278c-3.303-1.47-6.74-.955-7.678 1.15-.938 2.107.98 5.006 4.282 6.477.206.091.412.175.618.252C5.566 9.627 4.631 7.57 5.343 5.97c.88-1.974 3.957-2.55 7.06-1.402z" fill="#1038FB"/><path d="M1.703 8.62c.607.501 1.316.951 2.107 1.32 3.287 1.533 6.744 1.076 7.721-1.02.978-2.096-.895-5.038-4.182-6.57a10.39 10.39 0 0 0-.616-.264c1.917 1.58 2.819 3.66 2.076 5.252-.916 1.965-4.013 2.49-7.106 1.283z" fill="#FD5400"/></g></svg>