<svg width="16" height="16" version="1.1" viewBox="0 0 16 16" xmlns="http://www.w3.org/2000/svg"><title>dde-introduction</title><defs><linearGradient id="a" x1="42.153%" x2="42.153%" y2="100%"><stop stop-color="#30FFAF" offset="0"/><stop stop-color="#08C5FF" offset="1"/></linearGradient></defs><g fill="none" fill-rule="evenodd"><circle cx="8" cy="8" r="7" fill="url(#a)"/><path d="M12.715 4.34a3.159 3.159 0 0 1 0 4.467l-4.367 4.367a.625.625 0 0 1-.884 0L3.44 9.149l4.81-4.81a3.159 3.159 0 0 1 4.466 0z" fill="#404040"/><path d="M7.958 4.403l4.139 4.138a.625.625 0 0 1 0 .884l-3.721 3.72a.625.625 0 0 1-.884 0L3.354 9.009a3.256 3.256 0 1 1 4.605-4.605z" fill="#fff"/><path d="M8.342 10.91a.983.983 0 0 1 .757 1.676l-.658.658a.625.625 0 0 1-.884 0l-.947-.948.012-.012-1.005-1.004.011-.012-1.004-1.004.012-.012-1.07-1.07 1.099-1.1a.983.983 0 0 1 1.674.779.934.934 0 0 1 1.012 1.014.934.934 0 0 1 .99 1.036zM9.348 5.519L8.055 6.811c-.693.694-1.774.738-2.414.099L8.19 4.36" fill="#404040"/></g></svg>