<svg width="16" height="16" version="1.1" viewBox="0 0 16 16" xmlns="http://www.w3.org/2000/svg"><title>远程协助-16px</title><g fill="none" fill-rule="evenodd"><path fill="#0FBBAF" d="M15 2v12H1V2z"/><path d="M10.477 4.841c-.325.333-1.49 1.501-2.111 2.112l1.745 1.74-2.086 2.118c-.857-.82-1.7-1.648-2.552-2.467l-.017-.015c-.422-.352-.666-.924-.578-1.454.094-.71.794-1.325 1.5-1.31.136-.001.274.029.379.051.334.072.643.373.93.662-.002 0 .154.156.154.156l.406.405.82-.82c.125-.125.195-.366 0-.56-.1-.099-.21-.13-.31-.12a.42.42 0 0 0-.253.12l-.38.382c-.295-.294-.752-.738-1.23-.842a2.132 2.132 0 0 0-.522-.066c-1.065-.022-1.982.81-2.121 1.842-.128.78.213 1.555.798 2.043l-.017-.015c.855.822 1.775 1.707 2.64 2.527.122.106.22.124.349.124a.452.452 0 0 0 .326-.143l1.93-1.934 1.93-1.922c.136-.137.146-.327.01-.463-.136-.136-.331-.132-.467.004l-1.379 1.38c-.036.007-.112-.073-.109-.117L12.3 6.22c.136-.136.147-.33.01-.467-.136-.136-.318-.117-.454.019l-1.613 1.614c-.042.007-.134-.072-.122-.126l1.91-1.91c.109-.118.174-.326.034-.473a.334.334 0 0 0-.481.01l-1.97 1.97c-.048 0-.12-.065-.12-.114L10.937 5.3c.136-.136.16-.326.012-.466a.334.334 0 0 0-.244-.098.336.336 0 0 0-.227.104z" fill="#fff"/></g></svg>