<svg width="16" height="16" version="1.1" viewBox="0 0 16 16" xmlns="http://www.w3.org/2000/svg" xmlns:xlink="http://www.w3.org/1999/xlink"><title>deepin-graphics-driver-manager</title><defs><linearGradient id="a" x1="50%" x2="50%" y2="100%"><stop stop-color="#089F10" offset="0"/><stop stop-color="#04801F" offset="1"/></linearGradient><linearGradient id="c" x1="26.939%" x2="50%" y2="100%"><stop stop-color="#F1F1F1" offset="0"/><stop stop-color="#DCDCDC" offset="1"/></linearGradient><path id="b" d="M.496.888h10v10h-10z"/><linearGradient id="d" x1="50%" x2="50%" y1="100%"><stop stop-color="#3A3A3A" offset="0"/><stop stop-color="#595959" offset="1"/></linearGradient><path id="f" d="M4.906 3.375c0-.145.106-.28.26-.338a2.276 2.276 0 0 0-.096-.367c-.164.019-.319-.039-.396-.165-.077-.125-.048-.29.058-.425a2.287 2.287 0 0 0-.261-.27c-.145.106-.31.135-.435.058-.125-.078-.183-.232-.164-.396a2.276 2.276 0 0 0-.367-.097c-.058.155-.193.26-.338.26-.145 0-.28-.105-.339-.26-.125.02-.25.058-.367.097a.496.496 0 0 1-.006.16.357.357 0 0 1-.158.236c-.126.077-.29.048-.425-.058a2.287 2.287 0 0 0-.27.26c.021.032.04.064.055.097.05.112.055.232.002.329-.077.125-.231.183-.396.164a2.276 2.276 0 0 0-.096.367c.154.068.26.203.26.348a.303.303 0 0 1-.007.067.396.396 0 0 1-.253.271c.019.126.058.251.096.367.165-.019.329.03.396.165.078.125.049.29-.058.425.078.096.165.183.261.27.136-.106.3-.125.425-.058.126.078.184.232.165.396.116.039.241.078.367.097.067-.155.193-.26.338-.26.145 0 .28.105.338.26.126-.02.242-.058.367-.097-.019-.164.039-.318.165-.396.125-.077.29-.048.425.058a2.18 2.18 0 0 0 .27-.25c-.106-.135-.125-.31-.058-.436.078-.125.232-.183.396-.164.039-.116.078-.242.097-.367-.145-.077-.251-.203-.251-.348zm-3.113.044c0-.682.48-1.25 1.109-1.364V3.28l-1.035.61a1.537 1.537 0 0 1-.074-.471zm1.374 1.378A1.36 1.36 0 0 1 2.13 4.3l1.036-.612 1.036.612a1.36 1.36 0 0 1-1.036.497zm.313-1.515V2.055c.628.114 1.108.682 1.108 1.364a1.48 1.48 0 0 1-.074.467L3.48 3.282z"/><filter id="e" x="-50%" y="-25%" width="200%" height="200%"><feOffset dx="0" dy="1" in="SourceAlpha" result="shadowOffsetOuter1"/><feGaussianBlur in="shadowOffsetOuter1" result="shadowBlurOuter1" stdDeviation=".5"/><feColorMatrix in="shadowBlurOuter1" values="0 0 0 0 0 0 0 0 0 0 0 0 0 0 0 0 0 0 0.1 0"/></filter></defs><g fill="none" fill-rule="evenodd"><g transform="translate(1.813 1.063)"><rect x=".188" y=".938" width="12" height="12" rx="1" fill="url(#a)"/><use fill="url(#c)" xlink:href="#b" transform="translate(.691 1.05)"/></g><path d="M3.9 7.716c.393 0 .725-.15.916-.334V6.13H3.812v.454h.5v.547a.577.577 0 0 1-.355.105c-.553 0-.836-.364-.836-.967 0-.596.329-.956.798-.956.256 0 .416.101.554.233l.301-.353a1.2 1.2 0 0 0-.874-.356c-.752 0-1.355.536-1.355 1.45 0 .927.584 1.429 1.355 1.429zm1.523-.053V4.89h.928c.626 0 1.107.213 1.107.87 0 .633-.485.918-1.092.918h-.378v.985h-.565zm.565-1.424h.34c.39 0 .577-.161.577-.48 0-.322-.206-.43-.596-.43h-.32v.91zm3.066 1.477c.691 0 1.092-.379 1.092-1.3V4.89h-.542v1.574c0 .577-.214.772-.55.772-.332 0-.534-.195-.534-.772V4.89h-.565v1.525c0 .922.412 1.3 1.1 1.3z" fill="url(#d)" transform="translate(1.813 1.063)"/><g transform="translate(8.833 8.625)"><circle cx="3.167" cy="3.375" r="3" fill="#fff"/><circle cx="3.167" cy="3.375" r="3" fill="#fff"/><g fill-rule="nonzero"><use fill="#000" filter="url(#e)" xlink:href="#f"/><use fill="#3F3E3E" fill-rule="evenodd" xlink:href="#f"/></g></g></g></svg>