<svg width="16" height="16" version="1.1" viewBox="0 0 16 16" xmlns="http://www.w3.org/2000/svg"><title>deepin-movie</title><defs><linearGradient id="a" x1="93.835%" x2="14.518%" y1="4.013%" y2="89.332%"><stop stop-color="#0BA2FF" offset="0"/><stop stop-color="#0067FF" offset="1"/></linearGradient><linearGradient id="b" x1="86.176%" x2="8.988%" y1="46.573%" y2="51.7%"><stop stop-color="#2BB8FF" offset="0"/><stop stop-color="#537CFF" offset="1"/></linearGradient><linearGradient id="c" x1="50%" x2="50%" y2="100%"><stop stop-color="#fff" offset="0"/><stop stop-color="#EFFAFD" offset="1"/></linearGradient></defs><g fill="none" fill-rule="evenodd"><path d="M13.5 1H1l1 12h11.5a.5.5 0 0 0 .5-.5v-11a.5.5 0 0 0-.5-.5z" fill="url(#a)" transform="translate(1 1)"/><path d="M4.165 14H.725c-.084-.007-.328-.144-.315-.53L0 .636C-.002.548.01.352.34.293L1.986 0c.327.013.311.26.316.368.047 1.102.28 5.833.346 7.141.09 1.783.99 2.29 1.42 2.306.246.01.233.231.236.31l.196 3.49c-.012.372-.335.385-.335.385z" fill="url(#b)" transform="translate(1 1)"/><path d="M6 9.559V4.442a.25.25 0 0 1 .379-.215l4.264 2.559a.25.25 0 0 1 0 .428L6.379 9.773A.25.25 0 0 1 6 9.559z" fill="url(#c)" transform="translate(1 1)"/></g></svg>