<svg width="16" height="16" version="1.1" viewBox="0 0 16 16" xmlns="http://www.w3.org/2000/svg" xmlns:xlink="http://www.w3.org/1999/xlink"><title>deepin-clone</title><defs><linearGradient id="a" x1="50%" x2="50%" y1="2.868%" y2="100%"><stop stop-color="#0090FF" offset="0"/><stop stop-color="#0076FF" offset="1"/></linearGradient><circle id="b" cx="4.5" cy="4.5" r="4.5"/></defs><g fill="none" fill-rule="evenodd"><circle cx="8" cy="8" r="7" fill="url(#a)"/><path d="M2.766 8a5.234 5.234 0 1 1 1.373 3.533.383.383 0 1 0-.565.518A6 6 0 1 0 2 8l-1-.001 1.445 2.897L3.891 8H2.766z" fill="#fff" fill-rule="nonzero"/><g transform="translate(3.5 3.5)" fill="#fff"><mask id="c"><use xlink:href="#b"/></mask><path d="M-.5 6.9c1.101.32 4.114 1.014 6.017-.329C6.751 5.7 6.592 4.304 6.592 4.304c-.02-1.061-.691-2.116-.691-2.116 2.608 2.274 1.067 4.8 1.067 4.8-.794 1.561-2.515 2.5-3.888 2.83A5.244 5.244 0 0 1-.5 6.9zm.707-5.497c.323 1.693 1.048 3.121 1.53 3.64.623.672 1.54 1.384 2.719 1.09C5.634 5.838 5.873 4.55 5.873 4.55c.26-1.096-.11-2.397-.13-2.424-.02-.028-.197-.059-.197-.059.185 1.726-.269 2.49-.269 2.49-.66 1.352-1.63.934-1.63.934C2.57 4.942 2.62 3.393 2.62 3.393 2.587 2.317 3.014.536 3.834-.5A5.225 5.225 0 0 0 .207 1.403zm6.1-1.504c-.63.512-1.7 1.604-1.7 1.604-1.59 1.473-1.281 2.712-1.281 2.712.253 1.301 1.04.425 1.04.425.829-.856.767-2.561.767-2.561-.335.054-.547.24-.547.24-.042 1.136-.713 1.841-.713 1.841-.26.288-.445.014-.445.014-.136-.206.137-.35.137-.35.383-.335.498-.907.494-1.122-.006-.215.109-.274.109-.274.54-.418 1.082-.664 1.082-.664.726-.37 2.02-.432 2.02-.432.351.012.686-.006.955-.029A5.246 5.246 0 0 0 6.307-.101z" mask="url(#c)"/></g></g></svg>