<svg width="16" height="16" version="1.1" viewBox="0 0 16 16" xmlns="http://www.w3.org/2000/svg" xmlns:xlink="http://www.w3.org/1999/xlink"><title>deepin-repair-tools</title><defs><linearGradient id="a" x1="50%" x2="50%" y1="92.41%"><stop stop-color="#8E8E8E" offset="0"/><stop stop-color="#AFAFAF" offset=".932"/><stop stop-color="#BEBEBE" offset=".932"/><stop stop-color="#C2C2C2" offset="1"/></linearGradient><linearGradient id="c" x1="50%" x2="50%" y2="97.583%"><stop stop-color="#A2A2A2" offset="0"/><stop stop-color="#7B7B7B" offset="1"/></linearGradient><path id="b" d="M.144.754L.686.172A.538.538 0 0 1 1.08 0h11.84c.149 0 .292.062.394.172l.542.582c.092.1.144.23.144.367v12.59c0 .16-.122.289-.272.289H.272C.122 14 0 13.87 0 13.71V1.12C0 .986.052.855.145.755z"/></defs><g fill="none" fill-rule="evenodd"><g transform="translate(1 1)"><use fill="url(#a)" fill-rule="evenodd" xlink:href="#b"/><path d="M.5 13.5h13V1.121c0-.01-.004-.02-.01-.026l-.542-.583A.038.038 0 0 0 12.92.5H1.08c-.01 0-.02.005-.028.012l-.542.583a.038.038 0 0 0-.01.026V13.5z" stroke="url(#c)"/></g><path d="M9.415 8.232l-.55-.566a.619.619 0 0 0-.203-.14l-.108-.113.889-1.016a.838.838 0 0 0 .198-.656 1.672 1.672 0 0 1-.012-.27 1.65 1.65 0 0 1-.002-.039c-.044-.868.604-1.609 1.447-1.654a1.5 1.5 0 0 1 1.134.43l-.73.146a.788.788 0 0 0-.609.924.772.772 0 0 0 .904.623l.866-.172a1.542 1.542 0 0 1-1.504 1.195 1.53 1.53 0 0 1-.208.009.79.79 0 0 0-.613.272l-.899 1.028zm-1.259 1.44L5.998 12.14a.949.949 0 0 1-.872 1.11c-.514.027-.952-.38-.979-.909s.368-.98.882-1.008h.098l2.296-2.626c.025.08.064.155.118.22l.615.745zm-2.72 2.262l-.497-.116-.35.383.148.498.497.116.349-.383-.148-.498zm3.21-4.045l3.823 3.939c.26.268.267.714.02.993-.076.073-.263.235-.263.235a.676.676 0 0 1-.951-.094L7.777 8.723a.334.334 0 0 1-.072-.167c-.105-.136-.512-.644-1.35-1.495-.991-1.006-1.16-.499-1.343-.332s-.164.322-.164.322a.545.545 0 0 1-.152.285l-.292.251c-.027.014-.536-.545-.697-.73a7.406 7.406 0 0 1-.36-.478.103.103 0 0 1 .007-.122s.27-.317.37-.323c.294-.018.43-.046.574-.272s.144-.404.224-.535c.053-.087.498-.65 1.148-1.046 1.246-.758 2.214-.805 2.415-.79l.939.067-.486.494a1.84 1.84 0 0 1-.147.046s-.594.135-1.065.488c-.47.352-.598.958-.238 1.672.211.418.35.562.638.9.338.395.638.71.768.844a.31.31 0 0 1 .153.087z" fill="#fff" fill-rule="nonzero"/></g></svg>