<svg width="16" height="16" version="1.1" viewBox="0 0 16 16" xmlns="http://www.w3.org/2000/svg"><title>deepin-music</title><g fill="none" fill-rule="evenodd"><path d="M4 8.5a5.5 5.5 0 1 0 11 0 5.5 5.5 0 0 0-11 0" fill="#478500"/><path d="M5 8.5a4.5 4.5 0 1 0 9 0 4.5 4.5 0 0 0-9 0"/><circle transform="rotate(90 9.5 8.5)" cx="9.5" cy="8.5" r="2.5" fill="#000"/><circle transform="rotate(90 9.5 8.5)" cx="9.5" cy="8.5" r="1.5" fill="#478500"/><path fill="#92DC00" d="M10 2v13H1V2z"/><path d="M5.88 5.225c0-.1.08-.225.245-.225.164 0 .202.153.202.153s-.01.435.835 1c.154.102 1.665 1 .926 2.64 0 0-.04.085-.129.05-.07-.028-.046-.117-.046-.117s.58-1.74-1.586-2.24c0 0 .003 2.36.001 3.006.002.495-.328.947-.923 1.107-.631.169-1.25-.09-1.38-.58-.131-.489.274-1.022.905-1.191.347-.093.69-.057.95.076V5.225z" fill="#fff"/></g></svg>