<svg width="16" height="16" version="1.1" viewBox="0 0 16 16" xmlns="http://www.w3.org/2000/svg"><title>ISO安装器-16px</title><g fill="none" fill-rule="evenodd"><path d="M9.544 1.223a5.499 5.499 0 1 0-3.088 10.555A5.499 5.499 0 0 0 9.544 1.222z" fill="#fff"/><path d="M9.625 2.025a4.701 4.701 0 0 0-2.06-.253c-.788.062-1.172.306-1.15.262-1.286.46-2.373 1.447-2.877 2.833a4.757 4.757 0 0 0 2.837 6.095 4.747 4.747 0 0 0 6.087-2.842 4.757 4.757 0 0 0-2.837-6.095zm-3.088 8.49a4.261 4.261 0 0 1-.739-.357c1.149.088 2.647-.176 3.657-1.122 0 0 1.927-1.539.533-4.065 0 0 .225 1.018-.062 1.856 0 0-.273 1.138-1.487 1.469-1.788.487-3.825-.764-4.677-1.37a4.241 4.241 0 0 1 .221-1.896 4.239 4.239 0 0 1 1.753-2.146c-.194 1.36-.04 2.613.18 3.137.297.704.812 1.524 1.817 1.63 1.006.105 1.56-.836 1.56-.836.516-.784.597-1.91.589-1.936-.008-.028-.138-.102-.138-.102-.347 1.404-.92 1.874-.92 1.874-.902.871-1.54.267-1.54.267-.688-.738-.207-1.938-.207-1.938.27-.817 1.053-2.012 1.942-2.62.148.037.297.06.443.113a4.24 4.24 0 0 1 1.407.854c-.65.237-1.699.739-1.699.739-1.663.7-1.775 1.76-1.775 1.76-.172 1.091.694.629.694.629.892-.434 1.33-1.788 1.33-1.788a.994.994 0 0 0-.497.032c-.356.878-1.082 1.24-1.082 1.24-.286.151-.353-.116-.353-.116-.048-.2.207-.235.207-.235.396-.153.649-.57.706-.74.057-.17.163-.183.163-.183.543-.173 1.037-.211 1.037-.211.673-.083 1.703.238 1.703.238.232.093.453.162.65.218.378.944.437 2.018.063 3.048a4.273 4.273 0 0 1-5.479 2.558z" fill="#00B7FF" opacity=".8"/><path fill="#D69A4E" d="M2 6h12v9H2z"/><g fill="#B08043"><path d="M6.824 11.264h-.801v-.139c0-.047.043-.093.09-.094h.667c.04 0 .088.048.087.093v.093s0 .047-.043.047m.22.65c.046 0 .046-.043.046-.047v-.138c0-.046-.045-.047-.045-.047h-.934c-.09 0-.088-.092-.088-.092-.001-.005 0-.094 0-.094h.89c.246 0 .221-.186.221-.186v-.185s.024-.327-.31-.327h-.75c-.34 0-.317.323-.317.323v.467c0 .326.312.325.312.325l.975.001zM5.4 11.636s0 .046-.045.046h-.43c-.145 0-.324-.034-.324-.322 0-.288.198-.328.322-.328H5.4v.605m.222-1.257h-.177s-.044 0-.044.048v.37h-.576c-.418 0-.492.379-.492.559 0 .18.075.557.498.556h.614c.222 0 .222-.23.222-.23v-1.257c0-.047-.045-.047-.045-.047M10.334 10.659h-.178a.046.046 0 0 1-.044-.047v-.186c0-.026.02-.046.044-.046h.178c.024 0 .044.02.044.046v.186c0 .026-.02.047-.044.047M10.334 11.914h-.178a.046.046 0 0 1-.044-.046v-1.023c0-.026.02-.047.044-.047h.178c.024 0 .044.02.044.047v1.023c0 .026-.02.046-.044.046M11.178 10.798h-.71v1.07c0 .02.012.051.052.046h.156c.061.009.06-.048.06-.048l-.002-.835h.444c.007 0 .18.004.18.232l-.002.605c0 .026.02.047.045.047h.177c.025 0 .045-.021.045-.047v-.626c0-.258-.118-.443-.445-.444M8.956 11.075s0-.045.045-.045h.43c.145 0 .324.034.324.322 0 .288-.198.328-.322.328h-.477v-.605m-.222 1.257h.177s.045 0 .045-.048v-.37h.575c.419 0 .492-.38.492-.559 0-.18-.075-.557-.498-.556H8.91c-.222 0-.222.23-.222.23v1.257c0 .046.045.046.045.046M8.29 11.264h-.8v-.139c0-.047.043-.093.089-.094h.668c.04 0 .087.048.087.093v.093s0 .047-.044.047m.221.65c.046 0 .046-.043.046-.047v-.138c0-.046-.045-.047-.045-.047h-.934c-.09 0-.089-.092-.089-.092v-.094h.89c.247 0 .222-.186.222-.186v-.185s.024-.327-.31-.327h-.75c-.34 0-.317.323-.317.323v.467c0 .326.311.325.311.325l.976.001z"/></g><path fill="#FFCD6F" d="M15.321 9H.651l1.333-3h12z"/></g></svg>