<svg width="16" height="16" version="1.1" viewBox="0 0 16 16" xmlns="http://www.w3.org/2000/svg"><title>深度商店-16px</title><g fill="none" fill-rule="evenodd"><path fill="#EFEFEF" d="M2 3h12v3.333H2z"/><path fill="#FFA737" d="M2 6h12v9H2z"/><path d="M13 6v9h-2V6h2zM9 6v9H7V6h2zM5 6v9H3V6h2z" fill="#FF7300"/><path d="M4.5 5a.5.5 0 1 0 0-1 .5.5 0 0 0 0 1zm7 0a.5.5 0 1 0 0-1 .5.5 0 0 0 0 1z" fill="#785C46"/><path d="M11.5 4.6c0 2.21-1 3.9-3.5 3.9S4.5 6.81 4.5 4.6" stroke="#fff" stroke-linecap="round" stroke-linejoin="round" stroke-width=".6"/></g></svg>