<svg width="16" height="16" version="1.1" viewBox="0 0 16 16" xmlns="http://www.w3.org/2000/svg"><title>软件包安装器-16px</title><g fill="none" fill-rule="evenodd"><path fill="#D70751" d="M3 14V2h10v12z"/><path d="M10.184 6.669l-.108.054c-.088.171.009.108-.054.245-.138.122-.418.382-.507.406-.066-.001.044-.077.058-.107-.184.127-.148.19-.43.267-.702.309-1.668-.34-1.655-1.223-.007.056-.021.042-.036.065-.036-.455.21-.912.624-1.098.406-.201.881-.119 1.172.152-.16-.209-.477-.43-.854-.41-.368.006-.713.24-.829.495-.188.119-.21.458-.293.52-.11.815.209 1.166.749 1.58.084.057.023.066.035.11a1.464 1.464 0 0 1-.479-.367c.072.105.15.207.25.287-.17-.057-.396-.41-.462-.424.292.522 1.183.916 1.65.72-.216.008-.49.005-.733-.085-.103-.052-.24-.16-.216-.181.637.238 1.295.18 1.846-.262.14-.11.293-.295.337-.297-.066.1.012.048-.04.136.14-.225-.06-.091.145-.389l.076.105c-.029-.188.232-.415.205-.71.06-.09.067.097.004.305.088-.23.023-.268.045-.458.025.064.057.132.073.2-.057-.224.059-.376.088-.506-.029-.013-.089.099-.102-.165.002-.114.031-.06.043-.088-.022-.013-.081-.1-.117-.269.026-.04.07.103.105.108-.023-.133-.062-.235-.064-.338-.103-.216-.037.029-.12-.093-.11-.343.09-.08.105-.235.166.241.261.616.305.77a3.157 3.157 0 0 0-.153-.549c.05.022-.082-.389.066-.117-.158-.58-.674-1.12-1.149-1.374.058.053.132.12.105.13-.236-.14-.195-.152-.228-.211-.193-.078-.205.006-.333 0-.363-.192-.432-.172-.766-.292l.015.07c-.24-.08-.28.03-.54 0-.016-.012.083-.044.165-.056-.232.031-.222-.046-.449.009.056-.04.115-.066.175-.1-.19.012-.452.111-.371.021-.31.138-.858.332-1.166.62l-.01-.064c-.14.17-.615.506-.653.726l-.038.008c-.073.125-.12.266-.179.393-.096.164-.14.063-.127.09-.189.382-.283.704-.364.968.058.086.001.52.023.867-.095 1.713 1.203 3.377 2.62 3.761.209.074.518.072.78.08-.31-.09-.35-.048-.652-.153-.218-.103-.265-.22-.42-.354l.061.108c-.303-.107-.176-.133-.422-.21l.065-.086c-.098-.007-.26-.165-.304-.253l-.108.004c-.128-.159-.197-.273-.192-.362l-.035.061c-.04-.067-.475-.597-.249-.473-.042-.039-.097-.063-.158-.173l.046-.052c-.109-.14-.2-.32-.193-.379.058.078.098.093.138.106-.274-.68-.29-.037-.498-.693l.044-.003c-.033-.051-.054-.106-.081-.16l.02-.191c-.198-.228-.056-.971-.027-1.379.02-.165.164-.342.275-.618l-.067-.012c.128-.224.734-.9 1.014-.866.136-.17-.027 0-.053-.044.298-.308.392-.218.594-.273.217-.13-.187.05-.084-.05.376-.095.266-.218.756-.266.052.03-.12.045-.163.083.313-.153.99-.118 1.43.085.51.239 1.084.944 1.107 1.607l.025.007c-.013.264.04.569-.052.85l.063-.134c.007.202-.059.3-.119.473z" fill="#fff"/><path fill="#D0DFED" d="M2 6h12v9H2z"/><g fill="#10ACFF"><path d="M6.824 11.63h-.801v-.138c0-.047.043-.093.09-.094h.667c.04 0 .088.048.087.093v.093s0 .047-.043.047m.22.65c.046 0 .046-.043.046-.047v-.138c0-.046-.045-.047-.045-.047h-.934c-.09 0-.088-.092-.088-.092-.001-.005 0-.094 0-.094h.89c.246 0 .221-.186.221-.186v-.185s.024-.327-.31-.327h-.75c-.34 0-.317.323-.317.323v.467c0 .326.312.325.312.325l.975.001zM5.4 12.003s0 .046-.045.046h-.43c-.145 0-.324-.034-.324-.322 0-.288.198-.328.322-.328H5.4v.605m.222-1.257h-.177s-.044 0-.044.048v.37h-.576c-.418 0-.492.379-.492.559 0 .18.075.557.498.556h.614c.222 0 .222-.23.222-.23v-1.257c0-.047-.045-.047-.045-.047M10.334 11.026h-.178a.046.046 0 0 1-.044-.047v-.186c0-.026.02-.046.044-.046h.178c.024 0 .044.02.044.046v.186c0 .026-.02.047-.044.047M10.334 12.281h-.178a.046.046 0 0 1-.044-.046v-1.023c0-.026.02-.047.044-.047h.178c.024 0 .044.02.044.047v1.023c0 .026-.02.046-.044.046M11.178 11.165h-.71v1.07c0 .02.012.051.052.046h.156c.061.009.06-.048.06-.048l-.002-.835h.444c.007 0 .18.004.18.232l-.002.605c0 .026.02.047.045.047h.177c.025 0 .045-.021.045-.047v-.626c0-.258-.118-.443-.445-.444M8.956 11.442s0-.045.045-.045h.43c.145 0 .324.034.324.322 0 .288-.198.328-.322.328h-.477v-.605M8.734 12.7h.177s.045 0 .045-.048v-.37h.575c.419 0 .492-.38.492-.559 0-.18-.075-.557-.498-.556H8.91c-.222 0-.222.23-.222.23v1.257c0 .046.045.046.045.046M8.29 11.63h-.8v-.138c0-.047.043-.093.089-.094h.668c.04 0 .087.048.087.093v.093s0 .047-.044.047m.221.65c.046 0 .046-.043.046-.047v-.138c0-.046-.045-.047-.045-.047h-.934c-.09 0-.089-.092-.089-.092v-.094h.89c.247 0 .222-.186.222-.186v-.185s.024-.327-.31-.327h-.75c-.34 0-.317.323-.317.323v.467c0 .326.311.325.311.325l.976.001z"/></g><path fill="#CDDDEA" d="M16 10H0l1.5-4h13z"/><path fill="#fff" d="M15 9H1l1-3h12z"/></g></svg>