<svg width="16" height="16" version="1.1" viewBox="0 0 16 16" xmlns="http://www.w3.org/2000/svg"><title>deepin-screen-recorder</title><defs><linearGradient id="a" x1="50%" x2="50%" y2="100%"><stop stop-color="#FF7C44" offset="0"/><stop stop-color="#FF4E5A" offset="1"/></linearGradient></defs><g fill="none" fill-rule="evenodd"><rect transform="rotate(-6 8 8.167)" x="1.333" y="2.333" width="13.333" height="11.667" rx=".333" fill="url(#a)"/><g fill="#fff"><path d="M9.432 6.83l2.173-1.362c.177-.112.34-.033.363.175l.45 4.156c.022.208-.12.32-.317.251l-2.42-.852.053.5a.76.76 0 0 1-.676.835l-4.912.517a.76.76 0 0 1-.835-.678l-.357-3.398a.76.76 0 0 1 .676-.836l4.912-.516a.76.76 0 0 1 .835.677l.055.53zm0 0L7.425 8.088c-.178.111-.162.258.036.328l2.22.782-.248-2.368z"/><path opacity=".3" d="M10.792 6.03l3.455-2.207.766 7.293-3.837-1.44z"/><circle cx="13.25" cy="2.875" r=".375"/></g></g></svg>