<svg width="16" height="16" version="1.1" viewBox="0 0 16 16" xmlns="http://www.w3.org/2000/svg"><title>深度截图-16px</title><g fill="none" fill-rule="evenodd"><path fill="#A6DBFF" d="M2.881 1.5L16 5l-2.86 10.046L.011 11.58z"/><path fill="#EA004E" d="M15.018 14.01h-14V3.439h14z"/><path d="M15 3H1v6.695c3.59 2.29 6.935-.71 7.654-2.28.81.532 2.695.238 3.507-.772.5 1.306 1.875 2.222 2.839 2.171V3z" fill="#FF0056"/><path d="M11 6.5s0-.5-.558-.5H6V4.5S6 4 5.5 4s-.5.5-.5.5V6H3.5S3 6 3 6.5s.5.5.5.5H5v3.5c0 .5.5.5.5.5H10v1.5s0 .5.5.5.5-.5.5-.5V11h1.512S13 11 13 10.5s-.488-.5-.488-.5H11V6.5zM6 10V7h4v3H6z" fill="#fff"/></g></svg>