<svg width="16" height="16" version="1.1" viewBox="0 0 16 16" xmlns="http://www.w3.org/2000/svg"><title>deepin-editor</title><defs><linearGradient id="a" x1="45.539%" x2="78.408%" y2="98.354%"><stop stop-color="#2EA3D5" offset="0"/><stop stop-color="#6FAAF2" offset="1"/></linearGradient></defs><g fill="none" fill-rule="evenodd"><path fill="url(#a)" d="M2 1h12v14H2z"/><path d="M13 11.618c0 .67-.15 1.206-.447 1.605-.299.4-.757.658-1.374.777v-.725a.808.808 0 0 0 .455-.577h-.455v-1.982H13v.902zm-2.433 0c0 .67-.15 1.206-.448 1.605-.298.4-.756.658-1.374.777v-.725c.157-.08.267-.158.33-.237s.105-.192.126-.34h-.456v-1.982h1.822v.902zM3 4.816V3h3.686v3.99h-.922c.106.516.413.903.922 1.161v1.46c-1.25-.239-2.177-.76-2.78-1.564S3 6.167 3 4.817zm4.925 0V3h3.685v3.99h-.921c.042.298.127.526.254.685.127.159.35.318.667.476v1.46c-1.25-.239-2.176-.76-2.78-1.564s-.905-1.88-.905-3.23z" fill="#fff"/></g></svg>