<svg width="16" height="16" version="1.1" viewBox="0 0 16 16" xmlns="http://www.w3.org/2000/svg"><title>深度云扫描-16px</title><g fill="none" fill-rule="evenodd"><path d="M15 8.068c0-1.332-.867-2.455-2.054-2.812-.34-1.37-1.55-2.387-2.993-2.387-.42 0-.82.087-1.185.242a3.381 3.381 0 0 0-2.499-1.11C4.391 2 2.867 3.547 2.838 5.466A2.846 2.846 0 0 0 1 8.147c0 1.565 1.231 2.835 2.754 2.85V11h8.475v-.006C13.767 10.947 15 9.656 15 8.068z" fill="#E7F4FF"/><path fill="#ACDCFC" d="M3 6h10v9H3z"/><path fill="#0070FF" d="M4 7h8v7H4z"/><path fill="#fff" opacity=".5" d="M6 8h4v5H6z"/><path fill="#fff" d="M5 11v1H4V9h1v1h6V9h1v3h-1v-1z"/></g></svg>