<svg width="16" height="16" version="1.1" viewBox="0 0 16 16" xmlns="http://www.w3.org/2000/svg"><title>深度启动盘制作工具-16px</title><g fill="none" fill-rule="evenodd"><path d="M8.018 13.987c-1.517 1.517-4.215 1.28-5.733-.238C.768 12.232.53 9.533 2.047 8.016L4.793 5.27l5.971 5.971-2.746 2.746zm-5-.97c-.817-.817-1.234-2.2-.86-3.217l4.06 4.06c-1.018.374-2.385-.028-3.2-.843z" fill="#F5B923"/><path d="M8.864 1.216a.673.673 0 0 1 .954.003l5.014 5.014a.676.676 0 0 1 .003.954l-4.301 4.301-5.971-5.971 4.301-4.301z" fill="#000"/><path d="M9.818 2.173l.477.478-1.91 1.91-.478-.477 1.91-1.91zM13.4 5.756l.478.477-1.91 1.911-.479-.477L13.4 5.756zm-2.627-2.15l.478.478-1.434 1.433-.477-.478 1.433-1.433zM11.967 4.8l.478.478-1.433 1.433-.478-.478L11.967 4.8zM7.43 6.472l.478.478-.478.478-.478-.478.478-.478zm1.672 1.672l.478.478L9.1 9.1l-.478-.478.478-.478z" fill="#FFEB95"/></g></svg>