<svg width="16" height="16" version="1.1" viewBox="0 0 16 16" xmlns="http://www.w3.org/2000/svg"><title>deepin-system-monitor</title><defs><linearGradient id="a" x1="56.484%" x2="38.763%" y1="100%"><stop stop-color="#5F3EFF" offset="0"/><stop stop-color="#6E62FF" offset="1"/></linearGradient><linearGradient id="b" x1="50%" x2="50%" y2="100%"><stop stop-color="#1E007E" offset="0"/><stop stop-color="#3721B2" offset="1"/></linearGradient></defs><g fill="none" fill-rule="evenodd"><circle cx="8" cy="8" r="7" fill="url(#a)"/><circle cx="8" cy="8" r="5.5" fill="url(#b)"/><path fill="#fff" opacity=".5" d="M7 13.5h2v1H7z"/><g stroke="#fff" stroke-linecap="round"><path d="M10.524 13.168a5.75 5.75 0 1 0-5.035.006" opacity=".504" stroke-width=".5"/><path d="M8 2.25a5.75 5.75 0 0 0-2.511 10.924" stroke-width=".5"/><path d="M3.5 8.921s.333.816 1 .816c1.5 0 1-4.487 2.5-4.487s.667 4.487 2.167 4.487c1 0 .5-2.04 1.333-2.04s.167 2.244 2 2.04" stroke-linejoin="round" stroke-width=".8"/></g></g></svg>