<svg width="16" height="16" version="1.1" viewBox="0 0 16 16" xmlns="http://www.w3.org/2000/svg"><title>deepin-font-installer</title><g fill="none" fill-rule="evenodd"><path fill="#E5B400" d="M3 14V2h10v12z"/><path d="M9.178 10H6.276v-.345c.256-.017.468-.049.636-.098s.253-.108.253-.18a.716.716 0 0 0-.04-.219L6.6 7.968H3.968c-.032.084-.06.164-.085.237a29.69 29.69 0 0 0-.155.467c-.042.14-.072.253-.088.34a1.217 1.217 0 0 0-.025.215c0 .13.103.23.31.301.206.071.438.114.697.127V10H2v-.345c.085-.007.192-.026.32-.056.127-.031.232-.072.313-.124.131-.088.233-.18.305-.275.072-.096.142-.228.211-.397.35-.866.736-1.838 1.159-2.918.422-1.08.798-2.042 1.129-2.885h.393l2.322 5.954c.049.127.105.229.167.307.062.077.149.154.26.228a1.1 1.1 0 0 0 .295.115c.12.03.222.047.304.05V10zM6.3 7H4.308l1.038-2.583L6.3 7zm7.4 2.793a7.526 7.526 0 0 1-.409.132c-.117.034-.25.051-.399.051-.258 0-.463-.059-.617-.176s-.252-.288-.295-.512h-.03a2.409 2.409 0 0 1-.691.53c-.246.121-.543.182-.89.182-.367 0-.668-.109-.904-.327s-.355-.504-.355-.857c0-.183.027-.346.08-.49s.132-.275.237-.39c.083-.097.192-.183.328-.258.135-.075.262-.135.381-.18.149-.055.45-.156.905-.304.454-.147.76-.263.92-.346v-.476c0-.042-.01-.122-.028-.241a.967.967 0 0 0-.397-.647c-.12-.089-.291-.133-.513-.133-.152 0-.293.025-.423.075s-.223.102-.275.156c0 .064.015.16.047.284.031.125.047.24.047.347 0 .112-.052.215-.156.308-.104.093-.25.14-.434.14-.165 0-.287-.058-.364-.172s-.117-.241-.117-.382a.67.67 0 0 1 .161-.424c.108-.134.247-.255.419-.36.149-.09.329-.167.54-.23s.418-.093.62-.093c.277 0 .52.018.726.055.207.037.394.117.563.239.168.118.296.28.384.483.087.204.131.466.131.787 0 .459-.005.865-.015 1.22s-.015.742-.015 1.162c0 .125.023.225.067.299s.113.136.206.187c.05.03.128.045.235.048.108.004.218.005.33.005v.308zM11.97 7.27c-.28.08-.527.158-.738.235a3.034 3.034 0 0 0-.59.286 1.317 1.317 0 0 0-.392.385.951.951 0 0 0-.144.528c0 .265.072.46.216.584a.807.807 0 0 0 .548.186c.234 0 .44-.055.62-.165.178-.11.328-.24.45-.39l.03-1.649z" fill="#fff"/><path fill="#D0DFED" d="M2 6h12v9H2z"/><g fill="#10ACFF"><path d="M6.824 11.63h-.801v-.138c0-.047.043-.093.09-.094h.667c.04 0 .088.048.087.093v.093s0 .047-.043.047m.22.65c.046 0 .046-.043.046-.047v-.138c0-.046-.045-.047-.045-.047h-.934c-.09 0-.088-.092-.088-.092-.001-.005 0-.094 0-.094h.89c.246 0 .221-.186.221-.186v-.185s.024-.327-.31-.327h-.75c-.34 0-.317.323-.317.323v.467c0 .326.312.325.312.325l.975.001zM5.4 12.003s0 .046-.045.046h-.43c-.145 0-.324-.034-.324-.322 0-.288.198-.328.322-.328H5.4v.605m.222-1.257h-.177s-.044 0-.044.048v.37h-.576c-.418 0-.492.379-.492.559 0 .18.075.557.498.556h.614c.222 0 .222-.23.222-.23v-1.257c0-.047-.045-.047-.045-.047M10.334 11.026h-.178a.046.046 0 0 1-.044-.047v-.186c0-.026.02-.046.044-.046h.178c.024 0 .044.02.044.046v.186c0 .026-.02.047-.044.047M10.334 12.281h-.178a.046.046 0 0 1-.044-.046v-1.023c0-.026.02-.047.044-.047h.178c.024 0 .044.02.044.047v1.023c0 .026-.02.046-.044.046M11.178 11.165h-.71v1.07c0 .02.012.051.052.046h.156c.061.009.06-.048.06-.048l-.002-.835h.444c.007 0 .18.004.18.232l-.002.605c0 .026.02.047.045.047h.177c.025 0 .045-.021.045-.047v-.626c0-.258-.118-.443-.445-.444M8.956 11.442s0-.045.045-.045h.43c.145 0 .324.034.324.322 0 .288-.198.328-.322.328h-.477v-.605M8.734 12.7h.177s.045 0 .045-.048v-.37h.575c.419 0 .492-.38.492-.559 0-.18-.075-.557-.498-.556H8.91c-.222 0-.222.23-.222.23v1.257c0 .046.045.046.045.046M8.29 11.63h-.8v-.138c0-.047.043-.093.089-.094h.668c.04 0 .087.048.087.093v.093s0 .047-.044.047m.221.65c.046 0 .046-.043.046-.047v-.138c0-.046-.045-.047-.045-.047h-.934c-.09 0-.089-.092-.089-.092v-.094h.89c.247 0 .222-.186.222-.186v-.185s.024-.327-.31-.327h-.75c-.34 0-.317.323-.317.323v.467c0 .326.311.325.311.325l.976.001z"/></g><path fill="#CCDCEA" d="M16 10H0l1.5-4h13z"/><path fill="#fff" d="M15 9H1l1-3h12z"/></g></svg>