<svg width="16" height="16" version="1.1" viewBox="0 0 16 16" xmlns="http://www.w3.org/2000/svg"><title>深度云打印-linux-16px</title><g fill="none" fill-rule="evenodd"><path fill="#0080FF" d="M3 5.999V1h10v5z"/><path d="M15 8.068c0-1.332-.867-2.455-2.054-2.811-.34-1.372-1.55-2.388-2.993-2.388-.42 0-.82.087-1.185.242a3.381 3.381 0 0 0-2.499-1.11C4.391 2 2.867 3.547 2.838 5.466A2.846 2.846 0 0 0 1 8.147c0 1.565 1.231 2.835 2.754 2.85V11h8.475v-.005C13.767 10.947 15 9.657 15 8.068z" fill="#E7F4FF"/><path fill="#0080FF" d="M3 8v7h10V8z"/><path fill="#fff" d="M5 10h6v1H5zM5 12h6v1H5z"/></g></svg>