<svg width="16" height="16" version="1.1" viewBox="0 0 16 16" xmlns="http://www.w3.org/2000/svg"><title>deepin-manual</title><defs><radialGradient id="a" cy="17.574%" r="96.089%" gradientTransform="matrix(0 .85714 -1 0 .676 -.253)"><stop stop-color="#04A38C" offset="0"/><stop stop-color="#075661" offset="1"/></radialGradient></defs><g fill="none" fill-rule="evenodd"><rect x="2" y="1" width="12" height="14" rx="1" fill="url(#a)"/><path d="M5 12h6c-.284 0-.217.04 0 0v1c.005-.04-.057 0 0 0H5c.057 0-.005-.04 0 0v-1c.217.04.284 0 0 0zm1-8l2-2 2 2H6zm1 1v1H6V5h1zm3 0v1H9V5h1zM5 7h6v1H5V7zm1 4l.2-2h3.6l.2 2H6z" fill="#fff"/><path d="M2 7V4l3.333 1v1L2 7zm8.667-2L14 4v3l-3.333-1V5z" fill="#fff" opacity=".3"/></g></svg>