<svg width="16" height="16" version="1.1" viewBox="0 0 16 16" xmlns="http://www.w3.org/2000/svg"><title>deepin-sound-recorder</title><defs><linearGradient id="a" x1="50%" x2="50%" y1="1.851%" y2="99.834%"><stop stop-color="#FF5388" offset="0"/><stop stop-color="#EE3A3A" offset="1"/></linearGradient></defs><g fill="none" fill-rule="evenodd"><path d="M8.003 12.979C5.573 12.766 4 10.982 4 8.57V6h1v2.57C5 10.6 6.35 12 8.5 12c1.89 0 3.097-1.079 3.446-2.87.026-.136.054-.754.054-1.066V6.001h1V8.064c0 .379-.03 1.036-.073 1.256-.405 2.085-1.816 3.47-3.924 3.659v1.025L11 14v1H6v-1l2.003.003v-1.025zM6 3.499C6 2.118 7.11 1 8.5 1 9.88 1 11 2.128 11 3.498v5.005C11 9.883 9.89 11 8.5 11 7.12 11 6 9.873 6 8.503V3.498z" fill="url(#a)"/><circle cx="8.5" cy="3.5" r=".5" fill="#fff"/></g></svg>