<svg width="16" height="16" version="1.1" viewBox="0 0 16 16" xmlns="http://www.w3.org/2000/svg"><title>deepin-picker</title><defs><linearGradient id="a" x1="50%" x2="50%" y2="96.171%"><stop stop-color="#2E2E2E" offset="0"/><stop stop-color="#121212" offset="1"/></linearGradient><linearGradient id="b" x1="73.941%" x2="23.567%" y1="21.05%" y2="80.152%"><stop stop-color="#7366FF" offset="0"/><stop stop-color="#1696FF" offset="1"/></linearGradient><linearGradient id="c" x1="100%" x2="20.305%" y1="50%" y2="50%"><stop stop-color="#8D47FF" offset="0"/><stop stop-color="#6671FF" offset="1"/></linearGradient><linearGradient id="d" x1="18.766%" x2="50%" y1="112.69%" y2="18.521%"><stop stop-color="#30CED6" offset="0"/><stop stop-color="#1696FF" offset="1"/></linearGradient><linearGradient id="e" x1="26.073%" x2="12.986%" y1="100%" y2="-7.141%"><stop stop-color="#7EE22C" offset="0"/><stop stop-color="#30D6B2" offset="1"/></linearGradient><linearGradient id="f" x1="79.217%" x2="22.467%" y1="71.367%" y2="22.123%"><stop stop-color="#C1EA55" offset="0"/><stop stop-color="#74E126" offset="1"/></linearGradient><linearGradient id="g" x1="100%" x2="16.903%" y1="50%" y2="50%"><stop stop-color="#FBEF4D" offset="0"/><stop stop-color="#B9EA56" offset="1"/></linearGradient><linearGradient id="h" x1="77.72%" x2="-7.124%" y1="30.681%" y2="61.264%"><stop stop-color="#FFD600" offset="0"/><stop stop-color="#FFED58" offset="1"/></linearGradient><linearGradient id="i" x1="74.532%" x2="23.798%" y1="18.977%" y2="80.404%"><stop stop-color="#FFC134" offset="0"/><stop stop-color="#FBE04D" offset="1"/></linearGradient><linearGradient id="j" x1="61.454%" x2="84.081%" y1="95.287%" y2="-4.772%"><stop stop-color="#F5B543" offset="0"/><stop stop-color="#EF7640" offset="1"/></linearGradient><linearGradient id="k" x1="50%" x2="32.704%" y1="112.68%" y2="28.695%"><stop stop-color="#EF7640" offset="0"/><stop stop-color="#FB563F" offset="1"/></linearGradient><linearGradient id="l" x1="72.174%" x2="17.214%" y1="87.852%" y2="25.963%"><stop stop-color="#FB563F" offset="0"/><stop stop-color="#DA377B" offset="1"/></linearGradient><linearGradient id="m" x1="88.168%" x2="-9.281%" y1="50%" y2="37.72%"><stop stop-color="#DA377B" offset="0"/><stop stop-color="#894CEC" offset="1"/></linearGradient></defs><g transform="translate(1 1)" fill="none" fill-rule="evenodd"><circle cx="7" cy="7" r="7" fill="url(#a)"/><path d="M2.667 1.01L3.67 2.748a4.023 4.023 0 0 0-.819.785L1.108 2.526A6.034 6.034 0 0 1 2.667 1.01z" fill="url(#b)" transform="translate(1 1)"/><path d="M3.542.525A5.967 5.967 0 0 1 5.625.012v2.005a3.976 3.976 0 0 0-1.075.254L3.542.525z" fill="url(#c)" transform="translate(1 1)"/><path d="M.598 3.386L2.337 4.39c-.153.347-.257.72-.306 1.11H.02a5.963 5.963 0 0 1 .577-2.114z" fill="url(#d)" transform="translate(1 1)"/><path d="M.02 6.5h2.01c.05.39.154.763.307 1.11L.597 8.614A5.963 5.963 0 0 1 .022 6.5z" fill="url(#e)" transform="translate(1 1)"/><path d="M1.108 9.474L2.85 8.467c.235.299.51.563.82.785L2.666 10.99a6.034 6.034 0 0 1-1.56-1.516z" fill="url(#f)" transform="translate(1 1)"/><path d="M3.542 11.475L4.55 9.729c.338.132.699.219 1.075.254v2.006a5.966 5.966 0 0 1-2.083-.514z" fill="url(#g)" transform="translate(1 1)"/><path d="M6.625 11.968V9.952a3.97 3.97 0 0 0 1.027-.308l1.003 1.738a5.96 5.96 0 0 1-2.03.586z" fill="url(#h)" transform="translate(1 1)"/><path d="M9.511 10.866L8.505 9.12c.271-.218.514-.471.72-.753l1.74 1.005a6.032 6.032 0 0 1-1.453 1.494z" fill="url(#i)" transform="translate(1 1)"/><path d="M11.456 8.5L9.712 7.494c.126-.314.214-.647.257-.994h2.01a5.964 5.964 0 0 1-.523 2z" fill="url(#j)" transform="translate(1 1)"/><path d="M11.979 5.5h-2.01a3.973 3.973 0 0 0-.258-.994L11.455 3.5c.284.617.465 1.291.524 2z" fill="url(#k)" transform="translate(1 1)"/><path d="M10.964 2.629l-1.74 1.004a4.023 4.023 0 0 0-.72-.753L9.51 1.134c.567.41 1.06.916 1.453 1.495z" fill="url(#l)" transform="translate(1 1)"/><path d="M8.655.618L7.652 2.356a3.97 3.97 0 0 0-1.027-.307V.032a5.96 5.96 0 0 1 2.03.586z" fill="url(#m)" transform="translate(1 1)"/><path d="M3.117 10.896c2.926-1.394 4.6-2.302 5.023-2.725a1.625 1.625 0 0 0-2.298-2.298c-.423.423-1.331 2.097-2.725 5.023z" fill="#fff"/><path d="M7 7.875a.875.875 0 1 0 0-1.75.875.875 0 0 0 0 1.75z" fill="#7BD938" fill-rule="nonzero"/></g></svg>