<?xml version="1.0" encoding="UTF-8"?>
<svg width="16" height="16" version="1.1" viewBox="0 0 16 16" xmlns="http://www.w3.org/2000/svg" xmlns:cc="http://creativecommons.org/ns#" xmlns:dc="http://purl.org/dc/elements/1.1/" xmlns:rdf="http://www.w3.org/1999/02/22-rdf-syntax-ns#">
 <metadata>
  <rdf:RDF>
   <cc:Work rdf:about="">
    <dc:format>image/svg+xml</dc:format>
    <dc:type rdf:resource="http://purl.org/dc/dcmitype/StillImage"/>
    <dc:title>deepin-multitasking-view</dc:title>
   </cc:Work>
  </rdf:RDF>
 </metadata>
 <title>deepin-multitasking-view</title>
 <g transform="matrix(.35 0 0 .35 -.36069 -.41148)">
  <circle cx="24.015" cy="24" r="20" fill="#28ba00"/>
  <g fill="#fff">
   <path d="m24.121 34.762c-5.937 0-10.75-4.813-10.75-10.75 0-4e-3 1e-3 -8e-3 1e-3 -0.012h2.735l-3.49-4-3.495 4h2.5c0 4e-3 -1e-3 8e-3 -1e-3 0.012 0 6.904 5.596 12.5 12.5 12.5 3.489 0 6.642-1.433 8.909-3.739l-1.152-1.331c-1.956 2.042-4.705 3.32-7.757 3.32z"/>
   <path d="m39.124 24h-2.503c-6e-3 -6.898-5.6-12.488-12.499-12.488-3.493 0-6.648 1.436-8.916 3.746l1.152 1.331c1.957-2.046 4.708-3.327 7.763-3.327 5.933 0 10.743 4.807 10.749 10.738h-2.724l3.436 3.998z"/>
   <polygon points="9.117 24.009 9.117 24.006 9.115 24.009"/>
  </g>
 </g>
</svg>
