<svg width="16" height="16" version="1" xmlns="http://www.w3.org/2000/svg"><path d="M8 0a8 8 0 1 0 0 16A8 8 0 0 0 8 0z" fill="#6eaa36"/><path d="M7.994 1.6c-2.454 0-3.857 1.005-4.772 2.137.702.193 1.192.353 1.35.405l.019-1.061.013-.03.036-.012c.216.031 4.817.712 6.755 1.841.24.142.358.289.507.44.535.555 1.247 2.86 1.322 3.337l-.03.049c-.028.01-.096.057-.184.117-.452.317-1.51 1.057-2.865.936-1.219-.108-2.809-.808-4.727-2.071l.55 1.305.027.033c.278.143 2.943 1.502 4.266 1.475 1.067-.022 2.206-.542 2.662-.816l.145-.027c.04.031.034.093.022.15-.028.131-.09.37-.134.482l-.036.093c-.052.138-.102.271-.2.35-.268.245-.699.439-1.37.733-1.04.454-2.723.74-4.288.73a17.576 17.576 0 0 1-1.578-.129c-.993-.113-1.8-.204-2.282.17A6.402 6.402 0 0 0 14.399 8c0-3.534-2.869-6.4-6.403-6.4h-.001zm1.692 3.387c-.49.008-.95.19-1.31.528a1.951 1.951 0 0 0-.627 1.371 1.98 1.98 0 0 0 1.902 2.039 1.955 1.955 0 0 0 1.411-.531c.384-.358.605-.843.624-1.368.037-1.085-.815-2-1.901-2.039h-.099zm-.052.58c.045-.002.088-.001.134 0a1.376 1.376 0 0 1 .893 2.379c-.269.249-.618.377-.986.366a1.379 1.379 0 0 1-1.324-1.423c.011-.366.169-.705.435-.955.233-.219.532-.347.848-.366zm.36.688c-.337 0-.61.182-.61.407 0 .224.273.408.61.408.337 0 .608-.184.608-.408 0-.225-.27-.407-.607-.407z" fill="#fff"/></svg>