<svg width="16" height="16" version="1.1" viewBox="0 0 16 16" xmlns="http://www.w3.org/2000/svg"><path d="M3.005.016a2.937 2.937 0 0 0-1.282.141A2.715 2.715 0 0 0 .414 1.2C-.106 2.028 0 2.492.03 2.948c.029.456.12.884.27 1.327.298.881.822 1.718 1.313 2.52-.248.725-.592 1.427-.594 2.2V9c0 3.843 3.15 7 6.982 7s6.982-3.157 6.982-7v-.005c-.003-.774-.347-1.476-.596-2.202.491-.8 1.016-1.635 1.314-2.518.15-.442.242-.87.271-1.326.03-.456.135-.92-.386-1.748A2.714 2.714 0 0 0 14.276.157a2.937 2.937 0 0 0-1.281-.14c-.328.024-.548.079-.706.115a1.77 1.77 0 0 0-.021.003c-1.27.307-2.534.98-3.787 1.823-.024.016-.053.067-.078.084-.134-.008-.265-.043-.4-.043h-.015c-.132 0-.26.037-.391.045-.026-.017-.054-.07-.078-.086C6.265 1.116 5.002.442 3.732.135A1.987 1.987 0 0 0 3.71.132C3.553.096 3.333.04 3.005.016z" fill="#fb5140"/><path d="M2.832 2.008c-.376-.035-.614.05-.746.26-.141.223-.105.796.088 1.367.21.623.744 1.645 1.205 2.396a5.515 5.515 0 0 1 3.148-2.324c-.043-.03-.07-.051-.123-.086-1.097-.735-2.352-1.347-3.15-1.539a2.72 2.72 0 0 0-.422-.074zm10.336 0a2.72 2.72 0 0 0-.422.074c-.798.192-2.053.804-3.15 1.54-.559.373-.596.422-.596.802 0 .27.021.36.158.644.379.786 1.225 1.588 1.95 1.848.32.115.732.111.884-.008.382-.3 1.506-2.305 1.834-3.273.193-.57.23-1.144.088-1.367-.132-.21-.37-.294-.746-.26zM8 4a5 5 0 0 0-5 5 5 5 0 0 0 5 5 5 5 0 0 0 5-5 5 5 0 0 0-.42-1.988 1.551 1.551 0 0 1-.28.289v.002c-.245.192-.46.195-.683.197a1.949 1.949 0 0 1-.678-.113c-.915-.329-1.783-1.174-2.23-2.102a1.892 1.892 0 0 1-.209-.861c0-.116.015-.253.05-.39A5 5 0 0 0 8 4z" fill="#fff"/></svg>