<svg width="16" height="16" version="1.1" xmlns="http://www.w3.org/2000/svg"><rect width="16" height="16" rx=".8" ry=".8" fill="#7ec242"/><g fill="#fff"><path d="M13 8v3c0 1.149-.856 2-2 2H7v-1h4c.572 0 1-.431 1-1V8z"/><path d="M3 3v8c0 1.149.856 2 2 2h3v-1H5c-.572 0-1-.43-1-1V3z"/><path d="M8 5C7 5 6.005 6 6 6.846V10h1V6.846C7 6.416 7.572 6 8 6c.428 0 1.002.417 1 .846V10h1V6.846C9.995 6 9 5 8 5z"/><path d="M11 5c-1 0-1.995 1-2 1.846V10h1V6.846c0-.43.572-.846 1-.846s1 .416 1 .846V10h1V6.846C12.995 6 12 5 11 5z"/></g></svg>