<svg width="16" height="16" version="1.1" viewBox="0 0 16 16" xmlns="http://www.w3.org/2000/svg"><path d="M15.65.274c-.03-.089-.027-.2-.083-.274-.765.11-1.522.3-2.23.611-.75.322-1.566 1.063-2.139 1.642.934.973 1.657 1.959 2.505 2.881.394.572.792 1.458 1.129 2.064.075-.135.526-.714.588-.856.494-1.016.598-2.166.572-3.279-.012-.938-.151-1.87-.342-2.789zM.35.274C.38.185.377.074.433 0c.765.11 1.522.3 2.23.611.75.322 1.566 1.063 2.139 1.642-.934.973-1.658 1.959-2.505 2.881-.395.572-.792 1.458-1.13 2.064-.074-.135-.525-.714-.588-.856C.086 5.326-.018 4.176.01 3.063c.01-.938.15-1.87.34-2.789z" fill="#db3d7f"/><path d="M5.219 1.892a7.85 7.85 0 0 0-.451.316 9.668 9.668 0 0 0-1.313 1.194 13.507 13.507 0 0 0-.268.298l-.003.003C2.125 4.916 1.284 6.304.612 7.751c-.07.156-.138.312-.204.47l-.043.102-.016.04a17.469 17.469 0 0 0-.334.886.161.161 0 0 0-.015.078v.003c.005.056.031.111.05.165.115.318.25.63.404.933v.002l.076.144.006.012c.272.51.598.993.977 1.435.25.298.523.575.814.834l.08.069.026.023a8.238 8.238 0 0 0 2.591 1.524l.082.03a8.37 8.37 0 0 0 .86.257 8.55 8.55 0 0 0 1.72.237h.008l.152.004h.308l.152-.004h.007a8.548 8.548 0 0 0 1.89-.28h.002c.233-.062.463-.133.69-.214l.08-.03h.001a8.238 8.238 0 0 0 2.697-1.616c.291-.259.565-.536.814-.834.378-.441.704-.924.976-1.434l.008-.015a8.28 8.28 0 0 0 .074-.142l.001-.002a8.48 8.48 0 0 0 .405-.933c.017-.054.044-.11.048-.166v-.001-.001a.161.161 0 0 0-.014-.079 16.541 16.541 0 0 0-.335-.887l-.015-.038-.042-.1a19.43 19.43 0 0 0-.205-.472c-.673-1.447-1.513-2.835-2.572-4.048l-.002-.002-.001-.001a15.71 15.71 0 0 0-.261-.29 9.674 9.674 0 0 0-1.32-1.202 7.85 7.85 0 0 0-.451-.316C9.834 1.287 9.042 1.028 7.968 1c-.976.006-2.061.454-2.749.892z" fill="#e4e4e4"/><g fill="#3f3f3f"><path d="M7.968 1a4.462 4.462 0 0 0-1.262.212c.37 1.306.722 2.617 1.088 3.924l.153-.015c.1-1.369.246-2.736.34-4.105A6.612 6.612 0 0 0 7.968 1zm-1.438.268c-.496.17-.956.398-1.311.624-.206.145-.619.419-.245.172.732 1.137 1.472 2.27 2.206 3.405a8.4 8.4 0 0 0 .14-.055c-.107-.515-.19-1.034-.297-1.549-.09-.429-.155-.862-.245-1.29-.091-.435-.161-.872-.248-1.307zM4.024 8c-.32 0-.641.045-.947.138-.089.538-.133 1.104.05 1.629.142.463.505.857.963 1.04.559.23 1.195.24 1.78.106.075-.336.138-.68.129-1.025.014-.425-.085-.867-.343-1.215-.298-.41-.813-.62-1.313-.658A3.464 3.464 0 0 0 4.023 8zm-.007.443c.171-.003.343.01.51.044.074.03.184.014.236.075-.234.09-.435.28-.5.522a.74.74 0 0 0 .189.732c.273.303.815.317 1.099.023-.007.233-.015.47-.072.696-.237.023-.48.033-.716-.004-.43-.046-.876-.255-1.092-.639-.247-.42-.249-.922-.188-1.389.07-.038.15-.03.227-.037.101-.013.204-.021.307-.023zM6.504 12.162c-.021.043.042.073.066.107.351.33.698.665 1.055.992.072.068.18.098.285.123 0 .196.002.39 0 .586.04.04.114.034.167.013-.003-.197.004-.394-.004-.591.107-.034.223-.064.302-.136.358-.341.722-.68 1.08-1.022.013-.022.059-.042.04-.07a6.303 6.303 0 0 0-1.238-.16 6.623 6.623 0 0 0-1.753.158z"/></g><g fill="none" stroke="#db3d7f" stroke-linecap="round" stroke-linejoin="round" stroke-width="2"><path d="M14 36l-9 7M19 36l-9 7M29 36l9 7M34 36l9 7" transform="matrix(.39978 0 0 .39991 -1.595 -1.6)"/></g><path d="M11.976 8c.32 0 .64.045.946.138.09.538.134 1.104-.049 1.629a1.668 1.668 0 0 1-.964 1.04c-.558.23-1.195.24-1.779.106-.075-.336-.138-.68-.13-1.025-.014-.425.086-.867.344-1.215.297-.41.812-.62 1.312-.658.107-.01.213-.015.32-.015zm.007.443a2.337 2.337 0 0 0-.511.044c-.073.03-.184.014-.236.075.235.09.435.28.5.522a.74.74 0 0 1-.189.732c-.273.303-.814.317-1.098.023.007.233.015.47.072.696.236.023.48.033.715-.004.431-.046.876-.255 1.093-.639.246-.42.248-.922.188-1.389-.07-.038-.15-.03-.227-.037a2.769 2.769 0 0 0-.307-.023z" fill="#3f3f3f"/></svg>