<svg id="SVGRoot" width="16px" height="16px" version="1.1" viewBox="0 0 16 16" xmlns="http://www.w3.org/2000/svg">
<g transform="matrix(1.0769 0 0 1.0769 18.635 -.68205)">
<g stroke-width=".38095">
<path d="m-5.3036 9.0143v-0.7619h2.2857v-4.1905h-2.6667v9.9048h2.6667v-4.9524z" fill="#dae000"/>
<path d="m-5.3036 14.576c0 0.52114-0.44038 0.91429-0.97638 0.91429h-9.4869c-0.53638 0-0.96533-0.39314-0.96533-0.91429v-12.922c0-0.52114 0.42895-1.0206 0.96533-1.0206h9.4869c0.53638 0 0.97638 0.49943 0.97638 1.0206z" fill="#4a9e06"/>
<path d="m-15.97 1.7762h6.0952v6.0952h-6.0952z" fill="#3d3123"/>
</g>
<g transform="matrix(.38095 0 0 .38095 -19.019 -.88895)" fill="#f9f0f7">
<path d="m22.003 25.996h2v5h-2zm3 8h1v6h-1zm-5-8h1v5h-1zm-1 8h1v6h-1zm9-8h2v5h-2zm-3 0h2v5h-2zm2 8h3v6h-3zm-6 0h3v6h-3zm-9-8h1v5h-1zm19 0h2v5h-2zm-23 0h3v5h-3zm6 0h5v5h-5z"/>
</g>
<path d="m-9.1131 1.7762h2.6667v1.5238h-2.6667z" fill="#3d3123" stroke-width=".38095"/>
<path d="m-6.8274 3.3h0.38095v2.6667h-0.38095z" fill="#dae000" stroke-width=".38095"/>
</g>
</svg>
