<svg width="16" height="16" version="1.1" viewBox="0 0 16 16" xmlns="http://www.w3.org/2000/svg"><title>evince</title><defs><linearGradient id="a" x1="11.311%" y1="100%"><stop stop-color="#E91A1A" offset="0"/><stop stop-color="#FA8C55" offset="1"/></linearGradient></defs><g transform="translate(1 2)" fill="none" fill-rule="evenodd"><rect width="14" height="12" rx=".667" fill="url(#a)"/><path d="M4.707 8.603L3 9.667C6.268 6.409 7.992 4.553 8.174 4.1c.272-.68-4.221 0-3.54 3.394.03.154.072.297.124.428l-.17.507h-.227l.195.097-.057.172a3.858 3.858 0 0 1-.682-.39c-2.45-1.765 2.86-6.516 5.31-5.023.181.171.272.393.272.664s0 .408-.272.694c-2.27 2.172-3.45 3.303-3.54 3.394-.09.09-.227.18-.409.271l-.15.094-.016-.034c.59.744 1.762.812 3.519.203.756-.262 2.135-.938 4.136-2.028V8.31C8.94 9.336 6.22 9.467 4.502 8.7l.2-.1.005.004z" fill="#fff" stroke="#fff" stroke-width=".5"/></g></svg>