<svg width="16" height="16" version="1" xmlns="http://www.w3.org/2000/svg"><g fill-rule="evenodd"><circle cx="13" cy="2" r="2" fill="#98ecef"/><circle cx="4" cy="10" r="2" fill="#ff6bf4"/><circle cx="7" cy="14" r="2" fill="#ff6bf4"/><circle cx="4" cy="13" r="3" fill="#cc4e38"/><circle cx="9.5" cy="11.5" r="3.5" fill="#f26666"/><circle cx="8.5" cy="7.5" r="5.5" fill="#fdcc58"/><circle cx="2.5" cy="13.5" r="2.5" fill="#ff6bf4"/><path d="M7.78 6.718c-.55 2.138-1.87 3.738-3.924 3.165C1.8 9.31.582 7.11 1.132 4.973c.55-2.14 2.663-3.408 4.718-2.835s2.48 2.44 1.93 4.58z" fill="#f26666"/><circle cx="13" cy="6" r="2" fill="#98ecef"/><circle cx="11" cy="4" r="3" fill="#4e59b3"/><path d="M11 4c0 1.105-.613 2-1.818 2S7 5.105 7 4s.977-2 2.182-2S11 2.895 11 4z" fill="#98ecef"/></g></svg>