<svg width="16" height="16" version="1.1" viewBox="0 0 16 16" xmlns="http://www.w3.org/2000/svg"><title>firefox-zh</title><defs><linearGradient id="a" x1="50%" x2="50%" y2="100%"><stop stop-color="#F6901A" offset="0"/><stop stop-color="#FF5224" offset="1"/></linearGradient><linearGradient id="b" x1="14.891%" y2="94.152%"><stop stop-color="#F89B09" offset="0"/><stop stop-color="#FBDB00" offset="1"/></linearGradient><linearGradient id="c" x1="100%" x2="30.653%" y2="100%"><stop stop-color="#F95828" offset="0"/><stop stop-color="#F02044" offset="1"/></linearGradient><linearGradient id="d" x1="78.949%" x2="17.556%" y1="50%" y2="100%"><stop stop-color="#B21969" offset="0"/><stop stop-color="#8E123B" offset="1"/></linearGradient><linearGradient id="e" x1="68.403%" x2="44.878%" y1="5.343%" y2="82.82%"><stop stop-color="#01A2FC" offset="0"/><stop stop-color="#441A7E" offset="1"/></linearGradient><linearGradient id="f" x1="50%" x2="50%" y2="100%"><stop stop-color="#EF2545" offset="0"/><stop stop-color="#C01F49" offset="1"/></linearGradient><linearGradient id="g" x1="78.822%" x2="-13.943%" y2="45.581%"><stop stop-color="#FEEA04" offset="0"/><stop stop-color="#FFE900" offset=".273"/><stop stop-color="#FF7916" offset=".461"/><stop stop-color="#FF282F" offset=".762"/><stop stop-color="#BF0573" offset="1"/></linearGradient><linearGradient id="h" x1="87.484%" x2="24.044%" y2="80.394%"><stop stop-color="#F79C0F" offset="0"/><stop stop-color="#FF681C" offset="1"/></linearGradient><linearGradient id="i" x1="8.637%" x2="84.097%" y1="50.959%" y2="50.959%"><stop stop-color="#FF372A" offset="0"/><stop stop-color="#FF8703" offset=".788"/><stop stop-color="#FCAA00" offset="1"/></linearGradient><linearGradient id="j" x1="7.662%" x2="90.599%" y1="14.433%" y2="74.416%"><stop stop-color="#D93A20" offset="0"/><stop stop-color="#FF4D1E" offset=".274"/><stop stop-color="#FF8703" offset=".535"/><stop stop-color="#FFBC01" offset="1"/></linearGradient><linearGradient id="k" x1="24.883%" x2="68.014%" y1="12.561%" y2="91.581%"><stop stop-color="#E3311F" offset="0"/><stop stop-color="#F14719" offset=".5"/><stop stop-color="#EA2C16" offset="1"/></linearGradient><linearGradient id="l" x1="56.669%" x2="-11.273%" y1="2.799%" y2="100%"><stop stop-color="#FF9302" offset="0"/><stop stop-color="#FFCA00" offset=".317"/><stop stop-color="#FF7B16" offset=".765"/><stop stop-color="#FF5F1F" stop-opacity="0" offset="1"/></linearGradient><linearGradient id="m" x1="15.5%" x2="71.318%" y1="5.768%" y2="89.06%"><stop stop-color="#FFF150" offset="0"/><stop stop-color="#FFEE4C" offset=".208"/><stop stop-color="#FFCD28" offset=".672"/><stop stop-color="#FF9601" offset="1"/></linearGradient><linearGradient id="n" x1="18.809%" x2="50%" y1="8.213%" y2="100%"><stop stop-color="#FFEB02" offset="0"/><stop stop-color="#FFAC00" offset=".718"/><stop stop-color="#FF7417" offset="1"/></linearGradient><linearGradient id="o" x1="81.523%" x2="0%" y1="86.229%" y2="8.16%"><stop stop-color="#FFE900" offset="0"/><stop stop-color="#FFE309" offset="1"/></linearGradient></defs><g transform="translate(1.25 1)" fill="none" fill-rule="evenodd"><path d="M13.25 6.5l-.5 1v1c.272-.42.438-.753.5-1" fill="url(#a)"/><path d="M10.531 2.75c-.146-.52-.063-.98.25-1.375.193.435.35.747.469.938.69 1.097 1.24 1.919 1.406 2.53.208.772-.5.074-2.125-2.093z" fill="url(#b)"/><path d="M12.5 9.938c-.73.895-1.125 1.374-1.188 1.437-.093.094 1-.25 1.126-.781.083-.354.104-.573.062-.656z" fill="url(#c)"/><path d="M10.312 12.594l-1.844.656c.834.021 1.333-.052 1.5-.219.167-.166.281-.312.344-.437z" fill="url(#d)"/><circle cx="6.75" cy="7" r="6" fill="url(#e)"/><path d="M2.625 3c-.563-.5-.781-.969-.656-1.406-.646.666-.948 1.448-.907 2.344" fill="url(#f)"/><path d="M5.375 4.25c-.188-.094-.438-.25-.469-.594S3.531 2.437 2 3.125-.75 6.938.563 9.906s4.125 3.969 5.625 4.031S9.03 13.97 10 13c-.333.167-.802.25-1.406.25.595-.203 1.02-.357 1.275-.463 1.649-.687 2.515-1.47 2.6-2.35-.14.233-.264.4-.375.5-.119.108-.337.243-.656.407.75-.855 1.27-1.636 1.562-2.344s.375-1.542.25-2.5c0 .357-.022.649-.062.875s-.124.486-.25.781c.113-.863.155-1.457.125-1.781s-.177-.845-.438-1.563c-.73-1.333-1.458-2.25-2.187-2.75C9.375 1 8.854.344 8.875.094c-.046-.228-1.061 1.716-1.031 2.5.031.812.062 2.062 1.594 3.062.625 1.063.677 2.146.156 3.25-.781 1.656-3.625 2.469-5.125.469-1.382-1.843.054-3.031.625-3.438.049-.034.06-.134.094-.156s.76-.324 1.093-.594c.222-.18.36-.493.344-.593-.038-.25-1.062-.25-1.25-.344z" fill="url(#g)"/><path d="M4.094 3.094c.646-.563 1.25-.76 1.812-.594-.687.583-1.03 1-1.03 1.25" fill="url(#h)"/><path d="M4.094 3.063c.646-.521 1.25-.709 1.812-.563-.708.52-1.114 1.167-1.218 1.938a2.22 2.22 0 0 0 .406 1.5c-.042.479-.094.74-.157.78-.166.022-.437-.03-.812-.155-.563-.188-1.469.656-1.344 1.28.064.317-.403-.546-.76-1.535-.348-.963.684-2.682 1.183-2.89.186-.079.483-.197.89-.355z" fill="url(#i)"/><path d="M5.563 8.25c.125 0 .179-.02.25-.031C6.287 8.073 6.63 8 6.843 8c.32 0 1.063.344.97.781-.021.084-.126.156-.25.125-.126-.041-.209-.052-.25-.031l-.067.034a4.174 4.174 0 0 1-.336.169c-.31.153-.704.34-.816.36a2.392 2.392 0 0 1-.688.094 3.473 3.473 0 0 1-.358-.02 1.826 1.826 0 0 1-.61-.168c-.512-.19-.845-.336-1-.438-.537-.352-.622-.644-.626-.656S2.5 7.25 3 6.844s.893-.363 1.437-.219c.097.025.263.057.5.094-.708 0-.979.219-.812.656.164.432.625.756 1.406.875h.031z" fill="url(#j)"/><path transform="rotate(16 4.41 8.289)" d="M2.312 7.818c.211-1.375 2.172-1.184 2.172-1.184-.057.058-1.583 1.127.093 2.346.61.443 2.602 1.042 1.735.966-.867-.076-4.317-.083-4-2.128z" fill="url(#k)" fill-rule="nonzero"/><path d="M9.906 12.719c.07-.043.635-.878.781-.969.542-1.708.678-3.052.407-4.031s-.865-1.615-1.656-2.031c1.5 1.896 1.24 3.969-.907 6.344-.082.09-.16.177-.233.26-.428.303-.559.477-.392.52.19.051.857.02 2-.093z" fill="url(#l)"/><path d="M10.438 2.063c.73.5 1.458 1.416 2.188 2.75.295.718.42 1.218.437 1.562s.031.813-.125 1.75c.126-.295.195-.524.235-.75s.056-.351.077-.875c.105 1.125.042 1.792-.25 2.5s-.812 1.49-1.562 2.344c-.098.098-.19.183-.296.281.75-4.906-.219-4.75-1.875-6.562-1.104-1.209-1.245-2.875-.423-5 .031-.032.031 0 .031.03-.007.258.514.92 1.563 1.97z" fill="url(#m)"/><path d="M8.844.063C7.26 2.396 7.458 4.27 9.438 5.688c2.968 2.125.95 6.468.5 6.937s2.468-.75 2.53-2.188c-.27.396-.614.698-1.03.907.75-2.98.354-4.948-1.188-5.906-1.542-.959-2.01-2.75-1.406-5.375z" fill="url(#n)"/><path d="M10.365 1.99c.04.05.066.067.035.05C9.572 1.6 8.822.655 8.874.062c.058.294.554.936 1.491 1.929z" fill="url(#o)"/></g></svg>