<svg width="16px" height="16px" version="1.1" viewBox="0 0 16 16" xmlns="http://www.w3.org/2000/svg">
<title>foxitreader</title>
<desc>Created with Sketch.</desc>
<defs>
<linearGradient id="linearGradient-1" x1="26.999%" x2="30.443%" y1="7.8759%" y2="96.829%">
<stop stop-color="#FF9E00" offset="0"/>
<stop stop-color="#FF5C11" offset="1"/>
</linearGradient>
</defs>
<g fill="none" fill-rule="evenodd">
<g id="foxitreader">
<g transform="translate(8 8.0397) rotate(2) translate(-7 -7.5)">
<path id="Mask" d="m0.9209 0.41478 0.20782 0.06913 0.18979-0.034565h11.8c0.47566 0 0.86125 0.38559 0.86125 0.86125v12.76c0 0.47566-0.38559 0.86125-0.86125 0.86125h-12.519c-0.29271 0-0.53-0.23729-0.53-0.53v-13.136c0-0.47016 0.38114-0.8513 0.8513-0.8513z" fill="#FF5E00"/>
<path d="m1.0935 0.42201 0.19899 0.067317 0.18172-0.033658h11.262c0.47566 0 0.86125 0.38559 0.86125 0.86125v12.38c0 0.47566-0.38559 0.86125-0.86125 0.86125h-12.126c-0.18294 0-0.33125-0.14831-0.33125-0.33125v-12.99c0-0.45018 0.36494-0.81512 0.81512-0.81512z" fill="#fff"/>
<path d="m0.91795 0.32144 0.20481 0.06913 0.2411-0.034565 10.931-0.29893c0.47548-0.013003 0.87147 0.36191 0.88447 0.83738 2.312e-4 0.0084537 3.379e-4 0.01691 3.199e-4 0.025367l-0.025472 12.027c-0.0010073 0.47565-0.38742 0.86043-0.86307 0.85942-4.964e-4 -1.1e-6 -9.928e-4 -2.6e-6 -0.0014892-4.5e-6l-11.832-0.045516c-0.046282-1.78e-4 -0.091558 0.013498-0.13 0.039268l-0.2504 0.16785-0.018373-12.787c-6.8136e-4 -0.4742 0.38319-0.85918 0.85739-0.85986 4.1124e-4 -5.91e-7 8.2247e-4 -8.86e-7 0.0012337-8.86e-7z" fill="url(#linearGradient-1)"/>
<path d="m7.5195 8.903c-0.17613 0.17495-3.1703 1.2247-2.6419-1.7495 0.52839-2.0994 2.1136-1.7495 2.4658-1.7495 0.35226 0 1.2329 0.52485 1.2329 0.52485s-0.17613-1.2247-1.409-1.3996c0 0 1.2329-0.3499 2.6419 1.5746 0 0-0.17613-2.4493-2.4658-2.6243-2.8181-0.17495-4.051 2.0994-4.051 2.0994s-2.1136 3.3241 1.2329 4.7237c2.9942 0.87476 4.051-1.0497 4.051-1.0497s0.88065-1.2247 0-2.7992c0 0 0 0.52485-0.35226 0.6998 0 0 0-0.52485-0.52839-0.6998 0 0 0.17613 1.7495-1.7613 1.5746 0 0 0.52839 0.87476 1.5852 0.87476z" fill="#fff" fill-rule="nonzero"/>
</g>
</g>
</g>
</svg>
