<?xml version="1.0" encoding="UTF-8"?>
<svg width="16" height="16" version="1" xmlns="http://www.w3.org/2000/svg" xmlns:cc="http://creativecommons.org/ns#" xmlns:dc="http://purl.org/dc/elements/1.1/" xmlns:rdf="http://www.w3.org/1999/02/22-rdf-syntax-ns#">
 <metadata>
  <rdf:RDF>
   <cc:Work rdf:about="">
    <dc:format>image/svg+xml</dc:format>
    <dc:type rdf:resource="http://purl.org/dc/dcmitype/StillImage"/>
    <dc:title/>
   </cc:Work>
  </rdf:RDF>
 </metadata>
 <g transform="translate(.5 .5)">
  <circle cx="7.5" cy="7.5" r="7.5" fill="#331ba9"/>
  <path d="m7.5 2a5.5 5.5 0 0 0-5.5 5.5 5.5 5.5 0 0 0 5.5 5.5 5.5 5.5 0 0 0 5.4727-5h2.002a7.5 7.5 0 0 0 0.025391-0.5 7.5 7.5 0 0 0-0.017578-0.5h-4.9824v1h1.9688a4.5 4.5 0 0 1-4.4688 4 4.5 4.5 0 0 1-4.5-4.5 4.5 4.5 0 0 1 4.5-4.5h3.1484a5.5 5.5 0 0 0-3.1484-1z" fill="#fff"/>
  <path d="m7.5 5a2.5 2.5 0 0 0-2.5 2.5 2.5 2.5 0 0 0 2.5 2.5 2.5 2.5 0 0 0 1.5-0.50391v0.50391h1v-5h-1v0.50195a2.5 2.5 0 0 0-1.5-0.50195zm0 1a1.5 1.5 0 0 1 1.5 1.5 1.5 1.5 0 0 1-1.5 1.5 1.5 1.5 0 0 1-1.5-1.5 1.5 1.5 0 0 1 1.5-1.5z" fill="#fff"/>
 </g>
</svg>
