<svg width="16" height="16" version="1.1" viewBox="0 0 16 16" xmlns="http://www.w3.org/2000/svg" xmlns:xlink="http://www.w3.org/1999/xlink"><title>gedit</title><defs><linearGradient id="a" x1="1.569%" x2="97.53%" y2="95.578%"><stop stop-color="#fff" offset="0"/><stop stop-color="#F5F5F5" offset=".345"/><stop stop-color="#FDFDFD" offset=".826"/><stop stop-color="#E7E7E5" offset="1"/></linearGradient><path id="b" d="M.333 0h11.333c.184 0 .334.15.334.333v10.538c-.043 1.319-.143 2.15-.3 2.492-.517.425-1.494.637-2.931.637H.332A.333.333 0 0 1 0 13.667V.333C0 .15.149 0 .333 0z"/></defs><g transform="translate(2 1)" fill="none" fill-rule="evenodd"><use fill="url(#a)" fill-rule="evenodd" xlink:href="#b"/><path d="M.333-.5h11.333c.46 0 .834.373.834.833v10.554c-.046 1.39-.15 2.257-.345 2.684l-.048.105-.09.074c-.629.516-1.705.75-3.248.75H.332a.832.832 0 0 1-.832-.833V.333c0-.46.373-.833.833-.833z" stroke="#000" stroke-opacity=".1"/><path d="M2 2h8v3.059h-.5C9.446 3.686 8.613 3 7 3v8h.831v1H4v-1h1V3c-1.696 0-2.55.686-2.56 2.059H2V2z" fill="#000"/></g></svg>