<svg width="16" height="16" version="1.1" viewBox="0 0 16 16" xmlns="http://www.w3.org/2000/svg" xmlns:xlink="http://www.w3.org/1999/xlink"><title>gimp</title><defs><radialGradient id="a" cx="53.455%" r="48.405%" gradientTransform="matrix(-.68964 .54493 -.42228 -.78998 1.114 .604)"><stop stop-color="#DEE0F2" offset="0"/><stop stop-color="#3B3A4C" offset="1"/></radialGradient><path id="b" d="M15.277 13.663c-1.474-.642-2.03-1.423-1.67-2.344.349-.609 1.324-.04 1.353.716.042.497.148 1.04.317 1.628z"/><linearGradient id="c" x1="100%" x2="0%" y1="31.082%" y2="31.082%"><stop stop-color="#FF7B00" offset="0"/><stop stop-color="#FF7800" offset="1"/></linearGradient></defs><g transform="translate(.125 1.25)" fill="none" fill-rule="evenodd"><path d="M4.137 1.72c.913 1.79 2.61 2.473 5.09 2.05 3.721-.634 4.44-4.028 4.75-3.416.308.611.88 7.467-2.35 9.37-2.155 1.269-4.847.846-8.078-1.269-1.207-.716-1.762-1.285-1.664-1.708 1.305-.52 2.007-.927 2.105-1.22.098-.293.147-1.562.147-3.807z" fill="url(#a)"/><path d="M7.074 8.486c1.1.088 2.02-.122 2.756-.63.036-.036-.104-.146-.418-.328.939.317.745.675-.58 1.074-.503.126-1.089.087-1.758-.116z" fill="#252330"/><ellipse transform="rotate(-29 2.391 6.368)" cx="2.391" cy="6.369" rx="1.567" ry="2.05" fill="#252330"/><ellipse cx="8.689" cy="4.844" rx="1.909" ry="1.903" fill="#fff"/><ellipse cx="9.13" cy="5.283" rx="1" ry="1" fill="#171717"/><ellipse cx="5.213" cy="4.99" rx="1.273" ry="1.269" fill="#fff"/><ellipse cx="5.36" cy="5.332" rx="1" ry="1" fill="#171717"/><use fill="#252330" xlink:href="#b"/><path transform="rotate(-52 11.711 9.746)" d="M11.329 7.08c-.013-.016.068-.014.244.008.263.032.503.085.519 2.237.01 1.435-.002 2.468-.039 3.098l-.658-.08c-.026-1.402-.039-2.45-.037-3.144.002-.694-.008-1.4-.029-2.119z" fill="url(#c)"/><path d="M12.254 9.683a42.894 42.894 0 0 1 1.777 1.442l-.469.469c-.709-.533-1.303-.983-1.782-1.35l.474-.56z" fill="#fff"/></g></svg>