<svg width="16" height="16" version="1.1" viewBox="0 0 16 16" xmlns="http://www.w3.org/2000/svg">
<title>deepin-calculator</title>
<defs>
<linearGradient id="SVGID_1_" x1="24" x2="24.002" y1="5" y2="43.135" gradientTransform="matrix(.41025 0 0 .41025 -20.531 -2.3254)" gradientUnits="userSpaceOnUse">
<stop stop-color="#f6f9fb" offset="0"/>
<stop stop-color="#d1dfec" offset="1"/>
</linearGradient>
<linearGradient id="path3267_1_" x1="577.95" x2="621.06" y1="-1049.8" y2="-1049.8" gradientTransform="matrix(.28845 0 0 -.28701 -183.79 -294.21)" gradientUnits="userSpaceOnUse">
<stop stop-color="#f3cb20" stop-opacity=".3" offset="0"/>
<stop stop-color="#f3cb20" offset=".22"/>
<stop stop-color="#f3cb20" offset=".561"/>
<stop stop-color="#f3cb20" stop-opacity=".2" offset="1"/>
</linearGradient>
</defs>
<g transform="matrix(.89801 0 0 .89801 17.594 1.1107)">
<path d="m-2.8884 15.127c0 0.22933-0.18379 0.41559-0.41025 0.41559h-14.769c-0.22646 0-0.41026-0.18626-0.41026-0.41559v-14.964c0-0.22974 0.18379-0.41559 0.41026-0.41559h14.769c0.22646 0 0.41025 0.18626 0.41025 0.41559z" opacity=".14" stroke-width=".41025"/>
<path d="m-2.8888 14.907a0.41025 0.41025 0 0 1-0.41025 0.41025h-14.769a0.41025 0.41025 0 0 1-0.41025-0.41025v-14.769a0.41025 0.41025 0 0 1 0.41025-0.41025h14.769a0.41025 0.41025 0 0 1 0.41025 0.41025z" fill="url(#SVGID_1_)" stroke-width=".41025"/>
<path d="m-17.249 0.95667h13.128v13.128h-13.128z" fill="#362b18" fill-rule="evenodd"/>
<path id="path3267_13_" d="m-14.799 2.6736-0.99897 5.6656-1.456 0.011897v0.41025l1.8441-0.011897 0.82707-4.6847 1.1865 7.3337 0.22687 1.2677 0.22687-1.2591 0.50995-3.4781h1.7551l0.25846-0.79384 0.81969 2.9255 0.60431-1.3112 4.8726 0.00164v-0.41025l-5.1606-0.00164-0.20061 0.43569-0.90625-3.2422-0.62564 1.986h-1.8121l-0.35282 2.3672-1.1651-7.1696-0.22318-1.193z" fill="url(#path3267_1_)" stroke-width=".41025"/>
<g fill="#f0c512">
<path id="path5749_13_" d="m-8.0724 11.348c0 0.47713 0.54523 0.74133 0.8521 1.0359 0.32164-0.3081 0.84554-0.60308 0.84554-1.0359 0-0.40615-0.69579-0.544-0.84923-0.07138-0.17682-0.46154-0.84841-0.37661-0.84841 0.07138z" stroke-width=".41025"/>
<text transform="scale(1.0335 .9676)" x="-10.581254" y="12.778279" font-family="Arial-BoldMT" font-size="2.0656px" stroke-width=".41026">49</text>
<g stroke-width=".41025">
<path id="rect5784_13_" d="m-8.12 5.4674h1.3579c0.093538 0 0.17477 0.052923 0.17477 0.12226v0.12595c0 0.069333-0.08082 0.16205-0.17477 0.16205h-1.3579c-0.093948 0-0.10872-0.092718-0.10872-0.16205v-0.12595c4.103e-4 -0.069333 0.014769-0.12226 0.10872-0.12226z"/>
<path id="rect5814_26_" d="m-8.12 4.6469h1.3579c0.093538 0 0.17477 0.073846 0.17477 0.14359v0.12595c0 0.068923-0.08082 0.14072-0.17477 0.14072h-1.3579c-0.093948 0-0.10872-0.071795-0.10872-0.14072v-0.12595c4.103e-4 -0.069743 0.014769-0.14359 0.10872-0.14359z"/>
<path id="rect5814_25_" d="m-8.12 3.8264h1.3579c0.093538 0 0.17477 0.073846 0.17477 0.14359v0.12595c0 0.068923-0.08082 0.14072-0.17477 0.14072h-1.3579c-0.093948 0-0.10872-0.071795-0.10872-0.14072v-0.12595c4.103e-4 -0.069743 0.014769-0.14359 0.10872-0.14359z" opacity=".8"/>
<path id="rect5818_13_" d="m-8.088 3.0059h1.3579c0.093538 0 0.14277 0.06441 0.14277 0.13374v0.12636c0 0.069333-0.04882 0.15015-0.14277 0.15015h-1.3579c-0.093948 0-0.14072-0.08082-0.14072-0.15015v-0.12636c4.103e-4 -0.069333 0.046769-0.13374 0.14072-0.13374z" opacity=".608"/>
<path id="rect5820_13_" d="m-8.088 2.1854h1.3579c0.093538 0 0.14277 0.066051 0.14277 0.13579v0.12636c0 0.068923-0.04882 0.14851-0.14277 0.14851h-1.3579c-0.093948 0-0.14072-0.079179-0.14072-0.14851v-0.12636c4.103e-4 -0.069743 0.046769-0.13579 0.14072-0.13579z" opacity=".5"/>
</g>
</g>
</g>
</svg>
