<?xml version="1.0" encoding="UTF-8"?>
<svg width="16" height="16" version="1.1" viewBox="0 0 16 16" xmlns="http://www.w3.org/2000/svg" xmlns:cc="http://creativecommons.org/ns#" xmlns:dc="http://purl.org/dc/elements/1.1/" xmlns:rdf="http://www.w3.org/1999/02/22-rdf-syntax-ns#">
 <metadata>
  <rdf:RDF>
   <cc:Work rdf:about="">
    <dc:format>image/svg+xml</dc:format>
    <dc:type rdf:resource="http://purl.org/dc/dcmitype/StillImage"/>
    <dc:title>deepin-multitasking-view</dc:title>
   </cc:Work>
  </rdf:RDF>
 </metadata>
 <title>deepin-multitasking-view</title>
 <g transform="matrix(.33333 0 0 .33333 -.00084863 .00084786)">
  <circle cx="24" cy="24" r="21" fill="#e0e0e0"/>
  <path d="m24 43c-10.477 0-19-8.523-19-19s8.523-19 19-19 19 8.523 19 19-8.523 19-19 19z" fill="#3e3a39"/>
  <path d="m24.624 24.788a0.937 0.937 0 0 1-1.324 0l-0.091-0.091a0.937 0.937 0 0 1 0-1.324l11.398-11.406a0.937 0.937 0 0 1 1.324 0l0.091 0.091a0.937 0.937 0 0 1 0 1.324z" fill="#dcdddd"/>
  <path d="m24.552 23.114a0.922 0.922 0 0 1 0.368 1.253l-0.073 0.135a0.922 0.922 0 0 1-1.253 0.368l-8.588-4.662a0.922 0.922 0 0 1-0.368-1.253l0.073-0.135a0.922 0.922 0 0 1 1.253-0.368z" fill="#dcdddd"/>
  <path d="m18.277 39.97a0.462 0.462 0 0 1-0.602 0.253l-0.071-0.029a0.462 0.462 0 0 1-0.253-0.602l6.318-15.556a0.462 0.462 0 0 1 0.602-0.253l0.071 0.029a0.462 0.462 0 0 1 0.253 0.602z" fill="#e83828"/>
  <circle cx="24" cy="24" r="1.5" fill="#fff"/>
 </g>
</svg>
