<svg width="16" height="16" version="1" xmlns="http://www.w3.org/2000/svg">
<defs>
<linearGradient id="a" x1="7.2161" x2="7.2161" y1="3.2174" y2="13.719" gradientTransform="matrix(1.1086 0 0 .7127 -22.763 -1.1196)" gradientUnits="userSpaceOnUse">
<stop stop-color="#0E004D" offset="0"/>
<stop stop-color="#4735E4" offset="1"/>
</linearGradient>
</defs>
<g transform="translate(22.763 1.564)">
<g fill-rule="evenodd">
<path d="m-17.429 11.103h5.3333v2.6667h-5.3333z" fill="#afc0c8"/>
<path d="m-22.763-0.67514c0-0.24711 0.20267-0.44444 0.44444-0.44444h15.111a0.44444 0.44444 0 0 1 0.44444 0.44444v12.444c0 0.24622-0.20267 0.44444-0.44444 0.44444h-15.111a0.44444 0.44444 0 0 1-0.44444-0.44444z" fill="#f6fcff"/>
<rect x="-19.207" y="13.103" width="8.8889" height=".88889" rx=".44444" fill="#f6fcff"/>
<path d="m-21.874-0.2307h14.222v9.7778h-14.222z"/>
<path d="m-20.985 0.65819h12.444v8h-12.444z" fill="url(#a)"/>
<path d="m-20.985 0.65819h3.9484l5.1627 8h-9.1111z" fill="#fff" opacity=".123"/>
</g>
<path d="m-14.763 1.6582c-1.477 0-2 0-2 1.322v0.678h-0.334c-0.369 0-0.666 0.484-0.666 0.8v2.63c0 0.316 0.298 0.57 0.668 0.57h4.666c0.369 0 0.666-0.254 0.666-0.57v-2.63c0-0.316-0.262-0.8-0.666-0.8h-0.334v-0.678c0-1.322-0.523-1.322-2-1.322zm0 1c0.739 0 1 0.038 1 0.49v0.51h-2v-0.51c0-0.452 0.261-0.49 1-0.49z" fill="#f6fcff"/>
</g>
</svg>
