<svg width="16" height="16" version="1" xmlns="http://www.w3.org/2000/svg">
<g transform="matrix(1.152 0 0 1.152 31.17 -1.959)">
<g stroke-width=".34722">
<path d="m-14.21 14.201a0.34722 0.34722 0 0 1-0.34722 0.34722h-11.111a0.34722 0.34722 0 0 1-0.34722-0.34722v-12.153a0.34722 0.34722 0 0 1 0.34722-0.34722h11.111a0.34722 0.34722 0 0 1 0.34722 0.34722z" fill="#f7f8f8"/>
<path d="m-14.21 12.117h-11.806v-10.071c0-0.19167 0.14965-0.34583 0.34132-0.34583h11.111c0.19167 0 0.35312 0.15417 0.35312 0.34583z" fill="#748487"/>
<path d="m-14.21 15.242a0.34722 0.34722 0 0 1-0.34722 0.34722h-11.111a0.34722 0.34722 0 0 1-0.34722-0.34722v-1.3889a0.34722 0.34722 0 0 1 0.34722-0.34722h11.111a0.34722 0.34722 0 0 1 0.34722 0.34722z" fill="#dcdddd"/>
</g>
<g transform="matrix(.34722 0 0 .34722 -28.446 .65888)" fill="#7f8e93">
<path d="m36.983 38.996h1v2h-1zm-2 0h1v2h-1zm-2 0h1v2h-1zm-2 0h1v2h-1zm-2 0h1v2h-1zm-2 0h1v2h-1z"/>
</g>
<g stroke-width=".34722">
<circle cx="-24.627" cy="14.546" r=".34722" fill="#748487"/>
<path d="m-18.693 8.8523-1.799-1.7986c-0.09861-0.098611-0.3118-0.090972-0.45139-0.0875a1.0566 1.0566 0 0 1-0.77743-0.31111c-0.30799-0.30799-0.44757-0.77917-0.18056-1.309l0.69861 0.69861c0.1441-0.039583 0.33542-0.22986 0.37535-0.37535l-0.69861-0.69861c0.53576-0.26979 1.0003-0.12778 1.309 0.18056 0.20903 0.20903 0.3184 0.49062 0.31111 0.77778-0.0035 0.13958-0.03333 0.35868 0.06528 0.45729l1.7969 1.8003c0.11181 0.11181 0.22986 0.42326 0.0059 0.64722-0.225 0.22535-0.49618 0.17743-0.65521 0.018403z" fill="#f7f8f8"/>
<path d="m-19.977 3.0884c-2.1094 0-3.8194 1.7101-3.8194 3.8194s1.7101 3.8194 3.8194 3.8194 3.8194-1.7101 3.8194-3.8194-1.7097-3.8194-3.8194-3.8194zm0 7.1295c-1.8281 0-3.3101-1.4819-3.3101-3.3101s1.4819-3.3101 3.3101-3.3101 3.3101 1.4819 3.3101 3.3101-1.4816 3.3101-3.3101 3.3101z" fill="#f7f8f8"/>
</g>
</g>
</svg>
