<svg width="16" height="16" version="1.1" viewBox="0 0 16 16" xmlns="http://www.w3.org/2000/svg"><title>dde-introduction</title><defs><linearGradient id="a" x1="6.901" x2="6.901" y1="1" y2="15" gradientTransform="translate(-1.143 -1.143) scale(1.1429)" gradientUnits="userSpaceOnUse"><stop stop-color="#30FFAF" offset="0"/><stop stop-color="#08C5FF" offset="1"/></linearGradient></defs><circle cx="8" cy="8" r="8" fill="url(#a)" fill-rule="evenodd"/><path d="M6.75 3l-.11 1.32a3.929 3.929 0 0 0-1.152.66l-1.193-.562-1.25 2.164 1.084.752A3.929 3.929 0 0 0 4.072 8a3.929 3.929 0 0 0 .059.662l-1.086.756 1.25 2.165 1.197-.563a3.929 3.929 0 0 0 1.149.665L6.75 13h2.5l.11-1.32a3.929 3.929 0 0 0 1.152-.66l1.193.563 1.25-2.165-1.084-.752A3.929 3.929 0 0 0 11.928 8a3.929 3.929 0 0 0-.059-.663l1.086-.755-1.25-2.165-1.197.563a3.929 3.929 0 0 0-1.149-.664L9.25 3h-2.5zM8 6a2 2 0 1 1 0 4 2 2 0 0 1 0-4z" fill="#fff"/></svg>