<svg width="16" height="16" version="1.1" viewBox="0 0 16 16" xmlns="http://www.w3.org/2000/svg">
<title>深度终端-16px</title>
<g transform="translate(20.886 1.0797)">
<path d="m-5.9715 13.76-3.5681-1.4184-3.5241 1.4184-3.1915-1.4184-3.5461 1.4184 1.0638-8.156 2.8149-1.4184 2.8677 1.4184 2.828-1.4184 2.8369 1.4184z" fill="#c4c9bf" stroke-width=".35461"/>
<g transform="matrix(.35461 0 0 .35461 -21.574 -1.4884)" fill="#f0f1ee">
<path d="M 15.894,16.022 8,20 5,43 15,39 Z M 32,16 24.025,20 24,19.987 V 43 l 9.938,-4 z"/>
</g>
<g stroke-width=".35461">
<path d="m-13.064 9.7595-3.0418-1.4241-0.03333 1.1635 1.2699 0.54929-0.07128 2.8816 1.0635 0.4727 0.06312-2.8989 0.74255 0.3266 0.0074-0.0028z" fill="#d99300"/>
<path d="m-16.718 4.5741-0.39149 0.20957 0.39078-0.19681z" fill="#f8b62d"/>
<path d="m-7.7498 8.0946-0.47163-2.9074-0.95248-0.46986 0.34965 3.2415c0.041489 0.23511-0.063121 0.60745-0.68262 0.73936l-0.33156 0.092199 0.091135 1.0826 0.4805-0.1383c1.3972-0.37163 1.556-1.1947 1.517-1.6401z" fill="#d99300"/>
<path d="m-16.106 8.3354-0.84681 0.32979 0.23333-4.0784-0.94894 0.48511-0.36986 4.0741-1.2238 0.54184-0.16596 1.2174 3.2887-1.4064zm3.0418 1.4241v1.0677l3.3163-0.95425-0.091135-1.0823z" fill="#f3d131"/>
<path d="m-12.709 9.1499 2.2606-0.66489-0.24362-3.5461-1.9947 0.99752z" fill="#dee1db"/>
<path d="m-15.501 6.3389 2.0823 1.0674v-1.4479l-2.0337-1.0046zm-0.15674 1.773 2.239 1.0674v-1.4479l-2.1869-1.0046z" fill="#acacac"/>
<path d="m-8.9477 11.726 2.267 0.99929-0.5617-3.2496-1.8518 0.73546z" fill="#ababab"/>
<path d="m-10.59 2.5492c0-1.3652-1.1106-2.4684-2.4759-2.4684-1.3652 0-2.4855 1.1145-2.4855 2.4798 0 0.015957-0.13085 2.2723 2.2 5.0174 0.14823 0.17447 0.41277 0.17837 0.55851 0.00142 2.3504-2.8528 2.2028-5.0142 2.2028-5.0301z" fill="#f63636"/>
</g>
<g transform="matrix(.35461 0 0 .35461 -21.574 -1.4884)">
<path d="m23.994 17.116c-3.136 0-5.688-2.551-5.688-5.688s2.551-5.687 5.688-5.687 5.688 2.551 5.688 5.687-2.552 5.688-5.688 5.688z" fill="#e31d1d"/>
</g>
<path d="m-13.064 3.4762a0.35461 0.35461 0 0 1-0.35461-0.35461v-1.4184a0.35461 0.35461 0 0 1 0.70922 0v1.4184a0.35461 0.35461 0 0 1-0.35461 0.35461z" fill="#f7f8f8" stroke-width=".35461"/>
<path d="m-12.683 11.507 2.4482-0.8195 0.08723 1.2532-2.5422 0.99291zm-6.2968-0.33759 1.8177-0.77234 0.58333 0.33333-0.07305 1.2365-2.5652 1.0564z" fill="#dee1db" stroke-width=".35461"/>
</g>
</svg>
