<svg width="16" height="16" version="1.1" viewBox="0 0 16 16" xmlns="http://www.w3.org/2000/svg" xmlns:xlink="http://www.w3.org/1999/xlink">
<defs>
<linearGradient id="linearGradient855" x1="7" x2="7" y1="1" y2="15" gradientTransform="matrix(1.7144,0,0,1.7144,-1.714,-1.714)" gradientUnits="userSpaceOnUse">
<stop stop-color="#30FFAF" offset="0"/>
<stop stop-color="#08C5FF" offset="1"/>
</linearGradient>
</defs>
<title>dde-introduction</title>
<circle cx="8" cy="8" r="7" fill="url(#linearGradient855)"/>
<path d="m9.5159 7.9603-0.58813-0.60549a0.66369 0.66369 0 0 0-0.21851-0.1501 17.787 17.787 0 0 1-0.11538-0.12049l0.95163-1.0885a0.89854 0.89854 0 0 0 0.21238-0.70249 1.7899 1.7899 0 0 1-0.013274-0.28794 2.0697 2.0697 0 0 1-0.00204-0.042885c-0.04799-0.92917 0.64634-1.7225 1.549-1.7705 0.46765-0.025527 0.89956 0.15316 1.214 0.4605l-0.7801 0.1552a0.8434 0.8434 0 0 0-0.65348 0.99043 0.82706 0.82706 0 0 0 0.96797 0.66676l0.92713-0.18379c-0.16848 0.70045-0.7658 1.2365-1.504 1.2763-0.03574 0.00204-0.07147 0.00306-0.10517 0.00204a1.6439 1.6439 0 0 1-0.2226 0.010213 0.84544 0.84544 0 0 0-0.65757 0.291zm-1.3478 1.5418-2.3107 2.6425c0.00613 0.04697 0.010211 0.08373 0.010211 0.10823 0.030632 0.56669-0.39209 1.0497-0.94347 1.0793a1.0078 1.0078 0 0 1-1.0486-0.97206c-0.029611-0.56669 0.39413-1.0497 0.94449-1.0793h0.10415l2.4577-2.811a0.69228 0.69228 0 0 0 0.12763 0.23485zm-2.9141 2.422-0.53095-0.12355-0.37473 0.40945 0.15827 0.53402 0.53198 0.12355 0.37371-0.40945zm3.439-4.3314 4.0924 4.217a0.79643 0.79643 0 0 1 0.02144 1.064c-0.08169 0.0776-0.28079 0.2522-0.28079 0.2522a0.72292 0.72292 0 0 1-1.019-0.10109l-3.7453-4.5386a0.35737 0.35737 0 0 1-0.077601-0.17869c-0.11232-0.14601-0.54729-0.69024-1.4458-1.601-1.0609-1.0762-1.2416-0.53402-1.4377-0.35533-0.19502 0.17869-0.17562 0.34512-0.17562 0.34512a0.58405 0.58405 0 0 1-0.16337 0.30428l-0.31143 0.26956c-0.029611 0.014295-0.57384-0.58405-0.74538-0.78214a7.9286 7.9286 0 0 1-0.38596-0.51053 0.11028 0.11028 0 0 1 0.0071475-0.13274s0.28998-0.33695 0.3972-0.3441c0.31347-0.020421 0.45948-0.050032 0.61264-0.29203 0.1552-0.24199 0.1552-0.43191 0.24097-0.5718 0.056159-0.093938 0.53198-0.69739 1.2283-1.1211 1.3345-0.81175 2.3709-0.86178 2.5853-0.84646l1.0058 0.071475-0.52074 0.52993a1.9666 1.9666 0 0 1-0.15724 0.049011s-0.6351 0.14499-1.1385 0.52279c-0.50441 0.3778-0.64123 1.0262-0.25527 1.7899 0.22463 0.44825 0.37269 0.60243 0.68309 0.96389 0.36146 0.42272 0.68207 0.76069 0.82196 0.90467a0.33083 0.33083 0 0 1 0.16337 0.091896z" fill="#fff"/>
</svg>
