<svg width="16" height="16" version="1.1" viewBox="0 0 16 16" xmlns="http://www.w3.org/2000/svg"><title>chrome-16px</title><defs><linearGradient id="a" x1="49.999%" x2="49.999%" y1="-.002%" y2="100%"><stop stop-color="#F7503B" offset="0"/><stop stop-color="#F34735" offset=".217"/><stop stop-color="#E72F25" offset=".572"/><stop stop-color="#D5090D" offset="1"/></linearGradient><linearGradient id="b" x1="49.998%" x2="49.998%" y1="-.001%" y2="100%"><stop stop-color="#35C230" offset="0"/><stop stop-color="#34BE30" offset=".348"/><stop stop-color="#31B331" offset=".681"/><stop stop-color="#2CA032" offset="1"/></linearGradient><linearGradient id="c" x1="49.999%" x2="49.999%" y1=".001%" y2="100%"><stop stop-color="#47BAFF" offset="0"/><stop stop-color="#3D8BFF" offset="1"/></linearGradient></defs><g fill="none" fill-rule="evenodd"><path d="M14.303 4.918a7.016 7.016 0 0 0-6.291-3.903c-2.417 0-4.571 1.255-5.833 3.11L5.402 9.63l8.901-4.713z" fill="url(#a)"/><path d="M7.543 14.998c2.579.178 5.106-1.105 6.497-3.483 1.218-2.082 1.232-4.575.263-6.598l-6.335-.013-.425 10.094z" fill="#FFCF00"/><path d="M5.402 9.631L2.179 4.124A6.952 6.952 0 0 0 .995 8.015c0 3.71 2.892 6.743 6.548 6.983l3.273-5.576-5.414.209z" fill="url(#b)"/><path d="M8 11.5c-1.93 0-3.5-1.57-3.5-3.5S6.07 4.5 8 4.5s3.5 1.57 3.5 3.5-1.57 3.5-3.5 3.5z" fill="#fff"/><circle cx="8" cy="8" r="2.5" fill="url(#c)"/></g></svg>