<svg width="16" height="16" version="1.1" viewBox="0 0 16 16" xmlns="http://www.w3.org/2000/svg"><title>gparted</title><g transform="translate(1.333 1)" fill="none" fill-rule="evenodd"><path d="M12.667 12.923c0 .532-.566 1.077-1.09 1.077h-9.82c-.524 0-1.09-.545-1.09-1.077V1.077C.667.545 1.233 0 1.757 0h9.82c.524 0 1.09.545 1.09 1.077v11.846z" fill="#CACBCF" fill-rule="nonzero"/><path d="M6.667 10a3.974 3.974 0 0 1-2.829-1.171 3.975 3.975 0 0 1-1.171-2.83c0-1.067.416-2.072 1.171-2.828C4.594 2.416 5.598 2 6.667 2s2.073.416 2.828 1.171A3.974 3.974 0 0 1 10.667 6a3.975 3.975 0 0 1-1.172 2.829A3.974 3.974 0 0 1 6.667 10z" fill="#49494C" fill-rule="nonzero"/><circle cx="3.167" cy="11.5" r="1.5" fill="#949496"/><path d="M3.977 11.503L6.48 8.391a.235.235 0 0 0 .058-.154A.24.24 0 0 0 6.296 8c-.06 0-.114.021-.157.057l-3.177 2.452a.705.705 0 0 0-.295.572c0 .393.325.71.726.71a.73.73 0 0 0 .584-.288z" fill="#ECF1F6" fill-rule="nonzero"/><path d="M7.667 6a1 1 0 1 1-2.001 0 1 1 0 0 1 2 0z" fill="#F1F5F9" fill-rule="nonzero"/></g></svg>