<svg width="16" height="16" version="1" xmlns="http://www.w3.org/2000/svg"><defs><linearGradient id="a" x1="12.21" x2="12.21" y1="1.866" y2="17.342" gradientTransform="scale(.90089 1.11)" gradientUnits="userSpaceOnUse"><stop stop-color="#9DDA00" offset="0"/><stop stop-color="#73C300" offset="1"/></linearGradient></defs><g fill="none" fill-rule="evenodd"><path d="M4 2.741c0-.41.332-.741.753-.741h12.495c.415 0 .752.33.752.741v16.51H4z" fill="url(#a)" transform="translate(-1.778 -1.778) scale(.88889)"/><path d="M1.778 12.228c0-.371.295-.673.669-.673h11.106c.37 0 .67.306.67.673v1.994H1.777z" fill="#fff"/><path d="M1.778 14.006c0-.372.295-.673.669-.673h11.106c.37 0 .67.306.67.673v1.32a.668.668 0 0 1-.67.674H2.447a.674.674 0 0 1-.67-.673z" fill="#dcdddd"/><path d="M12.444 14.222h.89v.889h-.89zm-1.778 0h.89v.889h-.89zm-1.777 0h.889v.889h-.89z" fill="#75c500"/><path d="M3.11 15.11a.444.444 0 1 0 0-.888.444.444 0 0 0 0 .889z" fill="#75c600"/></g></svg>