<?xml version="1.0" encoding="UTF-8"?>
<svg width="16" height="16" version="1.1" viewBox="0 0 16 16" xmlns="http://www.w3.org/2000/svg" xmlns:cc="http://creativecommons.org/ns#" xmlns:dc="http://purl.org/dc/elements/1.1/" xmlns:rdf="http://www.w3.org/1999/02/22-rdf-syntax-ns#">
 <metadata>
  <rdf:RDF>
   <cc:Work rdf:about="">
    <dc:format>image/svg+xml</dc:format>
    <dc:type rdf:resource="http://purl.org/dc/dcmitype/StillImage"/>
    <dc:title>深度终端-16px</dc:title>
   </cc:Work>
  </rdf:RDF>
 </metadata>
 <defs>
  <linearGradient id="linearGradient834" x1="24.008" x2="24.008" y1="5.044" y2="43.044" gradientTransform="matrix(.31818 0 0 .31818 .26039 .35943)" gradientUnits="userSpaceOnUse">
   <stop stop-color="#f48f11" offset="0"/>
   <stop stop-color="#ed510f" offset="1"/>
  </linearGradient>
 </defs>
 <title>深度终端-16px</title>
 <path d="m14.656 7.0527-2.5897-4.1163c-0.32518-0.59818-0.92623-0.97205-1.5766-0.97205h-5.1797c-0.65036 0-1.2514 0.37355-1.5766 0.97205l-2.5897 4.1147a2.0395 2.0395 0 0 0 0 1.9342l2.5897 4.1077c0.32518 0.59818 0.92623 0.96218 1.5766 0.96218h5.1797c0.65036 0 1.2514-0.36368 1.5766-0.96186l2.5897-4.1084a2.0357 2.0357 0 0 0 0-1.9323zm-9.346-3.8156h5.1797c0.05728 0 0.11264 0.018455 0.16673 0.039773l-2.7119 3.1834-2.7777-3.1958c0.046454-0.01559 0.0945-0.027365 0.14318-0.027364zm-3.0616 4.439 1.7961-2.7561 2.6985 3.0924-2.6791 3.1392-1.8159-2.7882a0.76714 0.76714 0 0 1 3.182e-4 -0.68727zm3.0616 5.1065c-0.032773 0-0.064272-0.0041-0.095772-0.01082l2.7456-3.2238 2.7631 3.1713a0.47505 0.47505 0 0 1-0.23355 0.063h-5.1794zm8.2412-4.4192-1.7433 2.6638-2.647-3.0275 2.6107-3.051 1.7793 2.7268a0.76682 0.76682 0 0 1 3.18e-4 0.68791z" fill="url(#linearGradient834)" stroke-width=".31818"/>
</svg>
