<svg width="16" height="16" version="1.1" viewBox="0 0 16 16" xmlns="http://www.w3.org/2000/svg"><title>deepin-font-installer</title><g fill-rule="evenodd"><path fill="#e5b400" d="M14.866 16H1.533V0h13.333z"/><path d="M9.77 10.666H5.903v-.46c.34-.022.623-.065.847-.13s.338-.145.338-.24a.955.955 0 0 0-.053-.292l-.7-1.587h-3.51c-.043.113-.08.218-.113.316-.077.225-.146.432-.207.623a4.405 4.405 0 0 0-.118.454 1.622 1.622 0 0 0-.032.285c0 .173.137.307.412.402.275.095.585.152.93.169v.46H.2v-.46c.114-.009.255-.034.426-.075s.31-.096.419-.165c.174-.117.31-.239.405-.367.096-.127.19-.303.282-.528.467-1.155.982-2.452 1.545-3.892l1.505-3.846h.524l3.096 7.939c.066.169.14.305.223.409.083.103.199.205.347.304.1.06.231.112.393.153.161.04.296.064.406.068zm-3.837-4H3.277L4.66 3.224zm9.867 3.725c-.207.072-.39.131-.546.176a1.929 1.929 0 0 1-.532.067c-.343 0-.618-.078-.822-.234-.205-.156-.336-.384-.394-.683h-.04a3.211 3.211 0 0 1-.921.706c-.328.162-.724.243-1.186.243-.49 0-.891-.145-1.207-.436-.315-.29-.472-.671-.472-1.142 0-.244.035-.462.106-.654s.176-.366.317-.52c.11-.128.255-.243.436-.343s.35-.181.509-.241c.198-.073.6-.207 1.206-.404s1.014-.351 1.226-.462v-.635c0-.056-.012-.163-.036-.321a1.29 1.29 0 0 0-.529-.863c-.16-.118-.389-.177-.684-.177-.203 0-.391.033-.565.1-.174.066-.296.136-.367.208 0 .086.021.212.063.379s.063.32.063.462c0 .15-.07.286-.209.41-.138.125-.331.187-.578.187-.22 0-.382-.076-.486-.228a.885.885 0 0 1-.155-.51c0-.197.072-.385.215-.565.143-.18.33-.34.558-.481.199-.12.439-.222.72-.305.283-.083.558-.125.827-.125.37 0 .693.025.968.074s.525.155.75.317c.225.159.396.374.512.645s.175.621.175 1.05c0 .61-.006 1.153-.02 1.626a55.8 55.8 0 0 0-.02 1.55c0 .166.03.299.09.397.06.098.15.182.274.25a.69.69 0 0 0 .314.064c.143.005.29.007.44.007zm-2.307-3.364c-.374.106-.703.21-.985.312s-.544.23-.786.383c-.22.144-.394.315-.522.513a1.269 1.269 0 0 0-.192.704c0 .353.096.612.288.778s.435.248.73.248c.313 0 .588-.073.826-.22.238-.146.438-.32.601-.52z" fill="#fff"/></g></svg>