<svg width="16" height="16" version="1" xmlns="http://www.w3.org/2000/svg"><path d="M16 14.222V1.778A.788.788 0 0 0 15.2 1H.8c-.443 0-.8.347-.8.778v12.444c0 .43.357.778.8.778h14.4c.443 0 .8-.347.8-.778z" fill="#4789d2"/><g fill="#ffdd73"><path d="M4.662 2a.353.353 0 0 0-.297.14c-.404.517-.826 1.216-1.228 1.841l-.478-.82a.354.353 0 1 0-.61.356l.762 1.308a.353.353 0 0 0 .598.02c.497-.737 1.06-1.69 1.513-2.27A.353.353 0 0 0 4.662 2z"/><rect x="6" y="8" width="7" height="1" rx=".538" ry=".5"/><circle cx="3.5" cy="8.5"/><rect x="6" y="11" width="7" height="1" rx=".538" ry=".5"/><circle cx="3.5" cy="11.5"/><rect x="6" y="4" width="7" height="1" rx=".538" ry=".5"/></g></svg>