<svg width="16" height="16" version="1" xmlns="http://www.w3.org/2000/svg"><rect transform="matrix(0 -1 -1 0 0 0)" x="-16" y="-16" width="16" height="16" rx="8" ry="8" fill="#1da6e8"/><path d="M16-14C8.244-14 2-7.756 2 0c0 .169.02.333.025.5C2.29-7.02 8.413-13 16-13S29.711-7.02 29.975.5c.006-.167.026-.331.026-.5 0-7.756-6.244-14-14-14z" fill="#fff" opacity=".1"/><path d="M9.5 5.5L5.5 8l4 2.5" fill="none" opacity=".4" stroke="#000" stroke-width="1"/><path d="M9.5 4A1.5 1.5 0 0 0 8 5.5 1.5 1.5 0 0 0 9.5 7 1.5 1.5 0 0 0 11 5.5 1.5 1.5 0 0 0 9.5 4zm-4 2.5A1.5 1.5 0 0 0 4 8a1.5 1.5 0 0 0 1.5 1.5A1.5 1.5 0 0 0 7 8a1.5 1.5 0 0 0-1.5-1.5zm4 2.5A1.5 1.5 0 0 0 8 10.5 1.5 1.5 0 0 0 9.5 12a1.5 1.5 0 0 0 1.5-1.5A1.5 1.5 0 0 0 9.5 9z" fill="#fff" fill-rule="evenodd"/></svg>