<svg width="16" height="16" version="1.1" xmlns="http://www.w3.org/2000/svg"><path d="M8 0c-.721.01-1.235.432-1.476 1.132L6.53 1.1 5.4 5.014H1.553c-.456.014-.868.22-1.158.564-.627.7-.494 1.804.302 2.326l3.004 2.139-1.166 3.985-.004.012a1.47 1.47 0 0 0 .438 1.559l.012.008a1.58 1.58 0 0 0 1.902.139l.035-.022L8 13.556l3.082 2.168c.01.008.023.014.035.022a1.58 1.58 0 0 0 1.902-.14c.004-.002.009-.004.012-.007a1.47 1.47 0 0 0 .437-1.559l-.003-.012-1.166-3.985 3.003-2.139c.797-.522.93-1.625.303-2.326a1.569 1.569 0 0 0-1.184-.564h-3.82L9.468 1.1l.008.03C9.235.432 8.721.01 8 0z" fill="#ffbc2c"/></svg>