<svg width="16" height="16" version="1" xmlns="http://www.w3.org/2000/svg" xmlns:xlink="http://www.w3.org/1999/xlink">
<defs>
<linearGradient id="linearGradient871" x2="16" y1="7.9999" y2="7.9999" gradientTransform="matrix(.53452 0 0 1.8708 2 1)" gradientUnits="userSpaceOnUse">
<stop stop-color="#C926EA" offset="0"/>
<stop stop-color="#B505C3" offset="1"/>
</linearGradient>
</defs>
<path d="M.8 1c-.443 0-.8.347-.8.778v12.444c0 .43.357.778.8.778h14.4c.443 0 .8-.347.8-.778V1.778A.787.787 0 0 0 15.2 1z" fill="url(#linearGradient871)"/>
<g fill="#fff">
<circle transform="scale(-1 1)" cx="-8" cy="4" r="1" opacity=".6"/>
<circle transform="scale(-1 1)" cx="-8" cy="12" r="1"/>
<circle transform="matrix(0 -1 -1 0 0 0)" cx="-8" cy="-12" r="1" opacity=".4"/>
<circle transform="matrix(0 -1 -1 0 0 0)" cx="-8" cy="-4" r="1" opacity=".8"/>
<circle transform="scale(1 -1) rotate(45)" cy="-15.314" r="1" opacity=".3"/>
<circle transform="scale(1 -1) rotate(45)" cy="-7.314" r="1" opacity=".7"/>
<circle transform="rotate(225)" cx="-11.314" cy="-4" r="1" opacity=".9"/>
<circle transform="rotate(225)" cx="-11.314" cy="4" r="1" opacity=".5"/>
</g>
</svg>
