<svg width="16" height="16" version="1" xmlns="http://www.w3.org/2000/svg" xmlns:xlink="http://www.w3.org/1999/xlink">
<defs>
<linearGradient id="linearGradient858" x2="16" y1="8" y2="8" gradientTransform="matrix(.5547 0 0 1.8028 2 1)" gradientUnits="userSpaceOnUse">
<stop stop-color="#628FFF" offset="0"/>
<stop stop-color="#4084FF" offset="1"/>
</linearGradient>
</defs>
<path d="M8 0c-.81.8-1.587 1.204-2.407 2H2v3.594C1.204 6.414.8 7.189 0 8c.8.81 1.204 1.617 2 2.44V14h3.593c.82.796 1.596 1.2 2.407 2 .81-.8 1.617-1.204 2.44-2H14v-3.561c.796-.823 1.2-1.628 2-2.439-.8-.81-1.204-1.586-2-2.406V2h-3.56C9.617 1.204 8.811.8 8 0z" fill="url(#linearGradient858)"/>
<path d="M8 4a4 4 0 0 0-4 4 4 4 0 0 0 4 4V4z" fill="#fff"/>
</svg>
