<svg width="16px" height="16px" version="1.1" viewBox="0 0 16 16" xmlns="http://www.w3.org/2000/svg">
<title>application-x-gzip</title>
<desc>Created with Sketch.</desc>
<defs>
<linearGradient id="linearGradient-1" x1="22.336" x2="15.081" y1="3.6275" y2="3.6275" gradientTransform="matrix(.53452 0 0 1.8708 2 1)" gradientUnits="userSpaceOnUse">
<stop stop-color="#C926EA" offset="0"/>
<stop stop-color="#B505C3" offset="1"/>
</linearGradient>
<linearGradient id="linearGradient-2" x1="14.383" x2="7.4994" y1="4.1996" y2="4.1996" gradientTransform="matrix(.5547 0 0 1.8028 2 1)" gradientUnits="userSpaceOnUse">
<stop stop-color="#628FFF" offset="0"/>
<stop stop-color="#4084FF" offset="1"/>
</linearGradient>
<linearGradient id="linearGradient-3" x1="7.4833" x2=".48871" y1="3.7417" y2="3.7417" gradientTransform="matrix(.53452 0 0 1.8708 2 1)" gradientUnits="userSpaceOnUse">
<stop stop-color="#6DBD00" offset="0"/>
<stop stop-color="#8FBF12" offset="1"/>
</linearGradient>
</defs>
<g fill-rule="evenodd">
<path d="m14 1.375v13.25c0 0.20711-0.16789 0.375-0.375 0.375h-3.25c-0.20711 0-0.375-0.16789-0.375-0.375v-13.25c0-0.20711 0.16789-0.375 0.375-0.375h3.25c0.20711 0 0.375 0.16789 0.375 0.375z" fill="url(#linearGradient-1)"/>
<path d="m10 2.375v12.25c0 0.20711-0.16789 0.375-0.375 0.375h-3.25c-0.20711 0-0.375-0.16789-0.375-0.375v-12.25c0-0.20711 0.16789-0.375 0.375-0.375h3.25c0.20711 0 0.375 0.16789 0.375 0.375z" fill="url(#linearGradient-2)"/>
<path d="m6 1.375v13.25c0 0.20711-0.16789 0.375-0.375 0.375h-3.25c-0.20711 0-0.375-0.16789-0.375-0.375v-13.25c0-0.20711 0.16789-0.375 0.375-0.375h3.25c0.20711 0 0.375 0.16789 0.375 0.375z" fill="url(#linearGradient-3)"/>
</g>
</svg>
