<svg width="16" height="16" version="1.1" viewBox="0 0 16 16" xmlns="http://www.w3.org/2000/svg" xmlns:xlink="http://www.w3.org/1999/xlink">
<defs>
<linearGradient id="linearGradient857" x2="16" y1="6.9999" y2="6.9999" gradientTransform="scale(1.0801 .92582)" gradientUnits="userSpaceOnUse">
<stop stop-color="#23FFBE" offset="0"/>
<stop stop-color="#3FDA88" offset="1"/>
</linearGradient>
</defs>
<path d="M.8 1c-.442 0-.8.346-.8.777V13h16V1.776A.788.788 0 0 0 15.199 1H.801z" fill="url(#linearGradient857)"/>
<path d="M.8 15a.787.787 0 0 1-.8-.778V13h16v1.222a.788.788 0 0 1-.8.778z" fill="#4f4f4f"/>
<path d="M5 5v4.5c0 .277.223.5.5.5h7c.277 0 .5-.223.5-.5V5H5z" fill="#fff"/>
<path d="M5.5 4h7c.277 0 .5.223.5.5V5H5v-.5c0-.277.223-.5.5-.5z" fill="#4f4f4f"/>
<g fill="#fff">
<rect x="1" y="2" width="1" height="1" rx=".125" ry=".125"/>
<rect x="1" y="4" width="1" height="1" rx=".125" ry=".125"/>
<rect x="1" y="6" width="1" height="1" rx=".125" ry=".125"/>
<rect x="1" y="8" width="1" height="1" rx=".125" ry=".125"/>
</g>
</svg>
