<?xml version="1.0" encoding="UTF-8" standalone="no"?>
<svg
   xmlns:dc="http://purl.org/dc/elements/1.1/"
   xmlns:cc="http://creativecommons.org/ns#"
   xmlns:rdf="http://www.w3.org/1999/02/22-rdf-syntax-ns#"
   xmlns:svg="http://www.w3.org/2000/svg"
   xmlns="http://www.w3.org/2000/svg"
   xmlns:sodipodi="http://sodipodi.sourceforge.net/DTD/sodipodi-0.dtd"
   xmlns:inkscape="http://www.inkscape.org/namespaces/inkscape"
   width="16"
   height="16"
   version="1.1"
   viewBox="0 0 16 16"
   id="svg18"
   sodipodi:docname="preferences-system-notifications.svg"
   inkscape:version="0.92.5 (2060ec1f9f, 2020-04-08)">
  <metadata
     id="metadata24">
    <rdf:RDF>
      <cc:Work
         rdf:about="">
        <dc:format>image/svg+xml</dc:format>
        <dc:type
           rdf:resource="http://purl.org/dc/dcmitype/StillImage" />
      </cc:Work>
    </rdf:RDF>
  </metadata>
  <defs
     id="defs22" />
  <sodipodi:namedview
     pagecolor="#ffffff"
     bordercolor="#666666"
     borderopacity="1"
     objecttolerance="10"
     gridtolerance="10"
     guidetolerance="10"
     inkscape:pageopacity="0"
     inkscape:pageshadow="2"
     inkscape:window-width="1366"
     inkscape:window-height="696"
     id="namedview20"
     showgrid="true"
     inkscape:zoom="20.85965"
     inkscape:cx="8.7057647"
     inkscape:cy="6.3770734"
     inkscape:window-x="0"
     inkscape:window-y="0"
     inkscape:window-maximized="1"
     inkscape:current-layer="svg18">
    <inkscape:grid
       type="xygrid"
       id="grid834" />
  </sodipodi:namedview>
  <title
     id="title2">deepin-multitasking-view</title>
  <circle
     cx="8"
     cy="8"
     r="7"
     id="circle4"
     style="fill:#808080;stroke-width:0.35002002" />
  <g
     fill="#fff"
     id="g16">
    <path
       d="m8.0817 11.757c-2.0781 0-3.7627-1.6846-3.7627-3.7627 0-0.0014 3.5e-4 -0.0028 3.5e-4 -0.0042h0.95729l-1.2216-1.4001-1.2233 1.4001h0.87504c0 0.0014-3.51e-4 0.0028-3.51e-4 0.0042 0 2.4165 1.9587 4.3752 4.3752 4.3752 1.2212 0 2.3248-0.50157 3.1183-1.3088l-0.40322-0.46587c-0.68463 0.71474-1.6468 1.162-2.7151 1.162z"
       stroke-width=".35002"
       id="path6" />
    <path
       d="m13.333 7.9909h-0.8761c-0.002096-2.4144-1.9601-4.371-4.3749-4.371-1.2226 0-2.3269 0.50262-3.1207 1.3112l0.40323 0.46587c0.68498-0.71614 1.6479-1.1646 2.7172-1.1646 2.0767 0 3.7602 1.6825 3.7623 3.7585h-0.95345l1.2027 1.3994z"
       stroke-width=".35002"
       id="path8" />
    <polygon
       transform="matrix(.35002 0 0 .35002 -.36193 -.40947)"
       points="9.117 24.006 9.115 24.009 9.117 24.009"
       id="polygon10" />
    <path
       d="m8.0496 10.093h-0.016105c-0.18901 0-0.34196-0.15681-0.34196-0.35002 0-0.19321 0.15296-0.35002 0.34196-0.35002h0.016105c0.18901 0 0.34196 0.15681 0.34196 0.35002 0 0.19321-0.15296 0.35002-0.34196 0.35002z"
       stroke-width=".35002"
       id="path12" />
    <path
       d="m8.3975 8.692c0 0.19321-0.15681 0.35002-0.35002 0.35002s-0.35002-0.15681-0.35002-0.35002v-2.4501c0-0.19321 0.15681-0.35002 0.35002-0.35002s0.35002 0.15681 0.35002 0.35002z"
       stroke-width=".35002"
       id="path14" />
  </g>
</svg>
