<svg id="SVGRoot" width="16px" height="16px" version="1.1" viewBox="0 0 16 16" xmlns="http://www.w3.org/2000/svg" xmlns:xlink="http://www.w3.org/1999/xlink">
<defs>
<linearGradient id="a" x1="7.2161" x2="7.2161" y1="3.2174" y2="13.719" gradientTransform="matrix(1.1086 0 0 .7127 6.8125 -.42361)" gradientUnits="userSpaceOnUse">
<stop stop-color="#0E004D" offset="0"/>
<stop stop-color="#4735E4" offset="1"/>
</linearGradient>
<linearGradient id="linearGradient1780" x1="7.2161" x2="7.2161" y1="3.2174" y2="13.719" gradientTransform="matrix(1.1086 0 0 .7127 6.8125 -.42361)" gradientUnits="userSpaceOnUse" xlink:href="#a"/>
</defs>
<g transform="translate(-6.8125 .86806)" fill-rule="evenodd">
<path d="m12.146 11.799h5.3333v2.6667h-5.3333z" fill="#afc0c8"/>
<path d="m6.8125 0.020833c0-0.24711 0.20267-0.44444 0.44444-0.44444h15.111a0.44444 0.44444 0 0 1 0.44444 0.44444v12.444c0 0.24622-0.20267 0.44444-0.44444 0.44444h-15.111a0.44444 0.44444 0 0 1-0.44444-0.44444z" fill="#f6fcff"/>
<rect x="10.368" y="13.799" width="8.8889" height=".88889" rx=".44444" fill="#f6fcff"/>
<path d="m7.7014 0.46528h14.222v9.7778h-14.222z"/>
<path d="m8.5903 1.3542h12.444v8h-12.444z" fill="url(#linearGradient1780)"/>
<g transform="matrix(.32188 0 0 .32188 10.045 3.0586)">
<path d="m12.146 11.799h5.3333v2.6667h-5.3333z" fill="#afc0c8"/>
<path d="m6.8125 0.020833c0-0.24711 0.20267-0.44444 0.44444-0.44444h15.111a0.44444 0.44444 0 0 1 0.44444 0.44444v12.444c0 0.24622-0.20267 0.44444-0.44444 0.44444h-15.111a0.44444 0.44444 0 0 1-0.44444-0.44444z" fill="#f6fcff"/>
<rect x="10.368" y="13.799" width="8.8889" height=".88889" rx=".44444" fill="#f6fcff"/>
<path d="m7.7014 0.46528h14.222v9.7778h-14.222z"/>
<path d="m8.5903 1.3542h12.444v8h-12.444z" fill="url(#linearGradient1780)"/>
</g>
</g>
</svg>
