<?xml version="1.0" encoding="UTF-8"?>
<svg width="16" height="16" version="1.1" viewBox="0 0 16 16" xmlns="http://www.w3.org/2000/svg" xmlns:cc="http://creativecommons.org/ns#" xmlns:dc="http://purl.org/dc/elements/1.1/" xmlns:rdf="http://www.w3.org/1999/02/22-rdf-syntax-ns#">
 <metadata>
  <rdf:RDF>
   <cc:Work rdf:about="">
    <dc:format>image/svg+xml</dc:format>
    <dc:type rdf:resource="http://purl.org/dc/dcmitype/StillImage"/>
    <dc:title>深度终端-16px</dc:title>
   </cc:Work>
  </rdf:RDF>
 </metadata>
 <defs>
  <linearGradient id="deepin-virtualkeyboard-c" x1=".5" x2=".5" y2=".98139" gradientTransform="matrix(.34043 0 0 .34043 -17.236 -1.94)" gradientUnits="userSpaceOnUse">
   <stop stop-color="#FFF" offset="0"/>
   <stop stop-color="#EDEDED" offset="1"/>
  </linearGradient>
  <linearGradient id="deepin-virtualkeyboard-d" x1="17.611" x2="17.611" y1="23.167" y2="42.246" gradientTransform="matrix(.46392 0 0 .2498 -17.236 -1.94)" gradientUnits="userSpaceOnUse">
   <stop stop-color="#4A4A4A" offset="0"/>
   <stop stop-color="#363636" offset=".97645"/>
  </linearGradient>
 </defs>
 <title>深度终端-16px</title>
 <g transform="matrix(1.0281 0 0 1.0281 17.321 1.5945)" stroke-width=".34043">
  <rect x="-15.875" y="-.23782" width="13.617" height="12.936" rx="2.578" fill="url(#deepin-virtualkeyboard-c)" fill-rule="evenodd"/>
  <path d="m-6.0023 3.8473h1.3617v1.3617h-1.3617zm-1.7021 0h1.3617v1.3617h-1.3617zm-1.7021 0h1.3617v1.3617h-1.3617zm2.0426 1.7021v1.3617h-1.3617v-1.3617zm-3.7447-1.7021h1.3617v1.3617h-1.3617zm2.0426 1.7021v1.3617h-1.3617v-1.3617zm-4.4255-1.7021h2.0426v1.3617h-2.0426zm0 1.7021h2.7234v1.3617h-2.7234zm7.1489 3.0638h-5.1064v-1.3617h5.1064zm-5.4468 0h-1.7021v-1.3617h1.7021zm7.1489-1.7021h-2.383v-1.3617h2.383zm0 1.7021h-1.3617v-1.3617h1.3617z" fill="url(#deepin-virtualkeyboard-d)"/>
 </g>
</svg>
