<svg width="16" height="16" version="1" xmlns="http://www.w3.org/2000/svg">
<defs>
<linearGradient id="a" x1="7.2161" x2="7.2161" y1="3.2174" y2="13.719" gradientTransform="matrix(1.1086 0 0 .7127 -17.203 .032957)" gradientUnits="userSpaceOnUse">
<stop stop-color="#0E004D" offset="0"/>
<stop stop-color="#4735E4" offset="1"/>
</linearGradient>
</defs>
<g transform="translate(17.203 .41149)" fill-rule="evenodd">
<path d="m-11.87 12.255h5.3333v2.6667h-5.3333z" fill="#afc0c8"/>
<path d="m-17.203 0.4774c0-0.24711 0.20267-0.44444 0.44444-0.44444h15.111a0.44444 0.44444 0 0 1 0.44444 0.44444v12.444c0 0.24622-0.20267 0.44444-0.44444 0.44444h-15.111a0.44444 0.44444 0 0 1-0.44444-0.44444z" fill="#f6fcff"/>
<rect x="-13.648" y="14.255" width="8.8889" height=".88889" rx=".44444" fill="#f6fcff"/>
<path d="m-16.315 0.92185h14.222v9.7778h-14.222z"/>
<path d="m-15.426 1.8107h12.444v8h-12.444z" fill="url(#a)"/>
<path d="m-15.426 1.8107h3.9484l5.1627 8h-9.1111z" fill="#fff" opacity=".123"/>
</g>
</svg>
