<svg width="16" height="16" version="1" xmlns="http://www.w3.org/2000/svg">
<defs>
<linearGradient id="a" x1="7.2161" x2="7.2161" y1="3.2174" y2="13.719" gradientTransform="matrix(1.2472 0 0 .80178 -19.305 -.16102)" gradientUnits="userSpaceOnUse">
<stop stop-color="#0E004D" offset="0"/>
<stop stop-color="#4735E4" offset="1"/>
</linearGradient>
</defs>
<g transform="matrix(.88889 0 0 .88889 17.16 1.4765)" fill-rule="evenodd">
<path d="m-19.305 0.33898c0-0.278 0.228-0.5 0.5-0.5h17a0.5 0.5 0 0 1 0.5 0.5v14c0 0.277-0.228 0.5-0.5 0.5h-17a0.5 0.5 0 0 1-0.5-0.5z" fill="#f6fcff"/>
<path d="m-18.305 0.83898h16v11h-16z"/>
<path d="m-17.305 1.839h14v9h-14z" fill="url(#a)"/>
<path d="m-3.3051 7.707-1.167-0.574-1.555-1.82-0.778 0.368-1.556-1.842-0.777 0.737-0.778-0.737-3.14 3.532-2.888 0.336-1.361 0.737v2.395h13.502a0.5 0.5 0 0 0 0.498-0.503z" fill="#3612c1"/>
<path d="m-12.638 10.839 7.389-1.842 1.944 1.105v0.737z" fill="#4224ca"/>
<path d="m-6.9991 7.707 0.972-2.394 0.778 3.684z" fill="#5042ec"/>
<path d="m-9.9161 3.839-1.167 2.471-1.166 1.582-1.945 0.736z" fill="#ab76ef"/>
<path d="m-9.1381 5.681-0.778 0.369 1.944 0.552 0.389-0.331-0.778-0.958z" fill="#4531d8"/>
<path d="m-9.5271 4.944-1.556 1.366 1.167-0.26 1.555-0.737z" fill="#7365ee"/>
<path d="m-11.083 6.31 0.972 1.84-2.138-0.258z" fill="#5241eb"/>
<path d="m-12.249 7.892-1.945 0.736 1.167 0.811z" fill="#6c51ef"/>
<path d="m-15.361 9.476 2.334-0.037 0.389 1.4z" fill="#3e2bcd"/>
<path d="m-13.027 9.439 3.5-1.547 0.778-0.737 0.194 0.737-4.083 2.947z" fill="#593ef3"/>
<path d="m-17.305 10.839 1.944-1.363 2.723 1.363z" fill="#4735e4"/>
<path d="m-9.5271 4.944-0.389-1.105-0.778 1.647z" fill="#523de0"/>
<path d="m-12.638 10.839 3.5-2.947 2.139-0.185 1.75 1.29z" fill="#654af8"/>
<path d="m-8.7491 7.155 1.944-1.474 0.778-0.368-0.972 2.394-2.528 0.553z" fill="#7f5ef1"/>
<path d="m-8.7491 7.155-0.778 1.105 1.75-0.921 1.75-2.026-0.778 0.368z" fill="#b57bff"/>
<path d="m-8.3611 3.839-1.166 1.105 1.166 0.369z" fill="#ab76ef"/>
<path d="m-9.9161 6.05 1.167 1.105-0.778 0.737-0.622 0.221z" fill="#442ae7"/>
<path d="m-14.194 8.628-1.75-0.921 2.917-0.368z" fill="#7f5ef1"/>
<path d="m-15.944 7.707-1.361 0.737 3.111 0.184z" fill="#593ef3"/>
<path d="m-14.972 8.813-0.389 0.663-1.944 1.363v-1.474z" fill="#452ac5"/>
<path d="m-6.9991 7.707-0.195 1.769 1.945-0.479z" fill="#411bce"/>
<path d="m-17.305 9.365v-0.921l3.111 0.184z" fill="#6f4ee6"/>
<path d="m-17.305 1.839h4.442l5.808 9h-10.25z" fill="#fff" opacity=".123"/>
</g>
</svg>
