<svg width="16" height="16" version="1" xmlns="http://www.w3.org/2000/svg"><path d="M8 0l-.02.001h-.003C5.485.017 3 2.674 3 4.667v6.592c0 2.709 1.875 4.74 5 4.74 3.125.002 5-2.03 5-4.74V4.85c0-2.072-2.497-4.83-5-4.847z" fill="#4f4f4f"/><path d="M8 0h-.023C5.485.018 3 2.674 3 4.668V8h10V4.85C13 2.776 10.503.018 8 .001z" opacity=".1"/><path d="M8 0h-.023C5.485.018 3 2.674 3 4.668V8h5V.002z" opacity=".1"/><path d="M8 2c.551 0 1 .384 1 .857v2.286C9 5.616 8.551 6 8 6c-.551 0-1-.384-1-.857V2.857C7 2.384 7.449 2 8 2" fill="#e4e4e4"/></svg>