<svg width="16" height="16" version="1.1" viewBox="0 0 16 16" xmlns="http://www.w3.org/2000/svg" xmlns:xlink="http://www.w3.org/1999/xlink"><title>preferences-desktop-font</title><defs><rect id="a" width="12" height="12" rx="1"/></defs><g transform="translate(2 2)" fill="none" fill-rule="evenodd"><use fill="#FFF" fill-rule="evenodd" xlink:href="#a"/><rect x=".5" y=".5" width="11" height="11" rx="1" stroke="#E5E5E5"/><g fill="#333"><path d="M2.613 3.613c0-.046-.007-.085-.02-.118s-.038-.061-.079-.087a.587.587 0 0 0-.166-.064 4.427 4.427 0 0 0-.272-.057C2.026 3.272 2 3.227 2 3.151V3.08c0-.022.005-.046.015-.071a14.82 14.82 0 0 0 .999.037h1.55c.232 0 .43-.007.594-.022A4.46 4.46 0 0 1 5.488 3c.055 0 .095.023.12.068.015.04.028.115.038.223s.028.22.053.337c.015.086.033.169.053.25.02.08.05.178.09.294-.02.01-.046.02-.079.03s-.064.016-.094.016c-.056 0-.094-.023-.114-.068-.06-.131-.12-.244-.177-.337s-.124-.169-.197-.227-.159-.1-.257-.125a1.467 1.467 0 0 0-.36-.037h-.998v1.913H4.61c.085 0 .147-.041.185-.124.038-.084.07-.208.095-.375.015-.065.063-.098.143-.098.015 0 .04.001.072.004a.327.327 0 0 1 .072.011 10.945 10.945 0 0 0-.038.794 8.025 8.025 0 0 0 .038.742.146.146 0 0 1-.068.018.898.898 0 0 1-.068.004c-.086 0-.136-.035-.151-.106a1.224 1.224 0 0 0-.091-.367c-.04-.083-.104-.124-.19-.124H3.567V7.41c0 .05.018.092.053.125s.083.06.144.083c.06.023.13.04.211.053.081.013.167.026.258.042.06.005.09.047.09.128A1.215 1.215 0 0 1 4.307 8a5.934 5.934 0 0 1-.423-.015 7.045 7.045 0 0 0-.42-.019 26.114 26.114 0 0 0-.443-.004 7.655 7.655 0 0 0-.491.015c-.091.005-.18.01-.269.012-.088.002-.17.006-.246.011A.178.178 0 0 1 2 7.92V7.85c0-.076.025-.116.076-.121.166-.04.297-.08.393-.118.096-.037.144-.107.144-.208v-3.79zM6.124 6.383c0-.28.053-.542.159-.786a2.06 2.06 0 0 1 1.08-1.077c.246-.106.509-.159.789-.159.288 0 .556.05.804.15s.463.24.645.42.325.394.429.642.156.518.156.81a2.02 2.02 0 0 1-1.242 1.863 1.994 1.994 0 0 1-.792.16c-.288 0-.556-.05-.804-.15s-.462-.24-.642-.42-.322-.394-.426-.64-.156-.517-.156-.813zm2.118 1.71c.168 0 .32-.037.456-.11s.253-.176.35-.304.175-.278.229-.45.08-.356.08-.552c0-.284-.026-.548-.08-.792s-.136-.455-.246-.633-.248-.318-.414-.42-.36-.153-.58-.153c-.14 0-.275.031-.407.093s-.248.152-.348.27-.18.261-.24.43-.09.357-.09.57c0 .295.029.57.087.821s.142.47.252.651.245.324.405.426.342.153.546.153z"/></g></g></svg>