<svg width="16" height="16" version="1.1" viewBox="0 0 16 16" xmlns="http://www.w3.org/2000/svg"><path d="M.8.998V1c-.442 0-.8.346-.8.777V14.223c0 .431.358.777.8.777H15.2c.443 0 .8-.346.8-.777V1.775a.788.788 0 0 0-.8-.777H.8z" fill="#8b346f"/><path d="M.8.998V1c-.442 0-.8.346-.8.777V14.223c0 .431.358.777.8.777H3V.998H.8z" opacity=".2"/><g fill="#fff"><rect x="1" y="2" width="1" height="1" rx=".125" ry=".125"/><rect x="1" y="4" width="1" height="1" rx=".125" ry=".125"/><rect x="1" y="6" width="1" height="1" rx=".125" ry=".125"/><rect x="1" y="8" width="1" height="1" rx=".125" ry=".125"/></g></svg>