<svg width="16" height="16" version="1.1" viewBox="0 0 16 16" xmlns="http://www.w3.org/2000/svg"><path d="M13.04.001C10.849.027 7.469.654 6.412 1.95H6.41c-.843 1.26-.95 6.194-.732 5.89 1.795-2.504 6.095-5.598 8.664-6.841C15.73.324 14.744-.02 13.04 0zm-2.116 4.086c-1.483.11-4.09 2.707-3.725 2.692 3.034-.108 4.928.071 7.295.827.35.112-.379-3.265-3.57-3.519zM9.32 6.791c-.078 0-.11.025-.084.064 1.733 2.56 2.614 4.295 3.281 6.75.1.365 2.46-2.099.936-4.993-.782-1.07-3.585-1.85-4.133-1.821zm.903 2.052c-.018 0-.03 0-.035.026-.768 3.02-1.477 4.838-2.857 6.955-.206.312 3.149.56 4.297-2.514.302-1.401-1.148-4.4-1.405-4.47zm-.843 1.93h-.026c-2.738 1.347-4.545 1.964-7.01 2.242-.364.043 1.615 2.839 4.64 1.76l.002-.002c1.276-.689 2.612-3.949 2.394-4.005z" fill="#37a0f2"/><path d="M4.856 2.82c-.553.097-2.775 1.672-2.263 4.503.486 1.446 3.597 3.369 3.49 3.007-.884-2.986-1.203-4.917-1.105-7.462.002-.047-.043-.063-.122-.05zM1.288 7.278C1.003 7.239.335 10.444 3 12.073c1.378.578 4.833-.56 4.498-.718-2.766-1.282-4.387-2.309-6.183-4.063a.036.036 0 0 0-.026-.014z" fill="#4f4f4f"/></svg>