<svg width="16" height="16" version="1.1" viewBox="0 0 16 16" xmlns="http://www.w3.org/2000/svg" xmlns:xlink="http://www.w3.org/1999/xlink"><title>steam</title><defs><linearGradient id="b" x1="50%" x2="50%" y1="2.868%" y2="100%"><stop stop-color="#8C8C91" offset="0"/><stop stop-color="#69696F" offset="1"/></linearGradient><circle id="a" cx="7" cy="7" r="7"/><linearGradient id="c" x1="50%" x2="50%" y1="2.868%" y2="100%"><stop stop-color="#484848" offset="0"/><stop stop-color="#4C4C56" offset="1"/></linearGradient><linearGradient id="e" x1="97.883%" x2="0%" y1="2.116%" y2="100%"><stop stop-color="#fff" offset="0"/><stop stop-color="#DFE9F1" offset="1"/></linearGradient><linearGradient id="f" x1="63.742%" x2="50%" y1="40.092%" y2="78.878%"><stop stop-color="#fff" offset="0"/><stop stop-color="#DFE9F1" offset="1"/></linearGradient></defs><g transform="translate(1 1)" fill="none" fill-rule="evenodd"><mask id="d" fill="#fff"><use xlink:href="#a"/></mask><use fill="url(#b)" xlink:href="#a"/><circle cx="7" cy="7" r="4.5" fill="url(#c)" mask="url(#d)"/><g mask="url(#d)"><path d="M6.177 7.307a1.297 1.297 0 0 1-1.714-1.856c.045-.066 2.412-4.21 2.908-4.706a2.545 2.545 0 1 1 3.6 3.6c-.497.496-4.696 2.906-4.794 2.962zm2.994-3.17a1.59 1.59 0 1 0 0-3.182 1.59 1.59 0 0 0 0 3.181zm0-.774a.818.818 0 1 1 0-1.636.818.818 0 0 1 0 1.636zM5.67 7.04a.994.994 0 1 0 0-1.989.994.994 0 0 0 0 1.989zm0-.676a.318.318 0 1 1 0-.637.318.318 0 0 1 0 .637z" fill="url(#e)" transform="translate(-2.17 4.455)"/><path d="M2.51 10.583a.994.994 0 0 1 0 0z" fill="#fff"/><path d="M5.576 6.598A.574.574 0 0 0 5.907 5.5v-.001L.266 2.563l-.096.714-.083.636.854 1.86 4.635.824z" fill="url(#f)" transform="translate(-2.17 4.455)"/></g></g></svg>