<svg width="16" height="16" version="1" xmlns="http://www.w3.org/2000/svg">
<path d="M8.045 1a7 7 0 0 0-2.729.541 6.978 6.978 0 0 0-3.775 9.143 6.978 6.978 0 0 0 9.143 3.775 6.978 6.978 0 0 0 3.775-9.143A6.98 6.98 0 0 0 8.045 1zM8 4a4 4 0 0 1 4 4 4 4 0 0 1-4 4 4 4 0 0 1-4-4 4 4 0 0 1 4-4z" fill="#e4e4e4"/>
<path d="M8.046 0a7.29 7.29 0 0 0-2.663.493.669.675 0 0 0-.387.872l1.188 3.15a.669.675 0 0 0 .864.39c.303-.117.626-.177.951-.177.325 0 .646.062.95.18a.669.675 0 0 0 .864-.39l1.19-3.154a.669.675 0 0 0-.387-.872A7.263 7.263 0 0 0 8.046 0zM1.121 4.952a.675.669 0 0 0-.628.431A7.29 7.29 0 0 0 0 8.046c.005.89.18 1.759.492 2.57a.675.669 0 0 0 .872.388l3.154-1.19a.675.669 0 0 0 .39-.865 2.65 2.65 0 0 1-.18-.95c0-.325.06-.648.178-.951a.675.669 0 0 0-.392-.863l-3.15-1.189a.675.669 0 0 0-.243-.044zm13.759 0a.675.669 0 0 0-.244.044l-3.15 1.188a.675.669 0 0 0-.391.864c.117.303.177.626.178.951a2.65 2.65 0 0 1-.18.95.675.669 0 0 0 .39.865l3.153 1.19a.675.669 0 0 0 .872-.388c.312-.811.488-1.68.492-2.57a7.29 7.29 0 0 0-.493-2.663.675.669 0 0 0-.627-.43zm-5.67 6.096a.669.675 0 0 0-.261.044 2.65 2.65 0 0 1-.95.18c-.325 0-.647-.06-.951-.178a.669.675 0 0 0-.863.392l-1.188 3.15a.669.675 0 0 0 .386.87A7.29 7.29 0 0 0 8.046 16a7.264 7.264 0 0 0 2.57-.492.669.675 0 0 0 .388-.872l-1.19-3.154a.669.675 0 0 0-.603-.434z" fill="#ea004e"/>
</svg>
