<svg width="16" height="16" version="1.1" viewBox="0 0 16 16" xmlns="http://www.w3.org/2000/svg"><title>软件包安装器-16px</title><g fill-rule="evenodd"><path fill="#d70751" d="M3 14V2h10v12z"/><path fill="#d0dfed" d="M2 6h12v9H2z"/><g fill="#10acff"><path d="M6.824 11.631h-.801v-.139c0-.047.043-.093.09-.094h.667c.04 0 .088.048.087.094v.093s0 .046-.043.046m.22.65c.046 0 .046-.042.046-.047v-.138c0-.046-.045-.047-.045-.047h-.934c-.09 0-.088-.092-.088-.092-.001-.005 0-.094 0-.094h.89c.246 0 .221-.186.221-.186v-.185s.024-.327-.31-.327h-.75c-.34 0-.317.323-.317.323v.468c0 .325.312.324.312.324zM5.4 12.003s0 .045-.045.045h-.43c-.145 0-.324-.033-.324-.322 0-.288.198-.328.322-.328H5.4v.605m.222-1.257h-.177s-.044 0-.044.048v.37h-.576c-.418 0-.492.38-.492.56 0 .18.075.556.498.556h.614c.222 0 .222-.23.222-.23v-1.258c0-.046-.045-.046-.045-.046M10.334 11.026h-.178a.046.046 0 0 1-.044-.047v-.186c0-.025.02-.046.044-.046h.178c.025 0 .044.02.044.046v.186c0 .026-.02.047-.044.047M10.334 12.281h-.178a.046.046 0 0 1-.044-.047v-1.023c0-.025.02-.046.044-.046h.178c.025 0 .044.02.044.046v1.023c0 .026-.02.047-.044.047M11.178 11.165h-.711v1.069c0 .02.013.052.053.046h.155c.062.01.06-.047.06-.047l-.001-.835h.444c.007 0 .18.003.18.232l-.002.604c0 .026.02.047.044.047h.178c.025 0 .044-.02.044-.047v-.625c0-.258-.117-.444-.444-.444M8.956 11.442s0-.045.045-.045h.43c.145 0 .324.033.324.322 0 .288-.198.328-.322.328h-.477v-.605m-.222 1.257h.177s.045 0 .045-.048v-.37h.575c.419 0 .492-.38.492-.56 0-.18-.075-.556-.498-.556H8.91c-.222 0-.222.23-.222.23v1.258c0 .046.045.046.045.046M8.29 11.631h-.8v-.139c0-.047.043-.093.09-.094h.667c.04 0 .087.048.087.094v.093s0 .046-.044.046m.221.65c.046 0 .046-.042.046-.047v-.138c0-.046-.045-.047-.045-.047h-.934c-.09 0-.088-.092-.088-.092-.002-.005 0-.094 0-.094h.889c.247 0 .222-.186.222-.186v-.185s.024-.327-.31-.327h-.75c-.34 0-.317.323-.317.323v.468c0 .325.311.324.311.324z"/></g><path fill="#cdddea" d="M1.5 6h13l1.5 4H0z"/><path fill="#fff" d="M2 6h12l1 3H1z"/><path d="M8 6.575L6 3.938l2 .52 2-.52zm-1.2-4l1.2.253 1.2-.253v.4L8 3.247l-1.2-.272zm0 .8l1.2.253 1.2-.253v.4L8 4.047l-1.2-.272z" fill="#fff"/></g></svg>