<svg width="16" height="16" version="1" xmlns="http://www.w3.org/2000/svg">
<g shape-rendering="auto">
<path d="m8 1c-0.2413 0-0.47909 0.011996-0.71436 0.035889s-0.46764 0.059318-0.69556 0.10595c-0.22792 0.046639-0.45233 0.1044-0.67163 0.17261s-0.43313 0.14725-0.64258 0.23584c-0.20945 0.088585-0.41513 0.18788-0.61352 0.29565-0.1984 0.10777-0.38975 0.22456-0.57592 0.35034-0.093091 0.062895-0.18533 0.12766-0.27514 0.19483-0.08981 0.067165-0.17849 0.13548-0.2649 0.20679-0.1728 0.14261-0.33732 0.2946-0.49561 0.45288-0.15829 0.15829-0.31028 0.3228-0.45288 0.49561-0.14261 0.1728-0.27584 0.35386-0.40161 0.54004-0.12578 0.18618-0.24257 0.37753-0.35034 0.57592-0.10777 0.1984-0.20707 0.40408-0.29565 0.61352-0.088594 0.20945-0.16763 0.42328-0.23584 0.64258-0.068209 0.2193-0.12596 0.44371-0.17261 0.67163-0.046639 0.22792-0.082064 0.46029-0.10595 0.69556-0.023893 0.23526-0.035889 0.47305-0.035889 0.71436 0 3.8608 3.1392 7 7 7s7-3.1392 7-7c0-0.2413-0.012-0.47909-0.03589-0.71436-0.02389-0.23528-0.05933-0.46765-0.10596-0.69556-0.04664-0.22791-0.10439-0.45232-0.1726-0.67163-0.06821-0.2193-0.14725-0.43313-0.23584-0.64258s-0.18788-0.41513-0.29565-0.61352-0.22456-0.38975-0.35034-0.57592c-0.12578-0.18618-0.259-0.36724-0.40161-0.54004s-0.2946-0.33732-0.45288-0.49561c-0.15829-0.15829-0.3228-0.31028-0.49561-0.45288-0.08639-0.071297-0.17504-0.13961-0.2649-0.20679-0.08982-0.06717-0.18205-0.13193-0.27514-0.19483-0.18617-0.12578-0.37753-0.24257-0.57592-0.35034-0.1984-0.10777-0.40408-0.20707-0.61352-0.29565-0.20945-0.088585-0.42328-0.16763-0.64258-0.23584-0.2193-0.068209-0.44371-0.12596-0.67163-0.17261-0.22792-0.046639-0.46029-0.082065-0.69556-0.10595-0.23526-0.023893-0.47305-0.035889-0.71436-0.035889z" color="#000000" color-rendering="auto" dominant-baseline="auto" fill="#fff" fill-rule="evenodd" image-rendering="auto" solid-color="#000000" style="font-feature-settings:normal;font-variant-alternates:normal;font-variant-caps:normal;font-variant-ligatures:normal;font-variant-numeric:normal;font-variant-position:normal;isolation:auto;mix-blend-mode:normal;paint-order:stroke markers fill;shape-padding:0;text-decoration-color:#000000;text-decoration-line:none;text-decoration-style:solid;text-indent:0;text-orientation:mixed;text-transform:none;white-space:normal"/>
<path d="m8 4c-1.0994 0-2 0.90065-2 2v2h-0.011719c-0.5303 0-0.98828 0.43314-0.98828 0.97266v2.0547c0 0.53952 0.45799 0.97266 0.98828 0.97266h4.0234c0.5303 0 0.98828-0.43314 0.98828-0.97266v-2.0547c0-0.53952-0.45799-0.97266-0.98828-0.97266h-0.011719v-2c0-1.0994-0.90065-2-2-2zm0 1c0.56265 0 1 0.43735 1 1v2h-2v-2c0-0.56265 0.43735-1 1-1zm-2 4h1 2 1v2h-4v-2z" color="#000000" color-rendering="auto" dominant-baseline="auto" fill="#0086ff" image-rendering="auto" solid-color="#000000" style="font-feature-settings:normal;font-variant-alternates:normal;font-variant-caps:normal;font-variant-ligatures:normal;font-variant-numeric:normal;font-variant-position:normal;isolation:auto;mix-blend-mode:normal;shape-padding:0;text-decoration-color:#000000;text-decoration-line:none;text-decoration-style:solid;text-indent:0;text-orientation:mixed;text-transform:none;white-space:normal"/>
<path d="m8 1c-0.48251 0-0.9543 0.049296-1.4102 0.14258-0.22793 0.046641-0.45256 0.10366-0.67188 0.17188-0.21932 0.068214-0.43312 0.14773-0.64258 0.23633-0.83784 0.35438-1.5915 0.86691-2.2246 1.5-0.63309 0.63309-1.1456 1.3868-1.5 2.2246-0.35438 0.83784-0.55078 1.7596-0.55078 2.7246 0 3.8601 3.1399 7 7 7 3.8601 0 7-3.1399 7-7 0-0.96502-0.1964-1.8868-0.55078-2.7246-0.35438-0.83784-0.86691-1.5915-1.5-2.2246-0.63309-0.63309-1.3868-1.1456-2.2246-1.5-0.20946-0.088594-0.42326-0.16811-0.64258-0.23633-0.21931-0.068214-0.44394-0.12523-0.67187-0.17188-0.45586-0.093283-0.92765-0.14258-1.4102-0.14258zm0 1c0.41495 0 0.81858 0.041205 1.209 0.12109 0.1952 0.039944 0.38842 0.09004 0.57617 0.14844 0.18775 0.058398 0.37142 0.12531 0.55078 0.20117 0.71746 0.30346 1.3631 0.74393 1.9062 1.2871 0.54318 0.54318 0.98365 1.1888 1.2871 1.9062 0.30346 0.71746 0.4707 1.506 0.4707 2.3359 0 3.3196-2.6804 6-6 6-3.3196 0-6-2.6804-6-6 0-0.82991 0.16724-1.6185 0.4707-2.3359 0.30346-0.71746 0.74393-1.3631 1.2871-1.9062s1.1888-0.98365 1.9062-1.2871c0.17936-0.075865 0.36303-0.14277 0.55078-0.20117 0.18775-0.058397 0.38097-0.10849 0.57617-0.14844 0.39041-0.079889 0.79403-0.12109 1.209-0.12109z" color="#000000" color-rendering="auto" dominant-baseline="auto" fill="#0086ff" fill-rule="evenodd" image-rendering="auto" solid-color="#000000" style="font-feature-settings:normal;font-variant-alternates:normal;font-variant-caps:normal;font-variant-ligatures:normal;font-variant-numeric:normal;font-variant-position:normal;isolation:auto;mix-blend-mode:normal;paint-order:stroke fill markers;shape-padding:0;text-decoration-color:#000000;text-decoration-line:none;text-decoration-style:solid;text-indent:0;text-orientation:mixed;text-transform:none;white-space:normal"/>
</g>
</svg>
