<svg width="16" height="16" version="1.1" viewBox="0 0 16 16" xmlns="http://www.w3.org/2000/svg" xmlns:xlink="http://www.w3.org/1999/xlink"><title>thunderbird</title><defs><circle id="a" cx="7" cy="7.667" r="7"/><linearGradient id="b" x1="132.98%" x2="59.644%" y1="130.68%" y2="61.842%"><stop stop-color="#A4D8E5" offset="0"/><stop stop-color="#0C418F" offset=".344"/><stop stop-color="#000060" offset="1"/></linearGradient><linearGradient id="d" x1="50.011%" x2="50.011%" y1="96.755%" y2="52.831%"><stop stop-color="#A4D8E5" offset="0"/><stop stop-color="#0C418F" offset=".5"/><stop stop-color="#000060" offset="1"/></linearGradient><linearGradient id="e" x1="18.078%" x2="66.348%" y1="3.714%" y2="94.981%"><stop stop-color="#FFE6C7" offset="0"/><stop stop-color="#FFFFF1" offset="1"/></linearGradient><linearGradient id="f" x1="46.955%" x2="30.691%" y1="-13.418%" y2="92.884%"><stop stop-color="#FFE8CC" offset="0"/><stop stop-color="#FFFFF8" offset="1"/></linearGradient><path id="h" d="M9.367 4.99c-.566.111-1.476-.015-1.679-.043-.616-.087-1.197-.284-1.819-.22-.472.047-.806.304-1.205.538-.067.068-.277.198-.353.25l-.5.256c-.002 0-.681.334-.725.767-.408-.414-.04-1.334-.043-1.334s.004.013.017.033l-.011-.29c-.004-.157-.033-.35-.057-.553-.436.318-.781.678-1.023 1.123C.875 7.532 1.824 8.78 1.826 8.78c-.408-.058-.817-.42-1.122-.956l.007.063s0 .174.009.428l.002.001c-.002 0 .267 2.543 1.214 3.847-1.86-.61-2.03-4.323-2.03-4.323l.003.001a4.252 4.252 0 0 1-.011-.383c.012-.766.119-1.41.32-1.929.029-.375.112-.757.26-1.132C1.062 2.961 3.535 1.206 4.806.8 5.05.722 5.76.666 6.566.668c.118-.037.24-.063.367-.076a11.885 11.885 0 0 1 1.363-.03c.39.03.802.055 1.19.134.449.093.945.628 1.289.952.025.023.046.05.065.076 1.055.444 1.956 1.317 2.524 2.653.22.525.392 1.103.501 1.71.014.075.026.15.038.224l-.002.001h.002c.006.067.01.13.014.193.505 4.838-2.427 6.893-2.426 6.893l-.163-.066c-.314.642-1.905 1.251-2.545 1.251.509-.312.702-.547.7-.547s-.878.498-2.304.4c1.135-.506 3.395-2.464 3.633-6.288 0 .034.003.067.006.1a7.074 7.074 0 0 0-.014-.183C10.29 9.13 9.41 9.25 9.412 9.25c.858-1.157.654-3.009-.045-4.26zm2.867.415l.08.034c-.067-.252-.128-.37-.128-.37.019.115.035.227.048.336zm.966.404l.067.029c-.035-.152-.063-.243-.062-.243 0 .074-.002.145-.005.214z"/><filter id="g" x="-24.9%" y="-17.8%" width="149.7%" height="149.9%"><feOffset dx="0" dy="1" in="SourceAlpha" result="shadowOffsetOuter1"/><feGaussianBlur in="shadowOffsetOuter1" result="shadowBlurOuter1" stdDeviation="1"/><feComposite in="shadowBlurOuter1" in2="SourceAlpha" operator="out" result="shadowBlurOuter1"/><feColorMatrix in="shadowBlurOuter1" values="0 0 0 0 0.0378745226 0 0 0 0 0.382748737 0 0 0 0 0.828922194 0 0 0 0.2 0"/></filter><linearGradient id="i" x1="49.961%" x2="49.961%" y1="96.763%" y2="52.781%"><stop stop-color="#A4D8E5" offset="0"/><stop stop-color="#0C418F" offset=".5"/><stop stop-color="#000060" offset="1"/></linearGradient><linearGradient id="j" x1="100%" x2="0%" y1="92.162%"><stop stop-color="#000060" offset="0"/><stop stop-color="#3268C3" offset="1"/></linearGradient><linearGradient id="k" x1="38.538%" x2="9.875%" y1="81.063%" y2="29.761%"><stop stop-color="#0909B3" offset="0"/><stop stop-color="#58B1E1" offset="1"/></linearGradient><linearGradient id="l" x1="22.186%" x2="67.429%" y1="16.531%" y2="81.703%"><stop stop-color="#3E98EB" offset="0"/><stop stop-color="#094895" offset=".67"/><stop stop-color="#0F308D" offset="1"/></linearGradient><linearGradient id="m" x1="8.558%" x2="50%" y1="50%" y2="73.769%"><stop stop-color="#0037A7" offset="0"/><stop stop-color="#57B7FF" stop-opacity=".329" offset="1"/></linearGradient><linearGradient id="n" x1="64.242%" x2="18.329%" y1="80.81%" y2="25.594%"><stop stop-color="#769EB8" offset="0"/><stop stop-color="#fff" offset="1"/></linearGradient><linearGradient id="o" x1="83.88%" x2="79.274%" y1="-20.242%" y2="93.962%"><stop stop-color="#A4CAE5" offset="0"/><stop stop-color="#0C418F" offset=".5"/><stop stop-color="#160047" offset="1"/></linearGradient><linearGradient id="p" x1="50%" x2="50%" y2="113.86%"><stop stop-color="#4848E6" offset="0"/><stop stop-color="#0C418F" offset=".5"/><stop stop-color="#010765" offset=".826"/><stop stop-color="#000060" offset="1"/></linearGradient><linearGradient id="q" x1="50%" x2="50%" y1="24.881%" y2="113.86%"><stop stop-color="#3C5ADB" offset="0"/><stop stop-color="#0C418F" offset=".5"/><stop stop-color="#000060" offset="1"/></linearGradient><linearGradient id="r" x1="49.963%" x2="50%" y1="10.46%" y2="113.86%"><stop stop-color="#0550CE" offset="0"/><stop stop-color="#0043A5" offset=".5"/><stop stop-color="#000060" offset="1"/></linearGradient><linearGradient id="s" x1="6.194%" x2="69.562%" y1="23.99%" y2="120.84%"><stop stop-color="#2D76AB" offset="0"/><stop stop-color="#4789EF" offset=".366"/><stop stop-color="#0D3B90" offset="1"/></linearGradient><linearGradient id="t" x2="34.013%" y1="100%" y2="19.345%"><stop stop-color="#3488DA" offset="0"/><stop stop-color="#0057D8" offset="1"/></linearGradient></defs><g transform="translate(1 .333)" fill="none" fill-rule="evenodd"><mask id="c" fill="#fff"><use xlink:href="#a"/></mask><g fill-rule="nonzero"><path d="M4.08 11.834C1.912 10.53 1.53 7.643 1.533 7.643l-1.866-.476s.152 4.056 4.413 4.667z" fill="url(#b)" mask="url(#c)"/><path d="M1.167 10.637c-.7-2.461-.508-1.202 1.148-.143.039.683.27 1.576.691 2.68-.369-.057-1.427-1.212-1.839-2.537z" fill="url(#d)" mask="url(#c)"/><path fill="url(#e)" mask="url(#c)" stroke="#D5B593" d="M4.811 8.705l-2.86-4.606L.702 5.717.59 9.81l8.937 2.94 1.872-3.219-.364-3.197z"/><path fill="url(#f)" mask="url(#c)" d="M11.035 6.334l-.123-1.083-8.837-1.313-.047.06-.077.101 2.86 4.606z"/><path fill="url(#f)" mask="url(#c)" stroke="#F1D4B5" d="M11.035 6.334l-.123-1.083-8.837-1.313-.047.06-.077.101 2.86 4.606z"/><g mask="url(#c)" fill="#000"><use filter="url(#g)" xlink:href="#h"/><use fill-opacity=".1" fill-rule="evenodd" xlink:href="#h"/></g><path d="M3.174 13.269S1.78 13.173.596 10.794c-.7-2.462.923 1.416 2.58 2.475h-.003z" fill="url(#d)" mask="url(#c)"/><path d="M-.093 7.84s.168 3.712 2.029 4.322C.989 10.858.72 8.315.722 8.315l-.815-.476z" fill="url(#i)" mask="url(#c)"/><path d="M1.004 10.197c-.39.082-1.132-1.304-1.106-2.74.015-.958.178-1.723.487-2.296L.71 7.886s0 1.865.295 2.311h-.001z" fill="url(#j)" mask="url(#c)"/><path d="M4.806.8C3.314 1.221 1.062 2.961.478 4.396-.315 6.403.76 8.627 1.826 8.78c-.002 0-.952-1.247.143-3.262.728-1.342 2.393-1.902 4.664-2.904C12.226 2.12 10.854 1.182 8.49.8 7.194.591 5.253.674 4.806.8z" fill="url(#k)" mask="url(#c)"/><path d="M9.485.696C9.098.617 8.686.592 8.295.562 8.027.543 7.26.558 6.934.592c-.823.086-1.449.713-2.11 1.188-.607.433-1.5.905-1.763 1.662-.21.42-.021 1.092-.012 1.505l.012.29c-.013-.02-.019-.033-.017-.033s-.365.92.043 1.334c.044-.433.723-.767.725-.767l.5-.255c.076-.053.286-.183.353-.25.399-.235.733-.492 1.205-.54.622-.063 1.203.134 1.82.22.248.035 1.55.216 1.993-.07.208-.136-.12-.826 0-1.03.143-.25.161-.469.158-.754.333-.08.706-.22.923-.506.178-.251.267-.694.012-.938-.344-.324-.84-.86-1.29-.952z" fill="url(#l)" mask="url(#c)"/><path d="M3.739 5.304c1.527-.05.717-1.107 2.757-3.108-1.662.978-3.392.956-2.756 3.108H3.74z" fill="url(#m)" mask="url(#c)"/><path d="M4.526 4.687c-.288.292-.631.224-.658-.16-.042-.544.532-.601.781-.518.084.246-.022.486-.121.678" fill="#000064" mask="url(#c)"/><path d="M4.553 4.614c-.092.176-.308.246-.428.18-.122-.066-.122-.286-.027-.462.091-.175.495-.097.497-.097a.578.578 0 0 1-.042.38z" fill="#F5A623" mask="url(#c)"/><path d="M3.827 5.748s0-.166-.048-.333c-.566.195-.74-.211-.739-.211.002 0-.366.92.043 1.335.044-.434.722-.768.724-.768" fill="url(#n)" mask="url(#c)"/></g><path d="M14.065 6.087l-3.067-1.2-.246 2.782a5.543 5.543 0 0 1 .06.479c-.238 3.824-2.498 5.782-3.633 6.287 1.426.099 2.302-.4 2.304-.4s-.191.235-.7.548c.64 0 2.232-.609 2.545-1.251l.163.066s3.1-2.173 2.374-7.311h.2z" fill="url(#o)" mask="url(#c)"/><g fill-rule="nonzero"><path d="M10.998 4.887l-.246 2.782c.026.151.045.313.059.482.002.03.004.063.008.098a1.121 1.121 0 0 1-.006-.098c-.01.14-.022.276-.034.41-.036.6-.094 1.91.276 2.584.25-.381.556-1.057.643-1.533.04.484-.188 1.106-.412 1.589-.16.358-.208.554-.141.588.037.016.378-.215.517-.345.314-.39.825-1.111.957-1.832.046.569-.44 1.494-.693 1.993 1.078-.296 1.975-2.832 1.99-2.874.085-.776.087-1.655-.05-2.644l-2.868-1.2z" fill="url(#p)" mask="url(#c)"/><path d="M11.621 7.39c.18 1.053-.525 2.6-.523 2.6s1.054-.207 1.519-2.457c0 0-.1 1.563-.305 1.93 0 0 1.016-.477 1.231-2.42.216-1.942-1.182-3.127-1.625-2.896-.295.153-.394 1.234-.297 3.243z" fill="url(#q)" mask="url(#c)"/><path d="M13.901 6.312l.002-.001a8.246 8.246 0 0 0-.539-1.934c-.638-1.503-1.699-2.42-2.926-2.799-2.79-.263-4.167 1.701-4.166 1.701 1.052 0 2.178.339 2.91 1.41.843 1.24 1.16 3.308.23 4.56-.001 0 1.934-.263 1.74-3.49-.002 0 .687 1.35-.197 3.21 0 0 1.787-.444 1.231-3.9 0 0 .409.79.28 2.617-.002 0 .737-.515.739-2.09-.002 0 .507 1.662 0 2.715-.001 0 .008-.028.046-.058.158-.134.779-.666.652-1.94H13.9z" fill="url(#r)" mask="url(#c)"/><path d="M9.301 4.884c.355.59.57 1.27.646 1.954.052.14.185.364.369.312.15-.043.287-.218.377-.343.113-.164.157-.364.266-.53.05-.083.121-.155.13-.257.003-.035-.01-.246.063-.24a.047.047 0 0 1 0-.02.1.1 0 0 0 .012.027c.05.043.07.145.09.205.029.096.054.192.08.289.04.166.153.465.365.28.097-.086.157-.217.21-.335.047-.115.076-.23.095-.353.031-.235.022-.554.195-.74a.463.463 0 0 1-.009-.065l.035.077c.077.052.186.102.279.05.084-.048.122-.156.147-.246.034-.137.046-.28.075-.42.03-.16.062-.324.051-.487.07.16.146.318.209.484.05.137.1.276.11.424.01.125.007.25.024.376.011.1.034.222.123.285.038-.534.12-1.112-.051-1.632a5.154 5.154 0 0 0-1.09-1.455 4.39 4.39 0 0 0-1.648-.946C7.664 1.315 6.286 3.28 6.288 3.28c.567 0 1.141.099 1.66.341.56.271 1.024.715 1.355 1.263h-.002z" fill="url(#s)" mask="url(#c)"/><path d="M3 3.55C3.895.775 5.614 0 5.616 0c-.686.712-.931 1.283-.93 1.283.232-.119.52-.709 1.127-.816-.527.444-.496.712-.494.712.157-.067.116-.12.649-.345a1.342 1.342 0 0 0-.495.584c-.437.282-.861.57-1.273.863S3.39 2.996 3 3.55z" fill="url(#t)"/></g></g></svg>