<svg width="16" height="16" version="1.1" viewBox="0 0 16 16" xmlns="http://www.w3.org/2000/svg"><title>wps-office-wpsmain</title><defs><linearGradient id="a" x1="50.001%" x2="50.001%" y1=".348%" y2="97.387%"><stop stop-color="#535CFF" offset="0"/><stop stop-color="#3F4CFF" offset="1"/></linearGradient><linearGradient id="b" x1="50.001%" x2="50.001%" y1="2.322%" y2="96.442%"><stop stop-color="#A2BAFF" offset="0"/><stop stop-color="#93BDFF" offset="1"/></linearGradient></defs><g fill="none" fill-rule="evenodd"><path d="M.333 0h11.203c.084 0 .165.032.226.088l2.13 1.967A.333.333 0 0 1 14 2.3v11.367c0 .184-.15.333-.333.333H.334A.333.333 0 0 1 0 13.667V.334C0 .15.15 0 .334 0z" fill="url(#a)" transform="translate(1 1)"/><g fill-rule="nonzero"><path d="M4.176 3.531L.707 6.877l1.671 1.286 1.798-1.734a.333.333 0 0 1 .463 0l1.797 1.734 1.671-1.286L4.64 3.532a.333.333 0 0 0-.463 0z" fill="url(#b)" transform="translate(3.593 3.792)"/><path d="M4.334 4h1.333c.184 0 .333.15.333.334V12H4.334A.333.333 0 0 1 4 11.667V4.334C4 4.15 4.15 4 4.334 4zm6 0h1.333c.184 0 .333.15.333.334v7.333c0 .184-.149.333-.333.333H10V4.334c0-.184.15-.334.334-.334z" fill="#fff"/></g></g></svg>