<svg width="16" height="16" version="1.1" viewBox="0 0 16 16" xmlns="http://www.w3.org/2000/svg"><title>wps-office-etmain</title><defs><linearGradient id="a" x1="50%" x2="50%" y2="100%"><stop stop-color="#92CF00" offset="0"/><stop stop-color="#57AC00" offset="1"/></linearGradient><linearGradient id="b" x1="100%" x2="2.756%" y1="50%" y2="50%"><stop stop-color="#F5F5F5" offset="0"/><stop stop-color="#A1E37D" offset="1"/></linearGradient></defs><g fill="none" fill-rule="evenodd"><path d="M.333 0h11.203c.084 0 .165.032.226.088l2.13 1.967A.333.333 0 0 1 14 2.3v11.367c0 .184-.15.333-.333.333H.334A.333.333 0 0 1 0 13.667V.334C0 .15.15 0 .334 0z" transform="translate(1 1)" fill="url(#a)"/><g fill-rule="nonzero"><path d="M2 3h5v2H2V3z" fill="url(#b)" transform="translate(4 4)"/><path d="M11.668 12H4.333A.333.333 0 0 1 4 11.667v-1.334c0-.184.149-.333.333-.333h5.334A.333.333 0 0 0 10 9.667V7h1.667c.184 0 .333.149.333.333v4.334a.333.333 0 0 1-.333.333zM6 6.332V9H4.333A.333.333 0 0 1 4 8.667V4.334C4 4.149 4.149 4 4.332 4h7.335c.184 0 .333.149.333.333v1.334a.333.333 0 0 1-.333.333H6.334A.333.333 0 0 0 6 6.333z" fill="#fff"/></g></g></svg>