<svg width="16" height="16" version="1.1" viewBox="0 0 16 16" xmlns="http://www.w3.org/2000/svg"><title>wps-office-wppmain</title><defs><linearGradient id="a" x1="50%" x2="50%" y2="100%"><stop stop-color="#FF8767" offset="0"/><stop stop-color="#FF6134" offset="1"/></linearGradient><linearGradient id="b" x1="99.067%" x2=".942%" y1="50%" y2="50%"><stop stop-color="#FFD6C2" offset="0"/><stop stop-color="#FFC4B1" offset="1"/></linearGradient></defs><g fill="none" fill-rule="evenodd"><path d="M.333 0h11.203c.084 0 .165.032.226.088l2.13 1.967A.333.333 0 0 1 14 2.3v11.367c0 .184-.15.333-.333.333H.334A.333.333 0 0 1 0 13.667V.334C0 .15.15 0 .334 0z" transform="translate(1 1)" fill="url(#a)"/><g fill-rule="nonzero"><path d="M6 3.75V6H2V3.583v.084c0 .184.15.333.333.333H6v-.25z" fill="url(#b)" transform="translate(4 4)"/><path d="M9.667 6H6.333A.333.333 0 0 0 6 6.333v5.334c0 .184-.15.333-.333.333H4.333A.333.333 0 0 1 4 11.667V4.333C4 4.15 4.15 4 4.333 4h7.334c.184 0 .333.15.333.333v5.334c0 .184-.15.333-.333.333H10V6.333A.333.333 0 0 0 9.667 6z" fill="#fff"/></g></g></svg>