<svg width="16" height="16" version="1" xmlns="http://www.w3.org/2000/svg"><path d="M0 2.9v11.322c0 .43.352.778.79.778h13.42c.438 0 .79-.347.79-.778V2.9z" fill="#3575b8"/><path d="M15 3V1.778A.782.782 0 0 0 14.21 1H.79a.782.782 0 0 0-.79.778V3z" fill="#e4e4e4"/><rect x="9" y="4" width="5" height="4" rx=".533" ry=".68" opacity=".3"/><rect x="9" y="8" width="7" height="3" rx=".778" ry=".75" fill="#c7db59"/><rect x="1" y="10" width="5" height="4" rx=".533" ry=".68" opacity=".3"/><path d="M9.813 6a1.153 1.228 0 0 0-.542.164L7.423 7.3 5.577 8.436a1.153 1.228 0 0 0 0 2.128L7.423 11.7l1.848 1.136A1.153 1.228 0 0 0 11 11.772V7.228A1.153 1.228 0 0 0 9.813 6z" fill="#c7db59"/></svg>