<svg width="16" height="16" version="1.1" viewBox="0 0 16 16" xmlns="http://www.w3.org/2000/svg" xmlns:xlink="http://www.w3.org/1999/xlink">
<defs>
<linearGradient id="linearGradient863" x2="16" y1="6" y2="6" gradientTransform="matrix(.5547 0 0 1.8028 2 1)" gradientUnits="userSpaceOnUse">
<stop stop-color="#628FFF" offset="0"/>
<stop stop-color="#4084FF" offset="1"/>
</linearGradient>
</defs>
<path d="M.8 1c-.442 0-.8.07-.8.514V11h16V1.514C16 1.07 15.642 1 15.199 1H.801z" fill="url(#linearGradient863)"/>
<path d="M.8 15a.798.798 0 0 1-.8-.8V11h16v3.2c0 .443-.357.8-.8.8z" fill="#253951"/>
<g fill="#fff">
<rect x="1" y="12" width="6" height="2" rx=".479" ry=".515" opacity=".3"/>
<rect x="8" y="12" width="6" height="2" rx=".479" ry=".515" opacity=".3"/>
<path d="M2 12h2v2H2zM9 12h2v2H9z"/>
</g>
</svg>
