<svg width="16" height="16" version="1" xmlns="http://www.w3.org/2000/svg">
<rect transform="matrix(0 -1 -1 0 0 0)" x="-16" y="-16" width="16" height="16" rx=".857" ry=".857" fill="#f5b923"/>
<path d="M3 3c-.554 0-1 .372-1 .834v8.332c0 .462.446.834 1 .834s1-.372 1-.834V3.834C4 3.372 3.554 3 3 3zm5 0c-.554 0-1 .372-1 .834v8.332c0 .462.446.834 1 .834s1-.372 1-.834V3.834C9 3.372 8.554 3 8 3zm5 0c-.554 0-1 .372-1 .834v8.332c0 .462.446.834 1 .834s1-.372 1-.834V3.834C14 3.372 13.554 3 13 3z" opacity=".3"/>
<path d="M2 6v6.166c0 .462.446.834 1 .834s.926-.378 1-.834V6zm10 2v4.166c0 .462.446.834 1 .834s1-.372 1-.834V8zm-5 2v2.166c0 .462.446.834 1 .834s1-.372 1-.834V10z" fill="#4f4f4f"/>
<path d="M3 4a2 2 0 1 0 0 4 2 2 0 0 0 0-4zm10 2a2 2 0 1 0 0 4 2 2 0 0 0 0-4zM8 8a2 2 0 1 0 0 4 2 2 0 0 0 0-4z" fill="#fff"/>
</svg>
