<svg width="48" height="48" viewBox="0 0 48 48" version="1.1" xmlns="http://www.w3.org/2000/svg"><title>AntennaPod</title><defs><filter x="-50%" y="-50%" width="200%" height="200%" filterUnits="objectBoundingBox" id="a"><feOffset dx="0" dy="1" in="SourceAlpha" result="shadowOffsetOuter1"/><feGaussianBlur stdDeviation=".5" in="shadowOffsetOuter1" result="shadowBlurOuter1"/><feColorMatrix values="0 0 0 0 0 0 0 0 0 0 0 0 0 0 0 0 0 0 0.21 0" in="shadowBlurOuter1" type="matrix" result="shadowMatrixOuter1"/><feMerge><feMergeNode in="shadowMatrixOuter1"/><feMergeNode in="SourceGraphic"/></feMerge></filter></defs><g stroke="none" stroke-width="1" fill="none" fill-rule="evenodd"><circle fill="#008BBA" filter="url(#a)" cx="24" cy="24" r="21"/><path d="M24.74 23.671A2.5 2.5 0 0 0 23.5 19a2.5 2.5 0 0 0-1.378 4.586l-8.945 18.327 1.438.688 2.738-5.567 14.469 4.078.939 1.811 1.416-.73L24.74 23.67zm3.284 10.114L18.3 36.6l13.064 3.629-3.34-6.444zm-.63-1.218l-6.607-2.513.048-.097 4.176-1.987 2.382 4.597zm-2.645-5.102l-3.458 1.564 2.078-4.225 1.38 2.66zm-4.215 3.104l7.079 2.708-9.815 2.853 2.736-5.561zM29.407 22c0-3.443-2.725-6.323-6.29-6.698l-.106.912c3.079.324 5.432 2.812 5.432 5.786h.964zm-6.378-8.938c4.895.342 8.711 4.236 8.711 8.938h.963c0-5.184-4.206-9.476-9.604-9.853l-.07.915zM36 22c0-6.921-5.685-12.623-12.91-13l-.052.916c6.714.35 11.999 5.65 11.999 12.084H36z" fill="#FFF"/></g></svg>