<svg width="48" height="48" viewBox="0 0 48 48" version="1.1" xmlns="http://www.w3.org/2000/svg" xmlns:xlink="http://www.w3.org/1999/xlink"><title>有道汉语词典</title><defs><rect id="b" x="5" y="5" width="38" height="38" rx="2"/><filter x="-50%" y="-50%" width="200%" height="200%" filterUnits="objectBoundingBox" id="a"><feOffset dx="0" dy="1" in="SourceAlpha" result="shadowOffsetOuter1"/><feGaussianBlur stdDeviation="1" in="shadowOffsetOuter1" result="shadowBlurOuter1"/><feColorMatrix values="0 0 0 0 0 0 0 0 0 0 0 0 0 0 0 0 0 0 0.2 0" type="matrix" in="shadowBlurOuter1"/></filter></defs><g stroke="none" stroke-width="1" fill="none" fill-rule="evenodd"><use fill="#000" fill-opacity="1" filter="url(#a)" xlink:href="#b"/><use fill="#DF4C2E" fill-rule="evenodd" xlink:href="#b"/><path d="M19.081 13.034h15.81s.704 5.86-4.918 15.168c2.108 1.724 1.405 1.724 7.027 5.17 0 0-1.405 1.38-1.757 3.103-.351 0-4.567-2.413-7.73-5.86 0 0-3.162 4.137-8.432 5.86-.351 0-.351-1.034-1.757-2.758 0 0 4.568-1.378 7.73-5.17-5.27-6.205-5.973-15.513-5.973-15.513zm4.216 2.758h8.081s0 5.17-3.864 9.997c-3.865-3.792-4.217-9.997-4.217-9.997zm-8.08 10.342l2.81 1.723s-1.405 4.826-4.568 8.274c-.702-.345-1.756-1.38-2.459-2.069 2.108-2.92 4.216-7.928 4.216-7.928zM11 20.618l1.405-2.413s3.514 2.068 4.92 3.447l-1.406 2.413L11 20.618zm4.216-3.102c1.553 0 2.811-1.235 2.811-2.758S16.769 12 15.217 12c-1.553 0-2.812 1.235-2.812 2.758s1.259 2.758 2.811 2.758z" fill="#FFF"/></g></svg>