<svg xmlns="http://www.w3.org/2000/svg" width="48" height="48" viewBox="0 0 48 48" version="1.1"><g stroke="none" stroke-opacity="1"><path d="M5.006 7.597c.027.027.058.06.086.086l2.336 10.434 10.52 8.953-4.858 5.727-.09-.09-1.52 1.52-.076-1.487.81-.818-.112-1.739-1.414-1.41-1.75-.11h-.002l-.801.802-.807.808h-.002l-.404.406.635 3.069 3.14 3.14a2.12 7.09 45 0 0-.986 1.178 2.12 7.09 45 0 0-.043.057 2.12 7.09 45 0 0-.33.438 2.12 7.09 45 0 0-.008.012 2.12 7.09 45 0 0-1.154 1.921 2.12 7.09 45 0 0-.004.01 2.12 7.09 45 0 0-.201.502 2.292 2.292 0 0 0-2.276.575 2.292 2.292 0 0 0 0 3.242 2.292 2.292 0 0 0 3.24 0 2.292 2.292 0 0 0 .586-2.244 2.12 7.09 45 0 0 .176-.062 2.12 7.09 45 0 0 .12-.05 2.12 7.09 45 0 0 .306-.132 2.12 7.09 45 0 0 .178-.088 2.12 7.09 45 0 0 .228-.117h.002a2.12 7.09 45 0 0 1.711-1.118 2.12 7.09 45 0 0 .053-.04 2.12 7.09 45 0 0 .346-.27 2.12 7.09 45 0 0 .293-.235 2.12 7.09 45 0 0 .716-.623l3.166 3.166 3.065.64.99-.991 1.045-1.02-.113-1.748-1.426-1.424-1.715-.1-.834.803-1.465-.098 1.498-1.5-.054-.055 6.205-5.28 6.191 5.267-.055.055 1.5 1.5-1.464.098-.836-.803-1.715.098-1.426 1.426-.113 1.746 1.045 1.02.99.992 3.064-.639 3.166-3.166a7.09 2.12 45 0 0 .733.635 7.09 2.12 45 0 0 .232.187 7.09 2.12 45 0 0 .426.332 7.09 2.12 45 0 0 .047.033 7.09 2.12 45 0 0 .486.352 7.09 2.12 45 0 0 1.416.855 7.09 2.12 45 0 0 .207.104 7.09 2.12 45 0 0 .256.111 7.09 2.12 45 0 0 .156.065 7.09 2.12 45 0 0 .172.06 2.292 2.292 0 0 0 .584 2.244 2.292 2.292 0 0 0 3.242 0 2.292 2.292 0 0 0 0-3.242 2.292 2.292 0 0 0-2.275-.574 7.09 2.12 45 0 0-1.36-2.432 7.09 2.12 45 0 0-.015-.019 7.09 2.12 45 0 0-.355-.473 7.09 2.12 45 0 0-.004 0 7.09 2.12 45 0 0-.994-1.189l3.14-3.14.637-3.069-.408-.408-.807-.809-.8-.8-1.753.11-1.412 1.413-.115 1.738.81.819-.076 1.486-1.52-1.52-.091.092-4.844-5.709 10.508-8.941L42.92 7.708l.086-.086-.07.016.002-.012-.114.037-10.443 2.407-8.371 9.865-8.381-9.88L5.188 7.649l-.114-.037.002.012-.07-.016z" opacity=".05" fill="#000" fill-opacity="1" stroke-width=".5" stroke-linecap="round" stroke-linejoin="round"/><path d="M5.006 7.087l.086.086 2.336 10.434 10.52 8.953-4.858 5.726-.09-.09-1.52 1.52-.076-1.487.81-.818-.112-1.738-1.414-1.41-1.75-.11h-.002l-.801.801-.807.809h-.002l-.404.406.635 3.068 3.14 3.14a2.12 7.09 45 0 0-.986 1.179 2.12 7.09 45 0 0-.043.057 2.12 7.09 45 0 0-.33.437 2.12 7.09 45 0 0-.008.012 2.12 7.09 45 0 0-1.154 1.922 2.12 7.09 45 0 0-.004.01 2.12 7.09 45 0 0-.201.502 2.292 2.292 0 0 0-2.276.574 2.292 2.292 0 0 0 0 3.242 2.292 2.292 0 0 0 3.24 0 2.292 2.292 0 0 0 .586-2.244 2.12 7.09 45 0 0 .176-.062 2.12 7.09 45 0 0 .12-.049 2.12 7.09 45 0 0 .306-.133 2.12 7.09 45 0 0 .178-.088 2.12 7.09 45 0 0 .228-.117h.002a2.12 7.09 45 0 0 1.711-1.117 2.12 7.09 45 0 0 .053-.041 2.12 7.09 45 0 0 .346-.27 2.12 7.09 45 0 0 .293-.234 2.12 7.09 45 0 0 .716-.623l3.166 3.166 3.065.639.99-.99 1.045-1.02-.113-1.748-1.426-1.424-1.715-.1-.834.803-1.465-.098 1.498-1.5-.054-.055 6.205-5.281 6.191 5.267-.055.055 1.5 1.5-1.464.098-.836-.803-1.715.098-1.426 1.426-.113 1.746 1.045 1.02.99.992 3.064-.639 3.166-3.166a7.09 2.12 45 0 0 .733.635 7.09 2.12 45 0 0 .232.188 7.09 2.12 45 0 0 .426.332 7.09 2.12 45 0 0 .047.033 7.09 2.12 45 0 0 .486.351 7.09 2.12 45 0 0 1.416.856 7.09 2.12 45 0 0 .207.103 7.09 2.12 45 0 0 .256.112 7.09 2.12 45 0 0 .156.065 7.09 2.12 45 0 0 .172.06 2.292 2.292 0 0 0 .584 2.244 2.292 2.292 0 0 0 3.242 0 2.292 2.292 0 0 0 0-3.242 2.292 2.292 0 0 0-2.275-.575 7.09 2.12 45 0 0-1.36-2.431 7.09 2.12 45 0 0-.015-.02 7.09 2.12 45 0 0-.355-.472 7.09 2.12 45 0 0-.004 0 7.09 2.12 45 0 0-.994-1.19l3.14-3.14.637-3.068-.408-.409-.807-.808-.8-.801-1.753.111-1.412 1.412-.115 1.739.81.818-.076 1.486-1.52-1.52-.091.093-4.844-5.71 10.508-8.94L42.92 7.197c.027-.027.058-.06.086-.086l-.07.016.002-.012-.114.037-10.443 2.406-8.371 9.865-8.381-9.879L5.188 7.137 5.074 7.1l.002.012-.07-.016z" opacity=".1" fill="#000" fill-opacity="1" stroke-width=".5" stroke-linecap="round" stroke-linejoin="round"/><path d="M5.006 6.577l.086.086 2.336 10.433 10.52 8.953-4.858 5.727-.09-.09-1.52 1.52-.076-1.487.81-.818-.112-1.739-1.414-1.41-1.75-.11h-.002l-.801.802-.807.808h-.002l-.404.406.635 3.069 3.14 3.14a2.12 7.09 45 0 0-.986 1.178 2.12 7.09 45 0 0-.043.057 2.12 7.09 45 0 0-.33.438 2.12 7.09 45 0 0-.008.012 2.12 7.09 45 0 0-1.154 1.922 2.12 7.09 45 0 0-.004.01 2.12 7.09 45 0 0-.201.501 2.292 2.292 0 0 0-2.276.575 2.292 2.292 0 0 0 0 3.242 2.292 2.292 0 0 0 3.24 0 2.292 2.292 0 0 0 .586-2.244 2.12 7.09 45 0 0 .176-.062 2.12 7.09 45 0 0 .12-.05 2.12 7.09 45 0 0 .306-.132 2.12 7.09 45 0 0 .178-.088 2.12 7.09 45 0 0 .228-.117h.002a2.12 7.09 45 0 0 1.711-1.118 2.12 7.09 45 0 0 .053-.04 2.12 7.09 45 0 0 .346-.27 2.12 7.09 45 0 0 .293-.234 2.12 7.09 45 0 0 .716-.624l3.166 3.166 3.065.64.99-.991 1.045-1.02-.113-1.748-1.426-1.423-1.715-.1-.834.802-1.465-.098 1.498-1.5-.054-.055 6.205-5.28 6.191 5.267-.055.055 1.5 1.5-1.464.098-.836-.803-1.715.098-1.426 1.426-.113 1.746 1.045 1.02.99.992 3.064-.639 3.166-3.166a7.09 2.12 45 0 0 .733.635 7.09 2.12 45 0 0 .232.187 7.09 2.12 45 0 0 .426.332 7.09 2.12 45 0 0 .047.033 7.09 2.12 45 0 0 .486.352 7.09 2.12 45 0 0 1.416.855 7.09 2.12 45 0 0 .207.104 7.09 2.12 45 0 0 .256.111 7.09 2.12 45 0 0 .156.065 7.09 2.12 45 0 0 .172.06 2.292 2.292 0 0 0 .584 2.244 2.292 2.292 0 0 0 3.242 0 2.292 2.292 0 0 0 0-3.242 2.292 2.292 0 0 0-2.275-.574 7.09 2.12 45 0 0-1.36-2.432 7.09 2.12 45 0 0-.015-.019 7.09 2.12 45 0 0-.355-.473 7.09 2.12 45 0 0-.004 0 7.09 2.12 45 0 0-.994-1.189l3.14-3.14.637-3.069-.408-.408-.807-.809-.8-.8-1.753.11-1.412 1.413-.115 1.738.81.819-.076 1.486-1.52-1.52-.091.092-4.844-5.709 10.508-8.941L42.92 6.687l.086-.086-.07.016.002-.012-.114.037L32.381 9.05l-8.371 9.865-8.381-9.88L5.188 6.628l-.114-.037.002.012-.07-.016z" opacity=".15" fill="#000" fill-opacity="1" stroke-width=".5" stroke-linecap="round" stroke-linejoin="round"/><g transform="rotate(-45 -1366.445 604.321) scale(1.1461)"><ellipse ry="6.186" rx="1.85" cy="1041.316" cx="22.982" opacity="1" fill="#dba05d" fill-opacity="1" stroke-width=".5" stroke-linecap="round" stroke-linejoin="round"/><path d="M19.072 1012.272l3.918-7.86 5.035 7.94-2.381 29.603-5.236.012z" opacity="1" fill="#d6d7d9" fill-opacity="1" stroke-width=".5" stroke-linecap="round" stroke-linejoin="round"/><g fill="#a05a2c" fill-rule="evenodd" stroke-width="1" stroke-linecap="butt" stroke-linejoin="miter"><path d="M24.828 1040.948l-3.613 2.184a1.85 6.186 0 0 0 .139 1.113l3.459-2.088a1.85 6.186 0 0 0 .02-.842 1.85 6.186 0 0 0-.005-.367zM24.744 1043.188l-3.217 1.946a1.85 6.186 0 0 0 .303 1.015l2.736-1.652a1.85 6.186 0 0 0 .178-1.309zM24.287 1045.696l-2.068 1.25a1.85 6.186 0 0 0 .764.557 1.85 6.186 0 0 0 1.304-1.807z"/></g><circle r="2" cy="1048.342" cx="22.965" opacity="1" fill="#bb891d" fill-opacity="1" stroke-width=".5" stroke-linecap="round" stroke-linejoin="round"/><path d="M23.03 1004.368l-5.044 8.065 2.422 29.535 2.637-.006c-.08-11.87-.025-25.575-.015-37.594z" opacity="1" fill="#a4a5aa" fill-opacity="1" stroke-width=".5" stroke-linecap="round" stroke-linejoin="round"/><path opacity="1" fill="#d4aa00" fill-opacity="1" stroke-width=".5" stroke-linecap="round" stroke-linejoin="round" d="M20 1038.362h6v3h-6z"/><path d="M23 1038.362v3h3v-3h-3z" opacity="1" fill="#f3d056" fill-opacity="1" stroke-width=".5" stroke-linecap="round" stroke-linejoin="round"/><path d="M26.878 1012.837l-1.603 25.025-1.548-.04.232-29.73s2.142 3.468 2.919 4.745z" opacity=".733" fill="#efefef" fill-opacity="1" stroke-width=".5" stroke-linecap="round" stroke-linejoin="round"/><path d="M16.145 1037.36l-1.15 1.012v1.987h.003v.502l2.286 1.502h11.427l2.284-1.497v-1.222l.015-1.274-1.147-1.007h-1.76l-1.118.998-.02 1.01-1.135.993-5.668.018-1.126-1.014-.004-1.006-1.143-1.002z" opacity="1" fill="#d4aa00" fill-opacity="1" stroke-width=".5" stroke-linecap="round" stroke-linejoin="round"/><path d="M16.145 1037.36l-1.149 1.012v1.986h.002v.502l2.285 1.502h5.703v-1.988l-2.824.008-1.125-1.014-.006-1.006-1.142-1.002h-1.744z" opacity="1" fill="#bb891d" fill-opacity="1" stroke-width=".5" stroke-linecap="round" stroke-linejoin="round"/><circle r="1.237" cy="1048.186" cx="23.384" opacity="1" fill="#d4aa00" fill-opacity="1" stroke-width=".5" stroke-linecap="round" stroke-linejoin="round"/></g><g transform="scale(-1.1461 1.1461) rotate(-45 -1213.23 577.767)"><ellipse cx="22.982" cy="1041.316" rx="1.85" ry="6.186" opacity="1" fill="#dba05d" fill-opacity="1" stroke-width=".5" stroke-linecap="round" stroke-linejoin="round"/><path d="M19.072 1012.272l3.918-7.86 5.035 7.94-2.381 29.603-5.236.012z" opacity="1" fill="#d6d7d9" fill-opacity="1" stroke-width=".5" stroke-linecap="round" stroke-linejoin="round"/><g fill="#a05a2c" fill-rule="evenodd" stroke-width="1" stroke-linecap="butt" stroke-linejoin="miter"><path d="M24.828 1040.948l-3.613 2.184a1.85 6.186 0 0 0 .139 1.113l3.459-2.088a1.85 6.186 0 0 0 .02-.842 1.85 6.186 0 0 0-.005-.367zM24.744 1043.188l-3.217 1.946a1.85 6.186 0 0 0 .303 1.015l2.736-1.652a1.85 6.186 0 0 0 .178-1.309zM24.287 1045.696l-2.068 1.25a1.85 6.186 0 0 0 .764.557 1.85 6.186 0 0 0 1.304-1.807z"/></g><circle cx="22.965" cy="1048.342" r="2" opacity="1" fill="#bb891d" fill-opacity="1" stroke-width=".5" stroke-linecap="round" stroke-linejoin="round"/><path d="M23.03 1004.368l-5.044 8.065 2.422 29.535 2.637-.006c-.08-11.87-.025-25.575-.015-37.594z" opacity="1" fill="#a4a5aa" fill-opacity="1" stroke-width=".5" stroke-linecap="round" stroke-linejoin="round"/><path opacity="1" fill="#d4aa00" fill-opacity="1" stroke-width=".5" stroke-linecap="round" stroke-linejoin="round" d="M20 1038.362h6v3h-6z"/><path d="M23 1038.362v3h3v-3h-3z" opacity="1" fill="#f3d056" fill-opacity="1" stroke-width=".5" stroke-linecap="round" stroke-linejoin="round"/><path d="M26.878 1012.837l-1.603 25.025-1.548-.04.232-29.73s2.142 3.468 2.919 4.745z" opacity=".733" fill="#eee" fill-opacity="1" stroke-width=".5" stroke-linecap="round" stroke-linejoin="round"/><path d="M16.145 1037.36l-1.15 1.012v1.987h.003v.502l2.286 1.502h11.427l2.284-1.497v-1.222l.015-1.274-1.147-1.007h-1.76l-1.118.998-.02 1.01-1.135.993-5.668.018-1.126-1.014-.004-1.006-1.143-1.002z" opacity="1" fill="#d4aa00" fill-opacity="1" stroke-width=".5" stroke-linecap="round" stroke-linejoin="round"/><path d="M16.145 1037.36l-1.149 1.012v1.986h.002v.502l2.285 1.502h5.703v-1.988l-2.824.008-1.125-1.014-.006-1.006-1.142-1.002h-1.744z" opacity="1" fill="#bb891d" fill-opacity="1" stroke-width=".5" stroke-linecap="round" stroke-linejoin="round"/><circle cx="23.384" cy="1048.186" r="1.237" opacity="1" fill="#d4aa00" fill-opacity="1" stroke-width=".5" stroke-linecap="round" stroke-linejoin="round"/></g></g></svg>