<svg xmlns="http://www.w3.org/2000/svg" width="48" height="48" viewBox="0 0 48 48" version="1.1"><g fill-opacity="1" stroke="none" stroke-opacity="1"><g transform="translate(.004 -1004.35)" stroke-linecap="round" stroke-linejoin="round"><g transform="translate(-38.113 -6.355)" fill="#000" stroke-width=".5"><rect ry="1" y="1017.223" x="42.598" height="38" width="39" opacity=".05"/><rect width="38" height="38" x="43.077" y="1016.718" ry="1" opacity=".1"/><rect ry="1" y="1016.22" x="43.077" height="38" width="38" opacity=".15"/></g><rect width="38" height="38" x="4.99" y="1009.341" ry="1" opacity="1" fill="#bc140b" stroke-width="1.5"/></g><path d="M22.87 15.425a12.136 12.136 0 0 0-1.475.012c-4.003.268-9.632 2.231-12.915 7.587-.44.488-.5 1.21-.148 1.766C11 28.98 14.887 31.71 19.17 32.49c4.195.765 9.432-.482 13.665-4.598l-1.76-2.347c-2.766 3.097-8.01 4.68-11.379 4.065-3.085-.562-5.958-2.462-8.179-5.47 2.975-4.18 7.229-5.59 10.073-5.782 3.058-.205 5.735 1.09 8.06 3.058 4.653 3.935 6.82 9.574 6.82 9.574.76 1.8 3.458.659 2.698-1.14 0 0-2.23-6.106-7.626-10.67-2.36-1.996-5.293-3.573-8.672-3.756zm15.518.032a1.465 1.465 0 0 0-1.307.953c-.31.8-1.446 2.79-2.053 3.966l1.968 2.514c.766-1.456 2.095-3.61 2.817-5.424a1.464 1.464 0 0 0-1.425-2.01z" style="line-height:normal;text-indent:0;text-align:start;text-decoration-line:none;text-decoration-style:solid;text-decoration-color:#000;text-transform:none;block-progression:tb;isolation:auto;mix-blend-mode:normal" color="#000" font-style="normal" font-variant="normal" font-weight="400" font-stretch="normal" font-size="medium" font-family="sans-serif" text-decoration="none" letter-spacing="normal" word-spacing="normal" direction="ltr" writing-mode="lr-tb" baseline-shift="baseline" text-anchor="start" white-space="normal" clip-rule="nonzero" display="inline" overflow="visible" visibility="visible" opacity="1" color-interpolation="sRGB" color-interpolation-filters="linearRGB" solid-color="#000" solid-opacity="1" fill="#fff" fill-rule="evenodd" stroke-width="3.054" stroke-linecap="round" stroke-linejoin="round" stroke-miterlimit="4" stroke-dashoffset="0" color-rendering="auto" image-rendering="auto" shape-rendering="auto" text-rendering="auto"/><text y="1030.201" x="16.167" style="line-height:125%" xml:space="preserve" font-style="normal" font-weight="400" font-size="4.427" font-family="sans-serif" letter-spacing="0" word-spacing="0" fill="#fff" stroke-width="1" stroke-linecap="butt" stroke-linejoin="miter" transform="translate(0 -1004.362)"><tspan y="1030.201" x="16.167">BIBLE</tspan></text><path d="M30.007 42.973c.816 0 9.088.02 11.992.027 0 0 1.006-.01 1.001-.996l-.008-12.002z" fill="#5e0912" fill-rule="evenodd" stroke-width="1" stroke-linecap="butt" stroke-linejoin="miter"/><text transform="rotate(-45 -1212.372 -502.181)" y="766.951" x="-713.45" style="line-height:125%" xml:space="preserve" font-style="normal" font-weight="400" font-size="4.886" font-family="sans-serif" letter-spacing="0" word-spacing="0" fill="#fff" stroke-width="1" stroke-linecap="butt" stroke-linejoin="miter"><tspan y="766.951" x="-713.45">HD</tspan></text></g></svg>