<svg width="48" height="48" viewBox="0 0 48 48" version="1.1" xmlns="http://www.w3.org/2000/svg"><title>Artboard 2</title><defs><filter x="-50%" y="-50%" width="200%" height="200%" filterUnits="objectBoundingBox" id="a"><feOffset dx="0" dy="1" in="SourceAlpha" result="shadowOffsetOuter1"/><feGaussianBlur stdDeviation=".5" in="shadowOffsetOuter1" result="shadowBlurOuter1"/><feColorMatrix values="0 0 0 0 0 0 0 0 0 0 0 0 0 0 0 0 0 0 0.209417459 0" in="shadowBlurOuter1" type="matrix" result="shadowMatrixOuter1"/><feMerge><feMergeNode in="shadowMatrixOuter1"/><feMergeNode in="SourceGraphic"/></feMerge></filter></defs><g stroke="none" stroke-width="1" fill="none" fill-rule="evenodd"><path d="M45 24c0 11.598-9.402 21-21 21S3 35.598 3 24 12.402 3 24 3s21 9.402 21 21" fill="#BD2020" filter="url(#a)"/><path d="M34.083 14.388l-5.145-.016 1.165-2.717-2.699-.972-1.637 3.689-1.053.016v2.654h6.699v2.67l-8.01.015v-5.34l-2.668-.015-.01 17.343h13.351l-.01-8.007-8 .01-.01 2.665 5.333-.01v2.676h-7.987v-6.652l10.665-.033.016-7.976zM14.997 20.134a2.335 2.335 0 1 0-.001-4.669 2.335 2.335 0 0 0 .001 4.67" fill="#FFF"/><path d="M26.283 37.93l1.497-3.587-9.683-1.287 1.238-5.331-2.296-.548 1.918-4.795-7.516-1.39-.05 3.204 3.393.868-1.696 4.006 2.29 1.266-1.32 4.094 12.225 3.5z" fill="#FFF"/></g></svg>