<svg width="48" height="48" viewBox="0 0 48 48" version="1.1" xmlns="http://www.w3.org/2000/svg"><title>Wind资讯HD</title><defs><filter x="-50%" y="-50%" width="200%" height="200%" filterUnits="objectBoundingBox" id="a"><feOffset dx="0" dy="1" in="SourceAlpha" result="shadowOffsetOuter1"/><feGaussianBlur stdDeviation=".5" in="shadowOffsetOuter1" result="shadowBlurOuter1"/><feColorMatrix values="0 0 0 0 0 0 0 0 0 0 0 0 0 0 0 0 0 0 0.21 0" in="shadowBlurOuter1" type="matrix" result="shadowMatrixOuter1"/><feMerge><feMergeNode in="shadowMatrixOuter1"/><feMergeNode in="SourceGraphic"/></feMerge></filter></defs><g stroke="none" stroke-width="1" fill="none" fill-rule="evenodd"><rect fill="#FD313D" filter="url(#a)" x="5" y="5" width="38" height="38" rx="1"/><path d="M11 17.783l2.065-2.066 3.718 2.479-1.653 9.087 6.61-6.61s3.717-2.89 4.13 0c0 2.892-.413 5.37-.413 5.37s0 1.653 2.89-1.652C31.24 21.087 38.675 12 38.675 12S31.5 25 27.934 28.522c0 0-3.934 5.478-4.956 1.239v-6.196s.826-2.891-2.478.826c-3.304 3.718-5.783 6.196-5.783 6.196s-2.478 1.652-2.478-1.652c0-3.305.826-9.087.826-9.087L11 17.783z" fill="#FFF"/><text font-family="Helvetica" font-size="7" font-weight="normal" fill="#FFF"><tspan x="30" y="38">HD</tspan></text></g></svg>