<svg width="48" height="48" viewBox="0 0 48 48" version="1.1" xmlns="http://www.w3.org/2000/svg"><title>天气通</title><defs><filter x="-50%" y="-50%" width="200%" height="200%" filterUnits="objectBoundingBox" id="a"><feOffset dx="0" dy="1" in="SourceAlpha" result="shadowOffsetOuter1"/><feGaussianBlur stdDeviation=".5" in="shadowOffsetOuter1" result="shadowBlurOuter1"/><feColorMatrix values="0 0 0 0 0 0 0 0 0 0 0 0 0 0 0 0 0 0 0.21 0" in="shadowBlurOuter1" type="matrix" result="shadowMatrixOuter1"/><feMerge><feMergeNode in="shadowMatrixOuter1"/><feMergeNode in="SourceGraphic"/></feMerge></filter></defs><g transform="translate(5 5)" stroke="none" stroke-width="1" fill="none" fill-rule="evenodd"><path d="M1 38a1 1 0 0 1-1-1V1a1 1 0 0 1 1-1h36a1 1 0 0 1 1 1v36a1 1 0 0 1-1 1H1z" fill="#1A8EFC" filter="url(#a)"/><path d="M18.348 27.476c-1.297-1.436-3.398-1.438-4.696 0l-1.332 1.476c-1.297 1.436-2.268 1.035-2.169-.899l.101-1.985c.1-1.933-1.386-3.42-3.32-3.32l-1.985.1c-1.933.1-2.336-.87-.899-2.168l1.476-1.332c1.436-1.297 1.438-3.398 0-4.696L4.048 13.32c-1.436-1.297-1.035-2.268.899-2.169l1.985.101c1.933.1 3.42-1.386 3.32-3.32l-.1-1.985c-.1-1.933.87-2.336 2.168-.899l1.332 1.476c1.297 1.436 3.398 1.438 4.696 0l1.332-1.476c1.297-1.436 2.268-1.035 2.169.899l-.101 1.985c-.1 1.933 1.386 3.42 3.32 3.32l1.985-.1c1.933-.1 2.336.87.899 2.168l-1.476 1.332c-1.436 1.297-1.438 3.398 0 4.696l1.476 1.332c1.436 1.297 1.035 2.268-.899 2.169l-1.985-.101c-1.933-.1-3.42 1.386-3.32 3.32l.1 1.985c.1 1.933-.87 2.336-2.168.899l-1.332-1.476zM16 25a8 8 0 1 0 0-16 8 8 0 0 0 0 16z" fill="#FFD000"/><circle fill="#FFD000" cx="16" cy="17" r="6"/><path d="M12 32.978a5.5 5.5 0 1 1 2.288-10.68 8.5 8.5 0 0 1 16.699 1.729A4.5 4.5 0 0 1 31 32.972V33H12v-.022z" fill="#FFF"/></g></svg>