<svg xmlns="http://www.w3.org/2000/svg" width="48" height="48" viewBox="0 0 48 48" version="1.1"><g transform="translate(0 -1004.362)" fill-opacity="1" stroke="none" stroke-width=".201" stroke-linecap="round" stroke-linejoin="round" stroke-miterlimit="4" stroke-opacity="1"><circle r="21" cy="1029.877" cx="24.035" opacity=".05" fill="#000"/><circle cx="24.035" cy="1029.359" r="21" opacity=".1" fill="#000"/><circle r="21" cy="1028.863" cx="24.035" opacity=".15" fill="#000"/><circle cx="24.035" cy="1028.368" r="21" opacity="1" fill="#97a600"/><path d="M25.766 1008.456a20.017 20.017 0 0 0-5.952.373l-12.995 13.074-2.32 2.255a19.997 19.997 0 0 0-.329 2.084l12.34-10.11c-.6 2.168-6.597 6.98-6.235 8.039l-5.353 10.138.067.221c3.06 9.424 12.557 15.188 22.329 13.55l2.071-11.443 13.88-13.6c-.067-.271-.14-.54-.218-.807a20 20 0 0 0-17.285-13.774z" opacity="1" fill="#de0f62"/><path d="M20.177 1008.792c-7.525 1.495-13.57 7.098-15.5 14.523-.22.733-.488 2.23-.558 2.982zm12.273 1.424c-8.497 17.114-7.157 31.097-7.704 38.15a20.036 20.036 0 0 0 3.21-.39l16.093-18.551c.337-6.546-2.664-14.844-11.599-19.21zm-12.032 2.777l-4.488 3.745-11.81 12.315a20 20 0 0 0 .843 5.17c6.427-12.763 15.455-21.23 15.455-21.23z" opacity="1" fill="#fe0"/></g></svg>