<svg xmlns="http://www.w3.org/2000/svg" width="48" height="48" viewBox="0 0 48 48" version="1.1"><g fill-opacity="1" stroke="none" stroke-width="1.5" stroke-linecap="round" stroke-linejoin="round" stroke-opacity="1" transform="translate(0 -1004.362)"><circle cx="24.031" cy="1029.345" r="21.5" opacity=".05" fill="#000"/><circle r="21" cy="1029.382" cx="24.017" opacity=".1" fill="#000"/><circle cx="24.017" cy="1028.871" r="21" opacity=".15" fill="#000"/><circle r="21" cy="1028.384" cx="24.017" opacity="1" fill="#000"/><path d="M45.017 1028.384a21 21 0 0 1-7.494 16.081l-13.506-16.08zM3 1028.362a21 21 0 0 1 7.494-16.08L24 1028.361z" opacity=".314" fill="#fff"/><path d="M32.871 1012.546a.72.72 0 0 0-.64.447l-.004-.002-.047.127v.002l-4.774 13.152a4 4 0 0 0-3.406-1.91 4 4 0 0 0-4 4 4 4 0 0 0 4 4 4 4 0 0 0 3.836-2.875l5.459-15.04a16.84 16.84 0 0 1 4.101 3.853c.602.8 1.801-.103 1.2-.903a18.336 18.336 0 0 0-5.295-4.742.75.75 0 0 0-.43-.11z" opacity="1" fill="#f5332e"/><path style="line-height:normal;text-indent:0;text-align:start;text-decoration-line:none;text-decoration-style:solid;text-decoration-color:#000;text-transform:none;block-progression:tb;isolation:auto;mix-blend-mode:normal" d="M22.377 1010.178c-8.47.743-15.549 7.356-16.559 16.129-1.154 10.025 6.051 19.105 16.077 20.26 10.025 1.154 19.105-6.053 20.26-16.079.44-3.826-.336-7.52-2.022-10.681-.47-.883-1.795-.178-1.324.705a16.704 16.704 0 0 1 1.855 9.806c-1.061 9.22-9.378 15.82-18.598 14.758-9.22-1.061-15.819-9.38-14.757-18.6 1.061-9.22 9.377-15.819 18.597-14.757a16.82 16.82 0 0 1 4.235 1.054c.93.366 1.48-1.03.548-1.396a18.318 18.318 0 0 0-4.61-1.148 18.344 18.344 0 0 0-3.702-.051z" color="#000" font-style="normal" font-variant="normal" font-weight="400" font-stretch="normal" font-size="medium" font-family="sans-serif" text-decoration="none" letter-spacing="normal" word-spacing="normal" direction="ltr" writing-mode="lr-tb" baseline-shift="baseline" text-anchor="start" white-space="normal" clip-rule="nonzero" display="inline" overflow="visible" visibility="visible" opacity="1" color-interpolation="sRGB" color-interpolation-filters="linearRGB" solid-color="#000" solid-opacity="1" fill="#fff" fill-rule="nonzero" stroke-miterlimit="4" stroke-dashoffset="0" color-rendering="auto" image-rendering="auto" shape-rendering="auto" text-rendering="auto"/></g></svg>