<svg xmlns="http://www.w3.org/2000/svg" width="48" height="48" viewBox="0 0 48 48" version="1.1"><g transform="translate(0 -1004.362)" fill-opacity="1" stroke-opacity="1"><path d="M31.984 1007.497c-10.306-.09-8.746 8.44-8.746 8.44s3.402 1.906 7.233.06c2.615-1.337 2.891-3.73 6.695-7.882-1.996-.415-3.71-.604-5.182-.617zm-9.964 3.833l-2.979.034s2.047 2.25 2.914 7.981c.511-2.892.249-7.496.065-8.016zm6.99 6.564a6.922 6.922 0 0 0-2.424.504c-4.13 1.682-5.924 1.522-8.297.65s-10.633-2.212-12.84 7.998c-1.956 9.05 1.742 14.935 3.367 17.332 1.15 1.695 4.926 7.383 13.006 5.657 3.862-.825 5.099 2.063 9.637-.592 4.538-2.655 8.881-8.806 9.428-17.508.478-7.614-6.065-14.21-11.877-14.041z" opacity=".05" fill="#000" fill-rule="evenodd" stroke="none" stroke-width="1" stroke-linecap="butt" stroke-linejoin="miter"/><path d="M31.984 1007.02c-10.306-.091-8.746 8.44-8.746 8.44s3.402 1.906 7.233.06c2.615-1.338 2.891-3.731 6.695-7.882-1.996-.415-3.71-.605-5.182-.618zm-9.964 3.832l-2.979.035s2.047 2.25 2.914 7.98c.511-2.892.249-7.496.065-8.015zm6.99 6.564a6.922 6.922 0 0 0-2.424.504c-4.13 1.683-5.924 1.523-8.297.65-2.373-.872-10.633-2.21-12.84 7.999-1.956 9.05 1.742 14.934 3.367 17.332 1.15 1.695 4.926 7.382 13.006 5.656 3.862-.825 5.099 2.063 9.637-.592 4.538-2.655 8.881-8.806 9.428-17.507.478-7.615-6.065-14.21-11.877-14.042z" opacity=".1" fill="#000" fill-rule="evenodd" stroke="none" stroke-width="1" stroke-linecap="butt" stroke-linejoin="miter"/><path d="M31.984 1006.594c-10.306-.09-8.746 8.44-8.746 8.44s3.402 1.906 7.233.06c2.615-1.337 2.891-3.73 6.695-7.882-1.996-.415-3.71-.604-5.182-.617zm-9.964 3.832l-2.979.035s2.047 2.25 2.914 7.98c.511-2.892.249-7.496.065-8.015zm6.99 6.565a6.922 6.922 0 0 0-2.424.504c-4.13 1.682-5.924 1.522-8.297.65s-10.633-2.212-12.84 7.998c-1.956 9.05 1.742 14.935 3.367 17.332 1.15 1.695 4.926 7.382 13.006 5.656 3.862-.825 5.099 2.064 9.637-.592 4.538-2.654 8.881-8.805 9.428-17.507.478-7.614-6.065-14.21-11.877-14.041z" opacity=".15" fill="#000" fill-rule="evenodd" stroke="none" stroke-width="1" stroke-linecap="butt" stroke-linejoin="miter"/><path d="M18.29 1017.745c2.372.872 4.166 1.031 8.296-.65 6.224-2.537 14.846 4.836 14.3 13.537-.546 8.702-4.889 14.853-9.427 17.508-4.538 2.655-5.775-.233-9.637.592-8.08 1.726-11.857-3.961-13.006-5.656-1.626-2.398-5.323-8.282-3.367-17.332 2.207-10.21 10.467-8.872 12.84-8z" fill="#1b80f2" fill-rule="evenodd" stroke="none" stroke-width="1" stroke-linecap="butt" stroke-linejoin="miter"/><path d="M19.04 1010.061l2.98-.035c.184.52.447 5.124-.064 8.016-.867-5.731-2.915-7.98-2.915-7.98z" fill="#1b80f2" fill-rule="evenodd" stroke="none" stroke-width=".932" stroke-linecap="round" stroke-linejoin="round" stroke-miterlimit="4"/><path d="M23.239 1014.634s-2.04-11.142 13.928-7.823c-3.804 4.151-4.081 6.545-6.696 7.883-3.831 1.846-7.232-.06-7.232-.06z" fill="#1b80f2" fill-rule="evenodd" stroke="none" stroke-width="1" stroke-linecap="butt" stroke-linejoin="miter"/><g fill="#fff" stroke="none" stroke-width=".932" stroke-linecap="round" stroke-linejoin="round" stroke-miterlimit="4"><rect ry="0" y="1020.359" x="21.994" height="3.009" width="1" opacity="1"/><rect width="1" height="2.993" x="22.016" y="1044.368" ry="0" opacity="1"/><g transform="rotate(90 22.505 1033.86)"><rect width="1" height="3.009" x="21.994" y="1020.359" ry="0" opacity="1"/><rect ry="0" y="1044.368" x="22.016" height="2.993" width="1" opacity="1"/></g><g transform="rotate(30 22.505 1033.86)"><rect ry="0" y="1020.359" x="21.994" height="3.009" width="1" opacity="1"/><rect width="1" height="2.993" x="22.016" y="1044.368" ry="0" opacity="1"/></g><g transform="rotate(60 22.505 1033.86)"><rect width="1" height="3.009" x="21.994" y="1020.359" ry="0" opacity="1"/><rect ry="0" y="1044.368" x="22.016" height="2.993" width="1" opacity="1"/></g><g transform="rotate(120 22.505 1033.86)"><rect ry="0" y="1020.359" x="21.994" height="3.009" width="1" opacity="1"/><rect width="1" height="2.993" x="22.016" y="1044.368" ry="0" opacity="1"/></g><g transform="rotate(150 22.505 1033.86)"><rect width="1" height="3.009" x="21.994" y="1020.359" ry="0" opacity="1"/><rect ry="0" y="1044.368" x="22.016" height="2.993" width="1" opacity="1"/></g></g><circle cx="22.551" cy="1033.873" r="1" opacity="1" fill="#fff" stroke="none" stroke-width=".932" stroke-linecap="round" stroke-linejoin="round" stroke-miterlimit="4"/><rect width="1.016" height="11.705" x="695.956" y="753.311" ry=".508" transform="rotate(41.09)" opacity="1" fill="none" stroke="#fff" stroke-width=".25" stroke-linecap="round" stroke-linejoin="round" stroke-miterlimit="4"/><rect width=".997" height="9.001" x="770.719" y="-697.456" ry=".499" transform="rotate(130.529)" opacity="1" fill="none" stroke="#fff" stroke-width=".25" stroke-linecap="round" stroke-linejoin="round" stroke-miterlimit="4"/><rect width=".434" height="12.054" x="905.493" y="498.949" ry="0" transform="rotate(59.901)" opacity="1" fill="#fff" stroke="none" stroke-width=".932" stroke-linecap="round" stroke-linejoin="round" stroke-miterlimit="4"/><path d="M26.217 1029.558c.266.243.313.476.215.588l-3.726 4.274c-.099.112-.516-.005-.629-.103-.112-.099-.312-.427-.214-.54l3.726-4.273c.098-.112.41-.146.628.054z" opacity="1" fill="#fff" stroke="#fff" stroke-width=".053" stroke-linecap="round" stroke-linejoin="round" stroke-miterlimit="4"/><path d="M25.905 1036.784c-.202.223-.396.264-.49.183l-3.592-3.088c-.095-.082 0-.431.082-.526.081-.094.354-.263.449-.182l3.592 3.088c.094.082.125.342-.041.525z" opacity="1" fill="#fff" stroke="#fff" stroke-width=".044" stroke-linecap="round" stroke-linejoin="round" stroke-miterlimit="4"/><g fill="#fff" color="#000" font-style="normal" font-variant="normal" font-weight="400" font-stretch="normal" font-size="medium" font-family="sans-serif" letter-spacing="normal" word-spacing="normal" direction="ltr" writing-mode="lr-tb" text-anchor="start" white-space="normal" clip-rule="nonzero" visibility="visible" color-interpolation="sRGB" color-interpolation-filters="linearRGB" fill-rule="evenodd" stroke="none" stroke-width="1" stroke-linecap="butt" stroke-linejoin="miter" stroke-miterlimit="4" stroke-dashoffset="0" color-rendering="auto" image-rendering="auto" shape-rendering="auto" text-rendering="auto"><path d="M24.344 1020.49l-.325-.041-.127 1.01.325.04.127-1.01zM21.073 1046.261l-.325-.041-.127 1.01.325.04.127-1.01zM25.527 1020.709l-.32-.07-.216.994.32.07.216-.994zM19.974 1046.086l-.32-.07-.216.994.32.07.216-.994zM26.654 1021.022l-.313-.098-.302.972.313.097.302-.972zM18.925 1045.823l-.312-.097-.302.972.313.097.301-.972z" style="line-height:normal;text-indent:0;text-align:start;text-decoration-line:none;text-decoration-style:solid;text-decoration-color:#000;text-transform:none;block-progression:tb;isolation:auto;mix-blend-mode:normal" text-decoration="none" baseline-shift="baseline" display="inline" overflow="visible" opacity="1" solid-color="#000" solid-opacity="1"/><g><path style="line-height:normal;text-indent:0;text-align:start;text-decoration-line:none;text-decoration-style:solid;text-decoration-color:#000;text-transform:none;block-progression:tb;isolation:auto;mix-blend-mode:normal" d="M27.75 1021.43l-.303-.123-.385.942.303.124.384-.942zM17.903 1045.47l-.303-.124-.385.942.304.125.384-.943z" text-decoration="none" baseline-shift="baseline" display="inline" overflow="visible" opacity="1" solid-color="#000" solid-opacity="1"/></g><g><path style="line-height:normal;text-indent:0;text-align:start;text-decoration-line:none;text-decoration-style:solid;text-decoration-color:#000;text-transform:none;block-progression:tb;isolation:auto;mix-blend-mode:normal" d="M30.807 1023.233l-.26-.198-.618.809.261.199.617-.81zM15.035 1043.876l-.26-.199-.617.81.26.198.617-.81zM31.72 1024.017l-.241-.221-.687.75.242.222.686-.751zM14.173 1043.172l-.242-.22-.686.75.241.222.687-.752z" text-decoration="none" baseline-shift="baseline" display="inline" overflow="visible" opacity="1" solid-color="#000" solid-opacity="1"/><g><path style="line-height:normal;text-indent:0;text-align:start;text-decoration-line:none;text-decoration-style:solid;text-decoration-color:#000;text-transform:none;block-progression:tb;isolation:auto;mix-blend-mode:normal" d="M32.537 1024.853l-.221-.24-.75.688.222.241.75-.689zM13.398 1042.418l-.221-.24-.75.688.222.242.75-.69z" text-decoration="none" baseline-shift="baseline" display="inline" overflow="visible" opacity="1" solid-color="#000" solid-opacity="1"/></g><g><path d="M33.28 1025.757l-.2-.259-.806.621.2.26.805-.622zM12.691 1041.6l-.2-.26-.805.622.2.26.805-.622z" style="line-height:normal;text-indent:0;text-align:start;text-decoration-line:none;text-decoration-style:solid;text-decoration-color:#000;text-transform:none;block-progression:tb;isolation:auto;mix-blend-mode:normal" text-decoration="none" baseline-shift="baseline" display="inline" overflow="visible" opacity="1" solid-color="#000" solid-opacity="1"/></g></g><g><path d="M35.046 1028.923l-.123-.303-.943.384.124.304.942-.385zM10.984 1038.715l-.123-.303-.942.384.123.304.943-.385zM35.436 1030.062l-.096-.313-.973.299.096.313.973-.3zM10.598 1037.672l-.096-.313-.973.299.096.313.973-.3z" style="line-height:normal;text-indent:0;text-align:start;text-decoration-line:none;text-decoration-style:solid;text-decoration-color:#000;text-transform:none;block-progression:tb;isolation:auto;mix-blend-mode:normal" text-decoration="none" baseline-shift="baseline" display="inline" overflow="visible" opacity="1" solid-color="#000" solid-opacity="1"/><g><path d="M35.716 1031.197l-.068-.32-.995.213.068.32.995-.213zM10.312 1036.629l-.068-.32-.995.213.069.321.995-.214z" style="line-height:normal;text-indent:0;text-align:start;text-decoration-line:none;text-decoration-style:solid;text-decoration-color:#000;text-transform:none;block-progression:tb;isolation:auto;mix-blend-mode:normal" text-decoration="none" baseline-shift="baseline" display="inline" overflow="visible" opacity="1" solid-color="#000" solid-opacity="1"/></g><g><path style="line-height:normal;text-indent:0;text-align:start;text-decoration-line:none;text-decoration-style:solid;text-decoration-color:#000;text-transform:none;block-progression:tb;isolation:auto;mix-blend-mode:normal" d="M35.897 1032.352l-.04-.324-1.01.126.04.325 1.01-.127zM10.118 1035.565l-.04-.325-1.01.127.04.325 1.01-.127z" text-decoration="none" baseline-shift="baseline" display="inline" overflow="visible" opacity="1" solid-color="#000" solid-opacity="1"/></g></g><g><path style="line-height:normal;text-indent:0;text-align:start;text-decoration-line:none;text-decoration-style:solid;text-decoration-color:#000;text-transform:none;block-progression:tb;isolation:auto;mix-blend-mode:normal" d="M35.85 1035.733l.042-.324-1.01-.129-.04.326 1.009.127zM10.083 1032.439l.041-.325-1.01-.128-.041.325 1.01.128zM35.63 1036.917l.07-.32-.993-.218-.07.32.994.218zM10.258 1031.34l.07-.32-.993-.217-.07.32.994.217z" text-decoration="none" baseline-shift="baseline" display="inline" overflow="visible" opacity="1" solid-color="#000" solid-opacity="1"/><g><path style="line-height:normal;text-indent:0;text-align:start;text-decoration-line:none;text-decoration-style:solid;text-decoration-color:#000;text-transform:none;block-progression:tb;isolation:auto;mix-blend-mode:normal" d="M35.317 1038.043l.097-.313-.971-.302-.098.312.972.303zM10.522 1030.292l.098-.313-.972-.303-.097.313.971.303z" text-decoration="none" baseline-shift="baseline" display="inline" overflow="visible" opacity="1" solid-color="#000" solid-opacity="1"/></g><g><path d="M34.907 1039.138l.124-.303-.942-.385-.124.303.942.385zM10.876 1029.27l.124-.303-.941-.386-.125.303.942.386z" style="line-height:normal;text-indent:0;text-align:start;text-decoration-line:none;text-decoration-style:solid;text-decoration-color:#000;text-transform:none;block-progression:tb;isolation:auto;mix-blend-mode:normal" text-decoration="none" baseline-shift="baseline" display="inline" overflow="visible" opacity="1" solid-color="#000" solid-opacity="1"/></g></g><g><path d="M33.106 1042.188l.199-.26-.81-.617-.198.26.809.617zM12.47 1026.409l.198-.26-.809-.618-.199.26.81.618zM32.322 1043.101l.22-.24-.75-.688-.221.242.75.686zM13.173 1025.546l.221-.24-.75-.688-.222.242.751.686z" style="line-height:normal;text-indent:0;text-align:start;text-decoration-line:none;text-decoration-style:solid;text-decoration-color:#000;text-transform:none;block-progression:tb;isolation:auto;mix-blend-mode:normal" text-decoration="none" baseline-shift="baseline" display="inline" overflow="visible" opacity="1" solid-color="#000" solid-opacity="1"/><g><path d="M31.485 1043.918l.241-.221-.688-.75-.242.222.69.75zM13.927 1024.772l.241-.221-.688-.75-.241.222.688.75z" style="line-height:normal;text-indent:0;text-align:start;text-decoration-line:none;text-decoration-style:solid;text-decoration-color:#000;text-transform:none;block-progression:tb;isolation:auto;mix-blend-mode:normal" text-decoration="none" baseline-shift="baseline" display="inline" overflow="visible" opacity="1" solid-color="#000" solid-opacity="1"/></g><g><path style="line-height:normal;text-indent:0;text-align:start;text-decoration-line:none;text-decoration-style:solid;text-decoration-color:#000;text-transform:none;block-progression:tb;isolation:auto;mix-blend-mode:normal" d="M30.58 1044.66l.26-.2-.62-.806-.26.2.62.806zM14.746 1024.065l.26-.199-.621-.806-.26.2.621.806z" text-decoration="none" baseline-shift="baseline" display="inline" overflow="visible" opacity="1" solid-color="#000" solid-opacity="1"/></g></g><g><path style="line-height:normal;text-indent:0;text-align:start;text-decoration-line:none;text-decoration-style:solid;text-decoration-color:#000;text-transform:none;block-progression:tb;isolation:auto;mix-blend-mode:normal" d="M27.604 1046.35l.302-.129-.399-.936-.301.128.398.936zM17.458 1022.435l.301-.128-.398-.937-.302.128.399.937zM26.472 1046.756l.31-.1-.312-.969-.312.1.314.969zM18.496 1022.033l.31-.1-.312-.97-.312.102.314.968z" text-decoration="none" baseline-shift="baseline" display="inline" overflow="visible" opacity="1" solid-color="#000" solid-opacity="1"/><g><path style="line-height:normal;text-indent:0;text-align:start;text-decoration-line:none;text-decoration-style:solid;text-decoration-color:#000;text-transform:none;block-progression:tb;isolation:auto;mix-blend-mode:normal" d="M25.34 1047.053l.32-.074-.229-.991-.32.073.23.992zM19.534 1021.732l.319-.073-.228-.992-.32.073.229.992z" text-decoration="none" baseline-shift="baseline" display="inline" overflow="visible" opacity="1" solid-color="#000" solid-opacity="1"/></g><g><path d="M24.188 1047.25l.324-.045-.142-1.008-.324.046.142 1.008zM20.595 1021.522l.324-.045-.142-1.008-.324.046.142 1.007z" style="line-height:normal;text-indent:0;text-align:start;text-decoration-line:none;text-decoration-style:solid;text-decoration-color:#000;text-transform:none;block-progression:tb;isolation:auto;mix-blend-mode:normal" text-decoration="none" baseline-shift="baseline" display="inline" overflow="visible" opacity="1" solid-color="#000" solid-opacity="1"/></g></g></g></g></svg>