<svg width="48" height="48" viewBox="0 0 48 48" version="1.1" xmlns="http://www.w3.org/2000/svg"><title>Artboard 1</title><defs><filter x="-50%" y="-50%" width="200%" height="200%" filterUnits="objectBoundingBox" id="a"><feOffset dx="0" dy="1" in="SourceAlpha" result="shadowOffsetOuter1"/><feGaussianBlur stdDeviation=".5" in="shadowOffsetOuter1" result="shadowBlurOuter1"/><feColorMatrix values="0 0 0 0 0 0 0 0 0 0 0 0 0 0 0 0 0 0 0.21 0" in="shadowBlurOuter1" type="matrix" result="shadowMatrixOuter1"/><feMerge><feMergeNode in="shadowMatrixOuter1"/><feMergeNode in="SourceGraphic"/></feMerge></filter></defs><g stroke="none" stroke-width="1" fill="none" fill-rule="evenodd"><path d="M42 43H6a1 1 0 0 1-1-1V6a1 1 0 0 1 1-1h36a1 1 0 0 1 1 1v36a1 1 0 0 1-1 1" fill="#019CF0" filter="url(#a)"/><path d="M23.031 10.04c-1.529-.227-2.885.544-3.566 1.748-1.94 2.419-3.79 3.464-5.009 3.9a2.22 2.22 0 0 0-1.456 2.1c0 1.215.984 2.198 2.197 2.198h3.769c.019 0 .034.016.034.034v14.252c0 1.913 1.431 3.64 3.341 3.725A3.501 3.501 0 0 0 26 34.5V13.666c0-1.761-1.227-3.368-2.969-3.626M29 34a4 4 0 1 0 8 0 4 4 0 0 0-8 0z" fill="#FFF"/></g></svg>