<!DOCTYPE svg PUBLIC "-//W3C//DTD SVG 1.1//EN" "http://www.w3.org/Graphics/SVG/1.1/DTD/svg11.dtd" [
	<!ENTITY ns_extend "http://ns.adobe.com/Extensibility/1.0/">
	<!ENTITY ns_ai "http://ns.adobe.com/AdobeIllustrator/10.0/">
	<!ENTITY ns_graphs "http://ns.adobe.com/Graphs/1.0/">
	<!ENTITY ns_vars "http://ns.adobe.com/Variables/1.0/">
	<!ENTITY ns_imrep "http://ns.adobe.com/ImageReplacement/1.0/">
	<!ENTITY ns_sfw "http://ns.adobe.com/SaveForWeb/1.0/">
	<!ENTITY ns_custom "http://ns.adobe.com/GenericCustomNamespace/1.0/">
	<!ENTITY ns_adobe_xpath "http://ns.adobe.com/XPath/1.0/">
]><svg version="1.1" xmlns="http://www.w3.org/2000/svg" x="0" y="0" viewBox="0 0 48 48" xml:space="preserve"><path fill="#558ECF" d="M44.8 5.859s-9.851.82-9.409 18.789c0 0-1.424 11.963 9.925 11.568 0 0-8.817-5.725-2.713-16.405 0 0 1.421-2.005.247-7.199.002-.001-.08-4.055 1.95-6.753z"/><linearGradient id="a" gradientUnits="userSpaceOnUse" x1="40.573" y1="5.859" x2="40.573" y2="28.317"><stop offset="0" stop-color="#fff"/><stop offset="1" stop-color="#fff" stop-opacity=".176"/></linearGradient><path fill="url(#a)" fill-opacity=".472" d="M44.8 5.859s-7.837 7.276-6.118 22.458l-2.336-3.332S36.151 9.612 44.8 5.859z"/><ellipse fill="#E9FAFA" cx="11.049" cy="20.373" rx="7.732" ry="10.223"/><path fill="#5892D2" d="M12.049 17.15c2.391 0 4.636.466 6.589 1.279-.687-4.715-3.822-8.279-7.589-8.279-4.05 0-7.367 4.119-7.699 9.36 2.359-1.473 5.391-2.36 8.699-2.36z"/><circle fill="#231815" cx="6.005" cy="20.888" r="1.747"/><path fill="#2562B2" d="M40.021 26.785c0 6.2-10.453 18.209-19.342 18.209S4.371 36.903 4.371 26.914 11.464 8.829 20.354 8.829s19.667 13.39 19.667 17.956z"/><ellipse fill="#5090D8" cx="23.719" cy="23.893" rx="7.395" ry="7.127"/><linearGradient id="b" gradientUnits="userSpaceOnUse" x1="23.719" y1="15.422" x2="23.719" y2="29.788"><stop offset="0" stop-color="#fff"/><stop offset="1" stop-color="#fff" stop-opacity=".176"/></linearGradient><ellipse fill="url(#b)" cx="23.719" cy="22.605" rx="6.693" ry="7.183"/><ellipse fill="#E9FAFA" cx="23.719" cy="18.669" rx="6.405" ry="9.648"/><path fill="#5892D2" d="M23.714 17.713c2.731 0 5.11 1.018 6.392 2.529.542-6.816-2.971-11.221-6.387-11.221-3.413 0-6.95 4.363-6.387 11.209 1.285-1.504 3.658-2.517 6.382-2.517z"/><circle fill="#231815" cx="27.177" cy="21.145" r="1.877"/><circle fill="#FFF" cx="27.973" cy="20.737" r=".644"/><path fill="#5090D8" d="M5.402 32.986s5.327 5.769 16.735 1.037c0 0 1.882-.92 2.478-.77 0 0-1.082 8.103-13.093 8.586 0 0-6.224.002-6.805-5.26.001 0-1.71-2.196.685-3.593z"/><path fill="#60A0E6" d="M5.402 32.986s5.327 5.769 16.735 1.037c0 0 1.882-.92 2.478-.77 0 0-2.991 4.689-9.716 5.653-3.001.43-7.885-.182-10.182-2.327.001 0-1.71-2.196.685-3.593z"/></svg>