<svg width="48" height="48" viewBox="0 0 48 48" version="1.1" xmlns="http://www.w3.org/2000/svg" xmlns:xlink="http://www.w3.org/1999/xlink"><title>bookworm</title><defs><path d="M32 20.5v18.7a1.8 1.8 0 0 1-1.8 1.8H1.8A1.8 1.8 0 0 1 0 39.2V20.5v17.789a1.8 1.8 0 0 0 1.8 1.8h28.4a1.8 1.8 0 0 0 1.8-1.8V20.5zM1.8 0h28.4A1.8 1.8 0 0 1 32 1.8v36.4a1.8 1.8 0 0 1-1.8 1.8H1.8A1.8 1.8 0 0 1 0 38.2V1.8A1.8 1.8 0 0 1 1.8 0z" id="a"/><filter x="-10.9%" y="-6.1%" width="121.9%" height="117.1%" filterUnits="objectBoundingBox" id="b"><feOffset dx="0" dy="1" in="SourceAlpha" result="shadowOffsetOuter1"/><feGaussianBlur stdDeviation="1" in="shadowOffsetOuter1" result="shadowBlurOuter1"/><feComposite in="shadowBlurOuter1" in2="SourceAlpha" operator="out" result="shadowBlurOuter1"/><feColorMatrix values="0 0 0 0 0 0 0 0 0 0 0 0 0 0 0 0 0 0 0.2 0" type="matrix" in="shadowBlurOuter1"/></filter><path d="M32 20.5v18.7a1.8 1.8 0 0 1-1.8 1.8H1.8A1.8 1.8 0 0 1 0 39.2V20.5v17.789a1.8 1.8 0 0 0 1.8 1.8h28.4a1.8 1.8 0 0 0 1.8-1.8V20.5z" id="c"/><linearGradient x1="50%" y1="0%" x2="50%" y2="100%" id="e"><stop stop-color="#D224F3" offset="0%"/><stop stop-color="#AA008E" offset="100%"/></linearGradient><path d="M1.8 0h28.4A1.8 1.8 0 0 1 32 1.8v36.4a1.8 1.8 0 0 1-1.8 1.8H1.8A1.8 1.8 0 0 1 0 38.2V1.8A1.8 1.8 0 0 1 1.8 0z" id="d"/><path d="M3.9 0H1.8A1.8 1.8 0 0 0 0 1.8v36.4A1.8 1.8 0 0 0 1.8 40H6V0H3.9z" id="f"/><path d="M7 0h1v40H7V0z" id="g"/></defs><g stroke="none" stroke-width="1" fill="none" fill-rule="evenodd"><g transform="translate(9 4)"><g fill="#000"><use fill-opacity="1" filter="url(#b)" xlink:href="#a"/><use fill-opacity=".1" fill-rule="evenodd" xlink:href="#a"/></g><use fill="#FFF" xlink:href="#c"/><use fill="url(#e)" xlink:href="#d"/><use fill="#333" xlink:href="#f"/><use fill="#921095" xlink:href="#g"/></g><path fill="#B12A88" d="M19 15h19v6H19z"/><path fill="#FFF" d="M20 16h17v4H20z"/></g></svg>