<svg width="48" height="48" version="1" xmlns="http://www.w3.org/2000/svg"><defs><filter id="a" color-interpolation-filters="sRGB"><feFlood flood-color="#000" flood-opacity=".196" result="flood"/><feComposite in="flood" in2="SourceGraphic" operator="in" result="composite1"/><feGaussianBlur in="composite1" result="blur" stdDeviation="1"/><feOffset dx="0" dy="1" result="offset"/><feComposite in="SourceGraphic" in2="offset" result="composite2"/></filter></defs><g filter="url(#a)"><path d="M24 5C12.92 5 4 13.92 4 25s8.92 20 20 20 20-8.92 20-20S35.08 5 24 5z" opacity=".2"/><path d="M24 4C12.92 4 4 12.92 4 24s8.92 20 20 20 20-8.92 20-20S35.08 4 24 4z" fill="#e4e4e4"/><path d="M24 4C12.92 4 4 12.92 4 24c0 .168.008.333.012.5C4.276 13.654 13.088 5 24 5s19.724 8.654 19.988 19.5c.004-.167.011-.332.011-.5 0-11.08-8.92-20-20-20z" fill="#fff" opacity=".2"/><rect x="12" y="14" width="6" height="6" rx="2" ry="2" opacity=".1"/><rect x="21" y="14" width="6" height="6" rx="2" ry="2" opacity=".1"/><rect x="30" y="14" width="6" height="6" rx="2" ry="2" opacity=".1"/><rect x="12" y="22" width="6" height="6" rx="2" ry="2" opacity=".1"/><rect x="21" y="22" width="6" height="6" rx="2" ry="2" opacity=".1"/><rect x="30" y="22" width="6" height="6" rx="2" ry="2" opacity=".1"/><rect x="12" y="30" width="6" height="6" rx="2" ry="2" opacity=".1"/><rect x="21" y="30" width="6" height="6" rx="2" ry="2" opacity=".1"/><rect x="30" y="30" width="6" height="6" rx="2" ry="2" opacity=".1"/><rect x="12" y="13" width="6" height="6" rx="2" ry="2" fill="#eb6253"/><rect x="21" y="13" width="6" height="6" rx="2" ry="2" fill="#2181dd"/><rect x="30" y="13" width="6" height="6" rx="2" ry="2" fill="#2181dd"/><rect x="12" y="21" width="6" height="6" rx="2" ry="2" fill="#4d9133"/><rect x="21" y="21" width="6" height="6" rx="2" ry="2" fill="#eb6253"/><rect x="30" y="21" width="6" height="6" rx="2" ry="2" fill="#2181dd"/><rect x="12" y="29" width="6" height="6" rx="2" ry="2" fill="#4d9133"/><rect x="21" y="29" width="6" height="6" rx="2" ry="2" fill="#4d9133"/><rect x="30" y="29" width="6" height="6" rx="2" ry="2" fill="#eb6253"/></g></svg>