<svg version="1.1" xmlns="http://www.w3.org/2000/svg" x="0" y="0" viewBox="0 0 48 48" xml:space="preserve"><path fill="#FFCE00" d="M4 22.463l11.034-4.582 13.104 3.7-.69 14.689-10.345 5.966L4 36.96z"/><path fill="#DCA900" d="M4 22.463l13.103 4.478v15.295L4 36.96z"/><path fill="#A67300" d="M28.138 21.773l-11.035 5.168v15.295l11.035-5.966z"/><g><path fill="#78E94F" d="M20.552 25.719l11.034-4.389L44 24.532v14.497l-10.345 5.966-13.103-4.587z"/><path fill="#29AC13" d="M20.552 25.911l13.103 3.788v15.296l-13.103-4.587z"/><path fill="#007200" d="M44 24.532l-10.345 5.167v15.296L44 39.029z"/></g><g><path fill="#58A4EA" d="M11.586 8.893l10.485-4.115L35.352 7.98v14.497l-10.485 5.276-13.281-4.683z"/><path fill="#0080E6" d="M11.586 8.893l13.281 3.565v15.295L11.586 23.07z"/><path fill="#003CA2" d="M35.352 7.98l-10.485 4.478v15.295l10.485-5.276z"/></g></svg>