<?xml version="1.0" encoding="UTF-8"?>
<svg width="48" height="48" version="1.1" viewBox="0 0 48 48" xmlns="http://www.w3.org/2000/svg" xmlns:cc="http://creativecommons.org/ns#" xmlns:dc="http://purl.org/dc/elements/1.1/" xmlns:rdf="http://www.w3.org/1999/02/22-rdf-syntax-ns#" xmlns:xlink="http://www.w3.org/1999/xlink">
 <metadata>
  <rdf:RDF>
   <cc:Work rdf:about="">
    <dc:format>image/svg+xml</dc:format>
    <dc:type rdf:resource="http://purl.org/dc/dcmitype/StillImage"/>
    <dc:title>deepin-repair-tools</dc:title>
   </cc:Work>
  </rdf:RDF>
 </metadata>
 <title>deepin-repair-tools</title>
 <defs>
  <linearGradient id="linearGradient861" x1="19.494" x2="19.494" y1="36.028" y2="-1.5808e-7" gradientTransform="matrix(1.026 0 0 .97468 4 5)" gradientUnits="userSpaceOnUse">
   <stop stop-color="#8E8E8E" offset="0"/>
   <stop stop-color="#AFAFAF" offset=".90391"/>
   <stop stop-color="#BEBEBE" offset=".90524"/>
   <stop stop-color="#C2C2C2" offset="1"/>
  </linearGradient>
  <filter id="filter880" color-interpolation-filters="sRGB">
   <feFlood flood-color="rgb(0,0,0)" flood-opacity=".19608" result="flood"/>
   <feComposite in="flood" in2="SourceGraphic" operator="in" result="composite1"/>
   <feGaussianBlur in="composite1" result="blur" stdDeviation="1"/>
   <feOffset dx="0" dy="1" result="offset"/>
   <feComposite in="SourceGraphic" in2="offset" result="composite2"/>
  </filter>
 </defs>
 <g fill-rule="evenodd" filter="url(#filter880)">
  <path d="m4.332 7.588 1.635-2.03a1.5 1.5 0 0 1 1.168-0.558h33.73a1.5 1.5 0 0 1 1.168 0.559l1.635 2.029a1.5 1.5 0 0 1 0.332 0.941v33.687a0.78 0.78 0 0 1-0.777 0.784h-38.446a0.78 0.78 0 0 1-0.777-0.784v-33.686a1.5 1.5 0 0 1 0.332-0.941z" fill="url(#linearGradient861)"/>
  <path d="m10.017 9v24l6.5-8.5 7.5 18.5h8l-13-20h11z" fill="#fff"/>
 </g>
</svg>
