<svg width="48" height="48" version="1" xmlns="http://www.w3.org/2000/svg"><defs><filter id="a" color-interpolation-filters="sRGB"><feFlood flood-color="#000" flood-opacity=".196" result="flood"/><feComposite in="flood" in2="SourceGraphic" operator="in" result="composite1"/><feGaussianBlur in="composite1" result="blur" stdDeviation="1"/><feOffset dx="0" dy="1" result="offset"/><feComposite in="SourceGraphic" in2="offset" result="composite2"/></filter></defs><g filter="url(#a)"><rect transform="matrix(0 -1 -1 0 0 0)" x="-40" y="-44" width="32" height="40" rx="2" ry="2" fill="#4f4f4f"/><g transform="translate(0 1)" opacity=".2"><rect x="9" y="14" width="30" height="8" rx="2" ry="2"/><rect x="9" y="26" width="30" height="8" rx="2" ry="2"/></g><path d="M6 8c-1.108 0-2 .892-2 2v1c0-1.108.892-2 2-2h36c1.108 0 2 .892 2 2v-1c0-1.108-.892-2-2-2H6z" fill="#fff" opacity=".1"/><path d="M4 38v1c0 1.108.892 2 2 2h36c1.108 0 2-.892 2-2v-1c0 1.108-.892 2-2 2H6c-1.108 0-2-.892-2-2z" opacity=".2"/><rect x="9" y="14" width="30" height="8" rx="2" ry="2" fill="#fff"/><rect x="9" y="26" width="30" height="8" rx="2" ry="2" fill="#fff"/><g fill="#4fa0ff"><circle cx="13" cy="18" r="3"/><circle cx="20" cy="18" r="3"/><circle cx="27" cy="18" r="3"/></g><g fill="#ff4f4f"><circle cx="13" cy="30" r="3"/><circle cx="20" cy="30" r="3"/><circle cx="27" cy="30" r="3"/></g></g></svg>