<?xml version="1.0" encoding="UTF-8"?>
<svg width="48" height="48" version="1.1" viewBox="0 0 48 48" xmlns="http://www.w3.org/2000/svg" xmlns:cc="http://creativecommons.org/ns#" xmlns:dc="http://purl.org/dc/elements/1.1/" xmlns:rdf="http://www.w3.org/1999/02/22-rdf-syntax-ns#" xmlns:xlink="http://www.w3.org/1999/xlink">
 <metadata>
  <rdf:RDF>
   <cc:Work rdf:about="">
    <dc:format>image/svg+xml</dc:format>
    <dc:type rdf:resource="http://purl.org/dc/dcmitype/StillImage"/>
    <dc:title/>
   </cc:Work>
  </rdf:RDF>
 </metadata>
 <defs>
  <filter id="a" color-interpolation-filters="sRGB">
   <feFlood flood-opacity=".196" result="flood"/>
   <feComposite in="flood" in2="SourceGraphic" operator="in" result="composite1"/>
   <feGaussianBlur in="composite1" result="blur" stdDeviation="1"/>
   <feOffset dx="0" dy="1" result="offset"/>
   <feComposite in="SourceGraphic" in2="offset" result="composite2"/>
  </filter>
  <linearGradient id="linearGradient904" x2="48" y1="22" y2="22" gradientTransform="scale(1.0801 .92582)" gradientUnits="userSpaceOnUse">
   <stop stop-color="#23FFBE" offset="0"/>
   <stop stop-color="#3FDA88" offset="1"/>
  </linearGradient>
 </defs>
 <path d="m6 6c-1.108 0-2 0.892-2 2v30h40v-30c0-1.108-0.892-2-2-2z" fill="url(#linearGradient904)" filter="url(#a)"/>
 <path d="m6 42c-1.108 0-2-0.892-2-2v-2h40v2c0 1.108-0.892 2-2 2z" fill="#4f4f4f" filter="url(#a)"/>
 <path d="m6 6c-1.108 0-2 0.892-2 2v1c0-1.108 0.892-2 2-2h36c1.108 0 2 0.892 2 2v-1c0-1.108-0.892-2-2-2z" fill="#fff" filter="url(#a)" opacity=".1"/>
 <path d="m4 40v1c0 1.108 0.892 2 2 2h36c1.108 0 2-0.892 2-2v-1c0 1.108-0.892 2-2 2h-36c-1.108 0-2-0.892-2-2z" filter="url(#a)" opacity=".2"/>
</svg>
