<svg width="48" height="48" viewBox="0 0 48 48" version="1.1" xmlns="http://www.w3.org/2000/svg" xmlns:xlink="http://www.w3.org/1999/xlink"><title>dde-introduction</title><defs><circle id="b" cx="24" cy="24" r="21"/><filter x="-8.3%" y="-6%" width="116.7%" height="116.7%" filterUnits="objectBoundingBox" id="a"><feOffset dx="0" dy="1" in="SourceAlpha" result="shadowOffsetOuter1"/><feGaussianBlur stdDeviation="1" in="shadowOffsetOuter1" result="shadowBlurOuter1"/><feComposite in="shadowBlurOuter1" in2="SourceAlpha" operator="out" result="shadowBlurOuter1"/><feColorMatrix values="0 0 0 0 0 0 0 0 0 0 0 0 0 0 0 0 0 0 0.2 0" type="matrix" in="shadowBlurOuter1"/></filter><linearGradient x1="42.153%" y1="0%" x2="42.153%" y2="100%" id="c"><stop stop-color="#30FFAF" offset="0%"/><stop stop-color="#08C5FF" offset="100%"/></linearGradient><path d="M24.616 2.629a9.567 9.567 0 0 1 9.567 9.567v18.142a2 2 0 0 1-2 2H15.05V12.196a9.567 9.567 0 0 1 9.567-9.567z" id="d"/><path id="e" d="M21.275 19.864h11.477v1.428H21.275z"/><path id="f" d="M18.268 22.894h11.477v1.428H18.268z"/><path d="M12.39 17.033a2.976 2.976 0 0 1 2.977 2.976v4.594H9.414v-4.594a2.976 2.976 0 0 1 2.977-2.976z" id="g"/><path d="M15.498 20.164a2.835 2.835 0 0 1 2.834 2.834v4.736h-5.67v-4.736a2.835 2.835 0 0 1 2.836-2.834z" id="h"/><path d="M18.504 23.194a2.835 2.835 0 0 1 2.835 2.834v4.736h-5.67v-4.736a2.835 2.835 0 0 1 2.835-2.834z" id="i"/><path d="M21.611 26.324a2.976 2.976 0 0 1 2.977 2.977v2.594a2 2 0 0 1-2 2h-3.953V29.3a2.976 2.976 0 0 1 2.976-2.977z" id="j"/><path d="M21.99 7.098v5.51c0 2.957-2.22 5.356-4.96 5.356V7.098" id="k"/></defs><g stroke="none" stroke-width="1" fill="none" fill-rule="evenodd"><g fill="#000"><use fill-opacity="1" filter="url(#a)" xlink:href="#b"/><use fill-opacity=".1" fill-rule="evenodd" xlink:href="#b"/></g><circle fill="url(#c)" cx="24" cy="24" r="21"/><g transform="rotate(45 17.667 24.605)"><use fill="#404040" fill-rule="evenodd" xlink:href="#d"/><path stroke="#373737" stroke-width="1.2" d="M15.65 31.738h16.533a1.4 1.4 0 0 0 1.4-1.4V12.196a8.967 8.967 0 1 0-17.934 0v19.542z"/></g><path d="M23.663 14.01l12.564 12.564a2 2 0 0 1 0 2.828L25.32 40.31a2 2 0 0 1-2.829 0L9.927 27.746c-3.793-3.794-3.793-9.943 0-13.736 3.793-3.793 9.943-3.793 13.736 0z" fill="#FFF"/><g transform="rotate(45 20.063 27.7)"><use fill="#606060" fill-rule="evenodd" xlink:href="#e"/><path stroke="#373737" stroke-width="1.4" d="M21.975 20.564h10.077v1H21.975z"/></g><g transform="rotate(45 17.057 30.73)"><use fill="#606060" fill-rule="evenodd" xlink:href="#f"/><path stroke="#373737" stroke-width="1.4" d="M18.968 23.594h10.077v1H18.968z"/></g><g transform="rotate(45 5.441 27.939)"><use fill="#404040" fill-rule="evenodd" xlink:href="#g"/><path stroke="#373737" stroke-width="1.4" d="M10.114 23.903h4.553v-3.894a2.276 2.276 0 1 0-4.553 0v3.894z"/></g><g transform="rotate(45 8.548 31.07)"><use fill="#404040" fill-rule="evenodd" xlink:href="#h"/><path stroke="#373737" stroke-width="1.4" d="M13.363 27.034h4.27v-4.036a2.135 2.135 0 0 0-4.27 0v4.036z"/></g><g transform="rotate(45 11.554 34.1)"><use fill="#404040" fill-rule="evenodd" xlink:href="#i"/><path stroke="#373737" stroke-width="1.4" d="M16.37 30.064h4.269v-4.036a2.135 2.135 0 0 0-4.27 0v4.036z"/></g><g transform="rotate(45 14.661 37.23)"><use fill="#404040" fill-rule="evenodd" xlink:href="#j"/><path stroke="#373737" stroke-width="1.4" d="M19.335 33.195h3.253a1.3 1.3 0 0 0 1.3-1.3V29.3a2.276 2.276 0 1 0-4.553 0v3.894z"/></g><g transform="rotate(45 12.56 19.652)"><use fill="#404040" fill-rule="evenodd" xlink:href="#k"/><path stroke="#373737" stroke-width="1.4" d="M21.29 7.798h-3.56V17.2c2.011-.365 3.56-2.274 3.56-4.594v-4.81z"/></g></g></svg>