<?xml version="1.0" encoding="UTF-8"?>
<svg width="48" height="48" version="1.1" viewBox="0 0 48 48" xmlns="http://www.w3.org/2000/svg" xmlns:cc="http://creativecommons.org/ns#" xmlns:dc="http://purl.org/dc/elements/1.1/" xmlns:rdf="http://www.w3.org/1999/02/22-rdf-syntax-ns#">
 <metadata>
  <rdf:RDF>
   <cc:Work rdf:about="">
    <dc:format>image/svg+xml</dc:format>
    <dc:type rdf:resource="http://purl.org/dc/dcmitype/StillImage"/>
    <dc:title>文件管理器-48px</dc:title>
   </cc:Work>
  </rdf:RDF>
 </metadata>
 <defs>
  <filter id="filter1012" color-interpolation-filters="sRGB">
   <feFlood flood-color="rgb(0,0,0)" flood-opacity=".19608" result="flood"/>
   <feComposite in="flood" in2="SourceGraphic" operator="in" result="composite1"/>
   <feGaussianBlur in="composite1" result="blur" stdDeviation="0.5"/>
   <feOffset dx="0" dy="0.5" result="offset"/>
   <feComposite in="SourceGraphic" in2="offset" result="composite2"/>
  </filter>
 </defs>
 <title>文件管理器-48px</title>
 <g transform="translate(48)" filter="url(#filter1012)">
  <g fill-rule="evenodd">
   <path d="m-42 16.8v-4.803c0-0.55 0.41-1.18 0.92-1.405l15.288-6.78c1.01-0.449 2.647-0.447 3.65 0l15.226 6.78c0.506 0.225 0.916 0.863 0.916 1.405v31.003c0 0.552-0.455 1-1 1h-34c-0.552 0-1-0.45-1-1z" fill="#00b8ff"/>
   <path d="m-40.9 14.048 29.69-4.454 4.008 28.52-29.69 4.453z" fill="#ffd245"/>
   <path d="m-39 13h30v28h-30z" fill="#fff"/>
   <path d="m-42 17h36v26.007c0 0.548-0.455 0.993-1 0.993h-34c-0.552 0-1-0.446-1-0.993z" fill="#39d4ff" opacity=".7"/>
  </g>
  <path d="m-26.5 32v-7.5s0.5 2 2.5 2 2.5-2 2.5-2v12.5" fill="none" stroke="#fff" stroke-linejoin="round"/>
  <circle cx="-24" cy="24" r="5" fill="#fff" fill-rule="evenodd"/>
  <circle cx="-24" cy="24" r="1" fill="#4ed8ff" fill-rule="evenodd"/>
 </g>
</svg>
