<svg width="48" height="48" viewBox="0 0 48 48" version="1.1" xmlns="http://www.w3.org/2000/svg" xmlns:xlink="http://www.w3.org/1999/xlink"><title>debreate</title><defs><circle id="b" cx="24" cy="24" r="22"/><filter x="-4.5%" y="-2.3%" width="109.1%" height="109.1%" filterUnits="objectBoundingBox" id="a"><feOffset dx="0" dy="1" in="SourceAlpha" result="shadowOffsetOuter1"/><feGaussianBlur stdDeviation=".5" in="shadowOffsetOuter1" result="shadowBlurOuter1"/><feComposite in="shadowBlurOuter1" in2="SourceAlpha" operator="out" result="shadowBlurOuter1"/><feColorMatrix values="0 0 0 0 0 0 0 0 0 0 0 0 0 0 0 0 0 0 0.2 0" type="matrix" in="shadowBlurOuter1"/></filter><linearGradient x1="50%" y1="1.09%" x2="50%" y2="100%" id="c"><stop stop-color="#0E1B7B" offset="0%"/><stop stop-color="#105CE3" offset="100%"/></linearGradient><linearGradient x1="50%" y1="0%" x2="50%" y2="100%" id="d"><stop stop-color="#000384" offset="0%"/><stop stop-color="#0025B3" offset="100%"/></linearGradient><path d="M15 36V12h-3v-1h10v26H12v-1h3zm11-25h6c2.922 2.595 4.766 6.099 5.532 10.513a15 15 0 0 1 .009 5.084C36.8 30.95 34.976 34.418 32.068 37H26v-1a2.783 2.783 0 0 0 2.783-2.783V14.783A2.783 2.783 0 0 0 26 12v-1z" id="e"/><linearGradient x1="50%" y1="3.008%" x2="50%" y2="98.914%" id="f"><stop stop-color="#FFF" stop-opacity=".425" offset="0%"/><stop stop-color="#FFF" stop-opacity=".126" offset="100%"/></linearGradient></defs><g stroke="none" stroke-width="1" fill="none" fill-rule="evenodd"><use fill="#000" fill-opacity="1" filter="url(#a)" xlink:href="#b"/><use fill-opacity="0" fill="#D8D8D8" fill-rule="evenodd" xlink:href="#b"/><circle fill="url(#c)" cx="24" cy="24" r="22"/><path d="M24 45c11.598 0 21-9.402 21-21S35.598 3 24 3 3 12.402 3 24s9.402 21 21 21zm0 1C11.85 46 2 36.15 2 24S11.85 2 24 2s22 9.85 22 22-9.85 22-22 22z" fill="url(#d)" fill-rule="nonzero"/><use fill="#FF2500" fill-rule="evenodd" xlink:href="#e"/><path stroke-opacity=".602" stroke="#0B0061" stroke-width="1" d="M14.5 35.5v-23h-3v-2h11v27h-11v-2h3zm11-25h6.69l.142.126c3.01 2.673 4.908 6.28 5.693 10.802a15.5 15.5 0 0 1 .009 5.252c-.76 4.463-2.638 8.034-5.634 10.694l-.142.126H25.5v-2h.5a2.283 2.283 0 0 0 2.283-2.283V14.783A2.283 2.283 0 0 0 26 12.5h-.5v-2z"/><path d="M8.506 13C11.95 8.158 17.606 5 24 5s12.05 3.158 15.494 8c-3.444 4.842-9.1 8-15.494 8s-12.05-3.158-15.494-8z" fill="url(#f)"/></g></svg>