<svg width="48" height="48" viewBox="0 0 48 48" version="1.1" xmlns="http://www.w3.org/2000/svg" xmlns:xlink="http://www.w3.org/1999/xlink"><title>deepin-manual</title><defs><rect id="b" x="5" y="3" width="38" height="42" rx="2"/><filter x="-9.2%" y="-6%" width="118.4%" height="116.7%" filterUnits="objectBoundingBox" id="a"><feOffset dx="0" dy="1" in="SourceAlpha" result="shadowOffsetOuter1"/><feGaussianBlur stdDeviation="1" in="shadowOffsetOuter1" result="shadowBlurOuter1"/><feComposite in="shadowBlurOuter1" in2="SourceAlpha" operator="out" result="shadowBlurOuter1"/><feColorMatrix values="0 0 0 0 0 0 0 0 0 0 0 0 0 0 0 0 0 0 0.2 0" type="matrix" in="shadowBlurOuter1"/></filter><radialGradient cx="50%" cy="17.574%" fx="50%" fy="17.574%" r="96.089%" gradientTransform="matrix(0 .90476 -1 0 .676 -.277)" id="c"><stop stop-color="#04A38C" offset="0%"/><stop stop-color="#075661" offset="100%"/></radialGradient><linearGradient x1="6.146%" y1="65.618%" x2="0%" y2="65.618%" id="d"><stop stop-color="#04A38C" stop-opacity="0" offset="0%"/><stop stop-color="#075661" offset="100%"/></linearGradient></defs><g stroke="none" stroke-width="1" fill="none" fill-rule="evenodd"><g fill="#000"><use fill-opacity="1" filter="url(#a)" xlink:href="#b"/><use fill-opacity=".1" fill-rule="evenodd" xlink:href="#b"/></g><rect fill="url(#c)" x="5" y="3" width="38" height="42" rx="2"/><rect fill="url(#d)" x="5" y="3" width="38" height="42" rx="2"/><path d="M23.943 9.023c-.568-.028-1.02-.47-1.02-1.011C22.923 7.453 23.405 7 24 7s1.077.453 1.077 1.012c0 .541-.452.983-1.02 1.01L29 11H19l4.943-1.977zM17.737 32h12.526c.157 0 .294.122.306.273l.43 2.454c.012.15-.115.273-.283.273H17.284c-.168 0-.295-.122-.283-.273l.43-2.454a.307.307 0 0 1 .306-.273zM19 12h10v1H19v-1zm2 2v2h-1v-2h1zm7 0v2h-1v-2h1zm-2 0v2h-4v-2h4zm-7 3h10v1H19v-1zm0 14l1.389-12h7.222L29 31H19zm4-7v3h2v-3h-2z" fill="#FFF"/><path d="M5 19v-8l14 3.043v1.914L5 19zm24-4.957L43 11v8l-14-3.043v-1.914z" fill="#FFF" opacity=".3"/><path d="M7 40h33.974a2 2 0 0 0 2-2v-2 7a2 2 0 0 1-2 2H7a2 2 0 0 1-2-2v-1a2 2 0 0 1 2-2z" fill="#034849"/><path d="M7 41h35v-2 4a1 1 0 0 1-1 1H7a1 1 0 0 1-1-1v-1a1 1 0 0 1 1-1z" fill="#D5FCF9"/></g></svg>