<svg version="1.1" viewBox="0 0 48 48" xml:space="preserve" xmlns="http://www.w3.org/2000/svg"><defs><filter id="filter866" x="-.056464" y="-.041743" width="1.1129" height="1.0835" color-interpolation-filters="sRGB"><feGaussianBlur stdDeviation="0.73024296"/></filter></defs><path d="m23.361 2.0039a3 3 0 0 0-2.8613 2.9961v1h-1.5312a3 3 0 0 0-2.7207 1.7441l-7.2461-0.00195c-0.538 0-0.97656 0.43661-0.97656 0.97461l-0.0078 34.289a0.975 0.975 0 0 0 0.97461 0.97461l29.082 0.0059a0.973 0.973 0 0 0 0.9746-0.9727l0.0078-34.289c1.3e-5 -0.538-0.4366-0.97461-0.9746-0.97461l-7.3086-0.00195a2.999 2.999 0 0 0-2.7207-1.748h-1.5527v-0.83008c0-1.624-1.2168-3.0801-2.8398-3.1641a3 3 0 0 0-0.29883-0.00195zm0.07227 2.0098a0.993 0.993 0 0 1 0.04101 0 0.993 0.993 0 1 1 0 1.9844 0.993 0.993 0 0 1-0.04101-1.9844z" fill="#ccc" filter="url(#filter866)"/><g transform="translate(.982)"><path d="m37.074 43.987-29.082-7e-3a0.975 0.975 0 0 1-0.974-0.975l8e-3 -34.288c0-0.538 0.437-0.974 0.975-0.974l29.081 7e-3c0.538 0 0.974 0.437 0.974 0.975l-8e-3 34.289a0.973 0.973 0 0 1-0.974 0.973z" fill="#808080"/><path d="m8.921 9.44h27.194v32.54h-27.194z" fill="#d9d9d9"/><path d="m11 16.5h22m-22 5h22m-22 5h22m-22 5h22m-22 5h22" fill="#808080" stroke="#808080" stroke-miterlimit="10"/><path d="m27.052 6h-1.552v-0.83c0-1.624-1.216-3.081-2.839-3.165a3 3 0 0 0-3.161 2.995v1h-1.531a3 3 0 0 0-3 3v1a1 1 0 0 0 1 1h13.082a1 1 0 0 0 1-1v-1a2.999 2.999 0 0 0-2.999-3zm-4.578-1e-3a0.993 0.993 0 1 1 0-1.986 0.993 0.993 0 1 1 0 1.986z" fill="#808080"/></g></svg>
