<svg xmlns="http://www.w3.org/2000/svg" width="48" height="48" version="1"><defs><filter id="a" color-interpolation-filters="sRGB"><feFlood flood-opacity=".196" flood-color="#000" result="flood"/><feComposite in="flood" in2="SourceGraphic" operator="in" result="composite1"/><feGaussianBlur in="composite1" stdDeviation="1" result="blur"/><feOffset dx="0" dy="1" result="offset"/><feComposite in="SourceGraphic" in2="offset" operator="over" result="composite2"/></filter></defs><g filter="url(#a)"><path d="M5.004 35.896c.005-1.687 1.431-4.043 3.458-6.183 1.355-1.43 2.73-2.686 5.73-5.257-2.075-1.144-5.301-2.526-6.92-4.334-.6-.67-1.685-2.185-1.474-4.21.429-4.13 5.496-10.394 12.7-11.719 2.396-.44 5.148-.122 7.412.902 7.105 3.211 15.794 11.19 16.863 15.086.376 1.372.304 3.558-.345 4.776-.804 1.51-3.587 4.577-7.395 7.741-5.975 4.965-14.347 10.297-20.599 11.194-2.02.29-4.083-.012-5.532-.834-2.267-1.286-3.02-3.002-3.284-3.517-.703-1.368-.615-3.101-.614-3.645z" fill-rule="evenodd" fill="#705db3"/><ellipse transform="rotate(-63.833)" ry="4.494" rx="3.745" cy="29.874" cx="-1.03" opacity=".2"/><path d="M5.803 16.876l-.006.033c-.21 2.026.876 3.542 1.475 4.211 1.451 1.622 4.159 2.89 6.207 3.961.274-.237.405-.363.712-.627-2.074-1.144-5.3-2.525-6.92-4.334-.498-.557-1.324-1.707-1.468-3.244zm37.17 5.857c-.061.832-.234 1.64-.545 2.223-.804 1.51-3.59 4.578-7.397 7.743-5.975 4.966-14.346 10.296-20.597 11.194-2.02.289-4.085-.013-5.534-.834-2.266-1.286-3.017-3.003-3.281-3.518-.472-.918-.579-1.975-.604-2.752 0 .035-.011.073-.011.107-.002.544-.088 2.277.615 3.645.264.515 1.015 2.232 3.281 3.518 1.449.82 3.514 1.123 5.534.834 6.25-.898 14.622-6.228 20.597-11.194 3.808-3.165 6.593-6.233 7.397-7.743.436-.82.59-2.07.545-3.223z" fill-rule="evenodd" opacity=".2"/><path d="M20.348 4.004c-.631.016-1.253.08-1.852.19-7.203 1.324-12.27 7.588-12.699 11.717-.035.339-.023.658.006.967.452-4.13 5.509-10.363 12.693-11.684 2.397-.44 5.15-.123 7.414.9 7.105 3.212 15.792 11.193 16.86 15.089.125.448.18.992.203 1.552.065-.904-.006-1.838-.202-2.552C41.7 16.287 33.015 8.306 25.91 5.094c-1.698-.768-3.671-1.138-5.562-1.09zm-6.869 21.079c-2.409 2.08-3.8 3.347-5.016 4.63-2.027 2.14-3.455 4.497-3.46 6.184 0 .179 0 .512.013.893.06-1.679 1.461-3.98 3.447-6.076 1.355-1.43 2.729-2.687 5.728-5.258-.213-.118-.477-.25-.712-.373z" fill-rule="evenodd" fill="#fff" opacity=".1"/></g></svg>