<svg width="48" height="48" version="1.1" xmlns="http://www.w3.org/2000/svg"><defs><filter id="a" color-interpolation-filters="sRGB"><feFlood flood-color="#000" flood-opacity=".196" result="flood"/><feComposite in="flood" in2="SourceGraphic" operator="in" result="composite1"/><feGaussianBlur in="composite1" result="blur" stdDeviation="1"/><feOffset dx="0" dy="1" result="offset"/><feComposite in="SourceGraphic" in2="offset" result="composite2"/></filter></defs><g fill-rule="evenodd" filter="url(#a)"><path d="M23.997 5.001c-1.78 4.365-2.855 7.22-4.837 11.455 1.215 1.288 2.707 2.788 5.13 4.483-2.605-1.072-4.382-2.148-5.71-3.265C16.043 22.968 12.068 30.508 4 45c6.34-3.66 10.756-5.916 15.336-6.777a11.603 11.603 0 0 1-.3-2.715l.006-.203c.101-4.061 2.759-7.3 5.217-7.305 2.459-.005 4.85 4.011 4.749 8.072a11.47 11.47 0 0 1-.256 2.182C33.282 39.14 37.745 41.39 44 45c-1.233-2.27-2.334-4.316-3.385-6.265-1.656-1.283-3.384-2.953-6.907-4.761 2.422.629 4.156 1.355 5.507 2.166C28.527 16.244 27.662 13.6 23.996 5z" opacity=".2"/><path d="M23.997 4.001c-1.78 4.365-2.855 7.22-4.837 11.455 1.215 1.288 2.707 2.788 5.13 4.483-2.605-1.072-4.382-2.148-5.71-3.265C16.043 21.968 12.068 29.508 4 44c6.34-3.66 10.756-5.916 15.336-6.777a11.603 11.603 0 0 1-.3-2.715l.006-.203c.101-4.061 2.759-7.3 5.217-7.305 2.459-.005 4.85 4.011 4.749 8.072a11.47 11.47 0 0 1-.256 2.182C33.282 38.14 37.745 40.39 44 44c-1.233-2.27-2.334-4.316-3.385-6.265-1.656-1.283-3.384-2.953-6.907-4.761 2.422.629 4.156 1.355 5.507 2.166C28.527 15.244 27.662 12.6 23.996 4z" fill="#1793d1"/><path d="M23.996 4.002c-1.78 4.365-2.855 7.218-4.838 11.453.096.102.209.214.309.318 1.775-3.85 2.85-6.657 4.529-10.77 3.569 8.372 4.556 11.223 14.469 29.728.257.135.517.269.75.409C28.528 15.246 27.661 12.602 23.996 4.003zM18.58 16.674C16.043 21.967 12.067 29.508 4 44c.287-.165.522-.29.8-.45C12.273 30.1 16.139 22.77 18.58 17.675c1.328 1.116 3.104 2.194 5.709 3.265a30.32 30.32 0 0 1-3.145-2.515c-1.015-.576-1.86-1.157-2.564-1.75zm15.129 17.299c3.523 1.808 5.25 3.478 6.906 4.762.811 1.503 1.704 3.155 2.611 4.832.27.154.498.274.774.433-1.233-2.27-2.334-4.316-3.385-6.265-.94-.729-1.945-1.59-3.246-2.522a24.59 24.59 0 0 0-3.66-1.24zm-14.646 1.033c-.006.1-.017.198-.02.299l-.007.203c-.005.606.052 1.186.134 1.752.056-.01.111-.027.166-.037a11.71 11.71 0 0 1-.273-2.217zm9.932.262a11.397 11.397 0 0 1-.243 1.986c.054.01.109.026.163.037.05-.396.083-.801.093-1.218.007-.27.001-.538-.013-.805z" fill="#fff" opacity=".2"/></g></svg>