<svg xmlns="http://www.w3.org/2000/svg" width="48" height="48" version="1.1"><defs><filter id="a" color-interpolation-filters="sRGB"><feFlood flood-opacity=".196" flood-color="#000" result="flood"/><feComposite in="flood" in2="SourceGraphic" operator="in" result="composite1"/><feGaussianBlur in="composite1" stdDeviation="1" result="blur"/><feOffset dx="0" dy="1" result="offset"/><feComposite in="SourceGraphic" in2="offset" operator="over" result="composite2"/></filter></defs><g filter="url(#a)"><path opacity=".2" d="M24.006 5l20 20-20 19.999-20-20z"/><path d="M24 4l-6 6h4v12h4V10h4z" fill="#f1ac3c"/><path d="M22 26v12h-4l6 6 6-6h-4V26z" fill="#87b224"/><path d="M38 18v4H26v4h12v4l6-6z" fill="#3275ba"/><path d="M10 18l-6 6 6 6v-4h12v-4H10z" fill="#a23c8b"/><path fill="#87b224" d="M10 10h12v12H10z"/><path fill="#3275ba" d="M10 26h12v12H10z"/><path fill="#f1ac3c" d="M26 26h12v12H26z"/><path fill="#a23c8b" d="M26 10h12v12H26z"/><path d="M24 4L4 24l.5.5L24 5l19.5 19.5.5-.5L24 4z" opacity=".2" fill="#fff"/><g opacity=".2"><path d="M9.857 10.858v8.486l2.829-2.828L21.172 25 24 22.172l-8.484-8.486 2.828-2.828zM24 22.172L26.828 25l8.486-8.484 2.829 2.828v-8.486h-8.487l2.828 2.828zM26.828 25L24 27.83l8.484 8.486-2.828 2.828h8.487v-8.486l-2.829 2.828zM24 27.83L21.172 25l-8.486 8.485-2.829-2.828v8.486h8.487l-2.828-2.828z"/><path d="M9.857 10.858v1h7.487l1-1zm19.8 0l1 1h7.486v-1zm-13.641 3.328l-.5.5 7.984 7.986.5-.5zM24 22.172l.5.5 7.984-7.986-.5-.5zM20.672 25.5l-7.986 7.985-2.829-2.828v1l2.829 2.828L21.172 26zm.5.5L23.5 28.33l.5-.5-2.328-2.329zM24 27.83l.5.5L26.828 26l-.5-.5zM26.828 26l8.486 8.485 2.829-2.828v-1l-2.829 2.828-7.986-7.985zM16.016 36.815l-.5.5 1.828 1.828h1zm15.968 0l-2.328 2.328h1l1.828-1.828z" opacity=".2"/></g><g fill="#fff"><path d="M9.857 9.857v8.487l2.829-2.828L21.172 24 24 21.172l-8.484-8.486 2.828-2.829H9.857zM24 21.172L26.828 24l8.486-8.484 2.829 2.828V9.857h-8.487l2.828 2.829L24 21.172zM26.828 24L24 26.828l8.484 8.486-2.828 2.829h8.487v-8.487l-2.829 2.828L26.828 24zM24 26.828L21.172 24l-8.486 8.484-2.829-2.828v8.487h8.487l-2.828-2.829L24 26.828z"/><path d="M9.857 9.857v1h7.487l1-1H9.857zm19.8 0l1 1h7.486v-1h-8.487zm-13.641 3.329l-.5.5 7.984 7.986.5-.5-7.984-7.986zM24 21.172l.5.5 7.984-7.986-.5-.5L24 21.172zM20.672 24.5l-7.986 7.984-2.829-2.828v1l2.829 2.828L21.172 25l-.5-.5zm.5.5l2.328 2.328.5-.5-2.328-2.328-.5.5zM24 26.828l.5.5L26.828 25l-.5-.5L24 26.828zM26.828 25l8.486 8.484 2.829-2.828v-1l-2.829 2.828-7.986-7.984-.5.5zM16.016 35.814l-.5.5 1.828 1.829h1l-2.328-2.329zm15.968 0l-2.328 2.329h1l1.828-1.829-.5-.5z" opacity=".2"/></g></g></svg>