<svg xmlns="http://www.w3.org/2000/svg" width="48" height="48" version="1.1"><defs><filter id="a" color-interpolation-filters="sRGB"><feFlood flood-opacity=".196" flood-color="#000" result="flood"/><feComposite in="flood" in2="SourceGraphic" operator="in" result="composite1"/><feGaussianBlur in="composite1" stdDeviation="1" result="blur"/><feOffset dx="0" dy="1" result="offset"/><feComposite in="SourceGraphic" in2="offset" operator="over" result="composite2"/></filter></defs><g filter="url(#a)"><path d="M24 4C12.959 4 4.008 12.95 4 23.989v16.906a3.097 3.097 0 0 0 3.104 3.104H24.01c11.042 0 19.989-8.957 19.989-20 0-11.046-8.955-20-20-20z" fill="#324e89"/><path d="M30 9a9 9 0 0 0-9 9v5h-5a9 9 0 1 0 9 9v-5h5a9 9 0 1 0 0-18zm0 4a5 5 0 0 1 0 10h-3.98c-.464 0-1.02 0-1.02-1.098V18a5 5 0 0 1 5-5zM16 27h3.98c.464 0 1.02 0 1.02 1.098V32a5 5 0 1 1-5-5z" opacity=".2" fill="#fff"/><path d="M30 9a9 9 0 0 0-9 9v5h-5a2 2 0 0 0-.2.01h-.003A2 2 0 0 0 14 25a2 2 0 0 0 2 2h3.98c.464 0 1.02 0 1.02 1.098V32a5 5 0 0 1-5 5 4.95 4.95 0 0 1-2.137-.496A1.996 1.996 0 0 0 13 36.3a2 2 0 0 0-.896 3.785v.018A8.947 8.947 0 0 0 16 41a9 9 0 0 0 9-9v-5h4a2 2 0 0 0 2-2 2 2 0 0 0-2-2h-2.98c-.464 0-1.02 0-1.02-1.098V18a5 5 0 0 1 5-5c.504 0 .98.098 1.44.236l-.003-.017a2 2 0 0 0 2.484-2.47c.002-.032.009-.06.009-.09-.017-.027-.048-.054-.067-.08v-.003a2 2 0 0 0-1.484-1.238l-.043-.022A8.986 8.986 0 0 0 30 9z" fill="#fff"/><path d="M43.988 24.5C43.722 35.312 34.884 44 24.01 44H7.104A3.097 3.097 0 0 1 4 40.896v1A3.097 3.097 0 0 0 7.104 45H24.01C35.051 45 44 36.043 44 25c0-.168-.008-.333-.012-.5z" opacity=".2"/><path d="M24 4C12.959 4 4.008 12.951 4 23.99v1C4.008 13.951 12.959 5 24 5c10.878 0 19.722 8.685 19.988 19.5.004-.167.012-.332.012-.5 0-11.046-8.954-20-20-20z" opacity=".1" fill="#fff"/></g></svg>