<svg xmlns="http://www.w3.org/2000/svg" width="48" height="48" version="1"><defs><filter id="a" color-interpolation-filters="sRGB"><feFlood flood-opacity=".196" flood-color="#000" result="flood"/><feComposite in="flood" in2="SourceGraphic" operator="in" result="composite1"/><feGaussianBlur in="composite1" stdDeviation="1" result="blur"/><feOffset dx="0" dy="1" result="offset"/><feComposite in="SourceGraphic" in2="offset" operator="over" result="composite2"/></filter></defs><g filter="url(#a)"><path d="M6 5c-1.108 0-2 .892-2 2v36c0 1.108.892 2 2 2h10V17h14V5zm26 0v40h10c1.108 0 2-.892 2-2V7c0-1.108-.892-2-2-2zM18 19v26h12V19z" opacity=".2"/><path d="M6 4c-1.108 0-2 .892-2 2v36c0 1.108.892 2 2 2h10V16h14V4H6zm26 0v40h10c1.108 0 2-.892 2-2V6c0-1.108-.892-2-2-2H32zM18 18v26h12V18H18z" fill="#16a085"/><path d="M6 4c-1.108 0-2 .892-2 2v1c0-1.108.892-2 2-2h24V4H6zm26 0v1h10c1.108 0 2 .892 2 2V6c0-1.108-.892-2-2-2H32zM18 18v1h12v-1H18z" opacity=".2" fill="#fff"/></g></svg>