<svg xmlns="http://www.w3.org/2000/svg" width="48" height="48" version="1"><defs><filter id="a" color-interpolation-filters="sRGB"><feFlood flood-opacity=".196" flood-color="#000" result="flood"/><feComposite in="flood" in2="SourceGraphic" operator="in" result="composite1"/><feGaussianBlur in="composite1" stdDeviation="1" result="blur"/><feOffset dx="0" dy="1" result="offset"/><feComposite in="SourceGraphic" in2="offset" operator="over" result="composite2"/></filter></defs><g filter="url(#a)"><rect transform="matrix(0 -1 -1 0 0 0)" ry="2" rx="2" y="-44" x="-45" height="40" width="40" opacity=".2"/><rect transform="matrix(0 -1 -1 0 0 0)" ry="2" rx="2" y="-44" x="-44" height="40" width="40" fill="#48aeff"/><path d="M6 4c-1.108 0-2 .892-2 2v1c0-1.108.892-2 2-2h36c1.108 0 2 .892 2 2V6c0-1.108-.892-2-2-2H6z" fill="#fff" opacity=".2"/><path opacity=".2" d="M8 9h14v14H8z"/><path fill="#fff" d="M8 8h14v14H8z"/><path opacity=".2" d="M26 9h14v14H26z"/><path fill="#fff" d="M26 8h14v14H26z"/><path opacity=".2" d="M26 27h14v14H26z"/><path fill="#fff" d="M26 26h14v14H26z"/><path opacity=".2" d="M8 27h14v14H8z"/><path fill="#fff" d="M8 26h14v14H8z"/></g></svg>