<svg xmlns="http://www.w3.org/2000/svg" width="48" height="48" version="1"><defs><filter id="a" color-interpolation-filters="sRGB"><feFlood flood-opacity=".196" flood-color="#000" result="flood"/><feComposite in="flood" in2="SourceGraphic" operator="in" result="composite1"/><feGaussianBlur in="composite1" stdDeviation="1" result="blur"/><feOffset dx="0" dy="1" result="offset"/><feComposite in="SourceGraphic" in2="offset" operator="over" result="composite2"/></filter></defs><g filter="url(#a)"><rect transform="matrix(0 -1 -1 0 0 0)" ry="2" rx="2" y="-44" x="-44" height="40" width="40" fill="#3f485e"/><path d="M6 4c-1.108 0-2 .892-2 2v1c0-1.108.892-2 2-2h36c1.108 0 2 .892 2 2V6c0-1.108-.892-2-2-2H6z" opacity=".1" fill="#fff"/><path d="M6 45c-1.108 0-2-.892-2-2v-1c0 1.108.892 2 2 2h36c1.108 0 2-.892 2-2v1c0 1.108-.892 2-2 2H6z" opacity=".2"/><path d="M23.156 8.997a1.208 1.208 0 0 0-1.207 1.21 1.208 1.208 0 0 0 1.207 1.206 1.208 1.208 0 0 0 1.208-1.207 1.208 1.208 0 0 0-1.208-1.209zm2.96 2.295a1.39 1.39 0 0 0-1.39 1.39 1.39 1.39 0 0 0 1.39 1.39 1.39 1.39 0 0 0 1.389-1.39 1.39 1.39 0 0 0-1.389-1.39zM23.7 13.708a1.51 1.51 0 0 0-1.511 1.512 1.51 1.51 0 0 0 1.511 1.51 1.51 1.51 0 0 0 1.51-1.51 1.51 1.51 0 0 0-1.51-1.512zm2.9 2.957a1.692 1.692 0 0 0 .002 3.383h.003c.932-.001 1.689-.76 1.689-1.694 0-.93-.76-1.69-1.693-1.69zm-4.896 1.088a1.813 1.813 0 0 0 .002 3.625h.002c1-.001 1.81-.814 1.81-1.815a1.816 1.816 0 0 0-1.814-1.81zm-3.927 4.787a1.55 1.55 0 0 0-1.12.47c-1.562 2.027-2.83 4.306-2.83 7.067 0 5.984 4.541 10.92 10.172 10.92s10.172-4.936 10.172-10.92c0-2.762-1.27-4.968-2.922-7.067-.62-.65-1.513-.554-2.164-.138-1.905.985-2.932 1.38-5.086 1.37-2.082-.008-3.177-.35-5.081-1.388a2.16 2.16 0 0 0-1.14-.314zm.238 2.15c1.974 1.092 3.736 1.647 5.984 1.647 2.25 0 4.01-.555 5.984-1.647 1.078 1.52 2.094 3.406 2.094 5.387 0 4.906-3.616 8.826-8.078 8.826-4.461 0-8.077-3.92-8.077-8.826 0-1.979 1.013-3.866 2.093-5.387z" opacity=".2" enable-background="new"/><g enable-background="new"><g transform="translate(-4.903 -68.947) scale(.14959)" fill="#2397d4"><path d="M177.89 597.13h-.01c-6.673 0-12.107-5.427-12.114-12.095-.01-6.69 5.425-12.125 12.104-12.132 6.683 0 12.116 5.427 12.124 12.095 0 6.69-5.425 12.126-12.104 12.133zM210.61 588.24c-6.23 0-11.302-5.066-11.307-11.292-.01-6.242 5.061-11.316 11.296-11.321 6.24 0 11.311 5.065 11.317 11.291 0 6.242-5.062 11.316-11.296 11.323h-.01z"/><circle transform="translate(215.72 578.6) scale(1.4422)" r="7" cy="-15.701" cx="-17"/><circle transform="translate(140.73 552.34) scale(.80761)" r="11.5" cy="-16.522" cx="82.5"/><circle transform="translate(187.19 551.3) scale(.76915)" r="10.5" cy="-37.522"/></g><path d="M16.659 22.01c-1.564 2.027-2.832 4.305-2.832 7.066 0 5.985 4.541 10.92 10.172 10.92 5.63 0 10.172-4.935 10.172-10.92 0-2.761-1.27-4.968-2.921-7.066-.62-.65-1.514-.553-2.165-.137-1.904.985-2.933 1.38-5.086 1.37-2.083-.01-3.177-.35-5.082-1.388-.65-.398-1.64-.495-2.259.155zm1.356 1.681c1.975 1.092 3.736 1.646 5.984 1.646 2.25 0 4.008-.554 5.984-1.646 1.078 1.52 2.094 3.405 2.094 5.385 0 4.907-3.616 8.826-8.078 8.826s-8.078-3.919-8.078-8.826c0-1.978 1.014-3.864 2.094-5.385z" fill="#fff"/></g></g></svg>