<svg xmlns="http://www.w3.org/2000/svg" width="48" height="48" version="1.1" viewBox="0 0 48 48"><defs><filter id="a" color-interpolation-filters="sRGB"><feFlood flood-opacity=".196" flood-color="#000" result="flood"/><feComposite in="flood" in2="SourceGraphic" operator="in" result="composite1"/><feGaussianBlur in="composite1" stdDeviation="1" result="blur"/><feOffset dx="0" dy="1" result="offset"/><feComposite in="SourceGraphic" in2="offset" operator="over" result="composite2"/></filter></defs><g filter="url(#a)"><path d="M4 24a20 20 0 0 0 1.06 6.371A20 20 0 0 1 4 24zm39.975.71a20 20 0 0 1-.104 1.343 20 20 0 0 0 .104-1.342zm-29.829 1.087c-1.12-.014-1.677 1-1.593 1.828.097.96.717 1.73 1.006 2.24.285.51.433.842.972 1.069.385.158.528.396.414.71-.1.274-.5.338-.763.35-.557.026-.947-.124-1.233-.308-.33-.21-.601-.504-.888-1.002-.336-.55-.862-1.29-1.475-1.29-.293 0-.568.08-.81.202a7.22 7.22 0 0 1-3.34.799H5.068A20 20 0 0 0 24 44a20 20 0 0 0 17.293-10h-2.918c-3.375 0-2.703.83-3.652 1.225a.322.322 0 0 0-.178.287c0 .044.01.09.03.127.11.326-.075.68-.993.882-1.363.3-2.223 1.305-2.715 1.77-.578.55-2.208.889-1.963.56.193-.256.926-.655 1.371-1.517.401-.768.758-.988 1.246-1.723.145-.215.703-.974.866-1.572.181-.587.119-1.32.19-1.623.1-.436.511-1.38.542-1.916.018-.302-1.262.432-1.869.432s-1.198-.365-1.74-.389c-.67-.034-1.101.517-1.71.42-.345-.054-.64-.36-1.243-.383-.863-.031-1.918.48-3.897.416-1.947-.064-3.747-2.46-3.992-2.842-.289-.448-.64-.448-1.022-.095-.383.35-.857.074-.99-.16-.256-.45-.938-1.755-1.996-2.03a2.146 2.146 0 0 0-.514-.072zm29.635 1.008a20 20 0 0 1-.234 1.312 20 20 0 0 0 .234-1.312zm-.363 1.89a20 20 0 0 1-.41 1.45 20 20 0 0 0 .41-1.45zm-.54 1.836a20 20 0 0 1-.634 1.604 20 20 0 0 0 .635-1.604zm-.704 1.758a20 20 0 0 1-.877 1.701 20 20 0 0 0 .877-1.7zM27.828 33c.014 0 .026.007.035.018.085.114.232.503.053 1-.1.263-.21.446-.402.662-.234.261-.687.562-1.309.008-.336-.296-.356-.396-.818-.311-.33.06-.461-.41-.344-.797.12-.387.605-.699 1.213-.201.274.224.699.7 1.07.277.156-.17.25-.287.463-.635a.047.047 0 0 1 .04-.021z" fill="#e4e4e4"/><path d="M4.021 24.418A20 20 0 0 0 4 25a20 20 0 0 0 20 20 20 20 0 0 0 20-20 20 20 0 0 0-.021-.418A20 20 0 0 1 24 44 20 20 0 0 1 4.022 24.418z" opacity=".2"/><path d="M24 4A20 20 0 0 0 4 24a20 20 0 0 0 .021.418A20 20 0 0 1 24 5a20 20 0 0 1 19.979 19.582 20 20 0 0 0 .02-.582A20 20 0 0 0 24 4z" opacity=".2" fill="#fff"/><path d="M24 4A20 20 0 0 0 4 24a20 20 0 0 0 1.068 6.395h1.368a7.22 7.22 0 0 0 3.34-.8c.242-.121.517-.2.81-.2.613 0 1.139.74 1.475 1.289.287.498.558.793.888 1.002.286.184.676.334 1.233.308.264-.012.663-.076.763-.35.114-.314-.03-.552-.414-.71-.539-.227-.687-.56-.972-1.069-.289-.51-.909-1.28-1.006-2.24-.096-.946.644-2.135 2.107-1.756 1.058.275 1.74 1.58 1.996 2.03.133.234.607.51.99.16.382-.353.733-.353 1.022.095.245.381 2.045 2.778 3.992 2.842 1.979.064 3.034-.447 3.897-.416.604.023.898.329 1.244.383.608.097 1.038-.454 1.709-.42.542.024 1.133.389 1.74.389s1.887-.734 1.87-.432c-.032.535-.444 1.48-.544 1.916-.07.302-.008 1.036-.19 1.623-.162.598-.72 1.357-.865 1.572-.488.735-.845.955-1.246 1.723-.445.862-1.178 1.261-1.37 1.518-.246.328 1.384-.01 1.962-.561.492-.465 1.352-1.47 2.715-1.77.918-.203 1.103-.556.992-.882a.283.283 0 0 1-.03-.127c0-.125.073-.235.179-.287C35.673 34.83 35 34 38.375 34h2.918A20 20 0 0 0 44 24 20 20 0 0 0 24 4zm3.828 29a.047.047 0 0 0-.039.021c-.214.348-.307.465-.463.635-.371.423-.796-.053-1.07-.277-.608-.498-1.093-.186-1.213.201-.117.387.014.856.344.797.462-.085.482.015.818.31.622.555 1.075.254 1.309-.007.192-.216.301-.4.402-.662.179-.497.032-.886-.053-1a.046.046 0 0 0-.035-.018z" fill="#4f4f4f"/><path d="M26.785 9.004a6.475 6.475 0 0 0-1.361.2c-.659.168-1.424 1.796-4.336.3C17 8 16.34 10.645 16.104 11.55c-.24.904-.81 3.473-.81 3.473-.189 1.048-.437 2.865 5.985 4.092 2.992.57 3.141 1.346 3.276 1.902.238.998.617 2.17 1.045 2.455.427.286 0 .521-.475.569-1.273.133-5.984-1.82-8.771-3.405-2.28-1.395-2.317-2.45-1.795-3.517-3.444-.373-6.027.124-6.495 1.757-.805 2.802 6.149 7.588 14.069 9.99 8.31 2.52 16.858.76 17.808-4.472.432-2.377-1.567-4.637-4.939-5.398-.196.66-.673 2.206-1.915 2.844-.181.093-.25-.06-.168-.203.47-.8.753-1.199.89-1.513.19-.462.292-1.118-.088-2.484-.746-2.69-2.306-6.286-3.436-7.451-.82-.845-2.137-1.236-3.5-1.184zm-.197.996h.115c1.284.028 2.312.496 2.297 1.047-.016.551-1.068.976-2.354.951a4.919 4.919 0 0 1-1.138-.154c-.042-.009-.069-.039-.069-.076 0-.036.027-.068.07-.078.8-.17 1.34-.448 1.302-.711-.052-.348-1.096-.539-2.338-.424-.137.013-.27.028-.399.047h-.01c-.035 0-.064-.025-.064-.055 0-.022.015-.042.037-.05.449-.217 1.116-.392 1.881-.461.23-.023.454-.036.67-.036zm-8.961 3a.571.571 0 0 1 .451.207c.204.264.64.694 1.207.678.567-.016 1.22-.138 2.133-.138.924 0 1.544.356 1.578.664.032.26-.076.505-1.103.584-2.158.16-2.382.403-2.786.847-.569.63-1.322-.814-1.322-.814-.452-.098-.996-.85-.701-1.551.146-.347.352-.469.543-.477z" opacity=".2"/><path d="M26.785 8.004a6.475 6.475 0 0 0-1.361.2c-.659.167-1.424 1.796-4.336.3C17 7 16.34 9.645 16.104 10.549c-.24.904-.81 3.472-.81 3.472-.189 1.048-.437 2.865 5.985 4.092 2.992.57 3.141 1.346 3.276 1.903.238.998.617 2.17 1.045 2.455.427.285 0 .521-.475.568-1.273.134-5.984-1.819-8.771-3.404-2.28-1.396-2.317-2.451-1.795-3.518-3.444-.373-6.027.124-6.495 1.758-.805 2.802 6.149 7.587 14.069 9.99 8.31 2.52 16.858.76 17.808-4.472.432-2.378-1.567-4.638-4.939-5.399-.196.66-.673 2.206-1.915 2.845-.181.092-.25-.06-.168-.204.47-.8.753-1.198.89-1.512.19-.462.292-1.119-.088-2.484-.746-2.69-2.306-6.286-3.436-7.451-.82-.845-2.137-1.236-3.5-1.184zM26.588 9h.115c1.284.027 2.312.496 2.297 1.047-.016.551-1.068.976-2.354.951a4.919 4.919 0 0 1-1.138-.154c-.042-.009-.069-.039-.069-.076s.027-.069.07-.079c.8-.17 1.34-.447 1.302-.71-.052-.348-1.096-.539-2.338-.424-.137.012-.27.028-.399.047h-.01c-.035 0-.064-.025-.064-.055 0-.023.015-.042.037-.05.449-.218 1.116-.392 1.881-.462.23-.022.454-.035.67-.035zm-8.961 3a.571.571 0 0 1 .451.207c.204.263.64.693 1.207.678.567-.016 1.22-.139 2.133-.139.924 0 1.544.356 1.578.664.032.26-.076.506-1.103.584-2.158.161-2.382.404-2.786.848-.569.63-1.322-.815-1.322-.815-.452-.098-.996-.85-.701-1.55.146-.347.352-.469.543-.477z" fill="#ee4a58"/><path d="M24 4C12.954 4 4 12.954 4 24c.006.135.013.27.021.404C4.343 13.6 13.191 5.007 24 5c10.893.009 19.775 8.732 19.98 19.623.01-.208.017-.415.02-.623 0-11.046-8.954-20-20-20z" opacity=".1" fill="#fff"/></g></svg>