<svg xmlns="http://www.w3.org/2000/svg" width="48" height="48" version="1.1"><defs><filter id="a" color-interpolation-filters="sRGB"><feFlood flood-opacity=".196" flood-color="#000" result="flood"/><feComposite in="flood" in2="SourceGraphic" operator="in" result="composite1"/><feGaussianBlur in="composite1" stdDeviation="1" result="blur"/><feOffset dx="0" dy="1" result="offset"/><feComposite in="SourceGraphic" in2="offset" operator="over" result="composite2"/></filter></defs><g filter="url(#a)"><rect ry="2" rx="2" y="5" x="4" height="40" width="40" opacity=".2"/><rect ry="2" rx="2" y="4" x="4" height="40" width="40" fill="#7ec242"/><path d="M6 4c-1.108 0-2 .892-2 2v1c0-1.108.892-2 2-2h36c1.108 0 2 .892 2 2V6c0-1.108-.892-2-2-2H6z" fill="#fff" opacity=".2"/><path d="M17 16v14c0 2.2 1.784 4 4 4h9c2.216 0 4-1.8 4-4v-7.5c0-1.9-1.567-3.5-3.5-3.5-.982 0-1.864.4-2.5 1.1a3.334 3.334 0 0 0-2.5-1.1c-1.933 0-3.5 1.6-3.5 3.5v6h2v-6c0-.8.672-1.5 1.5-1.5s1.5.7 1.5 1.5v6h2v-6c0-.8.672-1.5 1.5-1.5s1.5.7 1.5 1.5V30a2 2 0 0 1-2 2h-9a2 2 0 0 1-2-2V16z" opacity=".2"/><path d="M17 15v14c0 2.2 1.784 4 4 4h9c2.216 0 4-1.8 4-4v-7.5c0-1.9-1.567-3.5-3.5-3.5-.982 0-1.864.4-2.5 1.1a3.334 3.334 0 0 0-2.5-1.1c-1.933 0-3.5 1.6-3.5 3.5v6h2v-6c0-.8.672-1.5 1.5-1.5s1.5.7 1.5 1.5v6h2v-6c0-.8.672-1.5 1.5-1.5s1.5.7 1.5 1.5V29a2 2 0 0 1-2 2h-9a2 2 0 0 1-2-2V15z" fill="#fff"/><path d="M8 12v8h4v9.094A9.89 9.89 0 0 0 21.906 39H39V21.906A9.89 9.89 0 0 0 29.094 12zm2 2h19.094C33.504 14 37 17.496 37 21.906V37H21.906C17.496 37 14 33.504 14 29.094V20c.001-1.047-.953-2.001-2-2h-2z" opacity=".2"/><path d="M8 11v8h4v9.094A9.89 9.89 0 0 0 21.906 38H39V20.906A9.89 9.89 0 0 0 29.094 11zm2 2h19.094C33.504 13 37 16.496 37 20.906V36H21.906C17.496 36 14 32.504 14 28.094V19c.001-1.047-.953-2.001-2-2h-2z" fill="#fff"/></g></svg>