<svg width="48" height="48" viewBox="0 0 48 48" version="1.1" xmlns="http://www.w3.org/2000/svg"><title>Dynalist-48</title><defs><linearGradient x1="50%" y1="0%" x2="50%" y2="100%" id="a"><stop stop-color="#0287FA" offset="0%"/><stop stop-color="#0170D3" offset="100%"/></linearGradient></defs><g transform="translate(2 2)" stroke="none" stroke-width="1" fill="none" fill-rule="evenodd"><rect fill="url(#a)" x="0" y="0" width="44" height="44" rx="7.333"/><path d="M22.122 18.794c3.847-4.055 7.151-6.083 9.915-6.083 5.122 0 9.274 4.159 9.274 9.289s-4.152 9.289-9.274 9.289c-2.764 0-6.068-2.028-9.915-6.083-3.846 4.055-7.15 6.083-9.914 6.083-5.122 0-9.275-4.159-9.275-9.289s4.153-9.289 9.275-9.289c2.763 0 6.068 2.028 9.914 6.083zM12.1 27.378c1.935 0 4.339-1.752 7.211-5.256-2.872-3.503-5.276-5.255-7.211-5.255a5.256 5.256 0 1 0 0 10.51zm20.289 0a5.256 5.256 0 0 0 0-10.511c-1.935 0-4.339 1.752-7.211 5.255 2.872 3.504 5.276 5.256 7.21 5.256z" fill="#FFF"/></g></svg>