<svg xmlns="http://www.w3.org/2000/svg" version="1.1" width="100%" height="100%" viewBox="0 0 48 48" xml:space="preserve"><g fill-opacity=".941"><path d="M-27.59-3.635a3.528 3.528 0 1 1-7.056 0 3.528 3.528 0 1 1 7.056 0z" fill="#34495f"/><g fill="#1abc9f"><path d="M23.838 12.35c-.948.004-1.853.086-2.65.228-2.347.419-2.773 1.295-2.773 2.91v2.135h5.546v.711H16.334c-1.612 0-3.023.979-3.465 2.84-.509 2.133-.531 3.464 0 5.69.395 1.659 1.336 2.84 2.948 2.84h1.907v-2.558c0-1.849 1.583-3.479 3.464-3.479h5.54c1.542 0 2.772-1.282 2.772-2.846V15.49c0-1.517-1.267-2.658-2.772-2.91a17.138 17.138 0 0 0-2.89-.23zm-2.999 1.716c.573 0 1.04.48 1.04 1.07 0 .589-.467 1.065-1.04 1.065-.575 0-1.04-.476-1.04-1.064 0-.59.465-1.07 1.04-1.07z"/><path d="M30.231 18.292v2.468c0 1.914-1.622 3.525-3.472 3.525h-5.55c-1.52 0-2.779 1.301-2.779 2.824v5.293c0 1.507 1.31 2.393 2.779 2.825 1.759.517 3.446.61 5.55 0 1.4-.405 2.779-1.22 2.779-2.825v-2.118h-5.55v-.706h8.329c1.615 0 2.217-1.127 2.778-2.818.58-1.742.556-3.416 0-5.65-.399-1.608-1.161-2.818-2.778-2.818H30.23zM27.11 31.696c.576 0 1.043.472 1.043 1.056 0 .586-.467 1.063-1.043 1.063a1.055 1.055 0 0 1-1.043-1.063 1.05 1.05 0 0 1 1.043-1.056z"/></g></g></svg>