<svg version="1.1" viewBox="0 0 48 48" xml:space="preserve" xmlns="http://www.w3.org/2000/svg" xmlns:xlink="http://www.w3.org/1999/xlink"><defs><clipPath id="f"><use overflow="visible" xlink:href="#e"/></clipPath><filter id="filter955" x="-.054286" y="-.067059" width="1.1086" height="1.1341" color-interpolation-filters="sRGB"><feGaussianBlur stdDeviation="0.95"/></filter></defs><defs><path id="c" d="M44 8h-2v34h2a1 1 0 0 0 1-1V9a1 1 0 0 0-1-1z"/></defs><clipPath id="d"><use overflow="visible" xlink:href="#c"/></clipPath><g transform="translate(6)"><path d="m39 41a1 1 0 0 1-1 1h-40a1 1 0 0 1-1-1v-32a1 1 0 0 1 1-1h40a1 1 0 0 1 1 1z" fill="#ccc" filter="url(#filter955)"/><g transform="translate(50)"><path d="m-11 41a1 1 0 0 1-1 1h-40a1 1 0 0 1-1-1v-32a1 1 0 0 1 1-1h40a1 1 0 0 1 1 1z" fill="#f7f8f8"/><path d="m-29.451 26.978 18.279-17.665c0-0.283-18.953 16.854-18.953 16.854-1.335 0.917-3.059 0.7-4.159-0.132 0 0-18.56-17.009-18.56-16.726l18.375 17.856-14.447 12.95 15.197-12.396c1.063 0.604 2.146 0.76 3.5-0.094l15.228 12.358z" fill="#d8d8d8" opacity=".5"/><g transform="translate(-56)" clip-path="url(#d)"><path d="m52.644 4.806-1.414-1.414a0.999 0.999 0 0 0-1.414 0l-22.628 22.627a0.999 0.999 0 0 0 0 1.414l1.414 1.414z" fill="#ff8080"/><path d="m56.224 9.652-1.414-1.415a0.999 0.999 0 0 0-1.414 0l-22.628 22.628a0.999 0.999 0 0 0 0 1.414l1.414 1.414z" fill="#80b3ff"/><path d="m57.247 17.054-1.414-1.414a0.999 0.999 0 0 0-1.414 0l-22.628 22.627a0.999 0.999 0 0 0 0 1.414l1.414 1.414z" fill="#ff8080"/><path d="m58.785 23.999-1.414-1.414a0.999 0.999 0 0 0-1.414 0l-22.627 22.627a0.999 0.999 0 0 0 0 1.414l1.414 1.414z" fill="#80b3ff"/></g><g transform="translate(-56)" clip-path="url(#f)"><path d="m16.581 2.04-1.414-1.414a0.999 0.999 0 0 0-1.414 0l-22.627 22.627a0.999 0.999 0 0 0 0 1.414l1.414 1.414z" fill="#ff8080"/><path d="m20.162 6.885-1.414-1.414a0.999 0.999 0 0 0-1.414 0l-22.628 22.627a0.999 0.999 0 0 0 0 1.414l1.414 1.414z" fill="#80b3ff"/><path d="m21.185 14.288-1.414-1.414a0.999 0.999 0 0 0-1.414 0l-22.628 22.627a0.999 0.999 0 0 0 0 1.414l1.414 1.414z" fill="#ff8080"/><path d="m22.723 21.233-1.414-1.414a0.999 0.999 0 0 0-1.414 0l-22.628 22.627a0.999 0.999 0 0 0 0 1.414l1.414 1.414z" fill="#80b3ff"/></g><path d="m-29.188 25.703c-2.297 2.109-3.797 1.797-5.781-0.047l-16.038-14.793-1.993-1.863a1 1 0 0 1 1-1h40a1 1 0 0 1 1 1z" fill="#fff"/></g></g></svg>
