<svg xmlns="http://www.w3.org/2000/svg" width="48" height="48" version="1"><defs><filter id="a" color-interpolation-filters="sRGB"><feFlood flood-opacity=".196" flood-color="#000" result="flood"/><feComposite in="flood" in2="SourceGraphic" operator="in" result="composite1"/><feGaussianBlur in="composite1" stdDeviation="1" result="blur"/><feOffset dx="0" dy="1" result="offset"/><feComposite in="SourceGraphic" in2="offset" operator="over" result="composite2"/></filter></defs><g filter="url(#a)" fill-rule="evenodd"><circle r="5" cy="40" cx="21" opacity=".2"/><circle r="5" cy="29" cx="13" fill="#ff6bf4"/><circle r="5" cy="39" cx="21" fill="#ff6bf4"/><circle r="8" cy="37" cx="15" opacity=".2"/><circle r="8" cy="36" cx="15" fill="#cc4e38"/><circle r="9" cy="32" cx="29" opacity=".2"/><circle r="9" cy="31" cx="29" fill="#f26666"/><circle r="13" cy="23" cx="26" opacity=".2"/><circle r="13" cy="22" cx="26" fill="#fdcc58"/><path d="M23.435 22.794c-1.416 5.346-4.808 9.345-10.091 7.912-5.284-1.432-8.42-6.928-7.004-12.275 1.416-5.347 6.847-8.52 12.13-7.087 5.284 1.433 6.38 6.103 4.965 11.45z" opacity=".2"/><circle r="6" cy="39" cx="12" opacity=".2"/><circle r="6" cy="38" cx="12" fill="#ff6bf4"/><path d="M23.435 21.794c-1.416 5.346-4.808 9.345-10.091 7.912-5.284-1.432-8.42-6.928-7.004-12.275 1.416-5.347 6.847-8.52 12.13-7.087 5.284 1.433 6.38 6.103 4.965 11.45z" fill="#f26666"/><path d="M15.51 10.008c-4.22.17-8.02 3.08-9.17 7.424a10.11 10.11 0 0 0-.322 3.095c.034-.695.137-1.396.322-2.095 1.416-5.347 6.847-8.52 12.13-7.088 3.73 1.011 5.367 3.64 5.512 6.976.156-3.807-1.417-6.866-5.511-7.976a9.795 9.795 0 0 0-2.961-.336z" opacity=".2" fill="#fff"/><circle r="6" cy="11" cx="36" opacity=".2"/><circle r="6" cy="10" cx="36" fill="#98ecef"/><circle r="6" cy="20" cx="35" opacity=".2"/><circle r="6" cy="19" cx="35" fill="#98ecef"/><circle r="8" cy="15" cx="33" opacity=".2"/><path d="M36 4a6 6 0 0 0-6 6 6 6 0 0 0 .025.498A6 6 0 0 1 36 5a6 6 0 0 1 5.975 5.502A6 6 0 0 0 42 10a6 6 0 0 0-6-6z" opacity=".2" fill="#fff"/><circle r="8" cy="14" cx="33" fill="#4e59b3"/><path d="M32 15c0 3.314-1.686 6-5 6a6 6 0 0 1 0-12c3.314 0 5 2.686 5 6z" opacity=".2"/><path d="M32 14c0 3.314-1.686 6-5 6a6 6 0 0 1 0-12c3.314 0 5 2.686 5 6z" fill="#98ecef"/><path d="M27 8a6 6 0 0 0-6 6c0 .169.012.335.025.5A5.997 5.997 0 0 1 27 9c3.142 0 4.802 2.424 4.967 5.5.009-.168.033-.329.033-.5 0-3.314-1.686-6-5-6z" opacity=".2" fill="#fff"/></g></svg>