<?xml version="1.0" encoding="UTF-8"?>
<svg width="48" height="48" version="1" xmlns="http://www.w3.org/2000/svg" xmlns:cc="http://creativecommons.org/ns#" xmlns:dc="http://purl.org/dc/elements/1.1/" xmlns:rdf="http://www.w3.org/1999/02/22-rdf-syntax-ns#" xmlns:xlink="http://www.w3.org/1999/xlink">
 <defs>
  <linearGradient id="linearGradient876" x1="4" x2="44" y1="24" y2="24" gradientUnits="userSpaceOnUse">
   <stop stop-color="#1E007E" offset="0"/>
   <stop stop-color="#3721B2" offset="1"/>
  </linearGradient>
 </defs>
 <metadata>
  <rdf:RDF>
   <cc:Work rdf:about="">
    <dc:format>image/svg+xml</dc:format>
    <dc:type rdf:resource="http://purl.org/dc/dcmitype/StillImage"/>
    <dc:title/>
   </cc:Work>
  </rdf:RDF>
 </metadata>
 <circle cx="24" cy="24" r="20" fill="url(#linearGradient876)"/>
 <path d="m24 9c-8.8366 0-16 7.1634-16 16s7.1634 16 16 16c8.0552-0.01057 14.847-6.0079 15.854-14h4.0469c0.06658-0.66458 0.09982-1.3321 0.09961-2-0.0069-0.66827-0.04734-1.3358-0.12109-2h-11.879v4h3.8184c-0.97507 5.7686-5.9679 9.9933-11.818 10-6.6274 0-12-5.3726-12-12s5.3726-12 12-12h10.553c-2.915-2.5708-6.6661-3.9926-10.553-4z" opacity=".2"/>
 <path d="m24 8c-8.8366 0-16 7.1634-16 16s7.1634 16 16 16c8.0552-0.01057 14.847-6.0079 15.854-14h4.0469c0.06658-0.66458 0.09982-1.3321 0.09961-2-0.0069-0.66827-0.04734-1.3358-0.12109-2h-11.879v4h3.8184c-0.97507 5.7686-5.9679 9.9933-11.818 10-6.6274 0-12-5.3726-12-12s5.3726-12 12-12h10.553c-2.915-2.5708-6.6661-3.9926-10.553-4z" fill="#fff"/>
 <path d="m24 4c-11.079 0-19.998 8.92-19.998 20 0 0.168-4e-3 0.333 0 0.5 0.26438-10.846 9.0872-19.5 19.998-19.5s19.734 8.654 19.998 19.5c4e-3 -0.167 0-0.332 0-0.5 0-11.08-8.9192-20-19.998-20z" fill="#fff" opacity=".1"/>
 <path d="m4.0117 24.5c-0.0041 0.167-0.0117 0.332-0.0117 0.5 0 11.08 8.92 20 20 20s20-8.92 20-20c0-0.168-8e-3 -0.333-0.012-0.5-0.264 10.846-9.076 19.5-19.988 19.5s-19.724-8.654-19.988-19.5z" opacity=".2"/>
 <path d="m24 17a8 8 0 0 0-8 8 8 8 0 0 0 8 8 8 8 0 0 0 4-1.0801v1.0801h4v-16h-4v1.084a8 8 0 0 0-4-1.084zm0 4a4 4 0 0 1 4 4 4 4 0 0 1-4 4 4 4 0 0 1-4-4 4 4 0 0 1 4-4z" opacity=".2"/>
 <path d="m24 16a8 8 0 0 0-8 8 8 8 0 0 0 8 8 8 8 0 0 0 4-1.0801v1.0801h4v-16h-4v1.084a8 8 0 0 0-4-1.084zm0 4a4 4 0 0 1 4 4 4 4 0 0 1-4 4 4 4 0 0 1-4-4 4 4 0 0 1 4-4z" fill="#fff"/>
 <path d="m24 8c-8.8366 0-16 7.1634-16 16 0 0.16872 0.020206 0.33254 0.025391 0.5 0.26637-8.6032 7.3068-15.5 15.975-15.5 3.3463 0.00634 6.5889 1.0661 9.2871 3h1.2656c-2.915-2.5708-6.6661-3.9926-10.553-4zm8 14v1h11.879c0.0583 0.52502 0.08891 1.0522 0.10547 1.5801 0.005543-0.19322 0.015686-0.38673 0.015625-0.58008-0.0069-0.66827-0.04734-1.3358-0.12109-2h-8.0488zm-19.975 2.5c-0.006907 0.16715-0.025391 0.33115-0.025391 0.5 0 6.6274 5.3726 12 12 12 5.8504-0.0067 10.843-4.2314 11.818-10h-0.21484c-1.3523 5.2496-6.0972 8.9937-11.604 9-6.4586 0-11.71-5.1063-11.975-11.5z" fill="#fff" opacity=".2"/>
</svg>
