<?xml version="1.0" encoding="UTF-8"?>
<svg version="1.1" viewBox="0 0 48 48" xml:space="preserve" xmlns="http://www.w3.org/2000/svg" xmlns:cc="http://creativecommons.org/ns#" xmlns:dc="http://purl.org/dc/elements/1.1/" xmlns:rdf="http://www.w3.org/1999/02/22-rdf-syntax-ns#"><metadata><rdf:RDF><cc:Work rdf:about=""><dc:format>image/svg+xml</dc:format><dc:type rdf:resource="http://purl.org/dc/dcmitype/StillImage"/><dc:title/></cc:Work></rdf:RDF></metadata><defs><filter id="filter847" color-interpolation-filters="sRGB"><feFlood flood-color="rgb(0,0,0)" flood-opacity=".19608" result="flood"/><feComposite in="flood" in2="SourceGraphic" operator="in" result="composite1"/><feGaussianBlur in="composite1" result="blur" stdDeviation="1"/><feOffset dx="0" dy="1" result="offset"/><feComposite in="SourceGraphic" in2="offset" result="composite2"/></filter></defs><g filter="url(#filter847)"><circle cx="24" cy="24" r="21" fill="#e0e0e0"/><path d="M24 43C13.523 43 5 34.477 5 24S13.523 5 24 5s19 8.523 19 19-8.523 19-19 19z" fill="#3e3a39"/><path d="M24.624 24.788a.937.937 0 0 1-1.324 0l-.091-.091a.937.937 0 0 1 0-1.324l11.398-11.406a.937.937 0 0 1 1.324 0l.091.091a.937.937 0 0 1 0 1.324L24.624 24.788z" fill="#dcdddd"/><path d="M24.552 23.114a.922.922 0 0 1 .368 1.253l-.073.135a.922.922 0 0 1-1.253.368l-8.588-4.662a.922.922 0 0 1-.368-1.253l.073-.135a.922.922 0 0 1 1.253-.368l8.588 4.662z" fill="#dcdddd"/><path d="M18.277 39.97a.462.462 0 0 1-.602.253l-.071-.029a.462.462 0 0 1-.253-.602l6.318-15.556a.462.462 0 0 1 .602-.253l.071.029a.462.462 0 0 1 .253.602L18.277 39.97z" fill="#e83828"/><circle cx="24" cy="24" r="1.5" fill="#fff"/></g></svg>
