<svg xmlns="http://www.w3.org/2000/svg" xmlns:xlink="http://www.w3.org/1999/xlink" width="48" height="48" version="1.1" viewBox="0 0 48 48"><defs><linearGradient id="c" x1="6.901" x2="6.901" y1="1" y2="15" gradientTransform="translate(0 1) scale(2.0001)" gradientUnits="userSpaceOnUse" xlink:href="#a"/><linearGradient id="a" x1="6.901" x2="6.901" y1="1" y2="15" gradientTransform="translate(-1.143 -1.143) scale(1.1429)" gradientUnits="userSpaceOnUse"><stop stop-color="#30FFAF" offset="0"/><stop stop-color="#08C5FF" offset="1"/></linearGradient><linearGradient id="d" x1="6.901" x2="6.901" y1="1" y2="15" gradientTransform="scale(2.0001)" gradientUnits="userSpaceOnUse" xlink:href="#a"/><filter id="b" color-interpolation-filters="sRGB"><feFlood flood-opacity=".196" flood-color="#000" result="flood"/><feComposite in="flood" in2="SourceGraphic" operator="in" result="composite1"/><feGaussianBlur in="composite1" stdDeviation="1" result="blur"/><feOffset dx="0" dy="1" result="offset"/><feComposite in="SourceGraphic" in2="offset" operator="over" result="composite2"/></filter></defs><g stroke-width="1.75" transform="matrix(1.5 0 0 1.5 0 -.75)" filter="url(#b)"><circle opacity=".2" fill-rule="evenodd" fill="url(#c)" r="14" cy="17" cx="16"/><circle fill-rule="evenodd" fill="url(#d)" r="14" cy="16" cx="16"/><path fill="#fff" d="M13.812 7.25l-.191 2.311a6.875 6.875 0 0 0-2.017 1.156l-2.088-.985-2.188 3.787 1.897 1.316a6.875 6.875 0 0 0-.099 1.166 6.875 6.875 0 0 0 .103 1.158l-1.9 1.323 2.187 3.787 2.095-.983a6.875 6.875 0 0 0 2.01 1.162l.191 2.303h4.375l.192-2.312a6.875 6.875 0 0 0 2.017-1.155l2.087.985 2.188-3.788-1.897-1.316a6.875 6.875 0 0 0 .1-1.166 6.875 6.875 0 0 0-.104-1.159l1.9-1.322-2.187-3.788-2.094.985a6.875 6.875 0 0 0-2.011-1.162l-.191-2.304h-4.375zM16 12.5a3.5 3.5 0 1 1 0 7 3.5 3.5 0 0 1 0-7z"/><path opacity=".2" fill="#fff" d="M13.812 8.268l-.191 2.31a6.875 6.875 0 0 0-2.017 1.155l-2.088-.984-2.188 3.787 1.897 1.316a6.875 6.875 0 0 0-.099 1.165 6.875 6.875 0 0 0 .103 1.16l-1.9 1.322 2.187 3.787 2.095-.983a6.875 6.875 0 0 0 2.01 1.162l.191 2.303h4.375l.192-2.312a6.875 6.875 0 0 0 2.017-1.155l2.087.985 2.188-3.788-1.897-1.316a6.875 6.875 0 0 0 .1-1.166 6.875 6.875 0 0 0-.104-1.159l1.9-1.322-2.187-3.788-2.094.985a6.875 6.875 0 0 0-2.011-1.162l-.191-2.304h-4.375zM16 13.518a3.5 3.5 0 1 1 0 7 3.5 3.5 0 0 1 0-7z"/></g></svg>