<svg xmlns="http://www.w3.org/2000/svg" version="1.1" width="100%" height="100%" viewBox="0 0 48 48" id="图层_1" xml:space="preserve"><defs id="defs49"><linearGradient gradientUnits="userSpaceOnUse" id="SVGID_1_" y2="43.135" x2="24.002" y1="5" x1="24"><stop id="stop4284" offset="0" stop-color="#f6f9fb" stop-opacity="1"/><stop offset="1" id="stop20" stop-color="#d1dfec" stop-opacity="1"/></linearGradient><linearGradient gradientTransform="matrix(.7031 0 0 -.6996 -397.947 -711.478)" gradientUnits="userSpaceOnUse" id="path3267_1_" y2="-1049.799" x2="621.064" y1="-1049.799" x1="577.945"><stop offset="0" id="stop30" stop-color="#f3cb20" stop-opacity=".3"/><stop offset=".22" id="stop32" stop-color="#f3cb20" stop-opacity="1"/><stop offset=".561" id="stop34" stop-color="#f3cb20" stop-opacity="1"/><stop offset="1" id="stop36" stop-color="#f3cb20" stop-opacity=".2"/></linearGradient></defs><style type="text/css" id="style3"/><path d="M43.495 43.45a1.04 1.04 0 0 1-1.027 1.053H5.521a1.04 1.04 0 0 1-1.026-1.052V5.556c0-.581.46-1.053 1.026-1.053h36.947a1.04 1.04 0 0 1 1.027 1.053V43.45z" id="path4290" opacity=".05" fill="#000"/><path id="path4288" d="M42.998 42.982c0 .567-.448 1.027-1 1.027h-36c-.552 0-1-.46-1-1.027V6.035c0-.566.448-1.026 1-1.026h36c.552 0 1 .46 1 1.026v36.947z" opacity=".1" fill="#000"/><path d="M43.003 42.54c0 .559-.448 1.013-1 1.013h-36c-.552 0-1-.454-1-1.013V6.066c0-.56.448-1.013 1-1.013h36c.552 0 1 .454 1 1.013V42.54z" id="path4286" opacity=".14" fill="#000"/><path id="path22" d="M43.002 42.003a1 1 0 0 1-1 1h-36a1 1 0 0 1-1-1v-36a1 1 0 0 1 1-1h36a1 1 0 0 1 1 1v36z" fill="url(#SVGID_1_)"/><path id="rect4282" fill="#362b18" fill-opacity="1" fill-rule="evenodd" stroke="none" stroke-width="1" stroke-linecap="butt" stroke-linejoin="miter" stroke-opacity="1" d="M8 8h32v32H8z"/><path id="path3267_13_" d="M13.972 12.185l-2.435 13.81-3.549.029v1l4.495-.029 2.016-11.419 2.892 17.876.553 3.09.553-3.069 1.243-8.478h4.278l.63-1.935 1.998 7.131 1.473-3.196 11.877.004v-1l-12.579-.004-.489 1.062-2.209-7.903-1.525 4.841h-4.417l-.86 5.77-2.84-17.476-.544-2.908z" fill="url(#path3267_1_)"/><path id="path5749_13_" d="M30.367 33.328c0 1.163 1.329 1.807 2.077 2.525.784-.751 2.061-1.47 2.061-2.525 0-.99-1.696-1.326-2.07-.174-.431-1.125-2.068-.918-2.068.174z" fill="#f0c512"/><text id="text40" transform="scale(1.03349 .9676)" x="22.63" y="37.005" font-size="5.035" font-family="Arial-BoldMT" fill="#f0c512">49</text><path id="rect5784_13_" d="M30.251 18.995h3.31c.228 0 .426.129.426.298v.307c0 .169-.197.395-.426.395h-3.31c-.229 0-.265-.226-.265-.395v-.307c.001-.169.036-.298.265-.298z" fill="#f0c512"/><path id="rect5814_26_" d="M30.251 16.995h3.31c.228 0 .426.18.426.35v.307c0 .168-.197.343-.426.343h-3.31c-.229 0-.265-.175-.265-.343v-.307c.001-.17.036-.35.265-.35z" fill="#f0c512"/><path id="rect5814_25_" d="M30.251 14.995h3.31c.228 0 .426.18.426.35v.307c0 .168-.197.343-.426.343h-3.31c-.229 0-.265-.175-.265-.343v-.307c.001-.17.036-.35.265-.35z" opacity=".8" fill="#f0c512"/><path id="rect5818_13_" d="M30.329 12.995h3.31c.228 0 .348.157.348.326v.308c0 .169-.119.366-.348.366h-3.31c-.229 0-.343-.197-.343-.366v-.308c.001-.169.114-.326.343-.326z" opacity=".608" fill="#f0c512"/><path id="rect5820_13_" d="M30.329 10.995h3.31c.228 0 .348.161.348.331v.308c0 .168-.119.362-.348.362h-3.31c-.229 0-.343-.193-.343-.362v-.308c.001-.17.114-.331.343-.331z" opacity=".5" fill="#f0c512"/></svg>