<svg width="48" height="48" version="1.1" viewBox="0 0 48 48" xmlns="http://www.w3.org/2000/svg">
<defs>
<filter id="a" color-interpolation-filters="sRGB">
<feFlood flood-opacity=".196" result="flood"/>
<feComposite in="flood" in2="SourceGraphic" operator="in" result="composite1"/>
<feGaussianBlur in="composite1" result="blur" stdDeviation="1"/>
<feOffset dx="0" dy="1" result="offset"/>
<feComposite in="SourceGraphic" in2="offset" result="composite2"/>
</filter>
</defs>
<circle cx="24" cy="24" r="20" fill="#4f4f4f" filter="url(#a)"/>
<circle cx="24" cy="25" r="17" filter="url(#a)" opacity=".2"/>
<circle cx="24" cy="24" r="17" fill="#ea004e" filter="url(#a)"/>
<path d="m24 14a11 11 0 0 0-0.41 0.019 11 11 0 0 1 0.6-0.014 11 11 0 0 0-0.19 0zm0.465 0.016a11 11 0 0 1 0.625 0.049 11 11 0 0 0-0.625-0.049zm-1.4 0.031a11 11 0 0 0-0.563 0.068 11 11 0 0 1 0.562-0.068zm2.568 0.084a11 11 0 0 1 0.56 0.102 11 11 0 0 0-0.56-0.102zm-3.668 0.064a11 11 0 0 0-0.514 0.117 11 11 0 0 1 0.514-0.117zm4.726 0.148a11 11 0 0 1 0.569 0.163 11 11 0 0 0-0.569-0.162zm-5.81 0.116a11 11 0 0 0-0.479 0.16 11 11 0 0 1 0.479-0.16zm6.937 0.232a11 11 0 0 1 0.297 0.113 11 11 0 0 0-0.297-0.113zm-7.814 0.072a11 11 0 0 0-7.006 10.237 11 11 0 0 0 11 11 11 11 0 0 0 11-11 11 11 0 0 0-6.674-10.1l-0.783 1.83a9 9 0 0 1 5.457 8.27 9 9 0 0 1-9 9 9 9 0 0 1-9-9 9 9 0 0 1 5.726-8.383l-0.722-1.853z" filter="url(#a)" opacity=".2"/>
<path d="m24 13a11 11 0 0 0-0.41 0.02 11 11 0 0 1 0.599-0.014 11 11 0 0 0-0.189-6e-3zm0.465 0.016a11 11 0 0 1 0.625 0.048 11 11 0 0 0-0.625-0.048zm-1.4 0.03a11 11 0 0 0-0.563 0.07 11 11 0 0 1 0.562-0.07zm2.568 0.085a11 11 0 0 1 0.56 0.101 11 11 0 0 0-0.56-0.101zm-3.668 0.064a11 11 0 0 0-0.514 0.118 11 11 0 0 1 0.514-0.118zm4.726 0.149a11 11 0 0 1 0.569 0.162 11 11 0 0 0-0.569-0.162zm-5.81 0.115a11 11 0 0 0-0.479 0.16 11 11 0 0 1 0.479-0.16zm6.937 0.232a11 11 0 0 1 0.297 0.114 11 11 0 0 0-0.297-0.114zm-7.814 0.073a11 11 0 0 0-7.006 10.238 11 11 0 0 0 11 11 11 11 0 0 0 11-11 11 11 0 0 0-6.674-10.1l-0.783 1.83a9 9 0 0 1 5.457 8.27 9 9 0 0 1-9 9 9 9 0 0 1-9-9 9 9 0 0 1 5.726-8.383l-0.722-1.854z" fill="#fff" filter="url(#a)"/>
<path d="m23 11.5h2v9h-2z" filter="url(#a)" opacity=".2"/>
<path d="m23 11h2v9h-2z" fill="#fff" filter="url(#a)"/>
<path d="M 24,4 A 20,20 0 0 0 4.141,21.852 20,19 0 0 1 24,5 20,19 0 0 1 43.922,22.447 20,20 0 0 0 24,4 Z M 43.922,22.447 A 20,20 0 0 1 44,24 20,19 0 0 0 43.922,22.447 Z M 4.141,21.852 A 20,19 0 0 0 4.092,22.244 20,20 0 0 1 4.141,21.852 Z M 4.092,22.244 A 20,20 0 0 0 4,24 20,19 0 0 1 4.092,22.244 Z" fill="#fff" filter="url(#a)" opacity=".1"/>
<path d="M 24,45 A 20,20 0 0 1 4.141,27.148 20,19 0 0 0 24,44 20,19 0 0 0 43.922,26.553 20,20 0 0 1 24,45 Z M 43.922,26.553 A 20,20 0 0 0 44,25 20,19 0 0 1 43.922,26.553 Z M 4.141,27.148 A 20,19 0 0 1 4.092,26.756 20,20 0 0 0 4.141,27.148 Z M 4.092,26.756 A 20,20 0 0 1 4,25 20,19 0 0 0 4.092,26.756 Z" filter="url(#a)" opacity=".2"/>
</svg>
