<?xml version="1.0" encoding="UTF-8"?>
<svg version="1.1" viewBox="0 0 48 48" xml:space="preserve" xmlns="http://www.w3.org/2000/svg" xmlns:cc="http://creativecommons.org/ns#" xmlns:dc="http://purl.org/dc/elements/1.1/" xmlns:rdf="http://www.w3.org/1999/02/22-rdf-syntax-ns#"><metadata><rdf:RDF><cc:Work rdf:about=""><dc:format>image/svg+xml</dc:format><dc:type rdf:resource="http://purl.org/dc/dcmitype/StillImage"/><dc:title/></cc:Work></rdf:RDF></metadata><defs><filter id="filter858" color-interpolation-filters="sRGB"><feFlood flood-color="rgb(0,0,0)" flood-opacity=".19608" result="flood"/><feComposite in="flood" in2="SourceGraphic" operator="in" result="composite1"/><feGaussianBlur in="composite1" result="blur" stdDeviation="1"/><feOffset dx="0" dy="1" result="offset"/><feComposite in="SourceGraphic" in2="offset" result="composite2"/></filter></defs><g transform="translate(48)" filter="url(#filter858)"><path d="m-40.516 3.989c-0.503 0-0.933 0.37-0.997 0.868a58.55 58.55 0 0 0-0.467 7.421c0 22.957 14.413 32.711 18 32.711s18-9.806 18-32.711c0-2.553-0.162-5.036-0.467-7.421a1.001 1.001 0 0 0-0.997-0.868z" fill="#efefef"/><g transform="translate(-48)" fill="#3c2589"><path d="m29.983 6.452h-20.106c-0.474 0-0.873 0.328-0.912 0.755a57.22 57.22 0 0 0-0.225 5.072c0 4.637 0.615 8.683 1.603 12.179 0.175 0.62 1.024 0.833 1.524 0.381l18.758-16.985c0.571-0.518 0.166-1.402-0.642-1.402zm-12.907 30.852c2.753 3.181 5.44 4.835 6.728 5.17a0.843 0.843 0 0 0 0.429 0c2.848-0.743 12.544-7.95 14.655-23.856 0.103-0.773-0.938-1.233-1.546-0.682l-20.189 18.281a0.769 0.769 0 0 0-0.077 1.087z"/></g></g></svg>
