<svg xmlns="http://www.w3.org/2000/svg" width="48" height="48" viewBox="0 0 48 48" version="1.1"><defs><filter id="a" x="-.036" width="1.072" y="-.036" height="1.072" color-interpolation-filters="sRGB"><feGaussianBlur stdDeviation=".63"/></filter></defs><g fill-opacity="1" stroke="none" stroke-opacity="1"><path d="M10.031 1008.3l-7 16 5.674.406-4.674 7.594 6.016 5.19v1.16l-3.016 9.65 12.145-4.25 8.855 6.25 17-7v-24l-13-10-4.974 5.527-4.026-4.527-13-2z" opacity=".3" fill="#000" fill-rule="evenodd" stroke-width="1" stroke-linecap="butt" stroke-linejoin="miter" filter="url(#a)" transform="translate(0 -1004.362)"/><g transform="translate(0 -1004.362)"><path d="M4 1031.362l8-13 15 12-2 11-10.91-1.296z" fill="#f2912c" fill-rule="evenodd" stroke-width="1" stroke-linecap="butt" stroke-linejoin="miter"/><path d="M7 1047.362l5-16 15 9z" fill="#9f5ba1" fill-rule="evenodd" stroke-width="1" stroke-linecap="butt" stroke-linejoin="miter"/><path d="M10 1007.362l13 2 8 9v7l-28-2z" fill="#f94275" fill-rule="evenodd" stroke-width="1" stroke-linecap="butt" stroke-linejoin="miter"/><path d="M32 1008.362l13 10v24l-17 7-17-12 3-9z" fill="#1c81ef" fill-rule="evenodd" stroke-width="1" stroke-linecap="butt" stroke-linejoin="miter"/><path d="M11.019 1014.394a.992.992 0 0 0-1.004.984v26.031c0 .545.448.984 1.004.984h25.992a.992.992 0 0 0 1.004-.984v-26.031a.992.992 0 0 0-1.004-.984z" opacity="1" fill="#000" stroke-width=".5"/><path d="M14.001 1018.344l6.006.01-.004 2.007h-1.996l-.006 6.008 2.014-.01v2h-6.004v-2h1.996l.008-6.01-2.014.012v-2.015zm12.983.01h2v6c0 2.216-1.784 4-4 4a3.975 3.975 0 0 1-3.533-2.157l1.937-.644a1.996 1.996 0 0 0 3.596-1.197z" opacity="1" fill="#fff" stroke-width=".5"/><rect ry="0" rx="0" y="1033.383" x="14.02" height="2" width="10" opacity="1" fill="#fff" stroke-width=".5"/></g></g></svg>