<svg xmlns="http://www.w3.org/2000/svg" width="48" height="48" version="1"><defs><filter id="a" color-interpolation-filters="sRGB"><feFlood flood-opacity=".196" flood-color="#000" result="flood"/><feComposite in="flood" in2="SourceGraphic" operator="in" result="composite1"/><feGaussianBlur in="composite1" stdDeviation="1" result="blur"/><feOffset dx="0" dy="1" result="offset"/><feComposite in="SourceGraphic" in2="offset" operator="over" result="composite2"/></filter></defs><g filter="url(#a)"><g fill="#8e8e8e"><path d="M44 27v2H4v-2zM44 23v2H4v-2zM44 19v2H4v-2zM44 15v2H4v-2zM44 31v2H4v-2zM44 35v2H4v-2zM44 39v2H4v-2zM44 11v2H4v-2zM44 7v2H4V7z"/><path d="M23 4h2v40h-2zM19 4h2v40h-2zM15 4h2v40h-2zM11 4h2v40h-2zM27 4h2v40h-2zM31 4h2v40h-2zM35 4h2v40h-2zM7 4h2v40H7zM39 4h2v40h-2z"/></g><rect transform="matrix(0 -1 -1 0 0 0)" ry="2.25" rx="1.8" y="-42" x="-42" height="36" width="36" fill="#b7b7b7"/><path d="M8.25 6C7.004 6 6 6.804 6 7.8v1C6 7.805 7.004 7 8.25 7h31.5C40.996 7 42 7.804 42 8.8v-1c0-.996-1.004-1.8-2.25-1.8H8.25z" opacity=".2" fill="#fff"/><path d="M6 40.199v1C6 42.196 7.004 43 8.25 43h31.5c1.246 0 2.25-.804 2.25-1.801v-1C42 41.196 40.996 42 39.75 42H8.25C7.004 42 6 41.196 6 40.199z" opacity=".2"/><rect ry="2" rx="2" y="10" x="10" height="28" width="28" fill="#d13232"/></g></svg>