<svg xmlns="http://www.w3.org/2000/svg" width="48" height="48" version="1"><defs><filter id="a" color-interpolation-filters="sRGB"><feFlood flood-opacity=".196" flood-color="#000" result="flood"/><feComposite in="flood" in2="SourceGraphic" operator="in" result="composite1"/><feGaussianBlur in="composite1" stdDeviation="1" result="blur"/><feOffset dx="0" dy="1" result="offset"/><feComposite in="SourceGraphic" in2="offset" operator="over" result="composite2"/></filter></defs><g filter="url(#a)"><g transform="translate(0 1)"><rect transform="matrix(0 -1 -1 0 0 0)" ry="19.982" rx="19.982" y="-43.98" x="-42.98" height="39.964" width="39.964" fill="#6573c3"/><path d="M38.129 8.87L9.871 37.13a19.939 19.939 0 0 0 28.259 0 19.939 19.939 0 0 0 0-28.26z" opacity=".1"/><path d="M24 3.018A19.938 19.938 0 0 0 4.018 23c0 .168-.004.333 0 .5C4.282 12.663 13.098 4.017 24 4.017s19.718 8.646 19.982 19.482c.004-.167 0-.332 0-.5A19.938 19.938 0 0 0 24 3.02z" opacity=".2" fill="#fff"/><path d="M9.87 37.129l12.364-15.895 1.673 1.673 1.859 1.86z" fill="#f2f2f2"/><path d="M38.129 8.87L22.234 21.235l3.532 3.532z" fill="#f34235"/><path d="M38.129 8.87L9.871 37.13a19.939 19.939 0 0 1 0-28.26 19.939 19.939 0 0 1 28.259 0z" opacity=".2" fill="#fff"/></g><path d="M4.031 24.526c-.004.164-.013.327-.013.492C4.018 36.088 12.93 45 24 45s19.982-8.912 19.982-19.982c0-.165-.01-.328-.013-.492-.26 10.841-9.064 19.492-19.97 19.492S4.292 35.367 4.032 24.526z" opacity=".2"/></g></svg>