<svg width="48px" height="48px" version="1.1" viewBox="0 0 48 48" xmlns="http://www.w3.org/2000/svg">
<title>application-rss+xml</title>
<path d="m8.9277 5c-0.55145 0-0.92773 0.42066-0.92773 0.97266v37c0 2e-3 -1e-5 0.0039 0 0.0059 8.4e-4 0.15256 0.02998 0.27637 0.06836 0.38672 0.0418 0.12017 0.1 0.21636 0.16992 0.29492 0.01644 0.02053 0.03282 0.0396 0.05078 0.05859 0.0411 0.03857 0.08455 0.06908 0.12891 0.09766 0.11615 0.08555 0.24891 0.14094 0.40234 0.16016 0.0215 4e-3 0.02852 0.0072 0.04688 0.0098 0.0216 0.0015 0.03837 0.01367 0.06055 0.01367h30.145c0.02218 0 0.03894-0.01216 0.06055-0.01367 0.01835-0.0025 0.02538-0.0057 0.04687-0.0098 0.15344-0.01921 0.28619-0.0746 0.40234-0.16016 0.04436-0.02858 0.0878-0.05908 0.12891-0.09766 0.01796-0.019 0.03435-0.03806 0.05078-0.05859 0.06992-0.07856 0.12812-0.17476 0.16992-0.29492 0.03838-0.11043 0.06751-0.23425 0.06835-0.3868 1.6e-5 -0.0029 0-0.0049 0-0.0078v-36.998c1e-5 -0.552-0.37628-0.97266-0.92772-0.97266h-21.082z" fill="#b3b3b3" fill-rule="evenodd" filter="url(#filter875)"/>
<desc>Created with Sketch.</desc>
<path d="m8.9277 5c-0.55145 0-0.92773 0.42066-0.92773 0.97266v37c0 2e-3 -1e-5 0.0039 0 0.0059 8.4e-4 0.15256 0.02998 0.27637 0.06836 0.38672 0.0418 0.12017 0.1 0.21636 0.16992 0.29492 0.01644 0.02053 0.03282 0.0396 0.05078 0.05859 0.0411 0.03857 0.08455 0.06908 0.12891 0.09766 0.11615 0.08555 0.24891 0.14094 0.40234 0.16016 0.0215 4e-3 0.02852 0.0072 0.04688 0.0098 0.0216 0.0015 0.03837 0.01367 0.06055 0.01367h30.145c0.02218 0 0.03894-0.01216 0.06055-0.01367 0.01835-0.0025 0.02538-0.0057 0.04687-0.0098 0.15344-0.01921 0.28619-0.0746 0.40234-0.16016 0.04436-0.02858 0.0878-0.05908 0.12891-0.09766 0.01796-0.019 0.03435-0.03806 0.05078-0.05859 0.06992-0.07856 0.12812-0.17476 0.16992-0.29492 0.03838-0.11043 0.06751-0.23425 0.06835-0.3868 1.6e-5 -0.0029 0-0.0049 0-0.0078v-36.998c1e-5 -0.552-0.37628-0.97266-0.92772-0.97266h-21.082z" fill="#fe6500" fill-rule="evenodd"/>
<defs>
<filter id="filter875" x="-.066563" y="-.054615" width="1.1331" height="1.1092" color-interpolation-filters="sRGB">
<feGaussianBlur stdDeviation="0.88750151"/>
</filter>
</defs>
<g fill="#fff" fill-rule="evenodd">
<circle cx="13" cy="39" r="2"/>
<path d="m11 31v2c4.4183 0 8 3.5817 8 8h2c0-5.5228-4.4772-10-10-10z"/>
<path d="m11 25v2c7.732 0 14 6.268 14 14h2c0-8.8366-7.1634-16-16-16z"/>
</g>
</svg>
