<svg xmlns="http://www.w3.org/2000/svg" width="48" height="48" version="1"><defs><filter id="a" color-interpolation-filters="sRGB"><feFlood flood-opacity=".196" flood-color="#000" result="flood"/><feComposite in="flood" in2="SourceGraphic" operator="in" result="composite1"/><feGaussianBlur in="composite1" stdDeviation="1" result="blur"/><feOffset dx="0" dy="1" result="offset"/><feComposite in="SourceGraphic" in2="offset" operator="over" result="composite2"/></filter></defs><g filter="url(#a)"><path d="M44 40V8c0-1.108-.892-2-2-2H6c-1.108 0-2 .892-2 2v32c0 1.108.892 2 2 2h36c1.108 0 2-.892 2-2z" fill="#4789d2"/><g opacity=".2"><g transform="translate(0 -1.001)"><rect ry="2" rx="2" y="16" x="15" height="4" width="26"/><path d="M13.988 11.988a1 1 0 0 0-.813.455c-1.02 1.526-2.087 3.575-3.11 5.44L8.9 15.553a1 1 0 0 0-1.79.895l2 4a1 1 0 0 0 1.762.052c1.3-2.248 2.772-5.16 3.965-6.943a1 1 0 0 0-.85-1.569z" fill-rule="evenodd"/></g><g><rect ry="2" rx="2" y="24" x="15" height="4" width="26"/><circle r="2" cy="26" cx="10"/></g><g transform="translate(0 1)"><rect ry="2" rx="2" y="32" x="15" height="4" width="26"/><circle r="2" cy="34" cx="10"/></g></g><g fill="#ffdd73"><g transform="translate(0 -2.001)"><rect ry="2" rx="2" y="16" x="15" height="4" width="26"/><path d="M13.988 11.988a1 1 0 0 0-.813.455c-1.02 1.526-2.087 3.575-3.11 5.44L8.9 15.553a1 1 0 0 0-1.79.895l2 4a1 1 0 0 0 1.762.052c1.3-2.248 2.772-5.16 3.965-6.943a1 1 0 0 0-.85-1.569z" fill-rule="evenodd"/></g><g transform="translate(0 -1)"><rect ry="2" rx="2" y="24" x="15" height="4" width="26"/><circle r="2" cy="26" cx="10"/></g><rect ry="2" rx="2" y="32" x="15" height="4" width="26"/><circle r="2" cy="34" cx="10"/></g><path d="M4 40v1c0 1.108.892 2 2 2h36c1.108 0 2-.892 2-2v-1c0 1.108-.892 2-2 2H6c-1.108 0-2-.892-2-2z" opacity=".2"/><path d="M6 6c-1.108 0-2 .892-2 2v1c0-1.108.892-2 2-2h36c1.108 0 2 .892 2 2V8c0-1.108-.892-2-2-2H6z" opacity=".2" fill="#fff"/></g></svg>