<svg xmlns="http://www.w3.org/2000/svg" width="48" height="48" version="1"><defs><filter id="a" color-interpolation-filters="sRGB"><feFlood flood-opacity=".196" flood-color="#000" result="flood"/><feComposite in="flood" in2="SourceGraphic" operator="in" result="composite1"/><feGaussianBlur in="composite1" stdDeviation="1" result="blur"/><feOffset dx="0" dy="1" result="offset"/><feComposite in="SourceGraphic" in2="offset" operator="over" result="composite2"/></filter></defs><g filter="url(#a)"><circle r="20" cy="24" cx="24" fill="#f5b35d"/><path d="M24 4A20 20 0 0 0 4 24a20 20 0 0 0 .021.582A20 20 0 0 1 24 5a20 20 0 0 1 19.979 19.418 20 20 0 0 0 .02-.418A20 20 0 0 0 24 4z" opacity=".2" fill="#fff"/><path d="M43.979 24.418A20 20 0 0 1 24 44 20 20 0 0 1 4.022 24.582 20 20 0 0 0 4 25a20 20 0 0 0 20 20 20 20 0 0 0 20-20 20 20 0 0 0-.021-.582z" opacity=".2"/><path d="M24 12a5 5 0 1 0 0 10 5 5 0 0 0 0-10zm0 13c-9.999.006-10 6.4-10 6.4V34s1.846 4 10 4 10-4 10-4v-2.6s0-6.404-9.998-6.4z" opacity=".2"/><path d="M24 11a5 5 0 1 0 0 10 5 5 0 0 0 0-10zm0 13c-9.999.006-10 6.4-10 6.4V33s1.846 4 10 4 10-4 10-4v-2.6s0-6.404-9.998-6.4z" fill="#3f3f3f"/></g></svg>