<svg width="48" height="48" version="1" xmlns="http://www.w3.org/2000/svg">
<defs>
<filter id="filter878" x="-.05775" y="-.062433" width="1.1155" height="1.1249" color-interpolation-filters="sRGB">
<feGaussianBlur stdDeviation="0.96249797"/>
</filter>
</defs>
<path d="m6 8s-0.125 0-0.3125 0.03125c-0.0013 1.985e-4 -0.0026-2.008e-4 -0.0039 0-0.08261 0.013103-0.16138 0.033813-0.24024 0.056641-0.04724 0.012456-0.09253 0.026459-0.14258 0.042969-0.04304 0.016047-0.08539 0.03192-0.12695 0.050781-0.46348 0.1827-0.96066 0.56762-1.1133 1.3477-0.036435 0.15144-0.060553 0.30777-0.060553 0.4707v29c0 1.108 0.892 2 2 2h14.43c2.0391 2.4509 3.5988 3.8313 3.9785 3.9395 0.27805 0.07933 13.478 0.08102 13.766 2e-3 0.13074-0.03592 0.31805-0.15519 0.45312-0.28906 0.18928-0.1876 0.26117-0.32561 0.4082-0.7793 0.26649-0.82231 0.5231-1.9025 0.71289-2.873h2.252c1.108 0 2-0.892 2-2v-29c0-1.108-0.892-2-2-2z" fill="#b3b3b3" filter="url(#filter878)"/>
<path d="m6 8s-2 0-2 2v28c0 1.108 0.892 2 2 2h36c1.108 0 2-0.892 2-2v-28c0-1.108-0.892-2-2-2z" fill="#1e88e5"/>
<circle cx="26" cy="22" r="7" opacity=".2"/>
<path d="m4 38v1c0 1.108 0.892 2 2 2h36c1.108 0 2-0.892 2-2v-1c0 1.108-0.892 2-2 2h-36c-1.108 0-2-0.892-2-2z" opacity=".2"/>
<path d="m6 8c-1.108 0-2 0.892-2 2v1c0-1.108 0.892-2 2-2h36c1.108 0 2 0.892 2 2v-1c0-1.108-0.892-2-2-2z" fill="#fff" opacity=".1"/>
<path d="m25.995 23c-1 0-2 1-2 2-0.01493 0.88276-0.01272 2.7252 0.0039 5.4434 0.02657 4.3451 0.01869 5.7096-0.0332 5.8965-1.4805-0.15612-3.1841-1.3262-4.186-2.1194-0.65484-0.51972-1.3035-0.99532-1.4414-1.0566-0.57487-0.25564-1.3897-0.09382-1.8574 0.36914-0.32342 0.32012-0.44418 0.60382-0.47266 1.1172-0.02176 0.3923-0.0069 0.48621 0.11328 0.74609 0.07573 0.16372 0.21161 0.3835 0.30273 0.48828 0.09111 0.10478 1.3386 1.7235 2.7715 3.5977 2.6536 3.4709 4.7566 5.3277 5.2114 5.4573 0.27805 0.07933 13.478 0.08107 13.766 2e-3 0.13074-0.03592 0.31805-0.15519 0.45312-0.28906 0.18928-0.1876 0.26117-0.32561 0.4082-0.7793 0.42096-1.2989 0.84161-3.2754 0.96061-4.3731 0.05175-1.2754 0.0243-2.4663 0-3.5-0.02235-0.95088 0.0016-1.8209 1e-6 -3 0-1-1-2-2-2s-2 1-2 2c4.16e-4 -0.29308 0.0037-0.81218 0-1 0-1-1-2-2-2-0.825 0-1.6408 0.68269-1.9043 1.4824-0.03237 0.01601-0.06427 0.03066-0.0957 0.04883-5.7e-4 -0.12758 2e-3 -0.43147 0-0.53125 0-1-1-2-2-2-0.84859 0-1.6902 0.72165-1.9277 1.5508-0.02005 0.02967-0.06233 0.09994-0.07227 0.10352-0.03049 0.01099 0-1.2467 0-3.127 0-1.288 0.0093-2.0527 0-2.5274 0-1-1-2-2-2z" opacity=".2"/>
<circle cx="26" cy="22" r="4" fill="#041218" opacity=".2"/>
<path d="m25.995 22c-1 0-2 1-2 2-0.01493 0.88276-0.01272 2.7252 0.0039 5.4434 0.02657 4.3451 0.01869 5.7096-0.0332 5.8965-1.4805-0.15612-3.1841-1.3262-4.186-2.1194-0.65484-0.51972-1.3035-0.99532-1.4414-1.0566-0.57487-0.25564-1.3897-0.09382-1.8574 0.36914-0.32342 0.32012-0.44418 0.60382-0.47266 1.1172-0.02176 0.3923-0.0069 0.48621 0.11328 0.74609 0.07573 0.16372 0.21161 0.3835 0.30273 0.48828 0.09111 0.10478 1.3386 1.7235 2.7715 3.5977 2.6536 3.4709 4.7566 5.3277 5.2114 5.4573 0.27805 0.07933 13.478 0.08107 13.766 2e-3 0.13074-0.03592 0.31805-0.15519 0.45312-0.28906 0.18928-0.1876 0.26117-0.32561 0.4082-0.7793 0.42096-1.2989 0.84161-3.2754 0.96061-4.3731 0.05175-1.2754 0.0243-2.4663 0-3.5-0.02235-0.95088 0.0016-1.8209 1e-6 -3 0-1-1-2-2-2s-2 1-2 2c4.16e-4 -0.29308 0.0037-0.81218 0-1 0-1-1-2-2-2-0.825 0-1.6408 0.68269-1.9043 1.4824-0.03237 0.01601-0.06427 0.03066-0.0957 0.04883-5.7e-4 -0.12758 2e-3 -0.43147 0-0.53125 0-1-1-2-2-2-0.84859 0-1.6902 0.72165-1.9277 1.5508-0.02005 0.02967-0.06233 0.09994-0.07227 0.10352-0.03049 0.01099 0-1.2467 0-3.127 0-1.288 0.0093-2.0527 0-2.5274 0-1-1-2-2-2z" fill="#ebebeb"/>
</svg>
