<svg xmlns="http://www.w3.org/2000/svg" width="48" height="48" version="1.1" viewBox="0 0 48 48"><defs><filter id="a" color-interpolation-filters="sRGB"><feFlood flood-opacity=".196" flood-color="#000" result="flood"/><feComposite in="flood" in2="SourceGraphic" operator="in" result="composite1"/><feGaussianBlur in="composite1" stdDeviation="1" result="blur"/><feOffset dx="0" dy="1" result="offset"/><feComposite in="SourceGraphic" in2="offset" operator="over" result="composite2"/></filter></defs><g filter="url(#a)"><path d="M14 35v6c0 2 2 2 2 2h24s2 0 2-2v-6H18z" opacity=".2"/><path d="M42 34h-4v8h2s2 0 2-2z" fill="#38732b"/><path fill="#ff0" d="M26 34h4v8h-4z"/><path fill="#38732b" d="M22 34h4v8h-4z"/><path fill="#ff0" d="M18 34h4v8h-4z"/><path d="M14 34h4v8h-2s-2 0-2-2z" fill="#38732b"/><path fill="#ff0" d="M34 34h4v8h-4z"/><path fill="#38732b" d="M30 34h4v8h-4z"/><rect transform="matrix(0 -1 -1 0 0 0)" ry="2" rx="2" y="-46" x="-39" height="40" width="32" opacity=".2"/><rect transform="matrix(0 -1 -1 0 0 0)" ry="2" rx="2" y="-46" x="-38" height="40" width="32" fill="#5bbd41"/><path d="M16.008 14h14l-14 18h14" opacity=".1" fill="none" stroke="#00090e" stroke-width="4" stroke-linecap="round" stroke-linejoin="round"/><path d="M16.008 13h14l-14 18h14" fill="none" stroke="#3f3f3f" stroke-width="4" stroke-linecap="round" stroke-linejoin="round"/><path d="M35.008 13h6l-6 8h6" opacity=".1" fill="none" stroke="#00090e" stroke-width="2" stroke-linecap="round" stroke-linejoin="round"/><path d="M35.008 12h6l-6 8h6" fill="none" stroke="#3f3f3f" stroke-width="2" stroke-linecap="round" stroke-linejoin="round"/><path d="M8 6c-1.108 0-2 .892-2 2v1c0-1.108.892-2 2-2h36c1.108 0 2 .892 2 2V8c0-1.108-.892-2-2-2z" opacity=".2" fill="#fff"/><path d="M4 7h4v33" opacity=".2" fill="none" stroke="#000" stroke-width="4" stroke-linecap="round" stroke-linejoin="round"/><path d="M4 6h4v33" fill="none" stroke="#e4e4e4" stroke-width="4" stroke-linecap="round" stroke-linejoin="round"/></g></svg>