<svg xmlns="http://www.w3.org/2000/svg" width="48" height="48" version="1"><defs><filter id="a" color-interpolation-filters="sRGB"><feFlood flood-opacity=".196" flood-color="#000" result="flood"/><feComposite in="flood" in2="SourceGraphic" operator="in" result="composite1"/><feGaussianBlur in="composite1" stdDeviation="1" result="blur"/><feOffset dx="0" dy="1" result="offset"/><feComposite in="SourceGraphic" in2="offset" operator="over" result="composite2"/></filter></defs><g filter="url(#a)"><path d="M44 39V9c0-1.108-.892-2-2-2H6c-1.108 0-2 .892-2 2v30c0 1.108.892 2 2 2h36c1.108 0 2-.892 2-2z" fill="#e3af4a"/><rect ry="2.002" rx="1.89" y="14" x="10" height="22" width="28" opacity=".2"/><path d="M4 39v1c0 1.108.892 2 2 2h36c1.108 0 2-.892 2-2v-1c0 1.108-.892 2-2 2H6c-1.108 0-2-.892-2-2z" opacity=".2"/><path d="M6 7c-1.108 0-2 .892-2 2v1c0-1.108.892-2 2-2h36c1.108 0 2 .892 2 2V9c0-1.108-.892-2-2-2H6z" opacity=".2" fill="#fff"/><rect ry="2.002" rx="1.89" y="13" x="10" height="22" width="28" fill="#faff84"/><rect ry="1.825" rx="1.984" y="23" x="18" height="4" width="12" opacity=".2"/><rect ry="1.825" rx="1.984" y="22" x="18" height="4" width="12" fill="#4e4e4e"/></g></svg>