<svg xmlns="http://www.w3.org/2000/svg" width="64" height="64" viewBox="0 0 64 64" version="1.1"><g transform="translate(0 -1058.52)" fill-opacity="1" stroke="none"><path fill="#2c3e50" d="M4 1064.52h56v52H4z"/><path d="M4 1063.52c-.554 0-1 .446-1 1v52c0 .554.446 1 1 1h56c.554 0 1-.446 1-1v-52c0-.554-.446-1-1-1H4zm1 4h54v48H5v-48z" opacity="1" fill="#34495e" stroke-opacity="1"/><circle cx="58" cy="1065.52" r="1" opacity="1" fill="#ecf0f1" stroke-opacity="1"/><path opacity="1" fill="#03c9a9" stroke-opacity="1" d="M5 1067.52h54v1.019H5z"/><path d="M3 1116.52c0 .554.446 1 1 1h56c.554 0 1-.446 1-1H3z" opacity="1" fill="#2c3e4f" stroke-width=".1" stroke-linecap="square" stroke-linejoin="miter" stroke-miterlimit="4" stroke-dashoffset="0" stroke-opacity="1"/><path opacity="1" fill="#dadfe1" stroke-opacity="1" d="M5 1108.52h39v1H5z"/><circle cx="43.5" cy="1109.019" r="2.5" opacity="1" fill="#dadfe1" stroke-width="1.25" stroke-linecap="round" stroke-linejoin="miter" stroke-miterlimit="4" stroke-opacity=".299"/><circle r="1.5" cy="1109.019" cx="43.5" opacity="1" fill="#6c7a89" stroke-width=".75" stroke-linecap="round" stroke-linejoin="miter" stroke-miterlimit="4" stroke-opacity=".299"/><path d="M25 1097.52v-20l14 10.769z" fill="#dadfe1" fill-rule="evenodd" stroke-width=".773" stroke-linecap="butt" stroke-linejoin="miter" stroke-opacity="1"/></g></svg>