<svg width="48" height="48" version="1" xmlns="http://www.w3.org/2000/svg">
<defs>
<filter id="filter892" x="-.057275" y="-.062997" width="1.1146" height="1.126" color-interpolation-filters="sRGB">
<feGaussianBlur stdDeviation="0.76367188"/>
</filter>
</defs>
<path d="m9.5938 8.9062c-0.887 0-1.5938 0.70775-1.5938 1.5938v25.9c0 0.887 0.71261 1.5996 1.5996 1.5996h28.801c0.886 0 1.5996-0.71261 1.5996-1.5996v-25.9c0-0.886-0.70675-1.5938-1.5938-1.5938z" fill="#ccc" filter="url(#filter892)"/>
<g transform="translate(-4,5)">
<path d="m12 8.9v21.5c0 0.887 0.713 1.6 1.6 1.6h28.801c0.886 0 1.599-0.713 1.599-1.6v-21.5z" fill="#d3d3d3"/>
<path d="m13.6 4c-0.887 0-1.6 0.713-1.6 1.6v3.4h32v-3.4c0-0.887-0.713-1.6-1.6-1.6z" fill="#5a6367"/>
<path d="m44 6v-0.5c0-0.886-0.707-1.594-1.594-1.594h-28.812c-0.887 0-1.594 0.708-1.594 1.594v0.5c0-0.886 0.707-1.594 1.594-1.594h28.812c0.887 0 1.594 0.708 1.594 1.594z" fill="#fff" opacity=".1"/>
<path d="m12 30.4v1c0 0.887 0.713 1.6 1.6 1.6h28.801c0.886 0 1.599-0.713 1.599-1.6v-1c0 0.887-0.713 1.6-1.6 1.6h-28.8c-0.887 0-1.6-0.713-1.6-1.6z" opacity=".2"/>
</g>
</svg>
