<svg xmlns="http://www.w3.org/2000/svg" width="48" height="48" version="1"><defs><filter id="a" color-interpolation-filters="sRGB"><feFlood flood-opacity=".196" flood-color="#000" result="flood"/><feComposite in="flood" in2="SourceGraphic" operator="in" result="composite1"/><feGaussianBlur in="composite1" stdDeviation="1" result="blur"/><feOffset dx="0" dy="1" result="offset"/><feComposite in="SourceGraphic" in2="offset" operator="over" result="composite2"/></filter></defs><g filter="url(#a)"><path d="M44 40V8c0-1.108-.892-2-2-2H6c-1.108 0-2 .892-2 2v32c0 1.108.892 2 2 2h36c1.108 0 2-.892 2-2z" fill="#316fb5"/><path d="M18.02 17A1 1 0 0 0 17 18v15.999a1 1 0 0 0 1.496.87l13.999-8a1 1 0 0 0 0-1.738l-13.999-8A1 1 0 0 0 18.02 17z" opacity=".2"/><path d="M18.02 16A1 1 0 0 0 17 17v15.999a1 1 0 0 0 1.496.87l13.999-8a1 1 0 0 0 0-1.738l-13.999-8A1 1 0 0 0 18.02 16z" fill="#60e5bd"/><path d="M4 40v1c0 1.108.892 2 2 2h36c1.108 0 2-.892 2-2v-1c0 1.108-.892 2-2 2H6c-1.108 0-2-.892-2-2z" opacity=".2"/><path d="M6 6c-1.108 0-2 .892-2 2v1c0-1.108.892-2 2-2h36c1.108 0 2 .892 2 2V8c0-1.108-.892-2-2-2H6z" fill="#fff" opacity=".1"/></g></svg>