<svg width="48" height="48" version="1" xmlns="http://www.w3.org/2000/svg" xmlns:xlink="http://www.w3.org/1999/xlink">
<defs>
<filter id="a" color-interpolation-filters="sRGB">
<feFlood flood-opacity=".196" result="flood"/>
<feComposite in="flood" in2="SourceGraphic" operator="in" result="composite1"/>
<feGaussianBlur in="composite1" result="blur" stdDeviation="1"/>
<feOffset dx="0" dy="1" result="offset"/>
<feComposite in="SourceGraphic" in2="offset" result="composite2"/>
</filter>
<linearGradient id="linearGradient900" x1=".59987" x2="47.401" y1="24" y2="24" gradientTransform="matrix(.53452 0 0 1.8708 7.5 5)" gradientUnits="userSpaceOnUse">
<stop stop-color="#628FFF" offset="0"/>
<stop stop-color="#4084FF" offset="1"/>
</linearGradient>
</defs>
<path d="m19.899 4a1.03 1.03 0 0 0-0.877 0.813l-0.845 4.282a16.148 16.148 0 0 0-4.195 2.406l-4.163-1.406a1.035 1.035 0 0 0-1.19 0.437l-4.007 6.938a1.03 1.03 0 0 0 0.219 1.25l3.318 2.906c-0.117 0.779-0.188 1.563-0.188 2.375s0.071 1.595 0.188 2.375l-3.318 2.906a1.03 1.03 0 0 0-0.22 1.25l4.008 6.937c0.232 0.394 0.757 0.587 1.19 0.438l4.163-1.407c1.252 1 2.678 1.814 4.195 2.407l0.845 4.28c0.086 0.449 0.514 0.807 0.97 0.813h8.015c0.457-6e-3 0.885-0.364 0.97-0.812l0.846-4.281a16.136 16.136 0 0 0 4.195-2.407l4.164 1.407c0.432 0.149 0.957-0.044 1.19-0.438l4.006-6.937a1.03 1.03 0 0 0-0.219-1.25l-3.317-2.906c0.117-0.78 0.188-1.563 0.188-2.375s-0.071-1.596-0.188-2.375l3.319-2.906a1.03 1.03 0 0 0 0.219-1.25l-4.007-6.938a1.034 1.034 0 0 0-1.19-0.438l-4.163 1.407a16.148 16.148 0 0 0-4.195-2.407l-0.845-4.28a1.034 1.034 0 0 0-0.971-0.814h-8.014a1.469 1.469 0 0 0-0.094 0z" fill="url(#linearGradient900)" filter="url(#a)"/>
<path d="m24 17a8 8 0 1 1 0 16 8 8 0 0 1 0-16z" filter="url(#a)" opacity=".2"/>
<path d="m24 16a8 8 0 1 1 0 16 8 8 0 0 1 0-16z" fill="#fff" filter="url(#a)"/>
<path d="m19.795 4c-0.436 0.046-0.82 0.39-0.899 0.804l-0.867 4.236a16.714 16.714 0 0 0-4.302 2.38l-4.27-1.391c-0.443-0.147-0.981 0.044-1.22 0.433l-4.109 6.863a0.904 0.904 0 0 0 0.225 0.247l0.16 0.124 3.725-6.245c0.238-0.389 0.776-0.58 1.22-0.433l4.27 1.391a16.706 16.706 0 0 1 4.301-2.38l0.867-4.236c0.08-0.414 0.463-0.758 0.899-0.803h8.314c0.469 6e-3 0.908 0.36 0.995 0.803l0.867 4.236a16.708 16.708 0 0 1 4.302 2.38l4.27-1.391c0.443-0.147 0.981 0.044 1.22 0.433l3.723 6.245 0.161-0.124a0.904 0.904 0 0 0 0.225-0.247l-4.11-6.863c-0.238-0.39-0.776-0.58-1.22-0.433l-4.27 1.39a16.714 16.714 0 0 0-4.301-2.38l-0.867-4.235c-0.088-0.443-0.526-0.797-0.995-0.804h-8.219a1.561 1.561 0 0 0-0.096 0zm-15.763 13.974c0.019 0.116 0.039 0.238 0.096 0.34-0.056-0.1-0.076-0.23-0.096-0.34zm39.936 0c-0.02 0.11-0.04 0.24-0.096 0.34 0.057-0.102 0.077-0.224 0.096-0.34zm-36.308 4.359c-0.033 0.317-0.047 0.638-0.064 0.958 6e-3 0.167 0.022 0.329 0.032 0.495 0.026-0.457 0.059-0.914 0.128-1.36l-0.096-0.094zm32.681 0-0.096 0.092c0.07 0.446 0.102 0.904 0.128 1.36 0.01-0.166 0.026-0.327 0.032-0.494-0.017-0.32-0.031-0.641-0.064-0.959zm-32.681 3.895-3.307 2.782a0.904 0.904 0 0 0-0.224 0.247l0.385 0.618 3.242-2.751c-0.045-0.294-0.065-0.6-0.096-0.897zm32.681 0c-0.03 0.296-0.05 0.602-0.096 0.896l3.242 2.751 0.385-0.618a0.916 0.916 0 0 0-0.225-0.248l-3.308-2.783zm-36.341 3.617c3e-3 0.054 0.02 0.103 0.032 0.155-0.013-0.053-0.027-0.1-0.032-0.155zm40 0c-5e-3 0.055-0.019 0.102-0.032 0.155 0.012-0.052 0.029-0.101 0.032-0.155z" fill="#fff" filter="url(#a)" opacity=".1"/>
<path d="m4.629 18.453-8e-3 0.016c-0.226 0.399-0.127 0.95 0.22 1.25l3.212 2.812c0.03-0.304 0.062-0.607 0.107-0.907l-3.318-2.906a0.97 0.97 0 0 1-0.213-0.267zm38.742 0a0.945 0.945 0 0 1-0.213 0.266l-3.318 2.906c0.045 0.3 0.077 0.603 0.107 0.906l3.211-2.813c0.348-0.298 0.447-0.85 0.221-1.25zm-35.381 6.047c-5e-3 0.167-0.02 0.33-0.02 0.5 0 0.498 0.034 0.986 0.081 1.469l0.108-0.094a16.619 16.619 0 0 1-0.168-1.875zm32.017 0a16.602 16.602 0 0 1-0.168 1.875l0.107 0.094c0.048-0.483 0.082-0.97 0.082-1.47 0-0.168-0.015-0.332-0.021-0.5zm-35.38 6.047c-0.163 0.3-0.176 0.685-7e-3 0.984l4.008 6.938c0.232 0.393 0.757 0.586 1.19 0.437l4.163-1.406c1.251 1 2.678 1.814 4.195 2.406l0.844 4.281c0.086 0.449 0.514 0.807 0.97 0.813h8.016c0.457-6e-3 0.885-0.364 0.971-0.813l0.844-4.28a16.17 16.17 0 0 0 4.195-2.408l4.164 1.406c0.432 0.15 0.957-0.044 1.19-0.437l4.007-6.938c0.17-0.299 0.156-0.684-8e-3 -0.984l-4 6.922a1.035 1.035 0 0 1-1.19 0.437l-4.161-1.405a16.135 16.135 0 0 1-4.196 2.407l-0.843 4.28a1.034 1.034 0 0 1-0.971 0.814h-8.018a1.034 1.034 0 0 1-0.97-0.813l-0.844-4.28a16.17 16.17 0 0 1-4.195-2.408l-4.164 1.406a1.035 1.035 0 0 1-1.19-0.437z" filter="url(#a)" opacity=".2"/>
</svg>
