<svg xmlns="http://www.w3.org/2000/svg" width="48" height="48" version="1"><defs><filter id="a" color-interpolation-filters="sRGB"><feFlood flood-opacity=".196" flood-color="#000" result="flood"/><feComposite in="flood" in2="SourceGraphic" operator="in" result="composite1"/><feGaussianBlur in="composite1" stdDeviation="1" result="blur"/><feOffset dx="0" dy="1" result="offset"/><feComposite in="SourceGraphic" in2="offset" operator="over" result="composite2"/></filter></defs><g filter="url(#a)"><path d="M23 5c-6.094 0-11 5.406-11 11.5V21c0 6.094 4.906 11 11 11h2c6.094 0 11-4.906 11-11v-4.5C36 10.406 31.094 5 25 5zm0 4h2c3.947 0 7 3.553 7 7.5V21c0 3.947-3.053 7-7 7h-2c-3.947 0-7-3.053-7-7v-4.5c0-3.947 3.053-7.5 7-7.5z" opacity=".2"/><path d="M23 4c-6.094 0-11 5.406-11 11.5V20c0 6.094 4.906 11 11 11h2c6.094 0 11-4.906 11-11v-4.5C36 9.406 31.094 4 25 4zm0 4h2c3.947 0 7 3.553 7 7.5V20c0 3.947-3.053 7-7 7h-2c-3.947 0-7-3.053-7-7v-4.5c0-3.947 3.053-7.5 7-7.5z" fill="#d2d2d2"/><path d="M8 42v1c0 1.108.892 2 2 2h28c1.108 0 2-.892 2-2v-1c0 1.108-.892 2-2 2H10c-1.108 0-2-.892-2-2z" opacity=".2"/><rect transform="matrix(0 -1 -1 0 0 0)" ry="2" rx="2" y="-40" x="-44" height="32" width="24" fill="#ffb437"/><path d="M10 20c-1.108 0-2 .892-2 2v1c0-1.108.892-2 2-2h28c1.108 0 2 .892 2 2v-1c0-1.108-.892-2-2-2H10z" opacity=".2" fill="#fff"/><rect ry="0" rx="0" y="24" x="8" height="14" width="32" fill="#fed96a"/><path d="M23 4c-6.094 0-11 5.406-11 11.5v1C12 10.406 16.906 5 23 5h2c6.094 0 11 5.406 11 11.5v-1C36 9.406 31.094 4 25 4z" opacity=".2" fill="#fff"/></g></svg>