<svg xmlns="http://www.w3.org/2000/svg" width="48" height="48" version="1"><defs><filter id="a" color-interpolation-filters="sRGB"><feFlood flood-opacity=".196" flood-color="#000" result="flood"/><feComposite in="flood" in2="SourceGraphic" operator="in" result="composite1"/><feGaussianBlur in="composite1" stdDeviation="1" result="blur"/><feOffset dx="0" dy="1" result="offset"/><feComposite in="SourceGraphic" in2="offset" operator="over" result="composite2"/></filter></defs><g filter="url(#a)"><path d="M6 6c-1.108 0-2 .892-2 2v32c0 1.108.892 2 2 2h36c1.108 0 2-.892 2-2V8c0-1.108-.892-2-2-2H6z" fill="#4ab3e4"/><path d="M6 6c-1.108 0-2 .892-2 2v2c0-1.108.892-3 2-3h36c1.108 0 2 1.892 2 3V8c0-1.108-.892-2-2-2z" opacity=".2" fill="#fff"/><path d="M4 40v1c0 1.108.892 2 2 2h36c1.108 0 2-.892 2-2v-1c0 1.108-.892 2-2 2H6c-1.108 0-2-.892-2-2z" opacity=".2"/><g opacity=".2"><path d="M26.042 35.8c.862-.786 1.564-1.686 1.843-2.98.555-2.573-.794-6.206-6.242-8.682-5.126-2.33-6.094-5.783-5.366-8.033.735-2.27 3.44-4.317 7.642-3.451.45.095.892.218 1.33.364-1.122-.757-4.215-1.33-6.258-.826-3.88.96-7.806 2.772-9.796 6.93-3.05 6.752-.054 14.737 6.678 17.796 3.722 1.659 7.244 1.503 10.17-1.117zM31.999 15a3 3 0 0 1-3 3 3 3 0 0 1-3-3 3 3 0 0 1 3-3 3 3 0 0 1 3 3zM37.999 19a3 3 0 0 1-3 3 3 3 0 0 1-3-3 3 3 0 0 1 3-3 3 3 0 0 1 3 3zM39.999 26a3 3 0 0 1-3 3 3 3 0 0 1-3-3 3 3 0 0 1 3-3 3 3 0 0 1 3 3z"/></g><g fill="#fff"><path d="M26.042 34.801c.862-.787 1.564-1.687 1.843-2.98.555-2.574-.794-6.206-6.242-8.682-5.126-2.33-6.094-5.784-5.366-8.034.735-2.269 3.44-4.317 7.642-3.45.45.094.892.217 1.33.363-1.122-.757-4.215-1.33-6.258-.826-3.88.96-7.806 2.772-9.796 6.93-3.05 6.753-.054 14.737 6.678 17.796 3.722 1.659 7.244 1.504 10.17-1.117zM31.999 14a3 3 0 0 1-3 3 3 3 0 0 1-3-3 3 3 0 0 1 3-3 3 3 0 0 1 3 3zM37.999 18a3 3 0 0 1-3 3 3 3 0 0 1-3-3 3 3 0 0 1 3-3 3 3 0 0 1 3 3zM39.999 25a3 3 0 0 1-3 3 3 3 0 0 1-3-3 3 3 0 0 1 3-3 3 3 0 0 1 3 3z"/></g></g></svg>