<svg xmlns="http://www.w3.org/2000/svg" width="48" height="48" version="1"><defs><clipPath id="b" clipPathUnits="userSpaceOnUse"><path fill="#ebebeb" d="M142 252c-1.108 0-2 .892-2 2v24c0 1.108.892 2 2 2h26v-28h-26z"/></clipPath><filter id="a" color-interpolation-filters="sRGB"><feFlood flood-opacity=".196" flood-color="#000" result="flood"/><feComposite in="flood" in2="SourceGraphic" operator="in" result="composite1"/><feGaussianBlur in="composite1" stdDeviation="1" result="blur"/><feOffset dx="0" dy="1" result="offset"/><feComposite in="SourceGraphic" in2="offset" operator="over" result="composite2"/></filter></defs><g filter="url(#a)"><path transform="translate(-136 -236)" clip-path="url(#b)" d="M152 268l16 12v-24l-16-16z" opacity=".5"/><path d="M6 16c-1.108 0-2 .892-2 2v24c0 1.108.892 2 2 2h26V16H6z" fill="#e4e4e4"/><path d="M4 18.5V18c0-1.108.892-2 2-2h26v.5H6c-1.108 0-2 .892-2 2z" opacity=".2" fill="#fff"/><path d="M15.403 22.554c.6.416 1.154.924 1.662 1.524l-.9 1.108a10.226 10.226 0 0 0-1.732-1.732l.97-.9m0 4.364c.554.415 1.085.877 1.593 1.385l-.9 1.177a9.507 9.507 0 0 0-1.663-1.662l.97-.9m.276 4.78l1.109.761a23.036 23.036 0 0 1-2.425 5.472l-1.178-.901a24.314 24.314 0 0 0 2.494-5.333M18.934 22l1.316.277c-.092.461-.23.9-.415 1.316h5.402v1.246h-5.956l-.624 1.04c-.185.369-.485.761-.9 1.177l-.832-.969c.877-1.062 1.547-2.424 2.008-4.087m-.346 4.295h6.372c0 1.431-.023 2.77-.069 4.017h.9v1.247h-.97c-.092.97-.16 1.916-.207 2.84h1.04v1.177h-1.178C24.29 37.192 23.643 38 22.535 38c-.277 0-.67-.046-1.177-.138l-.208-1.178c.6.093 1.062.139 1.385.139.323 0 .531-.416.624-1.247h-5.403c.185-1.247.346-2.586.485-4.017h-.97v-1.247h1.108c.093-1.293.162-2.632.208-4.017m1.04 4.017h3.947c.046-.97.07-1.916.07-2.84h-3.81a48.097 48.097 0 0 1-.208 2.84m1.732-2.493c.508.323.97.692 1.385 1.108l-.831 1.039a8.906 8.906 0 0 0-1.385-1.247l.83-.9m1.94 6.58c.092-.97.162-1.917.208-2.84h-3.948a43.568 43.568 0 0 1-.346 2.84h4.086m-2.147-2.494a9.2 9.2 0 0 1 1.524 1.108l-.9 1.04a9.611 9.611 0 0 0-1.455-1.317l.831-.83m-7.273-8.243v10.874H12.63v-1.178h-1.177v1.801h-1.247V23.662h3.671m-2.424 8.52h1.177V24.84h-1.177v7.342M4 42v1c0 1.108.892 2 2 2h26v-1H6c-1.108 0-2-.892-2-2z" opacity=".2"/><path d="M16 32l16 12V20L16 4z" fill="#a3a3a3"/><path d="M16 4v28h26c1.108 0 2-.892 2-2V6c0-1.108-.892-2-2-2H16z" fill="#2095f2"/><path d="M28.221 19.374l.393-1.472c.441-1.596.859-3.46 1.251-5.154h.098c.418 1.669.86 3.558 1.3 5.154l.369 1.472h-3.411M33.349 26h3.828l-5.006-16h-4.343L22.82 26h3.681l.982-3.804h4.883L33.35 26" fill="#fff"/><path d="M44 6.5c0-1.108-.892-2-2-2H16V4h26c1.108 0 2 .892 2 2v.5z" opacity=".2" fill="#fff"/><path d="M44 30c0 1.108-.892 2-2 2H16v1h26c1.108 0 2-.892 2-2v-1z" opacity=".2"/></g></svg>