<svg xmlns="http://www.w3.org/2000/svg" width="48" height="48" version="1"><defs><filter id="a" color-interpolation-filters="sRGB"><feFlood flood-opacity=".196" flood-color="#000" result="flood"/><feComposite in="flood" in2="SourceGraphic" operator="in" result="composite1"/><feGaussianBlur in="composite1" stdDeviation="1" result="blur"/><feOffset dx="0" dy="1" result="offset"/><feComposite in="SourceGraphic" in2="offset" operator="over" result="composite2"/></filter></defs><g filter="url(#a)"><rect transform="matrix(0 -1 -1 0 0 0)" ry="20" rx="20" y="-44" x="-44" height="40" width="40" fill="#3e50b4"/><path d="M24 12a3 3 0 1 0 0 6 3 3 0 0 0 0-6zm-10 8v2h7v16h2v-8h2v8h2V22h7v-2H21z" opacity=".2"/><path d="M24 11a3 3 0 1 0 0 6 3 3 0 0 0 0-6zm-10 8v2h7v16h2v-8h2v8h2V21h7v-2H21z" fill="#fff"/><path d="M24 4C12.92 4 4 12.92 4 24c0 .168-.004.333 0 .5C4.264 13.654 13.088 5 24 5s19.736 8.654 20 19.5c.004-.167 0-.332 0-.5 0-11.08-8.92-20-20-20z" opacity=".1" fill="#fff"/><path d="M4.012 24.5c-.004.167-.012.332-.012.5 0 11.08 8.92 20 20 20s20-8.92 20-20c0-.168-.008-.333-.012-.5C43.724 35.346 34.912 44 24 44S4.276 35.346 4.012 24.5z" opacity=".2"/></g></svg>