<svg width="48" height="48" version="1" xmlns="http://www.w3.org/2000/svg" xmlns:xlink="http://www.w3.org/1999/xlink">
<defs>
<filter id="a" color-interpolation-filters="sRGB">
<feFlood flood-opacity=".196" result="flood"/>
<feComposite in="flood" in2="SourceGraphic" operator="in" result="composite1"/>
<feGaussianBlur in="composite1" result="blur" stdDeviation="1"/>
<feOffset dx="0" dy="1" result="offset"/>
<feComposite in="SourceGraphic" in2="offset" result="composite2"/>
</filter>
<linearGradient id="linearGradient900" x1="-2.4" x2="50.4" y1="24" y2="24" gradientTransform="matrix(.53452 0 0 1.8708 7.5 5)" gradientUnits="userSpaceOnUse">
<stop stop-color="#628FFF" offset="0"/>
<stop stop-color="#4084FF" offset="1"/>
</linearGradient>
</defs>
<path d="m24 3.001c-2.23 2.2-4.363 4.811-6.618 7h-8.382v8.382c-2.189 2.255-4.8 4.389-7 6.617 2.2 2.229 4.811 4.447 7 6.71v8.29h8.381c2.255 2.19 4.39 4.8 6.619 7 2.23-2.2 4.448-4.81 6.71-7h8.292v-8.293c2.188-2.261 4.798-4.477 6.998-6.706-2.2-2.23-4.81-4.363-7-6.618v-8.383h-8.29c-2.263-2.189-4.482-4.8-6.71-7zm0 12.936a9.065 9.065 0 0 0 0 18.129z" filter="url(#a)" opacity=".2"/>
<path d="m24 2c-2.23 2.2-4.363 4.811-6.618 7h-8.382v8.382c-2.189 2.255-4.8 4.388-7 6.618 2.2 2.229 4.811 4.447 7 6.71v8.29h8.381c2.255 2.188 4.39 4.8 6.619 7 2.23-2.2 4.448-4.81 6.71-7h8.292v-8.293c2.188-2.261 4.798-4.477 6.998-6.706-2.2-2.23-4.81-4.363-7-6.618v-8.383h-8.29c-2.263-2.189-4.482-4.8-6.71-7zm0 12.936a9.065 9.065 0 0 0 0 18.129z" fill="url(#linearGradient900)" filter="url(#a)"/>
<path d="m24 12a12 12 0 0 0-12 12 12 12 0 0 0 12 12z" filter="url(#a)" opacity=".2"/>
<path d="m24 11a12 12 0 0 0-12 12 12 12 0 0 0 12 12z" fill="#fff" filter="url(#a)"/>
<path d="m24 2.002c-2.229 2.2-4.364 4.81-6.62 6.998h-8.38v1h8.38c2.256-2.189 4.39-4.798 6.62-6.998 2.228 2.2 4.448 4.811 6.709 7h8.291v-1.002h-8.291c-2.261-2.188-4.48-4.799-6.709-6.998zm-15 15.379c-2.19 2.255-4.8 4.389-7 6.619 0.165 0.168 0.346 0.334 0.516 0.502 2.087-2.05 4.46-4.034 6.484-6.12zm30 0v1.002c2.024 2.085 4.395 4.07 6.482 6.119 0.17-0.168 0.35-0.334 0.516-0.502-2.2-2.229-4.809-4.364-6.998-6.62z" fill="#fff" filter="url(#a)" opacity=".1"/>
</svg>
