<svg xmlns="http://www.w3.org/2000/svg" width="48" height="48" version="1.1"><defs><filter id="a" color-interpolation-filters="sRGB"><feFlood flood-opacity=".196" flood-color="#000" result="flood"/><feComposite in="flood" in2="SourceGraphic" operator="in" result="composite1"/><feGaussianBlur in="composite1" stdDeviation="1" result="blur"/><feOffset dx="0" dy="1" result="offset"/><feComposite in="SourceGraphic" in2="offset" operator="over" result="composite2"/></filter></defs><g filter="url(#a)"><path d="M44 24a20 20 0 0 1-20 20A20 20 0 0 1 4 24 20 20 0 0 1 24 4a20 20 0 0 1 20 20z" fill="#f56e2c"/><path d="M43.979 24.418A20 20 0 0 1 24 44 20 20 0 0 1 4.022 24.582 20 20 0 0 0 4 25a20 20 0 0 0 20 20 20 20 0 0 0 20-20 20 20 0 0 0-.021-.582z" opacity=".2"/><path d="M24 4A20 20 0 0 0 4 24a20 20 0 0 0 .021.582A20 20 0 0 1 24 5a20 20 0 0 1 19.978 19.418A20 20 0 0 0 44 24 20 20 0 0 0 24 4z" opacity=".2" fill="#fff"/><path d="M17 13v24h14v-6h-8V13h-6z" opacity=".2"/><path d="M17 12v24h14v-6h-8V12h-6z" fill="#fff"/></g></svg>