<svg width="48" height="48" version="1" xmlns="http://www.w3.org/2000/svg" xmlns:xlink="http://www.w3.org/1999/xlink">
<defs>
<filter id="a" color-interpolation-filters="sRGB">
<feFlood flood-opacity=".196" result="flood"/>
<feComposite in="flood" in2="SourceGraphic" operator="in" result="composite1"/>
<feGaussianBlur in="composite1" result="blur" stdDeviation="1"/>
<feOffset dx="0" dy="1" result="offset"/>
<feComposite in="SourceGraphic" in2="offset" result="composite2"/>
</filter>
<linearGradient id="linearGradient921" x2="48" y1="24" y2="24" gradientTransform="matrix(.53108 0 0 1.8829 7.5 5)" gradientUnits="userSpaceOnUse">
<stop stop-color="#C926EA" offset="0"/>
<stop stop-color="#B505C3" offset="1"/>
</linearGradient>
</defs>
<path d="m6 6c-1.108 0-2 0.892-2 2v32c0 1.108 0.892 2 2 2h36c1.108 0 2-0.892 2-2v-32c0-1.108-0.892-2-2-2z" fill="url(#linearGradient921)" filter="url(#a)"/>
<path d="m6 6c-1.108 0-2 0.892-2 2v2c0-1.108 0.892-3 2-3h36c1.108 0 2 1.892 2 3v-2c0-1.108-0.892-2-2-2z" fill="#fff" filter="url(#a)" opacity=".1"/>
<path d="m4 40v1c0 1.108 0.892 2 2 2h36c1.108 0 2-0.892 2-2v-1c0 1.108-0.892 2-2 2h-36c-1.108 0-2-0.892-2-2z" filter="url(#a)" opacity=".2"/>
<g fill="#fff">
<circle transform="scale(-1,1)" cx="-24" cy="14" r="2" filter="url(#a)" opacity=".6"/>
<circle transform="scale(-1,1)" cx="-24" cy="34" r="2" filter="url(#a)"/>
<circle transform="matrix(0,1,1,0,0,0)" cx="24" cy="14" r="2" filter="url(#a)" opacity=".8"/>
<circle transform="matrix(0,1,1,0,0,0)" cx="24" cy="34" r="2" filter="url(#a)" opacity=".4"/>
<circle transform="matrix(.70711 .70711 .70711 -.70711 0 0)" cx="33.941" cy="-10" r="2" filter="url(#a)" opacity=".9"/>
<circle transform="matrix(.70711 .70711 .70711 -.70711 0 0)" cx="33.941" cy="10" r="2" filter="url(#a)" opacity=".5"/>
<circle transform="rotate(135)" cy="-43.941" r="2" filter="url(#a)" opacity=".3"/>
<circle transform="rotate(135)" cy="-23.941" r="2" filter="url(#a)" opacity=".7"/>
</g>
<path d="m22.064 14.496a2 2 0 0 0-0.064 0.504 2 2 0 0 0 2 2 2 2 0 0 0 2-2 2 2 0 0 0-0.064-0.496 2 2 0 0 1-1.936 1.496 2 2 0 0 1-1.936-1.504zm-3.2 2.932a2 2 0 0 1-0.52 0.916 2 2 0 0 1-2.828 0 2 2 0 0 1-0.52-0.912 2 2 0 0 0 0.52 1.912 2 2 0 0 0 2.828 0 2 2 0 0 0 0.52-1.916zm14.14 0a2 2 0 0 1-0.52 0.916 2 2 0 0 1-2.828 0 2 2 0 0 1-0.52-0.912 2 2 0 0 0 0.52 1.912 2 2 0 0 0 2.828 0 2 2 0 0 0 0.52-1.916zm-20.94 7.068a2 2 0 0 0-0.064 0.504 2 2 0 0 0 2 2 2 2 0 0 0 2-2 2 2 0 0 0-0.064-0.496 2 2 0 0 1-1.936 1.496 2 2 0 0 1-1.936-1.504zm20 0a2 2 0 0 0-0.064 0.504 2 2 0 0 0 2 2 2 2 0 0 0 2-2 2 2 0 0 0-0.064-0.496 2 2 0 0 1-1.936 1.496 2 2 0 0 1-1.936-1.504zm-13.2 7.072a2 2 0 0 1-0.52 0.916 2 2 0 0 1-2.828 0 2 2 0 0 1-0.52-0.912 2 2 0 0 0 0.52 1.912 2 2 0 0 0 2.828 0 2 2 0 0 0 0.52-1.916zm14.14 0a2 2 0 0 1-0.52 0.916 2 2 0 0 1-2.828 0 2 2 0 0 1-0.52-0.912 2 2 0 0 0 0.52 1.912 2 2 0 0 0 2.828 0 2 2 0 0 0 0.52-1.916zm-10.94 2.928a2 2 0 0 0-0.064 0.504 2 2 0 0 0 2 2 2 2 0 0 0 2-2 2 2 0 0 0-0.064-0.496 2 2 0 0 1-1.936 1.496 2 2 0 0 1-1.936-1.504z" filter="url(#a)" opacity=".2"/>
</svg>
