<?xml version="1.0" encoding="UTF-8"?>
<svg width="48" height="48" version="1.1" viewBox="0 0 48 48" xmlns="http://www.w3.org/2000/svg" xmlns:cc="http://creativecommons.org/ns#" xmlns:dc="http://purl.org/dc/elements/1.1/" xmlns:rdf="http://www.w3.org/1999/02/22-rdf-syntax-ns#" xmlns:xlink="http://www.w3.org/1999/xlink">
 <metadata>
  <rdf:RDF>
   <cc:Work rdf:about="">
    <dc:format>image/svg+xml</dc:format>
    <dc:type rdf:resource="http://purl.org/dc/dcmitype/StillImage"/>
    <dc:title>计算机-48px</dc:title>
   </cc:Work>
  </rdf:RDF>
 </metadata>
 <title>计算机-48px</title>
 <defs>
  <linearGradient id="linearGradient941" x1="19.183" x2="19.183" y1="13.113" y2="40.035" gradientTransform="scale(1.2511 .79931)" gradientUnits="userSpaceOnUse">
   <stop stop-color="#0E004D" offset="0"/>
   <stop stop-color="#4735E4" offset="1"/>
  </linearGradient>
  <filter id="filter1001" color-interpolation-filters="sRGB">
   <feFlood flood-color="rgb(0,0,0)" flood-opacity=".19608" result="flood"/>
   <feComposite in="flood" in2="SourceGraphic" operator="in" result="composite1"/>
   <feGaussianBlur in="composite1" result="blur" stdDeviation="0.5"/>
   <feOffset dx="0" dy="1" result="offset"/>
   <feComposite in="SourceGraphic" in2="offset" result="composite2"/>
  </filter>
 </defs>
 <g fill-rule="evenodd" filter="url(#filter1001)">
  <rect x="4" y="7" width="40" height="32" rx="2" fill="#f6fcff"/>
  <rect x="5" y="8" width="38" height="25" rx=".5"/>
  <path d="m6 9h36v23h-36z" fill="url(#linearGradient941)"/>
  <path d="m42 24.395-3-1.395-4-4.421-2 0.895-4-4.474-2 1.79-2-1.79-8.072 8.577-7.428 0.818-3.5 1.79v5.815h35c0.552 0 1-0.453 1-0.994z" fill="#3612c1"/>
  <path d="m18 32 19-4.474 5 2.685v1.789z" fill="#4224ca"/>
  <path d="m32.5 24.395 2.5-5.816 2 8.947z" fill="#5042ec"/>
  <path d="m25 15-3 6-3 3.842-5 1.79z" fill="#ab76ef"/>
  <path d="m27 19.474-2 0.894 5 1.343 1-0.806-2-2.326z" fill="#4531d8"/>
  <path d="m26 17.684-4 3.316 3-0.632 4-1.789z" fill="#7365ee"/>
  <path d="m22 21 2.5 4.468-5.5-0.626z" fill="#5241eb"/>
  <path d="m19 24.842-5 1.79 3 1.968z" fill="#6c51ef"/>
  <path d="m11 28.689 6-0.089 1 3.4z" fill="#3e2bcd"/>
  <path d="m17 28.6 9-3.758 2-1.789 0.5 1.789-10.5 7.158z" fill="#593ef3"/>
  <path d="m6 32 5-3.311 7 3.311z" fill="#4735e4"/>
  <path d="m26 17.684-1-2.684-2 4z" fill="#523de0"/>
  <path d="m18 32 9-7.158 5.5-0.447 4.5 3.131z" fill="#654af8"/>
  <path d="m28 23.053 5-3.579 2-0.895-2.5 5.816-6.5 1.342z" fill="#7f5ef1"/>
  <path d="m28 23.053-2 2.684 4.5-2.237 4.5-4.921-2 0.895z" fill="#b57bff"/>
  <path d="m29 15-3 2.684 3 0.895z" fill="#ab76ef"/>
  <path d="m25 20.368 3 2.685-2 1.789-1.6 0.537z" fill="#442ae7"/>
  <path d="m14 26.632-4.5-2.237 7.5-0.895z" fill="#7f5ef1"/>
  <path d="m9.5 24.395-3.5 1.789 8 0.448z" fill="#593ef3"/>
  <path d="m12 27.079-1 1.61-5 3.311v-3.579z" fill="#452ac5"/>
  <path d="m32.5 24.395-0.5 4.294 5-1.163z" fill="#411bce"/>
  <path d="m6 28.421v-2.237l8 0.448z" fill="#6f4ee6"/>
  <path d="m6 9h9.5l12.5 23h-22z" fill="#fff" opacity=".123"/>
 </g>
</svg>
