<?xml version="1.0" encoding="UTF-8"?>
<svg width="48" height="48" version="1.1" viewBox="0 0 48 48" xmlns="http://www.w3.org/2000/svg" xmlns:cc="http://creativecommons.org/ns#" xmlns:dc="http://purl.org/dc/elements/1.1/" xmlns:rdf="http://www.w3.org/1999/02/22-rdf-syntax-ns#" xmlns:xlink="http://www.w3.org/1999/xlink">
 <metadata>
  <rdf:RDF>
   <cc:Work rdf:about="">
    <dc:format>image/svg+xml</dc:format>
    <dc:type rdf:resource="http://purl.org/dc/dcmitype/StillImage"/>
    <dc:title/>
   </cc:Work>
  </rdf:RDF>
 </metadata>
 <defs>
  <rect id="deepin-virtualkeyboard-b" x="4" y="5" width="40" height="38" rx="7.573"/>
  <filter id="filter903" color-interpolation-filters="sRGB">
   <feFlood flood-color="rgb(0,0,0)" flood-opacity=".19608" result="flood"/>
   <feComposite in="flood" in2="SourceGraphic" operator="in" result="composite1"/>
   <feGaussianBlur in="composite1" result="blur" stdDeviation="1.5"/>
   <feOffset dx="4.57967e-15" dy="1.5" result="offset"/>
   <feComposite in="SourceGraphic" in2="offset" result="composite2"/>
  </filter>
  <linearGradient id="linearGradient849" x1="23.392" x2="23.392" y1="5.1299" y2="43.392" gradientTransform="scale(1.026 .97468)" gradientUnits="userSpaceOnUse">
   <stop stop-color="#FFF" offset="0"/>
   <stop stop-color="#EDEDED" offset="1"/>
  </linearGradient>
  <linearGradient id="linearGradient851" x1="17.611" x2="17.611" y1="23.167" y2="42.246" gradientTransform="matrix(1.3628 0 0 .7338 -52 0)" gradientUnits="userSpaceOnUse">
   <stop stop-color="#4A4A4A" offset="0"/>
   <stop stop-color="#363636" offset=".97645"/>
  </linearGradient>
  <filter id="filter929" color-interpolation-filters="sRGB">
   <feFlood flood-color="rgb(0,0,0)" flood-opacity=".19608" result="flood"/>
   <feComposite in="flood" in2="SourceGraphic" operator="in" result="composite1"/>
   <feGaussianBlur in="composite1" result="blur" stdDeviation="0.5"/>
   <feOffset dx="0" dy="1" result="offset"/>
   <feComposite in="SourceGraphic" in2="offset" result="composite2"/>
  </filter>
 </defs>
 <g transform="translate(52)" filter="url(#filter929)">
  <use transform="translate(-52)" width="100%" height="100%" fill="url(#linearGradient849)" fill-rule="evenodd" xlink:href="#deepin-virtualkeyboard-b"/>
  <path d="m-19 17h4v4h-4zm-5 0h4v4h-4zm-5 0h4v4h-4zm6 5v4h-4v-4zm-11-5h4v4h-4zm6 5v4h-4v-4zm-13-5h6v4h-6zm0 5h8v4h-8zm21 9h-15v-4h15zm-16 0h-5v-4h5zm21-5h-7v-4h7zm0 5h-4v-4h4z" fill="url(#linearGradient851)" filter="url(#filter903)"/>
 </g>
</svg>
