<svg xmlns="http://www.w3.org/2000/svg" width="48" height="48" version="1.1" viewBox="0 0 48 48"><defs><filter id="a" color-interpolation-filters="sRGB"><feFlood flood-opacity=".196" flood-color="#000" result="flood"/><feComposite in="flood" in2="SourceGraphic" operator="in" result="composite1"/><feGaussianBlur in="composite1" stdDeviation="1" result="blur"/><feOffset dx="0" dy="1" result="offset"/><feComposite in="SourceGraphic" in2="offset" operator="over" result="composite2"/></filter></defs><g filter="url(#a)"><path d="M6 6c-1.108 0-2 .892-2 2v32c0 1.108.892 2 2 2h36c1.108 0 2-.892 2-2V8c0-1.108-.892-2-2-2H6z" fill="#8b346f"/><path d="M6 6c-1.108 0-2 .892-2 2v32c0 1.108.892 2 2 2h8V6H6z" opacity=".2"/><path d="M6 6c-1.108 0-2 .892-2 2v1c0-1.108.892-2 2-2h36c1.108 0 2 .892 2 2V8c0-1.108-.892-2-2-2z" opacity=".1" fill="#fff"/><g transform="translate(2 -1002.4)" opacity=".2"><rect ry=".5" rx=".5" y="1012.4" x="5" height="4" width="4"/><rect ry=".5" rx=".5" y="1018.4" x="5" height="4" width="4"/><rect ry=".5" rx=".5" y="1024.4" x="5" height="4" width="4"/><rect ry=".5" rx=".5" y="1030.4" x="5" height="4" width="4"/></g><rect ry=".5" rx=".5" y="9" x="7" height="4" width="4" fill="#fff"/><rect ry=".5" rx=".5" y="15" x="7" height="4" width="4" fill="#fff"/><rect ry=".5" rx=".5" y="21" x="7" height="4" width="4" fill="#fff"/><rect ry=".5" rx=".5" y="27" x="7" height="4" width="4" fill="#fff"/><path d="M4 40v1c0 1.108.892 2 2 2h36c1.108 0 2-.892 2-2v-1c0 1.108-.892 2-2 2H6c-1.108 0-2-.892-2-2z" opacity=".2"/></g></svg>