<svg xmlns="http://www.w3.org/2000/svg" width="48" height="48" version="1"><defs><filter id="a" color-interpolation-filters="sRGB"><feFlood flood-opacity=".196" flood-color="#000" result="flood"/><feComposite in="flood" in2="SourceGraphic" operator="in" result="composite1"/><feGaussianBlur in="composite1" stdDeviation="1" result="blur"/><feOffset dx="0" dy="1" result="offset"/><feComposite in="SourceGraphic" in2="offset" operator="over" result="composite2"/></filter></defs><g filter="url(#a)"><path d="M32.643 4.97a15 15 0 0 1-11.842 9.647A15 15 0 0 1 21 17 15 15 0 0 1 6.139 31.992C9.422 38.526 16.162 43 24 43c11.08 0 20-8.92 20-20 0-7.976-4.634-14.814-11.357-18.029z" fill="#dfbe57"/><path d="M43.984 23.596A19.95 19.95 0 0 1 24 43c-7.434 0-13.884-4.023-17.33-10.013l-.543.008.082.162A19.947 19.947 0 0 0 24 44c11.08 0 20-8.92 20-20 0-.136-.013-.269-.015-.404z" opacity=".2"/><path d="M32.643 4.97a15 15 0 0 1-11.842 9.647 15 15 0 0 1 .111.979 15 15 0 0 0 11.731-9.625c6.607 3.16 11.187 9.821 11.343 17.62.006-.196.014-.392.014-.591 0-7.976-4.634-14.814-11.357-18.03zM20.98 17.394A15 15 0 0 1 6.139 31.992c.167.333.35.657.535.979A15 15 0 0 0 21 18a15 15 0 0 0-.02-.607z" opacity=".2" fill="#fff"/></g></svg>