<?xml version="1.0" encoding="UTF-8"?>
<svg width="48" height="48" version="1.1" viewBox="0 0 48 48" xmlns="http://www.w3.org/2000/svg" xmlns:cc="http://creativecommons.org/ns#" xmlns:dc="http://purl.org/dc/elements/1.1/" xmlns:rdf="http://www.w3.org/1999/02/22-rdf-syntax-ns#" xmlns:xlink="http://www.w3.org/1999/xlink">
 <metadata>
  <rdf:RDF>
   <cc:Work rdf:about="">
    <dc:format>image/svg+xml</dc:format>
    <dc:type rdf:resource="http://purl.org/dc/dcmitype/StillImage"/>
    <dc:title/>
   </cc:Work>
  </rdf:RDF>
 </metadata>
 <defs>
  <linearGradient id="linearGradient914" x2="48" y1="22" y2="22" gradientTransform="scale(1.0801 .92582)" gradientUnits="userSpaceOnUse">
   <stop stop-color="#23FFBE" offset="0"/>
   <stop stop-color="#3FDA88" offset="1"/>
  </linearGradient>
  <filter id="filter1050" color-interpolation-filters="sRGB">
   <feFlood flood-color="rgb(0,0,0)" flood-opacity=".19608" result="flood"/>
   <feComposite in="flood" in2="SourceGraphic" operator="in" result="composite1"/>
   <feGaussianBlur in="composite1" result="blur" stdDeviation="1"/>
   <feOffset dx="0" dy="1" result="offset"/>
   <feComposite in="SourceGraphic" in2="offset" result="composite2"/>
  </filter>
 </defs>
 <g filter="url(#filter1050)">
  <path d="m6 6c-1.108 0-2 0.892-2 2v30h40v-30c0-1.108-0.892-2-2-2z" fill="url(#linearGradient914)"/>
  <path d="m6 42c-1.108 0-2-0.892-2-2v-2h40v2c0 1.108-0.892 2-2 2z" fill="#4f4f4f"/>
  <path d="m6 6c-1.108 0-2 0.892-2 2v1c0-1.108 0.892-2 2-2h36c1.108 0 2 0.892 2 2v-1c0-1.108-0.892-2-2-2z" fill="#fff" opacity=".1"/>
  <rect x="16" y="19" width="16" height="12" rx="1" ry="1" opacity=".2"/>
  <path d="m16 20v9c0 0.554 0.446 1 1 1h14c0.554 0 1-0.446 1-1v-9z" fill="#fff"/>
  <path d="m17 18h14c0.554 0 1 0.446 1 1v1h-16v-1c0-0.554 0.446-1 1-1z" fill="#4f4f4f"/>
  <g transform="translate(2,-1002.4)" opacity=".2">
   <rect x="5" y="1012.4" width="4" height="4" rx=".5" ry=".5"/>
   <rect x="5" y="1018.4" width="4" height="4" rx=".5" ry=".5"/>
   <rect x="5" y="1024.4" width="4" height="4" rx=".5" ry=".5"/>
   <rect x="5" y="1030.4" width="4" height="4" rx=".5" ry=".5"/>
  </g>
  <g fill="#fff">
   <rect x="7" y="9" width="4" height="4" rx=".5" ry=".5"/>
   <rect x="7" y="15" width="4" height="4" rx=".5" ry=".5"/>
   <rect x="7" y="21" width="4" height="4" rx=".5" ry=".5"/>
   <rect x="7" y="27" width="4" height="4" rx=".5" ry=".5"/>
  </g>
  <path d="m4 40v1c0 1.108 0.892 2 2 2h36c1.108 0 2-0.892 2-2v-1c0 1.108-0.892 2-2 2h-36c-1.108 0-2-0.892-2-2z" opacity=".2"/>
 </g>
</svg>
