<svg width="48px" height="48px" version="1.1" viewBox="0 0 48 48" xmlns="http://www.w3.org/2000/svg">
<title>text-x-python</title>
<desc>Created with Sketch.</desc>
<path d="m9 5c-0.62338 0-1 0.42-1 1v9 28c0.0044036 0.13774 0.029539 0.25306 0.064453 0.35547 0.0083815 0.023496 0.021209 0.043681 0.03125 0.066406 0.039634 0.091866 0.087647 0.16976 0.14453 0.23438 0.018384 0.021863 0.036247 0.042313 0.056641 0.0625 0.072958 0.068266 0.14943 0.12149 0.22852 0.16016 0.064455 0.033483 0.13793 0.051287 0.21289 0.070313 0.14311 0.036362 0.25977 0.050781 0.25977 0.050781 6.976e-4 1e-6 0.0012549 0 0.0019531 0h30c6.98e-4 0 0.001256 1e-6 0.001953 0 0 0 0.11665-0.014419 0.25977-0.050781 0.074959-0.019026 0.14844-0.03683 0.21289-0.070313 0.079085-0.038664 0.15556-0.09189 0.22852-0.16016 0.020394-0.020187 0.038256-0.040637 0.056641-0.0625 0.056884-0.064612 0.1049-0.14251 0.14453-0.23438 0.010041-0.022725 0.022868-0.04291 0.03125-0.066406 0.034914-0.10241 0.060049-0.21773 0.064453-0.35547v-28-9c0-0.58-0.37662-1-1-1h-8.9902-12.02-8.9902z" fill="#ccc" fill-rule="evenodd" filter="url(#filter859)"/>
<defs>
<filter id="filter859" x="-.066562" y="-.054615" width="1.1331" height="1.1092" color-interpolation-filters="sRGB">
<feGaussianBlur stdDeviation="0.88750001"/>
</filter>
</defs>
<g fill-rule="evenodd">
<path d="m9 5c-0.62338 0-1 0.42-1 1v9 28c0.0044036 0.13774 0.029539 0.25306 0.064453 0.35547 0.0083815 0.023496 0.021209 0.043681 0.03125 0.066406 0.039634 0.091866 0.087647 0.16976 0.14453 0.23438 0.018384 0.021863 0.036247 0.042313 0.056641 0.0625 0.072958 0.068266 0.14943 0.12149 0.22852 0.16016 0.064455 0.033483 0.13793 0.051287 0.21289 0.070313 0.14311 0.036362 0.25977 0.050781 0.25977 0.050781 6.976e-4 1e-6 0.0012549 0 0.0019531 0h30c6.98e-4 0 0.001256 1e-6 0.001953 0 0 0 0.11665-0.014419 0.25977-0.050781 0.074959-0.019026 0.14844-0.03683 0.21289-0.070313 0.079085-0.038664 0.15556-0.09189 0.22852-0.16016 0.020394-0.020187 0.038256-0.040637 0.056641-0.0625 0.056884-0.064612 0.1049-0.14251 0.14453-0.23438 0.010041-0.022725 0.022868-0.04291 0.03125-0.066406 0.034914-0.10241 0.060049-0.21773 0.064453-0.35547v-28-9c0-0.58-0.37662-1-1-1h-8.9902-12.02-8.9902z" fill="#fff"/>
<path id="Combined-Shape" d="m19 30h-1.0075c-1.6527 0-2.9925-2-2.9925-4.5s1.3529-4.5 2.9925-4.5h2.0075v-2.0075c0-1.6527 1.5-2.9925 4-2.9925s4 1.3529 4 2.9925v4.5095c0 0.82498-0.67188 1.4979-1.4974 1.4979h-5.0052c-1.3782 0-2.4974 1.1189-2.4974 2.4979zm3-10c0.55228 0 1-0.44772 1-1s-0.44772-1-1-1-1 0.44772-1 1 0.44772 1 1 1z" fill="#4795d1"/>
<path d="m29 21h1.0075c1.6527 0 2.9925 2 2.9925 4.5s-1.3529 4.5-2.9925 4.5h-2.0075v2.0075c0 1.6527-1.5 2.9925-4 2.9925s-4-1.3529-4-2.9925v-4.5095c0-0.82498 0.67188-1.4979 1.4974-1.4979h5.0052c1.3782 0 2.4974-1.1189 2.4974-2.4979zm-3 10c-0.55228 0-1 0.44772-1 1s0.44772 1 1 1 1-0.44772 1-1-0.44772-1-1-1z" fill="#ffc851"/>
</g>
</svg>
