<svg width="48" height="48" viewBox="0 0 48 48" version="1.1" xmlns="http://www.w3.org/2000/svg" xmlns:xlink="http://www.w3.org/1999/xlink"><title>Scrabble3D-48</title><defs><path id="a" d="M0 0h2.933v2.933H0z"/><path id="b" d="M0 17.6h2.933v2.933H0z"/><path id="c" d="M0 2.933h2.933v2.934H0z"/><path id="d" d="M0 20.533h2.933v2.934H0z"/><path id="e" d="M0 5.867h2.933V8.8H0z"/><path id="f" d="M0 23.467h2.933V26.4H0z"/><path id="g" d="M0 8.8h2.933v2.933H0z"/><path id="h" d="M0 26.4h2.933v2.933H0z"/><path id="i" d="M0 11.733h2.933v2.934H0z"/><path id="j" d="M0 29.333h2.933v2.933H0z"/><path id="k" d="M0 35.2h2.933v2.933H0z"/><path id="l" d="M0 14.667h2.933V17.6H0z"/><path id="m" d="M0 32.267h2.933V35.2H0z"/><path id="n" d="M0 38.133h2.933v2.934H0z"/><path id="o" d="M0 41.067h2.933V44H0z"/><path id="p" d="M0 0h2.933v2.933H0z"/><path id="q" d="M0 17.6h2.933v2.933H0z"/><path id="r" d="M0 2.933h2.933v2.934H0z"/><path id="s" d="M0 20.533h2.933v2.934H0z"/><path id="t" d="M0 5.867h2.933V8.8H0z"/><path id="u" d="M0 23.467h2.933V26.4H0z"/><path id="v" d="M0 8.8h2.933v2.933H0z"/><path id="w" d="M0 26.4h2.933v2.933H0z"/><path id="x" d="M0 11.733h2.933v2.934H0z"/><path id="y" d="M0 29.333h2.933v2.933H0z"/><path id="z" d="M0 35.2h2.933v2.933H0z"/><path id="A" d="M0 14.667h2.933V17.6H0z"/><path id="B" d="M0 32.267h2.933V35.2H0z"/><path id="C" d="M0 38.133h2.933v2.934H0z"/><path id="D" d="M0 41.067h2.933V44H0z"/><path id="E" d="M0 0h2.933v2.933H0z"/><path id="F" d="M0 17.6h2.933v2.933H0z"/><path id="G" d="M0 2.933h2.933v2.934H0z"/><path id="H" d="M0 20.533h2.933v2.934H0z"/><path id="I" d="M0 5.867h2.933V8.8H0z"/><path id="J" d="M0 23.467h2.933V26.4H0z"/><path id="K" d="M0 8.8h2.933v2.933H0z"/><path id="L" d="M0 26.4h2.933v2.933H0z"/><path id="M" d="M0 11.733h2.933v2.934H0z"/><path id="N" d="M0 29.333h2.933v2.933H0z"/><path id="O" d="M0 35.2h2.933v2.933H0z"/><path id="P" d="M0 14.667h2.933V17.6H0z"/><path id="Q" d="M0 32.267h2.933V35.2H0z"/><path id="R" d="M0 38.133h2.933v2.934H0z"/><path id="S" d="M0 41.067h2.933V44H0z"/><path id="T" d="M0 0h2.933v2.933H0z"/><path id="U" d="M0 17.6h2.933v2.933H0z"/><path id="V" d="M0 2.933h2.933v2.934H0z"/><path id="W" d="M0 20.533h2.933v2.934H0z"/><path id="X" d="M0 5.867h2.933V8.8H0z"/><path id="Y" d="M0 23.467h2.933V26.4H0z"/><path id="Z" d="M0 8.8h2.933v2.933H0z"/><path id="aa" d="M0 26.4h2.933v2.933H0z"/><path id="ab" d="M0 11.733h2.933v2.934H0z"/><path id="ac" d="M0 29.333h2.933v2.933H0z"/><path id="ad" d="M0 35.2h2.933v2.933H0z"/><path id="ae" d="M0 14.667h2.933V17.6H0z"/><path id="af" d="M0 32.267h2.933V35.2H0z"/><path id="ag" d="M0 38.133h2.933v2.934H0z"/><path id="ah" d="M0 41.067h2.933V44H0z"/><path id="ai" d="M0 0h2.933v2.933H0z"/><path id="aj" d="M0 17.6h2.933v2.933H0z"/><path id="ak" d="M0 2.933h2.933v2.934H0z"/><path id="al" d="M0 20.533h2.933v2.934H0z"/><path id="am" d="M0 5.867h2.933V8.8H0z"/><path id="an" d="M0 23.467h2.933V26.4H0z"/><path id="ao" d="M0 8.8h2.933v2.933H0z"/><path id="ap" d="M0 26.4h2.933v2.933H0z"/><path id="aq" d="M0 11.733h2.933v2.934H0z"/><path id="ar" d="M0 29.333h2.933v2.934H0z"/><path id="as" d="M0 35.2h2.933v2.933H0z"/><path id="at" d="M0 14.667h2.933V17.6H0z"/><path id="au" d="M0 32.267h2.933V35.2H0z"/><path id="av" d="M0 38.133h2.933v2.934H0z"/><path id="aw" d="M0 41.067h2.933V44H0z"/><path id="ax" d="M0 0h2.933v2.933H0z"/><path id="ay" d="M0 17.6h2.933v2.933H0z"/><path id="az" d="M0 2.933h2.933v2.934H0z"/><path id="aA" d="M0 20.533h2.933v2.934H0z"/><path id="aB" d="M0 5.867h2.933V8.8H0z"/><path id="aC" d="M0 23.467h2.933V26.4H0z"/><path id="aD" d="M0 8.8h2.933v2.933H0z"/><path id="aE" d="M0 26.4h2.933v2.933H0z"/><path id="aF" d="M0 11.733h2.933v2.934H0z"/><path id="aG" d="M0 29.333h2.933v2.933H0z"/><path id="aH" d="M0 35.2h2.933v2.933H0z"/><path id="aI" d="M0 14.667h2.933V17.6H0z"/><path id="aJ" d="M0 32.267h2.933V35.2H0z"/><path id="aK" d="M0 38.133h2.933v2.934H0z"/><path id="aL" d="M0 41.067h2.933V44H0z"/><path id="aM" d="M0 0h2.933v2.933H0z"/><path id="aN" d="M0 17.6h2.933v2.933H0z"/><path id="aO" d="M0 2.933h2.933v2.934H0z"/><path id="aP" d="M0 20.533h2.933v2.934H0z"/><path id="aQ" d="M0 5.867h2.933V8.8H0z"/><path id="aR" d="M0 23.467h2.933V26.4H0z"/><path id="aS" d="M0 8.8h2.933v2.933H0z"/><path id="aT" d="M0 26.4h2.933v2.933H0z"/><path id="aU" d="M0 11.733h2.933v2.934H0z"/><path id="aV" d="M0 29.333h2.933v2.933H0z"/><path id="aW" d="M0 35.2h2.933v2.933H0z"/><path id="aX" d="M0 14.667h2.933V17.6H0z"/><path id="aY" d="M0 32.267h2.933V35.2H0z"/><path id="aZ" d="M0 38.133h2.933v2.934H0z"/><path id="ba" d="M0 41.067h2.933V44H0z"/><path id="bb" d="M0 0h2.933v2.933H0z"/><path id="bc" d="M0 17.6h2.933v2.933H0z"/><path id="bd" d="M0 2.933h2.933v2.934H0z"/><path id="be" d="M0 20.533h2.933v2.934H0z"/><path id="bf" d="M0 5.867h2.933V8.8H0z"/><path id="bg" d="M0 23.467h2.933V26.4H0z"/><path id="bh" d="M0 8.8h2.933v2.933H0z"/><path id="bi" d="M0 26.4h2.933v2.933H0z"/><path id="bj" d="M0 11.733h2.933v2.934H0z"/><path id="bk" d="M0 29.333h2.933v2.933H0z"/><path id="bl" d="M0 35.2h2.933v2.933H0z"/><path id="bm" d="M0 14.667h2.933V17.6H0z"/><path id="bn" d="M0 32.267h2.933V35.2H0z"/><path id="bo" d="M0 38.133h2.933v2.934H0z"/><path id="bp" d="M0 41.067h2.933V44H0z"/><path id="bq" d="M0 0h2.933v2.933H0z"/><path id="br" d="M0 17.6h2.933v2.933H0z"/><path id="bs" d="M0 2.933h2.933v2.934H0z"/><path id="bt" d="M0 20.533h2.933v2.934H0z"/><path id="bu" d="M0 5.867h2.933V8.8H0z"/><path id="bv" d="M0 23.467h2.933V26.4H0z"/><path id="bw" d="M0 8.8h2.933v2.933H0z"/><path id="bx" d="M0 26.4h2.933v2.933H0z"/><path id="by" d="M0 11.733h2.933v2.934H0z"/><path id="bz" d="M0 29.333h2.933v2.933H0z"/><path id="bA" d="M0 35.2h2.933v2.933H0z"/><path id="bB" d="M0 14.667h2.933V17.6H0z"/><path id="bC" d="M0 32.267h2.933V35.2H0z"/><path id="bD" d="M0 38.133h2.933v2.934H0z"/><path id="bE" d="M0 41.067h2.933V44H0z"/><path id="bF" d="M0 0h2.933v2.933H0z"/><path id="bG" d="M0 17.6h2.933v2.933H0z"/><path id="bH" d="M0 2.933h2.933v2.934H0z"/><path id="bI" d="M0 20.533h2.933v2.934H0z"/><path id="bJ" d="M0 5.867h2.933V8.8H0z"/><path id="bK" d="M0 23.467h2.933V26.4H0z"/><path id="bL" d="M0 8.8h2.933v2.933H0z"/><path id="bM" d="M0 26.4h2.933v2.933H0z"/><path id="bN" d="M0 11.733h2.933v2.934H0z"/><path id="bO" d="M0 29.333h2.933v2.933H0z"/><path id="bP" d="M0 35.2h2.933v2.933H0z"/><path id="bQ" d="M0 14.667h2.933V17.6H0z"/><path id="bR" d="M0 32.267h2.933V35.2H0z"/><path id="bS" d="M0 38.133h2.933v2.934H0z"/><path id="bT" d="M0 41.067h2.933V44H0z"/><path id="bU" d="M0 0h2.933v2.933H0z"/><path id="bV" d="M0 17.6h2.933v2.933H0z"/><path id="bW" d="M0 2.933h2.933v2.934H0z"/><path id="bX" d="M0 20.533h2.933v2.934H0z"/><path id="bY" d="M0 5.867h2.933V8.8H0z"/><path id="bZ" d="M0 23.467h2.933V26.4H0z"/><path id="ca" d="M0 8.8h2.933v2.933H0z"/><path id="cb" d="M0 26.4h2.933v2.933H0z"/><path id="cc" d="M0 11.733h2.933v2.934H0z"/><path id="cd" d="M0 29.333h2.933v2.933H0z"/><path id="ce" d="M0 35.2h2.933v2.933H0z"/><path id="cf" d="M0 14.667h2.933V17.6H0z"/><path id="cg" d="M0 32.267h2.933V35.2H0z"/><path id="ch" d="M0 38.133h2.933v2.934H0z"/><path id="ci" d="M0 41.067h2.933V44H0z"/><path id="cj" d="M0 0h2.933v2.933H0z"/><path id="ck" d="M0 17.6h2.933v2.933H0z"/><path id="cl" d="M0 2.933h2.933v2.934H0z"/><path id="cm" d="M0 20.533h2.933v2.934H0z"/><path id="cn" d="M0 5.867h2.933V8.8H0z"/><path id="co" d="M0 23.467h2.933V26.4H0z"/><path id="cp" d="M0 8.8h2.933v2.933H0z"/><path id="cq" d="M0 26.4h2.933v2.933H0z"/><path id="cr" d="M0 11.733h2.933v2.934H0z"/><path id="cs" d="M0 29.333h2.933v2.933H0z"/><path id="ct" d="M0 35.2h2.933v2.933H0z"/><path id="cu" d="M0 14.667h2.933V17.6H0z"/><path id="cv" d="M0 32.267h2.933V35.2H0z"/><path id="cw" d="M0 38.133h2.933v2.934H0z"/><path id="cx" d="M0 41.067h2.933V44H0z"/><path id="cy" d="M0 0h2.933v2.933H0z"/><path id="cz" d="M0 17.6h2.933v2.933H0z"/><path id="cA" d="M0 2.933h2.933v2.934H0z"/><path id="cB" d="M0 20.533h2.933v2.934H0z"/><path id="cC" d="M0 5.867h2.933V8.8H0z"/><path id="cD" d="M0 23.467h2.933V26.4H0z"/><path id="cE" d="M0 8.8h2.933v2.933H0z"/><path id="cF" d="M0 26.4h2.933v2.933H0z"/><path id="cG" d="M0 11.733h2.933v2.934H0z"/><path id="cH" d="M0 29.333h2.933v2.933H0z"/><path id="cI" d="M0 35.2h2.933v2.933H0z"/><path id="cJ" d="M0 14.667h2.933V17.6H0z"/><path id="cK" d="M0 32.267h2.933V35.2H0z"/><path id="cL" d="M0 38.133h2.933v2.934H0z"/><path id="cM" d="M0 41.067h2.933V44H0z"/><path id="cN" d="M0 0h2.933v2.933H0z"/><path id="cO" d="M0 17.6h2.933v2.933H0z"/><path id="cP" d="M0 2.933h2.933v2.934H0z"/><path id="cQ" d="M0 20.533h2.933v2.934H0z"/><path id="cR" d="M0 5.867h2.933V8.8H0z"/><path id="cS" d="M0 23.467h2.933V26.4H0z"/><path id="cT" d="M0 8.8h2.933v2.933H0z"/><path id="cU" d="M0 26.4h2.933v2.933H0z"/><path id="cV" d="M0 11.733h2.933v2.934H0z"/><path id="cW" d="M0 29.333h2.933v2.933H0z"/><path id="cX" d="M0 35.2h2.933v2.933H0z"/><path id="cY" d="M0 14.667h2.933V17.6H0z"/><path id="cZ" d="M0 32.267h2.933V35.2H0z"/><path id="da" d="M0 38.133h2.933v2.934H0z"/><path id="db" d="M0 41.067h2.933V44H0z"/><path id="dc" d="M0 0h2.933v2.933H0z"/><path id="dd" d="M0 17.6h2.933v2.933H0z"/><path id="de" d="M0 2.933h2.933v2.934H0z"/><path id="df" d="M0 20.533h2.933v2.934H0z"/><path id="dg" d="M0 5.867h2.933V8.8H0z"/><path id="dh" d="M0 23.467h2.933V26.4H0z"/><path id="di" d="M0 8.8h2.933v2.933H0z"/><path id="dj" d="M0 26.4h2.933v2.933H0z"/><path id="dk" d="M0 11.733h2.933v2.934H0z"/><path id="dl" d="M0 29.333h2.933v2.933H0z"/><path id="dm" d="M0 35.2h2.933v2.933H0z"/><path id="dn" d="M0 14.667h2.933V17.6H0z"/><path id="do" d="M0 32.267h2.933V35.2H0z"/><path id="dp" d="M0 38.133h2.933v2.934H0z"/><path id="dq" d="M0 41.067h2.933V44H0z"/></defs><g stroke="none" stroke-width="1" fill="none" fill-rule="evenodd"><g transform="translate(2 2)"><use fill="#CD3B3F" fill-rule="evenodd" xlink:href="#a"/><path stroke="#D4FFFF" stroke-width=".5" d="M.25.25v2.433h2.433V.25H.25z"/></g><g transform="translate(2 2)"><use fill="#9FE1E4" fill-rule="evenodd" xlink:href="#b"/><path stroke="#D4FFFF" stroke-width=".5" d="M.25 17.85v2.433h2.433V17.85H.25z"/></g><g transform="translate(2 2)"><use fill="#9FE1E4" fill-rule="evenodd" xlink:href="#c"/><path stroke="#D4FFFF" stroke-width=".5" d="M.25 3.183v2.434h2.433V3.183H.25z"/></g><g transform="translate(2 2)"><use fill="#CD3B3F" fill-rule="evenodd" xlink:href="#d"/><path stroke="#D4FFFF" stroke-width=".5" d="M.25 20.783v2.434h2.433v-2.434H.25z"/></g><g transform="translate(2 2)"><use fill="#A0D0F7" fill-rule="evenodd" xlink:href="#e"/><path stroke="#D4FFFF" stroke-width=".5" d="M.25 6.117V8.55h2.433V6.117H.25z"/></g><g transform="translate(2 2)"><use fill="#9FE1E4" fill-rule="evenodd" xlink:href="#f"/><path stroke="#D4FFFF" stroke-width=".5" d="M.25 23.717v2.433h2.433v-2.433H.25z"/></g><g transform="translate(2 2)"><use fill="#9FE1E4" fill-rule="evenodd" xlink:href="#g"/><path stroke="#D4FFFF" stroke-width=".5" d="M.25 9.05v2.433h2.433V9.05H.25z"/></g><g transform="translate(2 2)"><use fill="#9FE1E4" fill-rule="evenodd" xlink:href="#h"/><path stroke="#D4FFFF" stroke-width=".5" d="M.25 26.65v2.433h2.433V26.65H.25z"/></g><g transform="translate(2 2)"><use fill="#9FE1E4" fill-rule="evenodd" xlink:href="#i"/><path stroke="#D4FFFF" stroke-width=".5" d="M.25 11.983v2.434h2.433v-2.434H.25z"/></g><g transform="translate(2 2)"><use fill="#9FE1E4" fill-rule="evenodd" xlink:href="#j"/><path stroke="#D4FFFF" stroke-width=".5" d="M.25 29.583h2.433v2.433H.25z"/></g><g transform="translate(2 2)"><use fill="#A0D0F7" fill-rule="evenodd" xlink:href="#k"/><path stroke="#D4FFFF" stroke-width=".5" d="M.25 35.45v2.433h2.433V35.45H.25z"/></g><g transform="translate(2 2)"><use fill="#9FE1E4" fill-rule="evenodd" xlink:href="#l"/><path stroke="#D4FFFF" stroke-width=".5" d="M.25 14.917v2.433h2.433v-2.433H.25z"/></g><g transform="translate(2 2)"><use fill="#9FE1E4" fill-rule="evenodd" xlink:href="#m"/><path stroke="#D4FFFF" stroke-width=".5" d="M.25 32.517v2.433h2.433v-2.433H.25z"/></g><g transform="translate(2 2)"><use fill="#9FE1E4" fill-rule="evenodd" xlink:href="#n"/><path stroke="#D4FFFF" stroke-width=".5" d="M.25 38.383v2.434h2.433v-2.434H.25z"/></g><g transform="translate(2 2)"><use fill="#CD3B3F" fill-rule="evenodd" xlink:href="#o"/><path stroke="#D4FFFF" stroke-width=".5" d="M.25 41.317v2.433h2.433v-2.433H.25z"/></g><g><g transform="translate(25.467 2)"><use fill="#9FE1E4" fill-rule="evenodd" xlink:href="#p"/><path stroke="#D4FFFF" stroke-width=".5" d="M.25.25v2.433h2.433V.25H.25z"/></g><g transform="translate(25.467 2)"><use fill="#F6AEA9" fill-rule="evenodd" xlink:href="#q"/><path stroke="#D4FFFF" stroke-width=".5" d="M.25 17.85v2.433h2.433V17.85H.25z"/></g><g transform="translate(25.467 2)"><use fill="#9FE1E4" fill-rule="evenodd" xlink:href="#r"/><path stroke="#D4FFFF" stroke-width=".5" d="M.25 3.183v2.434h2.433V3.183H.25z"/></g><g transform="translate(25.467 2)"><use fill="#9FE1E4" fill-rule="evenodd" xlink:href="#s"/><path stroke="#D4FFFF" stroke-width=".5" d="M.25 20.783v2.434h2.433v-2.434H.25z"/></g><g transform="translate(25.467 2)"><use fill="#A0D0F7" fill-rule="evenodd" xlink:href="#t"/><path stroke="#D4FFFF" stroke-width=".5" d="M.25 6.117V8.55h2.433V6.117H.25z"/></g><g transform="translate(25.467 2)"><use fill="#F6AEA9" fill-rule="evenodd" xlink:href="#u"/><path stroke="#D4FFFF" stroke-width=".5" d="M.25 23.717v2.433h2.433v-2.433H.25z"/></g><g transform="translate(25.467 2)"><use fill="#9FE1E4" fill-rule="evenodd" xlink:href="#v"/><path stroke="#D4FFFF" stroke-width=".5" d="M.25 9.05v2.433h2.433V9.05H.25z"/></g><g transform="translate(25.467 2)"><use fill="#9FE1E4" fill-rule="evenodd" xlink:href="#w"/><path stroke="#D4FFFF" stroke-width=".5" d="M.25 26.65v2.433h2.433V26.65H.25z"/></g><g transform="translate(25.467 2)"><use fill="#9FE1E4" fill-rule="evenodd" xlink:href="#x"/><path stroke="#D4FFFF" stroke-width=".5" d="M.25 11.983v2.434h2.433v-2.434H.25z"/></g><g transform="translate(25.467 2)"><use fill="#9FE1E4" fill-rule="evenodd" xlink:href="#y"/><path stroke="#D4FFFF" stroke-width=".5" d="M.25 29.583h2.433v2.433H.25z"/></g><g transform="translate(25.467 2)"><use fill="#A0D0F7" fill-rule="evenodd" xlink:href="#z"/><path stroke="#D4FFFF" stroke-width=".5" d="M.25 35.45v2.433h2.433V35.45H.25z"/></g><g transform="translate(25.467 2)"><use fill="#9FE1E4" fill-rule="evenodd" xlink:href="#A"/><path stroke="#D4FFFF" stroke-width=".5" d="M.25 14.917v2.433h2.433v-2.433H.25z"/></g><g transform="translate(25.467 2)"><use fill="#9FE1E4" fill-rule="evenodd" xlink:href="#B"/><path stroke="#D4FFFF" stroke-width=".5" d="M.25 32.517v2.433h2.433v-2.433H.25z"/></g><g transform="translate(25.467 2)"><use fill="#9FE1E4" fill-rule="evenodd" xlink:href="#C"/><path stroke="#D4FFFF" stroke-width=".5" d="M.25 38.383v2.434h2.433v-2.434H.25z"/></g><g transform="translate(25.467 2)"><use fill="#9FE1E4" fill-rule="evenodd" xlink:href="#D"/><path stroke="#D4FFFF" stroke-width=".5" d="M.25 41.317v2.433h2.433v-2.433H.25z"/></g></g><g><g transform="translate(13.733 2)"><use fill="#9FE1E4" fill-rule="evenodd" xlink:href="#E"/><path stroke="#D4FFFF" stroke-width=".5" d="M.25.25v2.433h2.433V.25H.25z"/></g><g transform="translate(13.733 2)"><use fill="#9FE1E4" fill-rule="evenodd" xlink:href="#F"/><path stroke="#D4FFFF" stroke-width=".5" d="M.25 17.85v2.433h2.433V17.85H.25z"/></g><g transform="translate(13.733 2)"><use fill="#9FE1E4" fill-rule="evenodd" xlink:href="#G"/><path stroke="#D4FFFF" stroke-width=".5" d="M.25 3.183v2.434h2.433V3.183H.25z"/></g><g transform="translate(13.733 2)"><use fill="#9FE1E4" fill-rule="evenodd" xlink:href="#H"/><path stroke="#D4FFFF" stroke-width=".5" d="M.25 20.783v2.434h2.433v-2.434H.25z"/></g><g transform="translate(13.733 2)"><use fill="#9FE1E4" fill-rule="evenodd" xlink:href="#I"/><path stroke="#D4FFFF" stroke-width=".5" d="M.25 6.117V8.55h2.433V6.117H.25z"/></g><g transform="translate(13.733 2)"><use fill="#9FE1E4" fill-rule="evenodd" xlink:href="#J"/><path stroke="#D4FFFF" stroke-width=".5" d="M.25 23.717v2.433h2.433v-2.433H.25z"/></g><g transform="translate(13.733 2)"><use fill="#9FE1E4" fill-rule="evenodd" xlink:href="#K"/><path stroke="#D4FFFF" stroke-width=".5" d="M.25 9.05v2.433h2.433V9.05H.25z"/></g><g transform="translate(13.733 2)"><use fill="#9FE1E4" fill-rule="evenodd" xlink:href="#L"/><path stroke="#D4FFFF" stroke-width=".5" d="M.25 26.65v2.433h2.433V26.65H.25z"/></g><g transform="translate(13.733 2)"><use fill="#F6AEA9" fill-rule="evenodd" xlink:href="#M"/><path stroke="#D4FFFF" stroke-width=".5" d="M.25 11.983v2.434h2.433v-2.434H.25z"/></g><g transform="translate(13.733 2)"><use fill="#F6AEA9" fill-rule="evenodd" xlink:href="#N"/><path stroke="#D4FFFF" stroke-width=".5" d="M.25 29.583h2.433v2.433H.25z"/></g><g transform="translate(13.733 2)"><use fill="#9FE1E4" fill-rule="evenodd" xlink:href="#O"/><path stroke="#D4FFFF" stroke-width=".5" d="M.25 35.45v2.433h2.433V35.45H.25z"/></g><g transform="translate(13.733 2)"><use fill="#9FE1E4" fill-rule="evenodd" xlink:href="#P"/><path stroke="#D4FFFF" stroke-width=".5" d="M.25 14.917v2.433h2.433v-2.433H.25z"/></g><g transform="translate(13.733 2)"><use fill="#9FE1E4" fill-rule="evenodd" xlink:href="#Q"/><path stroke="#D4FFFF" stroke-width=".5" d="M.25 32.517v2.433h2.433v-2.433H.25z"/></g><g transform="translate(13.733 2)"><use fill="#9FE1E4" fill-rule="evenodd" xlink:href="#R"/><path stroke="#D4FFFF" stroke-width=".5" d="M.25 38.383v2.434h2.433v-2.434H.25z"/></g><g transform="translate(13.733 2)"><use fill="#9FE1E4" fill-rule="evenodd" xlink:href="#S"/><path stroke="#D4FFFF" stroke-width=".5" d="M.25 41.317v2.433h2.433v-2.433H.25z"/></g></g><g><g transform="translate(37.2 2)"><use fill="#9FE1E4" fill-rule="evenodd" xlink:href="#T"/><path stroke="#D4FFFF" stroke-width=".5" d="M.25.25v2.433h2.433V.25H.25z"/></g><g transform="translate(37.2 2)"><use fill="#F6AEA9" fill-rule="evenodd" xlink:href="#U"/><path stroke="#D4FFFF" stroke-width=".5" d="M.25 17.85v2.433h2.433V17.85H.25z"/></g><g transform="translate(37.2 2)"><use fill="#9FE1E4" fill-rule="evenodd" xlink:href="#V"/><path stroke="#D4FFFF" stroke-width=".5" d="M.25 3.183v2.434h2.433V3.183H.25z"/></g><g transform="translate(37.2 2)"><use fill="#9FE1E4" fill-rule="evenodd" xlink:href="#W"/><path stroke="#D4FFFF" stroke-width=".5" d="M.25 20.783v2.434h2.433v-2.434H.25z"/></g><g transform="translate(37.2 2)"><use fill="#F6AEA9" fill-rule="evenodd" xlink:href="#X"/><path stroke="#D4FFFF" stroke-width=".5" d="M.25 6.117V8.55h2.433V6.117H.25z"/></g><g transform="translate(37.2 2)"><use fill="#F6AEA9" fill-rule="evenodd" xlink:href="#Y"/><path stroke="#D4FFFF" stroke-width=".5" d="M.25 23.717v2.433h2.433v-2.433H.25z"/></g><g transform="translate(37.2 2)"><use fill="#9FE1E4" fill-rule="evenodd" xlink:href="#Z"/><path stroke="#D4FFFF" stroke-width=".5" d="M.25 9.05v2.433h2.433V9.05H.25z"/></g><g transform="translate(37.2 2)"><use fill="#9FE1E4" fill-rule="evenodd" xlink:href="#aa"/><path stroke="#D4FFFF" stroke-width=".5" d="M.25 26.65v2.433h2.433V26.65H.25z"/></g><g transform="translate(37.2 2)"><use fill="#9FE1E4" fill-rule="evenodd" xlink:href="#ab"/><path stroke="#D4FFFF" stroke-width=".5" d="M.25 11.983v2.434h2.433v-2.434H.25z"/></g><g transform="translate(37.2 2)"><use fill="#9FE1E4" fill-rule="evenodd" xlink:href="#ac"/><path stroke="#D4FFFF" stroke-width=".5" d="M.25 29.583h2.433v2.433H.25z"/></g><g transform="translate(37.2 2)"><use fill="#F6AEA9" fill-rule="evenodd" xlink:href="#ad"/><path stroke="#D4FFFF" stroke-width=".5" d="M.25 35.45v2.433h2.433V35.45H.25z"/></g><g transform="translate(37.2 2)"><use fill="#9FE1E4" fill-rule="evenodd" xlink:href="#ae"/><path stroke="#D4FFFF" stroke-width=".5" d="M.25 14.917v2.433h2.433v-2.433H.25z"/></g><g transform="translate(37.2 2)"><use fill="#9FE1E4" fill-rule="evenodd" xlink:href="#af"/><path stroke="#D4FFFF" stroke-width=".5" d="M.25 32.517v2.433h2.433v-2.433H.25z"/></g><g transform="translate(37.2 2)"><use fill="#9FE1E4" fill-rule="evenodd" xlink:href="#ag"/><path stroke="#D4FFFF" stroke-width=".5" d="M.25 38.383v2.434h2.433v-2.434H.25z"/></g><g transform="translate(37.2 2)"><use fill="#9FE1E4" fill-rule="evenodd" xlink:href="#ah"/><path stroke="#D4FFFF" stroke-width=".5" d="M.25 41.317v2.433h2.433v-2.433H.25z"/></g></g><g><g transform="translate(7.867 2)"><use fill="#9FE1E4" fill-rule="evenodd" xlink:href="#ai"/><path stroke="#D4FFFF" stroke-width=".5" d="M.25.25v2.433h2.433V.25H.25z"/></g><g transform="translate(7.867 2)"><use fill="#F6AEA9" fill-rule="evenodd" xlink:href="#aj"/><path stroke="#D4FFFF" stroke-width=".5" d="M.25 17.85v2.433h2.433V17.85H.25z"/></g><g transform="translate(7.867 2)"><use fill="#9FE1E4" fill-rule="evenodd" xlink:href="#ak"/><path stroke="#D4FFFF" stroke-width=".5" d="M.25 3.183v2.434h2.433V3.183H.25z"/></g><g transform="translate(7.867 2)"><use fill="#9FE1E4" fill-rule="evenodd" xlink:href="#al"/><path stroke="#D4FFFF" stroke-width=".5" d="M.25 20.783v2.434h2.433v-2.434H.25z"/></g><g transform="translate(7.867 2)"><use fill="#F6AEA9" fill-rule="evenodd" xlink:href="#am"/><path stroke="#D4FFFF" stroke-width=".5" d="M.25 6.117V8.55h2.433V6.117H.25z"/></g><g transform="translate(7.867 2)"><use fill="#F6AEA9" fill-rule="evenodd" xlink:href="#an"/><path stroke="#D4FFFF" stroke-width=".5" d="M.25 23.717v2.433h2.433v-2.433H.25z"/></g><g transform="translate(7.867 2)"><use fill="#9FE1E4" fill-rule="evenodd" xlink:href="#ao"/><path stroke="#D4FFFF" stroke-width=".5" d="M.25 9.05v2.433h2.433V9.05H.25z"/></g><g transform="translate(7.867 2)"><use fill="#9FE1E4" fill-rule="evenodd" xlink:href="#ap"/><path stroke="#D4FFFF" stroke-width=".5" d="M.25 26.65v2.433h2.433V26.65H.25z"/></g><g transform="translate(7.867 2)"><use fill="#9FE1E4" fill-rule="evenodd" xlink:href="#aq"/><path stroke="#D4FFFF" stroke-width=".5" d="M.25 11.983v2.434h2.433v-2.434H.25z"/></g><g transform="translate(7.867 2)"><use fill="#9FE1E4" fill-rule="evenodd" xlink:href="#ar"/><path stroke="#D4FFFF" stroke-width=".5" d="M.25 29.583v2.434h2.433v-2.434H.25z"/></g><g transform="translate(7.867 2)"><use fill="#F6AEA9" fill-rule="evenodd" xlink:href="#as"/><path stroke="#D4FFFF" stroke-width=".5" d="M.25 35.45v2.433h2.433V35.45H.25z"/></g><g transform="translate(7.867 2)"><use fill="#9FE1E4" fill-rule="evenodd" xlink:href="#at"/><path stroke="#D4FFFF" stroke-width=".5" d="M.25 14.917v2.433h2.433v-2.433H.25z"/></g><g transform="translate(7.867 2)"><use fill="#9FE1E4" fill-rule="evenodd" xlink:href="#au"/><path stroke="#D4FFFF" stroke-width=".5" d="M.25 32.517v2.433h2.433v-2.433H.25z"/></g><g transform="translate(7.867 2)"><use fill="#9FE1E4" fill-rule="evenodd" xlink:href="#av"/><path stroke="#D4FFFF" stroke-width=".5" d="M.25 38.383v2.434h2.433v-2.434H.25z"/></g><g transform="translate(7.867 2)"><use fill="#9FE1E4" fill-rule="evenodd" xlink:href="#aw"/><path stroke="#D4FFFF" stroke-width=".5" d="M.25 41.317v2.433h2.433v-2.433H.25z"/></g></g><g><g transform="translate(31.333 2)"><use fill="#9FE1E4" fill-rule="evenodd" xlink:href="#ax"/><path stroke="#D4FFFF" stroke-width=".5" d="M.25.25v2.433h2.433V.25H.25z"/></g><g transform="translate(31.333 2)"><use fill="#9FE1E4" fill-rule="evenodd" xlink:href="#ay"/><path stroke="#D4FFFF" stroke-width=".5" d="M.25 17.85v2.433h2.433V17.85H.25z"/></g><g transform="translate(31.333 2)"><use fill="#9FE1E4" fill-rule="evenodd" xlink:href="#az"/><path stroke="#D4FFFF" stroke-width=".5" d="M.25 3.183v2.434h2.433V3.183H.25z"/></g><g transform="translate(31.333 2)"><use fill="#9FE1E4" fill-rule="evenodd" xlink:href="#aA"/><path stroke="#D4FFFF" stroke-width=".5" d="M.25 20.783v2.434h2.433v-2.434H.25z"/></g><g transform="translate(31.333 2)"><use fill="#9FE1E4" fill-rule="evenodd" xlink:href="#aB"/><path stroke="#D4FFFF" stroke-width=".5" d="M.25 6.117V8.55h2.433V6.117H.25z"/></g><g transform="translate(31.333 2)"><use fill="#9FE1E4" fill-rule="evenodd" xlink:href="#aC"/><path stroke="#D4FFFF" stroke-width=".5" d="M.25 23.717v2.433h2.433v-2.433H.25z"/></g><g transform="translate(31.333 2)"><use fill="#9FE1E4" fill-rule="evenodd" xlink:href="#aD"/><path stroke="#D4FFFF" stroke-width=".5" d="M.25 9.05v2.433h2.433V9.05H.25z"/></g><g transform="translate(31.333 2)"><use fill="#9FE1E4" fill-rule="evenodd" xlink:href="#aE"/><path stroke="#D4FFFF" stroke-width=".5" d="M.25 26.65v2.433h2.433V26.65H.25z"/></g><g transform="translate(31.333 2)"><use fill="#F6AEA9" fill-rule="evenodd" xlink:href="#aF"/><path stroke="#D4FFFF" stroke-width=".5" d="M.25 11.983v2.434h2.433v-2.434H.25z"/></g><g transform="translate(31.333 2)"><use fill="#F6AEA9" fill-rule="evenodd" xlink:href="#aG"/><path stroke="#D4FFFF" stroke-width=".5" d="M.25 29.583h2.433v2.433H.25z"/></g><g transform="translate(31.333 2)"><use fill="#9FE1E4" fill-rule="evenodd" xlink:href="#aH"/><path stroke="#D4FFFF" stroke-width=".5" d="M.25 35.45v2.433h2.433V35.45H.25z"/></g><g transform="translate(31.333 2)"><use fill="#9FE1E4" fill-rule="evenodd" xlink:href="#aI"/><path stroke="#D4FFFF" stroke-width=".5" d="M.25 14.917v2.433h2.433v-2.433H.25z"/></g><g transform="translate(31.333 2)"><use fill="#9FE1E4" fill-rule="evenodd" xlink:href="#aJ"/><path stroke="#D4FFFF" stroke-width=".5" d="M.25 32.517v2.433h2.433v-2.433H.25z"/></g><g transform="translate(31.333 2)"><use fill="#9FE1E4" fill-rule="evenodd" xlink:href="#aK"/><path stroke="#D4FFFF" stroke-width=".5" d="M.25 38.383v2.434h2.433v-2.434H.25z"/></g><g transform="translate(31.333 2)"><use fill="#9FE1E4" fill-rule="evenodd" xlink:href="#aL"/><path stroke="#D4FFFF" stroke-width=".5" d="M.25 41.317v2.433h2.433v-2.433H.25z"/></g></g><g><g transform="translate(19.6 2)"><use fill="#9FE1E4" fill-rule="evenodd" xlink:href="#aM"/><path stroke="#D4FFFF" stroke-width=".5" d="M.25.25v2.433h2.433V.25H.25z"/></g><g transform="translate(19.6 2)"><use fill="#F6AEA9" fill-rule="evenodd" xlink:href="#aN"/><path stroke="#D4FFFF" stroke-width=".5" d="M.25 17.85v2.433h2.433V17.85H.25z"/></g><g transform="translate(19.6 2)"><use fill="#9FE1E4" fill-rule="evenodd" xlink:href="#aO"/><path stroke="#D4FFFF" stroke-width=".5" d="M.25 3.183v2.434h2.433V3.183H.25z"/></g><g transform="translate(19.6 2)"><use fill="#9FE1E4" fill-rule="evenodd" xlink:href="#aP"/><path stroke="#D4FFFF" stroke-width=".5" d="M.25 20.783v2.434h2.433v-2.434H.25z"/></g><g transform="translate(19.6 2)"><use fill="#A0D0F7" fill-rule="evenodd" xlink:href="#aQ"/><path stroke="#D4FFFF" stroke-width=".5" d="M.25 6.117V8.55h2.433V6.117H.25z"/></g><g transform="translate(19.6 2)"><use fill="#F6AEA9" fill-rule="evenodd" xlink:href="#aR"/><path stroke="#D4FFFF" stroke-width=".5" d="M.25 23.717v2.433h2.433v-2.433H.25z"/></g><g transform="translate(19.6 2)"><use fill="#9FE1E4" fill-rule="evenodd" xlink:href="#aS"/><path stroke="#D4FFFF" stroke-width=".5" d="M.25 9.05v2.433h2.433V9.05H.25z"/></g><g transform="translate(19.6 2)"><use fill="#9FE1E4" fill-rule="evenodd" xlink:href="#aT"/><path stroke="#D4FFFF" stroke-width=".5" d="M.25 26.65v2.433h2.433V26.65H.25z"/></g><g transform="translate(19.6 2)"><use fill="#9FE1E4" fill-rule="evenodd" xlink:href="#aU"/><path stroke="#D4FFFF" stroke-width=".5" d="M.25 11.983v2.434h2.433v-2.434H.25z"/></g><g transform="translate(19.6 2)"><use fill="#9FE1E4" fill-rule="evenodd" xlink:href="#aV"/><path stroke="#D4FFFF" stroke-width=".5" d="M.25 29.583h2.433v2.433H.25z"/></g><g transform="translate(19.6 2)"><use fill="#A0D0F7" fill-rule="evenodd" xlink:href="#aW"/><path stroke="#D4FFFF" stroke-width=".5" d="M.25 35.45v2.433h2.433V35.45H.25z"/></g><g transform="translate(19.6 2)"><use fill="#9FE1E4" fill-rule="evenodd" xlink:href="#aX"/><path stroke="#D4FFFF" stroke-width=".5" d="M.25 14.917v2.433h2.433v-2.433H.25z"/></g><g transform="translate(19.6 2)"><use fill="#9FE1E4" fill-rule="evenodd" xlink:href="#aY"/><path stroke="#D4FFFF" stroke-width=".5" d="M.25 32.517v2.433h2.433v-2.433H.25z"/></g><g transform="translate(19.6 2)"><use fill="#9FE1E4" fill-rule="evenodd" xlink:href="#aZ"/><path stroke="#D4FFFF" stroke-width=".5" d="M.25 38.383v2.434h2.433v-2.434H.25z"/></g><g transform="translate(19.6 2)"><use fill="#9FE1E4" fill-rule="evenodd" xlink:href="#ba"/><path stroke="#D4FFFF" stroke-width=".5" d="M.25 41.317v2.433h2.433v-2.433H.25z"/></g></g><g><g transform="translate(43.067 2)"><use fill="#CD3B3F" fill-rule="evenodd" xlink:href="#bb"/><path stroke="#D4FFFF" stroke-width=".5" d="M.25.25v2.433h2.433V.25H.25z"/></g><g transform="translate(43.067 2)"><use fill="#9FE1E4" fill-rule="evenodd" xlink:href="#bc"/><path stroke="#D4FFFF" stroke-width=".5" d="M.25 17.85v2.433h2.433V17.85H.25z"/></g><g transform="translate(43.067 2)"><use fill="#9FE1E4" fill-rule="evenodd" xlink:href="#bd"/><path stroke="#D4FFFF" stroke-width=".5" d="M.25 3.183v2.434h2.433V3.183H.25z"/></g><g transform="translate(43.067 2)"><use fill="#CD3B3F" fill-rule="evenodd" xlink:href="#be"/><path stroke="#D4FFFF" stroke-width=".5" d="M.25 20.783v2.434h2.433v-2.434H.25z"/></g><g transform="translate(43.067 2)"><use fill="#A0D0F7" fill-rule="evenodd" xlink:href="#bf"/><path stroke="#D4FFFF" stroke-width=".5" d="M.25 6.117V8.55h2.433V6.117H.25z"/></g><g transform="translate(43.067 2)"><use fill="#9FE1E4" fill-rule="evenodd" xlink:href="#bg"/><path stroke="#D4FFFF" stroke-width=".5" d="M.25 23.717v2.433h2.433v-2.433H.25z"/></g><g transform="translate(43.067 2)"><use fill="#9FE1E4" fill-rule="evenodd" xlink:href="#bh"/><path stroke="#D4FFFF" stroke-width=".5" d="M.25 9.05v2.433h2.433V9.05H.25z"/></g><g transform="translate(43.067 2)"><use fill="#9FE1E4" fill-rule="evenodd" xlink:href="#bi"/><path stroke="#D4FFFF" stroke-width=".5" d="M.25 26.65v2.433h2.433V26.65H.25z"/></g><g transform="translate(43.067 2)"><use fill="#9FE1E4" fill-rule="evenodd" xlink:href="#bj"/><path stroke="#D4FFFF" stroke-width=".5" d="M.25 11.983v2.434h2.433v-2.434H.25z"/></g><g transform="translate(43.067 2)"><use fill="#9FE1E4" fill-rule="evenodd" xlink:href="#bk"/><path stroke="#D4FFFF" stroke-width=".5" d="M.25 29.583h2.433v2.433H.25z"/></g><g transform="translate(43.067 2)"><use fill="#A0D0F7" fill-rule="evenodd" xlink:href="#bl"/><path stroke="#D4FFFF" stroke-width=".5" d="M.25 35.45v2.433h2.433V35.45H.25z"/></g><g transform="translate(43.067 2)"><use fill="#9FE1E4" fill-rule="evenodd" xlink:href="#bm"/><path stroke="#D4FFFF" stroke-width=".5" d="M.25 14.917v2.433h2.433v-2.433H.25z"/></g><g transform="translate(43.067 2)"><use fill="#9FE1E4" fill-rule="evenodd" xlink:href="#bn"/><path stroke="#D4FFFF" stroke-width=".5" d="M.25 32.517v2.433h2.433v-2.433H.25z"/></g><g transform="translate(43.067 2)"><use fill="#9FE1E4" fill-rule="evenodd" xlink:href="#bo"/><path stroke="#D4FFFF" stroke-width=".5" d="M.25 38.383v2.434h2.433v-2.434H.25z"/></g><g transform="translate(43.067 2)"><use fill="#CD3B3F" fill-rule="evenodd" xlink:href="#bp"/><path stroke="#D4FFFF" stroke-width=".5" d="M.25 41.317v2.433h2.433v-2.433H.25z"/></g></g><g><g transform="translate(4.933 2)"><use fill="#9FE1E4" fill-rule="evenodd" xlink:href="#bq"/><path stroke="#D4FFFF" stroke-width=".5" d="M.25.25v2.433h2.433V.25H.25z"/></g><g transform="translate(4.933 2)"><use fill="#9FE1E4" fill-rule="evenodd" xlink:href="#br"/><path stroke="#D4FFFF" stroke-width=".5" d="M.25 17.85v2.433h2.433V17.85H.25z"/></g><g transform="translate(4.933 2)"><use fill="#F6AEA9" fill-rule="evenodd" xlink:href="#bs"/><path stroke="#D4FFFF" stroke-width=".5" d="M.25 3.183v2.434h2.433V3.183H.25z"/></g><g transform="translate(4.933 2)"><use fill="#9FE1E4" fill-rule="evenodd" xlink:href="#bt"/><path stroke="#D4FFFF" stroke-width=".5" d="M.25 20.783v2.434h2.433v-2.434H.25z"/></g><g transform="translate(4.933 2)"><use fill="#9FE1E4" fill-rule="evenodd" xlink:href="#bu"/><path stroke="#D4FFFF" stroke-width=".5" d="M.25 6.117V8.55h2.433V6.117H.25z"/></g><g transform="translate(4.933 2)"><use fill="#9FE1E4" fill-rule="evenodd" xlink:href="#bv"/><path stroke="#D4FFFF" stroke-width=".5" d="M.25 23.717v2.433h2.433v-2.433H.25z"/></g><g transform="translate(4.933 2)"><use fill="#9FE1E4" fill-rule="evenodd" xlink:href="#bw"/><path stroke="#D4FFFF" stroke-width=".5" d="M.25 9.05v2.433h2.433V9.05H.25z"/></g><g transform="translate(4.933 2)"><use fill="#9FE1E4" fill-rule="evenodd" xlink:href="#bx"/><path stroke="#D4FFFF" stroke-width=".5" d="M.25 26.65v2.433h2.433V26.65H.25z"/></g><g transform="translate(4.933 2)"><use fill="#A0D0F7" fill-rule="evenodd" xlink:href="#by"/><path stroke="#D4FFFF" stroke-width=".5" d="M.25 11.983v2.434h2.433v-2.434H.25z"/></g><g transform="translate(4.933 2)"><use fill="#A0D0F7" fill-rule="evenodd" xlink:href="#bz"/><path stroke="#D4FFFF" stroke-width=".5" d="M.25 29.583h2.433v2.433H.25z"/></g><g transform="translate(4.933 2)"><use fill="#9FE1E4" fill-rule="evenodd" xlink:href="#bA"/><path stroke="#D4FFFF" stroke-width=".5" d="M.25 35.45v2.433h2.433V35.45H.25z"/></g><g transform="translate(4.933 2)"><use fill="#9FE1E4" fill-rule="evenodd" xlink:href="#bB"/><path stroke="#D4FFFF" stroke-width=".5" d="M.25 14.917v2.433h2.433v-2.433H.25z"/></g><g transform="translate(4.933 2)"><use fill="#9FE1E4" fill-rule="evenodd" xlink:href="#bC"/><path stroke="#D4FFFF" stroke-width=".5" d="M.25 32.517v2.433h2.433v-2.433H.25z"/></g><g transform="translate(4.933 2)"><use fill="#F6AEA9" fill-rule="evenodd" xlink:href="#bD"/><path stroke="#D4FFFF" stroke-width=".5" d="M.25 38.383v2.434h2.433v-2.434H.25z"/></g><g transform="translate(4.933 2)"><use fill="#9FE1E4" fill-rule="evenodd" xlink:href="#bE"/><path stroke="#D4FFFF" stroke-width=".5" d="M.25 41.317v2.433h2.433v-2.433H.25z"/></g></g><g><g transform="translate(28.4 2)"><use fill="#9FE1E4" fill-rule="evenodd" xlink:href="#bF"/><path stroke="#D4FFFF" stroke-width=".5" d="M.25.25v2.433h2.433V.25H.25z"/></g><g transform="translate(28.4 2)"><use fill="#9FE1E4" fill-rule="evenodd" xlink:href="#bG"/><path stroke="#D4FFFF" stroke-width=".5" d="M.25 17.85v2.433h2.433V17.85H.25z"/></g><g transform="translate(28.4 2)"><use fill="#206194" fill-rule="evenodd" xlink:href="#bH"/><path stroke="#D4FFFF" stroke-width=".5" d="M.25 3.183v2.434h2.433V3.183H.25z"/></g><g transform="translate(28.4 2)"><use fill="#9FE1E4" fill-rule="evenodd" xlink:href="#bI"/><path stroke="#D4FFFF" stroke-width=".5" d="M.25 20.783v2.434h2.433v-2.434H.25z"/></g><g transform="translate(28.4 2)"><use fill="#9FE1E4" fill-rule="evenodd" xlink:href="#bJ"/><path stroke="#D4FFFF" stroke-width=".5" d="M.25 6.117V8.55h2.433V6.117H.25z"/></g><g transform="translate(28.4 2)"><use fill="#9FE1E4" fill-rule="evenodd" xlink:href="#bK"/><path stroke="#D4FFFF" stroke-width=".5" d="M.25 23.717v2.433h2.433v-2.433H.25z"/></g><g transform="translate(28.4 2)"><use fill="#9FE1E4" fill-rule="evenodd" xlink:href="#bL"/><path stroke="#D4FFFF" stroke-width=".5" d="M.25 9.05v2.433h2.433V9.05H.25z"/></g><g transform="translate(28.4 2)"><use fill="#F6AEA9" fill-rule="evenodd" xlink:href="#bM"/><path stroke="#D4FFFF" stroke-width=".5" d="M.25 26.65v2.433h2.433V26.65H.25z"/></g><g transform="translate(28.4 2)"><use fill="#9FE1E4" fill-rule="evenodd" xlink:href="#bN"/><path stroke="#D4FFFF" stroke-width=".5" d="M.25 11.983v2.434h2.433v-2.434H.25z"/></g><g transform="translate(28.4 2)"><use fill="#9FE1E4" fill-rule="evenodd" xlink:href="#bO"/><path stroke="#D4FFFF" stroke-width=".5" d="M.25 29.583h2.433v2.433H.25z"/></g><g transform="translate(28.4 2)"><use fill="#9FE1E4" fill-rule="evenodd" xlink:href="#bP"/><path stroke="#D4FFFF" stroke-width=".5" d="M.25 35.45v2.433h2.433V35.45H.25z"/></g><g transform="translate(28.4 2)"><use fill="#F6AEA9" fill-rule="evenodd" xlink:href="#bQ"/><path stroke="#D4FFFF" stroke-width=".5" d="M.25 14.917v2.433h2.433v-2.433H.25z"/></g><g transform="translate(28.4 2)"><use fill="#9FE1E4" fill-rule="evenodd" xlink:href="#bR"/><path stroke="#D4FFFF" stroke-width=".5" d="M.25 32.517v2.433h2.433v-2.433H.25z"/></g><g transform="translate(28.4 2)"><use fill="#206194" fill-rule="evenodd" xlink:href="#bS"/><path stroke="#D4FFFF" stroke-width=".5" d="M.25 38.383v2.434h2.433v-2.434H.25z"/></g><g transform="translate(28.4 2)"><use fill="#9FE1E4" fill-rule="evenodd" xlink:href="#bT"/><path stroke="#D4FFFF" stroke-width=".5" d="M.25 41.317v2.433h2.433v-2.433H.25z"/></g></g><g><g transform="translate(16.667 2)"><use fill="#9FE1E4" fill-rule="evenodd" xlink:href="#bU"/><path stroke="#D4FFFF" stroke-width=".5" d="M.25.25v2.433h2.433V.25H.25z"/></g><g transform="translate(16.667 2)"><use fill="#9FE1E4" fill-rule="evenodd" xlink:href="#bV"/><path stroke="#D4FFFF" stroke-width=".5" d="M.25 17.85v2.433h2.433V17.85H.25z"/></g><g transform="translate(16.667 2)"><use fill="#206194" fill-rule="evenodd" xlink:href="#bW"/><path stroke="#D4FFFF" stroke-width=".5" d="M.25 3.183v2.434h2.433V3.183H.25z"/></g><g transform="translate(16.667 2)"><use fill="#9FE1E4" fill-rule="evenodd" xlink:href="#bX"/><path stroke="#D4FFFF" stroke-width=".5" d="M.25 20.783v2.434h2.433v-2.434H.25z"/></g><g transform="translate(16.667 2)"><use fill="#9FE1E4" fill-rule="evenodd" xlink:href="#bY"/><path stroke="#D4FFFF" stroke-width=".5" d="M.25 6.117V8.55h2.433V6.117H.25z"/></g><g transform="translate(16.667 2)"><use fill="#9FE1E4" fill-rule="evenodd" xlink:href="#bZ"/><path stroke="#D4FFFF" stroke-width=".5" d="M.25 23.717v2.433h2.433v-2.433H.25z"/></g><g transform="translate(16.667 2)"><use fill="#9FE1E4" fill-rule="evenodd" xlink:href="#ca"/><path stroke="#D4FFFF" stroke-width=".5" d="M.25 9.05v2.433h2.433V9.05H.25z"/></g><g transform="translate(16.667 2)"><use fill="#F6AEA9" fill-rule="evenodd" xlink:href="#cb"/><path stroke="#D4FFFF" stroke-width=".5" d="M.25 26.65v2.433h2.433V26.65H.25z"/></g><g transform="translate(16.667 2)"><use fill="#9FE1E4" fill-rule="evenodd" xlink:href="#cc"/><path stroke="#D4FFFF" stroke-width=".5" d="M.25 11.983v2.434h2.433v-2.434H.25z"/></g><g transform="translate(16.667 2)"><use fill="#9FE1E4" fill-rule="evenodd" xlink:href="#cd"/><path stroke="#D4FFFF" stroke-width=".5" d="M.25 29.583h2.433v2.433H.25z"/></g><g transform="translate(16.667 2)"><use fill="#9FE1E4" fill-rule="evenodd" xlink:href="#ce"/><path stroke="#D4FFFF" stroke-width=".5" d="M.25 35.45v2.433h2.433V35.45H.25z"/></g><g transform="translate(16.667 2)"><use fill="#F6AEA9" fill-rule="evenodd" xlink:href="#cf"/><path stroke="#D4FFFF" stroke-width=".5" d="M.25 14.917v2.433h2.433v-2.433H.25z"/></g><g transform="translate(16.667 2)"><use fill="#9FE1E4" fill-rule="evenodd" xlink:href="#cg"/><path stroke="#D4FFFF" stroke-width=".5" d="M.25 32.517v2.433h2.433v-2.433H.25z"/></g><g transform="translate(16.667 2)"><use fill="#206194" fill-rule="evenodd" xlink:href="#ch"/><path stroke="#D4FFFF" stroke-width=".5" d="M.25 38.383v2.434h2.433v-2.434H.25z"/></g><g transform="translate(16.667 2)"><use fill="#9FE1E4" fill-rule="evenodd" xlink:href="#ci"/><path stroke="#D4FFFF" stroke-width=".5" d="M.25 41.317v2.433h2.433v-2.433H.25z"/></g></g><g><g transform="translate(40.133 2)"><use fill="#9FE1E4" fill-rule="evenodd" xlink:href="#cj"/><path stroke="#D4FFFF" stroke-width=".5" d="M.25.25v2.433h2.433V.25H.25z"/></g><g transform="translate(40.133 2)"><use fill="#9FE1E4" fill-rule="evenodd" xlink:href="#ck"/><path stroke="#D4FFFF" stroke-width=".5" d="M.25 17.85v2.433h2.433V17.85H.25z"/></g><g transform="translate(40.133 2)"><use fill="#F6AEA9" fill-rule="evenodd" xlink:href="#cl"/><path stroke="#D4FFFF" stroke-width=".5" d="M.25 3.183v2.434h2.433V3.183H.25z"/></g><g transform="translate(40.133 2)"><use fill="#9FE1E4" fill-rule="evenodd" xlink:href="#cm"/><path stroke="#D4FFFF" stroke-width=".5" d="M.25 20.783v2.434h2.433v-2.434H.25z"/></g><g transform="translate(40.133 2)"><use fill="#9FE1E4" fill-rule="evenodd" xlink:href="#cn"/><path stroke="#D4FFFF" stroke-width=".5" d="M.25 6.117V8.55h2.433V6.117H.25z"/></g><g transform="translate(40.133 2)"><use fill="#9FE1E4" fill-rule="evenodd" xlink:href="#co"/><path stroke="#D4FFFF" stroke-width=".5" d="M.25 23.717v2.433h2.433v-2.433H.25z"/></g><g transform="translate(40.133 2)"><use fill="#9FE1E4" fill-rule="evenodd" xlink:href="#cp"/><path stroke="#D4FFFF" stroke-width=".5" d="M.25 9.05v2.433h2.433V9.05H.25z"/></g><g transform="translate(40.133 2)"><use fill="#9FE1E4" fill-rule="evenodd" xlink:href="#cq"/><path stroke="#D4FFFF" stroke-width=".5" d="M.25 26.65v2.433h2.433V26.65H.25z"/></g><g transform="translate(40.133 2)"><use fill="#A0D0F7" fill-rule="evenodd" xlink:href="#cr"/><path stroke="#D4FFFF" stroke-width=".5" d="M.25 11.983v2.434h2.433v-2.434H.25z"/></g><g transform="translate(40.133 2)"><use fill="#A0D0F7" fill-rule="evenodd" xlink:href="#cs"/><path stroke="#D4FFFF" stroke-width=".5" d="M.25 29.583h2.433v2.433H.25z"/></g><g transform="translate(40.133 2)"><use fill="#9FE1E4" fill-rule="evenodd" xlink:href="#ct"/><path stroke="#D4FFFF" stroke-width=".5" d="M.25 35.45v2.433h2.433V35.45H.25z"/></g><g transform="translate(40.133 2)"><use fill="#9FE1E4" fill-rule="evenodd" xlink:href="#cu"/><path stroke="#D4FFFF" stroke-width=".5" d="M.25 14.917v2.433h2.433v-2.433H.25z"/></g><g transform="translate(40.133 2)"><use fill="#9FE1E4" fill-rule="evenodd" xlink:href="#cv"/><path stroke="#D4FFFF" stroke-width=".5" d="M.25 32.517v2.433h2.433v-2.433H.25z"/></g><g transform="translate(40.133 2)"><use fill="#F6AEA9" fill-rule="evenodd" xlink:href="#cw"/><path stroke="#D4FFFF" stroke-width=".5" d="M.25 38.383v2.434h2.433v-2.434H.25z"/></g><g transform="translate(40.133 2)"><use fill="#9FE1E4" fill-rule="evenodd" xlink:href="#cx"/><path stroke="#D4FFFF" stroke-width=".5" d="M.25 41.317v2.433h2.433v-2.433H.25z"/></g></g><g><g transform="translate(10.8 2)"><use fill="#A0D0F7" fill-rule="evenodd" xlink:href="#cy"/><path stroke="#D4FFFF" stroke-width=".5" d="M.25.25v2.433h2.433V.25H.25z"/></g><g transform="translate(10.8 2)"><use fill="#9FE1E4" fill-rule="evenodd" xlink:href="#cz"/><path stroke="#D4FFFF" stroke-width=".5" d="M.25 17.85v2.433h2.433V17.85H.25z"/></g><g transform="translate(10.8 2)"><use fill="#9FE1E4" fill-rule="evenodd" xlink:href="#cA"/><path stroke="#D4FFFF" stroke-width=".5" d="M.25 3.183v2.434h2.433V3.183H.25z"/></g><g transform="translate(10.8 2)"><use fill="#F6AEA9" fill-rule="evenodd" xlink:href="#cB"/><path stroke="#D4FFFF" stroke-width=".5" d="M.25 20.783v2.434h2.433v-2.434H.25z"/></g><g transform="translate(10.8 2)"><use fill="#9FE1E4" fill-rule="evenodd" xlink:href="#cC"/><path stroke="#D4FFFF" stroke-width=".5" d="M.25 6.117V8.55h2.433V6.117H.25z"/></g><g transform="translate(10.8 2)"><use fill="#9FE1E4" fill-rule="evenodd" xlink:href="#cD"/><path stroke="#D4FFFF" stroke-width=".5" d="M.25 23.717v2.433h2.433v-2.433H.25z"/></g><g transform="translate(10.8 2)"><use fill="#F6AEA9" fill-rule="evenodd" xlink:href="#cE"/><path stroke="#D4FFFF" stroke-width=".5" d="M.25 9.05v2.433h2.433V9.05H.25z"/></g><g transform="translate(10.8 2)"><use fill="#9FE1E4" fill-rule="evenodd" xlink:href="#cF"/><path stroke="#D4FFFF" stroke-width=".5" d="M.25 26.65v2.433h2.433V26.65H.25z"/></g><g transform="translate(10.8 2)"><use fill="#9FE1E4" fill-rule="evenodd" xlink:href="#cG"/><path stroke="#D4FFFF" stroke-width=".5" d="M.25 11.983v2.434h2.433v-2.434H.25z"/></g><g transform="translate(10.8 2)"><use fill="#9FE1E4" fill-rule="evenodd" xlink:href="#cH"/><path stroke="#D4FFFF" stroke-width=".5" d="M.25 29.583h2.433v2.433H.25z"/></g><g transform="translate(10.8 2)"><use fill="#9FE1E4" fill-rule="evenodd" xlink:href="#cI"/><path stroke="#D4FFFF" stroke-width=".5" d="M.25 35.45v2.433h2.433V35.45H.25z"/></g><g transform="translate(10.8 2)"><use fill="#9FE1E4" fill-rule="evenodd" xlink:href="#cJ"/><path stroke="#D4FFFF" stroke-width=".5" d="M.25 14.917v2.433h2.433v-2.433H.25z"/></g><g transform="translate(10.8 2)"><use fill="#F6AEA9" fill-rule="evenodd" xlink:href="#cK"/><path stroke="#D4FFFF" stroke-width=".5" d="M.25 32.517v2.433h2.433v-2.433H.25z"/></g><g transform="translate(10.8 2)"><use fill="#9FE1E4" fill-rule="evenodd" xlink:href="#cL"/><path stroke="#D4FFFF" stroke-width=".5" d="M.25 38.383v2.434h2.433v-2.434H.25z"/></g><g transform="translate(10.8 2)"><use fill="#A0D0F7" fill-rule="evenodd" xlink:href="#cM"/><path stroke="#D4FFFF" stroke-width=".5" d="M.25 41.317v2.433h2.433v-2.433H.25z"/></g></g><g><g transform="translate(34.267 2)"><use fill="#A0D0F7" fill-rule="evenodd" xlink:href="#cN"/><path stroke="#D4FFFF" stroke-width=".5" d="M.25.25v2.433h2.433V.25H.25z"/></g><g transform="translate(34.267 2)"><use fill="#9FE1E4" fill-rule="evenodd" xlink:href="#cO"/><path stroke="#D4FFFF" stroke-width=".5" d="M.25 17.85v2.433h2.433V17.85H.25z"/></g><g transform="translate(34.267 2)"><use fill="#9FE1E4" fill-rule="evenodd" xlink:href="#cP"/><path stroke="#D4FFFF" stroke-width=".5" d="M.25 3.183v2.434h2.433V3.183H.25z"/></g><g transform="translate(34.267 2)"><use fill="#F6AEA9" fill-rule="evenodd" xlink:href="#cQ"/><path stroke="#D4FFFF" stroke-width=".5" d="M.25 20.783v2.434h2.433v-2.434H.25z"/></g><g transform="translate(34.267 2)"><use fill="#9FE1E4" fill-rule="evenodd" xlink:href="#cR"/><path stroke="#D4FFFF" stroke-width=".5" d="M.25 6.117V8.55h2.433V6.117H.25z"/></g><g transform="translate(34.267 2)"><use fill="#9FE1E4" fill-rule="evenodd" xlink:href="#cS"/><path stroke="#D4FFFF" stroke-width=".5" d="M.25 23.717v2.433h2.433v-2.433H.25z"/></g><g transform="translate(34.267 2)"><use fill="#F6AEA9" fill-rule="evenodd" xlink:href="#cT"/><path stroke="#D4FFFF" stroke-width=".5" d="M.25 9.05v2.433h2.433V9.05H.25z"/></g><g transform="translate(34.267 2)"><use fill="#9FE1E4" fill-rule="evenodd" xlink:href="#cU"/><path stroke="#D4FFFF" stroke-width=".5" d="M.25 26.65v2.433h2.433V26.65H.25z"/></g><g transform="translate(34.267 2)"><use fill="#9FE1E4" fill-rule="evenodd" xlink:href="#cV"/><path stroke="#D4FFFF" stroke-width=".5" d="M.25 11.983v2.434h2.433v-2.434H.25z"/></g><g transform="translate(34.267 2)"><use fill="#9FE1E4" fill-rule="evenodd" xlink:href="#cW"/><path stroke="#D4FFFF" stroke-width=".5" d="M.25 29.583h2.433v2.433H.25z"/></g><g transform="translate(34.267 2)"><use fill="#9FE1E4" fill-rule="evenodd" xlink:href="#cX"/><path stroke="#D4FFFF" stroke-width=".5" d="M.25 35.45v2.433h2.433V35.45H.25z"/></g><g transform="translate(34.267 2)"><use fill="#9FE1E4" fill-rule="evenodd" xlink:href="#cY"/><path stroke="#D4FFFF" stroke-width=".5" d="M.25 14.917v2.433h2.433v-2.433H.25z"/></g><g transform="translate(34.267 2)"><use fill="#F6AEA9" fill-rule="evenodd" xlink:href="#cZ"/><path stroke="#D4FFFF" stroke-width=".5" d="M.25 32.517v2.433h2.433v-2.433H.25z"/></g><g transform="translate(34.267 2)"><use fill="#9FE1E4" fill-rule="evenodd" xlink:href="#da"/><path stroke="#D4FFFF" stroke-width=".5" d="M.25 38.383v2.434h2.433v-2.434H.25z"/></g><g transform="translate(34.267 2)"><use fill="#A0D0F7" fill-rule="evenodd" xlink:href="#db"/><path stroke="#D4FFFF" stroke-width=".5" d="M.25 41.317v2.433h2.433v-2.433H.25z"/></g></g><g><g transform="translate(22.533 2)"><use fill="#CD3B3F" fill-rule="evenodd" xlink:href="#dc"/><path stroke="#D4FFFF" stroke-width=".5" d="M.25.25v2.433h2.433V.25H.25z"/></g><g transform="translate(22.533 2)"><use fill="#9FE1E4" fill-rule="evenodd" xlink:href="#dd"/><path stroke="#D4FFFF" stroke-width=".5" d="M.25 17.85v2.433h2.433V17.85H.25z"/></g><g transform="translate(22.533 2)"><use fill="#9FE1E4" fill-rule="evenodd" xlink:href="#de"/><path stroke="#D4FFFF" stroke-width=".5" d="M.25 3.183v2.434h2.433V3.183H.25z"/></g><g transform="translate(22.533 2)"><use fill="#CD3B3F" fill-rule="evenodd" xlink:href="#df"/><path stroke="#D4FFFF" stroke-width=".5" d="M.25 20.783v2.434h2.433v-2.434H.25z"/></g><g transform="translate(22.533 2)"><use fill="#9FE1E4" fill-rule="evenodd" xlink:href="#dg"/><path stroke="#D4FFFF" stroke-width=".5" d="M.25 6.117V8.55h2.433V6.117H.25z"/></g><g transform="translate(22.533 2)"><use fill="#9FE1E4" fill-rule="evenodd" xlink:href="#dh"/><path stroke="#D4FFFF" stroke-width=".5" d="M.25 23.717v2.433h2.433v-2.433H.25z"/></g><g transform="translate(22.533 2)"><use fill="#A0D0F7" fill-rule="evenodd" xlink:href="#di"/><path stroke="#D4FFFF" stroke-width=".5" d="M.25 9.05v2.433h2.433V9.05H.25z"/></g><g transform="translate(22.533 2)"><use fill="#9FE1E4" fill-rule="evenodd" xlink:href="#dj"/><path stroke="#D4FFFF" stroke-width=".5" d="M.25 26.65v2.433h2.433V26.65H.25z"/></g><g transform="translate(22.533 2)"><use fill="#9FE1E4" fill-rule="evenodd" xlink:href="#dk"/><path stroke="#D4FFFF" stroke-width=".5" d="M.25 11.983v2.434h2.433v-2.434H.25z"/></g><g transform="translate(22.533 2)"><use fill="#9FE1E4" fill-rule="evenodd" xlink:href="#dl"/><path stroke="#D4FFFF" stroke-width=".5" d="M.25 29.583h2.433v2.433H.25z"/></g><g transform="translate(22.533 2)"><use fill="#9FE1E4" fill-rule="evenodd" xlink:href="#dm"/><path stroke="#D4FFFF" stroke-width=".5" d="M.25 35.45v2.433h2.433V35.45H.25z"/></g><g transform="translate(22.533 2)"><use fill="#9FE1E4" fill-rule="evenodd" xlink:href="#dn"/><path stroke="#D4FFFF" stroke-width=".5" d="M.25 14.917v2.433h2.433v-2.433H.25z"/></g><g transform="translate(22.533 2)"><use fill="#A0D0F7" fill-rule="evenodd" xlink:href="#do"/><path stroke="#D4FFFF" stroke-width=".5" d="M.25 32.517v2.433h2.433v-2.433H.25z"/></g><g transform="translate(22.533 2)"><use fill="#9FE1E4" fill-rule="evenodd" xlink:href="#dp"/><path stroke="#D4FFFF" stroke-width=".5" d="M.25 38.383v2.434h2.433v-2.434H.25z"/></g><g transform="translate(22.533 2)"><use fill="#CD3B3F" fill-rule="evenodd" xlink:href="#dq"/><path stroke="#D4FFFF" stroke-width=".5" d="M.25 41.317v2.433h2.433v-2.433H.25z"/></g></g></g></svg>