<svg xmlns="http://www.w3.org/2000/svg" width="48" height="48" version="1"><defs><filter id="a" color-interpolation-filters="sRGB"><feFlood flood-opacity=".196" flood-color="#000" result="flood"/><feComposite in="flood" in2="SourceGraphic" operator="in" result="composite1"/><feGaussianBlur in="composite1" stdDeviation="1" result="blur"/><feOffset dx="0" dy="1" result="offset"/><feComposite in="SourceGraphic" in2="offset" operator="over" result="composite2"/></filter></defs><g filter="url(#a)"><circle r="20" cy="24" cx="24" fill="#36bb94"/><g opacity=".2" fill-rule="evenodd"><path d="M19.5 13c-.831 0-1.5.573-1.5 1.285V30h-3.5l5 6 5-6H21V14.285c0-.712-.669-1.285-1.5-1.285zM29.5 36c-.831 0-1.5-.573-1.5-1.285V19h-3.5l5-6 5 6H31v15.715c0 .712-.669 1.285-1.5 1.285z"/></g><g fill-rule="evenodd" fill="#fff"><path d="M19.5 12c-.831 0-1.5.573-1.5 1.285V29h-3.5l5 6 5-6H21V13.285c0-.712-.669-1.285-1.5-1.285zM29.5 35c-.831 0-1.5-.573-1.5-1.285V18h-3.5l5-6 5 6H31v15.715c0 .712-.669 1.285-1.5 1.285z"/></g><path d="M24 4A20 20 0 0 0 4 24a20 20 0 0 0 .021.582A20 20 0 0 1 24 5a20 20 0 0 1 19.979 19.418 20 20 0 0 0 .02-.418A20 20 0 0 0 24 4z" opacity=".2" fill="#fff"/><path d="M43.979 24.418A20 20 0 0 1 24 44 20 20 0 0 1 4.022 24.582 20 20 0 0 0 4 25a20 20 0 0 0 20 20 20 20 0 0 0 20-20 20 20 0 0 0-.021-.582z" opacity=".2"/></g></svg>