<svg width="48" height="48" version="1" xmlns="http://www.w3.org/2000/svg">
<defs>
<filter id="a" color-interpolation-filters="sRGB">
<feFlood flood-opacity=".196" result="flood"/>
<feComposite in="flood" in2="SourceGraphic" operator="in" result="composite1"/>
<feGaussianBlur in="composite1" result="blur" stdDeviation="1"/>
<feOffset dx="0" dy="1" result="offset"/>
<feComposite in="SourceGraphic" in2="offset" result="composite2"/>
</filter>
</defs>
<path d="m24.123 6c-2.467-0.013-4.98 0.46-7.408 1.469a18.942 18.942 0 0 0-10.246 24.816 18.942 18.942 0 0 0 24.816 10.245 18.942 18.942 0 0 0 10.246-24.816 18.943 18.943 0 0 0-17.408-11.714zm-0.123 9a10 10 0 0 1 10 10 10 10 0 0 1-10 10 10 10 0 0 1-10-10 10 10 0 0 1 10-10z" filter="url(#a)" opacity=".2"/>
<path d="m24.123 5c-2.467-0.013-4.98 0.46-7.408 1.469a18.942 18.942 0 0 0-10.246 24.816 18.942 18.942 0 0 0 24.816 10.246 18.942 18.942 0 0 0 10.246-24.816 18.943 18.943 0 0 0-17.408-11.715zm-0.123 9a10 10 0 0 1 10 10 10 10 0 0 1-10 10 10 10 0 0 1-10-10 10 10 0 0 1 10-10z" fill="#e4e4e4" filter="url(#a)"/>
<path d="m24.123 5c-2.467-0.013-4.98 0.46-7.408 1.469-7.463 3.101-11.87 10.355-11.69 17.955 0.212-7.229 4.555-13.99 11.69-16.955a19.015 19.015 0 0 1 7.408-1.469c7.4 0.038 14.382 4.43 17.408 11.715a19 19 0 0 1 1.444 6.863 18.969 18.969 0 0 0-1.444-7.863 18.943 18.943 0 0 0-17.408-11.715zm9.856 19.414a10 10 0 0 1-9.979 9.586 10 10 0 0 1-9.979-9.414 10 10 0 0 0-0.021 0.414 10 10 0 0 0 10 10 10 10 0 0 0 10-10 10 10 0 0 0-0.021-0.586z" fill="#fff" filter="url(#a)" opacity=".2"/>
<path d="m24.121 4a19.138 19.138 0 0 0-6.99 1.295 1.756 1.773 0 0 0-1.016 2.287l3.12 8.267a1.756 1.773 0 0 0 2.265 1.028 6.974 6.974 0 0 1 2.498-0.467 6.956 6.956 0 0 1 2.492 0.473 1.756 1.773 0 0 0 2.27-1.024l3.125-8.28a1.756 1.773 0 0 0-1.018-2.288 19.067 19.067 0 0 0-6.746-1.291zm-18.18 13a1.773 1.756 0 0 0-1.646 1.13 19.138 19.138 0 0 0-1.295 6.99 19.067 19.067 0 0 0 1.291 6.747 1.773 1.756 0 0 0 2.29 1.018l8.278-3.124a1.773 1.756 0 0 0 1.024-2.271 6.956 6.956 0 0 1-0.473-2.492c1e-3 -0.853 0.16-1.701 0.467-2.498a1.773 1.756 0 0 0-1.027-2.266l-8.268-3.119a1.773 1.756 0 0 0-0.64-0.115zm36.118 0a1.773 1.756 0 0 0-0.641 0.115l-8.268 3.12a1.773 1.756 0 0 0-1.027 2.265c0.307 0.797 0.466 1.645 0.467 2.498a6.956 6.956 0 0 1-0.473 2.492 1.773 1.756 0 0 0 1.024 2.271l8.279 3.124a1.773 1.756 0 0 0 2.289-1.018 19.067 19.067 0 0 0 1.291-6.747 19.138 19.138 0 0 0-1.295-6.99 1.773 1.756 0 0 0-1.645-1.13zm-14.881 16.002a1.756 1.773 0 0 0-0.688 0.115c-0.796 0.309-1.64 0.47-2.492 0.473a6.974 6.974 0 0 1-2.498-0.467 1.756 1.773 0 0 0-2.266 1.027l-3.119 8.268a1.756 1.773 0 0 0 1.016 2.287 19.138 19.138 0 0 0 6.989 1.295 19.067 19.067 0 0 0 6.746-1.291 1.756 1.773 0 0 0 1.018-2.29l-3.124-8.279a1.756 1.773 0 0 0-1.582-1.138z" filter="url(#a)" opacity=".2"/>
<path d="m24.121 3a19.138 19.138 0 0 0-6.99 1.295 1.756 1.773 0 0 0-1.016 2.287l3.12 8.268a1.756 1.773 0 0 0 2.265 1.027 6.974 6.974 0 0 1 2.498-0.467 6.956 6.956 0 0 1 2.492 0.473 1.756 1.773 0 0 0 2.27-1.024l3.125-8.279a1.756 1.773 0 0 0-1.018-2.289 19.067 19.067 0 0 0-6.746-1.291zm-18.18 13a1.773 1.756 0 0 0-1.646 1.13 19.138 19.138 0 0 0-1.295 6.992 19.067 19.067 0 0 0 1.291 6.746 1.773 1.756 0 0 0 2.29 1.018l8.278-3.123a1.773 1.756 0 0 0 1.024-2.272 6.956 6.956 0 0 1-0.473-2.492c1e-3 -0.853 0.16-1.7 0.467-2.498a1.773 1.756 0 0 0-1.027-2.266l-8.268-3.119a1.773 1.756 0 0 0-0.64-0.115zm36.118 0a1.773 1.756 0 0 0-0.641 0.115l-8.268 3.12a1.773 1.756 0 0 0-1.027 2.265c0.307 0.797 0.466 1.645 0.467 2.498a6.956 6.956 0 0 1-0.473 2.492 1.773 1.756 0 0 0 1.024 2.272l8.279 3.123a1.773 1.756 0 0 0 2.289-1.018 19.067 19.067 0 0 0 1.291-6.746 19.138 19.138 0 0 0-1.295-6.99 1.773 1.756 0 0 0-1.645-1.131zm-14.881 16.002a1.756 1.773 0 0 0-0.688 0.115c-0.796 0.31-1.64 0.47-2.492 0.473a6.974 6.974 0 0 1-2.498-0.467 1.756 1.773 0 0 0-2.266 1.027l-3.119 8.268a1.756 1.773 0 0 0 1.016 2.287 19.138 19.138 0 0 0 6.989 1.295 19.067 19.067 0 0 0 6.746-1.291 1.756 1.773 0 0 0 1.018-2.29l-3.125-8.278a1.756 1.773 0 0 0-1.582-1.139z" fill="#ea004e" filter="url(#a)"/>
</svg>
