<svg xmlns="http://www.w3.org/2000/svg" width="48" height="48" version="1"><defs><filter id="a" color-interpolation-filters="sRGB"><feFlood flood-opacity=".196" flood-color="#000" result="flood"/><feComposite in="flood" in2="SourceGraphic" operator="in" result="composite1"/><feGaussianBlur in="composite1" stdDeviation="1" result="blur"/><feOffset dx="0" dy="1" result="offset"/><feComposite in="SourceGraphic" in2="offset" operator="over" result="composite2"/></filter></defs><g filter="url(#a)"><circle r="20" cy="24" cx="24" fill="#eac046"/><path d="M21 9v3.375C15.27 13.73 11 18.855 11 25c0 7.18 5.82 13 13 13 6.316 0 11.581-4.505 12.755-10.477C37 25 34 25 33.728 27.326 32.68 31.727 28.722 35 24 35c-5.523 0-10-4.477-10-10 0-4.476 2.945-8.26 7-9.535V19l6-5z" opacity=".2" fill-rule="evenodd"/><path d="M21 8v3.375C15.27 12.73 11 17.855 11 24c0 7.18 5.82 13 13 13 6.316 0 11.581-4.505 12.755-10.477C37 24 34 24 33.728 26.326 32.68 30.727 28.722 34 24 34c-5.523 0-10-4.477-10-10 0-4.476 2.945-8.26 7-9.535V18l6-5z" fill-rule="evenodd" fill="#fff"/><path d="M24 4A20 20 0 0 0 4 24a20 20 0 0 0 .021.582A20 20 0 0 1 24 5a20 20 0 0 1 19.979 19.418 20 20 0 0 0 .02-.418A20 20 0 0 0 24 4z" opacity=".2" fill="#fff"/><path d="M43.979 24.418A20 20 0 0 1 24 44 20 20 0 0 1 4.022 24.582 20 20 0 0 0 4 25a20 20 0 0 0 20 20 20 20 0 0 0 20-20 20 20 0 0 0-.021-.582z" opacity=".2"/></g></svg>