<svg width="48" height="48" version="1.1" viewBox="0 0 48 48" xmlns="http://www.w3.org/2000/svg">
<defs>
<filter id="a" color-interpolation-filters="sRGB">
<feFlood flood-opacity=".196" result="flood"/>
<feComposite in="flood" in2="SourceGraphic" operator="in" result="composite1"/>
<feGaussianBlur in="composite1" result="blur" stdDeviation="1"/>
<feOffset dx="0" dy="1" result="offset"/>
<feComposite in="SourceGraphic" in2="offset" result="composite2"/>
</filter>
</defs>
<circle transform="matrix(1.4286 0 0 1.4286 1.143 .429)" cx="16" cy="16" r="14" fill="#ea004e" filter="url(#a)"/>
<path transform="matrix(1.4286 0 0 1.4286 1.143 .429)" d="M 16,2 A 14,14 0 0 0 2,16 14,14 0 0 0 2.021,16.586 14,14 0 0 1 16,3 14,14 0 0 1 29.978,16.414 14,14 0 0 0 30,16 14,14 0 0 0 16,2 Z" fill="#fff" filter="url(#a)" opacity=".2"/>
<path transform="matrix(1.4286 0 0 1.4286 1.143 .429)" d="M 29.979,16.414 A 14,14 0 0 1 16,30 14,14 0 0 1 2.022,16.586 14,14 0 0 0 2,17 14,14 0 0 0 16,31 14,14 0 0 0 30,17 14,14 0 0 0 29.979,16.414 Z" filter="url(#a)" opacity=".2"/>
<g transform="matrix(1.4286 0 0 1.4286 1.143 .429)" filter="url(#a)" stroke-width="1.077">
<path d="m14.506 6.643v7.464h2.986v-7.464zm-0.163 1.653m3.849 0.12a8.87 8.87 0 0 1-1e-3 0zm-4.733 0.093m5.648 0.19m-6.362 0.058a8.958 8.958 0 0 0-5.703 8.335 8.957 8.957 0 0 0 17.913 0 8.958 8.958 0 0 0-5.435-8.224l-1.157 2.743a5.97 5.97 0 0 1 3.607 5.481 5.97 5.97 0 0 1-5.971 5.971 5.97 5.97 0 0 1-5.971-5.97 5.97 5.97 0 0 1 3.68-5.508z" opacity=".2"/>
<path d="m14.506 5.95v7.464h2.986v-7.464zm-0.163 1.653m3.849 0.12a8.87 8.87 0 0 1-1e-3 0zm-4.733 0.093m5.648 0.19m-6.362 0.058a8.958 8.958 0 0 0-5.703 8.335 8.956 8.956 0 0 0 8.958 8.957 8.956 8.956 0 0 0 8.956-8.957 8.958 8.958 0 0 0-5.435-8.224l-1.157 2.743a5.97 5.97 0 0 1 3.606 5.482 5.97 5.97 0 0 1-5.971 5.971 5.97 5.97 0 0 1-5.971-5.97 5.97 5.97 0 0 1 3.68-5.508z" fill="#fff"/>
</g>
</svg>
