<svg version="1.1" xmlns="http://www.w3.org/2000/svg" x="0" y="0" viewBox="0 0 48 48" xml:space="preserve"><linearGradient id="a" gradientUnits="userSpaceOnUse" x1="24" y1="2" x2="24" y2="46"><stop offset="0" stop-color="#62ceff"/><stop offset="1" stop-color="#0b8bcb"/></linearGradient><path fill="url(#a)" d="M46 39.4c0 3.6-3 6.6-6.6 6.6H8.6C5 46 2 43 2 39.4V8.6C2 5 5 2 8.6 2h30.8C43 2 46 5 46 8.6v30.8z"/><path fill="#F1F2F3" d="M38 28.4c0 2.9-2.4 5.6-5.4 5.6H15.4c-3 0-5.4-2.7-5.4-5.6v-6.1c0-2.9 1.5-4.3 4.5-4.3h19c3 0 4.5 1.4 4.5 4.3v6.1z"/><path fill="#DCDDDD" d="M10 26v5.1c0 1.8.9 2.9 2.7 2.9h22.6c1.8 0 2.7-1.2 2.7-2.9V26H10z"/><path fill="#2B2D2F" d="M15 18h18v3H15zM15 30h18v3H15z"/><path fill="#BFC2C9" d="M16 33h16v3H16zM16 12h16v6H16z"/><path fill="#F9F9FA" d="M18 32h12v9H18zM30 18H18V7h9l3 3.8z"/><circle fill="#00913A" cx="35" cy="23" r="1"/><circle fill="#C30D23" cx="35" cy="27" r="1"/></svg>