<svg xmlns="http://www.w3.org/2000/svg" width="48" height="48" version="1"><defs><filter id="a" color-interpolation-filters="sRGB"><feFlood flood-opacity=".196" flood-color="#000" result="flood"/><feComposite in="flood" in2="SourceGraphic" operator="in" result="composite1"/><feGaussianBlur in="composite1" stdDeviation="1" result="blur"/><feOffset dx="0" dy="1" result="offset"/><feComposite in="SourceGraphic" in2="offset" operator="over" result="composite2"/></filter></defs><g filter="url(#a)"><circle r="20" cy="24" cx="24" fill="#ea882b"/><path d="M24 10c-4.432 0-7 3.503-7 8v3h-1.6c-.775 0-1.4.625-1.4 1.4v12.2c0 .775.625 1.4 1.4 1.4h17.2c.775 0 1.4-.625 1.4-1.4V22.4c0-.775-.625-1.4-1.4-1.4H31v-3c0-4.432-2.568-8-7-8zm0 3c2.77 0 4 2.23 4 5v3h-8v-3c0-2.77 1.23-5 4-5z" opacity=".2"/><path d="M24 9c-4.432 0-7 3.503-7 8v3h-1.6c-.775 0-1.4.625-1.4 1.4v12.2c0 .775.625 1.4 1.4 1.4h17.2c.775 0 1.4-.625 1.4-1.4V21.4c0-.775-.625-1.4-1.4-1.4H31v-3c0-4.432-2.568-8-7-8zm0 3c2.77 0 4 2.23 4 5v3h-8v-3c0-2.77 1.23-5 4-5z" fill="#fff"/><path d="M24 4A20 20 0 0 0 4 24a20 20 0 0 0 .021.582A20 20 0 0 1 24 5a20 20 0 0 1 19.979 19.418 20 20 0 0 0 .02-.418A20 20 0 0 0 24 4z" opacity=".2" fill="#fff"/><path d="M43.979 24.418A20 20 0 0 1 24 44 20 20 0 0 1 4.022 24.582 20 20 0 0 0 4 25a20 20 0 0 0 20 20 20 20 0 0 0 20-20 20 20 0 0 0-.021-.582z" opacity=".2"/></g></svg>