<?xml version="1.0" encoding="UTF-8"?>
<svg version="1.1" viewBox="0 0 48 48" xml:space="preserve" xmlns="http://www.w3.org/2000/svg" xmlns:cc="http://creativecommons.org/ns#" xmlns:dc="http://purl.org/dc/elements/1.1/" xmlns:rdf="http://www.w3.org/1999/02/22-rdf-syntax-ns#"><metadata><rdf:RDF><cc:Work rdf:about=""><dc:format>image/svg+xml</dc:format><dc:type rdf:resource="http://purl.org/dc/dcmitype/StillImage"/><dc:title/></cc:Work></rdf:RDF></metadata><defs><filter id="filter862" color-interpolation-filters="sRGB"><feFlood flood-color="rgb(0,0,0)" flood-opacity=".19608" result="flood"/><feComposite in="flood" in2="SourceGraphic" operator="in" result="composite1"/><feGaussianBlur in="composite1" result="blur" stdDeviation="1"/><feOffset dx="0" dy="1" result="offset"/><feComposite in="SourceGraphic" in2="offset" result="composite2"/></filter></defs><g filter="url(#filter862)"><path d="M38.167 43H9.833A2.834 2.834 0 0 1 7 40.167V38.75l2.368-18.985C9.634 17.638 11.442 16 13.585 16h20.83c2.143 0 3.951 1.638 4.217 3.765L41 38.75v1.417A2.834 2.834 0 0 1 38.167 43z" fill="#ACAEAA"/><path d="M33.69 36H14.31c-1.65 0-2.952-1.447-2.825-3.092l.981-12.521C12.579 18.911 13.81 18 15.29 18h17.42c1.481 0 2.711.89 2.825 2.366l.981 12.667C36.642 34.678 35.341 36 33.69 36z" fill="#F0F2EF"/><path d="M38.875 43H9.125a2.124 2.124 0 1 1 0-4.25h29.75a2.124 2.124 0 1 1 0 4.25z" fill="#787B76"/><path d="M29.079 29L27 21h-6l-1.968 8H15.5l8.5 5.667L32.5 29z" fill="#555958"/><path d="M19.015 30h1.018l2.245-10h3.399l2.297 10h1.071L24 33.172z" fill="#3B4040"/><path d="M35.247 11.016H12.753a2.92 2.92 0 0 1-2.919-2.919v-.178A2.918 2.918 0 0 1 12.753 5h22.495a2.92 2.92 0 0 1 2.919 2.919v.177a2.92 2.92 0 0 1-2.92 2.92z" fill="#E80000"/><path d="M12.667 8.008c-.781 0-1.417-.675-1.417-1.504S11.886 5 12.667 5h22.667c.781 0 1.417.675 1.417 1.504s-.636 1.504-1.417 1.504H12.667z" fill="#E58484"/><path d="m21 5h6v21h-6z" fill="#939692"/><path d="m22 5h4v21h-4z" fill="#AAAEA8"/><path d="m26 30h-4a1 1 0 0 1-1-1v-1a1 1 0 0 1 1-1h4a1 1 0 0 1 1 1v1a1 1 0 0 1-1 1z" fill="#555958"/></g></svg>
