<svg xmlns="http://www.w3.org/2000/svg" width="48" height="48" version="1"><defs><filter id="a" color-interpolation-filters="sRGB"><feFlood flood-opacity=".196" flood-color="#000" result="flood"/><feComposite in="flood" in2="SourceGraphic" operator="in" result="composite1"/><feGaussianBlur in="composite1" stdDeviation="1" result="blur"/><feOffset dx="0" dy="1" result="offset"/><feComposite in="SourceGraphic" in2="offset" operator="over" result="composite2"/></filter></defs><g filter="url(#a)"><circle r="11" cy="19" cx="14" opacity=".2"/><circle r="11" cy="18" cx="14" fill="#ccc"/><path d="M14 7A11 11 0 0 0 3 18a11 11 0 0 0 .021.586A11 11 0 0 1 14 8a11 11 0 0 1 10.979 10.414A11 11 0 0 0 25 18 11 11 0 0 0 14 7z" opacity=".2" fill="#fff"/><circle r="4" cy="16" cx="14" fill="#478be5"/><circle r="1" cy="16" cx="14" fill="#3f3f3f"/><circle r="14" cy="25" cx="31" opacity=".2"/><circle r="14" cy="24" cx="31" fill="#e4e4e4"/><circle r="6" cy="22" cx="33" fill="#478be5"/><circle r="2" cy="22" cx="33" fill="#3f3f3f"/><path d="M31 10a14 14 0 0 0-14 14 14 14 0 0 0 .021.586A14 14 0 0 1 31 11a14 14 0 0 1 13.979 13.414A14 14 0 0 0 45 24a14 14 0 0 0-14-14z" opacity=".2" fill="#fff"/></g></svg>