<svg width="48" height="48" version="1.1" viewBox="0 0 48 48" xmlns="http://www.w3.org/2000/svg" xmlns:xlink="http://www.w3.org/1999/xlink">
<defs>
<filter id="a" color-interpolation-filters="sRGB">
<feFlood flood-opacity=".196" result="flood"/>
<feComposite in="flood" in2="SourceGraphic" operator="in" result="composite1"/>
<feGaussianBlur in="composite1" result="blur" stdDeviation="1"/>
<feOffset dx="0" dy="1" result="offset"/>
<feComposite in="SourceGraphic" in2="offset" result="composite2"/>
</filter>
<linearGradient id="linearGradient906" x2="48" y1="20" y2="20" gradientTransform="matrix(.53452 0 0 1.8708 7.5 5)" gradientUnits="userSpaceOnUse">
<stop stop-color="#628FFF" offset="0"/>
<stop stop-color="#4084FF" offset="1"/>
</linearGradient>
</defs>
<path d="m6 6c-1.108 0-2 0.892-2 2v26h40v-26c0-1.108-0.892-2-2-2z" fill="url(#linearGradient906)" filter="url(#a)"/>
<path d="m6 42c-1.108 0-2-0.892-2-2v-6h40v6c0 1.108-0.892 2-2 2z" fill="#253951" filter="url(#a)"/>
<g fill="#fff">
<path d="m6 6c-1.108 0-2 0.892-2 2v1c0-1.108 0.892-2 2-2h36c1.108 0 2 0.892 2 2v-1c0-1.108-0.892-2-2-2z" filter="url(#a)" opacity=".1"/>
<rect x="5" y="35" width="18" height="6" rx="1.437" ry="1.544" filter="url(#a)" opacity=".2"/>
<rect x="24" y="35" width="18" height="6" rx="1.437" ry="1.544" filter="url(#a)" opacity=".2"/>
<path d="m6 36h4v4h-4zm19 0h4v4h-4z" filter="url(#a)"/>
</g>
<path d="m4 40v1c0 1.108 0.892 2 2 2h36c1.108 0 2-0.892 2-2v-1c0 1.108-0.892 2-2 2h-36c-1.108 0-2-0.892-2-2z" filter="url(#a)" opacity=".2"/>
</svg>
