<svg xmlns="http://www.w3.org/2000/svg" width="48" height="48" version="1"><defs><filter id="a" color-interpolation-filters="sRGB"><feFlood flood-opacity=".196" flood-color="#000" result="flood"/><feComposite in="flood" in2="SourceGraphic" operator="in" result="composite1"/><feGaussianBlur in="composite1" stdDeviation="1" result="blur"/><feOffset dx="0" dy="1" result="offset"/><feComposite in="SourceGraphic" in2="offset" operator="over" result="composite2"/></filter></defs><g filter="url(#a)"><path d="M4 12.9V41c0 1.108.892 2 2 2h34c1.108 0 2-.892 2-2V12.9z" opacity=".2"/><path d="M4 11.9V40c0 1.108.892 2 2 2h34c1.108 0 2-.892 2-2V11.9z" fill="#3575b8"/><rect ry="1.7" rx="1.492" y="29" x="7" height="10" width="14" opacity=".3"/><path d="M4 12v1h38v-1z" opacity=".2"/><path d="M42 12V8c0-1.108-.892-2-2-2H6c-1.108 0-2 .892-2 2v4z" fill="#e4e4e4"/><path d="M28.834 21.001a3.074 3.158 0 0 0-1.446.42l-4.926 2.922-4.926 2.922a3.074 3.158 0 0 0 0 5.468l4.926 2.922 4.926 2.922A3.074 3.158 0 0 0 32 35.84v-1.842h11c1.108 0 2-.892 2-2v-4c0-1.108-.892-2-2-2H32v-1.843A3.074 3.158 0 0 0 28.834 21z" opacity=".2"/><path d="M6 6c-1.108 0-2 .892-2 2v1c0-1.108.892-2 2-2h34c1.108 0 2 .892 2 2V8c0-1.108-.892-2-2-2H6z" fill="#fff" opacity=".2"/><rect ry="1.7" rx="1.492" y="15" x="25" height="10" width="14" opacity=".3"/><rect ry="2" rx="2" y="25" x="27" height="8" width="18" fill="#c7db59"/><path d="M28.834 20.001a3.074 3.158 0 0 0-1.445.422l-4.927 2.92-4.924 2.922a3.074 3.158 0 0 0 0 5.47l4.924 2.921 4.927 2.921A3.074 3.158 0 0 0 32 34.841V23.157A3.074 3.158 0 0 0 28.834 20z" fill="#c7db59"/><path d="M28.834 20.002a3.074 3.158 0 0 0-1.445.42l-4.926 2.922-4.926 2.922a3.074 3.158 0 0 0-1.496 3.232 3.074 3.158 0 0 1 1.496-2.234l4.926-2.922 4.926-2.922a3.074 3.158 0 0 1 1.445-.42A3.074 3.158 0 0 1 32 24.154v-.998a3.074 3.158 0 0 0-3.166-3.154zM32 25v.998h11c1.108 0 2 .892 2 2V27c0-1.108-.892-2-2-2H32z" opacity=".2" fill="#fff"/></g></svg>