<svg width="48" height="48" version="1.1" viewBox="0 0 48 48" xmlns="http://www.w3.org/2000/svg" xmlns:xlink="http://www.w3.org/1999/xlink">
<defs>
<filter id="a" color-interpolation-filters="sRGB">
<feFlood flood-opacity=".196" result="flood"/>
<feComposite in="flood" in2="SourceGraphic" operator="in" result="composite1"/>
<feGaussianBlur in="composite1" result="blur" stdDeviation="1"/>
<feOffset dx="0" dy="1" result="offset"/>
<feComposite in="SourceGraphic" in2="offset" result="composite2"/>
</filter>
<linearGradient id="linearGradient915" x2="48" y1="20.05" y2="20.05" gradientTransform="matrix(.53452 0 0 1.8708 7.5 5)" gradientUnits="userSpaceOnUse">
<stop stop-color="#628FFF" offset="0"/>
<stop stop-color="#4084FF" offset="1"/>
</linearGradient>
</defs>
<path d="m6 6c-1.108 0-2 0.892-2 2v26.1h40v-26.1c0-1.108-0.892-2-2-2z" fill="url(#linearGradient915)" filter="url(#a)"/>
<path d="m6 42c-1.108 0-2-0.892-2-2v-6h40v6c0 1.108-0.892 2-2 2z" fill="#253951" filter="url(#a)"/>
<path d="m6 6c-1.108 0-2 0.892-2 2v1c0-1.108 0.892-2 2-2h36c1.108 0 2 0.892 2 2v-1c0-1.108-0.892-2-2-2z" fill="#fff" filter="url(#a)" opacity=".1"/>
<circle cx="26" cy="39" r="2" filter="url(#a)" opacity=".2"/>
<circle cx="26" cy="38" r="2" fill="#fff" filter="url(#a)" opacity=".72"/>
<circle cx="32" cy="39" r="2" filter="url(#a)" opacity=".2"/>
<circle cx="32" cy="38" r="2" fill="#fff" filter="url(#a)" opacity=".72"/>
<circle cx="38" cy="39" r="2" filter="url(#a)" opacity=".2"/>
<circle cx="38" cy="38" r="2" fill="#fff" filter="url(#a)" opacity=".72"/>
<path d="m4 40v1c0 1.108 0.892 2 2 2h36c1.108 0 2-0.892 2-2v-1c0 1.108-0.892 2-2 2h-36c-1.108 0-2-0.892-2-2z" filter="url(#a)" opacity=".2"/>
</svg>
