<?xml version="1.0" encoding="UTF-8"?>
<svg width="48" height="48" version="1" xmlns="http://www.w3.org/2000/svg" xmlns:cc="http://creativecommons.org/ns#" xmlns:dc="http://purl.org/dc/elements/1.1/" xmlns:rdf="http://www.w3.org/1999/02/22-rdf-syntax-ns#">
 <metadata>
  <rdf:RDF>
   <cc:Work rdf:about="">
    <dc:format>image/svg+xml</dc:format>
    <dc:type rdf:resource="http://purl.org/dc/dcmitype/StillImage"/>
    <dc:title/>
   </cc:Work>
  </rdf:RDF>
 </metadata>
 <defs>
  <filter id="a" color-interpolation-filters="sRGB">
   <feFlood flood-opacity=".196" result="flood"/>
   <feComposite in="flood" in2="SourceGraphic" operator="in" result="composite1"/>
   <feGaussianBlur in="composite1" result="blur" stdDeviation="1"/>
   <feOffset dx="0" dy="1" result="offset"/>
   <feComposite in="SourceGraphic" in2="offset" result="composite2"/>
  </filter>
  <filter id="filter864" color-interpolation-filters="sRGB">
   <feFlood flood-color="rgb(0,0,0)" flood-opacity=".19608" result="flood"/>
   <feComposite in="flood" in2="SourceGraphic" operator="in" result="composite1"/>
   <feGaussianBlur in="composite1" result="blur" stdDeviation="1"/>
   <feOffset dx="0" dy="1" result="offset"/>
   <feComposite in="SourceGraphic" in2="offset" result="composite2"/>
  </filter>
 </defs>
 <g filter="url(#filter864)">
  <rect transform="matrix(0,-1,-1,0,0,0)" x="-44" y="-44" width="40" height="40" rx="2" ry="2" fill="#f5b923"/>
  <path d="m6 4c-1.108 0-2 0.892-2 2v1c0-1.108 0.892-2 2-2h36c1.108 0 2 0.892 2 2v-1c0-1.108-0.892-2-2-2z" fill="#fff" filter="url(#a)" opacity=".2"/>
  <path d="m6 45c-1.108 0-2-0.892-2-2v-1c0 1.108 0.892 2 2 2h36c1.108 0 2-0.892 2-2v1c0 1.108-0.892 2-2 2z" filter="url(#a)" opacity=".2"/>
  <path d="m14 13c-1.108 0-2 0.892-2 2v20c0 1.108 0.892 2 2 2s2-0.892 2-2v-20c0-1.108-0.892-2-2-2zm10 0c-1.108 0-2 0.892-2 2v20c0 1.108 0.892 2 2 2s2-0.892 2-2v-20c0-1.108-0.892-2-2-2zm10 0c-1.108 0-2 0.892-2 2v20c0 1.108 0.892 2 2 2s2-0.892 2-2v-20c0-1.108-0.892-2-2-2z" filter="url(#a)" opacity=".3"/>
  <path d="m12 20v15c0 1.108 0.892 2 2 2s2-0.892 2-2v-15zm20 2v13c0 1.108 0.892 2 2 2s2-0.892 2-2v-13zm-10 8v5c0 1.108 0.892 2 2 2s2-0.892 2-2v-5z" fill="#4f4f4f" filter="url(#a)"/>
  <path d="m14 18a4 4 0 1 0 0 8 4 4 0 0 0 0-8zm20 2a4 4 0 1 0 0 8 4 4 0 0 0 0-8zm-10 6a4 4 0 1 0 0 8 4 4 0 0 0 0-8z" filter="url(#a)" opacity=".2"/>
  <path d="m14 17a4 4 0 1 0 0 8 4 4 0 0 0 0-8zm20 2a4 4 0 1 0 0 8 4 4 0 0 0 0-8zm-10 6a4 4 0 1 0 0 8 4 4 0 0 0 0-8z" fill="#fff" filter="url(#a)"/>
 </g>
</svg>
