<svg width="16" height="16" version="1.1" viewBox="0 0 16 16" xmlns="http://www.w3.org/2000/svg">
<defs>
<linearGradient id="deepin-launcher-a" x1="50%" x2="50%" y1="4.64%" y2="97.178%">
<stop stop-color="#00ABFF" offset="0"/>
<stop stop-color="#0163FA" offset="1"/>
</linearGradient>
</defs>
<g fill-rule="evenodd">
<path d="m1 8c0-3.866 3.134-7 7-7s7 3.134 7 7-3.134 7-7 7-7-3.134-7-7z" fill="url(#deepin-launcher-a)"/>
<path d="m11.701 4.6381c-0.099173 5.1928e-4 -0.20055-6.8267e-4 -0.3031-0.0040483 0 0-1.4535 0.067874-2.2685 0.47439 0 0-0.60777 0.27101-1.2153 0.7305 0 0-0.12894 0.064456-0.1227 0.30128 0.0054866 0.2361-0.1237 0.86552-0.55415 1.2344 0 0-0.30725 0.15797-0.15363 0.38405 0 0 0.2075 0.30128 0.49978-0.015137 0 0 0.75367-0.77543 0.7998-2.025 0 0 0.23842-0.20362 0.615-0.26368 0 0 0.069331 1.8746-0.86091 2.8158 0 0-0.88485 0.96367-1.1692-0.46682 0 0-0.34616-1.3629 1.4383-2.9813 0 0 0.83463-0.83353 1.5221-1.4371-0.59346-0.24833-1.245-0.38551-1.9285-0.38551-0.34263 0-0.6772 0.034465-1.0005 0.10012-0.59692 1.1087-0.90085 2.5836-0.87217 3.5402 0 0-0.053502 1.6588 1.081 2.2472 0 0 1.0196 0.44806 1.7144-1.0008 0 0 0.47755-0.81764 0.28317-2.6655 0 0 0.18597 0.03282 0.207 0.06231 0.021027 0.029252 0.41073 1.4227 0.13691 2.5961 0 0-0.25209 1.3789-1.4915 1.6943-1.239 0.31535-2.2046-0.44758-2.8602-1.1663-0.42878-0.47005-1.0401-1.6359-1.4244-3.0807-0.49009 0.77319-0.77385 1.6901-0.77385 2.6732 0 0.92944 0.25361 1.7996 0.6954 2.5452 1.4389 0.34556 3.9325 0.68095 5.6058-0.54541 1.2923-0.94732 1.1258-2.4644 1.1258-2.4644-0.021395-1.154-0.72396-2.3002-0.72396-2.3002 2.7319 2.4714 1.1172 5.217 1.1172 5.217-0.57089 1.166-1.5995 2.0129-2.6534 2.545 2.6842-0.088023 4.8331-2.2916 4.8331-4.9972 0-1.2944-0.4919-2.474-1.299-3.362zm-3.701 9.3619c-3.3137 0-6-2.6862-6-5.9999 0-3.3137 2.6863-6.0001 6-6.0001 3.3137 0 6 2.6864 6 6.0001 0 3.3137-2.6863 5.9999-6 5.9999z" fill="#F0F9FF" fill-rule="nonzero"/>
</g>
</svg>
