<?xml version="1.0" encoding="UTF-8"?>
<svg width="16" height="16" version="1.1" viewBox="0 0 16 16" xmlns="http://www.w3.org/2000/svg" xmlns:cc="http://creativecommons.org/ns#" xmlns:dc="http://purl.org/dc/elements/1.1/" xmlns:rdf="http://www.w3.org/1999/02/22-rdf-syntax-ns#">
 <metadata>
  <rdf:RDF>
   <cc:Work rdf:about="">
    <dc:format>image/svg+xml</dc:format>
    <dc:type rdf:resource="http://purl.org/dc/dcmitype/StillImage"/>
    <dc:title/>
   </cc:Work>
  </rdf:RDF>
 </metadata>
 <defs>
  <style id="current-color-scheme" type="text/css">.ColorScheme-Text { color:#444444; } .ColorScheme-Highlight { color:#5294e2; }</style>
 </defs>
 <path class="ColorScheme-Text" d="m8 0a8 8 0 0 0-8 8 8 8 0 0 0 8 8 8 8 0 0 0 5.2773-2h-5.2773a6 6 0 0 1-6-6 6 6 0 0 1 6-6v1a5 5 0 0 0-5 5 5 5 0 0 0 5 5h3.3086 2.9277a8 8 0 0 0 0.68359-1h-6.9199c-2.2091 0-4-1.7909-4-4s1.7909-4 4-4c0.33752 0.00126 0.67352 0.045229 1 0.13086v1.0449c-0.32092-0.11498-0.6591-0.17438-1-0.17578-1.6569 0-3 1.3431-3 3s1.3431 3 3 3h7.4102a8 8 0 0 0 0.32422-1h-7.7344a2 2 0 0 1-2-2 2 2 0 0 1 2-2 2 2 0 0 1 1.7305 1h-1.7305a1 1 0 0 0-1 1 1 1 0 0 0 1 1h7.9297a8 8 0 0 0 0.07031-1 8 8 0 0 0-8-8z" fill="#808080"/>
</svg>
