<svg width="16" height="16" version="1.1" viewBox="0 0 16 16" xmlns="http://www.w3.org/2000/svg">
<defs>
<style id="current-color-scheme" type="text/css">.ColorScheme-Text { color:#444444; } .ColorScheme-Highlight { color:#5294e2; }</style>
</defs>
<path class="ColorScheme-Text" d="m11.497 8.4063c-0.016251-1.625 1.3432-2.4376 1.4033-2.4376-0.7638-1.1376-1.9534-1.3001-2.3767-1.3001-1.0128-0.1625-1.9758 0.56878-2.4896 0.56878-0.51247 0-1.3054-0.56878-2.145-0.56878-1.1035 0-2.121 0.65004-2.6892 1.625-1.1465 2.0314-0.29358 4.9566 0.82384 6.5817 0.54603 0.73129 1.1971 1.625 2.0521 1.625 0.82327 0 1.1345-0.56878 2.1299-0.56878 0.99523 0 1.275 0.56878 2.1466 0.56878 0.88567 0 1.4472-0.81254 1.9891-1.625 0.62648-0.89382 0.88489-1.7876 0.90032-1.8688-0.0195 0-1.7275-0.65004-1.7445-2.6001zm-1.637-4.794c0.45389-0.56878 0.76022-1.3814 0.67653-2.1126-0.65362 0-1.4459 0.40627-1.9148 0.97512-0.42074 0.48753-0.78906 1.3001-0.69034 2.0314 0.72959 0.081255 1.4744-0.40627 1.9286-0.89382z" color="#444444" fill="none" stroke="#808080" stroke-width=".99937"/>
</svg>
