<?xml version="1.0" encoding="UTF-8"?>
<svg width="16px" height="16px" version="1.1" viewBox="0 0 16 16" xmlns="http://www.w3.org/2000/svg" xmlns:cc="http://creativecommons.org/ns#" xmlns:dc="http://purl.org/dc/elements/1.1/" xmlns:rdf="http://www.w3.org/1999/02/22-rdf-syntax-ns#">
 <metadata>
  <rdf:RDF>
   <cc:Work rdf:about="">
    <dc:format>image/svg+xml</dc:format>
    <dc:type rdf:resource="http://purl.org/dc/dcmitype/StillImage"/>
    <dc:title>folder-videos-symbolic</dc:title>
   </cc:Work>
  </rdf:RDF>
 </metadata>
 <title>folder-videos-symbolic</title>
 <desc>Created with Sketch.</desc>
 <g id="folder-videos-symbolic" fill="#808080">
  <path id="Combined-Shape" d="m11 6v2h2c0.27614 0 0.5 0.22386 0.5 0.5s-0.22386 0.5-0.5 0.5h-2v2h2c0.27614 0 0.5 0.22386 0.5 0.5s-0.22386 0.5-0.5 0.5h-2v2c0 0.27614-0.22386 0.5-0.5 0.5s-0.5-0.22386-0.5-0.5v-5h-4v5c0 0.27614-0.22386 0.5-0.5 0.5s-0.5-0.22386-0.5-0.5v-2h-2c-0.27614 0-0.5-0.22386-0.5-0.5s0.22386-0.5 0.5-0.5h2v-2h-2c-0.27614 0-0.5-0.22386-0.5-0.5s0.22386-0.5 0.5-0.5h2v-2h-2c-0.27614 0-0.5-0.22386-0.5-0.5s0.22386-0.5 0.5-0.5h2v-2c0-0.27614 0.22386-0.5 0.5-0.5s0.5 0.22386 0.5 0.5v5h4v-5c0-0.27614 0.22386-0.5 0.5-0.5s0.5 0.22386 0.5 0.5v2h2c0.27614 0 0.5 0.22386 0.5 0.5s-0.22386 0.5-0.5 0.5z"/>
  <path d="m2 2.5c0-0.27614 0.22386-0.5 0.5-0.5h11c0.27614 0 0.5 0.22386 0.5 0.5v12c0 0.27614-0.22386 0.5-0.5 0.5h-11c-0.27614 0-0.5-0.22386-0.5-0.5zm1 11.5h10v-11h-10z"/>
 </g>
</svg>
