<svg width="16" height="16" version="1.1" xmlns="http://www.w3.org/2000/svg">
<defs>
<style id="current-color-scheme" type="text/css">.ColorScheme-Text { color:#444444; } .ColorScheme-Highlight { color:#5294e2; }</style>
</defs>
<path class="ColorScheme-Text" d="m6 5h4v3h-3v3h-1v-5zm1 1v1h2v-1z" color="#444444" fill="#808080"/>
<path d="m7.6484 1.9453-0.058594 0.10742c-1.8225 0.13538-3.4136 1.1847-4.2285 2.8242-1.9668 0.39914-3.4164 2.1054-3.418 4.1309v0.00195c0.0027189 2.0914 1.554 3.785 3.5703 4.123v0.12695h9.6113c1.553 2.5e-4 2.8225-1.2693 2.8223-2.8223-1e-3 -0.84554-0.43488-1.5921-1.0762-2.123 0.06212-0.23441 0.13791-0.4675 0.13867-0.71094v-0.00195c-0.001562-1.411-1.0915-2.4923-2.4531-2.7051-0.86533-1.7727-2.6259-2.9487-4.6113-2.9512zm0.29688 1c1.6662 0.00206 3.1688 0.98794 3.834 2.5156l0.12695 0.29102 0.31641 0.00977c1.0002 0.031322 1.786 0.8411 1.7871 1.8418-9.65e-4 0.23133-0.04519 0.45895-0.13086 0.67383l-0.15625 0.39062 0.35742 0.2207c0.53854 0.33166 0.86644 0.91641 0.86719 1.5488 1.57e-4 1.0124-0.80985 1.8224-1.8223 1.8223h-8.9141l-0.17188-0.0078c-1.7357-0.083171-3.0924-1.5047-3.0957-3.2422v-0.00195c0.002162-1.6079 1.1701-2.9664 2.7598-3.209l0.27734-0.042969 0.10742-0.25781c0.6567-1.5495 2.1744-2.5527 3.8574-2.5527z" color="#444444" color-rendering="auto" dominant-baseline="auto" fill="#808080" image-rendering="auto" shape-rendering="auto" solid-color="#000000" style="font-feature-settings:normal;font-variant-alternates:normal;font-variant-caps:normal;font-variant-ligatures:normal;font-variant-numeric:normal;font-variant-position:normal;isolation:auto;mix-blend-mode:normal;shape-padding:0;text-decoration-color:#000000;text-decoration-line:none;text-decoration-style:solid;text-indent:0;text-orientation:mixed;text-transform:none;white-space:normal"/>
</svg>
