<?xml version="1.0" encoding="UTF-8"?>
<svg width="16px" height="16px" version="1.1" viewBox="0 0 16 16" xmlns="http://www.w3.org/2000/svg" xmlns:cc="http://creativecommons.org/ns#" xmlns:dc="http://purl.org/dc/elements/1.1/" xmlns:rdf="http://www.w3.org/1999/02/22-rdf-syntax-ns#">
 <metadata>
  <rdf:RDF>
   <cc:Work rdf:about="">
    <dc:format>image/svg+xml</dc:format>
    <dc:type rdf:resource="http://purl.org/dc/dcmitype/StillImage"/>
    <dc:title>folder-download-symbolic</dc:title>
   </cc:Work>
  </rdf:RDF>
 </metadata>
 <title>folder-download-symbolic</title>
 <desc>Created with Sketch.</desc>
 <g id="folder-download-symbolic" fill="#808080">
  <path id="Combined-Shape" d="m4.501 2c-0.27614 0-0.5-0.22386-0.5-0.5s0.22386-0.5 0.5-0.5h7c0.27614 0 0.5 0.22386 0.5 0.5s-0.22386 0.5-0.5 0.5zm0 1h7c0.27614 0 0.5 0.22386 0.5 0.5v2c0 0.27614-0.22386 0.5-0.5 0.5h-7c-0.27614 0-0.5-0.22386-0.5-0.5v-2c0-0.27614 0.22386-0.5 0.5-0.5zm0.5 2h6v-1h-6zm-1 2.5c0-0.27614 0.22386-0.5 0.5-0.5h7c0.27614 0 0.5 0.22386 0.5 0.5v1.5h2.5c0.47742 0 0.68327 0.60522 0.30486 0.89631l-6.5 5c-0.17973 0.13825-0.42998 0.13825-0.60971 0l-6.5-5c-0.37842-0.29109-0.17257-0.89631 0.30486-0.89631h2.5v-1.5zm1 2c0 0.27614-0.22386 0.5-0.5 0.5h-1.5299l5.0299 3.8692 5.0299-3.8692h-1.5299c-0.27614 0-0.5-0.22386-0.5-0.5v-1.5h-6z" fill="#808080"/>
 </g>
</svg>
