<svg width="16" height="16" version="1.1" xmlns="http://www.w3.org/2000/svg">
<defs>
<style id="current-color-scheme" type="text/css">.ColorScheme-Text { color:#444444; } .ColorScheme-Highlight { color:#5294e2; }</style>
</defs>
<path class="ColorScheme-Text" d="m8 1.4998a6.5002 6.5002 0 0 0-6.5002 6.5002 6.5002 6.5002 0 0 0 6.5002 6.5002 6.5002 6.5002 0 0 0 6.5002-6.5002 6.5002 6.5002 0 0 0-6.5002-6.5002zm0 4.643a1.8572 1.8572 0 0 1 1.8572 1.8572 1.8572 1.8572 0 0 1-1.8572 1.8572 1.8572 1.8572 0 0 1-1.8572-1.8572 1.8572 1.8572 0 0 1 1.8572-1.8572z" color="#444444" fill="none" stroke="#808080" stroke-width=".99966"/>
</svg>
