<svg width="16" height="16" version="1.1" viewBox="0 0 16 16" xmlns="http://www.w3.org/2000/svg">
<defs>
<style id="current-color-scheme" type="text/css">.ColorScheme-Text { color:#444444; } .ColorScheme-Highlight { color:#5294e2; }</style>
</defs>
<path d="m7.9922 1.0078c-3.8601 0-7 3.1399-7 7 0 3.8601 3.1399 7 7 7 3.8601 0 7-3.1399 7-7-1e-6 -3.8601-3.1399-7-7-7zm0 1c3.3199 0 6 2.6801 6 6 0 3.3199-2.6801 6-6 6-3.3199 0-6-2.6801-6-6 0-3.3199 2.6801-6 6-6zm-0.95703 1.0488v5.9961h2.002v-5.9961zm0.99805 1h0.00391v3.9961h-0.00391zm-0.041016 6.0273c-0.78303 0-1.4297 0.64667-1.4297 1.4297 0 0.78303 0.64667 1.4277 1.4297 1.4277 0.78303 0 1.4277-0.64471 1.4277-1.4277 0-0.78303-0.64471-1.4297-1.4277-1.4297zm0 1c0.24215 0 0.42773 0.18753 0.42773 0.42969 0 0.24214-0.18559 0.42773-0.42773 0.42773-0.24214 0-0.42969-0.18559-0.42969-0.42773 0-0.24214 0.18754-0.42969 0.42969-0.42969z" color="#444444" color-rendering="auto" dominant-baseline="auto" fill="#808080" image-rendering="auto" shape-rendering="auto" solid-color="#000000" style="font-feature-settings:normal;font-variant-alternates:normal;font-variant-caps:normal;font-variant-ligatures:normal;font-variant-numeric:normal;font-variant-position:normal;isolation:auto;mix-blend-mode:normal;shape-padding:0;text-decoration-color:#000000;text-decoration-line:none;text-decoration-style:solid;text-indent:0;text-orientation:mixed;text-transform:none;white-space:normal"/>
</svg>
