<svg width="16" height="16" version="1.1" viewBox="0 0 16 16" xmlns="http://www.w3.org/2000/svg">
<defs>
<style id="current-color-scheme" type="text/css">.ColorScheme-Text { color:#444444; } .ColorScheme-Highlight { color:#5294e2; }</style>
</defs>
<g fill="#808080" shape-rendering="auto">
<path d="m10.324 1.957c-0.73 0-1.332 0.60399-1.332 1.334v3.334c0 0.73 0.60203 1.332 1.332 1.332h3.334c0.73 0 1.334-0.60203 1.334-1.332v-3.334c0-0.73-0.60399-1.334-1.334-1.334zm0 1h3.334c0.19335 0 0.33398 0.14063 0.33398 0.33398v3.334c0 0.19335-0.14063 0.33203-0.33398 0.33203h-3.334c-0.19335 0-0.33203-0.13868-0.33203-0.33203v-3.334c0-0.19335 0.13868-0.33398 0.33203-0.33398z" color="#444444" color-rendering="auto" dominant-baseline="auto" image-rendering="auto" solid-color="#000000" style="font-feature-settings:normal;font-variant-alternates:normal;font-variant-caps:normal;font-variant-ligatures:normal;font-variant-numeric:normal;font-variant-position:normal;isolation:auto;mix-blend-mode:normal;shape-padding:0;text-decoration-color:#000000;text-decoration-line:none;text-decoration-style:solid;text-indent:0;text-orientation:mixed;text-transform:none;white-space:normal"/>
<path d="m3.3418 1.957c-0.73 0-1.334 0.60399-1.334 1.334v3.334c0 0.73 0.60399 1.332 1.334 1.332h3.334c0.73 0 1.332-0.60203 1.332-1.332v-3.334c0-0.73-0.60203-1.334-1.332-1.334zm0 1h3.334c0.19335 0 0.33203 0.14063 0.33203 0.33398v3.334c0 0.19335-0.13868 0.33203-0.33203 0.33203h-3.334c-0.19335 0-0.33398-0.13868-0.33398-0.33203v-3.334c0-0.19335 0.14063-0.33398 0.33398-0.33398z" color="#444444" color-rendering="auto" dominant-baseline="auto" image-rendering="auto" solid-color="#000000" style="font-feature-settings:normal;font-variant-alternates:normal;font-variant-caps:normal;font-variant-ligatures:normal;font-variant-numeric:normal;font-variant-position:normal;isolation:auto;mix-blend-mode:normal;shape-padding:0;text-decoration-color:#000000;text-decoration-line:none;text-decoration-style:solid;text-indent:0;text-orientation:mixed;text-transform:none;white-space:normal"/>
<path d="m3.3418 9.0078c-0.73 0-1.334 0.60399-1.334 1.334v3.334c0 0.73 0.60399 1.332 1.334 1.332h3.334c0.73 0 1.332-0.60203 1.332-1.332v-3.334c0-0.73-0.60203-1.334-1.332-1.334zm0 1h3.334c0.19335 0 0.33203 0.14063 0.33203 0.33398v3.334c0 0.19335-0.13868 0.33203-0.33203 0.33203h-3.334c-0.19335 0-0.33398-0.13868-0.33398-0.33203v-3.334c0-0.19335 0.14063-0.33398 0.33398-0.33398z" color="#444444" color-rendering="auto" dominant-baseline="auto" image-rendering="auto" solid-color="#000000" style="font-feature-settings:normal;font-variant-alternates:normal;font-variant-caps:normal;font-variant-ligatures:normal;font-variant-numeric:normal;font-variant-position:normal;isolation:auto;mix-blend-mode:normal;shape-padding:0;text-decoration-color:#000000;text-decoration-line:none;text-decoration-style:solid;text-indent:0;text-orientation:mixed;text-transform:none;white-space:normal"/>
<path d="m10.324 9.0078c-0.73 0-1.332 0.60399-1.332 1.334v3.334c0 0.73 0.60203 1.332 1.332 1.332h3.334c0.73 0 1.334-0.60203 1.334-1.332v-3.334c0-0.73-0.60399-1.334-1.334-1.334zm0 1h3.334c0.19335 0 0.33398 0.14063 0.33398 0.33398v3.334c0 0.19335-0.14063 0.33203-0.33398 0.33203h-3.334c-0.19335 0-0.33203-0.13868-0.33203-0.33203v-3.334c0-0.19335 0.13868-0.33398 0.33203-0.33398z" color="#444444" color-rendering="auto" dominant-baseline="auto" image-rendering="auto" solid-color="#000000" style="font-feature-settings:normal;font-variant-alternates:normal;font-variant-caps:normal;font-variant-ligatures:normal;font-variant-numeric:normal;font-variant-position:normal;isolation:auto;mix-blend-mode:normal;shape-padding:0;text-decoration-color:#000000;text-decoration-line:none;text-decoration-style:solid;text-indent:0;text-orientation:mixed;text-transform:none;white-space:normal"/>
</g>
</svg>
