<svg width="16" height="16" version="1.1" viewBox="0 0 16 16" xmlns="http://www.w3.org/2000/svg">
<defs>
<style id="current-color-scheme" type="text/css">.ColorScheme-Text { color:#444444; } .ColorScheme-Highlight { color:#5294e2; }</style>
</defs>
<path d="m3.1426 0.34375-0.33008 0.39648-0.9707 0.97461 1.4121 1.4141c-0.14975 0.3424-0.31791 0.6836-0.31836 1.0605v0.00195c1.259e-4 1.1285 0.76401 2.0235 1.7832 2.4316v3.1641c-1.0177 0.40757-1.7813 1.3009-1.7832 2.4277 0 1.5014 1.2291 2.7305 2.7305 2.7305 1.5014 0 2.7285-1.2291 2.7285-2.7305-1.259e-4 -1.1285-0.76401-2.0235-1.7832-2.4316v-3.0859c0.050252-0.018779 0.099379-0.038839 0.14844-0.060547l0.95312 0.95312c-0.14929 0.34253-0.31641 0.68368-0.31641 1.0605 0 1.5014 1.2271 2.7305 2.7285 2.7305 1.5014 0 2.7305-1.2291 2.7305-2.7305 0-1.5014-1.2291-2.7285-2.7305-2.7285-0.38387 4.677e-4 -0.73066 0.17304-1.0781 0.32812l-0.97656-0.97852c0.15465-0.34763 0.32616-0.69624 0.32617-1.0801 0-1.5014-1.2271-2.7285-2.7285-2.7285h-0.00195c-0.38319 7.598e-4 -0.72933 0.17331-1.0762 0.32812zm2.5254 2.1191c0.96093 0 1.7285 0.76758 1.7285 1.7285-1.42e-5 0.34143-0.10162 0.67686-0.29102 0.96094l-0.19336 0.29102-0.29883 0.19336c-0.18316 0.11872-0.38558 0.2013-0.59961 0.24414l-0.36133 0.072266-0.33203-0.068359c-0.80796-0.16495-1.3847-0.86873-1.3848-1.6934 3.994e-4 -0.33658 0.10043-0.6659 0.28516-0.94727l0.18945-0.28906 0.30078-0.19922c0.28355-0.18963 0.61592-0.29229 0.95703-0.29297zm4.457 4.459c0.96093 0 1.7305 0.76758 1.7305 1.7285s-0.76954 1.7305-1.7305 1.7305c-0.96093 0-1.7285-0.76954-1.7285-1.7305-4.1e-6 -0.33645 0.097003-0.66575 0.28125-0.94727l0.18945-0.28906 0.29883-0.20117c0.2834-0.18952 0.61808-0.29022 0.95898-0.29102zm-4.4512 3.5312 0.33789 0.06836c0.80796 0.16495 1.3827 0.86873 1.3828 1.6934 0 0.96093-0.76758 1.7305-1.7285 1.7305-0.96028 0-1.7294-0.7685-1.7305-1.7285v-2e-3c0.0022916-0.8227 0.57846-1.5248 1.3848-1.6894z" color="#444444" color-rendering="auto" dominant-baseline="auto" fill="#808080" image-rendering="auto" shape-rendering="auto" solid-color="#000000" style="font-feature-settings:normal;font-variant-alternates:normal;font-variant-caps:normal;font-variant-ligatures:normal;font-variant-numeric:normal;font-variant-position:normal;isolation:auto;mix-blend-mode:normal;shape-padding:0;text-decoration-color:#000000;text-decoration-line:none;text-decoration-style:solid;text-indent:0;text-orientation:mixed;text-transform:none;white-space:normal"/>
</svg>
