<svg width="16" height="16" version="1.1" viewBox="0 0 16 16" xmlns="http://www.w3.org/2000/svg">
<defs>
<style id="current-color-scheme" type="text/css">.ColorScheme-Text { color:#444444; } .ColorScheme-Highlight { color:#5294e2; }</style>
</defs>
<path d="m5.918 1-0.039063 0.45898-0.12109 1.459c-0.36482 0.16184-0.70897 0.36224-1.0312 0.59766l-1.7441-0.82227-2.084 3.6113 1.5527 1.0801c-0.023546 0.20354-0.053557 0.40627-0.054688 0.61133v0.0039062c1.363e-4 0.20697 0.029757 0.41166 0.052734 0.61719l-1.5508 1.0762 2.084 3.6094 1.7402-0.81836c0.32334 0.23457 0.66945 0.43109 1.0352 0.5918l0.1543 1.9238h4.1699l0.16016-1.918c0.36482-0.16184 0.70897-0.36224 1.0312-0.59766l1.7441 0.82227 2.084-3.6113-1.5527-1.0801c0.02354-0.20354 0.05356-0.40627 0.05469-0.61133v-0.0039062c-1.39e-4 -0.20697-0.029759-0.41166-0.052737-0.61719l1.5508-1.0762-2.084-3.6094-1.7402 0.81836c-0.32334-0.23457-0.66945-0.43109-1.0352-0.5918l-0.1543-1.9238zm0.91797 1h2.3301l0.12695 1.5762 0.30078 0.11133c0.49047 0.17955 0.94687 0.44087 1.3496 0.77344l0.24414 0.20117 1.4238-0.66992 1.1641 2.0176-1.291 0.89648 0.05273 0.31445c0.04447 0.25773 0.06819 0.51971 0.06836 0.78125-0.0016 0.25923-0.02516 0.51816-0.07031 0.77344l-0.05664 0.31445 1.2988 0.90234-1.166 2.0176-1.4277-0.67188-0.24414 0.20312c-0.4014 0.33399-0.85799 0.59792-1.3477 0.7793l-0.29687 0.10938-0.13281 1.5703h-2.3281l-0.12695-1.5762-0.30078-0.11133c-0.49047-0.17955-0.94687-0.44087-1.3496-0.77344l-0.24414-0.20117-1.4238 0.66992-1.1641-2.0176 1.291-0.89648-0.052734-0.31445c-0.044253-0.25645-0.067968-0.51711-0.068359-0.77734v-0.00391c0.00165-0.25923 0.025155-0.51816 0.070313-0.77344l0.05664-0.31445-1.2988-0.90234 1.166-2.0176 1.4277 0.67188 0.24414-0.20312c0.4014-0.33399 0.85799-0.59792 1.3477-0.7793l0.29688-0.10938zm1.166 3.6426c-1.2957 0-2.3574 1.0598-2.3574 2.3555 0 1.2957 1.0618 2.3574 2.3574 2.3574 1.2957 0 2.3574-1.0618 2.3574-2.3574 0-1.2957-1.0618-2.3555-2.3574-2.3555zm0 1c0.75541 0 1.3574 0.60006 1.3574 1.3555 0 0.75541-0.60201 1.3574-1.3574 1.3574-0.75541 0-1.3574-0.60201-1.3574-1.3574 0-0.75541 0.60201-1.3555 1.3574-1.3555z" color="#444444" color-rendering="auto" dominant-baseline="auto" fill="#808080" image-rendering="auto" shape-rendering="auto" solid-color="#000000" style="font-feature-settings:normal;font-variant-alternates:normal;font-variant-caps:normal;font-variant-ligatures:normal;font-variant-numeric:normal;font-variant-position:normal;isolation:auto;mix-blend-mode:normal;shape-padding:0;text-decoration-color:#000000;text-decoration-line:none;text-decoration-style:solid;text-indent:0;text-orientation:mixed;text-transform:none;white-space:normal"/>
</svg>
