<svg width="16" height="16" version="1.1" viewBox="0 0 16 16" xmlns="http://www.w3.org/2000/svg">
<defs>
<style id="current-color-scheme" type="text/css">.ColorScheme-Text { color:#444444; } .ColorScheme-Highlight { color:#5294e2; }</style>
</defs>
<path d="m8.041 3.0625c-2.1683 0.0018091-4.0849 1.3712-4.8281 3.3984-1.3251 0.74487-2.2017 2.101-2.2031 3.6348v2e-3c0 2.332 1.9004 4.2324 4.2324 4.2324h0.00195c0.95124-0.0018 1.8509-0.35712 2.5938-0.94336 0.065042 0.0036 0.13017 0.0086 0.19531 0.0098h0.00977c0.68211-0.0018 1.3449-0.1802 1.9727-0.44336 0.55568 0.25739 1.1454 0.44288 1.7598 0.44336 2.332 0 4.2344-1.9004 4.2344-4.2324 0-2.2608-1.7993-4.0821-4.0332-4.1934-0.90547-1.0906-2.2032-1.7383-3.6152-1.8321l-0.050781-0.076172h-0.26758zm0 1h0.00195c1.309 0.00267 2.5407 0.62073 3.3262 1.668l0.15039 0.19922h0.25586c1.7918 0 3.2344 1.4426 3.2344 3.2344s-1.4426 3.2324-3.2344 3.2324c-0.53225-4.16e-4 -1.0543-0.13134-1.5234-0.38281l-0.22266-0.11914-0.22656 0.10742c-0.55055 0.25868-1.1515 0.39268-1.7598 0.39453-0.092486-0.0018-0.18518-0.0058-0.27734-0.01367l-0.21484-0.019533-0.16016 0.14453c-0.59129 0.52848-1.3554 0.8208-2.1484 0.82227-1.7918 0-3.2344-1.4407-3.2344-3.2324 0.00117-1.2431 0.71347-2.3737 1.834-2.9121l0.18945-0.091797 0.068359-0.19922c0.57239-1.6927 2.1547-2.8297 3.9414-2.832z" color="#444444" color-rendering="auto" dominant-baseline="auto" fill="#808080" image-rendering="auto" shape-rendering="auto" solid-color="#000000" style="font-feature-settings:normal;font-variant-alternates:normal;font-variant-caps:normal;font-variant-ligatures:normal;font-variant-numeric:normal;font-variant-position:normal;isolation:auto;mix-blend-mode:normal;shape-padding:0;text-decoration-color:#000000;text-decoration-line:none;text-decoration-style:solid;text-indent:0;text-orientation:mixed;text-transform:none;white-space:normal"/>
</svg>
