<?xml version="1.0" encoding="UTF-8"?>
<svg width="16px" height="16px" version="1.1" viewBox="0 0 16 16" xmlns="http://www.w3.org/2000/svg" xmlns:cc="http://creativecommons.org/ns#" xmlns:dc="http://purl.org/dc/elements/1.1/" xmlns:rdf="http://www.w3.org/1999/02/22-rdf-syntax-ns#">
 <metadata>
  <rdf:RDF>
   <cc:Work rdf:about="">
    <dc:format>image/svg+xml</dc:format>
    <dc:type rdf:resource="http://purl.org/dc/dcmitype/StillImage"/>
    <dc:title>folder-music-symbolic</dc:title>
   </cc:Work>
  </rdf:RDF>
 </metadata>
 <title>folder-music-symbolic</title>
 <desc>Created with Sketch.</desc>
 <g id="folder-music-symbolic" fill="#808080">
  <path id="Combined-Shape" d="m5.9574 5.4476v7.0525c0 0.04773-0.00669 0.0939-0.019177 0.13762 0.040403 0.14393 0.0618 0.2946 0.0618 0.45054 0 1.1409-1.1454 2-2.5 2s-2.5-0.85907-2.5-2c0-1.1409 1.1454-2 2.5-2 0.53844 0 1.0438 0.13574 1.4574 0.37096v-8.9591c0-0.25477 0.19157-0.46881 0.44478-0.49694l9-1c0.29618-0.032909 0.55522 0.19894 0.55522 0.49694v10c0 0.04835-0.0069 0.09509-0.01966 0.13931 0.04013 0.14347 0.06137 0.29363 0.06137 0.44902 0 1.1409-1.1454 2-2.5 2s-2.5-0.85907-2.5-2c0-1.1409 1.1454-2 2.5-2 0.53884 0 1.0446 0.13594 1.4583 0.37148v-5.9012l-8 0.88889zm6.5417 7.6408c0.85457 0 1.5-0.48407 1.5-1s-0.64543-1-1.5-1-1.5 0.48407-1.5 1 0.64543 1 1.5 1zm-8.9991 0.99982c0.85457 0 1.5-0.48407 1.5-1s-0.64543-1-1.5-1-1.5 0.48407-1.5 1 0.64543 1 1.5 1zm2.4574-11.141v1.4938l8-0.88889v-1.4938z" fill="#808080"/>
 </g>
</svg>
