<svg width="16" height="16" version="1.1" viewBox="0 0 16 16" xmlns="http://www.w3.org/2000/svg">
<defs>
<style id="current-color-scheme" type="text/css">.ColorScheme-Text { color:#444444; } .ColorScheme-Highlight { color:#5294e2; }</style>
</defs>
<path class="ColorScheme-Text" d="m4.7917 5.1696c-0.04271 0.010215-0.08543 0.02693-0.12536 0.048287-0.3993 0.21079-0.50144 0.86917-0.22844 1.4783 0.22008 0.4903 0.61009 0.79302 0.96481 0.78373 0.26651 1.6278 1.3279 2.8415 2.5908 2.8415h0.01115c1.2638 0 2.3252-1.2137 2.5917-2.8415 0.35379 0.00929 0.74473-0.29344 0.96481-0.78373 0.273-0.60916 0.17086-1.2675-0.22844-1.4783-0.04087-0.021358-0.08265-0.038073-0.12536-0.048287-0.05107-1.7801-1.4653-3.2055-3.2074-3.2055-1.7411 0-3.1572 1.4254-3.2083 3.2055zm5.4313 5.1518c-0.26836 0.65094-1.183 1.1394-2.2741 1.1394-1.0865 0-1.9928-0.48194-2.2658-1.1282-2.2918 0.23958-3.9623 0.82645-4.1629 1.5201-0.0028 0.0065 0.0019 0.01486 0 0.02136-0.0065 0.02507-0.0065 0.04736-0.0093 0.07243-9.29e-4 0.01207-0.01115 0.0195-0.01115 0.03157v1.7263c9.28e-4 0.18293 0.14579 0.33151 0.32594 0.33151h12.349c0.18015 0 0.32501-0.14858 0.32501-0.33151v-1.7383c-0.0019-0.03993-0.0195-0.0743-0.03064-0.11422-0.20525-0.70202-1.912-1.2963-4.2456-1.5303z" color="#444444" fill="none" stroke="#808080" stroke-width=".99966"/>
</svg>
