<svg width="16" height="16" version="1.1" viewBox="0 0 16 16" xmlns="http://www.w3.org/2000/svg">
<defs>
<style id="current-color-scheme" type="text/css">.ColorScheme-Text { color:#444444; } .ColorScheme-Highlight { color:#5294e2; }</style>
</defs>
<path d="m7.0938 1.7812c-0.90959 0-1.6067 0.21583-2.123 0.58203-0.51631 0.3662-0.83257 0.85844-1.0684 1.332-0.47159 0.94718-0.6881 1.7748-1.3105 2.1094l-0.00586 0.00195-0.00391 0.00195c-0.097349 0.055253-0.13761 0.091873-0.1543 0.10352-0.00102 7.128e-4 -0.00896 0.00535-0.00977 0.00586l0.51562 0.8457c-0.40451 0.23917-0.86718 0.45806-1.1992 0.71876-0.62953 0.49429-1.1231 1.0201-1.4375 1.584-0.31439 0.56385-0.44531 1.1906-0.2793 1.7852 0.19222 0.68274 0.73961 1.2038 1.4609 1.5547 0.72132 0.35091 1.6372 0.55522 2.7129 0.61914l0.5957 0.03711-0.060547-0.5332c0.16283 0.63133 0.69707 1.085 1.3691 1.2871 0.7373 0.2217 1.6496 0.23423 2.623 0.02734 0.97327-0.20685 1.8311-0.59849 2.4629-1.0996 0.58746-0.46597 0.98117-1.0677 0.9707-1.7402l0.06836 0.32617 0.5957-0.33398c1.0732-0.60163 1.9058-1.2698 2.4512-1.9805s0.81524-1.5078 0.60742-2.2637c-0.21997-0.79127-0.90634-1.3576-1.8008-1.709-0.75865-0.29804-1.7739-0.38893-2.8477-0.41602v-0.083984l-0.50976 0.00977c-0.08356 0.00162-0.17734 0.033951-0.26172 0.037109l0.12305-0.86329c-0.35578-0.1011-0.61268-0.46738-1.0898-0.95312-0.47716-0.48574-1.2176-0.99219-2.3945-0.99219zm0 1c0.92184 0 1.2911 0.29578 1.6816 0.69336 0.12433 0.12656 0.35282 0.23832 0.48633 0.38672-0.89714 0.08185-1.7986 0.15052-2.7168 0.38672-0.80794 0.20806-1.4623 0.58288-2.1953 0.88672 0.15474-0.34402 0.30219-0.69883 0.44922-0.99414 0.20041-0.40251 0.42073-0.7274 0.75-0.96094 0.32927-0.23354 0.78756-0.39844 1.5449-0.39844zm3.6426 2.7695c1.226-0.023862 2.2532 0.13922 2.9727 0.42188 0.71948 0.28266 1.0932 0.65834 1.2012 1.0469 0.1013 0.37067-0.0091 0.83291-0.43555 1.3887-0.35426 0.46168-1.035 0.95192-1.7812 1.4238-0.38794-0.65345-0.97229-1.1396-1.6309-1.3379-0.91125-0.27436-1.9608-0.27838-3.0605-0.044922-1.0998 0.23344-2.0915 0.67272-2.8789 1.2969-0.64309 0.50977-1.1308 1.2944-1.2676 2.1953-0.76204-0.084807-1.479-0.2096-1.9395-0.43359-0.55453-0.26977-0.8413-0.59298-0.93555-0.92773-0.081951-0.29536-0.034043-0.62455 0.18945-1.0254 0.22391-0.40158 0.62639-0.85114 1.1816-1.2871 1.1105-0.87194 2.8188-1.6925 4.8184-2.207 1.2126-0.31195 2.4435-0.48799 3.5664-0.50977zm-0.28516 3.8965c0.09446 0.020545 0.23327-0.022888 0.32227 0.00391 0.08966 0.026991 0.15018 0.087009 0.23437 0.12109-0.16246-0.069405-0.37236-0.081157-0.55664-0.125zm0.91211 0.31055c0.3478 0.21667 0.63358 0.48958 0.71875 0.9043l0.01758 0.08008c-0.096025-0.41511-0.3714-0.749-0.73633-0.98438zm-1.8652 0.48047c0.56084 0.0069 1.014 0.12076 1.2969 0.27344 0.28284 0.15268 0.37779 0.30138 0.39648 0.46289 0.02619 0.22579-0.15043 0.60526-0.63086 0.98633-0.48043 0.38107-1.2133 0.72672-2.0488 0.9043-0.83567 0.1776-1.6075 0.15092-2.1289-0.0059-0.5214-0.15674-0.72187-0.38154-0.74805-0.60738-0.026112-0.22589 0.15009-0.6052 0.63086-0.98633s1.215-0.72692 2.0508-0.9043c0.40395-0.085878 0.80836-0.12746 1.1816-0.12305z" color="#444444" color-rendering="auto" dominant-baseline="auto" fill="#808080" image-rendering="auto" shape-rendering="auto" solid-color="#000000" style="font-feature-settings:normal;font-variant-alternates:normal;font-variant-caps:normal;font-variant-ligatures:normal;font-variant-numeric:normal;font-variant-position:normal;isolation:auto;mix-blend-mode:normal;shape-padding:0;text-decoration-color:#000000;text-decoration-line:none;text-decoration-style:solid;text-indent:0;text-orientation:mixed;text-transform:none;white-space:normal"/>
</svg>
