<svg width="16" height="16" version="1.1" viewBox="0 0 16 16" xmlns="http://www.w3.org/2000/svg">
<defs>
<style id="current-color-scheme" type="text/css">.ColorScheme-Text { color:#444444; } .ColorScheme-Highlight { color:#5294e2; }</style>
</defs>
<path d="m10.562 2.3359-0.24023 0.16211-2.3105 1.5391-2.5273-1.6855-0.25977 0.12891-4.2031 2.1035 2.6973 1.7969-2.6113 2.1758 2.9824 1.4902v1.7871l3.9336 1.9668 3.9336-1.9668v-1.7441l2.9824-1.4922-2.6465-2.207 2.7344-1.8223zm0.07227 1.1562 2.4043 1.2012-1.6172 1.0762-2.4043-1.2012zm-5.2227 0.011719 1.6172 1.0781-2.4023 1.2031-1.6172-1.0781zm2.627 1.6914 2.3965 1.1992-2.3789 1.4863-2.3945-1.4961zm-3.4062 1.7266 2.4688 1.543-1.6875 1.125-2.4902-1.2441zm6.7832 0.041016 1.709 1.4238-2.4902 1.2461-1.6895-1.127zm-3.3926 3.0176 2.3164 1.5449-2.3164 1.1582-2.3164-1.1582z" color="#444444" color-rendering="auto" dominant-baseline="auto" fill="#808080" image-rendering="auto" shape-rendering="auto" solid-color="#000000" style="font-feature-settings:normal;font-variant-alternates:normal;font-variant-caps:normal;font-variant-ligatures:normal;font-variant-numeric:normal;font-variant-position:normal;isolation:auto;mix-blend-mode:normal;shape-padding:0;text-decoration-color:#000000;text-decoration-line:none;text-decoration-style:solid;text-indent:0;text-orientation:mixed;text-transform:none;white-space:normal"/>
</svg>
