<svg version="1.1" viewBox="0 0 16 16" xmlns="http://www.w3.org/2000/svg">
<defs>
<style id="current-color-scheme" type="text/css">.ColorScheme-Text {
        color:#232629;
      }</style>
</defs>
<path class="ColorScheme-Text" d="m6.5 2c-1.385 0-2.5 1.115-2.5 2.5s1.115 2.5 2.5 2.5 2.5-1.115 2.5-2.5-1.115-2.5-2.5-2.5zm0 1c0.831 0 1.5 0.669 1.5 1.5s-0.669 1.5-1.5 1.5-1.5-0.669-1.5-1.5 0.669-1.5 1.5-1.5zm5.5 1c-1.108 0-2 0.892-2 2s0.892 2 2 2 2-0.892 2-2-0.892-2-2-2zm0 1c0.554 0 1 0.446 1 1s-0.446 1-1 1-1-0.446-1-1 0.446-1 1-1zm-5.5 3c-2.493 0-4.5 2.007-4.5 4.5v1.5h9v-1.5c0-2.493-2.007-4.5-4.5-4.5zm0 1c1.939 0 3.5 1.561 3.5 3.5v0.5h-7v-0.5c0-1.939 1.561-3.5 3.5-3.5zm5.5 0c-0.55473 0-1.0669 0.15951-1.5117 0.41992 0.24314 0.23688 0.46541 0.49507 0.65625 0.77734 0.26011-0.12335 0.54745-0.19727 0.85547-0.19727 1.108 0 2 0.892 2 2h-2.0996c0.065114 0.32308 0.099609 0.65717 0.099609 1h3v-1c0-1.662-1.338-3-3-3z" fill="#808080"/>
</svg>
