<?xml version="1.0" encoding="UTF-8"?>
<svg width="16px" height="16px" version="1.1" viewBox="0 0 16 16" xmlns="http://www.w3.org/2000/svg" xmlns:cc="http://creativecommons.org/ns#" xmlns:dc="http://purl.org/dc/elements/1.1/" xmlns:rdf="http://www.w3.org/1999/02/22-rdf-syntax-ns#">
 <metadata>
  <rdf:RDF>
   <cc:Work rdf:about="">
    <dc:format>image/svg+xml</dc:format>
    <dc:type rdf:resource="http://purl.org/dc/dcmitype/StillImage"/>
    <dc:title>folder-pictures-symbolic</dc:title>
   </cc:Work>
  </rdf:RDF>
 </metadata>
 <title>folder-pictures-symbolic</title>
 <desc>Created with Sketch.</desc>
 <g id="folder-pictures-symbolic" fill="#808080">
  <path id="Combined-Shape" d="m1 2.5c0-0.27614 0.22386-0.5 0.5-0.5h13c0.27614 0 0.5 0.22386 0.5 0.5v11c0 0.27614-0.22386 0.5-0.5 0.5h-13c-0.27614 0-0.5-0.22386-0.5-0.5zm1 10.5h12v-10h-12zm3.5-6c-0.82843 0-1.5-0.67157-1.5-1.5s0.67157-1.5 1.5-1.5 1.5 0.67157 1.5 1.5-0.67157 1.5-1.5 1.5zm0-1c0.27614 0 0.5-0.22386 0.5-0.5s-0.22386-0.5-0.5-0.5-0.5 0.22386-0.5 0.5 0.22386 0.5 0.5 0.5zm3.584 0.22265c0.20361-0.30541 0.65592-0.29465 0.84477 0.020102l3 5c0.19996 0.33326-0.0401 0.75725-0.42875 0.75725h-9c-0.40669 0-0.64325-0.45968-0.40687-0.79062l2.5-3.5c0.17959-0.25142 0.54195-0.28141 0.76042-0.062934l1.0687 1.0687 1.6617-2.4925zm2.5329 4.7774-2.1391-3.5652-1.5617 2.3426c-0.17502 0.26253-0.54647 0.29931-0.76958 0.076203l-1.0826-1.0826-1.5922 2.2291h7.1453z" fill="#808080"/>
 </g>
</svg>
