<svg width="16" height="16" version="1" xmlns="http://www.w3.org/2000/svg">
<g fill="none" stroke="#808080">
<path d="M4.25 1.536A3.743 3.743 0 0 0 .497 5.287L.506 7.08c-.001.028-.008.055-.008.084 0 .024.007.047.008.071l.02 5.69c-.236 1.39 1.112 2.268 2.245.748l1.996-2.758h6.465l1.997 2.758c1.133 1.52 2.481.641 2.246-.749l.02-5.689c0-.024.007-.047.007-.071 0-.023-.007-.044-.008-.066l.008-1.81a3.743 3.743 0 0 0-3.751-3.75H4.249z"/>
<g stroke-width=".4">
<g transform="translate(-.013 .257)">
<rect x="3" y="3" width="2" height="4" ry="0"/>
<rect transform="matrix(0 1 1 0 0 0)" x="4" y="2" width="2" height="4" ry="0"/>
</g>
<path d="M12.01 3.062a.75.75 0 0 0-.75.75.75.75 0 0 0 .75.75.75.75 0 0 0 .75-.75.75.75 0 0 0-.75-.75zM13.447 4.468a.75.75 0 0 0-.75.75.75.75 0 0 0 .75.75.75.75 0 0 0 .75-.75.75.75 0 0 0-.75-.75zM10.487 4.5a.75.75 0 0 0-.75.75.75.75 0 0 0 .75.75.75.75 0 0 0 .75-.75.75.75 0 0 0-.75-.75zM12.011 5.976a.75.75 0 0 0-.75.75.75.75 0 0 0 .75.75.75.75 0 0 0 .75-.75.75.75 0 0 0-.75-.75z"/>
</g>
</g>
</svg>
