<svg width="16px" height="16px" version="1.1" viewBox="0 0 16 16" xmlns="http://www.w3.org/2000/svg">
<title>folder</title>
<desc>Created with Sketch.</desc>
<path id="Combined-Shape" d="m10.883 2-2 1h-6.8828v2h-1v10h14v-10h-1v-3h-3.1172zm0.23438 1h1.8828v2h-10v-1h6.1172l2-1zm-9.1172 3h0.67383c0.0029326 0.0016314-0.0026055 0.0020151 0.0019531 0.0039062l11.314 4.6934v-1.2305l-8.3535-3.4668h2.9062l5.4473 2.2363 0.009766-0.30859v6.0723h-12v-0.89062l2.1113 0.875h2.9648l-5.0762-2.1074v-1.2305l8.0449 3.3379h2.9648l-11.01-4.5684v-1.2305l11.99 4.9727v-1.2305l-11.99-4.9727v-0.95508zm8.9805 0h3.0195v1.1758l-3.0195-1.1758z" fill="#808080"/>
</svg>
