<?xml version="1.0" encoding="UTF-8"?>
<svg width="16px" height="16px" version="1.1" viewBox="0 0 16 16" xmlns="http://www.w3.org/2000/svg" xmlns:cc="http://creativecommons.org/ns#" xmlns:dc="http://purl.org/dc/elements/1.1/" xmlns:rdf="http://www.w3.org/1999/02/22-rdf-syntax-ns#">
 <metadata>
  <rdf:RDF>
   <cc:Work rdf:about="">
    <dc:format>image/svg+xml</dc:format>
    <dc:type rdf:resource="http://purl.org/dc/dcmitype/StillImage"/>
    <dc:title>network-server-symbolic</dc:title>
   </cc:Work>
  </rdf:RDF>
 </metadata>
 <title>network-server-symbolic</title>
 <desc>Created with Sketch.</desc>
 <g id="network-server-symbolic" fill="#808080">
  <path d="m14 8c0-3.3134-2.6866-6-6-6s-6 2.6866-6 6 2.6866 6 6 6 6-2.6866 6-6zm1 0c0 3.8657-3.1343 7-7 7s-7-3.1343-7-7 3.1343-7 7-7 7 3.1343 7 7z"/>
  <path id="Combined-Shape" d="m11.63 8.7751c0.33723 0.082876 0.61696 0.31251 0.76753 0.61721 0.49573-0.030406 1.0089-0.087616 1.5398-0.17335 0.27261-0.044025 0.52929 0.14128 0.57332 0.41389 0.04402 0.27261-0.14128 0.52929-0.41389 0.57332-0.58044 0.09374-1.1419 0.15555-1.6848 0.18741-0.08843 0.19283-0.2279 0.35746-0.40108 0.47654 0.074 0.75234 0.08929 1.5455 0.03975 2.3805-0.01635 0.27566-0.25308 0.48586-0.52874 0.46951s-0.48586-0.25308-0.46951-0.52874c0.04505-0.75924 0.03256-1.4803-0.03217-2.1642-0.12085-0.03569-0.23356-0.09044-0.33463-0.16077-0.03326 0.02051-0.06685 0.04135-0.10076 0.06251-0.7552 0.47139-1.5103 1.0051-2.2131 1.5887-0.7031 0.58397-1.3142 1.1864-1.8066 1.7992-0.17295 0.21527-0.48767 0.24957-0.70294 0.07662-0.21527-0.17295-0.24957-0.48767-0.076621-0.70294 0.53796-0.66958 1.1958-1.318 1.9472-1.9421 0.63554-0.52785 1.3084-1.0145 1.9865-1.4541-1.985-0.28007-3.6562-1.0171-5.033-2.07-0.10967 0.034167-0.22626 0.052578-0.34712 0.052578-0.067976 0-0.1346-0.00582-0.1994-0.016998-0.54056 0.95243-0.92379 1.9765-1.1698 3.0379-0.062351 0.26901-0.33097 0.43654-0.59998 0.37419s-0.43654-0.33097-0.37419-0.59998c0.27516-1.1872 0.709-2.3327 1.3235-3.3952-0.093484-0.16781-0.14676-0.36104-0.14676-0.56664 0-0.089719 0.010144-0.17708 0.029347-0.26101-0.44685-0.49729-0.85035-1.034-1.2117-1.6018-0.14825-0.23298-0.07956-0.54202 0.15342-0.69026 0.23298-0.14825 0.54202-0.07956 0.69026 0.15342 0.30215 0.47484 0.6361 0.92559 1.003 1.3465 0.15216-0.072755 0.32251-0.1135 0.50231-0.1135 0.068384 0 0.1354 0.00589 0.20057 0.0172 0.63622-0.73576 1.387-1.4083 2.2623-1.9986-0.0036-0.037286-0.00544-0.075083-0.00544-0.11331 0-0.1348 0.0229-0.26428 0.065018-0.38477-0.44783-0.34069-0.92124-0.65046-1.4151-0.93041-0.24023-0.13617-0.32459-0.44131-0.18842-0.68154s0.44131-0.32459 0.68154-0.18842c0.57169 0.32404 1.1185 0.68542 1.6337 1.0853 0.12195-0.043283 0.25322-0.066846 0.38996-0.066846 0.26543 0 0.51025 0.088789 0.70636 0.23827 0.79201-0.36153 1.6598-0.6684 2.6079-0.91228 0.26744-0.068795 0.54 0.092235 0.6088 0.35967 0.06879 0.26744-0.09224 0.54-0.35967 0.6088-0.87188 0.22428-1.6695 0.50486-2.3973 0.83444 3.993e-4 0.012538 6.005e-4 0.025126 6.005e-4 0.037761 0 0.10282-0.013324 0.20255-0.038337 0.29755 1.1535 1.2633 2.0405 2.7992 2.5383 4.6287zm-0.98456 0.20397c-0.44571-1.5961-1.2144-2.9437-2.21-4.0631-0.14436 0.06401-0.3041 0.099577-0.47209 0.099577-0.23761 0-0.45869-0.071148-0.64311-0.19329-0.7529 0.51357-1.4034 1.0929-1.9597 1.7238 0.092633 0.16723 0.14538 0.35958 0.14538 0.56417 0 0.14729-0.027342 0.28824-0.077224 0.41804 1.3275 0.97668 2.9491 1.6345 4.8933 1.8297 0.07957-0.14842 0.19031-0.27766 0.32345-0.37895z"/>
 </g>
</svg>
