<?xml version="1.0" encoding="UTF-8"?>
<svg width="16px" height="16px" version="1.1" viewBox="0 0 16 16" xmlns="http://www.w3.org/2000/svg" xmlns:cc="http://creativecommons.org/ns#" xmlns:dc="http://purl.org/dc/elements/1.1/" xmlns:rdf="http://www.w3.org/1999/02/22-rdf-syntax-ns#">
 <metadata>
  <rdf:RDF>
   <cc:Work rdf:about="">
    <dc:format>image/svg+xml</dc:format>
    <dc:type rdf:resource="http://purl.org/dc/dcmitype/StillImage"/>
    <dc:title>user-trash-symbolic</dc:title>
   </cc:Work>
  </rdf:RDF>
 </metadata>
 <title>user-trash-symbolic</title>
 <desc>Created with Sketch.</desc>
 <g id="user-trash-symbolic" fill="#808080">
  <path id="Combined-Shape" d="m13 4s0.99765 3.6491 0.98305 5.5169c-0.015316 1.9593-1.2069 5.4831-1.4831 5.4831h-9c-0.27614 0-1.4357-3.5495-1.4492-5.5169-0.012658-1.8548 0.94915-5.4831 0.94915-5.4831h-1.4583c-0.27614 0-0.5-0.22386-0.5-0.5s0.22386-0.5 0.5-0.5h12.917c0.27614 0 0.5 0.22386 0.5 0.5s-0.22386 0.5-0.5 0.5h-1.4583zm-1 0c-0.009467-0.022831-8 0-8 0s-2.3051 5.5085 0 10h8c0.14689 0 2.2844-4.4907 0-10zm-6.5-2c-0.27614 0-0.5-0.22386-0.5-0.5s0.22386-0.5 0.5-0.5h5c0.27614 0 0.5 0.22386 0.5 0.5s-0.22386 0.5-0.5 0.5zm1.5 10.426c0 0.27614-0.22386 0.5-0.5 0.5s-0.5-0.22386-0.5-0.5v-6.8881c0-0.27614 0.22386-0.5 0.5-0.5s0.5 0.22386 0.5 0.5zm3 0c0 0.27614-0.22386 0.5-0.5 0.5s-0.5-0.22386-0.5-0.5v-6.8881c0-0.27614 0.22386-0.5 0.5-0.5s0.5 0.22386 0.5 0.5z" fill="#808080"/>
 </g>
</svg>
