<?xml version="1.0" encoding="UTF-8"?>
<svg width="16px" height="16px" version="1.1" viewBox="0 0 16 16" xmlns="http://www.w3.org/2000/svg" xmlns:cc="http://creativecommons.org/ns#" xmlns:dc="http://purl.org/dc/elements/1.1/" xmlns:rdf="http://www.w3.org/1999/02/22-rdf-syntax-ns#">
 <metadata>
  <rdf:RDF>
   <cc:Work rdf:about="">
    <dc:format>image/svg+xml</dc:format>
    <dc:type rdf:resource="http://purl.org/dc/dcmitype/StillImage"/>
    <dc:title>folder-desktop-symbolic</dc:title>
   </cc:Work>
  </rdf:RDF>
 </metadata>
 <title>folder-desktop-symbolic</title>
 <desc>Created with Sketch.</desc>
 <g id="folder-desktop-symbolic" fill="#808080">
  <path id="Combined-Shape" d="m12 4h-10v9h10zm1 0v9h1v-9zm-11.5-1h13c0.27614 0 0.5 0.22386 0.5 0.5v10c0 0.27614-0.22386 0.5-0.5 0.5h-13c-0.27614 0-0.5-0.22386-0.5-0.5v-10c0-0.27614 0.22386-0.5 0.5-0.5zm2 9c-0.27614 0-0.5-0.22386-0.5-0.5s0.22386-0.5 0.5-0.5h7c0.27614 0 0.5 0.22386 0.5 0.5s-0.22386 0.5-0.5 0.5z" fill="#808080"/>
 </g>
</svg>
