<?xml version="1.0" encoding="UTF-8"?>
<svg width="16px" height="16px" version="1.1" viewBox="0 0 16 16" xmlns="http://www.w3.org/2000/svg" xmlns:cc="http://creativecommons.org/ns#" xmlns:dc="http://purl.org/dc/elements/1.1/" xmlns:rdf="http://www.w3.org/1999/02/22-rdf-syntax-ns#">
 <metadata>
  <rdf:RDF>
   <cc:Work rdf:about="">
    <dc:format>image/svg+xml</dc:format>
    <dc:type rdf:resource="http://purl.org/dc/dcmitype/StillImage"/>
    <dc:title>user-bookmarks-symbolic</dc:title>
   </cc:Work>
  </rdf:RDF>
 </metadata>
 <title>user-bookmarks-symbolic</title>
 <desc>Created with Sketch.</desc>
 <g id="user-bookmarks-symbolic" fill="#808080" fill-rule="evenodd">
  <path id="Combined-Shape" d="m2 13h12v-8h-12zm0-9v-1.5c0-0.27614 0.22386-0.5 0.5-0.5h6.382l1.8944-0.94721c0.06943-0.034714 0.14598-0.052786 0.22361-0.052786h2.5c0.27614 0 0.5 0.22386 0.5 0.5v2.5h0.5c0.27614 0 0.5 0.22386 0.5 0.5v9c0 0.27614-0.22386 0.5-0.5 0.5h-13c-0.27614 0-0.5-0.22386-0.5-0.5v-9c0-0.27614 0.22386-0.5 0.5-0.5h0.5zm1-1v1h10v-2h-1.882l-1.8944 0.94721c-0.069428 0.034714-0.14598 0.052786-0.22361 0.052786h-6z" fill-rule="nonzero"/>
  <path d="m4.8536 11.354c-0.31498 0.31498-0.85355 0.0919-0.85355-0.35355v-6.5c0-0.27614 0.22386-0.5 0.5-0.5h2c0.27614 0 0.5 0.22386 0.5 0.5v6.5c0 0.44545-0.53857 0.66854-0.85355 0.35355l-0.64645-0.64645zm0.14645-1.5607 0.14645-0.14645c0.19526-0.19526 0.51184-0.19526 0.70711 0l0.14645 0.14645v-4.7929h-1v4.7929z"/>
 </g>
</svg>
