<svg width="256" height="256" version="1.1" viewBox="0 0 256 256" xmlns="http://www.w3.org/2000/svg">
<g transform="translate(18 46)" fill="none" fill-rule="evenodd">
<path d="m16.5 24.004v6.4957h-10.501c-1.9332 0-3.4986 1.568-3.4986 3.5069v151.99c0 1.9355 1.5685 3.5069 3.4986 3.5069h208c1.9332 0 3.4986-1.568 3.4986-3.5069v-151.99c0-1.9355-1.5685-3.5069-3.4986-3.5069h-10.501v-6.4957c0-1.9416-1.5662-3.5043-3.5099-3.5043h-6.4901v-14.508c0-1.9236-1.5717-3.4917-3.5094-3.4917h-43.745c-1.5474 0-3.9756 1.0016-5.0777 2.0951l-2.3774 2.359c-2.0348 2.019-5.7381 3.5459-8.6065 3.5459l-100.18-2e-7c-1.9367 0-3.5024 1.5676-3.5024 3.5065v6.4935h-6.4901c-1.9468 0-3.5099 1.564-3.5099 3.5043z" fill="#000" fill-opacity=".5" stroke="#FFF" stroke-opacity=".4" stroke-width="5"/>
<g transform="translate(70 56)">
<circle cx="40" cy="40" r="44" fill="#000" fill-opacity=".4" stroke="#FFF" stroke-opacity=".5" stroke-width="8"/>
<path transform="rotate(-45 40 36)" d="m32 20v24h24v8h-32v-32h8z" fill="#FFF"/>
</g>
</g>
</svg>
