<svg width="256px" height="256px" version="1.1" viewBox="0 0 256 256" xmlns="http://www.w3.org/2000/svg">
<title>folder-desktop-256px</title>
<desc>Created with Sketch.</desc>
<defs>
<filter id="a" color-interpolation-filters="sRGB">
<feFlood flood-color="#908B78" flood-opacity=".498" result="flood"/>
<feComposite in="flood" in2="SourceGraphic" operator="in" result="composite1"/>
<feGaussianBlur in="composite1" result="blur" stdDeviation="5"/>
<feOffset dx="0" dy="5" result="offset"/>
<feComposite in="SourceGraphic" in2="offset" result="composite2"/>
</filter>
<linearGradient id="b" x1="121.18" x2="121.18" y1="40.14" y2="240.84" gradientTransform="scale(1.0563 .94669)" gradientUnits="userSpaceOnUse">
<stop stop-color="#54FFCD" offset="0"/>
<stop stop-color="#23C06D" offset="1"/>
</linearGradient>
<linearGradient id="c" x1="119.25" x2="119.25" y1="45.194" y2="241.51" gradientTransform="scale(1.0734 .93162)" gradientUnits="userSpaceOnUse">
<stop stop-color="#23FFBE" offset="0"/>
<stop stop-color="#3FDA88" offset="1"/>
</linearGradient>
</defs>
<g transform="translate(.10669 9.5439)" fill-rule="evenodd" filter="url(#a)">
<path d="m228.99 38a5 5 0 0 1 5.005 5.009v179.98a5.005 5.005 0 0 1-5.005 5.008h-201.99a5 5 0 0 1-5.005-5.008v-179.98a5.005 5.005 0 0 1 5.005-5.009z" fill="url(#b)"/>
<path d="m228.99 41c2.764 0 5.005 2.244 5.005 4.993v174.01a4.997 4.997 0 0 1-5.005 4.993h-201.99c-2.764 0-5.005-2.244-5.005-4.993v-174.01a4.997 4.997 0 0 1 5.005-4.993z" fill="url(#c)"/>
<g transform="translate(40,57)">
<rect y="120" width="176" height="32" rx="5" fill="#1fb366" opacity=".801"/>
<rect y="2" width="32" height="32" rx="5" opacity=".1"/>
<rect y="58" width="32" height="32" rx="5" opacity=".1"/>
<rect width="32" height="32" rx="5" fill="#fff"/>
<rect y="56" width="32" height="32" rx="5" fill="#fff"/>
</g>
</g>
</svg>
