<?xml version="1.0" encoding="UTF-8" standalone="no"?>
<svg
   xmlns:dc="http://purl.org/dc/elements/1.1/"
   xmlns:cc="http://creativecommons.org/ns#"
   xmlns:rdf="http://www.w3.org/1999/02/22-rdf-syntax-ns#"
   xmlns:svg="http://www.w3.org/2000/svg"
   xmlns="http://www.w3.org/2000/svg"
   height="1024"
   width="1024"
   id="svg4"
   viewBox="-10 0 1024 1024"
   version="1.1">
  <metadata
     id="metadata10">
    <rdf:RDF>
      <cc:Work
         rdf:about="">
        <dc:format>image/svg+xml</dc:format>
        <dc:type
           rdf:resource="http://purl.org/dc/dcmitype/StillImage" />
        <dc:title></dc:title>
      </cc:Work>
    </rdf:RDF>
  </metadata>
  <defs
     id="defs8" />
  <path
     style="stroke-width:0.6561"
     fill="currentColor"
     d="m 530.21232,0.89808105 q 33.4611,0 59.04898,24.27566995 l 49.2075,49.2075 q 24.9318,24.93185 24.9318,59.705149 0,35.4294 -24.9318,59.049 L 446.23152,386.02878 H 908.1259 q 34.11721,0 55.44046,24.60375 21.3232,24.60375 21.3232,59.37705 v 83.9808 q 0,34.77333 -21.3232,59.37708 -21.32325,24.60375 -55.44046,24.60375 H 446.23152 L 638.4688,830.8646 q 24.9318,23.6196 24.9318,59.049 0,35.42939 -24.9318,59.04899 l -49.2075,49.20751 q -24.93178,24.9318 -59.04898,24.9318 -34.7733,0 -59.7051,-24.9318 L 43.386121,571.04901 q -24.2757,-22.96353 -24.2757,-59.04903 0,-35.4294 24.2757,-59.7051 L 470.50722,25.173751 q 25.5879,-24.27566995 59.7051,-24.27566995 z"
     id="path884" />
</svg>
