<?xml version="1.0" encoding="UTF-8" standalone="no"?>
<svg
   xmlns:dc="http://purl.org/dc/elements/1.1/"
   xmlns:cc="http://creativecommons.org/ns#"
   xmlns:rdf="http://www.w3.org/1999/02/22-rdf-syntax-ns#"
   xmlns:svg="http://www.w3.org/2000/svg"
   xmlns="http://www.w3.org/2000/svg"
   viewBox="0 0 1000 1000"
   height="1000"
   width="1000"
   id="svg2"
   version="1.1">
  <metadata
     id="metadata8">
    <rdf:RDF>
      <cc:Work
         rdf:about="">
        <dc:format>image/svg+xml</dc:format>
        <dc:type
           rdf:resource="http://purl.org/dc/dcmitype/StillImage" />
        <dc:title></dc:title>
      </cc:Work>
    </rdf:RDF>
  </metadata>
  <defs
     id="defs6" />
  <g
     transform="matrix(1.0823623,0,0,1,900.79502,26.658095)"
     id="g10">
    <path
       id="path837"
       style="fill:#000000"
       d="m -740.07801,11.18859 c -31.59536,0.01062 -59.62877,0.268355 -93.38164,0.486328 0,46.487363 0.23202,0.677218 0,47.164579 43.92771,-0.0834 0,0 96.14531,0 5.17472,0 4.20807,3.836465 4.48633,5.685025 0.42339,2.81268 1.48437,55.016058 1.48437,436.921878 v 434.04882 h 24 24 v -444.8164 c 0,-316.6226 -0.31436,-446.51399 -1.08984,-450.70898 -2.03439,-11.00502 -8.35773,-20.112099 -17.04297,-24.542969 -6.22921,-3.177907 -10.93795,-4.127733 -38.60156,-4.238281 z m 80.73437,138.30663 v 24 25.43723 c 206.80563,-0.83239 580.918479,-2.57026 700.772541,0 9.00634,0.35133 9.511818,5.43456 8.409104,14.86551 l -0.48437,222.09961 c -0.5546,241.96087 -2.90847,228.06174 -3.93771,233.32375 -1.12467,5.74992 -7.42645,12.07778 -14.55001,11.99766 -17.72751,0 -36.3009005,0.0455 -52.10478,0.0455 v 37.23071 37 h -32.10477 v -37 -37 h -54.999995 -54.77051 c -0.42023,22.74954 -0.0348,48.13358 0,68.70704 -34.05336,-0.62364 -58.11047,-0.70175 -84.2295,-0.70704 h -84 v -33 -33 h -128.00001 -128 v 33 33 h -35.99999 -36 v 24 24 h 58 57.99999 v -36 -36 h 84 84.00001 v 36 36 h 128 126.26368 v -74.26171 h 27.195307 v 74.26171 H 18.656365 v -75.52713 c 12.33575,0 24.99055,-0.29995 37.5,0.16776 15.99074,-1.39609 23.53306,-11.84885 29.02344,-22.68359 3.76599,-7.43182 5.30617,-13.17679 6.45117,-24.04883 0.6255,-5.9385 1.708756,-99.07742 1.00781,-252.55274 l -1.14029,-249.67187 c -1.745012,-13.64425 -1.857121,-20.78803 -22.23471,-23.6836 H -295.03895 Z m 71.99999,140 v 148 148 h 146 146.00001 v -148 -148 h -146.00001 z m 352.00001,0 v 112 112 h 112.00001 111.999995 v -112 -112 H -123.34363 Z m -308.00001,48 h 100 100.00001 v 100 100 h -100.00001 -100 v -100 z m 356.00002,0 h 64 63.999995 v 66 66 h -63.999995 -64 v -66 z" />
  </g>
</svg>
