<?xml version="1.0" encoding="UTF-8" standalone="no"?>
<svg
   xmlns:dc="http://purl.org/dc/elements/1.1/"
   xmlns:cc="http://creativecommons.org/ns#"
   xmlns:rdf="http://www.w3.org/1999/02/22-rdf-syntax-ns#"
   xmlns:svg="http://www.w3.org/2000/svg"
   xmlns="http://www.w3.org/2000/svg"
   version="1.1"
   id="svg2"
   width="256"
   height="256"
   viewBox="0 0 256 256">
  <metadata
     id="metadata8">
    <rdf:RDF>
      <cc:Work
         rdf:about="">
        <dc:format>image/svg+xml</dc:format>
        <dc:type
           rdf:resource="http://purl.org/dc/dcmitype/StillImage" />
        <dc:title></dc:title>
      </cc:Work>
    </rdf:RDF>
  </metadata>
  <defs
     id="defs6" />
  <g
     transform="matrix(1.114788,0,0,1.114788,-14.21269,-14.134059)"
     id="g10"
     style="display:inline">
    <path
       id="path1103"
       style="fill:#000000;stroke:none;stroke-width:1.88601;stroke-opacity:1"
       d="m 48.136721,13.59961 c -10.21613,0 -18.439453,8.223322 -18.439453,18.439453 V 223.96094 c 0,10.21614 8.223323,18.43945 18.439453,18.43945 H 207.86328 c 10.21613,0 18.43945,-8.22331 18.43945,-18.43945 V 32.039063 c 0,-10.216131 -8.22332,-18.439453 -18.43945,-18.439453 z m 6.757812,9.679688 H 201.10352 c 9.35164,0 16.88084,7.529221 16.88086,16.880859 V 215.83984 c 0,9.35164 -7.52922,16.88086 -16.88086,16.88086 H 54.894533 c -9.351636,0 -16.878906,-7.52922 -16.878906,-16.88086 V 40.160157 c 0,-9.351638 7.52727,-16.880859 16.878906,-16.880859 z m -4.160156,5.25 c -4.127016,0 -7.472656,3.34564 -7.472656,7.472656 0,4.127016 3.34564,7.472656 7.472656,7.472656 4.127016,0 7.472656,-3.34564 7.472656,-7.472656 0,-4.127016 -3.34564,-7.472656 -7.472656,-7.472656 z m 154.544923,0.03906 c -4.12702,-3e-6 -7.47266,3.345638 -7.47266,7.472657 0,4.127019 3.34564,7.472659 7.47266,7.472656 4.12701,-2e-6 7.47265,-3.345641 7.47265,-7.472656 0,-4.127015 -3.34564,-7.472655 -7.47265,-7.472657 z M 128,47.689454 C 83.645562,47.689095 47.689095,83.645561 47.689455,128 47.689095,172.35444 83.645562,208.31091 128,208.31055 c 7.69791,6e-5 15.13371,-1.10496 22.18164,-3.12696 l -8.72266,-8.45312 C 137.1022,197.57877 132.60495,198.03518 128,198.03516 89.320584,198.03532 57.96468,166.67942 57.964846,128 57.964473,89.410409 89.180151,58.091671 127.76953,57.964845 c 0.0768,-1.26e-4 0.15365,-1.26e-4 0.23047,0 38.67942,-1.66e-4 70.03533,31.355737 70.03516,70.035155 7e-5,17.78547 -6.64162,34.01111 -17.56446,46.36328 l 9.48828,4.73828 C 201.42369,165.2168 208.3107,147.41253 208.31055,128 208.31091,83.64556 172.35444,47.689094 128,47.689454 Z m -0.0215,46.234375 C 109.16733,93.936061 93.924201,109.18879 93.92383,128 93.924206,146.81959 109.18041,162.0758 128,162.07617 146.81959,162.07579 162.07579,146.81959 162.07617,128 162.0758,109.18041 146.81959,93.924205 128,93.923829 Z M 127.8867,104.125 c 0.0378,-9e-5 0.0755,-9e-5 0.11328,0 13.18558,5.2e-4 23.87448,10.68942 23.875,23.875 -5.2e-4,13.18558 -10.68942,23.87448 -23.875,23.875 -13.18558,-5.2e-4 -23.87448,-10.68942 -23.875,-23.875 3.6e-4,-13.14147 10.6204,-23.81214 23.76172,-23.875 z M 128,117.79883 c -5.63345,0 -10.20117,4.56772 -10.20117,10.20117 0,5.63345 4.56772,10.20117 10.20117,10.20117 5.63345,0 10.20117,-4.56772 10.20117,-10.20117 0,-5.63345 -4.56772,-10.20117 -10.20117,-10.20117 z m 13.26172,46.49609 a 9.2430401,9.1036968 0 0 0 -9.0957,9.10352 9.2430401,9.1036968 0 0 0 2.61132,6.33984 9.2430401,9.1036968 0 0 0 0.4336,0.41016 l 42.91797,40.65625 a 18.072212,17.799765 0 0 0 13.43945,5.90234 18.072212,17.799765 0 0 0 18.07226,-17.80078 18.072212,17.799765 0 0 0 -10.5625,-16.1875 l -53.23632,-27.30859 -0.004,-0.002 a 9.2430401,9.1036968 0 0 0 -0.33008,-0.16797 l -0.0586,-0.0312 v 0.002 a 9.2430401,9.1036968 0 0 0 -4.03906,-0.91602 9.2430401,9.1036968 0 0 0 -0.14844,0 z m 0.19922,8.00781 c 0.0912,0.004 0.18132,0.0153 0.26953,0.0371 17.95656,9.13157 35.86807,18.36261 53.80273,27.54102 2.65415,1.13072 4.7978,3.40109 5.65821,6.16797 1.27047,3.71921 -0.19592,8.0296 -3.23633,10.4414 -3.58025,2.95911 -9.17995,2.91216 -12.76953,0 -12.88265,-12.20218 -25.7479,-24.42283 -38.63672,-36.61914 -1.98927,-1.92188 -4.04472,-3.77604 -6.00781,-5.72265 -0.7675,-0.56529 -0.2024,-1.74885 0.64648,-1.83789 0.09,-0.008 0.18226,-0.0116 0.27344,-0.008 z m -90.708985,40.25586 c -4.127014,0 -7.472654,3.34565 -7.472656,7.47266 -3e-6,4.12702 3.345638,7.47266 7.472656,7.47266 4.127019,0 7.472659,-3.34564 7.472656,-7.47266 -2e-6,-4.12701 -3.345641,-7.47266 -7.472656,-7.47266 z" />
  </g>
</svg>
