<?xml version="1.0" encoding="UTF-8" standalone="no"?>
<svg
   xmlns:dc="http://purl.org/dc/elements/1.1/"
   xmlns:cc="http://creativecommons.org/ns#"
   xmlns:rdf="http://www.w3.org/1999/02/22-rdf-syntax-ns#"
   xmlns:svg="http://www.w3.org/2000/svg"
   xmlns="http://www.w3.org/2000/svg"
   height="1024"
   width="1024"
   id="svg4"
   viewBox="-10 0 1024 1024"
   version="1.1">
  <metadata
     id="metadata10">
    <rdf:RDF>
      <cc:Work
         rdf:about="">
        <dc:format>image/svg+xml</dc:format>
        <dc:type
           rdf:resource="http://purl.org/dc/dcmitype/StillImage" />
        <dc:title></dc:title>
      </cc:Work>
    </rdf:RDF>
  </metadata>
  <defs
     id="defs8" />
  <path
     style="stroke-width:0.529775"
     fill="currentColor"
     d="m 196.84989,622.1931 v 50.85835 q 0,8.47639 -8.4764,8.47639 h -50.85835 q -8.47639,0 -8.47639,-8.47639 V 622.1931 q 0,-8.4764 8.47639,-8.4764 h 50.85835 q 8.4764,0 8.4764,8.4764 z m 67.81114,-135.62228 v 50.85836 q 0,8.47639 -8.4764,8.47639 H 137.51514 q -8.47639,0 -8.47639,-8.47639 v -50.85836 q 0,-8.47639 8.47639,-8.47639 h 118.66949 q 8.4764,0 8.4764,8.47639 z M 196.84989,350.94854 v 50.85836 q 0,8.47639 -8.4764,8.47639 h -50.85835 q -8.47639,0 -8.47639,-8.47639 v -50.85836 q 0,-8.47639 8.47639,-8.47639 h 50.85835 q 8.4764,0 8.4764,8.47639 z m 542.4891,271.24456 v 50.85835 q 0,8.47639 -8.47639,8.47639 H 273.13742 q -8.47639,0 -8.47639,-8.47639 V 622.1931 q 0,-8.4764 8.47639,-8.4764 H 730.8626 q 8.47639,0 8.47639,8.4764 z M 400.28331,486.57082 v 50.85836 q 0,8.47639 -8.4764,8.47639 h -50.85835 q -8.4764,0 -8.4764,-8.47639 v -50.85836 q 0,-8.47639 8.4764,-8.47639 h 50.85835 q 8.4764,0 8.4764,8.47639 z M 332.47216,350.94854 v 50.85836 q 0,8.47639 -8.47639,8.47639 h -50.85835 q -8.47639,0 -8.47639,-8.47639 v -50.85836 q 0,-8.47639 8.47639,-8.47639 h 50.85835 q 8.47639,0 8.47639,8.47639 z m 203.43342,135.62228 v 50.85836 q 0,8.47639 -8.47639,8.47639 h -50.85836 q -8.47639,0 -8.47639,-8.47639 v -50.85836 q 0,-8.47639 8.47639,-8.47639 h 50.85836 q 8.47639,0 8.47639,8.47639 z M 468.09444,350.94854 v 50.85836 q 0,8.47639 -8.47639,8.47639 H 408.7597 q -8.47639,0 -8.47639,-8.47639 v -50.85836 q 0,-8.47639 8.47639,-8.47639 h 50.85835 q 8.47639,0 8.47639,8.47639 z m 203.43341,135.62228 v 50.85836 q 0,8.47639 -8.47639,8.47639 h -50.85835 q -8.4764,0 -8.4764,-8.47639 v -50.85836 q 0,-8.47639 8.4764,-8.47639 h 50.85835 q 8.47639,0 8.47639,8.47639 z M 874.96128,622.1931 v 50.85835 q 0,8.47639 -8.4764,8.47639 h -50.85835 q -8.47639,0 -8.47639,-8.47639 V 622.1931 q 0,-8.4764 8.47639,-8.4764 h 50.85835 q 8.4764,0 8.4764,8.4764 z M 603.71671,350.94854 v 50.85836 q 0,8.47639 -8.47639,8.47639 h -50.85835 q -8.47639,0 -8.47639,-8.47639 v -50.85836 q 0,-8.47639 8.47639,-8.47639 h 50.85835 q 8.47639,0 8.47639,8.47639 z m 135.62228,0 v 50.85836 q 0,8.47639 -8.47639,8.47639 h -50.85835 q -8.4764,0 -8.4764,-8.47639 v -50.85836 q 0,-8.47639 8.4764,-8.47639 h 50.85835 q 8.47639,0 8.47639,8.47639 z m 135.62229,0 v 186.48064 q 0,8.47639 -8.4764,8.47639 H 747.81539 q -8.4764,0 -8.4764,-8.47639 v -50.85836 q 0,-8.47639 8.4764,-8.47639 h 59.33475 V 350.94854 q 0,-8.47639 8.47639,-8.47639 h 50.85835 q 8.4764,0 8.4764,8.47639 z m 67.81114,398.39044 V 274.66102 H 61.227611 v 474.67796 z m 67.81108,-474.67796 v 474.67796 q 0,28.07805 -19.86649,47.9446 -19.86655,19.86654 -47.94459,19.86654 H 61.227611 q -28.078053,0 -47.944592,-19.86654 -19.8665463,-19.86655 -19.8665463,-47.9446 V 274.66102 q 0,-28.07805 19.8665463,-47.9446 19.866539,-19.86654 47.944592,-19.86654 H 942.77242 q 28.07804,0 47.94459,19.86654 19.86649,19.86655 19.86649,47.9446 z"
     id="path1637" />
</svg>
