<?xml version="1.0" encoding="UTF-8" standalone="no"?>
<svg
   xmlns:dc="http://purl.org/dc/elements/1.1/"
   xmlns:cc="http://creativecommons.org/ns#"
   xmlns:rdf="http://www.w3.org/1999/02/22-rdf-syntax-ns#"
   xmlns:svg="http://www.w3.org/2000/svg"
   xmlns="http://www.w3.org/2000/svg"
   height="1024"
   width="1024"
   id="svg4"
   viewBox="-10 0 1024 1024"
   version="1.1">
  <metadata
     id="metadata10">
    <rdf:RDF>
      <cc:Work
         rdf:about="">
        <dc:format>image/svg+xml</dc:format>
        <dc:type
           rdf:resource="http://purl.org/dc/dcmitype/StillImage" />
        <dc:title></dc:title>
      </cc:Work>
    </rdf:RDF>
  </metadata>
  <defs
     id="defs8" />
  <path
     style="stroke-width:0.598949"
     fill="currentColor"
     d="m 961.9926,550.33273 q 0,93.436 -36.53586,178.48672 -36.53588,85.05071 -98.22759,146.74243 -61.69171,61.69169 -146.74243,98.22757 -85.05071,36.53585 -178.48671,36.53585 -93.43601,0 -178.48672,-36.53585 Q 238.46257,937.25357 176.77086,875.56188 115.07914,813.87016 78.543274,728.81945 42.007399,643.76873 42.007399,550.33273 q 0,-109.00866 48.215374,-205.43941 48.215367,-96.43074 135.661877,-161.71614 25.7548,-19.16637 57.19959,-14.97373 31.44482,4.19265 50.01223,29.94744 19.16635,25.15585 14.67425,56.60065 -4.49212,31.4448 -29.64796,50.61117 -58.69698,44.3222 -90.74074,108.40972 -32.04374,64.08751 -32.04374,136.5603 0,62.29067 24.25741,118.89132 24.25742,56.60066 65.58489,97.92811 41.32746,41.32747 97.92811,65.58489 56.60065,24.25742 118.89132,24.25742 62.29066,0 118.89132,-24.25742 56.60064,-24.25742 97.92811,-65.58489 41.32745,-41.32745 65.58488,-97.92811 24.25741,-56.60065 24.25741,-118.89132 0,-72.47279 -32.04375,-136.5603 -32.04374,-64.08752 -90.74072,-108.40972 -25.15585,-19.16637 -29.64797,-50.61117 -4.49211,-31.4448 14.67424,-56.60065 18.56743,-25.75479 50.3117,-29.94744 31.74429,-4.19264 56.90013,14.97373 87.44651,65.2854 135.66188,161.71614 48.21536,96.43075 48.21536,205.43941 z M 578.66544,90.34013 v 383.32716 q 0,31.14534 -22.76005,53.90539 -22.76004,22.76005 -53.90538,22.76005 -31.14534,0 -53.90538,-22.76005 -22.76005,-22.76005 -22.76005,-53.90539 V 90.34013 q 0,-31.145332 22.76005,-53.905383 22.76004,-22.760049 53.90538,-22.760049 31.14534,0 53.90538,22.760049 22.76005,22.760051 22.76005,53.905383 z"
     id="path1588" />
</svg>
