<?xml version="1.0" encoding="UTF-8" standalone="no"?>
<svg
   xmlns:dc="http://purl.org/dc/elements/1.1/"
   xmlns:cc="http://creativecommons.org/ns#"
   xmlns:rdf="http://www.w3.org/1999/02/22-rdf-syntax-ns#"
   xmlns:svg="http://www.w3.org/2000/svg"
   xmlns="http://www.w3.org/2000/svg"
   xmlns:xlink="http://www.w3.org/1999/xlink"
   xmlns:sodipodi="http://sodipodi.sourceforge.net/DTD/sodipodi-0.dtd"
   xmlns:inkscape="http://www.inkscape.org/namespaces/inkscape"
   inkscape:version="1.0 (4035a4fb49, 2020-05-01)"
   sodipodi:docname="decoration.svg"
   version="1.1"
   height="300"
   width="300"
   id="svg4198">
  <metadata
     id="metadata79">
    <rdf:RDF>
      <cc:Work
         rdf:about="">
        <dc:format>image/svg+xml</dc:format>
        <dc:type
           rdf:resource="http://purl.org/dc/dcmitype/StillImage" />
        <dc:title></dc:title>
      </cc:Work>
    </rdf:RDF>
  </metadata>
  <sodipodi:namedview
     inkscape:current-layer="svg4198"
     inkscape:window-maximized="1"
     inkscape:window-y="0"
     inkscape:window-x="0"
     inkscape:cy="184.82984"
     inkscape:cx="342.26359"
     inkscape:zoom="0.84263558"
     showgrid="false"
     id="namedview77"
     inkscape:window-height="1006"
     inkscape:window-width="1920"
     inkscape:pageshadow="2"
     inkscape:pageopacity="0"
     guidetolerance="10"
     gridtolerance="10"
     objecttolerance="10"
     borderopacity="1"
     bordercolor="#666666"
     pagecolor="#ffffff" />
  <defs
     id="defs4200">
    <linearGradient
       id="linearGradient988">
      <stop
         offset="0"
         style="stop-color:#000000;stop-opacity:1"
         id="stop984" />
      <stop
         offset="1"
         style="stop-color:#000000;stop-opacity:0"
         id="stop986" />
    </linearGradient>
    <linearGradient
       xlink:href="#linearGradient988"
       gradientUnits="userSpaceOnUse"
       y2="971.362"
       y1="951.362"
       x2="155"
       x1="155"
       id="linearGradient1054" />
    <radialGradient
       xlink:href="#linearGradient988"
       gradientUnits="userSpaceOnUse"
       gradientTransform="matrix(-2,1.8506107e-6,-1.4804909e-6,-1.6000026,303.0014,2469.5439)"
       fy="948.862"
       fx="100"
       r="12.5"
       cy="948.862"
       cx="100"
       id="radialGradient1062" />
    <radialGradient
       xlink:href="#linearGradient988"
       gradientUnits="userSpaceOnUse"
       gradientTransform="matrix(-2,5.2353441e-5,-4.1884127e-5,-1.6000525,303.03974,2469.5842)"
       fy="948.861"
       fx="100"
       r="12.5"
       cy="948.861"
       cx="100"
       id="radialGradient1070" />
    <linearGradient
       xlink:href="#linearGradient988"
       gradientUnits="userSpaceOnUse"
       y2="892.362"
       y1="892.362"
       x2="78"
       x1="103"
       id="linearGradient1078" />
    <linearGradient
       xlink:href="#linearGradient988"
       gradientUnits="userSpaceOnUse"
       y2="892.362"
       y1="892.362"
       x2="78"
       x1="103"
       id="linearGradient1086" />
    <radialGradient
       xlink:href="#linearGradient988"
       gradientUnits="userSpaceOnUse"
       gradientTransform="matrix(-2.8296227e-6,-1.4400016,1.9999992,-3.9300257e-6,-1610.7234,998.80569)"
       fy="856.862"
       fx="101"
       r="12.5"
       cy="856.862"
       cx="101"
       id="radialGradient1094" />
    <radialGradient
       xlink:href="#linearGradient988"
       gradientUnits="userSpaceOnUse"
       gradientTransform="matrix(-2.8296276e-6,-1.4400016,1.9999992,-3.9300326e-6,-1610.7234,998.80569)"
       fy="856.862"
       fx="101"
       r="12.5"
       cy="856.862"
       cx="101"
       id="radialGradient1102" />
    <linearGradient
       xlink:href="#linearGradient988"
       gradientUnits="userSpaceOnUse"
       y2="892.362"
       y1="892.362"
       x2="81"
       x1="103"
       id="linearGradient1187" />
    <linearGradient
       xlink:href="#linearGradient988"
       gradientUnits="userSpaceOnUse"
       y2="962.362"
       y1="951.362"
       x2="155"
       x1="155"
       id="linearGradient1189" />
    <radialGradient
       xlink:href="#linearGradient988"
       gradientUnits="userSpaceOnUse"
       gradientTransform="matrix(-1.76,0,0,-0.87999659,279,1786.3566)"
       fy="948.861"
       fx="100"
       r="12.5"
       cy="948.861"
       cx="100"
       id="radialGradient1191" />
    <radialGradient
       xlink:href="#linearGradient988"
       gradientUnits="userSpaceOnUse"
       gradientTransform="matrix(0,-1.4400016,1.7599995,0,-1405.077,998.80232)"
       fy="856.862"
       fx="101"
       r="12.5"
       cy="856.862"
       cx="101"
       id="radialGradient1193" />
    <linearGradient
       xlink:href="#linearGradient988"
       gradientUnits="userSpaceOnUse"
       y2="892.362"
       y1="892.362"
       x2="81"
       x1="103"
       id="linearGradient1195" />
    <radialGradient
       xlink:href="#linearGradient988"
       gradientUnits="userSpaceOnUse"
       gradientTransform="matrix(0,-1.4400016,1.7599995,0,-1405.077,998.80232)"
       fy="856.862"
       fx="101"
       r="12.5"
       cy="856.862"
       cx="101"
       id="radialGradient1197" />
    <radialGradient
       xlink:href="#linearGradient988"
       gradientUnits="userSpaceOnUse"
       gradientTransform="matrix(-1.76,0,0,-0.88000273,279,1786.3634)"
       fy="948.862"
       fx="100"
       r="12.5"
       cy="948.862"
       cx="100"
       id="radialGradient1199" />
  </defs>
  <path
     d="m 101,101 v 98 h 98 v -98 z"
     style="fill:#2d2d2d;fill-opacity:1"
     id="decoration-center" />
  <g
     transform="translate(0,-752.36216)"
     id="decoration-left">
    <path
       d="m 76,853.36216 v 98 h 10 v -98 z"
       style="opacity:0.5;fill:url(#linearGradient1078)"
       id="path5066" />
    <path
       d="m 101,951.36156 v -97.9994 H 86 v 98 z"
       style="fill:#2d2d2d"
       id="path5064" />
  </g>
  <g
     transform="translate(0,-752.36216)"
     id="decoration-top">
    <path
       d="M 101.00061,853.36216 H 199 v -18 h -98 z"
       style="fill:#2d2d2d"
       id="path1620" />
    <path
       d="m 199,833.36216 h -98 v 2 h 98 z"
       style="opacity:0.001"
       id="path1622" />
    <path
       d="M 101 83 L 101 84 L 199 84 L 199 83 L 101 83 z"
       transform="translate(0,752.36216)"
       style="fill:#ffffff;opacity:0.1"
       id="path868" />
  </g>
  <g
     transform="translate(0,-752.36216)"
     id="decoration-bottom">
    <path
       d="m 101,971.36216 h 98 v -14 h -98 z"
       style="opacity:0.5;fill:url(#linearGradient1054)"
       id="path1628" />
    <path
       d="M 198.9994,951.36216 H 101 v 6 h 98 z"
       style="fill:#2d2d2d"
       id="path1626" />
  </g>
  <g
     transform="translate(0,-752.36216)"
     id="decoration-bottomleft">
    <path
       d="M 101,971.36216 H 76 v -20 h 25 z"
       style="opacity:0.5;fill:url(#radialGradient1070)"
       id="path2007" />
    <path
       d="m 101,957.36216 -15,0 v -6 h 15 z"
       style="fill:#2d2d2d"
       id="path1816" />
  </g>
  <g
     transform="translate(0,-752.36216)"
     id="decoration-topleft">
    <path
       d="M 101,833.36216 H 76 v 20 l 25,0 z"
       style="opacity:0.5;fill:url(#radialGradient1094)"
       id="path1558" />
    <path
       d="M 101,835.36216 H 92.000001 C 87.5,835.36216 86,836.86216 86,841.36215 v 12.00001 h 15 z"
       style="fill:#2d2d2d"
       id="path5070" />
    <path
       d="M 92 83 C 87.499999 83 86 84.50001 86 89 L 86 90 C 86 85.50001 87.499999 84 92 84 L 101 84 L 101 83 L 92 83 z"
       transform="translate(0,752.36216)"
       style="fill:#ffffff;opacity:0.1"
       id="path866" />
  </g>
  <g
     transform="matrix(-1,0,0,1,300,-752.36216)"
     id="decoration-right">
    <path
       d="m 76,853.36216 v 98 h 10 v -98 z"
       style="opacity:0.5;fill:url(#linearGradient1086)"
       id="path5018" />
    <path
       d="m 101,951.36156 v -97.9994 H 86 v 98 z"
       style="fill:#2d2d2d"
       id="path5020" />
  </g>
  <g
     transform="matrix(-1,0,0,1,300,-752.36216)"
     id="decoration-topright">
    <path
       d="M 101,833.36216 H 76 v 20 h 25 z"
       style="opacity:0.5;fill:url(#radialGradient1102)"
       id="path5024" />
    <path
       d="M 101,835.36216 H 92.000001 C 87.5,835.36216 86,836.86216 86,841.36215 v 12.00001 h 15 z"
       style="fill:#2d2d2d"
       id="path5028" />
    <path
       d="M 199 83 L 199 84 L 208 84 C 212.5 84 214 85.50001 214 90 L 214 89 C 214 84.50001 212.5 83 208 83 L 199 83 z"
       transform="matrix(-1,0,0,1,300,752.36216)"
       style="fill:#ffffff;opacity:0.1"
       id="path878" />
  </g>
  <g
     transform="matrix(-1,0,0,1,300,-752.36216)"
     id="decoration-bottomright">
    <path
       d="M 101,971.36216 H 76 v -20 l 25,0 z"
       style="opacity:0.5;fill:url(#radialGradient1062)"
       id="path5038" />
    <path
       d="m 101,957.36216 -15,0 v -6 h 15 z"
       style="fill:#2d2d2d"
       id="path5042" />
  </g>
  <path
     d="m 369,101 v 98 h 98 v -98 z"
     style="fill:#242424;fill-opacity:1"
     id="decoration-inactive-center" />
  <g
     transform="translate(268,-752.36216)"
     id="decoration-inactive-left">
    <path
       d="m 76,853.36216 v 98 h 10 v -98 z"
       style="opacity:0.5;fill:url(#linearGradient1187)"
       id="path1117" />
    <path
       d="m 101,951.36156 v -97.9994 H 86 v 98 z"
       style="fill:#242424"
       id="path1119" />
  </g>
  <g
     transform="translate(268,-752.36216)"
     id="decoration-inactive-top">
    <path
       d="M 101.00061,853.36216 H 199 v -18 h -98 z"
       style="fill:#242424"
       id="path1123" />
    <path
       d="m 199,833.36216 h -98 v 2 h 98 z"
       style="opacity:0.001"
       id="path1125" />
    <path
       d="m 101,83 v 1 h 98 v -1 z"
       transform="translate(0,752.36216)"
       style="opacity:0.1;fill:#ffffff"
       id="path1127" />
  </g>
  <g
     transform="translate(268,-752.36216)"
     id="decoration-inactive-bottom">
    <path
       d="m 101,971.36216 h 98 v -14 h -98 z"
       style="opacity:0.5;fill:url(#linearGradient1189)"
       id="path1131" />
    <path
       d="M 198.9994,951.36216 H 101 v 6 h 98 z"
       style="fill:#242424"
       id="path1133" />
  </g>
  <g
     transform="translate(268,-752.36216)"
     id="decoration-inactive-bottomleft">
    <path
       d="M 101,971.36216 H 76 v -20 h 25 z"
       style="opacity:0.5;fill:url(#radialGradient1191)"
       id="path1137" />
    <path
       d="M 101,957.36216 H 86 v -6 h 15 z"
       style="fill:#242424"
       id="path1139" />
  </g>
  <g
     transform="translate(268,-752.36216)"
     id="decoration-inactive-topleft">
    <path
       d="M 101,833.36216 H 76 v 20 h 25 z"
       style="opacity:0.5;fill:url(#radialGradient1193)"
       id="path1143" />
    <path
       d="M 101,835.36216 H 92.000001 C 87.5,835.36216 86,836.86216 86,841.36215 v 12.00001 h 15 z"
       style="fill:#242424"
       id="path1145" />
    <path
       d="m 92,83 c -4.500001,0 -6,1.50001 -6,6 v 1 c 0,-4.49999 1.499999,-6 6,-6 h 9 v -1 z"
       transform="translate(0,752.36216)"
       style="opacity:0.1;fill:#ffffff"
       id="path1147" />
  </g>
  <g
     transform="matrix(-1,0,0,1,568,-752.36216)"
     id="decoration-inactive-right">
    <path
       d="m 76,853.36216 v 98 h 10 v -98 z"
       style="opacity:0.5;fill:url(#linearGradient1195)"
       id="path1151" />
    <path
       d="m 101,951.36156 v -97.9994 H 86 v 98 z"
       style="fill:#242424"
       id="path1153" />
  </g>
  <g
     transform="matrix(-1,0,0,1,568,-752.36216)"
     id="decoration-inactive-topright">
    <path
       d="M 101,833.36216 H 76 v 20 h 25 z"
       style="opacity:0.5;fill:url(#radialGradient1197)"
       id="path1157" />
    <path
       d="M 101,835.36216 H 92.000001 C 87.5,835.36216 86,836.86216 86,841.36215 v 12.00001 h 15 z"
       style="fill:#242424"
       id="path1159" />
    <path
       d="m 199,83 v 1 h 9 c 4.5,0 6,1.50001 6,6 v -1 c 0,-4.49999 -1.5,-6 -6,-6 z"
       transform="matrix(-1,0,0,1,300,752.36216)"
       style="opacity:0.1;fill:#ffffff"
       id="path1161" />
  </g>
  <g
     transform="matrix(-1,0,0,1,568,-752.36216)"
     id="decoration-inactive-bottomright">
    <path
       d="M 101,971.36216 H 76 v -20 h 25 z"
       style="opacity:0.5;fill:url(#radialGradient1199)"
       id="path1165" />
    <path
       d="M 101,957.36216 H 86 v -6 h 15 z"
       style="fill:#242424"
       id="path1167" />
  </g>
  <path
     id="path904"
     d="M 101.32867,150 V 101.32867 H 150 198.67133 V 150 198.67133 H 150 101.32867 Z"
     style="fill:#36393e;fill-opacity:0;stroke-width:0.41958" />
  <path
     id="path906"
     d="M 101.32867,150 V 101.32867 H 150 198.67133 V 150 198.67133 H 150 101.32867 Z"
     style="fill:#36393e;fill-opacity:0;stroke-width:0.41958" />
  <path
     id="path908"
     d="M 101.32867,150 V 101.32867 H 150 198.67133 V 150 198.67133 H 150 101.32867 Z"
     style="fill:#36393e;fill-opacity:0;stroke-width:0.41958" />
  <path
     id="path910"
     d="m 101.14607,92.482665 v -8.455612 h 48.87937 48.87938 v 8.455612 8.455615 h -48.87938 -48.87937 z"
     style="fill:#36393e;fill-opacity:0;stroke-width:0.148344" />
  <path
     id="path912"
     d="m 101.14607,150.04017 v -48.95355 h 48.87937 48.87938 v 48.95355 48.95354 h -48.87938 -48.87937 z"
     style="fill:#36393e;fill-opacity:0;stroke-width:0.148344" />
  <path
     id="path914"
     d="m 101.14607,150.04017 v -48.95355 h 48.87937 48.87938 v 48.95355 48.95354 h -48.87938 -48.87937 z"
     style="fill:#36393e;fill-opacity:0;stroke-width:0.148344" />
  <path
     id="path916"
     d="m 101.14607,150.04017 v -48.95355 h 48.87937 48.87938 v 48.95355 48.95354 h -48.87938 -48.87937 z"
     style="fill:#36393e;fill-opacity:0;stroke-width:0.148344" />
  <path
     id="path918"
     d="m 101.14607,150.04017 v -48.95355 h 48.87937 48.87938 v 48.95355 48.95354 h -48.87938 -48.87937 z"
     style="fill:#36393e;fill-opacity:0;stroke-width:0.148344" />
  <path
     id="path920"
     d="m 101.14607,150.04017 v -48.95355 h 48.87937 48.87938 v 48.95355 48.95354 h -48.87938 -48.87937 z"
     style="fill:#36393e;fill-opacity:1;stroke-width:0.148344" />
  <path
     id="path930"
     d="m 199.05316,150.04017 v -48.95355 h 7.4172 7.41721 v 48.95355 48.95354 h -7.41721 -7.4172 z"
     style="fill:#36393e;fill-opacity:1;stroke-width:0.148344" />
  <path
     id="path932"
     d="m 86.01497,150.04017 v -48.95355 h 7.491376 7.491374 v 48.95355 48.95354 H 93.506346 86.01497 Z"
     style="fill:#36393e;fill-opacity:1;stroke-width:0.148344" />
  <path
     id="path934"
     d="m 101.16113,201.93922 v -2.93706 h 48.88112 48.88112 v 2.93706 2.93706 h -48.88112 -48.88112 z"
     style="fill:#36393e;fill-opacity:1;stroke-width:0.20979" />
  <path
     id="path936"
     d="m 86.056238,201.93922 v -2.93706 h 7.447552 7.44755 v 2.93706 2.93706 h -7.44755 -7.447552 z"
     style="fill:#36393e;fill-opacity:1;stroke-width:0.20979" />
  <path
     id="path938"
     d="m 199.13316,201.93922 v -2.93706 h 7.34266 7.34266 v 2.93706 2.93706 h -7.34266 -7.34266 z"
     style="fill:#36393e;fill-opacity:1;stroke-width:0.20979" />
  <path
     id="path940"
     d="m 199.13316,92.408607 v -8.41173 l 5.61189,0.07727 c 5.15977,0.07105 5.68794,0.112625 6.55594,0.516101 1.18207,0.549465 1.78432,1.19783 2.19571,2.363837 0.26253,0.744101 0.32178,2.104519 0.32178,7.389132 v 6.477123 h -7.34266 -7.34266 z"
     style="fill:#36393e;fill-opacity:1;stroke-width:0.20979" />
  <path
     id="path942"
     d="m 101.16113,92.428729 v -8.391608 h 48.88112 48.88112 v 8.391608 8.391611 h -48.88112 -48.88112 z"
     style="fill:#36393e;fill-opacity:1;stroke-width:0.20979" />
  <path
     id="path944"
     d="m 86.093071,94.159498 c 0.06658,-6.516229 0.07886,-6.682774 0.565506,-7.671185 0.615021,-1.249155 1.611103,-1.928509 3.264862,-2.226721 0.684653,-0.123459 3.446017,-0.224471 6.136364,-0.224471 h 4.891537 v 8.391608 8.391611 H 93.488176 86.02501 Z"
     style="fill:#36393e;fill-opacity:1;stroke-width:0.20979" />
  <path
     id="path970"
     d="m 369.11768,150.06762 v -48.8052 h 48.80521 48.8052 v 48.8052 48.8052 h -48.8052 -48.80521 z"
     style="fill:#36393e;fill-opacity:1;stroke-width:0.296688" />
  <path
     id="path972"
     d="m 369.11768,150.06762 v -48.8052 h 48.80521 48.8052 v 48.8052 48.8052 h -48.8052 -48.80521 z"
     style="fill:#36393e;fill-opacity:1;stroke-width:0.296688" />
  <path
     id="path974"
     d="m 354.28328,150.06762 v -48.8052 h 7.26886 7.26886 v 48.8052 48.8052 h -7.26886 -7.26886 z"
     style="fill:#252528;fill-opacity:1;stroke-width:0.296688" />
  <path
     id="path976"
     d="m 369.11768,150.06762 v -48.8052 h 48.80521 48.8052 v 48.8052 48.8052 h -48.8052 -48.80521 z"
     style="fill:#252528;fill-opacity:1;stroke-width:0.296688" />
  <path
     id="path978"
     d="m 369.0293,202.01888 v -2.93706 h 48.93356 48.93357 v 2.93706 2.93707 H 417.96286 369.0293 Z"
     style="fill:#252528;fill-opacity:1;stroke-width:0.104895" />
  <path
     id="path980"
     d="m 354.0293,202.01888 v -2.93706 h 7.44755 7.44755 v 2.93706 2.93707 h -7.44755 -7.44755 z"
     style="fill:#252528;fill-opacity:1;stroke-width:0.104895" />
  <path
     id="path982"
     d="m 354.23909,153.29511 v -45.57692 h 7.29021 7.29021 v 45.57692 45.57692 h -7.29021 -7.29021 z"
     style="fill:#252528;fill-opacity:1;stroke-width:0.104895" />
  <path
     id="path984"
     d="m 467.0384,201.96608 v -2.83217 h 7.44755 7.44755 v 2.83217 2.83217 h -7.44755 -7.44755 z"
     style="fill:#252528;fill-opacity:1;stroke-width:0.20979" />
  <path
     id="path986"
     d="m 467.0384,150.043 v -48.88111 h 7.44755 7.44755 v 48.88111 48.88112 h -7.44755 -7.44755 z"
     style="fill:#252528;fill-opacity:1;stroke-width:0.20979" />
  <path
     id="path988"
     d="m 369.06637,92.560487 v -8.391608 h 48.88112 48.88112 v 8.391608 8.391613 h -48.88112 -48.88112 z"
     style="fill:#252528;fill-opacity:1;stroke-width:0.20979" />
  <path
     id="path990"
     d="m 467.0384,92.560487 v -8.391608 h 5.53306 c 4.43621,0 5.71386,0.06379 6.44508,0.321776 1.16392,0.410657 1.81227,1.011694 2.36854,2.195706 0.41734,0.888309 0.44741,1.337383 0.5093,7.604895 l 0.0658,6.660844 h -7.46088 -7.46087 z"
     style="fill:#252528;fill-opacity:1;stroke-width:0.20979" />
  <path
     id="path992"
     d="m 354.21308,94.081466 0.0631,-6.870629 0.52711,-0.941419 c 0.34694,-0.61962 0.84891,-1.121597 1.46853,-1.468531 0.93328,-0.522553 0.99179,-0.527672 6.7631,-0.591715 l 5.82168,-0.0646 v 8.403763 8.403765 h -7.35329 -7.35328 z"
     style="fill:#252528;fill-opacity:1;stroke-width:0.20979" />
</svg>
