<svg width="24" height="24" version="1.1" viewBox="0 0 24 24" xmlns="http://www.w3.org/2000/svg"><title>accessories-calculator</title><defs><linearGradient id="b" x1="11" x2="11" y1="1" y2="20.5" gradientTransform="translate(1 1)" gradientUnits="userSpaceOnUse"><stop stop-color="#F6F6F6" offset="0"/><stop stop-color="#EAEAEA" offset="1"/></linearGradient><linearGradient id="c" x1="4.5" x2="4.5" y2="9" gradientUnits="userSpaceOnUse"><stop stop-color="#14C4FF" offset="0"/><stop stop-color="#009AFF" offset="1"/></linearGradient><filter id="a" color-interpolation-filters="sRGB"><feFlood flood-color="#000" flood-opacity=".196" result="flood"/><feComposite in="flood" in2="SourceGraphic" operator="in" result="composite1"/><feGaussianBlur in="composite1" result="blur" stdDeviation="1"/><feOffset dx="0" dy="1" result="offset"/><feComposite in="SourceGraphic" in2="offset" result="composite2"/></filter></defs><g fill-rule="evenodd" filter="url(#a)"><path d="M3 2h18a1 1 0 0 1 1 1v18a1 1 0 0 1-1 1H3a1 1 0 0 1-1-1V3a1 1 0 0 1 1-1z" fill="url(#b)"/><g fill="none"><path d="M2 13h9v9H3a1 1 0 0 1-1-1z" fill="#fff"/><path fill="#000" d="M5.714 17.086L4.3 18.5l.707.707 1.414-1.414 1.414 1.414.708-.707-1.415-1.414 1.415-1.414-.708-.708-1.414 1.415-1.414-1.415-.707.708z"/><path d="M3 2h8v9H2V3a1 1 0 0 1 1-1z" fill="#fff"/><path d="M7 6V4H6v2H4v1h2v2h1V7h2V6z" fill="#000"/><g><path d="M13 2h8a1 1 0 0 1 1 1v8h-9z" fill="#fff"/><path fill="#000" d="M15 6h5v1h-5z"/></g><g><path d="M0 0h9v8a1 1 0 0 1-1 1H0z" fill="url(#c)" transform="translate(13 13)"/><path d="M15 16h5v1h-5zm0 2h5v1h-5z" fill="#fff"/></g></g></g></svg>