<svg width="24" height="24" version="1" xmlns="http://www.w3.org/2000/svg"><defs><filter id="a" color-interpolation-filters="sRGB"><feFlood flood-color="#000" flood-opacity=".196" result="flood"/><feComposite in="flood" in2="SourceGraphic" operator="in" result="composite1"/><feGaussianBlur in="composite1" result="blur" stdDeviation=".5"/><feOffset dx="0" dy=".5" result="offset"/><feComposite in="SourceGraphic" in2="offset" result="composite2"/></filter></defs><g filter="url(#a)"><path d="M2 5.5V20c0 .554.446 1 1 1h18c.554 0 1-.446 1-1V5.5z" fill="#c7c7c7"/><rect x="4" y="15.5" width="16" height="2" rx=".762" ry=".829" opacity=".2"/><path d="M3 3c-.554 0-1 .446-1 1v2h20V4c0-.554-.445-1-1-1z" fill="#5a6367"/><path d="M3 3c-.554 0-1 .446-1 1v.5c0-.554.446-1 1-1h18c.554 0 1 .446 1 1V4c0-.554-.446-1-1-1z" fill="#fff" opacity=".1"/><path d="M2 20v.5c0 .554.446 1 1 1h18.001a.997.997 0 0 0 .999-1V20c0 .554-.445 1-.999 1H3c-.554 0-1-.446-1-1z" opacity=".2"/><rect x="4" y="15" width="16" height="2" rx=".762" ry=".829" fill="#fff"/><path d="M18 16.5a3.001 3.001 0 0 1-6 0 3.001 3.001 0 0 1 6 0z" fill-rule="evenodd" opacity=".1"/><path d="M18 16a3.001 3.001 0 0 1-6 0 3.001 3.001 0 0 1 6 0z" fill="#5294e2" fill-rule="evenodd"/><circle cx="5" cy="8.5" r="1" opacity=".2"/><circle cx="5" cy="8" r="1" fill="#fff"/><rect x="8" y="11.5" width="2" height="2" rx=".315" ry=".344" opacity=".1"/><rect x="8" y="11" width="2" height="2" rx=".315" ry=".344" fill="#5294e2"/><rect x="8" y="7.5" width="2" height="2" rx=".315" ry=".344" opacity=".2"/><rect x="8" y="7" width="2" height="2" rx=".315" ry=".344" fill="#fff"/><circle cx="5" cy="12.5" r="1" opacity=".1"/><circle cx="5" cy="12" r="1" fill="#5294e2"/></g></svg>