<svg width="24" height="24" version="1" xmlns="http://www.w3.org/2000/svg"><defs><filter id="a" color-interpolation-filters="sRGB"><feFlood flood-color="#000" flood-opacity=".196" result="flood"/><feComposite in="flood" in2="SourceGraphic" operator="in" result="composite1"/><feGaussianBlur in="composite1" result="blur" stdDeviation=".5"/><feOffset dx="0" dy=".5" result="offset"/><feComposite in="SourceGraphic" in2="offset" result="composite2"/></filter></defs><g transform="translate(1 1)" filter="url(#a)"><path d="M19 20V2c0-.554-.446-1-1-1H4c-.554 0-1 .446-1 1v18c0 .554.446 1 1 1h14c.554 0 1-.446 1-1z" fill="#395d6d"/><path d="M10.96 7.502l-1.558 5.103-1.156-2.703H6v.936h1.592l1.556 3.66h.692l1.851-6.056h3.196v-.94h-3.928zm.75 2.799l1.628 2.002-1.781 2.197h.888l1.334-1.65 1.334 1.65h.89l-1.745-2.156 1.658-2.043h-.888l-1.215 1.496-1.217-1.496h-.887z" opacity=".2"/><path d="M10.96 7.002l-1.558 5.103-1.156-2.703H6v.936h1.592l1.556 3.66h.692L11.69 7.94h3.196v-.94h-3.928zm.75 2.799l1.628 2.002L11.557 14h.888l1.334-1.649L15.113 14h.89l-1.745-2.156L15.916 9.8h-.888l-1.215 1.496L12.596 9.8h-.887z" fill="#ff6868"/><path d="M4 1c-.554 0-1 .446-1 1v.5c0-.554.446-1 1-1h14c.554 0 1 .446 1 1V2c0-.554-.446-1-1-1z" fill="#fff" opacity=".1"/><path d="M3 20v.5c0 .554.446 1 1 1h14c.554 0 1-.446 1-1V20c0 .554-.446 1-1 1H4c-.554 0-1-.446-1-1z" opacity=".2"/></g></svg>