<svg width="24" height="24" version="1.1" viewBox="0 0 24 24" xmlns="http://www.w3.org/2000/svg"><defs><filter id="a" color-interpolation-filters="sRGB"><feFlood flood-color="#000" flood-opacity=".196" result="flood"/><feComposite in="flood" in2="SourceGraphic" operator="in" result="composite1"/><feGaussianBlur in="composite1" result="blur" stdDeviation=".5"/><feOffset dx="0" dy=".5" result="offset"/><feComposite in="SourceGraphic" in2="offset" result="composite2"/></filter></defs><g filter="url(#a)"><path d="M13 5l-7 7" fill="none" stroke="#7d7d7d" stroke-width="4"/><rect transform="scale(-1 1)" x="-9" y="12" width="6" height="8.5" ry="0" fill="#7d7d7d"/><rect transform="scale(-1 1)" x="-10" y="9" width="8" height="8" ry="4" opacity=".2"/><rect transform="scale(-1 1)" x="-10" y="19" width="8" height="2" ry="1" fill="#909090"/><path d="M10 20c1 0 1 1 1 1v1H1v-1c0-1 1-1 1-1z" fill="#4f4f4f"/><rect transform="scale(-1 1)" x="-10" y="8" width="8" height="8" ry="4" fill="#909090"/><rect transform="scale(-1 1)" x="-9" y="9" width="6" height="6" ry="3" fill="#4f4f4f"/><path d="M13 5l4.5 4.5" fill="none" stroke="#7d7d7d" stroke-width="2.5"/><rect transform="scale(-1 1)" x="-16" y="3" width="6" height="6" ry="3" opacity=".2"/><rect transform="scale(-1 1)" x="-16" y="2" width="6" height="6" ry="3" fill="#909090"/><path d="M18.5 13.497h-2v-3l2-2h3v2" fill="none" stroke="#4f4f4f" stroke-linecap="round" stroke-linejoin="round"/><rect transform="scale(-1 1)" x="-15" y="3" width="4" height="4" ry="2" fill="#4f4f4f"/><rect transform="scale(-1 1)" x="-8" y="10" width="4" height="4" ry="2" fill="#fff" opacity=".1"/><rect transform="scale(-1 1)" x="-14" y="4" width="2" height="2" ry="1" fill="#fff" opacity=".1"/></g></svg>