<svg width="24" height="24" version="1" xmlns="http://www.w3.org/2000/svg"><defs><filter id="a" color-interpolation-filters="sRGB"><feFlood flood-color="#000" flood-opacity=".196" result="flood"/><feComposite in="flood" in2="SourceGraphic" operator="in" result="composite1"/><feGaussianBlur in="composite1" result="blur" stdDeviation=".5"/><feOffset dx="0" dy=".5" result="offset"/><feComposite in="SourceGraphic" in2="offset" result="composite2"/></filter></defs><g filter="url(#a)"><rect x="2" y="2.5" width="20" height="20" rx="1" ry="1" opacity=".2"/><rect x="2" y="2" width="20" height="20" rx="1" ry="1" fill="#e4e4e4"/><path d="M5.5 6.5l3.25 6-3.25 6h2l3.25-6-3.25-6zm3.5 0l3.25 6-3.25 6h2l2.25-4.15 2.25 4.15h2L11 6.5zm5.667 4l.813 1.5h3.02v-1.5zM16.02 13l.813 1.5H18.5V13z" opacity=".1"/><path d="M5.5 6l3.25 6-3.25 6h2l3.25-6L7.5 6zm9.167 4l.813 1.5h3.02V10zm1.353 2.5l.813 1.5H18.5v-1.5z" fill="#8b82a4"/><path d="M9 6l3.25 6L9 18h2l2.25-4.15L15.5 18h2L11 6z" fill="#5f5088"/><path d="M3 2c-.554 0-1 .446-1 1v.5c0-.554.446-1 1-1h18c.554 0 1 .446 1 1V3c0-.554-.446-1-1-1H3z" fill="#fff" opacity=".2"/></g></svg>