<svg width="24" height="24" version="1" xmlns="http://www.w3.org/2000/svg" xmlns:xlink="http://www.w3.org/1999/xlink">
<defs>
<filter id="a" color-interpolation-filters="sRGB">
<feFlood flood-opacity=".196" result="flood"/>
<feComposite in="flood" in2="SourceGraphic" operator="in" result="composite1"/>
<feGaussianBlur in="composite1" result="blur" stdDeviation=".5"/>
<feOffset dx="0" dy=".5" result="offset"/>
<feComposite in="SourceGraphic" in2="offset" result="composite2"/>
</filter>
<linearGradient id="linearGradient906" x2="24" y1="13.5" y2="13.5" gradientTransform="matrix(.52705 0 0 1.8974 3.75 1.5)" gradientUnits="userSpaceOnUse">
<stop stop-color="#6DBD00" offset="0"/>
<stop stop-color="#8FBF12" offset="1"/>
</linearGradient>
</defs>
<path d="m3 3.5c-0.554 0-1 0.446-1 1v16c0 0.554 0.446 1 1 1h18c0.554 0 1-0.446 1-1v-16c0-0.554-0.446-1-1-1z" filter="url(#a)" opacity=".2"/>
<path d="m3 3c-0.554 0-1 0.446-1 1v16c0 0.554 0.446 1 1 1h18c0.554 0 1-0.446 1-1v-16c0-0.554-0.446-1-1-1z" fill="#4f4f4f" filter="url(#a)"/>
<g filter="url(#a)" stroke-width="0">
<path d="m2 9h20v1h-20zm0-4h20v1h-20zm0 6h20v1h-20zm0-4h20v1h-20z" opacity=".2"/>
</g>
<path d="m5.5 6c3.5 0 2.333 5.964 6 6 2.28 0.022 4.147-2 6.5-2s4 3.5 4 3.5v6.5c0 0.554-0.446 1-1 1h-18c-0.554 0-1-0.446-1-1v-9.5s0.74-4.5 3.5-4.5z" fill="url(#linearGradient906)" filter="url(#a)"/>
<path d="m3 3c-0.554 0-1 0.446-1 1v0.5c0-0.554 0.446-1 1-1h18c0.554 0 1 0.446 1 1v-0.5c0-0.554-0.446-1-1-1z" fill="#fff" filter="url(#a)" opacity=".1"/>
<path d="m5.5 6c3.5 0 2.333 5.964 6 6 2.28 0.022 4.147-2 6.5-2s4 3.5 4 3.5v0.5s-1.647-3.5-4-3.5-4.22 2.022-6.5 2c-3.667-0.036-2.5-6-6-6-2.76 0-3.5 4.5-3.5 4.5v-0.5s0.74-4.5 3.5-4.5z" fill="#fff" filter="url(#a)" opacity=".2"/>
</svg>
