<svg width="24" height="24" version="1" xmlns="http://www.w3.org/2000/svg"><defs><filter id="a" color-interpolation-filters="sRGB"><feFlood flood-color="#000" flood-opacity=".196" result="flood"/><feComposite in="flood" in2="SourceGraphic" operator="in" result="composite1"/><feGaussianBlur in="composite1" result="blur" stdDeviation=".5"/><feOffset dx="0" dy=".5" result="offset"/><feComposite in="SourceGraphic" in2="offset" result="composite2"/></filter></defs><g transform="translate(1 1)" filter="url(#a)"><path d="M2 7c-.554 0-1 .446-1 1v12c0 .554.446 1 1 1h13V7H2z" fill="#e4e4e4"/><path d="M6.701 10.277c.3.208.578.462.831.762l-.45.554a5.126 5.126 0 0 0-.866-.866l.485-.45m0 2.181c.277.208.543.44.797.693l-.45.588a4.728 4.728 0 0 0-.832-.83l.485-.451m.139 2.39l.554.38a11.517 11.517 0 0 1-1.212 2.736l-.589-.45c.531-.855.947-1.744 1.247-2.668m1.628-4.848l.658.14c-.047.23-.116.45-.208.657h2.701v.624H8.641l-.312.52a2.353 2.353 0 0 1-.45.588l-.416-.486c.439-.531.774-1.212 1.005-2.043m-.174 2.147h3.187c0 .716-.012 1.385-.035 2.009h.45v.623h-.485c-.046.485-.08.958-.103 1.42h.519v.589h-.589c-.092.808-.415 1.212-.97 1.212a3.54 3.54 0 0 1-.588-.07l-.103-.588c.3.046.53.069.693.069.161 0 .265-.208.311-.623H7.88c.092-.624.173-1.293.242-2.01h-.484v-.623h.554c.046-.646.08-1.316.104-2.008m.52 2.008h1.973c.023-.485.035-.958.035-1.42H8.919a24.04 24.04 0 0 1-.104 1.42m.866-1.247c.254.162.485.347.692.555l-.416.52a4.467 4.467 0 0 0-.692-.624l.415-.45m.97 3.29c.046-.486.08-.959.104-1.42H8.78c-.046.507-.104.98-.173 1.42h2.043m-1.073-1.248c.277.162.53.347.762.554l-.451.52a4.82 4.82 0 0 0-.727-.658l.415-.415M5.94 10.829v5.437h-.623v-.589h-.59v.9h-.623V10.83H5.94m-1.212 4.26h.589v-3.672h-.59v3.671M1 20v.5c0 .554.446 1 1 1h13V21H2c-.554 0-1-.446-1-1z" opacity=".2"/><path d="M7 15l8 6V9L7 1z" fill="#a3a3a3"/><path d="M7 1v14h13c.554 0 1-.446 1-1V2c0-.554-.446-1-1-1H7z" fill="#2095f2"/><path d="M13.11 8.687l.196-.736c.221-.798.43-1.73.626-2.577h.05c.208.835.429 1.78.65 2.577l.184.736H13.11M15.675 12h1.914l-2.503-8h-2.172l-2.503 8h1.84l.491-1.902h2.442l.49 1.902" fill="#fff"/><path d="M7 1v.5h13c.554 0 1 .446 1 1V2c0-.554-.446-1-1-1H7z" fill="#fff" opacity=".2"/><path d="M8.344 16L7 15h8v1z" fill-rule="evenodd" opacity=".2"/><path d="M21 14c0 .554-.446 1-1 1H7v.5h13c.554 0 1-.446 1-1V14z" opacity=".2"/></g></svg>