<svg width="24" height="24" version="1.1" viewBox="0 0 24 24" xmlns="http://www.w3.org/2000/svg"><defs><filter id="a" color-interpolation-filters="sRGB"><feFlood flood-color="#000" flood-opacity=".196" result="flood"/><feComposite in="flood" in2="SourceGraphic" operator="in" result="composite1"/><feGaussianBlur in="composite1" result="blur" stdDeviation=".5"/><feOffset dx="0" dy=".5" result="offset"/><feComposite in="SourceGraphic" in2="offset" result="composite2"/></filter></defs><g filter="url(#a)"><path d="M2 3.5v14c0 2 2 2 2 2h18zm4 8.322l4.598 3.678H6z" opacity=".2"/><path d="M2 3v14c0 2 2 2 2 2h18zm4 8.322L10.598 15H6z" fill="#009688"/><path d="M2 3v.5L21.375 19H22L2 3zm4 12v.5h3.348l.625.5h.625l-1.25-1H6z" fill="#fff" opacity=".2"/><path d="M12.037 9.5a1 1 0 0 1 .838.514l5 9L18 21.5l-1.875-1.514L12 12.56V9.504c.013 0 .024-.004.037-.004z" fill-rule="evenodd" opacity=".2"/><path d="M12.037 9a1 1 0 0 1 .838.514l5 9L18 21l-1.875-1.514L12 12.06V9.004c.013 0 .024-.004.037-.004z" fill="#a2a2a2" fill-rule="evenodd"/><path d="M11.963 9.5a1 1 0 0 0-.838.514l-5 9L6 21.5l1.875-1.514.703-1.263A8 8 0 0 0 12 19.5a8 8 0 0 0 8-8h-2a6 6 0 0 1-6 6 6 6 0 0 1-2.447-.533L12 12.56V9.504c-.013 0-.024-.004-.037-.004z" opacity=".2"/><path d="M11.963 9a1 1 0 0 0-.838.514l-5 9L6 21l1.875-1.514.703-1.263A8 8 0 0 0 12 19a8 8 0 0 0 8-8h-2a6 6 0 0 1-6 6 6 6 0 0 1-2.447-.533L12 12.06V9.004c-.013 0-.024-.004-.037-.004z" fill="#e4e4e4"/><path d="M11 5.5v2h-1c-.554 0-1 .446-1 1v4l2 1.7c.531.43 1.507.5 2 0l2-1.7v-4c0-.554-.446-1-1-1h-1v-2z" opacity=".2"/><path d="M11.963 9a1 1 0 0 0-.838.514l-5 9L6 21l.026-.022.1-1.964 5-9a1 1 0 0 1 .837-.514c.013 0 .024.004.037.004v-.5c-.013 0-.024-.004-.037-.004zM18 11a6 6 0 0 1-6 6 6 6 0 0 1-2.22-.441l-.227.408A6 6 0 0 0 12 17.5a6 6 0 0 0 6-6h1.983A8 8 0 0 0 20 11h-2z" fill="#fff" opacity=".1"/><path d="M11 5v2h-1c-.554 0-1 .446-1 1v4l2 1.7c.531.43 1.507.5 2 0l2-1.7V8c0-.554-.446-1-1-1h-1V5z" fill="#6a6a6a"/><circle cx="12" cy="10" r="1" fill="#fff"/><path d="M11 5v.5h2V5h-2zm-1 2c-.554 0-1 .446-1 1v.5c0-.554.446-1 1-1h1V7h-1zm3 0v.5h1c.554 0 1 .446 1 1V8c0-.554-.446-1-1-1h-1z" fill="#fff" opacity=".1"/></g></svg>