<svg width="24" height="24" version="1" xmlns="http://www.w3.org/2000/svg">
<defs>
<filter id="a" color-interpolation-filters="sRGB">
<feFlood flood-opacity=".196" result="flood"/>
<feComposite in="flood" in2="SourceGraphic" operator="in" result="composite1"/>
<feGaussianBlur in="composite1" result="blur" stdDeviation=".5"/>
<feOffset dx="0" dy=".5" result="offset"/>
<feComposite in="SourceGraphic" in2="offset" result="composite2"/>
</filter>
</defs>
<circle cx="12" cy="12" r="10" fill="#ea004e" filter="url(#a)"/>
<path d="m12 2a9.978 9.978 0 0 0-9.999 10c0 0.084-2e-3 0.167 0 0.25 0.132-5.423 4.543-9.75 9.999-9.75s9.867 4.327 9.999 9.75c2e-3 -0.083 0-0.166 0-0.25 0-5.54-4.459-10-9.999-10z" fill="#fff" filter="url(#a)" opacity=".2"/>
<g transform="translate(1,1)" clip-rule="evenodd" enable-background="new" fill-rule="evenodd" filter="url(#a)" opacity=".2">
<path d="m9.325 15.327s-0.535 0.311 0.38 0.416c1.11 0.127 1.677 0.109 2.9-0.122 0 0 0.322 0.201 0.77 0.376-2.74 1.174-6.203-0.068-4.05-0.67zm-0.335-1.533s-0.6 0.445 0.316 0.54c1.186 0.122 2.121 0.132 3.741-0.18 0 0 0.224 0.227 0.576 0.351-3.314 0.97-7.004 0.076-4.633-0.71zm2.823-2.6c0.676 0.778-0.177 1.477-0.177 1.477s1.714-0.885 0.927-1.994c-0.736-1.033-1.3-1.547 1.754-3.317 0 0-4.793 1.196-2.504 3.834z"/>
<path d="m15.438 16.46s0.396 0.327-0.436 0.58c-1.582 0.479-6.584 0.623-7.974 0.019-0.5-0.218 0.437-0.52 0.732-0.583 0.307-0.066 0.483-0.054 0.483-0.054-0.556-0.391-3.59 0.768-1.542 1.1 5.588 0.907 10.186-0.407 8.737-1.061zm-5.856-4.254s-2.544 0.605-0.9 0.824c0.693 0.093 2.076 0.072 3.365-0.036 1.053-0.089 2.11-0.278 2.11-0.278s-0.37 0.16-0.64 0.343c-2.584 0.68-7.575 0.363-6.138-0.332 1.215-0.588 2.203-0.52 2.203-0.52zm4.565 2.551c2.627-1.364 1.412-2.676 0.564-2.5-0.207 0.044-0.3 0.081-0.3 0.081s0.077-0.12 0.224-0.173c1.677-0.589 2.967 1.74-0.54 2.661 0 0 0.04-0.036 0.052-0.069zm-1.584-10.257s1.455 1.455-1.38 3.692c-2.273 1.796-0.518 2.82 0 3.989-1.327-1.197-2.3-2.251-1.648-3.232 0.959-1.44 3.615-2.138 3.028-4.449z"/>
<path d="m9.84 18.456c2.521 0.162 6.393-0.09 6.485-1.282 0 0-0.176 0.452-2.084 0.81-2.151 0.406-4.806 0.359-6.38 0.099 0 0 0.322 0.267 1.98 0.373z"/>
</g>
<g transform="translate(1,1)" clip-rule="evenodd" enable-background="new" fill="#fff" fill-rule="evenodd" filter="url(#a)">
<path d="m9.325 14.827s-0.535 0.311 0.38 0.416c1.11 0.127 1.677 0.109 2.9-0.122 0 0 0.322 0.201 0.77 0.376-2.74 1.174-6.203-0.068-4.05-0.67zm-0.335-1.533s-0.6 0.445 0.316 0.54c1.186 0.122 2.121 0.132 3.741-0.18 0 0 0.224 0.227 0.576 0.351-3.314 0.97-7.004 0.076-4.633-0.71zm2.823-2.6c0.676 0.778-0.177 1.477-0.177 1.477s1.714-0.885 0.927-1.994c-0.736-1.033-1.3-1.547 1.754-3.317 0 0-4.793 1.196-2.504 3.834z"/>
<path d="m15.438 15.96s0.396 0.327-0.436 0.58c-1.582 0.479-6.584 0.623-7.974 0.019-0.5-0.218 0.437-0.52 0.732-0.583 0.307-0.066 0.483-0.054 0.483-0.054-0.556-0.391-3.59 0.768-1.542 1.1 5.588 0.907 10.186-0.407 8.737-1.061zm-5.856-4.254s-2.544 0.605-0.9 0.824c0.693 0.093 2.076 0.072 3.365-0.036 1.053-0.089 2.11-0.278 2.11-0.278s-0.37 0.16-0.64 0.343c-2.584 0.68-7.575 0.363-6.138-0.332 1.215-0.588 2.203-0.52 2.203-0.52zm4.565 2.551c2.627-1.364 1.412-2.676 0.564-2.5-0.207 0.044-0.3 0.081-0.3 0.081s0.077-0.12 0.224-0.173c1.677-0.589 2.967 1.74-0.54 2.661 0 0 0.04-0.036 0.052-0.069zm-1.584-10.257s1.455 1.455-1.38 3.692c-2.273 1.796-0.518 2.82 0 3.989-1.327-1.197-2.3-2.251-1.648-3.232 0.959-1.44 3.615-2.138 3.028-4.449z"/>
<path d="m9.84 17.956c2.521 0.162 6.393-0.09 6.485-1.282 0 0-0.176 0.452-2.084 0.81-2.151 0.406-4.806 0.359-6.38 0.099 0 0 0.322 0.267 1.98 0.373z"/>
</g>
<path d="m21.99 12.209a10 10 0 0 1-9.99 9.791 10 10 0 0 1-9.989-9.709 10 10 0 0 0-0.011 0.209 10 10 0 0 0 10 10 10 10 0 0 0 10-10 10 10 0 0 0-0.01-0.291z" filter="url(#a)" opacity=".2"/>
</svg>
