<svg width="24" height="24" version="1" xmlns="http://www.w3.org/2000/svg">
<defs>
<filter id="a" color-interpolation-filters="sRGB">
<feFlood flood-opacity=".196" result="flood"/>
<feComposite in="flood" in2="SourceGraphic" operator="in" result="composite1"/>
<feGaussianBlur in="composite1" result="blur" stdDeviation="1"/>
<feOffset dx="0" dy="1" result="offset"/>
<feComposite in="SourceGraphic" in2="offset" result="composite2"/>
</filter>
</defs>
<path d="m16.23 2c-1.672 0-3.177 0.708-4.23 2-1.054-1.292-2.56-2-4.23-2-3.187 0-5.77 2.94-5.77 6.566 0 0.974 0.151 1.912 0.416 2.807 0 0 0.24 0.808 0.453 1.253 2.432 5.686 9.13 9.373 9.13 9.373s6.699-3.687 9.13-9.373 0.314-0.758 0.454-1.253c0.253-0.9 0.416-1.833 0.416-2.807 0-3.626-2.583-6.566-5.77-6.566z" fill="#ea004e" filter="url(#a)"/>
<path d="M 7.77,2 C 4.583,2 2,4.94 2,8.567 2,8.658 2.008,8.747 2.01,8.838 2.118,5.318 4.65,2.5 7.77,2.5 c 1.67,0 3.176,0.708 4.23,2 1.054,-1.292 2.56,-2 4.23,-2 3.117,0 5.649,2.814 5.76,6.33 C 21.992,8.742 22,8.656 22,8.567 22,4.94 19.417,2 16.23,2 14.559,2 13.053,2.708 12,4 10.946,2.708 9.44,2 7.769,2 Z" fill="#fff" filter="url(#a)" opacity=".2"/>
<path d="m21.99 8.83a10.54 10.54 0 0 1-0.406 2.544c-0.14 0.495-0.453 1.252-0.453 1.252-2.433 5.686-9.131 9.374-9.131 9.374s-6.698-3.687-9.13-9.374c-0.214-0.445-0.454-1.252-0.454-1.252a9.934 9.934 0 0 1-0.405-2.536c-2e-3 0.077-0.01 0.152-0.01 0.229 0 0.974 0.15 1.912 0.415 2.807 0 0 0.24 0.807 0.453 1.252 2.433 5.687 9.131 9.374 9.131 9.374s6.699-3.688 9.131-9.374 0.314-0.757 0.453-1.252c0.253-0.9 0.416-1.833 0.416-2.807 0-0.08-8e-3 -0.158-0.01-0.237z" filter="url(#a)" opacity=".2"/>
</svg>
