<svg width="24" height="24" version="1.1" viewBox="0 0 24 24" xmlns="http://www.w3.org/2000/svg"><defs><filter id="a" color-interpolation-filters="sRGB"><feFlood flood-color="#000" flood-opacity=".196" result="flood"/><feComposite in="flood" in2="SourceGraphic" operator="in" result="composite1"/><feGaussianBlur in="composite1" result="blur" stdDeviation=".5"/><feOffset dx="0" dy=".5" result="offset"/><feComposite in="SourceGraphic" in2="offset" result="composite2"/></filter></defs><g transform="translate(1.2 1.2) scale(.90001)" fill="#0090ff" filter="url(#a)"><path d="M12 2A11.429 8.571 0 0 0 .571 10.571a11.429 8.571 0 0 0 3.29 6.008c.05-.334.117-.646.156-.994a1.429 1.429 0 0 0-.276-1.015 1.429 1.429 0 0 0-.092-.109c-.018-.019-.028-.04-.045-.059a6.884 6.884 0 0 1-.659-.837c-.058-.088-.097-.18-.15-.27-.13-.223-.26-.444-.357-.676a5.335 5.335 0 0 1-.307-.945l-.009-.031v-.003c-.01-.044-.02-.087-.028-.131v-.006A5.147 5.147 0 0 1 2 10.574v-.005c0-.312.039-.62.094-.924v-.008l.028-.137v-.003c.077-.36.189-.71.34-1.054.146-.33.328-.65.54-.96.014-.022.026-.043.041-.064.205-.293.438-.576.7-.849.045-.047.093-.093.14-.14.273-.27.565-.532.893-.778a9.739 9.739 0 0 1 1.03-.66c.073-.042.145-.084.22-.124.378-.203.774-.393 1.194-.558h.003l.008-.002c.457-.18.936-.33 1.434-.458a13.108 13.108 0 0 1 1.538-.296l.016-.003c.03-.004.06-.005.09-.008l.078-.008A13.66 13.66 0 0 1 12 3.429c.716 0 1.415.055 2.087.159.596.092 1.168.226 1.718.39l.009.003c.103.03.205.062.307.095.043.017.086.032.13.047.422.144.826.307 1.212.489l.02.008c.635.3 1.223.645 1.74 1.032C21.013 6.994 22 8.72 22 10.572c0 1.852-.987 3.577-2.776 4.919a9.452 9.452 0 0 1-.706.48c-.32.197-.665.375-1.02.544-.006.002-.01.006-.015.008l-.022.008a11.651 11.651 0 0 1-1.64.628c-.003 0-.004.002-.006.003l-.009.003c-.55.164-1.123.299-1.718.39-.672.104-1.368.16-2.085.16H12c-.076 0-.147-.013-.223-.014a13.754 13.754 0 0 1-1.39-.092c-.05-.006-.102-.007-.153-.014l-.014-.003c-.55-.072-1.082-.18-1.596-.313H8.62a1.429 1.429 0 0 0-1.395.396c-.169.177-.358.323-.541.48a11.429 8.571 0 0 0 5.316.988 11.429 8.571 0 0 0 11.429-8.571A11.429 8.571 0 0 0 11.999 2z" stroke-width="1.429"/><path d="M2.762 13.233C2.58 16.973 1.894 20.38.572 22c3.566 0 6.722-1.81 8.707-4.593-.218-.045-.444-.072-.658-.128a1.429 1.429 0 0 0-1.395.396c-1.126 1.18-2.577 1.898-4.132 2.363.436-1.335.742-2.815.923-4.453.046-.41-.089-.82-.368-1.124a6.78 6.78 0 0 1-.888-1.228z" stroke-width="1.429"/><g transform="translate(.572 -.857) scale(1.4286)"><circle cx="8" cy="8" r="1"/><circle cx="11" cy="8" r="1"/><circle cx="5" cy="8" r="1"/></g></g></svg>