<svg width="24" height="24" version="1" xmlns="http://www.w3.org/2000/svg"><defs><filter id="a" color-interpolation-filters="sRGB"><feFlood flood-color="#000" flood-opacity=".196" result="flood"/><feComposite in="flood" in2="SourceGraphic" operator="in" result="composite1"/><feGaussianBlur in="composite1" result="blur" stdDeviation=".5"/><feOffset dx="0" dy=".5" result="offset"/><feComposite in="SourceGraphic" in2="offset" result="composite2"/></filter></defs><g transform="translate(1 1)" filter="url(#a)"><rect transform="matrix(0 -1 -1 0 0 0)" x="-21" y="-21" width="20" height="20" rx="1" ry="1" fill="#e4e4e4"/><path d="M21 20V2c0-.554-.446-1-1-1h-9v20h9c.554 0 1-.446 1-1z" opacity=".1"/><path d="M2 1c-.554 0-1 .446-1 1v.5c0-.554.446-1 1-1h18c.554 0 1 .446 1 1V2c0-.554-.446-1-1-1H2z" fill="#fff" opacity=".2"/><path d="M2 21.5c-.554 0-1-.446-1-1V20c0 .554.446 1 1 1h18c.554 0 1-.446 1-1v.5c0 .554-.446 1-1 1H2z" opacity=".2"/><path d="M8.6 0C8 0 8 .514 8 .514V9l1.5-1L11 9V.514C11 0 10.4 0 10.4 0z" fill="#c2352a"/></g></svg>