<svg width="24" height="24" version="1" xmlns="http://www.w3.org/2000/svg"><defs><filter id="a" color-interpolation-filters="sRGB"><feFlood flood-color="#000" flood-opacity=".196" result="flood"/><feComposite in="flood" in2="SourceGraphic" operator="in" result="composite1"/><feGaussianBlur in="composite1" result="blur" stdDeviation=".5"/><feOffset dx="0" dy=".5" result="offset"/><feComposite in="SourceGraphic" in2="offset" result="composite2"/></filter></defs><g filter="url(#a)"><path d="M12 2C6.46 2 2 6.46 2 12s4.46 10 10 10 10-4.46 10-10S17.54 2 12 2z" fill="#e4e4e4"/><path d="M12 2a9.974 9.974 0 0 1 9.991 10c0 .084-.004.167-.006.25C21.853 6.827 17.451 2.5 12 2.5s-9.853 4.327-9.985 9.75c-.002-.083-.006-.166-.006-.25C2.01 6.46 6.465 2 12 2z" fill="#fff" opacity=".2"/><path d="M2.006 12.25c-.002.084-.006.166-.006.25 0 5.54 4.46 10 10 10s10-4.46 10-10c0-.084-.004-.167-.006-.25C21.862 17.673 17.456 22 12 22s-9.862-4.327-9.994-9.75z" opacity=".2"/><g transform="matrix(.5 0 0 .5 0 1)" opacity=".1"><rect x="12" y="13" width="6" height="6" rx="2" ry="2"/><rect x="21" y="13" width="6" height="6" rx="2" ry="2"/><rect x="30" y="13" width="6" height="6" rx="2" ry="2"/><rect x="12" y="21" width="6" height="6" rx="2" ry="2"/><rect x="21" y="21" width="6" height="6" rx="2" ry="2"/><rect x="30" y="21" width="6" height="6" rx="2" ry="2"/><rect x="12" y="29" width="6" height="6" rx="2" ry="2"/><rect x="21" y="29" width="6" height="6" rx="2" ry="2"/><rect x="30" y="29" width="6" height="6" rx="2" ry="2"/></g><g transform="matrix(.5 0 0 .5 0 .5)"><rect x="12" y="13" width="6" height="6" rx="2" ry="2" fill="#eb6253"/><rect x="21" y="13" width="6" height="6" rx="2" ry="2" fill="#2181dd"/><rect x="30" y="13" width="6" height="6" rx="2" ry="2" fill="#2181dd"/><rect x="12" y="21" width="6" height="6" rx="2" ry="2" fill="#4d9133"/><rect x="21" y="21" width="6" height="6" rx="2" ry="2" fill="#eb6253"/><rect x="30" y="21" width="6" height="6" rx="2" ry="2" fill="#2181dd"/><rect x="12" y="29" width="6" height="6" rx="2" ry="2" fill="#4d9133"/><rect x="21" y="29" width="6" height="6" rx="2" ry="2" fill="#4d9133"/><rect x="30" y="29" width="6" height="6" rx="2" ry="2" fill="#eb6253"/></g></g></svg>