<?xml version="1.0" encoding="UTF-8"?>
<svg width="24" height="24" version="1.1" viewBox="0 0 24 24" xmlns="http://www.w3.org/2000/svg" xmlns:cc="http://creativecommons.org/ns#" xmlns:dc="http://purl.org/dc/elements/1.1/" xmlns:rdf="http://www.w3.org/1999/02/22-rdf-syntax-ns#">
 <metadata>
  <rdf:RDF>
   <cc:Work rdf:about="">
    <dc:format>image/svg+xml</dc:format>
    <dc:type rdf:resource="http://purl.org/dc/dcmitype/StillImage"/>
    <dc:title>deepin-repair-tools</dc:title>
   </cc:Work>
  </rdf:RDF>
 </metadata>
 <title>deepin-repair-tools</title>
 <defs>
  <linearGradient id="b" x1="10" x2="10" y1="18.482" gradientTransform="translate(2,2)" gradientUnits="userSpaceOnUse">
   <stop stop-color="#8E8E8E" offset="0"/>
   <stop stop-color="#AFAFAF" offset=".904"/>
   <stop stop-color="#BEBEBE" offset=".905"/>
   <stop stop-color="#C2C2C2" offset="1"/>
  </linearGradient>
  <filter id="a" color-interpolation-filters="sRGB">
   <feFlood flood-opacity=".196" result="flood"/>
   <feComposite in="flood" in2="SourceGraphic" operator="in" result="composite1"/>
   <feGaussianBlur in="composite1" result="blur" stdDeviation=".3"/>
   <feOffset dx="0" dy=".3" result="offset"/>
   <feComposite in="SourceGraphic" in2="offset" result="composite2"/>
  </filter>
 </defs>
 <path d="m2.154 3.377 0.83-1.083a0.75 0.75 0 0 1 0.594-0.294h16.842a0.75 0.75 0 0 1 0.596 0.294l0.828 1.083c0.1 0.131 0.155 0.291 0.155 0.456v17.755c0 0.228-0.174 0.412-0.388 0.412h-19.222c-0.215 0-0.389-0.184-0.389-0.412v-17.755a0.75 0.75 0 0 1 0.155-0.456z" fill="url(#b)" fill-rule="evenodd" filter="url(#a)"/>
 <g transform="translate(.92383 -.076271)" fill-rule="evenodd">
  <path d="m5 5.5v12l3.25-4.25 3.5469 8.75h3.8779l-6.175-9.5h5.5l-10-7z" opacity=".2"/>
  <path d="m5 5v12l3.25-4.25 3.75 9.25h4l-6.5-10h5.5z" fill="#fff"/>
 </g>
</svg>
