<svg width="24" height="24" version="1.1" viewBox="0 0 24 24" xmlns="http://www.w3.org/2000/svg" xmlns:xlink="http://www.w3.org/1999/xlink"><title>crossover</title><defs><path id="b" d="M11 21c2.761 0 5.261-1.12 7.071-2.929S21 13.761 21 11c0-5.523-4.477-10-10-10S1 5.477 1 11s4.477 10 10 10z"/><filter id="a" color-interpolation-filters="sRGB"><feFlood flood-color="#000" flood-opacity=".196" result="flood"/><feComposite in="flood" in2="SourceGraphic" operator="in" result="composite1"/><feGaussianBlur in="composite1" result="blur" stdDeviation=".5"/><feOffset dx="0" dy=".5" result="offset"/><feComposite in="SourceGraphic" in2="offset" result="composite2"/></filter></defs><g transform="translate(1 1)" fill="none" fill-rule="evenodd" filter="url(#a)"><circle cx="11" cy="11" r="11" fill="#fff"/><use width="100%" height="100%" fill="#fff" fill-rule="evenodd" xlink:href="#b"/><path d="M11 20.5a9.467 9.467 0 0 0 6.718-2.783A9.467 9.467 0 0 0 20.5 11a9.5 9.5 0 1 0-9.5 9.5z" stroke="#1038fb"/><path d="M19.721 8.642a14.776 14.776 0 0 0-3.183-1.917C11.584 4.519 6.427 5.292 5.02 8.45c-1.407 3.16 1.47 7.508 6.424 9.714.308.137.618.263.927.378-2.907-2.312-4.309-5.398-3.24-7.797 1.318-2.963 5.934-3.827 10.59-2.105z" fill="#1038fb"/><path d="M3.504 13.765c.91.75 1.974 1.426 3.16 1.979 4.93 2.3 10.116 1.614 11.582-1.53s-1.342-7.557-6.273-9.856a15.59 15.59 0 0 0-.924-.395c2.875 2.37 4.228 5.49 3.114 7.877-1.375 2.949-6.02 3.735-10.659 1.925z" fill="#fd5400" stroke="#fff" stroke-width=".5"/></g></svg>