<svg width="24" height="24" version="1" xmlns="http://www.w3.org/2000/svg"><defs><filter id="a" color-interpolation-filters="sRGB"><feFlood flood-color="#000" flood-opacity=".196" result="flood"/><feComposite in="flood" in2="SourceGraphic" operator="in" result="composite1"/><feGaussianBlur in="composite1" result="blur" stdDeviation=".5"/><feOffset dx="0" dy=".5" result="offset"/><feComposite in="SourceGraphic" in2="offset" result="composite2"/></filter></defs><g transform="translate(1 1)" filter="url(#a)"><rect transform="matrix(0 -1 -1 0 0 0)" x="-19" y="-21" width="16" height="20" rx="1" ry="1" fill="#4f4f4f"/><path d="M2 3c-.554 0-1 .446-1 1v.5c0-.554.446-1 1-1h18c.554 0 1 .446 1 1V4c0-.554-.446-1-1-1H2z" fill="#fff" opacity=".1"/><path d="M1 18v.5c0 .554.446 1 1 1h18c.554 0 1-.446 1-1V18c0 .554-.446 1-1 1H2c-.554 0-1-.446-1-1z" opacity=".2"/><g transform="translate(-1 -.5)" opacity=".2"><g transform="translate(0 -1)"><rect x="4" y="8" width="16" height="4" rx="1" ry="1"/><g transform="translate(-2 -2)"><circle cx="12" cy="12" r="1"/><circle cx="16" cy="12" r="1"/><circle cx="8" cy="12" r="1"/></g></g><rect x="4" y="13" width="16" height="4" rx="1" ry="1"/></g><rect x="3" y="12" width="16" height="4" rx="1" ry="1" fill="#fff"/><rect x="3" y="6" width="16" height="4" rx="1" ry="1" fill="#fff"/><g transform="translate(-1 -7)" fill="#4fa0ff"><circle cx="10" cy="15" r="1"/><circle cx="14" cy="15" r="1"/><circle cx="6" cy="15" r="1"/></g><g transform="translate(-3 2)" fill="#ff4f4f"><circle cx="12" cy="12" r="1"/><circle cx="16" cy="12" r="1"/><circle cx="8" cy="12" r="1"/></g></g></svg>