<?xml version="1.0" encoding="UTF-8"?>
<svg width="24" height="24" version="1.1" viewBox="0 0 24 24" xmlns="http://www.w3.org/2000/svg" xmlns:cc="http://creativecommons.org/ns#" xmlns:dc="http://purl.org/dc/elements/1.1/" xmlns:rdf="http://www.w3.org/1999/02/22-rdf-syntax-ns#">
 <metadata>
  <rdf:RDF>
   <cc:Work rdf:about="">
    <dc:format>image/svg+xml</dc:format>
    <dc:type rdf:resource="http://purl.org/dc/dcmitype/StillImage"/>
    <dc:title/>
   </cc:Work>
  </rdf:RDF>
 </metadata>
 <defs>
  <filter id="a" color-interpolation-filters="sRGB">
   <feFlood flood-opacity=".196" result="flood"/>
   <feComposite in="flood" in2="SourceGraphic" operator="in" result="composite1"/>
   <feGaussianBlur in="composite1" result="blur" stdDeviation=".3"/>
   <feOffset dx="0" dy=".3" result="offset"/>
   <feComposite in="SourceGraphic" in2="offset" result="composite2"/>
  </filter>
  <linearGradient id="linearGradient909" x2="24" y1="11" y2="11" gradientTransform="scale(1.0541 .94871)" gradientUnits="userSpaceOnUse">
   <stop stop-color="#23FFBE" offset="0"/>
   <stop stop-color="#3FDA88" offset="1"/>
  </linearGradient>
 </defs>
 <path d="m3 3c-0.554 0-1 0.446-1 1v15h20v-15c0-0.554-0.446-1-1-1z" fill="url(#linearGradient909)" filter="url(#a)"/>
 <path d="m3 21c-0.554 0-1-0.446-1-1v-1h20v1c0 0.554-0.446 1-1 1z" fill="#4f4f4f" filter="url(#a)"/>
 <path d="m3 3c-0.554 0-1 0.446-1 1v0.5c0-0.554 0.446-1 1-1h18c0.554 0 1 0.446 1 1v-0.5c0-0.554-0.446-1-1-1z" fill="#fff" filter="url(#a)" opacity=".1"/>
 <path d="m2 20v0.5c0 0.554 0.446 1 1 1h18c0.554 0 1-0.446 1-1v-0.5c0 0.554-0.446 1-1 1h-18c-0.554 0-1-0.446-1-1z" filter="url(#a)" opacity=".2"/>
</svg>
