<?xml version="1.0" encoding="UTF-8" standalone="no"?>
<svg
   xmlns:dc="http://purl.org/dc/elements/1.1/"
   xmlns:cc="http://creativecommons.org/ns#"
   xmlns:rdf="http://www.w3.org/1999/02/22-rdf-syntax-ns#"
   xmlns:svg="http://www.w3.org/2000/svg"
   xmlns="http://www.w3.org/2000/svg"
   xmlns:xlink="http://www.w3.org/1999/xlink"
   xmlns:sodipodi="http://sodipodi.sourceforge.net/DTD/sodipodi-0.dtd"
   xmlns:inkscape="http://www.inkscape.org/namespaces/inkscape"
   width="24"
   height="24"
   version="1.1"
   viewBox="0 0 24 24"
   id="svg23"
   sodipodi:docname="config-users.svg"
   inkscape:version="0.92.5 (2060ec1f9f, 2020-04-08)">
  <metadata
     id="metadata27">
    <rdf:RDF>
      <cc:Work
         rdf:about="">
        <dc:format>image/svg+xml</dc:format>
        <dc:type
           rdf:resource="http://purl.org/dc/dcmitype/StillImage" />
      </cc:Work>
    </rdf:RDF>
  </metadata>
  <sodipodi:namedview
     pagecolor="#ffffff"
     bordercolor="#666666"
     borderopacity="1"
     objecttolerance="10"
     gridtolerance="10"
     guidetolerance="10"
     inkscape:pageopacity="0"
     inkscape:pageshadow="2"
     inkscape:window-width="1366"
     inkscape:window-height="703"
     id="namedview25"
     showgrid="false"
     inkscape:zoom="6.9532167"
     inkscape:cx="-13.635659"
     inkscape:cy="22.67049"
     inkscape:window-x="0"
     inkscape:window-y="0"
     inkscape:window-maximized="1"
     inkscape:current-layer="svg23" />
  <defs
     id="defs11">
    <path
       id="system-shutdown-b"
       d="m2 12c0-5.5138 4.4857-10 10-10 5.5138 0 10 4.4862 10 10s-4.4862 10-10 10c-5.5143 0-10-4.4862-10-10z" />
    <radialGradient
       id="radialGradient854"
       cx="12"
       cy="13.497"
       r="7.7102"
       gradientUnits="userSpaceOnUse">
      <stop
         stop-color="#E3F5FF"
         offset="0"
         id="stop3" />
      <stop
         stop-color="#FFF"
         offset="1"
         id="stop5" />
    </radialGradient>
    <filter
       id="filter1080"
       x="-.048"
       y="-.048"
       width="1.096"
       height="1.096"
       color-interpolation-filters="sRGB">
      <feGaussianBlur
         stdDeviation="0.40000002"
         id="feGaussianBlur8" />
    </filter>
  </defs>
  <use
     transform="matrix(1.15,0,0,1.15,-1.8,-1.8)"
     width="100%"
     height="100%"
     fill="#cccccc"
     fill-rule="evenodd"
     filter="url(#filter1080)"
     stroke-width=".86957"
     xlink:href="#system-shutdown-b"
     id="use13" />
  <use
     transform="matrix(1.1,0,0,1.1,-1.2,-1.2)"
     width="100%"
     height="100%"
     xlink:href="#system-shutdown-b"
     id="use15"
     style="fill:#009587;fill-rule:evenodd;stroke-width:0.90908998;fill-opacity:1"
     x="0"
     y="0" />
  <path
     style="color:#000000;font-variant-ligatures:normal;font-variant-position:normal;font-variant-caps:normal;font-variant-numeric:normal;font-variant-alternates:normal;font-feature-settings:normal;text-indent:0;text-decoration:none;text-decoration-line:none;text-decoration-style:solid;text-decoration-color:#000000;text-transform:none;text-orientation:mixed;dominant-baseline:auto;white-space:normal;shape-padding:0;isolation:auto;mix-blend-mode:normal;solid-color:#000000;fill:#ffffff;color-rendering:auto;image-rendering:auto;shape-rendering:auto;fill-opacity:1"
     d="M 12,11 C 9.7951,11.0012 8.43,11.73076 7.7188,12.6094 7.00885,13.48655 7.00005,14.459 7.00005,14.459 v 1.2246 l 0.10156,0.20898 0.00195,0.0039 c 0,0 0.34374,0.65514 1.127,1.166 0.77177,0.50337 1.9851,0.93751 3.7695,0.93751 1.7844,0 2.9977,-0.43416 3.7695,-0.9375 0.78327,-0.51086 1.127,-1.166 1.127,-1.166 l 0.002,-0.0039 0.10152,-0.20899 V 14.459 c 0,0 -0.0069,-0.97183 -0.7168,-1.8496 -0.7112,-0.87948 -2.0784,-1.6101 -4.2832,-1.6094 z"
     id="path845" />
  <path
     style="opacity:0.98999999;fill:#ffffff;fill-rule:evenodd;paint-order:stroke markers fill;fill-opacity:1"
     d="m 12,6 a 2,2 0 0 0 -2,2 2,2 0 0 0 2,2 2,2 0 0 0 2,-2 2,2 0 0 0 -2,-2 z"
     id="path841" />
</svg>
