<svg width="24" height="24" version="1.1" viewBox="0 0 24 24" xmlns="http://www.w3.org/2000/svg"><title>日历-24px</title><defs><filter id="a" color-interpolation-filters="sRGB"><feFlood flood-color="#000" flood-opacity=".196" result="flood"/><feComposite in="flood" in2="SourceGraphic" operator="in" result="composite1"/><feGaussianBlur in="composite1" result="blur" stdDeviation=".5"/><feOffset dx="0" dy=".5" result="offset"/><feComposite in="SourceGraphic" in2="offset" result="composite2"/></filter></defs><g fill-rule="evenodd" filter="url(#a)"><path d="M5 3.508c0-.28.22-.508.498-.508h13.003c.275 0 .499.227.499.508v17.984c0 .28-.22.508-.499.508H5.498A.503.503 0 0 1 5 21.492z" fill="#ebebeb"/><path d="M3 4.49c0-.27.228-.49.5-.49h17c.276 0 .5.215.5.49v16.02c0 .27-.227.49-.5.49h-17a.492.492 0 0 1-.5-.49z" fill="#eb3a49"/><path d="M10.334 11.927C11.5 10.99 11 9 9 9s-2 1.99-2 1.99H6S6 8 9 8c2.5 0 3 1.925 3 2.605 0 .212-.018.408-.05.59-.255 1.455-1.42 2.03-1.803 2.297-1.306.91-2.815 1.657-2.815 2.508H12v1H6c.04-.772.196-1.445.467-2.017.865-1.535 2.866-2.01 3.867-3.056zM19 8v1s-3 3.5-3 8h-1c0-4 1.811-7.212 2.5-8 0 0-4.5-.033-4.5 0V8z" fill="#fff"/></g></svg>