<svg width="24" height="24" version="1.1" viewBox="0 0 24 24" xmlns="http://www.w3.org/2000/svg" xmlns:xlink="http://www.w3.org/1999/xlink"><title>dde-introduction</title><defs><linearGradient id="b" x1="10.274" x2="10.274" y1="1" y2="23" gradientUnits="userSpaceOnUse"><stop stop-color="#30FFAF" offset="0"/><stop stop-color="#08C5FF" offset="1"/></linearGradient><path id="c" d="M13.318 1.345c2.644 0 4.79 2.14 4.797 4.784l.027 9.474a1 1 0 0 1-1.007 1.003l-8.668-.064.046-10.414a4.805 4.805 0 0 1 4.805-4.783z"/><path id="d" d="M11.637 10.216h5.738v1h-5.738z"/><path id="e" d="M10.134 11.774h5.738v1h-5.738z"/><path id="f" d="M6.893 8.48a1.486 1.486 0 0 1 1.485 1.487l-.004 2.541-2.833-.045-.085-2.497A1.438 1.438 0 0 1 6.893 8.48z"/><path id="g" d="M8.721 10.36c.782 0 1.417.634 1.417 1.417l-.001 2.506-2.818.047-.01-2.553a1.412 1.412 0 0 1 1.412-1.417z"/><path id="h" d="M10.252 11.928c.783 0 1.417.635 1.417 1.417v2.476H8.835v-2.476c0-.782.634-1.417 1.417-1.417z"/><path id="i" d="M11.806 13.538c.822 0 1.488.666 1.488 1.488v1.405a1 1 0 0 1-1 1h-1.976v-2.405c0-.822.666-1.488 1.488-1.488z"/><path id="j" d="M11.995 3.65v2.834c0 1.521-1.11 2.754-2.48 2.754V3.65"/><filter id="a" color-interpolation-filters="sRGB"><feFlood flood-color="#000" flood-opacity=".196" result="flood"/><feComposite in="flood" in2="SourceGraphic" operator="in" result="composite1"/><feGaussianBlur in="composite1" result="blur" stdDeviation=".5"/><feOffset dx="0" dy=".5" result="offset"/><feComposite in="SourceGraphic" in2="offset" result="composite2"/></filter></defs><g fill-rule="evenodd" filter="url(#a)"><circle cx="12" cy="12" r="11" fill="url(#b)"/><g fill="none"><g transform="rotate(45 9.934 11.08)"><use width="100%" height="100%" fill="#404040" fill-rule="evenodd" xlink:href="#c"/><path d="M8.769 16.245l8.369.062h.007a.7.7 0 0 0 .698-.702l-.027-9.475a4.497 4.497 0 0 0-4.498-4.484A4.505 4.505 0 0 0 8.814 6.13z" stroke="#373737" stroke-width=".6"/></g><path d="M12.028 6.754l6.184 6.184a1 1 0 0 1 0 1.414l-5.65 5.65a1 1 0 0 1-1.415 0l-6.183-6.184a4.995 4.995 0 0 1 7.064-7.064z" fill="#fff"/><g transform="rotate(45 11.136 12.687)"><use width="100%" height="100%" fill="#606060" fill-rule="evenodd" xlink:href="#d"/><path stroke="#373737" stroke-width=".7" d="M11.987 10.566h5.038v1h-5.038z"/></g><g transform="rotate(45 9.632 14.245)"><use width="100%" height="100%" fill="#606060" fill-rule="evenodd" xlink:href="#e"/><path stroke="#373737" stroke-width=".7" d="M10.484 12.124h5.038v1h-5.038z"/></g><g transform="rotate(45 3.545 12.598)"><use width="100%" height="100%" fill="#404040" fill-rule="evenodd" xlink:href="#f"/><path d="M5.88 12.119l2.145.034.004-2.186v-.002c0-.627-.509-1.135-1.136-1.135h-.037c-.6.02-1.071.524-1.05 1.125z" stroke="#373737" stroke-width=".7"/></g><g transform="rotate(45 5.352 14.449)"><use width="100%" height="100%" fill="#404040" fill-rule="evenodd" xlink:href="#g"/><path d="M7.668 13.974l2.119-.036v-2.16-.001c0-.59-.477-1.067-1.066-1.067h-.004c-.587.002-1.06.48-1.058 1.066z" stroke="#373737" stroke-width=".7"/></g><g transform="rotate(45 6.88 15.979)"><use width="100%" height="100%" fill="#404040" fill-rule="evenodd" xlink:href="#h"/><path d="M9.185 15.471h2.134v-2.126a1.067 1.067 0 1 0-2.134 0z" stroke="#373737" stroke-width=".7"/></g><g transform="rotate(45 8.435 17.589)"><use width="100%" height="100%" fill="#404040" fill-rule="evenodd" xlink:href="#i"/><path d="M10.667 17.082h1.626a.65.65 0 0 0 .65-.65v-1.405a1.138 1.138 0 0 0-2.276 0z" stroke="#373737" stroke-width=".7"/></g><g transform="rotate(45 7.384 8.548)"><use width="100%" height="100%" fill="#404040" fill-rule="evenodd" xlink:href="#j"/><path d="M11.645 4h-1.78v4.856c1.004-.188 1.78-1.173 1.78-2.372z" stroke="#373737" stroke-width=".7"/></g></g></g></svg>