<svg width="24" height="24" version="1.1" viewBox="0 0 24 24" xmlns="http://www.w3.org/2000/svg"><title>文件管理器-24px</title><defs><filter id="a" color-interpolation-filters="sRGB"><feFlood flood-color="#000" flood-opacity=".196" result="flood"/><feComposite in="flood" in2="SourceGraphic" operator="in" result="composite1"/><feGaussianBlur in="composite1" result="blur" stdDeviation=".5"/><feOffset dx="0" dy=".5" result="offset"/><feComposite in="SourceGraphic" in2="offset" result="composite2"/></filter></defs><g filter="url(#a)"><g fill-rule="evenodd"><path d="M3 8.4V6.005a.84.84 0 0 1 .46-.709l7.644-3.39c.505-.224 1.324-.224 1.825 0l7.613 3.39a.843.843 0 0 1 .458.71V21.5c0 .276-.228.5-.5.5h-17a.5.5 0 0 1-.5-.5z" fill="#00b8ff"/><path fill="#ffd245" d="M20.398 19.057L5.555 21.284 3.55 7.024l14.843-2.227z"/><path fill="#fff" d="M4 7h16v14H4z"/><path d="M3 9h18v12.506a.5.5 0 0 1-.5.494h-17a.5.5 0 0 1-.5-.494z" fill="#39d4ff" opacity=".7"/></g><path d="M10.75 16v-3.75s.25 1 1.25 1 1.25-1 1.25-1v6" fill="none" stroke="#fff" stroke-linecap="round" stroke-linejoin="round" stroke-width=".5"/><circle cx="12" cy="12" r="2" fill="#fff" fill-rule="evenodd"/><circle cx="12" cy="12" r=".75" fill="#4ed8ff" fill-rule="evenodd"/></g></svg>