<svg width="24" height="24" version="1.1" viewBox="0 0 24 24" xmlns="http://www.w3.org/2000/svg" xmlns:xlink="http://www.w3.org/1999/xlink"><title>deepin-clone</title><defs><linearGradient id="b" x1="50%" x2="50%" y1="2.868%" y2="100%"><stop stop-color="#0090FF" offset="0"/><stop stop-color="#0076FF" offset="1"/></linearGradient><circle id="c" cx="4.5" cy="4.5" r="4.5"/><filter id="a" color-interpolation-filters="sRGB"><feFlood flood-color="#000" flood-opacity=".196" result="flood"/><feComposite in="flood" in2="SourceGraphic" operator="in" result="composite1"/><feGaussianBlur in="composite1" result="blur" stdDeviation=".5"/><feOffset dx="0" dy=".5" result="offset"/><feComposite in="SourceGraphic" in2="offset" result="composite2"/></filter></defs><g fill="none" fill-rule="evenodd" filter="url(#a)"><circle cx="12" cy="12" r="11" fill="url(#b)"/><path d="M5.93 11.5a6.322 6.322 0 0 1 6.315-6.074c3.49 0 6.32 2.831 6.32 6.324a6.322 6.322 0 0 1-6.32 6.324 6.3 6.3 0 0 1-4.662-2.054.462.462 0 1 0-.683.625A7.224 7.224 0 0 0 12.245 19a7.248 7.248 0 0 0 7.246-7.25 7.248 7.248 0 0 0-7.246-7.25 7.248 7.248 0 0 0-7.24 7H3.75L5.5 15l1.75-3.5H5.93z" fill="#fff" fill-rule="nonzero"/><g transform="translate(8 7.25)" fill="#fff"><mask id="d"><use xlink:href="#c"/></mask><path d="M-.5 6.9c1.101.32 4.114 1.014 6.017-.329C6.751 5.7 6.592 4.304 6.592 4.304c-.02-1.061-.691-2.116-.691-2.116 2.608 2.274 1.067 4.8 1.067 4.8-.794 1.561-2.515 2.5-3.888 2.83A5.244 5.244 0 0 1-.5 6.9zm.707-5.497c.323 1.693 1.048 3.121 1.53 3.64.623.672 1.54 1.384 2.719 1.09C5.634 5.838 5.873 4.55 5.873 4.55c.26-1.096-.11-2.397-.13-2.424-.02-.028-.197-.059-.197-.059.185 1.726-.269 2.49-.269 2.49-.66 1.352-1.63.934-1.63.934C2.57 4.942 2.62 3.393 2.62 3.393 2.587 2.317 3.014.536 3.834-.5A5.225 5.225 0 0 0 .207 1.403zm6.1-1.504c-.63.512-1.7 1.604-1.7 1.604-1.59 1.473-1.281 2.712-1.281 2.712.253 1.301 1.04.425 1.04.425.829-.856.767-2.561.767-2.561-.335.054-.547.24-.547.24-.042 1.136-.713 1.841-.713 1.841-.26.288-.445.014-.445.014-.136-.206.137-.35.137-.35.383-.335.498-.907.494-1.122-.006-.215.109-.274.109-.274.54-.418 1.082-.664 1.082-.664.726-.37 2.02-.432 2.02-.432.351.012.686-.006.955-.029A5.246 5.246 0 0 0 6.307-.101z" mask="url(#d)"/></g></g></svg>