<svg width="24" height="24" version="1.1" viewBox="0 0 24 24" xmlns="http://www.w3.org/2000/svg"><title>deepin-calculator</title><defs><linearGradient id="b" x1="11" x2="11" y2="18.524" gradientTransform="translate(1 2)" gradientUnits="userSpaceOnUse"><stop stop-color="#35C7FF" offset="0"/><stop stop-color="#00A7FF" offset="1"/></linearGradient><filter id="a" color-interpolation-filters="sRGB"><feFlood flood-color="#000" flood-opacity=".196" result="flood"/><feComposite in="flood" in2="SourceGraphic" operator="in" result="composite1"/><feGaussianBlur in="composite1" result="blur" stdDeviation=".5"/><feOffset dx="0" dy=".5" result="offset"/><feComposite in="SourceGraphic" in2="offset" result="composite2"/></filter></defs><g fill-rule="evenodd" filter="url(#a)"><path d="M3 2h18a1 1 0 0 1 1 1v18a1 1 0 0 1-1 1H3a1 1 0 0 1-1-1V3a1 1 0 0 1 1-1z" fill="url(#b)"/><path d="M6.714 17.086L5.3 18.5l.707.707 1.414-1.414 1.415 1.414.707-.707-1.415-1.414 1.415-1.414-.707-.708-1.415 1.415-1.414-1.415-.707.708zM3 3h9v9H3z" fill="#fff"/><path d="M8 7V5H7v2H5v1h2v2h1V8h2V7z" fill="#2abff9"/><path d="M14 7h5v1h-5z" fill="#fff"/><g><path fill="#fff" d="M12 12h9v9h-9z"/><path d="M14 15h5v1h-5zm0 2h5v1h-5z" fill="#2abff9"/></g></g></svg>