<svg width="24" height="24" version="1.1" viewBox="0 0 24 24" xmlns="http://www.w3.org/2000/svg"><title>deepin-font-installer</title><defs><filter id="a" color-interpolation-filters="sRGB"><feFlood flood-color="#000" flood-opacity=".196" result="flood"/><feComposite in="flood" in2="SourceGraphic" operator="in" result="composite1"/><feGaussianBlur in="composite1" result="blur" stdDeviation=".5"/><feOffset dx="0" dy=".5" result="offset"/><feComposite in="SourceGraphic" in2="offset" result="composite2"/></filter></defs><g fill-rule="evenodd" filter="url(#a)"><path d="M19 22H5s-1 0-1-1V3c0-1 1-1 1-1h10.005L20 7v14c0 1-1 1-1 1z" fill="#e5b400"/><path d="M13.658 13H10.02v-.444c.32-.02.586-.063.797-.125.211-.063.317-.14.317-.232a.944.944 0 0 0-.05-.281l-.726-1.989h-3.06c-.114.292-.207.546-.28.763-.071.217-.136.417-.193.6-.053.18-.09.326-.11.438-.021.113-.032.205-.032.276 0 .166.13.296.388.387.259.092.55.146.874.163V13H4.658v-.444a2.55 2.55 0 0 0 .4-.072c.16-.04.291-.093.394-.16.164-.112.291-.23.382-.353.09-.123.178-.293.264-.51.44-1.113.924-2.364 1.453-3.752L8.967 4h.493l2.911 7.655c.062.163.132.294.21.394.078.1.186.198.326.294.094.059.217.108.37.147.151.04.278.062.381.066zm-3.469-3.76L8.853 5.822 7.542 9.24zm9.515 3.491c-.195.07-.366.128-.513.172a1.753 1.753 0 0 1-.5.066c-.323 0-.581-.076-.774-.229-.193-.152-.316-.374-.37-.666h-.037c-.27.3-.558.53-.867.688-.309.159-.68.238-1.115.238-.46 0-.838-.142-1.135-.425-.296-.284-.444-.655-.444-1.114 0-.238.033-.45.1-.638.066-.188.165-.357.298-.507.103-.125.24-.237.41-.335.17-.098.33-.176.478-.234.187-.071.565-.202 1.135-.394s.954-.342 1.152-.45v-.62c0-.054-.01-.159-.034-.313s-.071-.3-.146-.438a1.243 1.243 0 0 0-.35-.403c-.152-.115-.367-.172-.644-.172-.19 0-.368.032-.531.097a.963.963 0 0 0-.345.203c0 .083.02.206.059.37s.059.312.059.45c0 .145-.066.279-.196.4-.13.12-.312.181-.544.181-.207 0-.36-.074-.457-.222a.885.885 0 0 1-.146-.497.89.89 0 0 1 .202-.55c.135-.176.31-.332.525-.47.187-.117.413-.216.678-.297.265-.081.524-.122.777-.122.348 0 .651.024.91.072.26.048.494.151.706.31.21.154.371.363.481.628.11.265.165.606.165 1.023 0 .597-.006 1.125-.019 1.586-.012.461-.018.965-.018 1.51 0 .164.028.293.083.389a.682.682 0 0 0 .258.244.63.63 0 0 0 .296.062c.134.005.272.007.413.007zm-2.17-3.28c-.351.104-.66.205-.925.305s-.512.224-.74.373c-.207.14-.37.307-.49.5s-.18.422-.18.687c0 .344.09.596.27.758a.99.99 0 0 0 .686.242c.294 0 .553-.071.777-.214a2.26 2.26 0 0 0 .566-.507z" fill="#fff"/><path d="M16 7s-1 0-1-1V2l5 5z" fill="#ffe587"/><rect x="3" y="9" width="18" height="13" rx=".5" fill="#d0dfed"/><g fill="#10acff"><path d="M10.235 16.896h-1.2v-.208c0-.07.064-.14.134-.14h1.002c.06 0 .13.07.13.14l-.001.139s0 .07-.065.07m.332.975c.068 0 .069-.064.069-.07v-.208c0-.07-.068-.07-.068-.07l-1.401-.002c-.135 0-.133-.136-.133-.136v-.142h1.334c.37 0 .333-.279.333-.279v-.276s.036-.491-.466-.491H9.112c-.511 0-.476.484-.476.484v.701c0 .49.467.487.467.487zM8.1 17.455s.001.068-.067.068h-.645c-.218 0-.486-.05-.486-.483 0-.432.297-.492.482-.492H8.1v.907m.334-1.885h-.266s-.067 0-.067.072v.556h-.864c-.627 0-.738.568-.737.838 0 .27.113.835.747.834l.921.001c.333 0 .333-.347.333-.347V15.64c0-.07-.067-.07-.067-.07M15.5 15.988h-.266a.068.068 0 0 1-.066-.07v-.278c0-.039.03-.07.066-.07h.267c.037 0 .067.031.067.07v.279c0 .038-.03.07-.067.07M15.5 17.872h-.266a.068.068 0 0 1-.066-.07v-1.535c0-.038.03-.07.066-.07h.267c.037 0 .067.032.067.07v1.535c0 .039-.03.07-.067.07M16.768 16.198h-1.067v1.603c0 .032.02.079.08.07h.233c.092.013.09-.07.09-.07l-.003-1.253h.666c.012 0 .27.004.27.347l-.002.908c0 .038.03.07.067.07h.266a.068.068 0 0 0 .067-.07v-.94c0-.386-.177-.664-.667-.665M13.434 16.614s0-.068.067-.068h.646c.218 0 .485.05.485.483 0 .432-.297.492-.482.492l-.715-.001v-.906m-.334 1.885h.266s.066 0 .066-.072v-.556h.864c.627 0 .738-.568.737-.838 0-.27-.112-.835-.747-.834l-.92-.001c-.333 0-.333.346-.333.346v1.885c0 .07.067.07.067.07M12.435 16.896h-1.2v-.208c0-.07.064-.14.134-.14h1.002c.06 0 .13.07.13.14l-.001.139s0 .07-.065.07m.332.975c.068 0 .069-.064.069-.07v-.208c0-.07-.068-.07-.068-.07l-1.401-.002c-.135 0-.133-.136-.133-.136v-.142h1.334c.37 0 .333-.279.333-.279v-.276s.036-.491-.466-.491h-1.123c-.511 0-.476.484-.476.484v.701c0 .49.467.487.467.487z"/></g><path d="M22.75 14H1.25a.5.5 0 0 1-.462-.692L3 8h18l2.211 5.308a.5.5 0 0 1-.461.692z" fill="#ccdcea"/><path fill="#fff" d="M22 13H2l2-5h16z"/></g></svg>