<svg width="24" height="24" version="1.1" viewBox="0 0 24 24" xmlns="http://www.w3.org/2000/svg" xmlns:xlink="http://www.w3.org/1999/xlink"><title>deepin-manual</title><defs><rect id="b" width="18" height="20" rx="1"/><filter id="a" x="-8.3%" y="-7.5%" width="116.7%" height="115%"><feOffset dx="0" dy="0" in="SourceAlpha" result="shadowOffsetOuter1"/><feGaussianBlur in="shadowOffsetOuter1" result="shadowBlurOuter1" stdDeviation=".5"/><feComposite in="shadowBlurOuter1" in2="SourceAlpha" operator="out" result="shadowBlurOuter1"/><feColorMatrix in="shadowBlurOuter1" values="0 0 0 0 0 0 0 0 0 0 0 0 0 0 0 0 0 0 0.15 0"/></filter><radialGradient id="c" cy="17.574%" r="96.089%" gradientTransform="matrix(0 .9 -1 0 .676 -.274)"><stop stop-color="#04A38C" offset="0"/><stop stop-color="#075661" offset="1"/></radialGradient><linearGradient id="d" x1="6.146%" x2="0%" y1="65.618%" y2="65.618%"><stop stop-color="#04A38C" stop-opacity="0" offset="0"/><stop stop-color="#075661" offset="1"/></linearGradient></defs><g transform="translate(3 2)" fill="none" fill-rule="evenodd"><use fill="#000" filter="url(#a)" xlink:href="#b"/><use fill="#000" fill-opacity=".1" fill-rule="evenodd" xlink:href="#b"/><rect width="18" height="20" rx="1" fill="url(#c)"/><rect width="18" height="20" rx="1" fill="url(#d)"/><path d="M1 17h15.987a1 1 0 0 0 1-1v-.5V19a1 1 0 0 1-1 1H1a1 1 0 0 1-1-1v-1a1 1 0 0 1 1-1z" fill="#034849"/><path d="M1 18H16.999v-1 1a1 1 0 0 1-1 1H1v-1z" fill="#D5FCF9"/><path d="M9.036 2.012L12 3v1H6V3l2.974-.992a.518.518 0 0 1-.474-.502c0-.28.241-.506.538-.506.298 0 .539.227.539.506 0 .28-.241.506-.539.506h-.002zM5.421 14h7.158c.09 0 .168.04.175.09l.246.82c.006.05-.066.09-.163.09H5.163c-.097 0-.17-.04-.163-.09l.246-.82c.007-.05.086-.09.175-.09zM7 5v1H6V5h1zm5 0v1h-1V5h1zm-2 0v1H8V5h2zM6 7h6v1H6V7zm0 6l.833-4h4.334L12 13H6z" fill="#fff"/><path d="M0 7V4l5 1v1L0 7zm13-2l5-1v3l-5-1V5z" fill="#fff" opacity=".3"/></g></svg>