<svg width="24" height="24" version="1.1" viewBox="0 0 24 24" xmlns="http://www.w3.org/2000/svg"><title>深度启动盘制作工具-24px</title><defs><filter id="a" color-interpolation-filters="sRGB"><feFlood flood-color="#000" flood-opacity=".196" result="flood"/><feComposite in="flood" in2="SourceGraphic" operator="in" result="composite1"/><feGaussianBlur in="composite1" result="blur" stdDeviation=".5"/><feOffset dx="0" dy=".5" result="offset"/><feComposite in="SourceGraphic" in2="offset" result="composite2"/></filter></defs><g fill-rule="evenodd" filter="url(#a)"><path d="M12.502 20.454c-2.265 2.265-6.292 1.91-8.557-.355-2.264-2.265-2.62-6.293-.355-8.557l4.098-4.1 8.913 8.913zm-7.464-1.448c-1.22-1.22-1.841-3.282-1.284-4.802l6.06 6.06c-1.52.558-3.56-.041-4.776-1.258z" fill="#f5b923"/><path d="M13.765 1.39a1.005 1.005 0 0 1 1.424.005l7.484 7.484a1.01 1.01 0 0 1 .005 1.424l-6.42 6.42-8.913-8.912z"/><path d="M15.188 2.82l.713.713-2.852 2.852-.713-.713zm5.348 5.347l.712.713-2.852 2.852-.713-.713zM16.613 4.96l.713.713-2.139 2.139-.713-.713zm1.782 1.782l.713.713-2.139 2.14-.713-.714zm-6.773 2.496l.713.713-.713.713-.713-.713zm2.495 2.495l.713.713-.713.713-.713-.713z" fill="#ffeb95"/></g></svg>