<svg width="24" height="24" version="1.1" viewBox="0 0 24 24" xmlns="http://www.w3.org/2000/svg"><title>软件包安装器-24px</title><defs><filter id="a" color-interpolation-filters="sRGB"><feFlood flood-color="#000" flood-opacity=".196" result="flood"/><feComposite in="flood" in2="SourceGraphic" operator="in" result="composite1"/><feGaussianBlur in="composite1" result="blur" stdDeviation=".5"/><feOffset dx="0" dy=".5" result="offset"/><feComposite in="SourceGraphic" in2="offset" result="composite2"/></filter></defs><g fill-rule="evenodd" filter="url(#a)"><path d="M18 19H6c-1 0-1-.9-1-.9V2.467c0-.27.21-.467.5-.467H15l4 4v12c0 1-1 1-1 1z" fill="#d70751"/><path d="M15.1 8.28c.01.27-.079.401-.159.633l-.144.072c-.119.23.011.145-.073.328-.185.164-.56.512-.68.544-.087-.002.06-.103.08-.143-.248.17-.199.254-.576.357l-.011-.024c-.93.438-2.223-.43-2.206-1.613-.01.075-.028.056-.049.086-.048-.609.281-1.22.837-1.47.543-.269 1.18-.159 1.568.204-.213-.28-.639-.577-1.142-.55-.494.009-.956.323-1.11.663-.253.16-.283.614-.393.698-.148 1.09.28 1.56 1.002 2.114.113.077.032.089.047.147a1.96 1.96 0 0 1-.64-.49c.095.14.199.277.333.384-.227-.076-.53-.549-.618-.568.39.7 1.584 1.226 2.21.965-.29.01-.658.005-.982-.115-.137-.07-.322-.215-.29-.242.854.318 1.734.24 2.472-.35.188-.147.393-.396.452-.4-.089.135.016.066-.053.184.187-.302-.081-.123.193-.52l.102.139c-.038-.25.31-.555.275-.951.08-.121.09.13.005.409.117-.309.03-.359.061-.614.032.086.076.177.098.268-.077-.3.078-.503.117-.677-.038-.017-.119.132-.137-.22.003-.154.043-.081.058-.119-.03-.017-.109-.135-.157-.36.035-.053.093.137.14.145-.03-.179-.083-.316-.085-.453-.138-.29-.049.039-.16-.124-.148-.46.121-.107.14-.315.223.323.35.824.409 1.032a4.227 4.227 0 0 0-.205-.736c.068.029-.11-.52.088-.157-.21-.776-.902-1.5-1.538-1.84.077.07.176.16.14.174-.316-.188-.26-.203-.306-.282-.257-.105-.274.008-.445 0-.486-.258-.58-.23-1.026-.392l.02.095c-.322-.107-.375.04-.722 0-.022-.016.111-.06.22-.075-.311.041-.296-.062-.6.011.074-.052.154-.087.234-.132-.254.015-.606.148-.498.027-.413.185-1.148.444-1.56.83l-.014-.086c-.189.227-.824.678-.875.972l-.05.012c-.098.166-.162.355-.24.526-.129.22-.189.084-.17.119-.253.513-.38.944-.488 1.297.078.116.002.696.031 1.16-.126 2.295 1.61 4.523 3.51 5.037.278.1.692.096 1.044.106-.415-.119-.469-.063-.874-.204-.292-.138-.355-.295-.562-.474l.082.145c-.406-.144-.236-.178-.566-.282l.087-.114c-.131-.01-.348-.222-.407-.34l-.144.007c-.173-.213-.265-.367-.258-.486l-.046.083c-.053-.09-.636-.8-.333-.635-.057-.05-.131-.083-.212-.23l.061-.07c-.145-.188-.268-.428-.258-.508.077.105.131.124.185.142-.368-.911-.389-.05-.667-.928l.059-.004c-.045-.069-.073-.142-.109-.215l.026-.255c-.265-.306-.074-1.3-.036-1.846.026-.222.221-.458.369-.829l-.09-.015c.172-.3.983-1.206 1.359-1.16.181-.228-.037 0-.072-.058.4-.414.525-.292.795-.367.29-.172-.25.068-.112-.065.503-.129.356-.292 1.012-.358.07.04-.16.061-.218.112.419-.205 1.326-.158 1.915.114.683.32 1.451 1.264 1.482 2.152l.034.01c-.017.352.054.76-.07 1.136l.084-.178" fill="#fff"/><path d="M15.5 6a.526.526 0 0 1-.5-.5V2l4 4z" fill="#ff5491"/><rect x="3" y="9" width="18" height="13" rx=".5" fill="#d0dfed"/><g fill="#10acff"><path d="M10.235 16.896h-1.2v-.208c0-.07.064-.14.134-.14h1.002c.06 0 .13.07.13.14l-.001.139s0 .07-.065.07m.332.975c.068 0 .069-.064.069-.07v-.208c0-.07-.068-.07-.068-.07l-1.401-.002c-.135 0-.133-.136-.133-.136v-.142h1.334c.37 0 .333-.279.333-.279v-.276s.036-.491-.466-.491H9.112c-.511 0-.476.484-.476.484v.701c0 .49.467.487.467.487zM8.1 17.455s.001.068-.067.068h-.645c-.218 0-.486-.05-.486-.483 0-.432.297-.492.482-.492H8.1v.907m.334-1.885h-.266s-.067 0-.067.072v.556h-.864c-.627 0-.738.568-.737.838 0 .27.113.835.747.834l.921.001c.333 0 .333-.347.333-.347V15.64c0-.07-.067-.07-.067-.07M15.5 15.988h-.266a.068.068 0 0 1-.066-.07v-.278c0-.039.03-.07.066-.07h.267c.037 0 .067.031.067.07v.279c0 .038-.03.07-.067.07M15.5 17.872h-.266a.068.068 0 0 1-.066-.07v-1.535c0-.038.03-.07.066-.07h.267c.037 0 .067.032.067.07v1.535c0 .039-.03.07-.067.07M16.768 16.198h-1.067v1.603c0 .032.02.079.08.07h.233c.092.013.09-.07.09-.07l-.003-1.253h.666c.012 0 .27.004.27.347l-.002.908c0 .038.03.07.067.07h.266a.068.068 0 0 0 .067-.07v-.94c0-.386-.177-.664-.667-.665M13.434 16.614s0-.068.067-.068h.646c.218 0 .485.05.485.483 0 .432-.297.492-.482.492l-.715-.001v-.906m-.334 1.885h.266s.066 0 .066-.072v-.556h.864c.627 0 .738-.568.737-.838 0-.27-.112-.835-.747-.834l-.92-.001c-.333 0-.333.346-.333.346v1.885c0 .07.067.07.067.07M12.435 16.896h-1.2v-.208c0-.07.064-.14.134-.14h1.002c.06 0 .13.07.13.14l-.001.139s0 .07-.065.07m.332.975c.068 0 .069-.064.069-.07v-.208c0-.07-.068-.07-.068-.07l-1.401-.002c-.135 0-.133-.136-.133-.136v-.142h1.334c.37 0 .333-.279.333-.279v-.276s.036-.491-.466-.491h-1.123c-.511 0-.476.484-.476.484v.701c0 .49.467.487.467.487z"/></g><path d="M22.75 14H1.25a.5.5 0 0 1-.462-.692L3 8h18l2.211 5.308a.5.5 0 0 1-.461.692z" fill="#ccdcea"/><path fill="#fff" d="M22 13H2l2-5h16z"/></g></svg>