<svg width="24" height="24" version="1.1" viewBox="0 0 24 24" xmlns="http://www.w3.org/2000/svg"><title>deepin-repair-tools</title><defs><linearGradient id="b" x1="10" x2="10" y1="18.482" y2="0" gradientTransform="translate(2 2)" gradientUnits="userSpaceOnUse"><stop stop-color="#8E8E8E" offset="0"/><stop stop-color="#AFAFAF" offset=".904"/><stop stop-color="#BEBEBE" offset=".905"/><stop stop-color="#C2C2C2" offset="1"/></linearGradient><filter id="a" color-interpolation-filters="sRGB"><feFlood flood-color="#000" flood-opacity=".196" result="flood"/><feComposite in="flood" in2="SourceGraphic" operator="in" result="composite1"/><feGaussianBlur in="composite1" result="blur" stdDeviation=".3"/><feOffset dx="0" dy=".3" result="offset"/><feComposite in="SourceGraphic" in2="offset" result="composite2"/></filter></defs><g filter="url(#a)"><path d="M2.154 3.377l.83-1.083A.75.75 0 0 1 3.578 2H20.42a.75.75 0 0 1 .596.294l.828 1.083c.1.131.155.291.155.456v17.755c0 .228-.174.412-.388.412H2.389C2.174 22 2 21.816 2 21.588V3.833a.75.75 0 0 1 .155-.456z" fill="url(#b)" fill-rule="evenodd"/><path d="M13.907 11.862l-.698-.674a.93.93 0 0 0-.28-.186 21.106 21.106 0 0 1-.129-.127l1.055-1.13a.968.968 0 0 0 .255-.79 1.888 1.888 0 0 1-.015-.325 1.882 1.882 0 0 1-.003-.048c-.057-1.045.776-1.938 1.86-1.992a2.002 2.002 0 0 1 1.457.519l-.937.173c-.538.1-.889.595-.784 1.107l.001.01c.105.512.626.847 1.164.747l1.11-.205c-.203.788-.92 1.39-1.806 1.436a2.005 2.005 0 0 1-.127.002 2.1 2.1 0 0 1-.267.01c-.3-.006-.588.114-.788.329zm-1.794 1.923l-2.685 2.877c.007.054.012.095.013.122.035.638-.472 1.181-1.133 1.215-.662.033-1.225-.456-1.26-1.094-.034-.638.474-1.181 1.134-1.214.029-.002.07-.002.126 0l2.85-3.056a.888.888 0 0 0 .15.236zm-3.406 2.63l-.64-.137-.452.46.189.599.64.137.451-.461zm4.125-4.873l4.91 4.742c.335.323.344.86.026 1.196-.098.088-.338.284-.338.284a.908.908 0 0 1-1.223-.113l-4.493-5.104a.39.39 0 0 1-.093-.202c-.135-.163-.657-.775-1.735-1.8-1.273-1.21-1.49-.6-1.725-.398-.235.2-.212.387-.212.387a.646.646 0 0 1-.195.343l-.375.303c-.035.017-.688-.656-.895-.88-.178-.19-.462-.574-.462-.574a.118.118 0 0 1 .009-.148s.347-.38.476-.388c.377-.022.552-.056.737-.328.185-.273.185-.487.288-.645.068-.104.64-.785 1.476-1.261 1.603-.914 2.846-.97 3.104-.954l1.207.08-.625.596a2.482 2.482 0 0 1-.189.056s-.763.163-1.368.588c-.605.425-.77 1.155-.308 2.014.272.504.449.678.82 1.085.434.475.82.855.987 1.016.072.016.14.05.196.104z" fill="#fff"/></g></svg>