<svg width="24" height="24" version="1.1" viewBox="0 0 24 24" xmlns="http://www.w3.org/2000/svg"><title>deepin-picker</title><defs><linearGradient id="b" x1="11" x2="11" y2="21.158" gradientTransform="translate(1 1)" gradientUnits="userSpaceOnUse"><stop stop-color="#2E2E2E" offset="0"/><stop stop-color="#121212" offset="1"/></linearGradient><linearGradient id="c" x1="5.173" x2="2.657" y1="2.621" y2="5.574" gradientTransform="scale(1.0036 .99641)" gradientUnits="userSpaceOnUse"><stop stop-color="#7366FF" offset="0"/><stop stop-color="#1696FF" offset="1"/></linearGradient><linearGradient id="d" x1="9.69" x2="6.273" y1="2.144" y2="2.144" gradientTransform="scale(1.0338 .96727)" gradientUnits="userSpaceOnUse"><stop stop-color="#8D47FF" offset="0"/><stop stop-color="#6671FF" offset="1"/></linearGradient><linearGradient id="e" x1=".799" x2="2.128" y1="10.282" y2="6.274" gradientTransform="scale(.97245 1.0283)" gradientUnits="userSpaceOnUse"><stop stop-color="#30CED6" offset="0"/><stop stop-color="#28BCE3" offset=".316"/><stop stop-color="#1696FF" offset="1"/></linearGradient><linearGradient id="f" x1="1.18" x2=".612" y1="15.798" y2="11.149" gradientTransform="scale(1.04 .96151)" gradientUnits="userSpaceOnUse"><stop stop-color="#7EE22C" offset="0"/><stop stop-color="#30D6B2" offset="1"/></linearGradient><linearGradient id="g" x1="5.704" x2="2.981" y1="18.205" y2="15.842" gradientTransform="scale(1.0418 .95991)" gradientUnits="userSpaceOnUse"><stop stop-color="#C1EA55" offset="0"/><stop stop-color="#74E126" offset="1"/></linearGradient><linearGradient id="h" x1="10.017" x2="6.733" y1="18.026" y2="18.026" gradientTransform="scale(1.0001 .99989)" gradientUnits="userSpaceOnUse"><stop stop-color="#FBEF4D" offset="0"/><stop stop-color="#B9EA56" offset="1"/></linearGradient><linearGradient id="i" x1="14.891" x2="11.53" y1="15.852" y2="17.064" gradientTransform="scale(.93275 1.0721)" gradientUnits="userSpaceOnUse"><stop stop-color="#FFD600" offset="0"/><stop stop-color="#FFED58" offset="1"/></linearGradient><linearGradient id="j" x1="17.111" x2="14.832" y1="14.646" y2="17.405" gradientTransform="scale(1.0011 .9989)" gradientUnits="userSpaceOnUse"><stop stop-color="#FFC134" offset="0"/><stop stop-color="#FBE04D" offset="1"/></linearGradient><linearGradient id="k" x1="17.077" x2="17.975" y1="15.594" y2="11.623" gradientTransform="scale(1.0721 .93276)" gradientUnits="userSpaceOnUse"><stop stop-color="#F5B543" offset="0"/><stop stop-color="#EF7640" offset="1"/></linearGradient><linearGradient id="l" x1="17.99" x2="17.308" y1="10.537" y2="7.224" gradientTransform="scale(1.0019 .99813)" gradientUnits="userSpaceOnUse"><stop stop-color="#EF7640" offset="0"/><stop stop-color="#FB563F" offset="1"/></linearGradient><linearGradient id="m" x1="18.237" x2="15.615" y1="6.115" y2="3.163" gradientTransform="scale(.95907 1.0427)" gradientUnits="userSpaceOnUse"><stop stop-color="#FB563F" offset="0"/><stop stop-color="#DA377B" offset="1"/></linearGradient><linearGradient id="n" x1="15.293" x2="11.071" y1="2.216" y2="1.684" gradientTransform="scale(.96035 1.0413)" gradientUnits="userSpaceOnUse"><stop stop-color="#DA377B" offset="0"/><stop stop-color="#894CEC" offset="1"/></linearGradient><filter id="a" color-interpolation-filters="sRGB"><feFlood flood-color="#000" flood-opacity=".196" result="flood"/><feComposite in="flood" in2="SourceGraphic" operator="in" result="composite1"/><feGaussianBlur in="composite1" result="blur" stdDeviation=".3"/><feOffset dx="0" dy=".3" result="offset"/><feComposite in="SourceGraphic" in2="offset" result="composite2"/></filter></defs><g filter="url(#a)"><g fill-rule="evenodd"><circle cx="12" cy="12" r="11" fill="url(#b)"/><path d="M4.628 1.564l1.87 3.078a6.434 6.434 0 0 0-1.884 1.9L1.485 4.754a10.05 10.05 0 0 1 3.143-3.19z" fill="url(#c)" transform="translate(2 2)"/><path d="M5.585 1.025A9.96 9.96 0 0 1 10 0h.018v3.6H10c-.923 0-1.8.195-2.593.547z" fill="url(#d)" transform="translate(2 2)"/><path d="M.997 5.642l3.141 1.785a6.378 6.378 0 0 0-.538 2.59H0V10a9.96 9.96 0 0 1 .997-4.358z" fill="url(#e)" transform="translate(2 2)"/><path d="M.05 11.018h3.63a6.36 6.36 0 0 0 .883 2.36l-3.138 1.813A10.035 10.035 0 0 1 .05 11.018z" fill="url(#f)" transform="translate(2 2)"/><path d="M1.982 16.023l3.179-1.835a6.426 6.426 0 0 0 1.82 1.456l-1.819 3.15a9.897 9.897 0 0 1-3.18-2.77z" fill="url(#g)" transform="translate(2 2)"/><path d="M6.065 19.23l1.837-3.182a6.39 6.39 0 0 0 2.116.352V20h-.113a9.865 9.865 0 0 1-3.84-.77z" fill="url(#h)" transform="translate(2 2)"/><path d="M11.018 19.939v-3.62a6.355 6.355 0 0 0 1.91-.627l1.785 3.091a10.08 10.08 0 0 1-3.695 1.156z" fill="url(#i)" transform="translate(2 2)"/><path d="M15.568 18.264l-1.789-3.099c.53-.388.999-.856 1.387-1.387l3.109 1.795a10.183 10.183 0 0 1-2.707 2.691z" fill="url(#j)" transform="translate(2 2)"/><path d="M18.797 14.72l-3.104-1.792c.304-.59.519-1.232.627-1.91h3.628a9.83 9.83 0 0 1-1.15 3.702z" fill="url(#k)" transform="translate(2 2)"/><path d="M20 10.018h-3.6V10c0-.735-.124-1.44-.352-2.098l3.155-1.821a9.968 9.968 0 0 1 .797 3.92v.017z" fill="url(#l)" transform="translate(2 2)"/><path d="M18.764 5.18l-3.12 1.8a6.428 6.428 0 0 0-1.455-1.82l1.82-3.154c1.128.85 2.07 1.93 2.755 3.174z" fill="url(#m)" transform="translate(2 2)"/><path d="M15.179 1.444l-1.8 3.12a6.36 6.36 0 0 0-2.361-.884V.051a9.937 9.937 0 0 1 4.161 1.393z" fill="url(#n)" transform="translate(2 2)"/><path d="M5.898 18.122c4.597-2.19 7.228-3.617 7.893-4.282a2.554 2.554 0 0 0-3.611-3.611c-.665.665-2.092 3.296-4.282 7.893z" fill="#fff"/></g><path d="M12 13.375a1.375 1.375 0 1 0 0-2.75 1.375 1.375 0 0 0 0 2.75z" fill="#7bd938"/></g></svg>