<svg width="24" height="24" version="1.1" viewBox="0 0 24 24" xmlns="http://www.w3.org/2000/svg"><title>deepin-music</title><defs><linearGradient id="b" x1="-9.795%" x2="108.4%" y1="70.538%" y2="69.925%"><stop stop-color="#3B6209" offset="0"/><stop stop-color="#112400" offset=".508"/><stop stop-color="#0E2700" offset=".824"/><stop stop-color="#0D2500" offset="1"/></linearGradient><filter id="a" color-interpolation-filters="sRGB"><feFlood flood-color="#000" flood-opacity=".196" result="flood"/><feComposite in="flood" in2="SourceGraphic" operator="in" result="composite1"/><feGaussianBlur in="composite1" result="blur" stdDeviation=".3"/><feOffset dx="0" dy=".3" result="offset"/><feComposite in="SourceGraphic" in2="offset" result="composite2"/></filter></defs><g fill="none" fill-rule="evenodd" filter="url(#a)"><path d="M7 12a8 8 0 1 0 16 0 8 8 0 0 0-16 0z" fill="#478500"/><path transform="rotate(90 15 12)" d="M15 19a7 7 0 1 0 0-14 7 7 0 0 0 0 14z" fill="url(#b)"/><circle transform="rotate(90 15 12)" cx="15" cy="12" r="4" fill="#000"/><circle transform="rotate(90 15 12)" cx="15" cy="12" r="3" fill="#478500"/><path d="M14.502 3c.275 0 .498.228.498.5v17c0 .276-.22.5-.498.5H1.499A.502.502 0 0 1 1 20.5v-17c0-.276.22-.5.499-.5h13.003z" fill="#92DC00"/><path d="M8.992 8.25s0-.25.246-.25.252.25.252.25-.016.652 1.252 1.5c.232.152 2.498 1.5 1.39 3.96 0 0-.06.127-.193.074-.105-.042-.07-.176-.07-.176S12.74 11 9.49 10.25c0 0 .006 3.54.003 4.508.003.742-.493 1.421-1.385 1.66-.947.254-1.874-.135-2.07-.869-.197-.733.412-1.533 1.358-1.787.6-.161 1.193-.064 1.597.216V8.25z" fill="#fff"/></g></svg>