<svg width="24" height="24" version="1.1" viewBox="0 0 24 24" xmlns="http://www.w3.org/2000/svg"><title>深度用户反馈-24px</title><defs><filter id="a" color-interpolation-filters="sRGB"><feFlood flood-color="#000" flood-opacity=".196" result="flood"/><feComposite in="flood" in2="SourceGraphic" operator="in" result="composite1"/><feGaussianBlur in="composite1" result="blur" stdDeviation=".5"/><feOffset dx="0" dy=".5" result="offset"/><feComposite in="SourceGraphic" in2="offset" result="composite2"/></filter></defs><g fill-rule="evenodd" filter="url(#a)"><path d="M12 21c5.8 0 10.5-3.977 10.5-9.5S17.8 2 12 2 1.5 5.977 1.5 11.5c0 3.024 1.41 5.585 3.637 7.283.133.102-.17 2.091-1.033 2.749-.212.162-.075.494.19.466 1.016-.106 2.508-.487 3.542-1.734C9.112 20.74 10.52 21 12 21z" fill="#57c93f"/><g fill="#fff"><rect x="6.5" y="8" width="11" height="1" rx=".5"/><rect x="6.5" y="11" width="11" height="1" rx=".5"/><rect x="6.5" y="14" width="11" height="1" rx=".5"/></g></g></svg>