<svg width="24" height="24" version="1.1" viewBox="0 0 24 24" xmlns="http://www.w3.org/2000/svg"><title>深度云扫描-24px</title><defs><filter id="a" color-interpolation-filters="sRGB"><feFlood flood-color="#000" flood-opacity=".196" result="flood"/><feComposite in="flood" in2="SourceGraphic" operator="in" result="composite1"/><feGaussianBlur in="composite1" result="blur" stdDeviation=".5"/><feOffset dx="0" dy=".5" result="offset"/><feComposite in="SourceGraphic" in2="offset" result="composite2"/></filter></defs><g fill-rule="evenodd" filter="url(#a)"><path d="M22.997 11.435c0-2.072-1.363-3.818-3.227-4.373-.535-2.134-2.436-3.714-4.704-3.714-.66 0-1.288.135-1.862.376a5.338 5.338 0 0 0-3.927-1.728c-2.952 0-5.347 2.408-5.393 5.393a4.429 4.429 0 0 0-2.888 4.168c0 2.436 1.935 4.411 4.329 4.433v.006h13.317v-.008c2.417-.074 4.355-2.082 4.355-4.553z" fill="#e7f4ff"/><circle cx="20.747" cy="11.755" r=".75" fill="#0fb8ff"/><path d="M5 9.494C5 9.22 5.22 9 5.498 9h13.003c.275 0 .499.226.499.494v12.013c0 .272-.22.493-.499.493H5.498A.499.499 0 0 1 5 21.507z" fill="#acdcfc"/><path fill="#0070ff" d="M6 10h12v11H6z"/><path fill="#fff" opacity=".5" d="M9 12h6v7H9z"/><path fill="#fff" d="M7 16v1H6v-3h1v1h10v-1h1v3h-1v-1z"/></g></svg>