<svg width="24" height="24" version="1.1" viewBox="0 0 24 24" xmlns="http://www.w3.org/2000/svg"><title>深度截图-24px</title><defs><filter id="a" color-interpolation-filters="sRGB"><feFlood flood-color="#000" flood-opacity=".196" result="flood"/><feComposite in="flood" in2="SourceGraphic" operator="in" result="composite1"/><feGaussianBlur in="composite1" result="blur" stdDeviation=".3"/><feOffset dx="0" dy=".3" result="offset"/><feComposite in="SourceGraphic" in2="offset" result="composite2"/></filter></defs><g fill-rule="evenodd" filter="url(#a)"><path d="M4.717 2.573a.503.503 0 0 1 .62-.35l17.371 4.655a.5.5 0 0 1 .362.612L19.316 21.5a.503.503 0 0 1-.62.35l-17.37-4.655a.5.5 0 0 1-.363-.613z" fill="#a6dbff"/><path d="M22 19.501c0 .276-.225.5-.494.5H2.495A.497.497 0 0 1 2 19.5V5.499c0-.276.225-.5.495-.5h19.01c.274 0 .495.225.495.5z" fill="#ea004e"/><path d="M22.024 4.503A.5.5 0 0 0 21.529 4H2.495A.492.492 0 0 0 2 4.497V13.5c5 3.25 9.66-1.007 10.661-3.236 1.128.756 3.754.339 4.885-1.094.696 1.852 3.135 3.34 4.478 3.268z" fill="#ff0056"/><path d="M16.012 9.5c0-.276-.228-.532-.504-.5H9.012V7.5a.5.5 0 0 0-1 0V9H6.508c-.276-.033-.5.224-.5.5s.224.5.5.5h1.504v4.5a.5.5 0 0 0 .5.5h6.5l-.004 1.5a.5.5 0 0 0 1 0l.004-1.5h1.496c.276 0 .492-.224.492-.5s-.216-.5-.492-.5h-1.496zm-7.004.5H15v4H9.008z" fill="#fff"/></g></svg>