<svg width="24" height="24" version="1.1" viewBox="0 0 24 24" xmlns="http://www.w3.org/2000/svg"><title>deepin-note</title><defs><linearGradient id="b" x1="4.899" x2="4.899" y1="50.215" y2="53.889" gradientTransform="scale(2.4495 .40825)" gradientUnits="userSpaceOnUse"><stop stop-color="#CCA46B" offset="0"/><stop stop-color="#D7B672" offset="1"/></linearGradient><linearGradient id="c" x1="10.721" x2="10.721" y1="2.555" y2="10.777" gradientTransform="scale(1.0094 .99069)" gradientUnits="userSpaceOnUse"><stop stop-color="#3E2409" offset="0"/><stop stop-color="#765720" offset="1"/></linearGradient><linearGradient id="d" x1="15.376" x2=".081" y1="1.122" y2="16.417" gradientTransform="scale(.97817 1.0223)" gradientUnits="userSpaceOnUse"><stop stop-color="#241400" offset="0"/><stop stop-color="#53402E" offset="1"/></linearGradient><filter id="a" color-interpolation-filters="sRGB"><feFlood flood-color="#000" flood-opacity=".196" result="flood"/><feComposite in="flood" in2="SourceGraphic" operator="in" result="composite1"/><feGaussianBlur in="composite1" result="blur" stdDeviation=".3"/><feOffset dx="0" dy=".3" result="offset"/><feComposite in="SourceGraphic" in2="offset" result="composite2"/></filter></defs><g fill-rule="evenodd" filter="url(#a)"><path d="M3 19h18v2.5a.5.5 0 0 1-.5.5h-17a.5.5 0 0 1-.5-.5z" fill="url(#b)"/><path d="M3.5 2h17a.5.5 0 0 1 .5.5V20c-1.062.639-2.325.972-3.79 1H3.5a.5.5 0 0 1-.5-.5v-18a.5.5 0 0 1 .5-.5z" fill="#fbe9a9"/><path d="M4.5 4h1v1h-1zm2 0h3v1h-3zm4 0h2v1h-2zm3 0h3v1h-3zm-9 2h2v1h-2zm2 0h2v1h-2zm3 0h3v1h-3zm-5 2h2v1h-2zm3 0h1v1h-1zm3 0h2v1h-2zm8 2h1v1h-1zm-14 0h5v1h-5zm0 2h3v1h-3zm12 0h3v1h-3zm-12 2h2v1h-2zm0 2h1v1h-1zm11-2h2v1h-2zm3 0h1v1h-1zm-6 2h4v1h-4zm6 0h1v1h-1zm-14 2h1v1h-1zm4 0h7v1h-7zm9 0h2v1h-2z" fill="#eccf87"/><path d="M2.884 12.887c-.001-.981.075-1.686.229-2.114-.003.192.076.394.237.608.241.32.202-2.437 1.213-3.167.01.864.128 1.41.353 1.637.337.341-.649-1.42.512-2.493s5.95-6.371 8.84-6.932c2.89-.561 2.226-.506 1.94-.189s.307 1.544-.41 2.356c-.715.812-1.385.812-1.385.812l.59.176c-.611 1.774-1.937 3.481-3.978 5.121-1.007 1.02-2.286 1.404-3.837 1.152.847.447 1.461.652 1.844.613-.316.632-.73 1.126-1.239 1.48-1.159.011-1.84-.017-2.04-.083.79.235 1.348.34 1.675.318.49-.035-1.701 1.189-2.283 1.164-.388-.016-1.141-.17-2.26-.459z" fill="url(#c)" transform="translate(6.018 1)"/><path d="M.079 16.726C2.521 11.888 7.508 6.695 15.04 1.147 7.88 7.071 3.612 11.391 2.235 14.106c-.526 1.037-1.071 2.136-1.29 2.305-.446.345-.735.45-.866.315z" fill="url(#d)" transform="translate(6.018 1)"/></g></svg>