<svg width="24" height="24" version="1.1" viewBox="0 0 24 24" xmlns="http://www.w3.org/2000/svg" xmlns:xlink="http://www.w3.org/1999/xlink"><title>deepin-draw</title><defs><linearGradient id="b" x1="12" x2="12" y1=".5" y2="23.072" gradientUnits="userSpaceOnUse"><stop stop-color="#fff" offset="0"/><stop stop-color="#EDEDED" offset="1"/></linearGradient><linearGradient id="c" x1="4.202" x2=".61" y1="0" y2="6.234" gradientTransform="scale(.7713 1.2965)" gradientUnits="userSpaceOnUse"><stop stop-color="#1B90FF" offset="0"/><stop stop-color="#53A0FD" offset=".475"/><stop stop-color="#68FFAD" offset="1"/></linearGradient><linearGradient id="d" x1="4.903" x2="7.503" y1=".117" y2="4.859" gradientTransform="scale(.72523 1.3789)" gradientUnits="userSpaceOnUse"><stop stop-color="#A197FF" offset="0"/><stop stop-color="#60FFA4" offset="1"/></linearGradient><linearGradient id="e" x1="6.699" x2="1.133" y1="1.912" y2="6.589" gradientTransform="scale(.75624 1.3223)" gradientUnits="userSpaceOnUse"><stop stop-color="#DD61FA" offset="0"/><stop stop-color="#FFDC5A" offset="1"/></linearGradient><linearGradient id="f" x1="5.475" x2=".871" y1="5.569" y2="8.635" gradientTransform="scale(.99928 1.0007)" gradientUnits="userSpaceOnUse"><stop stop-color="#FA6196" offset="0"/><stop stop-color="#FFD849" offset="1"/></linearGradient><linearGradient id="g" x1="2.997" x2=".625" y1="13.163" y2="14.451" gradientTransform="scale(1.6274 .6145)" gradientUnits="userSpaceOnUse"><stop stop-color="#FF9532" offset="0"/><stop stop-color="#FFFF46" offset="1"/></linearGradient><linearGradient id="h" x1="5.06" x2="11.127" y1="6.148" y2="6.148" gradientTransform="scale(.57356 1.7435)" gradientUnits="userSpaceOnUse"><stop stop-color="#fff" offset="0"/><stop stop-color="#EDEDED" offset="1"/></linearGradient><linearGradient id="j" x1=".312" x2="11.208" y1="6.148" y2="6.148" gradientTransform="scale(.57356 1.7435)" gradientUnits="userSpaceOnUse"><stop stop-color="#828282" offset="0"/><stop stop-color="#353535" offset="1"/></linearGradient><path id="i" d="M4 2.5h1.5V8H4V2.5zm-.286 5.99l1.87-.005a.5.5 0 0 1 .483.366l.343 1.234a.5.5 0 0 1-.482.633H3.402a.5.5 0 0 1-.484-.623l.313-1.228a.5.5 0 0 1 .483-.377zM4 2V.5a.5.5 0 0 1 .5-.5H5a.5.5 0 0 1 .5.5V2H4z"/><filter id="a" color-interpolation-filters="sRGB"><feFlood flood-color="#000" flood-opacity=".196" result="flood"/><feComposite in="flood" in2="SourceGraphic" operator="in" result="composite1"/><feGaussianBlur in="composite1" result="blur" stdDeviation=".5"/><feOffset dx="0" dy=".5" result="offset"/><feComposite in="SourceGraphic" in2="offset" result="composite2"/></filter></defs><g fill-rule="evenodd" filter="url(#a)"><path d="M12 23C5.925 23 1 18.075 1 12S5.925 1 12 1c1.443 0 .85 2.931 2.601 2.91 1.924-.022 3.782.22 5.946 2.045C22.19 7.34 23 10.002 23 12c0 6.075-4.925 11-11 11zM9.25 7.232c.837.483 1.963.1 2.515-.857.553-.957.322-2.124-.515-2.607-.837-.483-1.963-.1-2.516.857-.552.956-.321 2.124.516 2.607z" fill="url(#b)" stroke="#d0d0d0"/><g transform="rotate(27 8.614 27.47)" fill="none"><path d="M.776 8.69C.156 8.017-.2 6.53.33 5.24c.935-2.276 4.018-3.549 2.015-5.24C6.43 1.08 6.249 7.194 4.347 8.763a2.804 2.804 0 0 1-1.21.605z" fill="url(#c)" transform="scale(1 -1) rotate(-15 -73.672 -11.187)"/><path d="M2.882.18c3.529 1.453 3.28 7.086 1.466 8.582a2.804 2.804 0 0 1-1.211.605L.852 8.713a4.399 4.399 0 0 1 .119-1.87C1.824 3.931 5.438 1.974 2.766.16l.116.019z" fill="url(#d)" transform="scale(1 -1) rotate(-15 -73.672 -11.187)"/><path d="M4.141 1.007c2.17 2.114 1.768 6.467.206 7.755a2.804 2.804 0 0 1-1.21.605l-2.28-.653c.028-.555.16-1.127.423-1.66C2.58 4.427 6.35 3.17 4.11.996l.032.01z" fill="url(#e)" transform="scale(1 -1) rotate(-15 -73.672 -11.187)"/><path d="M5.628 4.587c.117 1.732-.396 3.446-1.28 4.175a2.804 2.804 0 0 1-1.211.605L.87 8.717c.155-.385.374-.758.664-1.087 1.268-1.441 3.494-1.956 4.093-3.043z" fill="url(#f)" transform="scale(1 -1) rotate(-15 -73.672 -11.187)"/><path d="M5.047 7.846c-.194.379-.43.693-.7.916a2.804 2.804 0 0 1-1.21.605l-2.12-.607c.075-.043.152-.083.23-.119 1.306-.6 2.964-.322 3.8-.795z" fill="url(#g)" transform="scale(1 -1) rotate(-15 -73.672 -11.187)"/><use width="100%" height="100%" fill="url(#h)" xlink:href="#i"/><use width="100%" height="100%" fill="url(#j)" xlink:href="#i"/></g></g></svg>