<svg width="24" height="24" version="1.1" viewBox="0 0 24 24" xmlns="http://www.w3.org/2000/svg"><title>deepin-screen-recorder</title><defs><linearGradient id="b" x1="11.225" x2="11.225" y1="3.742" y2="22.45" gradientTransform="matrix(1.069 0 0 .93541 -1.346 1.187)" gradientUnits="userSpaceOnUse"><stop stop-color="#FF7C44" offset="0"/><stop stop-color="#FF4E5A" offset="1"/></linearGradient><filter id="a" color-interpolation-filters="sRGB"><feFlood flood-color="#000" flood-opacity=".196" result="flood"/><feComposite in="flood" in2="SourceGraphic" operator="in" result="composite1"/><feGaussianBlur in="composite1" result="blur" stdDeviation=".3"/><feOffset dx="0" dy=".3" result="offset"/><feComposite in="SourceGraphic" in2="offset" result="composite2"/></filter></defs><g fill-rule="evenodd" filter="url(#a)"><rect transform="rotate(-6)" x=".654" y="4.687" width="20" height="17.5" rx=".5" fill="url(#b)"/><g fill="#fff"><path d="M13.827 10.503l2.866-1.797c.23-.144.44-.046.47.235l.593 5.47c.03.274-.15.425-.41.334l-3.191-1.125.069.657c.058.55-.35 1.044-.898 1.102l-6.448.677a1.004 1.004 0 0 1-1.108-.89l-.47-4.473c-.058-.55.35-1.043.898-1.101l6.448-.678a1.004 1.004 0 0 1 1.108.89zm0 0l-2.65 1.66c-.233.147-.209.335.047.425l2.93 1.032z"/><path opacity=".3" d="M16.188 9.045l5.182-3.31 1.15 10.94-5.757-2.16z"/><circle cx="19.25" cy="4.75" r=".75"/></g></g></svg>