<svg width="24" height="24" version="1.1" viewBox="0 0 24 24" xmlns="http://www.w3.org/2000/svg"><title>深度商店-24px</title><defs><filter id="a" color-interpolation-filters="sRGB"><feFlood flood-color="#000" flood-opacity=".196" result="flood"/><feComposite in="flood" in2="SourceGraphic" operator="in" result="composite1"/><feGaussianBlur in="composite1" result="blur" stdDeviation=".5"/><feOffset dx="0" dy=".5" result="offset"/><feComposite in="SourceGraphic" in2="offset" result="composite2"/></filter></defs><g fill="none" fill-rule="evenodd" filter="url(#a)"><path d="M3 21.5V8h18v13.5s0 .5-.5.5H3.536S3 22 3 21.5z" fill="#FFA737"/><path d="M13 8v14h-2V8h2zm6 0v14h-3V8h3zM8 8v14H5V8h3z" fill="#FF7300"/><path d="M3 4.498C3 4.223 3.228 4 3.5 4h17c.276 0 .5.215.5.498V9H3V4.498z" fill="#EFEFEF"/><path d="M7 8a1 1 0 1 1 0-2 1 1 0 0 1 0 2zm10 0a1 1 0 1 1 0-2 1 1 0 0 1 0 2z" fill="#785C46"/><path d="M17 7c0 3.314-1 6.5-5 6.5S7 10.314 7 7" stroke="#fff" stroke-linecap="round" stroke-linejoin="round"/></g></svg>