<svg width="24" height="24" version="1.1" viewBox="0 0 24 24" xmlns="http://www.w3.org/2000/svg"><title>deepin-movie</title><defs><linearGradient id="b" x1="21.182" x2="4.927" y1="2.872" y2="20.357" gradientTransform="scale(1.0247 .9759)" gradientUnits="userSpaceOnUse"><stop stop-color="#0BA2FF" offset="0"/><stop stop-color="#0067FF" offset="1"/></linearGradient><linearGradient id="c" x1="12.133" x2="1.998" y1="7.053" y2="7.726" gradientTransform="matrix(.62484 .02182 -.05582 1.5985 .422 -.154)" gradientUnits="userSpaceOnUse"><stop stop-color="#2BB8FF" offset="0"/><stop stop-color="#537CFF" offset="1"/></linearGradient><linearGradient id="d" x1="13.032" x2="13.032" y1="8.161" y2="13.852" gradientTransform="scale(.9571 1.0448)" gradientUnits="userSpaceOnUse"><stop stop-color="#fff" offset="0"/><stop stop-color="#EFFAFD" offset="1"/></linearGradient><filter id="a" color-interpolation-filters="sRGB"><feFlood flood-color="#000" flood-opacity=".196" result="flood"/><feComposite in="flood" in2="SourceGraphic" operator="in" result="composite1"/><feGaussianBlur in="composite1" result="blur" stdDeviation=".3"/><feOffset dx="0" dy=".3" result="offset"/><feComposite in="SourceGraphic" in2="offset" result="composite2"/></filter></defs><g fill-rule="evenodd" filter="url(#a)"><path d="M22.375 2H2l2 20h18.375c.345 0 .625-.28.625-.625V2.625A.625.625 0 0 0 22.375 2zm-1.42 4H19V4h1.954zm-4 0H15V4h1.954zm-4 0H11V4h1.954zm-4 0H7V4h1.954zm12 14H19v-2h1.954zm-4 0H15v-2h1.954zm-4 0H11v-2h1.954z" fill="url(#b)"/><path d="M7.813 22.618l-5.75-.2c-.139-.011-.547-.02-.526-.602L.845 2.437c-.005-.134.015-.43.565-.518l2.753-.441c.547.019.52.393.528.556.08 1.663.47 8.807.583 10.782.153 2.692 1.657 3.457 2.375 3.482.41.014.39.35.394.468l.33 5.271c-.02.56-.56.58-.56.58z" fill="url(#c)"/><path d="M9.75 14.223V8.778a.25.25 0 0 1 .37-.22l4.947 2.723a.25.25 0 0 1 0 .438l-4.946 2.723a.25.25 0 0 1-.371-.219z" fill="url(#d)"/></g></svg>