<svg width="24" height="24" version="1.1" viewBox="0 0 24 24" xmlns="http://www.w3.org/2000/svg"><title>ISO安装器-24px</title><defs><filter id="a" color-interpolation-filters="sRGB"><feFlood flood-color="#000" flood-opacity=".196" result="flood"/><feComposite in="flood" in2="SourceGraphic" operator="in" result="composite1"/><feGaussianBlur in="composite1" result="blur" stdDeviation=".5"/><feOffset dx="0" dy=".5" result="offset"/><feComposite in="SourceGraphic" in2="offset" result="composite2"/></filter></defs><g fill-rule="evenodd" filter="url(#a)"><path d="M14.246 1.324a7.998 7.998 0 1 0-4.491 15.352 7.998 7.998 0 0 0 4.491-15.352z" fill="#fff"/><path d="M14.394 2.406a6.928 6.928 0 0 0-3.037-.373c-1.159.091-1.725.45-1.691.385-1.897.677-3.5 2.133-4.242 4.175-1.322 3.637.55 7.658 4.181 8.982a6.995 6.995 0 0 0 8.97-4.187 7.01 7.01 0 0 0-4.181-8.982zm-4.55 12.512a6.28 6.28 0 0 1-1.088-.527c1.691.13 3.9-.26 5.388-1.654 0 0 2.839-2.268.786-5.99 0 0 .33 1.5-.091 2.734 0 0-.403 1.678-2.192 2.166-2.635.718-5.637-1.127-6.892-2.02a6.25 6.25 0 0 1 .326-2.794c.499-1.372 1.437-2.442 2.583-3.161-.287 2.004-.06 3.85.265 4.623.437 1.036 1.197 2.245 2.678 2.4 1.482.156 2.299-1.23 2.299-1.23.76-1.156.879-2.814.867-2.854-.011-.04-.202-.15-.202-.15-.512 2.07-1.355 2.761-1.355 2.761-1.33 1.284-2.272.394-2.272.394C9.93 8.528 10.64 6.76 10.64 6.76c.397-1.204 1.552-2.966 2.862-3.862.218.054.437.087.653.166a6.248 6.248 0 0 1 2.073 1.26c-.958.349-2.503 1.088-2.503 1.088-2.451 1.032-2.616 2.593-2.616 2.593-.254 1.609 1.023.928 1.023.928 1.314-.64 1.959-2.635 1.959-2.635-.41-.078-.733.047-.733.047-.524 1.294-1.594 1.827-1.594 1.827-.421.223-.52-.171-.52-.171-.07-.295.305-.346.305-.346.583-.226.956-.839 1.04-1.09.085-.25.241-.27.241-.27.799-.255 1.528-.312 1.528-.312.992-.122 2.51.351 2.51.351.34.137.667.24.957.322.557 1.39.645 2.974.093 4.492a6.296 6.296 0 0 1-8.073 3.769z" fill="#00b7ff" opacity=".8"/><rect x="3" y="9" width="18" height="13" rx=".5" fill="#d69a4e"/><g fill="#b08043"><path d="M10.235 16.896h-1.2v-.208c0-.07.064-.14.134-.14h1.002c.06 0 .13.07.13.14l-.001.139s0 .07-.065.07m.332.975c.068 0 .069-.064.069-.07v-.208c0-.07-.068-.07-.068-.07l-1.401-.002c-.135 0-.133-.136-.133-.136v-.142h1.334c.37 0 .333-.279.333-.279v-.276s.036-.491-.466-.491H9.112c-.511 0-.476.484-.476.484v.701c0 .49.467.487.467.487zM8.1 17.455s.001.068-.067.068h-.645c-.218 0-.486-.05-.486-.483 0-.432.297-.492.482-.492H8.1v.907m.334-1.885h-.266s-.067 0-.067.072v.556h-.864c-.627 0-.738.568-.737.838 0 .27.113.835.747.834l.921.001c.333 0 .333-.347.333-.347V15.64c0-.07-.067-.07-.067-.07M15.5 15.988h-.266a.068.068 0 0 1-.066-.07v-.278c0-.039.03-.07.066-.07h.267c.037 0 .067.031.067.07v.279c0 .038-.03.07-.067.07M15.5 17.872h-.266a.068.068 0 0 1-.066-.07v-1.535c0-.038.03-.07.066-.07h.267c.037 0 .067.032.067.07v1.535c0 .039-.03.07-.067.07M16.768 16.198h-1.067v1.603c0 .032.02.079.08.07h.233c.092.013.09-.07.09-.07l-.003-1.253h.666c.012 0 .27.004.27.347l-.002.908c0 .038.03.07.067.07h.266a.068.068 0 0 0 .067-.07v-.94c0-.386-.177-.664-.667-.665M13.434 16.614s0-.068.067-.068h.646c.218 0 .485.05.485.483 0 .432-.297.492-.482.492l-.715-.001v-.906m-.334 1.885h.266s.066 0 .066-.072v-.556h.864c.627 0 .738-.568.737-.838 0-.27-.112-.835-.747-.834l-.92-.001c-.333 0-.333.346-.333.346v1.885c0 .07.067.07.067.07M12.435 16.896h-1.2v-.208c0-.07.064-.14.134-.14h1.002c.06 0 .13.07.13.14l-.001.139s0 .07-.065.07m.332.975c.068 0 .069-.064.069-.07v-.208c0-.07-.068-.07-.068-.07l-1.401-.002c-.135 0-.133-.136-.133-.136v-.142h1.334c.37 0 .333-.279.333-.279v-.276s.036-.491-.466-.491h-1.123c-.511 0-.476.484-.476.484v.701c0 .49.467.487.467.487z"/></g><path d="M22.782 12.552c.11.247-.018.448-.301.448H1.477c-.277 0-.41-.205-.302-.448l1.602-3.604c.11-.247.426-.448.699-.448h17c.276 0 .591.205.7.448z" fill="#ffcd6f"/></g></svg>