<svg width="24" height="24" version="1.1" viewBox="0 0 24 24" xmlns="http://www.w3.org/2000/svg"><title>deepin-editor</title><defs><linearGradient id="b" x1="11.65" x2="18.545" y1=".953" y2="21.584" gradientTransform="scale(.95346 1.0488)" gradientUnits="userSpaceOnUse"><stop stop-color="#2EA3D5" offset="0"/><stop stop-color="#6FAAF2" offset="1"/></linearGradient><linearGradient id="c" x1="12.896" x2="12.896" y1="1.939" y2="21.541" gradientTransform="scale(.96928 1.0317)" gradientUnits="userSpaceOnUse"><stop stop-color="#3FA5DD" offset="0"/><stop stop-color="#61A9EC" offset="1"/></linearGradient><filter id="a" color-interpolation-filters="sRGB"><feFlood flood-color="#000" flood-opacity=".196" result="flood"/><feComposite in="flood" in2="SourceGraphic" operator="in" result="composite1"/><feGaussianBlur in="composite1" result="blur" stdDeviation=".5"/><feOffset dx="0" dy=".5" result="offset"/><feComposite in="SourceGraphic" in2="offset" result="composite2"/></filter></defs><g filter="url(#a)"><rect x="2" y="1" width="20" height="22" rx=".75" fill="url(#b)" fill-rule="evenodd"/><path d="M7 5V2h1v3h11v1H8v3h11v1H8v3h11v1H8v3h11v1H8v4H7v-4H5v-1h2v-3H5v-1h2v-3H5V9h2V6H5V5z" fill="#fff" fill-opacity=".1" fill-rule="evenodd"/><path d="M21 17.702v-1.25h-2.381v2.745h.595a1.11 1.11 0 0 1-.595.799V21c.807-.164 1.406-.523 1.796-1.076.39-.553.585-1.293.585-2.222zm-3.381 4.52v-6.77H22v2.25c0 1.12-.248 2.06-.768 2.799-.546.774-1.37 1.267-2.415 1.479zm.199-4.52v-1.25h-2.382v2.745h.596c-.028.205-.082.362-.165.471s-.225.219-.43.328V21c.807-.164 1.406-.523 1.796-1.076.39-.553.585-1.293.585-2.222zm-3.382 4.52v-6.77h4.382v2.25c0 1.12-.248 2.06-.768 2.799-.546.774-1.37 1.267-2.415 1.479zM4 5.516c0 1.87.395 3.36 1.184 4.474.79 1.113 2.002 1.835 3.636 2.164v-2.02c-.665-.357-1.066-.893-1.205-1.608H8.82V3H4zm5.82 7.86l-1.198-.241c-1.871-.378-3.308-1.233-4.253-2.567C3.448 9.27 3 7.577 3 5.515V2h6.82v7.525zm.62-7.86c0 1.87.395 3.36 1.184 4.474.79 1.113 2.002 1.835 3.636 2.164v-2.02c-.416-.22-.706-.44-.873-.66s-.277-.536-.332-.948h1.205V3h-4.82zm5.82 7.86l-1.198-.241c-1.871-.378-3.308-1.233-4.253-2.567C9.888 9.27 9.44 7.577 9.44 5.515V2h6.82v7.525z" fill="url(#c)"/><path d="M21 17.702c0 .929-.195 1.67-.585 2.222-.39.553-.989.912-1.797 1.076v-1.004a1.11 1.11 0 0 0 .596-.799h-.596v-2.744H21zm-3.182 0c0 .929-.195 1.67-.585 2.222-.39.553-.99.912-1.797 1.076v-1.004c.206-.11.35-.218.431-.328s.137-.266.165-.47h-.596v-2.745h2.382zM4 5.515V3h4.82v5.525H7.613c.139.715.54 1.25 1.205 1.608v2.02c-1.634-.33-2.846-1.05-3.635-2.164C4.394 8.876 4 7.384 4 5.515zm6.44 0V3h4.82v5.525h-1.206c.056.412.167.728.333.948s.457.44.872.66v2.02c-1.634-.33-2.846-1.05-3.635-2.164-.79-1.114-1.184-2.605-1.184-4.474z" fill="#fff" fill-rule="evenodd"/></g></svg>