<svg width="24" height="24" version="1.1" viewBox="0 0 24 24" xmlns="http://www.w3.org/2000/svg"><title>远程协助-24px</title><defs><filter id="a" color-interpolation-filters="sRGB"><feFlood flood-color="#000" flood-opacity=".196" result="flood"/><feComposite in="flood" in2="SourceGraphic" operator="in" result="composite1"/><feGaussianBlur in="composite1" result="blur" stdDeviation=".3"/><feOffset dx="0" dy=".3" result="offset"/><feComposite in="SourceGraphic" in2="offset" result="composite2"/></filter></defs><g fill-rule="evenodd" filter="url(#a)"><path d="M21.506 4a.5.5 0 0 1 .494.5v17a.5.5 0 0 1-.494.5H2.495a.5.5 0 0 1-.494-.5v-17a.5.5 0 0 1 .494-.5z" fill="#0fbbaf"/><path d="M15.687 8.094c-.488.498-2.234 2.25-3.167 3.168l2.617 2.609-3.129 3.177c-1.285-1.231-2.548-2.471-3.827-3.7l-.025-.023c-.633-.528-1-1.385-.867-2.18.14-1.066 1.19-1.988 2.249-1.965.205-.003.412.043.569.076.5.107.964.559 1.394.993l.232.234.61.607L13.57 9.86c.189-.188.293-.55 0-.84a.567.567 0 0 0-.465-.181.631.631 0 0 0-.378.181l-.571.572c-.443-.441-1.128-1.107-1.844-1.263a3.198 3.198 0 0 0-.783-.1C7.93 8.2 6.556 9.447 6.347 10.994c-.191 1.17.32 2.333 1.197 3.065l-.025-.023c1.283 1.233 2.663 2.561 3.96 3.791.183.16.331.186.524.186.148.002.316-.049.489-.215l2.894-2.902s1.94-1.932 2.896-2.882c.204-.205.219-.49.014-.695-.204-.204-.496-.197-.7.007l-2.068 2.069c-.054.011-.169-.108-.163-.175l3.055-3.057c.205-.204.22-.496.015-.7-.204-.204-.476-.176-.68.028l-2.42 2.421c-.064.011-.201-.108-.184-.19l2.864-2.864c.165-.176.262-.488.052-.708a.501.501 0 0 0-.722.014L14.39 11.12c-.07 0-.179-.1-.177-.173l2.163-2.163c.204-.204.24-.489.018-.7a.501.501 0 0 0-.366-.146.504.504 0 0 0-.34.156z" fill="#fff"/></g></svg>