<svg width="24" height="24" version="1" xmlns="http://www.w3.org/2000/svg"><defs><filter id="a" color-interpolation-filters="sRGB"><feFlood flood-color="#000" flood-opacity=".196" result="flood"/><feComposite in="flood" in2="SourceGraphic" operator="in" result="composite1"/><feGaussianBlur in="composite1" result="blur" stdDeviation=".3"/><feOffset dx="0" dy=".3" result="offset"/><feComposite in="SourceGraphic" in2="offset" result="composite2"/></filter></defs><g filter="url(#a)"><path d="M16.764 2.5c-1.137 0-2.15.469-2.905 1.099-.086-.07-.144-.156-.243-.216-.569-.344-1.266-.431-1.826-.353-.782.11-1.42.607-1.898 1.161-.349-.127-.712-.213-1.079-.177a3.068 3.068 0 0 0-.793.188c-.883.336-1.623 1.186-1.874 2.023-.232.071-.5.07-.693.184C4.656 6.88 4.027 7.913 4 8.805c-.025.892.303 1.535.659 2.042.229.326.55.541.846.783-.158.347-.307.702-.392 1.098-.468 2.197.423 4.256 1.748 5.865 1.326 1.61 3.25 2.907 5.577 2.907 2.516 0 4.643-1.685 5.378-4.14.29-.758.118-1.634-.012-2.359-.354-1.969-.915-3.923 1.515-7.28.439-.792.877-1.672.586-2.96-.146-.643-.61-1.362-1.234-1.757-.623-.395-1.285-.504-1.908-.504z" opacity=".2"/><path d="M16.764 2c-1.137 0-2.15.469-2.905 1.099-.086-.07-.144-.156-.243-.216-.569-.344-1.266-.431-1.826-.353-.782.11-1.42.607-1.898 1.161-.349-.127-.712-.213-1.079-.177a3.068 3.068 0 0 0-.793.188c-.883.336-1.623 1.186-1.874 2.023-.232.071-.5.07-.693.184C4.656 6.38 4.027 7.413 4 8.305c-.025.892.303 1.535.659 2.042.229.326.55.541.846.783-.158.347-.307.702-.392 1.098-.468 2.197.423 4.256 1.748 5.865C8.188 19.703 10.112 21 12.44 21c2.516 0 4.643-1.685 5.378-4.14.29-.758.118-1.634-.012-2.359-.354-1.969-.915-3.923 1.515-7.28.439-.792.877-1.672.586-2.96-.146-.643-.61-1.362-1.234-1.757C18.049 2.11 17.387 2 16.764 2z" fill="#569c3b"/><path d="M16.779 4.5c-2.962 0-3.517 4.5-1.85 4.5 1.665 0 4.812-4.5 1.85-4.5zm-4.701.51c-1.694.239-1.099 3.43-.197 3.49.902.059 1.891-3.727.197-3.49zm-3.065.994c-.086.008-.179.03-.278.068-1.586.602-.241 3.087.647 2.92.834-.156.93-3.115-.369-2.988zM6.928 8a.85.85 0 0 0-.458.132c-1.304.769.44 2.626 1.206 2.338.671-.252.243-2.441-.748-2.47zm6.081 1.501c-2.333-.041-5.412 1.184-5.937 3.644-.569 2.662 2.341 6.355 5.377 6.355 1.493 0 3.216-1.411 3.538-3.198.246-1.363-3.096-.817-2.983.085.092.736-.294 1.12-.826 1.132-.726-.088-1.082-.508-1.178-1.141-.13-1.663 5.109-2.849 4.694-5.428-.152-.943-1.284-1.424-2.685-1.449z" opacity=".2"/><path d="M16.779 4c-2.962 0-3.517 4.5-1.85 4.5 1.665 0 4.812-4.5 1.85-4.5zm-4.701.51c-1.694.239-1.099 3.43-.197 3.49.902.059 1.891-3.727.197-3.49zm-3.065.994c-.086.008-.179.03-.278.068-1.586.602-.241 3.087.647 2.92.834-.156.93-3.115-.369-2.988zM6.928 7.5a.85.85 0 0 0-.458.132c-1.304.769.44 2.626 1.206 2.338.671-.252.243-2.441-.748-2.47zm6.081 1.501c-2.333-.041-5.412 1.184-5.937 3.644C6.503 15.307 9.413 19 12.449 19c1.493 0 3.216-1.411 3.538-3.198.246-1.363-3.096-.817-2.983.085.092.736-.294 1.12-.826 1.132-.726-.088-1.082-.508-1.178-1.141-.13-1.663 5.109-2.849 4.694-5.428-.152-.943-1.284-1.424-2.685-1.449z" fill="#fff"/><path d="M16.764 2c-1.137 0-2.15.469-2.904 1.099-.086-.07-.145-.156-.243-.216-.57-.344-1.267-.431-1.827-.353-.782.11-1.419.607-1.897 1.161-.349-.127-.713-.213-1.08-.177a3.067 3.067 0 0 0-.792.188c-.884.336-1.624 1.186-1.874 2.023-.232.071-.5.07-.694.184-.796.47-1.426 1.504-1.452 2.396-.003.132.003.256.014.378.075-.863.678-1.825 1.438-2.274.194-.114.462-.113.694-.184.25-.837.99-1.687 1.874-2.023.24-.091.505-.16.793-.188.367-.036.73.05 1.079.177.478-.554 1.115-1.05 1.897-1.16.56-.08 1.258.008 1.827.352.098.06.157.146.243.216.754-.63 1.767-1.099 2.904-1.099.623 0 1.285.109 1.908.504s1.09 1.114 1.235 1.758c.043.191.065.371.079.546.023-.32.007-.663-.08-1.046-.145-.644-.61-1.363-1.234-1.758C18.05 2.109 17.387 2 16.764 2zM5.349 11.503c-.094.231-.18.468-.234.725-.105.488-.138.97-.118 1.441.014-.31.05-.624.118-.941.084-.396.234-.75.392-1.098a10.993 10.993 0 0 0-.158-.127zm12.143.763c-.04.99.156 1.862.313 2.735.063.352.134.74.159 1.133.037-.558-.069-1.131-.159-1.633-.13-.723-.286-1.446-.313-2.235z" fill="#fff" opacity=".2"/></g></svg>