<svg width="24" height="24" version="1.1" viewBox="0 0 24 24" xmlns="http://www.w3.org/2000/svg"><defs><filter id="a" color-interpolation-filters="sRGB"><feFlood flood-color="#000" flood-opacity=".196" result="flood"/><feComposite in="flood" in2="SourceGraphic" operator="in" result="composite1"/><feGaussianBlur in="composite1" result="blur" stdDeviation=".3"/><feOffset dx="0" dy=".3" result="offset"/><feComposite in="SourceGraphic" in2="offset" result="composite2"/></filter></defs><g filter="url(#a)"><circle cx="12" cy="12" r="10" fill="#7ea043"/><path d="M12 2A10 10 0 0 0 2 12a10 10 0 0 0 .01.291A10 10 0 0 1 12 2.5a10 10 0 0 1 9.99 9.709A10 10 0 0 0 22 12 10 10 0 0 0 12 2z" fill="#fff" opacity=".2"/><path d="M21.99 12.209A10 10 0 0 1 12 22a10 10 0 0 1-9.989-9.709 10 10 0 0 0-.01.209 10 10 0 0 0 10 10 10 10 0 0 0 10-10 10 10 0 0 0-.012-.291z" opacity=".2"/><path d="M13 5.5v5L17 8zm-1 1a6 6 0 0 0-5.373 3.338l.855.535A5 5 0 0 1 12 7.5zm0 2a4 4 0 0 0-3.664 2.406l.86.537A3 3 0 0 1 12 9.5zm4.994.682l-.85.53A5 5 0 0 1 17 12.5a5 5 0 0 1-.852 2.79l.846.528A6 6 0 0 0 18 12.5a6 6 0 0 0-1.006-3.318zM5 10v5l4-2.5zm10.301.24l-.851.533A3 3 0 0 1 15 12.5a3 3 0 0 1-.549 1.729l.846.529A4 4 0 0 0 16 12.5a4 4 0 0 0-.699-2.26zM9.194 13.56l-.86.537A4 4 0 0 0 12 16.5v-1a3 3 0 0 1-2.806-1.941zM13 14.5v5l4-2.5zm-5.517.127l-.852.533a6 6 0 0 0 5.37 3.34v-1a5 5 0 0 1-4.518-2.873z" opacity=".2"/><path d="M13 5v5l4-2.5L13 5zm-1 1a6 6 0 0 0-5.373 3.338l.855.535A5 5 0 0 1 12 7V6zm0 2a4 4 0 0 0-3.664 2.406l.86.537A3 3 0 0 1 12 9V8zm4.994.682l-.85.53A5 5 0 0 1 17 12a5 5 0 0 1-.852 2.79l.846.528A6 6 0 0 0 18 12a6 6 0 0 0-1.006-3.318zM5 9.5v5L9 12 5 9.5zm10.301.24l-.851.533A3 3 0 0 1 15 12a3 3 0 0 1-.549 1.729l.846.529A4 4 0 0 0 16 12a4 4 0 0 0-.699-2.26zM9.194 13.06l-.86.537A4 4 0 0 0 12 16v-1a3 3 0 0 1-2.806-1.941zM13 14v5l4-2.5-4-2.5zm-5.517.127l-.852.533a6 6 0 0 0 5.37 3.34v-1a5 5 0 0 1-4.518-2.873z" fill="#fff"/></g></svg>