<svg width="24" height="24" version="1" xmlns="http://www.w3.org/2000/svg"><defs><filter id="a" color-interpolation-filters="sRGB"><feFlood flood-color="#000" flood-opacity=".196" result="flood"/><feComposite in="flood" in2="SourceGraphic" operator="in" result="composite1"/><feGaussianBlur in="composite1" result="blur" stdDeviation=".3"/><feOffset dx="0" dy=".3" result="offset"/><feComposite in="SourceGraphic" in2="offset" result="composite2"/></filter></defs><g filter="url(#a)"><path d="M3 2.5c-.554 0-1 .446-1 1v18c0 .554.446 1 1 1h5v-14h7v-6zm13 0v20h5c.554 0 1-.446 1-1v-18c0-.554-.446-1-1-1zm-7 7v13h6v-13z" opacity=".2"/><path d="M3 2c-.554 0-1 .446-1 1v18c0 .554.446 1 1 1h5V8h7V2zm13 0v20h5c.554 0 1-.446 1-1V3c0-.554-.446-1-1-1zM9 9v13h6V9z" fill="#16a085"/><path d="M3 2c-.554 0-1 .446-1 1v.5c0-.554.446-1 1-1h12V2zm13 0v.5h5c.554 0 1 .446 1 1V3c0-.554-.446-1-1-1zM9 9v.5h6V9z" fill="#fff" opacity=".2"/></g></svg>