<svg width="24" height="24" version="1.1" xmlns="http://www.w3.org/2000/svg"><defs><filter id="a" color-interpolation-filters="sRGB"><feFlood flood-color="#000" flood-opacity=".196" result="flood"/><feComposite in="flood" in2="SourceGraphic" operator="in" result="composite1"/><feGaussianBlur in="composite1" result="blur" stdDeviation=".3"/><feOffset dx="0" dy=".3" result="offset"/><feComposite in="SourceGraphic" in2="offset" result="composite2"/></filter></defs><g fill-rule="evenodd"><path d="M11.998 2.5c-.89 2.183-1.427 3.61-2.419 5.728a15.612 15.612 0 0 0 2.566 2.241c-1.303-.536-2.191-1.074-2.855-1.632C8.02 11.484 6.033 15.254 2 22.5c3.17-1.83 4.877-2.958 7.168-3.388a5.801 5.801 0 0 1-.15-1.358l.003-.102c.05-2.03 1.238-4.152 3.108-4.152s2.925 2.505 2.875 4.536a5.73 5.73 0 0 1-.128 1.09c2.265.444 3.996 1.569 7.124 3.374-.617-1.135-1.168-2.158-1.693-3.133-.828-.641-1.692-1.476-3.453-2.38 1.21.314 2.077.677 2.753 1.083-5.344-9.948-5.776-11.27-7.61-15.57z" opacity=".2"/><path d="M11.998 2c-.89 2.183-1.427 3.61-2.419 5.728a15.612 15.612 0 0 0 2.566 2.241c-1.303-.536-2.191-1.074-2.855-1.632C8.02 10.984 6.033 14.754 2 22c3.17-1.83 4.877-2.958 7.168-3.388a5.801 5.801 0 0 1-.15-1.358l.003-.102C9.07 15.122 10.259 13 12.129 13s2.925 2.505 2.875 4.536a5.73 5.73 0 0 1-.128 1.09C17.14 19.07 18.872 20.196 22 22c-.617-1.135-1.168-2.158-1.693-3.133-.828-.641-1.692-1.476-3.453-2.38 1.21.314 2.077.677 2.753 1.083C14.263 7.622 13.831 6.3 11.997 2z" fill="#1793d1" filter="url(#a)"/><path d="M11.998 2c-.89 2.183-1.427 3.611-2.418 5.729.044.046.107.102.152.15.881-1.913 1.43-3.33 2.266-5.379 1.78 4.174 2.323 5.688 7.238 14.867.127.067.256.134.371.203C14.263 7.622 13.831 6.3 11.997 2zM9.289 8.338C8.02 10.985 6.034 14.754 1.999 22c.15-.086.259-.15.401-.233 3.696-6.655 5.675-10.396 6.889-12.93.664.559 1.553 1.095 2.855 1.631a15.07 15.07 0 0 1-1.568-1.254 8.508 8.508 0 0 1-1.287-.876zm7.564 8.648c1.762.904 2.626 1.74 3.454 2.381l1.298 2.404L22 22c-.617-1.135-1.168-2.158-1.693-3.133-.47-.364-.97-.795-1.622-1.261a12.331 12.331 0 0 0-1.832-.62zm-7.82.547c-.002.04-.01.08-.012.12l-.003.1a5.72 5.72 0 0 0 .068.878l.082-.02a5.86 5.86 0 0 1-.135-1.078zm5.957.192c-.017.313-.05.618-.113.902.027.005.053.014.08.02.025-.199.042-.403.047-.612.002-.101-.01-.207-.014-.31z" fill="#fff" opacity=".2"/></g></svg>