<svg width="24" height="24" version="1.1" viewBox="0 0 24 24" xmlns="http://www.w3.org/2000/svg"><defs><filter id="a" color-interpolation-filters="sRGB"><feFlood flood-color="#000" flood-opacity=".196" result="flood"/><feComposite in="flood" in2="SourceGraphic" operator="in" result="composite1"/><feGaussianBlur in="composite1" result="blur" stdDeviation=".3"/><feOffset dx="0" dy=".3" result="offset"/><feComposite in="SourceGraphic" in2="offset" result="composite2"/></filter></defs><g filter="url(#a)"><path d="M6.102 2.52a3.93 3.93 0 0 0-1.725.195c-.685.24-1.426.815-1.828 1.453-.747 1.184-.575 1.782-.54 2.344.037.562.147 1.065.323 1.586.28.828.648 1.533 1.05 2.26.047.083.12.156.161.234-.323.935-.54 1.903-.543 2.902v.006c0 4.935 4.065 9 9 9s9-4.065 9-9v-.002c0-1.002-.217-1.972-.54-2.91.04-.079.115-.152.161-.237.402-.725.768-1.428 1.047-2.253.176-.521.286-1.024.322-1.586.036-.563.21-1.16-.539-2.346-.402-.638-1.142-1.211-1.828-1.451A3.93 3.93 0 0 0 17.9 2.52h-.004a5.855 5.855 0 0 0-.858.148c-1.512.365-2.779 1.068-4.111 1.96-.008.006-.023.023-.031.028-.3-.03-.583-.155-.885-.156h-.02c-.301 0-.585.125-.884.156-.009-.005-.023-.022-.032-.027-1.332-.893-2.598-1.596-4.11-1.961a5.855 5.855 0 0 0-.858-.148z" opacity=".2"/><path d="M6.102 2.02a3.93 3.93 0 0 0-1.725.195c-.685.24-1.426.815-1.828 1.453-.747 1.184-.575 1.782-.54 2.344.037.562.147 1.065.323 1.586.28.828.648 1.533 1.05 2.26.047.083.12.156.161.234-.323.935-.54 1.903-.543 2.902V13c0 4.935 4.065 9 9 9s9-4.065 9-9v-.002c0-1.002-.217-1.972-.54-2.91.04-.079.115-.152.161-.237.402-.725.768-1.428 1.047-2.253.176-.521.286-1.024.322-1.586.036-.563.21-1.16-.539-2.346-.402-.638-1.142-1.211-1.828-1.451A3.93 3.93 0 0 0 17.9 2.02h-.004a5.855 5.855 0 0 0-.858.148c-1.512.365-2.779 1.068-4.111 1.96-.008.006-.023.023-.031.028-.3-.03-.583-.155-.885-.156h-.02c-.301 0-.585.125-.884.156-.009-.005-.023-.022-.032-.027-1.332-.893-2.598-1.596-4.11-1.961a5.855 5.855 0 0 0-.858-.148z" fill="#fb5140"/><path d="M5.832 5.508c-.376-.035-.614.05-.746.26-.141.223-.105.796.088 1.367.202.596.698 1.554 1.144 2.297A7.052 7.052 0 0 1 9.29 7.049c-1.07-.702-2.264-1.283-3.035-1.469a2.696 2.696 0 0 0-.422-.072zm12.336 0a2.697 2.697 0 0 0-.422.072c-.798.192-2.053.806-3.15 1.541-.559.374-.596.424-.596.803 0 .27.021.36.158.644.379.786 1.225 1.588 1.95 1.848.32.115.732.112.884-.008.382-.3 1.506-2.305 1.834-3.273.193-.57.23-1.144.088-1.367-.132-.21-.37-.295-.746-.26zM12 7.5a6 6 0 0 0-6 6 6 6 0 0 0 6 6 6 6 0 0 0 6-6 6 6 0 0 0-.45-2.268c-.383.278-.66.266-.929.268a2.404 2.404 0 0 1-.851-.143c-1.108-.397-1.996-1.285-2.512-2.355A2.74 2.74 0 0 1 13 7.924c0-.08.018-.207.035-.328A6 6 0 0 0 12 7.5z" opacity=".2"/><path d="M5.832 5.008c-.376-.035-.614.05-.746.26-.141.223-.105.796.088 1.367.202.596.698 1.554 1.144 2.297A7.052 7.052 0 0 1 9.29 6.549c-1.07-.702-2.264-1.283-3.035-1.469a2.696 2.696 0 0 0-.422-.072zm12.336 0a2.697 2.697 0 0 0-.422.072c-.798.192-2.053.806-3.15 1.541-.559.374-.596.424-.596.803 0 .27.021.36.158.644.379.786 1.225 1.588 1.95 1.848.32.115.732.112.884-.008.382-.3 1.506-2.305 1.834-3.273.193-.57.23-1.144.088-1.367-.132-.21-.37-.295-.746-.26zM12 7a6 6 0 0 0-6 6 6 6 0 0 0 6 6 6 6 0 0 0 6-6 6 6 0 0 0-.45-2.268c-.383.278-.66.266-.929.268a2.404 2.404 0 0 1-.851-.143c-1.108-.397-1.996-1.285-2.512-2.355A2.74 2.74 0 0 1 13 7.424c0-.08.018-.207.035-.328A6 6 0 0 0 12 7z" fill="#fff"/><path d="M5.32 2.012a3.796 3.796 0 0 0-.943.203c-.686.24-1.426.815-1.828 1.453-.609.965-.605 1.535-.565 2.02.029-.391.15-.86.565-1.52.402-.638 1.143-1.213 1.828-1.453a3.93 3.93 0 0 1 1.725-.195h.003c.253.023.55.072.858.148 1.513.365 2.78 1.068 4.111 1.96.008.006.023.023.031.028.3-.03.584-.155.885-.156a3 3 0 0 1 .02 0c.301 0 .585.125.884.156.009-.005.024-.022.032-.027 1.332-.893 2.598-1.596 4.111-1.961.309-.076.605-.125.857-.148h.004a3.93 3.93 0 0 1 1.725.195c.685.24 1.426.813 1.828 1.451.411.652.536 1.118.566 1.506.04-.481.037-1.05-.566-2.006-.402-.638-1.143-1.211-1.828-1.451a3.93 3.93 0 0 0-1.725-.195h-.004a5.855 5.855 0 0 0-.857.148c-1.513.365-2.78 1.068-4.111 1.96-.008.006-.023.023-.032.028-.299-.03-.583-.155-.884-.156a3 3 0 0 0-.02 0c-.301 0-.585.125-.885.156-.008-.005-.023-.022-.03-.027-1.333-.893-2.6-1.596-4.112-1.961a5.855 5.855 0 0 0-.858-.148h-.003a4.42 4.42 0 0 0-.782-.008zm15.246 8.42c-.038.052-.08.104-.107.156.297.86.495 1.75.527 2.664.003-.085.014-.167.014-.252v-.002c0-.88-.174-1.735-.434-2.566zm-17.13.004c-.26.828-.434 1.68-.436 2.558V13c0 .086.01.17.013.256.034-.915.232-1.804.53-2.664-.028-.052-.07-.104-.108-.157z" fill="#fff" opacity=".2"/></g></svg>