<svg width="24" height="24" version="1.1" viewBox="0 0 24 24" xmlns="http://www.w3.org/2000/svg"><defs><filter id="a" color-interpolation-filters="sRGB"><feFlood flood-color="#000" flood-opacity=".196" result="flood"/><feComposite in="flood" in2="SourceGraphic" operator="in" result="composite1"/><feGaussianBlur in="composite1" result="blur" stdDeviation=".3"/><feOffset dx="0" dy=".3" result="offset"/><feComposite in="SourceGraphic" in2="offset" result="composite2"/></filter></defs><g filter="url(#a)"><path d="M21.568 2.838c-.037-.11-.034-.25-.104-.342-.957.137-1.904.374-2.79.764-.938.402-1.957 1.079-2.674 1.802 1.168 1.216 2.073 2.7 3.132 3.852.494.715.991 1.824 1.413 2.581.093-.169.658-.892.736-1.07.617-1.27.747-2.708.714-4.1-.014-1.173-.188-2.338-.427-3.487zM2.432 2.838c.037-.11.034-.25.104-.342.957.137 1.904.374 2.79.764.938.402 1.957 1.079 2.674 1.802-1.168 1.216-2.073 2.7-3.133 3.852-.493.715-.99 1.824-1.412 2.581-.093-.169-.658-.892-.736-1.07-.617-1.27-.747-2.708-.714-4.1.014-1.173.188-2.338.427-3.487z" opacity=".2"/><path d="M8.524 4.642c-.193.129-.381.265-.564.406a12.19 12.19 0 0 0-1.641 1.537 17.082 17.082 0 0 0-.335.382l-.004.004c-1.323 1.56-2.374 3.344-3.215 5.205-.088.2-.172.401-.255.603l-.054.132-.02.05a22.828 22.828 0 0 0-.418 1.14.212.212 0 0 0-.018.102v.002c.006.072.04.144.061.212a11.067 11.067 0 0 0 .601 1.388l.008.016c.34.656.748 1.277 1.221 1.845.312.383.654.74 1.018 1.072l.099.089.033.03a10.221 10.221 0 0 0 3.24 1.96l.102.037a10.247 10.247 0 0 0 1.075.331c.704.177 1.426.277 2.15.304h.01c.063.003.126.004.19.005l.064.001h.256l.065-.001.19-.005h.009a10.408 10.408 0 0 0 2.362-.36h.003c.29-.079.578-.171.861-.275l.1-.037.002-.001a10.222 10.222 0 0 0 3.24-1.96 10.573 10.573 0 0 0 1.149-1.19c.473-.568.88-1.188 1.22-1.844l.01-.019c.032-.06.062-.122.093-.183l.001-.003c.192-.39.361-.79.506-1.2.022-.068.055-.14.06-.212l.001-.002v-.001a.213.213 0 0 0-.018-.101 21.468 21.468 0 0 0-.42-1.141l-.018-.05-.053-.127a24.978 24.978 0 0 0-.256-.607c-.84-1.86-1.891-3.645-3.215-5.205l-.002-.002-.001-.002h-.001a17.07 17.07 0 0 0-.326-.373 12.2 12.2 0 0 0-1.65-1.545 9.821 9.821 0 0 0-.564-.407c-1.184-.777-2.173-1.11-3.516-1.146-1.22.007-2.576.583-3.436 1.146z" opacity=".2"/><path d="M21.568 2.338c-.037-.11-.034-.25-.104-.342-.957.137-1.904.374-2.79.764-.938.402-1.957 1.079-2.674 1.802 1.168 1.216 2.073 2.7 3.132 3.852.494.715.991 1.824 1.413 2.581.093-.169.658-.892.736-1.07.617-1.27.747-2.708.714-4.1-.014-1.173-.188-2.338-.427-3.487z" fill="#db3d7f"/><path d="M21.464 1.996c-.957.137-1.903.373-2.789.763-.938.403-1.958 1.08-2.675 1.803.086.09.167.183.25.274a9.07 9.07 0 0 1 2.425-1.577c.886-.39 1.832-.626 2.789-.763.07.091.067.231.104.342.233 1.118.401 2.252.423 3.394 0-.136.007-.272.004-.406-.014-1.174-.188-2.34-.427-3.488-.037-.11-.034-.25-.104-.342z" fill="#fff" opacity=".1"/><path d="M2.432 2.338c.037-.11.034-.25.104-.342.957.137 1.904.374 2.79.764.938.402 1.957 1.079 2.674 1.802-1.168 1.216-2.073 2.7-3.133 3.852-.493.715-.99 1.824-1.412 2.581-.093-.169-.658-.892-.736-1.07-.617-1.27-.747-2.708-.714-4.1.014-1.173.188-2.338.427-3.487z" fill="#db3d7f"/><path d="M2.536 1.996c-.07.091-.067.231-.104.342-.24 1.149-.413 2.314-.427 3.488-.003.134.004.27.004.406.022-1.142.19-2.276.423-3.394.037-.11.034-.25.104-.342.957.138 1.903.373 2.79.763A9.07 9.07 0 0 1 7.75 4.836c.083-.091.164-.185.25-.274-.717-.723-1.737-1.4-2.675-1.803-.886-.39-1.832-.625-2.789-.763z" fill="#fff" opacity=".1"/><path d="M8.524 4.142c-.193.129-.381.265-.564.406a12.19 12.19 0 0 0-1.641 1.537 17.082 17.082 0 0 0-.335.382l-.004.004c-1.323 1.56-2.374 3.344-3.215 5.205-.088.2-.172.401-.255.603l-.054.132-.02.05a22.828 22.828 0 0 0-.418 1.14.212.212 0 0 0-.018.102v.002c.006.072.04.144.061.212a11.067 11.067 0 0 0 .601 1.388l.008.016c.34.656.748 1.277 1.221 1.845.312.383.654.74 1.018 1.072l.099.089.033.03a10.221 10.221 0 0 0 3.24 1.96l.102.037a10.247 10.247 0 0 0 1.075.331c.704.177 1.426.277 2.15.304h.01c.063.003.126.004.19.005l.064.001h.321a9.99 9.99 0 0 0 .19-.006h.009a10.408 10.408 0 0 0 2.362-.36h.003c.29-.079.578-.171.861-.275l.1-.037.002-.001a10.222 10.222 0 0 0 3.24-1.96 10.573 10.573 0 0 0 1.149-1.19c.473-.568.88-1.188 1.22-1.844l.01-.019c.032-.06.062-.122.093-.183l.001-.003c.192-.39.361-.79.506-1.2.022-.068.055-.14.06-.212l.001-.002v-.001a.213.213 0 0 0-.018-.1 21.468 21.468 0 0 0-.42-1.142l-.018-.05-.053-.127a24.978 24.978 0 0 0-.256-.607c-.84-1.86-1.891-3.645-3.215-5.205l-.002-.002-.001-.001-.001-.001a17.07 17.07 0 0 0-.326-.373 12.2 12.2 0 0 0-1.65-1.545 9.821 9.821 0 0 0-.564-.407c-1.184-.777-2.173-1.11-3.516-1.146-1.22.007-2.576.583-3.436 1.146z" fill="#e4e4e4"/><g fill="#3f3f3f"><path d="M7.365 11c-.427 0-.854.06-1.262.184-.118.718-.178 1.472.066 2.172.19.618.674 1.142 1.285 1.386.744.308 1.593.32 2.372.142.1-.449.184-.905.172-1.367.02-.566-.113-1.156-.457-1.62-.397-.548-1.084-.828-1.75-.878A4.62 4.62 0 0 0 7.365 11zm-.01.59c.23-.004.459.014.682.06.098.04.245.018.314.099-.313.12-.58.373-.666.696a.987.987 0 0 0 .251.976c.364.404 1.086.423 1.465.03-.01.312-.02.629-.096.929-.315.031-.64.044-.954-.006-.575-.061-1.168-.34-1.457-.851-.328-.56-.331-1.23-.25-1.852.092-.05.2-.04.302-.05.136-.017.273-.028.41-.03zM16.635 11c.427 0 .854.06 1.262.184.118.718.178 1.472-.066 2.172a2.224 2.224 0 0 1-1.285 1.386c-.745.308-1.593.32-2.372.142-.1-.449-.184-.905-.172-1.367-.02-.566.113-1.156.457-1.62.396-.548 1.083-.828 1.75-.878a4.62 4.62 0 0 1 .426-.019zm.009.59a3.117 3.117 0 0 0-.681.06c-.098.04-.245.018-.314.099.312.12.58.373.666.696a.987.987 0 0 1-.251.976c-.364.404-1.086.423-1.465.03.01.312.02.629.096.929.315.031.64.044.954-.006.574-.061 1.168-.34 1.457-.851.328-.56.331-1.23.25-1.852-.092-.05-.2-.04-.302-.05a3.691 3.691 0 0 0-.41-.03zM10.006 16.243c-.028.065.056.11.088.16.468.496.93.997 1.406 1.488.097.103.24.148.38.186 0 .292.003.585-.001.878.054.06.154.051.224.02-.005-.296.006-.592-.006-.887.144-.051.298-.096.404-.204.477-.512.962-1.02 1.439-1.532.017-.034.079-.064.055-.106-.536-.15-1.095-.212-1.653-.24-.787-.027-1.58.032-2.336.237zM11.959 2.996a5.437 5.437 0 0 0-1.577.272c.463 1.68.903 3.365 1.36 5.045l.19-.019c.125-1.76.308-3.517.427-5.278a8.038 8.038 0 0 0-.4-.02zm-1.796.345a7.762 7.762 0 0 0-1.64.801c-.258.187-.773.54-.306.222.914 1.462 1.84 2.917 2.758 4.377l.173-.07c-.132-.662-.235-1.33-.37-1.991-.111-.552-.194-1.109-.306-1.66-.114-.558-.201-1.12-.31-1.68z"/></g><g fill="none" stroke="#000" stroke-linecap="round" stroke-linejoin="round" stroke-width="2"><path d="M7 17.996l-4.5 4M9.5 17.996l-4.5 4M14.5 17.996l4.5 4M17 17.996l4.5 4" opacity=".2" stroke-width="1"/></g><g fill="none" stroke="#db3d7f" stroke-linecap="round" stroke-linejoin="round" stroke-width="1"><path d="M7 17.496l-4.5 4M9.5 17.496l-4.5 4M14.5 17.496l4.5 4M17 17.496l4.5 4"/></g></g></svg>