<svg width="24" height="24" version="1" xmlns="http://www.w3.org/2000/svg"><g fill-rule="evenodd"><circle cx="10.5" cy="20" r="2.5" opacity=".2"/><circle cx="6.5" cy="14.5" r="2.5" fill="#ff6bf4"/><circle cx="10.5" cy="19.5" r="2.5" fill="#ff6bf4"/><circle cx="8" cy="18.5" r="4" opacity=".2"/><circle cx="8" cy="18" r="4" fill="#cc4e38"/><circle cx="14.5" cy="16" r="4.5" opacity=".2"/><circle cx="14.5" cy="15.5" r="4.5" fill="#f26666"/><circle cx="12.5" cy="11" r="6.5" opacity=".2"/><circle cx="12.5" cy="10.5" r="6.5" fill="#fdcc58"/><path d="M11.717 11.397c-.708 2.673-2.404 4.673-5.045 3.956-2.642-.716-4.21-3.464-3.502-6.137.708-2.674 3.423-4.26 6.065-3.544 2.642.717 3.19 3.052 2.482 5.725z" opacity=".2"/><circle cx="6" cy="19.5" r="3" opacity=".2"/><circle cx="6" cy="19" r="3" fill="#ff6bf4"/><path d="M11.717 10.897c-.708 2.673-2.404 4.673-5.045 3.956-2.642-.716-4.21-3.464-3.502-6.137.708-2.674 3.423-4.26 6.065-3.544 2.642.717 3.19 3.052 2.482 5.725z" fill="#f26666"/><path d="M7.755 5.004A4.967 4.967 0 0 0 3.17 8.716a5.055 5.055 0 0 0-.161 1.548 5.08 5.08 0 0 1 .16-1.048c.709-2.674 3.424-4.26 6.066-3.544 1.865.506 2.683 1.82 2.756 3.488.078-1.903-.708-3.433-2.756-3.988a4.898 4.898 0 0 0-1.48-.168z" fill="#fff" opacity=".2"/><circle cx="18" cy="5.5" r="3" opacity=".2"/><circle cx="18" cy="5" r="3" fill="#98ecef"/><circle cx="17" cy="10.5" r="3" opacity=".2"/><circle cx="17" cy="10" r="3" fill="#98ecef"/><circle cx="16" cy="7.5" r="4" opacity=".2"/><path d="M18 2a3 3 0 0 0-3 3 3 3 0 0 0 .013.249A3 3 0 0 1 18 2.5a3 3 0 0 1 2.987 2.751A3 3 0 0 0 21 5a3 3 0 0 0-3-3z" fill="#fff" opacity=".2"/><circle cx="16" cy="7" r="4" fill="#4e59b3"/><path d="M15 7.5c0 1.657-.766 3-2.273 3S10 9.157 10 7.5s1.221-3 2.727-3S15 5.843 15 7.5z" opacity=".2"/><path d="M15 7c0 1.657-.766 3-2.273 3S10 8.657 10 7s1.221-3 2.727-3S15 5.343 15 7z" fill="#98ecef"/><path d="M12.727 4C11.221 4 10 5.343 10 7c0 .086.017.166.024.25.117-1.538 1.275-2.75 2.703-2.75s2.185 1.212 2.26 2.75C14.99 7.166 15 7.085 15 7c0-1.657-.767-3-2.273-3z" fill="#fff" opacity=".1"/></g></svg>