<svg width="24" height="24" version="1.1" viewBox="0 0 24 24" xmlns="http://www.w3.org/2000/svg"><title>firefox-zh</title><defs><linearGradient id="b" x1="21.057" x2="24.76" y1="1.586" y2="5.682" gradientTransform="scale(.7689 1.3006)" gradientUnits="userSpaceOnUse"><stop stop-color="#F89B09" offset="0"/><stop stop-color="#FBDB00" offset="1"/></linearGradient><linearGradient id="c" x1="46.526" x2="46.526" y1="3.963" y2="5.191" gradientTransform="scale(.42268 2.3658)" gradientUnits="userSpaceOnUse"><stop stop-color="#F6901A" offset="0"/><stop stop-color="#FF5224" offset="1"/></linearGradient><linearGradient id="d" x1="20.546" x2="19.165" y1="13.626" y2="15.618" gradientTransform="scale(.9141 1.094)" gradientUnits="userSpaceOnUse"><stop stop-color="#F95828" offset="0"/><stop stop-color="#F02044" offset="1"/></linearGradient><linearGradient id="e" x1="8.905" x2="7.889" y1="32.408" y2="33.235" gradientTransform="scale(1.6717 .59818)" gradientUnits="userSpaceOnUse"><stop stop-color="#B21969" offset="0"/><stop stop-color="#8E123B" offset="1"/></linearGradient><linearGradient id="f" x1="13.438" x2="9.203" y1="2.462" y2="16.408" gradientUnits="userSpaceOnUse"><stop stop-color="#01A2FC" offset="0"/><stop stop-color="#441A7E" offset="1"/></linearGradient><linearGradient id="g" x1="3.38" x2="3.38" y1="1.954" y2="4.828" gradientTransform="scale(.81749 1.2233)" gradientUnits="userSpaceOnUse"><stop stop-color="#EF2545" offset="0"/><stop stop-color="#C01F49" offset="1"/></linearGradient><linearGradient id="h" x1="16.099" x2="-2.839" y1=".072" y2="9.377" gradientTransform="scale(.97853 1.0219)" gradientUnits="userSpaceOnUse"><stop stop-color="#FEEA04" offset="0"/><stop stop-color="#FFE900" offset=".273"/><stop stop-color="#FF7916" offset=".461"/><stop stop-color="#FF282F" offset=".762"/><stop stop-color="#BF0573" offset="1"/></linearGradient><linearGradient id="i" x1="7.235" x2="5.77" y1="4.315" y2="6.171" gradientTransform="scale(1.1776 .84922)" gradientUnits="userSpaceOnUse"><stop stop-color="#F79C0F" offset="0"/><stop stop-color="#FF681C" offset="1"/></linearGradient><linearGradient id="j" x1="4.039" x2="9.298" y1="6.683" y2="6.683" gradientTransform="scale(.85131 1.1747)" gradientUnits="userSpaceOnUse"><stop stop-color="#FF372A" offset="0"/><stop stop-color="#FF8703" offset=".788"/><stop stop-color="#FCAA00" offset="1"/></linearGradient><linearGradient id="k" x1="3.577" x2="8.453" y1="13.594" y2="17.121" gradientTransform="scale(1.3027 .76764)" gradientUnits="userSpaceOnUse"><stop stop-color="#D93A20" offset="0"/><stop stop-color="#FF4D1E" offset=".274"/><stop stop-color="#FF8703" offset=".535"/><stop stop-color="#FFBC01" offset="1"/></linearGradient><linearGradient id="l" x1="4.448" x2="6.877" y1="11.919" y2="16.369" gradientTransform="scale(1.1282 .88636)" gradientUnits="userSpaceOnUse"><stop stop-color="#E3311F" offset="0"/><stop stop-color="#F14719" offset=".5"/><stop stop-color="#EA2C16" offset="1"/></linearGradient><linearGradient id="m" x1="21.245" x2="16.226" y1="6.085" y2="13.266" gradientTransform="scale(.68899 1.4514)" gradientUnits="userSpaceOnUse"><stop stop-color="#FF9302" offset="0"/><stop stop-color="#FFCA00" offset=".317"/><stop stop-color="#FF7B16" offset=".765"/><stop stop-color="#FF5F1F" stop-opacity="0" offset="1"/></linearGradient><linearGradient id="n" x1="20.742" x2="27.115" y1=".707" y2="10.217" gradientTransform="scale(.65756 1.5208)" gradientUnits="userSpaceOnUse"><stop stop-color="#FFF150" offset="0"/><stop stop-color="#FFEE4C" offset=".208"/><stop stop-color="#FFCD28" offset=".672"/><stop stop-color="#FF9601" offset="1"/></linearGradient><linearGradient id="o" x1="21.389" x2="24.991" y1="1.005" y2="11.606" gradientTransform="scale(.60793 1.6449)" gradientUnits="userSpaceOnUse"><stop stop-color="#FFEB02" offset="0"/><stop stop-color="#FFAC00" offset=".718"/><stop stop-color="#FF7417" offset="1"/></linearGradient><linearGradient id="p" x1="17.23" x2="15.091" y1="2.346" y2=".297" gradientTransform="scale(.88181 1.134)" gradientUnits="userSpaceOnUse"><stop stop-color="#FFE900" offset="0"/><stop stop-color="#FFE309" offset="1"/></linearGradient><filter id="a" color-interpolation-filters="sRGB"><feFlood flood-color="#000" flood-opacity=".196" result="flood"/><feComposite in="flood" in2="SourceGraphic" operator="in" result="composite1"/><feGaussianBlur in="composite1" result="blur" stdDeviation=".3"/><feOffset dx="0" dy=".3" result="offset"/><feComposite in="SourceGraphic" in2="offset" result="composite2"/></filter></defs><g transform="translate(1.875 1.5)" fill-rule="evenodd" filter="url(#a)"><path d="M15.797 4.125c-.219-.781-.094-1.469.375-2.063.29.653.524 1.122.703 1.407 1.036 1.646 1.861 2.879 2.11 3.797.312 1.156-.75.109-3.188-3.141z" fill="url(#b)"/><path d="M19.453 9.938l.469-.563c.031 1.688-.14 2.656-.516 2.906" fill="url(#c)"/><path d="M18.75 14.906c-1.094 1.344-1.688 2.063-1.781 2.156-.14.14 1.5-.375 1.687-1.172.125-.531.157-.86.094-.984z" fill="url(#d)"/><path d="M15.469 18.891l-2.766.984c1.25.032 2-.078 2.25-.328s.422-.468.516-.656z" fill="url(#e)"/><circle cx="10.125" cy="10.5" r="9" fill="url(#f)"/><path d="M3.938 4.5c-.844-.75-1.172-1.453-.985-2.11-.969 1-1.422 2.172-1.36 3.516" fill="url(#g)"/><path d="M8.063 6.375c-.282-.14-.657-.375-.704-.89S5.297 3.655 3 4.686-1.125 10.407.844 14.86s6.187 5.954 8.437 6.047 4.266.047 5.72-1.406c-.5.25-1.204.375-2.11.375.892-.303 1.53-.535 1.913-.695 2.473-1.03 3.772-2.205 3.9-3.524-.21.35-.397.6-.563.75-.178.162-.506.365-.985.61 1.125-1.281 1.906-2.453 2.344-3.516s.578-2.437.422-4.125c-.033.786-.08 1.349-.14 1.688s-.187.73-.376 1.172c.17-1.296.233-2.186.188-2.672-.046-.486-.264-1.267-.656-2.344-1.094-2-2.188-3.375-3.282-4.125C14.063 1.5 13.281.516 13.313.14a.162.162 0 0 0-.002-.047c-.068-.295-1.59 2.622-1.545 3.797.047 1.219.094 3.094 2.39 4.594.938 1.593 1.016 3.218.235 4.875-1.172 2.484-5.438 3.703-7.688.703-2.073-2.765.08-4.547.938-5.156.073-.052.089-.202.14-.235s1.142-.485 1.641-.89c.333-.27.539-.741.516-.891-.058-.375-1.594-.375-1.875-.516z" fill="url(#h)"/><path d="M6.14 4.64c.97-.843 1.876-1.14 2.72-.89-1.032.875-1.547 1.5-1.547 1.875" fill="url(#i)"/><path d="M6.14 4.594c.97-.781 1.876-1.063 2.72-.844-1.063.781-1.672 1.75-1.829 2.906-.062.844.14 1.594.61 2.25-.063.719-.14 1.11-.235 1.172-.25.031-.656-.047-1.218-.234-.844-.281-2.204.984-2.016 1.922.095.475-.605-.82-1.14-2.304-.523-1.444 1.026-4.023 1.774-4.336.28-.117.724-.294 1.335-.532z" fill="url(#j)"/><path d="M8.344 12.375c.187 0 .269-.03.375-.047C9.43 12.11 9.946 12 10.266 12c.48 0 1.593.516 1.453 1.172-.031.125-.188.234-.375.187-.188-.062-.313-.078-.375-.046l-.1.05c-.062.04-.23.125-.503.253-.466.23-1.057.512-1.225.54a1.229 1.229 0 0 0-.028.005c-.312.09-.646.136-1.004.136a5.154 5.154 0 0 1-.537-.029 2.739 2.739 0 0 1-.916-.252c-.767-.285-1.267-.504-1.5-.657-.804-.528-.933-.965-.937-.984s-.469-1.5.281-2.11c.75-.609 1.34-.543 2.156-.327.145.038.395.085.75.14-1.062 0-1.469.328-1.219.985.247.647.938 1.133 2.11 1.312h.047z" fill="url(#k)"/><path transform="rotate(16 6.614 12.433)" d="M3.468 11.727c.317-2.063 3.258-1.776 3.258-1.776-.086.086-2.374 1.69.14 3.52.914.664 3.902 1.563 2.602 1.448-1.301-.115-6.476-.124-6-3.192z" fill="url(#l)" fill-rule="nonzero"/><path d="M14.859 19.078c.105-.064.953-1.317 1.172-1.453.812-2.563 1.016-4.578.61-6.047s-1.298-2.422-2.485-3.047c2.25 2.844 1.86 5.953-1.36 9.516l-.35.391c-.642.454-.838.714-.587.78.285.076 1.285.03 3-.14z" fill="url(#m)"/><path d="M15.656 3.094c1.094.75 2.188 2.125 3.281 4.125.444 1.078.631 1.828.656 2.344s.047 1.218-.187 2.625c.189-.443.292-.786.353-1.125s.13-.902.163-1.688c.156 1.688.015 3.063-.422 4.125-.438 1.063-1.22 2.234-2.344 3.516-.148.147-.286.275-.444.422 1.125-7.36-.328-7.125-2.812-9.844-1.657-1.813-1.868-4.313-.635-7.5.047-.047.047 0 .047.047-.01.385.77 1.379 2.344 2.953z" fill="url(#n)"/><path d="M13.266.094c-2.375 3.5-2.078 6.312.89 8.437 4.454 3.188 1.428 9.703.75 10.406s3.704-1.125 3.798-3.281a4.04 4.04 0 0 1-1.547 1.36c1.125-4.47.53-7.422-1.782-8.86S12.36 4.031 13.266.094z" fill="url(#o)"/><path d="M15.548 2.986c.061.075.1.1.053.075C14.358 2.4 13.233.982 13.31.094c.088.44.832 1.403 2.237 2.892z" fill="url(#p)"/></g></svg>