<?xml version="1.0" encoding="UTF-8"?>
<svg width="24" height="24" version="1" xmlns="http://www.w3.org/2000/svg" xmlns:cc="http://creativecommons.org/ns#" xmlns:dc="http://purl.org/dc/elements/1.1/" xmlns:rdf="http://www.w3.org/1999/02/22-rdf-syntax-ns#" xmlns:xlink="http://www.w3.org/1999/xlink">
 <defs>
  <linearGradient id="linearGradient882" x1="2" x2="22" y1="12" y2="12" gradientUnits="userSpaceOnUse">
   <stop stop-color="#1E007E" offset="0"/>
   <stop stop-color="#3721B2" offset="1"/>
  </linearGradient>
 </defs>
 <metadata>
  <rdf:RDF>
   <cc:Work rdf:about="">
    <dc:format>image/svg+xml</dc:format>
    <dc:type rdf:resource="http://purl.org/dc/dcmitype/StillImage"/>
    <dc:title/>
   </cc:Work>
  </rdf:RDF>
 </metadata>
 <circle cx="12" cy="12" r="10" fill="url(#linearGradient882)"/>
 <path d="m12 4.5c-4.4183 0-8 3.5817-8 8s3.5817 8 8 8c4.0276-0.0053 7.4233-3.004 7.9268-7h2.0234c0.03329-0.33229 0.04991-0.66604 0.049805-1-0.0035-0.33414-0.02367-0.66789-0.06055-1h-5.9395v2h1.9092c-0.48753 2.8843-2.984 4.9966-5.9092 5-3.3137 0-6-2.6863-6-6s2.6863-6 6-6h5.2764c-1.4575-1.2854-3.333-1.9963-5.2764-2z" opacity=".2"/>
 <path d="m12 4c-4.4183 0-8 3.5817-8 8s3.5817 8 8 8c4.0276-0.0053 7.4233-3.004 7.9268-7h2.0234c0.03329-0.33229 0.04991-0.66604 0.049805-1-0.0035-0.33414-0.02367-0.66789-0.06055-1h-5.9395v2h1.9092c-0.48753 2.8843-2.984 4.9966-5.9092 5-3.3137 0-6-2.6863-6-6s2.6863-6 6-6h5.2764c-1.4575-1.2854-3.333-1.9963-5.2764-2z" fill="#fff"/>
 <path d="m12 2c-5.5395 0-9.9991 4.46-9.9991 10 0 0.084-2e-3 0.1665 0 0.25 0.13219-5.423 4.5436-9.75 9.9991-9.75s9.8671 4.327 9.9991 9.75c2e-3 -0.0835 0-0.166 0-0.25 0-5.54-4.4596-10-9.9991-10z" fill="#fff" opacity=".1"/>
 <path d="m2.0058 12.25c-0.00205 0.0835-0.00585 0.166-0.00585 0.25 0 5.54 4.46 10 10 10s10-4.46 10-10c0-0.084-4e-3 -0.1665-6e-3 -0.25-0.132 5.423-4.538 9.75-9.994 9.75s-9.862-4.327-9.994-9.75z" opacity=".2"/>
 <path d="m12 8.5a4 4 0 0 0-4 4 4 4 0 0 0 4 4 4 4 0 0 0 2-0.54004v0.54004h2v-8h-2v0.54199a4 4 0 0 0-2-0.54199zm0 2a2 2 0 0 1 2 2 2 2 0 0 1-2 2 2 2 0 0 1-2-2 2 2 0 0 1 2-2z" opacity=".2"/>
 <path d="m12 8a4 4 0 0 0-4 4 4 4 0 0 0 4 4 4 4 0 0 0 2-0.54004v0.54004h2v-8h-2v0.54199a4 4 0 0 0-2-0.54199zm0 2a2 2 0 0 1 2 2 2 2 0 0 1-2 2 2 2 0 0 1-2-2 2 2 0 0 1 2-2z" fill="#fff"/>
 <path d="m12 4c-4.4183 0-8 3.5817-8 8 0 0.08436 0.010103 0.16627 0.012695 0.25 0.13318-4.3016 3.6534-7.75 7.9873-7.75 1.6731 0.00317 3.2944 0.53306 4.6436 1.5h0.63281c-1.4575-1.2854-3.333-1.9963-5.2764-2zm4 7v0.5h5.9395c0.02915 0.26251 0.04445 0.5261 0.05274 0.79004 0.0028-0.09661 0.0078-0.19336 0.0078-0.29004-0.0034-0.33414-0.02367-0.66789-0.06055-1h-4.0244zm-9.9873 1.25c-0.00345 0.08358-0.012695 0.16558-0.012695 0.25 0 3.3137 2.6863 6 6 6 2.9252-0.0033 5.4216-2.1157 5.9092-5h-0.10742c-0.67614 2.6248-3.0486 4.4968-5.8018 4.5-3.2293 0-5.8552-2.5532-5.9873-5.75z" fill="#fff" opacity=".2"/>
</svg>
