<svg width="24" height="24" version="1.1" viewBox="0 0 24 24" xmlns="http://www.w3.org/2000/svg"><defs><linearGradient id="b" x1="6.901" x2="6.901" y1="1" y2="15" gradientTransform="translate(-1.714 -1.714) scale(1.7144)" gradientUnits="userSpaceOnUse"><stop stop-color="#30FFAF" offset="0"/><stop stop-color="#08C5FF" offset="1"/></linearGradient><filter id="a" color-interpolation-filters="sRGB"><feFlood flood-color="#000" flood-opacity=".196" result="flood"/><feComposite in="flood" in2="SourceGraphic" operator="in" result="composite1"/><feGaussianBlur in="composite1" result="blur" stdDeviation=".3"/><feOffset dx="0" dy=".3" result="offset"/><feComposite in="SourceGraphic" in2="offset" result="composite2"/></filter></defs><g transform="translate(1 1) scale(.91667)" filter="url(#a)"><circle cx="12" cy="12" r="12" fill="url(#b)" fill-rule="evenodd" stroke-width="1.5"/><path d="M14.384 11.827l-.873-.843a1.163 1.163 0 0 0-.35-.232 26.243 26.243 0 0 1-.16-.158l1.318-1.413c.25-.269.367-.63.32-.988a2.361 2.361 0 0 1-.02-.406 2.353 2.353 0 0 1-.004-.06c-.071-1.307.97-2.422 2.325-2.49a2.502 2.502 0 0 1 1.82.648l-1.17.217c-.672.124-1.111.744-.98 1.384l.002.012c.13.64.782 1.058 1.454.934l1.387-.257c-.253.986-1.15 1.74-2.256 1.795a2.416 2.416 0 0 1-.159.003c-.11.012-.222.016-.334.014a1.307 1.307 0 0 0-.985.41zm-2.243 2.404l-3.356 3.596c.01.068.015.118.017.153.043.797-.59 1.476-1.417 1.518-.827.041-1.53-.57-1.574-1.367-.043-.798.592-1.477 1.417-1.518.035-.002.088-.002.157 0l3.564-3.82c.045.106.108.206.187.295zm-4.257 3.287l-.8-.172-.564.577.235.748.8.17.564-.576zm5.156-6.092l6.138 5.928c.418.404.43 1.076.032 1.496-.122.11-.422.355-.422.355a1.136 1.136 0 0 1-1.53-.141l-5.615-6.38a.488.488 0 0 1-.117-.253c-.168-.205-.821-.97-2.168-2.25-1.591-1.513-1.863-.75-2.157-.498-.294.251-.264.484-.264.484a.808.808 0 0 1-.244.43l-.47.378c-.043.02-.86-.821-1.118-1.1-.223-.239-.578-.718-.578-.718a.148.148 0 0 1 .012-.185s.434-.476.595-.485c.471-.028.69-.07.921-.41.231-.341.232-.609.36-.806.086-.13.8-.981 1.845-1.577 2.004-1.142 3.558-1.213 3.88-1.191l1.51.1-.782.744c-.065.023-.17.054-.236.07 0 0-.954.204-1.71.735-.757.532-.963 1.444-.385 2.518.34.63.56.847 1.025 1.355a29.58 29.58 0 0 0 1.233 1.271c.09.02.176.063.245.13z" fill="#fff"/></g></svg>