<svg width="24" height="24" version="1.1" viewBox="0 0 24 24" xmlns="http://www.w3.org/2000/svg">
<title>deepin-calculator</title>
<defs>
<linearGradient id="SVGID_1_" x1="24" x2="24.002" y1="5" y2="43.135" gradientUnits="userSpaceOnUse">
<stop stop-color="#f6f9fb" offset="0"/>
<stop stop-color="#d1dfec" offset="1"/>
</linearGradient>
<linearGradient id="path3267_1_" x1="577.95" x2="621.06" y1="-1049.8" y2="-1049.8" gradientTransform="matrix(.7031 0 0 -.6996 -397.95 -711.48)" gradientUnits="userSpaceOnUse">
<stop stop-color="#f3cb20" stop-opacity=".3" offset="0"/>
<stop stop-color="#f3cb20" offset=".22"/>
<stop stop-color="#f3cb20" offset=".561"/>
<stop stop-color="#f3cb20" stop-opacity=".2" offset="1"/>
</linearGradient>
</defs>
<g transform="matrix(.52846 0 0 .52846 -.68049 -.74556)">
<g>
<path d="m43.495 43.45a1.04 1.04 0 0 1-1.027 1.053h-36.947a1.04 1.04 0 0 1-1.026-1.052v-37.895c0-0.581 0.46-1.053 1.026-1.053h36.947a1.04 1.04 0 0 1 1.027 1.053z" opacity=".05"/>
<path d="m42.998 42.982c0 0.567-0.448 1.027-1 1.027h-36c-0.552 0-1-0.46-1-1.027v-36.947c0-0.566 0.448-1.026 1-1.026h36c0.552 0 1 0.46 1 1.026z" opacity=".1"/>
<path d="m43.003 42.54c0 0.559-0.448 1.013-1 1.013h-36c-0.552 0-1-0.454-1-1.013v-36.474c0-0.56 0.448-1.013 1-1.013h36c0.552 0 1 0.454 1 1.013z" opacity=".14"/>
</g>
<path d="m43.002 42.003a1 1 0 0 1-1 1h-36a1 1 0 0 1-1-1v-36a1 1 0 0 1 1-1h36a1 1 0 0 1 1 1z" fill="url(#SVGID_1_)"/>
<path d="m8 8h32v32h-32z" fill="#362b18" fill-rule="evenodd"/>
<path id="path3267_13_" d="m13.972 12.185-2.435 13.81-3.549 0.029v1l4.495-0.029 2.016-11.419 2.892 17.876 0.553 3.09 0.553-3.069 1.243-8.478h4.278l0.63-1.935 1.998 7.131 1.473-3.196 11.877 4e-3v-1l-12.579-4e-3 -0.489 1.062-2.209-7.903-1.525 4.841h-4.417l-0.86 5.77-2.84-17.476-0.544-2.908z" fill="url(#path3267_1_)"/>
<g fill="#f0c512">
<path id="path5749_13_" d="m30.367 33.328c0 1.163 1.329 1.807 2.077 2.525 0.784-0.751 2.061-1.47 2.061-2.525 0-0.99-1.696-1.326-2.07-0.174-0.431-1.125-2.068-0.918-2.068 0.174z"/>
<text transform="scale(1.0335 .9676)" x="22.629999" y="37.005001" font-family="Arial-BoldMT" font-size="5.035px">49</text>
<path id="rect5784_13_" d="m30.251 18.995h3.31c0.228 0 0.426 0.129 0.426 0.298v0.307c0 0.169-0.197 0.395-0.426 0.395h-3.31c-0.229 0-0.265-0.226-0.265-0.395v-0.307c1e-3 -0.169 0.036-0.298 0.265-0.298z"/>
<path id="rect5814_26_" d="m30.251 16.995h3.31c0.228 0 0.426 0.18 0.426 0.35v0.307c0 0.168-0.197 0.343-0.426 0.343h-3.31c-0.229 0-0.265-0.175-0.265-0.343v-0.307c1e-3 -0.17 0.036-0.35 0.265-0.35z"/>
<path id="rect5814_25_" d="m30.251 14.995h3.31c0.228 0 0.426 0.18 0.426 0.35v0.307c0 0.168-0.197 0.343-0.426 0.343h-3.31c-0.229 0-0.265-0.175-0.265-0.343v-0.307c1e-3 -0.17 0.036-0.35 0.265-0.35z" opacity=".8"/>
<path id="rect5818_13_" d="m30.329 12.995h3.31c0.228 0 0.348 0.157 0.348 0.326v0.308c0 0.169-0.119 0.366-0.348 0.366h-3.31c-0.229 0-0.343-0.197-0.343-0.366v-0.308c1e-3 -0.169 0.114-0.326 0.343-0.326z" opacity=".608"/>
<path id="rect5820_13_" d="m30.329 10.995h3.31c0.228 0 0.348 0.161 0.348 0.331v0.308c0 0.168-0.119 0.362-0.348 0.362h-3.31c-0.229 0-0.343-0.193-0.343-0.362v-0.308c1e-3 -0.17 0.114-0.331 0.343-0.331z" opacity=".5"/>
</g>
</g>
</svg>
