<svg width="24" height="24" version="1" xmlns="http://www.w3.org/2000/svg"><defs><filter id="a" color-interpolation-filters="sRGB"><feFlood flood-color="#000" flood-opacity=".196" result="flood"/><feComposite in="flood" in2="SourceGraphic" operator="in" result="composite1"/><feGaussianBlur in="composite1" result="blur" stdDeviation=".3"/><feOffset dx="0" dy=".3" result="offset"/><feComposite in="SourceGraphic" in2="offset" result="composite2"/></filter></defs><g transform="translate(-1 1)" filter="url(#a)"><g fill="#8e8e8e"><path d="M22 14v1H3v-1zM22 12v1H3v-1zM22 10v1H3v-1zM22 8v1H3V8zM22 16v1H3v-1zM22 18v1H3v-1zM22 6v1H3V6zM22 4v1H3V4z"/><path d="M12 2h1v19h-1zM10 2h1v19h-1zM8 2h1v19H8zM6 2h1v19H6zM14 2h1v19h-1zM16 2h1v19h-1zM18 2h1v19h-1zM4 2h1v19H4zM20 2h1v19h-1z"/></g><rect transform="matrix(0 -1 -1 0 0 0)" x="-20.5" y="-21" width="17" height="17" rx=".85" ry="1.063" opacity=".2"/><rect transform="matrix(0 -1 -1 0 0 0)" x="-20" y="-21" width="17" height="17" rx=".85" ry="1.063" fill="#b7b7b7"/><rect x="6" y="5" width="13" height="13" rx=".929" ry=".929" fill="#d13232"/><path d="M5.063 3C4.473 3 4 3.379 4 3.85v.5c0-.471.474-.85 1.063-.85h14.875c.588 0 1.062.379 1.062.85v-.5c0-.471-.474-.85-1.063-.85z" fill="#fff" opacity=".2"/></g></svg>