<svg width="24" height="24" version="1" xmlns="http://www.w3.org/2000/svg"><defs><filter id="a" color-interpolation-filters="sRGB"><feFlood flood-color="#000" flood-opacity=".196" result="flood"/><feComposite in="flood" in2="SourceGraphic" operator="in" result="composite1"/><feGaussianBlur in="composite1" result="blur" stdDeviation=".3"/><feOffset dx="0" dy=".3" result="offset"/><feComposite in="SourceGraphic" in2="offset" result="composite2"/></filter></defs><g transform="translate(1 1)" filter="url(#a)"><g transform="matrix(.5 0 0 .5 -1 -.5)"><rect transform="matrix(0 -1 -1 0 0 0)" x="-42.98" y="-43.98" width="39.964" height="39.964" rx="19.982" ry="19.982" fill="#6573c3"/><path d="M38.129 8.87L9.871 37.13a19.939 19.939 0 0 0 28.259 0 19.939 19.939 0 0 0 0-28.26z" opacity=".1"/><path d="M24 3.018A19.938 19.938 0 0 0 4.018 23c0 .168-.004.333 0 .5C4.282 12.663 13.098 4.017 24 4.017s19.718 8.646 19.982 19.482c.004-.167 0-.332 0-.5A19.938 19.938 0 0 0 24 3.02z" fill="#fff" opacity=".2"/><path d="M9.87 37.129l12.364-15.895 3.532 3.532z" fill="#f2f2f2"/><path d="M38.129 8.87L22.234 21.235l3.532 3.532z" fill="#f34235"/><path d="M38.129 8.87L9.871 37.13a19.939 19.939 0 0 1 0-28.26 19.939 19.939 0 0 1 28.259 0z" fill="#fff" opacity=".2"/></g><path d="M1.015 11.263c-.002.082-.006.164-.006.246 0 5.535 4.456 9.99 9.99 9.99s9.991-4.455 9.991-9.99c0-.083-.004-.164-.006-.246-.13 5.42-4.532 9.746-9.985 9.746s-9.854-4.326-9.984-9.746z" opacity=".2"/></g></svg>