<svg width="24" height="24" version="1.1" viewBox="0 0 24 24" xmlns="http://www.w3.org/2000/svg"><defs><filter id="a" color-interpolation-filters="sRGB"><feFlood flood-color="#000" flood-opacity=".196" result="flood"/><feComposite in="flood" in2="SourceGraphic" operator="in" result="composite1"/><feGaussianBlur in="composite1" result="blur" stdDeviation=".3"/><feOffset dx="0" dy=".3" result="offset"/><feComposite in="SourceGraphic" in2="offset" result="composite2"/></filter></defs><g fill-rule="evenodd" filter="url(#a)"><path d="M19 22H5s-1 0-1-1V3c0-1 1-1 1-1h10.005L20 7v14c0 1-1 1-1 1z" fill="#e5b400"/><path d="M13.658 13H10.02v-.444c.32-.02.586-.063.797-.125.211-.063.317-.14.317-.232a.944.944 0 0 0-.05-.281l-.726-1.989h-3.06c-.114.292-.207.546-.28.763s-.136.417-.193.6c-.053.18-.09.326-.11.438-.021.113-.032.205-.032.276 0 .166.13.296.388.387s.55.146.874.163V13H4.658v-.444a2.55 2.55 0 0 0 .4-.072c.16-.04.291-.093.394-.16.164-.112.291-.23.382-.353.09-.123.178-.293.264-.51.44-1.113.924-2.364 1.453-3.752L8.967 4h.493l2.911 7.655c.062.163.132.294.21.394.078.1.186.198.326.294.094.059.217.108.37.147s.278.062.381.066zm-3.469-3.76L8.853 5.822 7.542 9.24zm9.515 3.491c-.195.07-.366.128-.513.172s-.314.066-.5.066c-.323 0-.581-.076-.774-.229s-.316-.374-.37-.666h-.037c-.27.3-.558.53-.867.688-.309.159-.68.238-1.115.238-.46 0-.838-.142-1.135-.425-.296-.284-.444-.655-.444-1.114 0-.238.033-.45.1-.638s.165-.357.298-.507c.103-.125.24-.237.41-.335.17-.098.33-.176.478-.234.187-.071.565-.202 1.135-.394s.954-.342 1.152-.45v-.62c0-.054-.01-.159-.034-.313s-.071-.3-.146-.438a1.243 1.243 0 0 0-.35-.403c-.152-.115-.367-.172-.644-.172-.19 0-.368.032-.531.097a.963.963 0 0 0-.345.203c0 .083.02.206.059.37s.059.312.059.45c0 .145-.066.279-.196.4s-.312.181-.544.181c-.207 0-.36-.074-.457-.222a.885.885 0 0 1-.146-.497c0-.192.068-.376.202-.55s.31-.332.525-.47c.187-.117.413-.216.678-.297.265-.081.524-.122.777-.122.348 0 .651.024.91.072.26.048.494.151.706.31.21.154.371.363.481.628.11.265.165.606.165 1.023 0 .597-.006 1.125-.019 1.586-.012.461-.018.965-.018 1.51 0 .164.028.293.083.389a.682.682 0 0 0 .258.244.63.63 0 0 0 .296.062c.134.005.272.007.413.007zm-2.17-3.28c-.351.104-.66.205-.925.305s-.512.224-.74.373c-.207.14-.37.307-.49.5s-.18.422-.18.687c0 .344.09.596.27.758s.409.242.686.242c.294 0 .553-.071.777-.214s.412-.312.566-.507z" fill="#fff"/><path d="M16 7s-1 0-1-1V2l5 5z" fill="#ffe587"/></g></svg>