<svg width="24" height="24" version="1" xmlns="http://www.w3.org/2000/svg"><defs><filter id="a" color-interpolation-filters="sRGB"><feFlood flood-color="#000" flood-opacity=".196" result="flood"/><feComposite in="flood" in2="SourceGraphic" operator="in" result="composite1"/><feGaussianBlur in="composite1" result="blur" stdDeviation=".3"/><feOffset dx="0" dy=".3" result="offset"/><feComposite in="SourceGraphic" in2="offset" result="composite2"/></filter></defs><g transform="translate(1 1)" filter="url(#a)"><path d="M21 19V3c0-.554-.446-1-1-1H2c-.554 0-1 .446-1 1v16c0 .554.446 1 1 1h18c.554 0 1-.446 1-1z" fill="#4789d2"/><path d="M5.492 3.994a.5.5 0 0 0-.406.227c-.51.763-1.045 1.788-1.557 2.72l-.582-1.166a.5.5 0 1 0-.894.448l1 2a.5.5 0 0 0 .88.027c.65-1.124 1.387-2.581 1.983-3.473a.5.5 0 0 0-.424-.783zM7 5.5c-.554 0-1 .446-1 1s.446 1 1 1h11c.554 0 1-.446 1-1s-.446-1-1-1H7zm-3 5a1 1 0 0 0-1 1 1 1 0 0 0 1 1 1 1 0 0 0 1-1 1 1 0 0 0-1-1zm3 0c-.554 0-1 .446-1 1s.446 1 1 1h11c.554 0 1-.446 1-1s-.446-1-1-1H7zm-3 5a1 1 0 0 0-1 1 1 1 0 0 0 1 1 1 1 0 0 0 1-1 1 1 0 0 0-1-1zm3 0c-.554 0-1 .446-1 1s.446 1 1 1h11c.554 0 1-.446 1-1s-.446-1-1-1H7z" fill-rule="evenodd" opacity=".2"/><path d="M5.492 3.494a.5.5 0 0 0-.406.227c-.51.763-1.045 1.788-1.557 2.72l-.582-1.166a.5.5 0 1 0-.894.448l1 2a.5.5 0 0 0 .88.027c.65-1.124 1.387-2.581 1.983-3.473a.5.5 0 0 0-.424-.783zM7 5c-.554 0-1 .446-1 1s.446 1 1 1h11c.554 0 1-.446 1-1s-.446-1-1-1H7zm-3 5a1 1 0 0 0-1 1 1 1 0 0 0 1 1 1 1 0 0 0 1-1 1 1 0 0 0-1-1zm3 0c-.554 0-1 .446-1 1s.446 1 1 1h11c.554 0 1-.446 1-1s-.446-1-1-1H7zm-3 5a1 1 0 0 0-1 1 1 1 0 0 0 1 1 1 1 0 0 0 1-1 1 1 0 0 0-1-1zm3 0c-.554 0-1 .446-1 1s.446 1 1 1h11c.554 0 1-.446 1-1s-.446-1-1-1H7z" fill="#ffdd73" fill-rule="evenodd"/><path d="M1 19v.5c0 .554.446 1 1 1h18c.554 0 1-.446 1-1V19c0 .554-.446 1-1 1H2c-.554 0-1-.446-1-1z" opacity=".2"/><path d="M2 2c-.554 0-1 .446-1 1v.5c0-.554.446-1 1-1h18c.554 0 1 .446 1 1V3c0-.554-.446-1-1-1H2z" fill="#fff" opacity=".2"/></g></svg>