<svg width="24" height="24" version="1" xmlns="http://www.w3.org/2000/svg"><defs><filter id="a" color-interpolation-filters="sRGB"><feFlood flood-color="#000" flood-opacity=".196" result="flood"/><feComposite in="flood" in2="SourceGraphic" operator="in" result="composite1"/><feGaussianBlur in="composite1" result="blur" stdDeviation=".3"/><feOffset dx="0" dy=".3" result="offset"/><feComposite in="SourceGraphic" in2="offset" result="composite2"/></filter></defs><g filter="url(#a)"><rect transform="matrix(0 -1 -1 0 0 0)" x="-22.5" y="-22" width="20" height="20" rx="10" ry="10" opacity=".2"/><rect transform="matrix(0 -1 -1 0 0 0)" x="-22" y="-22" width="20" height="20" rx="10" ry="10" fill="#1da6e8"/><path d="M14 16l-6-4 6-4" fill="none" opacity=".4" stroke="#000" stroke-width="1.5"/><path d="M14 6.5a2 2 0 0 0-2 2 2 2 0 0 0 2 2 2 2 0 0 0 2-2 2 2 0 0 0-2-2zm-6 4a2 2 0 0 0-2 2 2 2 0 0 0 2 2 2 2 0 0 0 2-2 2 2 0 0 0-2-2zm6 4a2 2 0 0 0-2 2 2 2 0 0 0 2 2 2 2 0 0 0 2-2 2 2 0 0 0-2-2z" fill-rule="evenodd" opacity=".2"/><path d="M14 6a2 2 0 0 0-2 2 2 2 0 0 0 2 2 2 2 0 0 0 2-2 2 2 0 0 0-2-2zm-6 4a2 2 0 0 0-2 2 2 2 0 0 0 2 2 2 2 0 0 0 2-2 2 2 0 0 0-2-2zm6 4a2 2 0 0 0-2 2 2 2 0 0 0 2 2 2 2 0 0 0 2-2 2 2 0 0 0-2-2z" fill="#fff" fill-rule="evenodd"/><path d="M12 2C6.46 2 2 6.46 2 12c0 .084.01.166.012.25C2.145 6.828 6.544 2.5 12 2.5s9.855 4.328 9.988 9.75c.002-.084.012-.166.012-.25 0-5.54-4.46-10-10-10z" fill="#fff" opacity=".2"/></g></svg>