<svg width="24" height="24" version="1.1" viewBox="0 0 24 24" xmlns="http://www.w3.org/2000/svg"><defs><filter id="a" color-interpolation-filters="sRGB"><feFlood flood-color="#000" flood-opacity=".196" result="flood"/><feComposite in="flood" in2="SourceGraphic" operator="in" result="composite1"/><feGaussianBlur in="composite1" result="blur" stdDeviation=".3"/><feOffset dx="0" dy=".3" result="offset"/><feComposite in="SourceGraphic" in2="offset" result="composite2"/></filter></defs><g filter="url(#a)"><rect x="2" y="2.5" width="20" height="20" rx="1" ry="1" opacity=".2"/><rect x="2" y="2" width="20" height="20" rx="1" ry="1" fill="#4ab3e4"/><rect x="11" y="3.5" width="2" height="18" rx=".5" ry=".5" fill="#fff" opacity=".2"/><rect x="11" y="3" width="2" height="18" rx=".5" ry=".5" fill="#4f4f4f"/><path d="M7 13.5v2l-4-3 4-3v2h3v2z" opacity=".2"/><path d="M7 13v2l-4-3 4-3v2h3v2z" fill="#b3e5fc"/><path d="M17 13.5v2l4-3-4-3v2h-3v2z" opacity=".2"/><path d="M17 13v2l4-3-4-3v2h-3v2z" fill="#b3e5fc"/><path d="M3 2c-.554 0-1 .446-1 1v.5c0-.554.446-1 1-1h18c.554 0 1 .446 1 1V3c0-.554-.446-1-1-1z" fill="#fff" opacity=".2"/></g></svg>