<svg width="24" height="24" version="1.1" viewBox="0 0 24 24" xmlns="http://www.w3.org/2000/svg"><defs><filter id="a" color-interpolation-filters="sRGB"><feFlood flood-color="#000" flood-opacity=".196" result="flood"/><feComposite in="flood" in2="SourceGraphic" operator="in" result="composite1"/><feGaussianBlur in="composite1" result="blur" stdDeviation=".3"/><feOffset dx="0" dy=".3" result="offset"/><feComposite in="SourceGraphic" in2="offset" result="composite2"/></filter></defs><g filter="url(#a)"><path d="M7.007 17.5v3c0 1 1 1 1 1h12s1 0 1-1v-3h-12z" opacity=".2"/><path d="M21.007 17h-2v4h1s1 0 1-1z" fill="#38732b"/><path fill="#ff0" d="M13.01 17h2v4h-2z"/><path fill="#38732b" d="M11.01 17h2v4h-2z"/><path fill="#ff0" d="M9.01 17h2v4h-2z"/><path d="M7.007 17h2v4h-1s-1 0-1-1z" fill="#38732b"/><path fill="#ff0" d="M17.01 17h2v4h-2z"/><path fill="#38732b" d="M15.01 17h2v4h-2z"/><rect transform="matrix(0 -1 -1 0 0 0)" x="-19.5" y="-23.01" width="16" height="20" rx="1" ry="1" opacity=".2"/><rect transform="matrix(0 -1 -1 0 0 0)" x="-19" y="-23.01" width="16" height="20" rx="1" ry="1" fill="#5bbd41"/><g fill="none" stroke-linecap="round" stroke-linejoin="round"><path d="M8.01 6.5h7l-7 9h7" opacity=".1" stroke="#00090e" stroke-width="2"/><path d="M8.01 6h7l-7 9h7" stroke="#3f3f3f" stroke-width="2"/><path d="M17.511 6h3l-3 4h3" opacity=".1" stroke="#00090e" stroke-width="1"/><path d="M17.511 5.5h3l-3 4h3" stroke="#3f3f3f" stroke-width="1"/></g><path d="M4.007 3c-.554 0-1 .446-1 1v.5c0-.554.446-1 1-1h18c.554 0 1 .446 1 1V4c0-.554-.446-1-1-1z" fill="#fff" opacity=".2"/><path d="M2.007 3.5h2v16" fill="none" opacity=".2" stroke="#000" stroke-linecap="round" stroke-linejoin="round" stroke-width="2"/><path d="M2.007 3h2v16" fill="none" stroke="#e4e4e4" stroke-linecap="round" stroke-linejoin="round" stroke-width="2"/></g></svg>