<svg width="24" height="24" version="1" xmlns="http://www.w3.org/2000/svg"><defs><filter id="a" color-interpolation-filters="sRGB"><feFlood flood-color="#000" flood-opacity=".196" result="flood"/><feComposite in="flood" in2="SourceGraphic" operator="in" result="composite1"/><feGaussianBlur in="composite1" result="blur" stdDeviation=".3"/><feOffset dx="0" dy=".3" result="offset"/><feComposite in="SourceGraphic" in2="offset" result="composite2"/></filter></defs><g transform="translate(1 1)" filter="url(#a)"><path d="M21 19V4c0-.554-.446-1-1-1H2c-.554 0-1 .446-1 1v15c0 .554.446 1 1 1h18c.554 0 1-.446 1-1z" fill="#e3af4a"/><rect x="4" y="6.5" width="14" height="11" rx=".945" ry="1.001" opacity=".2"/><path d="M1 19v.5c0 .554.446 1 1 1h18c.554 0 1-.446 1-1V19c0 .554-.446 1-1 1H2c-.554 0-1-.446-1-1z" opacity=".2"/><path d="M2 3c-.554 0-1 .446-1 1v.5c0-.554.446-1 1-1h18c.554 0 1 .446 1 1V4c0-.554-.446-1-1-1H2z" fill="#fff" opacity=".2"/><rect x="4" y="6" width="14" height="11" rx=".945" ry="1.001" fill="#faff84"/><rect x="8" y="10.5" width="6" height="2" rx=".992" ry=".912" opacity=".2"/><rect x="8" y="10" width="6" height="2" rx=".992" ry=".912" fill="#4e4e4e"/></g></svg>