<svg width="24" height="24" version="1" xmlns="http://www.w3.org/2000/svg"><defs><filter id="a" color-interpolation-filters="sRGB"><feFlood flood-color="#000" flood-opacity=".196" result="flood"/><feComposite in="flood" in2="SourceGraphic" operator="in" result="composite1"/><feGaussianBlur in="composite1" result="blur" stdDeviation=".3"/><feOffset dx="0" dy=".3" result="offset"/><feComposite in="SourceGraphic" in2="offset" result="composite2"/></filter></defs><g filter="url(#a)"><path d="M22 20V4c0-.554-.446-1-1-1H3c-.554 0-1 .446-1 1v16c0 .554.446 1 1 1h18c.554 0 1-.446 1-1z" fill="#316fb5"/><path d="M8.51 8.5A.5.5 0 0 0 8 9v8a.5.5 0 0 0 .748.434l7-4a.5.5 0 0 0 0-.868l-7-4.002A.5.5 0 0 0 8.51 8.5z" opacity=".2"/><path d="M8.51 8a.5.5 0 0 0-.51.5v8a.5.5 0 0 0 .748.434l7-4a.5.5 0 0 0 0-.869l-7-4a.5.5 0 0 0-.239-.067z" fill="#60e5bd"/><path d="M2 20v.5c0 .554.446 1 1 1h18c.554 0 1-.446 1-1V20c0 .554-.446 1-1 1H3c-.554 0-1-.446-1-1z" opacity=".2"/><path d="M3 3c-.554 0-1 .446-1 1v.5c0-.554.446-1 1-1h18c.554 0 1 .446 1 1V4c0-.554-.446-1-1-1H3z" fill="#fff" opacity=".1"/></g></svg>