<svg width="24" height="24" version="1" xmlns="http://www.w3.org/2000/svg" xmlns:xlink="http://www.w3.org/1999/xlink">
<defs>
<filter id="a" color-interpolation-filters="sRGB">
<feFlood flood-opacity=".196" result="flood"/>
<feComposite in="flood" in2="SourceGraphic" operator="in" result="composite1"/>
<feGaussianBlur in="composite1" result="blur" stdDeviation=".3"/>
<feOffset dx="0" dy=".3" result="offset"/>
<feComposite in="SourceGraphic" in2="offset" result="composite2"/>
</filter>
<linearGradient id="linearGradient900" x1=".29937" x2="23.701" y1="12" y2="12" gradientTransform="matrix(.59409 0 0 1.6833 3.75 1.5)" gradientUnits="userSpaceOnUse">
<stop stop-color="#628FFF" offset="0"/>
<stop stop-color="#4084FF" offset="1"/>
</linearGradient>
</defs>
<path d="m9.95 2a0.515 0.515 0 0 0-0.439 0.407l-0.422 2.14a8.076 8.076 0 0 0-2.099 1.203l-2.082-0.703a0.517 0.517 0 0 0-0.595 0.219l-2.002 3.469a0.515 0.515 0 0 0 0.11 0.625l1.659 1.453c-0.059 0.39-0.094 0.781-0.094 1.187s0.035 0.798 0.094 1.188l-1.66 1.452a0.515 0.515 0 0 0-0.11 0.625l2.004 3.469a0.517 0.517 0 0 0 0.595 0.218l2.082-0.703c0.626 0.5 1.339 0.907 2.098 1.203l0.422 2.14a0.517 0.517 0 0 0 0.485 0.407h4.008a0.517 0.517 0 0 0 0.485-0.406l0.422-2.14a8.068 8.068 0 0 0 2.098-1.204l2.082 0.703a0.517 0.517 0 0 0 0.595-0.218l2.003-3.47a0.515 0.515 0 0 0-0.11-0.624l-1.658-1.453c0.058-0.39 0.094-0.782 0.094-1.188a7.96 7.96 0 0 0-0.094-1.187l1.66-1.453a0.515 0.515 0 0 0 0.109-0.625l-2.004-3.47a0.517 0.517 0 0 0-0.594-0.218l-2.082 0.703a8.074 8.074 0 0 0-2.097-1.203l-0.423-2.14a0.517 0.517 0 0 0-0.485-0.406z" fill="url(#linearGradient900)" filter="url(#a)"/>
<path d="m12 8.5a4 4 0 1 1 0 8 4 4 0 0 1 0-8z" filter="url(#a)" opacity=".2"/>
<path d="m12 8a4 4 0 1 1 0 8 4 4 0 0 1 0-8z" fill="#fff" filter="url(#a)"/>
<path d="m9.898 2a0.52 0.52 0 0 0-0.45 0.402l-0.433 2.118a8.357 8.357 0 0 0-2.152 1.19l-2.133-0.695a0.54 0.54 0 0 0-0.61 0.216l-2.056 3.432c0.028 0.049 0.068 0.086 0.113 0.123l0.08 0.062 1.862-3.122a0.54 0.54 0 0 1 0.61-0.217l2.135 0.696a8.352 8.352 0 0 1 2.15-1.19l0.434-2.118a0.52 0.52 0 0 1 0.45-0.402 0.78 0.78 0 0 1 0.047 0h4.11c0.234 3e-3 0.453 0.18 0.497 0.402l0.434 2.117c0.778 0.293 1.509 0.696 2.15 1.19l2.135-0.695a0.54 0.54 0 0 1 0.61 0.216l1.862 3.123 0.08-0.062a0.452 0.452 0 0 0 0.113-0.124l-2.056-3.431a0.54 0.54 0 0 0-0.61-0.217l-2.135 0.696a8.357 8.357 0 0 0-2.15-1.19l-0.434-2.118a0.525 0.525 0 0 0-0.497-0.402h-4.109a0.78 0.78 0 0 0-0.048 0zm-7.882 6.987c0.01 0.058 0.02 0.119 0.048 0.17-0.028-0.05-0.038-0.114-0.048-0.17zm19.968 0c-0.01 0.056-0.02 0.12-0.048 0.17a0.506 0.506 0 0 0 0.048-0.17zm-18.154 2.18c-0.016 0.158-0.023 0.318-0.032 0.478 3e-3 0.084 0.011 0.165 0.016 0.248a7.12 7.12 0 0 1 0.064-0.68l-0.048-0.047zm16.34 0-0.048 0.046c0.035 0.223 0.05 0.452 0.064 0.68 5e-3 -0.083 0.013-0.164 0.016-0.248-9e-3 -0.16-0.016-0.32-0.032-0.479zm-16.34 1.946-1.653 1.391a0.452 0.452 0 0 0-0.113 0.124l0.193 0.31 1.621-1.377c-0.023-0.148-0.033-0.3-0.048-0.449zm16.34 0c-0.015 0.148-0.025 0.301-0.048 0.448l1.621 1.376 0.193-0.31a0.452 0.452 0 0 0-0.113-0.123l-1.654-1.392zm-18.17 1.809c2e-3 0.027 0.01 0.051 0.016 0.077-7e-3 -0.026-0.014-0.05-0.016-0.077zm20 0c-3e-3 0.027-0.01 0.05-0.016 0.077 6e-3 -0.026 0.015-0.05 0.016-0.077z" fill="#fff" filter="url(#a)" opacity=".1"/>
<path d="m2.314 9.226-4e-3 8e-3a0.516 0.516 0 0 0 0.11 0.625l1.606 1.406c0.015-0.152 0.031-0.303 0.054-0.453l-1.66-1.453a0.467 0.467 0 0 1-0.106-0.132zm19.371 0a0.46 0.46 0 0 1-0.106 0.133l-1.659 1.453a9.1 9.1 0 0 1 0.054 0.453l1.606-1.405a0.516 0.516 0 0 0 0.11-0.625l-4e-3 -8e-3zm-17.69 3.024c-3e-3 0.083-0.01 0.165-0.01 0.25 0 0.25 0.017 0.493 0.04 0.734l0.054-0.047a8.31 8.31 0 0 1-0.084-0.937zm16.008 0c-0.01 0.317-0.037 0.629-0.084 0.937l0.054 0.047c0.024-0.241 0.041-0.485 0.041-0.734 0-0.085-8e-3 -0.167-0.01-0.25zm-17.69 3.023a0.52 0.52 0 0 0-2e-3 0.492l2.004 3.47a0.517 0.517 0 0 0 0.595 0.218l2.081-0.703c0.626 0.5 1.34 0.907 2.098 1.203l0.422 2.14a0.517 0.517 0 0 0 0.485 0.406h4.008a0.517 0.517 0 0 0 0.485-0.407l0.422-2.14a8.085 8.085 0 0 0 2.098-1.204l2.082 0.703a0.517 0.517 0 0 0 0.595-0.218l2.003-3.47a0.517 0.517 0 0 0-3e-3 -0.491l-2 3.46a0.517 0.517 0 0 1-0.595 0.22l-2.082-0.704c-0.626 0.5-1.34 0.907-2.098 1.204l-0.422 2.14a0.517 0.517 0 0 1-0.485 0.407h-4.008a0.516 0.516 0 0 1-0.484-0.406l-0.422-2.141a8.085 8.085 0 0 1-2.097-1.204l-2.082 0.703a0.518 0.518 0 0 1-0.595-0.219l-2-3.46z" filter="url(#a)" opacity=".2"/>
</svg>
