<svg width="24" height="24" version="1" xmlns="http://www.w3.org/2000/svg" xmlns:xlink="http://www.w3.org/1999/xlink">
<defs>
<filter id="a" color-interpolation-filters="sRGB">
<feFlood flood-opacity=".196" result="flood"/>
<feComposite in="flood" in2="SourceGraphic" operator="in" result="composite1"/>
<feGaussianBlur in="composite1" result="blur" stdDeviation=".5"/>
<feOffset dx="0" dy=".5" result="offset"/>
<feComposite in="SourceGraphic" in2="offset" result="composite2"/>
</filter>
<linearGradient id="linearGradient900" x1="-1.2" x2="25.2" y1="12" y2="12" gradientTransform="matrix(.59409 0 0 1.6833 3.75 1.5)" gradientUnits="userSpaceOnUse">
<stop stop-color="#628FFF" offset="0"/>
<stop stop-color="#4084FF" offset="1"/>
</linearGradient>
</defs>
<path d="m12 1.5-3.314 3h-4.686v4.685l-3 3.315 3 3.314v4.686h4.686l3.314 3 3.314-3h4.686v-4.686l3-3.315-3-3.314v-4.686h-4.686z" filter="url(#a)" opacity=".2"/>
<path d="m12 1-3.314 3h-4.686v4.685l-3 3.315 3 3.314v4.686h4.686l3.314 3 3.314-3h4.686v-4.686l3-3.315-3-3.314v-4.686h-4.686z" fill="url(#linearGradient900)" filter="url(#a)"/>
<path d="m12 6.5a6 6 0 0 0-6 6 6 6 0 0 0 6 6z" filter="url(#a)" opacity=".2"/>
<path d="m12 6a6 6 0 0 0-6 6 6 6 0 0 0 6 6z" fill="#fff" filter="url(#a)"/>
<path d="m12 1-3.314 3h-4.686v0.5h4.686l3.314-3 3.314 3h4.686v-0.5h-4.686zm-8 7.686-3 3.314 0.227 0.25 2.773-3.064zm16 0v0.5l2.773 3.064 0.227-0.25z" fill="#fff" filter="url(#a)" opacity=".1"/>
</svg>
