<svg width="24" height="24" version="1" xmlns="http://www.w3.org/2000/svg"><defs><filter id="a" color-interpolation-filters="sRGB"><feFlood flood-color="#000" flood-opacity=".196" result="flood"/><feComposite in="flood" in2="SourceGraphic" operator="in" result="composite1"/><feGaussianBlur in="composite1" result="blur" stdDeviation=".3"/><feOffset dx="0" dy=".3" result="offset"/><feComposite in="SourceGraphic" in2="offset" result="composite2"/></filter></defs><g transform="translate(1 1)" filter="url(#a)"><path d="M2 2c-.554 0-1 .446-1 1v16c0 .554.446 1 1 1h18c.554 0 1-.446 1-1V3c0-.554-.446-1-1-1H2z" fill="#4ab3e4"/><path d="M2 2c-.554 0-1 .446-1 1v1c0-.554.446-1.5 1-1.5h18c.554 0 1 .946 1 1.5V3c0-.554-.446-1-1-1z" fill="#fff" opacity=".2"/><path d="M1 19v.5c0 .554.446 1 1 1h18c.554 0 1-.446 1-1V19c0 .554-.446 1-1 1H2c-.554 0-1-.446-1-1zM13.5 4.5A1.5 1.5 0 0 0 12 6a1.5 1.5 0 0 0 1.5 1.5A1.5 1.5 0 0 0 15 6a1.5 1.5 0 0 0-1.5-1.5zm-4.164 1a3.707 3.707 0 0 0-.842.095c-1.94.48-3.901 1.386-4.896 3.465-1.525 3.377-.028 7.369 3.338 8.899 1.86.83 3.622.752 5.084-.559.43-.393.782-.843.922-1.49.278-1.287-.397-3.104-3.121-4.342-2.563-1.165-3.046-2.89-2.682-4.015.368-1.135 1.72-2.16 3.82-1.727.225.048.446.109.665.182-.421-.284-1.395-.516-2.287-.508zm7.165 2A1.5 1.5 0 0 0 15 9a1.5 1.5 0 0 0 1.5 1.5A1.5 1.5 0 0 0 18 9a1.5 1.5 0 0 0-1.5-1.5zm1 4A1.5 1.5 0 0 0 16 13a1.5 1.5 0 0 0 1.5 1.5A1.5 1.5 0 0 0 19 13a1.5 1.5 0 0 0-1.5-1.5z" opacity=".2"/><path d="M13.5 4A1.5 1.5 0 0 0 12 5.5 1.5 1.5 0 0 0 13.5 7 1.5 1.5 0 0 0 15 5.5 1.5 1.5 0 0 0 13.5 4zM9.336 5a3.707 3.707 0 0 0-.842.095c-1.94.48-3.901 1.386-4.896 3.465-1.525 3.377-.028 7.369 3.338 8.899 1.86.83 3.622.752 5.084-.559.43-.393.782-.843.922-1.49.278-1.287-.397-3.104-3.121-4.342-2.563-1.165-3.046-2.89-2.682-4.015.368-1.135 1.72-2.16 3.82-1.727.225.048.446.109.665.182-.421-.284-1.395-.516-2.287-.508zm7.165 2A1.5 1.5 0 0 0 15 8.5a1.5 1.5 0 0 0 1.5 1.5A1.5 1.5 0 0 0 18 8.5 1.5 1.5 0 0 0 16.5 7zm1 4a1.5 1.5 0 0 0-1.5 1.5 1.5 1.5 0 0 0 1.5 1.5 1.5 1.5 0 0 0 1.5-1.5 1.5 1.5 0 0 0-1.5-1.5z" fill="#fff"/></g></svg>