<svg width="24" height="24" version="1.1" viewBox="0 0 24 24" xmlns="http://www.w3.org/2000/svg" xmlns:xlink="http://www.w3.org/1999/xlink">
<defs>
<filter id="a" color-interpolation-filters="sRGB">
<feFlood flood-opacity=".196" result="flood"/>
<feComposite in="flood" in2="SourceGraphic" operator="in" result="composite1"/>
<feGaussianBlur in="composite1" result="blur" stdDeviation=".3"/>
<feOffset dx="0" dy=".3" result="offset"/>
<feComposite in="SourceGraphic" in2="offset" result="composite2"/>
</filter>
<linearGradient id="linearGradient909" x2="24" y1="11" y2="11" gradientTransform="scale(1.0541 .94871)" gradientUnits="userSpaceOnUse">
<stop stop-color="#23FFBE" offset="0"/>
<stop stop-color="#3FDA88" offset="1"/>
</linearGradient>
</defs>
<path d="m3 3c-0.554 0-1 0.446-1 1v15h20v-15c0-0.554-0.446-1-1-1z" fill="url(#linearGradient909)" filter="url(#a)"/>
<path d="m3 21c-0.554 0-1-0.446-1-1v-1h20v1c0 0.554-0.446 1-1 1z" fill="#4f4f4f" filter="url(#a)"/>
<path d="m3 3c-0.554 0-1 0.446-1 1v0.5c0-0.554 0.446-1 1-1h18c0.554 0 1 0.446 1 1v-0.5c0-0.554-0.446-1-1-1z" fill="#fff" filter="url(#a)" opacity=".1"/>
<path d="m2 20v0.5c0 0.554 0.446 1 1 1h18c0.554 0 1-0.446 1-1v-0.5c0 0.554-0.446 1-1 1h-18c-0.554 0-1-0.446-1-1z" filter="url(#a)" opacity=".2"/>
<rect x="8" y="9.5" width="8" height="6" rx=".5" ry=".5" filter="url(#a)" opacity=".2"/>
<path d="m8 10v4.5c0 0.277 0.223 0.5 0.5 0.5h7c0.277 0 0.5-0.223 0.5-0.5v-4.5z" fill="#fff" filter="url(#a)"/>
<path d="m8.5 9h7c0.277 0 0.5 0.223 0.5 0.5v0.5h-8v-0.5c0-0.277 0.223-0.5 0.5-0.5z" fill="#4f4f4f" filter="url(#a)"/>
<g transform="translate(-1,-1.5)" filter="url(#a)" opacity=".2">
<rect x="4" y="6" width="2" height="2" rx=".25" ry=".25"/>
<rect x="4" y="9" width="2" height="2" rx=".25" ry=".25"/>
<rect x="4" y="12" width="2" height="2" rx=".25" ry=".25"/>
<rect x="4" y="15" width="2" height="2" rx=".25" ry=".25"/>
</g>
<g transform="translate(1,1)" fill="#fff" filter="url(#a)">
<rect x="2" y="3" width="2" height="2" rx=".25" ry=".25"/>
<rect x="2" y="6" width="2" height="2" rx=".25" ry=".25"/>
<rect x="2" y="9" width="2" height="2" rx=".25" ry=".25"/>
<rect x="2" y="12" width="2" height="2" rx=".25" ry=".25"/>
</g>
</svg>
