<svg width="24" height="24" version="1" xmlns="http://www.w3.org/2000/svg"><defs><filter id="a" color-interpolation-filters="sRGB"><feFlood flood-color="#000" flood-opacity=".196" result="flood"/><feComposite in="flood" in2="SourceGraphic" operator="in" result="composite1"/><feGaussianBlur in="composite1" result="blur" stdDeviation=".5"/><feOffset dx="0" dy=".5" result="offset"/><feComposite in="SourceGraphic" in2="offset" result="composite2"/></filter></defs><g filter="url(#a)"><path d="M6 4.9v10.3c0 .444.357.8.8.8h14.4c.443 0 .8-.356.8-.8V4.9H6z" fill="#d3d3d3"/><path d="M6.8 2c-.443 0-.8.364-.8.816V5h16V2.816A.806.806 0 0 0 21.2 2z" fill="#5a6367"/><path d="M22 3.043v-.249A.791.791 0 0 0 21.203 2H6.797A.792.792 0 0 0 6 2.794v.25c0-.442.354-.795.797-.795h14.406c.443 0 .797.353.797.795z" fill="#fff" opacity=".1"/><path d="M6 15.204v.498c0 .442.357.798.8.798h14.4c.444 0 .8-.354.8-.796v-.5a.797.797 0 0 1-.8.798H6.8a.797.797 0 0 1-.8-.797z" opacity=".2"/><path d="M2 10.9v10.3c0 .444.357.8.8.8h14.4c.443 0 .8-.356.8-.8V10.9H2z" fill="#e4e4e4"/><path d="M2.8 8.047c-.443 0-.8.355-.8.797V11h16V8.844a.797.797 0 0 0-.8-.797H2.8z" fill="#636e73"/><path d="M2 21.204v.498c0 .443.357.798.8.798h14.4c.444 0 .8-.355.8-.797v-.498a.797.797 0 0 1-.8.797H2.8a.797.797 0 0 1-.8-.798z" opacity=".2"/></g></svg>