<svg width="24" height="24" version="1" xmlns="http://www.w3.org/2000/svg"><defs><filter id="a" color-interpolation-filters="sRGB"><feFlood flood-color="#000" flood-opacity=".196" result="flood"/><feComposite in="flood" in2="SourceGraphic" operator="in" result="composite1"/><feGaussianBlur in="composite1" result="blur" stdDeviation=".5"/><feOffset dx="0" dy=".5" result="offset"/><feComposite in="SourceGraphic" in2="offset" result="composite2"/></filter></defs><g transform="translate(1 1)" filter="url(#a)"><path d="M10.5 5.5V10H15l-4.5 7.5V13H6z" fill="#fff" opacity=".2"/><path d="M11 1C5.46 1 1 5.46 1 11s4.46 10 10 10 10-4.46 10-10S16.54 1 11 1z" fill="#fecd38"/><path d="M11 1C5.46 1 1 5.46 1 11v.25C1.134 5.827 5.545 1.5 11 1.5s9.867 4.327 10 9.75V11c0-5.54-4.46-10-10-10z" fill="#fff" opacity=".2"/><path d="M11 5v4h4l-5 8v-4H6z" fill="#3f3f3f"/><path d="M1.007 11.25c-.002.084-.006.166-.006.25 0 5.54 4.46 10 9.999 10s10-4.46 10-10c0-.084-.005-.167-.007-.25A9.975 9.975 0 0 1 11 21a9.975 9.975 0 0 1-9.993-9.75z" opacity=".2"/></g></svg>