<svg width="24" height="24" version="1.1" viewBox="0 0 24 24" xmlns="http://www.w3.org/2000/svg"><defs><filter id="a" color-interpolation-filters="sRGB"><feFlood flood-color="#000" flood-opacity=".196" result="flood"/><feComposite in="flood" in2="SourceGraphic" operator="in" result="composite1"/><feGaussianBlur in="composite1" result="blur" stdDeviation=".5"/><feOffset dx="0" dy=".5" result="offset"/><feComposite in="SourceGraphic" in2="offset" result="composite2"/></filter></defs><g filter="url(#a)"><path d="M3 3c-.554 0-1 .446-1 1v16c0 .554.446 1 1 1h18c.554 0 1-.446 1-1V4c0-.554-.446-1-1-1H3z" fill="#8b346f"/><path d="M3 3c-.554 0-1 .446-1 1v16c0 .554.446 1 1 1h3V3H3z" opacity=".2"/><path d="M3 3c-.554 0-1 .446-1 1v.5c0-.554.446-1 1-1h18c.554 0 1 .446 1 1V4c0-.554-.446-1-1-1z" fill="#fff" opacity=".1"/><path d="M2 20v.5c0 .554.446 1 1 1h18c.554 0 1-.446 1-1V20c0 .554-.446 1-1 1H3c-.554 0-1-.446-1-1z" opacity=".2"/><g transform="translate(-1 -1.5)" opacity=".2"><rect x="4" y="6" width="2" height="2" rx=".25" ry=".25"/><rect x="4" y="9" width="2" height="2" rx=".25" ry=".25"/><rect x="4" y="12" width="2" height="2" rx=".25" ry=".25"/><rect x="4" y="15" width="2" height="2" rx=".25" ry=".25"/></g><g fill="#fff"><rect x="3" y="4" width="2" height="2" rx=".25" ry=".25"/><rect x="3" y="7" width="2" height="2" rx=".25" ry=".25"/><rect x="3" y="10" width="2" height="2" rx=".25" ry=".25"/><rect x="3" y="13" width="2" height="2" rx=".25" ry=".25"/></g></g></svg>