<svg width="24" height="24" version="1" xmlns="http://www.w3.org/2000/svg"><defs><filter id="a" color-interpolation-filters="sRGB"><feFlood flood-color="#000" flood-opacity=".196" result="flood"/><feComposite in="flood" in2="SourceGraphic" operator="in" result="composite1"/><feGaussianBlur in="composite1" result="blur" stdDeviation=".3"/><feOffset dx="0" dy=".3" result="offset"/><feComposite in="SourceGraphic" in2="offset" result="composite2"/></filter></defs><g filter="url(#a)"><path d="M12 2.5l-.029.001h-.003C8.48 2.521 5 5.842 5 8.334v8.24C5 19.96 7.625 22.5 12 22.5s7-2.539 7-5.925V8.561c0-2.59-3.495-6.037-7-6.058z" opacity=".2"/><path d="M12 2l-.029.001h-.003C8.48 2.021 5 5.342 5 7.834v8.24C5 19.46 7.625 22 12 22s7-2.539 7-5.925V8.061c0-2.59-3.495-6.037-7-6.058z" fill="#4f4f4f"/><path d="M12 2l-.028.001h-.004C8.48 2.021 5 5.341 5 7.834V12h14V8.061c0-2.59-3.495-6.037-7-6.058z" opacity=".1"/><path d="M12 2l-.028.001h-.004C8.48 2.021 5 5.341 5 7.834V12h7V2.003z" opacity=".1"/><path d="M12 5.5c.551 0 1 .48 1 1.072v2.857c0 .591-.449 1.071-1 1.071s-1-.48-1-1.072V6.571c0-.591.449-1.071 1-1.071" opacity=".2"/><path d="M12 5c.551 0 1 .48 1 1.072v2.857C13 9.52 12.551 10 12 10s-1-.48-1-1.072V6.071C11 5.48 11.449 5 12 5" fill="#e4e4e4"/><path d="M12 2l-.03.002h-.001C8.479 2.022 5 5.342 5 7.834v.5c0-2.492 3.48-5.812 6.969-5.832h.002L12 2.5v.002c3.505.02 7 3.469 7 6.059v-.5c0-2.59-3.495-6.038-7-6.059V2z" fill="#fff" opacity=".1"/></g></svg>