<svg width="24" height="24" version="1" xmlns="http://www.w3.org/2000/svg"><defs><filter id="a" color-interpolation-filters="sRGB"><feFlood flood-color="#000" flood-opacity=".196" result="flood"/><feComposite in="flood" in2="SourceGraphic" operator="in" result="composite1"/><feGaussianBlur in="composite1" result="blur" stdDeviation=".3"/><feOffset dx="0" dy=".3" result="offset"/><feComposite in="SourceGraphic" in2="offset" result="composite2"/></filter></defs><g filter="url(#a)"><path d="M12 2C8.676 2 6 4.676 6 8v2h2V8c0-2.216 1.784-4 4-4s4 1.784 4 4v2h2V8c0-3.324-2.676-6-6-6z" fill="#d2d2d2"/><rect transform="matrix(0 -1 -1 0 0 0)" x="-22" y="-20" width="12" height="16" rx="1" ry="1" fill="#ffb437"/><path d="M12 2C8.676 2 6 4.676 6 8v.5c0-3.324 2.676-6 6-6s6 2.676 6 6V8c0-3.324-2.676-6-6-6zM5 10c-.554 0-1 .446-1 1v.5c0-.554.446-1 1-1h14c.554 0 1 .446 1 1V11c0-.554-.446-1-1-1z" fill="#fff" opacity=".2"/><path d="M12 4C9.784 4 8 5.784 8 8v.5c0-2.216 1.784-4 4-4s4 1.784 4 4V8c0-2.216-1.784-4-4-4z" opacity=".2"/><rect x="4" y="12" width="16" height="7" rx="0" ry="0" fill="#fed96a"/><path d="M4 21v.5c0 .554.446 1 1 1h14c.554 0 1-.446 1-1V21c0 .554-.446 1-1 1H5c-.554 0-1-.446-1-1z" opacity=".2"/></g></svg>