<svg width="24" height="24" version="1" xmlns="http://www.w3.org/2000/svg"><defs><filter id="a" color-interpolation-filters="sRGB"><feFlood flood-color="#000" flood-opacity=".196" result="flood"/><feComposite in="flood" in2="SourceGraphic" operator="in" result="composite1"/><feGaussianBlur in="composite1" result="blur" stdDeviation=".3"/><feOffset dx="0" dy=".3" result="offset"/><feComposite in="SourceGraphic" in2="offset" result="composite2"/></filter></defs><g transform="translate(1 1)" filter="url(#a)"><rect transform="matrix(0 -1 -1 0 0 0)" x="-21" y="-21" width="20" height="19.998" rx="10" ry="9.999" fill="#37dbad"/><path d="M11 5.5a6 6 0 0 0 0 12h3.75s.703 0 .75-.75c0-.75-.75-.75-.75-.75H11a4.5 4.5 0 1 1 4.5-4.5v.75a.75.75 0 0 1-1.5 0v-.75a3 3 0 1 0-3 3c.784 0 1.493-.308 2.027-.801a2.25 2.25 0 0 0 3.972-1.448v-.751a6 6 0 0 0-6-6zm0 4.5a1.5 1.5 0 1 1 0 3 1.5 1.5 0 0 1 0-3z" opacity=".2"/><path d="M11.001 5a6 6 0 0 0 0 12h3.75s.703 0 .75-.75c0-.75-.75-.75-.75-.75h-3.75a4.5 4.5 0 1 1 4.5-4.5v.75a.75.75 0 0 1-1.5 0V11a3 3 0 1 0-3 3c.784 0 1.493-.308 2.027-.801A2.25 2.25 0 0 0 17 11.75v-.751a6 6 0 0 0-5.999-6zm0 4.5a1.5 1.5 0 1 1 0 3 1.5 1.5 0 0 1 0-3z" fill="#fff"/><path d="M11 1C5.46 1 1 5.46 1 11v.25C1.134 5.827 5.545 1.5 11 1.5s9.867 4.327 10 9.75V11c0-5.54-4.46-10-10-10z" fill="#fff" opacity=".2"/><path d="M1.007 11.25c-.002.084-.006.166-.006.25 0 5.54 4.46 10 9.999 10s10-4.46 10-10c0-.084-.005-.167-.007-.25A9.975 9.975 0 0 1 11 21a9.975 9.975 0 0 1-9.993-9.75z" opacity=".2"/></g></svg>