<svg width="24" height="24" version="1" xmlns="http://www.w3.org/2000/svg"><defs><filter id="a" color-interpolation-filters="sRGB"><feFlood flood-color="#000" flood-opacity=".196" result="flood"/><feComposite in="flood" in2="SourceGraphic" operator="in" result="composite1"/><feGaussianBlur in="composite1" result="blur" stdDeviation=".3"/><feOffset dx="0" dy=".3" result="offset"/><feComposite in="SourceGraphic" in2="offset" result="composite2"/></filter></defs><g transform="translate(1 1)" filter="url(#a)"><path d="M11 1C5.46 1 1 5.46 1 11s4.46 10 10 10 10-4.46 10-10S16.54 1 11 1z" fill="#fecd38"/><path d="M11 1C5.46 1 1 5.46 1 11v.25C1.134 5.827 5.545 1.5 11 1.5s9.867 4.327 10 9.75V11c0-5.54-4.46-10-10-10z" fill="#fff" opacity=".2"/><path d="M7.5 7A1.5 1.5 0 0 0 6 8.5 1.5 1.5 0 0 0 7.5 10 1.5 1.5 0 0 0 9 8.5 1.5 1.5 0 0 0 7.5 7zm7 0A1.5 1.5 0 0 0 13 8.5a1.5 1.5 0 0 0 1.5 1.5A1.5 1.5 0 0 0 16 8.5 1.5 1.5 0 0 0 14.5 7zM7 14a4.625 6 0 0 0 4.002 3A4.625 6 0 0 0 15 14h-.56a4.625 6 0 0 1-3.438 2 4.625 6 0 0 1-3.438-2H7z" fill="#3f3f3f"/><path d="M1.007 11.25c-.002.084-.006.166-.006.25 0 5.54 4.46 10 9.999 10s10-4.46 10-10c0-.084-.005-.167-.007-.25A9.975 9.975 0 0 1 11 21a9.975 9.975 0 0 1-9.993-9.75z" opacity=".2"/></g></svg>