<svg width="24" height="24" version="1" xmlns="http://www.w3.org/2000/svg"><defs><filter id="a" color-interpolation-filters="sRGB"><feFlood flood-color="#000" flood-opacity=".196" result="flood"/><feComposite in="flood" in2="SourceGraphic" operator="in" result="composite1"/><feGaussianBlur in="composite1" result="blur" stdDeviation=".5"/><feOffset dx="0" dy=".5" result="offset"/><feComposite in="SourceGraphic" in2="offset" result="composite2"/></filter></defs><g transform="translate(1 1)" filter="url(#a)"><path d="M15.003 1a7.921 7.889 0 0 1-6.254 5.073 7.921 7.889 0 0 1 .105 1.253 7.921 7.889 0 0 1-7.848 7.885 10.533 10.533 0 0 0 9.432 5.79C16.29 21 21 16.308 21 10.481c0-4.195-2.447-7.79-5.997-9.481z" fill="#dfbe57"/><path d="M20.991 10.769c-.166 5.68-4.808 10.205-10.553 10.205a10.535 10.535 0 0 1-9.152-5.266L1 15.712l.043.086a10.54 10.54 0 0 0 9.395 5.703C16.29 21.5 21 16.81 21 10.983c0-.072-.007-.142-.008-.213z" opacity=".2"/><path d="M15.003 1a7.921 7.889 0 0 1-6.254 5.073 7.921 7.889 0 0 1 .059.515 7.921 7.889 0 0 0 6.195-5.062c3.489 1.662 5.908 5.165 5.99 9.267.003-.104.007-.207.007-.311C21 6.287 18.553 2.69 15.003 1zm-6.16 6.533a7.921 7.889 0 0 1-7.837 7.678c.088.175.185.346.283.515a7.921 7.889 0 0 0 7.565-7.874 7.921 7.889 0 0 0-.01-.32z" fill="#fff" opacity=".2"/></g></svg>