<svg width="24" height="24" version="1.1" xmlns="http://www.w3.org/2000/svg"><defs><filter id="a" color-interpolation-filters="sRGB"><feFlood flood-color="#000" flood-opacity=".196" result="flood"/><feComposite in="flood" in2="SourceGraphic" operator="in" result="composite1"/><feGaussianBlur in="composite1" result="blur" stdDeviation=".3"/><feOffset dx="0" dy=".3" result="offset"/><feComposite in="SourceGraphic" in2="offset" result="composite2"/></filter></defs><g transform="translate(1 1)" filter="url(#a)"><path d="M21 11a10 10 0 0 1-10 10A10 10 0 0 1 1 11 10 10 0 0 1 11 1a10 10 0 0 1 10 10z" fill="#f56e2c"/><path d="M20.99 11.209A10 10 0 0 1 11 21a10 10 0 0 1-9.989-9.709A10 10 0 0 0 1 11.5a10 10 0 0 0 10 10 10 10 0 0 0 10-10 10 10 0 0 0-.01-.291z" opacity=".2"/><path d="M11 1A10 10 0 0 0 1 11a10 10 0 0 0 .01.291A10 10 0 0 1 11 1.5a10 10 0 0 1 9.989 9.709 10 10 0 0 0 .01-.209A10 10 0 0 0 11 1z" fill="#fff" opacity=".2"/><path d="M8 5.5v12h7v-3h-4v-9H8z" opacity=".2"/><path d="M8 5v12h7v-3h-4V5H8z" fill="#fff"/></g></svg>