<svg width="24px" height="24px" version="1.1" viewBox="0 0 24 24" xmlns="http://www.w3.org/2000/svg" xmlns:xlink="http://www.w3.org/1999/xlink">
<title>application-x-zip</title>
<desc>Created with Sketch.</desc>
<defs>
<path id="path-1" d="m5.25 4.0625c0-0.31066 0.25184-0.5625 0.5625-0.5625h4.875c0.31066 0 0.5625 0.25184 0.5625 0.5625v-3c0-0.31066 0.25184-0.5625 0.5625-0.5625h3.875c0.31066 0 0.5625 0.25184 0.5625 0.5625v18.875c0 0.31066-0.25184 0.5625-0.5625 0.5625h-3.875c-0.31066 0-0.5625-0.25184-0.5625-0.5625 0 0.31066-0.25184 0.5625-0.5625 0.5625h-4.875c-0.31066 0-0.5625-0.25184-0.5625-0.5625v0.0625c0 0.27614-0.22386 0.5-0.5 0.5h-4c-0.27614 0-0.5-0.22386-0.5-0.5v-17c0-0.27614 0.22386-0.5 0.5-0.5h4c0.27614 0 0.5 0.22386 0.5 0.5v1.0625z"/>
<filter id="filter-2" x="-9.4%" y="-7.5%" width="118.8%" height="115%">
<feOffset dx="0" dy="0" in="SourceAlpha" result="shadowOffsetOuter1"/>
<feGaussianBlur in="shadowOffsetOuter1" result="shadowBlurOuter1" stdDeviation="0.5"/>
<feComposite in="shadowBlurOuter1" in2="SourceAlpha" operator="out" result="shadowBlurOuter1"/>
<feColorMatrix in="shadowBlurOuter1" values="0 0 0 0 0   0 0 0 0 0   0 0 0 0 0  0 0 0 0.2 0"/>
</filter>
<linearGradient id="linearGradient-3" x1="32.347" x2="22.653" y1="5.0975" y2="5.0975" gradientTransform="matrix(.5 0 0 2 3.75 1.5)" gradientUnits="userSpaceOnUse">
<stop stop-color="#C926EA" offset="0"/>
<stop stop-color="#B505C3" offset="1"/>
</linearGradient>
<linearGradient id="linearGradient-4" x1="18.882" x2="9.2408" y1="7.1841" y2="7.1841" gradientTransform="matrix(.59409 0 0 1.6833 3.75 1.5)" gradientUnits="userSpaceOnUse">
<stop stop-color="#628FFF" offset="0"/>
<stop stop-color="#4084FF" offset="1"/>
</linearGradient>
<linearGradient id="linearGradient-5" x1="9.9612" x2="1.0939" y1="6.061" y2="6.061" gradientTransform="matrix(.52705 0 0 1.8974 3.75 1.5)" gradientUnits="userSpaceOnUse">
<stop stop-color="#6DBD00" offset="0"/>
<stop stop-color="#8FBF12" offset="1"/>
</linearGradient>
</defs>
<g fill-rule="evenodd">
<g id="Combined-Shape" transform="translate(3.75,1.5)" fill="#000000">
<use width="100%" height="100%" filter="url(#filter-2)" xlink:href="#path-1"/>
<use width="100%" height="100%" fill-opacity=".1" fill-rule="evenodd" xlink:href="#path-1"/>
</g>
<rect x="15" y="2" width="5" height="20" rx=".5625" fill="url(#linearGradient-3)"/>
<path d="m 15,5.5625 v 15.875 C 15,21.74816 14.74816,22 14.4375,22 H 9.5625 C 9.2518398,22 9,21.74816 9,21.4375 V 5.5625 C 9,5.2518398 9.2518398,5 9.5625,5 h 4.875 C 14.74816,5 15,5.2518398 15,5.5625 Z" fill="url(#linearGradient-4)"/>
<rect x="4" y="4" width="5" height="18" rx=".5" fill="url(#linearGradient-5)"/>
</g>
</svg>
