<svg width="24" height="24" version="1.1" viewBox="0 0 24 24" xmlns="http://www.w3.org/2000/svg"><defs><filter id="a" x="-.045" y="-.052" width="1.089" height="1.104" color-interpolation-filters="sRGB"><feGaussianBlur stdDeviation=".298"/></filter></defs><g transform="matrix(1.25 0 0 1.25 2.006 2.68)" fill="#bfbfbf" filter="url(#a)" opacity=".5"><path d="M4 1C1.784 1 0 2.784 0 5l.008 1.91C.007 6.94 0 6.97 0 7c0 .026.007.05.008.076l.021 6.067c-.251 1.482 1.187 2.419 2.395.798L4.553 11h6.894l2.129 2.941c1.208 1.621 2.646.684 2.395-.798l.021-6.067C15.993 7.05 16 7.026 16 7c0-.024-.007-.046-.008-.07L16 5c0-2.216-1.784-4-4-4H4z"/><rect x="3" y="3" width="2" height="4" ry="0"/><rect transform="matrix(0 1 1 0 0 0)" x="4" y="2" width="2" height="4" ry="0"/><path d="M12.023 2.805a.75.75 0 0 0-.75.75.75.75 0 0 0 .75.75.75.75 0 0 0 .75-.75.75.75 0 0 0-.75-.75zM13.46 4.211a.75.75 0 0 0-.75.75.75.75 0 0 0 .75.75.75.75 0 0 0 .75-.75.75.75 0 0 0-.75-.75zM10.5 4.243a.75.75 0 0 0-.75.75.75.75 0 0 0 .75.75.75.75 0 0 0 .75-.75.75.75 0 0 0-.75-.75zM12.024 5.72a.75.75 0 0 0-.75.75.75.75 0 0 0 .75.75.75.75 0 0 0 .75-.75.75.75 0 0 0-.75-.75z"/></g><path d="M7.5 4.66A4.49 4.49 0 0 0 3 9.16l.009 2.149c-.001.034-.009.066-.009.1 0 .03.008.057.009.086l.024 6.826c-.283 1.667 1.335 2.721 2.694.897l2.395-3.308h7.756l2.395 3.308c1.359 1.824 2.977.77 2.694-.897l.024-6.826c.001-.029.009-.056.009-.085 0-.027-.008-.052-.009-.08L21 9.16a4.49 4.49 0 0 0-4.5-4.5h-9z" fill="#4f4f4f"/><g fill="#e4e4e4" transform="translate(3 3.535) scale(1.125)"><rect x="3" y="3" width="2" height="4" ry="0"/><rect transform="matrix(0 1 1 0 0 0)" x="4" y="2" width="2" height="4" ry="0"/></g><path d="M16.526 6.69a.844.844 0 0 0-.844.844.844.844 0 0 0 .844.844.844.844 0 0 0 .844-.844.844.844 0 0 0-.844-.843z" fill="#ee5353"/><path d="M18.143 8.273a.844.844 0 0 0-.844.843.844.844 0 0 0 .844.844.844.844 0 0 0 .843-.844.844.844 0 0 0-.843-.843z" fill="#ffca58"/><path d="M14.813 8.308a.844.844 0 0 0-.844.844.844.844 0 0 0 .844.843.844.844 0 0 0 .843-.843.844.844 0 0 0-.844-.844z" fill="#ee5353"/><path d="M16.527 9.97a.844.844 0 0 0-.844.843.844.844 0 0 0 .844.844.844.844 0 0 0 .844-.844.844.844 0 0 0-.844-.844z" fill="#ffca58"/></svg>