<svg width="24" height="24" version="1.1" viewBox="0 0 48 48" xmlns="http://www.w3.org/2000/svg"><defs><filter id="a" color-interpolation-filters="sRGB"><feFlood flood-color="#000" flood-opacity=".196" result="flood"/><feComposite in="flood" in2="SourceGraphic" operator="in" result="composite1"/><feGaussianBlur in="composite1" result="blur" stdDeviation=".3"/><feOffset dx="0" dy=".3" result="offset"/><feComposite in="SourceGraphic" in2="offset" result="composite2"/></filter></defs><g transform="translate(2 2)" filter="url(#a)"><path d="M14 38c1.182 2.317 4.298 4 8 4s6.818-1.683 8-4H14z" fill="#ce903c"/><path d="M6.815 23.576C6.815 31.889-3.308 38 5.803 38h32.394c9.11 0-1.012-6.111-1.012-14.424C37.185 14.303 33.135 4 22 4S6.815 14.303 6.815 23.576z" fill="#efb055"/><path d="M22 4C10.864 4 6.814 14.303 6.814 23.576c0 6.146-5.524 11.085-4.728 13.244.575-2.487 4.729-6.905 4.729-12.244C6.814 15.303 10.863 5 22 5c11.136 0 15.186 10.303 15.186 19.576 0 5.339 4.153 9.757 4.728 12.244.796-2.159-4.728-7.098-4.728-13.244C37.186 14.303 33.136 4 22 4z" fill="#fff" opacity=".1"/><path d="M2.086 36.82c-.32 1.386.456 2.18 3.717 2.18h32.394c3.261 0 4.038-.794 3.717-2.18-.281.762-1.341 1.18-3.717 1.18H5.803c-2.376 0-3.436-.418-3.717-1.18zM14 39c1.182 2.317 4.298 4 8 4s6.818-1.683 8-4h-.679c-1.473 1.782-4.18 3-7.321 3-3.14 0-5.848-1.218-7.321-3H14z" opacity=".2"/></g></svg>