<svg width="24" height="24" version="1.1" viewBox="0 0 24 24" xmlns="http://www.w3.org/2000/svg"><defs><filter id="a" color-interpolation-filters="sRGB"><feFlood flood-color="#000" flood-opacity=".196" result="flood"/><feComposite in="flood" in2="SourceGraphic" operator="in" result="composite1"/><feGaussianBlur in="composite1" result="blur" stdDeviation=".5"/><feOffset dx="0" dy=".5" result="offset"/><feComposite in="SourceGraphic" in2="offset" result="composite2"/></filter></defs><g transform="translate(1 1)" filter="url(#a)"><path d="M17.48 1.503c-2.817.032-7.163.815-8.521 2.433h-.004C7.87 5.512 7.734 11.68 8.015 11.3c2.307-3.131 7.836-6.997 11.14-8.551 1.782-.843.516-1.272-1.675-1.246zM6.957 5.026c-.712.121-3.568 2.088-2.91 5.627l.002.002c.624 1.808 4.625 4.212 4.486 3.76-1.136-3.732-1.547-6.146-1.42-9.328.003-.06-.056-.078-.158-.06zM14.76 6.61c-1.907.137-5.26 3.382-4.79 3.363 3.9-.134 6.337.09 9.38 1.036.45.14-.488-4.08-4.59-4.399zM12.697 9.99c-.1.005-.141.032-.107.08 2.228 3.201 3.36 5.369 4.219 8.438.127.455 3.163-2.623 1.203-6.24-1.006-1.338-4.61-2.315-5.315-2.278zm-10.326.61c-.367-.049-1.227 3.958 2.2 5.993 1.771.723 6.214-.701 5.783-.898-3.556-1.603-5.64-2.885-7.95-5.078a.06.06 0 0 0-.033-.018zm11.486 1.954c-.022-.005-.037.005-.045.034-.987 3.775-1.897 6.047-3.672 8.693-.265.39 4.048.7 5.524-3.143l.002.002c.388-1.75-1.478-5.499-1.809-5.585zm-1.082 2.413c-.009-.003-.02 0-.033.005-3.521 1.684-5.844 2.456-9.014 2.803-.468.054 2.076 3.55 5.965 2.2h.004c1.64-.862 3.358-4.938 3.078-5.008z" opacity=".2"/><path d="M17.481 1.001c-2.817.033-7.163.816-8.522 2.435h-.003c-1.084 1.575-1.222 7.743-.94 7.363 2.307-3.131 7.837-6.998 11.139-8.552 1.783-.843.517-1.271-1.674-1.246zm-2.72 5.107c-1.907.138-5.26 3.384-4.79 3.366 3.9-.135 6.336.088 9.379 1.034.451.14-.486-4.081-4.589-4.4zm-2.063 3.38c-.1.005-.142.032-.108.08 2.229 3.201 3.361 5.37 4.219 8.438.127.456 3.164-2.624 1.203-6.241-1.006-1.338-4.61-2.314-5.314-2.277zm1.16 2.566c-.022-.006-.037.004-.044.033-.988 3.775-1.899 6.047-3.673 8.693-.266.39 4.048.7 5.524-3.143l.001.002c.388-1.75-1.477-5.5-1.807-5.586zm-1.082 2.412c-.01-.003-.02-.001-.034.005-3.52 1.684-5.843 2.455-9.014 2.803-.468.054 2.077 3.549 5.966 2.2l.004-.002c1.64-.861 3.357-4.936 3.078-5.007z" fill="#37a0f2"/><path d="M6.958 4.524c-.712.121-3.568 2.09-2.91 5.63v.001c.625 1.808 4.625 4.211 4.487 3.759-1.136-3.732-1.547-6.146-1.42-9.328.003-.059-.055-.079-.157-.061zM2.37 10.098c-.367-.048-1.226 3.958 2.2 5.994 1.772.722 6.214-.7 5.783-.897-3.556-1.603-5.64-2.886-7.95-5.08a.06.06 0 0 0-.033-.017z" fill="#4f4f4f"/><path d="M17.48 1.002c-2.817.033-7.163.815-8.521 2.434h-.004c-.832 1.21-1.104 5.098-1.059 6.681.014-1.788.303-5.083 1.059-6.181h.004c1.358-1.62 5.704-2.401 8.521-2.434 1.12-.013 1.99.096 2.344.314.566-.553-.57-.835-2.344-.814zM6.957 4.525c-.654.112-3.113 1.787-2.996 4.805.152-2.703 2.379-4.2 2.996-4.305.09-.015.138.004.148.047.004-.162.004-.32.01-.486.003-.059-.056-.078-.158-.06zm.143 1.43c-.022 2.636.384 4.881 1.308 8.002.098.026.144.014.127-.043-.968-3.178-1.404-5.403-1.435-7.959zm7.66.154c-1.907.138-5.26 3.382-4.79 3.364.105-.004.186 0 .288-.002.837-.913 3.074-2.759 4.502-2.862 3.148.244 4.425 2.773 4.648 3.88.282-.287-.765-4.079-4.648-4.38zm-1.916 3.844l.033.051c.962.073 4.187 1.002 5.135 2.262.428.79.609 1.552.642 2.26.046-.842-.11-1.78-.642-2.76-.498-.662-1.632-1.235-2.737-1.64a25.998 25.998 0 0 0-2.431-.173zm-10.473.145c-.155-.02-.382.7-.352 1.674.047-.704.225-1.191.352-1.174a.06.06 0 0 1 .033.017c2.21 2.098 4.247 3.368 7.53 4.877.336-.137.52-.252.42-.299a49.868 49.868 0 0 1-1.85-.888l.03.11c.083.267-1.287-.475-2.548-1.495a22.286 22.286 0 0 1-3.582-2.805.06.06 0 0 0-.033-.017zm11.486 1.955c-.022-.006-.038.005-.045.033-.987 3.775-1.898 6.048-3.672 8.693-.042.062.062.115.22.157 1.626-2.502 2.508-4.74 3.452-8.35.007-.028.023-.039.045-.033.286.075 1.722 2.9 1.847 4.793.106-1.26-.642-3.208-1.232-4.358-.153-.262-.314-.53-.482-.8-.05-.06-.104-.128-.133-.135zm-1.082 2.412c-.01-.002-.02 0-.033.006-.924.441-1.762.818-2.557 1.142.06.028.106.053.168.08.294.134-1.672.827-3.518 1.034-.99.247-1.996.425-3.107.547-.106.012-.038.212.144.48 3.079-.353 5.383-1.12 8.819-2.76.097-.298.142-.514.084-.529z" fill="#fff" opacity=".1"/></g></svg>