<svg width="24" height="24" version="1.1" viewBox="0 0 24 24" xmlns="http://www.w3.org/2000/svg" xmlns:xlink="http://www.w3.org/1999/xlink">
<defs>
<path id="system-shutdown-b" d="m2 12c0-5.5138 4.4857-10 10-10 5.5138 0 10 4.4862 10 10s-4.4862 10-10 10c-5.5143 0-10-4.4862-10-10z"/>
<radialGradient id="radialGradient854" cx="12" cy="13.497" r="7.7102" gradientUnits="userSpaceOnUse">
<stop stop-color="#E3F5FF" offset="0"/>
<stop stop-color="#FFF" offset="1"/>
</radialGradient>
<filter id="filter1080" x="-.048" y="-.048" width="1.096" height="1.096" color-interpolation-filters="sRGB">
<feGaussianBlur stdDeviation="0.40000002"/>
</filter>
</defs>
<use transform="matrix(1.15,0,0,1.15,-1.8,-1.8)" width="100%" height="100%" fill="#cccccc" fill-rule="evenodd" filter="url(#filter1080)" stroke-width=".86957" xlink:href="#system-shutdown-b"/>
<use transform="matrix(1.1,0,0,1.1,-1.2,-1.2)" width="100%" height="100%" fill="url(#radialGradient854)" fill-rule="evenodd" stroke-width=".90909" xlink:href="#system-shutdown-b"/>
<path d="m12.459 7.0108a0.50005 0.50005 0 0 0-0.04883 0.00195 0.50005 0.50005 0 0 0 0 0.99805c0.13453 0.013662 0.26638 0.033923 0.39648 0.060547 0.26021 0.053247 0.51091 0.1313 0.75 0.23242 0.23909 0.10113 0.46683 0.22534 0.67969 0.36914 0.21285 0.1438 0.41069 0.30718 0.5918 0.48828 0.18111 0.18111 0.34448 0.37894 0.48828 0.5918 0.1438 0.21285 0.26801 0.4406 0.36914 0.67969s0.17918 0.48979 0.23242 0.75c0.05325 0.26021 0.08203 0.52976 0.08203 0.80664 0 2.2151-1.7849 4-4 4-0.27688 0-0.54642-0.02879-0.80664-0.08203-0.2602-0.05324-0.5109-0.13129-0.75-0.23242-0.2391-0.10114-0.46683-0.22534-0.67969-0.36914-0.21285-0.1438-0.41069-0.30718-0.5918-0.48828s-0.34448-0.37894-0.48828-0.5918-0.26801-0.4406-0.36914-0.67969-0.17917-0.48979-0.23242-0.75c-0.053247-0.26021-0.082031-0.52976-0.082031-0.80664h2l-2.5-3-2.5 3h2c0 0.34444 0.034922 0.68215 0.10156 1.0078 0.066641 0.32567 0.16443 0.64017 0.29102 0.93945s0.28127 0.58171 0.46094 0.84766 0.38526 0.51417 0.61133 0.74023c0.22606 0.22606 0.47429 0.43166 0.74023 0.61133 0.26595 0.17967 0.54838 0.33435 0.84766 0.46094 0.29928 0.12658 0.61378 0.22438 0.93945 0.29102 0.32566 0.06664 0.66337 0.10156 1.0078 0.10156 2.7555 0 5-2.2445 5-5 0-0.34444-0.03492-0.68215-0.10156-1.0078-0.06664-0.32567-0.16443-0.64017-0.29102-0.93945-0.12659-0.29928-0.28127-0.58171-0.46094-0.84766-0.17967-0.26595-0.38526-0.51417-0.61133-0.74023-0.22606-0.22606-0.47429-0.43166-0.74023-0.61133-0.26595-0.17967-0.54838-0.33435-0.84766-0.46094s-0.61379-0.22437-0.93945-0.29102c-0.16283-0.03332-0.33002-0.059108-0.49805-0.076172a0.50005 0.50005 0 0 0-0.05078-0.00391z" fill="#0086ff"/>
</svg>
