<svg width="24" height="24" version="1.1" viewBox="0 0 24 24" xmlns="http://www.w3.org/2000/svg" xmlns:xlink="http://www.w3.org/1999/xlink">
<defs>
<path id="system-shutdown-b" d="m2 12c0-5.5138 4.4857-10 10-10 5.5138 0 10 4.4862 10 10s-4.4862 10-10 10c-5.5143 0-10-4.4862-10-10z"/>
<radialGradient id="radialGradient854" cx="12" cy="13.497" r="7.7102" gradientUnits="userSpaceOnUse">
<stop stop-color="#E3F5FF" offset="0"/>
<stop stop-color="#FFF" offset="1"/>
</radialGradient>
<filter id="filter1080" x="-.048" y="-.048" width="1.096" height="1.096" color-interpolation-filters="sRGB">
<feGaussianBlur stdDeviation="0.40000002"/>
</filter>
</defs>
<use transform="matrix(1.15,0,0,1.15,-1.8,-1.8)" width="100%" height="100%" fill="#cccccc" fill-rule="evenodd" filter="url(#filter1080)" stroke-width=".86957" xlink:href="#system-shutdown-b"/>
<use transform="matrix(1.1,0,0,1.1,-1.2,-1.2)" width="100%" height="100%" fill="url(#radialGradient854)" fill-rule="evenodd" stroke-width=".90909" xlink:href="#system-shutdown-b"/>
<g fill="#0086ff">
<path d="m12 6a6 6 0 0 0-6 6 6 6 0 0 0 6 6 6 6 0 0 0 6-6 6 6 0 0 0-6-6zm0 1a5 5 0 0 1 5 5 5 5 0 0 1-5 5 5 5 0 0 1-5-5 5 5 0 0 1 5-5z" fill-rule="evenodd" opacity=".99" style="paint-order:stroke markers fill"/>
<path d="m11.989 9 3 3-3 3 0.012-2h-1.965c-0.58 0-1.047-0.446-1.047-1s0.468-1 1.047-1h1.964z"/>
</g>
</svg>
