<svg width="24" height="24" version="1" xmlns="http://www.w3.org/2000/svg">
<defs>
<filter id="a" color-interpolation-filters="sRGB">
<feFlood flood-opacity=".196" result="flood"/>
<feComposite in="flood" in2="SourceGraphic" operator="in" result="composite1"/>
<feGaussianBlur in="composite1" result="blur" stdDeviation=".5"/>
<feOffset dx="0" dy=".5" result="offset"/>
<feComposite in="SourceGraphic" in2="offset" result="composite2"/>
</filter>
</defs>
<path d="m12.059 3.5a9.01 9.01 0 0 0-3.51 0.695 8.973 8.973 0 0 0-4.853 11.756 8.973 8.973 0 0 0 11.756 4.854 8.973 8.973 0 0 0 4.853-11.756 8.972 8.972 0 0 0-8.246-5.55zm-0.059 4a5 5 0 0 1 5 5 5 5 0 0 1-5 5 5 5 0 0 1-5-5 5 5 0 0 1 5-5z" filter="url(#a)" opacity=".2"/>
<path d="m12.059 3a9.01 9.01 0 0 0-3.51 0.695 8.973 8.973 0 0 0-4.853 11.756 8.973 8.973 0 0 0 11.756 4.854 8.973 8.973 0 0 0 4.853-11.756 8.972 8.972 0 0 0-8.245-5.549zm-0.059 4a5 5 0 0 1 5 5 5 5 0 0 1-5 5 5 5 0 0 1-5-5 5 5 0 0 1 5-5z" fill="#e4e4e4" filter="url(#a)"/>
<path d="m12.059 3a9.01 9.01 0 0 0-3.51 0.695 8.966 8.966 0 0 0-5.537 8.52 8.966 8.966 0 0 1 5.537-8.02 8.973 8.973 0 0 1 11.756 4.853 9 9 0 0 1 0.684 3.237 8.988 8.988 0 0 0-0.684-3.736 8.972 8.972 0 0 0-8.245-5.549zm4.932 9.197a5 5 0 0 1-4.991 4.803 5 5 0 0 1-4.99-4.697 5 5 0 0 0-0.01 0.197 5 5 0 0 0 5 5 5 5 0 0 0 5-5 5 5 0 0 0-0.01-0.303z" fill="#fff" filter="url(#a)" opacity=".2"/>
<path d="m12.061 2.5c-1.166-6e-3 -2.35 0.19-3.496 0.598a0.878 0.818 0 0 0-0.508 1.054l1.56 3.817a0.878 0.818 0 0 0 1.133 0.474 3.739 3.739 0 0 1 1.248-0.215c0.427 2e-3 0.849 0.075 1.246 0.217a0.878 0.818 0 0 0 1.135-0.472l1.565-3.82a0.878 0.818 0 0 0-0.51-1.057 10.235 10.235 0 0 0-3.373-0.596zm-8.703 6a0.818 0.878 0 0 0-0.76 0.564 10.285 10.285 0 0 0-0.598 3.496c6e-3 1.17 0.218 2.309 0.596 3.373a0.818 0.878 0 0 0 1.057 0.51l3.82-1.562a0.818 0.878 0 0 0 0.473-1.137 3.736 3.736 0 0 1-0.219-1.246c0-0.427 0.075-0.85 0.217-1.248a0.818 0.878 0 0 0-0.475-1.133l-3.816-1.56a0.818 0.878 0 0 0-0.295-0.057zm17.285 0a0.818 0.878 0 0 0-0.295 0.057l-3.816 1.56a0.818 0.878 0 0 0-0.475 1.133c0.142 0.398 0.214 0.821 0.215 1.248a3.734 3.734 0 0 1-0.217 1.246 0.818 0.878 0 0 0 0.473 1.137l3.82 1.562a0.818 0.878 0 0 0 1.057-0.51c0.377-1.064 0.59-2.204 0.595-3.373 6e-3 -1.165-0.19-2.35-0.597-3.496a0.818 0.878 0 0 0-0.76-0.564zm-7.053 8a0.878 0.818 0 0 0-0.345 0.055c-0.398 0.142-0.82 0.217-1.247 0.218a3.74 3.74 0 0 1-1.248-0.216 0.878 0.818 0 0 0-1.132 0.474l-1.56 3.817a0.878 0.818 0 0 0 0.507 1.054c1.146 0.408 2.33 0.603 3.496 0.598a10.236 10.236 0 0 0 3.373-0.596 0.878 0.818 0 0 0 0.51-1.056l-1.565-3.82a0.878 0.818 0 0 0-0.789-0.528z" filter="url(#a)" opacity=".2"/>
<path d="m12.061 2c-1.166-6e-3 -2.35 0.19-3.496 0.598a0.878 0.818 0 0 0-0.508 1.054l1.56 3.817a0.878 0.818 0 0 0 1.133 0.474 3.739 3.739 0 0 1 1.248-0.214c0.427 1e-3 0.849 0.074 1.246 0.216a0.878 0.818 0 0 0 1.135-0.472l1.565-3.82a0.878 0.818 0 0 0-0.51-1.057 10.235 10.235 0 0 0-3.373-0.596zm-8.703 6a0.818 0.878 0 0 0-0.76 0.564 10.285 10.285 0 0 0-0.598 3.497c6e-3 1.168 0.218 2.308 0.596 3.373a0.818 0.878 0 0 0 1.057 0.51l3.82-1.563a0.818 0.878 0 0 0 0.473-1.137 3.736 3.736 0 0 1-0.219-1.246c0-0.427 0.075-0.85 0.217-1.248a0.818 0.878 0 0 0-0.475-1.133l-3.816-1.56a0.818 0.878 0 0 0-0.295-0.057zm17.285 0a0.818 0.878 0 0 0-0.295 0.057l-3.816 1.56a0.818 0.878 0 0 0-0.475 1.133c0.142 0.399 0.214 0.821 0.215 1.248a3.734 3.734 0 0 1-0.217 1.246 0.818 0.878 0 0 0 0.473 1.137l3.82 1.562a0.818 0.878 0 0 0 1.057-0.51c0.377-1.064 0.59-2.204 0.595-3.373 6e-3 -1.165-0.19-2.35-0.597-3.496a0.818 0.878 0 0 0-0.76-0.564zm-7.053 8a0.878 0.818 0 0 0-0.345 0.055c-0.398 0.142-0.82 0.217-1.247 0.218a3.74 3.74 0 0 1-1.248-0.216 0.878 0.818 0 0 0-1.132 0.474l-1.56 3.817a0.878 0.818 0 0 0 0.507 1.054c1.146 0.408 2.33 0.604 3.496 0.598a10.235 10.235 0 0 0 3.373-0.596 0.878 0.818 0 0 0 0.51-1.056l-1.565-3.82a0.878 0.818 0 0 0-0.789-0.528z" fill="#ea004e" filter="url(#a)"/>
</svg>
