<svg width="24" height="24" version="1.1" viewBox="0 0 24 24" xmlns="http://www.w3.org/2000/svg" xmlns:xlink="http://www.w3.org/1999/xlink">
<defs>
<path id="system-shutdown-b" d="m2 12c0-5.5138 4.4857-10 10-10 5.5138 0 10 4.4862 10 10 0 5.5138-4.4862 10-10 10-5.5143 0-10-4.4862-10-10z"/>
<radialGradient id="radialGradient854" cx="12" cy="13.497" r="7.7102" gradientUnits="userSpaceOnUse">
<stop stop-color="#E3F5FF" offset="0"/>
<stop stop-color="#FFF" offset="1"/>
</radialGradient>
<filter id="filter1080" x="-.048" y="-.048" width="1.096" height="1.096" color-interpolation-filters="sRGB">
<feGaussianBlur stdDeviation="0.40000002"/>
</filter>
</defs>
<use transform="matrix(1.15,0,0,1.15,-1.8,-1.8)" width="100%" height="100%" fill="#cccccc" fill-rule="evenodd" filter="url(#filter1080)" stroke-width=".86957" xlink:href="#system-shutdown-b"/>
<use transform="matrix(1.1,0,0,1.1,-1.2,-1.2)" width="100%" height="100%" fill="url(#radialGradient854)" fill-rule="evenodd" stroke-width=".90909" xlink:href="#system-shutdown-b"/>
<path transform="matrix(.91667 0 0 .91667 .9998 .99998)" d="m14.384 11.827-0.873-0.843a1.163 1.163 0 0 0-0.35-0.232 26.243 26.243 0 0 1-0.16-0.158l1.318-1.413c0.25-0.269 0.367-0.63 0.32-0.988a2.361 2.361 0 0 1-0.02-0.406 2.353 2.353 0 0 1-4e-3 -0.06c-0.071-1.307 0.97-2.422 2.325-2.49a2.502 2.502 0 0 1 1.82 0.648l-1.17 0.217c-0.672 0.124-1.111 0.744-0.98 1.384l2e-3 0.012c0.13 0.64 0.782 1.058 1.454 0.934l1.387-0.257c-0.253 0.986-1.15 1.74-2.256 1.795a2.416 2.416 0 0 1-0.159 3e-3c-0.11 0.012-0.222 0.016-0.334 0.014a1.307 1.307 0 0 0-0.985 0.41zm-2.243 2.404-3.356 3.596c0.01 0.068 0.015 0.118 0.017 0.153 0.043 0.797-0.59 1.476-1.417 1.518-0.827 0.041-1.53-0.57-1.574-1.367-0.043-0.798 0.592-1.477 1.417-1.518 0.035-2e-3 0.088-2e-3 0.157 0l3.564-3.82c0.045 0.106 0.108 0.206 0.187 0.295zm-4.257 3.287-0.8-0.172-0.564 0.577 0.235 0.748 0.8 0.17 0.564-0.576zm5.156-6.092 6.138 5.928c0.418 0.404 0.43 1.076 0.032 1.496-0.122 0.11-0.422 0.355-0.422 0.355a1.136 1.136 0 0 1-1.53-0.141l-5.615-6.38a0.488 0.488 0 0 1-0.117-0.253c-0.168-0.205-0.821-0.97-2.168-2.25-1.591-1.513-1.863-0.75-2.157-0.498-0.294 0.251-0.264 0.484-0.264 0.484a0.808 0.808 0 0 1-0.244 0.43l-0.47 0.378c-0.043 0.02-0.86-0.821-1.118-1.1-0.223-0.239-0.578-0.718-0.578-0.718a0.148 0.148 0 0 1 0.012-0.185s0.434-0.476 0.595-0.485c0.471-0.028 0.69-0.07 0.921-0.41 0.231-0.341 0.232-0.609 0.36-0.806 0.086-0.13 0.8-0.981 1.845-1.577 2.004-1.142 3.558-1.213 3.88-1.191l1.51 0.1-0.782 0.744c-0.065 0.023-0.17 0.054-0.236 0.07 0 0-0.954 0.204-1.71 0.735-0.757 0.532-0.963 1.444-0.385 2.518 0.34 0.63 0.56 0.847 1.025 1.355a29.58 29.58 0 0 0 1.233 1.271c0.09 0.02 0.176 0.063 0.245 0.13z" fill="#0086ff"/>
</svg>
