<svg width="24" height="24" version="1.1" viewBox="0 0 24 24" xmlns="http://www.w3.org/2000/svg"><title>wps-office-wppmain</title><defs><linearGradient id="b" x1="10" x2="10" y1="0" y2="20" gradientTransform="translate(2 2)" gradientUnits="userSpaceOnUse"><stop stop-color="#FF8767" offset="0"/><stop stop-color="#FF6134" offset="1"/></linearGradient><linearGradient id="c" x1="6.324" x2="2.161" y1="10.607" y2="10.607" gradientTransform="matrix(1.4142 0 0 .70711 6 6)" gradientUnits="userSpaceOnUse"><stop stop-color="#FFD6C2" offset="0"/><stop stop-color="#FFC4B1" offset="1"/></linearGradient><filter id="a" color-interpolation-filters="sRGB"><feFlood flood-color="#000" flood-opacity=".196" result="flood"/><feComposite in="flood" in2="SourceGraphic" operator="in" result="composite1"/><feGaussianBlur in="composite1" result="blur" stdDeviation=".5"/><feOffset dx="0" dy=".5" result="offset"/><feComposite in="SourceGraphic" in2="offset" result="composite2"/></filter></defs><g filter="url(#a)"><path d="M2.5 2h15.932a.5.5 0 0 1 .315.111l3.067 2.484a.5.5 0 0 1 .186.389V21.5a.5.5 0 0 1-.5.5h-19a.5.5 0 0 1-.5-.5v-19a.5.5 0 0 1 .5-.5z" fill="url(#b)" fill-rule="evenodd"/><path d="M9 12h6v3H9z" fill="url(#c)"/><path d="M14.5 9h-5a.5.5 0 0 0-.5.5v8a.5.5 0 0 1-.5.5h-2a.5.5 0 0 1-.5-.5v-11a.5.5 0 0 1 .5-.5h11a.5.5 0 0 1 .5.5v8a.5.5 0 0 1-.5.5H15V9.5a.5.5 0 0 0-.5-.5z" fill="#fff"/></g></svg>