<svg width="24" height="24" version="1.1" viewBox="0 0 24 24" xmlns="http://www.w3.org/2000/svg" xmlns:xlink="http://www.w3.org/1999/xlink"><title>wps-office-etmain</title><defs><path id="b" d="M.5 0h15.932a.5.5 0 0 1 .315.111l3.067 2.484a.5.5 0 0 1 .186.388V19.5a.5.5 0 0 1-.5.5H.5a.5.5 0 0 1-.5-.5V.5A.5.5 0 0 1 .5 0z"/><linearGradient id="c" x1="10" x2="10" y1="0" y2="20" gradientTransform="matrix(.99999 0 0 1 2 2)" gradientUnits="userSpaceOnUse"><stop stop-color="#92CF00" offset="0"/><stop stop-color="#57AC00" offset="1"/></linearGradient><linearGradient id="d" x1="7.778" x2="2.277" y1="9.192" y2="9.192" gradientTransform="matrix(1.4142 0 0 .70711 5 5)" gradientUnits="userSpaceOnUse"><stop stop-color="#F5F5F5" offset="0"/><stop stop-color="#A1E37D" offset="1"/></linearGradient><filter id="a" color-interpolation-filters="sRGB"><feFlood flood-color="#000" flood-opacity=".196" result="flood"/><feComposite in="flood" in2="SourceGraphic" operator="in" result="composite1"/><feGaussianBlur in="composite1" result="blur" stdDeviation=".5"/><feOffset dx="0" dy=".5" result="offset"/><feComposite in="SourceGraphic" in2="offset" result="composite2"/></filter></defs><use transform="translate(2 2)" width="100%" height="100%" fill-opacity="0" filter="url(#a)" xlink:href="#b"/><path d="M2.5 2h15.932a.5.5 0 0 1 .315.111l3.067 2.484a.5.5 0 0 1 .186.389V21.5a.5.5 0 0 1-.5.5h-19a.5.5 0 0 1-.5-.5v-19a.5.5 0 0 1 .5-.5z" fill="url(#c)" fill-rule="evenodd" filter="url(#a)"/><path d="M16 13.5V9.75 10H8.5a.5.5 0 0 1-.5-.5v3.75V13h7.5a.5.5 0 0 1 .5.5z" fill="url(#d)" filter="url(#a)"/><path d="M18.5 18h-13a.5.5 0 0 1-.5-.5v-2a.5.5 0 0 1 .5-.5h10a.5.5 0 0 0 .5-.5V10h2.5a.5.5 0 0 1 .5.5v7a.5.5 0 0 1-.5.5zM8 8.5V13H5.5a.5.5 0 0 1-.5-.5v-7a.5.5 0 0 1 .5-.5h13a.5.5 0 0 1 .5.5v2a.5.5 0 0 1-.5.5h-10a.5.5 0 0 0-.5.5z" fill="#fff" filter="url(#a)"/></svg>