<svg width="24" height="24" version="1.1" viewBox="0 0 24 24" xmlns="http://www.w3.org/2000/svg"><title>wps-office-wpsmain</title><defs><linearGradient id="b" x1="10" x2="10" y1=".07" y2="19.477" gradientTransform="translate(2 2)" gradientUnits="userSpaceOnUse"><stop stop-color="#535CFF" offset="0"/><stop stop-color="#3F4CFF" offset="1"/></linearGradient><linearGradient id="c" x1="4.872" x2="4.872" y1="6.626" y2="15.013" gradientTransform="scale(1.2297 .8132)" gradientUnits="userSpaceOnUse"><stop stop-color="#A2BAFF" offset="0"/><stop stop-color="#93BDFF" offset="1"/></linearGradient><filter id="a" color-interpolation-filters="sRGB"><feFlood flood-color="#000" flood-opacity=".196" result="flood"/><feComposite in="flood" in2="SourceGraphic" operator="in" result="composite1"/><feGaussianBlur in="composite1" result="blur" stdDeviation=".5"/><feOffset dx="0" dy=".5" result="offset"/><feComposite in="SourceGraphic" in2="offset" result="composite2"/></filter></defs><g filter="url(#a)"><path d="M2.5 2h15.932a.5.5 0 0 1 .315.111l3.067 2.484a.5.5 0 0 1 .186.389V21.5a.5.5 0 0 1-.5.5h-19a.5.5 0 0 1-.5-.5v-19a.5.5 0 0 1 .5-.5z" fill="url(#b)" fill-rule="evenodd"/><path d="M5.638 5.367L.513 10.492l2.474 1.974 2.65-2.65a.5.5 0 0 1 .708 0l2.65 2.65 2.475-1.974-5.125-5.125a.5.5 0 0 0-.707 0z" fill="url(#c)" transform="translate(6 6)"/><path d="M6.5 6.5h2A.5.5 0 0 1 9 7v11.5H6.5A.5.5 0 0 1 6 18V7a.5.5 0 0 1 .5-.5zm9 0h2a.5.5 0 0 1 .5.5v11a.5.5 0 0 1-.5.5H15V7a.5.5 0 0 1 .5-.5z" fill="#fff"/></g></svg>