<svg width="24" height="24" version="1" xmlns="http://www.w3.org/2000/svg"><defs><filter id="a" color-interpolation-filters="sRGB"><feFlood flood-color="#000" flood-opacity=".196" result="flood"/><feComposite in="flood" in2="SourceGraphic" operator="in" result="composite1"/><feGaussianBlur in="composite1" result="blur" stdDeviation=".5"/><feOffset dx="0" dy=".5" result="offset"/><feComposite in="SourceGraphic" in2="offset" result="composite2"/></filter></defs><g filter="url(#a)"><circle cx="6.5" cy="10" r="5.5" opacity=".2"/><circle cx="6.5" cy="9.5" r="5.5" fill="#ccc"/><path d="M6.5 4A5.5 5.5 0 0 0 1 9.5a5.5 5.5 0 0 0 .01.293A5.5 5.5 0 0 1 6.5 4.5a5.5 5.5 0 0 1 5.49 5.207A5.5 5.5 0 0 0 12 9.5 5.5 5.5 0 0 0 6.5 4z" fill="#fff" opacity=".2"/><circle cx="7" cy="9" r="2" fill="#478be5"/><circle cx="7" cy="9" r="1" fill="#3f3f3f"/><circle cx="15" cy="13.5" r="7" opacity=".2"/><circle cx="15" cy="13" r="7" fill="#e4e4e4"/><circle cx="16" cy="12" r="3" fill="#478be5"/><circle cx="16" cy="12" r="1" fill="#3f3f3f"/><path d="M15 6a7 7 0 0 0-7 7 7 7 0 0 0 .01.293A7 7 0 0 1 15 6.5a7 7 0 0 1 6.99 6.707A7 7 0 0 0 22 13a7 7 0 0 0-7-7z" fill="#fff" opacity=".2"/></g></svg>