<svg width="256" height="256" version="1.1" viewBox="0 0 256 256" xmlns="http://www.w3.org/2000/svg" xmlns:xlink="http://www.w3.org/1999/xlink">
<defs>
<filter id="filter871" x="-.077728" y="-.048857" width="1.1555" height="1.0977" color-interpolation-filters="sRGB">
<feGaussianBlur stdDeviation="0.71250375"/>
</filter>
</defs>
<g transform="matrix(5.6 0 0 5.6 -6.3988 -14.647)" fill="#b3b3b3" filter="url(#filter871)">
<path d="m15 27.99c0 4.967 4.47 8.976 9 8.976s9-3.01 9-8.976v-5.01h-18zm20 0c0 7.471-5.47 10.983-11 10.983s-11-4.29-11-10.983v-5.017h22v0.505z"/>
<path d="m24 7.9727c-3.878 0-7 3.122-7 7v3h6v1h-6v1h6v1h-6v1h6v1h-6v5c0 3.878 3.122 7 7 7s7-3.122 7-7v-5h-6v-1h6v-1h-6v-1h6v-1h-6v-1h6v-3c0-3.878-3.122-7-7-7zm0 4a1.5 1.5 0 0 1 1.5 1.5 1.5 1.5 0 0 1-1.5 1.5 1.5 1.5 0 0 1-1.5-1.5 1.5 1.5 0 0 1 1.5-1.5z" fill-rule="evenodd"/>
<path d="m17 40.973v2h14v-2h-6v-4h-2v4z" fill-rule="evenodd"/>
</g>
<g transform="matrix(5.6 0 0 5.6 -6.3988 -14.647)">
<path d="m15 27.99c0 4.967 4.47 8.976 9 8.976s9-3.01 9-8.976v-5.01h-18zm20 0c0 7.471-5.47 10.983-11 10.983s-11-4.29-11-10.983v-5.017h22v0.505z" fill="#666"/>
<path d="m24 7.9727c-3.878 0-7 3.122-7 7v3h6v1h-6v1h6v1h-6v1h6v1h-6v5c0 3.878 3.122 7 7 7s7-3.122 7-7v-5h-6v-1h6v-1h-6v-1h6v-1h-6v-1h6v-3c0-3.878-3.122-7-7-7zm0 4a1.5 1.5 0 0 1 1.5 1.5 1.5 1.5 0 0 1-1.5 1.5 1.5 1.5 0 0 1-1.5-1.5 1.5 1.5 0 0 1 1.5-1.5z" fill="#999" fill-rule="evenodd"/>
<path d="m17 40.973v2h14v-2h-6v-4h-2v4z" fill="#666" fill-rule="evenodd"/>
</g>
</svg>
