<svg width="256" height="256" version="1.1" viewBox="0 0 256 256" xmlns="http://www.w3.org/2000/svg">
<title>计算机-256px</title>
<defs>
<linearGradient id="a" x1="114.22" x2="114.22" y1="40.343" y2="233.09" gradientTransform="scale(1.1206 .89235)" gradientUnits="userSpaceOnUse">
<stop stop-color="#FFF" offset="0"/>
<stop stop-color="#C3D6DE" offset="1"/>
</linearGradient>
<linearGradient id="b" x1="102.03" x2="102.03" y1="70.074" y2="213.27" gradientTransform="scale(1.2545 .79713)" gradientUnits="userSpaceOnUse">
<stop stop-color="#0E004D" offset="0"/>
<stop stop-color="#4735E4" offset="1"/>
</linearGradient>
<filter id="filter952" x="-.034" y="-.03825" width="1.068" height="1.0765" color-interpolation-filters="sRGB">
<feGaussianBlur stdDeviation="3.06"/>
</filter>
</defs>
<g fill-rule="evenodd">
<path d="m25.34 38a5.333 5.333 0 0 0-5.3398 5.3281v0.001953 157.34a5.337 5.337 0 0 0 5.3398 5.3281h205.32a5.333 5.333 0 0 0 5.3398-5.3281v-157.34a5.337 5.337 0 0 0-5.3398-5.3281h-205.32zm0.66016 170c-3.324 0-6 2.676-6 6v10c0 3.324 2.676 6 6 6h204c3.324 0 6-2.676 6-6v-10c0-3.324-2.676-6-6-6h-204z" fill="#b3b3b3" filter="url(#filter952)"/>
<path d="m20 41.996a6.002 6.002 0 0 1 6.003-5.996h203.99a6 6 0 0 1 6.003 5.996v160.01a6.002 6.002 0 0 1-6.003 5.996h-203.99a6 6 0 0 1-6.003-5.996z" fill="url(#a)"/>
<path d="m20 43.329a5.333 5.333 0 0 1 5.34-5.329h205.32a5.337 5.337 0 0 1 5.34 5.329v157.34a5.333 5.333 0 0 1-5.34 5.329h-205.32a5.337 5.337 0 0 1-5.34-5.329v-157.34z" fill="#eff7fb"/>
<rect x="20" y="208" width="216" height="22" rx="6" fill="#eff7fb"/>
<path d="m26 45.003a3.002 3.002 0 0 1 3.002-3.003h198a3.005 3.005 0 0 1 3.002 3.003v127.99a3.002 3.002 0 0 1-3.002 3.003h-198a3.005 3.005 0 0 1-3.002-3.003z"/>
<path d="m32 48h192v122h-192z" fill="url(#b)"/>
<path d="m224 129.74-16-7.384-21.333-23.406-10.667 4.737-21.333-23.684-10.667 9.474-10.667-9.474-43.051 45.406-39.615 4.33-18.667 9.476v30.788h186.66a5.33 5.33 0 0 0 5.336-5.326z" fill="#3612c1"/>
<path d="m96 170 101.33-23.684 26.667 14.21v9.474z" fill="#4224ca"/>
<path d="m173.33 129.74 13.334-30.79 10.666 47.369z" fill="#5042ec"/>
<path d="m133.33 80-16 31.765-16 20.34-26.666 9.474z" fill="#ab76ef"/>
<path d="m144 103.68-10.667 4.737 26.667 7.105 5.333-4.263-10.666-12.316z" fill="#4531d8"/>
<path d="m138.67 94.211-21.334 17.554 16-3.344 21.334-9.474z" fill="#7365ee"/>
<path d="m117.33 111.76 13.334 23.656-29.334-3.316z" fill="#5241eb"/>
<path d="m101.33 132.1-26.666 9.474 16 10.421z" fill="#6c51ef"/>
<path d="m58.667 152.47 32-0.474 5.333 18z" fill="#3e2bcd"/>
<path d="m90.667 152 48-19.895 10.666-9.473 2.667 9.473-56 37.895z" fill="#593ef3"/>
<path d="M 32,170 58.667,152.474 96,170 Z" fill="#4735e4"/>
<path d="m138.67 94.211-5.334-14.211-10.666 21.176z" fill="#523de0"/>
<path d="m96 170 48-37.895 29.333-2.368 24 16.579z" fill="#654af8"/>
<path d="m149.33 122.63 26.667-18.948 10.667-4.737-13.334 30.79-34.666 7.105z" fill="#7f5ef1"/>
<path d="m149.33 122.63-10.666 14.21 24-11.842 24-26.053-10.667 4.737z" fill="#b57bff"/>
<path d="m154.67 80-16 14.211 16 4.736z" fill="#ab76ef"/>
<path d="m133.33 108.42 16 14.211-10.666 9.473-7.867 3.295z" fill="#442ae7"/>
<path d="m74.667 141.58-24-11.842 40-4.737z" fill="#7f5ef1"/>
<path d="m50.667 129.74-18.667 9.474 42.667 2.368z" fill="#593ef3"/>
<path d="m64 143.95-5.333 8.527-26.667 17.526v-18.947z" fill="#452ac5"/>
<path d="m173.33 129.74-2.666 22.803 26.666-6.224z" fill="#411bce"/>
<path d="m32 151.05v-11.842l42.667 2.368z" fill="#6f4ee6"/>
<path d="m32 48h50.955l67.045 122h-118z" fill="#fff" opacity=".123"/>
<path d="m20 222v2c0 3.324 2.676 6 6 6h204c3.324 0 6-2.676 6-6v-2c0 3.324-2.676 6-6 6h-204c-3.324 0-6-2.676-6-6z" fill="#c3d5de"/>
</g>
</svg>
