<svg width="256px" height="256px" version="1.1" viewBox="0 0 256 256" xmlns="http://www.w3.org/2000/svg">
<title>android-device-256px</title>
<desc>Created with Sketch.</desc>
<path d="m45 25.976c0-4.4051 4.789-7.9762 10.684-7.9762h144.63c5.9007 0 10.684 3.5672 10.684 7.9762v204.05c0 4.4051-4.789 7.9762-10.684 7.9762h-144.63c-5.9007 0-10.684-3.5672-10.684-7.9762z" fill="#b3b3b3" fill-rule="evenodd" filter="url(#filter861)"/>
<defs>
<filter id="filter861" x="-.055807" y="-.042109" width="1.1116" height="1.0842" color-interpolation-filters="sRGB">
<feGaussianBlur stdDeviation="3.86"/>
</filter>
</defs>
<g fill-rule="evenodd">
<path d="m45 25.976c0-4.4051 4.789-7.9762 10.684-7.9762h144.63c5.9007 0 10.684 3.5672 10.684 7.9762v204.05c0 4.4051-4.789 7.9762-10.684 7.9762h-144.63c-5.9007 0-10.684-3.5672-10.684-7.9762z" fill="#c1b6aa"/>
<path d="m50.355 27.32c0-2.9381 3.1901-5.3199 7.1272-5.3199h141.04c3.9362 0 7.1272 2.3809 7.1272 5.3199v201.36c0 2.9381-3.1901 5.3199-7.1272 5.3199h-141.04c-3.9362 0-7.1272-2.3809-7.1272-5.3199z" fill="#f7ebde"/>
<polygon transform="matrix(1.3387 0 0 1 -43.355 0)" points="74 212 74 42.56 182 42.56 182 212" fill="#1a1a1a"/>
<circle cx="146.5" cy="32.5" r="2.5" fill="#1c1c1c"/>
</g>
<path d="m121 33h18" fill="none" stroke="#8a837b" stroke-linecap="round" stroke-width="2"/>
<path d="m109 33h4" fill="none" stroke="#8a837b" stroke-linecap="round" stroke-width="2"/>
</svg>
