<svg width="256" height="256" version="1.1" viewBox="0 0 256 256" xmlns="http://www.w3.org/2000/svg"><title>deepin-calculator</title><defs><filter id="a" color-interpolation-filters="sRGB"><feFlood flood-color="#000" flood-opacity=".294" result="flood"/><feComposite in="flood" in2="SourceGraphic" operator="in" result="composite1"/><feGaussianBlur in="composite1" result="blur" stdDeviation="1.5"/><feOffset dx="0" dy="1.5" result="offset"/><feComposite in="SourceGraphic" in2="offset" result="composite2"/></filter></defs><g transform="translate(10.285 8.445) scale(3.6786)" filter="url(#a)"><path d="M18.077 11c-6.968 0-12.213 5.506-12.579 12.324L4.102 49.343c-.882 5.088 4.156 8.3 8.386 2.738L20 41h23l8.566 11.425c4.197 5.534 8.927.98 8.393-2.766l-1.376-25.917c.004-.14.02-.276.02-.418 0-6.827-5.611-12.324-12.58-12.324H18.077z" opacity=".2"/><path d="M18.077 10c-6.968 0-12.213 5.506-12.579 12.324L4.102 48.343c-.882 5.088 4.156 8.3 8.386 2.738L20 40h23l8.566 11.425c4.197 5.534 8.927.98 8.393-2.766l-1.376-25.917c.004-.14.02-.276.02-.418 0-6.827-5.611-12.324-12.58-12.324H18.077z" fill="#4f4f4f"/><path d="M16 17v4h-4v4h4v4h4v-4h4v-4h-4v-4zm30 0a2 2 0 0 0-2 2 2 2 0 0 0 2 2 2 2 0 0 0 2-2 2 2 0 0 0-2-2zm-4 4a2 2 0 0 0-2 2 2 2 0 0 0 2 2 2 2 0 0 0 2-2 2 2 0 0 0-2-2zm8 0a2 2 0 0 0-2 2 2 2 0 0 0 2 2 2 2 0 0 0 2-2 2 2 0 0 0-2-2zm-4 4a2 2 0 0 0-2 2 2 2 0 0 0 2 2 2 2 0 0 0 2-2 2 2 0 0 0-2-2z" opacity=".2"/><path d="M16 16v4h-4v4h4v4h4v-4h4v-4h-4v-4z" fill="#e4e4e4"/><path d="M46 16a2 2 0 0 0-2 2 2 2 0 0 0 2 2 2 2 0 0 0 2-2 2 2 0 0 0-2-2zM42 20a2 2 0 0 0-2 2 2 2 0 0 0 2 2 2 2 0 0 0 2-2 2 2 0 0 0-2-2z" fill="#ee5353"/><path d="M50 20a2 2 0 0 0-2 2 2 2 0 0 0 2 2 2 2 0 0 0 2-2 2 2 0 0 0-2-2zM46 24a2 2 0 0 0-2 2 2 2 0 0 0 2 2 2 2 0 0 0 2-2 2 2 0 0 0-2-2z" fill="#ffca58"/><path d="M18.088 10c-6.959 0-12.197 5.506-12.563 12.324L4.13 48.344a6.205 6.205 0 0 0-.052 1.605c.015-.2.016-.396.053-.605l1.394-26.02C5.891 16.506 11.129 11 18.088 11h27.91c6.79 0 12.274 5.235 12.539 11.83.009-.169.025-.335.025-.506C58.562 15.497 52.958 10 45.998 10z" fill="#fff" opacity=".1"/></g></svg>