<svg width="256" height="256" version="1.1" viewBox="0 0 256 256" xmlns="http://www.w3.org/2000/svg" xmlns:xlink="http://www.w3.org/1999/xlink">
<title>wire-on</title>
<desc>Created with Sketch.</desc>
<defs>
<linearGradient id="linearGradient-2" x1="44.818" x2="44.818" y1="16.694" y2="87.823" gradientTransform="matrix(2.6122 0 0 2.2773 -4.7559 25.053)" gradientUnits="userSpaceOnUse">
<stop stop-color="#16C3FF" offset="0"/>
<stop stop-color="#218AFF" offset="1"/>
</linearGradient>
<linearGradient id="linearGradient918" x1="46.117" x2="46.117" y1="12.49" y2="87.43" gradientTransform="matrix(2.5385 0 0 2.3433 -4.7559 25.053)" gradientUnits="userSpaceOnUse">
<stop stop-color="#5DD6FF" offset="0"/>
<stop stop-color="#0079FF" offset="1"/>
</linearGradient>
<filter id="filter936" x="-.046154" y="-.05" width="1.0923" height="1.1" color-interpolation-filters="sRGB">
<feGaussianBlur stdDeviation="4.1666665"/>
</filter>
</defs>
<path d="m20 58.575c0-3.0792 2.5054-5.5753 5.5792-5.5753h27.754l1e-5 -19.452c0-3.0642 2.4784-5.5483 5.5614-5.5483h138.88c3.0714 0 5.5614 2.4885 5.5614 5.5483v19.452h27.754c3.0814 0 5.5792 2.4739 5.5792 5.5753v163.85c0 3.0792-2.5082 5.5752-5.5736 5.5752h-205.52c-3.0783 0-5.5736-2.4738-5.5736-5.5752z" fill="#999" fill-rule="evenodd" filter="url(#filter936)" stroke-width="2.7778"/>
<g transform="matrix(1.1389 0 0 1.1389 .41655 -33.866)">
<path id="Rectangle" d="m17.195 81.168c0-2.7037 2.1999-4.8954 4.8988-4.8954h24.37l2e-6 -17.08c0-2.6905 2.1761-4.8717 4.8832-4.8717h121.94c2.6968 0 4.8832 2.185 4.8832 4.8717v17.08h24.37c2.7056 0 4.8988 2.1722 4.8988 4.8954v143.87c0 2.7037-2.2023 4.8954-4.8939 4.8954h-180.46c-2.7029 0-4.8939-2.1722-4.8939-4.8954z" fill="url(#linearGradient918)" fill-rule="evenodd" stroke-width="2.439"/>
<path d="m17.195 86.022c0-2.6898 2.1999-4.8702 4.8988-4.8702h24.37l2e-6 -17.08c0-2.6905 2.1761-4.8717 4.8832-4.8717h121.94c2.6968 0 4.8832 2.185 4.8832 4.8717v17.08h24.37c2.7056 0 4.8988 2.2028 4.8988 4.8702v134.16c0 2.6898-2.2023 4.8702-4.8939 4.8702h-180.46c-2.7029 0-4.8939-2.2028-4.8939-4.8702z" fill="url(#linearGradient-2)" fill-rule="evenodd" stroke-width="2.439"/>
<g transform="matrix(2.439 0 0 2.439 -4.7559 -52.996)" fill="none" stroke-width="3">
<polygon id="Combined-Shape" transform="translate(0,32)" points="34.5 35.5 34.5 26.5 61.5 26.5 61.5 35.5 73.5 35.5 73.5 71.5 22.5 71.5 22.5 35.5" opacity=".15263" stroke="#000" stroke-linecap="round" stroke-linejoin="round"/>
<g stroke="#fff">
<polygon transform="translate(0,32)" points="34.5 34.5 34.5 25.5 61.5 25.5 61.5 34.5 73.5 34.5 73.5 70.5 22.5 70.5 22.5 34.5" stroke-linecap="round" stroke-linejoin="round"/>
<path d="m47.5 102.5-2.44e-4 -7.5"/>
<path d="m55.5 102.5v-7.5"/>
<path d="m63.5 102.5v-7.5"/>
<path d="m39.5 102.5-2.44e-4 -7.5"/>
<path d="M 31.503906,102.5 31.5,95"/>
</g>
</g>
</g>
</svg>
