<svg width="256" height="256" version="1.1" viewBox="0 0 256 256" xmlns="http://www.w3.org/2000/svg">
<title>wireless</title>
<desc>Created with Sketch.</desc>
<defs>
<linearGradient id="linearGradient-1" x1="44.398" x2="44.398" y1="13.717" y2="91.709" gradientTransform="matrix(1.3669 0 0 1.1695 3.3103 128.15)" gradientUnits="userSpaceOnUse">
<stop stop-color="#67D9FF" offset="0"/>
<stop stop-color="#0077FC" offset="1"/>
</linearGradient>
<linearGradient id="linearGradient-2" x1="44.224" x2="44.224" y1="15.79" y2="90.023" gradientTransform="matrix(1.3724 0 0 1.1649 3.3103 128.15)" gradientUnits="userSpaceOnUse">
<stop stop-color="#15C4FF" offset="0"/>
<stop stop-color="#218AFF" offset="1"/>
</linearGradient>
<filter id="filter921" x="-.055667" y="-.065065" width="1.1113" height="1.1301" color-interpolation-filters="sRGB">
<feGaussianBlur stdDeviation="5.4220805"/>
</filter>
</defs>
<path d="m235.83 77.514c-26.868-30.452-65.288-49.514-107.95-49.514-42.494 0-80.779 18.912-107.63 49.153-1.7048 1.92-19.842 22.88 0.28161 43.283 24.891 28.953 64.322 73.132 87.738 98.018 19.611 20.498 37.847 1.8925 39.629 0 23.454-24.9 62.423-69.034 87.881-98.579 19.577-19.842 1.751-40.439 0.0546-42.361z" fill="#b3b3b3" fill-rule="evenodd" filter="url(#filter921)" stroke-width="2.5974"/>
<g transform="matrix(2.0543 0 0 2.0543 -3.4757 -261.23)" fill-rule="evenodd">
<path id="Combined-Shape" d="m116.49 164.9c-13.079-14.824-31.782-24.103-52.55-24.103-20.686 0-39.323 9.2061-52.394 23.928-0.8299 0.93465-9.659 11.138 0.13709 21.07 12.117 14.094 31.312 35.6 42.71 47.715 9.5467 9.9781 18.424 0.92128 19.291 0 11.417-12.121 30.387-33.605 42.78-47.988 9.53-9.6591 0.85239-19.685 0.0266-20.621z" fill="url(#linearGradient-1)" stroke-width="1.2644"/>
<path d="m114.16 166.17c-12.497-14.054-30.37-22.85-50.214-22.85-19.766 0-37.575 8.7278-50.065 22.685-0.79302 0.8861-9.2297 10.559 0.131 19.976 11.578 13.362 29.919 33.752 40.812 45.236 9.1224 9.4597 17.604 0.87343 18.434 0 10.91-11.492 29.036-31.859 40.878-45.496 9.1065-9.1573 0.8145-18.663 0.0255-19.55z" fill="url(#linearGradient-2)" stroke-width="1.2644"/>
<g id="Group" transform="matrix(1.2644 0 0 1.2644 28.598 162.29)" fill="none">
<path id="Path" d="m30.873 36.127c-1.5371-1.5371-4.0694-1.4969-5.6561 0.08978-1.5867 1.5867-1.6269 4.119-0.08978 5.6561 1.5371 1.5371 4.0694 1.4969 5.6561-0.08978 1.5867-1.5867 1.6269-4.119 0.08978-5.6561z" fill="#fff"/>
<g stroke="#fff" stroke-linecap="round" stroke-width="4">
<path d="M 56,10.974 C 48.3765,4.6364 40,0 28,0 16,0 7.593,4.7412 0,10.974"/>
<path d="m48 20c-5.4982-4.4547-11.5-8-20-8s-14.543 3.6759-20 8"/>
<path d="m40.091 29.067c-3.3581-2.5524-7.0912-5.0674-12.091-5.0674s-8.6534 2.4864-11.995 4.995"/>
</g>
</g>
</g>
</svg>
