<svg width="256" height="256" version="1.1" viewBox="0 0 256 256" xmlns="http://www.w3.org/2000/svg"><title>深度云打印-linux-256px</title><defs><linearGradient id="b" x1="100.84" x2="100.84" y1="49.77" y2="223.21" gradientTransform="scale(1.2693 .78784)" gradientUnits="userSpaceOnUse"><stop stop-color="#fff" offset="0"/><stop stop-color="#C0E9FE" offset="1"/></linearGradient><linearGradient id="c" x1="7.055" x2="7.055" y1="2.268" y2="9.119" gradientTransform="scale(1.1339 .88192)" gradientUnits="userSpaceOnUse"><stop stop-color="#fff" offset="0"/><stop stop-color="#fff" stop-opacity="0" offset="1"/></linearGradient><linearGradient id="d" x1="107.89" x2="107.89" y1="151.85" y2="279.98" gradientTransform="scale(1.1863 .84293)" gradientUnits="userSpaceOnUse"><stop stop-color="#44A8FF" offset="0"/><stop stop-color="#016EDA" offset="1"/></linearGradient><filter id="a" color-interpolation-filters="sRGB"><feFlood flood-color="#A9A69A" flood-opacity=".498" result="flood"/><feComposite in="flood" in2="SourceGraphic" operator="in" result="composite1"/><feGaussianBlur in="composite1" result="blur" stdDeviation="5"/><feOffset dx="0" dy="5" result="offset"/><feComposite in="SourceGraphic" in2="offset" result="composite2"/></filter></defs><g fill-rule="evenodd" filter="url(#a)"><path d="M52 88V29.992A5.997 5.997 0 0 1 58.005 24h139.99c3.317 0 6.006 2.689 6.006 5.992V88z" fill="#43a6fe"/><path d="M52 86V32c0-3.314 2.687-6 6.005-6h139.99a6.008 6.008 0 0 1 6.006 6v54z" fill="#0080ff"/><path d="M244 133c0-21.227-14.368-39.19-34-45-5.676-21.839-25.712-38.095-50-38-6.594-.095-13.216 1.291-19 4-10.646-11.146-25.341-18-42-18-30.81 0-56.066 24.764-57 55-17.293 6.816-30 23.59-30 43 0 25.397 20.4 45.712 46 46h140c25.563-.848 46-21.494 46-47z" fill="url(#b)"/><path d="M52.022 179.881C42 178 40 176 40 176l12-48s0 36 .022 51.881zM204 179.47c10.022-1.881 12.022-3.881 12.022-3.881l-12-48s0 36-.022 51.88z" fill="#338dbc" fill-opacity=".2"/><g transform="translate(212 120)"><circle cx="8" cy="8" r="8" fill="#00b0df"/><circle cx="8" cy="8" r="6" fill="#31d4ff"/><ellipse cx="8" cy="5.111" rx="4" ry="3.111" fill="url(#c)"/></g><path d="M52 128v102a6 6 0 0 0 6.005 6h139.99a6 6 0 0 0 6.006-6V128z" fill="url(#d)"/><path fill="#fff" d="M188 172H68v-4h120zM188 200H68v-4h120z"/></g></svg>