<svg version="1.1" viewBox="0 0 48 48" xml:space="preserve" xmlns="http://www.w3.org/2000/svg"><defs><filter id="filter926" x="-.17042" y="-.19072" width="1.3408" height="1.3814" color-interpolation-filters="sRGB"><feGaussianBlur stdDeviation="1.9881996"/></filter></defs><path d="M22.2 11.2C15.2 12 10 18.3 10 25.4v3.9c0 3.7 3 6.6 6.6 6.6.8 0 1.4-.6 1.4-1.4v-7.3c0-1.3-1.1-2.4-2.4-2.4H14c-1.2 0-2-1-1.8-2.2C13.2 17 18.1 13 24 13s10.8 4 11.8 9.8C36 24 35.1 25 34 25h-1.6c-1.3 0-2.4 1.1-2.4 2.4v7.3c0 .8.6 1.4 1.4 1.4 3.7 0 6.6-3 6.6-6.6V25c0-8.2-7.3-14.9-15.8-13.8z" fill="#999" filter="url(#filter926)"/><path d="m22.2 11.2c-7 0.8-12.2 7.1-12.2 14.2v3.9c0 3.7 3 6.6 6.6 6.6 0.8 0 1.4-0.6 1.4-1.4v-7.3c0-1.3-1.1-2.4-2.4-2.4h-1.6c-1.2 0-2-1-1.8-2.2 1-5.6 5.9-9.6 11.8-9.6s10.8 4 11.8 9.8c0.2 1.2-0.7 2.2-1.8 2.2h-1.6c-1.3 0-2.4 1.1-2.4 2.4v7.3c0 0.8 0.6 1.4 1.4 1.4 3.7 0 6.6-3 6.6-6.6v-4.5c0-8.2-7.3-14.9-15.8-13.8z" fill="#0c7bc6"/></svg>
