<svg width="48" height="48" version="1.1" viewBox="0 0 48 48" xmlns="http://www.w3.org/2000/svg" xmlns:xlink="http://www.w3.org/1999/xlink">
<defs>
<linearGradient id="dcc_nav_sound_42px-c" x1="8.5484" x2="18.076" y1="21.918" y2="23.568" gradientTransform="scale(1.0801 .92582)" gradientUnits="userSpaceOnUse">
<stop stop-color="#DBDBDB" offset="0"/>
<stop stop-color="#90969D" offset="1"/>
</linearGradient>
<ellipse id="dcc_nav_sound_42px-h" cx="15.5" cy="7.5" rx="15.5" ry="7.5"/>
<path id="dcc_nav_sound_42px-l" d="m15.5 7.5c3.3137 0 6 1.4551 6 3.25 0 1.0152-0.85928 1.9216-2.2054 2.5176-1.2065 0.15142-2.4794 0.23239-3.7946 0.23239s-2.5881-0.080969-3.795-0.23235c-1.3457-0.59603-2.205-1.5025-2.205-2.5177 0-1.7949 2.6863-3.25 6-3.25z"/>
<linearGradient id="linearGradient974" x1="7.8695" x2="20.831" y1="21.8" y2="21.8" gradientTransform="scale(1.0801 .92582)" gradientUnits="userSpaceOnUse">
<stop stop-color="#D0D4DD" offset="0"/>
<stop stop-color="#E8EAF6" offset=".13714"/>
<stop stop-color="#A6A7AE" offset=".63023"/>
<stop stop-color="#AEB0B9" offset="1"/>
</linearGradient>
<linearGradient id="linearGradient976" x1="8.5484" x2="18.076" y1="21.918" y2="23.568" gradientTransform="scale(1.0801 .92582)" gradientUnits="userSpaceOnUse" xlink:href="#dcc_nav_sound_42px-c"/>
<linearGradient id="linearGradient978" x1="6.8533" x2="16.665" y1="23.513" y2="23.893" gradientTransform="scale(1.3229 .75593)" gradientUnits="userSpaceOnUse">
<stop stop-color="#383838" offset="0"/>
<stop stop-color="#5A5A5A" offset=".26111"/>
<stop stop-color="#1A1A1A" offset="1"/>
</linearGradient>
<linearGradient id="linearGradient980" x1="11.404" x2="11.404" y1="7.2741" y2="12.356" gradientTransform="scale(1.3591 .73576)" gradientUnits="userSpaceOnUse">
<stop stop-color="#E4E4E4" offset="0"/>
<stop stop-color="#B1B1B4" offset="1"/>
</linearGradient>
<linearGradient id="linearGradient982" x1="15.758" x2="8.95" y1="13.46" y2="14.037" gradientTransform="scale(1.3591 .73576)" gradientUnits="userSpaceOnUse">
<stop stop-color="#E4E4E4" stop-opacity="0" offset="0"/>
<stop stop-color="#9898A0" stop-opacity=".62" offset="1"/>
</linearGradient>
<radialGradient id="radialGradient984" cx="13.626" cy="14.12" r="28.176" gradientTransform="scale(1.4967 .66815)" gradientUnits="userSpaceOnUse">
<stop stop-color="#505255" offset="0"/>
<stop stop-color="#1E1F21" offset="1"/>
</radialGradient>
<linearGradient id="linearGradient986" x1="17.178" x2="1.5313" y1="11.413" y2="10.851" gradientTransform="scale(1.4967 .66815)" gradientUnits="userSpaceOnUse">
<stop stop-color="#343434" offset="0"/>
<stop stop-color="#151515" offset="1"/>
</linearGradient>
<radialGradient id="radialGradient988" cx="9.7503" cy="15.797" r="7.4826" gradientTransform="scale(1.4142 .70711)" gradientUnits="userSpaceOnUse">
<stop stop-color="#ABABAB" offset="0"/>
<stop stop-color="#5E6168" offset="1"/>
</radialGradient>
<linearGradient id="linearGradient1036" x1="8.5484" x2="18.076" y1="21.918" y2="23.568" gradientTransform="matrix(.77521 1.3427 -1.1509 .66446 74.199 -1.6508)" gradientUnits="userSpaceOnUse" xlink:href="#dcc_nav_sound_42px-c"/>
<filter id="filter1236" x="-.099688" y="-.092575" width="1.1994" height="1.1852" color-interpolation-filters="sRGB">
<feGaussianBlur stdDeviation="1.5435607"/>
</filter>
</defs>
<g transform="translate(-46)" fill="#999" fill-rule="evenodd" filter="url(#filter1236)">
<g fill="#999">
<path d="m68.397 24.903c-2.081-3.6044-6.6898-4.8393-10.294-2.7583l-0.62155 0.35885c-3.9476 2.2792-5.3002 7.327-3.021 11.275l1.4354 2.4862c2.2792 3.9476 7.327 5.3002 11.275 3.021l0.62155-0.35885c3.6044-2.081 4.8393-6.6898 2.7583-10.294z" stroke="url(#linearGradient1036)" stroke-width=".7177"/>
<g stroke-width="1.4354">
<path transform="rotate(60)" d="m67.966-39.964a10.048 5.7416 0 0 1-10.048 5.7416 10.048 5.7416 0 0 1-10.048-5.7416 10.048 5.7416 0 0 1 10.048-5.7416 10.048 5.7416 0 0 1 10.048 5.7416z"/>
<path d="m67.242 37.66c12.448 5.6972 19.32 6.4546 20.616 2.2722 2.118-6.836-13.613-34.083-20.592-35.667-4.2699-0.96897-7.0499 5.361-8.3401 18.99h-3e-6c-0.57574 6.0822 2.7614 11.862 8.3166 14.405z"/>
<path d="m67.242 37.66c12.448 5.6972 19.32 6.4546 20.616 2.2722 2.118-6.836-13.613-34.083-20.592-35.667-4.2699-0.96897-7.0499 5.361-8.3401 18.99h-3e-6c-0.57574 6.0822 2.7614 11.862 8.3166 14.405z"/>
</g>
</g>
<use transform="matrix(.7177 1.2431 -1.2431 .7177 74.199 -1.6508)" width="100%" height="100%" fill="#999999" xlink:href="#dcc_nav_sound_42px-h"/>
<use transform="matrix(.7177 1.2431 -1.2431 .7177 74.199 -1.6508)" width="100%" height="100%" fill="#999999" xlink:href="#dcc_nav_sound_42px-h"/>
<path d="m87.429 42.078c-0.09917 0.06657-0.20076 0.12992-0.30478 0.18998-5.1491 2.9728-14.304-3.2438-20.448-13.885-6.1438-10.641-6.9502-21.678-1.8012-24.651 0.10402-0.060057 0.20968-0.11636 0.31691-0.16896-4.8097 3.2287-3.9139 14.034 2.1058 24.461 5.9577 10.319 14.746 16.477 19.969 14.13z" fill="#999" stroke-width="1.4354"/>
</g>
<g fill-rule="evenodd">
<path transform="matrix(.7177 1.2431 -1.2431 .7177 28.199 -1.6508)" d="m14 12.75c-2.8995 0-5.25 2.3505-5.25 5.25v0.5c0 3.1756 2.5744 5.75 5.75 5.75h2c3.1756 0 5.75-2.5744 5.75-5.75v-0.5c0-2.8995-2.3505-5.25-5.25-5.25z" fill="url(#linearGradient974)" stroke="url(#linearGradient976)" stroke-width=".5"/>
<ellipse transform="matrix(.7177 1.2431 -1.2431 .7177 28.199 -1.6508)" cx="15.5" cy="17.5" rx="7" ry="4" fill="url(#linearGradient978)"/>
<path transform="matrix(.7177 1.2431 1.2431 -.7177 -.98414 15.198)" d="m21.294 5.5852c7.7733 5.5258 10.624 9.408 8.552 11.647-3.3866 3.6591-25.305 3.6591-28.692 0-2.072-2.2386 0.77871-6.1208 8.552-11.647l-9e-7 -1.3e-6c3.469-2.466 8.1188-2.466 11.588-2e-7z" fill="url(#linearGradient980)"/>
<path transform="matrix(.7177 1.2431 1.2431 -.7177 -.98414 15.198)" d="m21.294 5.5852c7.7733 5.5258 10.624 9.408 8.552 11.647-3.3866 3.6591-25.305 3.6591-28.692 0-2.072-2.2386 0.77871-6.1208 8.552-11.647l-9e-7 -1.3e-6c3.469-2.466 8.1188-2.466 11.588-2e-7z" fill="url(#linearGradient982)"/>
<use transform="matrix(.7177 1.2431 -1.2431 .7177 28.199 -1.6508)" width="100%" height="100%" fill="#000000" xlink:href="#dcc_nav_sound_42px-h"/>
<use transform="matrix(.7177 1.2431 -1.2431 .7177 28.199 -1.6508)" width="100%" height="100%" fill="#fafafa" xlink:href="#dcc_nav_sound_42px-h"/>
<path transform="matrix(.7177 1.2431 -1.2431 .7177 28.199 -1.6508)" d="m30.992 7.2499c0.005621 0.083018 0.008453 0.16638 0.008453 0.25006 0 4.1421-6.9396 7.5-15.5 7.5-8.5604 0-15.5-3.3579-15.5-7.5 0-0.08368 0.0028322-0.16704 0.0084527-0.25006 0.2726 4.0265 7.1041 7.2501 15.492 7.2501 8.301 0 15.078-3.1574 15.481-7.1257z" fill="#a1a1a1"/>
<ellipse transform="matrix(.7177 1.2431 -1.2431 .7177 28.199 -1.6508)" cx="15.5" cy="7.25" rx="13.75" ry="6" fill="url(#radialGradient984)" stroke="url(#linearGradient986)" stroke-width=".5"/>
<use transform="matrix(.7177 1.2431 -1.2431 .7177 28.199 -1.6508)" width="100%" height="100%" fill="#000000" xlink:href="#dcc_nav_sound_42px-l"/>
<use transform="matrix(.7177 1.2431 -1.2431 .7177 28.199 -1.6508)" width="100%" height="100%" fill="url(#radialGradient988)" xlink:href="#dcc_nav_sound_42px-l"/>
</g>
</svg>
