<svg width="48" height="48" version="1" xmlns="http://www.w3.org/2000/svg">
<defs>
<filter id="filter879" x="-.072" y="-.072" width="1.144" height="1.144" color-interpolation-filters="sRGB">
<feGaussianBlur stdDeviation="1.2"/>
</filter>
</defs>
<rect transform="matrix(0,-1,-1,0,0,0)" x="-45" y="-44" width="40" height="40" rx="2" ry="2" fill="#999" filter="url(#filter879)"/>
<rect transform="matrix(0,-1,-1,0,0,0)" x="-44" y="-44" width="40" height="40" rx="2" ry="2" fill="#4f4f4f"/>
<g opacity=".35">
<rect x="5" y="32" width="18" height="10" rx="2" ry="2"/>
<rect x="25" y="32" width="18" height="10" rx="2" ry="2"/>
<rect x="37" y="10" width="6" height="1"/>
<rect x="37" y="13" width="6" height="1"/>
<rect x="37" y="16" width="6" height="1"/>
<rect x="37" y="19" width="6" height="1"/>
<rect x="37" y="22" width="6" height="1"/>
<rect x="37" y="25" width="6" height="1"/>
</g>
</svg>
