<svg width="48" height="48" version="1.1" viewBox="0 0 48 48" xmlns="http://www.w3.org/2000/svg">
<defs>
<filter id="filter884" x="-.12319" y="-.096146" width="1.2464" height="1.1923" color-interpolation-filters="sRGB">
<feGaussianBlur stdDeviation="1.6425"/>
</filter>
</defs>
<title>android-device-48px</title>
<g transform="translate(-4)">
<g fill-rule="evenodd">
<path d="m12 5.005c0-1.107 1.196-2.005 2.6733-2.005h26.653c1.476 0 2.6733 0.894 2.6733 2.005v36.99a2.6733 2.005 0 0 1-2.6733 2.005h-26.653a2.6707 2.003 0 0 1-2.6733-2.005z" fill="#ccc" filter="url(#filter884)"/>
<path d="m12 5.005c0-1.107 1.196-2.005 2.6733-2.005h26.653c1.476 0 2.6733 0.894 2.6733 2.005v36.99a2.6733 2.005 0 0 1-2.6733 2.005h-26.653a2.6707 2.003 0 0 1-2.6733-2.005z" fill="#c1b6aa"/>
<path d="m13 5.003a1.3599 0.997 0 0 1 1.3667-1.003h27.274a1.3585 0.996 0 0 1 1.3667 1.003v36.994a1.3599 0.997 0 0 1-1.3667 1.003h-27.274a1.3585 0.996 0 0 1-1.3667-1.003z" fill="#f7ebde"/>
<path d="m14 7h28v32h-28z" fill="#1a1a1a"/>
<circle cx="32.462" cy="5.5" r=".5" fill="#1c1c1c"/>
</g>
<path d="m26.88 5.5h4m-8 0h1" fill="none" stroke="#8a837b" stroke-linecap="round" stroke-width=".5"/>
</g>
</svg>
