<svg width="64" height="64" version="1.1" viewBox="0 0 64 64" xmlns="http://www.w3.org/2000/svg"><title>accessories-calculator</title><defs><linearGradient id="b" x1="26" x2="26" y1="0" y2="50.699" gradientTransform="translate(6 6)" gradientUnits="userSpaceOnUse"><stop stop-color="#F6F6F6" offset="0"/><stop stop-color="#EAEAEA" offset="1"/></linearGradient><linearGradient id="d" x1="10.247" x2="10.247" y1="1.025" y2="21.519" gradientTransform="scale(1.0247 .9759)" gradientUnits="userSpaceOnUse"><stop stop-color="#14C4FF" offset="0"/><stop stop-color="#009AFF" offset="1"/></linearGradient><linearGradient id="c" x1="10.247" x2="10.247" y1="1.025" y2="20.743" gradientTransform="scale(1.0247 .9759)" gradientUnits="userSpaceOnUse"><stop stop-color="#fff" offset="0"/><stop stop-color="#fff" offset="1"/></linearGradient><filter id="a" color-interpolation-filters="sRGB"><feFlood flood-color="#000" flood-opacity=".196" result="flood"/><feComposite in="flood" in2="SourceGraphic" operator="in" result="composite1"/><feGaussianBlur in="composite1" result="blur" stdDeviation="1"/><feOffset dx="0" dy="1" result="offset"/><feComposite in="SourceGraphic" in2="offset" result="composite2"/></filter></defs><g fill-rule="evenodd" filter="url(#a)"><path d="M7.33 6h49.34c.735 0 1.33.595 1.33 1.33v49.34A1.33 1.33 0 0 1 56.67 58H7.33A1.33 1.33 0 0 1 6 56.67V7.33C6 6.595 6.595 6 7.33 6z" fill="url(#b)"/><path d="M58 31.5v25.17A1.33 1.33 0 0 1 56.67 58H7.33A1.33 1.33 0 0 1 6 56.67V31.5v24.17c0 .735.595 1.33 1.33 1.33h49.34A1.33 1.33 0 0 0 58 55.67z" fill="#b5b5b5"/><path d="M58 32.5V7.33A1.33 1.33 0 0 0 56.67 6H7.33A1.33 1.33 0 0 0 6 7.33V32.5 8.33C6 7.595 6.595 7 7.33 7h49.34c.735 0 1.33.595 1.33 1.33z" fill="#fff"/><g fill="none"><g transform="translate(9 34)"><rect y="1" width="21" height="21" rx="2.66" fill="#000" fill-opacity=".1"/><rect width="21" height="21" rx="2.66" fill="#fff"/><rect y="1" width="21" height="20" rx="2.66" fill="url(#c)"/><path d="M10.95 11.243l3.535-3.536L13.778 7l-3.535 3.535L6.707 7 6 7.707l3.536 3.536L6 14.778l.707.707 3.536-3.535 3.535 3.535.707-.707z" fill="#000"/></g><g transform="translate(9 9)"><rect y="1" width="21" height="21" rx="2.66" fill="#000" fill-opacity=".1"/><rect width="21" height="21" rx="2.66" fill="#fff"/><rect y="1" width="21" height="20" rx="2.66" fill="url(#c)"/><path d="M11 10V5h-1v5H5v1h5v5h1v-5h5v-1z" fill="#000"/></g><g transform="translate(34 9)"><rect y="1" width="21" height="21" rx="2.66" fill="#000" fill-opacity=".1"/><rect width="21" height="21" rx="2.66" fill="#fff"/><rect y="1" width="21" height="20" rx="2.66" fill="url(#c)"/><path fill="#000" d="M5 10h11v1H5z"/></g><g transform="translate(34 34)"><rect y="1" width="21" height="21" rx="2.66" fill="#000" fill-opacity=".1"/><rect width="21" height="21" rx="2.66" fill="#45ceff"/><rect y="1" width="21" height="20" rx="2.66" fill="url(#d)"/><path d="M6 8h9v1H6zm0 4h9v1H6z" fill="#fff"/></g></g></g></svg>