<svg width="64" height="64" version="1" xmlns="http://www.w3.org/2000/svg">
<defs>
<filter id="a" color-interpolation-filters="sRGB">
<feFlood flood-opacity=".196" result="flood"/>
<feComposite in="flood" in2="SourceGraphic" operator="in" result="composite1"/>
<feGaussianBlur in="composite1" result="blur" stdDeviation="1"/>
<feOffset dx="0" dy="1" result="offset"/>
<feComposite in="SourceGraphic" in2="offset" result="composite2"/>
</filter>
</defs>
<path d="M20.156 5C11.234 5 4 13.233 4 23.387c0 2.728.422 5.352 1.164 7.86 0 0 .674 2.262 1.27 3.507C13.244 50.676 32 61 32 61s18.757-10.324 25.566-26.246c.595-1.245 1.27-3.508 1.27-3.508.74-2.507 1.163-5.13 1.163-7.859C60 13.233 52.765 5 43.843 5 39.163 5 34.951 7.382 32 11c-2.951-3.618-7.164-6-11.844-6z" opacity=".2"/>
<path d="M20.156 4C11.234 4 4 12.233 4 22.387c0 2.728.422 5.352 1.164 7.86 0 0 .674 2.262 1.27 3.507C13.244 49.676 32 60 32 60s18.757-10.324 25.566-26.246c.595-1.245 1.27-3.508 1.27-3.508.74-2.507 1.163-5.13 1.163-7.859C60 12.233 52.765 4 43.843 4 39.163 4 34.951 6.382 32 10c-2.951-3.618-7.164-6-11.844-6z" fill="#ea004e" filter="url(#a)"/>
<path d="M20.156 4C11.234 4 4 12.233 4 22.387c0 .179.016.353.02.531C4.24 12.983 11.373 5 20.157 5 24.836 5 29.049 7.382 32 11c2.95-3.618 7.164-6 11.844-6 8.783 0 15.916 7.983 16.137 17.918.003-.178.02-.352.02-.531C60.001 12.233 52.766 4 43.844 4c-4.68 0-8.892 2.382-11.844 6-2.951-3.618-7.164-6-11.844-6z" fill="#fff" opacity=".2"/>
</svg>
