<svg width="64" height="64" version="1" xmlns="http://www.w3.org/2000/svg"><defs><filter id="a" color-interpolation-filters="sRGB"><feFlood flood-color="#000" flood-opacity=".196" result="flood"/><feComposite in="flood" in2="SourceGraphic" operator="in" result="composite1"/><feGaussianBlur in="composite1" result="blur" stdDeviation="1"/><feOffset dx="0" dy="1" result="offset"/><feComposite in="SourceGraphic" in2="offset" result="composite2"/></filter></defs><g filter="url(#a)"><path d="M4 14v41.222A2.782 2.782 0 0 0 6.8 58h50.401A2.78 2.78 0 0 0 60 55.222V14z" opacity=".2"/><rect x="9.6" y="42.1" width="44.8" height="5.6" rx="2.133" ry="2.322" opacity=".2"/><path d="M4 13v41.222A2.782 2.782 0 0 0 6.8 57h50.401A2.78 2.78 0 0 0 60 54.222V13z" fill="#c7c7c7"/><path d="M6.8 7A2.782 2.782 0 0 0 4 9.777V13h56V9.777A2.781 2.781 0 0 0 57.2 7z" fill="#5a6367"/><rect x="10" y="42" width="44" height="6" rx="2.095" ry="2.488" opacity=".2"/><rect x="10" y="41" width="44" height="6" rx="2.095" ry="2.488" fill="#fff"/><path d="M48 45c0 3.864-3.136 7-7 7s-7-3.136-7-7 3.136-7 7-7 7 3.136 7 7z" fill-rule="evenodd" opacity=".1"/><path d="M48 44c0 3.864-3.136 7-7 7s-7-3.136-7-7 3.136-7 7-7 7 3.136 7 7z" fill="#5294e2" fill-rule="evenodd"/><circle cx="13" cy="23" r="3" opacity=".2"/><circle cx="13" cy="22" r="3" fill="#fffff7"/><rect x="22" y="30" width="6" height="6" rx=".944" ry="1.031" opacity=".1"/><rect x="22" y="29" width="6" height="6" rx=".944" ry="1.031" fill="#5294e2"/><circle cx="13" cy="33" r="3" opacity=".1"/><circle cx="13" cy="32" r="3" fill="#5294e2"/><rect x="22" y="20" width="6" height="6" rx=".944" ry="1.031" opacity=".2"/><rect x="22" y="19" width="6" height="6" rx=".944" ry="1.031" fill="#fff"/><path d="M6.8 7A2.782 2.782 0 0 0 4 9.777v1A2.782 2.782 0 0 1 6.8 8H57.2c1.552 0 2.8 1.238 2.8 2.777v-1A2.782 2.782 0 0 0 57.2 7H6.8z" fill="#fff" opacity=".1"/></g></svg>