<svg width="64" height="64" version="1.1" viewBox="0 0 64 64" xmlns="http://www.w3.org/2000/svg" xmlns:xlink="http://www.w3.org/1999/xlink"><title>crossover</title><defs><path id="b" d="M28 55c7.456 0 14.206-3.022 19.092-7.908S55 35.456 55 28C55 13.088 42.912 1 28 1S1 13.088 1 28s12.088 27 27 27z"/><filter id="a" color-interpolation-filters="sRGB"><feFlood flood-color="#000" flood-opacity=".196" result="flood"/><feComposite in="flood" in2="SourceGraphic" operator="in" result="composite1"/><feGaussianBlur in="composite1" result="blur" stdDeviation="1"/><feOffset dx="0" dy="1" result="offset"/><feComposite in="SourceGraphic" in2="offset" result="composite2"/></filter></defs><g transform="translate(4 3)" fill="none" fill-rule="evenodd" filter="url(#a)"><circle cx="28" cy="28" r="28" fill="#fff"/><use width="100%" height="100%" fill="#fff" fill-rule="evenodd" xlink:href="#b"/><path d="M28 54.5c7.124 0 13.8-2.824 18.738-7.762S54.5 35.124 54.5 28C54.5 13.364 42.636 1.5 28 1.5S1.5 13.364 1.5 28 13.364 54.5 28 54.5z" stroke="#1038fb"/><path d="M49.591 21.044c-2.454-1.952-5.311-3.697-8.489-5.112-13.21-5.882-26.961-3.821-30.712 4.604-3.751 8.424 3.918 20.021 17.13 25.903a41.43 41.43 0 0 0 2.472 1.008c-7.751-6.165-11.49-14.394-8.641-20.792 3.517-7.9 15.827-10.204 28.24-5.611z" fill="#1038fb"/><path d="M6.346 34.705c2.428 2.001 5.263 3.802 8.425 5.276 13.149 6.132 26.977 4.305 30.887-4.08 3.91-8.384-3.58-20.151-16.73-26.282-.818-.382-1.64-.734-2.462-1.054 7.667 6.32 11.273 14.639 8.304 21.007-3.666 7.862-16.054 9.958-28.424 5.133z" fill="#fd5400" stroke="#fff" stroke-width="1.229"/></g></svg>