<svg width="64" height="64" version="1.1" viewBox="0 0 64 64" xmlns="http://www.w3.org/2000/svg"><title>日历-64px</title><defs><linearGradient id="b" x1="36.835" x2="36.835" y1="5.213" y2="51.256" gradientTransform="scale(.86874 1.1511)" gradientUnits="userSpaceOnUse"><stop stop-color="#F9F9F9" offset="0"/><stop stop-color="#D7D7D7" offset="1"/></linearGradient><linearGradient id="c" x1="31.025" x2="31.025" y1="9.283" y2="57.76" gradientTransform="scale(1.0314 .96954)" gradientUnits="userSpaceOnUse"><stop stop-color="#FC5959" offset="0"/><stop stop-color="#DF2031" offset="1"/></linearGradient><filter id="a" color-interpolation-filters="sRGB"><feFlood flood-color="#000" flood-opacity=".196" result="flood"/><feComposite in="flood" in2="SourceGraphic" operator="in" result="composite1"/><feGaussianBlur in="composite1" result="blur" stdDeviation="1"/><feOffset dx="0" dy="1" result="offset"/><feComposite in="SourceGraphic" in2="offset" result="composite2"/></filter></defs><g fill-rule="evenodd" filter="url(#a)"><rect x="12" y="6" width="40" height="53" rx="1.5" fill="url(#b)"/><rect x="12" y="7" width="40" height="51" rx="1.5" fill="#ececec"/><path d="M7 10.497C7 9.67 7.669 9 8.496 9h47.007C56.33 9 57 9.664 57 10.497v44.005c0 .827-.67 1.497-1.497 1.497H8.496A1.493 1.493 0 0 1 7 54.502z" fill="url(#c)"/><path d="M7 11.497C7 10.67 7.669 10 8.496 10h47.007c.827 0 1.497.67 1.497 1.497v42.006C57 54.33 56.33 55 55.503 55H8.496A1.497 1.497 0 0 1 7 53.503z" fill="#eb3a49"/><path d="M19.292 36.669l3.5-2.008c1.568-.905 2.667-1.677 3.3-2.316.996-1.002 1.494-2.147 1.494-3.438 0-1.508-.455-2.705-1.367-3.592s-2.127-1.33-3.646-1.33c-2.248 0-3.803.845-4.666 2.534-.462.904-.717 2.159-.766 3.763h-3.336c.037-2.256.456-4.095 1.258-5.518C16.485 22.254 18.994 21 22.59 21c2.99 0 5.174.802 6.554 2.407s2.069 3.39 2.069 5.355c0 2.075-.735 3.848-2.206 5.32-.85.856-2.808 2.2-5.008 3.418 0 0-6.093 2.5-7 6.5h14v3H13c.122-2.231 1-7.5 6.292-10.33zM52 21v3c-.839.825-9 11.5-10.523 23H38c.827-5.047 3.477-15 10-23H34v-3z" fill="#df2031"/><path d="M19.292 35.669l3.5-2.008c1.568-.905 2.667-1.677 3.3-2.316.996-1.002 1.494-2.147 1.494-3.438 0-1.508-.455-2.705-1.367-3.592s-2.127-1.33-3.646-1.33c-2.248 0-3.803.845-4.666 2.534-.462.904-.717 2.159-.766 3.763h-3.336c.037-2.256.456-4.095 1.258-5.518C16.485 21.254 18.994 20 22.59 20c2.99 0 5.174.802 6.554 2.407s2.069 3.39 2.069 5.355c0 2.075-.735 3.848-2.206 5.32-.85.856-2.808 2.2-5.008 3.418 0 0-6.093 2.5-7 6.5h14v3H13c.122-2.231 1-7.5 6.292-10.33zM52 20v3c-.839.825-9 11.5-10.523 23H38c.827-5.047 3.477-15 10-23H34v-3z" fill="#fff"/></g></svg>