<svg width="64" height="64" version="1.1" viewBox="0 0 64 64" xmlns="http://www.w3.org/2000/svg"><title>文件管理器-64px</title><defs><filter id="a" color-interpolation-filters="sRGB"><feFlood flood-color="#000" flood-opacity=".196" result="flood"/><feComposite in="flood" in2="SourceGraphic" operator="in" result="composite1"/><feGaussianBlur in="composite1" result="blur" stdDeviation="1"/><feOffset dx="0" dy="1" result="offset"/><feComposite in="SourceGraphic" in2="offset" result="composite2"/></filter></defs><g filter="url(#a)"><g fill-rule="evenodd"><path d="M8 22.4v-6.404c0-.734.547-1.572 1.226-1.873L29.61 5.081c1.346-.597 3.53-.595 4.866 0l20.302 9.042c.674.3 1.22 1.15 1.22 1.873v41.501c0 .83-.678 1.503-1.502 1.503H9.502C8.672 59 8 58.334 8 57.497z" fill="#00b8ff"/><path fill="#ffd245" d="M9.467 18.73l39.585-5.938 5.344 38.027-39.584 5.938z"/><path fill="#fff" d="M12 18h40v37H12z"/><path d="M9 22h46v35c0 .553-.455 1-1.004 1H10.003A1.007 1.007 0 0 1 9 57z" fill="#39d4ff" opacity=".7"/><path fill="#b3efff" opacity=".7" d="M55 22H9v1h46z"/></g><path d="M28.5 43V32.5s.833 2.833 3.5 2.833 3.5-2.833 3.5-2.833V49" fill="none" stroke="#fff"/><g fill-rule="evenodd"><circle cx="32" cy="33" r="6" opacity=".1"/><circle cx="32" cy="32" r="6" fill="#fff"/><circle cx="32" cy="32" r="2" fill="#4ed8ff"/></g></g></svg>