<svg width="64" height="64" version="1.1" viewBox="0 0 64 64" xmlns="http://www.w3.org/2000/svg" xmlns:xlink="http://www.w3.org/1999/xlink"><title>dde-introduction</title><defs><circle id="b" cx="32" cy="32" r="28"/><linearGradient id="c" x1="27.605" x2="27.605" y1="4" y2="60" gradientUnits="userSpaceOnUse"><stop stop-color="#30FFAF" offset="0"/><stop stop-color="#08C5FF" offset="1"/></linearGradient><linearGradient id="d" x1="32" x2="32" y1="4" y2="59.292" gradientUnits="userSpaceOnUse"><stop stop-color="#8BFFD4" offset="0"/><stop stop-color="#00B2D4" offset="1"/></linearGradient><path id="e" d="M30.477 3.23c6.542 0 11.845 5.303 11.845 11.844V37.23a2.5 2.5 0 0 1-2.5 2.5h-21.19V15.074c0-6.541 5.303-11.845 11.845-11.845z"/><path id="f" d="M26.34 24.404h14.209v1.755H26.34z"/><path id="g" d="M22.618 28.127h14.209v1.755H22.618z"/><path id="h" d="M15.341 20.926a3.685 3.685 0 0 1 3.685 3.685v5.615h-7.37v-5.615a3.685 3.685 0 0 1 3.685-3.685z"/><path id="i" d="M19.187 24.772a3.51 3.51 0 0 1 3.51 3.51v5.79h-7.02v-5.79a3.51 3.51 0 0 1 3.51-3.51z"/><path id="j" d="M22.91 28.495a3.51 3.51 0 0 1 3.51 3.51v5.79H19.4v-5.79a3.51 3.51 0 0 1 3.51-3.51z"/><path id="k" d="M26.757 32.341a3.685 3.685 0 0 1 3.685 3.685v3.115a2.5 2.5 0 0 1-2.5 2.5h-4.87v-5.615a3.685 3.685 0 0 1 3.685-3.685z"/><path id="l" d="M27.175 8.84v6.697c0 3.597-2.75 6.512-6.142 6.512V8.839"/><filter id="a" color-interpolation-filters="sRGB"><feFlood flood-color="#000" flood-opacity=".196" result="flood"/><feComposite in="flood" in2="SourceGraphic" operator="in" result="composite1"/><feGaussianBlur in="composite1" result="blur" stdDeviation="1"/><feOffset dx="0" dy="1" result="offset"/><feComposite in="SourceGraphic" in2="offset" result="composite2"/></filter></defs><g filter="url(#a)"><use width="100%" height="100%" fill="#000" fill-opacity=".1" fill-rule="evenodd" xlink:href="#b"/><circle cx="32" cy="32" r="28" fill="url(#c)" fill-rule="evenodd"/><path d="M32 4.75C16.95 4.75 4.75 16.95 4.75 32S16.95 59.25 32 59.25 59.25 47.05 59.25 32 47.05 4.75 32 4.75zM32 4c15.464 0 28 12.536 28 28S47.464 60 32 60 4 47.464 4 32 16.536 4 32 4z" fill="url(#d)"/><g transform="rotate(45 20.199 34.222)" fill="none" fill-rule="evenodd"><use width="100%" height="100%" fill="#404040" fill-rule="evenodd" xlink:href="#e"/><path d="M19.382 38.979h20.44a1.75 1.75 0 0 0 1.75-1.75V15.074c0-6.128-4.967-11.095-11.095-11.095S19.382 8.946 19.382 15.074z" stroke="#373737" stroke-width="1.5"/></g><path d="M31.452 19.513l15.604 15.604a2.5 2.5 0 0 1 0 3.536l-13.34 13.34a2.5 2.5 0 0 1-3.536 0L14.576 36.389c-4.66-4.66-4.66-12.215 0-16.875s12.215-4.66 16.875 0z" fill="#fff" fill-rule="evenodd"/><g fill="none" fill-rule="evenodd"><g transform="rotate(45 23.167 38.024)"><use width="100%" height="100%" fill="#606060" fill-rule="evenodd" xlink:href="#f"/><path stroke="#373737" stroke-width="1.75" d="M27.215 25.279h12.459v1H27.215z"/></g><g transform="rotate(45 19.444 41.747)"><use width="100%" height="100%" fill="#606060" fill-rule="evenodd" xlink:href="#g"/><path stroke="#373737" stroke-width="1.75" d="M23.493 29.002h12.459v1H23.493z"/></g><g transform="rotate(45 5.063 38.319)"><use width="100%" height="100%" fill="#404040" fill-rule="evenodd" xlink:href="#h"/><path d="M12.531 29.351h5.62v-4.74a2.81 2.81 0 1 0-5.62 0z" stroke="#373737" stroke-width="1.75"/></g><g transform="rotate(45 8.91 42.165)"><use width="100%" height="100%" fill="#404040" fill-rule="evenodd" xlink:href="#i"/><path d="M16.553 33.198h5.27v-4.916a2.635 2.635 0 1 0-5.27 0z" stroke="#373737" stroke-width="1.75"/></g><g transform="rotate(45 12.632 45.888)"><use width="100%" height="100%" fill="#404040" fill-rule="evenodd" xlink:href="#j"/><path d="M20.275 36.92h5.27v-4.916a2.635 2.635 0 1 0-5.27 0z" stroke="#373737" stroke-width="1.75"/></g><g transform="rotate(45 16.478 49.734)"><use width="100%" height="100%" fill="#404040" fill-rule="evenodd" xlink:href="#k"/><path d="M23.947 40.767h3.995c.898 0 1.625-.728 1.625-1.625v-3.115a2.81 2.81 0 1 0-5.62 0z" stroke="#373737" stroke-width="1.75"/></g><g transform="rotate(45 13.826 28.187)"><use width="100%" height="100%" fill="#404040" fill-rule="evenodd" xlink:href="#l"/><path d="M26.3 9.715h-4.392v11.382c2.484-.446 4.392-2.756 4.392-5.56z" stroke="#373737" stroke-width="1.75"/></g></g></g></svg>