<svg width="64" height="64" version="1.1" viewBox="0 0 64 64" xmlns="http://www.w3.org/2000/svg"><title>deepin-calculator</title><defs><linearGradient id="b" x1="29" x2="29" y1="2" y2="50.161" gradientTransform="translate(3 4)" gradientUnits="userSpaceOnUse"><stop stop-color="#35C7FF" offset="0"/><stop stop-color="#00A7FF" offset="1"/></linearGradient><linearGradient id="c" x1="16.5" x2="16.5" y1="3" y2="27.054" gradientTransform="translate(3 4)" gradientUnits="userSpaceOnUse"><stop stop-color="#fff" offset="0"/><stop stop-color="#fff" offset="1"/></linearGradient><filter id="a" color-interpolation-filters="sRGB"><feFlood flood-color="#000" flood-opacity=".196" result="flood"/><feComposite in="flood" in2="SourceGraphic" operator="in" result="composite1"/><feGaussianBlur in="composite1" result="blur" stdDeviation="1"/><feOffset dx="0" dy="1" result="offset"/><feComposite in="SourceGraphic" in2="offset" result="composite2"/></filter></defs><g fill-rule="evenodd" filter="url(#a)"><path d="M9 6h46a3 3 0 0 1 3 3v46a3 3 0 0 1-3 3H9a3 3 0 0 1-3-3V9a3 3 0 0 1 3-3z" fill="url(#b)"/><path d="M9 7h23v25H7V9a2 2 0 0 1 2-2z" fill="url(#c)"/><path d="M32 32h25v23a2 2 0 0 1-2 2H32z" fill="#fff"/><path d="M58 31.5V55a3 3 0 0 1-3 3H9a3 3 0 0 1-3-3V31.5 54a3 3 0 0 0 3 3h46a3 3 0 0 0 3-3z" fill="#248ff4"/><path d="M58 32.5V9a3 3 0 0 0-3-3H9a3 3 0 0 0-3 3v23.5V10a3 3 0 0 1 3-3h46a3 3 0 0 1 3 3z" fill="#5fd1ff"/><path d="M19.95 45.243l3.535-3.536-.707-.707-3.535 3.536L15.707 41l-.707.707 3.536 3.536L15 48.778l.707.707 3.536-3.535 3.535 3.535.707-.707z" fill="#fff"/><path d="M20 19v-5h-1v5h-5v1h5v5h1v-5h5v-1z" fill="#2abff9"/><path d="M39 19h11v1H39z" fill="#fff"/><path d="M40 42h9v1h-9zm0 4h9v1h-9z" fill="#2abff9"/></g></svg>