<svg width="64" height="64" version="1.1" viewBox="0 0 64 64" xmlns="http://www.w3.org/2000/svg" xmlns:xlink="http://www.w3.org/1999/xlink"><title>deepin-system-monitor</title><defs><linearGradient id="b" x1="35.631" x2="25.827" y1="60" y2="4.675" gradientUnits="userSpaceOnUse"><stop stop-color="#4721FF" offset="0"/><stop stop-color="#8F86FF" offset="1"/></linearGradient><linearGradient id="c" x1="35.502" x2="25.932" y1="59" y2="5" gradientUnits="userSpaceOnUse"><stop stop-color="#5F3EFF" offset="0"/><stop stop-color="#6E62FF" offset="1"/></linearGradient><linearGradient id="e" x1="22" x2="22" y2="44" gradientUnits="userSpaceOnUse"><stop stop-color="#1E007E" offset="0"/><stop stop-color="#3721B2" offset="1"/></linearGradient><circle id="d" cx="22" cy="22" r="22"/><path id="h" d="M12.994 35.836c.216.433.614 1.029 1.21 1.626 1.029 1.028 2.298 1.662 3.796 1.662 1.86 0 3.233-1.036 4.238-2.878.683-1.252 1.072-2.442 1.848-5.284 1.348-4.944 2.2-6.504 3.914-6.504 1.649 0 2.336 1.512 3.227 6.41.518 2.85.8 4.042 1.374 5.305.854 1.88 2.176 2.951 4.066 2.951 2.387 0 3.293-1.325 4.008-4.185l.073-.296c.442-1.782.686-2.185 1.252-2.185.398 0 .586.253.992 1.507.024.071.138.427.17.529.072.218.132.397.195.572 1.057 2.957 2.934 4.4 6.745 4.054a1.125 1.125 0 1 0-.204-2.241c-2.7.245-3.688-.514-4.423-2.57a18.148 18.148 0 0 1-.172-.51l-.17-.528c-.685-2.113-1.392-3.063-3.133-3.063-2.066 0-2.751 1.133-3.435 3.893l-.073.292c-.487 1.948-.851 2.481-1.825 2.481-1.649 0-2.336-1.512-3.227-6.41-.518-2.85-.8-4.042-1.374-5.305-.854-1.88-2.177-2.951-4.066-2.951-1.86 0-3.233 1.036-4.237 2.878-.684 1.252-1.073 2.442-1.848 5.284-1.348 4.944-2.2 6.504-3.915 6.504-.835 0-1.566-.365-2.204-1.003a4.915 4.915 0 0 1-.79-1.041 1.125 1.125 0 1 0-2.012 1.006z"/><filter id="g" x="-39.2%" y="-88.4%" width="178.4%" height="276.9%"><feMorphology in="SourceAlpha" operator="dilate" radius=".5" result="shadowSpreadOuter1"/><feOffset dx="0" dy="0" in="shadowSpreadOuter1" result="shadowOffsetOuter1"/><feGaussianBlur in="shadowOffsetOuter1" result="shadowBlurOuter1" stdDeviation="4.5"/><feColorMatrix in="shadowBlurOuter1" values="0 0 0 0 0.243137255 0 0 0 0 0.423529412 0 0 0 0 1 0 0 0 1 0"/></filter><filter id="a" color-interpolation-filters="sRGB"><feFlood flood-color="#000" flood-opacity=".196" result="flood"/><feComposite in="flood" in2="SourceGraphic" operator="in" result="composite1"/><feGaussianBlur in="composite1" result="blur" stdDeviation="1"/><feOffset dx="0" dy="1" result="offset"/><feComposite in="SourceGraphic" in2="offset" result="composite2"/></filter></defs><g filter="url(#a)"><g fill-rule="evenodd"><circle cx="32" cy="32" r="28" fill="url(#b)"/><circle cx="32" cy="32" r="27" fill="url(#c)"/><g transform="translate(10 10)" fill="none"><mask id="f" fill="#fff"><use width="100%" height="100%" xlink:href="#d"/></mask><use width="100%" height="100%" fill="url(#e)" xlink:href="#d"/><g stroke="#fff"><path d="M1 22.5h42.5M1 12.5h42.5M8.667 2.5h26M.667 32.5h42M32.5 44V.667M41.5 34V10M12 43.667V-1M22 43.667V-1M2.5 34V10M8.667 40.5h26.667" mask="url(#f)" opacity=".2"/></g></g><rect x="22" y="48" width="20.25" height="9" rx="4.5" fill="#6040ff"/><path d="M27.542 56.76c.72 0 1.313-.285 1.77-.818l-.585-.69c-.3.323-.675.548-1.147.548-.878 0-1.448-.728-1.448-1.935 0-1.193.63-1.913 1.47-1.913.42 0 .742.195 1.02.465l.585-.705A2.264 2.264 0 0 0 27.579 51C26.177 51 25 52.073 25 53.902c0 1.853 1.14 2.858 2.543 2.858zm2.663-.105v-5.55h1.822c1.23 0 2.175.428 2.175 1.74 0 1.268-.953 1.838-2.145 1.838h-.743v1.972zm1.11-2.85h.667c.765 0 1.133-.323 1.133-.96 0-.645-.406-.863-1.17-.863h-.63zm6.022 2.955c1.357 0 2.145-.757 2.145-2.603v-3.052h-1.065v3.15c0 1.155-.42 1.545-1.08 1.545-.652 0-1.05-.39-1.05-1.545v-3.15h-1.11v3.053c0 1.844.81 2.602 2.16 2.602z" fill="#4e30dd"/><path d="M27.542 55.76c.72 0 1.313-.285 1.77-.818l-.585-.69c-.3.323-.675.548-1.147.548-.878 0-1.448-.728-1.448-1.935 0-1.193.63-1.913 1.47-1.913.42 0 .742.195 1.02.465l.585-.705A2.264 2.264 0 0 0 27.579 50C26.177 50 25 51.073 25 52.902c0 1.853 1.14 2.858 2.543 2.858zm2.663-.105v-5.55h1.822c1.23 0 2.175.428 2.175 1.74 0 1.268-.953 1.838-2.145 1.838h-.743v1.972zm1.11-2.85h.667c.765 0 1.133-.323 1.133-.96 0-.645-.406-.863-1.17-.863h-.63zm6.022 2.955c1.357 0 2.145-.757 2.145-2.603v-3.052h-1.065v3.15c0 1.155-.42 1.545-1.08 1.545-.652 0-1.05-.39-1.05-1.545v-3.15h-1.11v3.053c0 1.844.81 2.602 2.16 2.602z" fill="#fff"/></g><g fill="none"><path d="M42.096 52.671C49.737 48.931 55 41.08 55 32 55 19.297 44.703 9 32 9S9 19.297 9 32c0 9.1 5.285 16.967 12.954 20.696" opacity=".497" stroke="#fff" stroke-linecap="round" stroke-width="2"/><path d="M32 9C19.297 9 9 19.297 9 32c0 9.1 5.285 16.967 12.954 20.696" stroke="#fff" stroke-linecap="round" stroke-linejoin="round" stroke-width="2"/><use width="100%" height="100%" fill="#000" filter="url(#g)" xlink:href="#h"/><use width="100%" height="100%" fill="#fff" fill-rule="evenodd" xlink:href="#h"/></g></g></svg>