<svg width="64" height="64" version="1.1" viewBox="0 0 64 64" xmlns="http://www.w3.org/2000/svg"><title>deepin-manual</title><defs><radialGradient id="b" cx="33.866" cy="13.079" r="50.845" gradientTransform="scale(.94491 1.0583)" gradientUnits="userSpaceOnUse"><stop stop-color="#04A38C" offset="0"/><stop stop-color="#075661" offset="1"/></radialGradient><linearGradient id="c" x1="10.66" x2="7.408" y1="38.502" y2="38.502" gradientTransform="scale(.94491 1.0583)" gradientUnits="userSpaceOnUse"><stop stop-color="#04A38C" stop-opacity="0" offset="0"/><stop stop-color="#075661" offset="1"/></linearGradient><filter id="a" color-interpolation-filters="sRGB"><feFlood flood-color="#000" flood-opacity=".196" result="flood"/><feComposite in="flood" in2="SourceGraphic" operator="in" result="composite1"/><feGaussianBlur in="composite1" result="blur" stdDeviation="1"/><feOffset dx="0" dy="1" result="offset"/><feComposite in="SourceGraphic" in2="offset" result="composite2"/></filter></defs><g fill-rule="evenodd" filter="url(#a)"><rect x="7" y="4" width="50" height="56" rx="3" fill="url(#b)"/><path d="M57 8a3 3 0 0 0-3-3H10a3 3 0 0 0-3 3V7a3 3 0 0 1 3-3h44a3 3 0 0 1 3 3z" fill="#00ab9d" fill-opacity=".6"/><rect x="7" y="4" width="50" height="56" rx="3" fill="url(#c)"/><path d="M10 53h44.974a2 2 0 0 0 2-2v-2 8a2 2 0 0 1-2 2H10a3 3 0 1 1 0-6z" fill="#034849"/><path d="M10 54h46v-2 4a2 2 0 0 1-2 2H10a2 2 0 1 1 0-4z" fill="#d5fcf9"/><path d="M57 56v1a3 3 0 0 1-3 3H10a3 3 0 0 1-3-3v-1a3 3 0 0 0 3 3h44a3 3 0 0 0 3-3z" fill="#002f2b"/><g fill="#fff"><path d="M27.335 34.626l.492-4.958c.5-.84 1.33-1.54 2.494-2.108 1.55-.756 2.483-.99 4.558-1.172.428-.037.715-.067.96-.101l.507 5.122c-.354.064-.673.1-1.362.158-2.296.19-3.373.446-5.111 1.247-1.084.5-1.931 1.105-2.538 1.812zm-.183 1.842c.394-1.254 1.409-2.256 3.065-3.02 1.644-.757 2.637-.992 4.836-1.174.67-.056 1.009-.094 1.364-.155L37 38H27zm.81-8.166L28.39 24h7.222l.157 1.579c-.24.034-.52.064-.962.103-2.175.19-3.198.447-4.845 1.25-.805.393-1.471.85-1.999 1.37zm3.981-16.278c-.568-.028-1.02-.47-1.02-1.011 0-.56.482-1.012 1.077-1.012s1.077.453 1.077 1.012c0 .54-.452.983-1.02 1.01L37 14.002H27zM25.738 39h12.525c.157 0 .294.122.306.272l.43 5.455c.012.15-.115.272-.283.272H25.285c-.169 0-.296-.122-.284-.272l.43-5.455a.307.307 0 0 1 .307-.272zm1.512-24h9.5a.25.25 0 0 1 .25.25v1.5a.25.25 0 0 1-.25.25h-9.5a.25.25 0 0 1-.25-.25v-1.5a.25.25 0 0 1 .25-.25zM29 18.25v1.5a.25.25 0 0 1-.25.25h-.5a.25.25 0 0 1-.25-.25v-1.5a.25.25 0 0 1 .25-.25h.5a.25.25 0 0 1 .25.25zm7 0v1.5a.25.25 0 0 1-.25.25h-.5a.25.25 0 0 1-.25-.25v-1.5a.25.25 0 0 1 .25-.25h.5a.25.25 0 0 1 .25.25zm-2.384 0v1.5a.25.25 0 0 1-.25.25h-2.731a.25.25 0 0 1-.25-.25v-1.5a.25.25 0 0 1 .25-.25h2.73a.25.25 0 0 1 .25.25zM27.25 21h9.5a.25.25 0 0 1 .25.25v1.5a.25.25 0 0 1-.25.25h-9.5a.25.25 0 0 1-.25-.25v-1.5a.25.25 0 0 1 .25-.25zm4 7a.25.25 0 0 0-.25.25v2.5c0 .138.112.25.25.25h1.5a.25.25 0 0 0 .25-.25v-2.5a.25.25 0 0 0-.25-.25z"/><path d="M7 23v-8l19 3.043v1.914zm31-4.957L57 15v8l-19-3.043z" opacity=".3"/><path d="M38.006 45.708l.004.003-.001-.001zm-.58-.066c-.47-.019-1.19-.01-2.162.027-1.946.073-5.218.062-9.166.353-.253-.118-.392-.222-.417-.311-.037-.134-.048-.366.188-.514.766-.357 11.08-.063 11.557-.045.243.01.652.02.772.045.186.038.256.672.2.825-.128.35-2.747.074-7.86.52 7.86.443 7.829.452 6.898 1.04-1.676 1.056-12.111 2.246-12.111 2.246 6.174 0 13.783.71 14.778 1.225.995.515-5.401 1.73-7.841 1.73 1.119-.158 3.703-.424 5.25-1.077.156-.066.79-.322.494-.441-.381-.153-1.14-.35-2.287-.49-2.309-.281-6.143-.527-11.502-.738-1.008.044-1.376.03-1.104-.044-.866-.5 3.633-1.516 10.268-2.412.55-.364-1.207-.667-5.27-.907-.057-.188.395-.346 1.354-.473 1.02-.136 8.098-.44 8.38-.528a4.525 4.525 0 0 0-.419-.031z" fill-rule="nonzero" opacity=".2"/></g></g></svg>