<svg width="64" height="64" version="1.1" viewBox="0 0 64 64" xmlns="http://www.w3.org/2000/svg"><title>deepin-clone</title><defs><linearGradient id="b" x1="32" x2="32" y1="5.606" y2="60" gradientUnits="userSpaceOnUse"><stop stop-color="#0090FF" offset="0"/><stop stop-color="#0076FF" offset="1"/></linearGradient><linearGradient id="c" x1="32" x2="32" y1="4" y2="60" gradientUnits="userSpaceOnUse"><stop stop-color="#53A3FF" offset="0"/><stop stop-color="#0065EA" offset="1"/></linearGradient><filter id="a" color-interpolation-filters="sRGB"><feFlood flood-color="#000" flood-opacity=".196" result="flood"/><feComposite in="flood" in2="SourceGraphic" operator="in" result="composite1"/><feGaussianBlur in="composite1" result="blur" stdDeviation="1"/><feOffset dx="0" dy="1" result="offset"/><feComposite in="SourceGraphic" in2="offset" result="composite2"/></filter></defs><g filter="url(#a)"><circle cx="32" cy="32" r="28" fill="url(#b)" fill-rule="evenodd"/><path d="M32 4c15.464 0 28 12.536 28 28S47.464 60 32 60 4 47.464 4 32 16.536 4 32 4zm0 1C17.088 5 5 17.088 5 32s12.088 27 27 27 27-12.088 27-27S46.912 5 32 5z" fill="url(#c)"/><path d="M15.813 31.667c.35-9.005 7.756-16.199 16.84-16.199 9.31 0 16.855 7.55 16.855 16.865 0 9.314-7.546 16.865-16.854 16.865-4.793 0-9.26-2.01-12.434-5.48a1.233 1.233 0 1 0-1.82 1.667 19.264 19.264 0 0 0 14.254 6.281c10.67 0 19.32-8.656 19.32-19.333 0-10.677-8.65-19.333-19.32-19.333-10.448 0-18.958 8.298-19.31 18.667H10L14.667 41l4.666-9.333h-3.52z" fill="#006be7"/><path d="M15.813 30.667c.35-9.005 7.756-16.199 16.84-16.199 9.31 0 16.855 7.55 16.855 16.865 0 9.314-7.546 16.865-16.854 16.865-4.793 0-9.26-2.01-12.434-5.48a1.233 1.233 0 1 0-1.82 1.667 19.264 19.264 0 0 0 14.254 6.281c10.67 0 19.32-8.656 19.32-19.333 0-10.677-8.65-19.333-19.32-19.333-10.448 0-18.958 8.298-19.31 18.667H10L14.667 40l4.666-9.333h-3.52z" fill="#fff"/><path d="M37.131 20.947a12.002 12.002 0 0 1 4.728 2.942c-.366.01-.749.01-1.14-.003 0 0-3.45.164-5.386 1.15 0 0-1.443.658-2.886 1.772 0 0-.306.157-.29.731.012.573-.295 2.1-1.317 2.994 0 0-.73.383-.364.932 0 0 .492.73 1.186-.037 0 0 1.79-1.881 1.9-4.912 0 0 .565-.494 1.46-.64 0 0 .164 4.547-2.045 6.83 0 0-2.1 2.338-2.776-1.132 0 0-.822-3.306 3.415-7.231 0 0 1.903-1.94 3.515-3.396zm-14.532 6.016a12.025 12.025 0 0 1 7.872-6.286c-1.474 2.747-2.223 6.355-2.151 8.706 0 0-.136 4.13 2.74 5.595 0 0 2.584 1.116 4.345-2.491 0 0 1.21-2.036.718-6.638 0 0 .471.082.525.156.053.072 1.04 3.542.347 6.464 0 0-.64 3.433-3.78 4.219-3.141.785-5.589-1.115-7.25-2.905-1-1.076-2.391-3.62-3.366-6.82zm1.179 12.63c3.691.616 8.708.776 12.267-1.737 3.29-2.323 2.867-6.045 2.867-6.045-.055-2.83-1.844-5.642-1.844-5.642 6.957 6.062 2.845 12.797 2.845 12.797-1.132 2.228-2.972 3.981-4.998 5.264-.518.068-1.046.103-1.582.103a11.98 11.98 0 0 1-9.555-4.74z" fill="#006be7" fill-rule="evenodd"/><path d="M37.131 19.947a12.002 12.002 0 0 1 4.728 2.942c-.366.01-.749.01-1.14-.003 0 0-3.45.164-5.386 1.15 0 0-1.443.658-2.886 1.772 0 0-.306.157-.29.731.012.573-.295 2.1-1.317 2.994 0 0-.73.383-.364.932 0 0 .492.73 1.186-.037 0 0 1.79-1.881 1.9-4.912 0 0 .565-.494 1.46-.64 0 0 .164 4.547-2.045 6.83 0 0-2.1 2.338-2.776-1.132 0 0-.822-3.306 3.415-7.231 0 0 1.903-1.94 3.515-3.396zm-14.532 6.016a12.025 12.025 0 0 1 7.872-6.286c-1.474 2.747-2.223 6.355-2.151 8.706 0 0-.136 4.13 2.74 5.595 0 0 2.584 1.116 4.345-2.491 0 0 1.21-2.036.718-6.638 0 0 .471.082.525.156.053.072 1.04 3.542.347 6.464 0 0-.64 3.433-3.78 4.219-3.141.785-5.589-1.115-7.25-2.905-1-1.076-2.391-3.62-3.366-6.82zm1.179 12.63c3.691.616 8.708.776 12.267-1.737 3.29-2.323 2.867-6.045 2.867-6.045-.055-2.83-1.844-5.642-1.844-5.642 6.957 6.062 2.845 12.797 2.845 12.797-1.132 2.228-2.972 3.981-4.998 5.264-.518.068-1.046.103-1.582.103a11.98 11.98 0 0 1-9.555-4.74z" fill="#fff" fill-rule="evenodd"/></g></svg>