<svg width="64" height="64" version="1.1" viewBox="0 0 64 64" xmlns="http://www.w3.org/2000/svg"><title>deepin-screen-recorder</title><defs><linearGradient id="b" x1="29.933" x2="29.933" y1="9.978" y2="59.867" gradientTransform="matrix(1.069 0 0 .93541 -3.59 3.166)" gradientUnits="userSpaceOnUse"><stop stop-color="#FF9C53" offset="0"/><stop stop-color="#FF303E" offset="1"/></linearGradient><linearGradient id="c" x1="29.235" x2="29.235" y1="11.305" y2="60.209" gradientTransform="matrix(1.0886 -.11442 .0955 .90858 -3.24 3.524)" gradientUnits="userSpaceOnUse"><stop stop-color="#FF7C44" offset="0"/><stop stop-color="#FF4E5A" offset="1"/></linearGradient><filter id="d" color-interpolation-filters="sRGB"><feFlood flood-color="#FF382D" result="flood"/><feComposite in="flood" in2="SourceGraphic" operator="in" result="composite1"/><feGaussianBlur in="composite1" result="blur" stdDeviation="0"/><feOffset dx="0" dy="1" result="offset"/><feComposite in="SourceGraphic" in2="offset" result="composite2"/></filter><filter id="a" color-interpolation-filters="sRGB"><feFlood flood-color="#000" flood-opacity=".196" result="flood"/><feComposite in="flood" in2="SourceGraphic" operator="in" result="composite1"/><feGaussianBlur in="composite1" result="blur" stdDeviation="1"/><feOffset dx="0" dy="1" result="offset"/><feComposite in="SourceGraphic" in2="offset" result="composite2"/></filter></defs><g fill-rule="evenodd" filter="url(#a)"><rect transform="rotate(-6)" x="1.743" y="12.499" width="53.333" height="46.667" rx="1.333" fill="url(#b)"/><path d="M3.186 14.578a1.329 1.329 0 0 1 1.179-1.468l50.392-5.297a1.341 1.341 0 0 1 1.47 1.19l4.586 41.753c.08.734-.45 1.392-1.178 1.468L9.243 57.521a1.341 1.341 0 0 1-1.47-1.19z" fill="url(#c)"/><path fill="#fff" opacity=".3" d="M60.054 44.465L44.7 38.705 43.168 24.12l13.82-8.826z"/><circle cx="53" cy="12" r="1.5" fill="#ff4000"/><circle cx="53" cy="11.5" r="1.5" fill="#fff"/><path d="M44.497 23.729c.624-.391 1.195-.115 1.274.615l1.578 14.086c.08.73-.419 1.125-1.111.881l-8.488-2.985.181 1.247a2.67 2.67 0 0 1-2.373 2.935L18.32 42.32a2.666 2.666 0 0 1-2.931-2.377l-1.254-10.927a2.67 2.67 0 0 1 2.373-2.935l17.238-1.812c1.465-.153 2.85.907 3.004 2.377 0 0 .157 1.834.173 1.823l7.574-4.74zm-14.669 8.695c-.624.392-.569 1.407.125 1.651l7.872 2.745-.952-8.812z" fill="#fff3f3" filter="url(#d)"/></g></svg>