<svg width="64" height="64" version="1.1" viewBox="0 0 64 64" xmlns="http://www.w3.org/2000/svg"><title>deepin-multitasking-view</title><defs><linearGradient id="b" x1="32" x2="32" y1="4" y2="58.308" gradientUnits="userSpaceOnUse"><stop stop-color="#FFB594" offset="0"/><stop stop-color="#FFB8A0" offset=".08"/><stop stop-color="#F94444" offset="1"/></linearGradient><linearGradient id="c" x1="32" x2="32" y1="5" y2="59" gradientUnits="userSpaceOnUse"><stop stop-color="#FFA57D" offset="0"/><stop stop-color="#FF9B7A" offset=".08"/><stop stop-color="#FF5959" offset="1"/></linearGradient><filter id="a" color-interpolation-filters="sRGB"><feFlood flood-color="#000" flood-opacity=".196" result="flood"/><feComposite in="flood" in2="SourceGraphic" operator="in" result="composite1"/><feGaussianBlur in="composite1" result="blur" stdDeviation="1"/><feOffset dx="0" dy="1" result="offset"/><feComposite in="SourceGraphic" in2="offset" result="composite2"/></filter></defs><g filter="url(#a)"><path d="M4 32C4 16.536 16.536 4 32 4s28 12.536 28 28-12.536 28-28 28S4 47.464 4 32z" fill="url(#b)" fill-rule="evenodd"/><path d="M5 32C5 17.088 17.088 5 32 5s27 12.088 27 27-12.088 27-27 27S5 46.912 5 32z" fill="url(#c)" fill-rule="evenodd"/><path d="M16 26h3v14h-3zm29 0h3v14h-3zm-23-3h20v20H22z" opacity=".1"/><path d="M16 25h3v14h-3zm29 0h3v14h-3zm-23-3h20v20H22z" fill="#fff"/></g></svg>