<svg width="64" height="64" version="1.1" viewBox="0 0 64 64" xmlns="http://www.w3.org/2000/svg" xmlns:xlink="http://www.w3.org/1999/xlink"><title>deepin-music</title><defs><linearGradient id="c" x1="16.88" x2="63.697" y1="24.765" y2="40.767" gradientTransform="rotate(90 38 32)" gradientUnits="userSpaceOnUse"><stop stop-color="#052900" offset="0"/><stop stop-color="#47692F" offset=".257"/><stop stop-color="#122600" offset=".583"/><stop stop-color="#0E2700" offset=".72"/><stop stop-color="#0D2500" offset="1"/></linearGradient><linearGradient id="a" x1="2.055%" y1="41.813%" y2="34.486%"><stop stop-color="#0C360D" stop-opacity=".381" offset="0"/><stop offset="1"/></linearGradient><linearGradient id="i" x1="-1.732" x2="39.837" y1="44.353" y2="44.353" gradientTransform="matrix(0 1.1547 -.86603 0 54 10)" gradientUnits="userSpaceOnUse"><stop stop-color="#A1F500" offset="0"/><stop stop-color="#71CA1E" offset="1"/></linearGradient><linearGradient id="d" x1="20.74" x2="56.002" y1="29.053" y2="26.416" gradientTransform="rotate(90 38.001 32.001)" gradientUnits="userSpaceOnUse" xlink:href="#a"/><linearGradient id="e" x1="18.823" x2="58.001" y1="28.726" y2="25.795" gradientTransform="rotate(90 38.001 32.001)" gradientUnits="userSpaceOnUse" xlink:href="#a"/><linearGradient id="f" x1="26.493" x2="50" y1="30.035" y2="28.277" gradientTransform="rotate(90 38 32)" gradientUnits="userSpaceOnUse" xlink:href="#a"/><linearGradient id="g" x1="24.575" x2="52" y1="29.708" y2="27.656" gradientTransform="rotate(90 38 32)" gradientUnits="userSpaceOnUse" xlink:href="#a"/><linearGradient id="h" x1="22.658" x2="54" y1="29.38" y2="27.035" gradientTransform="rotate(90 38 32)" gradientUnits="userSpaceOnUse" xlink:href="#a"/><filter id="b" color-interpolation-filters="sRGB"><feFlood flood-color="#000" flood-opacity=".196" result="flood"/><feComposite in="flood" in2="SourceGraphic" operator="in" result="composite1"/><feGaussianBlur in="composite1" result="blur" stdDeviation="1"/><feOffset dx="0" dy="1" result="offset"/><feComposite in="SourceGraphic" in2="offset" result="composite2"/></filter></defs><g filter="url(#b)"><g fill-rule="evenodd"><path d="M15 32c0 12.703 10.297 23 23 23s23-10.297 23-23S50.703 9 38 9 15 19.297 15 32z" fill="#478500"/><path d="M16 32c0 12.15 9.85 22 22 22s22-9.85 22-22-9.85-22-22-22-22 9.85-22 22z" fill="url(#c)"/><circle transform="rotate(90)" cx="32" cy="-38" r="10"/><circle transform="rotate(90)" cx="32" cy="-38" r="7" fill="#478500"/></g><g fill="none" stroke-width=".5"><path d="M20.25 32.656c0 9.676 7.813 17.096 17.751 17.096 9.804 0 17.751-7.947 17.751-17.751S47.805 14.25 38.001 14.25c-9.682 0-17.751 8.474-17.751 18.406z" stroke="url(#d)"/><path d="M18.251 32.728c0 10.766 8.694 19.023 19.75 19.023 10.908 0 19.75-8.842 19.75-19.75s-8.842-19.75-19.75-19.75c-10.773 0-19.75 9.428-19.75 20.477z" stroke="url(#e)"/><path d="M26.25 32c0 6.49 5.26 11.75 11.75 11.75S49.75 38.49 49.75 32 44.49 20.25 38 20.25 26.25 25.51 26.25 32z" stroke="url(#f)"/><path d="M24.25 32c0 7.594 6.156 13.75 13.75 13.75S51.75 39.594 51.75 32 45.594 18.25 38 18.25 24.25 24.406 24.25 32z" stroke="url(#g)"/><path d="M22.25 32c0 8.698 7.051 15.75 15.75 15.75S53.75 40.699 53.75 32 46.699 16.25 38 16.25 22.25 23.301 22.25 32z" stroke="url(#h)"/></g><g fill-rule="evenodd"><path d="M38.499 8C39.328 8 40 8.679 40 9.502v44.995c0 .83-.671 1.503-1.501 1.503H5.501A1.505 1.505 0 0 1 4 54.497V9.502C4 8.672 4.671 8 5.501 8z" fill="url(#i)"/><path d="M38.499 9A1.5 1.5 0 0 1 40 10.504v42.991c0 .831-.671 1.505-1.501 1.505H5.501A1.5 1.5 0 0 1 4 53.495v-42.99C4 9.673 4.671 9 5.501 9z" fill="#92dc00"/><path d="M20.518 21.9c0-.4.325-.899.982-.9.657-.001.806.613.806.613s-.041 1.739 3.34 4c.619.405 6.66 4 3.704 10.56 0 0-.16.338-.513.197-.279-.112-.184-.468-.184-.468s2.32-6.956-6.347-8.956c0 0 .014 9.44.006 12.022.008 1.978-1.314 3.789-3.693 4.426-2.525.677-4.997-.36-5.521-2.316s1.098-4.09 3.623-4.767c1.386-.371 2.756-.226 3.797.304V21.9z" fill="#fff"/></g></g></svg>