<svg width="64" height="64" version="1.1" viewBox="0 0 64 64" xmlns="http://www.w3.org/2000/svg"><title>deepin-show-desktop</title><defs><linearGradient id="b" x1="30.17" x2="30.17" y1="9.546" y2="60.458" gradientTransform="scale(1.0607 .94281)" gradientUnits="userSpaceOnUse"><stop stop-color="#54FFCD" offset="0"/><stop stop-color="#23C06D" offset="1"/></linearGradient><linearGradient id="c" x1="29.535" x2="29.535" y1="11.134" y2="60.674" gradientTransform="scale(1.0835 .92296)" gradientUnits="userSpaceOnUse"><stop stop-color="#23FFBE" offset="0"/><stop stop-color="#3FDA88" offset="1"/></linearGradient><filter id="a" color-interpolation-filters="sRGB"><feFlood flood-color="#000" flood-opacity=".196" result="flood"/><feComposite in="flood" in2="SourceGraphic" operator="in" result="composite1"/><feGaussianBlur in="composite1" result="blur" stdDeviation="1"/><feOffset dx="0" dy="1" result="offset"/><feComposite in="SourceGraphic" in2="offset" result="composite2"/></filter></defs><g fill-rule="evenodd" filter="url(#a)"><path d="M57.499 9c.829 0 1.5.679 1.5 1.502v44.995c0 .83-.663 1.503-1.5 1.503H6.5c-.829 0-1.5-.679-1.5-1.503V10.502C5 9.672 5.662 9 6.5 9z" fill="url(#b)"/><path d="M57.499 10c.829 0 1.5.668 1.5 1.504v42.991c0 .831-.663 1.505-1.5 1.505H6.5c-.829 0-1.5-.668-1.5-1.505v-42.99C5 10.673 5.662 10 6.5 10z" fill="url(#c)"/><rect x="10" y="15" width="8" height="8" rx="1" opacity=".1"/><rect x="10" y="29" width="8" height="8" rx="1" opacity=".1"/><g transform="translate(10 14)"><rect y="30" width="44" height="8" rx="1.333" fill="#1fb366" opacity=".801"/><rect width="8" height="8" rx="1" fill="#fff"/><rect y="14" width="8" height="8" rx="1" fill="#fff"/></g></g></svg>