<svg width="64" height="64" version="1.1" viewBox="0 0 64 64" xmlns="http://www.w3.org/2000/svg"><title>深度终端-64px</title><defs><linearGradient id="b" x1="30.17" x2="30.17" y1="9.546" y2="59.646" gradientTransform="scale(1.0607 .94281)" gradientUnits="userSpaceOnUse"><stop stop-color="#FF5E70" offset="0"/><stop stop-color="#CA2935" offset="1"/></linearGradient><linearGradient id="c" x1="29.535" x2="29.535" y1="10.835" y2="60.674" gradientTransform="scale(1.0835 .92296)" gradientUnits="userSpaceOnUse"><stop stop-color="#EC3F4C" offset="0"/><stop stop-color="#DE434E" offset="1"/></linearGradient><filter id="a" color-interpolation-filters="sRGB"><feFlood flood-color="#000" flood-opacity=".196" result="flood"/><feComposite in="flood" in2="SourceGraphic" operator="in" result="composite1"/><feGaussianBlur in="composite1" result="blur" stdDeviation="1"/><feOffset dx="0" dy="1" result="offset"/><feComposite in="SourceGraphic" in2="offset" result="composite2"/></filter></defs><g fill-rule="evenodd" filter="url(#a)"><rect x="5" y="9" width="54" height="48" rx="1.5" fill="url(#b)"/><rect x="5" y="10" width="54" height="46" rx="1.5" fill="url(#c)"/><path d="M21.589 24.961l-9.845 5.743a1.5 1.5 0 0 0 1.512 2.591l12-7a1.5 1.5 0 0 0 0-2.591l-12-7a1.5 1.5 0 0 0-1.512 2.591z" fill="#ca353f"/><path d="M21.589 23.961l-9.845 5.743a1.5 1.5 0 0 0 1.512 2.591l12-7a1.5 1.5 0 0 0 0-2.591l-12-7a1.5 1.5 0 0 0-1.512 2.591z" fill="#fff0f0"/><path d="M20.726 24.465l-8.982 5.24a1.5 1.5 0 0 0-.658 1.796c.114-.324.339-.61.658-.797l9.845-5.742zm5.19.035a1.499 1.499 0 0 0-.66-1.796l-12-7a1.5 1.5 0 0 0-2.17 1.796 1.5 1.5 0 0 1 2.17-.795l12 7c.329.191.549.477.66.795z" fill="#fff"/><path d="M37.636 39c.753 0 1.364-.672 1.364-1.5s-.61-1.5-1.364-1.5H24.363c-.753 0-1.364.672-1.364 1.5s.61 1.5 1.364 1.5z" fill="#ca3540"/><path d="M37.636 38c.753 0 1.364-.672 1.364-1.5s-.61-1.5-1.364-1.5H24.363c-.753 0-1.364.672-1.364 1.5s.61 1.5 1.364 1.5z" fill="#fff0f0"/><path d="M38.922 37c.05-.156.078-.325.078-.5 0-.828-.61-1.5-1.364-1.5H24.363c-.753 0-1.364.672-1.364 1.5 0 .175.028.344.078.5.187-.583.692-1 1.286-1h13.273c.594 0 1.099.417 1.286 1z" fill="#fff"/></g></svg>