<svg width="64" height="64" version="1.1" viewBox="0 0 64 64" xmlns="http://www.w3.org/2000/svg"><title>深度用户反馈-64px</title><defs><linearGradient id="b" x1="31.229" x2="31.229" y1="5.465" y2="60.115" gradientTransform="scale(1.0247 .9759)" gradientUnits="userSpaceOnUse"><stop stop-color="#A9FF5A" offset="0"/><stop stop-color="#239D00" offset="1"/></linearGradient><filter id="a" color-interpolation-filters="sRGB"><feFlood flood-color="#000" flood-opacity=".196" result="flood"/><feComposite in="flood" in2="SourceGraphic" operator="in" result="composite1"/><feGaussianBlur in="composite1" result="blur" stdDeviation="1"/><feOffset dx="0" dy="1" result="offset"/><feComposite in="SourceGraphic" in2="offset" result="composite2"/></filter></defs><g fill-rule="evenodd" filter="url(#a)"><path d="M32 56c15.464 0 28-10.606 28-25.334C60 15.94 47.464 5.335 32 5.333c-15.464 0-28 10.606-28 25.333 0 8.065 3.759 14.893 9.699 19.422.355.271-.452 5.577-2.754 7.33-.567.432-.202 1.319.507 1.245 2.708-.284 6.685-1.3 9.443-4.626C24.3 55.31 28.055 56 32 56z" fill="#57c93f"/><path d="M59 30.666C59 16.775 47.224 6.335 32 6.333c-15.224 0-27 10.441-27 24.333 0 7.496 3.397 14.123 9.305 18.626 1 .762.2 4.594-1.279 7.122-.441.755-1.026 1.138-.785 1.138 3.145-.487 5.92-1.786 7.884-4.154l.454-.548.666.25C24.588 54.35 28.23 55 32 55c15.224 0 27-10.441 27-24.334zm-38.105 23.37c-2.758 3.326-6.735 4.342-9.443 4.626-.709.074-1.074-.813-.507-1.244 2.303-1.754 3.11-7.06 2.754-7.33C7.759 45.558 4 38.73 4 30.664 4 15.94 16.536 5.332 32 5.332c15.464.002 28 10.606 28 25.333C60 45.393 47.464 56 32 56c-3.945 0-7.7-.69-11.105-1.963z" fill="url(#b)" opacity=".4"/><path d="M45.5 25a1.5 1.5 0 1 0 0-3h-27a1.5 1.5 0 1 0 0 3zm0 8a1.5 1.5 0 1 0 0-3h-27a1.5 1.5 0 1 0 0 3zm0 8a1.5 1.5 0 1 0 0-3h-27a1.5 1.5 0 1 0 0 3z" fill="#37bf14"/><path d="M45.5 24a1.5 1.5 0 1 0 0-3h-27a1.5 1.5 0 1 0 0 3zm0 8a1.5 1.5 0 1 0 0-3h-27a1.5 1.5 0 1 0 0 3zm0 8a1.5 1.5 0 1 0 0-3h-27a1.5 1.5 0 1 0 0 3z" fill="#f0ffe4"/><g fill="#fff"><path d="M46.915 23a1.5 1.5 0 0 0-1.415-2h-27a1.5 1.5 0 0 0-1.414 2 1.5 1.5 0 0 1 1.414-1h27a1.5 1.5 0 0 1 1.415 1zM46.915 31a1.5 1.5 0 0 0-1.415-2h-27a1.5 1.5 0 0 0-1.414 2 1.5 1.5 0 0 1 1.414-1h27a1.5 1.5 0 0 1 1.415 1zM46.915 39a1.5 1.5 0 0 0-1.415-2h-27a1.5 1.5 0 0 0-1.414 2 1.5 1.5 0 0 1 1.414-1h27a1.5 1.5 0 0 1 1.415 1z"/></g></g></svg>