<svg width="64" height="64" version="1.1" viewBox="0 0 64 64" xmlns="http://www.w3.org/2000/svg"><title>深度商店-64px</title><defs><linearGradient id="b" x1="27.325" x2="27.325" y1="28.106" y2="69.094" gradientTransform="scale(1.1711 .85391)" gradientUnits="userSpaceOnUse"><stop stop-color="#FFBD3E" offset="0"/><stop stop-color="#FF7501" offset="1"/></linearGradient><linearGradient id="c" x1="31.5" x2="31.5" y1="24" y2="59" gradientUnits="userSpaceOnUse"><stop stop-color="#FF9B26" offset="0"/><stop stop-color="#FF5401" offset="1"/></linearGradient><filter id="a" color-interpolation-filters="sRGB"><feFlood flood-color="#000" flood-opacity=".196" result="flood"/><feComposite in="flood" in2="SourceGraphic" operator="in" result="composite1"/><feGaussianBlur in="composite1" result="blur" stdDeviation="1"/><feOffset dx="0" dy="1" result="offset"/><feComposite in="SourceGraphic" in2="offset" result="composite2"/></filter></defs><g filter="url(#a)"><g fill-rule="evenodd"><path d="M8 12.504C8 11.674 8.679 11 9.502 11h44.995c.83 0 1.503.68 1.503 1.504v11.83H8z" fill="#fff"/><path d="M8 13.496C8 12.67 8.679 12 9.502 12h44.995c.83 0 1.503.68 1.503 1.496V24H8z" fill="#efefef"/><path d="M8 57.415V24h48v33.5c0 1.5-1.5 1.5-1.5 1.5h-45C8 59 8 57.415 8 57.415z" fill="url(#b)"/><path d="M8 56.426V25h48v31.5c0 1.5-1.5 1.5-1.5 1.5h-45C8 58 8 56.426 8 56.426z" fill="#ffa737"/><path d="M42 24h7v35h-7zm-14 0h7v35h-7zm-14 0h7v35h-7z" fill="url(#c)"/><path d="M42 25h7v33h-7zm-14 0h7v33h-7zm-14 0h7v33h-7z" fill="#ff7300"/><path d="M18 21a2 2 0 1 1 0-4 2 2 0 0 1 0 4zm28 0a2 2 0 1 1 0-4 2 2 0 0 1 0 4z" fill="#d6d6d6"/><path d="M18 20a2 2 0 1 1 0-4 2 2 0 0 1 0 4zm28 0a2 2 0 1 1 0-4 2 2 0 0 1 0 4z" fill="#785c46"/></g><path d="M46 19.8c0 8.837-4 17.333-14 17.333S18 28.636 18 19.8" fill="none" opacity=".1" stroke="#000" stroke-linecap="round" stroke-linejoin="round" stroke-width="1.8"/><path d="M46 17.8c0 8.837-4 17.333-14 17.333S18 26.636 18 17.8" fill="none" stroke="#fff" stroke-linecap="round" stroke-linejoin="round" stroke-width="1.8"/></g></svg>