<svg width="64" height="64" version="1.1" viewBox="0 0 64 64" xmlns="http://www.w3.org/2000/svg"><title>ISO安装器-64px</title><defs><linearGradient id="b" x1="14.568" x2="14.568" y1="50.615" y2="76.745" gradientTransform="scale(2.1927 .45605)" gradientUnits="userSpaceOnUse"><stop stop-color="#FFDD89" offset="0"/><stop stop-color="#FFAF32" offset="1"/></linearGradient><filter id="a" color-interpolation-filters="sRGB"><feFlood flood-color="#000" flood-opacity=".196" result="flood"/><feComposite in="flood" in2="SourceGraphic" operator="in" result="composite1"/><feGaussianBlur in="composite1" result="blur" stdDeviation="1"/><feOffset dx="0" dy="1" result="offset"/><feComposite in="SourceGraphic" in2="offset" result="composite2"/></filter></defs><g fill-rule="evenodd" filter="url(#a)"><path d="M38.176 4.89C26.516 1.48 14.302 8.166 10.89 19.825 7.48 31.485 14.167 43.7 25.827 47.11c11.657 3.41 23.874-3.275 27.283-14.934C56.52 20.515 49.833 8.3 38.176 4.89z" fill="#eff4f8"/><path d="M37.895 5.85C26.765 2.595 15.106 8.976 11.85 20.106 8.595 31.235 14.978 42.895 26.108 46.15c11.127 3.255 22.789-3.127 26.043-14.255 3.255-11.131-3.128-22.79-14.255-26.045z" fill="#fff"/><path d="M38.498 8.101c-2.73-.996-5.528-1.265-8.242-1.012-3.147.248-4.684 1.223-4.593 1.046-5.146 1.838-9.497 5.79-11.513 11.332-3.588 9.87 1.495 20.786 11.35 24.38 9.86 3.594 20.76-1.495 24.347-11.366 3.59-9.87-1.493-20.785-11.35-24.38zM26.149 42.062a17.048 17.048 0 0 1-2.956-1.43c4.593.353 10.586-.706 14.627-4.488 0 0 7.705-6.156 2.13-16.26 0 0 .9 4.072-.246 7.422 0 0-1.093 4.554-5.949 5.878-7.152 1.948-15.302-3.058-18.708-5.483-.256-2.493-.028-5.07.885-7.583 1.355-3.724 3.9-6.63 7.011-8.58-.777 5.44-.162 10.45.721 12.547 1.186 2.813 3.248 6.095 7.269 6.516 4.021.422 6.239-3.342 6.239-3.342 2.063-3.135 2.386-7.636 2.355-7.745-.032-.11-.55-.407-.55-.407-1.388 5.619-3.678 7.496-3.678 7.496-3.61 3.485-6.167 1.068-6.167 1.068-2.748-2.952-.824-7.75-.824-7.75 1.077-3.268 4.213-8.05 7.767-10.483.592.147 1.188.238 1.773.451a16.962 16.962 0 0 1 5.628 3.419c-2.599.948-6.795 2.954-6.795 2.954-6.652 2.801-7.1 7.038-7.1 7.038-.689 4.368 2.776 2.52 2.776 2.52 3.566-1.738 5.319-7.152 5.319-7.152-1.113-.211-1.99.127-1.99.127-1.424 3.513-4.328 4.959-4.328 4.959-1.143.605-1.409-.464-1.409-.464-.192-.801.827-.938.827-.938 1.582-.615 2.595-2.278 2.824-2.957.228-.682.653-.735.653-.735 2.169-.692 4.146-.847 4.146-.847 2.693-.33 6.814.953 6.814.953.925.372 1.81.65 2.598.873 1.51 3.774 1.75 8.072.252 12.193-3.227 8.882-13.04 13.464-21.914 10.23z" fill="#00b7ff" opacity=".8"/><rect x="8" y="24" width="48" height="35" rx="1.333" fill="#c58330"/><path d="M8 25.505C8 24.674 8.679 24 9.502 24h44.995c.83 0 1.503.68 1.503 1.505v30.99c0 .831-.679 1.505-1.503 1.505H9.502C8.672 58 8 57.32 8 56.495z" fill="#d69a4e"/><g fill="#b08043"><path d="M28.49 45.017h-2.73v-.45c0-.153.147-.303.305-.304h2.278c.137 0 .296.153.296.302-.001.117-.003.19-.003.301 0 0 0 .15-.146.15m.752 2.109c.157 0 .157-.14.157-.153v-.448c0-.15-.154-.153-.154-.153l-3.185-.002c-.305 0-.3-.294-.3-.294-.004-.02 0-.307 0-.307h3.031c.842 0 .757-.603.757-.603v-.597s.082-1.06-1.059-1.06h-2.553c-1.161 0-1.082 1.046-1.082 1.046v1.515c0 1.056 1.062 1.051 1.062 1.051zM23.636 46.224s.003.147-.151.147c-.165 0-.972.002-1.468 0-.495 0-1.103-.11-1.103-1.043 0-.934.675-1.064 1.096-1.064l1.625.002.001 1.958m.759-4.073h-.605s-.151 0-.151.155l-.001 1.201h-1.962c-1.426 0-1.677 1.228-1.676 1.811.001.583.256 1.804 1.698 1.803 1.442-.001 1.483.002 2.093.002.756 0 .757-.75.757-.75v-4.072c0-.15-.154-.15-.154-.15M40.457 43.055h-.606a.151.151 0 0 1-.152-.15V42.3c0-.083.068-.15.152-.15h.606c.084 0 .152.067.152.15v.603c0 .084-.068.151-.152.151M40.457 47.125h-.606a.151.151 0 0 1-.152-.15v-3.317c0-.083.068-.15.152-.15h.606c.084 0 .152.067.152.15v3.316c0 .083-.068.15-.152.15M43.336 43.508h-2.424v3.464c0 .068.044.169.181.151l.53-.001c.208.03.202-.153.202-.153l-.004-2.706h1.514c.025 0 .612.01.612.752l-.005 1.96c0 .083.068.15.152.15h.606a.151.151 0 0 0 .151-.15v-2.029c0-.835-.402-1.436-1.515-1.438M35.76 44.406s-.002-.147.152-.147c.165 0 .971-.002 1.467 0 .495.001 1.103.11 1.104 1.043 0 .934-.676 1.064-1.097 1.064l-1.625-.002-.001-1.958m-.757 4.073h.603s.152 0 .152-.155v-1.201h1.963c1.425 0 1.676-1.228 1.675-1.811-.001-.583-.256-1.804-1.698-1.803-1.442.001-1.481-.002-2.092-.002-.756 0-.755.75-.755.75v4.072c0 .15.152.15.152.15M33.49 45.017h-2.73v-.45c0-.153.147-.303.306-.304h2.277c.137 0 .297.153.296.302l-.002.301s0 .15-.147.15m.753 2.109c.156 0 .157-.14.157-.153l-.001-.448c0-.15-.154-.153-.154-.153l-3.184-.002c-.306 0-.3-.294-.3-.294-.005-.02 0-.307 0-.307h3.03c.842 0 .757-.603.757-.603v-.597s.082-1.06-1.058-1.06h-2.554c-1.16 0-1.082 1.046-1.082 1.046v1.515c0 1.056 1.062 1.051 1.062 1.051z"/></g><path d="M60.672 33.623c.339.76-.066 1.377-.896 1.377H4.114c-.834 0-1.238-.612-.898-1.377l4.11-9.247C7.664 23.616 8.616 23 9.44 23h44.995c.83 0 1.775.612 2.116 1.377z" fill="url(#b)"/><path d="M55.88 23.993a.84.84 0 0 1 .702.453l4.029 9.041c.111.25-.03.454-.298.454l-56.785.102c-.276 0-.406-.21-.295-.458l4.065-9.147a.829.829 0 0 1 .704-.459z" fill="#ffcd6f"/></g></svg>