<svg width="64" height="64" version="1.1" viewBox="0 0 64 64" xmlns="http://www.w3.org/2000/svg"><title>深度截图-64px</title><defs><filter id="b" color-interpolation-filters="sRGB"><feFlood flood-color="#CF0045" result="flood"/><feComposite in="flood" in2="SourceGraphic" operator="in" result="composite1"/><feGaussianBlur in="composite1" result="blur" stdDeviation="0"/><feOffset dx="0" dy="1" result="offset"/><feComposite in="SourceGraphic" in2="offset" result="composite2"/></filter><filter id="a" color-interpolation-filters="sRGB"><feFlood flood-color="#000" flood-opacity=".196" result="flood"/><feComposite in="flood" in2="SourceGraphic" operator="in" result="composite1"/><feGaussianBlur in="composite1" result="blur" stdDeviation="1"/><feOffset dx="0" dy="1" result="offset"/><feComposite in="SourceGraphic" in2="offset" result="composite2"/></filter></defs><g fill-rule="evenodd" filter="url(#a)"><path d="M12.429 8.458a1.502 1.502 0 0 1 1.839-1.055l46.036 12.336a1.497 1.497 0 0 1 1.065 1.833l-9.924 37.036a1.502 1.502 0 0 1-1.838 1.056L3.57 47.328a1.497 1.497 0 0 1-1.065-1.834z" fill="#a6dbff"/><path d="M51.446 58.608a1.502 1.502 0 0 1-1.839 1.056L3.57 47.328a1.497 1.497 0 0 1-1.064-1.834l.033-.12c.158.452.532.82 1.032.954l46.037 12.336a1.502 1.502 0 0 0 1.838-1.056z" fill="#7fcafd"/><path d="M61.369 21.572a1.497 1.497 0 0 0-1.064-1.833L14.268 7.403a1.502 1.502 0 0 0-1.839 1.055v1a1.502 1.502 0 0 1 1.839-1.055l46.037 12.336c.5.133.873.501 1.032.954z" fill="#c4e8ff"/><path d="M58 53.505A1.5 1.5 0 0 1 56.5 55h-49C6.67 55 6 54.323 6 53.505v-37.01A1.5 1.5 0 0 1 7.5 15h49c.828 0 1.5.677 1.5 1.495z" fill="#ea004e"/><path d="M6 53.505C6 54.323 6.672 55 7.5 55h49a1.5 1.5 0 0 0 1.5-1.495v-1A1.5 1.5 0 0 1 56.5 54h-49c-.828 0-1.5-.677-1.5-1.495z" fill="#cf0045"/><path d="M58 13.495A1.5 1.5 0 0 0 56.5 12h-49C6.67 12 6 12.678 6 13.51v23.824C19.333 46 32.093 34.648 34.763 28.705c3.008 2.013 10.009.901 13.025-2.92C49.644 30.726 54.418 34.193 58 34z" fill="#ff0056"/><path d="M6 13.509C6 12.678 6.672 12 7.5 12h49c.824 0 1.5.67 1.5 1.495v1A1.5 1.5 0 0 0 56.5 13h-49c-.828 0-1.5.678-1.5 1.509z" fill="#ff6594"/><path d="M43 39V26.498A1.5 1.5 0 0 0 41.51 25H24v-4c0-.5-.5-1.5-1.5-1.5S21 20.5 21 21v4h-4c-.5 0-1.5.5-1.5 1.5s1 1.5 1.5 1.5h4v12.502A1.5 1.5 0 0 0 22.491 42H40v4c0 .5.5 1.5 1.5 1.5s1.5-1 1.5-1.5v-4h4c.5 0 1.5-.5 1.5-1.5S47.5 39 47 39zm-19 0V28h16v11z" fill="#fff9f9" filter="url(#b)"/></g></svg>