<svg width="64" height="64" version="1.1" viewBox="0 0 64 64" xmlns="http://www.w3.org/2000/svg" xmlns:xlink="http://www.w3.org/1999/xlink"><title>deepin-download</title><defs><linearGradient id="b" x1="32" x2="32" y1="55.749" y2="4" gradientUnits="userSpaceOnUse"><stop stop-color="#5141FF" offset="0"/><stop stop-color="#00C0FF" offset="1"/></linearGradient><linearGradient id="c" x1=".655" x2="32.545" y1="16.123" y2="16.123" gradientTransform="scale(.90361 1.1067)" gradientUnits="userSpaceOnUse"><stop stop-color="#fff" offset="0"/><stop stop-color="#fff" offset=".499"/><stop stop-color="#F4FBFF" offset=".499"/><stop stop-color="#fff" offset="1"/></linearGradient><path id="d" d="M14.565 35.236L.657 10.789a.5.5 0 0 1 .599-.72l13.58 4.712a.5.5 0 0 0 .327 0l13.58-4.712a.5.5 0 0 1 .599.72L15.434 35.236a.5.5 0 0 1-.87 0zM8.16.223l6.68 2.258a.5.5 0 0 0 .32 0L21.84.223a.5.5 0 0 1 .66.474v.719a.5.5 0 0 1-.34.473l-7 2.367a.5.5 0 0 1-.32 0l-7-2.367a.5.5 0 0 1-.34-.473v-.72a.5.5 0 0 1 .66-.473zm0 5.07l6.68 2.258a.5.5 0 0 0 .32 0l6.68-2.258a.5.5 0 0 1 .66.474v.72a.5.5 0 0 1-.34.473l-7 2.366a.5.5 0 0 1-.32 0l-7-2.366a.5.5 0 0 1-.34-.474v-.719a.5.5 0 0 1 .66-.474z"/><linearGradient id="e" x1="32" x2="32" y1="4" y2="55.968" gradientUnits="userSpaceOnUse"><stop stop-color="#46CEFF" offset="0"/><stop stop-color="#3D3AEC" offset="1"/></linearGradient><filter id="a" color-interpolation-filters="sRGB"><feFlood flood-color="#000" flood-opacity=".196" result="flood"/><feComposite in="flood" in2="SourceGraphic" operator="in" result="composite1"/><feGaussianBlur in="composite1" result="blur" stdDeviation="1"/><feOffset dx="0" dy="1" result="offset"/><feComposite in="SourceGraphic" in2="offset" result="composite2"/></filter></defs><g filter="url(#a)"><circle cx="32" cy="32" r="28" fill="url(#b)" fill-rule="evenodd"/><g transform="translate(17 14)" fill="none" fill-rule="evenodd"><use width="100%" height="100%" fill="url(#c)" fill-rule="evenodd" xlink:href="#d"/><path d="M15 34.989l13.908-24.447-13.58 4.712a1 1 0 0 1-.656 0l-13.58-4.712zM8 .697v.72l7 2.365 7-2.366V.697l-6.68 2.258a1 1 0 0 1-.64 0zm0 5.07v.72l7 2.366 7-2.367v-.719l-6.68 2.258a1 1 0 0 1-.64 0z" stroke="#fff"/></g><path d="M32 4c15.464 0 28 12.536 28 28S47.464 60 32 60 4 47.464 4 32 16.536 4 32 4zm0 1C17.088 5 5 17.088 5 32s12.088 27 27 27 27-12.088 27-27S46.912 5 32 5z" fill="url(#e)"/></g></svg>