<svg width="64" height="64" version="1.1" viewBox="0 0 64 64" xmlns="http://www.w3.org/2000/svg"><title>深度启动盘制作工具-64px</title><defs><linearGradient id="b" x1="18.89" x2="18.89" y1="31.45" y2="62.851" gradientTransform="rotate(45 20.454 43.545) scale(1.08278 .92355)" gradientUnits="userSpaceOnUse"><stop stop-color="#FBCA48" offset="0"/><stop stop-color="#C38F0C" offset="1"/></linearGradient><filter id="a" color-interpolation-filters="sRGB"><feFlood flood-color="#000" flood-opacity=".196" result="flood"/><feComposite in="flood" in2="SourceGraphic" operator="in" result="composite1"/><feGaussianBlur in="composite1" result="blur" stdDeviation="1"/><feOffset dx="0" dy="1" result="offset"/><feComposite in="SourceGraphic" in2="offset" result="composite2"/></filter></defs><g fill-rule="evenodd" filter="url(#a)"><path d="M10.201 53.799c-6.108-6.108-7.111-16.93-1.058-22.984l9.543-9.543 24.042 24.042-9.543 9.543c-6.054 6.055-16.875 5.052-22.984-1.058zm2.827-2.827c-3.29-3.29-4.883-8.938-3.257-13.157l16.348 16.348c-4.222 1.624-9.808.091-13.091-3.191z" fill="url(#b)"/><path d="M10.908 53.092C4.8 46.984 3.797 36.162 9.85 30.108l8.13-8.129L42.02 46.021l-8.129 8.129c-6.054 6.055-16.875 5.052-22.984-1.058zM9.771 37.815l16.347 16.348c-4.22 1.624-9.808.091-13.09-3.192-3.29-3.289-4.883-8.937-3.258-13.156z" fill="#f5b923"/><path d="M39.705 4.107l20.188 20.188c1.064 1.064 1.07 2.784.026 3.827L42.73 45.313 18.685 21.271l17.191-17.19c1.05-1.05 2.756-1.046 3.828.026z" fill="#2e2e2e"/><path d="M38.998 4.814l20.188 20.188c1.064 1.064 1.07 2.784.026 3.827L42.728 45.313 18.686 21.271 35.17 4.787c1.05-1.05 2.756-1.044 3.828.027z"/><path d="M39.899 8.544l2.121 2.121-7.778 7.779-2.121-2.122zM53.334 21.98l2.121 2.121-7.778 7.779-2.121-2.122zm-10.607-7.778l2.121 2.121-4.95 4.95-2.12-2.121zm4.95 4.95l2.121 2.121-4.95 4.95-2.121-2.122zm-14.85 7.778l-2.12 2.121-2.122-2.121 2.121-2.121zm6.365 6.364l-2.122 2.121-2.12-2.121 2.12-2.121z" fill="#e0c13f"/><path d="M39.899 8.544l2.121 2.121-7.07 7.072-2.122-2.122zM53.334 21.98l2.121 2.121-7.07 7.072-2.122-2.122zm-10.607-7.778l2.121 2.121-4.242 4.243-2.122-2.121zm4.95 4.95l2.121 2.121-4.243 4.243-2.12-2.122zm-14.85 7.778l-1.413 1.414-2.122-2.121 1.414-1.414zm6.365 6.364l-1.414 1.414-2.122-2.121 1.414-1.414z" fill="#ffeb95"/><path fill="#c38f0b" d="M10.201 36.828l16.97 16.97-1.06.354L9.848 37.89z"/></g></svg>