<svg width="64" height="64" version="1.1" viewBox="0 0 64 64" xmlns="http://www.w3.org/2000/svg"><title>deepin-repair-tools</title><defs><linearGradient id="b" x1="25.495" x2="25.495" y1="47.12" gradientTransform="matrix(1.0198 0 0 .98058 6 7)" gradientUnits="userSpaceOnUse"><stop stop-color="#8E8E8E" offset="0"/><stop stop-color="#AFAFAF" offset=".932"/><stop stop-color="#BEBEBE" offset=".932"/><stop stop-color="#C2C2C2" offset="1"/></linearGradient><linearGradient id="c" x1="25.495" x2="25.495" y2="49.89" gradientTransform="matrix(1.0198 0 0 .98058 6 7)" gradientUnits="userSpaceOnUse"><stop stop-color="#B3B3B3" offset="0"/><stop stop-color="#727272" offset="1"/></linearGradient><filter id="a" color-interpolation-filters="sRGB"><feFlood flood-color="#000" flood-opacity=".196" result="flood"/><feComposite in="flood" in2="SourceGraphic" operator="in" result="composite1"/><feGaussianBlur in="composite1" result="blur" stdDeviation="1"/><feOffset dx="0" dy="1" result="offset"/><feComposite in="SourceGraphic" in2="offset" result="composite2"/></filter></defs><g filter="url(#a)"><path d="M6.563 9.665l1.99-2.056A2 2 0 0 1 9.99 7h44.02a2 2 0 0 1 1.437.61l1.99 2.055A2 2 0 0 1 58 11.056V55.97c0 .57-.452 1.031-1.01 1.031H7.01A1.02 1.02 0 0 1 6 55.97V11.055a2 2 0 0 1 .562-1.39z" fill="url(#b)" fill-rule="evenodd"/><path d="M7.288 10.3a1 1 0 0 0-.288.703V55.99c0 .004 16.663.007 49.99.01.004 0 .007-14.999.01-44.997a1 1 0 0 0-.289-.703l-1.978-2.003A1 1 0 0 0 54.022 8H9.978a1 1 0 0 0-.712.297zm1.267-2.706A2 2 0 0 1 9.978 7h44.044a2 2 0 0 1 1.423.594l1.978 2.003A2 2 0 0 1 58 11.003V55.99A1.01 1.01 0 0 1 56.99 57H7.01A1.01 1.01 0 0 1 6 55.99V11.003a2 2 0 0 1 .577-1.406z" fill="url(#c)"/><path d="M36.546 31.882l-1.765-1.819a1.989 1.989 0 0 0-.655-.449 54.263 54.263 0 0 1-.346-.363l2.854-3.264a2.694 2.694 0 0 0 .639-2.107 5.37 5.37 0 0 1-.04-.866 4.87 4.87 0 0 1-.007-.127c-.142-2.79 1.94-5.168 4.649-5.314a4.82 4.82 0 0 1 3.642 1.384l-2.342.465c-1.342.267-2.219 1.596-1.958 2.969.261 1.373 1.56 2.27 2.903 2.002l2.781-.552c-.506 2.103-2.3 3.71-4.512 3.83a4.831 4.831 0 0 1-.318.007 4.913 4.913 0 0 1-.667.028 2.536 2.536 0 0 0-1.97.874zm-4.045 4.625l-6.93 7.926c.017.143.028.25.032.324.087 1.702-1.18 3.15-2.833 3.239-1.654.089-3.06-1.215-3.147-2.916-.087-1.702 1.183-3.15 2.833-3.239.07-.004.176-.004.314 0l7.375-8.434c.08.257.208.497.38.706zm-8.74 7.265l-1.596-.372-1.121 1.23.474 1.601 1.595.372 1.122-1.23zm10.316-12.994L46.356 43.43c.836.861.858 2.295.064 3.19-.243.234-.844.757-.844.757-.92.764-2.292.624-3.057-.303L31.283 33.458a1.074 1.074 0 0 1-.233-.539c-.337-.436-1.642-2.068-4.337-4.802-3.183-3.23-3.726-1.6-4.313-1.065s-.528 1.034-.528 1.034c-.05.306-.257.716-.487.914l-.938.808c-.087.044-1.72-1.753-2.238-2.347-.445-.51-1.155-1.532-1.155-1.532a.332.332 0 0 1 .022-.395s.868-1.016 1.19-1.035c.942-.058 1.379-.149 1.84-.875.463-.726.463-1.297.72-1.717.171-.28 1.599-2.093 3.687-3.362 4.005-2.436 7.113-2.585 7.758-2.54l3.016.216-1.561 1.588c-.13.047-.341.114-.472.148 0 0-1.906.435-3.419 1.567-1.512 1.133-1.923 3.08-.766 5.37.679 1.345 1.122 1.809 2.05 2.893a61.623 61.623 0 0 0 2.467 2.713c.18.042.351.134.49.278z" fill="#fff"/></g></svg>