<svg width="64" height="64" version="1.1" viewBox="0 0 64 64" xmlns="http://www.w3.org/2000/svg"><title>deepin-sound-recorder</title><defs><linearGradient id="b" x1="32" x2="32" y1="4" y2="59.907" gradientUnits="userSpaceOnUse"><stop stop-color="#FF9BBA" offset="0"/><stop stop-color="#DA0C0C" offset="1"/></linearGradient><linearGradient id="c" x1="32" x2="32" y1="6" y2="58.91" gradientUnits="userSpaceOnUse"><stop stop-color="#FF4B83" offset="0"/><stop stop-color="#EE3A3A" offset="1"/></linearGradient><linearGradient id="d" x1="44.439" x2="44.439" y1="10.129" y2="28.634" gradientTransform="scale(.72008 1.3887)" gradientUnits="userSpaceOnUse"><stop stop-color="#FF004F" offset="0"/><stop stop-color="#E13333" offset="1"/></linearGradient><filter id="a" color-interpolation-filters="sRGB"><feFlood flood-color="#000" flood-opacity=".196" result="flood"/><feComposite in="flood" in2="SourceGraphic" operator="in" result="composite1"/><feGaussianBlur in="composite1" result="blur" stdDeviation="1"/><feOffset dx="0" dy="1" result="offset"/><feComposite in="SourceGraphic" in2="offset" result="composite2"/></filter></defs><g filter="url(#a)"><circle cx="32" cy="32" r="28" fill="url(#b)" fill-rule="evenodd"/><circle cx="32" cy="32" r="27" fill="url(#c)" fill-rule="evenodd"/><path d="M23 33.017c0 4.967 4.47 8.976 9 8.976s9-3.01 9-8.976v-5.01H23zm20 0C43 40.488 37.53 44 32 44s-11-4.29-11-10.983V28h22z" fill="#e40f35"/><path d="M23 34.017c0 4.967 4.47 8.976 9 8.976s9-3.01 9-8.976v-5.01H23zm20 0C43 41.488 37.53 45 32 45s-11-4.29-11-10.983V29h22v.505z" fill="#fff"/><g fill-rule="evenodd"><rect x="25" y="13" width="14" height="27" rx="7" fill="url(#d)"/><rect x="25" y="14" width="14" height="27" rx="7" fill="#fff"/><path fill="#e40f35" d="M25 46v2h14v-2z"/><path fill="#fff" d="M25 47v2h14v-2h-6v-4h-2v4z"/></g><g fill="#f94568" fill-rule="evenodd"><circle cx="32.5" cy="19.5" r="1.5"/><path d="M25 26h6v1h-6zM33 26h6v1h-6zM25 28h6v1h-6zM33 28h6v1h-6zM25 24h6v1h-6zM33 24h6v1h-6z"/></g></g></svg>