<svg width="64" height="64" version="1.1" viewBox="0 0 64 64" xmlns="http://www.w3.org/2000/svg"><title>远程协助-64px</title><defs><linearGradient id="b" x1="30.17" x2="30.17" y1="9.546" y2="60.458" gradientTransform="scale(1.0607 .94281)" gradientUnits="userSpaceOnUse"><stop stop-color="#01D2C4" offset="0"/><stop stop-color="#0C9E94" offset="1"/></linearGradient><linearGradient id="c" x1="29.535" x2="29.535" y1="10.835" y2="60.674" gradientTransform="scale(1.0835 .92296)" gradientUnits="userSpaceOnUse"><stop stop-color="#1BC3BC" offset="0"/><stop stop-color="#0FBBAF" offset="1"/></linearGradient><filter id="a" color-interpolation-filters="sRGB"><feFlood flood-color="#000" flood-opacity=".196" result="flood"/><feComposite in="flood" in2="SourceGraphic" operator="in" result="composite1"/><feGaussianBlur in="composite1" result="blur" stdDeviation="1"/><feOffset dx="0" dy="1" result="offset"/><feComposite in="SourceGraphic" in2="offset" result="composite2"/></filter></defs><g fill-rule="evenodd" filter="url(#a)"><path d="M57.499 9c.829 0 1.5.679 1.5 1.502v44.995c0 .83-.663 1.503-1.5 1.503H6.5c-.829 0-1.5-.679-1.5-1.503V10.502C5 9.672 5.662 9 6.5 9z" fill="url(#b)"/><path d="M57.499 10c.829 0 1.5.668 1.5 1.504v42.991c0 .831-.663 1.505-1.5 1.505H6.5c-.829 0-1.5-.668-1.5-1.505v-42.99C5 10.673 5.662 10 6.5 10z" fill="url(#c)"/><path d="M41.831 20.102a958.377 958.377 0 0 1-8.445 8.448l6.979 6.958-8.344 8.472c-3.428-3.283-6.796-6.59-10.206-9.868l-.068-.06c-1.687-1.407-2.663-3.694-2.312-5.815.374-2.842 3.175-5.299 5.997-5.24.547-.006 1.1.115 1.518.204 1.335.286 2.572 1.49 3.717 2.648-.003.003.62.625.62.625l1.624 1.618 3.276-3.276c.504-.504.781-1.467 0-2.24-.4-.4-.838-.523-1.24-.484-.4.038-.762.238-1.007.484l-1.523 1.523c-1.18-1.175-3.007-2.951-4.917-3.367a8.528 8.528 0 0 0-2.089-.266c-4.262-.084-7.93 3.244-8.487 7.37-.51 3.122.854 6.221 3.193 8.172l-.068-.06c3.42 3.288 7.103 6.83 10.56 10.11.487.424.884.494 1.396.494.395.005.844-.13 1.305-.573l7.719-7.737s5.17-5.152 7.721-7.687c.544-.545.583-1.307.039-1.852-.544-.544-1.323-.526-1.867.018l-5.516 5.516c-.144.03-.45-.287-.435-.466l8.149-8.151c.544-.545.585-1.323.039-1.867-.545-.545-1.27-.469-1.815.075l-6.453 6.456c-.17.03-.537-.29-.49-.505l7.638-7.641c.438-.469.7-1.301.138-1.888-.544-.545-1.38-.508-1.924.039l-7.88 7.883c-.19 0-.478-.265-.475-.461l5.769-5.768c.543-.545.643-1.305.049-1.868a1.336 1.336 0 0 0-.977-.39c-.334.012-.657.159-.908.417z" fill="#ecfefd"/><path d="M36.39 25.569a906.49 906.49 0 0 0 5.441-5.468c.252-.257.575-.404.91-.416.333-.013.679.109.976.39.433.41.497.926.289 1.387a1.352 1.352 0 0 0-.29-.387 1.336 1.336 0 0 0-.976-.39c-.334.012-.657.159-.909.416a987.505 987.505 0 0 1-7.94 7.951l-.471-.47 2.768-2.767c.073-.073.141-.156.202-.246zm3.478 10.443l-7.847 7.967c-3.428-3.283-6.796-6.59-10.206-9.867l-.067-.06c-1.326-1.106-2.212-2.753-2.362-4.436-.184 2.01.774 4.112 2.362 5.436l.067.06c3.41 3.277 6.778 6.584 10.206 9.867l8.344-8.472zm-3.281-11.835c.171-.49.12-1.089-.399-1.602-.4-.4-.839-.523-1.24-.484-.4.038-.763.238-1.007.484L32.417 24.1c-1.18-1.176-3.006-2.952-4.917-3.368a8.528 8.528 0 0 0-2.088-.265c-4.262-.084-7.93 3.243-8.487 7.37a8.17 8.17 0 0 0-.091 1.816c.016-.272.046-.544.091-.816.556-4.127 4.225-7.454 8.487-7.37a8.528 8.528 0 0 1 2.088.265c1.911.416 3.738 2.192 4.917 3.368l1.524-1.524a1.683 1.683 0 0 1 1.007-.484c.401-.039.84.085 1.24.484.194.192.323.396.399.602zm12.482 5.921c.207-.466.125-.99-.28-1.395-.43-.43-1.005-.509-1.497-.255l-6.32 6.322c-.015.18.29.497.435.467l5.515-5.516c.544-.544 1.323-.562 1.867-.018.123.122.216.256.28.395zm.373-4.944c.204-.469.12-1-.283-1.402-.516-.516-1.195-.474-1.728-.006l-7.03 7.032c-.046.216.321.535.49.506l6.453-6.456c.544-.544 1.27-.62 1.815-.076.124.124.218.26.283.403zm-1.046-3.586c.164-.429.155-.928-.219-1.318-.544-.545-1.38-.508-1.924.039l-2.331 2.332c-.069.113-.154.22-.255.321L37.9 28.711c-.004.196.285.46.474.46l7.88-7.882c.544-.547 1.38-.584 1.925-.04.095.1.167.208.218.319z" fill="#fff"/><path d="M43.717 21.076zm-1.887.025a959.437 959.437 0 0 1-8.445 8.448l6.482 6.463.498-.504-6.474-6.455a982.433 982.433 0 0 0 7.94-7.952zm6.348.149zm-4.176.217c-.077.168-.19.33-.336.476L37.9 27.711c-.004.196.285.46.474.46l5.47-5.47c.269-.385.356-.828.16-1.234zm4.38.088a1.772 1.772 0 0 1-.343.584l-7.638 7.64c-.047.216.32.533.49.504l6.453-6.455c.007-.007.015-.01.021-.016l.674-.674c.367-.392.602-1.039.342-1.584zm-22.95 1.443c-2.822-.06-5.622 2.396-5.996 5.238a5.475 5.475 0 0 0-.037 1.408c.012-.136.015-.273.037-.408.374-2.842 3.174-5.298 5.996-5.238.547-.007 1.1.114 1.52.203 1.334.286 2.57 1.49 3.714 2.648-.002.003.621.625.621.625l1.625 1.618.508-.508-.035-.035c.875-.86 1.8-1.803 2.973-2.973.267-.381.419-.888.226-1.402a1.706 1.706 0 0 1-.396.64l-3.275 3.278-1.625-1.618s-.624-.622-.622-.625c-1.144-1.158-2.38-2.362-3.714-2.648-.42-.089-.973-.21-1.52-.203zm23.727 1.754zm.28.406c-.073.164-.178.32-.319.461l-8.148 8.152c-.015.18.29.496.435.465l5.516-5.515a1.48 1.48 0 0 1 .35-.254l1.847-1.848c.42-.42.536-.977.318-1.461zm-30.052 4.46c-.006.071-.002.144-.006.216.003-.052.012-.104.016-.156-.002-.02-.008-.04-.01-.06zm-2.535.023c-.177 2.841 1.128 5.584 3.266 7.367l-.069-.06c3.42 3.287 7.103 6.828 10.561 10.108.487.425.885.496 1.397.496.395.005.844-.13 1.305-.574l7.718-7.736s5.17-5.153 7.721-7.688c.422-.421.537-.972.317-1.453-.072.16-.178.314-.317.453-2.551 2.535-7.72 7.688-7.72 7.688l-7.72 7.736c-.46.443-.91.58-1.304.574-.512 0-.91-.071-1.397-.496-3.457-3.28-7.14-6.821-10.56-10.109l.068.06c-1.885-1.572-3.118-3.892-3.266-6.366zm31.938.062zm-29.416.502zm.067.787c.02.129.048.255.076.383-.028-.127-.057-.254-.076-.383zm.17.77zm.257.736c.06.143.131.28.202.418-.07-.138-.142-.276-.202-.418zm.352.713c.076.134.163.262.248.39-.085-.128-.172-.256-.248-.39zm.441.68zm.498.603z" fill="#0d9e94"/></g></svg>