<svg width="64" height="64" version="1.1" viewBox="0 0 64 64" xmlns="http://www.w3.org/2000/svg"><title>深度云扫描-64px</title><defs><linearGradient id="b" x1="22.847" x2="22.847" y1="1.019" y2="44.379" gradientTransform="scale(1.2693 .78782)" gradientUnits="userSpaceOnUse"><stop stop-color="#fff" offset="0"/><stop stop-color="#C0E9FE" offset="1"/></linearGradient><linearGradient id="c" x1="22.843" x2="22.843" y2="45.224" gradientTransform="scale(1.2695 .78768)" gradientUnits="userSpaceOnUse"><stop stop-color="#EBF9FF" offset="0"/><stop stop-color="#C4E6F8" offset="1"/></linearGradient><filter id="a" color-interpolation-filters="sRGB"><feFlood flood-color="#000" flood-opacity=".196" result="flood"/><feComposite in="flood" in2="SourceGraphic" operator="in" result="composite1"/><feGaussianBlur in="composite1" result="blur" stdDeviation="1"/><feOffset dx="0" dy="1" result="offset"/><feComposite in="SourceGraphic" in2="offset" result="composite2"/></filter></defs><g transform="translate(3 5)" fill-rule="evenodd" filter="url(#a)"><path d="M58 24.271c0-5.328-3.592-9.819-8.507-11.245-1.412-5.485-6.421-9.55-12.401-9.55-1.74 0-3.396.347-4.91.969A14.236 14.236 0 0 0 21.83 0C14.047 0 7.734 6.19 7.614 13.869 3.177 15.454 0 19.647 0 24.586c0 6.262 5.1 11.34 11.411 11.399v.014H46.52v-.021C52.891 35.788 58 30.626 58 24.271z" fill="url(#b)"/><path d="M49.55 12.775c-1.558-5.502-6.678-9.393-12.595-9.393-1.738 0-3.954.618-4.678.88A14.555 14.555 0 0 0 21.951 0C14.2 0 8.003 5.5 7.495 13.64 3.02 15.364.002 19.602.002 24.407c0 6.357 5.227 11.52 11.705 11.577l34.532-.006c6.545-.194 11.763-5.446 11.763-11.877 0-5.315-3.5-9.603-8.45-11.327zm-3.342 22.232l-34.498.02C5.773 34.96.984 30.23.984 24.41c0-4.502 2.895-8.463 7.158-9.97l.321-.114.005-.337C8.582 6.774 14.58.973 21.952.973c3.767 0 7.282 1.527 9.821 4.173l.232.241.311-.126a12.287 12.287 0 0 1 4.64-.906c5.56 0 10.36 3.714 11.714 8.927l.07.268.27.078c4.711 1.353 8.008 5.597 8.008 10.475 0 5.902-4.794 10.726-10.81 10.904z" fill="url(#c)"/><circle cx="52.325" cy="26.347" r="2" fill="#0fb8ff"/><rect x="10" y="17" width="38" height="37" rx="1.5" fill="#acdcfc"/><path fill="#145cb0" d="M13 20h32v31H13z"/><path fill="#0070ff" d="M14 21h30v29H14z"/><g fill="#fff"><path d="M15 34v1h28v-1h1v3h-1v-1H15v1h-1v-3z"/><path opacity=".5" d="M20 47V24h13l5 5v18z"/><path fill-opacity=".5" d="M38 29h-5v-5z"/></g><path d="M10.006 35.97C7.5 35.5 7 35 7 35l3-16s0 13 .005 16.97zM48 35.869c2.506-.47 3.006-.97 3.006-.97l-3-16s0 13-.006 16.97z" fill="#338dbc" fill-opacity=".4"/></g></svg>