<svg width="64" height="64" version="1.1" viewBox="0 0 64 64" xmlns="http://www.w3.org/2000/svg"><title>深度看图-64px</title><defs><linearGradient id="b" x1="28.885" x2="28.885" y1="17.822" y2="65.019" gradientTransform="scale(1.1078 .90267)" gradientUnits="userSpaceOnUse"><stop stop-color="#fff" offset="0"/><stop stop-color="#BEC2D0" offset="1"/></linearGradient><linearGradient id="c" x1="28.221" x2="28.221" y1="18.142" y2="65.766" gradientTransform="scale(1.1339 .88192)" gradientUnits="userSpaceOnUse"><stop stop-color="#F4F4F4" offset="0"/><stop stop-color="#F2F2F2" offset="1"/></linearGradient><linearGradient id="d" x1="26.128" x2="26.128" y1="61.237" y2="25.163" gradientTransform="scale(1.2247 .8165)" gradientUnits="userSpaceOnUse"><stop stop-color="#FF9191" offset="0"/><stop stop-color="#FFAE00" offset="1"/></linearGradient><linearGradient id="e" x1="39.003" x2="52.878" y1="28.606" y2="45.388" gradientTransform="scale(.96719 1.0339)" gradientUnits="userSpaceOnUse"><stop stop-color="#FFE48A" offset="0"/><stop stop-color="#FFC0C1" offset="1"/></linearGradient><linearGradient id="f" x1="39.319" x2="52.838" y1="29.254" y2="45.606" gradientTransform="scale(.97003 1.0309)" gradientUnits="userSpaceOnUse"><stop stop-color="#FFD241" offset="0"/><stop stop-color="#FFC0C1" offset="1"/></linearGradient><filter id="a" color-interpolation-filters="sRGB"><feFlood flood-color="#000" flood-opacity=".196" result="flood"/><feComposite in="flood" in2="SourceGraphic" operator="in" result="composite1"/><feGaussianBlur in="composite1" result="blur" stdDeviation="1"/><feOffset dx="0" dy="1" result="offset"/><feComposite in="SourceGraphic" in2="offset" result="composite2"/></filter></defs><g fill-rule="evenodd" filter="url(#a)"><rect x="13" y="9" width="38" height="44" rx="1.5" fill="#efefef" opacity=".7"/><path d="M8.98 13.502c0-.83.662-1.502 1.5-1.502h43.027c.825 0 1.493.674 1.493 1.502v40.996A1.5 1.5 0 0 1 53.495 56h-43.01a1.504 1.504 0 0 1-1.505-1.502z" fill="#efefef" opacity=".8"/><rect x="5" y="15" width="54" height="44" rx="1.5" fill="url(#b)"/><path d="M5 16.997c0-.55.45-.997 1.007-.997h51.986a1 1 0 0 1 1.007.997v40.006c0 .55-.451.997-1.007.997H6.007A1 1 0 0 1 5 57.003z" fill="url(#c)"/><path fill="url(#d)" d="M8 18h48v32H8z"/><path fill="#ada1fe" d="M28.019 23.333L8.015 50.005h13.336l13.483-17.586z"/><path fill="#8173dd" d="M28.5 24L9 50.005h12.351l13.483-17.586z"/><path fill="#a2b7ff" d="M48.023 50.005H21.351l13.466-17.608z"/><path fill="#89a1f6" d="M48.023 50.005H22.3l13-16.905z"/><path fill="url(#e)" d="M38.688 27.334l17.337 22.671h-8.002L34.817 32.397z"/><path fill="url(#f)" d="M39.2 27.98l16.825 22.025h-8.002L35.3 33.1z"/><path d="M10.5 12h43c1 0 1.4 1 1.4 1H9.1s.4-1 1.4-1z" fill="#fff"/><path opacity=".06" d="M8 18h48v1H8z"/><path opacity=".049" d="M9 14h46v1H9z"/><path d="M14.7 9h34.8c1 0 1.4 1 1.4 1H13.1s.3-1 1.6-1z" fill="#fff" opacity=".5"/><path fill="#fff" d="M8 50h48v1H8z"/></g></svg>