<svg width="64" height="64" version="1.1" viewBox="0 0 64 64" xmlns="http://www.w3.org/2000/svg"><title>软件包安装器-64px</title><defs><linearGradient id="b" x1="14.568" x2="14.568" y1="50.615" y2="61.259" gradientTransform="scale(2.1927 .45605)" gradientUnits="userSpaceOnUse"><stop stop-color="#fff" offset="0"/><stop stop-color="#C7D9E9" offset="1"/></linearGradient><filter id="a" color-interpolation-filters="sRGB"><feFlood flood-color="#000" flood-opacity=".196" result="flood"/><feComposite in="flood" in2="SourceGraphic" operator="in" result="composite1"/><feGaussianBlur in="composite1" result="blur" stdDeviation="1"/><feOffset dx="0" dy="1" result="offset"/><feComposite in="SourceGraphic" in2="offset" result="composite2"/></filter></defs><g fill-rule="evenodd" filter="url(#a)"><path d="M51.5 57h-39c-1 0-1.5-.5-1.5-1.5v-49c0-1 .5-1.5 1.5-1.5H40l13 13v37.5c0 1.5-1.5 1.5-1.5 1.5z" fill="#d70751"/><g fill="#fff"><path d="M24.188 44.309c-.009.008-.009 1.342-.028 1.69-.018.281-.047.886-.723.886-.695 0-.863-.704-.92-1.01-.065-.34-.065-.622-.065-.746 0-.398.028-1.508 1.089-1.508.319 0 .497.083.638.149l.01.539zm-2.722.977c0 2.336 1.408 2.336 1.614 2.336.583 0 .958-.281 1.118-.77l.019.737c.178-.008.356-.025.647-.025.104 0 .188 0 .263.009.075 0 .15.008.235.016-.15-.265-.263-.861-.263-2.154 0-1.26 0-3.388.122-4.035-.338.142-.629.233-1.267.282.253.24.253.365.253 1.458a2.66 2.66 0 0 0-.789-.108c-1.68 0-1.952 1.293-1.952 2.254zM26.557 44.863c.01-.687.17-1.3.836-1.3.732 0 .788.712.77 1.3zm2.535.083c0-.969-.216-1.922-1.605-1.922-1.915 0-1.915 1.873-1.915 2.27 0 1.682.854 2.345 2.29 2.345.638 0 .949-.083 1.118-.125-.01-.298.037-.489.094-.745-.198.108-.451.248-1.014.248-1.465 0-1.484-1.176-1.484-1.582h2.498zM32.147 45.303c0 .77-.16 1.806-1.248 1.806-.15 0-.338-.026-.46-.05-.02-.298-.02-.812-.02-1.408 0-.713.085-1.085.151-1.268.197-.588.638-.596.723-.596.713 0 .854.87.854 1.516zm-2.694.903c0 .613 0 .96-.113 1.226.385.132.864.207 1.437.207.366 0 1.427 0 2-1.036.272-.48.365-1.127.365-1.615 0-.299-.037-.953-.31-1.367a1.343 1.343 0 0 0-1.135-.588c-.902 0-1.164.662-1.305 1.002 0-.423.01-1.897.084-2.651a4.12 4.12 0 0 1-1.39.323c.367.132.367.68.367 2.46v2.039zM34.947 47.589a3.792 3.792 0 0 0-.592-.041c-.3 0-.507.016-.723.041.094-.158.132-.232.16-.77.038-.738.047-2.71-.019-3.124-.047-.315-.131-.364-.263-.447.77-.067.986-.116 1.343-.265-.075.364-.085.547-.085 1.102-.018 2.858-.028 3.164.179 3.504M37.953 45.244c-.019.522-.028.887-.188 1.177a.857.857 0 0 1-.77.48c-.564 0-.685-.414-.685-.82 0-.778.789-.837 1.145-.837zm-2.582 1.02c0 .522.178 1.043.704 1.267.235.091.47.091.545.091.864 0 1.155-.563 1.333-.911-.01.364 0 .588.028.878.17-.008.338-.025.62-.025.16 0 .31.017.47.025-.104-.14-.16-.224-.189-.547-.018-.315-.018-.63-.018-1.068l.01-1.69c0-.63-.189-1.252-1.597-1.252-.93 0-1.474.25-1.746.373a2 2 0 0 1 .29.696 2.2 2.2 0 0 1 1.334-.43c.78 0 .78.455.78 1.101-.179-.008-.33-.024-.583-.024-1.193 0-1.981.405-1.981 1.516zM43.361 46.769c.01.282.01.58.14.82-.206-.016-.328-.041-.713-.041-.225 0-.347.017-.526.041.038-.107.057-.149.076-.29.028-.19.047-.828.047-1.052v-.895c0-.389 0-.953-.029-1.151-.019-.14-.065-.522-.61-.522-.535 0-.714.348-.78.63-.074.29-.074.604-.074 1.83.009 1.06.009 1.16.103 1.45a5.877 5.877 0 0 0-.639-.033 3.92 3.92 0 0 0-.563.033c.066-.133.104-.199.122-.663.02-.455.057-2.692-.028-3.222-.047-.324-.141-.398-.244-.48.76-.034 1.004-.142 1.24-.25v.879c.112-.257.346-.829 1.286-.829 1.173 0 1.182.754 1.192 1.25v2.495M35.026 41.81l-.778.686-.777-.686.777-.685.778.685"/></g><path d="M39.995 25.572l-.448.223c-.366.711.036.451-.226 1.017-.572.508-1.734 1.59-2.106 1.689-.272-.006.184-.32.243-.444-.765.525-.614.789-1.784 1.108-2.92 1.282-6.929-1.409-6.876-5.08-.03.233-.088.175-.152.269-.149-1.889.873-3.785 2.595-4.561 1.685-.834 3.66-.492 4.866.634-.663-.869-1.982-1.79-3.545-1.704-1.532.025-2.965.998-3.443 2.055-.784.494-.876 1.904-1.217 2.163-.46 3.38.865 4.84 3.107 6.56.352.237.1.274.147.454a6.082 6.082 0 0 1-1.988-1.52c.298.436.619.86 1.034 1.192-.703-.237-1.641-1.702-1.915-1.762 1.211 2.168 4.912 3.802 6.851 2.991-.897.034-2.037.019-3.044-.354-.424-.217-1-.668-.896-.752 2.645.987 5.377.747 7.666-1.087.582-.454 1.218-1.225 1.402-1.236-.277.417.048.2-.165.568.58-.936-.253-.381.6-1.616l.314.433c-.118-.777.965-1.72.855-2.948.248-.376.276.404.013 1.268.365-.958.097-1.113.19-1.904.101.266.235.549.303.83-.238-.927.244-1.56.364-2.1-.119-.051-.368.41-.425-.684.008-.475.132-.249.18-.366-.093-.054-.338-.418-.487-1.117.107-.164.289.426.436.45-.095-.555-.258-.98-.264-1.406-.43-.897-.153.12-.5-.385-.458-1.425.379-.33.435-.978.693 1.003 1.087 2.559 1.27 3.203a13.11 13.11 0 0 0-.636-2.283c.21.089-.34-1.615.274-.487-.655-2.406-2.799-4.654-4.772-5.709.241.221.546.498.437.542-.982-.584-.81-.63-.95-.877-.799-.325-.852.027-1.38.001-1.507-.8-1.798-.715-3.184-1.215l.063.295c-.998-.332-1.163.126-2.242.001-.065-.05.346-.186.685-.234-.965.127-.92-.191-1.865.035.233-.164.48-.272.728-.41-.787.047-1.88.457-1.542.084-1.284.573-3.564 1.377-4.843 2.577l-.04-.27c-.586.704-2.557 2.102-2.714 3.014l-.156.037c-.305.516-.503 1.101-.745 1.632-.398.68-.584.262-.528.37-.784 1.59-1.175 2.926-1.511 4.023.24.359.006 2.16.096 3.6-.393 7.117 4.995 14.027 10.885 15.622.864.31 2.147.298 3.24.329-1.289-.369-1.455-.195-2.71-.633-.906-.427-1.104-.913-1.746-1.47l.254.448c-1.257-.445-.731-.55-1.754-.874l.27-.354c-.407-.031-1.079-.687-1.263-1.05l-.446.017c-.535-.66-.821-1.137-.8-1.507l-.144.257c-.163-.28-1.972-2.48-1.034-1.968-.174-.158-.406-.258-.657-.715l.191-.218c-.45-.581-.83-1.326-.802-1.574.241.325.408.386.574.442-1.14-2.828-1.204-.156-2.067-2.879l.182-.014c-.14-.212-.225-.44-.337-.665l.08-.792c-.821-.948-.23-4.034-.111-5.726.081-.688.685-1.421 1.143-2.57l-.28-.048c.535-.931 3.05-3.741 4.215-3.597.565-.709-.112-.003-.222-.18 1.24-1.284 1.63-.907 2.466-1.138.902-.535-.774.21-.347-.204 1.56-.398 1.105-.906 3.14-1.108.215.122-.498.189-.677.347 1.3-.636 4.112-.49 5.94.353 2.119.991 4.501 3.92 4.595 6.674l.107.03c-.054 1.095.168 2.361-.217 3.525l.26-.551c.032.837-.244 1.243-.493 1.963z" fill="#fff"/><path d="M41.239 18.037c-.736 0-1.239-.635-1.239-1.37V4.998l13 13.037z" fill="#ff5491"/><rect x="8" y="24" width="48" height="35" rx="1.333" fill="#c0d1df"/><path d="M8 25.505C8 24.674 8.679 24 9.502 24h44.995c.83 0 1.503.68 1.503 1.505v30.99c0 .831-.679 1.505-1.503 1.505H9.502C8.672 58 8 57.32 8 56.495z" fill="#dee8f2"/><g fill="#10acff"><path d="M28.49 45.017h-2.73v-.45c0-.153.147-.303.305-.304h2.278c.137 0 .296.153.296.302-.001.117-.003.19-.003.301 0 0 0 .15-.146.15m.752 2.109c.157 0 .157-.14.157-.153v-.448c0-.15-.154-.153-.154-.153l-3.185-.002c-.305 0-.3-.294-.3-.294-.004-.02 0-.307 0-.307h3.031c.842 0 .757-.603.757-.603v-.597s.082-1.06-1.059-1.06h-2.553c-1.161 0-1.082 1.046-1.082 1.046v1.515c0 1.056 1.062 1.051 1.062 1.051zM23.636 46.224s.003.147-.151.147c-.165 0-.972.002-1.468 0-.495 0-1.103-.11-1.103-1.043 0-.934.675-1.064 1.096-1.064l1.625.002.001 1.958m.759-4.073h-.605s-.151 0-.151.155l-.001 1.201h-1.962c-1.426 0-1.677 1.228-1.676 1.811.001.583.256 1.804 1.698 1.803 1.442-.001 1.483.002 2.093.002.756 0 .757-.75.757-.75v-4.072c0-.15-.154-.15-.154-.15M40.457 43.055h-.606a.151.151 0 0 1-.152-.15V42.3c0-.083.068-.15.152-.15h.606c.084 0 .152.067.152.15v.603c0 .084-.068.151-.152.151M40.457 47.125h-.606a.151.151 0 0 1-.152-.15v-3.317c0-.083.068-.15.152-.15h.606c.084 0 .152.067.152.15v3.316c0 .083-.068.15-.152.15M43.336 43.508h-2.424v3.464c0 .068.044.169.181.151l.53-.001c.208.03.202-.153.202-.153l-.004-2.706h1.514c.025 0 .612.01.612.752l-.005 1.96c0 .083.068.15.152.15h.606a.151.151 0 0 0 .151-.15v-2.029c0-.835-.402-1.436-1.515-1.438M35.76 44.406s-.002-.147.152-.147c.165 0 .971-.002 1.467 0 .495.001 1.103.11 1.104 1.043 0 .934-.676 1.064-1.097 1.064l-1.625-.002-.001-1.958m-.757 4.073h.603s.152 0 .152-.155v-1.201h1.963c1.425 0 1.676-1.228 1.675-1.811-.001-.583-.256-1.804-1.698-1.803-1.442.001-1.481-.002-2.092-.002-.756 0-.755.75-.755.75v4.072c0 .15.152.15.152.15M33.49 45.017h-2.73v-.45c0-.153.147-.303.306-.304h2.277c.137 0 .297.153.296.302l-.002.301s0 .15-.147.15m.753 2.109c.156 0 .157-.14.157-.153l-.001-.448c0-.15-.154-.153-.154-.153l-3.184-.002c-.306 0-.3-.294-.3-.294-.005-.02 0-.307 0-.307h3.03c.842 0 .757-.603.757-.603v-.597s.082-1.06-1.058-1.06h-2.554c-1.16 0-1.082 1.046-1.082 1.046v1.515c0 1.056 1.062 1.051 1.062 1.051z"/></g><path d="M60.672 33.623c.339.76-.066 1.377-.896 1.377H4.114c-.834 0-1.238-.612-.898-1.377l4.11-9.247C7.664 23.616 8.616 23 9.44 23h44.995c.83 0 1.775.612 2.116 1.377z" fill="url(#b)"/><path d="M54.885 23.993c.273 0 .587.208.697.453l4.029 9.041c.112.25-.023.454-.297.454l-54.785.102c-.276 0-.406-.21-.296-.458L8.3 24.438c.112-.253.434-.459.698-.459z" fill="#f0f8fa"/></g></svg>