<svg width="64" height="64" version="1.1" viewBox="0 0 64 64" xmlns="http://www.w3.org/2000/svg"><title>deepin-movie</title><defs><linearGradient id="b" x1="49.928" x2="11.864" y1="6.01" y2="46.954" gradientTransform="matrix(1.0211 0 0 .97938 4 5)" gradientUnits="userSpaceOnUse"><stop stop-color="#0BA2FF" offset="0"/><stop stop-color="#0067FF" offset="1"/></linearGradient><linearGradient id="c" x1="41.704" x2="28.892" y1="4.084" y2="52.074" gradientTransform="matrix(1.0211 0 0 .97938 4 5)" gradientUnits="userSpaceOnUse"><stop stop-color="#4BB4FF" offset="0"/><stop stop-color="#005DDB" offset="1"/></linearGradient><linearGradient id="d" x1="28.141" x2="4.18" y1="15.009" y2="16.601" gradientTransform="matrix(.59308 0 0 1.6861 4 5)" gradientUnits="userSpaceOnUse"><stop stop-color="#2BB8FF" offset="0"/><stop stop-color="#537CFF" offset="1"/></linearGradient><linearGradient id="e" x1="30.182" x2="6.387" y1="23.452" y2="26.098" gradientTransform="matrix(.59308 0 0 1.6861 4 5)" gradientUnits="userSpaceOnUse"><stop stop-color="#5BCBFF" offset="0"/><stop stop-color="#006CFF" offset="1"/></linearGradient><linearGradient id="f" x1="33.357" x2="33.357" y1="18.025" y2="33.509" gradientTransform="matrix(.93697 0 0 1.0673 4 5)" gradientUnits="userSpaceOnUse"><stop stop-color="#fff" offset="0"/><stop stop-color="#EFFAFD" offset="1"/></linearGradient><filter id="a" color-interpolation-filters="sRGB"><feFlood flood-color="#000" flood-opacity=".196" result="flood"/><feComposite in="flood" in2="SourceGraphic" operator="in" result="composite1"/><feGaussianBlur in="composite1" result="blur" stdDeviation="1"/><feOffset dx="0" dy="1" result="offset"/><feComposite in="SourceGraphic" in2="offset" result="composite2"/></filter></defs><g filter="url(#a)"><path d="M55.5 9H9l4 47h42.5a2.5 2.5 0 0 0 2.5-2.5v-42A2.5 2.5 0 0 0 55.5 9zM53 18h-6v-6h6zm-9 0h-6v-6h6zm-9 0h-6v-6h6zm-9 0h-6v-6h6zm27 35h-6v-6h6zm-9 0h-6v-6h6zm-9 0h-6v-6h6z" fill="url(#b)" fill-rule="evenodd"/><path d="M10.089 10l3.83 45h41.58a1.5 1.5 0 0 0 1.5-1.5v-42a1.5 1.5 0 0 0-1.5-1.5zM58 11.5v42a2.5 2.5 0 0 1-2.5 2.5H13L9 9h46.5a2.5 2.5 0 0 1 2.5 2.5z" fill="url(#c)"/><path d="M29 51v3h6v-3 2h-6zm9 0v3h6v-3 2h-6zm9 0v3h6v-3 2h-6zM20 16v3h6v-3 2h-6zm9 0v3h6v-3 2h-6zm9 0v3h6v-3 2h-6zm10-2h-1v5h6v-1h-5z" fill="#fff" fill-opacity=".1" fill-rule="evenodd"/><path d="M52 13h-4v4h4zm1 5h-6v-6h6zm-10-5h-4v4h4zm1 5h-6v-6h6zm-10-5h-4v4h4zm1 5h-6v-6h6zm-10-5h-4v4h4zm1 5h-6v-6h6z" fill="#1b78ff"/><g fill="#005bfc"><path d="M52 48h-4v4h4zm1 5h-6v-6h6zM43 48h-4v4h4zm1 5h-6v-6h6zM34 48h-4v4h4zm1 5h-6v-6h6z"/></g><path d="M21.865 58.273l-14.076-.492c-.34-.025-1.339-.046-1.288-1.488L4.826 8.31c-.012-.33.037-1.064 1.385-1.283l6.74-1.096c1.338.047 1.272.974 1.292 1.377.194 4.118 1.143 21.807 1.416 26.698.372 6.667 4.053 8.559 5.81 8.62 1.005.035.953.865.966 1.16l.8 13.05c-.048 1.388-1.37 1.439-1.37 1.439z" fill="url(#d)" fill-rule="evenodd"/><path d="M22.054 57.196a.335.335 0 0 0 .183-.3l-.802-13.07a6.825 6.825 0 0 0-.007-.202c-3.32-.12-6.434-3.573-6.768-9.564-.347-6.215-1.248-23.12-1.417-26.705-.009-.264-.014-.328-.03-.382-.01-.038 0-.035-.198-.04l-6.644 1.08c-.363.06-.51.139-.548.193.001-.002.56 16.039 1.677 48.123-.013.358.007.39.066.413.05.02.1.028.277.041l14 .49a.707.707 0 0 0 .211-.077zm-.189 1.077l-14.076-.491c-.34-.025-1.339-.047-1.288-1.488L4.826 8.31c-.012-.33.037-1.064 1.385-1.283l6.74-1.096c1.338.046 1.272.973 1.292 1.376.194 4.118 1.143 21.807 1.416 26.698.372 6.667 4.053 8.56 5.81 8.62 1.005.036.953.865.966 1.16l.8 13.051c-.048 1.387-1.37 1.438-1.37 1.438z" fill="url(#e)"/><path d="M28 40.763V26.237a1 1 0 0 1 1.502-.865l12.51 7.263a1 1 0 0 1 0 1.73l-12.51 7.263A1 1 0 0 1 28 40.763z" fill="#0766f8" fill-rule="evenodd"/><path d="M28 39.763V25.237a1 1 0 0 1 1.502-.865l12.51 7.263a1 1 0 0 1 0 1.73l-12.51 7.263A1 1 0 0 1 28 39.763z" fill="url(#f)" fill-rule="evenodd"/></g></svg>