<svg width="64" height="64" version="1" xmlns="http://www.w3.org/2000/svg"><defs><filter id="a" color-interpolation-filters="sRGB"><feFlood flood-color="#000" flood-opacity=".196" result="flood"/><feComposite in="flood" in2="SourceGraphic" operator="in" result="composite1"/><feGaussianBlur in="composite1" result="blur" stdDeviation="1"/><feOffset dx="0" dy="1" result="offset"/><feComposite in="SourceGraphic" in2="offset" result="composite2"/></filter></defs><g filter="url(#a)"><path d="M46.289 5c-3.752 0-6.857 1.505-9.211 3.65-1.328-.947-2.862-1.645-4.401-1.65a9.267 9.267 0 0 0-1.268.084h-.002c-1.684.226-3.216 1.046-4.531 2.086l-3.204-.16h-.002a8.387 8.387 0 0 0-1.232.031 9.198 9.198 0 0 0-2.378.566c-2.73 1.038-5.065 3.7-5.745 6.282-.05.187-.005.338-.043.521-.618.189-1.227.407-1.762.701v.002c-2.363 1.303-4.422 4.367-4.506 7.118-.083 2.75.986 4.664 2.09 6.13.857 1.14 1.873 2.017 3.013 2.782-.269.72-.607 1.393-.774 2.177-1.37 6.45 1.23 12.464 5.09 17.168C21.281 57.192 26.89 61 33.708 61c4.188 0 7.659-1.88 10.427-4.426 2.198-2.022 4.104-4.588 5.167-7.629 1.043-2.416.51-5.125.126-7.477-.999-6.096-2.51-12.77 4.48-20.97 1.336-2.32 2.71-4.941 1.795-8.84-.457-1.95-1.917-4.084-3.778-5.22C50.064 5.3 48.13 5 46.29 5z" opacity=".2"/><path d="M46.289 4c-3.752 0-6.857 1.505-9.211 3.65-1.328-.947-2.862-1.645-4.401-1.65a9.267 9.267 0 0 0-1.268.084h-.002c-1.684.226-3.216 1.046-4.531 2.086l-3.204-.16h-.002a8.387 8.387 0 0 0-1.232.031 9.198 9.198 0 0 0-2.378.566c-2.73 1.038-5.065 3.7-5.745 6.282-.05.187-.005.338-.043.521-.618.189-1.227.407-1.762.701v.002c-2.363 1.303-4.422 4.367-4.506 7.118-.083 2.75.986 4.664 2.09 6.13.857 1.14 1.873 2.017 3.013 2.782-.269.72-.607 1.393-.774 2.177-1.37 6.45 1.23 12.464 5.09 17.168C21.281 56.192 26.89 60 33.708 60c4.188 0 7.659-1.88 10.427-4.426 2.198-2.022 4.104-4.588 5.167-7.629 1.043-2.416.51-5.125.126-7.477-.999-6.096-2.51-12.77 4.48-20.97 1.336-2.32 2.71-4.941 1.795-8.84-.457-1.95-1.917-4.084-3.778-5.22C50.064 4.3 48.13 4 46.29 4z" fill="#569c3b"/><path d="M46.336 11c-8.886 0-10.551 13-5.553 13s14.44-13 5.553-13zm-13.65 2c-.143 0-.294.01-.453.031-5.082.68-3.296 9.797-.59 9.967 2.62.165 5.488-9.982 1.043-9.998zm-9.295 2.002a2.376 2.376 0 0 0-.351.01c-.26.025-.54.092-.836.205-4.758 1.806-.722 9.26 1.943 8.76 2.423-.455 2.765-8.8-.756-8.975zM16.784 22c-.425-.011-.886.1-1.375.37-3.91 2.151 1.318 7.352 3.619 6.546 2.013-.706.728-6.836-2.244-6.916zm18.578 4c-6.743-.12-15.637 3.434-17.154 10.568C16.565 44.288 24.97 55 33.74 55c4.314 0 9.291-4.391 10.223-9.574.34-1.89-1.768-2.575-4.026-2.426-2.464.162-5.108 1.307-4.937 2.672.266 2.136-.505 3.293-2.041 3.328-2.098-.255-3.683-1.218-3.96-3.055-.375-4.823 15.116-8.26 13.917-15.74-.439-2.735-3.51-4.133-7.555-4.205z" opacity=".2"/><path d="M46.336 10c-8.886 0-10.551 13-5.553 13s14.44-13 5.553-13zm-13.65 2c-.143 0-.294.01-.453.031-5.082.68-3.296 9.797-.59 9.967 2.62.165 5.488-9.982 1.043-9.998zm-9.295 2.002a2.376 2.376 0 0 0-.351.01c-.26.025-.54.092-.836.205-4.758 1.806-.722 9.26 1.943 8.76 2.423-.455 2.765-8.8-.756-8.975zM16.784 21c-.425-.011-.886.1-1.375.37-3.91 2.151 1.318 7.352 3.619 6.546 2.013-.706.728-6.836-2.244-6.916zm18.578 4c-6.743-.12-15.637 3.434-17.154 10.568C16.565 43.288 24.97 54 33.74 54c4.314 0 9.291-4.391 10.223-9.574.34-1.89-1.768-2.575-4.026-2.426-2.464.162-5.108 1.307-4.937 2.672.266 2.136-.505 3.293-2.041 3.328-2.098-.255-3.683-1.218-3.96-3.055-.375-4.823 15.116-8.26 13.917-15.74-.439-2.735-3.51-4.133-7.555-4.205z" fill="#fff"/><path d="M46.289 4c-3.752 0-6.857 1.505-9.21 3.65-1.328-.947-2.862-1.645-4.401-1.65a9.261 9.261 0 0 0-1.268.084h-.002c-1.683.226-3.218 1.046-4.533 2.086l-3.203-.16h-.002a8.382 8.382 0 0 0-1.233.031 9.192 9.192 0 0 0-2.377.566c-2.73 1.038-5.066 3.7-5.746 6.282-.049.187-.005.338-.043.521-.618.189-1.225.407-1.76.701v.002c-2.363 1.303-4.423 4.367-4.507 7.117-.01.293.002.57.017.844.155-2.71 2.171-5.682 4.49-6.96v-.003c.535-.294 1.142-.512 1.76-.7.038-.184-.006-.335.043-.522.68-2.583 3.017-5.244 5.746-6.282a9.19 9.19 0 0 1 2.377-.566c.373-.036.79-.053 1.233-.031h.002l3.203.16c1.315-1.04 2.85-1.86 4.533-2.086h.002A9.26 9.26 0 0 1 32.678 7c1.539.006 3.073.703 4.4 1.65C39.432 6.505 42.537 5 46.29 5c1.84 0 3.775.3 5.637 1.438 1.861 1.137 3.32 3.271 3.777 5.22.168.718.238 1.379.266 2.016.055-.921-.007-1.913-.266-3.016-.458-1.95-1.916-4.083-3.777-5.22C50.064 4.3 48.129 4 46.289 4zM12.797 32.92c-.183.449-.357.902-.463 1.4a16.83 16.83 0 0 0-.353 4.026c.028-.996.136-2.004.353-3.026.167-.784.505-1.457.774-2.177-.107-.072-.207-.15-.311-.223zm35.775.6c-.052 2.792.442 5.42.855 7.947.191 1.172.421 2.432.473 3.701.07-1.6-.231-3.221-.473-4.701-.364-2.223-.792-4.524-.855-6.947z" fill="#fff" opacity=".2"/></g></svg>