<svg width="64" height="64" version="1.1" xmlns="http://www.w3.org/2000/svg"><defs><filter id="a" color-interpolation-filters="sRGB"><feFlood flood-color="#000" flood-opacity=".196" result="flood"/><feComposite in="flood" in2="SourceGraphic" operator="in" result="composite1"/><feGaussianBlur in="composite1" result="blur" stdDeviation="1"/><feOffset dx="0" dy="1" result="offset"/><feComposite in="SourceGraphic" in2="offset" result="composite2"/></filter></defs><g transform="translate(8)" fill-rule="evenodd" filter="url(#a)"><path d="M23.995 4.001c-2.493 6.111-3.997 10.108-6.772 16.037C18.925 21.842 20.607 23.628 24 26c-3.647-1.5-5.729-2.693-7.588-4.256C12.86 29.155 7.294 39.711-4 60c8.877-5.123 15.058-8.282 21.47-9.487a16.243 16.243 0 0 1-.42-3.802l.01-.284c.14-5.686 3.86-10.42 7.303-10.427 3.442-.008 6.789 5.815 6.648 11.5-.027 1.07-.147 2.1-.358 3.055C36.996 51.795 43.243 54.946 52 60c-1.727-3.178-3.268-6.043-4.74-8.771C44.942 49.432 42.932 47.53 38 45c3.39.88 5.41 1.46 7.301 2.596C30.338 19.742 29.126 16.04 23.994 4z" fill="#1793d1"/><path d="M23.996 4.004c-2.493 6.11-3.998 10.107-6.773 16.035l.306.32c2.566-5.54 4.076-9.495 6.467-15.355 5.033 11.808 6.374 15.734 20.547 42.17.257.133.508.272.758.422C30.339 19.746 29.127 16.04 23.996 4.004zm-7.584 17.74C12.86 29.154 7.294 39.71-4 60l.807-.461C7.496 40.307 12.956 29.954 16.412 22.744 18.27 24.307 20.352 25.499 24 27a39.185 39.185 0 0 1-3.102-2.404c-1.85-.92-3.24-1.804-4.486-2.852zM38 46c4.932 2.531 6.941 4.432 9.26 6.228 1.229 2.28 2.565 4.754 3.959 7.327.265.152.511.29.781.445-1.727-3.178-3.268-6.043-4.74-8.772-1.67-1.293-3.195-2.644-5.75-4.242A73.394 73.394 0 0 0 38 46zm-20.936 1.346c0 .027-.005.053-.006.08l-.01.285a16.23 16.23 0 0 0 .23 2.844c.065-.013.128-.031.192-.043a16.28 16.28 0 0 1-.406-3.166zM31 47.652a16.009 16.009 0 0 1-.348 2.903c.054.01.107.026.16.037.103-.676.182-1.37.2-2.092.007-.283-.002-.565-.012-.848z" fill="#fff" opacity=".2"/></g></svg>