<svg width="64" height="64" version="1.1" viewBox="0 0 64 64" xmlns="http://www.w3.org/2000/svg"><defs><filter id="a" color-interpolation-filters="sRGB"><feFlood flood-color="#000" flood-opacity=".196" result="flood"/><feComposite in="flood" in2="SourceGraphic" operator="in" result="composite1"/><feGaussianBlur in="composite1" result="blur" stdDeviation="1"/><feOffset dx="0" dy="1" result="offset"/><feComposite in="SourceGraphic" in2="offset" result="composite2"/></filter></defs><g filter="url(#a)"><path d="M12.951 5.045c-2.342.194-5.853 1.87-7.476 4.44-2.012 3.189-1.545 4.81-1.445 6.34.1 1.53.401 2.903.883 4.324.73 2.154 1.932 3.862 2.98 5.741-1.108 2.917-1.883 5.947-1.89 9.093v.02C6.003 49.266 17.737 61 32 61s25.997-11.734 25.997-25.997v-.012c-.005-3.15-.783-6.184-1.89-9.105 1.046-1.877 2.25-3.582 2.98-5.737.48-1.422.782-2.794.882-4.324.1-1.53.566-3.152-1.445-6.34-1.08-1.71-3.052-3.248-4.894-3.897-1.838-.648-3.4-.644-4.68-.528-.794.07-1.575.21-2.355.403-3.53.853-6.63 2.5-9.76 4.476-1.612-.314-3.163-.93-4.812-.934h-.028c-1.657.001-3.22.616-4.839.93-3.127-1.975-6.225-3.62-9.753-4.472a15.353 15.353 0 0 0-2.363-.403 12.01 12.01 0 0 0-2.09-.015z" opacity=".2"/><path d="M12.951 4.045c-2.342.194-5.853 1.87-7.476 4.441-2.012 3.188-1.545 4.809-1.445 6.34.1 1.53.401 2.902.883 4.323.73 2.155 1.932 3.863 2.98 5.742-1.108 2.916-1.883 5.946-1.89 9.092v.02C6.003 48.266 17.737 60 32 60s25.997-11.734 25.997-25.997v-.012c-.005-3.15-.783-6.183-1.89-9.104 1.046-1.878 2.25-3.583 2.98-5.738.48-1.421.782-2.793.882-4.324.1-1.53.566-3.151-1.445-6.339-1.08-1.71-3.052-3.249-4.894-3.898-1.838-.647-3.4-.644-4.68-.527-.794.07-1.575.208-2.355.402-3.53.853-6.63 2.5-9.76 4.476-1.612-.314-3.163-.929-4.812-.933h-.028c-1.657 0-3.22.616-4.839.93-3.127-1.975-6.225-3.62-9.753-4.473a15.353 15.353 0 0 0-2.363-.402 12.01 12.01 0 0 0-2.09-.016z" fill="#fb5140"/><path d="M13.611 13.017c-.649.054-1.094.299-1.371.738-.395.627-.291 2.23.25 3.828.538 1.588 1.822 4.095 3.023 6.132a20.131 20.131 0 0 1 7.898-6.741c-2.835-1.79-5.882-3.257-7.898-3.742a7.454 7.454 0 0 0-1.183-.207 4.142 4.142 0 0 0-.72-.008zm36.777 0a4.144 4.144 0 0 0-.719.008c-.35.03-.744.096-1.183.207-2.235.538-5.752 2.258-8.823 4.316-1.564 1.047-1.665 1.184-1.664 2.246 0 .758.062 1.01.445 1.804 1.06 2.199 3.43 4.444 5.456 5.172.9.322 2.05.312 2.477-.024 1.07-.84 4.214-6.453 5.132-9.163.54-1.597.645-3.201.25-3.828-.277-.44-.722-.684-1.371-.738zm-18.389 3.988a17.998 17.998 0 0 0-17.998 17.998A17.998 17.998 0 0 0 31.999 53a17.998 17.998 0 0 0 17.998-17.998 17.998 17.998 0 0 0-1.633-7.44 4.608 4.608 0 0 1-.75.753c-.893.704-1.584.681-2.28.688a6.01 6.01 0 0 1-2.11-.352c-2.793-1.002-5.246-3.419-6.581-6.187-.419-.868-.644-1.806-.645-2.671 0-.561.088-1.448.563-2.18a17.998 17.998 0 0 0-4.562-.61z" opacity=".2"/><path d="M13.611 12.017c-.649.054-1.094.299-1.371.738-.395.627-.291 2.23.25 3.828.538 1.588 1.822 4.095 3.023 6.132a20.131 20.131 0 0 1 7.898-6.741c-2.835-1.79-5.882-3.257-7.898-3.742a7.454 7.454 0 0 0-1.183-.207 4.142 4.142 0 0 0-.72-.008zm36.777 0a4.144 4.144 0 0 0-.719.008c-.35.03-.744.096-1.183.207-2.235.538-5.752 2.258-8.823 4.316-1.564 1.047-1.665 1.184-1.664 2.246 0 .758.062 1.01.445 1.804 1.06 2.199 3.43 4.444 5.456 5.172.9.322 2.05.312 2.477-.024 1.07-.84 4.214-6.453 5.132-9.163.54-1.597.645-3.201.25-3.828-.277-.44-.722-.684-1.371-.738zm-18.389 3.988a17.998 17.998 0 0 0-17.998 17.998A17.998 17.998 0 0 0 31.999 52a17.998 17.998 0 0 0 17.998-17.998 17.998 17.998 0 0 0-1.633-7.44 4.608 4.608 0 0 1-.75.753c-.893.704-1.584.681-2.28.688a6.01 6.01 0 0 1-2.11-.352c-2.793-1.002-5.246-3.419-6.581-6.187-.419-.868-.644-1.806-.645-2.671 0-.561.088-1.448.563-2.18a17.998 17.998 0 0 0-4.562-.61z" fill="#fff"/><path d="M49.965 4.002a15.363 15.363 0 0 0-3.37.46c-3.53.854-6.629 2.5-9.759 4.478-1.611-.314-3.164-.93-4.812-.934h-.028c-1.657.001-3.22.616-4.84.93-3.127-1.975-6.224-3.62-9.752-4.473a15.353 15.353 0 0 0-2.363-.402 12.012 12.012 0 0 0-2.09-.016c-2.341.194-5.854 1.871-7.476 4.441-1.525 2.416-1.623 3.93-1.54 5.188.064-1.072.393-2.37 1.54-4.188 1.622-2.57 5.135-4.247 7.476-4.441a12.012 12.012 0 0 1 2.09.016c.797.07 1.582.208 2.363.402 3.528.853 6.625 2.498 9.752 4.473 1.62-.314 3.183-.929 4.84-.93h.028c1.648.004 3.2.62 4.812.934 3.13-1.977 6.23-3.624 9.76-4.477a15.36 15.36 0 0 1 2.355-.402c1.28-.117 2.842-.12 4.68.527 1.842.649 3.815 2.188 4.895 3.898 1.146 1.817 1.475 3.116 1.539 4.188.083-1.259-.015-2.772-1.54-5.188-1.08-1.71-3.052-3.25-4.894-3.898a10.238 10.238 0 0 0-3.666-.586zm6.36 21.514c-.072.125-.147.245-.217.371 1.055 2.782 1.803 5.665 1.877 8.654.003-.179.013-.356.013-.537v-.013c-.004-2.927-.69-5.747-1.674-8.475zm-48.649.002c-.983 2.724-1.666 5.542-1.673 8.465v.021c0 .183.01.363.013.545.074-2.99.82-5.876 1.877-8.658-.07-.127-.145-.248-.217-.373z" fill="#fff" opacity=".2"/></g></svg>