<svg width="64" height="64" version="1.1" xmlns="http://www.w3.org/2000/svg"><defs><filter id="a" color-interpolation-filters="sRGB"><feFlood flood-color="#000" flood-opacity=".196" result="flood"/><feComposite in="flood" in2="SourceGraphic" operator="in" result="composite1"/><feGaussianBlur in="composite1" result="blur" stdDeviation="1"/><feOffset dx="0" dy="1" result="offset"/><feComposite in="SourceGraphic" in2="offset" result="composite2"/></filter></defs><g filter="url(#a)"><path d="M32 5.001c-15.457 0-27.989 12.53-28 27.985v23.67A4.336 4.336 0 0 0 8.345 61h23.67C47.475 61 60 48.46 60 33 60 17.537 47.464 5 32 5z" opacity=".2"/><path d="M32 4.002c-15.457 0-27.989 12.53-28 27.985v23.669A4.336 4.336 0 0 0 8.345 60h23.67C47.475 60 60 47.46 60 32 60 16.537 47.464 4 32 4z" fill="#324e89"/><g fill="#fff"><path d="M41 10c-7.18 0-13 5.82-13 13v7h-9c-7.18 0-13 5.82-13 13s5.82 13 13 13 13-5.82 13-13v-7h9c7.18 0 13-5.82 13-13s-5.82-13-13-13zm0 6a7 7 0 1 1 0 14h-5.152S34 29.999 34 27.922V23a7 7 0 0 1 7-7zM19 36h5.152S26 36.001 26 38.078V43a7 7 0 1 1-7-7z" opacity=".2"/><path d="M41 10c-7.18 0-13 5.82-13 13v7h-7.055c-1.637.122-2.926 1.439-2.926 3.106 0 1.323.813 2.435 1.965 2.894h4.168S26 36.001 26 38.078V43a7 7 0 0 1-7 7c-1 0-1.38-.09-2-.2a3 3 0 0 0-3 3 3 3 0 0 0 2.809 2.99c.033.008.058.032.093.038.683.112 1.384.172 2.098.172 7.18 0 13-5.82 13-13v-7h7.965a3.109 3.109 0 0 0 1.98-2.898A3.114 3.114 0 0 0 39.085 30h-3.237S34 29.999 34 27.922V23a7 7 0 0 1 8.418-6.855h.004A3 3 0 0 0 46 13.2a3 3 0 0 0-2.14-2.872h-.008a3 3 0 0 0-.692-.12A12.601 12.601 0 0 0 41 10z"/><path d="M32 4C16.543 4 4.011 16.53 4 31.984v1C4.011 17.529 16.543 5 32 5c15.241 0 27.629 12.179 27.982 27.336.006-.112.018-.223.018-.336C60 16.536 47.464 4 32 4z" opacity=".1"/></g></g></svg>