<svg width="64" height="64" version="1.1" xmlns="http://www.w3.org/2000/svg"><defs><filter id="a" color-interpolation-filters="sRGB"><feFlood flood-color="#000" flood-opacity=".196" result="flood"/><feComposite in="flood" in2="SourceGraphic" operator="in" result="composite1"/><feGaussianBlur in="composite1" result="blur" stdDeviation="1"/><feOffset dx="0" dy="1" result="offset"/><feComposite in="SourceGraphic" in2="offset" result="composite2"/></filter></defs><g filter="url(#a)"><path d="M40 5c-11.046 0-20 8.954-20 20s8.954 20 20 20 20-8.954 20-20V8.058C60 6.358 58.642 5 56.942 5z" opacity=".2"/><path d="M40 4c-11.046 0-20 8.954-20 20s8.954 20 20 20 20-8.954 20-20V7.058C60 5.358 58.642 4 56.942 4z" fill="#666"/><path d="M40 39c7.76 0 14-6.24 14-14V11H40c-7.76 0-14 6.24-14 14s6.24 14 14 14z" opacity=".2"/><path d="M40 38c7.76 0 14-6.24 14-14V10H40c-7.76 0-14 6.24-14 14s6.24 14 14 14z" fill="#ececec"/><path d="M24 21C12.954 21 4 29.954 4 41v16.94C4 59.64 5.366 61 7.062 61H24c11.046 0 20-8.954 20-20s-8.954-20-20-20z" opacity=".2"/><path d="M40 4c-11.046 0-20 8.954-20 20 0 .168.008.333.012.5C20.278 13.686 29.122 5 40 5h16.941C58.641 5 60 6.359 60 8.059v-1C60 5.359 58.641 4 56.941 4H40z" fill="#fff" opacity=".1"/><path d="M24 20C12.954 20 4 28.954 4 40v16.94C4 58.64 5.366 60 7.062 60H24c11.046 0 20-8.954 20-20s-8.954-20-20-20z" fill="gray"/><path d="M24 27c-7.76 0-14 6.24-14 14v14h14c7.76 0 14-6.24 14-14s-6.24-14-14-14z" opacity=".2"/><path d="M24 26c-7.76 0-14 6.24-14 14v14h14c7.76 0 14-6.24 14-14s-6.24-14-14-14z" fill="#fff"/><path d="M24 20C12.954 20 4 28.954 4 40v1c0-11.046 8.954-20 20-20 10.878 0 19.722 8.686 19.988 19.5.004-.167.012-.332.012-.5 0-11.046-8.954-20-20-20z" fill="#fff" opacity=".2"/></g></svg>