<svg width="64" height="64" version="1.1" viewBox="0 0 64 64" xmlns="http://www.w3.org/2000/svg"><defs><filter id="a" color-interpolation-filters="sRGB"><feFlood flood-color="#000" flood-opacity=".196" result="flood"/><feComposite in="flood" in2="SourceGraphic" operator="in" result="composite1"/><feGaussianBlur in="composite1" result="blur" stdDeviation="1"/><feOffset dx="0" dy="1" result="offset"/><feComposite in="SourceGraphic" in2="offset" result="composite2"/></filter></defs><g filter="url(#a)"><circle cx="32" cy="33" r="28" opacity=".2"/><circle cx="32" cy="32" r="28" fill="#7ea043"/><path d="M36 13v12l10-6zm-4 2a18 18 0 0 0-16.812 11.582l1.758 1.055A16 16 0 0 1 32 17a16 16 0 0 1 2 .14v-2.007A18 18 0 0 0 32 15zm0 6a12 12 0 0 0-11.547 8.742l1.797 1.074A10 10 0 0 1 32 23a10 10 0 0 1 2 .203v-2.031A12 12 0 0 0 32 21zm13.801.45l-1.754 1.054A16 16 0 0 1 48 33a16 16 0 0 1-3.941 10.504l1.73 1.039A18 18 0 0 0 50 33a18 18 0 0 0-4.199-11.551zm-5.246 3.148l-1.777 1.066A10 10 0 0 1 42 33a10 10 0 0 1-3.218 7.336l1.777 1.07A12 12 0 0 0 44 33a12 12 0 0 0-3.445-8.402zM12 27v12l10-6zm10.254 8.18l-1.793 1.074A12 12 0 0 0 32 45a12 12 0 0 0 2-.18V42.79A10 10 0 0 1 32 43a10 10 0 0 1-9.746-7.82zm-5.313 3.187l-1.738 1.043A18 18 0 0 0 32 51a18 18 0 0 0 2-.121v-2.023A16 16 0 0 1 32 49a16 16 0 0 1-15.059-10.633zM36.001 41v12l10-6z" opacity=".2"/><path d="M36 12v12l10-6zm-4 2a18 18 0 0 0-16.812 11.582l1.758 1.055A16 16 0 0 1 32 16a16 16 0 0 1 2 .14v-2.007A18 18 0 0 0 32 14zm0 6a12 12 0 0 0-11.547 8.742l1.797 1.074A10 10 0 0 1 32 22a10 10 0 0 1 2 .203v-2.031A12 12 0 0 0 32 20zm13.801.45l-1.754 1.054A16 16 0 0 1 48 32a16 16 0 0 1-3.941 10.504l1.73 1.039A18 18 0 0 0 50 32a18 18 0 0 0-4.199-11.551zm-5.246 3.148l-1.777 1.066A10 10 0 0 1 42 32a10 10 0 0 1-3.218 7.336l1.777 1.07A12 12 0 0 0 44 32a12 12 0 0 0-3.445-8.402zM12 26v12l10-6zm10.254 8.18l-1.793 1.074A12 12 0 0 0 32 44a12 12 0 0 0 2-.18V41.79A10 10 0 0 1 32 42a10 10 0 0 1-9.746-7.82zm-5.313 3.187l-1.738 1.043A18 18 0 0 0 32 50a18 18 0 0 0 2-.121v-2.023A16 16 0 0 1 32 48a16 16 0 0 1-15.059-10.633zM36.001 40v12l10-6z" fill="#fff"/><path d="M32 4A28 28 0 0 0 4 32a28 28 0 0 0 .018.492A28 28 0 0 1 32 5a28 28 0 0 1 27.975 27.492A28 28 0 0 0 60 32 28 28 0 0 0 32 4z" fill="#fff" opacity=".2"/></g></svg>