<svg width="64" height="64" version="1.1" viewBox="0 0 64 64" xmlns="http://www.w3.org/2000/svg"><title>evince</title><defs><linearGradient id="b" x1="26.774" x2="26.774" y1="50.39" y2="1.095" gradientTransform="scale(1.0954 .91287)" gradientUnits="userSpaceOnUse"><stop stop-color="#E91A1A" offset="0"/><stop stop-color="#FA8C55" offset="1"/></linearGradient><filter id="a" color-interpolation-filters="sRGB"><feFlood flood-color="#000" flood-opacity=".196" result="flood"/><feComposite in="flood" in2="SourceGraphic" operator="in" result="composite1"/><feGaussianBlur in="composite1" result="blur" stdDeviation="1"/><feOffset dx="0" dy="1" result="offset"/><feComposite in="SourceGraphic" in2="offset" result="composite2"/></filter></defs><g transform="translate(5 6)" fill-rule="evenodd" filter="url(#a)"><path d="M54 23V2.667A2.667 2.667 0 0 0 51.333 0H2.666A2.667 2.667 0 0 0 0 2.667V23 3.667A2.667 2.667 0 0 1 2.666 1h48.667A2.667 2.667 0 0 1 54 3.667z" fill="#ff9e71"/><path d="M54 24v20.333A2.667 2.667 0 0 1 51.333 47H2.666A2.667 2.667 0 0 1 0 44.333V24v19.333A2.667 2.667 0 0 0 2.666 46h48.667A2.667 2.667 0 0 0 54 43.333z" fill="#d41e1c"/><rect y="1" width="54" height="45" rx="2.667" fill="url(#b)"/><path d="M14.024 35.474h.17l-3.54 2.206c-.855.857-1.74 1.742-2.654 2.654l6.194-3.86h-.17c6.873 3.06 17.754 2.536 32.643-1.57v-4.03 3.03c-8.856 2.442-16.294 3.617-22.314 3.524-2.622.368-4.733.144-6.334-.673a20.526 20.526 0 0 1-3.995-1.281zm-1.467-.742l-.2.199.027.009-.427.43c-.236-.15-.466-.305-.69-.467-1.926-1.387-2.654-3.236-2.504-5.267.127 1.635.9 3.111 2.505 4.267.409.295.839.571 1.289.829zm3.49-.59l.067.135.6-.373c.726-.362 1.27-.724 1.634-1.086.363-.362 5.083-4.888 14.16-13.576.845-.889 1.034-1.415 1.077-2.113.008.11.012.224.012.339 0 1.086 0 1.629-1.09 2.774-9.076 8.688-13.796 13.214-14.16 13.576-.357.356-.89.713-1.6 1.07a5.95 5.95 0 0 1-.7-.745zm12.462-16.705c-1.833-1.316-13.844 1.357-14.245 10.998-.47-11.656 15.458-13.926 14.431-11.365a2.865 2.865 0 0 1-.186.367z" fill="#d73020"/><path d="M14.194 35.474L8 39.334a1128.41 1128.41 0 0 0 4.384-4.394l-.027-.009.2-.199c-.45-.258-.88-.534-1.289-.828-9.803-7.06 11.437-26.065 21.239-20.092.726.685 1.09 1.57 1.09 2.656s0 1.63-1.09 2.774C23.43 27.93 18.71 32.456 18.347 32.818c-.363.362-.908.724-1.634 1.086l-.6.374-.067-.135c2.359 2.978 7.05 3.249 14.077.814 3.026-1.05 8.541-3.754 16.544-8.112v7.059c-14.89 4.106-25.77 4.63-32.643 1.57zm.577-2.95c8.695-8.836 13.335-13.987 13.924-15.454 1.09-2.715-16.883 0-14.16 13.576.12.592.276 1.14.471 1.644z" fill="#fff"/></g></svg>