<svg width="64" height="64" version="1" xmlns="http://www.w3.org/2000/svg"><defs><filter id="a" color-interpolation-filters="sRGB"><feFlood flood-color="#000" flood-opacity=".196" result="flood"/><feComposite in="flood" in2="SourceGraphic" operator="in" result="composite1"/><feGaussianBlur in="composite1" result="blur" stdDeviation="1"/><feOffset dx="0" dy="1" result="offset"/><feComposite in="SourceGraphic" in2="offset" result="composite2"/></filter></defs><g fill-rule="evenodd" filter="url(#a)"><circle cx="28" cy="54" r="7" opacity=".2"/><circle cx="18" cy="39" r="7" fill="#ff6bf4"/><circle cx="28" cy="53" r="7" fill="#ff6bf4"/><circle cx="20" cy="50" r="11" opacity=".2"/><circle cx="20" cy="49" r="11" fill="#cc4e38"/><circle cx="40" cy="42" r="13" opacity=".2"/><circle cx="40" cy="41" r="13" fill="#f26666"/><circle cx="35" cy="31" r="18" opacity=".2"/><circle cx="35" cy="30" r="18" fill="#fdcc58"/><circle cx="15" cy="53" r="8" opacity=".2"/><circle cx="15" cy="52" r="8" fill="#ff6bf4"/><path d="M32.183 29.511c-2.045 7.486-6.944 13.084-14.576 11.078-7.632-2.006-12.161-9.7-10.116-17.185 2.045-7.486 9.89-11.928 17.522-9.922 7.632 2.006 9.215 8.544 7.17 16.03z" opacity=".2"/><path d="M32.183 28.511c-2.045 7.486-6.944 13.084-14.576 11.078-7.632-2.006-12.161-9.7-10.116-17.185 2.045-7.486 9.89-11.928 17.522-9.922 7.632 2.006 9.215 8.544 7.17 16.03z" fill="#f26666"/><path d="M21.799 12.01a14.584 14.584 0 0 0-1.06.002c-6.095.238-11.586 4.309-13.247 10.391a13.635 13.635 0 0 0-.457 4.082c.038-1.021.176-2.053.457-3.082 1.662-6.082 7.152-10.153 13.246-10.391a14.55 14.55 0 0 1 4.274.469c5.463 1.435 7.795 5.207 7.943 9.974.16-5.236-2.103-9.44-7.943-10.975a14.557 14.557 0 0 0-3.213-.47z" fill="#fff" opacity=".2"/><circle cx="50" cy="12" r="8" fill="#98ecef"/><path d="M50 4a8 8 0 0 0-8 8 8 8 0 0 0 .023.4A8 8 0 0 1 50 5a8 8 0 0 1 7.975 7.477A8 8 0 0 0 58 12a8 8 0 0 0-8-8z" fill="#fff" opacity=".2"/><circle cx="48" cy="28" r="8" opacity=".2"/><circle cx="48" cy="27" r="8" fill="#98ecef"/><circle cx="46" cy="20" r="11" opacity=".2"/><circle cx="46" cy="19" r="11" fill="#4e59b3"/><path d="M43 19c0 4.418-2.146 8-6.364 8S29 23.418 29 19s3.419-8 7.636-8S43 14.582 43 19z" opacity=".2"/><path d="M43 18c0 4.418-2.146 8-6.364 8S29 22.418 29 18s3.419-8 7.636-8S43 13.582 43 18z" fill="#98ecef"/><path d="M36.637 10C32.42 10 29 13.582 29 18c0 .112.022.218.032.328.326-4.103 3.604-7.328 7.605-7.328 4.002 0 6.134 3.227 6.342 7.332.006-.11.021-.218.021-.332 0-4.418-2.145-8-6.363-8z" fill="#fff" opacity=".2"/></g></svg>