<svg width="64" height="64" version="1.1" viewBox="0 0 64 64" xmlns="http://www.w3.org/2000/svg"><title>firefox-zh</title><defs><linearGradient id="b" x1="56.152" x2="66.026" y1="4.229" y2="15.152" gradientTransform="scale(.7689 1.3006)" gradientUnits="userSpaceOnUse"><stop stop-color="#F89B09" offset="0"/><stop stop-color="#FBDB00" offset="1"/></linearGradient><linearGradient id="c" x1="124.07" x2="124.07" y1="10.567" y2="13.843" gradientTransform="scale(.42268 2.3658)" gradientUnits="userSpaceOnUse"><stop stop-color="#F6901A" offset="0"/><stop stop-color="#FF5224" offset="1"/></linearGradient><linearGradient id="d" x1="54.789" x2="51.105" y1="36.336" y2="41.648" gradientTransform="scale(.91411 1.094)" gradientUnits="userSpaceOnUse"><stop stop-color="#F95828" offset="0"/><stop stop-color="#F02044" offset="1"/></linearGradient><linearGradient id="e" x1="23.746" x2="21.038" y1="86.42" y2="88.626" gradientTransform="scale(1.6717 .59818)" gradientUnits="userSpaceOnUse"><stop stop-color="#B21969" offset="0"/><stop stop-color="#8E123B" offset="1"/></linearGradient><linearGradient id="f" x1="34.465" x2="23.644" y1="7.458" y2="43.097" gradientUnits="userSpaceOnUse"><stop stop-color="#01A2FC" offset="0"/><stop stop-color="#441A7E" offset="1"/></linearGradient><linearGradient id="g" x1="9.012" x2="9.012" y1="5.212" y2="12.875" gradientTransform="scale(.81749 1.2233)" gradientUnits="userSpaceOnUse"><stop stop-color="#EF2545" offset="0"/><stop stop-color="#C01F49" offset="1"/></linearGradient><linearGradient id="h" x1="49.93" x2="54.604" y1="7.698" y2="28.728" gradientTransform="scale(.64825 1.5426)" gradientUnits="userSpaceOnUse"><stop stop-color="#191F78" stop-opacity="0" offset="0"/><stop stop-color="#20257B" offset="1"/></linearGradient><linearGradient id="i" x1="13.485" x2="27.241" y1="25.055" y2="19.748" gradientTransform="scale(.98255 1.0178)" gradientUnits="userSpaceOnUse"><stop stop-color="#282990" offset="0"/><stop stop-color="#272D98" stop-opacity="0" offset="1"/></linearGradient><linearGradient id="j" x1="42.93" x2="-7.571" y1=".19" y2="25.004" gradientTransform="scale(.97852 1.0219)" gradientUnits="userSpaceOnUse"><stop stop-color="#FEEA04" offset="0"/><stop stop-color="#FFE900" offset=".273"/><stop stop-color="#FF7916" offset=".461"/><stop stop-color="#FF282F" offset=".762"/><stop stop-color="#BF0573" offset="1"/></linearGradient><linearGradient id="k" x1="19.292" x2="15.386" y1="11.506" y2="16.456" gradientTransform="scale(1.1775 .84922)" gradientUnits="userSpaceOnUse"><stop stop-color="#F79C0F" offset="0"/><stop stop-color="#FF681C" offset="1"/></linearGradient><linearGradient id="l" x1="10.77" x2="24.795" y1="17.822" y2="17.822" gradientTransform="scale(.85131 1.1747)" gradientUnits="userSpaceOnUse"><stop stop-color="#FF372A" offset="0"/><stop stop-color="#FF8703" offset=".788"/><stop stop-color="#FCAA00" offset="1"/></linearGradient><linearGradient id="m" x1="20.123" x2="19.69" y1="48.951" y2="44.547" gradientTransform="scale(1.3027 .76763)" gradientUnits="userSpaceOnUse"><stop stop-color="#211B61" offset="0"/><stop stop-color="#222982" stop-opacity="0" offset="1"/></linearGradient><linearGradient id="n" x1="9.538" x2="22.54" y1="36.251" y2="45.655" gradientTransform="scale(1.3027 .76763)" gradientUnits="userSpaceOnUse"><stop stop-color="#D93A20" offset="0"/><stop stop-color="#FF4D1E" offset=".274"/><stop stop-color="#FF8703" offset=".535"/><stop stop-color="#FFBC01" offset="1"/></linearGradient><linearGradient id="o" x1="11.86" x2="18.338" y1="31.784" y2="43.651" gradientTransform="scale(1.1282 .88636)" gradientUnits="userSpaceOnUse"><stop stop-color="#E3311F" offset="0"/><stop stop-color="#F14719" offset=".5"/><stop stop-color="#EA2C16" offset="1"/></linearGradient><linearGradient id="p" x1="56.656" x2="43.271" y1="16.226" y2="35.375" gradientTransform="scale(.68899 1.4514)" gradientUnits="userSpaceOnUse"><stop stop-color="#FF9302" offset="0"/><stop stop-color="#FFCA00" offset=".317"/><stop stop-color="#FF7B16" offset=".765"/><stop stop-color="#FF5F1F" stop-opacity="0" offset="1"/></linearGradient><linearGradient id="q" x1="55.314" x2="72.309" y1="1.887" y2="27.246" gradientTransform="scale(.65756 1.5208)" gradientUnits="userSpaceOnUse"><stop stop-color="#FFF150" offset="0"/><stop stop-color="#FFEE4C" offset=".208"/><stop stop-color="#FFCD28" offset=".672"/><stop stop-color="#FF9601" offset="1"/></linearGradient><linearGradient id="r" x1="57.036" x2="66.642" y1="2.681" y2="30.949" gradientTransform="scale(.60793 1.6449)" gradientUnits="userSpaceOnUse"><stop stop-color="#FFEB02" offset="0"/><stop stop-color="#FFAC00" offset=".718"/><stop stop-color="#FF7417" offset="1"/></linearGradient><linearGradient id="s" x1="45.948" x2="40.242" y1="6.255" y2=".792" gradientTransform="scale(.88181 1.134)" gradientUnits="userSpaceOnUse"><stop stop-color="#FFE900" offset="0"/><stop stop-color="#FFE309" offset="1"/></linearGradient><filter id="a" color-interpolation-filters="sRGB"><feFlood flood-color="#000" flood-opacity=".196" result="flood"/><feComposite in="flood" in2="SourceGraphic" operator="in" result="composite1"/><feGaussianBlur in="composite1" result="blur" stdDeviation="1"/><feOffset dx="0" dy="1" result="offset"/><feComposite in="SourceGraphic" in2="offset" result="composite2"/></filter></defs><g transform="translate(5 4)" fill-rule="evenodd" filter="url(#a)"><path d="M42.125 11c-.583-2.083-.25-3.917 1-5.5.772 1.74 1.397 2.99 1.875 3.75 2.762 4.39 4.963 7.677 5.625 10.125.833 3.083-2 .292-8.5-8.375z" fill="url(#b)"/><path d="M51.875 26.5l1.25-1.5c.083 4.5-.375 7.083-1.375 7.75" fill="url(#c)"/><path d="M50 39.75c-2.917 3.583-4.5 5.5-4.75 5.75-.375.375 4-1 4.5-3.125.333-1.417.417-2.292.25-2.625z" fill="url(#d)"/><path d="M41.25 50.375L33.875 53c3.333.083 5.333-.208 6-.875s1.125-1.25 1.375-1.75z" fill="url(#e)"/><circle cx="26" cy="28" r="23" fill="url(#f)"/><path d="M10.5 12c-2.25-2-3.125-3.875-2.625-5.625-2.583 2.667-3.792 5.792-3.625 9.375" fill="url(#g)"/><path d="M31.25 11.875c-1.583 3.583.417 7.417 6 11.5 3.25 6.5 1.75 12.208-4.5 17.125s-5.473 5.083 2.33.5c6.613-7.75 8.628-13.375 6.045-16.875" fill="url(#h)"/><path d="M26.375 18.5c.833.75.333 1.875-1.5 3.375-2.083 1.167-3.292 1.792-3.625 1.875-.5.125-.5 3.25-.875 3.5s-1.875 1-2.875 2c-.667.667-.083 1.75 1.75 3.25l-6-1.875 4.125-5.25L21.625 22z" fill="url(#i)"/><path d="M21.5 17c-.75-.375-1.75-1-1.875-2.375S14.125 9.75 8 12.5-3 27.75 2.25 39.625 18.75 55.5 24.75 55.75 36.125 55.875 40 52c-1.333.667-3.208 1-5.625 1 2.38-.81 4.08-1.427 5.102-1.853 6.594-2.748 10.06-5.88 10.398-9.397-.557.93-1.057 1.597-1.5 2-.474.43-1.349.972-2.625 1.625 3-3.417 5.083-6.542 6.25-9.375s1.541-6.5 1.125-11c-.087 2.096-.212 3.596-.375 4.5s-.497 1.946-1 3.125c.454-3.454.62-5.83.5-7.125s-.705-3.38-1.75-6.25c-2.917-5.333-5.834-9-8.75-11C37.5 4 35.416 1.375 35.5.375a.427.427 0 0 0-.004-.125c-.18-.787-4.242 6.992-4.121 10.125.125 3.25.25 8.25 6.375 12.25 2.5 4.25 2.708 8.583.625 13-3.125 6.625-14.5 9.875-20.5 1.875-5.53-7.372.215-12.124 2.5-13.75.194-.138.237-.537.375-.625.137-.088 3.044-1.295 4.375-2.375.887-.72 1.436-1.975 1.375-2.375-.155-1-4.25-1-5-1.375z" fill="url(#j)"/><path d="M16.375 12.375c2.583-2.25 5-3.042 7.25-2.375-2.75 2.333-4.125 4-4.125 5" fill="url(#k)"/><path d="M16.375 12.25c2.583-2.083 5-2.833 7.25-2.25-2.833 2.083-4.458 4.667-4.875 7.75-.167 2.25.375 4.25 1.625 6-.167 1.917-.375 2.958-.625 3.125-.667.083-1.75-.125-3.25-.625-2.25-.75-5.875 2.625-5.375 5.125.253 1.267-1.612-2.185-3.042-6.143C6.69 21.38 10.82 14.505 12.816 13.67c.744-.312 1.93-.785 3.559-1.42z" fill="url(#l)"/><path d="M22.25 33.75c.5 0 .718-.078 1-.125 1.897-.583 3.272-.875 4.125-.875 1.28 0 4.25 1.375 3.875 3.125-.083.333-.5.625-1 .5-.5-.167-.833-.208-1-.125l-.265.135c-.167.107-.615.332-1.343.675-1.242.615-2.817 1.365-3.267 1.44a3.658 3.658 0 0 0-.073.013 9.568 9.568 0 0 1-2.677.362c-.227 0-.448-.005-.663-.015-.252-.01-.51-.03-.77-.062-.95-.11-1.763-.333-2.442-.673-2.046-.759-3.38-1.342-4-1.75-2.145-1.409-2.488-2.575-2.5-2.625-.012-.05-1.25-4 .75-5.625s3.574-1.45 5.75-.875c.385.102.528.446.005.588-1.313.357-1.732 1.16-1.255 2.412.658 1.727 2.501 3.024 5.625 3.5z" fill="url(#m)"/><path d="M22.25 33c.5 0 .718-.078 1-.125 1.897-.583 3.272-.875 4.125-.875 1.28 0 4.25 1.375 3.875 3.125-.083.333-.5.625-1 .5-.5-.167-.833-.208-1-.125l-.265.135c-.167.107-.615.332-1.343.675-1.242.615-2.817 1.365-3.267 1.44a3.658 3.658 0 0 0-.073.013 9.568 9.568 0 0 1-2.677.362c-.227 0-.448-.005-.663-.015-.252-.01-.51-.03-.77-.062-.95-.11-1.763-.333-2.442-.673-2.046-.759-3.38-1.342-4-1.75-2.145-1.409-2.488-2.575-2.5-2.625S10 29 12 27.375s3.574-1.45 5.75-.875c.385.102 1.052.227 2 .375-2.833 0-3.917.875-3.25 2.625.658 1.727 2.501 3.024 5.625 3.5z" fill="url(#n)"/><path transform="rotate(16 17.637 33.155)" d="M9.247 31.272c.846-5.501 8.69-4.737 8.69-4.737-.23.231-6.332 4.51.373 9.386 2.436 1.772 10.406 4.168 6.937 3.863-3.469-.306-17.268-.33-16-8.512z" fill="url(#o)" fill-rule="nonzero"/><path d="M39.625 50.875c.28-.172 2.54-3.512 3.125-3.875 2.167-6.833 2.708-12.208 1.625-16.125s-3.458-6.458-6.625-8.125c6 7.583 4.958 15.875-3.625 25.375-.328.363-.639.71-.933 1.045-1.713 1.21-2.236 1.903-1.567 2.08.76.202 3.427.077 8-.375z" fill="url(#p)"/><path d="M41.75 8.25c2.917 2 5.833 5.667 8.75 11 1.183 2.875 1.683 4.875 1.75 6.25.067 1.375.125 3.25-.5 7 .504-1.18.779-2.096.942-3s.346-2.404.433-4.5c.417 4.5.042 8.167-1.125 11s-3.25 5.958-6.25 9.375c-.394.392-.762.733-1.183 1.125 3-19.625-.875-19-7.5-26.25-4.417-4.833-4.98-11.5-1.692-20 .125-.125.125 0 .125.125-.029 1.028 2.053 3.678 6.25 7.875z" fill="url(#q)"/><path d="M35.375.25c-6.333 9.333-5.542 16.833 2.375 22.5 11.875 8.5 3.805 25.875 2 27.75s9.875-3 10.125-8.75c-1.083 1.583-2.458 2.792-4.125 3.625 3-11.917 1.417-19.792-4.75-23.625s-8.042-11-5.625-21.5z" fill="url(#r)"/><path d="M41.462 7.962c.163.2.265.266.14.2C38.29 6.4 35.29 2.619 35.498.25c.234 1.173 2.217 3.743 5.965 7.712z" fill="url(#s)"/></g></svg>