<svg width="64px" height="64px" version="1.1" viewBox="0 0 64 64" xmlns="http://www.w3.org/2000/svg">
<title>foxitreader</title>
<desc>Created with Sketch.</desc>
<defs>
<linearGradient id="linearGradient-1" x1="21.353" x2="23.077" y1="5.9743" y2="50.514" gradientTransform="matrix(.93047 .032493 -.037485 1.0734 1.0334 -1.0503)" gradientUnits="userSpaceOnUse">
<stop stop-color="#FF9E00" offset="0"/>
<stop stop-color="#FF5C11" offset="1"/>
</linearGradient>
<linearGradient id="linearGradient-2" x1="8.7902" x2="23.025" y1="4.0703" y2="50.729" gradientTransform="matrix(.93415 .032621 -.037337 1.0692 1.0419 -1.051)" gradientUnits="userSpaceOnUse">
<stop stop-color="#F6721F" offset="0"/>
<stop stop-color="#E51C1A" offset="1"/>
</linearGradient>
<linearGradient id="linearGradient-3" x1="76.006" x2="76.006" y1=".48027" y2="7.5171" gradientTransform="matrix(.13917 .00486 -.25061 7.1766 1.0258 -.3516)" gradientUnits="userSpaceOnUse">
<stop stop-color="#F07900" offset="0"/>
<stop stop-color="#F30101" offset="1"/>
</linearGradient>
<filter id="filter896" color-interpolation-filters="sRGB">
<feFlood flood-color="rgb(0,0,0)" flood-opacity=".19608" result="flood"/>
<feComposite in="flood" in2="SourceGraphic" operator="in" result="composite1"/>
<feGaussianBlur in="composite1" result="blur" stdDeviation="1"/>
<feOffset dx="0" dy="1" result="offset"/>
<feComposite in="SourceGraphic" in2="offset" result="composite2"/>
</filter>
</defs>
<g filter="url(#filter896)">
<g fill-rule="evenodd">
<path id="Mask" d="m11.276 2.8634 0.73206 0.29303 0.68173-0.10993 41.725 1.4571c1.9015 0.066401 3.3891 1.6617 3.3227 3.5631l-1.7139 49.08c-0.0664 1.9015-1.6617 3.3891-3.5631 3.3227l-44.062-1.5387c-1.1701-0.040862-2.0856-1.0226-2.0447-2.1927l1.779-50.944c0.058572-1.6773 1.4658-2.9895 3.1431-2.9309z" fill="#ff5e00"/>
<path d="m11.938 2.9145 0.69835 0.28484 0.65061-0.1075 39.657 1.3849c1.9015 0.066401 3.3891 1.6617 3.3227 3.5631l-1.6626 47.612c-0.0664 1.9015-1.6617 3.3891-3.5631 3.3227l-42.584-1.4871c-0.73133-0.025538-1.3035-0.6391-1.278-1.3704l1.7602-50.406c0.05589-1.6005 1.3986-2.8526 2.9991-2.7967z" fill="#fff"/>
<path d="m11.261 2.5018 0.71792 0.29254 0.86078-0.10367 38.451 0.19822c1.9026 0.00981 3.437 1.5601 3.4272 3.4627-1.7e-4 0.0364-9.41e-4 0.072795-0.0023 0.10917l-1.7045 46.232c-0.0701 1.9013-1.6683 3.3858-3.5696 3.3157-0.0026-9.5e-5 -0.0051-1.91e-4 -0.0077-2.92e-4l-41.567-1.6258c-0.19766-0.0077-0.39261 0.04794-0.55639 0.15886l-0.87445 0.5923 1.6694-49.685c0.056589-1.6841 1.4677-3.0035 3.1518-2.9469 0.0013 4.37e-5 0.0027 9.17e-5 4e-3 1.37e-4z" fill="url(#linearGradient-1)"/>
<path id="Combined-Shape" d="m54.697 6.955 0.01822-0.4943c0.0013-0.036375 0.0021-0.07277 0.0023-0.10917 0.0098-1.9026-1.5246-3.4529-3.4272-3.4627l-38.451-0.19822-0.86078 0.10367-0.71792-0.29254c-0.0013-4.54e-5 -0.0027-9.33e-5 -4e-3 -1.369e-4 -1.6841-0.056589-3.0952 1.2628-3.1518 2.9469l-1.6694 49.685 0.034381-0.023288 1.635-48.662c0.056589-1.6841 1.4677-3.0035 3.1518-2.9469 0.0013 4.36e-5 0.0027 9.15e-5 4e-3 1.369e-4l0.71792 0.29254 0.86078-0.10367 38.451 0.19822c1.7685 0.00912 3.2189 1.3493 3.4067 3.0662z" fill="#ffbd67"/>
<path d="m53.158 3.4497c0.94465 0.61864 1.5663 1.6886 1.5601 2.9019-1.7e-4 0.0364-9.41e-4 0.072795-0.0023 0.10917l-1.7045 46.232c-0.0701 1.9013-1.6683 3.3858-3.5696 3.3157-0.0026-9.6e-5 -0.0051-1.91e-4 -0.0077-2.92e-4l-41.567-1.6258c-0.19766-0.0077-0.39261 0.04794-0.55639 0.15887l-0.87445 0.59229 0.034381-1.0233 0.8397-0.56875c0.16401-0.11109 0.35928-0.16675 0.55721-0.15883l40.564 1.6224c0.0036 1.43e-4 0.0072 2.81e-4 0.01074 4.12e-4 1.9013 0.0701 3.4995-1.4144 3.5696-3.3157l1.7044-46.229c0.0013-0.036231 0.0021-0.072481 0.0023-0.10874 0.0037-0.70172-0.20265-1.3555-0.56008-1.9019z" fill="url(#linearGradient-2)"/>
</g>
<path id="Line" d="m11.466 3.9642-1.7647 50.535" fill="none" opacity=".5" stroke="url(#linearGradient-3)" stroke-linecap="square"/>
<path d="m35.729 41.558c-0.70062 0.65242-12.351 4.3069-9.919-7.1153 2.3143-8.0419 8.3602-6.477 9.7142-6.4297 1.354 0.04728 4.6682 2.1937 4.6682 2.1937s-0.51175-4.7561-5.2272-5.5977c0 0 4.7863-1.1866 9.9426 6.4392 0 0-0.34649-9.4886-9.124-10.472-10.809-1.0543-15.854 7.569-15.854 7.569s-8.5727 12.562 4.1016 18.419c11.391 3.7822 15.713-3.5126 15.713-3.5126s3.5503-4.6143 0.37774-10.817c0 0-0.07083 2.0282-1.4485 2.657 0 0 0.07083-2.0282-1.9366-2.7752 0 0 0.44092 6.7843-6.9826 5.8482 0 0 1.913 3.4513 5.975 3.5931z" fill="#fff"/>
<path d="m30.134 38.007c-0.26038-0.34516-0.38852-0.57634-0.38852-0.57634 7.4235 0.93612 6.9826-5.8482 6.9826-5.8482 2.0074 0.74699 1.9366 2.7752 1.9366 2.7752 1.3776-0.62878 1.4485-2.657 1.4485-2.657 0.99841 1.952 1.331 3.7467 1.318 5.2898-0.0616-1.4176-0.42342-3.0246-1.3086-4.7553 0 0-0.07083 2.0282-1.4485 2.657 0 0 0.07083-2.0282-1.9366-2.7752 0 0 0.42576 6.551-6.6034 5.89zm-13.038-1.1356c-0.20096-4.8272 2.8244-9.2603 2.8244-9.2603s5.046-8.6234 15.854-7.569c8.7775 0.98341 9.124 10.472 9.124 10.472-0.01452-0.02147-0.02903-0.04287-0.04354-0.0642-0.24908-2.0987-1.6328-9.0399-9.0711-9.8732-10.809-1.0543-15.854 7.569-15.854 7.569s-2.8054 4.1108-2.8338 8.7258zm19.58-12.248c3.1266 1.514 3.507 5.0491 3.507 5.0491s-0.03709-0.02403-0.10505-0.06705c-0.31611-1.3068-1.4378-4.3402-5.1128-4.9961 0 0 0.64272-0.15935 1.7108 0.014zm-11.199 12.56c-0.08371 8.0464 9.6146 4.9688 10.252 4.3753-0.33968-0.01186-0.66433-0.04686-0.9741-0.10106-2.525 0.8473-8.9903 1.8583-9.2778-4.2743z" fill="#ea7221"/>
<text id="PDF-READER" transform="rotate(1)" x="0.18364494" y="-0.55968243" fill="#ffffff" fill-rule="evenodd" font-family="SourceHanSansSC-Medium, 'Source Han Sans SC'" font-size="3.975px" font-weight="400"><tspan x="20.29705" y="12.241971">PDF READER</tspan></text>
</g>
</svg>
