<?xml version="1.0" encoding="UTF-8"?>
<svg width="64" height="64" version="1" xmlns="http://www.w3.org/2000/svg" xmlns:cc="http://creativecommons.org/ns#" xmlns:dc="http://purl.org/dc/elements/1.1/" xmlns:rdf="http://www.w3.org/1999/02/22-rdf-syntax-ns#" xmlns:xlink="http://www.w3.org/1999/xlink">
 <defs>
  <linearGradient id="linearGradient944" x1="3" x2="61" y1="32" y2="32" gradientUnits="userSpaceOnUse">
   <stop stop-color="#1E007E" offset="0"/>
   <stop stop-color="#3721B2" offset="1"/>
  </linearGradient>
 </defs>
 <metadata>
  <rdf:RDF>
   <cc:Work rdf:about="">
    <dc:format>image/svg+xml</dc:format>
    <dc:type rdf:resource="http://purl.org/dc/dcmitype/StillImage"/>
    <dc:title/>
   </cc:Work>
  </rdf:RDF>
 </metadata>
 <circle cx="32" cy="33" r="29" opacity=".2"/>
 <circle cx="32" cy="32" r="29" fill="url(#linearGradient944)"/>
 <path d="m32 10a23 23 0 0 0-23 23 23 23 0 0 0 23 23 23 23 0 0 0 22.773-20h6.0664a29 29 0 0 0 0.16016-3 29 29 0 0 0-0.1875-3h-17.812v6h5.7188a17 17 0 0 1-16.719 14 17 17 0 0 1-17-17 17 17 0 0 1 17-17h15.465a23 23 0 0 0-15.465-6z" opacity=".2"/>
 <path d="m32 9a23 23 0 0 0-23 23 23 23 0 0 0 23 23 23 23 0 0 0 22.773-20h6.0664a29 29 0 0 0 0.16016-3 29 29 0 0 0-0.1875-3h-17.812v6h5.7188a17 17 0 0 1-16.719 14 17 17 0 0 1-17-17 17 17 0 0 1 17-17h15.465a23 23 0 0 0-15.465-6z" fill="#fff"/>
 <path d="m32 22a11 11 0 0 0-11 11 11 11 0 0 0 11 11 11 11 0 0 0 5-1.2148v1.2148h6v-22h-6v1.2031a11 11 0 0 0-5-1.2031zm0 6a5 5 0 0 1 5 5 5 5 0 0 1-5 5 5 5 0 0 1-5-5 5 5 0 0 1 5-5z" opacity=".2"/>
 <g fill="#fff">
  <path d="m32 21a11 11 0 0 0-11 11 11 11 0 0 0 11 11 11 11 0 0 0 5-1.2148v1.2148h6v-22h-6v1.2031a11 11 0 0 0-5-1.2031zm0 6a5 5 0 0 1 5 5 5 5 0 0 1-5 5 5 5 0 0 1-5-5 5 5 0 0 1 5-5z"/>
  <path d="m32 3a29 29 0 0 0-29 29 29 29 0 0 0 0.017578 0.48828 29 29 0 0 1 28.982-28.488 29 29 0 0 1 28.975 28.494 29 29 0 0 0 0.02539-0.49414 29 29 0 0 0-29-29z" opacity=".1"/>
  <path d="m32 9a23 23 0 0 0-23 23 23 23 0 0 0 0.021484 0.40625 23 23 0 0 1 22.979-22.406 23 23 0 0 1 14.25 5h1.2148a23 23 0 0 0-15.465-6zm11 20v1h17.812a29 29 0 0 1 0.16016 2.5488 29 29 0 0 0 0.02734-0.54883 29 29 0 0 0-0.1875-3h-17.812zm-27.957 4.1719a17 17 0 0 0-0.04297 0.82812 17 17 0 0 0 0.02539 0.51172 17 17 0 0 1 0.01758-0.33984 17 17 0 0 0 16.957 15.828 17 17 0 0 0 16.219-12h0.27148a17 17 0 0 0 0.22852-1h-0.5a17 17 0 0 1-16.219 12 17 17 0 0 1-16.957-15.828z" opacity=".2"/>
 </g>
</svg>
