<svg width="64" height="64" version="1.1" viewBox="0 0 64 64" xmlns="http://www.w3.org/2000/svg" xmlns:xlink="http://www.w3.org/1999/xlink"><title>gimp</title><defs><radialGradient id="b" cx="30.744" cy="23.636" r="21.685" gradientTransform="scale(1.1026 .90691)" gradientUnits="userSpaceOnUse"><stop stop-color="#DEE0F2" offset="0"/><stop stop-color="#3B3A4C" offset="1"/></radialGradient><linearGradient id="c" x1="10.199" x2="9.042" y1="16.793" y2="26.758" gradientTransform="scale(.87423 1.1439)" gradientUnits="userSpaceOnUse"><stop stop-color="#757681" offset="0"/><stop stop-color="#41414A" stop-opacity="0" offset="1"/></linearGradient><linearGradient id="d" x1="7.527" x2="8.38" y1="19.209" y2="24.683" gradientTransform="scale(1.0016 .99845)" gradientUnits="userSpaceOnUse"><stop stop-color="#fff" offset="0"/><stop stop-color="#fff" stop-opacity=".318" offset="1"/></linearGradient><linearGradient id="e" x1="99.985" x2="101.95" y1="6.952" y2="9.246" gradientTransform="scale(.52474 1.9057)" gradientUnits="userSpaceOnUse"><stop stop-color="#4C495E" offset="0"/><stop stop-color="#252330" offset="1"/></linearGradient><linearGradient id="f" x1="104.14" x2="96.92" y1="1.139" y2="8.525" gradientTransform="scale(.53864 1.8565)" gradientUnits="userSpaceOnUse"><stop stop-color="#C1C2E1" stop-opacity=".105" offset="0"/><stop stop-color="#676779" offset="1"/></linearGradient><path id="g" d="M61.107 54.653c-5.895-2.566-8.123-5.69-6.683-9.374 1.399-2.437 5.3-.165 5.414 2.863.17 1.987.593 4.157 1.269 6.511z"/><linearGradient id="i" x1="71.261" x2="75.774" y1="35.499" y2="41.561" gradientTransform="scale(.77903 1.2837)" gradientUnits="userSpaceOnUse"><stop stop-color="#fff" stop-opacity=".104" offset="0"/><stop stop-color="#fff" stop-opacity=".069" offset="1"/></linearGradient><path id="h" d="M57.264 52.546c1.035.74 2.316 1.442 3.842 2.106-.617-2.15-1.023-4.147-1.218-5.99-1.387-2.178-2.51-3.64-3.366-4.384-.64-.096-1.258.05-1.729.514.063.12.137.25.222.388.884 3.858 1.633 6.313 2.249 7.366z"/><linearGradient id="k" x1="74.906" x2="78.496" y1="33.372" y2="38.509" gradientTransform="scale(.74535 1.3417)" gradientUnits="userSpaceOnUse"><stop stop-color="#fff" stop-opacity=".2" offset="0"/><stop stop-color="#fff" stop-opacity="0" offset="1"/></linearGradient><path id="j" d="M54.941 44.662c.424-.34.943-.457 1.484-.397 2.265 4.542 3.07 6.995 2.416 7.361-.68.38-1.98-1.94-3.9-6.964z"/><linearGradient id="m" x1="86.727" x2="89.749" y1="28.987" y2="33.312" gradientTransform="scale(.64758 1.5442)" gradientUnits="userSpaceOnUse"><stop stop-color="#fff" stop-opacity=".275" offset="0"/><stop stop-color="#fff" stop-opacity="0" offset="1"/></linearGradient><path id="l" d="M55.59 44.326c.138-.04.28-.063.426-.072 1.828 4.342 2.657 6.72 2.487 7.133-.178.433-1.175-1.81-2.991-6.732l.078-.329z"/><linearGradient id="n" x1="127.76" x2="119.65" y1="13.229" y2="13.229" gradientTransform="scale(.37868 2.6407)" gradientUnits="userSpaceOnUse"><stop stop-color="#FF4900" offset="0"/><stop stop-color="#FFD052" offset=".492"/><stop stop-color="#FF3800" offset="1"/></linearGradient><linearGradient id="o" x1="49.225" x2="46.789" y1="41.61" y2="44.234" gradientTransform="scale(1.0649 .93907)" gradientUnits="userSpaceOnUse"><stop stop-color="#fff" stop-opacity="0" offset="0"/><stop stop-color="#fff" offset="1"/></linearGradient><filter id="a" color-interpolation-filters="sRGB"><feFlood flood-color="#000" flood-opacity=".196" result="flood"/><feComposite in="flood" in2="SourceGraphic" operator="in" result="composite1"/><feGaussianBlur in="composite1" result="blur" stdDeviation="1"/><feOffset dx="0" dy="1" result="offset"/><feComposite in="SourceGraphic" in2="offset" result="composite2"/></filter></defs><g transform="translate(.5 5)" fill="none" fill-rule="evenodd" filter="url(#a)"><path d="M16.546 6.881c3.655 7.158 10.443 9.89 20.365 8.199 14.882-2.538 17.76-16.111 18.994-13.664 1.234 2.446 3.525 29.867-9.399 37.48-8.616 5.075-19.386 3.383-32.309-5.076-4.83-2.863-7.05-5.14-6.658-6.832 5.222-2.082 8.029-3.709 8.42-4.88.392-1.171.588-6.247.588-15.226z" fill="url(#b)"/><path d="M28.295 33.944c4.402.352 8.077-.488 11.025-2.518.142-.147-.416-.586-1.674-1.315 3.757 1.27 2.983 2.702-2.321 4.296-2.01.506-4.353.351-7.03-.463z" fill="#252330"/><ellipse transform="rotate(-29 9.565 25.474)" cx="9.565" cy="25.474" rx="6.266" ry="8.199" fill="#252330"/><ellipse transform="rotate(-29 8.916 24.132)" cx="8.916" cy="24.132" rx="3.763" ry="4.923" fill="url(#c)"/><ellipse cx="34.757" cy="19.374" rx="7.637" ry="7.613" fill="#fff"/><ellipse cx="36.519" cy="21.131" rx="3.133" ry="3.123" fill="#424b4e"/><ellipse cx="36.715" cy="21.326" rx="1.762" ry="1.757" fill="#171717"/><ellipse cx="20.854" cy="19.96" rx="5.091" ry="5.075" fill="#fff"/><ellipse cx="21.442" cy="21.326" rx="2.546" ry="2.538" fill="#424b4e"/><ellipse cx="21.601" cy="21.485" rx="1.432" ry="1.427" fill="#171717"/><ellipse cx="7.539" cy="21.912" rx="2.741" ry="2.733" fill="url(#d)"/><path d="M51.236 15.955c2.756-9.285 4.257-14.201 4.502-14.749.368-.822-3.32 16.109-3.788 16.381-.31.182-.549-.362-.714-1.632z" fill="url(#e)"/><path d="M51.341 16.842c-.45-1.029 2.406-6.651 4.466-15.937.077-.344.19-.568.287-.857-3.512 10.418-5.378 15.363-4.753 16.793z" fill="url(#f)" fill-rule="nonzero"/><use width="100%" height="100%" fill="#252330" xlink:href="#g"/><use width="100%" height="100%" fill="url(#i)" xlink:href="#h"/><use width="100%" height="100%" fill="url(#k)" xlink:href="#j"/><use width="100%" height="100%" fill="url(#m)" xlink:href="#l"/><path transform="rotate(-52 46.846 38.985)" d="M45.316 28.32c-.051-.066.274-.055.976.03 1.053.13 2.012.343 2.075 8.951.043 5.74-.009 9.87-.154 12.391l-2.632-.323c-.106-5.607-.156-9.798-.148-12.575.008-2.776-.031-5.601-.117-8.474z" fill="url(#n)"/><path d="M49.016 38.733c3.22 2.51 5.59 4.433 7.109 5.768l-1.875 1.874a921.549 921.549 0 0 1-7.129-5.4l1.895-2.242z" fill="#d8d8d8"/><path d="M49.455 39.075c2.997 2.344 5.22 4.152 6.67 5.425l-1.112 1.112c-4.043-2.982-6.126-4.661-6.248-5.036-.199-.606.194-1.107.69-1.501z" fill="url(#o)"/></g></svg>