<svg width="64" height="64" version="1.1" viewBox="0 0 64 64" xmlns="http://www.w3.org/2000/svg"><title>chrome-64px</title><defs><linearGradient id="b" x1="27.79" x2="27.79" y1="4.816" y2="45.699" gradientTransform="scale(1.1862 .843)" gradientUnits="userSpaceOnUse"><stop stop-color="#F7503B" offset="0"/><stop stop-color="#F34735" offset=".217"/><stop stop-color="#E72F25" offset=".572"/><stop stop-color="#D5090D" offset="1"/></linearGradient><linearGradient id="c" x1="24.857" x2="24.857" y1="15.678" y2="57.015" gradientTransform="scale(.95035 1.0522)" gradientUnits="userSpaceOnUse"><stop stop-color="#35C230" offset="0"/><stop stop-color="#34BE30" offset=".348"/><stop stop-color="#31B331" offset=".681"/><stop stop-color="#2CA032" offset="1"/></linearGradient><linearGradient id="d" x1="32" x2="32" y1="22.809" y2="42" gradientUnits="userSpaceOnUse"><stop stop-color="#31B2FF" offset="0"/><stop stop-color="#1E79FF" offset="1"/></linearGradient><linearGradient id="e" x1="32" x2="32" y1="23" y2="41" gradientUnits="userSpaceOnUse"><stop stop-color="#47BAFF" offset="0"/><stop stop-color="#3D8BFF" offset="1"/></linearGradient><linearGradient id="f" x1="32" x2="32" y1="4" y2="60" gradientUnits="userSpaceOnUse"><stop stop-color="#fff" offset="0"/><stop stop-color="#515151" offset="1"/></linearGradient><filter id="a" color-interpolation-filters="sRGB"><feFlood flood-color="#000" flood-opacity=".196" result="flood"/><feComposite in="flood" in2="SourceGraphic" operator="in" result="composite1"/><feGaussianBlur in="composite1" result="blur" stdDeviation="1"/><feOffset dx="0" dy="1" result="offset"/><feComposite in="SourceGraphic" in2="offset" result="composite2"/></filter></defs><g filter="url(#a)"><g fill-rule="evenodd"><path d="M57.213 19.671C52.632 10.423 43.085 4.06 32.048 4.06c-9.665 0-18.283 5.019-23.331 12.437l12.891 22.027z" fill="url(#b)"/><path d="M30.172 59.993c10.315.713 20.423-4.421 25.988-13.932 4.872-8.327 4.93-18.301 1.052-26.391l-25.341-.053-1.699 40.376z" fill="#ffcf00"/><path d="M21.608 38.524L8.717 16.497a27.81 27.81 0 0 0-4.736 15.564c0 14.836 11.567 26.971 26.192 27.932l13.092-22.305z" fill="url(#c)"/><path d="M32 46c-7.168 0-13-5.833-13-13.001S24.832 20 32 20c7.167 0 13 5.83 13 12.999S39.167 46 32 46z" opacity=".099"/><path d="M32 45c-7.168 0-13-5.833-13-13.001S24.832 19 32 19c7.167 0 13 5.83 13 12.999S39.167 45 32 45z" fill="#f8f8f8"/><path d="M19.009 32.499c-.006-.166-.01-.333-.01-.5C19 24.831 24.832 19 32 19c7.167 0 13 5.83 13 12.999 0 .167-.003.334-.009.5C44.726 25.562 38.999 20 32 20c-7 0-12.727 5.561-12.991 12.499z" fill="#fff"/><circle cx="32" cy="32" r="10" fill="url(#d)"/><circle cx="32" cy="32" r="9" fill="url(#e)"/></g><circle cx="32" cy="32" r="27.5" fill="none" opacity=".196" stroke="url(#f)"/></g></svg>