<svg width="64" height="64" version="1.1" viewBox="0 0 64 64" xmlns="http://www.w3.org/2000/svg" xmlns:xlink="http://www.w3.org/1999/xlink"><title>gparted</title><defs><linearGradient id="c" x1="5" x2="5" y2="10" gradientUnits="userSpaceOnUse"><stop stop-color="#020300" offset="0"/><stop stop-color="#000200" offset="1"/></linearGradient><path id="b" d="M5 10A5 5 0 1 1 5 0a5 5 0 0 1 0 10z"/><path id="d" d="M2.429 9.29A5.023 5.023 0 0 1 .507 7.196l8.979-4.408a5.021 5.021 0 0 0-1.399-1.722L2.43 9.289z"/><linearGradient id="e" x1="5" x2="5" y1="6" y2="4" gradientUnits="userSpaceOnUse"><stop stop-color="#E2E096" offset="0"/><stop stop-color="#F9F8D2" offset="1"/></linearGradient><filter id="a" color-interpolation-filters="sRGB"><feFlood flood-color="#000" flood-opacity=".196" result="flood"/><feComposite in="flood" in2="SourceGraphic" operator="in" result="composite1"/><feGaussianBlur in="composite1" result="blur" stdDeviation="1"/><feOffset dx="0" dy="1" result="offset"/><feComposite in="SourceGraphic" in2="offset" result="composite2"/></filter></defs><g fill="none" filter="url(#a)"><g fill-rule="evenodd"><g fill-rule="nonzero"><path d="M54 54c0 2.938-2.121 5-5 5H14c-2.878 0-5-2.062-5-5V11c0-2.936 2.122-5 5-5h35c2.879 0 5 2.064 5 5z" fill="#8d8d8d"/><path d="M54 55c0 2.897-2.121 5-5 5H14c-2.878 0-5-2.103-5-5V11c0-2.897 2.122-5 5-5h35c2.879 0 5 2.103 5 5z" fill="#8d8d8d"/><path d="M54 53c0 2.897-2.121 5-5 5H14c-2.878 0-5-2.103-5-5V9c0-2.897 2.122-5 5-5h35c2.879 0 5 2.103 5 5z" fill="#d0d1d6"/><path d="M54 53.905C54 56.897 51.88 59 49 59H14c-2.878 0-5-2.103-5-5.095v-43.81C9 7.102 11.122 5 14 5h35c2.879 0 5 2.103 5 5.094z" fill="#cacbcf"/><path d="M50 9a2 2 0 1 1-4 0 2 2 0 0 1 4 0z" fill="#85858a"/><path d="M49 9a1 1 0 1 0-2 0 1 1 0 0 0 2 0z" fill="#b3b3b3"/><path d="M17 9a2 2 0 1 1-4 0 2 2 0 0 1 4 0z" fill="#85858a"/><g><path d="M16 9a1 1 0 1 1-2 0 1 1 0 0 1 2 0z" fill="#666"/><path d="M16 9a1 1 0 1 0-2 0 1 1 0 0 0 2 0z" fill="#b3b3b3"/></g><path d="M13 40H9v14c0 2.873 2.169 5 5 5h18v-9c-7.752-.499-14.611-4.25-19-10z" fill="#949496"/></g><path d="M47.75 27.122c0 8.714-7.163 15.878-16 15.878s-16-7.163-16-15.878c0-8.958 7.163-16.122 16-16.122s16 7.164 16 16.122" fill="#49494c"/><path fill="#4f4f50" d="M25.152 11.292l14.387 30.27 6.487-5.495-27.581-19.498z"/><g transform="translate(27.5 21.416)"><use width="100%" height="100%" fill="url(#c)" xlink:href="#b"/><use width="100%" height="100%" fill="#4f4f50" opacity=".5" xlink:href="#d"/></g><path d="M32.5 29.416a3 3 0 1 1 0-6 3 3 0 0 1 0 6z" fill="#85858a"/><path d="M6 5a1 1 0 1 1-2 0 1 1 0 0 1 2 0" fill="url(#e)" transform="translate(27.5 21.416)"/><path d="M32 9.083c-9.664 0-17.5 7.835-17.5 17.5s7.836 17.5 17.5 17.5 17.5-7.835 17.5-17.5-7.836-17.5-17.5-17.5zm10.724 28.224a15.148 15.148 0 0 1-4.821 3.252c-1.868.79-3.854 1.19-5.903 1.19s-4.035-.4-5.903-1.19a15.145 15.145 0 0 1-4.82-3.252 15.102 15.102 0 0 1-4.444-10.724 15.107 15.107 0 0 1 4.443-10.724 15.09 15.09 0 0 1 4.821-3.251A15.063 15.063 0 0 1 32 11.417c2.05 0 4.035.4 5.903 1.19a15.087 15.087 0 0 1 4.821 3.252 15.109 15.109 0 0 1 4.443 10.724 15.104 15.104 0 0 1-4.443 10.724z" fill="#595959" fill-rule="nonzero"/><g fill="#ecf1f6" fill-rule="nonzero"><path d="M24.298 51.578l12.326-15.323c.176-.205.282-.468.282-.755 0-.643-.533-1.166-1.191-1.166-.293 0-.562.103-.77.277L19.301 46.685A3.47 3.47 0 0 0 17.85 49.5c0 1.935 1.6 3.5 3.573 3.5a3.59 3.59 0 0 0 2.875-1.422z"/></g><g fill="#949496"><g transform="matrix(-1 0 0 1 43.75 50.25)"><rect width="1" height="7" rx=".5"/><rect x="2" width="1" height="7" rx=".5"/><rect x="4" width="1" height="7" rx=".5"/><rect x="6" width="1" height="7" rx=".5"/><rect x="8" width="1" height="7" rx=".5"/></g></g></g><path d="M50 54a2 2 0 1 1-4 0 2 2 0 0 1 4 0z" fill="#85858a"/><path d="M49 54a1 1 0 1 0-2 0 1 1 0 0 0 2 0z" fill="#b3b3b3"/><g><path d="M17 54a2 2 0 1 1-4 0 2 2 0 0 1 4 0z" fill="#6a6a6a"/><path d="M16 54a1 1 0 1 0-2 0 1 1 0 0 0 2 0z" fill="#999"/></g></g></svg>