<svg width="64" height="64" version="1.1" viewBox="0 0 64 64" xmlns="http://www.w3.org/2000/svg"><title>drive-harddisk-64px</title><defs><linearGradient id="b" x1="26.281" x2="26.281" y1="2.17" y2="48.476" gradientTransform="matrix(.9893 0 0 1.0108 6 3)" gradientUnits="userSpaceOnUse"><stop stop-color="#9DDA00" offset="0"/><stop stop-color="#73C300" offset="1"/></linearGradient><filter id="a" color-interpolation-filters="sRGB"><feFlood flood-color="#000" flood-opacity=".196" result="flood"/><feComposite in="flood" in2="SourceGraphic" operator="in" result="composite1"/><feGaussianBlur in="composite1" result="blur" stdDeviation="1"/><feOffset dx="0" dy="1" result="offset"/><feComposite in="SourceGraphic" in2="offset" result="composite2"/></filter></defs><g fill-rule="evenodd" filter="url(#a)"><path d="M9 6.497C9 5.67 9.668 5 10.504 5h42.991C54.326 5 55 5.664 55 6.497V52H9z" fill="url(#b)"/><path d="M9 46.505C9 45.674 9.668 45 10.504 45h42.991c.831 0 1.505.669 1.505 1.505V53H9z" fill="#fff"/><path d="M9 51.506C9 50.674 9.668 50 10.504 50h42.991c.831 0 1.505.676 1.505 1.506v5.987c0 .832-.668 1.507-1.505 1.507h-42.99C9.673 59 9 58.323 9 57.493z" fill="#dcdddd"/><g fill="#75c500"><path d="M36 52.995h1v3h-1zM39 52.995h1v3h-1zM42 52.995h1v3h-1zM45 52.995h1v3h-1zM48 52.995h1v3h-1zM51 52.995h1v3h-1z"/></g><path d="M14.5 56a1.5 1.5 0 1 0 0-3 1.5 1.5 0 0 0 0 3z" fill="#75c600"/></g></svg>