<?xml version="1.0" encoding="UTF-8"?>
<svg width="64" height="64" version="1.1" viewBox="0 0 64 64" xmlns="http://www.w3.org/2000/svg" xmlns:cc="http://creativecommons.org/ns#" xmlns:dc="http://purl.org/dc/elements/1.1/" xmlns:rdf="http://www.w3.org/1999/02/22-rdf-syntax-ns#">
 <metadata>
  <rdf:RDF>
   <cc:Work rdf:about="">
    <dc:format>image/svg+xml</dc:format>
    <dc:type rdf:resource="http://purl.org/dc/dcmitype/StillImage"/>
    <dc:title>深度终端-64px</dc:title>
   </cc:Work>
  </rdf:RDF>
 </metadata>
 <title>深度终端-64px</title>
 <defs>
  <linearGradient id="linearGradient834" x1="24.008" x2="24.008" y1="5.044" y2="43.044" gradientTransform="translate(2.8517 6.6819)" gradientUnits="userSpaceOnUse">
   <stop stop-color="#f48f11" offset="0"/>
   <stop stop-color="#ed510f" offset="1"/>
  </linearGradient>
  <filter id="filter848" color-interpolation-filters="sRGB">
   <feFlood flood-color="rgb(0,0,0)" flood-opacity=".19608" result="flood"/>
   <feComposite in="flood" in2="SourceGraphic" operator="in" result="composite1"/>
   <feGaussianBlur in="composite1" result="blur" stdDeviation="1"/>
   <feOffset dx="0" dy="1" result="offset"/>
   <feComposite in="SourceGraphic" in2="offset" result="composite2"/>
  </filter>
 </defs>
 <path transform="matrix(1.2157 0 0 1.2157 -.64167 -4.7544)" d="m48.094 27.718-8.139-12.937c-1.022-1.88-2.911-3.055-4.955-3.055h-16.279c-2.044 0-3.933 1.174-4.955 3.055l-8.139 12.932a6.41 6.41 0 0 0 0 6.079l8.139 12.91c1.022 1.88 2.911 3.024 4.955 3.024h16.279c2.044 0 3.933-1.143 4.955-3.023l8.139-12.912a6.398 6.398 0 0 0 0-6.073zm-29.373-11.992h16.279c0.18 0 0.354 0.058 0.524 0.125l-8.523 10.005-8.73-10.044c0.146-0.049 0.297-0.086 0.45-0.086zm-9.622 13.951 5.645-8.662 8.481 9.719-8.42 9.866-5.707-8.763a2.411 2.411 0 0 1 1e-3 -2.16zm9.622 16.049c-0.103 0-0.202-0.013-0.301-0.034l8.629-10.132 8.684 9.967a1.493 1.493 0 0 1-0.734 0.198h-16.278zm25.901-13.889-5.479 8.372-8.319-9.515 8.205-9.589 5.592 8.57a2.41 2.41 0 0 1 1e-3 2.162z" fill="url(#linearGradient834)" filter="url(#filter848)"/>
</svg>
