<svg width="64px" height="64px" version="1.1" viewBox="0 0 64 64" xmlns="http://www.w3.org/2000/svg" xmlns:xlink="http://www.w3.org/1999/xlink">
<title>application-x-tar</title>
<desc>Created with Sketch.</desc>
<defs>
<path id="path-1" d="m14 7c0-0.82843 0.67157-1.5 1.5-1.5h11c0.82843 0 1.5 0.67157 1.5 1.5v-5.5c0-0.82843 0.67157-1.5 1.5-1.5h11c0.82843-1.5218e-16 1.5 0.67157 1.5 1.5v49c0 0.82843-0.67157 1.5-1.5 1.5h-11c-0.82843 0-1.5-0.67157-1.5-1.5 0 0.82843-0.67157 1.5-1.5 1.5h-11c-0.82843 0-1.5-0.67157-1.5-1.5 0 0.82843-0.67157 1.5-1.5 1.5h-11.25c-0.69036 0-1.25-0.65292-1.25-1.4583l-1.7764e-15 -46.083c0-0.80542 0.55964-1.4583 1.25-1.4583h11.25c0.82843 0 1.5 0.67157 1.5 1.5v2.5z"/>
<filter id="filter-2" x="-11.9%" y="-7.7%" width="123.8%" height="119.2%">
<feOffset dx="0" dy="1" in="SourceAlpha" result="shadowOffsetOuter1"/>
<feGaussianBlur in="shadowOffsetOuter1" result="shadowBlurOuter1" stdDeviation="1.5"/>
<feComposite in="shadowBlurOuter1" in2="SourceAlpha" operator="out" result="shadowBlurOuter1"/>
<feColorMatrix in="shadowBlurOuter1" values="0 0 0 0 0   0 0 0 0 0   0 0 0 0 0  0 0 0 0.2 0"/>
</filter>
<linearGradient id="linearGradient-3" x1="80.533" x2="54.374" y1="13.079" y2="13.079" gradientTransform="matrix(.51887 0 0 1.9272 11 7)" gradientUnits="userSpaceOnUse">
<stop stop-color="#C926EA" offset="0"/>
<stop stop-color="#B505C3" offset="1"/>
</linearGradient>
<linearGradient id="linearGradient-4" x1="51.163" x2="26.677" y1="15.694" y2="15.694" gradientTransform="matrix(.54578 0 0 1.8323 11 7)" gradientUnits="userSpaceOnUse">
<stop stop-color="#628FFF" offset="0"/>
<stop stop-color="#4084FF" offset="1"/>
</linearGradient>
<linearGradient id="linearGradient-5" x1="26.192" x2="1.7105" y1="14.699" y2="14.699" gradientTransform="matrix(.53452 0 0 1.8708 11 7)" gradientUnits="userSpaceOnUse">
<stop stop-color="#6DBD00" offset="0"/>
<stop stop-color="#8FBF12" offset="1"/>
</linearGradient>
</defs>
<g fill-rule="evenodd">
<g id="Combined-Shape" transform="translate(11,7)" fill="#000000">
<use width="100%" height="100%" filter="url(#filter-2)" xlink:href="#path-1"/>
<use width="100%" height="100%" fill-opacity=".1" fill-rule="evenodd" xlink:href="#path-1"/>
</g>
<path d="m53 8.5v49c0 0.82843-0.67157 1.5-1.5 1.5h-11c-0.82843 0-1.5-0.67157-1.5-1.5v-49c0-0.82843 0.67157-1.5 1.5-1.5h11c0.82843 0 1.5 0.67157 1.5 1.5z" fill="url(#linearGradient-3)"/>
<path d="m39 13.5v44c0 0.82843-0.67157 1.5-1.5 1.5h-11c-0.82843 0-1.5-0.67157-1.5-1.5v-44c0-0.82843 0.67157-1.5 1.5-1.5h11c0.82843 0 1.5 0.67157 1.5 1.5z" fill="url(#linearGradient-4)"/>
<path d="m25 11.5v46c0 0.82843-0.67157 1.5-1.5 1.5h-11.25c-0.69036 0-1.25-0.65292-1.25-1.4583v-46.083c0-0.80542 0.55964-1.4583 1.25-1.4583h11.25c0.82843 0 1.5 0.67157 1.5 1.5z" fill="url(#linearGradient-5)"/>
<path d="m25 57.25v-43.75c0-0.82843 0.67157-1.5 1.5-1.5h11c0.82843 0 1.5 0.67157 1.5 1.5v1c0-0.82843-0.67157-1.5-1.5-1.5h-11c-0.82843 0-1.5 0.67157-1.5 1.5v42.5zm-14-44.792v-1c0-0.80542 0.55964-1.4583 1.25-1.4583h11.25c0.82843 0 1.5 0.67157 1.5 1.5v1c0-0.82843-0.67157-1.5-1.5-1.5h-11.25c-0.69036 0-1.25 0.65292-1.25 1.4583zm28-2.9583v-1c0-0.82843 0.67157-1.5 1.5-1.5h11c0.82843 0 1.5 0.67157 1.5 1.5v1c0-0.82843-0.67157-1.5-1.5-1.5h-11c-0.82843 0-1.5 0.67157-1.5 1.5z" fill="#fff" fill-opacity=".2"/>
<path d="m11 56.542c0 0.80542 0.55964 1.4583 1.25 1.4583h11.25c0.82843 0 1.5-0.67157 1.5-1.5 0 0.82843 0.67157 1.5 1.5 1.5h11c0.82843 0 1.5-0.67157 1.5-1.5 0 0.82843 0.67157 1.5 1.5 1.5h11c0.82843 0 1.5-0.67157 1.5-1.5v1c0 0.82843-0.67157 1.5-1.5 1.5h-11c-0.82843 0-1.5-0.67157-1.5-1.5 0 0.82843-0.67157 1.5-1.5 1.5h-11c-0.82843 0-1.5-0.67157-1.5-1.5 0 0.82843-0.67157 1.5-1.5 1.5h-11.25c-0.69036 0-1.25-0.65292-1.25-1.4583z" fill-opacity=".2"/>
</g>
</svg>
