<svg width="64" height="64" version="1" xmlns="http://www.w3.org/2000/svg"><defs><filter id="a" color-interpolation-filters="sRGB"><feFlood flood-color="#000" flood-opacity=".196" result="flood"/><feComposite in="flood" in2="SourceGraphic" operator="in" result="composite1"/><feGaussianBlur in="composite1" result="blur" stdDeviation="1"/><feOffset dx="0" dy="1" result="offset"/><feComposite in="SourceGraphic" in2="offset" result="composite2"/></filter></defs><g filter="url(#a)"><path d="M19 4c-.296 0-.574.058-.844.137C18.43 4.07 18.7 4 19 4zm-3 6.9V39c0 1.662 1.338 3 3 3h38c1.662 0 3-1.338 3-3V10.9z" fill="#d3d3d3"/><path d="M16 39v1c0 1.662 1.338 3 3 3h38c1.662 0 3-1.338 3-3v-1c0 1.662-1.338 3-3 3H19c-1.662 0-3-1.338-3-3z" opacity=".2"/><path d="M4 28.9V57c0 1.662 1.338 3 3 3h38c1.662 0 3-1.338 3-3V28.9z" fill="#e4e4e4"/><path d="M7 22c-1.662 0-3 1.338-3 3v4h44v-4c0-1.662-1.338-3-3-3z" fill="#636e73"/><path d="M19 4c-1.662 0-3 1-3 3v4h44V7c0-1.662-1.338-3-3-3z" fill="#5a6367"/><path d="M19 4c-1.662 0-3 1.338-3 3v1c0-1.662 1.338-3 3-3h38c1.662 0 3 1.338 3 3V7c0-1.662-1.338-3-3-3H19z" fill="#fff" opacity=".1"/><path d="M4 57v1c0 1.662 1.338 3 3 3h38c1.662 0 3-1.338 3-3v-1c0 1.662-1.338 3-3 3H7c-1.662 0-3-1.338-3-3z" opacity=".2"/></g></svg>