<svg width="64" height="64" version="1" xmlns="http://www.w3.org/2000/svg"><defs><filter id="a" color-interpolation-filters="sRGB"><feFlood flood-color="#000" flood-opacity=".196" result="flood"/><feComposite in="flood" in2="SourceGraphic" operator="in" result="composite1"/><feGaussianBlur in="composite1" result="blur" stdDeviation="1"/><feOffset dx="0" dy="1" result="offset"/><feComposite in="SourceGraphic" in2="offset" result="composite2"/></filter></defs><g filter="url(#a)"><rect transform="matrix(0 -1 -1 0 0 0)" x="-60" y="-60" width="56" height="56" rx="28" ry="28" fill="#5db43e"/><path d="M32 4C16.488 4 4 16.488 4 32c0 .114.011.224.018.336C4.369 17.134 16.712 5 32 5c15.289 0 27.63 12.134 27.982 27.336.006-.112.017-.223.017-.336C60 16.488 47.511 4 32 4z" fill="#fff" opacity=".1"/><path d="M48 17.001s-4.799-.134-9.595 2.266a15.472 15.472 0 0 0-4.398 3.065c-2.154 2.155-5.502 6.122-8.138 9.328h-5.854l-2.665 3.998 4.52 1.222c.013.161.056.389.181.697l-.702 1.544s-.266.533 1.732 2.665c2.133 2.134 2.799 1.866 2.799 1.866l1.656-.752c.248.078.432.104.552.104l1.257 4.646 3.997-2.665v-6.033c3.23-2.61 7.191-5.892 9.329-7.96 1.332-1.332 2.398-2.931 3.197-4.397C48.132 21.799 48 17 48 17zm-9.328 11.994a2.672 2.672 0 0 1-2.666-2.665 2.671 2.671 0 0 1 2.666-2.666 2.672 2.672 0 0 1 2.665 2.666c0 1.465-1.2 2.665-2.665 2.665zm-13.993 15.99c.267.136.4.267.667.4-.267.267-.534.667-.801.934-3.067 3.065-8.528 2.665-8.528 2.665s-.4-5.465 2.666-8.528c.266-.267.666-.531.932-.8.134.266.266.4.4.666-1.999 2.53-1.732 6.396-1.732 6.396s3.863.267 6.396-1.732z" opacity=".2"/><path d="M48 16.001s-4.799-.134-9.595 2.266a15.472 15.472 0 0 0-4.398 3.065c-2.154 2.155-5.502 6.122-8.138 9.328h-5.854l-2.665 3.998 4.52 1.222c.013.161.056.389.181.697l-.702 1.544s-.266.533 1.732 2.665c2.133 2.134 2.799 1.866 2.799 1.866l1.656-.752c.248.078.432.104.552.104l1.257 4.646 3.997-2.665v-6.033c3.23-2.61 7.191-5.892 9.329-7.96 1.332-1.332 2.398-2.931 3.197-4.397C48.132 20.799 48 16 48 16zm-9.328 11.994a2.672 2.672 0 0 1-2.666-2.665 2.671 2.671 0 0 1 2.666-2.666 2.672 2.672 0 0 1 2.665 2.666c0 1.465-1.2 2.665-2.665 2.665zm-13.993 15.99c.267.136.4.267.667.4-.267.267-.534.667-.801.934-3.067 3.065-8.528 2.665-8.528 2.665s-.4-5.465 2.666-8.528c.266-.267.666-.531.932-.8.134.266.266.4.4.666-1.999 2.53-1.732 6.396-1.732 6.396s3.863.267 6.396-1.732z" fill="#fff"/><path d="M59.982 32.664C59.63 47.866 47.289 60 32 60 16.712 60 4.371 47.868 4.018 32.668c-.006.11-.018.22-.018.332 0 15.512 12.488 28 28 28s28-12.488 28-28c0-.113-.01-.224-.017-.336z" opacity=".2"/></g></svg>