<?xml version="1.0" encoding="UTF-8"?>
<svg width="64" height="64" version="1.1" viewBox="0 0 64 64" xmlns="http://www.w3.org/2000/svg" xmlns:cc="http://creativecommons.org/ns#" xmlns:dc="http://purl.org/dc/elements/1.1/" xmlns:rdf="http://www.w3.org/1999/02/22-rdf-syntax-ns#">
 <metadata>
  <rdf:RDF>
   <cc:Work rdf:about="">
    <dc:format>image/svg+xml</dc:format>
    <dc:type rdf:resource="http://purl.org/dc/dcmitype/StillImage"/>
    <dc:title>deepin-multitasking-view</dc:title>
   </cc:Work>
  </rdf:RDF>
 </metadata>
 <title>deepin-multitasking-view</title>
 <defs>
  <filter id="filter928" color-interpolation-filters="sRGB">
   <feFlood flood-color="rgb(0,0,0)" flood-opacity=".19608" result="flood"/>
   <feComposite in="flood" in2="SourceGraphic" operator="in" result="composite1"/>
   <feGaussianBlur in="composite1" result="blur" stdDeviation="1"/>
   <feOffset dx="0" dy="1" result="offset"/>
   <feComposite in="SourceGraphic" in2="offset" result="composite2"/>
  </filter>
  <filter id="filter940" color-interpolation-filters="sRGB">
   <feFlood flood-color="rgb(0,0,0)" flood-opacity=".19608" result="flood"/>
   <feComposite in="flood" in2="SourceGraphic" operator="in" result="composite1"/>
   <feGaussianBlur in="composite1" result="blur" stdDeviation="1"/>
   <feOffset dx="0" dy="1" result="offset"/>
   <feComposite in="SourceGraphic" in2="offset" result="composite2"/>
  </filter>
 </defs>
 <g transform="matrix(1.3282 0 0 1.3282 .12734 .17209)">
  <g filter="url(#filter928)">
   <circle cx="23.994" cy="24.021" r="21" fill="#eff5f9"/>
  </g>
  <path d="m14.099 33.842c-1.268-1.268-2.294-2.776-3.003-4.451s-1.102-3.515-1.102-5.445 0.393-3.77 1.102-5.445 1.736-3.183 3.003-4.451 2.776-2.294 4.451-3.003 3.514-1.102 5.444-1.102 3.77 0.393 5.444 1.102 3.183 1.736 4.451 3.003 2.294 2.776 3.003 4.451 1.102 3.515 1.102 5.445-0.393 3.77-1.102 5.445-1.736 3.183-3.003 4.451" fill="none" stroke="#ff9700" stroke-linecap="round" stroke-miterlimit="10" stroke-width="6"/>
  <g filter="url(#filter940)">
   <path d="m23.998 36.094c-6.617 0-12-5.383-12-12.001s5.383-12.001 12-12.001 12 5.383 12 12.001-5.384 12.001-12 12.001z" fill="#fff"/>
  </g>
  <circle cx="29.002" cy="30.026" r="2" fill="#ff9700"/>
 </g>
</svg>
