<svg width="64" height="64" version="1.1" viewBox="0 0 64 64" xmlns="http://www.w3.org/2000/svg">
<title>计算机-64px</title>
<defs>
<linearGradient id="a" x1="28.555" x2="28.555" y1="10.086" y2="57.412" gradientTransform="scale(1.1206 .89235)" gradientUnits="userSpaceOnUse">
<stop stop-color="#FFF" offset="0"/>
<stop stop-color="#C3D6DE" offset="1"/>
</linearGradient>
<linearGradient id="b" x1="25.408" x2="25.408" y1="18.725" y2="52.897" gradientTransform="scale(1.2594 .794)" gradientUnits="userSpaceOnUse">
<stop stop-color="#0E004D" offset="0"/>
<stop stop-color="#4735E4" offset="1"/>
</linearGradient>
<filter id="filter948" color-interpolation-filters="sRGB">
<feFlood flood-color="rgb(0,0,0)" flood-opacity=".19608" result="flood"/>
<feComposite in="flood" in2="SourceGraphic" operator="in" result="composite1"/>
<feGaussianBlur in="composite1" result="blur" stdDeviation="1.5"/>
<feOffset dx="0" dy="1.5" result="offset"/>
<feComposite in="SourceGraphic" in2="offset" result="composite2"/>
</filter>
</defs>
<g fill-rule="evenodd" filter="url(#filter948)">
<path d="m5 10.505c0-0.831 0.663-1.505 1.5-1.505h51c0.828 0 1.5 0.675 1.5 1.505v39.99c0 0.831-0.663 1.505-1.5 1.505h-51c-0.828 0-1.5-0.675-1.5-1.505z" fill="url(#a)"/>
<path d="m5 11.508c0-0.833 0.663-1.508 1.5-1.508h51c0.828 0 1.5 0.677 1.5 1.508v37.984c0 0.833-0.663 1.508-1.5 1.508h-51c-0.828 0-1.5-0.677-1.5-1.508z" fill="#eff7fb"/>
<path d="m7 11.492c0-0.272 0.223-0.492 0.495-0.492h49.01c0.273 0 0.495 0.228 0.495 0.492v32.016a0.494 0.494 0 0 1-0.495 0.492h-49.01a0.499 0.499 0 0 1-0.495-0.492z"/>
<path d="m9 13h46v29h-46z" fill="url(#b)"/>
<path d="m9 13h12.667l15.833 29h-28.5z" fill="#fff" opacity=".123"/>
</g>
</svg>
