<svg width="64" height="64" version="1" xmlns="http://www.w3.org/2000/svg"><defs><filter id="a" color-interpolation-filters="sRGB"><feFlood flood-color="#000" flood-opacity=".196" result="flood"/><feComposite in="flood" in2="SourceGraphic" operator="in" result="composite1"/><feGaussianBlur in="composite1" result="blur" stdDeviation="1"/><feOffset dx="0" dy="1" result="offset"/><feComposite in="SourceGraphic" in2="offset" result="composite2"/></filter></defs><g filter="url(#a)"><path d="M59.958 31.828A28 28 0 0 1 32 59 28 28 0 0 1 4.044 32.172 28 28 0 0 0 4 33a28 28 0 0 0 28 28 28 28 0 0 0 28-28 28 28 0 0 0-.042-1.172z" opacity=".2"/><circle cx="32" cy="32" r="28" fill="#ea882b"/><path d="M32 13c-5.64 0-10 4.587-10 10.286V27h-2.218c-.987 0-1.782.946-1.782 1.942V47.2c0 .996.795 1.8 1.782 1.8h24.436c.986 0 1.782-.804 1.782-1.8V28.943c0-.996-.798-2.006-1.782-1.942H42v-3.714c0-5.698-4.36-10.286-10-10.286zm0 4c3.525 0 6 2.724 6 6.286V27H26v-3.714C26 19.724 28.474 17 32 17z" opacity=".2"/><path d="M32 12c-5.64 0-10 4.587-10 10.286V26h-2.218c-.987 0-1.782.946-1.782 1.942V46.2c0 .996.795 1.8 1.782 1.8h24.436c.986 0 1.782-.804 1.782-1.8V27.943c0-.996-.798-2.006-1.782-1.942H42v-3.714c0-5.699-4.36-10.286-10-10.286zm0 4c3.525 0 6 2.724 6 6.286V26H26v-3.714C26 18.724 28.474 16 32 16z" fill="#fff"/><path d="M31.998 4A28 28 0 0 0 4 32a28 28 0 0 0 .018.492A28 28 0 0 1 31.998 5H32a28 28 0 0 1 27.973 27.5 28 28 0 0 0 .025-.5A28 28 0 0 0 32 4h-.002z" fill="#fff" opacity=".2"/></g></svg>