<svg width="64" height="64" version="1.1" viewBox="0 0 64 64" xmlns="http://www.w3.org/2000/svg"><defs><filter id="a" color-interpolation-filters="sRGB"><feFlood flood-color="#000" flood-opacity=".196" result="flood"/><feComposite in="flood" in2="SourceGraphic" operator="in" result="composite1"/><feGaussianBlur in="composite1" result="blur" stdDeviation="1"/><feOffset dx="0" dy="1" result="offset"/><feComposite in="SourceGraphic" in2="offset" result="composite2"/></filter></defs><g transform="translate(1.366 -.138) scale(2.5455)" fill-rule="evenodd" filter="url(#a)"><path d="M18 19H6c-1 0-1-.9-1-.9V2.467c0-.27.21-.467.5-.467H15l4 4v12c0 1-1 1-1 1z" fill="#d70751"/><path d="M15.5 6a.526.526 0 0 1-.5-.5V2l4 4z" fill="#ff5491"/><rect x="3" y="9" width="18" height="13" rx=".5" fill="#d0dfed"/><g fill="#10acff"><path d="M10.235 16.896h-1.2v-.208c0-.07.064-.14.134-.14h1.002c.06 0 .13.07.13.14l-.001.139s0 .07-.065.07m.332.975c.068 0 .069-.064.069-.07v-.208c0-.07-.068-.07-.068-.07l-1.401-.002c-.135 0-.133-.136-.133-.136v-.142h1.334c.37 0 .333-.279.333-.279v-.276s.036-.491-.466-.491H9.112c-.511 0-.476.484-.476.484v.701c0 .49.467.487.467.487zM8.1 17.455s.001.068-.067.068h-.645c-.218 0-.486-.05-.486-.483 0-.432.297-.492.482-.492H8.1v.907m.334-1.885h-.266s-.067 0-.067.072v.556h-.864c-.627 0-.738.568-.737.838 0 .27.113.835.747.834l.921.001c.333 0 .333-.347.333-.347V15.64c0-.07-.067-.07-.067-.07M15.5 15.988h-.266a.068.068 0 0 1-.066-.07v-.278c0-.039.03-.07.066-.07h.267c.037 0 .067.031.067.07v.279c0 .038-.03.07-.067.07M15.5 17.872h-.266a.068.068 0 0 1-.066-.07v-1.535c0-.038.03-.07.066-.07h.267c.037 0 .067.032.067.07v1.535c0 .039-.03.07-.067.07M16.768 16.198h-1.067v1.603c0 .032.02.079.08.07h.233c.092.013.09-.07.09-.07l-.003-1.253h.666c.012 0 .27.004.27.347l-.002.908c0 .038.03.07.067.07h.266a.068.068 0 0 0 .067-.07v-.94c0-.386-.177-.664-.667-.665M13.434 16.614s0-.068.067-.068h.646c.218 0 .485.05.485.483 0 .432-.297.492-.482.492l-.715-.001v-.906m-.334 1.885h.266s.066 0 .066-.072v-.556h.864c.627 0 .738-.568.737-.838 0-.27-.112-.835-.747-.834l-.92-.001c-.333 0-.333.346-.333.346v1.885c0 .07.067.07.067.07M12.435 16.896h-1.2v-.208c0-.07.064-.14.134-.14h1.002c.06 0 .13.07.13.14l-.001.139s0 .07-.065.07m.332.975c.068 0 .069-.064.069-.07v-.208c0-.07-.068-.07-.068-.07l-1.401-.002c-.135 0-.133-.136-.133-.136v-.142h1.334c.37 0 .333-.279.333-.279v-.276s.036-.491-.466-.491h-1.123c-.511 0-.476.484-.476.484v.701c0 .49.467.487.467.487z"/></g><path d="M22.75 14H1.25a.5.5 0 0 1-.462-.692L3 8h18l2.211 5.308a.5.5 0 0 1-.461.692z" fill="#ccdcea"/><path fill="#fff" d="M20 8l2 5H2l2-5z"/><path d="M12 11.517L8 6.244l4 1.04 4-1.04zm-2.4-8l2.4.507 2.4-.507v.8l-2.4.544-2.4-.544zm0 1.6l2.4.507 2.4-.507v.8l-2.4.544-2.4-.544z" fill="#fff" stroke-width="2"/></g></svg>