<svg width="64" height="64" version="1" xmlns="http://www.w3.org/2000/svg">
<defs>
<filter id="a" color-interpolation-filters="sRGB">
<feFlood flood-opacity=".196" result="flood"/>
<feComposite in="flood" in2="SourceGraphic" operator="in" result="composite1"/>
<feGaussianBlur in="composite1" result="blur" stdDeviation="1"/>
<feOffset dx="0" dy="1" result="offset"/>
<feComposite in="SourceGraphic" in2="offset" result="composite2"/>
</filter>
</defs>
<path d="M 32.168,7 A 26.017,26.017 0 0 0 22.031,9.01 25.922,25.922 0 0 0 8.01,42.97 25.92,25.92 0 0 0 41.969,56.992 25.921,25.921 0 0 0 55.99,23.03 25.922,25.922 0 0 0 32.168,7 Z M 32,19 A 14,14 0 0 1 46,33 14,14 0 0 1 32,47 14,14 0 0 1 18,33 14,14 0 0 1 32,19 Z" filter="url(#a)" opacity=".2"/>
<path d="M 32.168,6 A 26.017,26.017 0 0 0 22.031,8.01 25.922,25.922 0 0 0 8.01,41.97 25.92,25.92 0 0 0 41.969,55.992 25.921,25.921 0 0 0 55.99,22.03 25.922,25.922 0 0 0 32.168,6 Z M 32,18 A 14,14 0 0 1 46,32 14,14 0 0 1 32,46 14,14 0 0 1 18,32 14,14 0 0 1 32,18 Z" fill="#e4e4e4" filter="url(#a)"/>
<path d="m32.168 6a26.017 26.017 0 0 0-10.137 2.01 25.917 25.917 0 0 0-16.018 24.438 25.915 25.915 0 0 1 16.018-23.44 26.015 26.015 0 0 1 10.137-2.008 25.922 25.922 0 0 1 23.822 16.03 26.028 26.028 0 0 1 1.996 9.525c0.07-3.499-0.562-7.073-1.996-10.523a25.922 25.922 0 0 0-23.822-16.03zm13.811 26.412a14 14 0 0 1-13.979 13.588 14 14 0 0 1-13.979-13.414 14 14 0 0 0-0.021 0.412 14 14 0 0 0 14 14 14 14 0 0 0 14-14 14 14 0 0 0-0.022-0.586z" fill="#fff" filter="url(#a)" opacity=".2"/>
<path d="m32.167 4a26.429 26.429 0 0 0-9.653 1.789 2.425 2.448 0 0 0-1.403 3.158l4.308 11.417a2.425 2.448 0 0 0 3.128 1.419 9.63 9.63 0 0 1 3.45-0.645 9.606 9.606 0 0 1 3.442 0.653 2.425 2.448 0 0 0 3.134-1.414l4.315-11.433a2.425 2.448 0 0 0-1.405-3.16c-2.94-1.132-6.088-1.768-9.316-1.784zm-25.105 17.952a2.448 2.425 0 0 0-2.274 1.562 26.428 26.428 0 0 0-1.788 9.653c0.017 3.228 0.652 6.375 1.783 9.316a2.448 2.425 0 0 0 3.16 1.405l11.434-4.313a2.448 2.425 0 0 0 1.413-3.136 9.606 9.606 0 0 1-0.653-3.442 9.63 9.63 0 0 1 0.645-3.45 2.448 2.425 0 0 0-1.419-3.128l-11.417-4.309a2.448 2.425 0 0 0-0.884-0.159zm49.876 0a2.448 2.425 0 0 0-0.885 0.16l-11.417 4.307a2.448 2.425 0 0 0-1.418 3.128 9.63 9.63 0 0 1 0.644 3.45 9.606 9.606 0 0 1-0.652 3.442 2.448 2.425 0 0 0 1.413 3.136l11.433 4.313a2.448 2.425 0 0 0 3.16-1.405c1.132-2.94 1.767-6.088 1.784-9.316a26.429 26.429 0 0 0-1.789-9.653 2.448 2.425 0 0 0-2.273-1.562zm-20.55 22.098a2.425 2.448 0 0 0-0.95 0.16 9.606 9.606 0 0 1-3.441 0.652 9.63 9.63 0 0 1-3.45-0.644 2.425 2.448 0 0 0-3.128 1.418l-4.309 11.417a2.425 2.448 0 0 0 1.403 3.159 26.428 26.428 0 0 0 9.654 1.788c3.228-0.017 6.375-0.652 9.316-1.783a2.425 2.448 0 0 0 1.405-3.161l-4.315-11.433a2.425 2.448 0 0 0-2.185-1.572z" filter="url(#a)" opacity=".2"/>
<path d="m32.167 3a26.429 26.429 0 0 0-9.653 1.789 2.425 2.448 0 0 0-1.403 3.158l4.308 11.417a2.425 2.448 0 0 0 3.128 1.419 9.63 9.63 0 0 1 3.45-0.645 9.606 9.606 0 0 1 3.442 0.653 2.425 2.448 0 0 0 3.134-1.414l4.315-11.433a2.425 2.448 0 0 0-1.405-3.16c-2.94-1.132-6.088-1.768-9.316-1.784zm-25.105 17.952a2.448 2.425 0 0 0-2.274 1.562 26.428 26.428 0 0 0-1.788 9.653c0.017 3.228 0.652 6.375 1.783 9.316a2.448 2.425 0 0 0 3.16 1.405l11.434-4.313a2.448 2.425 0 0 0 1.413-3.136 9.606 9.606 0 0 1-0.653-3.442 9.63 9.63 0 0 1 0.645-3.45 2.448 2.425 0 0 0-1.419-3.128l-11.417-4.309a2.448 2.425 0 0 0-0.884-0.159zm49.876 0a2.448 2.425 0 0 0-0.885 0.16l-11.417 4.307a2.448 2.425 0 0 0-1.418 3.128 9.63 9.63 0 0 1 0.644 3.45 9.606 9.606 0 0 1-0.652 3.442 2.448 2.425 0 0 0 1.413 3.136l11.433 4.313a2.448 2.425 0 0 0 3.16-1.405c1.132-2.94 1.767-6.088 1.784-9.316a26.429 26.429 0 0 0-1.789-9.653 2.448 2.425 0 0 0-2.273-1.562zm-20.55 22.098a2.425 2.448 0 0 0-0.95 0.16 9.606 9.606 0 0 1-3.441 0.652 9.63 9.63 0 0 1-3.45-0.644 2.425 2.448 0 0 0-3.128 1.418l-4.309 11.417a2.425 2.448 0 0 0 1.403 3.159 26.428 26.428 0 0 0 9.654 1.788c3.228-0.017 6.375-0.652 9.316-1.783a2.425 2.448 0 0 0 1.405-3.161l-4.315-11.433a2.425 2.448 0 0 0-2.185-1.572z" fill="#ea004e" filter="url(#a)"/>
</svg>
