<svg width="64" height="64" version="1.1" viewBox="0 0 64 64" xmlns="http://www.w3.org/2000/svg"><title>wps-office-etmain</title><defs><linearGradient id="b" x1="29" x2="29" y1="2" y2="54" gradientTransform="translate(3 4)" gradientUnits="userSpaceOnUse"><stop stop-color="#92CF00" offset="0"/><stop stop-color="#57AC00" offset="1"/></linearGradient><linearGradient id="c" x1="18.319" x2="5.493" y1="21.607" y2="21.607" gradientTransform="matrix(1.3647 0 0 .73276 16 16)" gradientUnits="userSpaceOnUse"><stop stop-color="#F5F5F5" offset="0"/><stop stop-color="#A1E37D" offset="1"/></linearGradient><filter id="a" color-interpolation-filters="sRGB"><feFlood flood-color="#000" flood-opacity=".196" result="flood"/><feComposite in="flood" in2="SourceGraphic" operator="in" result="composite1"/><feGaussianBlur in="composite1" result="blur" stdDeviation="1"/><feOffset dx="0" dy="1" result="offset"/><feComposite in="SourceGraphic" in2="offset" result="composite2"/></filter></defs><g filter="url(#a)"><g fill-rule="evenodd"><path d="M7.333 6h41.16c.327 0 .642.12.886.337l8.174 7.265c.284.253.447.616.447.997v42.068c0 .736-.597 1.333-1.333 1.333H7.334A1.333 1.333 0 0 1 6 56.667V7.334C6 6.597 6.598 6 7.334 6z" fill="url(#b)"/><path d="M58 35.857v-21.81c0-.402-.182-.783-.494-1.036l-8.294-6.714A1.333 1.333 0 0 0 48.373 6H7.333C6.597 6 6 6.597 6 7.333V32.5 8.333C6 7.597 6.597 7 7.333 7h41.04c.305 0 .602.104.839.297l8.294 6.714c.312.253.494.634.494 1.036z" fill="#9af300"/><path d="M58 35.357v21.81c0 .736-.597 1.333-1.333 1.333H7.334A1.333 1.333 0 0 1 6 57.167V32v24.167c0 .736.597 1.333 1.334 1.333h49.333c.736 0 1.333-.597 1.333-1.333z" fill="#4b9000"/></g><path d="M23 37v-9h.041c.147.575.668 1 1.289 1H41v-.5 9.165-.335A1.33 1.33 0 0 0 39.67 36H23zm23.67 11H17.33A1.33 1.33 0 0 1 16 46.67v-4.34c0-.735.595-1.33 1.33-1.33h22.34A1.33 1.33 0 0 0 41 39.67V29h5.67c.735 0 1.33.595 1.33 1.33v16.34A1.33 1.33 0 0 1 46.67 48zM23 25.33V36h-5.67A1.33 1.33 0 0 1 16 34.67V18.33c0-.735.595-1.33 1.33-1.33h29.34c.735 0 1.33.595 1.33 1.33v4.34A1.33 1.33 0 0 1 46.67 24H24.33A1.33 1.33 0 0 0 23 25.33z" fill="#58aa00"/><path d="M23 36v-9h.041c.147.575.668 1 1.289 1H41v-.5 9.165-.335A1.33 1.33 0 0 0 39.67 35H23z" fill="url(#c)"/><path d="M46.67 47H17.33A1.33 1.33 0 0 1 16 45.67v-4.34c0-.735.595-1.33 1.33-1.33h22.34A1.33 1.33 0 0 0 41 38.67V28h5.67c.735 0 1.33.595 1.33 1.33v16.34A1.33 1.33 0 0 1 46.67 47zM23 24.33V35h-5.67A1.33 1.33 0 0 1 16 33.67V17.33c0-.735.595-1.33 1.33-1.33h29.34c.735 0 1.33.595 1.33 1.33v4.34A1.33 1.33 0 0 1 46.67 23H24.33A1.33 1.33 0 0 0 23 24.33z" fill="#fff"/><path d="M46.67 47H17.33A1.33 1.33 0 0 1 16 45.67v-3.34c0-.735.595-1.33 1.33-1.33h22.34A1.33 1.33 0 0 0 41 39.67V29h5.67c.735 0 1.33.595 1.33 1.33v15.34A1.33 1.33 0 0 1 46.67 47zM23 24.33V35h-5.67A1.33 1.33 0 0 1 16 33.67V18.33c0-.735.595-1.33 1.33-1.33h29.34c.735 0 1.33.595 1.33 1.33v3.34A1.33 1.33 0 0 1 46.67 23H24.33A1.33 1.33 0 0 0 23 24.33z" fill="#f7ffed"/></g></svg>