<svg width="64" height="64" version="1.1" viewBox="0 0 64 64" xmlns="http://www.w3.org/2000/svg"><title>wps-office-wppmain</title><defs><linearGradient id="b" x1="29" x2="29" y1="2" y2="54" gradientTransform="translate(3 4)" gradientUnits="userSpaceOnUse"><stop stop-color="#FF8767" offset="0"/><stop stop-color="#FF6134" offset="1"/></linearGradient><linearGradient id="c" x1="17.554" x2="5.999" y1="24.004" y2="24.004" gradientTransform="matrix(1.3587 0 0 .73598 16 16)" gradientUnits="userSpaceOnUse"><stop stop-color="#FFD6C2" offset="0"/><stop stop-color="#FFC4B1" offset="1"/></linearGradient><filter id="a" color-interpolation-filters="sRGB"><feFlood flood-color="#000" flood-opacity=".196" result="flood"/><feComposite in="flood" in2="SourceGraphic" operator="in" result="composite1"/><feGaussianBlur in="composite1" result="blur" stdDeviation="1"/><feOffset dx="0" dy="1" result="offset"/><feComposite in="SourceGraphic" in2="offset" result="composite2"/></filter></defs><g filter="url(#a)"><g fill-rule="evenodd"><path d="M7.333 6h41.16c.327 0 .642.12.886.337l8.174 7.265c.284.253.447.616.447.997v42.068c0 .736-.597 1.333-1.333 1.333H7.334A1.333 1.333 0 0 1 6 56.667V7.334C6 6.597 6.598 6 7.334 6z" fill="url(#b)"/><path d="M58 35.857v-21.81c0-.402-.182-.783-.494-1.036l-8.294-6.714A1.333 1.333 0 0 0 48.373 6H7.333C6.597 6 6 6.597 6 7.333V32.5 8.333C6 7.597 6.597 7 7.333 7h41.04c.305 0 .602.104.839.297l8.294 6.714c.312.253.494.634.494 1.036z" fill="#ffa187"/><path d="M58 35.357v21.81c0 .736-.597 1.333-1.333 1.333H7.334A1.333 1.333 0 0 1 6 57.167V32v24.167c0 .736.597 1.333 1.334 1.333h49.333c.736 0 1.333-.597 1.333-1.333z" fill="#f53600"/></g><path d="M24 34.667V39h16v-8 1H25.333A1.333 1.333 0 0 1 24 30.667v-4.333c0-.737.597-1.334 1.333-1.334h13.333c.736 0 1.333.597 1.333 1.334V39h6.667c.736 0 1.333-.597 1.333-1.334V19.334c0-.736-.597-1.333-1.333-1.333H17.333c-.736 0-1.333.597-1.333 1.333v28.333c0 .737.597 1.334 1.333 1.334h5.333c.737 0 1.334-.597 1.334-1.334z" fill="#f53600"/><path d="M40 30v8H24v-8.667.334c0 .736.597 1.333 1.333 1.333H40z" fill="url(#c)"/><path d="M38.667 24H25.334c-.736 0-1.333.597-1.333 1.333v21.333c0 .737-.597 1.334-1.334 1.334h-5.333a1.333 1.333 0 0 1-1.333-1.334V17.333c0-.736.597-1.333 1.333-1.333h29.333c.736 0 1.333.597 1.333 1.333v19.333c0 .737-.597 1.334-1.333 1.334H40V25.333c0-.737-.597-1.334-1.333-1.334z" fill="#fff"/><path d="M38.667 24H25.334c-.736 0-1.333.597-1.333 1.333v21.333c0 .737-.597 1.334-1.334 1.334h-5.333a1.333 1.333 0 0 1-1.333-1.334V18.333c0-.736.597-1.333 1.333-1.333h29.333c.736 0 1.333.597 1.333 1.333v18.333c0 .737-.597 1.334-1.333 1.334H40V25.333c0-.737-.597-1.334-1.333-1.334z" fill="#fff0ec"/></g></svg>