<svg width="64" height="64" version="1.1" viewBox="0 0 64 64" xmlns="http://www.w3.org/2000/svg"><title>wps-office-wpsmain</title><defs><linearGradient id="b" x1="26" x2="26" y1=".181" y2="50.641" gradientTransform="translate(6 6)" gradientUnits="userSpaceOnUse"><stop stop-color="#535CFF" offset="0"/><stop stop-color="#3F4CFF" offset="1"/></linearGradient><linearGradient id="c" x1="12.993" x2="12.993" y1="15.783" y2="38.148" gradientTransform="matrix(1.2297 0 0 .8132 16 16)" gradientUnits="userSpaceOnUse"><stop stop-color="#A2BAFF" offset="0"/><stop stop-color="#93BDFF" offset="1"/></linearGradient><filter id="a" color-interpolation-filters="sRGB"><feFlood flood-color="#000" flood-opacity=".196" result="flood"/><feComposite in="flood" in2="SourceGraphic" operator="in" result="composite1"/><feGaussianBlur in="composite1" result="blur" stdDeviation="1"/><feOffset dx="0" dy="1" result="offset"/><feComposite in="SourceGraphic" in2="offset" result="composite2"/></filter></defs><g filter="url(#a)"><g fill-rule="evenodd"><path d="M7.333 6h41.16c.327 0 .642.12.886.337l8.174 7.265c.284.253.447.616.447.997v42.068c0 .736-.597 1.333-1.333 1.333H7.334A1.333 1.333 0 0 1 6 56.667V7.334C6 6.597 6.598 6 7.334 6z" fill="url(#b)"/><path d="M58 35.857v-21.81c0-.402-.182-.783-.494-1.036l-8.294-6.714A1.333 1.333 0 0 0 48.373 6H7.333C6.597 6 6 6.597 6 7.333V32.5 8.333C6 7.597 6.597 7 7.333 7h41.04c.305 0 .602.104.839.297l8.294 6.714c.312.253.494.634.494 1.036z" fill="#858fff"/><path d="M58 35.357v21.81c0 .736-.597 1.333-1.333 1.333H7.334A1.333 1.333 0 0 1 6 57.167V32v24.167c0 .736.597 1.333 1.334 1.333h49.333c.736 0 1.333-.597 1.333-1.333z" fill="#3e23ff"/></g><path d="M40 48.701l-.01.009-7.07-7.07a1.333 1.333 0 0 0-1.885 0L24 48.675v.158h-6.667A1.333 1.333 0 0 1 16 47.5V20.167c0-.736.597-1.333 1.333-1.333h5.334c.736 0 1.333.597 1.333 1.333v16.644l7.034-7.034c.521-.521 1.365-.521 1.886 0l7.08 7.08v-16.69c0-.736.597-1.333 1.333-1.333h5.334c.736 0 1.333.597 1.333 1.334V47.5c0 .736-.597 1.333-1.333 1.333H40z" fill="#482fff"/><path d="M31.035 28.776L17.367 42.444l6.599 5.265 7.069-7.069c.52-.52 1.365-.52 1.886 0l7.069 7.07 6.598-5.266L32.92 28.776a1.333 1.333 0 0 0-1.885 0z" fill="url(#c)"/><path d="M17.333 16.833h5.333c.737 0 1.334.597 1.334 1.333v29.667h-6.667A1.333 1.333 0 0 1 16 46.5V18.167c0-.736.597-1.333 1.333-1.333zm24 0h5.333c.737 0 1.334.597 1.334 1.333V46.5c0 .737-.597 1.334-1.334 1.334H40V18.166c0-.737.597-1.334 1.333-1.334z" fill="#fff"/><path d="M17.333 17.833h5.333c.737 0 1.334.597 1.334 1.333v28.667h-6.667A1.333 1.333 0 0 1 16 46.5V19.167c0-.736.597-1.333 1.333-1.333zm24 0h5.333c.737 0 1.334.597 1.334 1.333V46.5c0 .737-.597 1.334-1.334 1.334H40V19.166c0-.737.597-1.334 1.333-1.334z" fill="#ebf1ff"/></g></svg>