<svg width="64" height="64" version="1.1" viewBox="0 0 64 64" xmlns="http://www.w3.org/2000/svg" xmlns:xlink="http://www.w3.org/1999/xlink">
<defs>
<filter id="a" color-interpolation-filters="sRGB">
<feFlood flood-opacity=".196" result="flood"/>
<feComposite in="flood" in2="SourceGraphic" operator="in" result="composite1"/>
<feGaussianBlur in="composite1" result="blur" stdDeviation="1"/>
<feOffset dx="0" dy="1" result="offset"/>
<feComposite in="SourceGraphic" in2="offset" result="composite2"/>
</filter>
<linearGradient id="linearGradient922" x1="-1.6" x2="65.6" y1="26" y2="26" gradientTransform="matrix(.54578 0 0 1.8323 11 7)" gradientUnits="userSpaceOnUse">
<stop stop-color="#628FFF" offset="0"/>
<stop stop-color="#4084FF" offset="1"/>
</linearGradient>
</defs>
<path d="m6.8 7.002c-1.55 0-2.8 1.25-2.8 2.8v35.198h56v-35.2c0-1.55-1.25-2.8-2.8-2.8h-50.4z" fill="url(#linearGradient922)" filter="url(#a)"/>
<path d="m6.8 57a2.793 2.793 0 0 1-2.8-2.8v-9.2h56v9.2c0 1.551-1.249 2.8-2.8 2.8z" fill="#253951" filter="url(#a)"/>
<circle cx="35" cy="51" r="3" filter="url(#a)" opacity=".2"/>
<circle cx="44.999" cy="51" r="3" filter="url(#a)" opacity=".2"/>
<circle cx="54.999" cy="51" r="3" filter="url(#a)" opacity=".2"/>
<g fill="#fff" filter="url(#a)">
<circle cx="35" cy="50" r="3" opacity=".72"/>
<circle cx="44.999" cy="50" r="3" opacity=".72"/>
<circle cx="54.999" cy="50" r="3" opacity=".72"/>
<path d="m6.8 7c-1.55 0-2.8 1.25-2.8 2.8v1c0-1.55 1.25-2.8 2.8-2.8h50.4c1.55 0 2.8 1.25 2.8 2.8v-1c0-1.55-1.25-2.8-2.8-2.8z" opacity=".1"/>
</g>
<path d="m4 54.2v1c0 1.55 1.25 2.8 2.8 2.8h50.4c1.55 0 2.8-1.25 2.8-2.8v-1c0 1.55-1.25 2.8-2.8 2.8h-50.4c-1.55 0-2.8-1.25-2.8-2.8z" filter="url(#a)" opacity=".2"/>
</svg>
