<svg width="64" height="64" version="1" xmlns="http://www.w3.org/2000/svg"><defs><filter id="a" color-interpolation-filters="sRGB"><feFlood flood-color="#000" flood-opacity=".196" result="flood"/><feComposite in="flood" in2="SourceGraphic" operator="in" result="composite1"/><feGaussianBlur in="composite1" result="blur" stdDeviation="1"/><feOffset dx="0" dy="1" result="offset"/><feComposite in="SourceGraphic" in2="offset" result="composite2"/></filter></defs><g filter="url(#a)"><circle cx="18.5" cy="27.5" r="15.5" opacity=".2"/><circle cx="18.5" cy="26.5" r="15.5" fill="#ccc"/><path d="M18.5 11A15.5 15.5 0 0 0 3 26.5a15.5 15.5 0 0 0 .021.586A15.5 15.5 0 0 1 18.501 12a15.5 15.5 0 0 1 15.478 14.914 15.5 15.5 0 0 0 .022-.414 15.5 15.5 0 0 0-15.5-15.5z" fill="#fff" opacity=".2"/><circle cx="18.5" cy="23.5" r="5.5" fill="#478be5"/><circle cx="18.5" cy="23.5" r="1.5" fill="#3f3f3f"/><circle cx="41.833" cy="35.5" r="19.5" opacity=".2"/><circle cx="41.833" cy="34.5" r="19.5" fill="#e4e4e4"/><circle cx="44.5" cy="31.5" r="8.5" fill="#478be5"/><circle cx="44.5" cy="31.5" r="2.5" fill="#3f3f3f"/><path d="M41.834 15a19.5 19.5 0 0 0-19.5 19.5 19.5 19.5 0 0 0 .021.586A19.5 19.5 0 0 1 41.835 16a19.5 19.5 0 0 1 19.478 18.914 19.5 19.5 0 0 0 .022-.414 19.5 19.5 0 0 0-19.5-19.5z" fill="#fff" opacity=".2"/></g></svg>