<svg width="64" height="64" version="1" xmlns="http://www.w3.org/2000/svg"><defs><filter id="a" color-interpolation-filters="sRGB"><feFlood flood-color="#000" flood-opacity=".196" result="flood"/><feComposite in="flood" in2="SourceGraphic" operator="in" result="composite1"/><feGaussianBlur in="composite1" result="blur" stdDeviation="1"/><feOffset dx="0" dy="1" result="offset"/><feComposite in="SourceGraphic" in2="offset" result="composite2"/></filter></defs><g filter="url(#a)"><path d="M3 16.358v39.808a2.831 2.831 0 0 0 2.842 2.833h48.316A2.832 2.832 0 0 0 57 56.166V16.358z" opacity=".2"/><path d="M3 15.358v39.808a2.831 2.831 0 0 0 2.842 2.833h48.316A2.832 2.832 0 0 0 57 55.166V15.358z" fill="#3575b8"/><path d="M3 16v1h54v-1H3z" opacity=".2"/><path d="M57 16V9.833A2.831 2.831 0 0 0 54.158 7H5.842A2.832 2.832 0 0 0 3 9.833V16z" fill="#e4e4e4"/><rect x="33" y="20" width="20" height="14" rx="2.132" ry="2.38" opacity=".3"/><path d="M38.449 28.003a4.419 4.561 0 0 0-2.076.61l-7.084 4.218-7.078 4.219a4.419 4.561 0 0 0 0 7.902l7.078 4.22 7.084 4.218A4.419 4.561 0 0 0 43 49.439V47h15.11c1.601 0 2.89-1.338 2.89-3v-6c0-1.662-1.289-3-2.89-3H43v-2.44a4.419 4.561 0 0 0-4.551-4.558z" opacity=".2"/><rect x="35" y="34" width="26" height="12" rx="2.889" ry="3" fill="#c7db59"/><rect x="7" y="40" width="20" height="14" rx="2.132" ry="2.38" opacity=".3"/><path d="M38.449 27.002a4.419 4.561 0 0 0-2.077.609L29.29 31.83l-7.08 4.22a4.419 4.561 0 0 0 0 7.9l7.08 4.22 7.082 4.22A4.419 4.561 0 0 0 43 48.436V31.56a4.419 4.561 0 0 0-4.551-4.558z" fill="#c7db59"/><path d="M5.842 7A2.832 2.832 0 0 0 3 9.834v1A2.832 2.832 0 0 1 5.842 8h48.316A2.832 2.832 0 0 1 57 10.834v-1A2.832 2.832 0 0 0 54.158 7H5.842zM38.449 27.002a4.419 4.561 0 0 0-2.076.61l-7.084 4.218-7.078 4.219a4.419 4.561 0 0 0-2.18 4.445 4.419 4.561 0 0 1 2.18-3.443l7.078-4.219 7.084-4.219a4.419 4.561 0 0 1 2.076-.61 4.419 4.561 0 0 1 4.55 4.56V31.56a4.419 4.561 0 0 0-4.55-4.558zM42.999 34v1.002h15.112c1.6 0 2.889 1.338 2.889 3V37c0-1.662-1.289-3-2.89-3H43z" fill="#fff" opacity=".2"/></g></svg>