<?xml version="1.0" encoding="UTF-8" standalone="no"?>
<svg
   xmlns:dc="http://purl.org/dc/elements/1.1/"
   xmlns:cc="http://creativecommons.org/ns#"
   xmlns:rdf="http://www.w3.org/1999/02/22-rdf-syntax-ns#"
   xmlns:svg="http://www.w3.org/2000/svg"
   xmlns="http://www.w3.org/2000/svg"
   height="1024"
   width="1024"
   id="svg4"
   viewBox="-10 0 1024 1024"
   version="1.1">
  <metadata
     id="metadata10">
    <rdf:RDF>
      <cc:Work
         rdf:about="">
        <dc:format>image/svg+xml</dc:format>
        <dc:type
           rdf:resource="http://purl.org/dc/dcmitype/StillImage" />
        <dc:title></dc:title>
      </cc:Work>
    </rdf:RDF>
  </metadata>
  <defs
     id="defs8" />
  <path
     style="stroke-width:0.6561"
     fill="currentColor"
     d="m 473.78765,1023.1019 q -33.4611,0 -59.04898,-24.27567 l -49.2075,-49.2075 q -24.9318,-24.93185 -24.9318,-59.70515 0,-35.4294 24.9318,-59.049 L 557.76845,637.9712 H 95.874071 q -34.1172,0 -55.44045,-24.60375 -21.3232,-24.60375 -21.3232,-59.37705 v -83.9808 q 0,-34.77333 21.3232,-59.37708 21.32325,-24.60375 55.44045,-24.60375 H 557.76845 L 365.53117,193.13538 q -24.9318,-23.6196 -24.9318,-59.049 0,-35.429396 24.9318,-59.048996 l 49.2075,-49.207503 q 24.93178,-24.93179975 59.04898,-24.93179975 34.7733,0 59.7051,24.93179975 l 427.1211,427.121089 q 24.2757,22.96353 24.2757,59.04903 0,35.4294 -24.2757,59.7051 l -427.1211,427.12113 q -25.5879,24.27567 -59.7051,24.27567 z"
     id="path884" />
</svg>
