<?xml version="1.0" encoding="UTF-8" standalone="no"?>
<svg
   xmlns:dc="http://purl.org/dc/elements/1.1/"
   xmlns:cc="http://creativecommons.org/ns#"
   xmlns:rdf="http://www.w3.org/1999/02/22-rdf-syntax-ns#"
   xmlns:svg="http://www.w3.org/2000/svg"
   xmlns="http://www.w3.org/2000/svg"
   height="1024"
   width="1024"
   id="svg4"
   viewBox="-10 0 1024 1024"
   version="1.1">
  <metadata
     id="metadata10">
    <rdf:RDF>
      <cc:Work
         rdf:about="">
        <dc:format>image/svg+xml</dc:format>
        <dc:type
           rdf:resource="http://purl.org/dc/dcmitype/StillImage" />
        <dc:title></dc:title>
      </cc:Work>
    </rdf:RDF>
  </metadata>
  <defs
     id="defs8" />
  <path
     style="stroke-width:0.531441"
     fill="currentColor"
     d="m 1001.2888,575.77291 q 0,16.47467 -16.4747,35.07511 L 806.24994,821.29866 q -22.85199,27.10349 -64.03856,45.96965 -41.1867,18.86615 -76.26186,18.86615 H 87.741737 q -18.068994,0 -32.152174,-6.90873 -14.0832,-6.90873 -14.0832,-22.85196 0,-16.47467 16.47468,-35.07511 L 236.54522,610.84802 q 22.85197,-27.10349 64.03865,-45.96965 41.18667,-18.86615 76.26178,-18.86615 H 955.0534 q 18.069,0 32.15232,6.90873 14.08308,6.90873 14.08308,22.85196 z M 819.00447,392.95721 v 85.03056 H 376.84565 q -49.95546,0 -104.69388,25.24345 -54.73842,25.24344 -87.15632,63.50719 L 5.899829,777.18905 3.242624,780.3777 q 0,-2.12577 -0.265725,-6.64301 -0.265716,-4.51726 -0.265716,-6.64302 V 256.90832 q 0,-48.89257 35.0751,-83.96768 35.0751,-35.0751 83.967687,-35.0751 h 170.06112 q 48.89257,0 83.96767,35.0751 35.07511,35.07511 35.07511,83.96768 v 17.0061 h 289.10391 q 48.89259,0 83.96762,35.07511 35.07507,35.07511 35.07507,83.96768 z"
     id="path1392" />
</svg>
