<?xml version="1.0" encoding="UTF-8" standalone="no"?>
<svg
   xmlns:dc="http://purl.org/dc/elements/1.1/"
   xmlns:cc="http://creativecommons.org/ns#"
   xmlns:rdf="http://www.w3.org/1999/02/22-rdf-syntax-ns#"
   xmlns:svg="http://www.w3.org/2000/svg"
   xmlns="http://www.w3.org/2000/svg"
   height="1024"
   width="1024"
   id="svg4"
   viewBox="-10 0 1024 1024"
   version="1.1">
  <metadata
     id="metadata10">
    <rdf:RDF>
      <cc:Work
         rdf:about="">
        <dc:format>image/svg+xml</dc:format>
        <dc:type
           rdf:resource="http://purl.org/dc/dcmitype/StillImage" />
        <dc:title></dc:title>
      </cc:Work>
    </rdf:RDF>
  </metadata>
  <defs
     id="defs8" />
  <path
     style="stroke-width:0.527683"
     fill="currentColor"
     d="m 214.94043,714.63028 q -34.82708,0 -59.62818,-24.80109 -24.8011,-24.80111 -24.8011,-59.62819 V 258.71217 q 0,-34.8271 24.8011,-59.6282 24.8011,-24.80109 59.62818,-24.80109 h 574.11915 q 34.82709,0 59.62817,24.80109 24.80113,24.8011 24.80113,59.6282 V 630.201 q 0,34.82708 -24.80113,59.62819 -24.80108,24.80109 -59.62817,24.80109 z M 198.05457,258.71217 V 630.201 q 0,6.85988 5.013,11.87288 5.01298,5.01298 11.87286,5.01298 h 574.11915 q 6.85987,0 11.87288,-5.01298 5.01294,-5.01299 5.01294,-11.87288 V 258.71217 q 0,-6.8599 -5.01294,-11.87289 -5.01301,-5.01298 -11.87288,-5.01298 H 214.94043 q -6.85988,0 -11.87286,5.01298 -5.013,5.01299 -5.013,11.87289 z M 924.14642,748.402 h 84.42928 v 50.65757 q 0,21.10731 -24.80112,35.88243 -24.80107,14.77512 -59.62816,14.77512 H 79.85358 q -34.827088,0 -59.628188,-14.77512 Q -4.5757086,820.16689 -4.5757086,799.05957 V 748.402 H 79.85358 Z m -379.93178,50.65757 q 8.44292,0 8.44292,-8.44293 0,-8.44293 -8.44292,-8.44293 h -84.42929 q -8.44293,0 -8.44293,8.44293 0,8.44293 8.44293,8.44293 z"
     id="path1208" />
</svg>
