<?xml version="1.0" encoding="UTF-8" standalone="no"?>
<svg
   xmlns:dc="http://purl.org/dc/elements/1.1/"
   xmlns:cc="http://creativecommons.org/ns#"
   xmlns:rdf="http://www.w3.org/1999/02/22-rdf-syntax-ns#"
   xmlns:svg="http://www.w3.org/2000/svg"
   xmlns="http://www.w3.org/2000/svg"
   height="1024"
   width="1024"
   id="svg4"
   viewBox="-10 0 1024 1024"
   version="1.1">
  <metadata
     id="metadata10">
    <rdf:RDF>
      <cc:Work
         rdf:about="">
        <dc:format>image/svg+xml</dc:format>
        <dc:type
           rdf:resource="http://purl.org/dc/dcmitype/StillImage" />
        <dc:title></dc:title>
      </cc:Work>
    </rdf:RDF>
  </metadata>
  <defs
     id="defs8" />
  <path
     style="stroke-width:0.639627"
     fill="currentColor"
     d="m 665.74449,511.99997 q 0,-67.80045 -47.97203,-115.77247 -47.97202,-47.97201 -115.77247,-47.97201 -67.80044,0 -115.77246,47.97201 -47.97201,47.97202 -47.97201,115.77247 0,67.80045 47.97201,115.77247 47.97202,47.97201 115.77246,47.97201 67.80045,0 115.77247,-47.97201 47.97203,-47.97202 47.97203,-115.77247 z m 327.48897,-69.71934 v 141.99718 q 0,7.67551 -5.11699,14.71141 -5.117,7.0359 -12.79253,8.31515 l -118.33103,17.90955 q -12.1529,34.53985 -24.94544,58.20605 22.387,31.98135 68.44016,88.2685 6.39626,7.67553 6.39626,15.99068 0,8.31516 -5.75674,14.71142 -17.26989,23.66619 -63.32305,69.0797 -46.05316,45.41351 -60.12497,45.41351 -7.67543,0 -16.63025,-5.75664 l -88.26849,-69.07971 q -28.14363,14.71143 -58.20606,24.30582 -10.23403,86.98927 -18.54919,118.97055 -4.47738,17.9097 -23.02656,17.9097 H 431.00141 q -8.95477,0 -15.67085,-5.43693 -6.71609,-5.43686 -7.35572,-13.75194 L 390.06529,866.35324 q -31.34172,-10.23403 -57.56642,-23.66618 l -90.18738,68.44007 q -6.39628,5.75663 -15.99068,5.75663 -8.95477,0 -15.99067,-7.03589 -80.59299,-72.91746 -105.53845,-107.45731 -4.47738,-6.39627 -4.47738,-14.71142 0,-7.67552 5.11701,-14.71141 9.59441,-13.43218 32.62098,-42.5352 23.02656,-29.10301 34.53984,-45.09369 -17.26993,-31.98134 -26.22469,-63.32306 L 29.315723,604.74586 q -8.315149,-1.27924 -13.432164,-7.99534 -5.117015,-6.71609 -5.117015,-15.03123 V 439.72213 q 0,-7.67552 5.117015,-14.71141 5.117015,-7.0359 12.15291,-8.31517 L 147.00708,398.78601 q 8.95476,-29.42285 24.94544,-58.84568 -25.58507,-36.45873 -68.44008,-88.26851 -6.396263,-7.67552 -6.396263,-15.35104 0,-6.39627 5.756633,-14.71142 16.63031,-23.02657 63.00325,-68.7599 46.37296,-45.73332 60.44475,-45.73332 8.31515,0 16.6303,6.39628 l 88.26851,68.44008 q 28.14358,-14.71143 58.20605,-24.30582 10.23403,-86.989267 18.54917,-118.970604 4.47739,-17.909554 23.02657,-17.909554 h 141.99717 q 8.95477,0 15.67086,5.436823 6.71608,5.436835 7.3557,13.751983 l 17.90955,117.691352 q 31.34171,10.23402 57.56642,23.66619 l 90.82704,-68.44008 q 5.75663,-5.75665 15.35098,-5.75665 8.31519,0 15.99072,6.39628 82.51186,76.11559 105.53849,108.73657 4.47737,5.11701 4.47737,14.07179 0,7.67552 -5.117,14.71141 -9.59446,13.43216 -32.62099,42.53519 -23.02663,29.10302 -34.53989,45.0937 16.63026,31.98134 26.22472,62.68343 l 117.05175,17.90956 q 8.31517,1.27924 13.43217,7.99533 5.11699,6.7161 5.11699,15.03123 z"
     id="path1490" />
</svg>
