<?xml version="1.0" encoding="UTF-8" standalone="no"?>
<svg
   xmlns:dc="http://purl.org/dc/elements/1.1/"
   xmlns:cc="http://creativecommons.org/ns#"
   xmlns:rdf="http://www.w3.org/1999/02/22-rdf-syntax-ns#"
   xmlns:svg="http://www.w3.org/2000/svg"
   xmlns="http://www.w3.org/2000/svg"
   height="1024"
   width="1024"
   id="svg4"
   viewBox="-10 0 1024 1024"
   version="1.1">
  <metadata
     id="metadata10">
    <rdf:RDF>
      <cc:Work
         rdf:about="">
        <dc:format>image/svg+xml</dc:format>
        <dc:type
           rdf:resource="http://purl.org/dc/dcmitype/StillImage" />
        <dc:title></dc:title>
      </cc:Work>
    </rdf:RDF>
  </metadata>
  <defs
     id="defs8" />
  <path
     style="stroke-width:0.59049"
     fill="currentColor"
     d="m 463.54632,187.80143 v 642.45324 q 0,15.3527 -11.2193,26.572 -11.2193,11.2193 -26.5721,11.2193 -15.3527,0 -26.572,-11.2193 L 202.54972,660.19347 H 47.84132 q -15.3527,0 -26.572,-11.2193 -11.2193,-11.2193 -11.2193,-26.572 V 395.65393 q 0,-15.3527 11.2193,-26.572 11.2193,-11.2193 26.572,-11.2193 h 154.7084 l 196.6332,-196.6332 q 11.2193,-11.2193 26.572,-11.2193 15.3528,0 26.5721,11.2193 11.2193,11.2193 11.2193,26.572 z m 226.7481,321.2266 q 0,44.8772 -25.0958,83.5544 -25.0958,38.67704 -66.4301,55.21084 -5.9049,2.9524 -14.7623,2.9524 -15.3527,0 -26.572,-10.9241 -11.2193,-10.924 -11.2193,-26.86734 0,-12.4002 7.0859,-20.9623 7.0858,-8.5622 17.1242,-14.7623 10.0383,-6.2001 20.0766,-13.5812 10.0384,-7.3812 17.1242,-21.2577 7.0859,-13.8765 7.0859,-33.3627 0,-19.4862 -7.0859,-33.3626 -7.0858,-13.8766 -17.1242,-21.2577 -10.0383,-7.3811 -20.0766,-13.5812 -10.0384,-6.2002 -17.1242,-14.7623 -7.0859,-8.5621 -7.0859,-20.9624 0,-15.9433 11.2193,-26.8673 11.2193,-10.9241 26.572,-10.9241 8.8574,0 14.7623,2.9525 41.3343,15.9432 66.4301,54.9155 25.0958,38.9724 25.0958,83.8496 z"
     id="path944" />
</svg>
