<svg width="16" height="16" version="1.1" xmlns="http://www.w3.org/2000/svg">
<defs>
<style id="current-color-scheme" type="text/css">.ColorScheme-Text { color:#444444; } .ColorScheme-Highlight { color:#4285f4; }</style>
</defs>
<path d="m7.5 1.1113c-1.385 0-2.5 1.2286-2.5 2.8906v5.002c0 1.662 1.115 2.998 2.5 2.998s2.5-1.336 2.5-2.998v-5.002c0-1.661-1.115-2.8906-2.5-2.8906zm0 1c0.82 0 1.5 0.77462 1.5 1.8906v5.002c0 1.145-0.711 1.998-1.5 1.998s-1.5-0.85305-1.5-1.998v-5.002c0-1.116 0.68-1.8906 1.5-1.8906zm-4.5 6.8887v0.5a4.5 4.5 0 0 0 4 4.4688v2.0312h1v-2.0332a4.5 4.5 0 0 0 4-4.4668v-0.5h-1v0.5a3.5 3.5 0 0 1-7 0v-0.5h-1z" fill="#303030"/>
</svg>
