<svg width="16px" height="16px" version="1.1" viewBox="0 0 16 16" xmlns="http://www.w3.org/2000/svg">
<title>disk-normal-16px</title>
<desc>Created with Sketch.</desc>
<rect width="16" height="16" opacity="0"/>
<path d="m2.5 1a0.50005 0.50005 0 0 0-0.5 0.5v8.9199a0.50005 0.50005 0 0 0 0 0.16211v3.918a0.50005 0.50005 0 0 0 0.5 0.5h11a0.50005 0.50005 0 0 0 0.5-0.5v-3.9199a0.50005 0.50005 0 0 0 0-0.16211v-8.918a0.50005 0.50005 0 0 0-0.5-0.5h-11zm0.5 1h10v8h-10v-8zm0 9h10v3h-10v-3zm1.5 1a0.50005 0.50005 0 1 0 0 1h7a0.50005 0.50005 0 1 0 0-1h-7z" color="#000000" color-rendering="auto" dominant-baseline="auto" fill="#303030" fill-rule="evenodd" image-rendering="auto" shape-rendering="auto" solid-color="#000000" style="font-feature-settings:normal;font-variant-alternates:normal;font-variant-caps:normal;font-variant-ligatures:normal;font-variant-numeric:normal;font-variant-position:normal;isolation:auto;mix-blend-mode:normal;shape-padding:0;text-decoration-color:#000000;text-decoration-line:none;text-decoration-style:solid;text-indent:0;text-orientation:mixed;text-transform:none;white-space:normal"/>
</svg>
