<svg width="16" height="16" enable-background="new" version="1.1" xmlns="http://www.w3.org/2000/svg" xmlns:osb="http://www.openswatchbook.org/uri/2009/osb">
<title>Pop Symbolic Icon Theme</title>
<g transform="translate(-305 215.03)" fill="#303030">
<path d="m313.5-210c-1.3807 0-2.5 1.1193-2.5 2.5s1.1193 2.5 2.5 2.5 2.5-1.1193 2.5-2.5-1.1193-2.5-2.5-2.5zm0 1c0.82843 0 1.5 0.67157 1.5 1.5s-0.67157 1.5-1.5 1.5-1.5-0.67157-1.5-1.5 0.67157-1.5 1.5-1.5z"/>
<rect x="312" y="-204" width="3" height="1"/>
<rect x="312" y="-202" width="3" height="1"/>
<rect transform="rotate(-45)" x="366.91" y="68.451" width="3" height="1"/>
<rect transform="rotate(-45)" x="366.91" y="70.451" width="3" height="1"/>
<rect transform="rotate(45)" x="73.451" y="-374.91" width="3" height="3"/>
</g>
</svg>
