<svg width="16px" height="16px" version="1.1" viewBox="0 0 16 16" xmlns="http://www.w3.org/2000/svg">
<title>folder-desktop-symbolic</title>
<desc>Created with Sketch.</desc>
<g fill="#303030">
<path d="m3.2188 1c-0.66992 0-1.2188 0.55716-1.2188 1.2188v11.564c0.0045995 0.66726 0.55572 1.2215 1.2246 1.2168h8.5547c0.6695 0 1.2207-0.55456 1.2207-1.2227v-5.2617l-0.71484-0.72266v-1.0312l0.71484-0.7207v-1.8223l-1.8945-2.4531c-0.3735-0.48319-0.94373-0.76562-1.5566-0.76562zm0 1.0039h6.3301c0.17957 0 0.64776 0.23206 0.75977 0.37695l1.6855 2.1816v1.0645l-0.71289 0.72266v1.8574l0.71289 0.7207v4.8496c0 0.12605-0.08903 0.2168-0.21484 0.2168h-8.5605c-0.11971 8.49e-4 -0.21395-0.086606-0.21484-0.2168l0.0019532-11.559c0-0.12967 0.07749-0.21484 0.21289-0.21484z" color="#000000" color-rendering="auto" dominant-baseline="auto" image-rendering="auto" shape-rendering="auto" solid-color="#000000" style="font-feature-settings:normal;font-variant-alternates:normal;font-variant-caps:normal;font-variant-ligatures:normal;font-variant-numeric:normal;font-variant-position:normal;isolation:auto;mix-blend-mode:normal;shape-padding:0;text-decoration-color:#000000;text-decoration-line:none;text-decoration-style:solid;text-indent:0;text-orientation:mixed;text-transform:none;white-space:normal"/>
<path d="m5 3h1v2h-1z" fill-rule="evenodd" stroke-width="1.0392"/>
<path d="m5 7v6h5v-6zm1 1h3v4h-3z" color="#000000" color-rendering="auto" dominant-baseline="auto" image-rendering="auto" shape-rendering="auto" solid-color="#000000" style="font-feature-settings:normal;font-variant-alternates:normal;font-variant-caps:normal;font-variant-ligatures:normal;font-variant-numeric:normal;font-variant-position:normal;isolation:auto;mix-blend-mode:normal;shape-padding:0;text-decoration-color:#000000;text-decoration-line:none;text-decoration-style:solid;text-indent:0;text-orientation:mixed;text-transform:none;white-space:normal"/>
<path d="m7 3h1v2h-1z" fill-rule="evenodd" stroke-width="1.0392"/>
<path d="m9 3h1v2h-1z" fill-rule="evenodd" stroke-width="1.0392"/>
</g>
</svg>
