<svg enable-background="new 0 0 16 16" version="1.1" viewBox="0 0 16 16" xml:space="preserve" xmlns="http://www.w3.org/2000/svg">
<path d="m13.987 12.933-1.902-6.722c-0.032-0.112-0.023-0.232 0.024-0.339l1.853-4.169c0.147-0.331-0.095-0.703-0.456-0.703h-11c-0.362 0-0.604 0.372-0.458 0.703l1.853 4.168c0.048 0.107 0.056 0.228 0.024 0.34l-1.9 6.651-1e-3 0.138h-0.019v1.5c0 0.276 0.224 0.5 0.5 0.5h11c0.276 0 0.5-0.224 0.5-0.5v-1.431c0-0.046-6e-3 -0.091-0.018-0.136zm-10.961 0.067 2-6.837h5.961l2 6.837z" fill="#303030"/><polygon points="11.005 12 10.005 7 6.005 7 5.005 12" fill="#303030"/>
</svg>
