<svg width="16" height="16" version="1.1" viewBox="0 0 16 16" xmlns="http://www.w3.org/2000/svg">
<title>configure</title>
<g id="system-run" transform="translate(-4.041 -2.9922)" fill="#303030" fill-rule="evenodd">
<g transform="translate(-43,-43)" fill="#303030" fill-rule="nonzero">
<path id="Combined-Shape" d="m51.189 47.066 0.45312 0.65234c0.26359-0.04587 0.53306-0.04653 0.79688-2e-3l0.45117-0.65039 1.2988 0.75-0.33789 0.7168c0.086 0.10263 0.16311 0.2124 0.23047 0.32812 0.06619 0.11611 0.12238 0.23764 0.16797 0.36328l0.79102 0.06445v1.5l-0.79102 0.066457c-0.09275 0.25075-0.22748 0.4839-0.39844 0.68945l0.33789 0.71875-1.2988 0.75-0.45312-0.6543c-0.26295 0.04565-0.53175 0.04631-0.79492 2e-3l-0.45312 0.65234-1.2988-0.75195 0.33789-0.71484c-0.085329-0.10275-0.16178-0.21252-0.22852-0.32817-0.066188-0.11611-0.12238-0.23764-0.16797-0.36328l-0.79102-0.06641v-1.5l0.79102-0.06641c0.09215-0.25062 0.22622-0.48375 0.39648-0.68945l-0.33789-0.7168zm-0.58588 2.9745c0.07143 0.20609 0.11576 0.33236 0.13299 0.3788 0.02585 0.06967 0.10173 0.25369 0.13728 0.31848 0.0237 0.04319 0.08817 0.12796 0.19339 0.25432l0.2482 0.29614c0.27589 0.05039 0.46994 0.08404 0.58217 0.10094 0.11222 0.0169 0.24866 0.0084 0.4093-0.02534l0.45535-0.07559 0.14145-0.16554c0.15302-0.17855 0.24288-0.28828 0.26956-0.32921 0.02668-0.04093 0.07594-0.13583 0.14778-0.28471l0.07903-0.23163 0.08577-0.23665-0.19165-0.53494c-0.05471-0.09677-0.09502-0.16989-0.12093-0.21936-0.02591-0.04947-0.08078-0.11864-0.16461-0.2075-0.1635-0.1872-0.24564-0.2818-0.2464-0.28377-0.3757-0.08304-0.65828-0.11462-0.75414-0.11462-0.0639 0-0.15686 0.01304-0.27886 0.03911l-0.41383 0.07552c-0.13086 0.15365-0.23566 0.27916-0.31441 0.37656-0.07874 0.09739-0.14633 0.20875-0.20274 0.33408z"/>
<path id="Path" d="m52.02 49.184c0.31366-0.0079 0.60659 0.15613 0.76367 0.42773 0.23592 0.40994 0.0952 0.9335-0.31445 1.1699-0.40943 0.23625-0.93283 0.09644-1.1699-0.3125-0.11408-0.19681-0.14525-0.4309-0.08664-0.65071 0.05861-0.2198 0.2022-0.40729 0.39914-0.52117 0.12445-0.07132 0.2648-0.11027 0.4082-0.11328z"/>
<path d="m55.594 54.027-0.59674 0.22095c-0.31137 0.11529-0.60086 0.28268-0.85611 0.49503l-0.48975 0.40744-0.94099-0.44363-0.33018 0.57214 0.85506 0.59362-0.10994 0.62926c-0.02848 0.163-0.04309 0.32811-0.04367 0.49034-5.5e-5 0.16639 0.01407 0.33249 0.04222 0.49648l0.10777 0.62779-0.85127 0.59052 0.33004 0.5719 0.93466-0.44056 0.48919 0.40381c0.25634 0.2116 0.54683 0.37802 0.85902 0.49212l0.60044 0.21945 0.08613 1.0381h0.65917l0.08585-1.0333 0.59666-0.22092c0.31137-0.11529 0.60086-0.28268 0.85611-0.49503l0.48975-0.40744 0.94099 0.44363 0.33018-0.57214-0.85676-0.5948 0.11214-0.63097c0.02905-0.16343 0.04415-0.32904 0.04512-0.48601-5.08e-4 -0.16595-0.01512-0.33156-0.04368-0.49503l-0.10998-0.62951 0.85297-0.5917-0.33004-0.5719-0.93498 0.44071-0.48926-0.40429c-0.2559-0.21146-0.54588-0.37787-0.85756-0.49212l-0.59872-0.21947-0.08767-1.0398h-0.6603zm-0.83459-2.0352h2.5l0.11133 1.3203c0.41811 0.15326 0.80711 0.3765 1.1504 0.66016l1.1934-0.5625 1.25 2.166-1.084 0.75195c0.03831 0.21929 0.05791 0.44145 0.05859 0.66406-0.0013 0.22267-0.02158 0.44482-0.06055 0.66406l1.0859 0.75391-1.25 2.166-1.1973-0.56445c-0.3424 0.28486-0.73075 0.50941-1.1484 0.66406l-0.10938 1.3164h-2.5l-0.10938-1.3184c-0.4188-0.15306-0.80848-0.3763-1.1523-0.66016l-1.1934 0.5625-1.25-2.166 1.084-0.75195c-0.03777-0.21999-0.05671-0.4428-0.05664-0.66602 7.92e-4 -0.22196 0.02039-0.44346 0.05859-0.66211l-1.0859-0.75391 1.25-2.166 1.1973 0.56445c0.3424-0.28486 0.73075-0.50941 1.1484-0.66406z"/>
<path d="m56.01 55.564c0.37893-2.88e-4 0.74244 0.14998 1.0106 0.41774 0.26812 0.26776 0.41889 0.63107 0.41912 1.01 2.89e-4 0.37926-0.15025 0.74308-0.41843 1.0113s-0.632 0.41872-1.0113 0.41843c-0.37893-2.3e-4 -0.74224-0.15099-1.01-0.41912-0.26776-0.26812-0.41802-0.63164-0.41774-1.0106 4.77e-4 -0.78832 0.63942-1.4273 1.4277-1.4277z"/>
</g>
</g>
</svg>
