<svg version="1.1" viewBox="0 0 16 16" xmlns="http://www.w3.org/2000/svg">
<defs>
<style id="current-color-scheme" type="text/css">.ColorScheme-Text {
        color:#232629;
      }</style>
</defs>
<path d="m12 14v-4h2.5527c0.2288 0 0.44727-0.22948 0.44727-0.5 0-0.22104-0.19606-0.42741-0.53634-0.5h-2.4637v-4h-4v-2.5508c0-0.22994-0.22991-0.44922-0.5-0.44922s-0.5 0.21928-0.5 0.44922v2.5508h-4v2h0.44922c1.354 0 2.5508 1.1439 2.5508 2.5 0 1.3559-1.1969 2.5-2.5508 2.5h-0.44922v2h2.0001c0.00633-1.8345 0.54109-2.9462 2.4723-2.9996 1.0742-0.02971 1.8612 0.45987 2.2452 1.3115 0.22964 0.50927 0.28095 0.95826 0.28242 1.6881zm-4.5-13c0.8023 0 1.5 0.64682 1.5 1.4492v1.5508h3.1387c0.535 0 0.86133 0.32643 0.86133 0.86133v3.1387h1.5527c0.793 0.1233 1.4473 0.6977 1.4473 1.5 0 0.802-0.64527 1.5-1.4473 1.5h-1.5527v3.0332c0 0.535-0.32633 0.9668-0.86133 0.9668h-3.1387v-0.9668c0-0.742-0.0175-2.0742-1.5-2.0332s-1.5 1.2312-1.5 2.0332v0.9668h-3.0352c-0.5349 0-0.96484-0.4318-0.96484-0.9668v-3.0332h1.4492c0.8023 0 1.5508-0.698 1.5508-1.5 0-0.8023-0.74848-1.5-1.5508-1.5h-1.4492v-3.1387c0-0.5349 0.42994-0.86133 0.96484-0.86133h3.0352v-1.5508c0-0.8024 0.6977-1.4492 1.5-1.4492z" fill="#303030"/>
</svg>
