<svg width="16" height="16" version="1.1" xmlns="http://www.w3.org/2000/svg">
<g transform="translate(-4 -3.0039)" fill="#303030">
<path d="m7.0898 14.82c-0.60192 0-1.0898 0.48845-1.0898 1.0918 0 0.60201 0.48888 1.0918 1.0898 1.0918 0.60163 0 1.0918-0.49045 1.0918-1.0918 0-0.60274-0.48916-1.0918-1.0918-1.0918zm9e-7 -1c1.1546 0 2.0918 0.9365 2.0918 2.0918 0 1.1529-0.93716 2.0918-2.0918 2.0918-1.1546 0-2.0898-0.9389-2.0898-2.0918 0-1.1552 0.93524-2.0918 2.0898-2.0918zm-2.0898-5.8203c5.5228 0 10 4.4772 10 10h-1c0-4.9706-4.0294-9-9-9z"/>
<path d="m6 4c7.1797 0 13 5.8203 13 13 0 0.33667-0.0128 0.67034-0.03793 1.0006l-1.0032-1.03e-4c0.027225-0.32989 0.041109-0.66356 0.041109-1.0005 0-6.6274-5.3726-12-12-12-0.33667 0-0.67011 0.013865-0.99977 0.041055l-8.02e-5 -1.0032c0.32999-0.025099 0.66343-0.037878 0.99985-0.037878z"/>
</g>
</svg>
