<svg width="16" height="16" version="1.1" xmlns="http://www.w3.org/2000/svg">
<g id="view-certificate" transform="translate(-4 -3.9999)" fill="#303030" fill-rule="evenodd">
<g transform="translate(4,5)" fill="#303030" fill-rule="nonzero">
<g fill="#303030">
<path id="Path" d="m0 0c5.333-0.0016731 10.667 0.006234 16 0v14c-8.6667-2e-3 -14-2e-3 -16 0zm15 13v-11.999c-1.4666 0.00126-3.0201 0.00163-4.8184 0.00132-1.0335-1.771e-4 -1.8602-4.678e-4 -3.7203-0.0012337-2.6163-0.0010773-4.0555-0.0014991-5.4613-0.0013608v12c2.3982-0.0012 7.0647-0.0011 14 4.88e-4z"/>
<polygon points="15 3 9 3 9 2 15 2"/>
<path d="m3 7.998h3v-1h-1v-2.5c0-0.27776-0.22065-0.49805-0.5-0.49805-0.27937 0-0.5 0.22026-0.5 0.49805v2.5h-1zm1.5-4.998c0.831 0 1.5 0.66737 1.5 1.498v1.5h1v3h-5v-3h1v-1.5c0-0.83073 0.669-1.498 1.5-1.498z"/>
<rect id="Rectangle" x="4" y="6" width="1" height="1"/>
<polygon points="15 5.998 9 5.998 9 4.998 15 4.998"/>
</g>
</g>
</g>
</svg>
