<svg width="16" height="16" version="1.1" xmlns="http://www.w3.org/2000/svg">
<path d="m9 3v11h1v-0.76953c0.54919 0.49399 1.2613 0.76799 2 0.76953 1.6569 0 3-1.3431 3-3s-1.3431-3-3-3c-0.73841 1e-3 -1.4505 0.2743-2 0.76758v-5.7676h-1zm3 6c1.1046 0 2 0.89543 2 2s-0.89543 2-2 2-2-0.89543-2-2 0.89543-2 2-2z" fill="#303030"/>
<path d="m4 8c-1.6569 0-3 1.3431-3 3s1.3431 3 3 3c0.73841-1e-3 1.4505-0.2743 2-0.76758v0.76758h1v-6h-1v0.76953c-0.54919-0.49399-1.2613-0.76799-2-0.76953zm0 1c1.1046 0 2 0.89543 2 2s-0.89543 2-2 2-2-0.89543-2-2 0.89543-2 2-2z" fill="#303030"/>
</svg>
