<svg width="16" height="16" version="1.1" xmlns="http://www.w3.org/2000/svg">
<g transform="translate(.99609 1.965)" fill="#303030">
<path d="m1.8603 1.2634c-0.068378 0.22502-0.13491 0.44313-0.27028 0.88658-0.098738 0.32375-0.13932 0.45704-0.19694 0.64708-0.13084 0.43151-0.24036 0.79712-0.32799 1.0892l-0.061151 0.26342v7.8855h11v-7.8806l-0.069232-0.28567c-0.10518-0.33144-0.19269-0.61891-0.36244-1.1851-0.029665-0.098968-0.029665-0.098968-0.059275-0.1977-0.21837-0.72784-0.34778-1.1447-0.45908-1.4901 0.01117 0.022242 3e-3 0.026521-0.061 0.033425l-0.10727 0.00577h-8.9852c0.020597 0.015744-0.00517 0.073115-0.040169 0.22825zm-0.086264-1.2282h9.1116c0.4219-0.04552 0.87496 0.09312 1.0737 0.53125 0.33182 0.9822 0.6145 2.0103 0.92857 3l0.11607 0.46875v8c0 0.554-0.41414 1-0.92857 1h-11.143c-0.51443 0-0.92857-0.446-0.92857-1v-8l0.087054-0.375c0.26288-0.8941 0.54159-1.796 0.8125-2.6875 0.093043-0.45761 0.40784-0.8948 0.87054-0.9375z"/>
<path d="m2.693 2h7.6048c0.09629 0.32301 0.19788 0.66784 0.29591 1h-8.1914c0.096918-0.33377 0.19234-0.66405 0.29069-1z"/>
<polygon points="6.004 8 6.004 5.035 7.004 5.035 7.004 8 9 8 6.504 11 4 8"/>
</g>
</svg>
