<svg width="16" height="16" version="1.1" xmlns="http://www.w3.org/2000/svg">
<g id="view-list-video" transform="translate(-3,-4)" fill="#303030" fill-rule="evenodd">
<g transform="translate(4,7)" fill="#303030" fill-rule="nonzero">
<path id="Path" d="m0.99013 0.97926c0.009499-0.011312 0.025524-0.024508 0.029294-0.032048-0.00592 0.011847-0.010781 0.029141-0.014156 0.041424zm0.0098663 8.0207c0 0.044674-0.037708-0.011888-0.052786-0.019427 0.023695 0.011847 0.069174 0.019427 0.052786 0.019427h9c0.0063 0.01291 0.0063-2.6538 0-8 0 0.016387-0.00758-0.029092-0.019427-0.052786 0.0075391 0.015079 0.064101 0.052786 0.019427 0.052786h-9c0.00126 6.138e-4 0.00126 2.6673 0 8zm0-9h9c1 0 1 1 1 1v8c0 1-1 1-1 1h-9s-1 0-1-1v-8s0-1 1-1z"/>
<path id="Combined-Shape" d="m11 5 4-3.5v7.5zm1.4942 0.080976 1.4984 1.4881v-2.8787z"/>
</g>
</g>
</svg>
