<svg width="16" height="16" version="1.1" xmlns="http://www.w3.org/2000/svg">
<g id="view-calendar-month" transform="translate(-3.9953 -3)" fill="#303030" fill-rule="evenodd">
<g transform="translate(5,4)" fill="#303030" fill-rule="nonzero">
<path id="Combined-Shape" d="m2 0h10c0.0012 0 2 0 2 2v12h-14v-12c0.0082596 0-0.24159-2 2-2zm0 1c-0.55228 0-1 0.44772-1 1v11h12v-11c0-0.55228-0.44772-1-1-1z"/>
<polygon id="Path" points="5 5 5 3 3 3 3 5"/>
<polygon points="8 5 8 3 6 3 6 5"/>
<polygon points="11 5 11 3 9 3 9 5"/>
<polygon points="5 8 5 6 3 6 3 8"/>
<polygon points="8 8 8 6 6 6 6 8"/>
<polygon points="11 8 11 6 9 6 9 8"/>
<polygon points="5 11 5 9 3 9 3 11"/>
<polygon points="8 11 8 9 6 9 6 11"/>
<polygon points="11 11 11 9 9 9 9 11"/>
</g>
</g>
</svg>
