<svg width="16" height="16" version="1.1" xmlns="http://www.w3.org/2000/svg">
<g transform="translate(1,1)" fill="#303030">
<path d="m12 0.0097656c1.108 0 2 0.892 2 2v10c0 1.108-0.892 2-2 2h-10c-1.108 0-2-0.892-2-2v-10c0-1.108 0.892-2 2-2zm0 0.99023h-10c-0.55228 0-1 0.44772-1 1v10c0 0.55228 0.44772 1 1 1h10c0.55228 0 1-0.44772 1-1v-10c0-0.55228-0.44772-1-1-1z"/>
<path d="m7 3c2.2091 0 4 1.7909 4 4v0.5c0 0.82843-0.67157 1.5-1.5 1.5-0.44291 2.2e-4 -0.86331-0.19628-1.1484-0.53516-0.35639 0.32873-0.82844 0.53516-1.3516 0.53516-1.1046 0-2-0.89543-2-2s0.89543-2 2-2 2 0.89543 2 2v0.5c0 0.27614 0.22386 0.5 0.5 0.5s0.5-0.22386 0.5-0.5v-0.5c0-1.6569-1.3431-3-3-3s-3 1.3431-3 3c0 1.6568 1.3431 3 3 3h2.5s0.5 0 0.5 0.5c-0.0312 0.5-0.5 0.5-0.5 0.5h-2.5c-2.2091 0-4-1.7909-4-4s1.7909-4 4-4zm0 3c-0.55229 0-1 0.44772-1 1s0.44771 1 1 1 1-0.44772 1-1-0.44771-1-1-1z"/>
</g>
</svg>
