<svg width="16" height="16" version="1.1" xmlns="http://www.w3.org/2000/svg">
<path d="m3 2.0031v11.994h8.9895c2.69e-4 -0.0023 7.62e-4 -0.04545 0.0015-0.1293 0.0043-0.0358 0.0046-0.06888 5e-3 -0.127 0.0013-0.18995 0.0022-0.46558 0.0028-0.82086 0.0011-0.64402 0.0011-1.5394 2.57e-4 -2.645-0.0012-1.536-0.0037-3.1575-0.0075-5.1301l-3.0834-3.1419zm-0.083336-1h6.4112l3.6629 3.7324c0.0046 2.3762 0.01742 9.2848 0 9.3278 0 0-9.17e-4 0.934-0.91666 0.934h-9.1575s-0.91666-1e-3 -0.91666-0.934v-12.127c0-0.69964 0.51572-0.88987 0.77342-0.93359z" fill="#303030"/>
</svg>
