<svg width="16" height="16" version="1.1" xmlns="http://www.w3.org/2000/svg">
<path d="m4.5 10.33c1.6753 0.08972 1.7485 1.0144 1.7502 1.6132l-1.934e-4 0.13684c0 1.1681-1.7502 2.9199-5.25 2.9199 2.6249-1.5135 1.889e-4 -3.7297 3.5-4.668zm0.50403 1.0958c-0.39642-0.13437-0.42148-0.07917-0.99259 0.13437-0.62416 0.24868-0.58964 0.94599-0.62911 1.2493-0.021121 0.22945-0.14976 0.87615-0.14976 0.87615 0.86994-0.2654 1.5144-0.69667 1.9334-1.2938 0.15628-0.55444 0.10229-0.87645-0.16199-0.96602zm4.8219-4.1895c1.4481-1.4487 2.6732-2.9285 3.4376-4.1301 0.21261-0.3342 0.38265-0.63671 0.50648-0.89651-1.0809 0.53816-3.0797 2.0427-5.0022 3.9659-0.86766 0.86819-1.6264 1.7042-2.2613 2.4937 0.31217 0.23439 0.59029 0.51252 0.82463 0.82469 0.79688-0.63919 1.6352-1.398 2.4948-2.2576zm4.7483-6.2305c0.12309 0.01579 0.21886 0.06016 0.28906 0.13086 0.68298 0.6838-1.2556 3.7308-4.3301 6.8066-1.2089 1.2089-2.4065 2.2531-3.5332 3.0566-0.29979-0.9418-1.0585-1.7-2-2 0.80328-1.1271 1.8521-2.322 3.0605-3.5312 2.7099-2.711 5.4596-4.5958 6.5137-4.4629z" fill="#303030"/>
</svg>
