<svg width="16" height="16" version="1.1" xmlns="http://www.w3.org/2000/svg">
<g id="view-presentation" transform="translate(-4 -3.0039)" fill="#303030" fill-rule="evenodd">
<g transform="translate(4,4)" fill="#303030" fill-rule="nonzero">
<path id="Path" d="m14.553 11.858c0.2973-0.14868 0.44715-0.37348 0.44727-0.85567v-9.0021c5.35e-4 -0.1056-0.038789-0.34165-0.14431-0.55274-0.14865-0.29736-0.37334-0.44714-0.85569-0.44714h-12c-0.482 0-0.70669 0.1498-0.85546 0.44729-0.10564 0.21125-0.14452 0.44427-0.14454 0.55271v9.002c0 0.10861 0.03883 0.34159 0.14443 0.55279 0.14871 0.29742 0.3734 0.44721 0.85557 0.44721h12c0.10555 5.37e-4 0.34156-0.03879 0.5526-0.14433zm-12.553-11.858h12c2.0004 0 2 2 2 2v9.002c-5e-4 2.0004-2 2-2 2h-12c-2 0-2-2-2-2v-9.002s4e-4 -2 2-2z"/>
<path d="m6 5.9819v2.1084l1.4959-0.98033 1.7171-1.2173-1.7531-1.1254-1.4598-0.91491zm-1-3.9819 6 3.8516-2.9258 2.0742-3.0742 2.0742v-4z"/>
<path d="m3.9785 14.002s-0.97852 0.0017-0.97852 1.002v-0.003906h10v0.0039c0-1.0002-1-1.002-1-1.002z"/>
</g>
</g>
</svg>
