<svg width="16" height="16" enable-background="new" version="1.1" xmlns="http://www.w3.org/2000/svg" xmlns:osb="http://www.openswatchbook.org/uri/2009/osb">
<title>Pop Symbolic Icon Theme</title>
<path d="m14.997 8.0002c0 0.554-0.446 1-1 1h-1.5938l-6.1914-6.1914-0.24609-0.74609c-0.26171-1.0469-0.2647-1.0625 0.53125-1.0625 0.43199 0 0.43388 0.0117 0.71875 0.5l3.6875 5.5h3.0938c0.554 0 1 0.446 1 1zm-4.6211 1.7852-3.1602 4.7148c-0.2665 0.45685-0.2833 0.49822-0.65625 0.5h-0.0625c-0.79399-9.7e-4 -0.78071-0.0333-0.53125-1.0312l1.625-4.9688h-4.5l-1.2188 1.7812c-0.13925 0.20883-0.1227 0.21873-0.34375 0.21875h-0.21875c-0.42773 0-0.28125-0.4375-0.28125-0.4375l0.28125-2.5625-0.28125-2.5625s-0.13986-0.43749 0.25-0.4375h0.25c0.21159 0 0.20423 9e-3 0.34375 0.21875l1.2188 1.7812h4.5z" fill="#303030" opacity=".5"/>
<rect transform="rotate(45)" x="2.3179" y="-.99473" width="17.987" height="1.9944" ry=".99718" enable-background="new" fill="#303030"/>
</svg>
