<svg width="16" height="16" version="1.1" xmlns="http://www.w3.org/2000/svg">
<g fill="#303030">
<path d="m7.9998 0.98048-0.34375 0.32422c-1.5518 1.4632-4.5069 2.6575-5.2773 2.8496l-0.37891 0.095703v0.39062c0 2.2509 0.52828 4.6016 1.5176 6.5156 0.9893 1.914 2.4653 3.4217 4.3848 3.8047l0.097656 0.01953 0.097656-0.01953c1.9195-0.38296 3.3955-1.8907 4.3848-3.8047s1.5176-4.2647 1.5176-6.5156v-0.39062l-0.37891-0.095703c-0.77049-0.19215-3.7256-1.3864-5.2773-2.8496zm0 1.2793c1.6455 1.4094 3.8092 2.3545 4.9629 2.7031-0.04852 1.9968-0.51184 4.0796-1.3672 5.7344-0.88006 1.7026-2.1248 2.892-3.5957 3.2305-1.4709-0.33849-2.7156-1.5278-3.5957-3.2305-0.85534-1.6548-1.3187-3.7376-1.3672-5.7344 1.1537-0.34864 3.3173-1.2937 4.9629-2.7031z" color="#000000" color-rendering="auto" dominant-baseline="auto" image-rendering="auto" shape-rendering="auto" solid-color="#000000" style="font-feature-settings:normal;font-variant-alternates:normal;font-variant-caps:normal;font-variant-ligatures:normal;font-variant-numeric:normal;font-variant-position:normal;isolation:auto;mix-blend-mode:normal;shape-padding:0;text-decoration-color:#000000;text-decoration-line:none;text-decoration-style:solid;text-indent:0;text-orientation:mixed;text-transform:none;white-space:normal"/>
<path d="M 8,5 C 8.6179,5.0016 9.2202,5.194 9.7246,5.5508 L 10,5 11,7 H 9 L 9.2695,6.4609 C 8.9126,6.1647 8.4638,6.0018 8,6 6.8954,6 6,6.8954 6,8 H 5 C 5,6.3431 6.3431,5 8,5 Z"/>
<path d="m10 8h1c0 1.6569-1.3431 3-3 3-0.6179-2e-3 -1.2202-0.194-1.7246-0.551l-0.2754 0.551-1-2h2l-0.2695 0.5391c0.3569 0.2962 0.8057 0.4591 1.2695 0.4609 1.1046 0 2-0.8954 2-2z"/>
</g>
</svg>
