<svg width="16" height="16" version="1.1" xmlns="http://www.w3.org/2000/svg">
<path d="m8 1-0.34375 0.32422c-1.5518 1.4632-4.5069 2.6575-5.2773 2.8496l-0.37891 0.095703v0.39062c0 2.2509 0.52828 4.6016 1.5176 6.5156 0.9893 1.914 2.4653 3.4217 4.3848 3.8047l0.097656 0.019531 0.097656-0.019531c1.9195-0.38296 3.3955-1.8907 4.3848-3.8047 0.9893-1.914 1.5176-4.2647 1.5176-6.5156v-0.39062l-0.37891-0.095703c-0.77049-0.19215-3.7256-1.3864-5.2773-2.8496zm0 1.2793c1.6455 1.4094 3.8092 2.3545 4.9629 2.7031-0.04852 1.9968-0.51184 4.0796-1.3672 5.7344-0.88006 1.7026-2.1248 2.892-3.5957 3.2305-1.4709-0.33849-2.7156-1.5278-3.5957-3.2305-0.85534-1.6548-1.3187-3.7376-1.3672-5.7344 1.1537-0.34864 3.3173-1.2937 4.9629-2.7031z" color="#000000" color-rendering="auto" dominant-baseline="auto" fill="#303030" image-rendering="auto" shape-rendering="auto" solid-color="#000000" style="font-feature-settings:normal;font-variant-alternates:normal;font-variant-caps:normal;font-variant-ligatures:normal;font-variant-numeric:normal;font-variant-position:normal;isolation:auto;mix-blend-mode:normal;shape-padding:0;text-decoration-color:#000000;text-decoration-line:none;text-decoration-style:solid;text-indent:0;text-orientation:mixed;text-transform:none;white-space:normal"/>
<path d="m5 5h1l2 2 2-2h1v1l-2 2 2 2v1h-1l-2-2-2 2h-1v-1l2-2-2-2z" fill="#303030"/>
</svg>
