<svg width="16px" height="16px" version="1.1" viewBox="0 0 16 16" xmlns="http://www.w3.org/2000/svg">
<title>audio-volume-high</title>
<path d="m7.4863 2.0021a0.50005 0.50005 0 0 0-0.33984 0.14453l-2.8535 2.8535h-2.793a0.50005 0.50005 0 0 0-0.5 0.5v5a0.50005 0.50005 0 0 0 0.5 0.5h2.793l2.8535 2.8535a0.50005 0.50005 0 0 0 0.85352-0.35352v-11a0.50005 0.50005 0 0 0-0.51367-0.49805z" color="#000000" color-rendering="auto" dominant-baseline="auto" fill="#303030" fill-rule="evenodd" image-rendering="auto" shape-rendering="auto" solid-color="#000000" style="font-feature-settings:normal;font-variant-alternates:normal;font-variant-caps:normal;font-variant-ligatures:normal;font-variant-numeric:normal;font-variant-position:normal;isolation:auto;mix-blend-mode:normal;shape-padding:0;text-decoration-color:#000000;text-decoration-line:none;text-decoration-style:solid;text-indent:0;text-orientation:mixed;text-transform:none;white-space:normal"/>
<desc>Created with Sketch.</desc>
<polygon points="16 0 0 0 0 16 16 16" fill="#303030" opacity="0"/>
<g fill="#303030" shape-rendering="auto">
<path d="m9.4922 5.9922a0.50005 0.50005 0 0 0-0.49219 0.50781v3a0.50005 0.50005 0 1 0 1 0v-3a0.50005 0.50005 0 0 0-0.50781-0.50781z" color="#000000" color-rendering="auto" dominant-baseline="auto" image-rendering="auto" solid-color="#000000" style="font-feature-settings:normal;font-variant-alternates:normal;font-variant-caps:normal;font-variant-ligatures:normal;font-variant-numeric:normal;font-variant-position:normal;isolation:auto;mix-blend-mode:normal;shape-padding:0;text-decoration-color:#000000;text-decoration-line:none;text-decoration-style:solid;text-indent:0;text-orientation:mixed;text-transform:none;white-space:normal"/>
<path d="m11.492 4.9922a0.50005 0.50005 0 0 0-0.49219 0.50781v5a0.50005 0.50005 0 1 0 1 0v-5a0.50005 0.50005 0 0 0-0.50781-0.50781z" color="#000000" color-rendering="auto" dominant-baseline="auto" image-rendering="auto" solid-color="#000000" style="font-feature-settings:normal;font-variant-alternates:normal;font-variant-caps:normal;font-variant-ligatures:normal;font-variant-numeric:normal;font-variant-position:normal;isolation:auto;mix-blend-mode:normal;shape-padding:0;text-decoration-color:#000000;text-decoration-line:none;text-decoration-style:solid;text-indent:0;text-orientation:mixed;text-transform:none;white-space:normal"/>
<path d="m13.492 3.9922a0.50005 0.50005 0 0 0-0.49219 0.50781v7a0.50005 0.50005 0 1 0 1 0v-7a0.50005 0.50005 0 0 0-0.50781-0.50781z" color="#000000" color-rendering="auto" dominant-baseline="auto" fill-rule="evenodd" image-rendering="auto" solid-color="#000000" style="font-feature-settings:normal;font-variant-alternates:normal;font-variant-caps:normal;font-variant-ligatures:normal;font-variant-numeric:normal;font-variant-position:normal;isolation:auto;mix-blend-mode:normal;shape-padding:0;text-decoration-color:#000000;text-decoration-line:none;text-decoration-style:solid;text-indent:0;text-orientation:mixed;text-transform:none;white-space:normal"/>
<path d="m8.9863 10.537a0.50005 0.50005 0 0 0-0.20312 0.95117l4.4824 2.2168a0.50006 0.50006 0 1 0 0.44336-0.89648l-4.4824-2.2168a0.50005 0.50005 0 0 0-0.24023-0.05469z" color="#000000" color-rendering="auto" dominant-baseline="auto" image-rendering="auto" solid-color="#000000" style="font-feature-settings:normal;font-variant-alternates:normal;font-variant-caps:normal;font-variant-ligatures:normal;font-variant-numeric:normal;font-variant-position:normal;isolation:auto;mix-blend-mode:normal;shape-padding:0;text-decoration-color:#000000;text-decoration-line:none;text-decoration-style:solid;text-indent:0;text-orientation:mixed;text-transform:none;white-space:normal"/>
<path d="m13.492 2.082a0.50005 0.50005 0 0 0-0.22656 0.054688l-4.4824 2.2168a0.50006 0.50006 0 1 0 0.44336 0.89648l4.4824-2.2168a0.50005 0.50005 0 0 0-0.2168-0.95117z" color="#000000" color-rendering="auto" dominant-baseline="auto" image-rendering="auto" solid-color="#000000" style="font-feature-settings:normal;font-variant-alternates:normal;font-variant-caps:normal;font-variant-ligatures:normal;font-variant-numeric:normal;font-variant-position:normal;isolation:auto;mix-blend-mode:normal;shape-padding:0;text-decoration-color:#000000;text-decoration-line:none;text-decoration-style:solid;text-indent:0;text-orientation:mixed;text-transform:none;white-space:normal"/>
</g>
</svg>
