<svg width="16" height="16" enable-background="new" version="1.1" xmlns="http://www.w3.org/2000/svg" xmlns:osb="http://www.openswatchbook.org/uri/2009/osb">
<title>Pop Symbolic Icon Theme</title>
<defs>
<filter color-interpolation-filters="sRGB">
<feBlend in2="BackgroundImage" mode="darken"/>
</filter>
</defs>
<path d="m7.9512 2.1055c-1.6509 0-3 1.3491-3 3s1.3491 3 3 3c1.6509 0 3-1.3491 3-3 0-1.6509-1.3491-3-3-3zm0 1c1.1105 0 2 0.88956 2 2 0 1.1104-0.88951 2-2 2-1.1105 0-2-0.88956-2-2s0.88951-2 2-2z" color="#000000" color-rendering="auto" dominant-baseline="auto" enable-background="accumulate" fill="#303030" image-rendering="auto" shape-rendering="auto" solid-color="#000000" style="font-feature-settings:normal;font-variant-alternates:normal;font-variant-caps:normal;font-variant-ligatures:normal;font-variant-numeric:normal;font-variant-position:normal;isolation:auto;mix-blend-mode:normal;shape-padding:0;text-decoration-color:#000000;text-decoration-line:none;text-decoration-style:solid;text-indent:0;text-orientation:mixed;text-transform:none;white-space:normal"/>
<path d="m8 10c-2.847 0.001391-4.3965 0.85069-5.1914 1.7754-0.7949 0.9247-0.80859 1.9258-0.80859 1.9258v1.2988h12v-1.2988s-0.01373-1.0023-0.80859-1.9277c-0.79486-0.92547-2.3444-1.7747-5.1914-1.7734zm0 1c2.6528-0.0012 3.8535 0.75038 4.4336 1.4258 0.58009 0.6754 0.56641 1.2754 0.56641 1.2754v0.29883h-10v-0.29883s-0.01375-0.59854 0.56641-1.2734c0.58016-0.6749 1.7804-1.4264 4.4336-1.4277z" color="#000000" color-rendering="auto" dominant-baseline="auto" enable-background="accumulate" fill="#303030" image-rendering="auto" shape-rendering="auto" solid-color="#000000" style="font-feature-settings:normal;font-variant-alternates:normal;font-variant-caps:normal;font-variant-ligatures:normal;font-variant-numeric:normal;font-variant-position:normal;isolation:auto;mix-blend-mode:normal;shape-padding:0;text-decoration-color:#000000;text-decoration-line:none;text-decoration-style:solid;text-indent:0;text-orientation:mixed;text-transform:none;white-space:normal"/>
</svg>
