<svg width="16px" height="16px" version="1.1" viewBox="0 0 16 16" xmlns="http://www.w3.org/2000/svg">
<title>bluetooth-disable-symbolic</title>
<desc>Created with Sketch.</desc>
<path d="m7.5328 0.65234a0.50005 0.50005 0 0 0-0.28906 0.10938 0.50005 0.50005 0 0 0-0.27344 0.44727l0.0293 6.043-4.6367-2.7949a0.50005 0.50005 0 0 0-0.28711-0.076172 0.50005 0.50005 0 0 0-0.22852 0.93164l4.6562 2.8066-4.6504 2.6992a0.50015 0.50015 0 1 0 0.50195 0.86524l4.6172-2.6816 0.0293 5.8086a0.50005 0.50005 0 0 0 0.08594 0.28516 0.50005 0.50005 0 0 0 0.23047 0.18555 0.50015 0.50015 0 0 0 0.49414-0.0039l5.3809-3.125a0.50005 0.50005 0 0 0 0.23242-0.55078 0.50015 0.50015 0 0 0-0.24805-0.54492l-3.7168-2.0176-1.4785-0.89062a0.50005 0.50005 0 0 0-0.05859-0.25782l5.2695-3.0605a0.50005 0.50005 0 0 0 0.23242-0.55078 0.50015 0.50015 0 0 0-0.24805-0.54492l-3.7168-2.0176-1.6406-0.98828a0.50005 0.50005 0 0 0-0.28711-0.076172zm0.44141 1.3945 0.99219 0.53906 2.9941 1.8047-3.9629 2.3008-0.02344-4.6445zm0 7.3223 0.99219 0.53906 2.9941 1.8047-3.9629 2.3008-0.02344-4.6445z" color="#000000" color-rendering="auto" dominant-baseline="auto" fill="#303030" image-rendering="auto" opacity=".3" shape-rendering="auto" solid-color="#000000" style="font-feature-settings:normal;font-variant-alternates:normal;font-variant-caps:normal;font-variant-ligatures:normal;font-variant-numeric:normal;font-variant-position:normal;isolation:auto;mix-blend-mode:normal;shape-padding:0;text-decoration-color:#000000;text-decoration-line:none;text-decoration-style:solid;text-indent:0;text-orientation:mixed;text-transform:none;white-space:normal"/>
</svg>
