<svg width="16" height="16" version="1.1" xmlns="http://www.w3.org/2000/svg">
<path d="m0 13.203 5.2738e-4 0.547c0.0011726 1.212 1.0381 2.25 2.2499 2.25h11.5c1.212 0 2.25-1.038 2.25-2.25v-0.547c-0.532 0.485-1.225 0.797-2 0.797h-12c-0.7746 0-1.4688-0.312-2.0004-0.797z" fill="#4c5263"/>
<path d="m3 0c-1.0192-2e-4 -1.8756 0.7663-1.9883 1.7793l-0.99998 8.9997c-0.1316 1.185 0.79611 2.221 1.9883 2.221h12c1.192 0 2.12-1.036 1.988-2.221l-1-8.9997c-0.113-1.0129-0.969-1.7794-1.988-1.7793zm3.8984 2h2.3145l2.9101 9h-1.91l-0.6095-2h-3.0762l-0.6171 2h-1.9102zm1.1817 1.2969-1.0801 3.9921h2.1797z" fill="#4c5263"/>
</svg>
