<svg width="16" height="16" enable-background="new" version="1.1" xmlns="http://www.w3.org/2000/svg" xmlns:osb="http://www.openswatchbook.org/uri/2009/osb">
<title>Pop Symbolic Icon Theme</title>
<defs>
<filter color-interpolation-filters="sRGB">
<feBlend in2="BackgroundImage" mode="darken"/>
</filter>
</defs>
<g transform="translate(-605 355)" fill="#303030">
<path d="m609-353c-1.108 0-2 0.892-2 2v8c0 1.108 0.892 2 2 2h8c1.108 0 2-0.892 2-2v-4.75l-1 1.1562v3.5938c0 0.554-0.446 1-1 1h-8c-0.554 0-1-0.446-1-1v-3.9688-4.0312c0-0.554 0.446-1 1-1h8c0.12764 0 0.23171 0.0505 0.34375 0.0937l0.6875-0.8125c-0.29973-0.1788-0.65545-0.2812-1.0312-0.2812z" color="#000000" enable-background="new"/>
<path d="m619.84-352.97c-0.21888 0.0473-0.42059 0.17053-0.5625 0.34375l-6.2812 7.1875-2.25-2.25c-0.37633-0.37638-1.0612-0.3764-1.4376-5e-5 -0.37635 0.37636-0.37633 1.0612 5e-5 1.4376l3 3 0.78125 0.75 0.6875-0.8125 7-8c0.56742-0.61773-0.11583-1.8248-0.9375-1.6562z" color="#000000" enable-background="accumulate" style="text-decoration-line:none;text-indent:0;text-transform:none"/>
</g>
</svg>
