<svg width="16" height="16" version="1.1" xmlns="http://www.w3.org/2000/svg">
<g fill="#4c5263">
<path d="m8 0-0.5 1.0293c0.17-0.01 0.33-0.0293 0.5-0.0293s0.33 0.0193 0.5 0.0293zm0 2c-3.31 0-6 2.68-6 6h12c0-3.32-2.69-6-6-6zm-5.6602 0.3398 0.3809 1.0899c0.22-0.25 0.4688-0.4988 0.7188-0.7188zm11.32 0-1.099 0.3711c0.25 0.22 0.498 0.4688 0.718 0.7188zm-12.631 5.1602-1.0293 0.5h1c0-0.17 0.0193-0.34 0.0293-0.5zm13.942 0c0.01 0.16 0.029 0.33 0.029 0.5h1z"/>
<path d="m1 9h14c0.554 0 1 0.446 1 1s-0.446 1-1 1h-14c-0.554 0-1-0.446-1-1s0.446-1 1-1z"/>
<path d="m8 16 3-4h-6z"/>
</g>
</svg>
