<svg width="16.002" height="16" enable-background="new" version="1.1" xmlns="http://www.w3.org/2000/svg">
<title>Pop Symbolic Icon Theme</title>
<g fill="#4285f4">
<path d="m7.9355 0.66406c-0.49131 0.021727-0.94045 0.29236-1.1855 0.71875v0.00195l-6.5684 11.477c-0.5349 0.93344 0.17417 2.1383 1.25 2.1387h13.137c1.0758-4.46e-4 1.7829-1.2053 1.248-2.1387l-6.5684-11.477v-0.00195c-0.2679-0.46608-0.77559-0.74281-1.3125-0.71875zm0.044922 1c0.16702-0.00748 0.31939 0.077839 0.40039 0.21875l6.5684 11.477c0.1757 0.30663-0.020071 0.64048-0.38281 0.64062h-13.135c-0.36273-1.41e-4 -0.5566-0.33395-0.38086-0.64062l6.5664-11.477c0.073944-0.12864 0.21089-0.21201 0.36328-0.21875z" color="#000000" color-rendering="auto" dominant-baseline="auto" enable-background="accumulate" image-rendering="auto" shape-rendering="auto" solid-color="#000000" style="font-feature-settings:normal;font-variant-alternates:normal;font-variant-caps:normal;font-variant-ligatures:normal;font-variant-numeric:normal;font-variant-position:normal;isolation:auto;mix-blend-mode:normal;shape-padding:0;text-decoration-color:#000000;text-decoration-line:none;text-decoration-style:solid;text-indent:0;text-orientation:mixed;text-transform:none;white-space:normal"/>
<path d="m7.0011 4.0033h2v6h-2z" style="isolation:auto;mix-blend-mode:normal;text-decoration-color:#000000;text-decoration-line:none;text-decoration-style:solid;text-indent:0;text-transform:none;white-space:normal"/>
<path d="m7.0011 11.003h2v2h-2z" style="isolation:auto;mix-blend-mode:normal;text-decoration-color:#000000;text-decoration-line:none;text-decoration-style:solid;text-indent:0;text-transform:none;white-space:normal"/>
</g>
</svg>
