<svg width="16" height="16" enable-background="new" version="1.1" xmlns="http://www.w3.org/2000/svg" xmlns:osb="http://www.openswatchbook.org/uri/2009/osb">
<title>Pop Symbolic Icon Theme</title>
<defs>
<filter color-interpolation-filters="sRGB">
<feBlend in2="BackgroundImage" mode="darken"/>
</filter>
</defs>
<g fill="#4c5263" fill-rule="evenodd" shape-rendering="auto">
<path d="m7.9785 2.8776e-4c-0.37373 0.0057534-0.73223 0.15772-0.99609 0.42167l-6.5645 6.5632c-0.55709 0.55719-0.55709 1.475 0 2.0322a0.50005 0.4998 0 0 0 0 0.00195l6.5645 6.5632c0.55732 0.55696 1.4778 0.55696 2.0352 0l6.5645-6.5632a0.50005 0.4998 0 0 0 0-0.00195c0.55708-0.55719 0.55708-1.475 0-2.0322l-6.5645-6.5632c-0.27494-0.27499-0.65016-0.42761-1.0391-0.42167zm0.013672 0.9995c0.11869-0.00182 0.23244 0.044863 0.31641 0.12884l6.5664 6.5632c0.17517 0.1752 0.17517 0.44558 0 0.62079l-6.5645 6.5632c-0.1747 0.17458-0.44386 0.17348-0.61914 0h-0.00195l-6.5645-6.5632c-0.17518-0.17521-0.17518-0.44558 0-0.62079l6.5664-6.5632c0.080651-0.080676 0.18723-0.12709 0.30078-0.12884z" color="#000000" color-rendering="auto" dominant-baseline="auto" enable-background="accumulate" image-rendering="auto" solid-color="#000000" style="font-feature-settings:normal;font-variant-alternates:normal;font-variant-caps:normal;font-variant-ligatures:normal;font-variant-numeric:normal;font-variant-position:normal;isolation:auto;mix-blend-mode:normal;shape-padding:0;text-decoration-color:#000000;text-decoration-line:none;text-decoration-style:solid;text-indent:0;text-orientation:mixed;text-transform:none;white-space:normal"/>
<path d="m8 4.0001c1.1046 0 2 0.89543 2 2s-0.89543 2-2 2v1h-1v-2h1c0.55229 0 1-0.44772 1-1s-0.44771-1-1-1c-0.55228 0-1 0.44772-1 1h-1c0-1.1046 0.89543-2 2-2z" color="#000000" color-rendering="auto" enable-background="accumulate" image-rendering="auto" solid-color="#000000" style="isolation:auto;mix-blend-mode:normal;text-decoration-color:#000000;text-decoration-line:none;text-decoration-style:solid;text-indent:0;text-transform:none;white-space:normal"/>
<path d="m7.5 9.7501c0.41421 0 0.75 0.33579 0.75 0.75s-0.33579 0.75-0.75 0.75-0.75-0.33579-0.75-0.75 0.33579-0.75 0.75-0.75z" color="#000000" color-rendering="auto" enable-background="accumulate" image-rendering="auto" solid-color="#000000" style="isolation:auto;mix-blend-mode:normal;text-decoration-color:#000000;text-decoration-line:none;text-decoration-style:solid;text-indent:0;text-transform:none;white-space:normal"/>
</g>
</svg>
