<svg width="16" height="16" enable-background="new" version="1.1" xmlns="http://www.w3.org/2000/svg">
<title>Pop Symbolic Icon Theme</title>
<path id="Path" d="m7.5 3c-3.0375 0-5.5 2.4625-5.5 5.5 0 3.0376 2.4624 5.5 5.5 5.5s5.5-2.4624 5.5-5.5c0-3.0375-2.4625-5.5-5.5-5.5zm0-1c3.5899 0 6.5 2.9102 6.5 6.5 0 3.5899-2.9101 6.5-6.5 6.5s-6.5-2.9101-6.5-6.5c0-3.5898 2.9101-6.5 6.5-6.5z" fill="#4285f4"/>
<g transform="matrix(1,0,0,-1,0,18)" fill="#4285f4">
<path d="m7.5 5c0.55229 0 1 0.44771 1 1s-0.44771 1-1 1-1-0.44771-1-1 0.44771-1 1-1z"/>
<polygon transform="translate(1,2)" points="7 11.004 6 11.004 6 6.0039 7 6.0039"/>
</g>
</svg>
