<svg width="16" height="16" enable-background="new" version="1.1" xmlns="http://www.w3.org/2000/svg">
<title>Pop Symbolic Icon Theme</title>
<g id="mail-mark-important" transform="translate(-4,-3)" fill="none">
<g transform="translate(5,5)" fill="#303030">
<path id="Path" d="m6.5 1c-3.0375 0-5.5 2.4625-5.5 5.5 0 3.0376 2.4624 5.5 5.5 5.5s5.5-2.4624 5.5-5.5c0-3.0375-2.4625-5.5-5.5-5.5zm0-1c3.5899 0 6.5 2.9102 6.5 6.5 0 3.5899-2.9101 6.5-6.5 6.5-3.5899 0-6.5-2.9101-6.5-6.5 0-3.5898 2.9101-6.5 6.5-6.5z"/>
<path d="m6.5 3c0.55229 0 1 0.44771 1 1 0 0.55229-0.44771 1-1 1s-1-0.44771-1-1c0-0.55229 0.44771-1 1-1z"/>
<polygon points="6 11.004 6 6.0039 7 6.0039 7 11.004"/>
</g>
</g>
</svg>
