<?xml version="1.0" encoding="UTF-8"?>
<svg width="16px" height="16px" version="1.1" viewBox="0 0 16 16" xmlns="http://www.w3.org/2000/svg" xmlns:cc="http://creativecommons.org/ns#" xmlns:dc="http://purl.org/dc/elements/1.1/" xmlns:rdf="http://www.w3.org/1999/02/22-rdf-syntax-ns#">
 <metadata>
  <rdf:RDF>
   <cc:Work rdf:about="">
    <dc:format>image/svg+xml</dc:format>
    <dc:type rdf:resource="http://purl.org/dc/dcmitype/StillImage"/>
    <dc:title>folder</dc:title>
   </cc:Work>
  </rdf:RDF>
 </metadata>
 <title>folder</title>
 <desc>Created with Sketch.</desc>
 <g fill="none" fill-rule="evenodd">
  <g id="folder" fill="#303030" fill-rule="nonzero">
   <path id="Combined-Shape" d="m2 14h12v-8h-12v8zm0-9v-2h6.882l2-1h3.118v3h1v10h-14v-10h1zm1-1v1h10v-2h-1.882l-2 1h-6.118z"/>
  </g>
 </g>
 <path d="m2.8564 5.9831s-0.276-0.019136-0.18062 0.020432l11.314 4.6938v-1.2308l-8.397-3.4834zm-0.85643 0.97119v1.2308l11.99 4.9737v-1.2308zm9.5278 0.25965 2.4622 1.0217v-0.4063c0-0.61541-0.85643-0.61541-0.85643-0.61541zm-9.5278 2.202v1.2308l8.0444 3.3367h2.965zm0 2.4616v1.2308l2.1109 0.87513h2.9657z" fill="#303030" stroke-width=".72599"/>
 <path d="m2.8564 5.9831s-0.276-0.019136-0.18062 0.020432l11.314 4.6938v-1.2308l-8.397-3.4834zm-0.85643 0.97119v1.2308l11.99 4.9737v-1.2308zm6.4431-0.99459 5.547 2.276 0.033898-1.0504-3.0598-1.1917zm-6.4431 3.4563v1.2308l8.0444 3.3367h2.965zm0 2.4616v1.2308l2.1109 0.87513h2.9657z" fill="#303030" stroke-width=".72599"/>
</svg>
