<svg width="16" height="16" enable-background="new" version="1.1" xmlns="http://www.w3.org/2000/svg" xmlns:osb="http://www.openswatchbook.org/uri/2009/osb">
<title>Pop Symbolic Icon Theme</title>
<defs>
<filter color-interpolation-filters="sRGB">
<feBlend in2="BackgroundImage" mode="darken"/>
</filter>
</defs>
<g id="mail-forward" transform="matrix(-1 0 0 1 20 -4.0039)" fill="#303030" fill-rule="evenodd">
<g transform="matrix(-1,0,0,1,20,5)" fill="#303030" fill-rule="nonzero">
<path id="Shape" d="m6 2.4177-3.7176 2.5862 3.7176 2.5862v-1.5862h3c1.7631 0 3.3783 1.1199 3.8886 2.6911 0.12362 0.38064 0.14532 0.78914 0.08464 1.228 0.34285-0.51491 0.52676-1.071 0.52676-1.6691 0-2.5921-1.5733-4.25-4-4.25h-3.5zm1-1.9138v2.5h2.5c3 0 5 2.1265 5 5.25 0 3.25-4 4.75-4 4.75s1.8751-2.6525 1.4375-4c-0.3659-1.1266-1.5726-2-2.9375-2h-2v2.5l-6.4688-4.5z" fill="#303030"/>
</g>
</g>
</svg>
