<svg width="16" height="16" enable-background="new" version="1.1" xmlns="http://www.w3.org/2000/svg" xmlns:osb="http://www.openswatchbook.org/uri/2009/osb">
<title>Pop Symbolic Icon Theme</title>
<defs>
<filter color-interpolation-filters="sRGB">
<feBlend in2="BackgroundImage" mode="darken"/>
</filter>
</defs>
<g id="mail-unread-multiple" transform="translate(-4,-3)" fill="#303030">
<path id="Path" d="m19 9v-2c0-0.55572-0.44428-1-1-1h-12c-0.55572 0-1 0.44428-1 1v8c0 0.55572 0.44428 1 1 1h5v-4c0-1.6569 1.3431-3 3-3zm-13-4h12c1.108 0 2 0.892 2 2v3.2832c-0.29652-0.17546-0.63603-0.2832-1-0.2832h-5c-1.1046 0-2 0.89543-2 2v5h-6c-1.108 0-2-0.892-2-2v-8c0-1.108 0.892-2 2-2z"/>
<path id="Combined-Shape" d="m14.014 10h-1.0137c-0.55228 0-1 0.44772-1 1l-5.9941-2.9961v-1l6 3 6-3v1z"/>
<path d="m14 11h5c0.554 0 1 0.446 1 1v5c0 0.554-0.446 1-1 1h-5c-0.554 0-1-0.446-1-1v-5c0-0.554 0.446-1 1-1zm0 1v5h1v-3h1v1h1v-1h1v3h1v-5h-1v1h-1v1h-1v-1h-1v-1z"/>
</g>
</svg>
