<svg width="16" height="16" enable-background="new" version="1.1" xmlns="http://www.w3.org/2000/svg">
<title>Pop Symbolic Icon Theme</title>
<g id="mail-read" transform="translate(-4,-3)" fill="#303030">
<polygon id="Path" points="17 5 7 5 7 6 17 6"/>
<path d="m5 10.309v5.691c0 0.55572 0.44428 1 1 1h12c0.55572 0 1-0.44428 1-1v-7 1.618l-7 3.5-7-3.5zm1-4.309v4l6 3 6-3v-4c1.108 0 2 0.892 2 2v8c0 1.108-0.892 2-2 2h-12c-1.108 0-2-0.892-2-2v-8c0-1.108 0.892-2 2-2z"/>
<polygon points="17 9 7 9 7 10 17 10"/>
</g>
</svg>
