<svg width="16" height="16" enable-background="new" version="1.1" xmlns="http://www.w3.org/2000/svg">
<title>Pop Symbolic Icon Theme</title>
<path d="m5 1v2h-2c-1.0697 0-2 0.93907-2 2.1055v5.7891c0 1.166 0.86194 2.1055 1.9316 2.1055h10.137c1.07 0 1.9316-0.93947 1.9316-2.1055v-5.7891c0-1.1664-0.86164-2.1055-1.9316-2.1055h-2.0684v1l1.998 2.442e-4c0.55219 0 0.99986 0.44757 1 0.99976l2e-3 6c1.35e-4 0.55228-0.44747 1.0001-0.99976 1.0002h-2.44e-4l-9.9961-2.44e-4c-0.55228 0-1-0.44772-1-1v-6c0-0.55228 0.44772-1 1-1h1.9961v2l4-2.5023z" fill="#303030"/>
<polygon id="Path" transform="translate(-4,-5)" points="15 11 14 11 14 15 15 15" fill="#303030"/>
</svg>
