<svg width="16" height="16" version="1.1" xmlns="http://www.w3.org/2000/svg">
<defs>
<style id="current-color-scheme" type="text/css">.ColorScheme-Text { color:#dfdfdf; } .ColorScheme-Highlight { color:#4285f4; }</style>
</defs>
<path d="m7 12h2v-4h1l-2-3-2 3h1z" fill="#232629" fill-rule="evenodd"/>
<path d="m8 0.99996-0.3418 0.32031c-1.5725 1.4688-4.4548 2.6513-5.2773 2.8516l-0.38086 0.091797v0.39453c0 2.2145 0.52703 4.5589 1.5156 6.4785 0.98859 1.9196 2.4626 3.4443 4.3828 3.8418l0.10156 0.02148 0.10156-0.02148c1.9202-0.39749 3.3942-1.9222 4.3828-3.8418 0.98859-1.9196 1.5156-4.264 1.5156-6.4785v-0.39453l-0.38086-0.091797c-0.82313-0.20024-3.7049-1.3827-5.2773-2.8516zm0 1.2773c1.647 1.404 3.7766 2.3474 4.9629 2.7012-0.048718 1.9624-0.51336 4.0375-1.3691 5.6992-0.88 1.7087-2.1251 2.9165-3.5938 3.2676-1.4687-0.35104-2.7138-1.5588-3.5938-3.2676-0.85578-1.6617-1.3204-3.7369-1.3691-5.6992 1.1858-0.35372 3.3157-1.2972 4.9629-2.7012z" color="#000000" color-rendering="auto" dominant-baseline="auto" fill="#232629" fill-rule="evenodd" image-rendering="auto" shape-rendering="auto" solid-color="#000000" style="font-feature-settings:normal;font-variant-alternates:normal;font-variant-caps:normal;font-variant-ligatures:normal;font-variant-numeric:normal;font-variant-position:normal;isolation:auto;mix-blend-mode:normal;shape-padding:0;text-decoration-color:#000000;text-decoration-line:none;text-decoration-style:solid;text-indent:0;text-orientation:mixed;text-transform:none;white-space:normal"/>
</svg>
