<svg width="16px" height="16px" version="1.1" viewBox="0 0 16 16" xmlns="http://www.w3.org/2000/svg">
<path d="m8.0098 2.9102c-1.4446 0-2.8281 0.31399-4.082 0.88086-1.2517 0.56552-2.3783 1.3823-3.3223 2.3887a0.60006 0.60006 0 0 0 0.017578 0.83789l6.9746 6.8555a0.60006 0.60006 0 1 0 0.83984-0.85547l-6.4746-6.3652c0.74434-0.69962 1.5364-1.3509 2.459-1.7676a0.60006 0.60006 0 0 0 0.00195 0c1.1041-0.49913 2.3145-0.77344 3.5859-0.77344 1.2725 0 2.4798 0.27426 3.584 0.77344a0.60006 0.60006 0 0 0 2e-3 0c0.93226 0.42066 1.7343 1.076 2.4844 1.7852a0.60006 0.60006 0 0 0 0.95508 0.70312l0.36133-0.35547a0.60006 0.60006 0 0 0 0.01758-0.83789c-0.94469-1.006-2.0714-1.8231-3.3243-2.3887-1.2538-0.56682-2.6345-0.88086-4.0801-0.88086z" color="#000000" color-rendering="auto" dominant-baseline="auto" fill="#303030" fill-rule="evenodd" image-rendering="auto" opacity=".3" shape-rendering="auto" solid-color="#000000" style="font-feature-settings:normal;font-variant-alternates:normal;font-variant-caps:normal;font-variant-ligatures:normal;font-variant-numeric:normal;font-variant-position:normal;isolation:auto;mix-blend-mode:normal;shape-padding:0;text-decoration-color:#000000;text-decoration-line:none;text-decoration-style:solid;text-indent:0;text-orientation:mixed;text-transform:none;white-space:normal"/>
<title>network-wirelss-no-route-secure-symbolic</title>
<desc>Created with Sketch.</desc>
<polygon points="16 0 0 0 0 16 16 16" opacity="0"/>
<path d="m11 8.7246c0-0.399 0.325-0.725 0.725-0.725h0.55c0.4 0 0.725 0.326 0.725 0.725v1.275h-2zm3.451 1.275h-0.451v-1.275c0-0.951-0.773-1.725-1.725-1.725h-0.55c-0.952 0-1.725 0.774-1.725 1.725v1.275h-0.451c-0.303 0-0.549 0.246-0.549 0.55v2.901c0 0.304 0.246 0.549 0.549 0.549h4.902c0.303 0 0.549-0.245 0.549-0.549v-2.901c0-0.304-0.246-0.55-0.549-0.55z" fill="#303030" fill-rule="evenodd"/>
</svg>
