<svg width="16" height="16" enable-background="new" version="1.1" xmlns="http://www.w3.org/2000/svg" xmlns:osb="http://www.openswatchbook.org/uri/2009/osb">
<title>Pop Symbolic Icon Theme</title>
<defs>
<filter color-interpolation-filters="sRGB">
<feBlend in2="BackgroundImage" mode="darken"/>
</filter>
</defs>
<g transform="translate(-525 595)" fill="#303030">
<path d="m527-594s-1.9999 0-2 2.0625v9.9375c-8e-5 2 2 2 2 2h12c2 0 2-2 2-2v-10s0-2-2-2zm2e-4 2h2v4h1v-4h2v10h-2v-4h-1c-2 0-2-2-2-2zm8 0h2c2 0 2 2 2 2v1h-2v-1h-2v6h2v-2h-1v-1.9688l2-0.0312 1 0.0312v3.9375c0 5e-5 0 2.0312-2 2.0312h-2s-2 0-2-2v-6c0-2 2-2 2-2z" color="#bebebe" fill="#303030"/>
</g>
</svg>
