<svg width="16" height="16" enable-background="new" version="1.1" xmlns="http://www.w3.org/2000/svg" xmlns:osb="http://www.openswatchbook.org/uri/2009/osb">
<title>Pop Symbolic Icon Theme</title>
<defs>
<filter color-interpolation-filters="sRGB">
<feBlend in2="BackgroundImage" mode="darken"/>
</filter>
</defs>
<g transform="translate(-465 595)" fill="#303030">
<path d="m468-594s-2 0-2 2.0625v9.9375c0 2 2 2 2 2h10c2 0 2-2 2-2v-10s0-2-2-2zm3.0002 2h4c2 0 2.0522 2.3514 2 2v1h-2v-1h-4v6h4v-1h-2v-1-1h4v1.0312 1.9688s0 2-2 2h-4s-2 0-2-2v-6c0-2 2-2 2-2z" color="#bebebe" fill="#303030"/>
</g>
</svg>
