<?xml version="1.0" encoding="UTF-8" standalone="no"?>
<svg
   xmlns:dc="http://purl.org/dc/elements/1.1/"
   xmlns:cc="http://creativecommons.org/ns#"
   xmlns:rdf="http://www.w3.org/1999/02/22-rdf-syntax-ns#"
   xmlns:svg="http://www.w3.org/2000/svg"
   xmlns="http://www.w3.org/2000/svg"
   xmlns:sodipodi="http://sodipodi.sourceforge.net/DTD/sodipodi-0.dtd"
   xmlns:inkscape="http://www.inkscape.org/namespaces/inkscape"
   version="1.1"
   viewBox="0 0 16 16"
   id="svg7"
   sodipodi:docname="notifications.svg"
   inkscape:version="0.92.5 (2060ec1f9f, 2020-04-08)">
  <metadata
     id="metadata13">
    <rdf:RDF>
      <cc:Work
         rdf:about="">
        <dc:format>image/svg+xml</dc:format>
        <dc:type
           rdf:resource="http://purl.org/dc/dcmitype/StillImage" />
        <dc:title></dc:title>
      </cc:Work>
    </rdf:RDF>
  </metadata>
  <defs
     id="defs11" />
  <sodipodi:namedview
     pagecolor="#ffffff"
     bordercolor="#666666"
     borderopacity="1"
     objecttolerance="10"
     gridtolerance="10"
     guidetolerance="10"
     inkscape:pageopacity="0"
     inkscape:pageshadow="2"
     inkscape:window-width="1366"
     inkscape:window-height="703"
     id="namedview9"
     showgrid="false"
     inkscape:zoom="14.75"
     inkscape:cx="-0.27118644"
     inkscape:cy="8"
     inkscape:window-x="0"
     inkscape:window-y="0"
     inkscape:window-maximized="1"
     inkscape:current-layer="svg7" />
  <style
     id="current-color-scheme"
     type="text/css">.ColorScheme-Text {
            color:#232629;
        }</style>
  <circle
     cx="9.148"
     cy="2.5"
     r="0"
     id="circle3"
     style="fill:#303030;fill-opacity:1" />
  <path
     d="m8 2a1 1 0 0 0-1 1 1 1 0 0 0 0.0136719 0.1699219 3 3 0 0 0-2.0136719 2.8300781c0 1.8678453-0.6644936 2.6644936-2 4v1h10v-1c-1.335506-1.3355064-2-2.1321547-2-4a3 3 0 0 0-2.015625-2.8300781 1 1 0 0 0 0.015625-0.1699219 1 1 0 0 0-1-1zm0 2a2 2 0 0 1 2 2c0 1.7602592 0.64782 2.8885679 1.638672 4h-1.638672-4-1.6386719c0.9908518-1.1114321 1.6386719-2.2397408 1.6386719-4a2 2 0 0 1 2-2zm-1.4121094 8a1.5 1.5 0 0 0-0.0878906 0.5 1.5 1.5 0 0 0 1.5 1.5 1.5 1.5 0 0 0 1.5-1.5 1.5 1.5 0 0 0-0.0878906-0.5h-2.8242188z"
     class="ColorScheme-Text"
     fill="currentColor"
     id="path5"
     style="fill:#303030;fill-opacity:1" />
</svg>
