<?xml version="1.0" encoding="UTF-8" standalone="no"?>
<svg
   xmlns:dc="http://purl.org/dc/elements/1.1/"
   xmlns:cc="http://creativecommons.org/ns#"
   xmlns:rdf="http://www.w3.org/1999/02/22-rdf-syntax-ns#"
   xmlns:svg="http://www.w3.org/2000/svg"
   xmlns="http://www.w3.org/2000/svg"
   xmlns:sodipodi="http://sodipodi.sourceforge.net/DTD/sodipodi-0.dtd"
   xmlns:inkscape="http://www.inkscape.org/namespaces/inkscape"
   version="1.1"
   viewBox="0 0 16 16"
   id="svg9"
   sodipodi:docname="notifications-disabled.svg"
   inkscape:version="0.92.5 (2060ec1f9f, 2020-04-08)">
  <metadata
     id="metadata15">
    <rdf:RDF>
      <cc:Work
         rdf:about="">
        <dc:format>image/svg+xml</dc:format>
        <dc:type
           rdf:resource="http://purl.org/dc/dcmitype/StillImage" />
      </cc:Work>
    </rdf:RDF>
  </metadata>
  <defs
     id="defs13" />
  <sodipodi:namedview
     pagecolor="#ffffff"
     bordercolor="#666666"
     borderopacity="1"
     objecttolerance="10"
     gridtolerance="10"
     guidetolerance="10"
     inkscape:pageopacity="0"
     inkscape:pageshadow="2"
     inkscape:window-width="1366"
     inkscape:window-height="703"
     id="namedview11"
     showgrid="false"
     inkscape:zoom="20.85965"
     inkscape:cx="8.476572"
     inkscape:cy="8.2581432"
     inkscape:window-x="0"
     inkscape:window-y="0"
     inkscape:window-maximized="1"
     inkscape:current-layer="svg9" />
  <style
     id="current-color-scheme"
     type="text/css">.ColorScheme-Text {
            color:#232629;
        }
        .ColorScheme-NegativeText {
            color:#da4453;
        }</style>
  <circle
     cx="9.148"
     cy="2.5"
     r="0"
     id="circle3" />
  <path
     class="ColorScheme-NegativeText"
     d="M 2,2.7071118 2.7071065,2 14,13.266998 13.292891,14 Z"
     fill="currentColor"
     id="path5" />
  <path
     d="M 8,2 A 1,1 0 0 0 7,3 1,1 0 0 0 7.0136719,3.1699219 3,3 0 0 0 5.7402344,4.0332031 L 6.4472656,4.7402344 A 2,2 0 0 1 8,4 2,2 0 0 1 10,6 c 0,1.5854753 0.542693,2.6545091 1.371094,3.6640625 L 12.707031,11 H 13 V 10 C 11.664494,8.664494 11,7.867846 11,6 A 3,3 0 0 0 8.984375,3.1699219 1,1 0 0 0 9,3 1,1 0 0 0 8,2 Z M 4.9648438,6.671875 C 4.8155358,8.0817365 4.1633751,8.8366252 3,10 v 1 h 6.292969 l -1,-1 H 6 4.3613281 C 5.0349061,9.244452 5.5439051,8.4760906 5.8046875,7.5117188 Z M 6.5878906,12 A 1.5,1.5 0 0 0 6.5,12.5 1.5,1.5 0 0 0 8,14 1.5,1.5 0 0 0 9.5,12.5 1.5,1.5 0 0 0 9.412109,12 Z"
     class="ColorScheme-Text"
     id="path7"
     inkscape:connector-curvature="0"
     style="color:#232629;fill:#303030;fill-opacity:1" />
</svg>
