<?xml version="1.0" encoding="UTF-8" standalone="no"?>
<svg
   xmlns:dc="http://purl.org/dc/elements/1.1/"
   xmlns:cc="http://creativecommons.org/ns#"
   xmlns:rdf="http://www.w3.org/1999/02/22-rdf-syntax-ns#"
   xmlns:svg="http://www.w3.org/2000/svg"
   xmlns="http://www.w3.org/2000/svg"
   xmlns:sodipodi="http://sodipodi.sourceforge.net/DTD/sodipodi-0.dtd"
   xmlns:inkscape="http://www.inkscape.org/namespaces/inkscape"
   version="1.1"
   viewBox="0 0 16 16"
   id="svg7"
   sodipodi:docname="notification-new-symbolic.svg"
   inkscape:version="0.92.5 (2060ec1f9f, 2020-04-08)">
  <metadata
     id="metadata13">
    <rdf:RDF>
      <cc:Work
         rdf:about="">
        <dc:format>image/svg+xml</dc:format>
        <dc:type
           rdf:resource="http://purl.org/dc/dcmitype/StillImage" />
        <dc:title />
      </cc:Work>
    </rdf:RDF>
  </metadata>
  <defs
     id="defs11" />
  <sodipodi:namedview
     pagecolor="#ffffff"
     bordercolor="#666666"
     borderopacity="1"
     objecttolerance="10"
     gridtolerance="10"
     guidetolerance="10"
     inkscape:pageopacity="0"
     inkscape:pageshadow="2"
     inkscape:window-width="1366"
     inkscape:window-height="703"
     id="namedview9"
     showgrid="false"
     inkscape:zoom="14.75"
     inkscape:cx="-10.711864"
     inkscape:cy="8"
     inkscape:window-x="0"
     inkscape:window-y="0"
     inkscape:window-maximized="1"
     inkscape:current-layer="svg7" />
  <style
     id="current-color-scheme"
     type="text/css">.ColorScheme-Text {
            color:#232629;
        }</style>
  <circle
     cx="9.148"
     cy="2.5"
     r="0"
     id="circle3"
     style="fill:#303030;fill-opacity:1" />
  <path
     style="fill:#303030;fill-opacity:1"
     d="M 8 2 A 1 1 0 0 0 7 3 A 1 1 0 0 0 7.0136719 3.1699219 A 3 3 0 0 0 5 6 C 5 7.8678453 4.3355064 8.6644936 3 10 L 3 11 L 13 11 L 13 10 C 11.664494 8.6644936 11 7.8678453 11 6 A 3 3 0 0 0 8.984375 3.1699219 A 1 1 0 0 0 9 3 A 1 1 0 0 0 8 2 z M 8 4 A 2 2 0 0 1 10 6 C 10 7.7602592 10.64782 8.8885679 11.638672 10 L 10 10 L 6 10 L 4.3613281 10 C 5.3521799 8.8885679 6 7.7602592 6 6 A 2 2 0 0 1 8 4 z "
     id="path820" />
  <path
     style="fill:#4285f4;fill-opacity:1"
     d="M 6.5878906,12 A 1.5,1.5 0 0 0 6.5,12.5 1.5,1.5 0 0 0 8,14 1.5,1.5 0 0 0 9.5,12.5 1.5,1.5 0 0 0 9.4121094,12 Z"
     id="path5" />
</svg>
