<svg width="16" height="16" version="1.1" xmlns="http://www.w3.org/2000/svg">
<path d="m3.0004 0a2.0001 2.0002 0 0 0-1.9882 1.779l-0.99998 9a2.0001 2.0002 0 0 0 1.9882 2.221h12a2.0001 2.0002 0 0 0 1.988-2.221l-1-9a2.0001 2.0002 0 0 0-1.988-1.779zm5.9996 2v7h2v2h-5.9997v-2h1.9997v-4.5l-1.9997 0.5v-2z" fill="#4c5263" opacity=".3"/>
<path d="m5.2738e-4 13.203v0.547c0 1.212 1.0381 2.25 2.2499 2.25h11.5c1.212 0 2.25-1.038 2.25-2.25v-0.547c-0.532 0.485-1.225 0.797-2 0.797h-12c-0.7746 0-1.4683-0.312-1.9999-0.797z" fill="#4c5263" opacity=".3"/>
</svg>
