<svg width="16" height="16" version="1.1" xmlns="http://www.w3.org/2000/svg">
<defs>
<style id="current-color-scheme" type="text/css">.ColorScheme-Text { color:#444444; } .ColorScheme-Highlight { color:#4285f4; }</style>
</defs>
<g transform="translate(-4,-4)" fill="#303030">
<path d="m8 6v1h8v-1zm-2 5.5v-0.5h12v1.5-3.5h-12zm0-3.5h12c0.5 0 1 0.5 1 1v4c0 0.5-0.5 1-1 1h-1v-2h-10v2h-1c-0.5 0-1-0.5-1-1v-4c0-0.5 0.5-1 1-1z"/>
<path d="m8 13h8v5h-8zm1 1v3h6v-3z"/>
</g>
<path d="m13.519 16c-0.276 0-0.5-0.224-0.5-0.5s0.224-0.5 0.5-0.5 0.5 0.224 0.5 0.5-0.224 0.5-0.5 0.5m0.0479-2.0196h-0.134c-0.239 0-0.433-0.194-0.433-0.433v-2.134c0-0.239 0.194-0.433 0.433-0.433h0.134c0.239 0 0.433 0.194 0.433 0.433v2.134c0 0.239-0.194 0.433-0.433 0.433" fill="#ff001e" fill-rule="evenodd"/>
</svg>
