<svg width="16" height="16" version="1.1" xmlns="http://www.w3.org/2000/svg">
<defs>
<style id="current-color-scheme" type="text/css">.ColorScheme-Text { color:#444444; } .ColorScheme-Highlight { color:#4285f4; }</style>
</defs>
<g fill="#303030">
<path d="m4 2v1h8v-1zm-2 5.5v-0.5h12v1.5-3.5h-12zm0-3.5h12c0.5 0 1 0.5 1 1v4c0 0.5-0.5 1-1 1h-1v-2h-10v2h-1c-0.5 0-1-0.5-1-1v-4c0-0.5 0.5-1 1-1z" opacity=".3"/>
<path d="m4 9v5h3.2773c-0.17153-0.29506-0.27734-0.63395-0.27734-1h-2v-3h6v1.2773c0.29506-0.17153 0.63395-0.27734 1-0.27734v-2h-8z" opacity=".3"/>
<g fill-rule="evenodd">
<path d="m13 13c0 0.5525-0.4475 1-1 1s-1-0.4475-1-1 0.4475-1 1-1 1 0.4475 1 1"/>
<path d="m10 13c0 0.5525-0.4475 1-1 1s-1-0.4475-1-1 0.4475-1 1-1 1 0.4475 1 1"/>
<path d="m16 13c0 0.5525-0.4475 1-1 1s-1-0.4475-1-1 0.4475-1 1-1 1 0.4475 1 1"/>
</g>
</g>
</svg>
