<svg width="16" height="16" version="1.1" xmlns="http://www.w3.org/2000/svg">
<defs>
<style id="current-color-scheme" type="text/css">.ColorScheme-Text { color:#444444; } .ColorScheme-Highlight { color:#4285f4; }</style>
</defs>
<g fill="#303030">
<path d="m2 4c-0.5 0-1 0.5-1 1v4c0 0.5 0.5 1 1 1h1v-2h10v0.74805c0.129 0.021072 0.24828 0.085009 0.31445 0.20117l0.56641 1 0.029297 0.050781h0.089844c0.5 0 1-0.5 1-1v-4c0-0.5-0.5-1-1-1h-12zm0 1h12v2h-12v-2z"/>
<path d="m4 2v1h8v-1z"/>
<path d="m4 9v5h4.8184l0.56836-1h-4.3867v-3h6v0.1543l0.6543-1.1543h-7.6543z"/>
</g>
<path d="m12.48 9.7285c-0.15005 7e-3 -0.28696 0.0902-0.36133 0.2207l-3.0606 5.3965c-0.16565 0.29157 0.0436 0.65416 0.37891 0.6543h6.125c0.33534-1.4e-4 0.54457-0.36273 0.37891-0.6543l-3.0606-5.3965c-0.0813-0.14271-0.23629-0.22812-0.40039-0.2207zm-0.48047 1.2715h1v2h-1zm0 3h1v1h-1z" color="#000000" color-rendering="auto" fill="#4285f4" fill-rule="evenodd" image-rendering="auto" shape-rendering="auto" solid-color="#000000" style="isolation:auto;mix-blend-mode:normal;text-decoration-color:#000000;text-decoration-line:none;text-decoration-style:solid;text-indent:0;text-transform:none;white-space:normal"/>
</svg>
