<svg width="16" height="16" enable-background="new" version="1.1" xmlns="http://www.w3.org/2000/svg" xmlns:osb="http://www.openswatchbook.org/uri/2009/osb">
<title>Pop Symbolic Icon Theme</title>
<defs>
<filter color-interpolation-filters="sRGB">
<feBlend in2="BackgroundImage" mode="darken"/>
</filter>
</defs>
<path d="m7.979 1.0034c-3.8542 0-7 3.1458-7 7 0 3.8542 3.1458 7 7 7s7-3.1458 7-7c0-3.8541-3.1458-7-7-7zm0 1a6 6 0 0 1 6 6 6 6 0 0 1-6 6 6 6 0 0 1-6-6 6 6 0 0 1 6-6z" color="#000000" color-rendering="auto" dominant-baseline="auto" enable-background="new" fill="#303030" image-rendering="auto" shape-rendering="auto" solid-color="#000000" style="font-feature-settings:normal;font-variant-alternates:normal;font-variant-caps:normal;font-variant-ligatures:normal;font-variant-numeric:normal;font-variant-position:normal;isolation:auto;mix-blend-mode:normal;shape-padding:0;text-decoration-color:#000000;text-decoration-line:none;text-decoration-style:solid;text-indent:0;text-orientation:mixed;text-transform:none;white-space:normal"/>
<path d="m7.4792 4.0034c-0.27614 0-0.5 0.22386-0.5 0.5v3.5c0 0.55228 0.44772 1 1 1s1-0.44772 1-1l-1-3.5c0-0.27614-0.22386-0.5-0.5-0.5z" fill="#303030"/>
</svg>
