<svg width="16" height="16" enable-background="new" version="1.1" xmlns="http://www.w3.org/2000/svg" xmlns:osb="http://www.openswatchbook.org/uri/2009/osb">
<title>Pop Symbolic Icon Theme</title>
<path d="m8 5c-1.6556 0-3 1.3444-3 3 0 1.6556 1.3444 3 3 3s3-1.3444 3-3c0-1.6556-1.3444-3-3-3z" color="#bebebe" fill="#303030" style="text-decoration-line:none;text-indent:0pt;text-transform:none"/>
<path d="m8 1c-3.8577 0-7 3.1423-7 7s3.1423 7 7 7 7-3.1423 7-7-3.1423-7-7-7zm0 1c3.3163 0 6 2.6837 6 6s-2.6837 6-6 6c-3.3163 0-6-2.6837-6-6s2.6837-6 6-6z" color="#bebebe" enable-background="accumulate" fill="#303030" style="text-decoration-line:none;text-indent:0pt;text-transform:none"/>
</svg>
