<svg width="16" height="16" enable-background="new" version="1.1" xmlns="http://www.w3.org/2000/svg">
<title>Pop Symbolic Icon Theme</title>
<g transform="matrix(0 1 1 0 .50048 1.9727)" fill="#303030">
<path d="m10.5 8c0-0.27614 0.22386-0.5 0.5-0.5s0.5 0.22386 0.5 0.5c0 3.0376-2.4624 5.5-5.5 5.5s-5.5-2.4624-5.5-5.5c0-3.0376 2.4624-5.5 5.5-5.5 0.27614 0 0.5 0.22386 0.5 0.5s-0.22386 0.5-0.5 0.5c-2.4853 0-4.5 2.0147-4.5 4.5 0 2.4853 2.0147 4.5 4.5 4.5s4.5-2.0147 4.5-4.5z"/>
<polygon id="Triangle" points="6 0.5 10 2.9998 6 5.4995"/>
</g>
</svg>
