<svg width="16" height="16" enable-background="new" version="1.1" xmlns="http://www.w3.org/2000/svg">
<title>Pop Symbolic Icon Theme</title>
<path id="Combined-Shape" d="m8.5 2.4727c-3.0376 0-5.5 2.4624-5.5 5.5h-2l2.5 4 2.5-4h-2c0-2.4853 2.0147-4.5 4.5-4.5 1.7852 0 3.3111 1.0477 4.0371 2.5547 0.57763 0.08884 1.0596 0.4604 1.2988 0.97266h0.074218c-0.45957-2.5733-2.7047-4.5273-5.4102-4.5273z" fill="#303030" opacity=".3"/>
<path d="m11 8.725c0-0.399 0.325-0.725 0.725-0.725h0.55c0.4 0 0.725 0.326 0.725 0.725v1.275h-2zm3.451 1.275h-0.451v-1.275c0-0.951-0.773-1.725-1.725-1.725h-0.55c-0.952 0-1.725 0.774-1.725 1.725v1.275h-0.451c-0.303 0-0.549 0.246-0.549 0.55v2.901c0 0.304 0.246 0.549 0.549 0.549h4.902c0.303 0 0.549-0.245 0.549-0.549v-2.901c0-0.304-0.246-0.55-0.549-0.55z" fill="#303030" fill-rule="evenodd"/>
</svg>
