<svg width="16" height="16" version="1.1" xmlns="http://www.w3.org/2000/svg">
<path d="m1 0c-0.554 0-1 0.446-1 1v14c0 0.554 0.446 1 1 1h14c0.554 0 1-0.446 1-1v-14c0-0.554-0.446-1-1-1zm0.5 1a0.5 0.5 0 0 1 0.5 0.5 0.5 0.5 0 0 1-0.5 0.5 0.5 0.5 0 0 1-0.5-0.5 0.5 0.5 0 0 1 0.5-0.5zm6.5 0a7 7 0 0 1 7 7 7 7 0 0 1-7 7 7 7 0 0 1-7-7 7 7 0 0 1 7-7zm6.5 0a0.5 0.5 0 0 1 0.5 0.5 0.5 0.5 0 0 1-0.5 0.5 0.5 0.5 0 0 1-0.5-0.5 0.5 0.5 0 0 1 0.5-0.5zm-5.498 1.1016c-0.5531-0.0011-1.0019 0.4469-1.002 1v1.8984a3 3 0 0 1 2.344 1.1289c0.789-0.1705 1.455-0.3276 2.129-0.4863 0.894-0.2108 0.533-0.9895 0.175-1.4297-0.873-1.0736-2.091-1.8135-3.4468-2.0918-0.0656-0.0132-0.1324-0.0196-0.1992-0.0195zm-3.9883 0.8711c-0.2761 0.0231-0.5807 0.2022-0.8008 0.3808-1.0736 0.8736-1.8135 2.0915-2.0918 3.4473-0.013 0.066-0.0195 0.1323-0.0195 0.1992-1e-3 0.5531 0.447 1.0019 1 1.002h1.8984a3 3 0 0 1 1.1289-2.3438c-0.1705-0.7895-0.3276-1.4554-0.4863-2.1289-0.1055-0.4471-0.3529-0.5798-0.6289-0.5566zm2.9863 3.0273a2 2 0 0 0-2 2 2 2 0 0 0 2 2 2 2 0 0 0 2-2 2 2 0 0 0-2-2zm2.998 1.998a3 3 0 0 1-1.1289 2.344c0.1709 0.789 0.3279 1.455 0.4859 2.129 0.211 0.894 0.99 0.533 1.43 0.175 1.074-0.873 1.814-2.091 2.092-3.4468 0.013-0.066 0.02-0.1323 0.019-0.1992 1e-3 -0.5531-0.446-1.0019-1-1.002zm-5.3437 1.875c-0.7895 0.171-1.4554 0.328-2.1289 0.486-0.8942 0.211-0.533 0.99-0.1758 1.43 0.8736 1.074 2.0915 1.814 3.4473 2.092 0.066 0.013 0.1323 0.019 0.1992 0.019 0.5531 1e-3 1.0018-0.447 1.0019-1v-1.898a3 3 0 0 1-2.3437-1.129zm-4.1543 4.127a0.5 0.5 0 0 1 0.5 0.5 0.5 0.5 0 0 1-0.5 0.5 0.5 0.5 0 0 1-0.5-0.5 0.5 0.5 0 0 1 0.5-0.5zm13 0a0.5 0.5 0 0 1 0.5 0.5 0.5 0.5 0 0 1-0.5 0.5 0.5 0.5 0 0 1-0.5-0.5 0.5 0.5 0 0 1 0.5-0.5z" fill="#4c5263"/>
</svg>
