<svg width="16" height="16" version="1.1" xmlns="http://www.w3.org/2000/svg">
<path d="m7 6v2.1738a3 3 0 0 0-2 2.8262 3 3 0 0 0 3 3 3 3 0 0 0 3-3 3 3 0 0 0-2-2.8242v-2.1758z" fill="#303030" opacity=".3"/>
<path d="m8 1c-1.108 0-2 0.892-2 2v4.5449a4 4 0 0 0-2 3.4551 4 4 0 0 0 4 4 4 4 0 0 0 4-4 4 4 0 0 0-2-3.4531v-4.5469c0-1.108-0.892-2-2-2zm0 1c0.554 0 1 0.446 1 1v5.1758c0.15963 0.056452 0.3097 0.12766 0.45312 0.20898 3e-3 0.00171 0.0068 0.00218 0.0098 0.00391a3 3 0 0 1 0.0059 0.00391c0.14382 0.082667 0.28047 0.17637 0.4082 0.2793 2.09e-4 -5.868e-4 -2.09e-4 -0.00137 0-0.00195a3 3 0 0 1 1.123 2.3301 3 3 0 0 1-3 3 3 3 0 0 1-3-3 3 3 0 0 1 1.1211-2.3359c4.72e-4 0.00134 0.0015 0.00257 2e-3 0.00391 0.12754-0.10261 0.26426-0.19505 0.4082-0.27734 0.0038-0.00218 0.0079-0.0037 0.01172-0.00586 0.14462-0.081864 0.29626-0.15412 0.45698-0.21094v-5.1738c0-0.554 0.446-1 1-1z" fill="#303030" fill-rule="evenodd" style="paint-order:markers fill stroke"/>
</svg>
