<svg width="16" height="16" version="1.1" xmlns="http://www.w3.org/2000/svg">
<path d="m7.998 0.93164-2.0684 2.0684h-2.9258c-0.0022573 0-0.0039062 0.0016487-0.0039062 0.0039062v2.9258l-2.0684 2.0684c-0.0016 0.0016-0.0016001 0.0023162 0 0.0039062l2.0684 2.0684v2.9258c0 0.002257 0.0016487 0.003906 0.0039062 0.003906h2.9258l2.0684 2.0684c0.0016 0.0016 0.0023162 0.0016 0.0039062 0l2.0684-2.0684h2.9258c0.002257 0 0.003906-0.001649 0.003906-0.003906v-2.9258l2.0684-2.0684c0.0016-0.0016 0.0016-0.0023162 0-0.0039062l-2.0684-2.0684v-2.9258c0-0.0022573-0.001649-0.0039062-0.003906-0.0039062h-2.9258l-2.0684-2.0684c-0.0016-0.001596-0.0023162-0.001596-0.0039062 0zm0 1.4141c0.0016-0.0016 0.0023162-0.0016 0.0039062 0l1.6543 1.6543h2.3399c0.002257 0 0.003906 0.0016487 0.003906 0.0039062v2.3399l1.6543 1.6543c0.0016 0.0016 0.0016 0.0023162 0 0.0039062l-1.6543 1.6543v2.3399c0 0.002257-0.001649 0.003906-0.003906 0.003906h-2.3399l-1.6543 1.6543c-0.0016 0.0016-0.0023162 0.0016-0.0039062 0l-1.6543-1.6543h-2.3399c-0.0022575 0-0.0039062-0.001649-0.0039062-0.003906v-2.3399l-1.6543-1.6543c-0.0016-0.0016-0.0015998-0.0023162 0-0.0039062l1.6543-1.6543v-2.3399c0-0.0022575 0.0016488-0.0039062 0.0039062-0.0039062h2.3399l1.6543-1.6543z" fill="#303030" fill-rule="evenodd" style="paint-order:markers fill stroke"/>
<path d="m8 4.15 2.5 3.85h-1.5v4h-2v-4h-1.5z" fill="#303030"/>
</svg>
