<svg width="16" height="16" version="1.1" xmlns="http://www.w3.org/2000/svg">
<g fill="#4285f4">
<path d="m7 4h2v5h-2z"/>
<path d="m7 10h2v2h-2z"/>
</g>
<path d="m7.998 0.93164-2.0684 2.0684h-2.9258c-0.0022573 0-0.0039062 0.0016487-0.0039062 0.0039062v2.9258l-2.0684 2.0684c-0.0016 0.0016-0.0016001 0.0023162 0 0.0039062l2.0684 2.0684v2.9258c0 0.002257 0.0016487 0.003906 0.0039062 0.003906h2.9258l2.0684 2.0684c0.0016 0.0016 0.0023162 0.0016 0.0039062 0l2.0684-2.0684h2.9258c0.002257 0 0.003906-0.001649 0.003906-0.003906v-2.9258l2.0684-2.0684c0.0016-0.0016 0.0016-0.0023162 0-0.0039062l-2.0684-2.0684v-2.9258c0-0.0022573-0.001649-0.0039062-0.003906-0.0039062h-2.9258l-2.0684-2.0684c-0.0016-0.001596-0.0023162-0.001596-0.0039062 0zm0 1.4141c0.0016-0.0016 0.0023162-0.0016 0.0039062 0l1.6543 1.6543h1.4141 0.92578c0.002257 0 0.003906 0.0016487 0.003906 0.0039062v0.92578 1.4141l1.6543 1.6543c0.0016 0.0016 0.0016 0.0023162 0 0.0039062l-1.6543 1.6543v1.4141 0.92578c0 0.002257-0.001649 0.003906-0.003906 0.003906h-0.92578-1.4141l-1.6543 1.6543c-0.0016 0.0016-0.0023162 0.0016-0.0039062 0l-1.6543-1.6543h-1.4141-0.92578c-0.0022575 0-0.0039062-0.001649-0.0039062-0.003906v-0.92578-1.4141l-1.6543-1.6543c-0.0016-0.0016-0.0015998-0.0023162 0-0.0039062l1.6543-1.6543v-1.4141-0.92578c0-0.0022575 0.0016488-0.0039062 0.0039062-0.0039062h0.92578 1.4141l1.6543-1.6543z" fill="#4285f4" fill-rule="evenodd" style="paint-order:markers fill stroke"/>
</svg>
