<svg width="16" height="16" version="1.1" xmlns="http://www.w3.org/2000/svg">
<defs>
<style id="current-color-scheme" type="text/css">.ColorScheme-Text { color:#dfdfdf; } .ColorScheme-Highlight { color:#4285f4; }</style>
</defs>
<path d="m10.5 8.9882c-0.25 0-0.4437-0.0034-0.63281 0.01758-0.18911 0.02101-0.41535 0.07356-0.5957 0.25391-0.18035 0.18035-0.23094 0.4066-0.25195 0.5957-0.021012 0.18911-0.019531 0.38281-0.019531 0.63281v2c0 0.25-6e-3 0.44844 0.0293 0.66016 0.03529 0.21172 0.1591 0.48302 0.38086 0.63086 0.44351 0.29568 0.83984 0.20898 1.5898 0.20898s1.1463 0.08669 1.5898-0.20898c0.22176-0.14784 0.34557-0.41914 0.38086-0.63086 0.03529-0.21172 0.0293-0.41016 0.0293-0.66016v-1a0.50005 0.50005 0 0 0-0.5-0.5h-1.5v1h1v0.5c0 0.23227-0.0057 0.38241-0.01563 0.46094 0.02583-0.03159-0.27117 0.03906-0.98438 0.03906s-1.0102-0.07065-0.98438-0.03906c-0.0099-0.07853-0.01562-0.22867-0.01562-0.46094v-2c0-0.23322 0.0031-0.3913 0.01172-0.48828 0.09698-0.0086 0.25506-0.01172 0.48828-0.01172h2.5v-1z" color="#dfdfdf" color-rendering="auto" dominant-baseline="auto" fill="#303030" image-rendering="auto" shape-rendering="auto" solid-color="#000000" style="font-feature-settings:normal;font-variant-alternates:normal;font-variant-caps:normal;font-variant-ligatures:normal;font-variant-numeric:normal;font-variant-position:normal;isolation:auto;mix-blend-mode:normal;shape-padding:0;text-decoration-color:#000000;text-decoration-line:none;text-decoration-style:solid;text-indent:0;text-orientation:mixed;text-transform:none;white-space:normal"/>
</svg>
