<svg width="16px" height="16px" version="1.1" viewBox="0 0 16 16" xmlns="http://www.w3.org/2000/svg">
<title>network-wirelss-no-route-secure-symbolic</title>
<desc>Created with Sketch.</desc>
<polygon points="16 0 0 0 0 16 16 16" opacity="0"/>
<path d="m11 8.7246c0-0.399 0.325-0.725 0.725-0.725h0.55c0.4 0 0.725 0.326 0.725 0.725v1.275h-2zm3.451 1.275h-0.451v-1.275c0-0.951-0.773-1.725-1.725-1.725h-0.55c-0.952 0-1.725 0.774-1.725 1.725v1.275h-0.451c-0.303 0-0.549 0.246-0.549 0.55v2.901c0 0.304 0.246 0.549 0.549 0.549h4.902c0.303 0 0.549-0.245 0.549-0.549v-2.901c0-0.304-0.246-0.55-0.549-0.55z" fill="#303030" fill-rule="evenodd"/>
</svg>
