<svg width="16" height="16" version="1.1" xmlns="http://www.w3.org/2000/svg">
<defs>
<style id="current-color-scheme" type="text/css">.ColorScheme-Text { color:#dfdfdf; } .ColorScheme-Highlight { color:#4285f4; }</style>
</defs>
<g transform="translate(0,-2)" fill="#303030" shape-rendering="auto">
<path d="m9.5 11a0.50005 0.50005 0 0 0-0.5 0.5v4a0.50005 0.50005 0 0 0 0.5 0.5h2.5v-1h-2v-1h2v-1h-2v-1h2v-1z" color="#dfdfdf" color-rendering="auto" dominant-baseline="auto" image-rendering="auto" solid-color="#000000" style="font-feature-settings:normal;font-variant-alternates:normal;font-variant-caps:normal;font-variant-ligatures:normal;font-variant-numeric:normal;font-variant-position:normal;isolation:auto;mix-blend-mode:normal;shape-padding:0;text-decoration-color:#000000;text-decoration-line:none;text-decoration-style:solid;text-indent:0;text-orientation:mixed;text-transform:none;white-space:normal"/>
<path d="m13 11v3a0.50005 0.50005 0 0 0 0.08398 0.27734l1 1.5a0.50005 0.50005 0 0 0 0.83203 0l1-1.5a0.50005 0.50005 0 0 0 0.083988-0.27734v-3h-1v2.8477l-0.5 0.75-0.5-0.75v-2.8477z" color="#dfdfdf" color-rendering="auto" dominant-baseline="auto" image-rendering="auto" solid-color="#000000" style="font-feature-settings:normal;font-variant-alternates:normal;font-variant-caps:normal;font-variant-ligatures:normal;font-variant-numeric:normal;font-variant-position:normal;isolation:auto;mix-blend-mode:normal;shape-padding:0;text-decoration-color:#000000;text-decoration-line:none;text-decoration-style:solid;text-indent:0;text-orientation:mixed;text-transform:none;white-space:normal"/>
</g>
</svg>
