<svg width="16" height="16" version="1" xmlns="http://www.w3.org/2000/svg">
<g fill="#303030">
<path d="m10.747 4.6036c0.24 0.1383 0.321 0.4444 0.181 0.6862l-1.9965 3.4568c-0.1396 0.2417-0.4452 0.325-0.6852 0.1866-0.2391-0.1378-0.3199-0.4439-0.1802-0.6857l1.9969-3.4568c0.139-0.2417 0.445-0.325 0.684-0.1871z"/>
<path d="m2.9473 0c-0.20458 3.75e-6 -0.40966 0.07776-0.56641 0.23438l-2.1465 2.1445c-0.31352 0.3132-0.31353 0.81756 0 1.1309l2.1465 2.1445c0.063466 0.063406 0.13889 0.10484 0.21484 0.14258a6.5 6.5 0 0 1 3.207-3.2031c-0.037876-0.076683-0.080492-0.15084-0.14453-0.21484l-2.1465-2.1445c-0.15675-0.15665-0.35988-0.23438-0.56445-0.23438z"/>
<path d="M 10,8.5 A 1.5,1.5 0 0 1 8.5,10 1.5,1.5 0 0 1 7,8.5 1.5,1.5 0 0 1 8.5,7 1.5,1.5 0 0 1 10,8.5 Z"/>
<path d="M 8.5,1 A 7.5,7.5 0 0 0 1,8.5 7.5,7.5 0 0 0 8.5,16 7.5,7.5 0 0 0 16,8.5 7.5,7.5 0 0 0 8.5,1 Z m 0,1 A 6.5,6.5 0 0 1 15,8.5 6.5,6.5 0 0 1 8.5,15 6.5,6.5 0 0 1 2,8.5 6.5,6.5 0 0 1 8.5,2 Z"/>
</g>
</svg>
