<svg width="16px" height="16px" version="1.1" viewBox="0 0 16 16" xmlns="http://www.w3.org/2000/svg">
<title>folder</title>
<desc>Created with Sketch.</desc>
<g id="folder" fill="#303030">
<path id="Combined-Shape" d="m2 14h12v-8h-12zm0-9v-2h6.882l2-1h3.118v3h1v10h-14v-10zm1-1v1h10v-2h-1.882l-2 1z" fill="#303030"/>
</g>
<path d="m8 7a3 3 0 0 0-3 3 3 3 0 0 0 0.5957 1.791l0.7168-0.7168a2 2 0 0 1-0.3125-1.0742 2 2 0 0 1 2-2 2 2 0 0 1 1.0723 0.31445l0.7168-0.7168a3 3 0 0 0-1.7891-0.59766zm2.4824 1.3184-0.72656 0.72656a2 2 0 0 1 0.24414 0.95508 2 2 0 0 1-2 2 2 2 0 0 1-0.95703-0.24219l-0.72266 0.72266a3 3 0 0 0 1.6797 0.51953 3 3 0 0 0 3-3 3 3 0 0 0-0.51758-1.6816z" fill="#303030" fill-rule="evenodd" style="paint-order:markers fill stroke"/>
</svg>
