<svg width="16" height="16.003" enable-background="new" version="1.1" xmlns="http://www.w3.org/2000/svg">
<title>Pop Symbolic Icon Theme</title>
<g transform="translate(1.9685,-6.262e-4)" fill="#303030" opacity=".3">
<path id="Combined-Shape" d="m6 0.0039062c0.9666 0 1.7823 0.68238 1.9688 1.5937 0.0262 0.1302 0.03125 0.26818 0.03125 0.40625h3s1 0 1 1v11c0 1-1 1-1 1h-10s-1 0-1-1v-11s0-1 1-1h3c0-1.1046 0.8954-2 2-2zm0 1c-0.55229 0-1 0.44772-1 1 0 0.55228 0.44771 1 1 1s1-0.44772 1-1c0-0.13807-0.04315-0.25536-0.09375-0.375-0.15181-0.35892-0.49204-0.625-0.90625-0.625zm-5 2v11h10v-11h-2v1h-6v-1z" style=""/>
</g>
<path d="m6.5059 6.9902a0.50155 0.50155 0 0 0-0.34961 0.86133l1.1445 1.1445-1.1426 1.1406a0.50155 0.50155 0 1 0 0.70898 0.70898l1.1406-1.1426 1.1426 1.1426a0.50202 0.50202 0 1 0 0.71094-0.70898l-1.1426-1.1426 1.1426-1.1426a0.50155 0.50155 0 0 0-0.36523-0.86133 0.50155 0.50155 0 0 0-0.34375 0.15234l-1.1426 1.1426-1.1445-1.1426a0.50155 0.50155 0 0 0-0.35938-0.15234z" color="#000000" color-rendering="auto" dominant-baseline="auto" enable-background="accumulate" fill="#303030" image-rendering="auto" shape-rendering="auto" solid-color="#000000" style="font-feature-settings:normal;font-variant-alternates:normal;font-variant-caps:normal;font-variant-ligatures:normal;font-variant-numeric:normal;font-variant-position:normal;isolation:auto;mix-blend-mode:normal;shape-padding:0;text-decoration-color:#000000;text-decoration-line:none;text-decoration-style:solid;text-indent:0;text-orientation:mixed;text-transform:none;white-space:normal"/>
</svg>
