<svg width="16" height="16.003" enable-background="new" version="1.1" xmlns="http://www.w3.org/2000/svg">
<title>Pop Symbolic Icon Theme</title>
<g transform="translate(1.9685,-6.262e-4)" fill="#303030">
<path id="Combined-Shape" d="m6 0.0039062c0.9666 0 1.7823 0.68238 1.9688 1.5937 0.0262 0.1302 0.03125 0.26818 0.03125 0.40625h3s1 0 1 1v11c0 1-1 1-1 1h-10s-1 0-1-1v-11s0-1 1-1h3c0-1.1046 0.8954-2 2-2zm0 1c-0.55229 0-1 0.44772-1 1s0.44771 1 1 1 1-0.44772 1-1c0-0.13807-0.04315-0.25536-0.09375-0.375-0.15181-0.35892-0.49204-0.625-0.90625-0.625zm-5 2v11h10v-11h-2v1h-6v-1z" style=""/>
</g>
<path d="m8.0191 12.003c-0.276 0-0.5-0.224-0.5-0.5s0.224-0.5 0.5-0.5 0.5 0.224 0.5 0.5-0.224 0.5-0.5 0.5m0.0479-2.0196h-0.134c-0.239 0-0.433-0.194-0.433-0.433v-2.134c0-0.239 0.194-0.433 0.433-0.433h0.134c0.239 0 0.433 0.194 0.433 0.433v2.134c0 0.239-0.194 0.433-0.433 0.433" fill="#ff001e" fill-rule="evenodd"/>
</svg>
