<svg width="16" height="16" version="1.1" xmlns="http://www.w3.org/2000/svg">
<g fill="#4c5263">
<path d="m7.041 0.074219c-2.2293 0.2653-4.1789 1.4478-5.457 3.1602-0.00139 0.00186-0.0025163 0.0039894-0.0039063 0.0058594-0.13105 0.17589-0.25262 0.3583-0.36914 0.54492-0.019086 0.030471-0.037967 0.061071-0.056641 0.091797-0.10275 0.16962-0.19887 0.34392-0.28906 0.52148-0.025956 0.051806-0.051348 0.10389-0.076172 0.15625-0.070045 0.14567-0.134 0.29487-0.19531 0.44531h4.2012l2.2461-4.9258zm3.6738 0.41016-2.3594 4.5156h7.0488c-0.009044-0.022499-0.01418-0.045921-0.023438-0.068359-0.01978-0.044454-0.039957-0.088727-0.060547-0.13281-0.11251-0.25916-0.2413-0.51315-0.38281-0.76172-0.036807-0.066944-0.074571-0.13336-0.11328-0.19922-0.36582-0.60083-0.81634-1.165-1.3613-1.6699-0.0046-0.0045601-0.009102-0.0091199-0.013672-0.013672-0.0037-0.00337-0.007999-0.0063957-0.011719-0.0097657-0.57101-0.52438-1.2408-0.98606-2.0137-1.3613v-0.0039062c-0.23147-0.1096-0.46807-0.20802-0.70898-0.29492zm-10.127 10.516c0.074374 0.18184 0.15463 0.36123 0.24219 0.53711 0.030325 0.0618 0.061892 0.12271 0.09375 0.18359 0.10584 0.20539 0.22053 0.4061 0.34375 0.60156 0.4326 0.67382 0.96391 1.2789 1.5762 1.7949l0.0039062 0.003906c0.38735 0.32452 0.80458 0.61161 1.2461 0.85742l0.3418-3.9785h-3.8477zm4.0762 0 0.94922 1.1309 0.56445-1.1309h-1.5137zm3.7676 0-1.3379 1.8457 1.9102 0.19922-3.1133 2.6621c0.68693 0.19122 1.3963 0.28975 2.1094 0.29297 3.3315 4.65e-4 6.2237-2.0466 7.418-5h-6.9863z" opacity=".3"/>
<path d="m5 8a2 2 0 0 1-2 2 2 2 0 0 1-2-2 2 2 0 0 1 2-2 2 2 0 0 1 2 2z"/>
<path d="m10 8a2 2 0 0 1-2 2 2 2 0 0 1-2-2 2 2 0 0 1 2-2 2 2 0 0 1 2 2z"/>
<path d="m15 8a2 2 0 0 1-2 2 2 2 0 0 1-2-2 2 2 0 0 1 2-2 2 2 0 0 1 2 2z"/>
</g>
</svg>
