<svg width="16" height="16" enable-background="new" version="1.1" xmlns="http://www.w3.org/2000/svg">
<title>Pop Symbolic Icon Theme</title>
<path class="error" d="m12.5 9a3.5 3.5 0 0 0-3.5 3.5 3.5 3.5 0 0 0 3.5 3.5 3.5 3.5 0 0 0 3.5-3.5 3.5 3.5 0 0 0-3.5-3.5zm-2.5 3h5v1h-5z" color="#000000" color-rendering="auto" enable-background="accumulate" fill="#4285f4" fill-rule="evenodd" image-rendering="auto" shape-rendering="auto" solid-color="#000000" style="isolation:auto;mix-blend-mode:normal"/>
<path d="m7.9512 2.1055c-1.6509 0-3 1.3491-3 3s1.3491 3 3 3 3-1.3491 3-3-1.3491-3-3-3zm0 1c1.1105 0 2 0.88956 2 2 0 1.1104-0.88951 2-2 2-1.1105 0-2-0.88956-2-2s0.88951-2 2-2z" color="#000000" color-rendering="auto" dominant-baseline="auto" enable-background="accumulate" fill="#303030" image-rendering="auto" shape-rendering="auto" solid-color="#000000" style="font-feature-settings:normal;font-variant-alternates:normal;font-variant-caps:normal;font-variant-ligatures:normal;font-variant-numeric:normal;font-variant-position:normal;isolation:auto;mix-blend-mode:normal;shape-padding:0;text-decoration-color:#000000;text-decoration-line:none;text-decoration-style:solid;text-indent:0;text-orientation:mixed;text-transform:none;white-space:normal"/>
<path d="m8 10c-2.847 0.001391-4.3965 0.85068-5.1914 1.7754-0.7949 0.9247-0.80859 1.9258-0.80859 1.9258v1.2988h6.7598c-0.20552-0.30677-0.3586-0.64616-0.48438-1h-5.2754v-0.29883s-0.013754-0.59858 0.56641-1.2734c0.58016-0.6749 1.7804-1.4264 4.4336-1.4277 0.097734-4.4e-5 0.1796 0.007808 0.27344 0.009766 0.12257-0.34725 0.27126-0.68019 0.4707-0.98242-0.24109-0.013762-0.48137-0.027464-0.74414-0.027344z" fill="#303030" style="font-feature-settings:normal;font-variant-alternates:normal;font-variant-caps:normal;font-variant-ligatures:normal;font-variant-numeric:normal;font-variant-position:normal;isolation:auto;mix-blend-mode:normal;shape-padding:0;text-decoration-color:#000000;text-decoration-line:none;text-decoration-style:solid;text-indent:0;text-orientation:mixed;text-transform:none;white-space:normal"/>
</svg>
