<svg width="16" height="16" enable-background="new" version="1.1" xmlns="http://www.w3.org/2000/svg">
<title>Pop Symbolic Icon Theme</title>
<path d="m7.9512 2.1055c-1.6509 0-3 1.3491-3 3s1.3491 3 3 3 3-1.3491 3-3-1.3491-3-3-3zm0 1c1.1105 0 2 0.88956 2 2 0 1.1104-0.88951 2-2 2-1.1105 0-2-0.88956-2-2s0.88951-2 2-2z" color="#000000" color-rendering="auto" dominant-baseline="auto" enable-background="accumulate" fill="#303030" image-rendering="auto" opacity=".3" shape-rendering="auto" solid-color="#000000" style="font-feature-settings:normal;font-variant-alternates:normal;font-variant-caps:normal;font-variant-ligatures:normal;font-variant-numeric:normal;font-variant-position:normal;isolation:auto;mix-blend-mode:normal;shape-padding:0;text-decoration-color:#000000;text-decoration-line:none;text-decoration-style:solid;text-indent:0;text-orientation:mixed;text-transform:none;white-space:normal"/>
<path d="m8 10c-2.847 0.001391-4.3965 0.85068-5.1914 1.7754-0.7949 0.9247-0.80859 1.9258-0.80859 1.9258v1.2988h5.2773c-0.17153-0.29506-0.27734-0.63395-0.27734-1h-4v-0.29883s-0.013754-0.59858 0.56641-1.2734c0.58016-0.6749 1.7804-1.4264 4.4336-1.4277 2.1001-9.5e-4 3.2821 0.47061 3.9746 1.002 0.008669-1.1e-4 0.016696-0.001953 0.025391-0.001953 0.60104 0 1.1335 0.2701 1.5 0.68945 0.05403-0.061813 0.11071-0.11908 0.17188-0.17383-0.11588-0.24019-0.26549-0.4919-0.48047-0.74219-0.79486-0.92547-2.3444-1.7747-5.1914-1.7734z" opacity=".3" style="font-feature-settings:normal;font-variant-alternates:normal;font-variant-caps:normal;font-variant-ligatures:normal;font-variant-numeric:normal;font-variant-position:normal;isolation:auto;mix-blend-mode:normal;shape-padding:0;text-decoration-color:#000000;text-decoration-line:none;text-decoration-style:solid;text-indent:0;text-orientation:mixed;text-transform:none;white-space:normal"/>
<g fill="#303030" fill-rule="evenodd">
<path d="m13 14c0 0.5525-0.4475 1-1 1s-1-0.4475-1-1 0.4475-1 1-1 1 0.4475 1 1"/>
<path d="m10 14c0 0.5525-0.4475 1-1 1s-1-0.4475-1-1 0.4475-1 1-1 1 0.4475 1 1"/>
<path d="m16 14c0 0.5525-0.4475 1-1 1s-1-0.4475-1-1 0.4475-1 1-1 1 0.4475 1 1"/>
</g>
</svg>
