<svg width="24" height="24" version="1.1" viewBox="0 0 24 24" xmlns="http://www.w3.org/2000/svg" xmlns:xlink="http://www.w3.org/1999/xlink">
<defs>
<filter id="filter851" x="-.079526" y="-.089007" width="1.1591" height="1.178" color-interpolation-filters="sRGB">
<feGaussianBlur stdDeviation="0.46390291"/>
</filter>
</defs>
<path d="m11.102 5.5508c-3.5 0.39844-6.1016 3.5469-6.1016 7.0977v1.9492c0 1.8516 1.5 3.3008 3.3008 3.3008 0.39844 0 0.69922-0.30078 0.69922-0.69922v-3.6484c0-0.65234-0.55078-1.2031-1.1992-1.2031h-0.80078c-0.60156 0-1-0.5-0.89844-1.0977 0.5-2.8008 2.9492-4.8008 5.8984-4.8008s5.3984 2 5.8984 4.8984c0.10156 0.60156-0.34766 1.1016-0.89844 1.1016h-0.80078c-0.64844 0-1.1992 0.55078-1.1992 1.1992v3.6523c0 0.39844 0.30078 0.69922 0.69922 0.69922 1.8516 0 3.3008-1.5 3.3008-3.3008v-2.25c0-4.1016-3.6484-7.4492-7.8984-6.8984z" fill="#b3b3b3" filter="url(#filter851)"/>
<path d="m11.102 5.5508c-3.5 0.39844-6.1016 3.5469-6.1016 7.0977v1.9492c0 1.8516 1.5 3.3008 3.3008 3.3008 0.39844 0 0.69922-0.30078 0.69922-0.69922v-3.6484c0-0.65234-0.55078-1.2031-1.1992-1.2031h-0.80078c-0.60156 0-1-0.5-0.89844-1.0977 0.5-2.8008 2.9492-4.8008 5.8984-4.8008s5.3984 2 5.8984 4.8984c0.10156 0.60156-0.34766 1.1016-0.89844 1.1016h-0.80078c-0.64844 0-1.1992 0.55078-1.1992 1.1992v3.6523c0 0.39844 0.30078 0.69922 0.69922 0.69922 1.8516 0 3.3008-1.5 3.3008-3.3008v-2.25c0-4.1016-3.6484-7.4492-7.8984-6.8984z" fill="#0a7ac5"/>
</svg>
