<svg width="24" height="24" version="1.1" viewBox="0 0 24 24" xmlns="http://www.w3.org/2000/svg" xmlns:xlink="http://www.w3.org/1999/xlink">
<defs>
<linearGradient id="linear0" x1="7.8695" x2="20.831" y1="21.8" y2="21.8" gradientTransform="matrix(.38759 .67134 -.57544 .33223 14.1 -.8254)" gradientUnits="userSpaceOnUse">
<stop stop-color="#cfd4dd" offset="0"/>
<stop stop-color="#e7eaf5" offset=".13714"/>
<stop stop-color="#a5a6ad" offset=".63023"/>
<stop stop-color="#adb0b9" offset="1"/>
</linearGradient>
<linearGradient id="linear1" x1="8.5484" x2="18.076" y1="21.918" y2="23.568" gradientTransform="matrix(.38759 .67134 -.57544 .33223 14.1 -.8254)" gradientUnits="userSpaceOnUse">
<stop stop-color="#dbdbdb" offset="0"/>
<stop stop-color="#8f959c" offset="1"/>
</linearGradient>
<linearGradient id="linear2" x1="6.8533" x2="16.665" y1="23.513" y2="23.893" gradientTransform="matrix(.47472 .82225 -.46985 .27126 14.1 -.8254)" gradientUnits="userSpaceOnUse">
<stop stop-color="#373737" offset="0"/>
<stop stop-color="#5a5a5a" offset=".26111"/>
<stop stop-color="#191919" offset="1"/>
</linearGradient>
<linearGradient id="linear3" x1="11.404" x2="11.404" y1="7.2741" y2="12.356" gradientTransform="matrix(.48771 .84475 .45731 -.26403 -.49207 7.599)" gradientUnits="userSpaceOnUse">
<stop stop-color="#e4e4e4" offset="0"/>
<stop stop-color="#b1b1b3" offset="1"/>
</linearGradient>
<linearGradient id="linear4" x1="15.758" x2="8.95" y1="13.46" y2="14.037" gradientTransform="matrix(.48771 .84475 .45731 -.26403 -.49207 7.599)" gradientUnits="userSpaceOnUse">
<stop stop-color="#e4e4e4" stop-opacity="0" offset="0"/>
<stop stop-color="#97979f" stop-opacity=".61961" offset="1"/>
</linearGradient>
<radialGradient id="radial0" cx="13.626" cy="14.12" r="28.176" gradientTransform="matrix(.53709 .93027 -.41529 .23977 14.1 -.8254)" gradientUnits="userSpaceOnUse">
<stop stop-color="#4f5254" offset="0"/>
<stop stop-color="#1e1f20" offset="1"/>
</radialGradient>
<linearGradient id="linear5" x1="17.178" x2="1.5313" y1="11.413" y2="10.851" gradientTransform="matrix(.53709 .93027 -.41529 .23977 14.1 -.8254)" gradientUnits="userSpaceOnUse">
<stop stop-color="#343434" offset="0"/>
<stop stop-color="#141414" offset="1"/>
</linearGradient>
<radialGradient id="radial1" cx="9.7503" cy="15.797" r="7.4826" gradientTransform="matrix(.50749 .879 -.4395 .25375 14.1 -.8254)" gradientUnits="userSpaceOnUse">
<stop stop-color="#ababab" offset="0"/>
<stop stop-color="#5d6168" offset="1"/>
</radialGradient>
<filter id="filter1055" x="-.037378" y="-.03472" width="1.0748" height="1.0694" color-interpolation-filters="sRGB">
<feGaussianBlur stdDeviation="0.28940037"/>
</filter>
</defs>
<path d="m10.576 1.9941c-0.55237-0.026208-1.0613 0.079482-1.5156 0.3125 0.01365-0.00953 0.02523-0.021974 0.03906-0.03125-0.05469 0.027344-0.10938 0.054687-0.16016 0.085937-0.85032 0.49032-1.3683 1.4282-1.5801 2.6465-0.55223 1.4075-0.97726 3.4424-1.2773 6.0918-0.10552 0.03552-0.20926 0.07649-0.30664 0.13281-0.21531 0.12417-0.3839 0.30705-0.53125 0.51172-5.15e-4 7.15e-4 -0.0014 0.0012-2e-3 2e-3 -1.9747 1.1413-2.6499 3.6629-1.5098 5.6387l0.71875 1.2422c1.1367 1.9726 3.6641 2.6484 5.6367 1.5117l2e-3 -2e-3c0.25137-0.02503 0.49332-0.08071 0.70898-0.20508 0.09863-0.05676 0.18912-0.12452 0.27344-0.19922 2.4468 1.068 4.4241 1.7212 5.9199 1.9453 1.1574 0.42224 2.2243 0.43948 3.0723-0.05078 0.05078-0.02734 0.10156-0.05859 0.15234-0.09375l-0.06445 0.03125c0.12593-0.07962 0.25043-0.16245 0.36133-0.26172 2.0656-1.849 1.5305-7.0122-1.3516-12-2.4946-4.3228-5.9841-7.1851-8.5859-7.3086z" fill="#e6e6e6" fill-rule="evenodd" filter="url(#filter1055)"/>
<g transform="translate(-.49762 .49505)" fill-rule="evenodd">
<path d="m11.199 12.453c-1.043-1.8047-3.3438-2.4219-5.1484-1.3789l-0.3086 0.17578c-1.9766 1.1406-2.6523 3.6641-1.5117 5.6406l0.71875 1.2422c1.1367 1.9726 3.6641 2.6484 5.6367 1.5117l0.30861-0.17966c1.8047-1.043 2.4219-3.3477 1.3789-5.1484z" fill="url(#linear0)" stroke="url(#linear1)" stroke-width=".35885"/>
<path d="m11.297 19.438c1.3711-0.78906 1.3594-3.3828-0.027344-5.7852s-3.625-3.707-4.9961-2.9141c-1.375 0.79297-1.3633 3.3828 0.023437 5.7852 1.3906 2.4023 3.625 3.707 5 2.9141z" fill="url(#linear2)"/>
<path d="m10.621 18.828c6.2227 2.8516 9.6602 3.2305 10.309 1.1367 1.0586-3.418-6.8086-17.039-10.297-17.832-2.1367-0.48437-3.5234 2.6797-4.1719 9.4961-0.28516 3.0391 1.3828 5.9297 4.1602 7.1992z" fill="url(#linear3)"/>
<path d="m10.621 18.828c6.2227 2.8516 9.6602 3.2305 10.309 1.1367 1.0586-3.418-6.8086-17.039-10.297-17.832-2.1367-0.48437-3.5234 2.6797-4.1719 9.4961-0.28516 3.0391 1.3828 5.9297 4.1602 7.1992z" fill="url(#linear4)"/>
<g>
<path d="m20.562 21.133c2.5742-1.4844 2.1719-7.0039-0.90234-12.324-3.0703-5.3203-7.6484-8.4297-10.223-6.9414-2.5742 1.4844-2.1719 7.0039 0.90234 12.324 3.0703 5.3203 7.6484 8.4297 10.223 6.9414z"/>
<path d="m20.562 21.133c2.5742-1.4844 2.1719-7.0039-0.90234-12.324-3.0703-5.3203-7.6484-8.4297-10.223-6.9414-2.5742 1.4844-2.1719 7.0039 0.90234 12.324 3.0703 5.3203 7.6484 8.4297 10.223 6.9414z" fill="#fafafa"/>
<path d="m20.715 21.039c-0.05078 0.03516-0.10156 0.06641-0.15234 0.09375-2.5742 1.4883-7.1523-1.6211-10.223-6.9414-3.0742-5.3203-3.4766-10.84-0.90234-12.324 0.050781-0.03125 0.10547-0.058594 0.16016-0.085938-2.4062 1.6133-1.957 7.0195 1.0508 12.23 2.9805 5.1602 7.375 8.2383 9.9844 7.0664z" fill="#a1a1a1"/>
</g>
<path d="m20.09 19.957c2.0586-1.1914 1.5195-5.9805-1.207-10.699-2.7227-4.7187-6.6016-7.582-8.6602-6.3945-2.0625 1.1914-1.5234 5.9805 1.2031 10.699 2.7266 4.7227 6.6055 7.582 8.6641 6.3945z" fill="url(#radial0)" stroke="url(#linear5)" stroke-width=".35885"/>
<path d="m15 11.5c1.1875 2.0586 1.25 4.25 0.13281 4.8945-0.62891 0.36719-1.5039 0.15625-2.3555-0.46484-0.52734-0.69531-1.0352-1.4609-1.5078-2.2773-0.47266-0.81641-0.87891-1.6367-1.2148-2.4414-0.11328-1.0508 0.14062-1.9102 0.77344-2.2734 1.1133-0.64453 2.9844 0.50391 4.1719 2.5625z"/>
<path d="m15 11.5c1.1875 2.0586 1.25 4.25 0.13281 4.8945-0.62891 0.36719-1.5039 0.15625-2.3555-0.46484-0.52734-0.69531-1.0352-1.4609-1.5078-2.2773-0.47266-0.81641-0.87891-1.6367-1.2148-2.4414-0.11328-1.0508 0.14062-1.9102 0.77344-2.2734 1.1133-0.64453 2.9844 0.50391 4.1719 2.5625z" fill="url(#radial1)"/>
</g>
</svg>
