<svg width="24" height="24" version="1.1" viewBox="0 0 24 24" xmlns="http://www.w3.org/2000/svg">
<defs>
<filter id="filter873" x="-.045" y="-.03" width="1.09" height="1.06" color-interpolation-filters="sRGB">
<feGaussianBlur stdDeviation="0.225"/>
</filter>
</defs>
<title>android-device</title>
<path d="m12 3c-2.315 0-4.1992 1.8792-4.1992 4.1992v2.8008h8.3984v-2.8008c0-2.312-1.8792-4.1992-4.1992-4.1992zm0 3a1 1 0 0 1 1 1 1 1 0 0 1-1 1 1 1 0 0 1-1-1 1 1 0 0 1 1-1zm-6 5v2c0 2.7147 1.8477 5.4342 5 5.916v1.084h-3v1h8v-1h-3v-1.084c3.1519-0.48087 5-3.1956 5-5.916v-2h-1v2c0 2.5141-1.7613 5-5 5-3.238 0-5-2.4935-5-5v-2zm1.8008 0v1.8008c0 2.312 1.8792 4.1992 4.1992 4.1992 2.315 0 4.1992-1.8792 4.1992-4.1992v-1.8008z" fill="#b3b3b3" fill-rule="evenodd" filter="url(#filter873)"/>
<g transform="translate(1,1)">
<path d="m11 2c-2.315 0-4.1992 1.8792-4.1992 4.1992v2.8008h8.3984v-2.8008c0-2.312-1.8792-4.1992-4.1992-4.1992zm0 3a1 1 0 0 1 1 1 1 1 0 0 1-1 1 1 1 0 0 1-1-1 1 1 0 0 1 1-1zm-4.1992 5v1.8008c1e-7 2.312 1.8792 4.1992 4.1992 4.1992 2.315 0 4.1992-1.8792 4.1992-4.1992v-1.8008z" fill="#808080" fill-rule="evenodd"/>
<path d="m5 10v2c0 2.9915 2.238 6 6 6 3.7613 0 6-3.0021 6-6v-2h-1v2c0 2.5141-1.7613 5-5 5-3.238 0-5-2.4935-5-5v-2z" color="#000000" color-rendering="auto" dominant-baseline="auto" fill="#303030" image-rendering="auto" shape-rendering="auto" solid-color="#000000" style="font-feature-settings:normal;font-variant-alternates:normal;font-variant-caps:normal;font-variant-ligatures:normal;font-variant-numeric:normal;font-variant-position:normal;isolation:auto;mix-blend-mode:normal;shape-padding:0;text-decoration-color:#000000;text-decoration-line:none;text-decoration-style:solid;text-indent:0;text-orientation:mixed;text-transform:none;white-space:normal"/>
<path d="m12 19v-1.5h-2v1.5h-3v1h8v-1z" fill="#303030" fill-rule="evenodd"/>
</g>
</svg>
