<svg width="24" height="24" version="1.1" viewBox="0 0 24 24" xmlns="http://www.w3.org/2000/svg">
<title>计算机-24px</title>
<defs>
<linearGradient id="a" x1="9.3808" x2="9.3808" y1="7.3024" y2="20.467" gradientTransform="scale(1.2792 .78174)" gradientUnits="userSpaceOnUse">
<stop stop-color="#0E004D" offset="0"/>
<stop stop-color="#4735E4" offset="1"/>
</linearGradient>
<filter id="filter919" x="-.021273" y="-.027529" width="1.0425" height="1.0551" color-interpolation-filters="sRGB">
<feGaussianBlur stdDeviation="0.19500025"/>
</filter>
<filter id="filter933" x="-.019648" y="-.21462" width="1.0393" height="1.4292" color-interpolation-filters="sRGB">
<feGaussianBlur stdDeviation="0.18010563"/>
</filter>
</defs>
<g fill-rule="evenodd">
<rect x="1" y="19.986" width="22" height="2.0141" rx=".4685" fill="#b3b3b3" filter="url(#filter933)"/>
<path d="m1 3.49c0-0.27 0.218-0.49 0.5-0.49h21c0.276 0 0.5 0.215 0.5 0.49v16.02c0 0.27-0.218 0.49-0.5 0.49h-21a0.493 0.493 0 0 1-0.5-0.49z" fill="#b3b3b3" filter="url(#filter919)"/>
<path d="m1 3.49c0-0.27 0.218-0.49 0.5-0.49h21c0.276 0 0.5 0.215 0.5 0.49v16.02c0 0.27-0.218 0.49-0.5 0.49h-21a0.493 0.493 0 0 1-0.5-0.49z" fill="#f6fcff"/>
<rect x="1" y="19.986" width="22" height="2.0141" rx=".4685" fill="#f6fcff"/>
<path d="m2 4h20v13h-20z"/>
<path d="m3 5h18v11h-18z" fill="url(#a)"/>
<path d="m21 11.974-1.5-0.739-2-2.34-1 0.473-2-2.368-1 0.947-1-0.947-4.036 4.54-3.714 0.434-1.75 0.946v3.08h17.5c0.276 0 0.5-0.216 0.5-0.494z" fill="#3612c1"/>
<path d="m9 16 9.5-2.368 2.5 1.421v0.947z" fill="#4224ca"/>
<path d="m16.25 11.974 1.25-3.079 1 4.737z" fill="#5042ec"/>
<path d="m12.5 7-1.5 3.176-1.5 2.035-2.5 0.947z" fill="#ab76ef"/>
<path d="m13.5 9.368-1 0.474 2.5 0.711 0.5-0.427-1-1.231z" fill="#4531d8"/>
<path d="m13 8.421-2 1.755 1.5-0.334 2-0.947z" fill="#7365ee"/>
<path d="m11 10.176 1.25 2.366-2.75-0.331z" fill="#5241eb"/>
<path d="m9.5 12.211-2.5 0.947 1.5 1.042z" fill="#6c51ef"/>
<path d="m5.5 14.247 3-0.047 0.5 1.8z" fill="#3e2bcd"/>
<path d="m8.5 14.2 4.5-1.989 1-0.948 0.25 0.948-5.25 3.789z" fill="#593ef3"/>
<path d="M 3,16 5.5,14.247 9,16 Z" fill="#4735e4"/>
<path d="m13 8.421-0.5-1.421-1 2.118z" fill="#523de0"/>
<path d="m9 16 4.5-3.789 2.75-0.237 2.25 1.658z" fill="#654af8"/>
<path d="m14 11.263 2.5-1.895 1-0.473-1.25 3.079-3.25 0.71z" fill="#7f5ef1"/>
<path d="m14 11.263-1 1.421 2.25-1.184 2.25-2.605-1 0.473z" fill="#b57bff"/>
<path d="m14.5 7-1.5 1.421 1.5 0.474z" fill="#ab76ef"/>
<path d="m12.5 9.842 1.5 1.421-1 0.948-0.8 0.284z" fill="#442ae7"/>
<path d="m7 13.158-2.25-1.184 3.75-0.474z" fill="#7f5ef1"/>
<path d="m4.75 11.974-1.75 0.947 4 0.237z" fill="#593ef3"/>
<path d="m6 13.395-0.5 0.852-2.5 1.753v-1.895z" fill="#452ac5"/>
<path d="m16.25 11.974-0.25 2.273 2.5-0.615z" fill="#411bce"/>
<path d="m3 14.105v-1.184l4 0.237z" fill="#6f4ee6"/>
<path d="m3 5h4.875l6.375 11h-11.25z" fill="#fff" opacity=".123"/>
</g>
</svg>
