<svg width="24" height="24" version="1" xmlns="http://www.w3.org/2000/svg">
<defs>
<filter id="filter841" x="-.024" y="-.024" width="1.048" height="1.048" color-interpolation-filters="sRGB">
<feGaussianBlur stdDeviation="0.2"/>
</filter>
</defs>
<rect transform="matrix(0,-1,-1,0,8,0)" x="-22" y="-14" width="20" height="20" rx="1" ry="1" fill="#b3b3b3" filter="url(#filter841)"/>
<rect transform="matrix(0,-1,-1,0,0,0)" x="-22.5" y="-22" width="20" height="20" rx="1" ry="1" opacity=".2"/>
<rect transform="matrix(0,-1,-1,0,0,0)" x="-22" y="-22" width="20" height="20" rx="1" ry="1" fill="#4f4f4f"/>
<g opacity=".4">
<rect x="3" y="16" width="8" height="5" rx="1" ry="1"/>
<rect x="13" y="16" width="8" height="5" rx="1" ry="1"/>
<rect x="18" y="13" width="3" height="1"/>
<rect x="18" y="11" width="3" height="1"/>
<rect x="18" y="9" width="3" height="1"/>
<rect x="18" y="7" width="3" height="1"/>
</g>
<path d="m3 2c-0.554 0-1 0.446-1 1v0.5c0-0.554 0.446-1 1-1h18c0.554 0 1 0.446 1 1v-0.5c0-0.554-0.446-1-1-1z" fill="#fff" opacity=".1"/>
</svg>
