<svg width="24" height="24" enable-background="new" version="1.1" xmlns="http://www.w3.org/2000/svg">
<defs>
<linearGradient id="linearGradient914" x1="9.737" x2="19.02" y1="2.5e-8" y2="27.517" gradientTransform="matrix(1.2525,0,0,1.2525,2.3245,-9.3193)" gradientUnits="userSpaceOnUse">
<stop stop-color="#909090" offset=".01378"/>
<stop stop-color="#585858" offset="1"/>
</linearGradient>
</defs>
<title>Pop Symbolic Icon Theme</title>
<g transform="matrix(.52226 0 0 .52226 1.7857 7.8672)">
<path d="m24.642-5.4903 8.3196 8.3195c5.1053 5.1053 5.1053 13.383 0 18.488s-13.383 5.1053-18.488 0l-8.3195-8.3196c-5.1053-5.1053-5.1053-13.383 0-18.488s13.383-5.1053 18.488 0z" fill="url(#linearGradient914)" fill-rule="evenodd" stroke-width="1.2525"/>
<g transform="translate(-4.4606,-16.104)">
<polygon transform="matrix(1.2525,0,0,1.2525,6.7851,6.7851)" points="3.537 1.931 11.586 9.981 10.463 11.103 2.414 3.054"/>
<polygon transform="matrix(1.2525,0,0,1.2525,6.7851,6.7851)" points="3.537 1.931 11.586 9.981 10.463 11.103 2.414 3.054" fill="#4a4a4a"/>
<polygon transform="matrix(1.2525,0,0,1.2525,6.7851,6.7851)" points="2.897 17.242 17.741 2.897 18.828 3.999 3.983 18.345"/>
<polygon transform="matrix(1.2525,0,0,1.2525,6.7851,6.7851)" points="2.897 17.242 17.741 2.897 18.828 3.999 3.983 18.345" fill="#4a4a4a"/>
</g>
</g>
</svg>
