<svg width="24" height="24" version="1.1" viewBox="0 0 24 24" xmlns="http://www.w3.org/2000/svg">
<defs>
<filter id="filter907" x="-.039" y="-.033429" width="1.078" height="1.0669" color-interpolation-filters="sRGB">
<feGaussianBlur stdDeviation="0.29250009"/>
</filter>
</defs>
<title>android-device</title>
<g fill-rule="evenodd">
<path d="m3 1.747c0-0.412 0.4995-0.747 1.125-0.747h15.75c0.621 0 1.125 0.33 1.125 0.747v19.506a1.1205 0.747 0 0 1-1.125 0.747h-15.75a1.119 0.746 0 0 1-1.125-0.747z" fill="#b3b3b3" filter="url(#filter907)"/>
<path d="m3 1.747c0-0.412 0.4995-0.747 1.125-0.747h15.75c0.621 0 1.125 0.33 1.125 0.747v19.506a1.1205 0.747 0 0 1-1.125 0.747h-15.75a1.119 0.746 0 0 1-1.125-0.747z" fill="#c1b6aa"/>
<path d="m4 2.38c0-0.21 0.2784-0.38 0.608-0.38h14.784c0.336 0 0.608 0.164 0.608 0.38v18.24c0 0.21-0.2784 0.38-0.608 0.38h-14.784a0.6016 0.376 0 0 1-0.608-0.38z" fill="#f7ebde"/>
<path d="m5 5h14v14h-14z" fill="#1a1a1a"/>
<circle cx="14.5" cy="3.5" r=".5" fill="#1c1c1c"/>
</g>
<path d="m10.5 3.5h2" fill="none" stroke="#8a837b" stroke-linecap="round"/>
</svg>
