<svg width="24" height="24" version="1.1" viewBox="0 0 24 24" xmlns="http://www.w3.org/2000/svg"><title>深度云打印-linux-24px</title><defs><filter id="a" color-interpolation-filters="sRGB"><feFlood flood-color="#000" flood-opacity=".196" result="flood"/><feComposite in="flood" in2="SourceGraphic" operator="in" result="composite1"/><feGaussianBlur in="composite1" result="blur" stdDeviation=".5"/><feOffset dx="0" dy=".5" result="offset"/><feComposite in="SourceGraphic" in2="offset" result="composite2"/></filter></defs><g fill-rule="evenodd" filter="url(#a)"><path d="M5 8c.21 0 0-.216 0 0V2c0 .217.21 0 0 0h14c-.209 0 0 .216 0 0v6c0-.215-.21 0 0 0z" fill="#0080ff"/><path d="M23 12.439c0-2.072-1.363-3.818-3.227-4.373-.535-2.134-2.435-3.714-4.704-3.714-.66 0-1.288.135-1.862.376A5.338 5.338 0 0 0 9.28 3C6.328 3 3.933 5.408 3.888 8.393A4.429 4.429 0 0 0 1 12.561c0 2.436 1.934 4.411 4.328 4.433V17h13.317v-.008C21.062 16.918 23 14.91 23 12.439z" fill="#e7f4ff"/><circle cx="20.75" cy="12.75" r=".75" fill="#0fb8ff"/><path d="M5 13v8c0 .775.242 1 1 1h13c-.208 0 0-.225 0-1v-8z" fill="#0080ff"/><path fill="#fff" d="M7 15h10v1H7zM7 18h10v1H7z"/></g></svg>