<svg xmlns="http://www.w3.org/2000/svg" xmlns:xlink="http://www.w3.org/1999/xlink" height="24" width="24">
    <defs>
        <linearGradient id="a">
            <stop stop-color="#fce080" offset="0"/>
            <stop stop-color="#fee69d" offset="1"/>
        </linearGradient>
        <linearGradient y2="13" x2="-30" y1="35.868" x1="-30" gradientTransform="matrix(1.3 0 0 1.3 73.6 6.6)" gradientUnits="userSpaceOnUse" id="b" xlink:href="#a"/>
    </defs>
    <path d="M12.6 6.964L12.5 4C11 2.384 11.036 2 9.537 2H1.89C.69 2 .052 2.652.036 3.954L0 6.964" fill="#ecc359"/>
    <path d="M9.9 56C7.3 56 6 54.7 6 52.1V22.075l20.635.055c3.198.009 3.198-.82 6.448-4.046H54.1c2.6 0 3.9.692 3.9 3.292V52.1c0 2.6-1.3 3.9-3.9 3.9z" fill="url(#b)" transform="matrix(.46154 0 0 .50111 -2.77 -5.062)"/>
    <path d="M.135 22c.236.664.788 1 1.666 1h20.398c.878 0 1.43-.336 1.666-1z" fill-opacity=".392"/>
                <g transform="translate(4 7)">
            <path d="M6.5 2A2.495 2.495 0 0 0 4 4.5C4 5.885 5.115 7 6.5 7S9 5.885 9 4.5 7.885 2 6.5 2zm0 1C7.331 3 8 3.669 8 4.5S7.331 6 6.5 6 5 5.331 5 4.5 5.669 3 6.5 3zM12 4c-1.108 0-2 .892-2 2s.892 2 2 2 2-.892 2-2-.892-2-2-2zm0 1c.554 0 1 .446 1 1s-.446 1-1 1-1-.446-1-1 .446-1 1-1zM6.5 8A4.49 4.49 0 0 0 2 12.5V14h9v-1.5A4.49 4.49 0 0 0 6.5 8zm0 1c1.939 0 3.5 1.561 3.5 3.5v.5H3v-.5C3 10.561 4.561 9 6.5 9zM12 9c-.555 0-1.067.16-1.512.42.243.237.466.495.657.777A1.996 1.996 0 0 1 14 12h-2.1c.066.323.1.657.1 1h3v-1c0-1.662-1.338-3-3-3z" fill="#6f5f34" color="#6f5f34"/>

    </g>
</svg>
