<svg width="16" height="16" version="1.1" viewBox="0 0 16 16" xmlns="http://www.w3.org/2000/svg">
<title>adjustlevels</title>
<g transform="translate(-4,-4)" fill="#232629">
<path d="m8.085 14a1.498 1.498 0 0 0 0 1h-3.085v-1zm2.83 0h8.085v1h-8.085a1.498 1.498 0 0 0 0-1z"/>
<path d="m9.5 17a2.5 2.5 0 1 1 0-5 2.5 2.5 0 0 1 0 5zm0-1a1.5 1.5 0 1 0 0-3 1.5 1.5 0 0 0 0 3zm6.415-7a1.498 1.498 0 0 1 0 1h3.085v-1zm-2.83 0h-8.085v1h8.085a1.498 1.498 0 0 1 0-1z"/>
<path d="m14.5 12a2.5 2.5 0 1 0 0-5 2.5 2.5 0 0 0 0 5zm0-1a1.5 1.5 0 1 1 0-3 1.5 1.5 0 0 1 0 3z"/>
</g>
</svg>
