<svg width="16" height="16" version="1.1" viewBox="0 0 16 16" xmlns="http://www.w3.org/2000/svg">
<title>adjustrgb</title>
<g transform="translate(-4,-4)" fill="#232629">
<path d="m10 8.085a1.498 1.498 0 0 0-1 0v-3.085h1zm0 2.83v8.085h-1v-8.085a1.498 1.498 0 0 0 1 0z"/>
<path d="m7 9.5a2.5 2.5 0 1 1 5 0 2.5 2.5 0 0 1-5 0zm1 0a1.5 1.5 0 1 0 3 0 1.5 1.5 0 0 0-3 0zm7 6.415a1.498 1.498 0 0 1-1 0v3.085h1zm0-2.83v-8.085h-1v8.085a1.498 1.498 0 0 1 1 0z"/>
<path d="m12 14.5a2.5 2.5 0 1 0 5 0 2.5 2.5 0 0 0-5 0zm1 0a1.5 1.5 0 1 1 3 0 1.5 1.5 0 0 1-3 0z"/>
</g>
</svg>
