<svg version="1.1" viewBox="0 0 16 16" xmlns="http://www.w3.org/2000/svg">
<style id="current-color-scheme" type="text/css">.ColorScheme-Text{color:#232629;}</style>
<g transform="translate(-4.004,-3.036)" fill="#303030">
<path d="m6.86 6.263a720.67 720.67 0 0 1-0.467 1.534l-0.328 1.09-0.061 0.263v7.885h11v-7.88l-0.07-0.286a72.432 72.432 0 0 1-0.362-1.185l-0.059-0.198a75.863 75.863 0 0 0-0.46-1.49c0.012 0.022 4e-3 0.026-0.06 0.033l-0.107 6e-3h-8.986c0.021 0.016-5e-3 0.073-0.04 0.228zm-0.086-1.228h9.112c0.421-0.045 0.875 0.093 1.073 0.531 0.332 0.983 0.615 2.01 0.929 3l0.116 0.47v8c0 0.553-0.414 1-0.929 1h-11.143c-0.514 0-0.928-0.447-0.928-1v-8l0.087-0.376c0.263-0.894 0.542-1.796 0.812-2.687 0.094-0.458 0.408-0.895 0.871-0.938z"/>
<path d="m7.693 7h7.605l0.296 1h-8.192zm3.311 3.035h1v2.965h1.996l-2.496 3-2.504-3h2.004z"/>
</g>
</svg>
