<svg width="16" height="16" version="1.1" viewBox="0 0 16 16" xmlns="http://www.w3.org/2000/svg">
<title>colorneg</title>
<g transform="translate(-4,-4.04)" fill="#232629">
<path d="m5 5.04v14h14v-14zm-1-1h16v16h-16z"/>
<path d="m9.152 14.887a4.0005 4.0005 0 1 0 5.658-5.657l4.19-4.19-3.469 3.466-0.723 0.724 0.723-0.722a4.977 4.977 0 0 1 1.469 3.531 5 5 0 0 1-5 5 4.98 4.98 0 0 1-3.531-1.47l-3.469 3.469 4.152-4.152zl-0.683 0.681 0.682-0.682z"/>
<path d="m9.153 14.895 5.667-5.667a3.924 3.924 0 0 0-5.649-0.056c-1.562 1.562-1.594 4.147-0.032 5.71z"/>
</g>
</svg>
