<svg width="16" height="16" version="1.1" viewBox="0 0 16 16" xmlns="http://www.w3.org/2000/svg">
<title>contrast</title>
<path d="m7.499 1e-3v1.812h1v-1.813h-1zm-4.813 1.97-0.718 0.717 1.281 1.312 0.719-0.75-1.282-1.28zm10.625 0-1.28 1.28 0.718 0.75 1.281-1.313-0.718-0.717zm-5.312 1.03a5 5 0 1 0 0 10 5 5 0 0 0 0-10zm0 1v8a4 4 0 0 1 0-8zm-8 3.5v1h1.813v-1zm14.19 0v1h1.812v-1h-1.813zm-10.94 4.53-1.281 1.282 0.718 0.718 1.282-1.28zm9.5 0-0.719 0.72 1.282 1.28 0.718-0.718zm-5.25 2.157v1.812h1v-1.812z" fill="#232629"/>
</svg>
