<svg width="16" height="16" version="1.1" viewBox="0 0 16 16" xmlns="http://www.w3.org/2000/svg">
<title>distribute-graph</title>
<path d="m7.492-2e-3 8e-3 4e-3a1.5 1.5 0 0 0-1.387 2.07l-3.892 3.116a1.5 1.5 0 0 0-2.221 1.314 1.5 1.5 0 0 0 1 1.412v5.176a1.5 1.5 0 0 0 0.5 2.912 1.5 1.5 0 0 0 1.412-1h4.176a1.5 1.5 0 0 0 2.912-0.5 1.5 1.5 0 0 0-0.186-0.717l3.118-3.896a1.5 1.5 0 1 0-0.016-2.768l-4.094-4.912a1.5 1.5 0 0 0 0.17-0.71 1.5 1.5 0 0 0-1.5-1.5zm-0.71 2.82a1.5 1.5 0 0 0 1.3 0.065l4.096 4.914a1.5 1.5 0 0 0 6e-3 1.43l-3.116 3.894a1.5 1.5 0 0 0-1.982 0.889h-4.176a1.5 1.5 0 0 0-0.91-0.91v-5.176a1.5 1.5 0 0 0 0.887-1.98l3.894-3.116v-0.01zm0.718-0.816a0.5 0.5 0 1 1 0-1 0.5 0.5 0 0 1 0 1zm6 7a0.5 0.5 0 1 1 0-1 0.5 0.5 0 0 1 0 1zm-5 6a0.5 0.5 0 1 1 0-1 0.5 0.5 0 0 1 0 1zm-7 0a0.5 0.5 0 1 1 0-1 0.5 0.5 0 0 1 0 1zm0-8a0.5 0.5 0 1 1 0-1 0.5 0.5 0 0 1 0 1z" fill="#232629"/>
</svg>
