<svg version="1.1" viewBox="0 0 16 16" xmlns="http://www.w3.org/2000/svg">
<defs>
<style id="current-color-scheme" type="text/css">.ColorScheme-Text {
        color:#232629;
      }</style>
</defs>
<g transform="translate(-4,-4.004)" fill="#232629">
<path d="m14.532 7.004 4.166 5-4.166 5h-9.532v-10zm0.468-1h-11v12h11l5-6z"/>
<path d="m9.966 10.293-1.293 1.293-1.293-1.293a0.487 0.487 0 0 0-0.818 0.484 0.564 0.564 0 0 0 0.119 0.223l1.298 1.293-1.293 1.293a0.496 0.496 0 0 0 0.547 0.806 0.516 0.516 0 0 0 0.16-0.1l1.293-1.292 1.293 1.293a0.485 0.485 0 0 0 0.808-0.515 0.633 0.633 0 0 0-0.118-0.192l-1.3-1.293 1.301-1.293a0.49 0.49 0 0 0-0.48-0.818 0.51 0.51 0 0 0-0.223 0.111z"/>
</g>
</svg>
