<svg version="1.1" viewBox="0 0 16 16" xmlns="http://www.w3.org/2000/svg">
<defs>
<style id="current-color-scheme" type="text/css">.ColorScheme-Text {
        color:#232629;
      }
      .ColorScheme-Highlight {
        color:#3daee9;
      }</style>
</defs>
<g>
<path d="m11 2v3h3v-3h-3zm1 1h1v1h-1v-1z" fill="#232629"/>
<path d="m2 11v3h3v-3h-3zm1 1h1v1h-1v-1z" fill="#232629"/>
<path d="m11 3a8 8 0 0 0-5.2812 2h0.28125v1h-1v-0.27734a8 8 0 0 0-2 5.2773h1a7 7 0 0 1 7-7v-1z" fill="#3daee9"/>
<path d="m4 4v3h3v-3zm1 1h1v1h-1z" fill="#232629"/>
</g>
</svg>
