<svg version="1.1" viewBox="0 0 16 16" xmlns="http://www.w3.org/2000/svg">
<defs>
<style id="current-color-scheme" type="text/css">.ColorScheme-Text {
        color:#232629;
      }</style>
</defs>
<rect transform="rotate(90)" x="3" y="-11" width="1" height="6.2345" ry="0" fill="#3daee9" fill-rule="evenodd" style="paint-order:normal"/>
<rect x="3" y="4.7655" width="1" height="6.2345" ry="0" fill="#3daee9" fill-rule="evenodd" style="paint-order:normal"/>
<g fill="#232629" fill-rule="evenodd">
<path d="m11 2v3h3v-3h-3zm1 1h1v1h-1v-1z" style="paint-order:normal"/>
<path d="m3.5 2a1.5 1.5 0 0 0-1.5 1.5 1.5 1.5 0 0 0 1.5 1.5 1.5 1.5 0 0 0 1.5-1.5 1.5 1.5 0 0 0-1.5-1.5zm0.039062 1c0.276 0 0.5 0.224 0.5 0.5s-0.224 0.5-0.5 0.5-0.5-0.224-0.5-0.5 0.224-0.5 0.5-0.5z" style="paint-order:normal"/>
<path d="m2 11v3h3v-3zm1 1h1v1h-1z" style="paint-order:normal"/>
</g>
</svg>
