<svg version="1.1" viewBox="0 0 16 16" xmlns="http://www.w3.org/2000/svg">
<defs>
<style id="current-color-scheme" type="text/css">.ColorScheme-Text {
        color:#232629;
      }</style>
</defs>
<g transform="translate(-4,-4)">
<path d="m6 5v13h13v-1h-12v-1.611c0.12-0.233 0.24-0.466 0.393-0.684 0.816-1.164 2.146-2.146 4.683-2.656 2.674-0.538 4.213-1.484 5.045-2.68s0.91-2.559 0.893-3.797a0.50006 0.50006 0 1 0-1 0.016c0.017 1.182-0.07 2.284-0.715 3.21-0.645 0.928-1.893 1.762-4.42 2.27-2.354 0.474-3.884 1.393-4.879 2.522v-8.59z" fill="#303030"/>
<path d="m18 6.4c-0.043 1-0.229 2.035-0.879 2.97-0.832 1.195-2.37 2.141-5.045 2.679-2.537 0.51-3.867 1.492-4.683 2.656-0.153 0.218-0.273 0.451-0.393 0.684v1.611h11z" opacity=".3"/>
</g>
</svg>
