<svg width="16px" height="16px" version="1.1" viewBox="0 0 16 16" xmlns="http://www.w3.org/2000/svg">
<title>folder-videos-symbolic</title>
<desc>Created with Sketch.</desc>
<g id="folder-videos-symbolic" fill="#232629">
<path id="Combined-Shape" d="m11 6v2h2c0.27614 0 0.5 0.22386 0.5 0.5s-0.22386 0.5-0.5 0.5h-2v2h2c0.27614 0 0.5 0.22386 0.5 0.5s-0.22386 0.5-0.5 0.5h-2v2c0 0.27614-0.22386 0.5-0.5 0.5s-0.5-0.22386-0.5-0.5v-5h-4v5c0 0.27614-0.22386 0.5-0.5 0.5s-0.5-0.22386-0.5-0.5v-2h-2c-0.27614 0-0.5-0.22386-0.5-0.5s0.22386-0.5 0.5-0.5h2v-2h-2c-0.27614 0-0.5-0.22386-0.5-0.5s0.22386-0.5 0.5-0.5h2v-2h-2c-0.27614 0-0.5-0.22386-0.5-0.5s0.22386-0.5 0.5-0.5h2v-2c0-0.27614 0.22386-0.5 0.5-0.5s0.5 0.22386 0.5 0.5v5h4v-5c0-0.27614 0.22386-0.5 0.5-0.5s0.5 0.22386 0.5 0.5v2h2c0.27614 0 0.5 0.22386 0.5 0.5s-0.22386 0.5-0.5 0.5z"/>
<path d="m2 2.5c0-0.27614 0.22386-0.5 0.5-0.5h11c0.27614 0 0.5 0.22386 0.5 0.5v12c0 0.27614-0.22386 0.5-0.5 0.5h-11c-0.27614 0-0.5-0.22386-0.5-0.5zm1 11.5h10v-11h-10z"/>
</g>
</svg>
