<svg width="16" height="16" version="1.1" viewBox="0 0 16 16" xmlns="http://www.w3.org/2000/svg">
<title>kstars_deepsky</title>
<path d="m6.5 0a0.5 0.5 0 1 0 0 1 0.5 0.5 0 0 0 0-1zm3 0a0.5 0.5 0 1 0 0 1 0.5 0.5 0 0 0 0-1zm-5 1a0.5 0.5 0 1 0 0 1 0.5 0.5 0 0 0 0-1zm7 0a0.5 0.5 0 1 0 0 1 0.5 0.5 0 0 0 0-1zm-9 1a0.5 0.5 0 1 0 0 1 0.5 0.5 0 0 0 0-1zm11 0a0.5 0.5 0 1 0 0 1 0.5 0.5 0 0 0 0-1zm-12 2a0.5 0.5 0 1 0 0 1 0.5 0.5 0 0 0 0-1zm13 0a0.5 0.5 0 1 0 0 1 0.5 0.5 0 0 0 0-1zm-14 2a0.5 0.5 0 1 0 0 1 0.5 0.5 0 0 0 0-1zm15 0a0.5 0.5 0 1 0 0 1 0.5 0.5 0 0 0 0-1zm-15 3a0.5 0.5 0 1 0 0 1 0.5 0.5 0 0 0 0-1zm15 0a0.5 0.5 0 1 0 0 1 0.5 0.5 0 0 0 0-1zm-14 2a0.5 0.5 0 1 0 0 1 0.5 0.5 0 0 0 0-1zm13 0a0.5 0.5 0 1 0 0 1 0.5 0.5 0 0 0 0-1zm-12 2a0.5 0.5 0 1 0 0 1 0.5 0.5 0 0 0 0-1zm11 0a0.5 0.5 0 1 0 0 1 0.5 0.5 0 0 0 0-1zm-9 1a0.5 0.5 0 1 0 0 1 0.5 0.5 0 0 0 0-1zm7 0a0.5 0.5 0 1 0 0 1 0.5 0.5 0 0 0 0-1zm-5 1a0.5 0.5 0 1 0 0 1 0.5 0.5 0 0 0 0-1zm3 0a0.5 0.5 0 1 0 0 1 0.5 0.5 0 0 0 0-1z" fill="#303030"/>
</svg>
