<svg width="16" height="16" version="1.1" viewBox="0 0 16 16" xmlns="http://www.w3.org/2000/svg">
<title>kstars_hgrid</title>
<path d="m4.03 0-0.704 1.809a17.486 17.486 0 0 1-3.326-1.385v1.388c0.933 0.465 1.892 0.858 2.875 1.159l-1.494 3.845c-0.47-0.214-0.928-0.458-1.381-0.716v1.408c0.309 0.159 0.617 0.32 0.932 0.463l-0.932 2.398v3.418l0.055-0.14a18.739 18.739 0 0 0 7.306 1.867l2e-3 0.486h1.237v-0.465a18.772 18.772 0 0 0 7.4-1.644v-3.703l-0.69-1.782c0.235-0.089 0.458-0.204 0.69-0.302v-1.346c-0.377 0.173-0.754 0.346-1.14 0.492l-1.596-4.107a19.01 19.01 0 0 0 2.736-0.965v-1.373c-1.03 0.495-2.095 0.893-3.186 1.177l-0.771-1.982h-1.338l0.879 2.256c-0.994 0.184-2 0.28-3.008 0.29l-6e-3 -2.546h-1.248l8e-3 2.518a17.591 17.591 0 0 1-2.79-0.39l0.826-2.128zm0.054 3.295c1.07 0.25 2.156 0.4 3.248 0.46l0.012 4.587a17.512 17.512 0 0 1-4.815-1.051zm7.957 0.135 1.643 4.218c-1.661 0.497-3.379 0.75-5.098 0.743l-8e-3 -4.606c1.161-0.012 2.32-0.13 3.463-0.355zm-9.96 5.015a18.78 18.78 0 0 0 5.267 1.135l0.011 4.695a17.47 17.47 0 0 1-6.85-1.796l1.571-4.034zm12.054 0.36 1.511 3.879a17.497 17.497 0 0 1-7.05 1.615l-8e-3 -4.672a18.844 18.844 0 0 0 5.547-0.822z" fill="#232629"/>
</svg>
