<svg width="16" height="16" version="1.1" viewBox="0 0 16 16" xmlns="http://www.w3.org/2000/svg">
<title>kstars_mw</title>
<path d="m4.654 15.02 0.836 3e-3h0.244c1.699-2.654 2.22-3.943 2.237-5.816v-2.944l6e-3 -0.11c0.131-1.177 0.614-2.1 1.75-2.228 1.013-0.055 1.959 0.2 2.69 0.668 0.28 0.18 0.245 0.159 0.35 0.214 0.269 0.14 0.55 0.218 0.88 0.218h1.353v-3.003h-0.06c-0.674 0.054-1.155-0.113-1.922-0.525l-0.093-0.05a4.753 4.753 0 0 0-0.534-0.264c-0.161-0.04-0.22-0.053-0.321-0.075a5.264 5.264 0 0 0-1.127-0.134c-0.192 5e-3 -0.346 7e-3 -0.681 9e-3 -0.329 2e-3 -0.474 4e-3 -0.651 8e-3 -0.633 0.017-1.11 0.068-1.587 0.185-1.406 0.616-2.39 1.962-2.86 3.765 2e-3 -0.013-0.092 0.32-0.124 0.455-0.067 0.29-0.106 0.578-0.106 0.865l-1e-3 2.905c-0.064 1.714-0.913 2.786-2.737 4.146-0.196 0.14-0.374 0.258-0.686 0.462l-0.075 0.05c-0.179 0.117-0.317 0.208-0.434 0.287l1e-3 0.908c1.314-3e-3 2.35-2e-3 3.652 1e-3zm6.278-15.045c0.756 0 1.386 0.161 1.754 0.252 0.737 0.265 1.368 0.864 2.173 0.799h1.141v5h-2.354c-0.92 0-1.505-0.42-1.771-0.592-0.477-0.305-1.206-0.558-2.094-0.51-0.507 0.059-0.74 0.716-0.81 1.34v2.944c-0.024 2.56-1.09 4.356-2.694 6.818-1.993-5e-3 -3.304-0.013-6.273-3e-3l-4e-3 -2.43c0.525-0.39 1.083-0.719 1.62-1.097 1.15-0.858 2.255-1.81 2.314-3.367v-2.868c0-0.775 0.22-1.406 0.26-1.564 0.498-1.912 1.608-3.676 3.51-4.47 1.13-0.295 2.132-0.226 3.228-0.253z" fill="#232629"/>
</svg>
