<svg width="16" height="16" version="1.1" viewBox="0 0 16 16" xmlns="http://www.w3.org/2000/svg">
<title>kstars_supernovae</title>
<path d="m15.809 0.0024473c-0.33-0.029-1.331 0.337-1.681 0.553-0.783 0.365-2.194 1.109-3.861 2.443 0.114 0.081 0.227 0.172 0.336 0.266 1.59-1.174 2.697-1.604 3.042-1.139 0.325 0.436-0.254 1.508-1.363 2.924-1.045-1.77-2.946-2.727-4.875-2.453-2.74 0.392-4.668 3.109-4.304 6.068 0.057 0.462 0.17 0.915 0.335 1.346-1.88 2.43-3.83 5.197-3.37 5.814 0.495 0.668 3.226-0.642 6.126-2.861 0.802 0.35 1.674 0.47 2.532 0.348 2.74-0.394 4.666-3.11 4.302-6.069a5.766 5.766 0 0 0-0.23-1.035c2.16-2.86 3.585-5.528 3.11-6.168-0.017-0.022-0.051-0.033-0.098-0.037zm-12.186 10.432a5.308 5.308 0 0 0 1.527 1.904c-1.463 1.188-2.54 1.757-2.88 1.299-0.338-0.455 0.203-1.586 1.353-3.203zm4.376 1.946c-2.21 0-4-1.99-4-4.446 0-2.456 1.79-4.447 4-4.447 2.21 0 4 1.991 4 4.447 0 2.456-1.79 4.446-4 4.446z" fill="#232629"/>
</svg>
