<svg width="16" height="16" version="1.1" viewBox="0 0 16 16" xmlns="http://www.w3.org/2000/svg">
<title>reply-all</title>
<g transform="translate(-3.9722 -3.004)" fill="#232629">
<path d="m10.5 5.5v1.043l-4.971 3.457 4.971 3.457v1.043l-6.471-4.5z"/>
<path d="m13 7.418v1.586h2c2.427 0 4 1.658 4 4.25 0 0.598-0.184 1.154-0.527 1.669 0.06-0.439 0.04-0.847-0.084-1.228-0.51-1.571-2.126-2.691-3.889-2.691h-1.5v1.586l-3.718-2.586zm7 5.836c0-3.124-2-5.25-5-5.25h-1v-2.5l-6.469 4.5 6.469 4.5v-2.5h1v0.04c1.152 0.18 2.117 0.973 2.438 1.96 0.437 1.346-1.434 3.995-1.438 4 6e-3 -2e-3 4-1.503 4-4.75z"/>
</g>
</svg>
