<svg version="1.1" viewBox="0 0 16 16" xmlns="http://www.w3.org/2000/svg">
<defs>
<style id="current-color-scheme" type="text/css">.ColorScheme-Text {
        color:#232629;
      }</style>
</defs>
<g fill="#232629">
<path d="m4.5 2a2.5 2.5 0 0 0-2.5 2.5 2.5 2.5 0 0 0 2.5 2.5 2.5 2.5 0 0 0 2.5-2.5 2.5 2.5 0 0 0-2.5-2.5zm-0.013672 1a1.5 1.5 0 0 1 1.5 1.5 1.5 1.5 0 0 1-1.5 1.5 1.5 1.5 0 0 1-1.5-1.5 1.5 1.5 0 0 1 1.5-1.5z"/>
<path d="m9 2v5h5v-5h-5zm1 1h3v3h-3v-3z"/>
<path d="m3 8v6h3v-6h-3zm1 1h1v4h-1v-4z"/>
<path d="m11 8-3 6h6l-3-6zm0 2 1.5 3h-3l1.5-3z"/>
</g>
</svg>
