<svg version="1.1" viewBox="0 0 16 16" xmlns="http://www.w3.org/2000/svg">
<defs>
<style id="current-color-scheme" type="text/css">.ColorScheme-Text {
        color:#232629;
      }</style>
</defs>
<g fill="#232629">
<path d="m1 3v2h2v-2z"/>
<path d="m9 3v2h2v-2z"/>
<path d="m13 3v2h2v-2z"/>
<path d="m1 7v2h2v-2z"/>
<path d="m9 7v2h2v-2z"/>
<path d="m13 7v2h2v-2z"/>
<path d="m1 11v2h2v-2z"/>
<path d="m9 11v2h2v-2z"/>
<path d="m13 11v2h2v-2z"/>
<path d="m5 3v2h2v-2z"/>
<path d="m5 7v2h2v-2z"/>
<path d="m5 11v2h2v-2z"/>
</g>
</svg>
