<svg width="16" height="16" version="1.1" viewBox="0 0 16 16" xmlns="http://www.w3.org/2000/svg">
<title>view-certificate</title>
<g transform="translate(-4 -3.9998)" fill="#232629">
<path d="m4 5c5.333-2e-3 10.667 6e-3 16 0v14c-8.667-2e-3 -14-2e-3 -16 0zm15 13v-12a4659 4659 0 0 1-8.539 0h-5.461v12c2.398-2e-3 7.065-2e-3 14 0z"/>
<path d="m13 7h6v1h-6zm-6 5.998h3v-1h-1v-2.5a0.495 0.495 0 0 0-0.5-0.498c-0.28 0-0.5 0.22-0.5 0.498v2.5h-1zm1.5-4.998c0.831 0 1.5 0.667 1.5 1.498v1.5h1v3h-5v-3h1v-1.5c0-0.83 0.669-1.498 1.5-1.498z"/>
<path d="m8 11h1v1h-1zm5-1.002h6v1h-6z"/>
</g>
</svg>
