<?xml version="1.0" encoding="UTF-8"?>
<svg width="16" height="16" version="1.1" viewBox="0 0 16 16" xmlns="http://www.w3.org/2000/svg" xmlns:cc="http://creativecommons.org/ns#" xmlns:dc="http://purl.org/dc/elements/1.1/" xmlns:rdf="http://www.w3.org/1999/02/22-rdf-syntax-ns#">
 <metadata>
  <rdf:RDF>
   <cc:Work rdf:about="">
    <dc:format>image/svg+xml</dc:format>
    <dc:type rdf:resource="http://purl.org/dc/dcmitype/StillImage"/>
    <dc:title/>
   </cc:Work>
  </rdf:RDF>
 </metadata>
 <defs>
  <style id="current-color-scheme" type="text/css">.ColorScheme-Text { color:#444444; } .ColorScheme-Highlight { color:#5294e2; }</style>
 </defs>
 <path class="ColorScheme-Text" d="m5.1545 2.482-0.92891 0.92891h-0.92891c-1.8578 0-1.8578 1.8578-1.8578 1.8578v6.5024c0 1.8578 1.8578 1.8578 1.8578 1.8578h9.2891c1.8578 0 1.8578-1.8578 1.8578-1.8578v-6.5024c0-1.8578-1.8578-1.8578-1.8578-1.8578h-0.92891l-0.92891-0.92891zm2.7867 2.7867c1.539 0 2.7867 1.2477 2.7867 2.7867 0 1.539-1.2477 2.7867-2.7867 2.7867-1.539 0-2.7867-1.2477-2.7867-2.7867 0-1.539 1.2477-2.7867 2.7867-2.7867z" color="#444444" fill="none" stroke="#000" stroke-width=".99526"/>
</svg>
