<svg width="16" height="16" version="1.1" viewBox="0 0 16 16" xmlns="http://www.w3.org/2000/svg">
<title>whitebalance</title>
<g transform="translate(-4,-4)" fill="#232629">
<path d="m11.5 4v1.813h1v-1.813zm-4.812 1.969-0.719 0.719 1.281 1.312 0.719-0.75zm10.623 0-1.28 1.281 0.719 0.75 1.281-1.312zm-5.311 1.031a5 5 0 1 1 0 10 5 5 0 0 1 0-10zm0 1a4 4 0 1 0 0 8 4 4 0 0 0 0-8zm-8 3.5v1h1.813v-1zm14.188 0v1h1.812v-1zm-10.938 4.531-1.281 1.282 0.719 0.718 1.281-1.281zm9.5 0-0.719 0.719 1.28 1.281 0.72-0.718zm-5.25 2.157v1.812h1v-1.812z" fill="#232629"/>
</g>
</svg>
