<svg xmlns="http://www.w3.org/2000/svg" xmlns:xlink="http://www.w3.org/1999/xlink" height="32" width="32">
    <defs>
        <linearGradient id="b">
            <stop offset="0" stop-color="#353535"/>
            <stop offset="1" stop-color="#303030"/>
        </linearGradient>
        <linearGradient id="a">
            <stop offset="0" stop-color="#fcfcfc"/>
            <stop offset=".523" stop-color="#aaa"/>
            <stop offset=".723" stop-color="#aaa"/>
            <stop offset=".89"  stop-color="#aaa"/>
            <stop offset="1" stop-color="#cecbcb"/>
        </linearGradient>
        <linearGradient xlink:href="#a" id="d" gradientUnits="userSpaceOnUse" gradientTransform="matrix(0 -.2131 .20914 0 1.545 26.272)" x1="86.738" y1="93.621" x2="95.182" y2="102.066"/>
        <linearGradient xlink:href="#b" id="c" x1="20" y1="14" x2="35" y2="54" gradientUnits="userSpaceOnUse" gradientTransform="matrix(.51812 0 0 .50943 -.702 -.557)"/>
    </defs>
    <path d="M5.257 29.755H26.5V9.887l-7.253-7.132H5.257z" fill="url(#c)"/>
    <path d="M18.75 2.5H5.5v27h21V10.396" fill="none" stroke="#606060"/>
    <path d="M18.75 2.5c.923 0 1.375.589 1.722 1.112.717 1.076.688 3.145.704 4.363 1.196.017 3.205-.035 4.26.694.514.355 1.064 1.114 1.064 1.727 0-.488-.226-.998-.794-1.597-1.829-1.924-3.335-3.657-5.229-5.405-.437-.405-.802-.894-1.727-.894z" fill="url(#d)" stroke="#606060"/>
        <g transform="translate(5 7)">
            <g fill="#00796B">
        <path d="M3 3v16h16V3H3zm1 4h14v11H4V7z"/>
        <path d="M11 8c-.834 0-1.612.256-2.16.735a2.48 2.48 0 0 0-.84 1.89h1.714c0-.396.136-.653.338-.829.202-.177.495-.296.948-.296.452 0 .745.12.947.296.202.176.338.433.338.829 0 .344-.076.49-.18.62-.447.394-.987.731-1.422 1.054-.49.322-.969.744-.969 1.326V14h1.714v-.375c.61-.546 1.517-1.022 2.083-1.522.298-.374.489-.884.489-1.478a2.48 2.48 0 0 0-.84-1.89C12.612 8.255 11.833 8 11 8zm-1.286 7.5V17h1.714v-1.5z" stroke-linecap="round" stroke-linejoin="round" stroke-width="2"/>
    </g>

    </g>
</svg>
