<svg xmlns="http://www.w3.org/2000/svg" xmlns:xlink="http://www.w3.org/1999/xlink" height="32" width="32">
    <defs>
        <linearGradient id="b">
            <stop offset="0" stop-color="#353535"/>
            <stop offset="1" stop-color="#303030"/>
        </linearGradient>
        <linearGradient id="a">
            <stop offset="0" stop-color="#fcfcfc"/>
            <stop offset=".523" stop-color="#aaa"/>
            <stop offset=".723" stop-color="#aaa"/>
            <stop offset=".89"  stop-color="#aaa"/>
            <stop offset="1" stop-color="#cecbcb"/>
        </linearGradient>
        <linearGradient xlink:href="#a" id="d" gradientUnits="userSpaceOnUse" gradientTransform="matrix(0 -.2131 .20914 0 1.545 26.272)" x1="86.738" y1="93.621" x2="95.182" y2="102.066"/>
        <linearGradient xlink:href="#b" id="c" x1="20" y1="14" x2="35" y2="54" gradientUnits="userSpaceOnUse" gradientTransform="matrix(.51812 0 0 .50943 -.702 -.557)"/>
    </defs>
    <path d="M5.257 29.755H26.5V9.887l-7.253-7.132H5.257z" fill="url(#c)"/>
    <path d="M18.75 2.5H5.5v27h21V10.396" fill="none" stroke="#606060"/>
    <path d="M18.75 2.5c.923 0 1.375.589 1.722 1.112.717 1.076.688 3.145.704 4.363 1.196.017 3.205-.035 4.26.694.514.355 1.064 1.114 1.064 1.727 0-.488-.226-.998-.794-1.597-1.829-1.924-3.335-3.657-5.229-5.405-.437-.405-.802-.894-1.727-.894z" fill="url(#d)" stroke="#606060"/>
        <g transform="translate(5 7)">
            <path style="isolation:auto;mix-blend-mode:normal;solid-color:#000;solid-opacity:1;marker:none" d="M6 3v3h1v3.057A2.5 2.5 0 0 0 5 11.5a2.5 2.5 0 0 0 2 2.445V17H6v3h3v-3H8v-1.82A10 8.5 0 0 0 17 20a10 8.5 0 0 0 1-.043v-1.014A9 7.5 0 0 1 17 19a9 7.5 0 0 1-8.553-5.195A2.497 2.497 0 0 0 10 11.5a2.498 2.498 0 0 0-1.557-2.31A9 7.5 0 0 1 17 4a9 7.5 0 0 1 1 .05v-1A10 8.5 0 0 0 17 3a10 8.5 0 0 0-9 4.81V6h1V3H6zm1 1h1v1H7V4zm.5 6a1.5 1.5 0 0 1 1.264.695 1.5 1.5 0 0 1 .172.375l.002.004a1.5 1.5 0 0 1 0 .004A1.5 1.5 0 0 1 9 11.5a1.5 1.5 0 0 1-.063.428 1.5 1.5 0 0 1-.171.375l-.002.004a1.5 1.5 0 0 1-.002.002 1.5 1.5 0 0 1-.268.31A1.5 1.5 0 0 1 7.5 13a1.5 1.5 0 0 1-1.17-.563 1.5 1.5 0 0 1-.238-.425l-.006-.016A1.5 1.5 0 0 1 6 11.5a1.5 1.5 0 0 1 .084-.49l.01-.026a1.5 1.5 0 0 1 .232-.414v-.002A1.5 1.5 0 0 1 7.5 10zM7 18h1v1H7v-1z" color="#00796B" overflow="visible" fill="#0288D1"/>

    </g>
</svg>
