<svg xmlns="http://www.w3.org/2000/svg" xmlns:xlink="http://www.w3.org/1999/xlink" height="32" width="32">
    <defs>
        <linearGradient id="b">
            <stop offset="0" stop-color="#353535"/>
            <stop offset="1" stop-color="#303030"/>
        </linearGradient>
        <linearGradient id="a">
            <stop offset="0" stop-color="#fcfcfc"/>
            <stop offset=".523" stop-color="#aaa"/>
            <stop offset=".723" stop-color="#aaa"/>
            <stop offset=".89"  stop-color="#aaa"/>
            <stop offset="1" stop-color="#cecbcb"/>
        </linearGradient>
        <linearGradient xlink:href="#a" id="d" gradientUnits="userSpaceOnUse" gradientTransform="matrix(0 -.2131 .20914 0 1.545 26.272)" x1="86.738" y1="93.621" x2="95.182" y2="102.066"/>
        <linearGradient xlink:href="#b" id="c" x1="20" y1="14" x2="35" y2="54" gradientUnits="userSpaceOnUse" gradientTransform="matrix(.51812 0 0 .50943 -.702 -.557)"/>
    </defs>
    <path d="M5.257 29.755H26.5V9.887l-7.253-7.132H5.257z" fill="url(#c)"/>
    <path d="M18.75 2.5H5.5v27h21V10.396" fill="none" stroke="#606060"/>
    <path d="M18.75 2.5c.923 0 1.375.589 1.722 1.112.717 1.076.688 3.145.704 4.363 1.196.017 3.205-.035 4.26.694.514.355 1.064 1.114 1.064 1.727 0-.488-.226-.998-.794-1.597-1.829-1.924-3.335-3.657-5.229-5.405-.437-.405-.802-.894-1.727-.894z" fill="url(#d)" stroke="#606060"/>
        <g transform="translate(5 7)">
            <g fill="#00796B">
        <path d="M6.97 2.998a.258.258 0 0 0-.253.211l-.192 1.324a3.865 3.865 0 0 0-.869.492l-1.281-.502a.26.26 0 0 0-.313.108L3.035 6.363a.247.247 0 0 0 .06.32l1.085.829c-.021.16-.035.322-.035.488 0 .164.015.326.035.486l-1.084.828a.244.244 0 0 0-.06.32l1.026 1.733a.257.257 0 0 0 .313.108l1.281-.502c.265.197.556.364.87.492l.19 1.324c.022.118.126.211.255.211h2.056a.258.258 0 0 0 .254-.21l.192-1.325c.313-.128.603-.292.869-.492l1.28.502c.115.042.25 0 .314-.108l1.027-1.732a.247.247 0 0 0-.06-.32l-1.085-.829A3.7 3.7 0 0 0 11.854 8a3.93 3.93 0 0 0-.036-.488l1.086-.828a.244.244 0 0 0 .06-.32L11.938 4.63a.257.257 0 0 0-.312-.108l-1.281.502a3.928 3.928 0 0 0-.87-.492l-.19-1.324a.262.262 0 0 0-.257-.211H6.971zM8 6a2 2 0 0 1 2 2 2 2 0 0 1-2 2 2 2 0 0 1-2-2 2 2 0 0 1 2-2zM14.135 11.006a.195.195 0 0 0-.227.113l-.383.973a2.906 2.906 0 0 0-.736.215l-.861-.62a.198.198 0 0 0-.254.024l-1.076 1.129a.196.196 0 0 0-.012.256l.658.83a2.92 2.92 0 0 0-.115.363 2.88 2.88 0 0 0-.06.379l-.958.43a.193.193 0 0 0-.103.232l.453 1.506c.03.094.12.153.213.14l1.045-.146c.16.199.346.381.556.535l-.093 1.043a.202.202 0 0 0 .152.207l1.53.38a.199.199 0 0 0 .228-.114l.383-.973c.256-.039.5-.112.734-.215l.863.62a.196.196 0 0 0 .252-.026l1.078-1.129a.193.193 0 0 0 .012-.254l-.66-.832c.045-.117.085-.24.115-.365.03-.126.048-.252.06-.377l.96-.43a.19.19 0 0 0 .103-.23l-.453-1.508a.197.197 0 0 0-.213-.139l-1.045.145a3.042 3.042 0 0 0-.556-.533l.093-1.045a.2.2 0 0 0-.152-.205l-1.531-.38zM14 13a2 2 0 0 1 2 2 2 2 0 0 1-2 2 2 2 0 0 1-2-2 2 2 0 0 1 2-2z"/>
    </g>

    </g>
</svg>
