<svg xmlns="http://www.w3.org/2000/svg" xmlns:xlink="http://www.w3.org/1999/xlink" height="32" width="32">
    <defs>
        <linearGradient id="b">
            <stop offset="0" stop-color="#353535"/>
            <stop offset="1" stop-color="#303030"/>
        </linearGradient>
        <linearGradient id="a">
            <stop offset="0" stop-color="#fcfcfc"/>
            <stop offset=".523" stop-color="#aaa"/>
            <stop offset=".723" stop-color="#aaa"/>
            <stop offset=".89"  stop-color="#aaa"/>
            <stop offset="1" stop-color="#cecbcb"/>
        </linearGradient>
        <linearGradient xlink:href="#a" id="d" gradientUnits="userSpaceOnUse" gradientTransform="matrix(0 -.2131 .20914 0 1.545 26.272)" x1="86.738" y1="93.621" x2="95.182" y2="102.066"/>
        <linearGradient xlink:href="#b" id="c" x1="20" y1="14" x2="35" y2="54" gradientUnits="userSpaceOnUse" gradientTransform="matrix(.51812 0 0 .50943 -.702 -.557)"/>
    </defs>
    <path d="M5.257 29.755H26.5V9.887l-7.253-7.132H5.257z" fill="url(#c)"/>
    <path d="M18.75 2.5H5.5v27h21V10.396" fill="none" stroke="#606060"/>
    <path d="M18.75 2.5c.923 0 1.375.589 1.722 1.112.717 1.076.688 3.145.704 4.363 1.196.017 3.205-.035 4.26.694.514.355 1.064 1.114 1.064 1.727 0-.488-.226-.998-.794-1.597-1.829-1.924-3.335-3.657-5.229-5.405-.437-.405-.802-.894-1.727-.894z" fill="url(#d)" stroke="#606060"/>
        <g transform="translate(5 7)">
            <g fill="#689F38">
        <path d="M13.734 3.021a5.244 5.244 0 0 0-5.246 5.243c0 .787.178 1.53.489 2.199l-.897 1.062-.078.996c-.008.008-.979.038-.979.038l-.498.36s.002 1.088-.002 1.073l-1.068.018-.451.515-.01.975s-.922-.06-1.015.025l.001.002c-.589.543-.986.93-.986.93l.004 2.549.5-.002 6.793-6.793a5.26 5.26 0 0 0 1.56.934 5.18 5.18 0 0 0 1.885.36 5.243 5.243 0 0 0-.002-10.484zm1.002 2.497a1.75 1.75 0 1 1-.002 3.498 1.75 1.75 0 0 1 .002-3.498z"/>
        <path d="M14.736 5.518a1.75 1.75 0 1 0 0 0zm0 1a.749.749 0 1 1-.001 1.497.749.749 0 0 1 .001-1.497zm-4.445 5.693l-6.797 6.797h2.498l5.934-5.828a5.262 5.262 0 0 1-1.635-.97z" opacity=".5"/>
    </g>

    </g>
</svg>
