<svg xmlns="http://www.w3.org/2000/svg" xmlns:xlink="http://www.w3.org/1999/xlink" height="32" width="32">
    <defs>
        <linearGradient id="b">
            <stop offset="0" stop-color="#353535"/>
            <stop offset="1" stop-color="#303030"/>
        </linearGradient>
        <linearGradient id="a">
            <stop offset="0" stop-color="#fcfcfc"/>
            <stop offset=".523" stop-color="#aaa"/>
            <stop offset=".723" stop-color="#aaa"/>
            <stop offset=".89"  stop-color="#aaa"/>
            <stop offset="1" stop-color="#cecbcb"/>
        </linearGradient>
        <linearGradient xlink:href="#a" id="d" gradientUnits="userSpaceOnUse" gradientTransform="matrix(0 -.2131 .20914 0 1.545 26.272)" x1="86.738" y1="93.621" x2="95.182" y2="102.066"/>
        <linearGradient xlink:href="#b" id="c" x1="20" y1="14" x2="35" y2="54" gradientUnits="userSpaceOnUse" gradientTransform="matrix(.51812 0 0 .50943 -.702 -.557)"/>
    </defs>
    <path d="M5.257 29.755H26.5V9.887l-7.253-7.132H5.257z" fill="url(#c)"/>
    <path d="M18.75 2.5H5.5v27h21V10.396" fill="none" stroke="#606060"/>
    <path d="M18.75 2.5c.923 0 1.375.589 1.722 1.112.717 1.076.688 3.145.704 4.363 1.196.017 3.205-.035 4.26.694.514.355 1.064 1.114 1.064 1.727 0-.488-.226-.998-.794-1.597-1.829-1.924-3.335-3.657-5.229-5.405-.437-.405-.802-.894-1.727-.894z" fill="url(#d)" stroke="#606060"/>
        <g transform="translate(5 7)">
            <path d="M5.532 14.569c-.17.306-.306.768-.306 1.058 0 .068 0 .154.016.273L3.11 12.23a.952.952 0 0 1-.12-.444c0-.154.051-.341.12-.46l1.024-1.792-1.143-.649 3.72-.068 1.81 3.26-1.16-.666-1.828 3.158M7.171 4.226a1.667 1.667 0 0 1 1.502-.871c.7 0 1.246.325 1.638.99l.581.972L8.878 8.8l-3.26-1.895 1.553-2.68m.238 13.296a1.784 1.784 0 0 1-1.775-1.775c0-.273.12-.735.291-1.024l.546-.973h4.046v3.772H7.409m3.244-13.399c-.256-.443-.597-.75-1.007-.922h4.199c.375 0 .665.154.836.445l1.041 1.775 1.127-.666-1.81 3.243-3.703-.052 1.143-.648-1.826-3.175m6.47 9.66c.511 0 .938-.136 1.296-.408l-2.117 3.686a.945.945 0 0 1-.835.46h-1.998v1.315l-1.911-3.192 1.911-3.192v1.332h3.654m1.637-3.073c.154.273.24.563.24.87 0 .615-.393 1.264-.939 1.57a2.146 2.146 0 0 1-.972.224H15.96L13.948 9.89l3.26-1.86 1.552 2.68" fill="#00796B"/>

    </g>
</svg>
