<svg xmlns="http://www.w3.org/2000/svg" xmlns:xlink="http://www.w3.org/1999/xlink" height="32" width="32">
    <defs>
        <linearGradient id="b">
            <stop offset="0" stop-color="#353535"/>
            <stop offset="1" stop-color="#303030"/>
        </linearGradient>
        <linearGradient id="a">
            <stop offset="0" stop-color="#fcfcfc"/>
            <stop offset=".523" stop-color="#aaa"/>
            <stop offset=".723" stop-color="#aaa"/>
            <stop offset=".89"  stop-color="#aaa"/>
            <stop offset="1" stop-color="#cecbcb"/>
        </linearGradient>
        <linearGradient xlink:href="#a" id="d" gradientUnits="userSpaceOnUse" gradientTransform="matrix(0 -.2131 .20914 0 1.545 26.272)" x1="86.738" y1="93.621" x2="95.182" y2="102.066"/>
        <linearGradient xlink:href="#b" id="c" x1="20" y1="14" x2="35" y2="54" gradientUnits="userSpaceOnUse" gradientTransform="matrix(.51812 0 0 .50943 -.702 -.557)"/>
    </defs>
    <path d="M5.257 29.755H26.5V9.887l-7.253-7.132H5.257z" fill="url(#c)"/>
    <path d="M18.75 2.5H5.5v27h21V10.396" fill="none" stroke="#606060"/>
    <path d="M18.75 2.5c.923 0 1.375.589 1.722 1.112.717 1.076.688 3.145.704 4.363 1.196.017 3.205-.035 4.26.694.514.355 1.064 1.114 1.064 1.727 0-.488-.226-.998-.794-1.597-1.829-1.924-3.335-3.657-5.229-5.405-.437-.405-.802-.894-1.727-.894z" fill="url(#d)" stroke="#606060"/>
        <g transform="translate(5 7)">
            <g fill="#0288D1">
        <path d="M11.514 4.786c0 .283-.23.51-.513.51a.511.511 0 0 1-.514-.51V3.53c0-.283.23-.511.514-.511.284 0 .513.228.513.511v1.257zM11.435 13.675c0 .232-.19.42-.423.42h-.023a.422.422 0 0 1-.423-.42v-1.358c0-.233.19-.422.423-.422h.023c.234 0 .423.188.423.422v1.358z"/>
        <path d="M16.34 17.675a.606.606 0 0 0 .117-.679l-4.25-9.01c-.003-.024-.003-.05-.003-.076a.37.37 0 0 1 .085-.234 2.08 2.08 0 0 0 .833-1.666c0-1.154-.94-2.087-2.1-2.089a2.082 2.082 0 0 0-2.102 2.09c0 .68.325 1.284.832 1.665a.358.358 0 0 1 .086.234c0 .026 0 .052-.003.077l-4.25 9.01a.604.604 0 0 0 .116.678l-.67 1.361 1.06-1.147a.613.613 0 0 0 .709-.33l4.052-8.588a.202.202 0 0 1 .16-.077h.02c.065 0 .122.03.158.077l4.052 8.588a.61.61 0 0 0 .708.33l1.06 1.147-.67-1.361zM11.023 7.212a1.201 1.201 0 1 1 0-2.403c.667 0 1.206.538 1.206 1.201 0 .664-.54 1.202-1.206 1.202z"/>
        <path d="M15.625 13.036a.275.275 0 0 1-.277.274H6.651a.276.276 0 0 1-.276-.274v-.002c0-.152.124-.274.276-.274h8.697a.277.277 0 0 1 .277.276z"/>
    </g>

    </g>
</svg>
