<svg xmlns="http://www.w3.org/2000/svg" xmlns:xlink="http://www.w3.org/1999/xlink" height="32" width="32">
    <defs>
        <linearGradient id="b">
            <stop offset="0" stop-color="#353535"/>
            <stop offset="1" stop-color="#303030"/>
        </linearGradient>
        <linearGradient id="a">
            <stop offset="0" stop-color="#fcfcfc"/>
            <stop offset=".523" stop-color="#aaa"/>
            <stop offset=".723" stop-color="#aaa"/>
            <stop offset=".89"  stop-color="#aaa"/>
            <stop offset="1" stop-color="#cecbcb"/>
        </linearGradient>
        <linearGradient xlink:href="#a" id="d" gradientUnits="userSpaceOnUse" gradientTransform="matrix(0 -.2131 .20914 0 1.545 26.272)" x1="86.738" y1="93.621" x2="95.182" y2="102.066"/>
        <linearGradient xlink:href="#b" id="c" x1="20" y1="14" x2="35" y2="54" gradientUnits="userSpaceOnUse" gradientTransform="matrix(.51812 0 0 .50943 -.702 -.557)"/>
    </defs>
    <path d="M5.257 29.755H26.5V9.887l-7.253-7.132H5.257z" fill="url(#c)"/>
    <path d="M18.75 2.5H5.5v27h21V10.396" fill="none" stroke="#606060"/>
    <path d="M18.75 2.5c.923 0 1.375.589 1.722 1.112.717 1.076.688 3.145.704 4.363 1.196.017 3.205-.035 4.26.694.514.355 1.064 1.114 1.064 1.727 0-.488-.226-.998-.794-1.597-1.829-1.924-3.335-3.657-5.229-5.405-.437-.405-.802-.894-1.727-.894z" fill="url(#d)" stroke="#606060"/>
        <g transform="translate(5 7)">
            <defs>
        <linearGradient id="c">
            <stop stop-color="#F57C00"/>
            <stop offset="1" stop-color="#F57C00"/>
        </linearGradient>
        <linearGradient id="b">
            <stop stop-color="#00796B"/>
            <stop offset="1" stop-color="#00796B" stop-opacity="0"/>
        </linearGradient>
        <linearGradient id="a">
            <stop stop-color="#00796B"/>
            <stop offset="1" stop-color="#00796B"/>
        </linearGradient>
    </defs>
    <path d="M8 3v4h1V3H8zm2 1v3h1V4h-1zM6 5v2h1V5H6zm6 0v2h1V5h-1zM4 6v1h1V6H4zm10 0v1h1V6h-1zM3 8v6a4 3.99 0 0 0 0 .01A4 3.99 0 0 0 7 18H4v1h11v-1h-3a4 3.99 0 0 0 4-3.99 4 3.99 0 0 0 0-.01h2c.554 0 1-.446 1-1v-3c0-.554-.446-1-1-1h-2V8H3zm1 1h11v5a3 3 0 0 1-3 3H7a3 3 0 0 1-3-3V9zm12 1h2v3h-2v-3z" fill="#F57C00"/>

    </g>
</svg>
