<svg xmlns="http://www.w3.org/2000/svg" xmlns:xlink="http://www.w3.org/1999/xlink" height="32" width="32">
    <defs>
        <linearGradient id="b">
            <stop offset="0" stop-color="#353535"/>
            <stop offset="1" stop-color="#303030"/>
        </linearGradient>
        <linearGradient id="a">
            <stop offset="0" stop-color="#fcfcfc"/>
            <stop offset=".523" stop-color="#aaa"/>
            <stop offset=".723" stop-color="#aaa"/>
            <stop offset=".89"  stop-color="#aaa"/>
            <stop offset="1" stop-color="#cecbcb"/>
        </linearGradient>
        <linearGradient xlink:href="#a" id="d" gradientUnits="userSpaceOnUse" gradientTransform="matrix(0 -.2131 .20914 0 1.545 26.272)" x1="86.738" y1="93.621" x2="95.182" y2="102.066"/>
        <linearGradient xlink:href="#b" id="c" x1="20" y1="14" x2="35" y2="54" gradientUnits="userSpaceOnUse" gradientTransform="matrix(.51812 0 0 .50943 -.702 -.557)"/>
    </defs>
    <path d="M5.257 29.755H26.5V9.887l-7.253-7.132H5.257z" fill="url(#c)"/>
    <path d="M18.75 2.5H5.5v27h21V10.396" fill="none" stroke="#606060"/>
    <path d="M18.75 2.5c.923 0 1.375.589 1.722 1.112.717 1.076.688 3.145.704 4.363 1.196.017 3.205-.035 4.26.694.514.355 1.064 1.114 1.064 1.727 0-.488-.226-.998-.794-1.597-1.829-1.924-3.335-3.657-5.229-5.405-.437-.405-.802-.894-1.727-.894z" fill="url(#d)" stroke="#606060"/>
        <g transform="translate(5 7)">
            <defs>
        <linearGradient id="c">
            <stop stop-color="#F57C00"/>
            <stop offset="1" stop-color="#F57C00"/>
        </linearGradient>
        <linearGradient id="b">
            <stop stop-color="#00796B"/>
            <stop offset="1" stop-color="#00796B" stop-opacity="0"/>
        </linearGradient>
        <linearGradient id="a">
            <stop stop-color="#00796B"/>
            <stop offset="1" stop-color="#00796B"/>
        </linearGradient>
    </defs>
    <path style="line-height:normal;-inkscape-font-specification:Sans;text-indent:0;text-align:start;text-decoration-line:none;text-transform:none;block-progression:tb;marker:none" d="M12.5 3l-4 15.754 1 .246 4-15.754-1-.246zM7.254 6l-3.975 4.645L3 11l.28.355L7.253 16 8 15.291 4.336 11 8 6.709 7.254 6zM16.5 6A2.5 2.5 0 0 0 14 8.5V10h1V8.5A1.5 1.5 0 0 1 16.5 7 1.5 1.5 0 0 1 18 8.5V11h-.5a2.5 2.5 0 0 0-2.5 2.5v.5h1v-.5a1.5 1.5 0 0 1 1.5-1.5H19V8.5A2.5 2.5 0 0 0 16.5 6zm-1 9a.5.5 0 0 0-.5.5.5.5 0 0 0 .5.5.5.5 0 0 0 .5-.5.5.5 0 0 0-.5-.5z" color="#00796B" font-weight="400" font-family="Sans" overflow="visible" fill="#1976D2"/>

    </g>
</svg>
