<svg xmlns="http://www.w3.org/2000/svg" xmlns:xlink="http://www.w3.org/1999/xlink" height="32" width="32">
    <defs>
        <linearGradient id="b">
            <stop offset="0" stop-color="#353535"/>
            <stop offset="1" stop-color="#303030"/>
        </linearGradient>
        <linearGradient id="a">
            <stop offset="0" stop-color="#fcfcfc"/>
            <stop offset=".523" stop-color="#aaa"/>
            <stop offset=".723" stop-color="#aaa"/>
            <stop offset=".89"  stop-color="#aaa"/>
            <stop offset="1" stop-color="#cecbcb"/>
        </linearGradient>
        <linearGradient xlink:href="#a" id="d" gradientUnits="userSpaceOnUse" gradientTransform="matrix(0 -.2131 .20914 0 1.545 26.272)" x1="86.738" y1="93.621" x2="95.182" y2="102.066"/>
        <linearGradient xlink:href="#b" id="c" x1="20" y1="14" x2="35" y2="54" gradientUnits="userSpaceOnUse" gradientTransform="matrix(.51812 0 0 .50943 -.702 -.557)"/>
    </defs>
    <path d="M5.257 29.755H26.5V9.887l-7.253-7.132H5.257z" fill="url(#c)"/>
    <path d="M18.75 2.5H5.5v27h21V10.396" fill="none" stroke="#606060"/>
    <path d="M18.75 2.5c.923 0 1.375.589 1.722 1.112.717 1.076.688 3.145.704 4.363 1.196.017 3.205-.035 4.26.694.514.355 1.064 1.114 1.064 1.727 0-.488-.226-.998-.794-1.597-1.829-1.924-3.335-3.657-5.229-5.405-.437-.405-.802-.894-1.727-.894z" fill="url(#d)" stroke="#606060"/>
        <g transform="translate(5 7)">
            <g fill="#F57C00">
        <path d="M9.666 3A2.66 2.66 0 0 0 7 5.666h4V7H5.666A2.66 2.66 0 0 0 3 9.666v2.668A2.66 2.66 0 0 0 5.666 15v-1.334A3.97 3.97 0 0 1 7 10.701l.002-.004c.176-.158.367-.3.568-.426.002 0 .004-.003.006-.004.199-.123.408-.228.627-.316.04-.016.083-.025.123-.04a3.88 3.88 0 0 1 .575-.169c.248-.048.503-.076.765-.076H15v-4A2.66 2.66 0 0 0 12.334 3zm0 .666a.667.667 0 1 1 .001 1.335.667.667 0 0 1-.001-1.335z" stroke-width="1.333"/>
        <path d="M16 11l-2 2 .707.707L16 12.414V18h-2v1h5v-1h-2v-7zM10.5 11c-.703 0-1.395.359-1.834 1.041C8.227 12.723 8 13.691 8 15c0 1.31.227 2.277.666 2.959C9.105 18.641 9.796 19 10.5 19s1.395-.359 1.834-1.041c.439-.682.666-1.65.666-2.959 0-1.31-.227-2.277-.666-2.959C11.895 11.359 11.204 11 10.5 11zm0 1c.401 0 .71.141.994.584.084.13.158.298.227.488l-2.684 2.684A8.013 8.013 0 0 1 9 15c0-1.19.22-1.973.506-2.416.285-.443.593-.584.994-.584zm1.463 2.244c.022.233.037.48.037.756 0 1.19-.22 1.973-.506 2.416-.285.443-.593.584-.994.584s-.71-.141-.994-.584a2.48 2.48 0 0 1-.227-.488z"/>
    </g>

    </g>
</svg>
