<svg xmlns="http://www.w3.org/2000/svg" xmlns:xlink="http://www.w3.org/1999/xlink" height="32" width="32">
    <defs>
        <linearGradient id="b">
            <stop offset="0" stop-color="#353535"/>
            <stop offset="1" stop-color="#303030"/>
        </linearGradient>
        <linearGradient id="a">
            <stop offset="0" stop-color="#fcfcfc"/>
            <stop offset=".523" stop-color="#aaa"/>
            <stop offset=".723" stop-color="#aaa"/>
            <stop offset=".89"  stop-color="#aaa"/>
            <stop offset="1" stop-color="#cecbcb"/>
        </linearGradient>
        <linearGradient xlink:href="#a" id="d" gradientUnits="userSpaceOnUse" gradientTransform="matrix(0 -.2131 .20914 0 1.545 26.272)" x1="86.738" y1="93.621" x2="95.182" y2="102.066"/>
        <linearGradient xlink:href="#b" id="c" x1="20" y1="14" x2="35" y2="54" gradientUnits="userSpaceOnUse" gradientTransform="matrix(.51812 0 0 .50943 -.702 -.557)"/>
    </defs>
    <path d="M5.257 29.755H26.5V9.887l-7.253-7.132H5.257z" fill="url(#c)"/>
    <path d="M18.75 2.5H5.5v27h21V10.396" fill="none" stroke="#606060"/>
    <path d="M18.75 2.5c.923 0 1.375.589 1.722 1.112.717 1.076.688 3.145.704 4.363 1.196.017 3.205-.035 4.26.694.514.355 1.064 1.114 1.064 1.727 0-.488-.226-.998-.794-1.597-1.829-1.924-3.335-3.657-5.229-5.405-.437-.405-.802-.894-1.727-.894z" fill="url(#d)" stroke="#606060"/>
        <g transform="translate(5 7)">
            <path d="M7.525 18.861c-.314-.083-.282-.172.235-.663.891-.847 1.04-1.69.786-4.464-.202-2.211-.248-2.381-.588-2.196-.736.4-1.656-.116-2.7-1.517-.517-.692-.566-.895-.478-1.975.055-.661.166-1.46.247-1.775.125-.482.085-.571-.26-.571a.977.977 0 0 1-.665-.316c-.357-.437.28-1.14 1.032-1.14.306 0 .671-.14.811-.311.362-.443.914-.387 1.535.156.66.577.884 1.913.514 3.055-.42 1.29-.128 1.417.458.199.328-.682.79-1.276 1.172-1.505.346-.208.853-.738 1.125-1.176.273-.44.614-.876.76-.97.445-.29 1.67-.688 2.127-.692.623-.013 1.457.737 1.606 1.426.07.325.446 1.093.834 1.705.388.613.706 1.221.706 1.352s.276.592.613 1.023c.505.647.612.973.605 1.848-.01 1.2-.646 2.732-.879 2.115-.073-.195-.043-.527.069-.738.232-.442.027-2.399-.225-2.143-.175.178-.29 2.088-.24 4.012.063 2.498-.056 4.854-.25 4.917-.495.16-.712-.256-.509-.976.306-1.086.244-3.972-.096-4.428-.157-.21-.346-.748-.42-1.194-.075-.446-.215-.862-.313-.923-.323-.203-.809 1.108-.809 2.18 0 .838-.124 1.226-.613 1.912-.692.972-.747 1.26-.307 1.63.343.29.41.95.114 1.136-.105.067-.381-.085-.613-.339-.327-.357-.421-.386-.421-.133 0 .38-.758.638-1.176.4-.224-.127-.171-.24.24-.515.732-.488.662-.888-.317-1.798-.763-.709-.831-.852-.706-1.483.396-1.997.394-2.05-.063-2.05-.3 0-.432.13-.432.43 0 .236-.101.622-.225.858-.22.416-.284.75-.814 4.17-.264 1.704-.33 1.769-1.47 1.467zm5.49-3.63c.265-.521.304-.968.19-2.204-.151-1.642-.262-1.699-.704-.363-.152.458-.447 1.055-.656 1.328-.486.635-.477.826.065 1.414.58.628.707.608 1.105-.174z" fill="#0288D1"/>

    </g>
</svg>
