<svg xmlns="http://www.w3.org/2000/svg" xmlns:xlink="http://www.w3.org/1999/xlink" height="32" width="32">
    <defs>
        <linearGradient id="b">
            <stop offset="0" stop-color="#353535"/>
            <stop offset="1" stop-color="#303030"/>
        </linearGradient>
        <linearGradient id="a">
            <stop offset="0" stop-color="#fcfcfc"/>
            <stop offset=".523" stop-color="#aaa"/>
            <stop offset=".723" stop-color="#aaa"/>
            <stop offset=".89"  stop-color="#aaa"/>
            <stop offset="1" stop-color="#cecbcb"/>
        </linearGradient>
        <linearGradient xlink:href="#a" id="d" gradientUnits="userSpaceOnUse" gradientTransform="matrix(0 -.2131 .20914 0 1.545 26.272)" x1="86.738" y1="93.621" x2="95.182" y2="102.066"/>
        <linearGradient xlink:href="#b" id="c" x1="20" y1="14" x2="35" y2="54" gradientUnits="userSpaceOnUse" gradientTransform="matrix(.51812 0 0 .50943 -.702 -.557)"/>
    </defs>
    <path d="M5.257 29.755H26.5V9.887l-7.253-7.132H5.257z" fill="url(#c)"/>
    <path d="M18.75 2.5H5.5v27h21V10.396" fill="none" stroke="#606060"/>
    <path d="M18.75 2.5c.923 0 1.375.589 1.722 1.112.717 1.076.688 3.145.704 4.363 1.196.017 3.205-.035 4.26.694.514.355 1.064 1.114 1.064 1.727 0-.488-.226-.998-.794-1.597-1.829-1.924-3.335-3.657-5.229-5.405-.437-.405-.802-.894-1.727-.894z" fill="url(#d)" stroke="#606060"/>
        <g transform="translate(5 7)">
            <g transform="translate(0 -1030.362)">
        <rect y="1033.844" x="3.482" ry=".861" rx=".861" height="15.036" width="15.036" fill="none" stroke="#0288D1" stroke-width=".964" stroke-linecap="round" stroke-linejoin="round"/>
        <path style="marker:none" d="M9.804 1034.979v2.4H8.53l2.475 2.8 2.475-2.8h-1.275v-2.4zM10.567 1040.579c-.07 0-.113.118-.113.262v.913c-.278.063-.54.177-.775.325l-.65-.65c-.102-.102-.213-.15-.262-.1l-.613.612c-.049.05-.002.16.1.263l.65.65a2.494 2.494 0 0 0-.325.775h-.912c-.145 0-.263.043-.263.112v.875c0 .07.118.113.263.113h.912c.064.278.177.54.325.775l-.65.65c-.102.102-.149.214-.1.262l.613.613c.049.049.16 0 .262-.1l.65-.65c.235.148.497.262.775.325v.912c0 .145.044.263.113.263h.875c.07 0 .112-.118.112-.263v-.912c.279-.063.541-.177.775-.325l.65.65c.103.102.214.149.263.1l.612-.613c.05-.049.003-.16-.1-.262l-.65-.65c.148-.234.262-.497.325-.775h.913c.144 0 .262-.043.262-.113v-.875c0-.069-.118-.112-.262-.112h-.913a2.494 2.494 0 0 0-.325-.775l.65-.65c.103-.102.15-.214.1-.263l-.612-.612c-.049-.05-.16 0-.263.1l-.65.65a2.492 2.492 0 0 0-.775-.325v-.913c0-.144-.043-.262-.112-.262zm.437 2.487c.612 0 1.113.501 1.113 1.113 0 .611-.501 1.112-1.113 1.112a1.116 1.116 0 0 1-1.112-1.112c0-.612.5-1.113 1.112-1.113z" overflow="visible" fill="#0288D1"/>
    </g>

    </g>
</svg>
