<svg xmlns="http://www.w3.org/2000/svg" xmlns:xlink="http://www.w3.org/1999/xlink" height="32" width="32">
    <defs>
        <linearGradient id="b">
            <stop offset="0" stop-color="#353535"/>
            <stop offset="1" stop-color="#303030"/>
        </linearGradient>
        <linearGradient id="a">
            <stop offset="0" stop-color="#fcfcfc"/>
            <stop offset=".523" stop-color="#aaa"/>
            <stop offset=".723" stop-color="#aaa"/>
            <stop offset=".89"  stop-color="#aaa"/>
            <stop offset="1" stop-color="#cecbcb"/>
        </linearGradient>
        <linearGradient xlink:href="#a" id="d" gradientUnits="userSpaceOnUse" gradientTransform="matrix(0 -.2131 .20914 0 1.545 26.272)" x1="86.738" y1="93.621" x2="95.182" y2="102.066"/>
        <linearGradient xlink:href="#b" id="c" x1="20" y1="14" x2="35" y2="54" gradientUnits="userSpaceOnUse" gradientTransform="matrix(.51812 0 0 .50943 -.702 -.557)"/>
    </defs>
    <path d="M5.257 29.755H26.5V9.887l-7.253-7.132H5.257z" fill="url(#c)"/>
    <path d="M18.75 2.5H5.5v27h21V10.396" fill="none" stroke="#606060"/>
    <path d="M18.75 2.5c.923 0 1.375.589 1.722 1.112.717 1.076.688 3.145.704 4.363 1.196.017 3.205-.035 4.26.694.514.355 1.064 1.114 1.064 1.727 0-.488-.226-.998-.794-1.597-1.829-1.924-3.335-3.657-5.229-5.405-.437-.405-.802-.894-1.727-.894z" fill="url(#d)" stroke="#606060"/>
        <g transform="translate(5 7)">
            <path d="M7 3a4 4 0 0 0-4 4v1l.314.494.797 1.254.002.002L10 19v-8h5a4 4 0 0 0 0-8H7zm8 1a3 3 0 0 1 .576.059 3 3 0 0 1 .02.002c.018.003.034.01.052.013a3 3 0 0 1 .52.162 3 3 0 0 1 .478.258c.014.009.028.016.041.026a3 3 0 0 1 .006.003 3 3 0 0 1 .41.34l.026.024a3 3 0 0 1 .322.39l.053.075a3 3 0 0 1 .242.449l.024.053a3 3 0 0 1 .154.492l.02.082A3 3 0 0 1 18 7a3 3 0 0 1-.059.576 3 3 0 0 1-.002.02c-.003.018-.01.034-.013.052a3 3 0 0 1-.162.52 3 3 0 0 1-.258.478c-.009.014-.016.028-.026.041a3 3 0 0 1-.003.006 3 3 0 0 1-.34.41l-.024.026a3 3 0 0 1-.39.322l-.075.053a3 3 0 0 1-.449.242l-.053.024a3 3 0 0 1-.492.154l-.082.02A3 3 0 0 1 15 10a3 3 0 0 1-3-3 3 3 0 0 1 3-3z" fill="#1976D2" stroke-width="6"/>

    </g>
</svg>
