<svg xmlns="http://www.w3.org/2000/svg" xmlns:xlink="http://www.w3.org/1999/xlink" height="32" width="32">
    <defs>
        <linearGradient id="b">
            <stop offset="0" stop-color="#353535"/>
            <stop offset="1" stop-color="#303030"/>
        </linearGradient>
        <linearGradient id="a">
            <stop offset="0" stop-color="#fcfcfc"/>
            <stop offset=".523" stop-color="#aaa"/>
            <stop offset=".723" stop-color="#aaa"/>
            <stop offset=".89"  stop-color="#aaa"/>
            <stop offset="1" stop-color="#cecbcb"/>
        </linearGradient>
        <linearGradient xlink:href="#a" id="d" gradientUnits="userSpaceOnUse" gradientTransform="matrix(0 -.2131 .20914 0 1.545 26.272)" x1="86.738" y1="93.621" x2="95.182" y2="102.066"/>
        <linearGradient xlink:href="#b" id="c" x1="20" y1="14" x2="35" y2="54" gradientUnits="userSpaceOnUse" gradientTransform="matrix(.51812 0 0 .50943 -.702 -.557)"/>
    </defs>
    <path d="M5.257 29.755H26.5V9.887l-7.253-7.132H5.257z" fill="url(#c)"/>
    <path d="M18.75 2.5H5.5v27h21V10.396" fill="none" stroke="#606060"/>
    <path d="M18.75 2.5c.923 0 1.375.589 1.722 1.112.717 1.076.688 3.145.704 4.363 1.196.017 3.205-.035 4.26.694.514.355 1.064 1.114 1.064 1.727 0-.488-.226-.998-.794-1.597-1.829-1.924-3.335-3.657-5.229-5.405-.437-.405-.802-.894-1.727-.894z" fill="url(#d)" stroke="#606060"/>
        <g transform="translate(5 7)">
            <path d="M3.124 3.001c-.04 0-.07 0-.09.023-.64.604 8.088 8.187 8.088 8.187l3.27 2.945c-1.054 2.328 2.251 2.366 2.964 3.547.314.517-.068 1.22-.637 1.257 1.132.353 2.656-1.704 2.197-2.865-.546-1.386-1.101-1.987-2.14-2.408-.43-.175-1.522-.189-1.903.015l-3.03-3.171S4.363 3.102 3.124 3m1.379 7.362c-.29 0-.379.397-.379.94.055 1.072.772 4.202 4.333 6.482 2.999 1.92 8.486 1.226 8.397.136-1.207-1.418-3.225-.534-3.252-3.93-1.173.013-2.437-.165-2.39.303.197 1.959-3.084.547-4.356-1.45-1.277-1.832-1.981-2.481-2.353-2.48m4.676 2.416c-.195 0-.351.06-.426.182-.148.242.092.637.538.88.445.244.926.244 1.074.002.148-.243-.093-.638-.538-.88-.223-.121-.648.001-.648-.183" fill="#00796B"/>

    </g>
</svg>
