<svg xmlns="http://www.w3.org/2000/svg" xmlns:xlink="http://www.w3.org/1999/xlink" height="32" width="32">
    <defs>
        <linearGradient id="b">
            <stop offset="0" stop-color="#353535"/>
            <stop offset="1" stop-color="#303030"/>
        </linearGradient>
        <linearGradient id="a">
            <stop offset="0" stop-color="#fcfcfc"/>
            <stop offset=".523" stop-color="#aaa"/>
            <stop offset=".723" stop-color="#aaa"/>
            <stop offset=".89"  stop-color="#aaa"/>
            <stop offset="1" stop-color="#cecbcb"/>
        </linearGradient>
        <linearGradient xlink:href="#a" id="d" gradientUnits="userSpaceOnUse" gradientTransform="matrix(0 -.2131 .20914 0 1.545 26.272)" x1="86.738" y1="93.621" x2="95.182" y2="102.066"/>
        <linearGradient xlink:href="#b" id="c" x1="20" y1="14" x2="35" y2="54" gradientUnits="userSpaceOnUse" gradientTransform="matrix(.51812 0 0 .50943 -.702 -.557)"/>
    </defs>
    <path d="M5.257 29.755H26.5V9.887l-7.253-7.132H5.257z" fill="url(#c)"/>
    <path d="M18.75 2.5H5.5v27h21V10.396" fill="none" stroke="#606060"/>
    <path d="M18.75 2.5c.923 0 1.375.589 1.722 1.112.717 1.076.688 3.145.704 4.363 1.196.017 3.205-.035 4.26.694.514.355 1.064 1.114 1.064 1.727 0-.488-.226-.998-.794-1.597-1.829-1.924-3.335-3.657-5.229-5.405-.437-.405-.802-.894-1.727-.894z" fill="url(#d)" stroke="#606060"/>
        <g transform="translate(5 7)">
            <path style="isolation:auto;mix-blend-mode:normal;solid-color:#000;solid-opacity:1;marker:none" d="M9 5v2h2V5zm3 0v2h2V5zm4.684 2.674c-.637.436-.789 1.225-.59 1.97.2.745.707 1.282 1.476 1.342a1.822 1.822 0 0 0 1.715 1.215A1.822 1.822 0 0 0 21 10.986a1.82 1.82 0 0 0-1.715-1.213 1.82 1.82 0 0 0-1.03.323c.124-.347.139-.725.044-1.08a1.821 1.821 0 0 0-1.615-1.342zm.886 3.312H3c0 4.024 3.262 6.073 7.285 6.073 4.024 0 7.285-2.05 7.285-6.073zM5 8v2h2V8zm3 0v2h2V8zm3 0v2h2V8zm3 0v2h2V8zm-8 4a1 1 0 0 1 1 1 1 1 0 0 1-1 1 1 1 0 0 1-1-1 1 1 0 0 1 1-1z" color="#00796B" overflow="visible" fill="#0288D1" stroke-width=".016"/>

    </g>
</svg>
