<svg xmlns="http://www.w3.org/2000/svg" xmlns:xlink="http://www.w3.org/1999/xlink" height="32" width="32">
    <defs>
        <linearGradient id="b">
            <stop offset="0" stop-color="#353535"/>
            <stop offset="1" stop-color="#303030"/>
        </linearGradient>
        <linearGradient id="a">
            <stop offset="0" stop-color="#fcfcfc"/>
            <stop offset=".523" stop-color="#aaa"/>
            <stop offset=".723" stop-color="#aaa"/>
            <stop offset=".89"  stop-color="#aaa"/>
            <stop offset="1" stop-color="#cecbcb"/>
        </linearGradient>
        <linearGradient xlink:href="#a" id="d" gradientUnits="userSpaceOnUse" gradientTransform="matrix(0 -.2131 .20914 0 1.545 26.272)" x1="86.738" y1="93.621" x2="95.182" y2="102.066"/>
        <linearGradient xlink:href="#b" id="c" x1="20" y1="14" x2="35" y2="54" gradientUnits="userSpaceOnUse" gradientTransform="matrix(.51812 0 0 .50943 -.702 -.557)"/>
    </defs>
    <path d="M5.257 29.755H26.5V9.887l-7.253-7.132H5.257z" fill="url(#c)"/>
    <path d="M18.75 2.5H5.5v27h21V10.396" fill="none" stroke="#606060"/>
    <path d="M18.75 2.5c.923 0 1.375.589 1.722 1.112.717 1.076.688 3.145.704 4.363 1.196.017 3.205-.035 4.26.694.514.355 1.064 1.114 1.064 1.727 0-.488-.226-.998-.794-1.597-1.829-1.924-3.335-3.657-5.229-5.405-.437-.405-.802-.894-1.727-.894z" fill="url(#d)" stroke="#606060"/>
        <g transform="translate(5 7)">
            <g fill="#00796B">
        <path d="M13.108 8.394c.02-.157.034-.317.034-.48 0-.162-.014-.323-.034-.48l1.042-.816a.246.246 0 0 0 .059-.315l-.986-1.707c-.061-.106-.19-.15-.3-.106l-1.227.495a3.738 3.738 0 0 0-.832-.485l-.185-1.305a.253.253 0 0 0-.246-.207H8.462a.249.249 0 0 0-.244.207L8.033 4.5c-.3.126-.578.288-.832.485L5.974 4.49a.246.246 0 0 0-.3.106l-.986 1.707a.247.247 0 0 0 .06.315l1.039.816c-.02.157-.034.318-.034.48 0 .163.014.323.034.48l-1.04.816a.246.246 0 0 0-.059.315l.986 1.707c.061.106.19.15.3.106l1.227-.495c.254.194.532.36.832.485l.185 1.306c.02.115.12.207.244.207h1.97a.249.249 0 0 0 .244-.207l.185-1.306c.3-.125.58-.288.833-.485l1.226.495c.111.042.24 0 .301-.106l.985-1.707a.247.247 0 0 0-.059-.315l-1.04-.816zm-3.66 1.244a1.723 1.723 0 0 1-1.725-1.724 1.723 1.723 0 1 1 3.449 0c0 .953-.771 1.724-1.725 1.724zM15.927 17.1c.068-.094.134-.192.191-.296.057-.105.104-.213.146-.321l.956-.159a.18.18 0 0 0 .148-.181l-.034-1.443a.178.178 0 0 0-.156-.174l-.962-.112a2.737 2.737 0 0 0-.365-.603l.34-.904a.185.185 0 0 0-.086-.22l-1.267-.69a.182.182 0 0 0-.23.047l-.576.774a2.67 2.67 0 0 0-.705.02l-.615-.749a.18.18 0 0 0-.23-.037l-1.232.751a.18.18 0 0 0-.073.224l.383.888a2.826 2.826 0 0 0-.191.297 2.833 2.833 0 0 0-.146.32l-.954.16a.18.18 0 0 0-.149.182l.035 1.443c.002.09.069.163.155.173l.963.112c.094.214.215.418.364.604l-.339.904a.182.182 0 0 0 .084.218l1.267.692c.079.043.176.02.229-.048l.577-.774c.237.024.473.018.705-.02l.615.748a.18.18 0 0 0 .23.038l1.232-.752a.18.18 0 0 0 .072-.223l-.382-.889zm-2.788-.484a1.261 1.261 0 1 1 1.21-2.216 1.261 1.261 0 1 1-1.21 2.216z"/>
    </g>

    </g>
</svg>
