<?xml version="1.0" encoding="UTF-8" standalone="no"?>
<svg viewBox="0 0 50 50"
 xmlns="http://www.w3.org/2000/svg" xmlns:xlink="http://www.w3.org/1999/xlink"  version="1.2" baseProfile="tiny">
<title>Qt SVG Document</title>
<desc>Generated with Qt</desc>
<defs>
</defs>
<g fill="none" stroke="black" stroke-width="1" fill-rule="evenodd" stroke-linecap="square" stroke-linejoin="bevel" >

<g fill="#f55f67" fill-opacity="1" stroke="none" transform="matrix(3.125,0,0,3.125,-4043.75,-771.875)"
font-family="Noto Sans" font-size="10" font-weight="400" font-style="normal" 
opacity="0.905294" >
<ellipse cx="1302" cy="255" rx="6" ry="6"/>
</g>

<g fill="#888888" fill-opacity="1" stroke="none" transform="matrix(3.125,0,0,3.125,-4043.75,-771.875)"
font-family="Noto Sans" font-size="10" font-weight="400" font-style="normal" 
opacity="0.15" >
<path vector-effect="none" fill-rule="nonzero" d="M1302,248 C1298.13,248 1295,251.134 1295,255 C1295,258.866 1298.13,262 1302,262 C1305.87,262 1309,258.866 1309,255 C1309,251.134 1305.87,248 1302,248 M1302,249 C1305.31,249 1308,251.686 1308,255 C1308,258.314 1305.31,261 1302,261 C1298.69,261 1296,258.314 1296,255 C1296,251.686 1298.69,249 1302,249 "/>
</g>

<g fill="#000000" fill-opacity="1" stroke="none" transform="matrix(3.125,0,0,3.125,-270.703,486.368)"
font-family="Noto Sans" font-size="12" font-weight="400" font-style="normal" 
opacity="0.25" >
<path vector-effect="none" fill-rule="nonzero" d="M91.6262,-150.638 L92.3762,-150.638 C92.3842,-150.638 92.3918,-150.638 92.3996,-150.638 C92.5908,-150.63 92.782,-150.541 92.9152,-150.403 L94.6262,-148.692 L96.3606,-150.403 C96.5598,-150.576 96.6956,-150.632 96.8762,-150.638 L97.6262,-150.638 L97.6262,-149.888 C97.6262,-149.673 97.6005,-149.475 97.4387,-149.325 L95.7277,-147.614 L97.4152,-145.927 C97.5564,-145.786 97.6262,-145.587 97.6262,-145.388 L97.6262,-144.638 L96.8762,-144.638 C96.6772,-144.638 96.4782,-144.708 96.3371,-144.849 L94.6262,-146.56 L92.9152,-144.849 C92.7741,-144.708 92.5751,-144.638 92.3762,-144.638 L91.6262,-144.638 L91.6262,-145.388 C91.6262,-145.587 91.696,-145.786 91.8371,-145.927 L93.5481,-147.614 L91.8371,-149.325 C91.6791,-149.471 91.6097,-149.677 91.6262,-149.888 L91.6262,-150.638 L91.6262,-150.638"/>
</g>

<g fill="none" stroke="none" transform="matrix(3.125,0,0,3.125,-270.703,486.368)"
font-family="Noto Sans" font-size="10" font-weight="400" font-style="normal" 
>
<rect x="86.625" y="-155.638" width="16" height="16"/>
</g>

<g fill="none" stroke="#000000" stroke-opacity="1" stroke-width="1" stroke-linecap="square" stroke-linejoin="bevel" transform="matrix(1,0,0,1,0,0)"
font-family="Noto Sans" font-size="10" font-weight="400" font-style="normal" 
>
</g>
</g>
</svg>
