<svg width="22" height="22" version="1.1" viewBox="0 0 22 22" xmlns="http://www.w3.org/2000/svg">
<title>disk-normal-16px</title>
<desc>Created with Sketch.</desc>
<rect x="3" y="3" width="16" height="16" opacity="0"/>
<g transform="translate(3,3)" fill="#232629" fill-rule="evenodd" shape-rendering="auto">
<path d="m2.5 1a0.50005 0.50005 0 0 0-0.5 0.5v13a0.50005 0.50005 0 0 0 0.5 0.5h11a0.50005 0.50005 0 0 0 0.5-0.5v-13a0.50005 0.50005 0 0 0-0.5-0.5zm0.5 1h10v12h-10z" color="#000000" color-rendering="auto" dominant-baseline="auto" image-rendering="auto" solid-color="#000000" style="font-feature-settings:normal;font-variant-alternates:normal;font-variant-caps:normal;font-variant-ligatures:normal;font-variant-numeric:normal;font-variant-position:normal;isolation:auto;mix-blend-mode:normal;shape-padding:0;text-decoration-color:#000000;text-decoration-line:none;text-decoration-style:solid;text-indent:0;text-orientation:mixed;text-transform:none;white-space:normal"/>
<path id="Line" d="m4.5 12a0.50005 0.50005 0 1 0 0 1h7a0.50005 0.50005 0 1 0 0-1z" color="#000000" color-rendering="auto" dominant-baseline="auto" image-rendering="auto" solid-color="#000000" style="font-feature-settings:normal;font-variant-alternates:normal;font-variant-caps:normal;font-variant-ligatures:normal;font-variant-numeric:normal;font-variant-position:normal;isolation:auto;mix-blend-mode:normal;shape-padding:0;text-decoration-color:#000000;text-decoration-line:none;text-decoration-style:solid;text-indent:0;text-orientation:mixed;text-transform:none;white-space:normal"/>
<path d="m2.5 10a0.50005 0.50005 0 1 0 0 1h11a0.50005 0.50005 0 1 0 0-1z" color="#000000" color-rendering="auto" dominant-baseline="auto" image-rendering="auto" solid-color="#000000" style="font-feature-settings:normal;font-variant-alternates:normal;font-variant-caps:normal;font-variant-ligatures:normal;font-variant-numeric:normal;font-variant-position:normal;isolation:auto;mix-blend-mode:normal;shape-padding:0;text-decoration-color:#000000;text-decoration-line:none;text-decoration-style:solid;text-indent:0;text-orientation:mixed;text-transform:none;white-space:normal"/>
</g>
</svg>
