<svg width="22" height="22" version="1.1" viewBox="0 0 22 22" xmlns="http://www.w3.org/2000/svg">
<path d="m9.9938 4.0663c-3.9197 0.44824-6.8285 3.9722-6.8285 7.9444v2.184c0 2.0695 1.6785 3.6908 3.6956 3.6908 0.44824 0 0.78204-0.3338 0.78204-0.78204v-4.0866c0-0.72482-0.61514-1.34-1.3447-1.34h-0.89172c-0.67236 0-1.1206-0.55792-1.0109-1.2303 0.56269-3.1329 3.3046-5.3741 6.6044-5.3741s6.0417 2.2412 6.6044 5.4838c0.10968 0.67236-0.39579 1.2303-1.0109 1.2303h-0.89172c-0.72959 0-1.3447 0.61514-1.3447 1.3447v4.0819c0 0.44824 0.3338 0.78681 0.78204 0.78681 2.0695 0 3.6956-1.6785 3.6956-3.6956v-2.5178c0-4.5873-4.0866-8.3354-8.8409-7.7203z" fill="#232629"/>
</svg>
