<svg width="22" height="22" version="1.1" viewBox="0 0 22 22" xmlns="http://www.w3.org/2000/svg">
<title>view-compact</title>
<path d="m5.25 7a0.25 0.25 0 0 0-0.25 0.25v1.5c0 0.138 0.112 0.25 0.25 0.25h1.5a0.25 0.25 0 0 0 0.25-0.25v-1.5a0.25 0.25 0 0 0-0.25-0.25zm3 0a0.25 0.25 0 0 0-0.25 0.25v1.5c0 0.138 0.111 0.25 0.25 0.25h1.5a0.25 0.25 0 0 0 0.25-0.25v-1.5a0.25 0.25 0 0 0-0.25-0.25zm3 0a0.25 0.25 0 0 0-0.25 0.25v1.5c0 0.138 0.112 0.25 0.25 0.25h1.5a0.25 0.25 0 0 0 0.25-0.25v-1.5a0.25 0.25 0 0 0-0.25-0.25zm3 0a0.25 0.25 0 0 0-0.25 0.25v1.5c0 0.138 0.111 0.25 0.25 0.25h1.5a0.25 0.25 0 0 0 0.25-0.25v-1.5a0.25 0.25 0 0 0-0.25-0.25zm-9 3a0.25 0.25 0 0 0-0.25 0.25v1.5c0 0.138 0.112 0.25 0.25 0.25h1.5a0.25 0.25 0 0 0 0.25-0.25v-1.5a0.25 0.25 0 0 0-0.25-0.25zm3 0a0.25 0.25 0 0 0-0.25 0.25v1.5c0 0.138 0.111 0.25 0.25 0.25h1.5a0.25 0.25 0 0 0 0.25-0.25v-1.5a0.25 0.25 0 0 0-0.25-0.25zm3 0a0.25 0.25 0 0 0-0.25 0.25v1.5c0 0.138 0.112 0.25 0.25 0.25h1.5a0.25 0.25 0 0 0 0.25-0.25v-1.5a0.25 0.25 0 0 0-0.25-0.25zm3 0a0.25 0.25 0 0 0-0.25 0.25v1.5c0 0.138 0.111 0.25 0.25 0.25h1.5a0.25 0.25 0 0 0 0.25-0.25v-1.5a0.25 0.25 0 0 0-0.25-0.25zm-9 3a0.25 0.25 0 0 0-0.25 0.25v1.5c0 0.138 0.112 0.25 0.25 0.25h1.5a0.25 0.25 0 0 0 0.25-0.25v-1.5a0.25 0.25 0 0 0-0.25-0.25zm3 0a0.25 0.25 0 0 0-0.25 0.25v1.5c0 0.138 0.111 0.25 0.25 0.25h1.5a0.25 0.25 0 0 0 0.25-0.25v-1.5a0.25 0.25 0 0 0-0.25-0.25zm3 0a0.25 0.25 0 0 0-0.25 0.25v1.5c0 0.138 0.112 0.25 0.25 0.25h1.5a0.25 0.25 0 0 0 0.25-0.25v-1.5a0.25 0.25 0 0 0-0.25-0.25zm3 0a0.25 0.25 0 0 0-0.25 0.25v1.5c0 0.138 0.111 0.25 0.25 0.25h1.5a0.25 0.25 0 0 0 0.25-0.25v-1.5a0.25 0.25 0 0 0-0.25-0.25z" fill="#303030"/>
</svg>
