<svg width="96" height="96" version="1.1" viewBox="0 0 96 96" xmlns="http://www.w3.org/2000/svg" xmlns:xlink="http://www.w3.org/1999/xlink">
<defs>
<filter id="folder-applications-stack-a" x="-14.6%" y="-16.7%" width="129.3%" height="133.3%">
<feOffset dy="2" in="SourceAlpha" result="shadowOffsetOuter1"/>
<feGaussianBlur in="shadowOffsetOuter1" result="shadowBlurOuter1" stdDeviation="2"/>
<feColorMatrix in="shadowBlurOuter1" result="shadowMatrixOuter1" values="0 0 0 0 0   0 0 0 0 0   0 0 0 0 0  0 0 0 0.5 0"/>
<feMerge>
<feMergeNode in="shadowMatrixOuter1"/>
<feMergeNode in="SourceGraphic"/>
</feMerge>
</filter>
<linearGradient id="folder-applications-stack-c" x1="50%" x2="50%" y2="97.162%">
<stop stop-color="#582BFF" offset="0"/>
<stop stop-color="#7D5FFF" offset="1"/>
</linearGradient>
<path id="folder-applications-stack-b" d="m2.0066 72c-1.1082 0-2.0066-0.88583-2.0066-1.9949l1.3294e-9 -57.01c2.5692e-11 -1.1018 0.89295-1.9949 2.0066-1.9949h77.987c1.1082 0 2.0066 0.88583 2.0066 1.9949v57.01c0 1.1018-0.89295 1.9949-2.0066 1.9949h-77.987z"/>
<linearGradient id="folder-applications-stack-e" x1="66.942%" x2="46.177%" y1="57.449%" y2="40.106%">
<stop stop-color="#5700FC" offset="0"/>
<stop stop-color="#5867FF" stop-opacity="0" offset="1"/>
</linearGradient>
<linearGradient id="folder-applications-stack-f" x1="66.321%" x2="36.571%" y1="77.19%" y2="4.533%">
<stop stop-color="#D1C0FF" offset="0"/>
<stop stop-color="#8375FF" offset="1"/>
</linearGradient>
<linearGradient id="folder-applications-stack-g" x1="60.608%" x2="44.704%" y1="25.945%" y2="86.932%">
<stop stop-color="#5C3FFF" offset="0"/>
<stop stop-color="#816AFF" stop-opacity=".054" offset="1"/>
</linearGradient>
<linearGradient id="folder-applications-stack-h" x1="50%" x2="50%" y2="392.79%">
<stop stop-color="#FFF" stop-opacity=".8" offset="0"/>
<stop stop-color="#882AFF" stop-opacity=".117" offset="1"/>
</linearGradient>
<linearGradient id="folder-applications-stack-i" x1="50%" x2="50%" y1="-22.147%" y2="100%">
<stop stop-color="#CAA2FF" stop-opacity=".3" offset="0"/>
<stop stop-color="#6249F0" offset="1"/>
</linearGradient>
<linearGradient id="folder-applications-stack-j" x1="66.321%" x2="32.432%" y1="40.499%" y2="55.584%">
<stop stop-color="#B9B7FF" offset="0"/>
<stop stop-color="#8174FF" offset="1"/>
</linearGradient>
<linearGradient id="folder-applications-stack-k" x1="50%" x2="50%" y1="-22.147%" y2="100%">
<stop stop-color="#B6A2FF" offset="0"/>
<stop stop-color="#6249F0" offset="1"/>
</linearGradient>
</defs>
<g transform="translate(7 17)" fill="none" fill-rule="evenodd" filter="url(#folder-applications-stack-a)">
<path d="m71.009 0c1.0995 0 1.9908 0.89412 1.9908 1.9987v63.001c0 1.1153-0.90951 2-2 2h-60c-1.105 0-2-0.86559-2-2v-60.007c0-1.1005 0.89447-1.9926 2.0053-1.9926l38.002 9e-8c0.54851 0 1.3142-0.32105 1.7041-0.71096l1.5781-1.5781c0.39265-0.39265 1.1663-0.71096 1.7028-0.71096h17.017z" fill="#9252FF"/>
<path d="m70.994 1c1.1077 0 2.0056 0.90445 2.0056 2.0027v61.978h-64v-58.986c0-1.1014 0.89132-1.9943 1.9996-1.9943l38.76 5e-8c0.54723 1e-8 1.3119-0.32105 1.7018-0.71096l1.5781-1.5781c0.39265-0.39265 1.1492-0.71096 1.7188-0.71096h16.237z" fill="#4A00D5"/>
<path d="m5 67.007-2e-8 -58.011c0-1.1027 0.89731-1.9966 2.0008-1.9966h67.998c1.105 0 2.0008 0.89484 2.0008 1.9966v58.011h-72z" fill="#F6F6F6"/>
<path d="m5 66v-56.004c0-1.1026 0.89731-1.9965 2.0008-1.9965h67.998c1.105 0 2.0008 0.88783 2.0008 1.9965v56.004h-72z" fill="#D7D7D7"/>
<mask id="folder-applications-stack-d" fill="#fff">
<use xlink:href="#folder-applications-stack-b"/>
</mask>
<use fill="url(#folder-applications-stack-c)" xlink:href="#folder-applications-stack-b"/>
<g mask="url(#folder-applications-stack-d)">
<g transform="translate(3 6)">
<polygon points="0 49.884 37.638 64.41 57.217 56.852 19.579 42.326" fill="url(#folder-applications-stack-e)"/>
<polygon transform="matrix(-1 0 0 1 93.336 0)" points="18.059 49.884 55.698 64.41 75.277 56.852 37.638 42.326" fill="url(#folder-applications-stack-e)"/>
<g transform="translate(12.04 19.651)">
<polygon points="5.96 7.558 24.96 15.116 24.96 40.814 5.96 33.256" fill="url(#folder-applications-stack-f)"/>
<polygon points="5.644 7.558 25.208 15.116 20.693 28.721 5.644 22.908" fill="url(#folder-applications-stack-g)" opacity=".5"/>
<polygon points="5.644 7.558 24.96 15.116 43.787 7.558 24.96 0" fill="url(#folder-applications-stack-h)"/>
<polygon points="24.96 15.116 43.836 7.558 24.975 0" fill="url(#folder-applications-stack-i)"/>
<polygon transform="matrix(-1 0 0 1 68.92 0)" points="24.96 7.558 43.96 15.116 43.96 40.814 24.96 33.256" fill="url(#folder-applications-stack-j)"/>
<polygon transform="matrix(-1 0 0 1 69.98 0)" points="25.208 7.558 44.772 15.116 40.257 28.721 25.208 22.908" fill="url(#folder-applications-stack-g)" opacity=".5"/>
<polygon transform="matrix(-1 0 0 1 74.373 0)" points="30.385 7.558 49.165 15.116 43.988 24.186 25.208 16.628" fill="url(#folder-applications-stack-k)"/>
<polygon points="5.96 7.558 24.96 15.116 19.62 24.186 0.62 16.628" fill="url(#folder-applications-stack-k)"/>
</g>
<g transform="translate(2.01)">
<ellipse cx="44.644" cy="19.651" rx="1.505" ry="1.512" fill="#FFD506"/>
<ellipse cx="24.327" cy="17.384" rx="1" ry="1" fill="#FF00FE"/>
<ellipse cx="4.01" cy="15.116" rx="1.505" ry="1.512" fill="#4000E0"/>
<polygon transform="rotate(23 33.072 9.54)" points="31.564 8.027 34.576 8.032 34.581 11.053 31.569 11.048" fill="#4000E0"/>
<polygon transform="rotate(23 63.214 25.177)" points="62.459 24.421 63.965 24.423 63.968 25.934 62.462 25.931" fill="#EB5959"/>
<polygon transform="rotate(45 38.183 28.278)" points="37.427 27.522 38.935 27.526 38.939 29.034 37.43 29.031" fill="#4000E0"/>
<polygon transform="rotate(45 35.173 29.79)" points="34.417 29.034 35.926 29.037 35.929 30.546 34.421 30.542" fill="#FF00FE" opacity=".2"/>
<polygon transform="rotate(45 32.163 31.301)" points="31.407 30.546 32.916 30.549 32.919 32.057 31.411 32.054" fill="#8A0991"/>
<polygon transform="rotate(45 36.678 32.813)" points="35.922 32.057 37.43 32.061 37.434 33.569 35.926 33.566" fill="#FFD506"/>
<ellipse cx="37.871" cy="23.43" rx="1" ry="1" fill="#FFF"/>
<ellipse cx="40.881" cy="29.477" rx="1" ry="1" fill="#6D39FF"/>
<ellipse cx="31.851" cy="29.477" rx="1" ry="1" fill="#FFF"/>
<polygon transform="rotate(45 38.183 16.185)" points="37.427 15.429 38.935 15.433 38.939 16.941 37.43 16.938" fill="#8A0991"/>
<polygon transform="rotate(72 33.785 25.857)" points="32.273 25.102 35.295 25.106 35.297 26.612 32.275 26.608" fill="#FFF" opacity=".6"/>
<polygon transform="rotate(45 42.698 14.674)" points="41.942 13.918 43.45 13.921 43.454 15.429 41.945 15.426" fill="#6D39FF"/>
<polygon transform="rotate(45 18.619 17.697)" points="17.863 16.941 19.371 16.944 19.374 18.453 17.866 18.449" fill="#4000E0"/>
<polygon transform="rotate(45 29.153 19.208)" points="28.397 18.453 29.906 18.456 29.909 19.964 28.401 19.961" fill="#9757FF"/>
<polygon transform="rotate(45 18.619 14.674)" points="17.863 13.918 19.371 13.921 19.374 15.429 17.866 15.426" fill="#FFD506"/>
<polygon transform="rotate(45 51.728 19.651)" points="50.216 18.14 53.232 18.146 53.239 21.163 50.223 21.156" fill="#7DAC00" opacity=".9"/>
<polygon transform="rotate(45 50.223 16.185)" points="49.467 15.429 50.975 15.433 50.978 16.941 49.47 16.938" fill="#8A0991"/>
<polygon transform="rotate(45 47.927 27.301)" points="47.17 25.791 48.678 25.794 48.685 28.811 47.177 28.808" fill="#00C894"/>
<polygon transform="rotate(45 25.08 29.164)" points="24.323 28.408 25.832 28.411 25.835 29.919 24.327 29.916" fill="#6D39FF"/>
<polygon transform="rotate(45 31.099 27.652)" points="30.343 26.896 31.851 26.9 31.855 28.408 30.347 28.405" fill="#FF00FE" opacity=".3"/>
<polygon transform="rotate(76 44.644 29.164)" points="43.887 28.41 45.398 28.412 45.4 29.917 43.889 29.916" fill="#FFF" opacity=".3"/>
<polygon transform="rotate(45 42.257 26.324)" points="40.745 24.812 43.762 24.819 43.769 27.835 40.752 27.829" fill="#9757FF"/>
<polygon transform="rotate(45 47.836 9.253)" points="45.569 6.986 50.093 6.996 50.103 11.521 45.579 11.511" fill="#00C894"/>
<polygon transform="rotate(24 63.156 4.99)" points="59.384 1.207 66.914 1.219 66.927 8.772 59.397 8.76" fill="#396EFF"/>
<polygon transform="rotate(-51 9.168 6.378)" points="4.651 1.865 13.705 1.846 13.685 10.891 4.631 10.911" fill="#88A1FF"/>
<polygon transform="rotate(45 4.192 21.346)" points="1.925 19.079 6.45 19.089 6.46 23.614 1.935 23.604" fill="#FF8100" fill-opacity=".8"/>
<polygon transform="rotate(23 18.065 32.735)" points="17.311 31.979 18.817 31.981 18.819 33.492 17.313 33.489" fill="#7DAC00" opacity=".5"/>
<polygon transform="rotate(45 18.71 25.79)" points="17.2 25.032 20.217 25.039 20.22 26.547 17.203 26.54" fill="#FF00FE"/>
<g fill="#FE002E">
<polygon points="13.04 21.919 12.155 22.386 12.324 21.396 11.608 20.696 12.597 20.551 13.04 19.651 13.482 20.551 14.471 20.696 13.755 21.396 13.924 22.386"/>
<polygon transform="rotate(-37 45.16 23.165)" points="45.158 24.063 44.271 24.531 44.443 23.543 43.727 22.845 44.718 22.698 45.163 21.799 45.604 22.697 46.594 22.839 45.876 23.54 46.043 24.527"/>
<polygon transform="rotate(-37 28.606 8.049)" points="28.604 8.946 27.717 9.415 27.888 8.426 27.173 7.728 28.164 7.582 28.609 6.682 29.05 7.58 30.04 7.722 29.322 8.423 29.489 9.411"/>
</g>
<g fill="#FE9D0B">
<polygon transform="rotate(-37 31.616 21.653)" points="31.614 22.551 30.727 23.019 30.898 22.031 30.183 21.333 31.174 21.187 31.619 20.287 32.06 21.185 33.05 21.327 32.332 22.028 32.499 23.015"/>
<polygon transform="rotate(-37 43.162 5.117)" points="43.158 6.463 41.828 7.166 42.085 5.683 41.012 4.636 42.498 4.417 43.165 3.068 43.827 4.414 45.312 4.627 44.235 5.679 44.486 7.16"/>
<polygon transform="rotate(-37 34.218 32.44)" points="34.216 32.89 33.773 33.124 33.859 32.63 33.501 32.281 33.996 32.208 34.219 31.758 34.439 32.207 34.935 32.278 34.575 32.628 34.659 33.122"/>
<polygon transform="rotate(-13 39.51 31.069)" points="39.51 31.519 39.067 31.753 39.152 31.258 38.794 30.908 39.289 30.835 39.511 30.385 39.732 30.835 40.226 30.907 39.868 31.257 39.952 31.752"/>
</g>
<polygon transform="rotate(45 59.344 16.277)" points="57.83 14.011 60.847 14.018 60.857 18.543 57.84 18.536" fill="#88A1FF" opacity=".8"/>
<polygon transform="rotate(-18 20.399 8.437)" points="18.144 6.173 22.66 6.167 22.654 10.7 18.138 10.706" fill="#00C894"/>
<polygon transform="rotate(7 25.47 21.556)" points="23.965 20.044 26.975 20.045 26.976 23.068 23.966 23.067" fill="#EB5959"/>
</g>
</g>
</g>
<g mask="url(#folder-applications-stack-d)">
<g transform="translate(0 11)">
<path d="m1.306e-9 2.9949 2.3319e-11 -1c2.5692e-11 -1.1018 0.89295-1.9949 2.0066-1.9949h77.987c1.1082 0 2.0066 0.88583 2.0066 1.9949v1c0-1.1091-0.89839-1.9949-2.0066-1.9949h-77.987c-1.1137 0-2.0066 0.89315-2.0066 1.9949z" fill="#FFF" fill-opacity=".3"/>
<path d="m-6.7073e-14 58.005c-2.5862e-11 1.1091 0.89839 1.9949 2.0066 1.9949h77.987c1.1137 0 2.0066-0.89315 2.0066-1.9949v1c0 1.1018-0.89295 1.9949-2.0066 1.9949h-77.987c-1.1082 0-2.0066-0.88583-2.0066-1.9949l2.3319e-11 -1z" fill="#25006C" fill-opacity=".5"/>
<path d="m78.993 7.1054e-15h1c1.1082 0 2.0066 0.88583 2.0066 1.9949v57.01c0 1.1018-0.89295 1.9949-2.0066 1.9949h-1c1.1137 0 2.0066-0.89315 2.0066-1.9949v-57.01c0-1.1091-0.89839-1.9949-2.0066-1.9949zm-75.987 0c-1.1137 0-2.0066 0.89315-2.0066 1.9949v57.01c0 1.1091 0.89839 1.9949 2.0066 1.9949h-1c-1.1082 0-2.0066-0.88583-2.0066-1.9949l1.3294e-9 -57.01c2.5692e-11 -1.1018 0.89295-1.9949 2.0066-1.9949h1z" fill="#FFF" fill-opacity=".06"/>
</g>
</g>
</g>
</svg>
