<svg width="96" height="96" version="1.1" viewBox="0 0 96 96" xmlns="http://www.w3.org/2000/svg">
<g transform="translate(7 17)" fill="none" fill-rule="evenodd">
<path d="m6 8.9966v3.0034h-3.9934c-0.56039 0-1.0066 0.44445-1.0066 0.9949v57.01c0 0.55237 0.44626 0.9949 1.0066 0.9949h77.987c0.56039 0 1.0066-0.44445 1.0066-0.9949v-57.01c0-0.55237-0.44626-0.9949-1.0066-0.9949h-3.9934v-3.0034c0-0.54935-0.44801-0.99655-1.0008-0.99655h-2.9992v-6.0013c0-0.55284-0.44418-0.99867-0.9908-0.99867h-17.017c-0.27473 0-0.793 0.21541-0.99565 0.41806l-1.5781 1.5781c-0.57761 0.57761-1.5977 1.0039-2.4112 1.0039l-38.002-9e-8c-0.55852 0-1.0053 0.44444-1.0053 0.99263v3.0074h-2.9992c-0.55236 0-1.0008 0.44729-1.0008 0.99655z" fill="#000" fill-opacity=".5" stroke="#FFF" stroke-opacity=".4" stroke-width="2"/>
<g transform="translate(26 22)">
<circle cx="15" cy="15" r="16.5" fill="#000" fill-opacity=".4" stroke="#FFF" stroke-opacity=".5" stroke-width="3"/>
<path transform="rotate(-45 15 13.5)" d="m12 7.5v9h9v3h-12v-12h3z" fill="#FFF"/>
</g>
</g>
</svg>
