<svg width="96" height="96" version="1.1" viewBox="0 0 96 96" xmlns="http://www.w3.org/2000/svg" xmlns:xlink="http://www.w3.org/1999/xlink">
<defs>
<filter id="stack-documents-a" x="-14.6%" y="-22.2%" width="129.3%" height="148.6%">
<feOffset dy="2" in="SourceAlpha" result="shadowOffsetOuter1"/>
<feGaussianBlur in="shadowOffsetOuter1" result="shadowBlurOuter1" stdDeviation="2"/>
<feColorMatrix in="shadowBlurOuter1" result="shadowMatrixOuter1" values="0 0 0 0 0   0 0 0 0 0   0 0 0 0 0  0 0 0 0.5 0"/>
<feMerge>
<feMergeNode in="shadowMatrixOuter1"/>
<feMergeNode in="SourceGraphic"/>
</feMerge>
</filter>
<linearGradient id="stack-documents-d" x1="50%" x2="50%" y2="98.094%">
<stop stop-color="#FFAD34" offset="0"/>
<stop stop-color="#BEBEBE" offset="1"/>
</linearGradient>
<path id="stack-documents-c" d="m71.009 0c1.0995 0 1.9908 0.89412 1.9908 1.9987v63.001c0 1.1153-0.90951 2-2 2h-60c-1.105 0-2-0.86559-2-2v-60.007c0-1.1005 0.89447-1.9926 2.0053-1.9926l38.002 9e-8c0.54851 0 1.3142-0.32105 1.7041-0.71096l1.5781-1.5781c0.39265-0.39265 1.1663-0.71096 1.7028-0.71096h17.017z"/>
<filter id="stack-documents-b" x="-21.9%" y="-14.9%" width="143.8%" height="141.8%">
<feOffset dy="4" in="SourceAlpha" result="shadowOffsetOuter1"/>
<feGaussianBlur in="shadowOffsetOuter1" result="shadowBlurOuter1" stdDeviation="4"/>
<feColorMatrix in="shadowBlurOuter1" values="0 0 0 0 0   0 0 0 0 0   0 0 0 0 0  0 0 0 0.5 0"/>
</filter>
<linearGradient id="stack-documents-e" x1="50%" x2="50%" y2="98.094%">
<stop stop-color="#D9630F" offset="0"/>
<stop stop-color="#BEBEBE" offset="1"/>
</linearGradient>
<linearGradient id="stack-documents-g" x1="50%" x2="50%" y2="96.707%">
<stop stop-color="#FFA221" offset="0"/>
<stop stop-color="#FF7248" offset="1"/>
</linearGradient>
<path id="stack-documents-f" d="m2.0066 72c-1.1082 0-2.0066-0.88583-2.0066-1.9949l1.3294e-9 -57.01c2.5692e-11 -1.1018 0.89295-1.9949 2.0066-1.9949h77.987c1.1082 0 2.0066 0.88583 2.0066 1.9949v57.01c0 1.1018-0.89295 1.9949-2.0066 1.9949h-77.987z"/>
<linearGradient id="stack-documents-i" x1="50%" x2="50%" y2="100%">
<stop stop-color="#FFF" offset="0"/>
<stop stop-color="#FFE3C0" offset="1"/>
</linearGradient>
<radialGradient id="stack-documents-j" cx="79.957%" cy="71.832%" r="100%" gradientTransform="matrix(0 -1 .65 0 .333 1.518)">
<stop stop-color="#FA9361" offset="0"/>
<stop stop-color="#5F1CF7" offset="1"/>
</radialGradient>
<linearGradient id="stack-documents-k" x1="50%" x2="50%" y1="20.953%" y2="100%">
<stop stop-color="#0E3BAC" offset="0"/>
<stop stop-color="#1A0570" offset="1"/>
</linearGradient>
<filter id="stack-documents-l" x="-100%" y="-9.4%" width="300%" height="118.8%">
<feGaussianBlur in="SourceGraphic" stdDeviation="2"/>
</filter>
<linearGradient id="stack-documents-m" x1="50%" x2="50%" y2="100%">
<stop stop-color="#242424" offset="0"/>
<stop offset="1"/>
</linearGradient>
<linearGradient id="stack-documents-n" x1="311.24%" x2="0%" y1="45.328%" y2="60.059%">
<stop stop-color="#463417" offset="0"/>
<stop stop-color="#281212" offset="1"/>
</linearGradient>
<linearGradient id="stack-documents-o" x1="50%" x2="50%" y2="100%">
<stop stop-color="#080808" offset="0"/>
<stop stop-color="#481D1D" offset="1"/>
</linearGradient>
<linearGradient id="stack-documents-p" x1="11.779%" x2="76.358%" y1="79.249%" y2="79.249%">
<stop stop-color="#6A6A6A" offset="0"/>
<stop stop-color="#0A0A0A" offset="1"/>
</linearGradient>
</defs>
<g transform="translate(7 17)" fill="none" fill-rule="evenodd" filter="url(#stack-documents-a)">
<use fill="#000" filter="url(#stack-documents-b)" xlink:href="#stack-documents-c"/>
<use fill="url(#stack-documents-d)" xlink:href="#stack-documents-c"/>
<path d="m70.994 1c1.1077 0 2.0056 0.90445 2.0056 2.0027v61.978h-64v-58.986c0-1.1014 0.89132-1.9943 1.9996-1.9943l38.76 5e-8c0.54723 1e-8 1.3119-0.32105 1.7018-0.71096l1.5781-1.5781c0.39265-0.39265 1.1492-0.71096 1.7188-0.71096h16.237z" fill="url(#stack-documents-e)"/>
<path d="m5 67.007-2e-8 -58.011c0-1.1027 0.89731-1.9966 2.0008-1.9966h67.998c1.105 0 2.0008 0.89484 2.0008 1.9966v58.011h-72z" fill="#FFF"/>
<path d="m5 66v-56.004c0-1.1026 0.89731-1.9965 2.0008-1.9965h67.998c1.105 0 2.0008 0.88783 2.0008 1.9965v56.004h-72z" fill="#F1F1F1"/>
<mask id="stack-documents-h" fill="#fff">
<use xlink:href="#stack-documents-f"/>
</mask>
<use fill="url(#stack-documents-g)" xlink:href="#stack-documents-f"/>
<g mask="url(#stack-documents-h)">
<g transform="translate(12 20)">
<polygon points="0.021 3 43 3 42.963 51 0 51" fill="#1D1D1D" fill-opacity=".1"/>
<polygon points="1.02 4 42 4 41.964 52 1 52" fill="url(#stack-documents-i)"/>
<g transform="translate(5 8)">
<path d="m0.5 0.5v12h19v-12h-19z" fill="url(#stack-documents-j)" stroke="#000" stroke-opacity=".1"/>
<circle cx="16" cy="9" r="1" fill="#FF5151"/>
<path d="m3.4106e-13 13h16l-3.6457-5.0108c-0.32493-0.44659-0.95036-0.54522-1.397-0.22029-0.025468 0.01853-0.050047 0.038253-0.073654 0.059103l-1.5582 1.3763c-0.41395 0.3656-1.0459 0.32641-1.4115-0.087535-0.053625-0.060716-0.099674-0.12772-0.13713-0.19955l-1.7238-3.3051c-0.2554-0.48968-0.8594-0.67961-1.3491-0.42422-0.16814 0.087694-0.30788 0.22139-0.40292 0.38549l-4.301 7.4266z" fill="url(#stack-documents-k)"/>
</g>
<path d="m27 8h11v1h-11v-1zm0 3h11v1h-11v-1zm0 3h11v1h-11v-1zm0 3h11v1h-11v-1zm0 3h11v1h-11v-1zm-22 3h33v1h-33v-1zm0 3h33v1h-33v-1zm0 3h33v1h-33v-1zm0 3h33v1h-33v-1zm0 3h33v1h-33v-1zm0 3h21v1h-21v-1zm0 6h33v1h-33v-1z" fill="#000" fill-opacity=".5"/>
<g transform="translate(49)">
<polygon points="2 10.313 5 0 8 10.313 8 64 2 64" fill="#7B3400" fill-opacity=".3" filter="url(#stack-documents-l)"/>
<polygon points="0 10 6 10 6 65 0 65" fill="url(#stack-documents-m)"/>
<polygon points="0 10 2 10 2 65 0 65" fill="url(#stack-documents-n)"/>
<polygon points="4 10 6 10 6 65 4 65" fill="url(#stack-documents-o)"/>
<polygon points="3 0 6 10 0 10" fill="#FFDCAC"/>
<polygon points="3 0 4 10 2 10" fill="#D8915B"/>
<polygon points="3 0 6 10 4 10" fill="#965600"/>
<polygon points="3.6 2 2.4 2 3 0" fill="url(#stack-documents-p)"/>
</g>
</g>
</g>
<g mask="url(#stack-documents-h)">
<g transform="translate(0 11)">
<path d="m1.306e-9 2.9949 2.3319e-11 -1c2.5692e-11 -1.1018 0.89295-1.9949 2.0066-1.9949h77.987c1.1082 0 2.0066 0.88583 2.0066 1.9949v1c0-1.1091-0.89839-1.9949-2.0066-1.9949h-77.987c-1.1137 0-2.0066 0.89315-2.0066 1.9949z" fill="#FFF" fill-opacity=".3"/>
<path d="m-6.7073e-14 58.005c-2.5862e-11 1.1091 0.89839 1.9949 2.0066 1.9949h77.987c1.1137 0 2.0066-0.89315 2.0066-1.9949v1c0 1.1018-0.89295 1.9949-2.0066 1.9949h-77.987c-1.1082 0-2.0066-0.88583-2.0066-1.9949l2.3319e-11 -1z" fill="#000" fill-opacity=".3"/>
<path d="m78.993 7.1054e-15h1c1.1082 0 2.0066 0.88583 2.0066 1.9949v57.01c0 1.1018-0.89295 1.9949-2.0066 1.9949h-1c1.1137 0 2.0066-0.89315 2.0066-1.9949v-57.01c0-1.1091-0.89839-1.9949-2.0066-1.9949zm-75.987 0c-1.1137 0-2.0066 0.89315-2.0066 1.9949v57.01c0 1.1091 0.89839 1.9949 2.0066 1.9949h-1c-1.1082 0-2.0066-0.88583-2.0066-1.9949l1.3294e-9 -57.01c2.5692e-11 -1.1018 0.89295-1.9949 2.0066-1.9949h1z" fill="#FFF" fill-opacity=".06"/>
</g>
</g>
</g>
</svg>
