<svg width="20" height="20" version="1.1" viewBox="0 0 20 20" xmlns="http://www.w3.org/2000/svg">
<path transform="translate(1,3)" d="m9 1.046v11c0 0.44545-0.53857 0.66854-0.85355 0.35355l-1.9749-1.9749c-0.56261-0.56261-1.3257-0.87868-2.1213-0.87868h-2.0503c-1.1046 0-2-0.89543-2-2v-2c0-1.1046 0.89543-2 2-2h2.0503c0.79565 0 1.5587-0.31607 2.1213-0.87868l1.9749-1.9749c0.31498-0.31498 0.85355-0.091899 0.85355 0.35355z" fill="#fff"/>
<path transform="translate(1,3)" d="m14.841 5.1619c0.20303 0.20303 0.21923 0.51601 0.03618 0.69907l-1.1394 1.139 1.1394 1.139c0.18305 0.18305 0.16686 0.49604-0.03618 0.69907-0.20303 0.20303-0.51601 0.21923-0.69907 0.036175l-1.1391-1.1393-1.1389 1.1393c-0.18305 0.18305-0.49604 0.16686-0.69907-0.036175-0.20303-0.20303-0.21923-0.51601-0.036175-0.69907l1.1392-1.139-1.1392-1.139c-0.18305-0.18305-0.16686-0.49604 0.036175-0.69907 0.20303-0.20303 0.51602-0.21923 0.69907-0.036175l1.1389 1.1383 1.1391-1.1383c0.18305-0.18305 0.49604-0.16686 0.69907 0.036175z" fill="#fff"/>
</svg>
