<svg width="20" height="20" version="1.1" viewBox="0 0 20 20" xmlns="http://www.w3.org/2000/svg">
<path d="m10 4.501v11c0 0.44545-0.53857 0.66854-0.85355 0.35355l-1.9749-1.9749c-0.56261-0.56261-1.3257-0.87868-2.1213-0.87868h-2.0503c-1.1046 0-2-0.89543-2-2v-2c0-1.1046 0.89543-2 2-2h2.0503c0.79565 0 1.5587-0.31607 2.1213-0.87868l1.9749-1.9749c0.31498-0.31498 0.85355-0.091899 0.85355 0.35355z"/>
<path d="m12.514 6.119c0.27614 0 0.5 0.22386 0.5 0.5v6.764c0 0.27614-0.22386 0.5-0.5 0.5s-0.5-0.22386-0.5-0.5v-6.764c0-0.27614 0.22386-0.5 0.5-0.5z"/>
</svg>
