<svg width="20" height="20" version="1.1" viewBox="0 0 20 20" xmlns="http://www.w3.org/2000/svg">
<path d="m10 1c3.866 0 7 4.0294 7 9 0 4.9706-3.134 9-7 9-3.866 0-7-4.0294-7-9 0-4.9706 3.134-9 7-9zm-0.2903 3.0466c-0.32119-0.15068-0.7097 0.080866-0.7097 0.45427l-6.308e-5 4.6981-2.9815-1.8973c-0.23297-0.14825-0.54201-0.079578-0.69027 0.15339-0.14825 0.23297-0.079578 0.54201 0.15339 0.69027l3.0914 1.9667-3.0914 1.967-0.0715 0.055048c-0.17405 0.16094-0.21367 0.42814-0.081893 0.63522l0.055048 0.0715c0.16094 0.17405 0.42814 0.21367 0.63522 0.081893l2.9815-1.8987 6.308e-5 4.6995c0 0.40212 0.45059 0.63974 0.78242 0.4126l4.25-2.9091c0.29602-0.20262 0.28866-0.64184-0.013983-0.83443l-3.5845-2.2806 3.5845-2.2802 0.075212-0.058277c0.22626-0.21222 0.20788-0.59195-0.061229-0.77615l-4.25-2.9091zm0.2903 6.9741 2.8426 1.8089-2.8426 1.9457v-3.7546zm0-5.5717 2.8426 1.9457-2.8426 1.8089v-3.7546z" fill="#FFF" fill-rule="evenodd"/>
</svg>
