<svg width="20" height="20" version="1.1" viewBox="0 0 20 20" xmlns="http://www.w3.org/2000/svg">
<path transform="translate(3)" d="m6.6326 0.19036 0.046032 0.047876 2.5227 3.3636c0.15274 0.20366 0.094367 0.36324-0.11652 0.39312l-0.075864 0.0050388-2.009-1.9511e-4 -1e-3 8.116 3.7143-1.6124c0.15658-0.067984 0.26579-0.21006 0.29379-0.37469l0.0070796-0.083952-1.877e-4 -1.0449-0.51861 1.9511e-4c-0.24857 0-0.44666-0.17524-0.48761-0.40634l-0.0077825-0.089047v-2.0092c0-0.24857 0.17524-0.44666 0.40634-0.48761l0.089047-0.0077825h2.0092c0.24857 0 0.44666 0.17524 0.48761 0.40634l0.0077825 0.089047v2.0092c0 0.24857-0.17524 0.44666-0.40634 0.48761l-0.089047 0.0077825-0.50561-1.9511e-4 1e-3 1.695c0 0.17079-0.086918 0.3276-0.22688 0.41883l-0.074242 0.03991-4.6999 2.0373 0.0010384 2.8724c0.8618 0.22217 1.5 1.0045 1.5 1.9381 0 1.1045-0.89723 1.9987-2.0006 1.9987-1.1059 0-1.9994-0.89427-1.9994-1.9987 0-0.93397 0.63594-1.7165 1.4989-1.9383l7.449e-5 -0.77214-3.8166-3.1385c-0.11548-0.094977-0.1824-0.23665-0.1824-0.38617l6.249e-5 -1.8293c-0.86287-0.22227-1.5001-1.0054-1.5001-1.9378 0-1.1074 0.89555-1.999 2.001-1.999 1.1014 0 2.001 0.89155 2.001 1.999 0 0.93229-0.63981 1.7153-1.501 1.9377l-0.0010447 1.3574c0 0.14953 0.066923 0.29121 0.18242 0.38619l2.8166 2.3155 1e-3 -9.996-2.009 1.9511e-4c-0.23681 0-0.33678-0.14439-0.23418-0.33358l0.041794-0.064583 2.5227-3.3636c0.078969-0.10529 0.21261-0.12675 0.31133-0.047876z" fill-rule="evenodd"/>
</svg>
