<svg width="20" height="20" version="1.1" viewBox="0 0 20 20" xmlns="http://www.w3.org/2000/svg">
<path transform="translate(1 4)" d="m16 0c1.1046-2.0291e-16 2 0.89543 2 2v8c0 1.1046-0.89543 2-2 2h-14c-1.1046 0-2-0.89543-2-2v-8c-1.3527e-16 -1.1046 0.89543-2 2-2h14zm-8.717e-4 1h-13.998c-0.55277 0-1.0009 0.45566-1.0009 0.9954v8.0092c0 0.54974 0.44463 0.9954 1.0009 0.9954h13.998c0.55277 0 1.0009-0.45566 1.0009-0.9954v-8.0092c0-0.54974-0.44463-0.9954-1.0009-0.9954zm-10.999 7v2h-3v-2h3zm8 0v2h-7v-2h7zm3 0v2h-2v-2h2zm-10-3v2h-4v-2h4zm3 0v2h-2v-2h2zm3 0v2h-2v-2h2zm4 0v2h-3v-2h3zm-12-3v2h-2v-2h2zm3 0v2h-2v-2h2zm3 0v2h-2v-2h2zm3 0v2h-2v-2h2zm3 0v2h-2v-2h2z" fill-rule="evenodd"/>
</svg>
