<svg width="74" height="26" viewBox="0 0 74 26" fill="none" xmlns="http://www.w3.org/2000/svg">
<g filter="url(#filter0_d_482_13916)">
<rect x="4" y="4" width="65.884" height="18" rx="9" fill="#F6AE2D"/>
<path d="M19.0977 7.38848L13.4459 13.1535L16.5801 14.1439L14.7856 18.6108L20.4374 12.8457L17.3032 11.8554L19.0977 7.38848Z" fill="white" stroke="white" stroke-linecap="round" stroke-linejoin="round"/>
<path d="M32.2558 15.532C31.4698 15.952 30.5908 16.162 29.6188 16.162C29.1268 16.162 28.6738 16.084 28.2598 15.928C27.8518 15.766 27.4978 15.541 27.1978 15.253C26.9038 14.959 26.6728 14.608 26.5048 14.2C26.3368 13.792 26.2528 13.339 26.2528 12.841C26.2528 12.331 26.3368 11.869 26.5048 11.455C26.6728 11.035 26.9038 10.678 27.1978 10.384C27.4978 10.09 27.8518 9.865 28.2598 9.709C28.6738 9.547 29.1268 9.466 29.6188 9.466C30.1048 9.466 30.5608 9.526 30.9868 9.646C31.4128 9.76 31.7938 9.967 32.1298 10.267L31.2928 11.113C31.0888 10.915 30.8398 10.762 30.5458 10.654C30.2578 10.546 29.9518 10.492 29.6278 10.492C29.2978 10.492 28.9978 10.552 28.7278 10.672C28.4638 10.786 28.2358 10.948 28.0438 11.158C27.8518 11.362 27.7018 11.602 27.5938 11.878C27.4918 12.154 27.4408 12.451 27.4408 12.769C27.4408 13.111 27.4918 13.426 27.5938 13.714C27.7018 14.002 27.8518 14.251 28.0438 14.461C28.2358 14.671 28.4638 14.836 28.7278 14.956C28.9978 15.076 29.2978 15.136 29.6278 15.136C29.9158 15.136 30.1858 15.109 30.4378 15.055C30.6958 15.001 30.9238 14.917 31.1218 14.803V13.3H29.8168V12.274H32.2558V15.532ZM33.2577 12.841C33.2577 12.331 33.3417 11.869 33.5097 11.455C33.6777 11.035 33.9087 10.678 34.2027 10.384C34.5027 10.09 34.8567 9.865 35.2647 9.709C35.6787 9.547 36.1317 9.466 36.6237 9.466C37.1217 9.46 37.5777 9.535 37.9917 9.691C38.4057 9.841 38.7627 10.063 39.0627 10.357C39.3627 10.651 39.5967 11.005 39.7647 11.419C39.9327 11.833 40.0167 12.295 40.0167 12.805C40.0167 13.303 39.9327 13.756 39.7647 14.164C39.5967 14.572 39.3627 14.923 39.0627 15.217C38.7627 15.511 38.4057 15.742 37.9917 15.91C37.5777 16.072 37.1217 16.156 36.6237 16.162C36.1317 16.162 35.6787 16.084 35.2647 15.928C34.8567 15.766 34.5027 15.541 34.2027 15.253C33.9087 14.959 33.6777 14.608 33.5097 14.2C33.3417 13.792 33.2577 13.339 33.2577 12.841ZM34.4457 12.769C34.4457 13.111 34.4967 13.426 34.5987 13.714C34.7067 14.002 34.8567 14.251 35.0487 14.461C35.2407 14.671 35.4687 14.836 35.7327 14.956C36.0027 15.076 36.3027 15.136 36.6327 15.136C36.9627 15.136 37.2627 15.076 37.5327 14.956C37.8027 14.836 38.0337 14.671 38.2257 14.461C38.4177 14.251 38.5647 14.002 38.6667 13.714C38.7747 13.426 38.8287 13.111 38.8287 12.769C38.8287 12.451 38.7747 12.154 38.6667 11.878C38.5647 11.602 38.4177 11.362 38.2257 11.158C38.0337 10.948 37.8027 10.786 37.5327 10.672C37.2627 10.552 36.9627 10.492 36.6327 10.492C36.3027 10.492 36.0027 10.552 35.7327 10.672C35.4687 10.786 35.2407 10.948 35.0487 11.158C34.8567 11.362 34.7067 11.602 34.5987 11.878C34.4967 12.154 34.4457 12.451 34.4457 12.769ZM43.7598 9.628H45.9018C46.2078 9.628 46.5018 9.658 46.7838 9.718C47.0718 9.778 47.3238 9.88 47.5398 10.024C47.7558 10.162 47.9268 10.351 48.0528 10.591C48.1848 10.825 48.2508 11.119 48.2508 11.473C48.2508 11.875 48.1818 12.199 48.0438 12.445C47.9058 12.691 47.7198 12.883 47.4858 13.021C47.2518 13.153 46.9788 13.243 46.6668 13.291C46.3608 13.339 46.0398 13.363 45.7038 13.363H44.8938V16H43.7598V9.628ZM45.5778 12.391C45.7398 12.391 45.9078 12.385 46.0818 12.373C46.2558 12.361 46.4148 12.325 46.5588 12.265C46.7088 12.205 46.8288 12.115 46.9188 11.995C47.0148 11.875 47.0628 11.707 47.0628 11.491C47.0628 11.293 47.0208 11.137 46.9368 11.023C46.8528 10.903 46.7448 10.813 46.6128 10.753C46.4808 10.687 46.3338 10.645 46.1718 10.627C46.0098 10.609 45.8538 10.6 45.7038 10.6H44.8938V12.391H45.5778ZM49.2618 9.628H51.4758C51.7818 9.628 52.0758 9.658 52.3578 9.718C52.6458 9.772 52.9008 9.868 53.1228 10.006C53.3448 10.144 53.5218 10.33 53.6538 10.564C53.7858 10.798 53.8518 11.095 53.8518 11.455C53.8518 11.917 53.7228 12.304 53.4648 12.616C53.2128 12.928 52.8498 13.117 52.3758 13.183L54.0678 16H52.6998L51.2238 13.3H50.3958V16H49.2618V9.628ZM51.2778 12.328C51.4398 12.328 51.6018 12.322 51.7638 12.31C51.9258 12.292 52.0728 12.256 52.2048 12.202C52.3428 12.142 52.4538 12.055 52.5378 11.941C52.6218 11.821 52.6638 11.656 52.6638 11.446C52.6638 11.26 52.6248 11.11 52.5468 10.996C52.4688 10.882 52.3668 10.798 52.2408 10.744C52.1148 10.684 51.9738 10.645 51.8178 10.627C51.6678 10.609 51.5208 10.6 51.3768 10.6H50.3958V12.328H51.2778ZM54.5887 12.841C54.5887 12.331 54.6727 11.869 54.8407 11.455C55.0087 11.035 55.2397 10.678 55.5337 10.384C55.8337 10.09 56.1877 9.865 56.5957 9.709C57.0097 9.547 57.4627 9.466 57.9547 9.466C58.4527 9.46 58.9087 9.535 59.3227 9.691C59.7367 9.841 60.0937 10.063 60.3937 10.357C60.6937 10.651 60.9277 11.005 61.0957 11.419C61.2637 11.833 61.3477 12.295 61.3477 12.805C61.3477 13.303 61.2637 13.756 61.0957 14.164C60.9277 14.572 60.6937 14.923 60.3937 15.217C60.0937 15.511 59.7367 15.742 59.3227 15.91C58.9087 16.072 58.4527 16.156 57.9547 16.162C57.4627 16.162 57.0097 16.084 56.5957 15.928C56.1877 15.766 55.8337 15.541 55.5337 15.253C55.2397 14.959 55.0087 14.608 54.8407 14.2C54.6727 13.792 54.5887 13.339 54.5887 12.841ZM55.7767 12.769C55.7767 13.111 55.8277 13.426 55.9297 13.714C56.0377 14.002 56.1877 14.251 56.3797 14.461C56.5717 14.671 56.7997 14.836 57.0637 14.956C57.3337 15.076 57.6337 15.136 57.9637 15.136C58.2937 15.136 58.5937 15.076 58.8637 14.956C59.1337 14.836 59.3647 14.671 59.5567 14.461C59.7487 14.251 59.8957 14.002 59.9977 13.714C60.1057 13.426 60.1597 13.111 60.1597 12.769C60.1597 12.451 60.1057 12.154 59.9977 11.878C59.8957 11.602 59.7487 11.362 59.5567 11.158C59.3647 10.948 59.1337 10.786 58.8637 10.672C58.5937 10.552 58.2937 10.492 57.9637 10.492C57.6337 10.492 57.3337 10.552 57.0637 10.672C56.7997 10.786 56.5717 10.948 56.3797 11.158C56.1877 11.362 56.0377 11.602 55.9297 11.878C55.8277 12.154 55.7767 12.451 55.7767 12.769Z" fill="white"/>
</g>
<defs>
<filter id="filter0_d_482_13916" x="0" y="0" width="73.8838" height="26" filterUnits="userSpaceOnUse" color-interpolation-filters="sRGB">
<feFlood flood-opacity="0" result="BackgroundImageFix"/>
<feColorMatrix in="SourceAlpha" type="matrix" values="0 0 0 0 0 0 0 0 0 0 0 0 0 0 0 0 0 0 127 0" result="hardAlpha"/>
<feOffset/>
<feGaussianBlur stdDeviation="2"/>
<feComposite in2="hardAlpha" operator="out"/>
<feColorMatrix type="matrix" values="0 0 0 0 0 0 0 0 0 0 0 0 0 0 0 0 0 0 0.1 0"/>
<feBlend mode="normal" in2="BackgroundImageFix" result="effect1_dropShadow_482_13916"/>
<feBlend mode="normal" in="SourceGraphic" in2="effect1_dropShadow_482_13916" result="shape"/>
</filter>
</defs>
</svg>
