<svg width="20" height="20" viewBox="0 0 20 20" fill="none" xmlns="http://www.w3.org/2000/svg">
<circle cx="10" cy="10" r="9.5" fill="#C7DBFA" stroke="white"/>
<g clip-path="url(#clip0_898_8688)">
<path d="M15.3334 17V15.6667C15.3334 14.9594 15.0525 14.2811 14.5524 13.781C14.0523 13.281 13.374 13 12.6667 13H7.33341C6.62617 13 5.94789 13.281 5.4478 13.781C4.9477 14.2811 4.66675 14.9594 4.66675 15.6667V17" fill="white"/>
<path d="M15.3334 17V15.6667C15.3334 14.9594 15.0525 14.2811 14.5524 13.781C14.0523 13.281 13.374 13 12.6667 13H7.33341C6.62617 13 5.94789 13.281 5.4478 13.781C4.9477 14.2811 4.66675 14.9594 4.66675 15.6667V17" stroke="white" stroke-linecap="round" stroke-linejoin="round"/>
<path d="M9.99992 10.3333C11.4727 10.3333 12.6666 9.13943 12.6666 7.66667C12.6666 6.19391 11.4727 5 9.99992 5C8.52716 5 7.33325 6.19391 7.33325 7.66667C7.33325 9.13943 8.52716 10.3333 9.99992 10.3333Z" fill="white" stroke="white" stroke-linecap="round" stroke-linejoin="round"/>
<path d="M5 17H15V18L12.5 19L10 19.5L7 19L5 18V17Z" fill="white"/>
</g>
<defs>
<clipPath id="clip0_898_8688">
<rect width="16" height="16" fill="white" transform="translate(2 3)"/>
</clipPath>
</defs>
</svg>
