<svg width="24" height="24" version="1.1" viewBox="0 0 24 24" xmlns="http://www.w3.org/2000/svg" xmlns:xlink="http://www.w3.org/1999/xlink">
<defs>
<linearGradient id="deepin-launcher-c" x1="50%" x2="50%" y1="4.64%" y2="97.178%">
<stop stop-color="#00ABFF" offset="0"/>
<stop stop-color="#0163FA" offset="1"/>
</linearGradient>
<path id="deepin-launcher-b" d="m1 12c0-6.0751 4.9249-11 11-11 6.0751 0 11 4.9249 11 11 0 6.0751-4.9249 11-11 11-6.0751 0-11-4.9249-11-11z"/>
<filter id="deepin-launcher-a" x="-6.8%" y="-6.8%" width="113.6%" height="113.6%">
<feOffset in="SourceAlpha" result="shadowOffsetOuter1"/>
<feGaussianBlur in="shadowOffsetOuter1" result="shadowBlurOuter1" stdDeviation=".5"/>
<feColorMatrix in="shadowBlurOuter1" values="0 0 0 0 0   0 0 0 0 0   0 0 0 0 0  0 0 0 0.2 0"/>
</filter>
</defs>
<g fill-rule="evenodd">
<use filter="url(#deepin-launcher-a)" xlink:href="#deepin-launcher-b"/>
<use fill="url(#deepin-launcher-c)" xlink:href="#deepin-launcher-b"/>
<path d="m15.756 3.8623c-1.149-0.5368-2.4308-0.83663-3.7827-0.83663-0.46458 0-0.92089 0.035411-1.3664 0.10368-1.2565 1.8945-1.9053 4.8252-1.8517 6.6421 0 0-0.088305 2.7856 1.7842 3.7737 0 0 1.6828 0.75242 2.8296-1.6806 0 0 0.78819-1.373 0.46736-4.4762 0 0 0.30695 0.055113 0.34165 0.10464 0.034705 0.049123 0.6779 2.389 0.22597 4.3595 0 0-0.41607 2.3156-2.4617 2.8451-2.0449 0.52957-3.6386-0.75162-4.7206-1.9585-0.78226-0.8725-1.9325-3.1726-2.5381-5.9551-1.0437 1.4635-1.6576 3.2547-1.6576 5.1892 0 1.4439 0.34204 2.8079 0.94951 4.0155 2.0559 0.60033 7.1113 1.7154 10.339-0.65005 2.1574-1.5815 1.8794-4.114 1.8794-4.114-0.035718-1.9264-1.2086-3.84-1.2086-3.84 4.5606 4.1257 1.8651 8.7093 1.8651 8.7093-1.1787 2.4075-3.5262 4-5.677 4.7912 0.26355 0.023352 0.53039 0.035278 0.80001 0.035278 4.9415 0 8.9474-4.0058 8.9474-8.9472 0-2.1052-0.72705-4.0406-1.9437-5.5688-0.40541 0.023783-0.86096 0.035618-1.3314 0.020179 0 0-2.4264 0.11331-3.787 0.79194 0 0-1.0146 0.45242-2.0288 1.2195 0 0-0.21525 0.1076-0.20484 0.50296 0.0091593 0.39414-0.2065 1.4449-0.9251 2.0608 0 0-0.51293 0.26371-0.25646 0.64113 0 0 0.34639 0.50296 0.83434-0.02527 0 0 1.2582-1.2945 1.3352-3.3805 0 0 0.39802-0.33993 1.0267-0.44019 0 0 0.11574 3.1295-1.4372 4.7007 0 0-1.4772 1.6087-1.9518-0.77931 0 0-0.57787-2.2751 2.401-4.977 0 0 1.9154-1.9129 3.1044-2.877zm-3.7557 18.138c-5.5229 0-10-4.477-10-9.9998 0-5.5228 4.4772-10 10-10 5.5228 0 10 4.4774 10 10 0 5.5228-4.4771 9.9998-10 9.9998z" fill="#F0F9FF" fill-rule="nonzero"/>
</g>
</svg>
