<svg width="24" height="24" version="1.1" viewBox="0 0 24 24" xmlns="http://www.w3.org/2000/svg" xmlns:xlink="http://www.w3.org/1999/xlink">
<defs>
<filter id="folder-applications-stack-a" x="-12.5%" y="-13.9%" width="125%" height="127.8%">
<feOffset in="SourceAlpha" result="shadowOffsetOuter1"/>
<feGaussianBlur in="shadowOffsetOuter1" result="shadowBlurOuter1" stdDeviation=".5"/>
<feColorMatrix in="shadowBlurOuter1" result="shadowMatrixOuter1" values="0 0 0 0 0   0 0 0 0 0   0 0 0 0 0  0 0 0 0.5 0"/>
<feMerge>
<feMergeNode in="shadowMatrixOuter1"/>
<feMergeNode in="SourceGraphic"/>
</feMerge>
</filter>
<linearGradient id="folder-applications-stack-c" x1="50%" x2="50%" y2="97.162%">
<stop stop-color="#582BFF" offset="0"/>
<stop stop-color="#7D5FFF" offset="1"/>
</linearGradient>
<polygon id="folder-applications-stack-b" points="0 18 0 3 20 3 20 18"/>
<linearGradient id="folder-applications-stack-e" x1="65.432%" x2="37.302%" y1="77.19%" y2="4.533%">
<stop stop-color="#D1C0FF" offset="0"/>
<stop stop-color="#8375FF" offset="1"/>
</linearGradient>
<linearGradient id="folder-applications-stack-f" x1="50%" x2="50%" y2="392.79%">
<stop stop-color="#FFF" stop-opacity=".8" offset="0"/>
<stop stop-color="#882AFF" stop-opacity=".117" offset="1"/>
</linearGradient>
<linearGradient id="folder-applications-stack-g" x1="50%" x2="50%" y1="-22.147%" y2="100%">
<stop stop-color="#CAA2FF" stop-opacity=".3" offset="0"/>
<stop stop-color="#6249F0" offset="1"/>
</linearGradient>
<linearGradient id="folder-applications-stack-h" x1="33.388%" x2="65.432%" y1="55.584%" y2="40.499%">
<stop stop-color="#B9B7FF" offset="0"/>
<stop stop-color="#8174FF" offset="1"/>
</linearGradient>
<linearGradient id="folder-applications-stack-i" x1="50%" x2="50%" y1="-22.147%" y2="100%">
<stop stop-color="#B6A2FF" offset="0"/>
<stop stop-color="#6249F0" offset="1"/>
</linearGradient>
</defs>
<g transform="translate(2 4)" fill="none" fill-rule="evenodd" filter="url(#folder-applications-stack-a)">
<polygon points="13 0 18 0 18 16.995 2 16.995 2 1 12 1" fill="#4A00D5"/>
<polygon points="1 17 1 2 19 2 19 17" fill="#D7D7D7"/>
<mask id="folder-applications-stack-d" fill="#fff">
<use xlink:href="#folder-applications-stack-b"/>
</mask>
<use fill="url(#folder-applications-stack-c)" xlink:href="#folder-applications-stack-b"/>
<g mask="url(#folder-applications-stack-d)">
<g transform="translate(3.327 5.213)">
<polygon points="1.673 2.787 6.673 4.832 6.673 11.787 1.673 9.742" fill="url(#folder-applications-stack-e)"/>
<polygon points="1.673 2.787 6.673 4.832 11.673 2.787 6.673 0.742" fill="url(#folder-applications-stack-f)"/>
<polygon points="6.673 4.832 11.673 2.787 6.673 0.742" fill="url(#folder-applications-stack-g)"/>
<polygon points="6.673 2.787 11.673 4.787 11.673 11.787 6.673 9.787" fill="url(#folder-applications-stack-h)"/>
<polygon points="1.673 2.787 6.673 4.832 5.297 7.161 0.297 5.115" fill="url(#folder-applications-stack-i)"/>
<polygon points="8.314 2.787 13.314 4.787 11.673 7.161 6.673 5.161" fill="url(#folder-applications-stack-i)"/>
</g>
</g>
</g>
</svg>
