<svg width="24" height="24" version="1.1" viewBox="0 0 24 24" xmlns="http://www.w3.org/2000/svg">
<defs>
<filter id="stack-videos-a" x="-12.5%" y="-13.9%" width="125%" height="127.8%">
<feOffset in="SourceAlpha" result="shadowOffsetOuter1"/>
<feGaussianBlur in="shadowOffsetOuter1" result="shadowBlurOuter1" stdDeviation=".5"/>
<feColorMatrix in="shadowBlurOuter1" result="shadowMatrixOuter1" values="0 0 0 0 0   0 0 0 0 0   0 0 0 0 0  0 0 0 0.5 0"/>
<feMerge>
<feMergeNode in="shadowMatrixOuter1"/>
<feMergeNode in="SourceGraphic"/>
</feMerge>
</filter>
<linearGradient id="stack-videos-b" x1="50%" x2="50%" y2="97.197%">
<stop stop-color="#414141" offset="0"/>
<stop stop-color="#2B2B2B" offset="1"/>
</linearGradient>
<linearGradient id="stack-videos-c" x1="23.162%" x2="50%" y2="100%">
<stop stop-color="#FFE00B" offset="0"/>
<stop stop-color="#D38700" offset="1"/>
</linearGradient>
</defs>
<g transform="translate(2 4)" fill-rule="evenodd" filter="url(#stack-videos-a)">
<polygon points="13 0 18 0 18 16.995 2 16.995 2 1 12 1" fill="#161616"/>
<polygon points="1 17 1 2 19 2 19 17" fill="#262626"/>
<polygon points="0 18 0 3 20 3 20 18" fill="url(#stack-videos-b)"/>
<path d="m1 4h3v3h-3v-3zm0 5h3v3h-3v-3zm0 5h3v3h-3v-3z" fill="#1B1B1B"/>
<g fill-opacity=".2">
<rect x="5" y="4" width="10" height="2"/>
<rect x="5" y="7" width="10" height="7"/>
<rect x="5" y="15" width="10" height="2"/>
</g>
<polygon points="12 10.5 8 13 8 8" fill="url(#stack-videos-c)"/>
<path d="m16 4h3v3h-3v-3zm0 5h3v3h-3v-3zm0 5h3v3h-3v-3z" fill="#1B1B1B"/>
</g>
</svg>
