<svg version="1.1" viewBox="0 0 16 16" xmlns="http://www.w3.org/2000/svg">
<defs>
<style id="current-color-scheme" type="text/css">.ColorScheme-Text {
        color:#232629;
      }</style>
</defs>
<path d="m11.5 2c-0.82843 0-1.5 0.67157-1.5 1.5 0 0.14749 0.028689 0.28723 0.068359 0.42188l-5.752 3.3223c-0.23533-0.15347-0.51451-0.24414-0.81641-0.24414-0.82843 0-1.5 0.67157-1.5 1.5s0.67157 1.5 1.5 1.5c0.33354 0 0.63762-0.11274 0.88672-0.29688l5.7031 3.293c0.20545 0.58346 0.75642 1.0039 1.4102 1.0039 0.82843 0 1.5-0.67157 1.5-1.5s-0.67157-1.5-1.5-1.5c-0.60319 0-1.1212 0.35771-1.3594 0.87109l-5.1934-2.998c0.030828-0.11982 0.052734-0.24361 0.052734-0.37305 0-0.15816-0.030796-0.30803-0.076172-0.45117l5.7324-3.3105c0.24073 0.16457 0.53013 0.26172 0.84375 0.26172 0.82843 0 1.5-0.67157 1.5-1.5s-0.67157-1.5-1.5-1.5z" fill="#303030" fill-rule="evenodd" style="paint-order:markers fill stroke"/>
</svg>
