<svg width="16px" height="16px" version="1.1" viewBox="0 0 16 16" xmlns="http://www.w3.org/2000/svg">
<title>folder-documents-symbolic</title>
<desc>Created with Sketch.</desc>
<g id="folder-documents-symbolic" fill="#303030">
<path id="Combined-Shape" d="m3 14.001h10v-7h-4.5c-0.27614 0-0.5-0.22386-0.5-0.5v-4.5h-5zm10.5-8c0.27614 0 0.5 0.22386 0.5 0.5v8c0 0.27614-0.22386 0.5-0.5 0.5h-11c-0.27614 0-0.5-0.22386-0.5-0.5v-13c0-0.27614 0.22386-0.5 0.5-0.5h6c0.27614 0 0.5 0.22386 0.5 0.5v4.5zm-9 7h7c0.27614 0 0.5-0.22386 0.5-0.5s-0.22386-0.5-0.5-0.5h-7c-0.27614 0-0.5 0.22386-0.5 0.5s0.22386 0.5 0.5 0.5zm0-2h7c0.27614 0 0.5-0.22386 0.5-0.5s-0.22386-0.5-0.5-0.5h-7c-0.27614 0-0.5 0.22386-0.5 0.5s0.22386 0.5 0.5 0.5zm0-2h7c0.27614 0 0.5-0.22386 0.5-0.5s-0.22386-0.5-0.5-0.5h-7c-0.27614 0-0.5 0.22386-0.5 0.5s0.22386 0.5 0.5 0.5zm5.5-7.5c0-0.44545 0.53857-0.66854 0.85355-0.35355l3 3c0.31498 0.31498 0.091899 0.85355-0.35355 0.85355h-3c-0.27614 0-0.5-0.22386-0.5-0.5zm1 2.5h1.2929l-1.2929-1.2929z" fill="#303030"/>
</g>
</svg>
