<svg width="16" height="16" version="1.1" viewBox="0 0 16 16" xmlns="http://www.w3.org/2000/svg">
<title>inbox</title>
<g transform="translate(-4 -4)" fill="#303030">
<path d="m6 15v3h12c0.022 0 0.02 0.01 0.01 0.02-0.012-0.02-0.01-0.028-0.01-0.02v-3h-3.166c-0.41 1.167-1.52 2-2.83 2s-2.42-0.833-2.83-2zm-1-9s-0.031-0.938 1.004-1h3v1h-3v8h4c0 1.108 0.892 2 2 2s2-0.892 2-2h3.996v-8h-3v-1h3c1 0 1 1 1 1v12s0 1-1 1h-12c-1.031-0.063-1-1-1-1z"/>
<path d="m13.92 10h-0.92v-4h-2v4h-0.92l1.92 2.4zm-3.92-5h4v4h2l-4 5-4-5h2z"/>
</g>
</svg>
