<svg width="16" height="16" version="1.1" xmlns="http://www.w3.org/2000/svg">
<path class="warning" d="m13 8v5h2v-5zm0 6v2h2v-2z" fill="#4285f4"/>
<path d="m8 0.40039-0.4668 1.209-1.6523 4.2832-5.8809 0.30859 4.5703 3.7168-1.5098 5.6816 4.9395-3.1934 3.8379 2.4824v-3.4297l-0.41016-1.541 0.41016-0.33398v-1.4512c1.9e-5 -0.18993 0.14296-0.33396 0.33398-0.33398h1.6739c0.0016-1.27e-5 0.0042-1.33e-5 0.0059 0l0.1796 0.0019531 1.9688-1.5996-5.8828-0.30859zm0 2.7793 1.418 3.6777 2.3223 0.12109c-0.49909 0.19377-0.90229 0.59092-0.90234 1.1543v0.97656l-0.54297 0.44141 0.54297 2.0391v1.4609l-2.8379-1.8359-3.3066 2.1387 1.0098-3.8047-3.0566-2.4863 3.9336-0.20508z" color="#000000" color-rendering="auto" dominant-baseline="auto" fill="#303030" image-rendering="auto" shape-rendering="auto" solid-color="#000000" style="font-feature-settings:normal;font-variant-alternates:normal;font-variant-caps:normal;font-variant-ligatures:normal;font-variant-numeric:normal;font-variant-position:normal;isolation:auto;mix-blend-mode:normal;shape-padding:0;text-decoration-color:#000000;text-decoration-line:none;text-decoration-style:solid;text-indent:0;text-orientation:mixed;text-transform:none;white-space:normal"/>
</svg>
