<svg width="16px" height="16px" version="1.1" viewBox="0 0 16 16" xmlns="http://www.w3.org/2000/svg">
<title>user-home-symbolic</title>
<desc>Created with Sketch.</desc>
<g id="user-home-symbolic" fill="#303030">
<path id="Combined-Shape" d="m2.501 8c0.27614 0 0.5 0.22386 0.5 0.5v5.5h10v-5.5c0-0.27614 0.22386-0.5 0.5-0.5h0.73149l-6.2315-5.8161-6.2315 5.8161h0.73149zm-2 1c-0.45381 0-0.67292-0.55588-0.34116-0.86553l7.5-7c0.1921-0.1793 0.49021-0.1793 0.68232 0l7.5 7c0.33176 0.30964 0.11265 0.86553-0.34116 0.86553h-1.5v5.5c0 0.27614-0.22386 0.5-0.5 0.5h-11c-0.27614 0-0.5-0.22386-0.5-0.5v-5.5zm9.2548 0.11706-1.7548 1.5832-1.7551-1.5832c-0.32668-0.29473-0.32668-0.74869 3.46e-5 -1.0434 0.29574-0.26668 0.79446-0.26668 1.0902 4.11e-5l0.33001 0.29766c0.19028 0.17162 0.4795 0.17162 0.66977 0l0.33001-0.29766c0.29552-0.26668 0.79442-0.26668 1.0898-7.96e-5 0.32676 0.2948 0.32676 0.74876 4.27e-5 1.0435zm0.66986-1.786c-0.67434-0.60852-1.7483-0.61001-2.4247-0.00442-0.67664-0.60555-1.7502-0.6041-2.4249 0.00434-0.76699 0.69197-0.76699 1.8366-9.31e-5 2.5285l2.0901 1.8853c0.19029 0.17165 0.47955 0.17163 0.66983-2.8e-5l2.0897-1.8853c0.7669-0.69189 0.7669-1.8366 3e-6 -2.5285z" fill="#303030"/>
</g>
</svg>
