<svg xmlns="http://www.w3.org/2000/svg" xmlns:xlink="http://www.w3.org/1999/xlink" height="32" width="32">
    <defs>
        <linearGradient id="a">
            <stop offset="0" stop-color="#fce080"/>
            <stop offset="1" stop-color="#fee69d"/>
        </linearGradient>
        <linearGradient xlink:href="#a" id="b" gradientUnits="userSpaceOnUse" gradientTransform="matrix(1.3 0 0 1.3 73.6 6.6)" x1="-30" y1="35.868" x2="-30" y2="13"/>
    </defs>
    <path d="M16.8 9.62L16.667 6c-2-2.155-1.952-3-3.95-3H2.52C.92 3 .069 3.869.048 5.606L0 9.619" fill="#ecc359"/>
    <path d="M9.9 56C7.3 56 6 54.7 6 52.1V23.073l20.635.055c3.198.008 3.198-1.32 6.448-4.545H54.1c2.6 0 3.9.692 3.9 3.292V52.1c0 2.6-1.3 3.9-3.9 3.9z" fill="url(#b)" transform="matrix(.61538 0 0 .66815 -3.692 -6.416)"/>
    <path d="M.35 30c.377.666 1.06 1 2.05 1h27.2c.99 0 1.673-.334 2.05-1z" fill-opacity=".392"/>
            <g transform="translate(8 12)">
            <path d="M8 2C4.676 2 2 4.676 2 8s2.676 6 6 6 6-2.676 6-6-2.676-6-6-6zm0 1c2.992 0 5 2.008 5 5s-2.008 5-5 5-5-2.008-5-5 2.008-5 5-5zm1.5 2a1 1 0 0 0-1 1 1 1 0 0 0 1 1 1 1 0 0 0 1-1 1 1 0 0 0-1-1zm-2 1.5A.5.5 0 0 0 7 7a.5.5 0 0 0 .5.5A.5.5 0 0 0 8 7a.5.5 0 0 0-.5-.5zm-2 .5a1 1 0 0 0-1 1 1 1 0 0 0 1 1 1 1 0 0 0 1-1 1 1 0 0 0-1-1zm2 1.5A.5.5 0 0 0 7 9a.5.5 0 0 0 .5.5A.5.5 0 0 0 8 9a.5.5 0 0 0-.5-.5zm2 .5a1 1 0 0 0-1 1 1 1 0 0 0 1 1 1 1 0 0 0 1-1 1 1 0 0 0-1-1z" fill="#6f5f34" color="#6f5f34"/>

    </g>
</svg>
