<svg xmlns="http://www.w3.org/2000/svg" xmlns:xlink="http://www.w3.org/1999/xlink" height="32" width="32">
    <defs>
        <linearGradient id="a">
            <stop offset="0" stop-color="#fce080"/>
            <stop offset="1" stop-color="#fee69d"/>
        </linearGradient>
        <linearGradient xlink:href="#a" id="b" gradientUnits="userSpaceOnUse" gradientTransform="matrix(1.3 0 0 1.3 73.6 6.6)" x1="-30" y1="35.868" x2="-30" y2="13"/>
    </defs>
    <path d="M16.8 9.62L16.667 6c-2-2.155-1.952-3-3.95-3H2.52C.92 3 .069 3.869.048 5.606L0 9.619" fill="#ecc359"/>
    <path d="M9.9 56C7.3 56 6 54.7 6 52.1V23.073l20.635.055c3.198.008 3.198-1.32 6.448-4.545H54.1c2.6 0 3.9.692 3.9 3.292V52.1c0 2.6-1.3 3.9-3.9 3.9z" fill="url(#b)" transform="matrix(.61538 0 0 .66815 -3.692 -6.416)"/>
    <path d="M.35 30c.377.666 1.06 1 2.05 1h27.2c.99 0 1.673-.334 2.05-1z" fill-opacity=".392"/>
            <g transform="translate(8 12)">
            <g fill="#6f5f34" color="#6f5f34">
        <path d="M5 6v1H4v1h1v1h1V8h1V7H6V6zm5.5-.1a.6.6 0 0 0-.6.6.6.6 0 0 0 .6.6.6.6 0 0 0 .6-.6.6.6 0 0 0-.6-.6zm-1 1a.6.6 0 0 0-.6.6.6.6 0 0 0 .6.6.6.6 0 0 0 .6-.6.6.6 0 0 0-.6-.6zm2 0a.6.6 0 0 0-.6.6.6.6 0 0 0 .6.6.6.6 0 0 0 .6-.6.6.6 0 0 0-.6-.6zm-1 1a.6.6 0 0 0-.6.6.6.6 0 0 0 .6.6.6.6 0 0 0 .6-.6.6.6 0 0 0-.6-.6z"/>
        <path d="M4 4a2 4 0 0 0-2 4v2.5a1.5 1.5 0 0 0 2.56 1.06l.944-.943A1.5 1.5 0 0 0 6.5 11 1.5 1.5 0 0 0 8 9.5a1.5 1.5 0 0 0 2.498 1.12l.941.94A1.5 1.5 0 0 0 14 10.5V8a2 4 0 0 0-2-4zm0 1h8a1 3 0 0 1 1 3v2.5a.5.5 0 0 1-.854.354L10.293 9H10v.5a.5.5 0 0 1-1 0V9H7v.5a.5.5 0 0 1-1 0V9h-.293l-1.853 1.854A.5.5 0 0 1 3 10.5V8a1 3 0 0 1 1-3z"/>
    </g>

    </g>
</svg>
