<svg xmlns="http://www.w3.org/2000/svg" xmlns:xlink="http://www.w3.org/1999/xlink" height="32" width="32">
    <defs>
        <linearGradient id="a">
            <stop offset="0" stop-color="#fce080"/>
            <stop offset="1" stop-color="#fee69d"/>
        </linearGradient>
        <linearGradient xlink:href="#a" id="b" gradientUnits="userSpaceOnUse" gradientTransform="matrix(1.3 0 0 1.3 73.6 6.6)" x1="-30" y1="35.868" x2="-30" y2="13"/>
    </defs>
    <path d="M16.8 9.62L16.667 6c-2-2.155-1.952-3-3.95-3H2.52C.92 3 .069 3.869.048 5.606L0 9.619" fill="#ecc359"/>
    <path d="M9.9 56C7.3 56 6 54.7 6 52.1V23.073l20.635.055c3.198.008 3.198-1.32 6.448-4.545H54.1c2.6 0 3.9.692 3.9 3.292V52.1c0 2.6-1.3 3.9-3.9 3.9z" fill="url(#b)" transform="matrix(.61538 0 0 .66815 -3.692 -6.416)"/>
    <path d="M.35 30c.377.666 1.06 1 2.05 1h27.2c.99 0 1.673-.334 2.05-1z" fill-opacity=".392"/>
            <g transform="translate(8 12)">
            <path d="M7.5 2A4.5 4.5 0 0 0 3 6.5a4.5 4.5 0 0 0 .053.656A3 3 0 0 0 1 10a3 3 0 0 0 3 3h7.5A3.5 3.5 0 0 0 15 9.5a3.5 3.5 0 0 0-3.03-3.465A4.5 4.5 0 0 0 7.5 2zm0 1A3.5 3.5 0 0 1 11 6.5a3.5 3.5 0 0 1-.05.564A2.5 2.5 0 0 1 11.5 7 2.5 2.5 0 0 1 14 9.5a2.5 2.5 0 0 1-2.5 2.5H4a2 2 0 0 1-2-2 2 2 0 0 1 2-2 2 2 0 0 1 .357.033A3.5 3.5 0 0 1 4 6.5 3.5 3.5 0 0 1 7.5 3z" fill="#6f5f34" color="#6f5f34"/>

    </g>
</svg>
