<svg xmlns="http://www.w3.org/2000/svg" xmlns:xlink="http://www.w3.org/1999/xlink" height="32" width="32">
    <defs>
        <linearGradient id="a">
            <stop offset="0" stop-color="#fce080"/>
            <stop offset="1" stop-color="#fee69d"/>
        </linearGradient>
        <linearGradient xlink:href="#a" id="b" gradientUnits="userSpaceOnUse" gradientTransform="matrix(1.3 0 0 1.3 73.6 6.6)" x1="-30" y1="35.868" x2="-30" y2="13"/>
    </defs>
    <path d="M16.8 9.62L16.667 6c-2-2.155-1.952-3-3.95-3H2.52C.92 3 .069 3.869.048 5.606L0 9.619" fill="#ecc359"/>
    <path d="M9.9 56C7.3 56 6 54.7 6 52.1V23.073l20.635.055c3.198.008 3.198-1.32 6.448-4.545H54.1c2.6 0 3.9.692 3.9 3.292V52.1c0 2.6-1.3 3.9-3.9 3.9z" fill="url(#b)" transform="matrix(.61538 0 0 .66815 -3.692 -6.416)"/>
    <path d="M.35 30c.377.666 1.06 1 2.05 1h27.2c.99 0 1.673-.334 2.05-1z" fill-opacity=".392"/>
            <g transform="translate(8 12)">
            <path d="M6.5 2A2.495 2.495 0 0 0 4 4.5C4 5.885 5.115 7 6.5 7S9 5.885 9 4.5 7.885 2 6.5 2zm0 1C7.331 3 8 3.669 8 4.5S7.331 6 6.5 6 5 5.331 5 4.5 5.669 3 6.5 3zM12 4c-1.108 0-2 .892-2 2s.892 2 2 2 2-.892 2-2-.892-2-2-2zm0 1c.554 0 1 .446 1 1s-.446 1-1 1-1-.446-1-1 .446-1 1-1zM6.5 8A4.49 4.49 0 0 0 2 12.5V14h9v-1.5A4.49 4.49 0 0 0 6.5 8zm0 1c1.939 0 3.5 1.561 3.5 3.5v.5H3v-.5C3 10.561 4.561 9 6.5 9zM12 9c-.555 0-1.067.16-1.512.42.243.237.466.495.657.777A1.996 1.996 0 0 1 14 12h-2.1c.066.323.1.657.1 1h3v-1c0-1.662-1.338-3-3-3z" fill="#6f5f34" color="#6f5f34"/>

    </g>
</svg>
