<?xml version="1.0" encoding="UTF-8" standalone="no"?>
<!-- Created with Inkscape (http://www.inkscape.org/) -->
<svg
   xmlns:dc="http://purl.org/dc/elements/1.1/"
   xmlns:cc="http://creativecommons.org/ns#"
   xmlns:rdf="http://www.w3.org/1999/02/22-rdf-syntax-ns#"
   xmlns:svg="http://www.w3.org/2000/svg"
   xmlns="http://www.w3.org/2000/svg"
   xmlns:xlink="http://www.w3.org/1999/xlink"
   xmlns:sodipodi="http://sodipodi.sourceforge.net/DTD/sodipodi-0.dtd"
   xmlns:inkscape="http://www.inkscape.org/namespaces/inkscape"
   width="128"
   height="128"
   id="svg2"
   sodipodi:version="0.32"
   inkscape:version="0.46"
   version="1.0"
   sodipodi:docname="start-here.svg"
   inkscape:output_extension="org.inkscape.output.svg.inkscape">
  <defs
     id="defs4">
    <linearGradient
       inkscape:collect="always"
       xlink:href="#linearGradient5316"
       id="linearGradient26191"
       gradientUnits="userSpaceOnUse"
       gradientTransform="matrix(2.6666667,0,0,2.6666667,-1296.3868,-2504.5804)"
       x1="502.34912"
       y1="943.10809"
       x2="492.34177"
       y2="969.80133" />
    <linearGradient
       inkscape:collect="always"
       xlink:href="#linearGradient5316"
       id="linearGradient26188"
       gradientUnits="userSpaceOnUse"
       gradientTransform="matrix(2.6666667,0,0,2.6666667,-1296.3868,-2504.5804)"
       x1="522.07306"
       y1="971.2395"
       x2="522.06268"
       y2="954.44568" />
    <linearGradient
       inkscape:collect="always"
       xlink:href="#linearGradient5344"
       id="linearGradient26185"
       gradientUnits="userSpaceOnUse"
       gradientTransform="matrix(2.6666667,0,0,2.6666667,-1296.3868,-2504.5804)"
       x1="505.88623"
       y1="990.3045"
       x2="495.03214"
       y2="969.87225" />
    <linearGradient
       inkscape:collect="always"
       xlink:href="#linearGradient5362"
       id="linearGradient26182"
       gradientUnits="userSpaceOnUse"
       gradientTransform="matrix(2.6666667,0,0,2.6666667,-176.3868,23.419664)"
       x1="85.849136"
       y1="-12.996742"
       x2="74.278313"
       y2="4.5032578" />
    <linearGradient
       inkscape:collect="always"
       xlink:href="#linearGradient5316"
       id="linearGradient26176"
       gradientUnits="userSpaceOnUse"
       gradientTransform="matrix(2.6666667,0,0,2.6666667,-1296.3868,-2504.5804)"
       x1="516.61072"
       y1="964.90088"
       x2="516.61725"
       y2="976.01251" />
    <linearGradient
       inkscape:collect="always"
       xlink:href="#linearGradient5316"
       id="linearGradient26173"
       gradientUnits="userSpaceOnUse"
       gradientTransform="matrix(2.6666667,0,0,2.6666667,-1296.3868,-2504.5804)"
       x1="508.31351"
       y1="955.09186"
       x2="506.46252"
       y2="967.85718" />
    <linearGradient
       inkscape:collect="always"
       xlink:href="#linearGradient5362"
       id="linearGradient26170"
       gradientUnits="userSpaceOnUse"
       gradientTransform="matrix(2.6666667,0,0,2.6666667,-1296.3868,-2504.5804)"
       x1="507.58542"
       y1="951.43848"
       x2="509.52502"
       y2="960.31348" />
    <linearGradient
       inkscape:collect="always"
       xlink:href="#linearGradient5344"
       id="linearGradient26167"
       gradientUnits="userSpaceOnUse"
       gradientTransform="matrix(2.6666667,0,0,2.6666667,-1296.3868,-2504.5804)"
       x1="512.31091"
       y1="979.01343"
       x2="507.62781"
       y2="965.32593" />
    <linearGradient
       inkscape:collect="always"
       xlink:href="#linearGradient5362"
       id="linearGradient26163"
       gradientUnits="userSpaceOnUse"
       gradientTransform="matrix(2.6666667,0,0,2.6666667,-1296.3868,-2504.5804)"
       x1="508.69806"
       y1="981.13507"
       x2="525.37488"
       y2="964.38507" />
    <linearGradient
       inkscape:collect="always"
       xlink:href="#linearGradient5344"
       id="linearGradient26160"
       gradientUnits="userSpaceOnUse"
       gradientTransform="matrix(2.6666667,0,0,2.6666667,-1296.3868,-2504.5804)"
       x1="525.08405"
       y1="990.77148"
       x2="514.79333"
       y2="974.77148" />
    <linearGradient
       inkscape:collect="always"
       xlink:href="#linearGradient5344"
       id="linearGradient26156"
       gradientUnits="userSpaceOnUse"
       gradientTransform="matrix(2.6666667,0,0,2.6666667,-1296.3868,-2504.5804)"
       x1="512.04279"
       y1="932.46844"
       x2="518.17859"
       y2="959.40594" />
    <linearGradient
       inkscape:collect="always"
       xlink:href="#linearGradient5316"
       id="linearGradient26977"
       gradientUnits="userSpaceOnUse"
       gradientTransform="matrix(2.6666667,0,0,2.6666667,-1296.3868,-2504.5804)"
       x1="502.05005"
       y1="945.19952"
       x2="521.29358"
       y2="977.56915" />
    <linearGradient
       inkscape:collect="always"
       xlink:href="#linearGradient5344"
       id="linearGradient26981"
       gradientUnits="userSpaceOnUse"
       gradientTransform="matrix(2.6666667,0,0,2.6666667,-1296.3868,-2504.5804)"
       x1="570.55005"
       y1="1069.1996"
       x2="502.29358"
       y2="949.56915" />
    <linearGradient
       inkscape:collect="always"
       xlink:href="#linearGradient9863"
       id="linearGradient26974"
       gradientUnits="userSpaceOnUse"
       gradientTransform="matrix(2.6666667,0,0,2.6666667,-816.1237,24.133527)"
       x1="329.60443"
       y1="37.079216"
       x2="329.60443"
       y2="-8.3120422" />
    <linearGradient
       id="linearGradient12594">
      <stop
         id="stop12596"
         offset="0"
         style="stop-color:#e9b551;stop-opacity:1;" />
      <stop
         id="stop12598"
         offset="1"
         style="stop-color:#e9b551;stop-opacity:0;" />
    </linearGradient>
    <linearGradient
       id="linearGradient5316">
      <stop
         style="stop-color:#87c7ff;stop-opacity:1;"
         offset="0"
         id="stop5320" />
      <stop
         style="stop-color:#74aadb;stop-opacity:1;"
         offset="1"
         id="stop5322" />
    </linearGradient>
    <linearGradient
       id="linearGradient9863">
      <stop
         style="stop-color:#2f445a;stop-opacity:1;"
         offset="0"
         id="stop9865" />
      <stop
         style="stop-color:#415f7c;stop-opacity:1"
         offset="1"
         id="stop9867" />
    </linearGradient>
    <linearGradient
       id="linearGradient12336">
      <stop
         id="stop12338"
         offset="0"
         style="stop-color:#ff6e00;stop-opacity:1;" />
      <stop
         id="stop12340"
         offset="1"
         style="stop-color:#eb2600;stop-opacity:1;" />
    </linearGradient>
    <linearGradient
       id="linearGradient5362">
      <stop
         style="stop-color:#ffffff;stop-opacity:1;"
         offset="0"
         id="stop5364" />
      <stop
         style="stop-color:#ffffff;stop-opacity:0;"
         offset="1"
         id="stop5366" />
    </linearGradient>
    <linearGradient
       id="linearGradient5439">
      <stop
         style="stop-color:#ffffff;stop-opacity:1;"
         offset="0"
         id="stop5441" />
      <stop
         style="stop-color:#000000;stop-opacity:1;"
         offset="1"
         id="stop5443" />
    </linearGradient>
    <linearGradient
       inkscape:collect="always"
       xlink:href="#linearGradient5439"
       id="linearGradient13309"
       gradientUnits="userSpaceOnUse"
       x1="499.90704"
       y1="953.39532"
       x2="652.75177"
       y2="1116.9413"
       gradientTransform="matrix(2.6765239,0,0,2.6765239,-1298.6765,-2514.903)" />
    <linearGradient
       inkscape:collect="always"
       id="linearGradient5398">
      <stop
         style="stop-color:#87c6ff;stop-opacity:1;"
         offset="0"
         id="stop5400" />
      <stop
         style="stop-color:#87c6ff;stop-opacity:0"
         offset="1"
         id="stop5402" />
    </linearGradient>
    <linearGradient
       inkscape:collect="always"
       xlink:href="#linearGradient5398"
       id="linearGradient13322"
       gradientUnits="userSpaceOnUse"
       x1="500.87799"
       y1="948.11993"
       x2="500.87799"
       y2="953.17468"
       gradientTransform="matrix(2.6765239,0,0,2.6765239,-1298.6765,-2514.903)" />
    <linearGradient
       id="linearGradient5344">
      <stop
         style="stop-color:#000000;stop-opacity:1;"
         offset="0"
         id="stop5346" />
      <stop
         style="stop-color:#000000;stop-opacity:0;"
         offset="1"
         id="stop5348" />
    </linearGradient>
    <linearGradient
       inkscape:collect="always"
       xlink:href="#linearGradient5344"
       id="linearGradient13314"
       gradientUnits="userSpaceOnUse"
       x1="544.89001"
       y1="919.05762"
       x2="506.01498"
       y2="969.80762"
       gradientTransform="translate(-485.21014,-859.4386)" />
    <linearGradient
       id="linearGradient8702">
      <stop
         id="stop8704"
         offset="0"
         style="stop-color:#aac736;stop-opacity:1;" />
      <stop
         id="stop8706"
         offset="1"
         style="stop-color:#5d8b2c;stop-opacity:1;" />
    </linearGradient>
    <linearGradient
       inkscape:collect="always"
       xlink:href="#linearGradient8702"
       id="linearGradient13316"
       gradientUnits="userSpaceOnUse"
       gradientTransform="matrix(2.6765239,0,0,2.6765239,-1779.5422,-994.63744)"
       x1="700.13062"
       y1="378.86951"
       x2="707.80457"
       y2="395.74899" />
    <inkscape:perspective
       sodipodi:type="inkscape:persp3d"
       inkscape:vp_x="0 : 526.18109 : 1"
       inkscape:vp_y="0 : 1000 : 0"
       inkscape:vp_z="744.09448 : 526.18109 : 1"
       inkscape:persp3d-origin="372.04724 : 350.78739 : 1"
       id="perspective10" />
    <linearGradient
       inkscape:collect="always"
       xlink:href="#linearGradient5344"
       id="linearGradient11982"
       gradientUnits="userSpaceOnUse"
       gradientTransform="translate(58.38756,-239.79289)"
       x1="493.9072"
       y1="282.77054"
       x2="435.71548"
       y2="231.20738" />
    <linearGradient
       inkscape:collect="always"
       xlink:href="#linearGradient5316"
       id="linearGradient11987"
       gradientUnits="userSpaceOnUse"
       gradientTransform="matrix(0,-6.4509326,6.4649818,0,-726.43747,2464.539)"
       x1="380.45135"
       y1="123.74059"
       x2="373.96744"
       y2="128.94151" />
    <linearGradient
       inkscape:collect="always"
       xlink:href="#linearGradient9863"
       id="linearGradient11991"
       gradientUnits="userSpaceOnUse"
       gradientTransform="matrix(2.6724743,0,0,2.6666667,-1136.3076,-136.45573)"
       x1="448.61356"
       y1="98.163681"
       x2="448.61356"
       y2="51.040291" />
    <linearGradient
       inkscape:collect="always"
       xlink:href="#linearGradient5439"
       id="linearGradient11994"
       gradientUnits="userSpaceOnUse"
       gradientTransform="matrix(2.5929476,0,0,2.5467438,-1253.6197,-1603.2437)"
       x1="485.01462"
       y1="633.39752"
       x2="594.81787"
       y2="707.73212" />
    <linearGradient
       inkscape:collect="always"
       xlink:href="#linearGradient5439"
       id="linearGradient11997"
       gradientUnits="userSpaceOnUse"
       gradientTransform="matrix(2.7004997,0,0,2.6523792,-1308.1375,-1672.2418)"
       x1="511.00421"
       y1="661.83636"
       x2="484.41125"
       y2="630.4527" />
    <linearGradient
       inkscape:collect="always"
       xlink:href="#linearGradient5439"
       id="linearGradient12000"
       gradientUnits="userSpaceOnUse"
       gradientTransform="matrix(2.6724743,0,0,2.6666667,-1296.1836,-1683.3724)"
       x1="513.53632"
       y1="643.15497"
       x2="572.04932"
       y2="698.16571" />
    <linearGradient
       inkscape:collect="always"
       xlink:href="#linearGradient5439"
       id="linearGradient12003"
       gradientUnits="userSpaceOnUse"
       gradientTransform="matrix(2.4555546,0,0,2.4508294,-1182.6426,-1541.5864)"
       x1="482.04404"
       y1="629.51166"
       x2="600.66217"
       y2="711.91254" />
    <linearGradient
       inkscape:collect="always"
       xlink:href="#linearGradient5439"
       id="linearGradient12006"
       gradientUnits="userSpaceOnUse"
       gradientTransform="matrix(2.4316245,0,0,2.4263403,-1173.0757,-1524.0986)"
       x1="484.04169"
       y1="629.66498"
       x2="598.57666"
       y2="708.88654" />
    <linearGradient
       inkscape:collect="always"
       xlink:href="#linearGradient5439"
       id="linearGradient12009"
       gradientUnits="userSpaceOnUse"
       gradientTransform="matrix(2.6724743,0,0,2.6666667,-1296.656,-1683.1224)"
       x1="494.96805"
       y1="639.71228"
       x2="531.75"
       y2="670.73663" />
    <linearGradient
       inkscape:collect="always"
       xlink:href="#linearGradient5439"
       id="linearGradient12012"
       gradientUnits="userSpaceOnUse"
       gradientTransform="matrix(2.6724743,0,0,2.6666667,-1296.656,-1683.1224)"
       x1="495.35397"
       y1="640.05084"
       x2="531.08636"
       y2="670.77136" />
    <linearGradient
       inkscape:collect="always"
       xlink:href="#linearGradient5439"
       id="linearGradient12015"
       gradientUnits="userSpaceOnUse"
       gradientTransform="matrix(2.6724743,0,0,2.6666667,-1296.656,-1683.1224)"
       x1="485.65756"
       y1="629.86298"
       x2="594.2511"
       y2="706.58405" />
    <linearGradient
       inkscape:collect="always"
       xlink:href="#linearGradient5362"
       id="linearGradient12018"
       gradientUnits="userSpaceOnUse"
       gradientTransform="matrix(2.6724743,0,0,2.6666667,-1296.656,-1683.1224)"
       x1="491.02121"
       y1="633.16431"
       x2="485.68814"
       y2="640.88721" />
    <linearGradient
       inkscape:collect="always"
       xlink:href="#linearGradient5439"
       id="linearGradient12021"
       gradientUnits="userSpaceOnUse"
       gradientTransform="matrix(2.6724743,0,0,2.6666667,-1296.656,-1683.1224)"
       x1="490.27121"
       y1="632.72681"
       x2="449.2301"
       y2="708.07471" />
  </defs>
  <sodipodi:namedview
     id="base"
     pagecolor="#ffffff"
     bordercolor="#666666"
     borderopacity="1.0"
     inkscape:pageopacity="0.0"
     inkscape:pageshadow="2"
     inkscape:zoom="1.7692308"
     inkscape:cx="99.470496"
     inkscape:cy="43.806355"
     inkscape:document-units="px"
     inkscape:current-layer="layer1"
     showgrid="false"
     inkscape:showpageshadow="false"
     inkscape:window-width="1014"
     inkscape:window-height="715"
     inkscape:window-x="0"
     inkscape:window-y="6"
     showguides="true"
     inkscape:guide-bbox="true" />
  <metadata
     id="metadata7">
    <rdf:RDF>
      <cc:Work
         rdf:about="">
        <dc:format>image/svg+xml</dc:format>
        <dc:type
           rdf:resource="http://purl.org/dc/dcmitype/StillImage" />
      </cc:Work>
    </rdf:RDF>
  </metadata>
  <g
     inkscape:label="Capa 1"
     inkscape:groupmode="layer"
     id="layer1">
    <path
       sodipodi:nodetypes="ccscsccz"
       id="path7326"
       d="M 26.874073,59.126117 C 26.874073,88.757211 26.596583,92.512864 56.932973,125.49718 C 49.678583,124.00534 38.807513,121.09636 33.194823,119.68081 C 20.053193,116.36644 6.9159155,92.522837 6.9159155,64.414784 C 6.7929555,48.280872 12.160395,32.453837 20.700633,20.997128 C 27.934373,11.293104 39.565733,4.9602131 47.822373,3.7606241 C 52.662773,3.0653441 60.067233,2.5901441 69.022033,2.6575041 C 34.345013,21.297237 26.874073,29.821957 26.874073,59.126117 z"
       style="fill:url(#linearGradient26191);fill-opacity:1;stroke:none;stroke-width:0.46319342;stroke-linecap:round;stroke-linejoin:round;stroke-miterlimit:4;stroke-opacity:1;display:inline"
       inkscape:export-filename="/home/dafeba/DCV/tallerD/bocetos/08-09-22-hastaahora.png"
       inkscape:export-xdpi="57.964222"
       inkscape:export-ydpi="57.964222" />
    <path
       style="fill:url(#linearGradient26188);fill-opacity:1;fill-rule:evenodd;stroke:none;stroke-width:0.5;stroke-linecap:round;stroke-linejoin:round;stroke-miterlimit:4;stroke-dasharray:none;stroke-opacity:1;display:inline"
       d="M 87.076383,100.16734 C 97.371183,91.568757 104.16291,76.617424 104.61281,60.725691 C 104.81521,48.953478 99.329343,35.553611 91.622383,27.966997 C 83.825773,20.582651 74.373343,18.590197 66.227343,20.014064 C 78.382033,21.755131 93.924273,37.870624 93.748673,61.085531 C 93.862113,77.067691 85.730863,88.865691 74.141293,98.105931 L 87.076383,100.16734 z"
       id="path7328"
       sodipodi:nodetypes="ccccccc"
       inkscape:export-filename="/home/dafeba/DCV/tallerD/bocetos/08-09-22-hastaahora.png"
       inkscape:export-xdpi="57.964222"
       inkscape:export-ydpi="57.964222" />
    <path
       inkscape:export-ydpi="57.964222"
       inkscape:export-xdpi="57.964222"
       inkscape:export-filename="/home/dafeba/DCV/tallerD/bocetos/08-09-22-hastaahora.png"
       style="fill:url(#linearGradient26185);fill-opacity:1;stroke:none;stroke-width:0.46319342;stroke-linecap:round;stroke-linejoin:round;stroke-miterlimit:4;stroke-opacity:1;display:inline"
       d="M 27.586873,79.949317 C 29.356423,93.491077 35.514393,102.20908 56.932973,125.49718 C 49.678583,124.00534 38.807513,121.09636 33.194823,119.68081 C 22.611993,117.01177 12.031995,101.02972 8.3131425,80.228464 L 27.586873,79.949317 z"
       id="path7330"
       sodipodi:nodetypes="ccscc" />
    <path
       inkscape:export-ydpi="57.964222"
       inkscape:export-xdpi="57.964222"
       inkscape:export-filename="/home/dafeba/DCV/tallerD/bocetos/08-09-22-hastaahora.png"
       style="fill:url(#linearGradient26182);fill-opacity:1;stroke:none;stroke-width:0.46319342;stroke-linecap:round;stroke-linejoin:round;stroke-miterlimit:4;stroke-opacity:1;display:inline"
       d="M 11.210902,39.02688 C 13.566475,32.364235 16.803169,26.225579 20.700633,20.997128 C 27.934373,11.293104 39.565733,4.9602131 47.822373,3.7606241 C 52.662773,3.0653441 60.067233,2.5901441 69.022033,2.6575041 C 43.587113,16.329379 32.788903,24.559445 28.839753,39.538883 L 11.210902,39.02688 z"
       id="path26077"
       sodipodi:nodetypes="cscccc" />
    <path
       sodipodi:nodetypes="ccccc"
       id="path7336"
       d="M 87.073853,100.16932 L 74.170673,98.119691 L 79.476813,113.42121 L 93.062093,116.16774 L 87.073853,100.16932 z"
       style="fill:url(#linearGradient26176);fill-rule:evenodd;stroke:none;stroke-width:1px;stroke-linecap:butt;stroke-linejoin:miter;stroke-opacity:1;display:inline"
       inkscape:export-filename="/home/dafeba/DCV/tallerD/bocetos/08-09-22-hastaahora.png"
       inkscape:export-xdpi="57.964222"
       inkscape:export-ydpi="57.964222" />
    <path
       sodipodi:nodetypes="ccsccc"
       id="path7338"
       d="M 73.846653,42.431958 L 61.599153,42.478598 C 53.300863,42.280758 47.615913,53.514464 47.615913,63.614544 C 47.615913,72.738757 51.237913,83.063984 57.920593,83.897504 L 71.120673,85.645584 L 73.846653,42.431958 z"
       style="fill:url(#linearGradient26173);fill-opacity:1;fill-rule:evenodd;stroke:none;stroke-width:0.5;stroke-linecap:butt;stroke-linejoin:miter;stroke-miterlimit:4;stroke-dasharray:none;stroke-opacity:1;display:inline"
       inkscape:export-filename="/home/dafeba/DCV/tallerD/bocetos/08-09-22-hastaahora.png"
       inkscape:export-xdpi="57.964222"
       inkscape:export-ydpi="57.964222" />
    <path
       inkscape:export-ydpi="57.964222"
       inkscape:export-xdpi="57.964222"
       inkscape:export-filename="/home/dafeba/DCV/tallerD/bocetos/08-09-22-hastaahora.png"
       style="fill:url(#linearGradient26170);fill-opacity:1;fill-rule:evenodd;stroke:none;stroke-width:0.5;stroke-linecap:butt;stroke-linejoin:miter;stroke-miterlimit:4;stroke-dasharray:none;stroke-opacity:1;display:inline"
       d="M 73.846653,42.431958 L 61.599153,42.478598 C 54.827873,42.317158 49.796633,49.767211 48.174293,58.001984 L 72.712413,60.412731 L 73.846653,42.431958 z"
       id="path7340"
       sodipodi:nodetypes="ccccc" />
    <path
       inkscape:export-ydpi="57.964222"
       inkscape:export-xdpi="57.964222"
       inkscape:export-filename="/home/dafeba/DCV/tallerD/bocetos/08-09-22-hastaahora.png"
       style="fill:url(#linearGradient26167);fill-opacity:1;fill-rule:evenodd;stroke:none;stroke-width:0.5;stroke-linecap:butt;stroke-linejoin:miter;stroke-miterlimit:4;stroke-dasharray:none;stroke-opacity:1;display:inline"
       d="M 64.013313,67.931957 L 48.275653,70.461424 C 49.600663,77.276277 52.895193,83.270704 57.920593,83.897504 L 71.120673,85.645584 L 64.013313,67.931957 z"
       id="path7342"
       sodipodi:nodetypes="ccccc" />
    <path
       inkscape:export-ydpi="57.964222"
       inkscape:export-xdpi="57.964222"
       inkscape:export-filename="/home/dafeba/DCV/tallerD/bocetos/08-09-22-hastaahora.png"
       sodipodi:nodetypes="ccccc"
       id="path7346"
       d="M 87.076383,100.16734 C 97.371183,91.568757 104.16291,76.617424 104.61281,60.725691 L 93.748673,61.085531 C 93.862113,77.067691 85.730863,88.865691 74.141293,98.105931 L 87.076383,100.16734 z"
       style="fill:url(#linearGradient26163);fill-opacity:1;fill-rule:evenodd;stroke:none;stroke-width:0.5;stroke-linecap:round;stroke-linejoin:round;stroke-miterlimit:4;stroke-dasharray:none;stroke-opacity:1;display:inline" />
    <path
       style="fill:url(#linearGradient26160);fill-rule:evenodd;stroke:none;stroke-width:1px;stroke-linecap:butt;stroke-linejoin:miter;stroke-opacity:1;display:inline"
       d="M 87.073853,100.16932 L 74.170673,98.119691 L 79.476813,113.42126 L 93.062093,116.16766 L 87.073853,100.16932 z"
       id="path7348"
       sodipodi:nodetypes="ccccc"
       inkscape:export-filename="/home/dafeba/DCV/tallerD/bocetos/08-09-22-hastaahora.png"
       inkscape:export-xdpi="57.964222"
       inkscape:export-ydpi="57.964222" />
    <path
       inkscape:export-ydpi="57.964222"
       inkscape:export-xdpi="57.964222"
       inkscape:export-filename="/home/dafeba/DCV/tallerD/bocetos/08-09-22-hastaahora.png"
       sodipodi:nodetypes="ccccc"
       id="path7353"
       d="M 104.61281,60.725691 C 104.81521,48.953478 99.329343,35.553611 91.622383,27.966997 C 83.825773,20.582651 74.373343,18.590197 66.227343,20.014064 C 78.382033,21.755131 93.924273,37.870624 93.748673,61.085531 L 104.61281,60.725691 z"
       style="fill:url(#linearGradient26156);fill-opacity:1;fill-rule:evenodd;stroke:none;stroke-width:0.5;stroke-linecap:round;stroke-linejoin:round;stroke-miterlimit:4;stroke-dasharray:none;stroke-opacity:1;display:inline" />
    <path
       style="fill:url(#linearGradient26977);fill-opacity:1;stroke:none;stroke-width:0.5;stroke-linecap:round;stroke-linejoin:round;stroke-miterlimit:4;stroke-dasharray:none;stroke-opacity:1;display:inline"
       d="M 67.459633,2.6276031 C 40.432133,3.3697891 16.959622,25.449363 16.959622,64.544269 C 16.959649,97.785016 34.989703,122.40622 57.292973,125.54427 L 62.709633,106.1276 C 48.157913,102.72198 38.042953,87.166803 38.042953,63.627603 C 38.042953,34.173843 55.098433,18.082429 74.126303,19.794269 C 84.856303,20.759603 93.406863,27.619523 98.542973,38.04427 C 101.69113,44.433976 103.70961,52.108883 103.70963,60.710936 C 103.70963,77.149523 96.844383,91.997496 87.042973,100.1276 L 93.042973,116.21094 C 108.18865,104.51749 118.70966,83.455043 118.70963,60.294269 C 118.70961,28.245816 99.632543,4.9154161 72.959633,2.7109361 C 71.126813,2.5594691 69.261473,2.5781361 67.459633,2.6276031 z M 74.042973,42.460936 C 65.141023,42.323816 57.209633,49.882723 57.209633,64.544269 C 57.209633,79.206269 64.421583,86.861763 74.792973,85.544269 C 82.963613,84.506296 88.542973,74.104403 88.542973,62.710936 C 88.542973,51.443123 82.661423,42.591096 74.042973,42.460936 z"
       id="path7334" />
    <path
       id="path26979"
       d="M 67.459633,2.6276031 C 40.432133,3.3697891 16.959622,25.449363 16.959622,64.544269 C 16.959649,97.785016 34.989703,122.40622 57.292973,125.54427 L 62.709633,106.1276 C 48.157913,102.72198 38.042953,87.166803 38.042953,63.627603 C 38.042953,34.173843 55.098433,18.082429 74.126303,19.794269 C 84.856303,20.759603 93.406863,27.619523 98.542973,38.04427 C 101.69113,44.433976 103.70961,52.108883 103.70963,60.710936 C 103.70963,77.149523 96.844383,91.997496 87.042973,100.1276 L 93.042973,116.21094 C 108.18865,104.51749 118.70966,83.455043 118.70963,60.294269 C 118.70961,28.245816 99.632543,4.9154161 72.959633,2.7109361 C 71.126813,2.5594691 69.261473,2.5781361 67.459633,2.6276031 z M 74.042973,42.460936 C 65.141023,42.323816 57.209633,49.882723 57.209633,64.544269 C 57.209633,79.206269 64.421583,86.861763 74.792973,85.544269 C 82.963613,84.506296 88.542973,74.104403 88.542973,62.710936 C 88.542973,51.443123 82.661423,42.591096 74.042973,42.460936 z"
       style="fill:url(#linearGradient26981);fill-opacity:1;stroke:none;stroke-width:0.5;stroke-linecap:round;stroke-linejoin:round;stroke-miterlimit:4;stroke-dasharray:none;stroke-opacity:1;display:inline" />
    <path
       sodipodi:nodetypes="cscscsccscccccccsccccscccsssc"
       id="path7351"
       d="M 49.279863,3.5029971 C 39.784873,4.6148001 28.050423,11.374744 20.892343,20.51076 C 11.872155,32.023432 6.9136755,49.04039 6.9465295,64.419664 C 6.9465295,92.527717 20.054903,116.35537 33.196533,119.66966 C 37.756853,120.8198 45.703913,122.94225 52.446533,124.503 C 53.938173,124.93484 55.409103,125.27102 56.946543,125.503 C 57.061133,125.52028 57.165053,125.57017 57.279873,125.58633 L 62.696543,106.16966 C 48.144823,102.76398 38.029863,87.125531 38.029863,63.586331 C 38.029863,38.082198 51.243593,21.741317 66.281983,20.166091 C 71.099933,20.329077 73.798973,22.900704 76.961423,24.779424 C 85.504113,30.889157 93.909553,43.942384 93.779873,61.086331 C 93.893213,77.045531 85.759533,88.852037 74.196543,98.086331 L 74.196543,98.169664 L 79.446543,113.41966 L 93.029873,116.16966 C 108.17555,104.47622 118.69657,83.497104 118.69654,60.336331 C 118.69651,28.287851 99.619453,4.9574771 72.946543,2.7529971 C 66.591553,2.2402991 57.140143,2.7095521 49.279863,3.5029971 z M 73.863213,42.419664 L 61.613213,42.502998 C 53.314943,42.305184 47.613193,53.486251 47.613193,63.586331 C 47.613223,72.710597 51.263863,83.086144 57.946543,83.919664 L 71.113213,85.669664 L 71.113213,85.586331 C 72.276753,85.689504 73.512863,85.663957 74.779873,85.502997 C 82.950513,84.465024 88.529793,74.063184 88.529873,62.669664 C 88.529873,51.401851 82.648333,42.549798 74.029873,42.419664 C 73.974383,42.418811 73.918623,42.419931 73.863213,42.419664 z"
       style="fill:none;fill-opacity:1;stroke:url(#linearGradient26974);stroke-width:2.66666675;stroke-linecap:round;stroke-linejoin:round;stroke-miterlimit:4;stroke-dasharray:none;stroke-opacity:1;display:inline"
       inkscape:export-filename="/home/dafeba/DCV/tallerD/bocetos/08-09-22-hastaahora.png"
       inkscape:export-xdpi="57.964222"
       inkscape:export-ydpi="57.964222" />
  </g>
</svg>
