<svg width="32" height="32" version="1.1" viewBox="0 0 32 32" xmlns="http://www.w3.org/2000/svg" xmlns:xlink="http://www.w3.org/1999/xlink">
<defs>
<linearGradient id="deepin-launcher-c" x1="50%" x2="50%" y1="4.64%" y2="97.178%">
<stop stop-color="#00ABFF" offset="0"/>
<stop stop-color="#0163FA" offset="1"/>
</linearGradient>
<path id="deepin-launcher-b" d="m2 16c0-7.732 6.268-14 14-14s14 6.268 14 14-6.268 14-14 14-14-6.268-14-14z"/>
<filter id="deepin-launcher-a" x="-7.1%" y="-3.6%" width="114.3%" height="114.3%">
<feOffset dy="1" in="SourceAlpha" result="shadowOffsetOuter1"/>
<feGaussianBlur in="shadowOffsetOuter1" result="shadowBlurOuter1" stdDeviation=".5"/>
<feColorMatrix in="shadowBlurOuter1" values="0 0 0 0 0   0 0 0 0 0   0 0 0 0 0  0 0 0 0.2 0"/>
</filter>
</defs>
<g fill-rule="evenodd">
<use filter="url(#deepin-launcher-a)" xlink:href="#deepin-launcher-b"/>
<use fill="url(#deepin-launcher-c)" xlink:href="#deepin-launcher-b"/>
<path d="m21.645 5.575c-1.6783-0.91072-3.6012-1.428-5.6448-1.428-0.49165 0-0.97632 0.029937-1.4523 0.088087-1.7636 2.4297-2.6778 6.3935-2.6051 8.8189 0 0-0.11592 3.5941 2.3422 4.8689 0 0 2.2091 0.9708 3.7146-2.1683 0 0 1.0347-1.7715 0.61353-5.7753 0 0 0.40294 0.071109 0.4485 0.135 0.045559 0.06338 0.88992 3.0824 0.29664 5.6248 0 0-0.5462 2.9876-3.2316 3.6709-2.6844 0.68327-4.7766-0.96977-6.197-2.527-1.0578-1.1596-2.6283-4.2738-3.4017-8.0093-1.4946 1.9835-2.3807 4.4515-2.3807 7.1264 0 1.8471 0.4225 3.5954 1.1761 5.1538 2.6167 0.77305 9.266 2.2792 13.496-0.82094 2.8001-2.0525 2.4393-5.3395 2.4393-5.3395-0.046357-2.5003-1.5686-4.9838-1.5686-4.9838 5.9191 5.3547 2.4206 11.304 2.4206 11.304-1.6287 3.3267-4.9768 5.4543-7.9057 6.4045 0.58541 0.088937 1.1849 0.13505 1.7951 0.13505 6.5462 0 11.853-5.3066 11.853-11.853 0-2.7688-0.94935-5.3158-2.5403-7.3334-0.57925 0.03992-1.2522 0.063296-1.9504 0.040381 0 0-3.1492 0.14706-4.915 1.0278 0 0-1.3168 0.58719-2.6331 1.5828 0 0-0.27936 0.13966-0.26585 0.65278 0.011888 0.51154-0.26801 1.8753-1.2007 2.6746 0 0-0.66571 0.34226-0.33286 0.83211 0 0 0.44957 0.65278 1.0829-0.032798 0 0 1.6329-1.6801 1.7329-4.3875 0 0 0.51658-0.44118 1.3325-0.57132 0 0 0.15022 4.0616-1.8653 6.1009 0 0-1.9172 2.088-2.5332-1.0114 0 0-0.75001-2.9529 3.1162-6.4596 0 0 2.6061-2.6027 4.138-3.8215 0.2117 0.088239 0.42047 0.18194 0.62612 0.28091zm-5.6448 23.425c-7.1797 0-13-5.8202-13-13 0-7.1797 5.8204-13 13-13s13 5.8206 13 13c0 7.1796-5.8203 13-13 13z" fill="#F0F9FF" fill-rule="nonzero"/>
</g>
</svg>
