<svg width="32" height="32" version="1.1" viewBox="0 0 32 32" xmlns="http://www.w3.org/2000/svg" xmlns:xlink="http://www.w3.org/1999/xlink">
<defs>
<filter id="folder-applications-stack-a" x="-15.4%" y="-17.4%" width="130.8%" height="134.8%">
<feOffset dy="1" in="SourceAlpha" result="shadowOffsetOuter1"/>
<feGaussianBlur in="shadowOffsetOuter1" result="shadowBlurOuter1" stdDeviation=".5"/>
<feColorMatrix in="shadowBlurOuter1" result="shadowMatrixOuter1" values="0 0 0 0 0   0 0 0 0 0   0 0 0 0 0  0 0 0 0.5 0"/>
<feMerge>
<feMergeNode in="shadowMatrixOuter1"/>
<feMergeNode in="SourceGraphic"/>
</feMerge>
</filter>
<linearGradient id="folder-applications-stack-c" x1="50%" x2="50%" y2="97.162%">
<stop stop-color="#582BFF" offset="0"/>
<stop stop-color="#7D5FFF" offset="1"/>
</linearGradient>
<path id="folder-applications-stack-b" d="m0.49617 23c-0.27403 0-0.49617-0.22461-0.49617-0.49438l-2.119e-11 -19.011c-3.0434e-13 -0.27304 0.22477-0.49438 0.49617-0.49438h25.008c0.27403 0 0.49617 0.22461 0.49617 0.49438v19.011c0 0.27304-0.22477 0.49438-0.49617 0.49438h-25.008z"/>
<linearGradient id="folder-applications-stack-e" x1="66.942%" x2="46.177%" y1="57.656%" y2="39.831%">
<stop stop-color="#5700FC" offset="0"/>
<stop stop-color="#5867FF" stop-opacity="0" offset="1"/>
</linearGradient>
<linearGradient id="folder-applications-stack-f" x1="67.014%" x2="36.001%" y1="77.19%" y2="4.533%">
<stop stop-color="#D1C0FF" offset="0"/>
<stop stop-color="#8375FF" offset="1"/>
</linearGradient>
<linearGradient id="folder-applications-stack-g" x1="50%" x2="50%" y2="392.79%">
<stop stop-color="#FFF" stop-opacity=".8" offset="0"/>
<stop stop-color="#882AFF" stop-opacity=".117" offset="1"/>
</linearGradient>
<linearGradient id="folder-applications-stack-h" x1="50%" x2="50%" y1="-22.147%" y2="100%">
<stop stop-color="#CAA2FF" stop-opacity=".3" offset="0"/>
<stop stop-color="#6249F0" offset="1"/>
</linearGradient>
<linearGradient id="folder-applications-stack-i" x1="31.685%" x2="67.014%" y1="55.584%" y2="40.499%">
<stop stop-color="#B9B7FF" offset="0"/>
<stop stop-color="#8174FF" offset="1"/>
</linearGradient>
<linearGradient id="folder-applications-stack-j" x1="50%" x2="50%" y1="-22.147%" y2="100%">
<stop stop-color="#B6A2FF" offset="0"/>
<stop stop-color="#6249F0" offset="1"/>
</linearGradient>
</defs>
<g transform="translate(3 6)" fill="none" fill-rule="evenodd" filter="url(#folder-applications-stack-a)">
<path d="m16.09 0.27325c0.22637-0.15091 0.62625-0.27325 0.90198-0.27325h6.5158c0.27178 0 0.4921 0.21768 0.4921 0.50069v21.493h-22v-20.495c0-0.27517 0.22564-0.49824 0.49374-0.49824h12.013c0.27269 0 0.67767-0.12262 0.90362-0.27325l0.68024-0.45349z" fill="#4A00D5"/>
<path d="m1.5013 22c-0.27685 0-0.50127-0.22461-0.50127-0.49438l1e-8 -19.011c0-0.27304 0.22227-0.49438 0.50127-0.49438h22.997c0.27685 0 0.50127 0.22461 0.50127 0.49438v19.011c0 0.27304-0.22227 0.49438-0.50127 0.49438h-22.997z" fill="#D7D7D7"/>
<mask id="folder-applications-stack-d" fill="#fff">
<use xlink:href="#folder-applications-stack-b"/>
</mask>
<use fill="url(#folder-applications-stack-c)" xlink:href="#folder-applications-stack-b"/>
<g mask="url(#folder-applications-stack-d)">
<g transform="translate(-2 -3)">
<polygon points="0 20.08 15.13 26 23 22.92 7.87 17" fill="url(#folder-applications-stack-e)"/>
<polygon transform="matrix(-1 0 0 1 37 0)" points="7 20.08 22.13 26 30 22.92 14.87 17" fill="url(#folder-applications-stack-e)"/>
<g transform="translate(5 9)">
<polygon points="3 3 10 6 10 15 3 12" fill="url(#folder-applications-stack-f)"/>
<polygon points="3 3 10 6 17 3 10 0" fill="url(#folder-applications-stack-g)"/>
<polygon points="10 6 17 3 10 0" fill="url(#folder-applications-stack-h)"/>
<polygon points="17 3 17 12 10 15 10 6" fill="url(#folder-applications-stack-i)"/>
<polygon points="3 3 10 6 7.5 9.062 0.5 6.062" fill="url(#folder-applications-stack-j)"/>
<polygon points="17 3 19.614 6.062 12.614 9.062 10 6" fill="url(#folder-applications-stack-j)"/>
</g>
<g transform="translate(1)">
<ellipse cx="17.19" cy="8.167" rx="1" ry="1" fill="#FFD506"/>
<ellipse cx="9.188" cy="7.292" rx="1" ry="1" fill="#FF00FE"/>
<ellipse cx="1.186" cy="6.417" rx="1" ry="1" fill="#4000E0"/>
<polygon transform="rotate(23 12.633 4.265)" points="12.045 3.684 13.227 3.677 13.221 4.846 12.038 4.853" fill="#4000E0"/>
<polygon transform="rotate(23 24.505 10.3)" points="24.211 10.008 24.802 10.005 24.799 10.59 24.207 10.593" fill="#EB5959"/>
<polygon transform="rotate(45 14.646 11.496)" points="14.354 11.204 14.942 11.199 14.937 11.787 14.349 11.792" fill="#4000E0"/>
<polygon transform="rotate(45 14.053 13.246)" points="13.761 12.954 14.349 12.949 14.344 13.537 13.756 13.542" fill="#FFD506"/>
<ellipse cx="14.523" cy="9.625" rx="1" ry="1" fill="#FFF"/>
<ellipse cx="12.152" cy="11.958" rx="1" ry="1" fill="#FFF"/>
<polygon transform="rotate(45 14.646 6.83)" points="14.354 6.537 14.942 6.533 14.937 7.121 14.349 7.126" fill="#8A0991"/>
<polygon transform="rotate(72 12.913 10.562)" points="12.33 10.268 13.499 10.263 13.496 10.855 12.328 10.86" fill="#FFF" opacity=".6"/>
<polygon transform="rotate(45 6.94 7.412)" points="6.648 7.121 7.236 7.116 7.231 7.704 6.643 7.709" fill="#4000E0"/>
<polygon transform="rotate(45 11.089 7.996)" points="10.797 7.704 11.385 7.699 11.381 8.287 10.793 8.292" fill="#9757FF"/>
<polygon transform="rotate(45 6.94 6.246)" points="6.648 5.954 7.236 5.949 7.231 6.537 6.643 6.542" fill="#FFD506"/>
<polygon transform="rotate(45 19.98 8.167)" points="19.397 7.583 20.573 7.574 20.564 8.75 19.388 8.759" fill="#7DAC00" opacity=".9"/>
<polygon transform="rotate(45 19.388 6.83)" points="19.096 6.537 19.684 6.533 19.679 7.121 19.091 7.126" fill="#8A0991"/>
<polygon transform="rotate(45 18.484 11.119)" points="18.194 10.533 18.782 10.528 18.773 11.704 18.185 11.709" fill="#00C894"/>
<polygon transform="rotate(45 16.25 10.742)" points="15.667 10.158 16.843 10.149 16.834 11.325 15.657 11.334" fill="#9757FF"/>
<polygon transform="rotate(45 18.448 4.154)" points="17.573 3.279 19.337 3.265 19.323 5.029 17.559 5.043" fill="#00C894"/>
<polygon transform="rotate(24 24.482 2.509)" points="23.012 1.055 25.969 1.038 25.951 3.962 22.995 3.98" fill="#396EFF"/>
<polygon transform="rotate(-51 3.217 3.045)" points="1.442 1.264 4.965 1.291 4.992 4.826 1.47 4.798" fill="#88A1FF"/>
<polygon transform="rotate(45 1.257 8.82)" points="0.382 7.946 2.147 7.932 2.132 9.696 0.368 9.71" fill="#FF8100" fill-opacity=".8"/>
<polygon transform="rotate(23 6.722 13.216)" points="6.428 12.925 7.019 12.922 7.016 13.506 6.424 13.51" fill="#7DAC00" opacity=".5"/>
<polygon transform="rotate(45 6.976 10.535)" points="6.39 10.246 7.566 10.237 7.561 10.825 6.385 10.834" fill="#FF00FE"/>
<polygon points="4.742 9.042 4.394 9.222 4.46 8.84 4.178 8.57 4.568 8.514 4.742 8.167 4.916 8.514 5.306 8.57 5.024 8.84 5.091 9.222" fill="#FE002E"/>
<polygon transform="rotate(-37 10.873 3.69)" points="10.877 4.039 10.532 4.217 10.595 3.834 10.313 3.56 10.7 3.507 10.87 3.159 11.046 3.509 11.434 3.568 11.156 3.838 11.225 4.223" fill="#FE002E"/>
<g fill="#FE9D0B">
<polygon transform="rotate(-37 12.059 8.94)" points="12.062 9.289 11.717 9.467 11.781 9.084 11.498 8.81 11.885 8.757 12.056 8.409 12.231 8.759 12.619 8.818 12.341 9.088 12.41 9.473"/>
<polygon transform="rotate(-37 16.606 2.56)" points="16.612 3.082 16.094 3.35 16.189 2.775 15.765 2.364 16.346 2.284 16.601 1.762 16.865 2.288 17.447 2.377 17.03 2.781 17.133 3.358"/>
<polygon transform="rotate(-37 13.084 13.103)" points="13.085 13.277 12.913 13.366 12.944 13.175 12.803 13.037 12.997 13.011 13.082 12.837 13.17 13.012 13.364 13.042 13.225 13.177 13.259 13.369"/>
</g>
<polygon transform="rotate(45 22.98 6.865)" points="22.399 5.987 23.575 5.978 23.561 7.742 22.385 7.751" fill="#88A1FF" opacity=".8"/>
<polygon transform="rotate(-18 7.64 3.839)" points="6.749 2.958 8.524 2.967 8.533 4.719 6.757 4.711" fill="#00C894"/>
<polygon transform="rotate(7 9.638 8.902)" points="9.047 8.319 10.232 8.317 10.23 9.484 9.045 9.486" fill="#EB5959"/>
</g>
</g>
</g>
</g>
</svg>
