<svg width="32" height="32" version="1.1" viewBox="0 0 32 32" xmlns="http://www.w3.org/2000/svg">
<g fill="none" fill-rule="evenodd">
<path transform="translate(3 6)" d="m0.5 3.5v19h25v-19h-1v-1.0056c0 0.0062838-6.748e-4 0.0056152-0.0012742 0.0056152h-0.99873v-1.9993c0-2.5012e-4 9.8e-6 -4.7911e-4 2.88e-5 -6.8837e-4h-6.5079c-0.17547 0-0.4791 0.092264-0.62463 0.18928l-0.68024 0.45349c-0.30827 0.20551-0.80979 0.35723-1.181 0.35723h-12.006v1h-0.99873c-5.7032e-4 0-9.8255e-4 -5.967e-5 -0.0012741-1.7661e-4v1.0002h-1z" fill="#000" fill-opacity=".5" stroke="#FFF" stroke-opacity=".4"/>
<g transform="translate(10 12)">
<circle cx="6" cy="6" r="6.75" fill="#000" fill-opacity=".4" stroke="#FFF" stroke-opacity=".5" stroke-width="1.5"/>
<path transform="rotate(-45 6.243 5.243)" d="m4.7426 2.2426v4.5h4.5v1.5h-6v-6h1.5z" fill="#FFF"/>
</g>
</g>
</svg>
