<?xml version="1.0" encoding="UTF-8" standalone="no"?>
<svg
   xmlns:dc="http://purl.org/dc/elements/1.1/"
   xmlns:cc="http://creativecommons.org/ns#"
   xmlns:rdf="http://www.w3.org/1999/02/22-rdf-syntax-ns#"
   xmlns:svg="http://www.w3.org/2000/svg"
   xmlns="http://www.w3.org/2000/svg"
   xmlns:xlink="http://www.w3.org/1999/xlink"
   xmlns:sodipodi="http://sodipodi.sourceforge.net/DTD/sodipodi-0.dtd"
   xmlns:inkscape="http://www.inkscape.org/namespaces/inkscape"
   viewBox="0 0 64 64"
   version="1.1"
   id="svg19"
   sodipodi:docname="libreoffice-draw.svg"
   width="64"
   height="64"
   inkscape:version="0.92.4 5da689c313, 2019-01-14">
  <metadata
     id="metadata25">
    <rdf:RDF>
      <cc:Work
         rdf:about="">
        <dc:format>image/svg+xml</dc:format>
        <dc:type
           rdf:resource="http://purl.org/dc/dcmitype/StillImage" />
        <dc:title />
      </cc:Work>
    </rdf:RDF>
  </metadata>
  <defs
     id="defs23">
    <linearGradient
       inkscape:collect="always"
       id="linearGradient898">
      <stop
         style="stop-color:#ea8200;stop-opacity:1"
         offset="0"
         id="stop894" />
      <stop
         style="stop-color:#ea8200;stop-opacity:1"
         offset="1"
         id="stop896" />
    </linearGradient>
    <linearGradient
       inkscape:collect="always"
       xlink:href="#linearGradient898"
       id="linearGradient900"
       x1="7.4785533"
       y1="34"
       x2="30"
       y2="34"
       gradientUnits="userSpaceOnUse"
       gradientTransform="translate(-0.99999993)" />
    <filter
       inkscape:collect="always"
       style="color-interpolation-filters:sRGB"
       id="filter924"
       x="-0.06"
       width="1.12"
       y="-0.06"
       height="1.12">
      <feGaussianBlur
         inkscape:collect="always"
         stdDeviation="0.75"
         id="feGaussianBlur926" />
    </filter>
    <filter
       inkscape:collect="always"
       style="color-interpolation-filters:sRGB"
       id="filter1017"
       x="-0.067142857"
       width="1.1342857"
       y="-0.054230769"
       height="1.1084615">
      <feGaussianBlur
         inkscape:collect="always"
         stdDeviation="1.175"
         id="feGaussianBlur1019" />
    </filter>
  </defs>
  <sodipodi:namedview
     pagecolor="#ffffff"
     bordercolor="#666666"
     borderopacity="1"
     objecttolerance="10"
     gridtolerance="10"
     guidetolerance="10"
     inkscape:pageopacity="0"
     inkscape:pageshadow="2"
     inkscape:window-width="1366"
     inkscape:window-height="704"
     id="namedview21"
     showgrid="true"
     inkscape:zoom="2.4583334"
     inkscape:cx="36.131287"
     inkscape:cy="1.0878182"
     inkscape:window-x="0"
     inkscape:window-y="27"
     inkscape:window-maximized="1"
     inkscape:current-layer="svg19">
    <inkscape:grid
       type="xygrid"
       id="grid845" />
  </sodipodi:namedview>
  <linearGradient
     id="a"
     gradientUnits="userSpaceOnUse"
     x1="5.8920002"
     x2="42.153"
     y1="25.525999"
     y2="25.525999">
    <stop
       offset="0"
       stop-color="#ff6200"
       id="stop2" />
    <stop
       offset="1"
       stop-color="#ff00ca"
       id="stop4" />
  </linearGradient>
  <path
     style="opacity:0.25;fill:#000000;fill-opacity:1;stroke:none;stroke-width:5.37401152;stroke-linecap:round;stroke-linejoin:round;stroke-miterlimit:4;stroke-dasharray:none;stroke-opacity:1;filter:url(#filter1017)"
     d="M 17.285156 6 C 16.018871 6 15 7.338 15 9 L 15 19 L 17.285156 19 L 27.285156 19 C 26.018871 19 25 20.338 25 22 L 25 32 L 24.986328 32 L 24.986328 42 C 24.986328 43.662 26.005199 45 27.271484 45 L 17.285156 45 L 15 45 L 15 55 C 15 56.662 16.018869 58 17.285156 58 L 44.714844 58 C 45.981131 58 47 56.662 47 55 L 47 45 L 54.699219 45 C 55.965504 45 56.986328 43.662 56.986328 42 L 56.986328 32 L 57 32 L 57 22 C 57 20.338 55.981129 19 54.714844 19 L 47 19 L 47 9 C 47 7.338 45.981129 6 44.714844 6 L 17.285156 6 z "
     id="path972" />
  <path
     sodipodi:nodetypes="sssccccss"
     inkscape:connector-curvature="0"
     id="path968"
     d="M 27.285714,19 H 54.714286 C 55.980571,19 57,20.338 57,22 V 32 H 54.714286 27.285714 25 V 22 c 0,-1.662 1.019429,-3 2.285714,-3 z"
     style="opacity:1;fill:#ffbc69;fill-opacity:1;stroke:none;stroke-width:5.37401152;stroke-linecap:round;stroke-linejoin:round;stroke-miterlimit:4;stroke-dasharray:none;stroke-opacity:1" />
  <path
     style="opacity:1;fill:#ea8200;fill-opacity:1;stroke:none;stroke-width:5.37401152;stroke-linecap:round;stroke-linejoin:round;stroke-miterlimit:4;stroke-dasharray:none;stroke-opacity:1"
     d="M 17.285715,45 H 44.714285 47 v 10 c 0,1.662 -1.019428,3 -2.285715,3 H 17.285715 C 16.019428,58 15,56.662 15,55 V 45 Z"
     id="rect852"
     inkscape:connector-curvature="0"
     sodipodi:nodetypes="cccsssscc" />
  <path
     style="opacity:1;fill:#ffd7a5;fill-opacity:1;stroke:none;stroke-width:5.37401152;stroke-linecap:round;stroke-linejoin:round;stroke-miterlimit:4;stroke-dasharray:none;stroke-opacity:1"
     d="M 17.285714,6 H 44.714286 C 45.980571,6 47,7.338 47,9 V 19 H 44.714286 17.285714 15 V 9 c 0,-1.662 1.019429,-3 2.285714,-3 z"
     id="rect835"
     inkscape:connector-curvature="0"
     sodipodi:nodetypes="sssccccss" />
  <path
     style="opacity:1;fill:#ffa32d;fill-opacity:1;stroke:none;stroke-width:5.37401152;stroke-linecap:round;stroke-linejoin:round;stroke-miterlimit:4;stroke-dasharray:none;stroke-opacity:1"
     d="M 54.7,45 H 27.271428 c -1.266285,0 -2.285714,-1.338 -2.285714,-3 V 32 H 27.271428 54.7 56.985714 v 10 c 0,1.662 -1.019429,3 -2.285714,3 z"
     id="path970"
     inkscape:connector-curvature="0"
     sodipodi:nodetypes="sssccccss" />
  <rect
     rx="6"
     ry="6"
     y="18"
     x="5"
     height="30"
     width="30"
     id="rect902"
     style="opacity:0.25;fill:#000000;fill-opacity:1;stroke:none;stroke-width:5.70000029;stroke-linecap:round;stroke-linejoin:round;stroke-miterlimit:4;stroke-dasharray:none;stroke-opacity:1;filter:url(#filter924)"
     transform="matrix(1.0333333,0,0,1.0333333,-1.1666666,-0.6)" />
  <rect
     style="opacity:1;fill:url(#linearGradient900);fill-opacity:1;stroke:none;stroke-width:5.70000029;stroke-linecap:round;stroke-linejoin:round;stroke-miterlimit:4;stroke-dasharray:none;stroke-opacity:1"
     id="rect847"
     width="30"
     height="30"
     x="4"
     y="18"
     ry="6"
     rx="6" />
  <text
     xml:space="preserve"
     style="font-style:normal;font-weight:normal;font-size:21.37147331px;line-height:1.25;font-family:sans-serif;letter-spacing:0px;word-spacing:0px;opacity:1;fill:#ffffff;fill-opacity:1;stroke:none;stroke-width:0.5342868"
     x="11.526188"
     y="41.112431"
     id="text950"><tspan
       sodipodi:role="line"
       id="tspan948"
       x="11.526188"
       y="41.112431"
       style="fill:#ffffff;fill-opacity:1;stroke-width:0.5342868">D</tspan></text>
</svg>
