<svg width="24" height="24" version="1" xmlns="http://www.w3.org/2000/svg">
<defs>
<filter id="filter890" x="-.048" y="-.048" width="1.096" height="1.096" color-interpolation-filters="sRGB">
<feGaussianBlur stdDeviation="0.40000002"/>
</filter>
</defs>
<rect transform="matrix(0,-1,-1,0,0,0)" x="-22" y="-22" width="20" height="20" rx="10" ry="10" fill="#d9d9d9" filter="url(#filter890)"/>
<rect transform="matrix(0,-1,-1,0,0,0)" x="-22" y="-22" width="20" height="20" rx="10" ry="10" fill="#e04141"/>
<g fill="#fff">
<path d="m12 6c-1.657 0-3 1.367-3 3.063v2.937h-2v6h10v-6h-2v-2.938c0-1.695-1.344-3.062-3-3.062zm0-1c2.216 0 4 1.823 4 4.063v1.937h1c0.554 0 1 0.446 1 1v6c0 0.554-0.446 1-1 1h-10c-0.554 0-1-0.446-1-1v-6c0-0.554 0.446-1 1-1h1v-1.938c0-2.24 1.784-4.062 4-4.062z"/>
<path d="m8 11h8v1h-8z"/>
</g>
</svg>
