<svg width="24" height="24" version="1" xmlns="http://www.w3.org/2000/svg">
<defs>
<filter id="filter890" x="-.048" y="-.048" width="1.096" height="1.096" color-interpolation-filters="sRGB">
<feGaussianBlur stdDeviation="0.40000002"/>
</filter>
</defs>
<rect transform="matrix(0,-1,-1,0,0,0)" x="-22" y="-22" width="20" height="20" rx="10" ry="10" fill="#d9d9d9" filter="url(#filter890)"/>
<rect transform="matrix(0,-1,-1,0,0,0)" x="-22" y="-22" width="20" height="20" rx="10" ry="10" fill="#ff6704"/>
<path d="m12 3c2.216 0 4 1.823 4 4.063v3.937h1c0.554 0 1 0.446 1 1v6c0 0.554-0.446 1-1 1h-10c-0.554 0-1-0.446-1-1v-6c0-0.554 0.446-1 1-1h8v-4c0-1.98-1.414-3-3-3s-3 1.02-3 3v1h-1v-1c0.033-2.212 1.805-4 4-4zm-5 9v6h10v-6z" fill="#fff"/>
</svg>
