<svg width="24" height="24" version="1.1" xmlns="http://www.w3.org/2000/svg">
<defs>
<filter id="filter975" x="-.033545" y="-.038842" width="1.0671" height="1.0777" color-interpolation-filters="sRGB">
<feGaussianBlur stdDeviation="0.3075"/>
</filter>
</defs>
<path d="m1.5 3c-0.282 0-0.5 0.22023-0.5 0.49023v16.02a0.493 0.493 0 0 0 0.5 0.49023h7.5v1h-2.5c-0.277 0-0.5 0.223-0.5 0.5s0.223 0.5 0.5 0.5h11c0.277 0 0.5-0.223 0.5-0.5s-0.223-0.5-0.5-0.5h-2.5v-1h7.5c0.282 0 0.5-0.22023 0.5-0.49023v-16.02c0-0.275-0.224-0.49023-0.5-0.49023z" fill="#ccc" fill-rule="evenodd" filter="url(#filter975)"/>
<g transform="translate(30.085 3.1197)" fill-rule="evenodd">
<path d="m-21.085 15.63h6v3h-6z" fill="#afc0c8"/>
<path d="m-29.085 0.37028c0-0.27 0.218-0.49 0.5-0.49h21c0.276 0 0.5 0.215 0.5 0.49v16.02c0 0.27-0.218 0.49-0.5 0.49h-21a0.493 0.493 0 0 1-0.5-0.49z" fill="#f6fcff"/>
<rect x="-24.085" y="17.88" width="12" height="1" rx=".5" ry=".5" fill="#f6fcff"/>
<path d="m-28.085 0.88028h20v13h-20z"/>
<path d="m-27.085 1.8803h18v11h-18z" fill="#c51818"/>
</g>
<path d="m9 8v2h1v-2zm5 0v2h1v-2zm-5 4v1h6v-1h-5zm6 1v1h1v-1zm-6 0h-1v1h1z" fill="#fff"/>
</svg>
