<svg width="24" height="24" version="1" xmlns="http://www.w3.org/2000/svg">
<defs>
<filter id="filter890" x="-.048" y="-.048" width="1.096" height="1.096" color-interpolation-filters="sRGB">
<feGaussianBlur stdDeviation="0.40000002"/>
</filter>
</defs>
<g>
<rect transform="matrix(0,-1,-1,0,0,0)" x="-22" y="-22" width="20" height="20" rx="10" ry="10" fill="#d9d9d9" filter="url(#filter890)"/>
<rect transform="matrix(0,-1,-1,0,0,0)" x="-22" y="-22" width="20" height="20" rx="10" ry="10" fill="#c51818"/>
<path d="m15.014 8.1028-3.0389 3.0491-3.0294-3.0443c-0.1156-0.11359-0.50172-0.15186-0.75318 0.10164-0.25265 0.2523-0.22047 0.63852-0.10726 0.7533l3.0425 3.0563-2.9901 3.0001a0.61494 0.61699 0 0 0 0.052437 0.80113c0.28602 0.28697 0.68406 0.14588 0.79489 0.03467l2.9913-3.0001 3.0223 3.0335c0.1156 0.11957 0.48504 0.21642 0.81396-0.11359 0.32892-0.33002 0.14778-0.61221 0.03933-0.72102l-3.0437-3.0515 3.027-3.0371c0.061966-0.058591 0.29794-0.39459-0.060777-0.7533-0.35872-0.36111-0.70551-0.16262-0.76033-0.10762z" fill="#fff"/>
</g>
</svg>
