<svg width="24" height="24" version="1" xmlns="http://www.w3.org/2000/svg">
<defs>
<filter id="filter890" x="-.048" y="-.048" width="1.096" height="1.096" color-interpolation-filters="sRGB">
<feGaussianBlur stdDeviation="0.40000002"/>
</filter>
</defs>
<rect transform="matrix(0,-1,-1,0,0,0)" x="-22" y="-22" width="20" height="20" rx="10" ry="10" fill="#d9d9d9" filter="url(#filter890)"/>
<rect transform="matrix(0,-1,-1,0,0,0)" x="-22" y="-22" width="20" height="20" rx="10" ry="10" fill="#11b5ff"/>
<path id="Path" d="m11.5 15c-0.56156 0-1 0.43844-1 1 0 0.55353 0.44214 1 1 1 0.55786 0 1-0.44647 1-1 0-0.56156-0.43844-1-1-1z" fill="#fff" fill-rule="evenodd"/>
<path d="m11.9 7c-1.6459 0-2.9002 1.0392-2.9002 2.4452 0 0.68364 0.46437 1.2219 1.1264 1.2219 0.6114 0 1.0089-0.43558 1.0089-1.0327 0-0.55878-0.2479-0.81442-0.74866-0.93986-0.11714-0.031468-0.16759-0.081348-0.16759-0.18254 0-0.41831 0.59237-0.90941 1.4109-0.90941 0.91424 0 1.4462 0.57106 1.4462 1.5904 0 0.71956-0.22732 1.1777-0.85483 1.9843-0.06537 0.08391-1.1265 1.0927-1.1265 1.9405 0 0.31086 0 0.67825 0.3263 0.84781 0.3263 0.16956 0.38907-0.31604 0.53284-0.84088 0.1428-0.3163 0.52465-0.75962 1.5336-1.3611 1.1584-0.79045 1.5125-1.4067 1.5125-2.3815 0-1.4514-1.2365-2.3821-3.0998-2.3821z" fill="#fff" fill-rule="evenodd"/>
</svg>
