<svg width="24" height="24" version="1" xmlns="http://www.w3.org/2000/svg">
<defs>
<filter id="filter890" x="-.048" y="-.048" width="1.096" height="1.096" color-interpolation-filters="sRGB">
<feGaussianBlur stdDeviation="0.40000002"/>
</filter>
</defs>
<rect transform="matrix(0,-1,-1,0,0,0)" x="-22" y="-22" width="20" height="20" rx="10" ry="10" fill="#d9d9d9" filter="url(#filter890)"/>
<rect transform="matrix(0,-1,-1,0,0,0)" x="-22" y="-22" width="20" height="20" rx="10" ry="10" fill="#988ad3"/>
<g transform="translate(4)" fill="#fff" fill-rule="evenodd">
<path d="m9.997 15.305c0.0317 0.15898-0.18901 0.36-0.73371 0.84746-0.73254 0.66203-1.1349 0.84746-1.7609 0.84746-0.45696 0-0.7525-0.39254-0.7525-0.83864 0-1.0258 0.89924-4.4136 0.89924-4.9241 0-0.61288-1.4674 0.84746-1.6142 0.33898-0.076306-0.26441-0.088046-0.34136 0.61632-0.81492 0.70436-0.47356 1.2664-0.71051 1.6858-0.71051 0.46958 0 0.70436 0.23898 0.70436 0.71729 0 0.97763-1.208 5.0454-0.70436 5.0454 0.35218 0.33898 1.5132-1.2478 1.66-0.50848z"/>
<circle cx="8" cy="8" r="1"/>
</g>
</svg>
