<svg width="24" height="24" version="1" xmlns="http://www.w3.org/2000/svg">
<defs>
<filter id="filter890" x="-.048" y="-.048" width="1.096" height="1.096" color-interpolation-filters="sRGB">
<feGaussianBlur stdDeviation="0.40000002"/>
</filter>
</defs>
<rect transform="matrix(0,-1,-1,0,0,0)" x="-22" y="-22" width="20" height="20" rx="10" ry="10" fill="#d9d9d9" filter="url(#filter890)"/>
<rect transform="matrix(0,-1,-1,0,0,0)" x="-22" y="-22" width="20" height="20" rx="10" ry="10" fill="#f39800"/>
<g transform="translate(-3.4265e-7 -1)" fill="#fff" fill-rule="evenodd">
<path id="Shape" d="m12.014 15c-0.43492 0-0.79114-0.29136-0.80512-0.65884l-0.20814-5.3344c-0.01812-0.47685 0.4344-1.0068 0.99928-1.0068 0.56333 0 1.0153 0.5273 0.9998 1.0028l-0.1807 5.3348c-0.01191 0.36923-0.36865 0.66233-0.80512 0.66233z"/>
<circle cx="12" cy="17" r="1"/>
</g>
</svg>
