<svg xmlns="http://www.w3.org/2000/svg" xmlns:xlink="http://www.w3.org/1999/xlink" height="64" width="64">
    <defs>
        <linearGradient id="b">
            <stop offset="0" stop-color="#353535"/>
            <stop offset="1" stop-color="#303030"/>
        </linearGradient>
        <linearGradient id="a">
            <stop offset="0" stop-color="#fcfcfc"/>
            <stop offset=".523" stop-color="#aaa"/>
            <stop offset=".723" stop-color="#aaa"/>
            <stop offset=".89"  stop-color="#aaa"/>
            <stop offset="1" stop-color="#cecbcb"/>
        </linearGradient>
        <linearGradient xlink:href="#a" id="d" gradientUnits="userSpaceOnUse" gradientTransform="matrix(0 -.41829 .41829 0 3.59 53.163)" x1="86.738" y1="93.621" x2="95.182" y2="102.066"/>
        <linearGradient xlink:href="#b" id="c" x1="20" y1="14" x2="35" y2="54" gradientUnits="userSpaceOnUse" gradientTransform="matrix(1.03625 0 0 1 -.903 .5)"/>
    </defs>
    <path d="M11.014 60H53.5V21L38.993 7h-27.98z" fill="url(#c)"/>
    <path d="M38 6.5H11.5v53h42V22" fill="none" stroke="#606060"/>
    <path d="M38 6.5c1.846 0 2.75 1.156 3.445 2.182 1.433 2.112 1.375 6.175 1.408 8.565 2.39.033 6.409-.069 8.52 1.363C52.4 19.306 53.5 20.797 53.5 22c0-.958-.452-1.96-1.588-3.135-3.658-3.778-6.67-7.178-10.457-10.611C40.58 7.46 39.85 6.5 38 6.5z" fill="url(#d)" stroke="#606060"/>
        <g
      transform="scale(2 2) translate(8 11)"
     id="g2522">     <path fill="#F57C00" color="#00796B" d="M2 2v2c5.523 0 10 4.477 10 10h2v-.063c0-.391-.026-.775-.063-1.156-.002-.021.002-.042 0-.063a11.888 11.888 0 0 0-.188-1.125c-.004-.02.004-.043 0-.063a11.755 11.755 0 0 0-1.188-3.25c-.004-.008.004-.024 0-.031a11.94 11.94 0 0 0-8.094-6c-.02-.004-.043.004-.063 0a11.942 11.942 0 0 0-1.125-.188c-.021-.002-.042.002-.063 0-.383-.039-.764-.06-1.156-.063h-.063m0 4v2a6 6 0 0 1 6 6h2a8 8 0 0 0-8-8m2 4a2 2 0 1 0-.001 3.999 2 2 0 0 0 .001-3.999"/>
    </g>
</svg>
