<svg xmlns="http://www.w3.org/2000/svg" xmlns:xlink="http://www.w3.org/1999/xlink" height="64" width="64">
    <defs>
        <linearGradient id="b">
            <stop offset="0" stop-color="#353535"/>
            <stop offset="1" stop-color="#303030"/>
        </linearGradient>
        <linearGradient id="a">
            <stop offset="0" stop-color="#fcfcfc"/>
            <stop offset=".523" stop-color="#aaa"/>
            <stop offset=".723" stop-color="#aaa"/>
            <stop offset=".89"  stop-color="#aaa"/>
            <stop offset="1" stop-color="#cecbcb"/>
        </linearGradient>
        <linearGradient xlink:href="#a" id="d" gradientUnits="userSpaceOnUse" gradientTransform="matrix(0 -.41829 .41829 0 3.59 53.163)" x1="86.738" y1="93.621" x2="95.182" y2="102.066"/>
        <linearGradient xlink:href="#b" id="c" x1="20" y1="14" x2="35" y2="54" gradientUnits="userSpaceOnUse" gradientTransform="matrix(1.03625 0 0 1 -.903 .5)"/>
    </defs>
    <path d="M11.014 60H53.5V21L38.993 7h-27.98z" fill="url(#c)"/>
    <path d="M38 6.5H11.5v53h42V22" fill="none" stroke="#606060"/>
    <path d="M38 6.5c1.846 0 2.75 1.156 3.445 2.182 1.433 2.112 1.375 6.175 1.408 8.565 2.39.033 6.409-.069 8.52 1.363C52.4 19.306 53.5 20.797 53.5 22c0-.958-.452-1.96-1.588-3.135-3.658-3.778-6.67-7.178-10.457-10.611C40.58 7.46 39.85 6.5 38 6.5z" fill="url(#d)" stroke="#606060"/>
        <g
      transform="scale(2 2) translate(8 11)"
     id="g2522">     <path fill="#689F38" d="M2.498 1.988a.5.5 0 0 0-.348.858l1.278 1.277A6 6 0 0 0 2 8v6h12V8a6 6 0 0 0-1.418-3.875l1.279-1.279a.5.5 0 0 0-.363-.858.5.5 0 0 0-.344.15L11.87 3.425A6 6 0 0 0 8 2a6 6 0 0 0-3.87 1.412L2.858 2.14a.5.5 0 0 0-.359-.15M8 3a5 5 0 0 1 5 5H3a5 5 0 0 1 5-5M6 5a1 1 0 0 0-1 1 1 1 0 0 0 1 1 1 1 0 0 0 1-1 1 1 0 0 0-1-1m4 0a1 1 0 0 0-1 1 1 1 0 0 0 1 1 1 1 0 0 0 1-1 1 1 0 0 0-1-1M3 9h4v1h1v1h1V9h4v4H3zm5 2H7v1h1z"/>
    </g>
</svg>
