<svg xmlns="http://www.w3.org/2000/svg" xmlns:xlink="http://www.w3.org/1999/xlink" height="64" width="64">
    <defs>
        <linearGradient id="b">
            <stop offset="0" stop-color="#353535"/>
            <stop offset="1" stop-color="#303030"/>
        </linearGradient>
        <linearGradient id="a">
            <stop offset="0" stop-color="#fcfcfc"/>
            <stop offset=".523" stop-color="#aaa"/>
            <stop offset=".723" stop-color="#aaa"/>
            <stop offset=".89"  stop-color="#aaa"/>
            <stop offset="1" stop-color="#cecbcb"/>
        </linearGradient>
        <linearGradient xlink:href="#a" id="d" gradientUnits="userSpaceOnUse" gradientTransform="matrix(0 -.41829 .41829 0 3.59 53.163)" x1="86.738" y1="93.621" x2="95.182" y2="102.066"/>
        <linearGradient xlink:href="#b" id="c" x1="20" y1="14" x2="35" y2="54" gradientUnits="userSpaceOnUse" gradientTransform="matrix(1.03625 0 0 1 -.903 .5)"/>
    </defs>
    <path d="M11.014 60H53.5V21L38.993 7h-27.98z" fill="url(#c)"/>
    <path d="M38 6.5H11.5v53h42V22" fill="none" stroke="#606060"/>
    <path d="M38 6.5c1.846 0 2.75 1.156 3.445 2.182 1.433 2.112 1.375 6.175 1.408 8.565 2.39.033 6.409-.069 8.52 1.363C52.4 19.306 53.5 20.797 53.5 22c0-.958-.452-1.96-1.588-3.135-3.658-3.778-6.67-7.178-10.457-10.611C40.58 7.46 39.85 6.5 38 6.5z" fill="url(#d)" stroke="#606060"/>
        <g
      transform="scale(2 2) translate(8 11)"
     id="g2522">     <g fill="#0288D1">
        <path d="M8.364 3.323a.383.383 0 0 1-.385.382.383.383 0 0 1-.384-.382v-.942a.384.384 0 0 1 .769 0zM8.305 9.985a.316.316 0 0 1-.317.314H7.97a.316.316 0 0 1-.318-.314V8.966c0-.174.143-.317.318-.317h.017c.175 0 .317.141.317.317z"/>
        <path d="M11.981 12.982a.454.454 0 0 0 .087-.508L8.883 5.72c-.002-.018-.002-.037-.002-.057 0-.066.024-.127.064-.175.38-.286.624-.739.624-1.249a1.57 1.57 0 0 0-1.574-1.565c-.885 0-1.575.7-1.575 1.565 0 .51.244.963.623 1.249.04.048.065.108.065.175 0 .02 0 .04-.002.058L3.92 12.473a.452.452 0 0 0 .087.508l-.502 1.02.793-.86a.46.46 0 0 0 .532-.247L7.868 6.46a.152.152 0 0 1 .12-.058h.015c.049 0 .091.024.118.058l3.037 6.436a.457.457 0 0 0 .53.248l.794.86zM7.995 5.141a.9.9 0 1 1 0-1.8c.5 0 .904.402.904.9 0 .497-.404.9-.904.9"/>
        <path d="M11.445 9.506a.206.206 0 0 1-.207.205H4.72a.207.207 0 0 1-.207-.205v-.002c0-.114.093-.205.207-.205h6.518a.208.208 0 0 1 .207.207"/>
    </g>
    </g>
</svg>
