<svg xmlns="http://www.w3.org/2000/svg" xmlns:xlink="http://www.w3.org/1999/xlink" height="64" width="64">
    <defs>
        <linearGradient id="b">
            <stop offset="0" stop-color="#353535"/>
            <stop offset="1" stop-color="#303030"/>
        </linearGradient>
        <linearGradient id="a">
            <stop offset="0" stop-color="#fcfcfc"/>
            <stop offset=".523" stop-color="#aaa"/>
            <stop offset=".723" stop-color="#aaa"/>
            <stop offset=".89"  stop-color="#aaa"/>
            <stop offset="1" stop-color="#cecbcb"/>
        </linearGradient>
        <linearGradient xlink:href="#a" id="d" gradientUnits="userSpaceOnUse" gradientTransform="matrix(0 -.41829 .41829 0 3.59 53.163)" x1="86.738" y1="93.621" x2="95.182" y2="102.066"/>
        <linearGradient xlink:href="#b" id="c" x1="20" y1="14" x2="35" y2="54" gradientUnits="userSpaceOnUse" gradientTransform="matrix(1.03625 0 0 1 -.903 .5)"/>
    </defs>
    <path d="M11.014 60H53.5V21L38.993 7h-27.98z" fill="url(#c)"/>
    <path d="M38 6.5H11.5v53h42V22" fill="none" stroke="#606060"/>
    <path d="M38 6.5c1.846 0 2.75 1.156 3.445 2.182 1.433 2.112 1.375 6.175 1.408 8.565 2.39.033 6.409-.069 8.52 1.363C52.4 19.306 53.5 20.797 53.5 22c0-.958-.452-1.96-1.588-3.135-3.658-3.778-6.67-7.178-10.457-10.611C40.58 7.46 39.85 6.5 38 6.5z" fill="url(#d)" stroke="#606060"/>
        <g
      transform="scale(2 2) translate(8 11)"
     id="g2522">     <path fill="#0288D1" d="M5.35 13.9c-.239-.062-.215-.129.179-.498.679-.635.792-1.267.599-3.347-.154-1.659-.189-1.786-.448-1.647-.562.301-1.263-.087-2.06-1.138-.394-.52-.431-.672-.364-1.481.041-.496.126-1.095.188-1.331.095-.362.065-.429-.198-.429a.75.75 0 0 1-.507-.237c-.272-.328.213-.855.787-.855.233 0 .512-.105.619-.234.276-.332.697-.29 1.17.117.503.433.674 1.435.392 2.291-.319.968-.098 1.063.349.149.25-.511.603-.957.894-1.129.264-.156.65-.553.858-.882.208-.329.468-.656.579-.727.34-.217 1.274-.516 1.622-.519.475-.01 1.112.552 1.225 1.069.054.244.34.82.636 1.279.296.459.538.916.538 1.014 0 .098.21.444.468.767.385.485.467.729.461 1.386-.007.901-.492 2.049-.67 1.586-.056-.146-.033-.395.052-.553.177-.331.021-1.799-.171-1.607-.134.134-.221 1.566-.184 3.01.049 1.874-.042 3.64-.19 3.688-.378.12-.543-.191-.388-.732.233-.814.185-2.979-.074-3.321-.12-.158-.264-.561-.32-.896-.057-.335-.164-.646-.239-.692-.246-.152-.617.832-.617 1.635 0 .629-.095.919-.468 1.435-.528.729-.569.944-.234 1.223.261.217.312.713.087.852-.081.05-.291-.064-.468-.254-.25-.268-.321-.29-.321-.1 0 .285-.578.478-.897.3-.171-.095-.13-.18.183-.386.559-.366.505-.666-.242-1.349-.582-.532-.634-.639-.538-1.112.302-1.498.301-1.537-.048-1.537-.228 0-.329.098-.329.322 0 .177-.077.467-.172.644-.167.312-.217.563-.621 3.127-.201 1.278-.251 1.327-1.121 1.1m4.187-2.721c.202-.392.232-.727.145-1.654-.115-1.231-.2-1.274-.537-.272-.115.343-.34.791-.5.995-.371.476-.364.62.049 1.06.443.471.539.457.843-.13"/>
    </g>
</svg>
