<svg xmlns="http://www.w3.org/2000/svg" xmlns:xlink="http://www.w3.org/1999/xlink" height="64" width="64">
    <defs>
        <linearGradient id="b">
            <stop offset="0" stop-color="#353535"/>
            <stop offset="1" stop-color="#303030"/>
        </linearGradient>
        <linearGradient id="a">
            <stop offset="0" stop-color="#fcfcfc"/>
            <stop offset=".523" stop-color="#aaa"/>
            <stop offset=".723" stop-color="#aaa"/>
            <stop offset=".89"  stop-color="#aaa"/>
            <stop offset="1" stop-color="#cecbcb"/>
        </linearGradient>
        <linearGradient xlink:href="#a" id="d" gradientUnits="userSpaceOnUse" gradientTransform="matrix(0 -.41829 .41829 0 3.59 53.163)" x1="86.738" y1="93.621" x2="95.182" y2="102.066"/>
        <linearGradient xlink:href="#b" id="c" x1="20" y1="14" x2="35" y2="54" gradientUnits="userSpaceOnUse" gradientTransform="matrix(1.03625 0 0 1 -.903 .5)"/>
    </defs>
    <path d="M11.014 60H53.5V21L38.993 7h-27.98z" fill="url(#c)"/>
    <path d="M38 6.5H11.5v53h42V22" fill="none" stroke="#606060"/>
    <path d="M38 6.5c1.846 0 2.75 1.156 3.445 2.182 1.433 2.112 1.375 6.175 1.408 8.565 2.39.033 6.409-.069 8.52 1.363C52.4 19.306 53.5 20.797 53.5 22c0-.958-.452-1.96-1.588-3.135-3.658-3.778-6.67-7.178-10.457-10.611C40.58 7.46 39.85 6.5 38 6.5z" fill="url(#d)" stroke="#606060"/>
        <g
      transform="scale(2 2) translate(8 11)"
     id="g2522">     <g fill="#00796B">
        <path d="M9.592 6.04c.015-.118.026-.237.026-.359 0-.121-.011-.241-.026-.359l.778-.609a.183.183 0 0 0 .044-.235l-.736-1.274a.182.182 0 0 0-.224-.079l-.916.37a2.788 2.788 0 0 0-.622-.362l-.138-.975a.19.19 0 0 0-.184-.154H6.123a.186.186 0 0 0-.182.154l-.138.975a2.756 2.756 0 0 0-.622.362l-.916-.37a.184.184 0 0 0-.224.079l-.736 1.274a.184.184 0 0 0 .044.235l.776.609a2.835 2.835 0 0 0-.026.359c0 .121.011.241.026.359l-.776.609a.183.183 0 0 0-.044.235l.736 1.274a.182.182 0 0 0 .224.079l.916-.37c.189.145.397.268.622.362l.138.975c.015.086.09.155.182.155h1.471a.186.186 0 0 0 .182-.155l.138-.975c.224-.094.432-.215.622-.362l.916.37c.083.031.178 0 .224-.079l.736-1.274a.184.184 0 0 0-.044-.235zm-2.732.929a1.286 1.286 0 1 1 0-2.574 1.286 1.286 0 1 1 0 2.574M11.697 12.54a1.936 1.936 0 0 0 .251-.46l.713-.118a.135.135 0 0 0 .111-.136l-.026-1.077a.134.134 0 0 0-.116-.13l-.718-.084a2.059 2.059 0 0 0-.272-.451l.253-.675a.139.139 0 0 0-.064-.164l-.945-.516a.136.136 0 0 0-.171.036l-.43.578a1.969 1.969 0 0 0-.526.015l-.459-.559a.135.135 0 0 0-.172-.028l-.92.561a.135.135 0 0 0-.054.167l.285.663a1.864 1.864 0 0 0-.251.461l-.712.119a.135.135 0 0 0-.111.136l.026 1.077a.133.133 0 0 0 .116.13l.718.084c.071.16.161.312.272.451l-.253.675a.136.136 0 0 0 .063.163l.945.516a.136.136 0 0 0 .171-.035l.43-.578c.177.019.353.014.526-.015l.459.559a.135.135 0 0 0 .172.028l.92-.561a.135.135 0 0 0 .054-.167zm-2.082-.362a.942.942 0 1 1 .901-1.656.942.942 0 0 1-.901 1.657"/>
    </g>
    </g>
</svg>
