<svg xmlns="http://www.w3.org/2000/svg" xmlns:xlink="http://www.w3.org/1999/xlink" height="64" width="64">
    <defs>
        <linearGradient id="b">
            <stop offset="0" stop-color="#353535"/>
            <stop offset="1" stop-color="#303030"/>
        </linearGradient>
        <linearGradient id="a">
            <stop offset="0" stop-color="#fcfcfc"/>
            <stop offset=".523" stop-color="#aaa"/>
            <stop offset=".723" stop-color="#aaa"/>
            <stop offset=".89"  stop-color="#aaa"/>
            <stop offset="1" stop-color="#cecbcb"/>
        </linearGradient>
        <linearGradient xlink:href="#a" id="d" gradientUnits="userSpaceOnUse" gradientTransform="matrix(0 -.41829 .41829 0 3.59 53.163)" x1="86.738" y1="93.621" x2="95.182" y2="102.066"/>
        <linearGradient xlink:href="#b" id="c" x1="20" y1="14" x2="35" y2="54" gradientUnits="userSpaceOnUse" gradientTransform="matrix(1.03625 0 0 1 -.903 .5)"/>
    </defs>
    <path d="M11.014 60H53.5V21L38.993 7h-27.98z" fill="url(#c)"/>
    <path d="M38 6.5H11.5v53h42V22" fill="none" stroke="#606060"/>
    <path d="M38 6.5c1.846 0 2.75 1.156 3.445 2.182 1.433 2.112 1.375 6.175 1.408 8.565 2.39.033 6.409-.069 8.52 1.363C52.4 19.306 53.5 20.797 53.5 22c0-.958-.452-1.96-1.588-3.135-3.658-3.778-6.67-7.178-10.457-10.611C40.58 7.46 39.85 6.5 38 6.5z" fill="url(#d)" stroke="#606060"/>
        <g
      transform="scale(2 2) translate(8 11)"
     id="g2522">     <path fill="#F57C00" color="#00796B" d="M7.5 2v1.125c-.843.078-1.507.291-2 .688-.542.432-.813 1.072-.813 1.906 0 1.165.697 1.921 2.125 2.281l.688.188v3.688c-.887-.079-1.719-.273-2.5-.656l-.344.906c.318.195.752.379 1.281.531.465.129.988.186 1.563.219v1.125h1v-1.125c.85-.068 1.533-.327 2.031-.781.534-.483.812-1.183.813-2.094 0-.737-.2-1.289-.594-1.688-.394-.403-.987-.693-1.75-.875l-.5-.125v-3.25c.386.029.787.083 1.156.188.424.114.742.262 1 .406l.313-.906c-.64-.399-1.461-.637-2.469-.688V2h-.75zm-.219 2.094c.065-.011.149.008.219 0v2.969L7.219 7c-.47-.114-.825-.284-1.063-.5-.233-.22-.344-.515-.344-.875 0-.856.483-1.366 1.469-1.531M8.5 8.407l.188.063c.576.144.971.34 1.188.594.22.25.312.593.313 1 0 1.133-.563 1.735-1.688 1.844z"/>
    </g>
</svg>
