<svg xmlns="http://www.w3.org/2000/svg" xmlns:xlink="http://www.w3.org/1999/xlink" height="64" width="64">
    <defs>
        <linearGradient id="b">
            <stop offset="0" stop-color="#353535"/>
            <stop offset="1" stop-color="#303030"/>
        </linearGradient>
        <linearGradient id="a">
            <stop offset="0" stop-color="#fcfcfc"/>
            <stop offset=".523" stop-color="#aaa"/>
            <stop offset=".723" stop-color="#aaa"/>
            <stop offset=".89"  stop-color="#aaa"/>
            <stop offset="1" stop-color="#cecbcb"/>
        </linearGradient>
        <linearGradient xlink:href="#a" id="d" gradientUnits="userSpaceOnUse" gradientTransform="matrix(0 -.41829 .41829 0 3.59 53.163)" x1="86.738" y1="93.621" x2="95.182" y2="102.066"/>
        <linearGradient xlink:href="#b" id="c" x1="20" y1="14" x2="35" y2="54" gradientUnits="userSpaceOnUse" gradientTransform="matrix(1.03625 0 0 1 -.903 .5)"/>
    </defs>
    <path d="M11.014 60H53.5V21L38.993 7h-27.98z" fill="url(#c)"/>
    <path d="M38 6.5H11.5v53h42V22" fill="none" stroke="#606060"/>
    <path d="M38 6.5c1.846 0 2.75 1.156 3.445 2.182 1.433 2.112 1.375 6.175 1.408 8.565 2.39.033 6.409-.069 8.52 1.363C52.4 19.306 53.5 20.797 53.5 22c0-.958-.452-1.96-1.588-3.135-3.658-3.778-6.67-7.178-10.457-10.611C40.58 7.46 39.85 6.5 38 6.5z" fill="url(#d)" stroke="#606060"/>
        <g
      transform="scale(2 2) translate(8 11)"
     id="g2522">     <rect y="2.472" x="2.472" ry=".633" rx=".633" height="11.055" width="11.055" fill="none" stroke="#0288D1" stroke-width=".945" stroke-linecap="round" stroke-linejoin="round"/>
    <path style="marker:none" d="M7.1 3.21v1.8h-.956L8 7.11l1.856-2.1H8.9v-1.8zM7.672 7.41c-.052 0-.084.088-.084.197v.684a1.87 1.87 0 0 0-.582.244l-.487-.488c-.077-.076-.16-.111-.197-.075l-.46.46c-.036.036-.001.12.076.196l.487.488a1.87 1.87 0 0 0-.244.581h-.684c-.109 0-.197.033-.197.085v.656c0 .052.088.084.197.084h.684c.048.21.133.406.244.582l-.487.487c-.077.077-.112.16-.075.197l.459.46c.037.036.12.001.197-.076l.487-.487c.176.11.373.196.582.244v.684c0 .108.032.197.084.197h.656c.052 0 .085-.089.085-.197v-.684a1.87 1.87 0 0 0 .58-.244l.488.487c.077.077.16.112.197.075l.46-.46c.036-.036.001-.12-.075-.196l-.488-.487a1.87 1.87 0 0 0 .244-.582h.684c.109 0 .197-.032.197-.084v-.656c0-.052-.088-.085-.197-.085H9.82a1.87 1.87 0 0 0-.244-.581l.487-.488c.077-.076.112-.16.075-.196l-.459-.46c-.037-.036-.12-.001-.197.075l-.487.488a1.87 1.87 0 0 0-.582-.244v-.684c0-.109-.032-.197-.084-.197zM8 9.275c.459 0 .834.376.834.835a.837.837 0 0 1-.834.834.837.837 0 0 1-.834-.834c0-.459.375-.835.834-.835z" overflow="visible" fill="#0288D1"/>
    </g>
</svg>
