<svg xmlns="http://www.w3.org/2000/svg" xmlns:xlink="http://www.w3.org/1999/xlink" height="64" width="64">
    <defs>
        <linearGradient id="b">
            <stop offset="0" stop-color="#353535"/>
            <stop offset="1" stop-color="#303030"/>
        </linearGradient>
        <linearGradient id="a">
            <stop offset="0" stop-color="#fcfcfc"/>
            <stop offset=".523" stop-color="#aaa"/>
            <stop offset=".723" stop-color="#aaa"/>
            <stop offset=".89"  stop-color="#aaa"/>
            <stop offset="1" stop-color="#cecbcb"/>
        </linearGradient>
        <linearGradient xlink:href="#a" id="d" gradientUnits="userSpaceOnUse" gradientTransform="matrix(0 -.41829 .41829 0 3.59 53.163)" x1="86.738" y1="93.621" x2="95.182" y2="102.066"/>
        <linearGradient xlink:href="#b" id="c" x1="20" y1="14" x2="35" y2="54" gradientUnits="userSpaceOnUse" gradientTransform="matrix(1.03625 0 0 1 -.903 .5)"/>
    </defs>
    <path d="M11.014 60H53.5V21L38.993 7h-27.98z" fill="url(#c)"/>
    <path d="M38 6.5H11.5v53h42V22" fill="none" stroke="#606060"/>
    <path d="M38 6.5c1.846 0 2.75 1.156 3.445 2.182 1.433 2.112 1.375 6.175 1.408 8.565 2.39.033 6.409-.069 8.52 1.363C52.4 19.306 53.5 20.797 53.5 22c0-.958-.452-1.96-1.588-3.135-3.658-3.778-6.67-7.178-10.457-10.611C40.58 7.46 39.85 6.5 38 6.5z" fill="url(#d)" stroke="#606060"/>
        <g
      transform="scale(2 2) translate(8 11)"
     id="g2522">     <path fill="#00796B" color="#00796B" d="M5 2.002a3 3 0 0 0-3 3 3 3 0 0 0 3 3 3 3 0 0 0 3-3 3 3 0 0 0-3-3m3 3a3 3 0 0 0 3 3 3 3 0 0 0 3-3 3 3 0 0 0-3-3 3 3 0 0 0-3 3m-3-2a2 2 0 0 1 2 2 2 2 0 0 1-2 2 2 2 0 0 1-1.371-.549 1.5 1.5 0 0 0 .371.05 1.5 1.5 0 0 0 1.5-1.5 1.5 1.5 0 0 0-1.5-1.5 1.5 1.5 0 0 0-.375.048A2 2 0 0 1 5 3.003m6 0a2 2 0 0 1 2 2 2 2 0 0 1-2 2 2 2 0 0 1-1.371-.55 1.5 1.5 0 0 0 .371.05 1.5 1.5 0 0 0 1.5-1.5 1.5 1.5 0 0 0-1.5-1.5 1.5 1.5 0 0 0-.375.048A2 2 0 0 1 11 3.003m1.08 6.152c-.935.53-2.457.847-4.08.848-1.394-.001-2.725-.234-3.67-.645l-.629.734c.384.198.83.354 1.299.49v1.42a2 2 0 0 0 2 2 2 2 0 0 0 1.5-.68 2 2 0 0 0 1.5.68 2 2 0 0 0 2-2v-1.773c.272-.122.528-.253.754-.4zM11 10.58v1.424a1 1 0 0 1-1 1 1 1 0 0 1-1-1v-1.059a10.304 10.304 0 0 0 2-.365m-5 .238c.638.114 1.309.185 2 .186v1a1 1 0 0 1-1 1 1 1 0 0 1-1-1z"/>
    </g>
</svg>
