<svg xmlns="http://www.w3.org/2000/svg" xmlns:xlink="http://www.w3.org/1999/xlink" width="64" height="64">
    <defs>
        <linearGradient xlink:href="#a" id="c" x1="6.946" y1="28.387" x2="41.871" y2="28.387" gradientUnits="userSpaceOnUse" gradientTransform="matrix(1.48889 0 0 1.47629 -4.341 -3.517)"/>
        <linearGradient xlink:href="#a" id="d" x1="19.117" y1="10.296" x2="29.757" y2="10.296" gradientUnits="userSpaceOnUse" gradientTransform="matrix(1.47629 0 0 1.47629 -3.308 -3.517)"/>
        <filter id="b" x="-.062" width="1.125" y="-.058" height="1.116" color-interpolation-filters="sRGB">
            <feGaussianBlur stdDeviation="1.35"/>
        </filter>
    </defs>
    <linearGradient id="a" gradientUnits="userSpaceOnUse" x1="14.514" x2="35.49" y1="14.849" y2="36.01">
        <stop offset="0" stop-color="#00b2ff"/>
        <stop offset="1" stop-color="#2a36ed" stop-opacity=".957"/>
    </linearGradient>
    <path style="line-height:normal;font-variant-ligatures:normal;font-variant-position:normal;font-variant-caps:normal;font-variant-numeric:normal;font-variant-alternates:normal;font-feature-settings:normal;text-indent:0;text-align:start;text-decoration-line:none;text-decoration-style:solid;text-decoration-color:#000;text-transform:none;text-orientation:mixed;white-space:normal;shape-padding:0;isolation:auto;mix-blend-mode:normal;solid-color:#000;solid-opacity:1" d="M32.768 4c-1.902 0-3.817.625-5.301 1.918s-2.487 3.274-2.551 5.738v.057c.064 2.465 1.067 4.442 2.55 5.734 1.485 1.293 3.4 1.918 5.302 1.918 1.901 0 3.817-.625 5.3-1.918 1.382-1.203 2.272-3.047 2.45-5.279l.002-.002a1.125 1.125 0 0 0 .101-.512 1.12 1.12 0 0 0-.103-.46c-.18-2.23-1.07-4.074-2.45-5.276C36.585 4.625 34.67 4 32.768 4zM9.682 16.785c-1.544-.064-2.814.529-3.393 1.6a2.418 2.418 0 0 0-.117 2.039c.27.662.835 1.191 1.55 1.514.042.017.084.034.128.046l16.261 5.11v11.33l-6.025 17.195-.008.026a3.357 3.357 0 0 0 1.303 3.84c.57.376 1.294.578 2.037.433.743-.145 1.426-.655 1.867-1.379.017-.026.033-.052.047-.08l8.697-17.314 8.59 17.273c.03.062.066.12.108.176.982 1.303 2.624 1.725 3.925 1.162a2.692 2.692 0 0 0 1.473-1.58c.25-.736.179-1.587-.174-2.434l-6-17.318v-11.33l16.494-5.17c.063-.02.125-.046.184-.076.648-.335 1.137-.92 1.303-1.577.165-.656.02-1.333-.315-1.882-.581-.952-1.789-1.44-3.176-1.428l-.005-.004a1.143 1.143 0 0 0-.63-.057 1.148 1.148 0 0 0-.083.014l-21.688 3.732-21.658-3.789-.018-.003a5.904 5.904 0 0 0-.677-.069z" color="#000" font-weight="400" font-family="sans-serif" overflow="visible" opacity=".25" enable-background="accumulate" filter="url(#b)"/>
    <path style="line-height:normal;font-variant-ligatures:normal;font-variant-position:normal;font-variant-caps:normal;font-variant-numeric:normal;font-variant-alternates:normal;font-feature-settings:normal;text-indent:0;text-align:start;text-decoration-line:none;text-decoration-style:solid;text-decoration-color:#000;text-transform:none;text-orientation:mixed;white-space:normal;shape-padding:0;isolation:auto;mix-blend-mode:normal;solid-color:#000;solid-opacity:1" d="M10.36 16.854c-1.844-.292-3.41.307-4.072 1.531a2.417 2.417 0 0 0-.116 2.039c.27.662.834 1.191 1.55 1.514.042.017.084.033.128.046l16.261 5.109v11.332l-6.025 17.193a2.079 2.079 0 0 0-.009.026c-.503 1.559.164 3.088 1.303 3.84.57.377 1.296.578 2.038.433.743-.145 1.426-.654 1.867-1.378a1.12 1.12 0 0 0 .047-.08l8.698-17.315 8.59 17.274c.03.062.066.12.108.176.982 1.303 2.624 1.725 3.925 1.162a2.69 2.69 0 0 0 1.472-1.58c.25-.736.178-1.587-.175-2.434l-5.999-17.317V27.093l16.494-5.17c.063-.02.125-.045.183-.075.648-.335 1.138-.92 1.303-1.577.166-.657.022-1.334-.314-1.883-.581-.951-1.789-1.44-3.175-1.427l-.006-.003a1.14 1.14 0 0 0-.628-.058 1.16 1.16 0 0 0-.085.015l-21.688 3.73-21.658-3.788-.018-.003z" color="#000" font-weight="400" font-family="sans-serif" overflow="visible" fill="url(#c)" enable-background="accumulate"/>
    <path style="line-height:normal;font-variant-ligatures:normal;font-variant-position:normal;font-variant-caps:normal;font-variant-numeric:normal;font-variant-alternates:normal;font-feature-settings:normal;text-indent:0;text-align:start;text-decoration-line:none;text-decoration-style:solid;text-decoration-color:#000;text-transform:none;text-orientation:mixed;white-space:normal;shape-padding:0;isolation:auto;mix-blend-mode:normal;solid-color:#000;solid-opacity:1" d="M32.767 4c-1.902 0-3.816.625-5.3 1.917-1.484 1.293-2.488 3.274-2.552 5.738v.058c.064 2.465 1.068 4.443 2.552 5.735 1.484 1.293 3.398 1.918 5.3 1.918 1.902 0 3.818-.625 5.302-1.918 1.382-1.203 2.27-3.048 2.448-5.28l.003-.002a1.122 1.122 0 0 0 .101-.51 1.122 1.122 0 0 0-.104-.462c-.179-2.23-1.067-4.074-2.448-5.277C36.585 4.625 34.67 4 32.767 4z" color="#000" font-weight="400" font-family="sans-serif" overflow="visible" fill="url(#d)" enable-background="accumulate"/>
</svg>
