<?xml version="1.0" encoding="UTF-8" standalone="no"?>
<svg
   xmlns:dc="http://purl.org/dc/elements/1.1/"
   xmlns:cc="http://creativecommons.org/ns#"
   xmlns:rdf="http://www.w3.org/1999/02/22-rdf-syntax-ns#"
   xmlns:svg="http://www.w3.org/2000/svg"
   xmlns="http://www.w3.org/2000/svg"
   xmlns:xlink="http://www.w3.org/1999/xlink"
   xmlns:sodipodi="http://sodipodi.sourceforge.net/DTD/sodipodi-0.dtd"
   xmlns:inkscape="http://www.inkscape.org/namespaces/inkscape"
   viewBox="0 0 64 64"
   version="1.1"
   id="svg15"
   sodipodi:docname="applications-internet.svg"
   inkscape:version="0.92.4 5da689c313, 2019-01-14"
   width="64"
   height="64">
  <metadata
     id="metadata21">
    <rdf:RDF>
      <cc:Work
         rdf:about="">
        <dc:format>image/svg+xml</dc:format>
        <dc:type
           rdf:resource="http://purl.org/dc/dcmitype/StillImage" />
        <dc:title></dc:title>
      </cc:Work>
    </rdf:RDF>
  </metadata>
  <defs
     id="defs19">
    <linearGradient
       gradientTransform="matrix(1.3214286,0,0,1.3214286,10.319825,3.3146089)"
       id="g"
       gradientUnits="userSpaceOnUse"
       x2="0"
       y1="23"
       y2="9">
      <stop
         offset="0"
         stop-color="#ffd42a"
         id="stop15" />
      <stop
         offset="1"
         stop-color="#ffdf62"
         id="stop17" />
    </linearGradient>
    <linearGradient
       gradientTransform="matrix(1.3214286,0,0,1.3214286,4.1025035,2.6512519)"
       id="f"
       gradientUnits="userSpaceOnUse"
       x1="12"
       x2="25"
       xlink:href="#b-3"
       y1="12"
       y2="25" />
    <linearGradient
       id="b-3">
      <stop
         offset="0"
         stop-color="#292c2f"
         id="stop3" />
      <stop
         offset="1"
         stop-opacity="0"
         id="stop5" />
    </linearGradient>
    <linearGradient
       gradientTransform="matrix(1.9999858,0,0,2.0000002,2.5970481e-5,1.5050063e-6)"
       id="e"
       gradientUnits="userSpaceOnUse"
       x1="2"
       x2="2"
       y1="30"
       y2="2">
      <stop
         offset="0"
         stop-color="#a5a5a5"
         id="stop10" />
      <stop
         offset="1"
         stop-color="#f5f2f5"
         id="stop12" />
    </linearGradient>
    <linearGradient
       gradientTransform="matrix(1.9999858,0,0,1.9845721,2.5970481e-5,0.46284104)"
       id="d"
       gradientUnits="userSpaceOnUse"
       x1="23"
       x2="30"
       xlink:href="#b-3"
       y1="13"
       y2="20" />
    <linearGradient
       id="a-4"
       xlink:href="#b-3" />
    <linearGradient
       gradientTransform="matrix(1.9999858,0,0,1.9845721,2.5970481e-5,0.46284104)"
       id="c-3"
       gradientUnits="userSpaceOnUse"
       x1="6"
       x2="26"
       xlink:href="#b-3"
       y1="6"
       y2="26" />
    <filter
       inkscape:collect="always"
       style="color-interpolation-filters:sRGB"
       id="filter854"
       x="-0.059768793"
       width="1.1195376"
       y="-0.060233003"
       height="1.120466">
      <feGaussianBlur
         inkscape:collect="always"
         stdDeviation="1.3945952"
         id="feGaussianBlur856" />
    </filter>
  </defs>
  <sodipodi:namedview
     pagecolor="#ffffff"
     bordercolor="#666666"
     borderopacity="1"
     objecttolerance="10"
     gridtolerance="10"
     guidetolerance="10"
     inkscape:pageopacity="0"
     inkscape:pageshadow="2"
     inkscape:window-width="1366"
     inkscape:window-height="700"
     id="namedview17"
     showgrid="false"
     inkscape:zoom="4.9166667"
     inkscape:cx="23.734915"
     inkscape:cy="33.552611"
     inkscape:window-x="0"
     inkscape:window-y="0"
     inkscape:window-maximized="1"
     inkscape:current-layer="svg15" />
  <linearGradient
     id="a">
    <stop
       offset="0"
       stop-color="#009dff"
       id="stop2" />
    <stop
       offset="1"
       stop-color="#00ff6c"
       id="stop4" />
  </linearGradient>
  <linearGradient
     id="b"
     gradientUnits="userSpaceOnUse"
     x1="45.623821"
     x2="85.563957"
     xlink:href="#a"
     y1="20.211519"
     y2="20.211519" />
  <linearGradient
     id="c"
     gradientUnits="userSpaceOnUse"
     x1="1.531"
     x2="30.5"
     xlink:href="#a"
     y1="16"
     y2="16" />
  <rect
     id="rect836"
     y="4.4319844"
     x="4"
     width="55.999599"
     rx="27.9998"
     height="55.568016"
     style="fill:#00050b;stroke-width:1.99226391;fill-opacity:1;filter:url(#filter854);opacity:0.25"
     ry="27.784008" />
  <rect
     ry="27.784008"
     style="fill:#4f575f;stroke-width:1.99226391"
     height="55.568016"
     rx="27.9998"
     width="55.999599"
     x="4"
     y="4.4319844"
     id="rect21" />
  <path
     inkscape:connector-curvature="0"
     style="opacity:0.2;fill:url(#c-3);fill-rule:evenodd;stroke-width:1.99226391"
     d="m 37.187762,4.9241577 -5.949957,0.7541375 -8.269941,4.7391578 -3.003978,5.161872 c 0,0 -3.945972,2.758555 -4.541968,2.599788 -5.033964,-0.05755 -7.7379461,1.319741 -9.1599349,3.072117 -0.6019957,1.395155 -1.0739921,2.857785 -1.4399904,4.360105 -0.011957,1.508276 0.3219977,2.681157 0.3219977,2.681157 C 19.263891,40.908416 33.385789,46.346144 47.507689,55.368008 a 27.799801,27.58555 0 0 0 2.549982,-1.903205 l 0.138001,-0.11908 c 0.719994,-0.611249 1.405989,-1.262189 2.057985,-1.942896 0.143995,-0.150828 0.279998,-0.307609 0.419997,-0.460421 a 27.855801,27.641118 0 0 0 3.497976,-4.713359 l 0.110001,-0.17861 a 27.9818,27.766147 0 0 0 3.647973,-12.467081 l 0.0039,-0.03969 v -0.002 L 56.285627,18.383526 A 27.8998,27.684778 0 0 0 37.185763,4.9221737 Z"
     id="path23" />
  <path
     inkscape:connector-curvature="0"
     style="opacity:0.2;fill:url(#d);fill-rule:evenodd;stroke-width:1.99226391"
     d="m 58.023614,21.979569 -8.613939,13.217249 8.239942,8.176437 a 27.993799,27.778053 0 0 0 0.373997,-21.393686 z"
     id="path25" />
  <path
     inkscape:connector-curvature="0"
     style="fill:url(#e);stroke-width:1.99226403"
     d="M 31.999799,4 A 27.9998,28.000001 0 0 0 5.8819849,22 H 5.9999927 L 11.99995,20.000001 13.999936,22 l 1.999985,2 v -3.999999 l 3.999972,-2 V 16 L 23.999865,14.000001 27.999837,10 v 2.000001 L 29.999821,10 27.999837,8.000002 h 3.999969 V 10 L 35.99977,8.000002 33.999785,6.000001 V 4.0999999 a 27.9998,28.000001 0 0 0 -1.999986,-0.099992 z m 20.749853,9.250001 -0.749995,0.75 V 16 h 2.937979 a 27.9998,28.000001 0 0 0 -2.187984,-2.749999 z m 2.631981,3.368001 -1.38199,1.381999 L 49.999672,22 47.999685,24 45.9997,30.000001 v 2 L 47.999685,34 l 1.999987,2 3.999971,2.000001 5.58196,-1.376001 A 27.9998,28.000001 0 0 0 59.999599,32.000001 27.9998,28.000001 0 0 0 55.381633,16.618002 Z M 7.99997,26.000001 5.9999852,28 H 4.3239958 c -0.099997,0.680001 -0.1759976,1.362001 -0.2259977,2.046001 v 0.0039 l 3.9019719,1.95 1.9999857,2.000001 3.9999733,2 1.999985,2.000001 -1.999985,1.999998 v 4.000002 l 1.999985,3.999999 3.999971,4 v 5.257999 a 27.9998,28.000001 0 0 0 11.999914,2.742001 c 0.339998,-0.006 0.679995,-0.01799 1.019993,-0.03601 l 0.979993,-1.964001 v -1.999998 l 3.999971,-2.000001 1.999987,-1.999999 v -4.000001 l 1.999985,-1.999999 V 43.999932 L 39.999743,41.999931 33.999785,39.99993 31.999799,37.999932 29.999814,35.999931 h -1.999985 l -1.999986,-2 -5.999958,-2.000001 -3.999971,2.000001 h -3.999972 v -4 H 9.9999557 v -3.999999 z"
     id="path27" />
</svg>
