<?xml version="1.0" encoding="UTF-8" standalone="no"?>
<svg
   xmlns:dc="http://purl.org/dc/elements/1.1/"
   xmlns:cc="http://creativecommons.org/ns#"
   xmlns:rdf="http://www.w3.org/1999/02/22-rdf-syntax-ns#"
   xmlns:svg="http://www.w3.org/2000/svg"
   xmlns="http://www.w3.org/2000/svg"
   xmlns:xlink="http://www.w3.org/1999/xlink"
   xmlns:sodipodi="http://sodipodi.sourceforge.net/DTD/sodipodi-0.dtd"
   xmlns:inkscape="http://www.inkscape.org/namespaces/inkscape"
   height="48"
   width="48"
   version="1.1"
   id="svg24"
   sodipodi:docname="badland.svg"
   inkscape:version="0.92.4 5da689c313, 2019-01-14">
  <metadata
     id="metadata30">
    <rdf:RDF>
      <cc:Work
         rdf:about="">
        <dc:format>image/svg+xml</dc:format>
        <dc:type
           rdf:resource="http://purl.org/dc/dcmitype/StillImage" />
      </cc:Work>
    </rdf:RDF>
  </metadata>
  <defs
     id="defs28">
    <linearGradient
       inkscape:collect="always"
       id="linearGradient848">
      <stop
         style="stop-color:#4a4a4a;stop-opacity:1"
         offset="0"
         id="stop844" />
      <stop
         style="stop-color:#838383;stop-opacity:1"
         offset="1"
         id="stop846" />
    </linearGradient>
    <linearGradient
       inkscape:collect="always"
       xlink:href="#linearGradient848"
       id="linearGradient850"
       x1="25.522196"
       y1="42.5144"
       x2="26.33403"
       y2="14.869278"
       gradientUnits="userSpaceOnUse" />
  </defs>
  <sodipodi:namedview
     pagecolor="#ffffff"
     bordercolor="#666666"
     borderopacity="1"
     objecttolerance="10"
     gridtolerance="10"
     guidetolerance="10"
     inkscape:pageopacity="0"
     inkscape:pageshadow="2"
     inkscape:window-width="1366"
     inkscape:window-height="699"
     id="namedview26"
     showgrid="false"
     inkscape:zoom="9.8333333"
     inkscape:cx="20.413392"
     inkscape:cy="18.816683"
     inkscape:window-x="0"
     inkscape:window-y="0"
     inkscape:window-maximized="1"
     inkscape:current-layer="svg24" />
  <linearGradient
     id="a">
    <stop
       offset="0"
       stop-color="#00ff60"
       id="stop2" />
    <stop
       offset="1"
       stop-color="#00afff"
       id="stop4" />
  </linearGradient>
  <linearGradient
     id="b"
     gradientUnits="userSpaceOnUse"
     x1="7.2721208"
     x2="40.7284"
     xlink:href="#a"
     y1="24.0073544"
     y2="24.0073544" />
  <linearGradient
     id="c"
     gradientUnits="userSpaceOnUse"
     x1="34.4075256"
     x2="36.881052"
     xlink:href="#a"
     y1="36.9696256"
     y2="36.9696256" />
  <linearGradient
     id="d"
     gradientUnits="userSpaceOnUse"
     x1="21.9384488"
     x2="30.4954256"
     xlink:href="#a"
     y1="36.8541512"
     y2="36.8541512" />
  <path
     style="color:#000000;font-style:normal;font-variant:normal;font-weight:normal;font-stretch:normal;font-size:medium;line-height:normal;font-family:sans-serif;font-variant-ligatures:normal;font-variant-position:normal;font-variant-caps:normal;font-variant-numeric:normal;font-variant-alternates:normal;font-feature-settings:normal;text-indent:0;text-align:start;text-decoration:none;text-decoration-line:none;text-decoration-style:solid;text-decoration-color:#000000;letter-spacing:normal;word-spacing:normal;text-transform:none;writing-mode:lr-tb;direction:ltr;text-orientation:mixed;dominant-baseline:auto;baseline-shift:baseline;text-anchor:start;white-space:normal;shape-padding:0;clip-rule:nonzero;display:inline;overflow:visible;visibility:visible;opacity:1;isolation:auto;mix-blend-mode:normal;color-interpolation:sRGB;color-interpolation-filters:linearRGB;solid-color:#000000;solid-opacity:1;vector-effect:none;fill:url(#linearGradient850);fill-opacity:1;fill-rule:nonzero;stroke:none;stroke-width:1.18700004;stroke-linecap:butt;stroke-linejoin:miter;stroke-miterlimit:4;stroke-dasharray:none;stroke-dashoffset:0;stroke-opacity:1;color-rendering:auto;image-rendering:auto;shape-rendering:auto;text-rendering:auto;enable-background:accumulate"
     d="m 16.767578,1.8632812 c -0.195272,-0.059323 -0.573091,-0.044553 -0.791016,0.1894532 -0.217924,0.2340058 -0.216796,0.4542749 -0.216796,0.6289062 0,0.3854406 0.114028,0.7589735 0.267578,1.2109375 0.15355,0.4519641 0.357887,0.9373924 0.582031,1.359375 0.04858,0.091649 0.04295,0.1076574 0.07813,0.1816407 -0.09787,-0.045501 -0.171218,-0.1074219 -0.335938,-0.1074219 -0.281097,0 -0.593636,0.1889697 -0.732421,0.40625 -0.138785,0.2172802 -0.178744,0.4337597 -0.199219,0.6621093 -0.04095,0.4566994 0.02501,1.0021516 0.166016,1.6972657 0.156748,0.7778158 0.210064,1.4178123 0.179687,1.8730469 -0.03041,0.4557052 -0.154849,0.6931142 -0.220703,0.7558592 h 0.002 c -0.1757,0.167099 -0.395646,0.512873 -0.40625,0.851563 -0.0106,0.338689 0.06569,0.65188 0.189453,1.207031 0.03807,0.170674 0.05741,0.25971 0.08203,0.373047 -0.164015,0.0072 -0.321347,-0.0199 -0.513671,0.136718 -0.284368,0.231578 -0.307573,0.492479 -0.34961,0.707032 -0.04562,0.233039 -0.0391,0.446883 -0.02734,0.714844 0.01176,0.26796 0.03983,0.563889 0.08399,0.84375 0.01052,0.06691 0.01278,0.110148 0.02148,0.173828 -0.02185,-0.0037 -0.04458,-0.01267 -0.06641,-0.01563 -0.07207,-0.0098 -0.141935,-0.01708 -0.226563,-0.01367 -0.08365,0.0034 -0.182293,-0.0016 -0.353515,0.09766 -6.18e-4,3.59e-4 6.14e-4,0.0016 0,0.002 -0.186874,0.1093 -0.255804,0.253125 -0.292969,0.34961 -0.03729,0.0968 -0.04803,0.171082 -0.05664,0.24414 -0.01722,0.146116 -0.01449,0.285562 -0.0039,0.453125 0.02111,0.334146 0.0801,0.766531 0.175781,1.308594 -0.161723,0.07198 -0.343683,0.143333 -0.474609,0.382812 -0.138902,0.254069 -0.09464,0.474489 -0.05859,0.654297 -0.0109,1.2e-4 2.62e-4,2.92e-4 -0.166015,0.03516 -0.570821,0.120003 -0.993035,0.233939 -1.335938,0.564454 -0.171451,0.165257 -0.307607,0.428889 -0.3125,0.693359 -0.0029,0.157706 0.07535,0.271903 0.128906,0.400391 -0.07807,0.04086 -0.183252,0.108759 -0.519531,0.216796 h -0.002 c -0.500248,0.16198 -0.894851,0.353817 -1.171875,0.714844 -0.1385118,0.180514 -0.2416229,0.431019 -0.2246094,0.69336 0.013806,0.212882 0.1316308,0.383536 0.25,0.539062 -0.00693,0.0125 0.00305,-0.01235 -0.00586,0.002 h -0.00195 c -0.017527,0.02816 -0.2990086,0.283084 -0.3847656,0.322266 -0.351769,0.160722 -0.6419075,0.361606 -0.8769531,0.703125 -0.1056117,0.153814 -0.2476149,0.320002 -0.2519532,0.634766 -0.00434,0.314763 0.1415519,0.49322 0.2460938,0.644531 h -0.00195 c 0.02772,0.0402 0.010698,-3.84e-4 0.023437,0.02539 -0.2603445,0.146858 -0.5090193,0.316822 -0.7070313,0.515625 -0.1165523,0.117018 -0.2212239,0.23715 -0.3085937,0.373047 -0.08737,0.135898 -0.1816407,0.278506 -0.1816406,0.546875 0,0.233294 0.071174,0.373921 0.1484374,0.511719 0.077264,0.137798 0.1707873,0.261619 0.3066407,0.375 -0.065115,-0.05434 0.1018489,0.190469 0.1113281,0.240234 0.017807,0.09364 0.013671,0.06608 0.00781,0.08203 -0.00586,0.01595 -0.052818,0.103209 -0.1875,0.263671 l -0.00195,0.002 c -0.3518165,0.421361 -0.5834053,0.827162 -0.6269532,1.287109 -0.021774,0.229973 0.015184,0.507885 0.203125,0.738281 0.084256,0.103289 0.2193457,0.09612 0.3359376,0.150391 -0.2170048,0.299651 -0.4016053,0.553704 -0.40625,0.947265 -0.00244,0.206476 0.083381,0.443337 0.21875,0.59961 0.070687,0.0816 0.1522569,0.109743 0.2304687,0.160156 -0.044378,0.07186 -0.077507,0.132671 -0.1289063,0.210938 l -0.00195,0.002 c -0.2447106,0.375523 -0.4311436,0.662735 -0.4101562,1.105469 0.010494,0.221366 0.1495449,0.513489 0.3710937,0.654296 0.075263,0.04783 0.1397397,0.02519 0.2128906,0.04687 -0.1302436,0.319584 -0.2569673,0.642954 -0.2285156,0.984375 v 0.002 c 0.012048,0.138849 0.027028,0.270079 0.083984,0.425781 0.056956,0.155701 0.1950408,0.363169 0.4082031,0.464843 0.1121682,0.0535 0.1961852,0.02737 0.2949219,0.03125 -0.041868,0.25809 -0.1592742,0.529545 -0.068359,0.789063 0.082248,0.234778 0.2906455,0.472529 0.5371094,0.572266 0.1061956,0.04297 0.2020966,0.01115 0.3046875,0.01953 -0.102853,0.319926 -0.1985614,0.638358 -0.1542969,0.945312 0.02812,0.194999 0.092791,0.39627 0.234375,0.576172 0.1415843,0.179902 0.3767752,0.32141 0.6191406,0.353516 0.08577,0.01137 0.160951,-0.0054 0.240235,-0.0098 -0.01029,0.508761 0.03623,0.951861 0.24414,1.328125 0.180765,0.327131 0.594367,0.474045 0.982422,0.517578 0.09591,0.320613 0.282766,0.625367 0.5625,0.81836 0.225493,0.155571 0.499951,0.189778 0.771485,0.21875 0.0067,0.0818 -0.02285,0.153409 0.0078,0.236328 0.08132,0.219962 0.253085,0.39511 0.425781,0.5 0.345393,0.20978 0.711043,0.256073 1.203125,0.294922 l 0.002,0.002 0.22461,0.01758 c -0.0048,0.152956 -0.03269,0.301212 0.07617,0.488281 0.155988,0.268049 0.399955,0.366553 0.580078,0.431641 0.234566,0.08585 0.420851,0.09267 0.658203,0.101562 0.236744,0.0089 0.498526,8.62e-4 0.759766,-0.02539 0.247501,-0.02399 0.224142,-0.02771 0.296874,-0.03125 0.05403,0.147142 0.07061,0.314249 0.171876,0.417968 0.179376,0.183715 0.396586,0.291783 0.621093,0.355469 0.394151,0.111809 0.836867,0.05137 1.277344,-0.07617 l 0.361328,0.666016 1.478516,-0.06836 c 0.317923,-0.01409 0.63004,-0.03808 0.886719,-0.06641 0.08577,-0.0095 0.155705,-0.01889 0.228515,-0.0293 0.0014,0.0023 0.0044,0.0036 0.0059,0.0059 l -0.02148,0.0625 0.273438,0.259766 c 0.209741,0.19946 0.557166,0.37766 0.904296,0.390624 0.347131,0.01297 0.682434,-0.06329 1.1875,-0.1875 h 0.002 c 0.293902,-0.07252 0.466923,-0.09963 0.529296,-0.101562 0.06237,-0.0019 -0.0027,-0.01536 0.0332,0.0059 l -0.002,-0.0039 c 0.251732,0.151039 0.609953,0.186984 0.921876,0.123047 0.263331,-0.05398 0.58592,-0.181683 0.964843,-0.333984 0.220245,0.227272 0.465524,0.471251 0.763672,0.478515 0.402081,0.0098 0.792606,-0.111398 1.261719,-0.308593 0.120839,-0.0503 0.213364,-0.08716 0.316406,-0.128907 0.04596,0.07016 0.07748,0.150576 0.138672,0.210938 0.120271,0.118649 0.269207,0.259765 0.583984,0.259765 0.31689,0 0.385063,-0.08385 0.523438,-0.158203 0.137618,-0.07395 0.276207,-0.16611 0.410156,-0.273437 l 0.002,-0.002 c 0.06272,-0.04954 0.02471,-0.02654 0.06836,-0.05273 0.05194,0.04543 0.07093,0.115915 0.132812,0.146485 0.193407,0.09555 0.397659,0.103359 0.566406,0.07422 0.302424,-0.05222 0.53161,-0.218291 0.761719,-0.414062 0.1111,0.132289 0.204071,0.261677 0.421875,0.355469 0.264308,0.113817 0.619726,0.0195 0.777344,-0.07422 l 0.01758,-0.0098 0.01563,-0.0098 c 0.151909,-0.10393 0.203415,-0.287249 0.294922,-0.44336 0.04669,0.04745 0.09204,0.101278 0.140625,0.142578 0.05026,0.04272 0.09923,0.08242 0.166015,0.123047 0.06678,0.04063 0.123945,0.111328 0.373047,0.111328 0.439996,0 0.672649,-0.271066 0.833985,-0.509765 0.133885,-0.198086 0.207263,-0.437672 0.267578,-0.685547 0.218479,0.06158 0.426186,0.198054 0.632812,0.105469 0.349548,-0.156627 0.558754,-0.498555 0.615235,-0.857422 -0.02146,0.104421 -0.07996,0.107383 0.01367,0.07617 0.20535,-0.06797 0.433511,-0.194731 0.59375,-0.386719 0.159839,-0.191511 0.241985,-0.403025 0.310547,-0.630859 v -0.002 c 0.01232,-0.0407 0.0168,-0.05112 0.02734,-0.08594 0.15018,0.01107 0.292803,0.08371 0.431641,0.01758 0.270124,-0.128673 0.421532,-0.366202 0.496094,-0.585937 0.133882,-0.394556 0.04315,-0.81476 -0.128907,-1.234376 0.106437,-0.08404 0.214196,-0.171657 0.292969,-0.322265 0.09453,-0.18073 0.120193,-0.429273 0.07031,-0.623047 -0.05885,-0.228625 -0.22889,-0.343628 -0.363282,-0.488281 0.153697,-0.138334 0.261984,-0.342861 0.28711,-0.535157 0.05192,-0.397323 -0.112186,-0.696436 -0.324219,-0.980468 v -0.002 c -0.116646,-0.155063 -0.115955,-0.205378 -0.117188,-0.15625 0.225148,-0.205554 0.480476,-0.426003 0.476563,-0.6875 -0.0042,-0.2811 -0.149274,-0.52448 -0.292969,-0.769532 0.130164,-0.04388 0.265735,-0.06555 0.375,-0.171875 0.172932,-0.16827 0.26185,-0.409793 0.275391,-0.61914 0.0256,-0.395745 -0.134893,-0.719665 -0.347656,-1.074219 0.04617,-6.7e-5 0.08277,0.03218 0.130859,0.02539 0.255403,-0.03603 0.529667,-0.223255 0.646484,-0.466797 0.18957,-0.395217 -0.0173,-0.730851 -0.224609,-1.050781 0.173546,-0.07962 0.3732,-0.09859 0.472656,-0.248047 0.182473,-0.274218 0.237421,-0.555988 0.291016,-0.910157 0.03599,-0.236451 0.0603,-0.428336 0.02539,-0.652343 -0.01949,-0.125055 -0.123058,-0.223648 -0.197266,-0.341797 0.228821,-0.14791 0.450903,-0.312705 0.583984,-0.552735 l 0.0078,-0.01563 0.0078,-0.01367 c 0.07805,-0.161209 0.168905,-0.374609 0.125,-0.646484 -0.03957,-0.245018 -0.172533,-0.391405 -0.287109,-0.515625 0.07782,-0.19156 0.216967,-0.375438 0.191406,-0.568359 -0.02455,-0.185331 -0.251633,-0.306207 -0.396484,-0.470703 0.02481,-0.04507 -0.0069,0.02648 0.06836,-0.05859 0.10812,-0.122136 0.201373,-0.235063 0.28125,-0.376953 0.07988,-0.141891 0.157763,-0.339881 0.125,-0.576172 -0.03276,-0.236292 -0.182677,-0.429516 -0.314453,-0.539063 -0.08405,-0.06987 -0.168897,-0.10756 -0.253906,-0.152343 0.03037,-0.0723 0.0096,0.0048 0.105468,-0.158204 v -0.002 c 0.139912,-0.239238 0.242653,-0.417951 0.298829,-0.658203 0.05618,-0.240251 -0.0039,-0.553036 -0.105469,-0.734375 C 40.268402,24.41822 39.939773,24.25 39.525391,24.25 c 0.07186,0 0.148904,0.04346 0.171875,0.06641 0.02297,0.02294 0.0146,0.0195 0.0098,0.002 -0.0097,-0.03509 0.01332,-0.07146 -0.02148,-0.03516 l 0.01172,-0.01172 0.01172,-0.01172 c 0.200002,-0.233716 0.317631,-0.528764 0.333985,-0.835938 v -0.01563 -0.01563 c 0,-0.0787 0.0104,-0.168983 -0.04297,-0.333984 -0.05337,-0.165002 -0.264648,-0.389865 -0.445312,-0.451172 -0.239648,-0.08132 -0.359437,-0.02552 -0.503907,0.002 0.127439,-0.448855 0.217334,-0.887639 -0.01953,-1.275391 -0.140741,-0.230395 -0.435147,-0.435913 -0.746094,-0.445312 -0.133224,-0.004 -0.219847,0.09068 -0.333984,0.132812 -0.01563,-0.05627 -0.0015,-0.0081 -0.01367,-0.08008 -0.05573,-0.332648 -0.126423,-0.615832 -0.320312,-0.876953 -0.19389,-0.261121 -0.562687,-0.425781 -0.865235,-0.425781 0.09309,0 0.217702,0.120862 0.1875,0.06641 -0.0302,-0.05446 -0.102196,-0.255981 -0.15625,-0.570312 l 0.002,0.002 c -0.03061,-0.18145 -0.08462,-0.349625 -0.152344,-0.507813 -0.06772,-0.158187 -0.126209,-0.29652 -0.294921,-0.458984 l -0.002,-0.002 -0.002,-0.002 c -0.05622,-0.05307 -0.119262,-0.113438 -0.226562,-0.175782 -0.1073,-0.06234 -0.276078,-0.114227 -0.425781,-0.109375 -0.258969,0.0084 -0.38025,0.101567 -0.525391,0.1875 -0.02299,-0.351647 -0.114117,-0.632698 -0.34375,-0.902343 -0.122623,-0.143924 -0.267107,-0.331143 -0.574219,-0.402344 -0.133244,-0.03089 -0.198572,0.02828 -0.300781,0.04687 -0.01787,-0.182689 -0.03987,-0.339069 -0.07422,-0.976563 -0.05745,-1.07063 -0.09183,-1.688924 -0.308593,-2.1875 -0.05419,-0.124644 -0.11904,-0.265775 -0.308594,-0.394531 -0.166759,-0.113272 -0.438254,-0.09828 -0.628906,-0.03906 -0.03241,-0.382915 -0.06575,-0.778014 -0.0918,-1.261719 -0.13697,-2.5701937 -0.33187,-3.5265761 -0.972657,-4.7343751 v -0.00195 C 31.37958,6.8891032 31.219943,6.6444142 31.007812,6.4472656 30.901747,6.3486914 30.779484,6.2542188 30.595703,6.2011719 30.411922,6.1481249 30.149274,6.174257 29.96875,6.2890625 c -0.361047,0.229611 -0.402135,0.5302901 -0.445312,0.8183594 -0.01115,0.074361 0.0017,0.1830894 -0.0039,0.2636719 C 28.90963,6.4252274 28.27362,5.6029479 27.533203,5.15625 27.23992,4.9796705 27.025754,4.8474479 26.693359,4.8125 26.527162,4.795026 26.272416,4.822953 26.078125,5.0019531 c -0.194291,0.1789997 -0.241669,0.4161061 -0.244141,0.5800781 -0.0049,0.3279442 0.09511,0.5704875 0.236328,0.90625 0.141217,0.3357626 0.341393,0.7388527 0.605469,1.2285157 h 0.002 v 0.00195 c 0.214998,0.3961845 0.366742,0.7132009 0.484375,0.9824219 -0.149484,-0.065144 -0.242642,-0.2284816 -0.447265,-0.1933594 -0.236933,0.040668 -0.447642,0.209284 -0.554688,0.375 -0.107045,0.165716 -0.149228,0.3274713 -0.173828,0.4902344 -0.0984,0.6510522 0.07269,1.4516202 0.441406,2.4589842 v 0.002 c 0.132405,0.361586 0.224963,0.656007 0.271485,0.853516 0.02326,0.09875 0.03446,0.173864 0.03711,0.207031 0.0026,0.03257 -0.01923,0.02174 0.0293,-0.09766 -0.07216,0.174282 -0.08674,0.297217 -0.109375,0.455078 -0.02264,0.157861 -0.03739,0.326108 -0.04102,0.492188 v 0.002 0.002 c -0.0015,0.08894 -0.01856,0.182227 -0.03516,0.236328 -0.0166,0.0541 -0.06649,0.06141 0.06055,-0.03906 -0.319941,0.252401 -0.305018,0.593335 -0.306641,0.923829 -0.06153,-0.02139 -0.09232,-0.02781 -0.171875,-0.05859 -0.206625,-0.07992 -0.37712,-0.183965 -0.705078,-0.128906 -0.163979,0.02753 -0.317418,0.117824 -0.410156,0.199218 -0.08126,0.07132 -0.128477,0.133095 -0.177734,0.195313 -0.01898,-0.0029 0.02763,4.28e-4 -0.01758,-0.01172 h 0.0039 c -0.07952,-0.02189 -0.531868,-0.223106 -0.775391,-0.376953 h -0.002 c -0.344934,-0.216917 -0.664178,-0.384569 -1.087891,-0.324219 -0.211856,0.03018 -0.437649,0.151267 -0.578125,0.31836 -0.01542,0.01834 -0.01366,0.03981 -0.02734,0.05859 0.0046,-0.294131 0.0074,-0.577972 0.01953,-0.929687 0.01831,-0.52937 0.02442,-1.048004 0.01953,-1.464844 -0.0024,-0.20842 -0.0073,-0.390387 -0.01563,-0.541015 -0.0083,-0.149908 -0.0057,-0.235584 -0.04883,-0.400391 v -0.002 L 21.978516,9.9511719 21.582031,10.423828 c 0.0051,-0.301502 0.0069,-0.5933284 0.02344,-0.939453 0.0785,-1.6645794 0.04795,-2.207147 -0.19336,-3.4765625 C 21.276903,5.2928582 21.14158,4.737629 20.992188,4.3222656 20.917491,4.1145839 20.844698,3.9428861 20.732422,3.7792969 20.620146,3.6157076 20.425648,3.3828125 20.058594,3.3828125 c -0.153778,0 -0.394682,0.070136 -0.544922,0.2167969 -0.15024,0.1466612 -0.205494,0.3026248 -0.244141,0.4414062 -0.05043,0.1810805 -0.06097,0.4437359 -0.08008,0.6855469 C 18.802478,3.9131517 18.408581,3.0854247 17.794922,2.5527344 17.396095,2.2057921 17.158122,1.9819276 16.767578,1.8632812 Z M 39.974609,27.697266 h 0.002 c -0.04497,-0.01121 -0.03821,-0.02662 0.04102,0.03711 0.0054,0.0044 0.0061,0.02157 0.01172,0.02734 -0.03139,-0.01173 -0.02066,-0.05603 -0.05469,-0.06445 z m -0.441406,0.929687 c -0.01253,0.01167 -0.01044,0.05325 -0.02344,0.06836 -5.22e-4,-0.0017 -0.01358,-0.01103 -0.01367,-0.01172 -0.0013,-0.0098 -0.01058,-0.01066 0.03125,-0.05078 z m -0.388672,2.861328 c 0.0031,0.0025 0.0047,0.0073 0.0078,0.0098 l -0.0039,-0.002 c -9.18e-4,-7.35e-4 -0.0027,-0.0065 -0.0039,-0.0078 z m -0.789062,6.402344 c -0.01619,0.04822 -0.01962,0.0943 -0.05078,0.128906 -0.05562,0.06176 -0.09558,0.06952 -0.08594,0.06641 0.08443,-0.02575 0.06608,-0.144993 0.136719,-0.195313 z m -28.291016,0.304687 c 0.0017,5.97e-4 0.0022,0.0033 0.0039,0.0039 -0.01777,0.01753 -0.06227,0.03189 -0.080078,0.04883 0.080982,-0.07672 0.074873,-0.05755 0.076172,-0.05273 z m 11.693359,6.708985 c 10e-7,0.07812 0.03331,0.09271 0.04492,0.148437 -0.0025,-0.0055 -0.01363,-0.01247 -0.01563,-0.01758 -0.03319,-0.0849 -0.0293,-0.122474 -0.0293,-0.130859 z m 8.765626,0.478515 c 0.01864,0.04611 0.07902,0.0722 0.107421,0.117188 -0.0012,-8.85e-4 -0.0027,-0.0011 -0.0039,-0.002 -0.09298,-0.06936 -0.106694,-0.123103 -0.103515,-0.115235 z m -4.052735,0.115235 c 0.02044,0.04429 0.09342,0.03534 0.121094,0.07617 -0.011,-0.0047 -0.02578,0.0018 -0.03516,-0.0039 -0.09488,-0.05808 -0.09742,-0.09641 -0.08594,-0.07227 z"
     id="path10"
     inkscape:connector-curvature="0"
     sodipodi:nodetypes="scssccssscccccccccscccccccscccccscccccscccscccccscsccccccssccccccccccccccsccscccccsccccccccccccsccccccccccccccccccccsccccccccccccccscccccccccccccccccccccccccccccccccccccccccccccccccccccccsccccccccccccccccccccccccccccccsccccscccccccscsccscccccccccccsccccccccccccccccccssccccscccccccccccccccccccccccccccccccccccccccc" />
  <path
     d="m27.62 32.656a2.54 2.54 0 0 0 -.505.046c-1.414.273-3.096 1.274-3.993 2.382-.665.818-1.03 1.77-1.118 2.921l-.065.856.669.695c1.13 1.176 2.316 1.55 4.72 1.49 1.072-.025 1.445-.085 1.87-.292.71-.349 1.02-.753 1.198-1.57.19-.864.091-3.628-.157-4.467-.365-1.23-1.446-2.05-2.618-2.061zm1.296 2.857c.278 0 .326.054.326.376 0 .268-.072.393-.245.436-.226.056-.23.092-.063.47.22.5.235 1.747.027 2.18-.283.59-1.324.883-2.207.624-.614-.181-.825-.526-.828-1.347-.005-1.468 1.38-2.739 2.99-2.739z"
     fill="url(#d)"
     id="path12"
     style="fill:#20fc74;fill-opacity:1" />
  <path
     d="m28.01 38.898c.885-.383.735-2.05-.183-2.05-.442 0-1.137.756-1.134 1.232.002.464.084.614.444.807.325.176.488.178.873.01z"
     fill="#fff"
     id="path14" />
  <path
     d="m36.422 40.076c.362-.262.511-1.411.442-3.409-.066-1.897-.236-2.666-.643-2.899-.192-.11-.284-.072-.529.216-.447.526-1.199 2.504-1.214 3.19-.002.078.164-.018.369-.212.263-.25.499-.355.799-.355.388 0 .452.055.726.623.345.716.33 1.677-.032 2.022-.433.412-1.76.113-1.904-.429-.031-.118-.038-.032-.015.19.053.513.243.73.883 1.007.606.262.818.273 1.118.056z"
     fill="url(#c)"
     id="path16"
     style="fill:#20fc74;fill-opacity:1" />
</svg>
