<?xml version="1.0" encoding="UTF-8" standalone="no"?>
<svg
   xmlns:dc="http://purl.org/dc/elements/1.1/"
   xmlns:cc="http://creativecommons.org/ns#"
   xmlns:rdf="http://www.w3.org/1999/02/22-rdf-syntax-ns#"
   xmlns:svg="http://www.w3.org/2000/svg"
   xmlns="http://www.w3.org/2000/svg"
   xmlns:xlink="http://www.w3.org/1999/xlink"
   xmlns:sodipodi="http://sodipodi.sourceforge.net/DTD/sodipodi-0.dtd"
   xmlns:inkscape="http://www.inkscape.org/namespaces/inkscape"
   viewBox="0 0 64 64"
   version="1.1"
   id="svg18"
   sodipodi:docname="partitions.svg"
   inkscape:version="0.92.4 5da689c313, 2019-01-14"
   width="64"
   height="64">
  <metadata
     id="metadata24">
    <rdf:RDF>
      <cc:Work
         rdf:about="">
        <dc:format>image/svg+xml</dc:format>
        <dc:type
           rdf:resource="http://purl.org/dc/dcmitype/StillImage" />
        <dc:title></dc:title>
      </cc:Work>
    </rdf:RDF>
  </metadata>
  <defs
     id="defs22">
    <linearGradient
       gradientUnits="userSpaceOnUse"
       x2="0"
       y2="7"
       y1="41"
       id="a-8">
      <stop
         id="stop849"
         stop-color="#728790" />
      <stop
         id="stop851"
         stop-color="#85969e"
         offset="1" />
    </linearGradient>
    <linearGradient
       gradientUnits="userSpaceOnUse"
       x2="0"
       y2="12"
       y1="36"
       id="b-2">
      <stop
         id="stop854"
         stop-color="#06a370" />
      <stop
         id="stop856"
         stop-color="#22d1b0"
         offset="1" />
    </linearGradient>
    <linearGradient
       gradientUnits="userSpaceOnUse"
       x2="0"
       y2="4"
       y1="44"
       id="c">
      <stop
         id="stop859"
         stop-color="#2a2c2f" />
      <stop
         id="stop861"
         stop-color="#424649"
         offset="1" />
    </linearGradient>
    <linearGradient
       gradientUnits="userSpaceOnUse"
       x2="44"
       y2="44"
       x1="15"
       y1="15"
       id="d">
      <stop
         id="stop864"
         stop-color="#020303"
         style="stop-color:#575757;stop-opacity:1" />
      <stop
         id="stop866"
         stop-opacity="0"
         stop-color="#424649"
         offset="1"
         style="stop-color:#505050;stop-opacity:1" />
    </linearGradient>
    <linearGradient
       y2="505.798"
       y1="557.79797"
       x2="388.423"
       x1="388.423"
       gradientUnits="userSpaceOnUse"
       gradientTransform="matrix(1.17392,0,0,1.07692,-455.97601,-540.706)"
       id="b-6">
      <stop
         id="stop31"
         stop-color="#7f8c8d"
         offset="0" />
      <stop
         id="stop33"
         stop-color="#afb0b3"
         offset="1" />
    </linearGradient>
    <linearGradient
       y2="-493.20401"
       y1="-504.20401"
       xlink:href="#a-7"
       x2="-410.44699"
       x1="-421.44699"
       id="c-6"
       gradientTransform="scale(2)" />
    <linearGradient
       gradientUnits="userSpaceOnUse"
       id="a-7">
      <stop
         id="stop2-6"
         stop-color="#292c2f"
         offset="0" />
      <stop
         id="stop4-4"
         stop-opacity="0"
         offset="1" />
    </linearGradient>
    <linearGradient
       y2="9.7139997"
       y1="48.714001"
       x2="1.3329999"
       x1="1.3329999"
       gradientUnits="userSpaceOnUse"
       gradientTransform="matrix(1.04348,0,0,1.07692,-1.392,-2.4599993)"
       id="d-2">
      <stop
         id="stop26"
         stop-color="#eef1f2"
         offset="0" />
      <stop
         id="stop28-9"
         stop-color="#f9fafb"
         offset="1" />
    </linearGradient>
    <linearGradient
       y2="6"
       y1="22"
       x2="16"
       x1="16"
       gradientUnits="userSpaceOnUse"
       id="e-9"
       gradientTransform="scale(2)">
      <stop
         id="stop8"
         stop-color="#73ba25"
         offset="0" />
      <stop
         id="stop10"
         stop-color="#81c13b"
         offset="1" />
    </linearGradient>
    <linearGradient
       y2="6"
       y1="22"
       x2="16"
       x1="16"
       gradientUnits="userSpaceOnUse"
       id="f-6"
       gradientTransform="scale(2)">
      <stop
         id="stop13"
         stop-color="#173f4f"
         offset="0" />
      <stop
         id="stop15"
         stop-color="#2f5361"
         offset="1" />
    </linearGradient>
    <linearGradient
       y2="6"
       y1="22"
       x2="16"
       x1="16"
       gradientUnits="userSpaceOnUse"
       id="g-8"
       gradientTransform="scale(2)">
      <stop
         id="stop18"
         stop-color="#35b9ab"
         offset="0" />
      <stop
         id="stop20"
         stop-color="#4ac0b4"
         offset="1" />
    </linearGradient>
    <linearGradient
       y2="24"
       y1="9.9860001"
       xlink:href="#a-7"
       x2="23.101999"
       x1="9.0880003"
       id="h-2"
       gradientTransform="scale(2)" />
    <linearGradient
       y2="27"
       y1="14"
       xlink:href="#a-7"
       x2="21"
       x1="8"
       id="i"
       gradientTransform="scale(2)" />
    <linearGradient
       y2="23"
       y1="14"
       xlink:href="#a-7"
       x2="25"
       x1="16"
       id="j"
       gradientTransform="matrix(2,0,0,2,-1,5)" />
  </defs>
  <sodipodi:namedview
     pagecolor="#ffffff"
     bordercolor="#666666"
     borderopacity="1"
     objecttolerance="10"
     gridtolerance="10"
     guidetolerance="10"
     inkscape:pageopacity="0"
     inkscape:pageshadow="2"
     inkscape:window-width="1366"
     inkscape:window-height="700"
     id="namedview20"
     showgrid="true"
     inkscape:zoom="1.7383042"
     inkscape:cx="39.35168"
     inkscape:cy="28.668281"
     inkscape:window-x="0"
     inkscape:window-y="0"
     inkscape:window-maximized="1"
     inkscape:current-layer="g887">
    <inkscape:grid
       type="xygrid"
       id="grid918" />
  </sodipodi:namedview>
  <linearGradient
     id="a">
    <stop
       offset="0"
       stop-color="#b3f100"
       id="stop2" />
    <stop
       offset="1"
       stop-color="#00fff5"
       id="stop4" />
  </linearGradient>
  <linearGradient
     gradientUnits="userSpaceOnUse"
     x1="7.3759999"
     x2="42.773998"
     xlink:href="#a"
     y1="11.049"
     y2="43.018002"
     id="linearGradient7" />
  <linearGradient
     id="b"
     gradientTransform="rotate(135.785,23.439,28.526)"
     gradientUnits="userSpaceOnUse"
     x1="7.3759999"
     x2="42.773998"
     xlink:href="#a"
     y1="11.049"
     y2="43.018002" />
  <g
     id="g916"
     transform="translate(1,17)">
    <g
       id="g887"
       style="stroke-width:2.79999995;stroke-opacity:0.55">
      <g
         id="g885"
         style="fill-opacity:0.11799999" />
      <g
         id="g933"
         transform="translate(-1,-17)">
        <path
           id="path36"
           d="M 8,4.0000007 H 56 V 60 H 8 Z"
           style="fill:url(#b-6);stroke-width:2"
           inkscape:connector-curvature="0" />
        <path
           id="path38"
           d="m 14,54 h 36 v 6 H 14 Z"
           style="fill:#121212;fill-opacity:1;stroke-width:2"
           inkscape:connector-curvature="0" />
        <path
           id="path40"
           d="m 18,56 h 18 v 2 H 18 Z m 20,0 h 8 v 2 h -8 z"
           style="fill:#ff9e07;fill-opacity:1;stroke-width:2"
           inkscape:connector-curvature="0" />
        <path
           id="path42"
           d="m 48,54 h 8 v 6 H 48 Z M 8,54 h 8 v 6 H 8 Z"
           style="opacity:0.2;fill:#292c2f;stroke-width:2"
           inkscape:connector-curvature="0" />
        <path
           id="path44"
           d="m 8,54 h 8 v 6 h -2 z m 40,0 h 8 v 6 h -8 z"
           style="opacity:0.2;fill:#292c2f;stroke-width:2"
           inkscape:connector-curvature="0" />
        <path
           id="path46"
           d="M 49.07,10.93 56,17.856 V 60 H 28 L 12,44 Z"
           style="opacity:0.2;fill:url(#c-6);stroke-width:2"
           inkscape:connector-curvature="0" />
        <path
           id="path48"
           d="M 22,8.0000007 A 10,10 0 0 0 12,18 v 9.536 A 6,6 0 0 1 13.992,31.77 4,4 0 0 1 14,32 a 4,4 0 0 1 -0.02,0.4 6,6 0 0 1 0,0.01 A 6,6 0 0 1 12,36.46 V 44 l 6,6 h 28 l 6,-6 V 36.464 A 6,6 0 0 1 50.008,32.23 4,4 0 0 1 50,32 4,4 0 0 1 50.02,31.59 6,6 0 0 1 52,27.54 V 18 A 10,10 0 0 0 42,8.0000007 Z"
           style="fill:url(#d-2);stroke-width:2"
           inkscape:connector-curvature="0" />
        <path
           id="path50"
           d="M 32,12 A 16,16 0 0 0 18.176,19.972 L 32,26.882 45.816,19.972 A 16,16 0 0 0 32,12 Z"
           style="fill:#ffe231;fill-opacity:1;stroke-width:2"
           inkscape:connector-curvature="0" />
        <path
           id="path52"
           d="M 17.27,21.754 A 16,16 0 0 0 16,28 16,16 0 0 0 31,43.95 V 28.618 Z"
           style="fill:#d67504;fill-opacity:1;stroke-width:2"
           inkscape:connector-curvature="0" />
        <path
           id="path54"
           d="M 46.714,21.758 33,28.618 V 43.964 A 16,16 0 0 0 48,28 16,16 0 0 0 46.714,21.758 Z"
           style="fill:#f5a91b;fill-opacity:1;stroke-width:2"
           inkscape:connector-curvature="0" />
        <path
           id="path62"
           d="m 8,58 h 6 v 2 H 8 Z m 42,0 h 6 v 2 h -6 z"
           style="opacity:0.2;fill:#292c2f;stroke-width:2"
           inkscape:connector-curvature="0" />
      </g>
    </g>
  </g>
</svg>
