<?xml version="1.0" encoding="UTF-8" standalone="no"?>
<svg
   xmlns:dc="http://purl.org/dc/elements/1.1/"
   xmlns:cc="http://creativecommons.org/ns#"
   xmlns:rdf="http://www.w3.org/1999/02/22-rdf-syntax-ns#"
   xmlns:svg="http://www.w3.org/2000/svg"
   xmlns="http://www.w3.org/2000/svg"
   xmlns:xlink="http://www.w3.org/1999/xlink"
   xmlns:sodipodi="http://sodipodi.sourceforge.net/DTD/sodipodi-0.dtd"
   xmlns:inkscape="http://www.inkscape.org/namespaces/inkscape"
   viewBox="0 0 64 64"
   version="1.1"
   id="svg48"
   sodipodi:docname="darktable.svg"
   width="64"
   height="64"
   inkscape:version="0.92.4 5da689c313, 2019-01-14">
  <metadata
     id="metadata54">
    <rdf:RDF>
      <cc:Work
         rdf:about="">
        <dc:format>image/svg+xml</dc:format>
        <dc:type
           rdf:resource="http://purl.org/dc/dcmitype/StillImage" />
        <dc:title></dc:title>
      </cc:Work>
    </rdf:RDF>
  </metadata>
  <defs
     id="defs52">
    <linearGradient
       id="linearGradient4212">
      <stop
         id="stop864"
         offset="0"
         style="stop-color:#cd7223;stop-opacity:1" />
      <stop
         id="stop866"
         offset="1"
         style="stop-color:#ffc169;stop-opacity:1" />
    </linearGradient>
    <linearGradient
       id="linearGradient4204">
      <stop
         id="stop869"
         offset="0"
         style="stop-color:#ffa92d;stop-opacity:1" />
      <stop
         id="stop871"
         offset="1"
         style="stop-color:#edf573;stop-opacity:1" />
    </linearGradient>
    <linearGradient
       id="linearGradient4196">
      <stop
         id="stop874"
         offset="0"
         style="stop-color:#2b4d37;stop-opacity:1" />
      <stop
         id="stop876"
         offset="1"
         style="stop-color:#3bb566;stop-opacity:1" />
    </linearGradient>
    <linearGradient
       id="linearGradient4188">
      <stop
         id="stop879"
         offset="0"
         style="stop-color:#375a7d;stop-opacity:1" />
      <stop
         id="stop881"
         offset="1"
         style="stop-color:#54a3d8;stop-opacity:1" />
    </linearGradient>
    <linearGradient
       id="linearGradient4174">
      <stop
         id="stop884"
         offset="0"
         style="stop-color:#68377d;stop-opacity:1" />
      <stop
         id="stop886"
         offset="1"
         style="stop-color:#cb7cec;stop-opacity:1" />
    </linearGradient>
    <linearGradient
       id="linearGradient4166">
      <stop
         id="stop889"
         offset="0"
         style="stop-color:#bf4231;stop-opacity:1" />
      <stop
         id="stop891"
         offset="1"
         style="stop-color:#f58273;stop-opacity:1" />
    </linearGradient>
    <linearGradient
       id="linearGradient4366">
      <stop
         id="stop894"
         offset="0"
         style="stop-color:#010609;stop-opacity:1;" />
      <stop
         id="stop896"
         offset="1"
         style="stop-color:#010609;stop-opacity:0;" />
    </linearGradient>
    <linearGradient
       gradientTransform="matrix(0.09374597,0,0,0.09374052,-0.00430735,0.00650676)"
       x2="220.97"
       gradientUnits="userSpaceOnUse"
       x1="272.35"
       y2="231.54"
       y1="268.7"
       id="m">
      <stop
         id="stop899"
         offset="0"
         stop-color="#b0b0b0" />
      <stop
         id="stop901"
         offset="1"
         stop-color="#ffffff" />
    </linearGradient>
    <linearGradient
       gradientUnits="userSpaceOnUse"
       y2="32.703"
       x2="42.144"
       y1="6.277"
       x1="15.718"
       id="linearGradient4372"
       xlink:href="#linearGradient4366"
       gradientTransform="translate(26.709118,4.3145499)" />
    <linearGradient
       gradientUnits="userSpaceOnUse"
       y2="6.458"
       x2="13.091"
       y1="22.219"
       x1="21.523"
       id="linearGradient4172"
       xlink:href="#linearGradient4166" />
    <linearGradient
       gradientTransform="translate(-0.09345477)"
       gradientUnits="userSpaceOnUse"
       y2="11.505"
       x2="5.917"
       y1="29.54"
       x1="16.92"
       id="linearGradient4180"
       xlink:href="#linearGradient4174" />
    <linearGradient
       gradientUnits="userSpaceOnUse"
       y2="30.856"
       x2="14.308"
       y1="41.488"
       x1="21.153"
       id="linearGradient4194"
       xlink:href="#linearGradient4188" />
    <linearGradient
       gradientUnits="userSpaceOnUse"
       y2="31.491"
       x2="25.384"
       y1="41.037"
       x1="33.954"
       id="linearGradient4202"
       xlink:href="#linearGradient4196" />
    <linearGradient
       gradientUnits="userSpaceOnUse"
       y2="18.776"
       x2="29.652"
       y1="31.19"
       x1="42.56"
       id="linearGradient4210"
       xlink:href="#linearGradient4204" />
    <linearGradient
       gradientUnits="userSpaceOnUse"
       y2="7.317"
       x2="24.036"
       y1="16.121"
       x1="40.262"
       id="linearGradient4218"
       xlink:href="#linearGradient4212" />
    <filter
       inkscape:collect="always"
       style="color-interpolation-filters:sRGB"
       id="filter1000"
       x="-0.06"
       width="1.12"
       y="-0.06"
       height="1.12">
      <feGaussianBlur
         inkscape:collect="always"
         stdDeviation="0.975"
         id="feGaussianBlur1002" />
    </filter>
  </defs>
  <sodipodi:namedview
     pagecolor="#ffffff"
     bordercolor="#666666"
     borderopacity="1"
     objecttolerance="10"
     gridtolerance="10"
     guidetolerance="10"
     inkscape:pageopacity="0"
     inkscape:pageshadow="2"
     inkscape:window-width="1366"
     inkscape:window-height="700"
     id="namedview50"
     showgrid="false"
     inkscape:zoom="6.9532167"
     inkscape:cx="10.896676"
     inkscape:cy="25.145953"
     inkscape:window-x="0"
     inkscape:window-y="0"
     inkscape:window-maximized="1"
     inkscape:current-layer="g980" />
  <linearGradient
     id="a"
     gradientUnits="userSpaceOnUse"
     x1="9.3304901"
     x2="21.254818"
     y1="22.183046"
     y2="22.183046">
    <stop
       offset="0"
       stop-color="#b920c1"
       id="stop2" />
    <stop
       offset="1"
       stop-color="#9400ff"
       id="stop4" />
  </linearGradient>
  <linearGradient
     id="b"
     gradientUnits="userSpaceOnUse"
     x1="13.031829"
     x2="25.522902"
     y1="16.139986"
     y2="16.139986">
    <stop
       offset="0"
       stop-color="#ff0067"
       id="stop7" />
    <stop
       offset="1"
       stop-color="#ff0067"
       id="stop9" />
  </linearGradient>
  <linearGradient
     id="c"
     gradientUnits="userSpaceOnUse"
     x1="23.013712"
     x2="37.451962"
     y1="15.214651"
     y2="15.214651">
    <stop
       offset="0"
       stop-color="#ff7500"
       id="stop12" />
    <stop
       offset="1"
       stop-color="#ff3f00"
       id="stop14" />
  </linearGradient>
  <linearGradient
     id="d"
     gradientUnits="userSpaceOnUse"
     x1="26.742489"
     x2="38.667763"
     y1="25.825724"
     y2="25.825724">
    <stop
       offset="0"
       stop-color="#fff006"
       id="stop17" />
    <stop
       offset="1"
       stop-color="#ff7b00"
       id="stop19" />
  </linearGradient>
  <linearGradient
     id="e"
     gradientUnits="userSpaceOnUse"
     x1="22.472513"
     x2="34.963585"
     y1="31.876352"
     y2="31.876352">
    <stop
       offset="0"
       stop-color="#00ff6f"
       id="stop22" />
    <stop
       offset="1"
       stop-color="#1eff01"
       id="stop24" />
  </linearGradient>
  <linearGradient
     id="f"
     gradientUnits="userSpaceOnUse"
     x1="10.549131"
     x2="24.994949"
     y1="32.787495"
     y2="32.787495">
    <stop
       offset="0"
       stop-color="#00b2ff"
       id="stop27" />
    <stop
       offset="1"
       stop-color="#002dff"
       id="stop29" />
  </linearGradient>
  <g
     id="g980"
     transform="matrix(1.4,0,0,1.4,-1.5999999,-1.5999995)">
    <circle
       style="opacity:0.25;fill:#00060b;fill-opacity:1;stroke:none;stroke-width:2;stroke-linecap:round;stroke-linejoin:round;stroke-miterlimit:4;stroke-dasharray:none;stroke-opacity:0;filter:url(#filter1000)"
       cx="24"
       cy="24"
       r="19.5"
       id="circle982" />
    <circle
       id="circle913"
       r="19.5"
       cy="24"
       cx="24"
       style="opacity:1;fill:#33393e;fill-opacity:1;stroke:none;stroke-width:2;stroke-linecap:round;stroke-linejoin:round;stroke-miterlimit:4;stroke-dasharray:none;stroke-opacity:0" />
    <path
       id="path915"
       d="M 27.639543,4.3791865 22.871166,17.863372 41.644613,14.725425 C 38.863143,9.4194589 33.738446,5.5209766 27.635595,4.3791865"
       style="fill:#ff8232;fill-opacity:1"
       inkscape:connector-curvature="0" />
    <path
       id="path917"
       d="M 42.879397,17.663855 28.740089,20.303998 40.864854,34.88849 c 3.235508,-5.045211 4.072515,-11.403086 2.014543,-17.224635"
       style="fill:#f1cf08;fill-opacity:1"
       inkscape:connector-curvature="0" />
    <path
       id="path919"
       d="M 39.039822,37.101943 29.668891,26.2579 23.016261,43.981327 c 6.015991,0.259767 11.977696,-2.198638 16.024548,-6.879384"
       style="fill:#19ab6a;fill-opacity:1"
       inkscape:connector-curvature="0" />
    <path
       id="path921"
       d="M 20.236764,43.630691 25.005141,30.146505 6.2316934,33.284452 C 9.0131642,38.590418 14.137861,42.4889 20.240712,43.630691"
       style="fill:#137ee8;fill-opacity:1"
       inkscape:connector-curvature="0" />
    <path
       id="path923"
       d="M 5.1206032,30.326268 19.259911,27.686125 7.1351461,13.101633 C 3.8996383,18.146844 3.0626307,24.504719 5.1206032,30.326268"
       style="fill:#bf1ad4;fill-opacity:1"
       inkscape:connector-curvature="0" />
    <circle
       id="circle925"
       r="3"
       cx="24"
       cy="24"
       style="fill:url(#m)" />
    <path
       id="path929"
       d="M 8.9154475,10.898057 18.286378,21.7421 24.939009,4.0186732 C 18.923017,3.7589061 12.961313,6.2173106 8.9144604,10.898057"
       style="fill:#ff5a43;fill-opacity:1"
       inkscape:connector-curvature="0" />
    <path
       id="path931"
       d="m 4.0175781,23.490234 c -0.035404,2.288319 0.3134534,4.601027 1.1035157,6.835938 l 0.2519531,-0.04687 A 20,20 0 0 1 4.0175781,23.490234 Z m 39.9687499,0.234375 c -0.09564,3.595512 -1.167958,7.118488 -3.121094,10.164063 l -0.06445,-0.07813 a 20,20 0 0 1 -0.359375,0.568359 l 0.423828,0.509766 c 2.133712,-3.327152 3.216233,-7.225462 3.121094,-11.164063 z m -37.2402342,9.47461 -0.5136719,0.08594 c 2.7808983,5.304874 7.9027141,9.203013 14.0039061,10.345703 l 0.335938,-0.947265 A 20,20 0 0 1 19.619141,42.49805 C 19.136426,42.39172 18.658302,42.27316 18.189453,42.132815 A 20,20 0 0 1 18.125,42.115234 20,20 0 0 1 17.96875,42.0625 C 17.370002,41.875645 16.783875,41.661794 16.210938,41.421875 12.23757,39.758017 8.9180536,36.856947 6.7460938,33.199219 Z m 31.8710942,3.414062 a 20,20 0 0 1 -12.003907,6.191407 c -0.06954,0.0095 -0.139329,0.01659 -0.208984,0.02539 a 20,20 0 0 1 -1.923828,0.152344 c -0.0098,2.92e-4 -0.01951,0.0017 -0.0293,0.002 a 20,20 0 0 1 -0.01758,0 A 20,20 0 0 1 24,43 20,20 0 0 1 23.714844,42.986328 c -0.108792,-8.99e-4 -0.217305,0.0027 -0.326172,0 l -0.373047,0.994141 c 6.015991,0.259767 11.978539,-2.19816 16.025391,-6.878907 h -0.002 z"
       style="opacity:0.15;fill:#000000;fill-opacity:1"
       inkscape:connector-curvature="0" />
  </g>
</svg>
