<?xml version="1.0" encoding="UTF-8" standalone="no"?>
<svg
   xmlns:dc="http://purl.org/dc/elements/1.1/"
   xmlns:cc="http://creativecommons.org/ns#"
   xmlns:rdf="http://www.w3.org/1999/02/22-rdf-syntax-ns#"
   xmlns:svg="http://www.w3.org/2000/svg"
   xmlns="http://www.w3.org/2000/svg"
   xmlns:sodipodi="http://sodipodi.sourceforge.net/DTD/sodipodi-0.dtd"
   xmlns:inkscape="http://www.inkscape.org/namespaces/inkscape"
   height="64"
   width="64"
   version="1.1"
   id="svg17"
   sodipodi:docname="gitkraken.svg"
   inkscape:version="0.92.4 5da689c313, 2019-01-14">
  <metadata
     id="metadata23">
    <rdf:RDF>
      <cc:Work
         rdf:about="">
        <dc:format>image/svg+xml</dc:format>
        <dc:type
           rdf:resource="http://purl.org/dc/dcmitype/StillImage" />
      </cc:Work>
    </rdf:RDF>
  </metadata>
  <defs
     id="defs21">
    <filter
       inkscape:collect="always"
       style="color-interpolation-filters:sRGB"
       id="filter981"
       x="-0.056149038"
       width="1.1122981"
       y="-0.064418092"
       height="1.1288362">
      <feGaussianBlur
         inkscape:collect="always"
         stdDeviation="1.087821"
         id="feGaussianBlur983" />
    </filter>
  </defs>
  <sodipodi:namedview
     pagecolor="#ffffff"
     bordercolor="#666666"
     borderopacity="1"
     objecttolerance="10"
     gridtolerance="10"
     guidetolerance="10"
     inkscape:pageopacity="0"
     inkscape:pageshadow="2"
     inkscape:window-width="1366"
     inkscape:window-height="700"
     id="namedview19"
     showgrid="false"
     inkscape:zoom="6.203125"
     inkscape:cx="8.3070542"
     inkscape:cy="29.271435"
     inkscape:window-x="0"
     inkscape:window-y="0"
     inkscape:window-maximized="1"
     inkscape:current-layer="g867" />
  <linearGradient
     id="a"
     gradientUnits="userSpaceOnUse"
     x1="13.043799"
     x2="56.14185"
     y1="8.064034"
     y2="59.318272">
    <stop
       offset="0"
       stop-color="#2d99e3"
       id="stop2" />
    <stop
       offset="1"
       stop-color="#8513de"
       id="stop4" />
  </linearGradient>
  <g
     id="g867"
     transform="translate(25.627113,7.7288095)"
     style="fill:#000000;fill-opacity:1">
    <circle
       r="28"
       cy="25.271191"
       cx="7.3728871"
       id="circle951"
       style="opacity:0.856;fill:#4a4a4a;fill-opacity:1;stroke:none;stroke-width:1.18851483;stroke-linecap:round;stroke-linejoin:round;stroke-miterlimit:4;stroke-dasharray:none;stroke-opacity:1" />
    <circle
       style="opacity:1;fill:#009f7c;fill-opacity:1;stroke:none;stroke-width:1.18851483;stroke-linecap:round;stroke-linejoin:round;stroke-miterlimit:4;stroke-dasharray:none;stroke-opacity:1"
       id="path941"
       cx="6.3728871"
       cy="24.271191"
       r="28" />
    <path
       inkscape:connector-curvature="0"
       d="m 28.212597,13.846345 c -0.19152,-0.497901 -0.76602,-0.727689 -1.225628,-0.536199 -0.344712,0.153196 -0.574515,0.497902 -0.574515,0.842612 0,0.114962 0,0.229818 0.07674,0.306413 0.880916,2.33632 1.378821,4.864159 1.378821,7.545219 0,10.839061 -8.081459,19.839721 -18.5758762,21.180221 V 33.188163 C 9.9432643,33.0732 10.556063,32.88175 11.168892,32.690262 v 8.387831 c 8.541051,-2.068234 14.937291,-9.804958 14.937291,-19.073703 0,-7.392029 -4.098177,-13.8648323 -10.149703,-17.1969856 -0.459608,-0.2681005 -1.034123,-0.076591 -1.263927,0.42132 -0.07674,0.114824 -0.07674,0.2681005 -0.07674,0.4213076 0,0.3447107 0.191505,0.6510926 0.459606,0.8043151 5.477012,3.0257411 9.192178,8.8857349 9.192178,15.5883419 0,7.54522 -4.672692,13.979726 -11.298721,16.584146 v -7.430311 c 1.149017,-0.344695 1.991619,-1.417126 1.991619,-2.719344 0,-1.072415 -0.536189,-1.953326 -1.417104,-2.451243 0.651113,-6.434491 3.600272,-4.710968 3.600272,-6.779203 V 18.059409 C 17.143666,14.99537 10.058017,4.9989082 6.7258463,4.76912 H 6.11303 C 2.78086,4.9989082 -4.3047743,14.995371 -4.3047743,18.059409 v 1.187325 c 0,2.029952 2.9108618,0.344712 3.60025638,6.779202 -0.84261638,0.497917 -1.37881998,1.41714 -1.37881998,2.451244 0,1.26392 0.8426318,2.336336 1.99164843,2.719344 v 7.430311 C -6.679434,36.022415 -11.390424,29.587909 -11.390424,22.042689 c 0,-6.702607 3.7151808,-12.5626008 9.1921922,-15.5883419 0.4213081,-0.2298177 0.6128129,-0.7660321 0.3830096,-1.2256227 -0.1149633,-0.3447095 -0.4596206,-0.536215 -0.8043179,-0.536215 -0.1532125,0 -0.3064142,0.038373 -0.4596067,0.1149628 -6.0515286,3.3321395 -10.1497182,9.8049588 -10.1497182,17.1969738 0,9.268743 6.3962386,17.005482 15.0139162,19.112014 v -8.387832 c 0.6128129,0.19149 1.2256121,0.383009 1.8767391,0.497903 v 9.996462 C -6.8326264,41.84417 -14.914101,32.881825 -14.914101,22.004451 c 0,-2.64275 0.49792,-5.170574 1.378836,-7.54522 0.191489,-0.459605 -0.03823,-0.99582 -0.497905,-1.187309 -0.114964,-0.03823 -0.229819,-0.07674 -0.344714,-0.07674 -0.383008,0 -0.727721,0.229801 -0.880913,0.61281 -0.995826,2.566137 -1.532044,5.323779 -1.532044,8.196329 0,12.524301 9.8816037,22.71227 22.2910579,23.210172 v -11.75823 c 0.3447128,0.03822 0.9575118,0.03822 0.9575118,0.03822 0,0 0.6128287,0 0.9575254,-0.03822 V 45.214531 C 19.824723,44.716615 29.706312,34.528662 29.706312,22.00436 29.668093,19.131825 29.170108,16.374167 28.212597,13.846329 Z M 10.747424,27.098366 c 0.344713,-0.34471 0.80432,-0.574512 1.340538,-0.574512 0.536203,0 0.995811,0.229802 1.340521,0.574512 0.344714,0.344711 0.574516,0.804316 0.574516,1.340517 0,0.536199 -0.229802,0.995821 -0.574516,1.340515 -0.34471,0.344711 -0.804318,0.574515 -1.340521,0.574515 -0.536218,0 -0.995825,-0.229804 -1.340538,-0.574515 -0.344696,-0.344694 -0.574516,-0.804316 -0.574516,-1.340515 0,-0.536201 0.22982,-0.995806 0.574516,-1.340517 z m -8.5793785,2.681031 c -0.3446974,0.344712 -0.804304,0.574515 -1.34050623,0.574515 -0.53621751,0 -0.9958396,-0.229803 -1.34053692,-0.574515 -0.38301123,-0.344693 -0.57451615,-0.804316 -0.57451615,-1.340514 0,-0.536201 0.22980338,-0.995807 0.57451615,-1.340517 0.34469732,-0.34471 0.80431941,-0.574513 1.34053692,-0.574513 0.53620223,0 0.99580883,0.229803 1.34050623,0.574513 0.3447126,0.344711 0.5745159,0.804316 0.5745159,1.340517 -0.038219,0.536198 -0.2298033,0.995821 -0.5745159,1.340514 z"
       id="path963"
       style="opacity:0.25;fill:#000000;fill-opacity:1;stroke-width:0.20611112;filter:url(#filter981)" />
    <path
       style="fill:#fdfdfd;fill-opacity:1;stroke-width:0.20611112"
       id="path851"
       d="m 28.212597,13.846345 c -0.19152,-0.497901 -0.76602,-0.727689 -1.225628,-0.536199 -0.344712,0.153196 -0.574515,0.497902 -0.574515,0.842612 0,0.114962 0,0.229818 0.07674,0.306413 0.880916,2.33632 1.378821,4.864159 1.378821,7.545219 0,10.839061 -8.081459,19.839721 -18.5758762,21.180221 V 33.188163 C 9.9432643,33.0732 10.556063,32.88175 11.168892,32.690262 v 8.387831 c 8.541051,-2.068234 14.937291,-9.804958 14.937291,-19.073703 0,-7.392029 -4.098177,-13.8648323 -10.149703,-17.1969856 -0.459608,-0.2681005 -1.034123,-0.076591 -1.263927,0.42132 -0.07674,0.114824 -0.07674,0.2681005 -0.07674,0.4213076 0,0.3447107 0.191505,0.6510926 0.459606,0.8043151 5.477012,3.0257411 9.192178,8.8857349 9.192178,15.5883419 0,7.54522 -4.672692,13.979726 -11.298721,16.584146 v -7.430311 c 1.149017,-0.344695 1.991619,-1.417126 1.991619,-2.719344 0,-1.072415 -0.536189,-1.953326 -1.417104,-2.451243 0.651113,-6.434491 3.600272,-4.710968 3.600272,-6.779203 V 18.059409 C 17.143666,14.99537 10.058017,4.9989082 6.7258463,4.76912 H 6.11303 C 2.78086,4.9989082 -4.3047743,14.995371 -4.3047743,18.059409 v 1.187325 c 0,2.029952 2.9108618,0.344712 3.60025638,6.779202 -0.84261638,0.497917 -1.37881998,1.41714 -1.37881998,2.451244 0,1.26392 0.8426318,2.336336 1.99164843,2.719344 v 7.430311 C -6.679434,36.022415 -11.390424,29.587909 -11.390424,22.042689 c 0,-6.702607 3.7151808,-12.5626008 9.1921922,-15.5883419 0.4213081,-0.2298177 0.6128129,-0.7660321 0.3830096,-1.2256227 -0.1149633,-0.3447095 -0.4596206,-0.536215 -0.8043179,-0.536215 -0.1532125,0 -0.3064142,0.038373 -0.4596067,0.1149628 -6.0515286,3.3321395 -10.1497182,9.8049588 -10.1497182,17.1969738 0,9.268743 6.3962386,17.005482 15.0139162,19.112014 v -8.387832 c 0.6128129,0.19149 1.2256121,0.383009 1.8767391,0.497903 v 9.996462 C -6.8326264,41.84417 -14.914101,32.881825 -14.914101,22.004451 c 0,-2.64275 0.49792,-5.170574 1.378836,-7.54522 0.191489,-0.459605 -0.03823,-0.99582 -0.497905,-1.187309 -0.114964,-0.03823 -0.229819,-0.07674 -0.344714,-0.07674 -0.383008,0 -0.727721,0.229801 -0.880913,0.61281 -0.995826,2.566137 -1.532044,5.323779 -1.532044,8.196329 0,12.524301 9.8816037,22.71227 22.2910579,23.210172 v -11.75823 c 0.3447128,0.03822 0.9575118,0.03822 0.9575118,0.03822 0,0 0.6128287,0 0.9575254,-0.03822 V 45.214531 C 19.824723,44.716615 29.706312,34.528662 29.706312,22.00436 29.668093,19.131825 29.170108,16.374167 28.212597,13.846329 Z M 10.747424,27.098366 c 0.344713,-0.34471 0.80432,-0.574512 1.340538,-0.574512 0.536203,0 0.995811,0.229802 1.340521,0.574512 0.344714,0.344711 0.574516,0.804316 0.574516,1.340517 0,0.536199 -0.229802,0.995821 -0.574516,1.340515 -0.34471,0.344711 -0.804318,0.574515 -1.340521,0.574515 -0.536218,0 -0.995825,-0.229804 -1.340538,-0.574515 -0.344696,-0.344694 -0.574516,-0.804316 -0.574516,-1.340515 0,-0.536201 0.22982,-0.995806 0.574516,-1.340517 z m -8.5793785,2.681031 c -0.3446974,0.344712 -0.804304,0.574515 -1.34050623,0.574515 -0.53621751,0 -0.9958396,-0.229803 -1.34053692,-0.574515 -0.38301123,-0.344693 -0.57451615,-0.804316 -0.57451615,-1.340514 0,-0.536201 0.22980338,-0.995807 0.57451615,-1.340517 0.34469732,-0.34471 0.80431941,-0.574513 1.34053692,-0.574513 0.53620223,0 0.99580883,0.229803 1.34050623,0.574513 0.3447126,0.344711 0.5745159,0.804316 0.5745159,1.340517 -0.038219,0.536198 -0.2298033,0.995821 -0.5745159,1.340514 z"
       inkscape:connector-curvature="0" />
    <path
       style="opacity:1;fill:#ffffff;fill-opacity:0.17903933;stroke:none;stroke-width:1.18851483;stroke-linecap:round;stroke-linejoin:round;stroke-miterlimit:4;stroke-dasharray:none;stroke-opacity:1"
       d="M 6.979112,-3.6995058 V 52.251666 A 28,28 0 0 0 34.414659,24.271197 28,28 0 0 0 6.979112,-3.6995058 Z"
       id="path941-2"
       inkscape:connector-curvature="0" />
  </g>
</svg>
