<svg xmlns="http://www.w3.org/2000/svg" xmlns:xlink="http://www.w3.org/1999/xlink" width="64" height="64">
    <defs>
        <linearGradient gradientTransform="translate(-4.356 11.688) scale(1.24413)" y2="34.988" y1="17.096" x2="35.633" x1="18.317" gradientUnits="userSpaceOnUse" id="a">
            <stop stop-color="#fdcb00" offset="0"/>
            <stop stop-color="#f28300" offset="1"/>
        </linearGradient>
        <linearGradient xlink:href="#a" id="b" x1="4" y1="32" x2="60" y2="32" gradientUnits="userSpaceOnUse"/>
    </defs>
    <rect width="56" height="56" x="4" y="4" ry="5" rx="5" fill="url(#b)"/>
    <path d="M18.966 16.389c.796.808 1.605 1.663 2.433 2.564.48.538 1.007.783 1.579.756.414-.04.704-.303.862-.808.19-.532.131-1.388-.19-2.56-.19-.637-.783-1.21-1.77-1.71-2.491-1-3.946-1.355-4.36-1.052-.19.138-.25.454-.19.953.131.434.67 1.052 1.631 1.855m-4.689 9.542c1.532 1.849 2.92 3.118 4.17 3.822.507.1.953-.1 1.302-.598.224-.434.303-.993.244-1.656-.382-1.612-2.012-2.829-4.886-3.67-.026-.04-.058-.053-.092-.053-.605-.138-1.066-.151-1.38-.052-.225.039-.31.29-.245.756.034.434.335.928.908 1.453m.086 19.498c-.415.132-.553.5-.435 1.105.704 2.65 1.598 4.202 2.684 4.675.224.23.506.303.862.197.224-.1.348-.593.382-1.453.034-1.308 1.374-6.399 4.018-15.27.19-.538.27-.92.245-1.158-.034-.335-.21-.382-.527-.145-.388.304-2.204 3.578-5.458 9.846-.317.737-.908 1.473-1.77 2.21m21.92-1.808c.027.039.079.08.138.145 4.116 5.53 6.767 8.485 7.938 8.845 1.63.598 4.419.5 8.378-.303.605-.039.942-.151 1-.355.034-.23-.171-.448-.624-.652-5.741-1.946-9.595-3.656-11.581-5.123-1.434-.947-2.625-1.86-3.584-2.769 2.708-.335 6.023-.539 9.95-.598 1.939.1 3.045-.052 3.294-.454.131-.335-.059-.738-.572-1.21-1.632-1.204-3.012-1.677-4.164-1.401-2.426.597-5.727 1.256-9.904 1.96a44.546 44.546 0 0 0 .473-3.164 118.897 118.897 0 0 1 5.793-1c.803-.138 1.052-.434.77-.908-.322-.532-.921-.88-1.822-1.052-1.152-.131-2.677.138-4.591.808.034-.953.08-1.86.145-2.708 2.294-.408 5.005-.756 8.128-1.053.321-.038.507-.19.579-.454 0-.25-.4-.652-1.197-1.224.67-1.4 1.407-2.322 2.204-2.763.579-.538.638-1.11.19-1.71-.473-.435-1.5-1.105-3.064-2.012-.507-.237-1.111-.25-1.815-.045a44.878 44.878 0 0 1-4.643 1.604 3.165 3.165 0 0 1 .244-.803c.125-.4.059-.704-.197-.9-.473-.408-1.08-.757-1.815-1.053 1.08-.237 2.743-.455 4.972-.658.321-.039.5-.197.527-.5.033-.238-.415-.659-1.335-1.256-.034-.039-.093-.052-.19-.052.282-1.335.585-2.632.907-3.867a107.156 107.156 0 0 1 5.505-.803c.321.033.624-.152.907-.553.034-.335-.303-.69-1-1.052-.96-.737-2.597-.704-4.926.1.027-.139.08-.283.138-.455 0-.131.276-.869.815-2.21.125-.304-.066-.718-.579-1.256-.96-.704-1.77-1.164-2.44-1.401-.414-.138-.762-.1-1.052.1-.224.196-.249.538-.092 1 .321.637.48 1.19.48 1.656a189.396 189.396 0 0 1-.145 3.321c-.283 0-2.012.369-5.169 1.105 0-2.21-.059-3.384-.19-3.512-.034-.039-.059-.052-.092-.052-.415-.335-1.019-.618-1.822-.856a2.41 2.41 0 0 0-1.717.25c-.29.237-.224.552.19.953.507.803.96 1.973 1.335 3.511-1.525.1-3.143.31-4.833.605-.862.1-.96.434-.283 1 .887.803 1.98 1.052 3.256.756.67-.197 1.414-.356 2.249-.455.507 3.42.887 5.379 1.151 5.879.218.303.428.335.625.1.093-.132.19-.37.283-.704.862.9 1.355 1.828 1.486 2.762-1.946.335-3.926.652-5.937.953-.125-.303-.921-.52-2.394-.658-.382-.1-.605-.052-.67.145-.19.203-.138.538.144 1.006.803 1.408 1.5 3.282 2.105 5.623.131.71.414 1.276.862 1.71.572.639.92.718 1.052.25.034-.237.059-.539.093-.907.19.038.46.013.769-.046 1.09-.303 2.433-.572 4.064-.808a80.691 80.691 0 0 1-.145 2.92 110.786 110.786 0 0 0-5.833 1.4c-.58.138-.507.473.19 1.007.382.303 2.216.165 5.505-.401-.034.23-.065.52-.1.848a8.889 8.889 0 0 1-.381 2.309c-3.478.538-7.189 1.09-11.147 1.663-.665.1-.742.42-.237.948.414.434.907.737 1.486.907.665.138 1.243.138 1.717 0a45.452 45.452 0 0 1 7.465-1.559 15.505 15.505 0 0 1-6.13 5.781 90.761 90.761 0 0 1-4.011 1.856c-.388.138-.638.256-.77.355-.131.131.034.263.473.4 2.967.198 6.352-1.052 10.152-3.767.473-.4.907-.835 1.29-1.308.769-1.039 1.328-2.295 1.676-3.768m-1.144-11.08c-1.815.316-3.506.597-5.068.868-.387-1.86-.624-3.202-.717-4.091a4.04 4.04 0 0 0 .855-.244 480.982 480.982 0 0 1 4.834-1.007c.033 1.545.065 3.032.092 4.471m2.302-2.86c0-.704.052-1.414.144-2.118a109.575 109.575 0 0 0 3.447-.749c.893-.237 1.552-.145 1.966.244.19.197.237.532.138.953a27.697 27.697 0 0 1-.763 2.867c-1.756.4-3.4.783-4.932 1.158v-2.367m-3.822-7.582c-.034-.5-.059-.953-.093-1.401-.033-.835-.065-1.625-.092-2.354a67.639 67.639 0 0 1 5.023-.952c-.13 1.138-.255 2.328-.387 3.564a50.449 50.449 0 0 1-4.446 1.158m-.007 0" fill="#fff"/>
</svg>
