<?xml version="1.0" encoding="UTF-8" standalone="no"?>
<svg
   xmlns:dc="http://purl.org/dc/elements/1.1/"
   xmlns:cc="http://creativecommons.org/ns#"
   xmlns:rdf="http://www.w3.org/1999/02/22-rdf-syntax-ns#"
   xmlns:svg="http://www.w3.org/2000/svg"
   xmlns="http://www.w3.org/2000/svg"
   xmlns:xlink="http://www.w3.org/1999/xlink"
   xmlns:sodipodi="http://sodipodi.sourceforge.net/DTD/sodipodi-0.dtd"
   xmlns:inkscape="http://www.inkscape.org/namespaces/inkscape"
   viewBox="0 0 64 64"
   version="1.1"
   id="svg17"
   sodipodi:docname="godot.svg"
   width="64"
   height="64"
   inkscape:version="0.92.4 5da689c313, 2019-01-14">
  <metadata
     id="metadata23">
    <rdf:RDF>
      <cc:Work
         rdf:about="">
        <dc:format>image/svg+xml</dc:format>
        <dc:type
           rdf:resource="http://purl.org/dc/dcmitype/StillImage" />
        <dc:title></dc:title>
      </cc:Work>
    </rdf:RDF>
  </metadata>
  <defs
     id="defs21">
    <linearGradient
       inkscape:collect="always"
       id="linearGradient921">
      <stop
         style="stop-color:#32b9f2;stop-opacity:1"
         offset="0"
         id="stop917" />
      <stop
         style="stop-color:#0b9de8;stop-opacity:1"
         offset="1"
         id="stop919" />
    </linearGradient>
    <linearGradient
       inkscape:collect="always"
       id="linearGradient913">
      <stop
         style="stop-color:#0078d3;stop-opacity:1"
         offset="0"
         id="stop909" />
      <stop
         style="stop-color:#176ab9;stop-opacity:1"
         offset="1"
         id="stop911" />
    </linearGradient>
    <linearGradient
       inkscape:collect="always"
       xlink:href="#linearGradient913"
       id="linearGradient915"
       x1="511.69821"
       y1="260.94846"
       x2="515.56787"
       y2="783.14679"
       gradientUnits="userSpaceOnUse" />
    <linearGradient
       inkscape:collect="always"
       xlink:href="#linearGradient921"
       id="linearGradient923"
       x1="520.33447"
       y1="878.47778"
       x2="525.10101"
       y2="1026.2408"
       gradientUnits="userSpaceOnUse" />
    <filter
       inkscape:collect="always"
       style="color-interpolation-filters:sRGB"
       id="filter977"
       x="-0.058290691"
       width="1.1165814"
       y="-0.077080939"
       height="1.1541619">
      <feGaussianBlur
         inkscape:collect="always"
         stdDeviation="22.539067"
         id="feGaussianBlur979" />
    </filter>
    <filter
       inkscape:collect="always"
       style="color-interpolation-filters:sRGB"
       id="filter981"
       x="-0.066368502"
       width="1.132737"
       y="-0.21959062"
       height="1.4391812">
      <feGaussianBlur
         inkscape:collect="always"
         stdDeviation="22.539067"
         id="feGaussianBlur983" />
    </filter>
  </defs>
  <sodipodi:namedview
     pagecolor="#ffffff"
     bordercolor="#666666"
     borderopacity="1"
     objecttolerance="10"
     gridtolerance="10"
     guidetolerance="10"
     inkscape:pageopacity="0"
     inkscape:pageshadow="2"
     inkscape:window-width="1366"
     inkscape:window-height="700"
     id="namedview19"
     showgrid="false"
     inkscape:zoom="6.9532167"
     inkscape:cx="18.017551"
     inkscape:cy="19.097953"
     inkscape:window-x="0"
     inkscape:window-y="0"
     inkscape:window-maximized="1"
     inkscape:current-layer="layer1" />
  <linearGradient
     id="a">
    <stop
       offset="0"
       stop-color="#0f8"
       id="stop2" />
    <stop
       offset="1"
       stop-color="#00c3ff"
       id="stop4" />
  </linearGradient>
  <linearGradient
     id="b"
     gradientUnits="userSpaceOnUse"
     x1="2.7662098"
     x2="45.226852"
     xlink:href="#a"
     y1="18.600399"
     y2="18.600399" />
  <linearGradient
     id="c"
     gradientTransform="matrix(1.16261,0,0,0.94434,-3.932,0.738)"
     gradientUnits="userSpaceOnUse"
     x1="4.6490002"
     x2="43.349998"
     xlink:href="#a"
     y1="39.988998"
     y2="39.988998" />
  <g
     transform="matrix(0.06034483,0,0,0.06034483,1.1034487,-3.393426)"
     id="layer1"
     inkscape:label="Layer 1">
    <path
       inkscape:connector-curvature="0"
       id="path925"
       style="opacity:0.25;fill:#0d222a;fill-opacity:1;fill-rule:nonzero;stroke:none;stroke-width:1.33333325;filter:url(#filter977)"
       d="m 104.69892,525.90697 v 197.7823 25.12136 22.86106 c 0.44956,0.004 0.89912,0.0208 1.34452,0.0624 l 150.66987,14.52751 c 7.89231,0.76176 14.07795,7.1139 14.62742,15.02286 l 4.64547,66.5102 131.43028,9.37836 9.05368,-61.38602 c 1.17385,-7.95891 8.00054,-13.85733 16.05103,-13.85733 h 158.96179 c 8.04632,0 14.873,5.89842 16.04686,13.85733 l 9.05368,61.38602 131.43444,-9.37836 4.64131,-66.5102 c 0.55363,-7.90896 6.73511,-14.25694 14.62742,-15.02286 l 150.61159,-14.52751 c 0.4454,-0.0416 0.8908,-0.0583 1.34036,-0.0624 v -19.61006 l 0.0624,-0.0208 V 525.90697 h 0.55779 C 939.81859,500.43179 958.28809,473.58711 976,444.94835 952.47709,404.90403 923.65517,369.11806 892.84769,335.96287 c -28.57217,14.38182 -56.32429,30.67428 -82.53625,48.01155 -13.11639,-13.03729 -27.8895,-23.7019 -42.40036,-34.84938 -14.25694,-11.45134 -30.32462,-19.84733 -45.56394,-29.62946 4.53725,-33.78792 6.78089,-67.05134 7.68418,-101.76752 -39.32002,-19.78905 -81.25,-32.9096 -123.66285,-42.33375 -16.9335,28.45977 -32.41841,59.27974 -45.90527,89.40872 -15.99275,-2.67239 -32.06043,-3.6631 -48.14892,-3.85458 v -0.025 c -0.11239,0 -0.21646,0.025 -0.3122,0.025 -0.0999,0 -0.20397,-0.025 -0.30387,-0.025 v 0.025 c -16.11763,0.19148 -32.17282,1.18219 -48.16973,3.85458 -13.47854,-30.12898 -28.95513,-60.94895 -45.9136,-89.40872 -42.39203,9.42415 -84.32618,22.5447 -123.64204,42.33375 0.89913,34.71618 3.14277,67.9796 7.69251,101.76752 -15.26846,9.78213 -31.31533,18.17812 -45.57643,29.62946 -14.49005,11.14748 -29.28813,21.81209 -42.40868,34.84938 -26.21196,-17.33727 -53.95577,-33.62973 -82.53625,-48.01155 -30.80749,33.15519 -59.612754,68.94116 -83.143994,108.98548 17.703584,28.63876 36.185577,55.48344 56.141134,80.95862 z" />
    <path
       inkscape:connector-curvature="0"
       id="path927"
       style="opacity:0.25;fill:#0d222a;fill-opacity:1;fill-rule:nonzero;stroke:none;stroke-width:1.33333325;filter:url(#filter981)"
       d="m 784.07144,817.24284 -4.66629,66.86402 c -0.56195,8.05882 -6.97237,14.4734 -15.03119,15.052 L 603.8845,910.6102 c -0.39129,0.0291 -0.78257,0.0416 -1.1697,0.0416 -7.97556,0 -14.85635,-5.85263 -16.03437,-13.86149 l -9.20354,-62.41419 H 446.52531 l -9.20353,62.41419 c -1.23629,8.40015 -8.74564,14.44009 -17.20407,13.81986 L 259.62824,899.15886 c -8.05881,-0.5786 -14.46923,-6.99318 -15.03119,-15.052 l -4.66628,-66.86402 -135.4805,-13.06227 c 0.0624,14.56081 0.24975,30.51194 0.24975,33.68801 0,143.08559 181.51066,211.86022 407.02427,212.65112 h 0.27473 0.2789 c 225.51361,-0.7909 406.96182,-69.56553 406.96182,-212.65112 0,-3.23435 0.19565,-19.11887 0.26225,-33.68801 z" />
    <path
       d="m 104.69892,525.90697 v 197.7823 25.12136 22.86106 c 0.44956,0.004 0.89912,0.0208 1.34452,0.0624 l 150.66987,14.52751 c 7.89231,0.76176 14.07795,7.1139 14.62742,15.02286 l 4.64547,66.5102 131.43028,9.37836 9.05368,-61.38602 c 1.17385,-7.95891 8.00054,-13.85733 16.05103,-13.85733 h 158.96179 c 8.04632,0 14.873,5.89842 16.04686,13.85733 l 9.05368,61.38602 131.43444,-9.37836 4.64131,-66.5102 c 0.55363,-7.90896 6.73511,-14.25694 14.62742,-15.02286 l 150.61159,-14.52751 c 0.4454,-0.0416 0.8908,-0.0583 1.34036,-0.0624 v -19.61006 l 0.0624,-0.0208 V 525.90697 h 0.55779 C 939.81859,500.43179 958.28809,473.58711 976,444.94835 952.47709,404.90403 923.65517,369.11806 892.84769,335.96287 c -28.57217,14.38182 -56.32429,30.67428 -82.53625,48.01155 -13.11639,-13.03729 -27.8895,-23.7019 -42.40036,-34.84938 -14.25694,-11.45134 -30.32462,-19.84733 -45.56394,-29.62946 4.53725,-33.78792 6.78089,-67.05134 7.68418,-101.76752 -39.32002,-19.78905 -81.25,-32.9096 -123.66285,-42.33375 -16.9335,28.45977 -32.41841,59.27974 -45.90527,89.40872 -15.99275,-2.67239 -32.06043,-3.6631 -48.14892,-3.85458 v -0.025 c -0.11239,0 -0.21646,0.025 -0.3122,0.025 -0.0999,0 -0.20397,-0.025 -0.30387,-0.025 v 0.025 c -16.11763,0.19148 -32.17282,1.18219 -48.16973,3.85458 -13.47854,-30.12898 -28.95513,-60.94895 -45.9136,-89.40872 -42.39203,9.42415 -84.32618,22.5447 -123.64204,42.33375 0.89913,34.71618 3.14277,67.9796 7.69251,101.76752 -15.26846,9.78213 -31.31533,18.17812 -45.57643,29.62946 -14.49005,11.14748 -29.28813,21.81209 -42.40868,34.84938 -26.21196,-17.33727 -53.95577,-33.62973 -82.53625,-48.01155 -30.80749,33.15519 -59.612754,68.94116 -83.143994,108.98548 17.703584,28.63876 36.185577,55.48344 56.141134,80.95862 z"
       style="fill:url(#linearGradient915);fill-opacity:1;fill-rule:nonzero;stroke:none;stroke-width:1.33333325"
       id="path84-6"
       inkscape:connector-curvature="0" />
    <path
       d="m 784.07144,817.24284 -4.66629,66.86402 c -0.56195,8.05882 -6.97237,14.4734 -15.03119,15.052 L 603.8845,910.6102 c -0.39129,0.0291 -0.78257,0.0416 -1.1697,0.0416 -7.97556,0 -14.85635,-5.85263 -16.03437,-13.86149 l -9.20354,-62.41419 H 446.52531 l -9.20353,62.41419 c -1.23629,8.40015 -8.74564,14.44009 -17.20407,13.81986 L 259.62824,899.15886 c -8.05881,-0.5786 -14.46923,-6.99318 -15.03119,-15.052 l -4.66628,-66.86402 -135.4805,-13.06227 c 0.0624,14.56081 0.24975,30.51194 0.24975,33.68801 0,143.08559 181.51066,211.86022 407.02427,212.65112 h 0.27473 0.2789 c 225.51361,-0.7909 406.96182,-69.56553 406.96182,-212.65112 0,-3.23435 0.19565,-19.11887 0.26225,-33.68801 z"
       style="fill:url(#linearGradient923);fill-opacity:1;fill-rule:nonzero;stroke:none;stroke-width:1.33333325"
       id="path88-5"
       inkscape:connector-curvature="0" />
    <path
       d="m 389.21484,625.67104 c 0,50.16779 -40.6479,90.80736 -90.79903,90.80736 -50.12617,0 -90.78655,-40.63957 -90.78655,-90.80736 0,-50.13449 40.66038,-90.75325 90.78655,-90.75325 50.15113,0 90.79903,40.61876 90.79903,90.75325"
       style="fill:#ffffff;fill-opacity:1;fill-rule:nonzero;stroke:none;stroke-width:1.33333325"
       id="path92-5"
       inkscape:connector-curvature="0" />
    <path
       d="m 367.36686,631.05679 c 0,33.27591 -26.96956,60.24547 -60.27044,60.24547 -33.28424,0 -60.27045,-26.96956 -60.27045,-60.24547 0,-33.27591 26.98621,-60.27044 60.27045,-60.27044 33.30088,0 60.27044,26.99453 60.27044,60.27044"
       style="fill:#414042;fill-opacity:1;fill-rule:nonzero;stroke:none;stroke-width:1.33333325"
       id="path96-2"
       inkscape:connector-curvature="0" />
    <path
       d="m 511.99336,724.73954 c -16.14261,0 -29.22569,-11.89674 -29.22569,-26.56162 v -83.58939 c 0,-14.65239 13.08308,-26.56162 29.22569,-26.56162 16.14261,0 29.25483,11.90923 29.25483,26.56162 v 83.58939 c 0,14.66488 -13.11222,26.56162 -29.25483,26.56162"
       style="fill:#ffffff;fill-opacity:1;fill-rule:nonzero;stroke:none;stroke-width:1.33333325"
       id="path100-1"
       inkscape:connector-curvature="0" />
    <path
       d="m 634.78706,625.67104 c 0,50.16779 40.6479,90.80736 90.80736,90.80736 50.122,0 90.77822,-40.63957 90.77822,-90.80736 0,-50.13449 -40.65622,-90.75325 -90.77822,-90.75325 -50.15946,0 -90.80736,40.61876 -90.80736,90.75325"
       style="fill:#ffffff;fill-opacity:1;fill-rule:nonzero;stroke:none;stroke-width:1.33333325"
       id="path104-7"
       inkscape:connector-curvature="0" />
    <path
       d="m 656.64056,631.05679 c 0,33.27591 26.96123,60.24547 60.23714,60.24547 33.30922,0 60.27045,-26.96956 60.27045,-60.24547 0,-33.27591 -26.96123,-60.27044 -60.27045,-60.27044 -33.27591,0 -60.23714,26.99453 -60.23714,60.27044"
       style="fill:#414042;fill-opacity:1;fill-rule:nonzero;stroke:none;stroke-width:1.33333325"
       id="path108-9"
       inkscape:connector-curvature="0" />
  </g>
</svg>
