<svg xmlns="http://www.w3.org/2000/svg" xmlns:xlink="http://www.w3.org/1999/xlink" width="64" height="64">
    <defs>
        <linearGradient gradientTransform="matrix(1.40497 0 0 1.40497 -1.358 -2.035)" y2="24.611" y1="24.611" x2="41.669" x1="9.422" gradientUnits="userSpaceOnUse" id="a">
            <stop offset="0" stop-color="#096617"/>
            <stop offset="1" stop-color="#61bf2f"/>
        </linearGradient>
        <linearGradient gradientTransform="matrix(1.40497 0 0 1.40497 -1.358 -2.035)" y2="24.611" y1="24.611" x2="41.669" x1="9.422" gradientUnits="userSpaceOnUse" id="b">
            <stop stop-color="#bcf180" offset="0"/>
            <stop stop-color="#98e059" offset="1"/>
        </linearGradient>
        <linearGradient xlink:href="#a" id="d" gradientUnits="userSpaceOnUse" gradientTransform="matrix(1.41883 0 0 1.40497 -2.352 -2.568)" x1="19.278" y1="22.469" x2="36.898" y2="43.821"/>
        <linearGradient xlink:href="#b" id="e" gradientUnits="userSpaceOnUse" gradientTransform="matrix(1.49989 0 0 1.40497 -2.944 -2.568)" x1="11.963" y1="8.234" x2="11.963" y2="40.263"/>
        <linearGradient id="c" gradientUnits="userSpaceOnUse" x1="9.422" x2="41.669" y1="24.611" y2="24.611" gradientTransform="matrix(1.40497 0 0 1.40497 -1.358 -2.035)">
            <stop offset="0" stop-color="#71c645"/>
            <stop offset="1" stop-color="#57bb22"/>
        </linearGradient>
        <linearGradient xlink:href="#c" id="f" gradientUnits="userSpaceOnUse" gradientTransform="matrix(1.41883 0 0 1.40497 -2.355 -2.597)" x1="9.422" y1="24.611" x2="41.669" y2="24.611"/>
    </defs>
    <path style="line-height:normal;font-variant-ligatures:normal;font-variant-position:normal;font-variant-caps:normal;font-variant-numeric:normal;font-variant-alternates:normal;font-feature-settings:normal;text-indent:0;text-align:start;text-decoration-line:none;text-decoration-style:solid;text-decoration-color:#000;text-transform:none;text-orientation:mixed;white-space:normal;shape-padding:0;isolation:auto;mix-blend-mode:normal;solid-color:#000;solid-opacity:1" d="M9.23 4a1.235 1.235 0 0 0-1.026.572l-.002.004a1.21 1.21 0 0 0-.185.871v53.334c0 .674.552 1.22 1.233 1.219h8.006c.68 0 1.232-.545 1.232-1.219V42.758l6.626-6.086 19.775 22.9c.233.271.575.427.935.428h10.944c1.054-.002 1.619-1.228.93-2.018l-26.12-29.845L55.525 6.143c.82-.755.281-2.114-.838-2.114h-10.94c-.308 0-.606.115-.834.323l-24.43 22.285V5.247c0-.674-.55-1.22-1.23-1.22H9.502C9.412 4.008 9.322 4 9.23 4z" color="#000" font-weight="400" font-family="sans-serif" overflow="visible" fill="url(#d)"/>
    <path style="line-height:normal;font-variant-ligatures:normal;font-variant-position:normal;font-variant-caps:normal;font-variant-numeric:normal;font-variant-alternates:normal;font-feature-settings:normal;text-indent:0;text-align:start;text-decoration-line:none;text-decoration-style:solid;text-decoration-color:#000;text-transform:none;text-orientation:mixed;white-space:normal;shape-padding:0;isolation:auto;mix-blend-mode:normal;solid-color:#000;solid-opacity:1" d="M9.3 4c-.43.007-.828.212-1.065.549l-.018.023-.002.004c-.18.257-.25.568-.196.871v53.334c0 .674.583 1.22 1.302 1.219h8.464c.558 0 1.03-.33 1.216-.793V4.834a1.294 1.294 0 0 0-1.218-.807H9.588A1.38 1.38 0 0 0 9.3 4z" color="#000" font-weight="400" font-family="sans-serif" overflow="visible" fill="url(#e)"/>
    <path style="line-height:normal;font-variant-ligatures:normal;font-variant-position:normal;font-variant-caps:normal;font-variant-numeric:normal;font-variant-alternates:normal;font-feature-settings:normal;text-indent:0;text-align:start;text-decoration-line:none;text-decoration-style:solid;text-decoration-color:#000;text-transform:none;text-orientation:mixed;white-space:normal;shape-padding:0;isolation:auto;mix-blend-mode:normal;solid-color:#000;solid-opacity:1" d="M43.746 4c-.31 0-.607.115-.834.322L19 26V9.463L8.015 19.135V53.17l10.989-9.674v-.767l6.107-6.086.352.408 7.707-7.121-1.596-1.823 23.95-21.994c.82-.754.28-2.113-.839-2.113z" color="#000" font-weight="400" font-family="sans-serif" overflow="visible" fill="url(#f)"/>
    <g stroke-width="1.011">
        <path d="M39.05 17.3v.8c1.77 0 2.343.073 3.048 1.104l6.198 9.408-5.59 8.442c-1.377 2.058-3.46 2.095-4.076 2.095v.8h1.868c-.638 4.117-1.43 6.441-6.578 6.441h-4.455c-1.279 0-1.337-.166-1.337-1.31V35.8h3.021c3.03 0 3.323 1.15 3.323 3.95h.52v-8.63h-.52c0 2.75-.293 3.881-3.323 3.881h-3.021v-8.233c0-1.115.057-1.284 1.339-1.284h4.39c4.967 0 5.55 2.04 5.997 6.424h.582l-.77-7.342H25.66l-.507-7.215H6.613l-.543 7.341h.576c.41-5.501.875-6.465 5.847-6.465h1.772c.618.102.618.51.618 1.27v18.073c0 1.206-.1 1.566-2.805 1.566h-.916v.8h9.45v-.8h-.916c-2.665 0-2.76-.367-2.76-1.566V19.493c0-.737 0-1.122.58-1.267h1.761c4.864 0 5.394.954 5.817 6.331h-1.689v.92c2.277 0 2.641 0 2.641 1.49v17.915c0 1.492-.365 1.492-2.64 1.492v.799h16.698l1.004-7.225h3.415v-.8c-.989-.1-1.276-.761-1.276-1.294 0-.432.157-.67.318-.9l5.143-7.757 5.576 8.491c.253.367.253.466.253.568 0 .266-.283.83-1.41.9v.807H60v-.808c-2.058 0-2.378-.16-3.012-1.099l-7.061-10.691 4.745-7.097c.477-.69 1.452-2.126 4.083-2.168v-.8h-5.906v.8c1.027.097 1.288.764 1.288 1.298 0 .402-.162.67-.392.99l-4.236 6.36-4.75-7.187c-.226-.364-.257-.464-.257-.565 0-.302.348-.869 1.417-.906v-.8H39.05z" opacity=".691"/>
        <path d="M23.083 16.414H4.543L4 23.756h.576c.41-5.498.873-6.463 5.85-6.463h1.772c.616.099.616.509.616 1.267v18.074c0 1.207-.096 1.566-2.805 1.566h-.914v.8h9.446v-.8h-.914c-2.666 0-2.761-.367-2.761-1.566V18.56c0-.735 0-1.123.58-1.266h1.76c4.909 0 5.403.958 5.826 6.462h.559" fill="#f9f9f9"/>
        <path d="M39.2 37.855h-.575c-.705 4.925-1.128 7.6-6.776 7.6h-4.456c-1.28 0-1.337-.166-1.337-1.309v-9.282h3.022c3.031 0 3.325 1.15 3.325 3.95h.515v-8.632h-.517c0 2.75-.292 3.881-3.322 3.881h-3.023v-8.232c0-1.114.057-1.283 1.337-1.283h4.393c4.968 0 5.55 2.042 5.995 6.421h.583l-.77-7.341h-16.26v.917c2.278 0 2.64 0 2.64 1.492v17.916c0 1.49-.363 1.49-2.64 1.49v.8h16.698" fill="#f9f9f9"/>
        <path d="M47.85 26.44l4.748-7.1c.479-.69 1.451-2.125 4.085-2.165v-.8h-5.906v.798c1.03.102 1.288.764 1.288 1.299 0 .401-.159.669-.39.992L47.44 25.82l-4.75-7.18c-.224-.368-.261-.468-.261-.572 0-.3.35-.863 1.42-.896v-.8h-6.872v.798c1.766 0 2.342.066 3.047 1.1l6.197 9.408-5.59 8.442c-1.377 2.06-3.461 2.098-4.075 2.098v.8h5.898v-.801c-.99-.098-1.28-.764-1.28-1.298 0-.431.16-.668.325-.898l5.136-7.75 5.583 8.483c.252.364.252.466.252.568 0 .266-.288.832-1.413.9v.81h6.874v-.81c-2.06 0-2.382-.156-3.017-1.098" fill="#f9f9f9"/>
    </g>
</svg>
