<?xml version="1.0" encoding="UTF-8" standalone="no"?>
<svg
   xmlns:dc="http://purl.org/dc/elements/1.1/"
   xmlns:cc="http://creativecommons.org/ns#"
   xmlns:rdf="http://www.w3.org/1999/02/22-rdf-syntax-ns#"
   xmlns:svg="http://www.w3.org/2000/svg"
   xmlns="http://www.w3.org/2000/svg"
   xmlns:xlink="http://www.w3.org/1999/xlink"
   xmlns:sodipodi="http://sodipodi.sourceforge.net/DTD/sodipodi-0.dtd"
   xmlns:inkscape="http://www.inkscape.org/namespaces/inkscape"
   viewBox="0 0 64 64"
   version="1.1"
   id="svg46"
   sodipodi:docname="org.gnome.DiskUtility.svg"
   inkscape:version="0.92.4 5da689c313, 2019-01-14"
   width="64"
   height="64">
  <metadata
     id="metadata52">
    <rdf:RDF>
      <cc:Work
         rdf:about="">
        <dc:format>image/svg+xml</dc:format>
        <dc:type
           rdf:resource="http://purl.org/dc/dcmitype/StillImage" />
        <dc:title></dc:title>
      </cc:Work>
    </rdf:RDF>
  </metadata>
  <defs
     id="defs50">
    <linearGradient
       id="b-6"
       gradientTransform="matrix(1.17392,0,0,1.07692,-455.97601,-540.706)"
       gradientUnits="userSpaceOnUse"
       x1="388.423"
       x2="388.423"
       y1="557.79797"
       y2="505.798">
      <stop
         offset="0"
         stop-color="#7f8c8d"
         id="stop31" />
      <stop
         offset="1"
         stop-color="#afb0b3"
         id="stop33" />
    </linearGradient>
    <linearGradient
       gradientTransform="scale(2)"
       id="c-6"
       x1="-421.44699"
       x2="-410.44699"
       xlink:href="#a-7"
       y1="-504.20401"
       y2="-493.20401" />
    <linearGradient
       id="a-7"
       gradientUnits="userSpaceOnUse">
      <stop
         offset="0"
         stop-color="#292c2f"
         id="stop2-6" />
      <stop
         offset="1"
         stop-opacity="0"
         id="stop4-4" />
    </linearGradient>
    <linearGradient
       id="d-2"
       gradientTransform="matrix(1.04348,0,0,1.07692,-1.392,-2.4599993)"
       gradientUnits="userSpaceOnUse"
       x1="1.3329999"
       x2="1.3329999"
       y1="48.714001"
       y2="9.7139997">
      <stop
         offset="0"
         stop-color="#eef1f2"
         id="stop26" />
      <stop
         offset="1"
         stop-color="#f9fafb"
         id="stop28-9" />
    </linearGradient>
    <linearGradient
       gradientTransform="scale(2)"
       id="e-9"
       gradientUnits="userSpaceOnUse"
       x1="16"
       x2="16"
       y1="22"
       y2="6">
      <stop
         offset="0"
         stop-color="#73ba25"
         id="stop8" />
      <stop
         offset="1"
         stop-color="#81c13b"
         id="stop10" />
    </linearGradient>
    <linearGradient
       gradientTransform="scale(2)"
       id="f-6"
       gradientUnits="userSpaceOnUse"
       x1="16"
       x2="16"
       y1="22"
       y2="6">
      <stop
         offset="0"
         stop-color="#173f4f"
         id="stop13" />
      <stop
         offset="1"
         stop-color="#2f5361"
         id="stop15" />
    </linearGradient>
    <linearGradient
       gradientTransform="scale(2)"
       id="g-8"
       gradientUnits="userSpaceOnUse"
       x1="16"
       x2="16"
       y1="22"
       y2="6">
      <stop
         offset="0"
         stop-color="#35b9ab"
         id="stop18" />
      <stop
         offset="1"
         stop-color="#4ac0b4"
         id="stop20" />
    </linearGradient>
    <linearGradient
       gradientTransform="scale(2)"
       id="h-2"
       x1="9.0880003"
       x2="23.101999"
       xlink:href="#a-7"
       y1="9.9860001"
       y2="24" />
    <linearGradient
       gradientTransform="scale(2)"
       id="i"
       x1="8"
       x2="21"
       xlink:href="#a-7"
       y1="14"
       y2="27" />
    <linearGradient
       gradientTransform="matrix(2,0,0,2,-1,5)"
       id="j"
       x1="16"
       x2="25"
       xlink:href="#a-7"
       y1="14"
       y2="23" />
  </defs>
  <sodipodi:namedview
     pagecolor="#ffffff"
     bordercolor="#666666"
     borderopacity="1"
     objecttolerance="10"
     gridtolerance="10"
     guidetolerance="10"
     inkscape:pageopacity="0"
     inkscape:pageshadow="2"
     inkscape:window-width="1366"
     inkscape:window-height="700"
     id="namedview48"
     showgrid="true"
     inkscape:zoom="3.4766083"
     inkscape:cx="19.255633"
     inkscape:cy="46.744777"
     inkscape:window-x="0"
     inkscape:window-y="0"
     inkscape:window-maximized="1"
     inkscape:current-layer="svg46">
    <inkscape:grid
       type="xygrid"
       id="grid1119" />
  </sodipodi:namedview>
  <linearGradient
     id="a">
    <stop
       offset="0"
       stop-color="#f300ff"
       stop-opacity=".996"
       id="stop2" />
    <stop
       offset="1"
       stop-color="#12dbb9"
       id="stop4" />
  </linearGradient>
  <linearGradient
     id="b"
     gradientTransform="matrix(1.38297,0,0,1.87805,-9.191,-15.015)"
     gradientUnits="userSpaceOnUse"
     x1="24"
     x2="34.515999"
     y1="20"
     y2="19">
    <stop
       offset="0"
       stop-color="#fff"
       stop-opacity="0"
       id="stop7" />
    <stop
       offset="1"
       stop-color="#faff00"
       id="stop9" />
  </linearGradient>
  <linearGradient
     id="c"
     gradientTransform="matrix(1.38297,0,0,1.87805,-9.191,-15.015)"
     gradientUnits="userSpaceOnUse"
     x1="25.445999"
     x2="35"
     y1="21.992001"
     y2="30.000999">
    <stop
       offset="0"
       stop-color="#6255b1"
       stop-opacity="0"
       id="stop12" />
    <stop
       offset="1"
       stop-color="#f0a"
       id="stop14" />
  </linearGradient>
  <linearGradient
     id="d"
     gradientTransform="matrix(1.38297,0,0,1.87805,-9.191,-15.015)"
     gradientUnits="userSpaceOnUse"
     x1="24"
     x2="24.18"
     y1="22.525"
     y2="29.886999">
    <stop
       offset="0"
       stop-color="#f300ff"
       stop-opacity="0"
       id="stop17" />
    <stop
       offset="1"
       stop-color="#12dbb9"
       id="stop19" />
  </linearGradient>
  <linearGradient
     id="e"
     gradientTransform="matrix(0.96863,0,0,1.31539,0.753,-1.448)"
     gradientUnits="userSpaceOnUse"
     x1="14.709"
     x2="39.486"
     y1="11.202"
     y2="32.488998">
    <stop
       offset="0"
       stop-color="#f300ff"
       id="stop22" />
    <stop
       offset="1"
       stop-color="#12dbb9"
       id="stop24" />
  </linearGradient>
  <linearGradient
     id="f"
     gradientUnits="userSpaceOnUse"
     x1="9.4020004"
     x2="39.964001"
     xlink:href="#a"
     y1="24.305"
     y2="24.305" />
  <linearGradient
     id="g"
     gradientUnits="userSpaceOnUse"
     x1="0"
     x2="0.14399999"
     y1="33.287998"
     y2="33.187">
    <stop
       offset="0"
       id="stop28" />
    <stop
       offset="1"
       stop-opacity="0"
       id="stop30" />
  </linearGradient>
  <linearGradient
     id="h"
     gradientUnits="userSpaceOnUse"
     x1="-172.20663"
     x2="-164.22003"
     xlink:href="#a"
     y1="147.20715"
     y2="147.20715" />
  <path
     inkscape:connector-curvature="0"
     style="fill:url(#b-6);stroke-width:2"
     d="M 8,4.0000007 H 56 V 60 H 8 Z"
     id="path36" />
  <path
     inkscape:connector-curvature="0"
     style="fill:#121212;stroke-width:2;fill-opacity:1"
     d="m 14,54 h 36 v 6 H 14 Z"
     id="path38" />
  <path
     inkscape:connector-curvature="0"
     style="fill:#ff9e07;stroke-width:2;fill-opacity:1"
     d="m 18,56 h 18 v 2 H 18 Z m 20,0 h 8 v 2 h -8 z"
     id="path40" />
  <path
     inkscape:connector-curvature="0"
     style="opacity:0.2;fill:#292c2f;stroke-width:2"
     d="m 48,54 h 8 v 6 H 48 Z M 8,54 h 8 v 6 H 8 Z"
     id="path42" />
  <path
     inkscape:connector-curvature="0"
     style="opacity:0.2;fill:#292c2f;stroke-width:2"
     d="m 8,54 h 8 v 6 h -2 z m 40,0 h 8 v 6 h -8 z"
     id="path44" />
  <path
     inkscape:connector-curvature="0"
     style="opacity:0.2;fill:url(#c-6);stroke-width:2"
     d="M 49.07,10.93 56,17.856 V 60 H 28 L 12,44 Z"
     id="path46" />
  <path
     inkscape:connector-curvature="0"
     style="fill:url(#d-2);stroke-width:2"
     d="M 22,8.0000007 A 10,10 0 0 0 12,18 v 9.536 A 6,6 0 0 1 13.992,31.77 4,4 0 0 1 14,32 a 4,4 0 0 1 -0.02,0.4 6,6 0 0 1 0,0.01 A 6,6 0 0 1 12,36.46 V 44 l 6,6 h 28 l 6,-6 V 36.464 A 6,6 0 0 1 50.008,32.23 4,4 0 0 1 50,32 4,4 0 0 1 50.02,31.59 6,6 0 0 1 52,27.54 V 18 A 10,10 0 0 0 42,8.0000007 Z"
     id="path48" />
  <path
     inkscape:connector-curvature="0"
     style="fill:#a8e76b;stroke-width:2;fill-opacity:1"
     d="M 32,12 A 16,16 0 0 0 18.176,19.972 L 32,26.882 45.816,19.972 A 16,16 0 0 0 32,12 Z"
     id="path50" />
  <path
     inkscape:connector-curvature="0"
     style="fill:#138415;stroke-width:2;fill-opacity:1"
     d="M 17.27,21.754 A 16,16 0 0 0 16,28 16,16 0 0 0 31,43.95 V 28.618 Z"
     id="path52" />
  <path
     inkscape:connector-curvature="0"
     style="fill:#3ba416;stroke-width:2;fill-opacity:1"
     d="M 46.714,21.758 33,28.618 V 43.964 A 16,16 0 0 0 48,28 16,16 0 0 0 46.714,21.758 Z"
     id="path54" />
  <path
     inkscape:connector-curvature="0"
     style="opacity:0.2;fill:#292c2f;stroke-width:2"
     d="m 8,58 h 6 v 2 H 8 Z m 42,0 h 6 v 2 h -6 z"
     id="path62" />
</svg>
