<?xml version="1.0" encoding="UTF-8" standalone="no"?>
<svg
   xmlns:dc="http://purl.org/dc/elements/1.1/"
   xmlns:cc="http://creativecommons.org/ns#"
   xmlns:rdf="http://www.w3.org/1999/02/22-rdf-syntax-ns#"
   xmlns:svg="http://www.w3.org/2000/svg"
   xmlns="http://www.w3.org/2000/svg"
   xmlns:xlink="http://www.w3.org/1999/xlink"
   xmlns:sodipodi="http://sodipodi.sourceforge.net/DTD/sodipodi-0.dtd"
   xmlns:inkscape="http://www.inkscape.org/namespaces/inkscape"
   viewBox="0 0 64 64"
   version="1.1"
   id="svg40"
   sodipodi:docname="parano.svg"
   width="64"
   height="64"
   inkscape:version="0.92.4 5da689c313, 2019-01-14">
  <metadata
     id="metadata46">
    <rdf:RDF>
      <cc:Work
         rdf:about="">
        <dc:format>image/svg+xml</dc:format>
        <dc:type
           rdf:resource="http://purl.org/dc/dcmitype/StillImage" />
        <dc:title></dc:title>
      </cc:Work>
    </rdf:RDF>
  </metadata>
  <defs
     id="defs44">
    <linearGradient
       gradientTransform="matrix(1.35 0 0 1.3-519.57-646.94)"
       gradientUnits="userSpaceOnUse"
       x2="0"
       y2="503.8"
       y1="512.8"
       id="a-4">
      <stop
         id="stop853"
         stop-color="#f62459" />
      <stop
         id="stop855"
         stop-color="#f73768"
         offset="1" />
    </linearGradient>
    <linearGradient
       gradientTransform="matrix(1.35,0,0,1.3,-519.57,-646.94)"
       gradientUnits="userSpaceOnUse"
       x2="0"
       y2="512.8"
       y1="543.8"
       xlink:href="#a-4"
       id="b-0" />
    <linearGradient
       gradientUnits="userSpaceOnUse"
       x2="0"
       y2="25.527"
       y1="8"
       id="c">
      <stop
         id="stop859"
         stop-color="#ffd6af" />
      <stop
         id="stop861"
         stop-color="#fffcf9"
         offset="1" />
    </linearGradient>
    <linearGradient
       inkscape:collect="always"
       xlink:href="#a-4"
       id="linearGradient902"
       gradientUnits="userSpaceOnUse"
       gradientTransform="matrix(1.35,0,0,1.3,-519.57,-646.94)"
       y1="512.8"
       x2="0"
       y2="503.8" />
  </defs>
  <sodipodi:namedview
     pagecolor="#ffffff"
     bordercolor="#666666"
     borderopacity="1"
     objecttolerance="10"
     gridtolerance="10"
     guidetolerance="10"
     inkscape:pageopacity="0"
     inkscape:pageshadow="2"
     inkscape:window-width="1366"
     inkscape:window-height="700"
     id="namedview42"
     showgrid="true"
     inkscape:zoom="6.9532167"
     inkscape:cx="20.520655"
     inkscape:cy="8.8543693"
     inkscape:window-x="0"
     inkscape:window-y="0"
     inkscape:window-maximized="1"
     inkscape:current-layer="svg40">
    <inkscape:grid
       type="xygrid"
       id="grid904" />
  </sodipodi:namedview>
  <linearGradient
     id="a"
     gradientTransform="rotate(-90,24,24)"
     gradientUnits="userSpaceOnUse"
     x1="1"
     x2="47">
    <stop
       offset="0"
       stop-color="#ce6b20"
       id="stop2" />
    <stop
       offset="1"
       stop-color="#dd7425"
       id="stop4" />
  </linearGradient>
  <linearGradient
     id="b"
     gradientUnits="userSpaceOnUse"
     x1="3.8710001"
     x2="10.516"
     y1="6.3930001"
     y2="6.3930001"
     gradientTransform="matrix(4.82656,0,0,4.82656,-10.027,9.375)">
    <stop
       offset="0"
       stop-color="#ff6e00"
       id="stop7" />
    <stop
       offset="1"
       stop-color="#ff0062"
       id="stop9" />
  </linearGradient>
  <g
     id="g900"
     transform="translate(0,-2)">
    <rect
       style="fill:url(#b-0);stroke-width:2.79999995;stroke-opacity:0.55"
       id="rect866"
       height="41"
       y="19"
       x="5"
       width="54" />
    <path
       style="fill:url(#linearGradient902);fill-rule:evenodd"
       id="path868"
       d="M 5,19 13.1,8 H 52.25 L 59,19 Z"
       inkscape:connector-curvature="0" />
    <path
       id="path870"
       d="m 28.1,8 v 17.495 l 1.3,-0.437 1.3,0.437 1.3,-0.437 1.3,0.437 1.3,-0.437 1.3,0.437 V 8 Z"
       inkscape:connector-curvature="0"
       style="fill:url(#c);stroke-width:2.79999995;stroke-opacity:0.55" />
    <g
       id="g878"
       transform="scale(1,-1)">
      <rect
         id="rect874"
         height="1"
         y="-60"
         x="5"
         width="54"
         style="fill:#2e3132;fill-opacity:0.294" />
      <rect
         id="rect876"
         height="1"
         y="-20"
         x="5"
         width="54"
         style="fill:#ffffff;fill-opacity:0.41199999" />
    </g>
  </g>
  <path
     d="m 17.998824,28.994332 c -0.808454,0 -1.528777,0.506459 -1.80492,1.265559 a 1.9200774,1.9200774 0 0 0 -3.124532,1.80727 1.9200774,1.9200774 0 0 0 -2.25615,1.887176 c 0.0012,0.45123 0.160985,0.889533 0.452405,1.233832 a 1.9212525,1.9212525 0 0 0 -0.0023,3.611014 1.9200774,1.9200774 0 0 0 1.80727,3.124532 c -0.02115,0.111633 -0.03055,0.223265 -0.0329,0.337248 a 1.9200774,1.9200774 0 0 0 1.761441,1.910676 V 53 L 17.999999,49.799087 21.200911,53 v -8.828361 a 1.9212525,1.9212525 0 0 0 1.72854,-2.247924 1.9200774,1.9200774 0 0 0 2.25615,-1.887175 1.9224275,1.9224275 0 0 0 -0.451231,-1.233832 1.9212525,1.9212525 0 0 0 0.0023,-3.611015 1.9200774,1.9200774 0 0 0 -1.80722,-3.124532 1.9200774,1.9200774 0 0 0 -1.887175,-2.25615 1.9224275,1.9224275 0 0 0 -1.233832,0.452405 1.9212525,1.9212525 0 0 0 -1.80727,-1.269084 m 0,3.200913 a 4.8013686,4.8013686 0 1 1 0,9.602737 4.8013686,4.8013686 0 0 1 0,-9.602737 z m 0,1.600456 a 3.2014999,3.2014999 0 1 0 0,6.402999 3.2014999,3.2014999 0 1 0 0,-6.402999 z"
     id="path18"
     inkscape:connector-curvature="0"
     style="fill:#fbe1e5;fill-opacity:1;stroke-width:1.17507792" />
</svg>
