<?xml version="1.0" encoding="UTF-8" standalone="no"?>
<svg
   xmlns:dc="http://purl.org/dc/elements/1.1/"
   xmlns:cc="http://creativecommons.org/ns#"
   xmlns:rdf="http://www.w3.org/1999/02/22-rdf-syntax-ns#"
   xmlns:svg="http://www.w3.org/2000/svg"
   xmlns="http://www.w3.org/2000/svg"
   xmlns:sodipodi="http://sodipodi.sourceforge.net/DTD/sodipodi-0.dtd"
   xmlns:inkscape="http://www.inkscape.org/namespaces/inkscape"
   height="64"
   viewBox="0 0 64 64"
   width="64"
   version="1.1"
   id="svg9"
   sodipodi:docname="plank-config.svg"
   enable-background="new"
   inkscape:version="0.92.4 5da689c313, 2019-01-14">
  <metadata
     id="metadata15">
    <rdf:RDF>
      <cc:Work
         rdf:about="">
        <dc:format>image/svg+xml</dc:format>
        <dc:type
           rdf:resource="http://purl.org/dc/dcmitype/StillImage" />
      </cc:Work>
    </rdf:RDF>
  </metadata>
  <defs
     id="defs13">
    <filter
       inkscape:collect="always"
       style="color-interpolation-filters:sRGB"
       id="filter843"
       x="-0.047999968"
       width="1.0959999"
       y="-0.048000032"
       height="1.0960001">
      <feGaussianBlur
         inkscape:collect="always"
         stdDeviation="1.0000006"
         id="feGaussianBlur845" />
    </filter>
  </defs>
  <sodipodi:namedview
     pagecolor="#ffffff"
     bordercolor="#666666"
     borderopacity="1"
     objecttolerance="10"
     gridtolerance="10"
     guidetolerance="10"
     inkscape:pageopacity="0"
     inkscape:pageshadow="2"
     inkscape:window-width="1366"
     inkscape:window-height="700"
     id="namedview11"
     showgrid="false"
     inkscape:zoom="3.6875"
     inkscape:cx="32.271186"
     inkscape:cy="32"
     inkscape:window-x="0"
     inkscape:window-y="0"
     inkscape:window-maximized="1"
     inkscape:current-layer="svg9" />
  <linearGradient
     id="a"
     gradientTransform="matrix(1.1846307 0 0 1.0973647 3.5688 5.767691)"
     gradientUnits="userSpaceOnUse"
     x1="24.083387"
     x2="24.090277"
     y1="9.066112"
     y2="42.474312">
    <stop
       offset="0"
       stop-color="#0db9e6"
       id="stop2"
       style="stop-color:#0487c6;stop-opacity:1" />
    <stop
       offset="1"
       stop-color="#005eff"
       id="stop4" />
  </linearGradient>
  <path
     id="path825"
     d="m 31.997624,7.0000832 c -0.145622,-10e-4 -0.290115,0.02371 -0.425727,0.07288 -3.619869,0.20338 -6.056525,2.657888 -6.564057,5.3968058 -0.48567,2.620939 0.826839,5.510814 3.859305,6.909968 v 4.194419 h -7.797276 c -1.169848,-0.0038 -2.143921,0.896723 -2.142516,1.980401 v 1.836799 c -0.0043,1.085429 0.97077,1.990729 2.142516,1.986831 h 7.797276 v 17.352079 c 0,0.445076 -0.364043,0.784179 -0.844513,0.784445 h -0.99259 c -0.308223,0 -1.875808,-0.347147 -3.463657,-0.88518 -1.587849,-0.538032 -3.348867,-1.237359 -4.652915,-1.841086 -0.954851,-0.4421 -1.099454,-0.625599 -1.508552,-0.904469 0.401957,-0.107004 0.708897,-0.408588 0.800551,-0.786587 0,0 0.150394,-0.730992 -0.111059,-1.581748 -0.261454,-0.850761 -0.911092,-1.924764 -2.260516,-2.964176 10e-7,-7.32e-4 10e-7,-0.0014 0,-0.0022 -0.516335,-0.396759 -1.149136,-0.743345 -1.730672,-1.071595 -0.580247,-0.32752 -1.141268,-0.676558 -1.205454,-0.730861 l -0.0023,-0.0022 c -0.366157,-0.314768 -0.532619,-0.611339 -0.731144,-0.96443 -0.09951,-0.176991 -0.192796,-0.374989 -0.418786,-0.621554 -0.225989,-0.246564 -0.728452,-0.535822 -1.214709,-0.535822 -0.5603606,0 -0.8565999,0.236042 -1.0781987,0.420084 -0.2215989,0.184044 -0.3879792,0.380268 -0.5506682,0.600122 -0.325378,0.439708 -0.6232633,0.976579 -0.897728,1.581749 -0.5489294,1.210341 -1.0041595,2.653034 -1.0041595,3.982233 0,1.07871 -0.01233,2.282049 0.2799615,3.446411 0.292291,1.164362 0.9821123,2.360558 2.3183593,3.01561 0.7620296,0.373547 1.6794226,-0.137979 1.6797696,-0.936618 0,-0.107926 0.107185,-0.327871 0.161961,-0.372933 0.05478,-0.04506 -0.09113,-0.08686 0.164275,0.03215 0.06539,0.03048 0.978913,0.549838 2.075418,1.202386 1.096503,0.652549 2.492714,1.487673 3.958795,2.340473 2.331025,1.358026 5.09458,2.17768 7.577473,3.116345 2.482891,0.938664 4.6329,1.985464 5.865309,3.521426 0.457605,0.570345 1.379499,0.570345 1.837104,0 1.232455,-1.536949 3.382389,-2.583209 5.865309,-3.521426 2.482921,-0.938217 5.245827,-1.758923 7.577472,-3.116345 7.91e-4,1e-6 0.0015,1e-6 0.0024,0 2.919458,-1.700691 5.651269,-3.321708 6.115193,-3.585725 7.91e-4,-7.3e-4 0.0015,-0.0014 0.0024,-0.0022 0.207106,-0.118441 0.148458,-0.108343 0.171217,-0.122168 0.02977,0.104074 0.06941,0.220459 0.06941,0.507959 3.49e-4,0.798639 0.91774,1.310165 1.679769,0.936619 1.336404,-0.655129 2.026085,-1.851156 2.31836,-3.01561 0.292273,-1.164454 0.279961,-2.36825 0.279961,-3.446411 0,-1.359364 -0.51645,-2.805625 -1.119846,-4.016526 -0.301699,-0.605451 -0.627057,-1.140724 -0.971767,-1.575319 -0.172356,-0.217298 -0.345338,-0.409588 -0.569179,-0.587262 -0.22384,-0.177673 -0.508134,-0.402938 -1.068944,-0.402938 -0.498348,0 -1.050868,0.360736 -1.247101,0.632271 -0.196233,0.271534 -0.250988,0.456056 -0.321609,0.619411 -0.141243,0.326709 -0.25326,0.573422 -0.599257,0.870176 -0.06102,0.0523 -0.623902,0.402879 -1.205454,0.730861 -0.581551,0.327984 -1.213544,0.67566 -1.730672,1.073789 -1.349338,1.039345 -1.999021,2.113648 -2.260516,2.964171 -0.261493,0.850522 -0.111059,1.581748 -0.111059,1.581748 0.0928,0.377722 0.400628,0.678479 0.802866,0.784444 -0.408617,0.279076 -0.553815,0.463493 -1.510867,0.906612 -1.303928,0.603673 -3.065085,1.303327 -4.652915,1.841087 -1.58783,0.537759 -3.155131,0.885179 -3.463657,0.885179 h -0.99259 c -7.91e-4,-10e-7 -0.0015,-10e-7 -0.0024,0 -0.479605,2.64e-4 -0.842199,-0.338027 -0.842199,-0.782302 V 29.376035 h 7.794963 c 1.170032,0.0038 2.144045,-0.896792 2.142516,-1.980401 v -0.0022 -1.838943 c 0,-0.549217 -0.292861,-1.077844 -0.670982,-1.395282 -0.378231,-0.317388 -0.807031,-0.47492 -1.224074,-0.559348 -0.07976,-0.01659 -0.161203,-0.02521 -0.242942,-0.02572 h -7.801904 v -4.170843 c 2.379584,-1.102691 3.971707,-3.307863 3.974991,-5.81689 10e-7,-7.32e-4 10e-7,-0.0014 0,-0.0022 -7.44e-4,-3.468243 -2.954369,-6.2580478 -6.635783,-6.4963128 -0.148119,-0.05964 -0.308189,-0.08958 -0.469687,-0.08782 -7.91e-4,-1e-6 -0.0015,-1e-6 -0.0024,0 z"
     style="fill:#000000;fill-opacity:1;filter:url(#filter843);opacity:0.25"
     inkscape:connector-curvature="0" />
  <path
     d="m31.997624 7.0000832c-.145622-.001-.290115.02371-.425727.07288-3.619869.20338-6.056525 2.657888-6.564057 5.3968058-.48567 2.620939.826839 5.510814 3.859305 6.909968v4.194419h-7.797276c-1.169848-.0038-2.143921.896723-2.142516 1.980401v1.836799c-.0043 1.085429.97077 1.990729 2.142516 1.986831h7.797276v17.352079c0 .445076-.364043.784179-.844513.784445h-.99259c-.308223 0-1.875808-.347147-3.463657-.88518-1.587849-.538032-3.348867-1.237359-4.652915-1.841086-.954851-.4421-1.099454-.625599-1.508552-.904469.401957-.107004.708897-.408588.800551-.786587 0 0 .150394-.730992-.111059-1.581748-.261454-.850761-.911092-1.924764-2.260516-2.964176.000001-.000732.000001-.0014 0-.0022-.516335-.396759-1.149136-.743345-1.730672-1.071595-.580247-.32752-1.141268-.676558-1.205454-.730861l-.0023-.0022c-.366157-.314768-.532619-.611339-.731144-.96443-.09951-.176991-.192796-.374989-.418786-.621554-.225989-.246564-.728452-.535822-1.214709-.535822-.5603606 0-.8565999.236042-1.0781987.420084-.2215989.184044-.3879792.380268-.5506682.600122-.325378.439708-.6232633.976579-.897728 1.581749-.5489294 1.210341-1.0041595 2.653034-1.0041595 3.982233 0 1.07871-.01233 2.282049.2799615 3.446411.292291 1.164362.9821123 2.360558 2.3183593 3.01561.7620296.373547 1.6794226-.137979 1.6797696-.936618 0-.107926.107185-.327871.161961-.372933.05478-.04506-.09113-.08686.164275.03215.06539.03048.978913.549838 2.075418 1.202386 1.096503.652549 2.492714 1.487673 3.958795 2.340473 2.331025 1.358026 5.09458 2.17768 7.577473 3.116345 2.482891.938664 4.6329 1.985464 5.865309 3.521426.457605.570345 1.379499.570345 1.837104 0 1.232455-1.536949 3.382389-2.583209 5.865309-3.521426 2.482921-.938217 5.245827-1.758923 7.577472-3.116345.000791.000001.0015.000001.0024 0 2.919458-1.700691 5.651269-3.321708 6.115193-3.585725.000791-.00073.0015-.0014.0024-.0022.207106-.118441.148458-.108343.171217-.122168.02977.104074.06941.220459.06941.507959.000349.798639.91774 1.310165 1.679769.936619 1.336404-.655129 2.026085-1.851156 2.31836-3.01561.292273-1.164454.279961-2.36825.279961-3.446411 0-1.359364-.51645-2.805625-1.119846-4.016526-.301699-.605451-.627057-1.140724-.971767-1.575319-.172356-.217298-.345338-.409588-.569179-.587262-.22384-.177673-.508134-.402938-1.068944-.402938-.498348 0-1.050868.360736-1.247101.632271-.196233.271534-.250988.456056-.321609.619411-.141243.326709-.25326.573422-.599257.870176-.06102.0523-.623902.402879-1.205454.730861-.581551.327984-1.213544.67566-1.730672 1.073789-1.349338 1.039345-1.999021 2.113648-2.260516 2.964171-.261493.850522-.111059 1.581748-.111059 1.581748.0928.377722.400628.678479.802866.784444-.408617.279076-.553815.463493-1.510867.906612-1.303928.603673-3.065085 1.303327-4.652915 1.841087-1.58783.537759-3.155131.885179-3.463657.885179h-.99259c-.000791-.000001-.0015-.000001-.0024 0-.479605.000264-.842199-.338027-.842199-.782302v-17.356301h7.794963c1.170032.0038 2.144045-.896792 2.142516-1.980401v-.0022-1.838943c0-.549217-.292861-1.077844-.670982-1.395282-.378231-.317388-.807031-.47492-1.224074-.559348-.07976-.01659-.161203-.02521-.242942-.02572h-7.801904v-4.170843c2.379584-1.102691 3.971707-3.307863 3.974991-5.81689.000001-.000732.000001-.0014 0-.0022-.000744-3.468243-2.954369-6.2580478-6.635783-6.4963128-.148119-.05964-.308189-.08958-.469687-.08782-.000791-.000001-.0015-.000001-.0024 0z"
     fill="url(#a)"
     id="path7" />
</svg>
