<?xml version="1.0" encoding="UTF-8" standalone="no"?>
<svg
   xmlns:dc="http://purl.org/dc/elements/1.1/"
   xmlns:cc="http://creativecommons.org/ns#"
   xmlns:rdf="http://www.w3.org/1999/02/22-rdf-syntax-ns#"
   xmlns:svg="http://www.w3.org/2000/svg"
   xmlns="http://www.w3.org/2000/svg"
   xmlns:xlink="http://www.w3.org/1999/xlink"
   xmlns:sodipodi="http://sodipodi.sourceforge.net/DTD/sodipodi-0.dtd"
   xmlns:inkscape="http://www.inkscape.org/namespaces/inkscape"
   viewBox="0 0 48 48"
   version="1.1"
   id="svg12"
   sodipodi:docname="playonlinux.svg"
   inkscape:version="0.92.4 5da689c313, 2019-01-14">
  <metadata
     id="metadata18">
    <rdf:RDF>
      <cc:Work
         rdf:about="">
        <dc:format>image/svg+xml</dc:format>
        <dc:type
           rdf:resource="http://purl.org/dc/dcmitype/StillImage" />
      </cc:Work>
    </rdf:RDF>
  </metadata>
  <defs
     id="defs16">
    <linearGradient
       inkscape:collect="always"
       id="linearGradient859">
      <stop
         style="stop-color:#0095f0;stop-opacity:1;"
         offset="0"
         id="stop855" />
      <stop
         style="stop-color:#08a1ff;stop-opacity:1"
         offset="1"
         id="stop857" />
    </linearGradient>
    <linearGradient
       inkscape:collect="always"
       id="linearGradient851">
      <stop
         style="stop-color:#ffbf00;stop-opacity:1;"
         offset="0"
         id="stop847" />
      <stop
         style="stop-color:#ffc824;stop-opacity:1"
         offset="1"
         id="stop849" />
    </linearGradient>
    <linearGradient
       inkscape:collect="always"
       id="linearGradient843">
      <stop
         style="stop-color:#ff1a08;stop-opacity:1;"
         offset="0"
         id="stop839" />
      <stop
         style="stop-color:#ff2e1e;stop-opacity:1"
         offset="1"
         id="stop841" />
    </linearGradient>
    <linearGradient
       inkscape:collect="always"
       id="linearGradient835">
      <stop
         style="stop-color:#5dce00;stop-opacity:1;"
         offset="0"
         id="stop831" />
      <stop
         style="stop-color:#73da1f;stop-opacity:1"
         offset="1"
         id="stop833" />
    </linearGradient>
    <filter
       inkscape:collect="always"
       style="color-interpolation-filters:sRGB"
       id="filter908"
       x="-0.12635192"
       width="1.2527038"
       y="-0.13274798"
       height="1.265496">
      <feGaussianBlur
         inkscape:collect="always"
         stdDeviation="1.0468002"
         id="feGaussianBlur910" />
    </filter>
    <filter
       inkscape:collect="always"
       style="color-interpolation-filters:sRGB"
       id="filter912"
       x="-0.12532407"
       width="1.2506481"
       y="-0.13331678"
       height="1.2666336">
      <feGaussianBlur
         inkscape:collect="always"
         stdDeviation="1.0468002"
         id="feGaussianBlur914" />
    </filter>
    <filter
       inkscape:collect="always"
       style="color-interpolation-filters:sRGB"
       id="filter916"
       x="-0.13334296"
       width="1.2666859"
       y="-0.12576442"
       height="1.2515288">
      <feGaussianBlur
         inkscape:collect="always"
         stdDeviation="1.0468002"
         id="feGaussianBlur918" />
    </filter>
    <filter
       inkscape:collect="always"
       style="color-interpolation-filters:sRGB"
       id="filter920"
       x="-0.13274939"
       width="1.2654988"
       y="-0.1263609"
       height="1.2527218">
      <feGaussianBlur
         inkscape:collect="always"
         stdDeviation="1.0468002"
         id="feGaussianBlur922" />
    </filter>
    <linearGradient
       inkscape:collect="always"
       xlink:href="#linearGradient835"
       id="linearGradient837"
       x1="7.3222656"
       y1="17.185547"
       x2="23.480469"
       y2="24.025343"
       gradientUnits="userSpaceOnUse" />
    <linearGradient
       inkscape:collect="always"
       xlink:href="#linearGradient843"
       id="linearGradient845"
       x1="30.508474"
       y1="11.389831"
       x2="25.830509"
       y2="21.559322"
       gradientUnits="userSpaceOnUse" />
    <linearGradient
       inkscape:collect="always"
       xlink:href="#linearGradient851"
       id="linearGradient853"
       x1="41.613277"
       y1="33.005859"
       x2="28.067797"
       y2="26.033897"
       gradientUnits="userSpaceOnUse" />
    <linearGradient
       inkscape:collect="always"
       xlink:href="#linearGradient859"
       id="linearGradient861"
       x1="18.101694"
       y1="40.677967"
       x2="23.453175"
       y2="26.044817"
       gradientUnits="userSpaceOnUse" />
  </defs>
  <sodipodi:namedview
     pagecolor="#ffffff"
     bordercolor="#666666"
     borderopacity="1"
     objecttolerance="10"
     gridtolerance="10"
     guidetolerance="10"
     inkscape:pageopacity="0"
     inkscape:pageshadow="2"
     inkscape:window-width="1366"
     inkscape:window-height="704"
     id="namedview14"
     showgrid="false"
     inkscape:zoom="4.9166667"
     inkscape:cx="-13.03106"
     inkscape:cy="27.198444"
     inkscape:window-x="0"
     inkscape:window-y="27"
     inkscape:window-maximized="1"
     inkscape:current-layer="g10" />
  <g
     id="g10"
     style="fill:none;stroke-width:1.89999998;stroke-linecap:round;stroke-linejoin:round">
    <path
       sodipodi:nodetypes="cccccsscccsscc"
       inkscape:connector-curvature="0"
       id="path836"
       d="m 35.779297,22.09375 c -3.356282,0.192188 -6.935064,1.215872 -9.6875,3.007812 -0.16815,0.05688 -0.317004,0.159721 -0.429688,0.296876 -0.01007,0.01213 -0.01984,0.0245 -0.0293,0.03711 -0.215875,0.275898 -0.262413,0.648203 -0.121093,0.96875 0.577669,4.352044 3.083169,9.124079 6.08789,12.029297 1.534096,1.483293 3.220344,2.525351 5.00586,2.550781 1.785516,0.02543 3.45496,-1.16253 4.486328,-3.40625 0.852627,-1.862956 0.871268,-3.337172 0.521484,-4.572266 1.164544,-0.538964 2.270463,-1.512474 3.126953,-3.371093 0.949698,-2.064009 0.681017,-4.027057 -0.507812,-5.300782 -1.188829,-1.273724 -3.040197,-1.900633 -5.136719,-2.152343 -1.048261,-0.125856 -2.168372,-0.15363 -3.316406,-0.08789 z"
       style="color:#000000;font-style:normal;font-variant:normal;font-weight:normal;font-stretch:normal;font-size:medium;line-height:normal;font-family:sans-serif;font-variant-ligatures:normal;font-variant-position:normal;font-variant-caps:normal;font-variant-numeric:normal;font-variant-alternates:normal;font-feature-settings:normal;text-indent:0;text-align:start;text-decoration:none;text-decoration-line:none;text-decoration-style:solid;text-decoration-color:#000000;letter-spacing:normal;word-spacing:normal;text-transform:none;writing-mode:lr-tb;direction:ltr;text-orientation:mixed;dominant-baseline:auto;baseline-shift:baseline;text-anchor:start;white-space:normal;shape-padding:0;clip-rule:nonzero;display:inline;overflow:visible;visibility:visible;opacity:0.25;isolation:auto;mix-blend-mode:normal;color-interpolation:sRGB;color-interpolation-filters:linearRGB;solid-color:#000000;solid-opacity:1;vector-effect:none;fill:#000000;fill-opacity:1;fill-rule:nonzero;stroke:none;stroke-width:1.89999998;stroke-linecap:butt;stroke-linejoin:miter;stroke-miterlimit:4;stroke-dasharray:none;stroke-dashoffset:0;stroke-opacity:1;filter:url(#filter908);color-rendering:auto;image-rendering:auto;shape-rendering:auto;text-rendering:auto;enable-background:accumulate" />
    <path
       sodipodi:nodetypes="cccccsscccccccsc"
       inkscape:connector-curvature="0"
       id="path838"
       d="m 12.023438,9.546875 c -1.682417,-0.00473 -3.2601068,1.073516 -4.1757818,3.068359 -0.8547915,1.860429 -0.8746512,3.334808 -0.5253906,4.570313 -1.1651492,0.537721 -2.2711535,1.51003 -3.1289062,3.371094 -7e-7,6.67e-4 -7e-7,0.0013 0,0.002 -0.9853608,2.144268 -0.8751588,4.098173 0.1835937,5.439453 1.0587526,1.34128 2.8083303,1.991412 4.7890625,2.255859 3.9614644,0.528895 9.0872284,-0.489915 12.8847654,-2.65039 6.68e-4,-6.66e-4 0.0013,-0.0013 0.002,-0.002 0.0092,-0.0053 0.07926,-0.03082 0.263672,-0.07422 0.18441,-0.0434 0.490295,-0.106888 0.814453,-0.326172 0.387555,-0.253341 0.536053,-0.749158 0.351563,-1.173828 -6.66e-4,-6.68e-4 -0.0013,-0.0013 -0.002,-0.002 -0.03411,-0.28713 -0.07551,-0.572784 -0.126953,-0.857374 C 22.575315,18.850504 19.899155,14.39456 16.859375,11.763672 15.339485,10.448228 13.705854,9.5516013 12.023438,9.546875 Z"
       style="color:#000000;font-style:normal;font-variant:normal;font-weight:normal;font-stretch:normal;font-size:medium;line-height:normal;font-family:sans-serif;font-variant-ligatures:normal;font-variant-position:normal;font-variant-caps:normal;font-variant-numeric:normal;font-variant-alternates:normal;font-feature-settings:normal;text-indent:0;text-align:start;text-decoration:none;text-decoration-line:none;text-decoration-style:solid;text-decoration-color:#000000;letter-spacing:normal;word-spacing:normal;text-transform:none;writing-mode:lr-tb;direction:ltr;text-orientation:mixed;dominant-baseline:auto;baseline-shift:baseline;text-anchor:start;white-space:normal;shape-padding:0;clip-rule:nonzero;display:inline;overflow:visible;visibility:visible;opacity:0.25;isolation:auto;mix-blend-mode:normal;color-interpolation:sRGB;color-interpolation-filters:linearRGB;solid-color:#000000;solid-opacity:1;vector-effect:none;fill:#000000;fill-opacity:1;fill-rule:nonzero;stroke:none;stroke-width:1.89999998;stroke-linecap:butt;stroke-linejoin:miter;stroke-miterlimit:4;stroke-dasharray:none;stroke-dashoffset:0;stroke-opacity:1;filter:url(#filter912);color-rendering:auto;image-rendering:auto;shape-rendering:auto;text-rendering:auto;enable-background:accumulate" />
    <path
       sodipodi:nodetypes="ssscccccsccccccs"
       inkscape:connector-curvature="0"
       id="path840"
       d="M 25.876953,3.9941406 C 24.919306,4.0591832 24.075598,4.4012738 23.40625,4.9921875 22.067554,6.174015 21.466185,8.0628451 21.267578,10.1875 c -0.389122,4.162756 0.817365,9.418008 3.214844,13.097656 0.09552,0.310468 0.343038,0.550618 0.65625,0.636719 0.0245,0.0069 0.04925,0.01272 0.07422,0.01758 0.01621,0.003 0.03249,0.0056 0.04883,0.0078 0.169998,0.02712 0.34417,0.0075 0.503906,-0.05664 4.369822,-0.579211 8.971277,-3.196512 11.771484,-6.25 1.427154,-1.556241 2.42308,-3.237756 2.496094,-4.978516 0.07301,-1.740759 -1.00006,-3.4035061 -3.064453,-4.3515621 10e-7,-6.5e-4 10e-7,-0.0013 0,-0.00195 C 35.108804,7.4557573 33.63559,7.4361497 32.400391,7.7851562 31.862178,6.620098 30.889373,5.5139468 29.029297,4.65625 c -6.67e-4,-7e-7 -0.0013,-7e-7 -0.002,0 C 27.905483,4.140566 26.834601,3.9290981 25.876953,3.9941406 Z"
       style="color:#000000;font-style:normal;font-variant:normal;font-weight:normal;font-stretch:normal;font-size:medium;line-height:normal;font-family:sans-serif;font-variant-ligatures:normal;font-variant-position:normal;font-variant-caps:normal;font-variant-numeric:normal;font-variant-alternates:normal;font-feature-settings:normal;text-indent:0;text-align:start;text-decoration:none;text-decoration-line:none;text-decoration-style:solid;text-decoration-color:#000000;letter-spacing:normal;word-spacing:normal;text-transform:none;writing-mode:lr-tb;direction:ltr;text-orientation:mixed;dominant-baseline:auto;baseline-shift:baseline;text-anchor:start;white-space:normal;shape-padding:0;clip-rule:nonzero;display:inline;overflow:visible;visibility:visible;opacity:0.25;isolation:auto;mix-blend-mode:normal;color-interpolation:sRGB;color-interpolation-filters:linearRGB;solid-color:#000000;solid-opacity:1;vector-effect:none;fill:#000000;fill-opacity:1;fill-rule:nonzero;stroke:none;stroke-width:1.89999998;stroke-linecap:butt;stroke-linejoin:miter;stroke-miterlimit:4;stroke-dasharray:none;stroke-dashoffset:0;stroke-opacity:1;filter:url(#filter916);color-rendering:auto;image-rendering:auto;shape-rendering:auto;text-rendering:auto;enable-background:accumulate" />
    <path
       sodipodi:nodetypes="ccssccccssccccccccc"
       inkscape:connector-curvature="0"
       id="path842"
       d="m 23.453125,26.044922 c -0.129279,0.0015 -0.256883,0.02946 -0.375,0.08203 -4.352303,0.578248 -9.124146,3.08337 -12.029297,6.087891 -1.4833008,1.534037 -2.5274623,3.220365 -2.5527342,5.005859 -0.025272,1.785495 1.1623157,3.453036 3.4062502,4.484375 6.67e-4,10e-7 0.0013,10e-7 0.002,0 1.8616,0.85327 3.335433,0.871654 4.570312,0.521484 0.539015,1.165092 1.513618,2.270489 3.373047,3.126954 2.063844,0.949187 4.025349,0.679297 5.298828,-0.509766 1.27348,-1.189063 1.900636,-3.038268 2.152344,-5.134766 0.493887,-4.113634 -0.516362,-9.312697 -2.921875,-13.005859 -3.08e-4,-4.73e-4 3.08e-4,-0.0015 0,-0.002 -0.05826,-0.172162 -0.164685,-0.323999 -0.306641,-0.4375 -0.0013,-6.7e-4 -0.0026,-0.0013 -0.0039,-0.002 -0.0064,-0.0053 -0.01295,-0.01051 -0.01953,-0.01563 -0.0052,-0.004 -0.01038,-0.0079 -0.01563,-0.01172 -0.02029,-0.01449 -0.04114,-0.02817 -0.0625,-0.04102 -0.154043,-0.09799 -0.333058,-0.149527 -0.515625,-0.148437 z"
       style="color:#000000;font-style:normal;font-variant:normal;font-weight:normal;font-stretch:normal;font-size:medium;line-height:normal;font-family:sans-serif;font-variant-ligatures:normal;font-variant-position:normal;font-variant-caps:normal;font-variant-numeric:normal;font-variant-alternates:normal;font-feature-settings:normal;text-indent:0;text-align:start;text-decoration:none;text-decoration-line:none;text-decoration-style:solid;text-decoration-color:#000000;letter-spacing:normal;word-spacing:normal;text-transform:none;writing-mode:lr-tb;direction:ltr;text-orientation:mixed;dominant-baseline:auto;baseline-shift:baseline;text-anchor:start;white-space:normal;shape-padding:0;clip-rule:nonzero;display:inline;overflow:visible;visibility:visible;opacity:0.25;isolation:auto;mix-blend-mode:normal;color-interpolation:sRGB;color-interpolation-filters:linearRGB;solid-color:#000000;solid-opacity:1;vector-effect:none;fill:#000000;fill-opacity:1;fill-rule:nonzero;stroke:none;stroke-width:1.89999998;stroke-linecap:butt;stroke-linejoin:miter;stroke-miterlimit:4;stroke-dasharray:none;stroke-dashoffset:0;stroke-opacity:1;filter:url(#filter920);color-rendering:auto;image-rendering:auto;shape-rendering:auto;text-rendering:auto;enable-background:accumulate" />
    <path
       style="color:#000000;font-style:normal;font-variant:normal;font-weight:normal;font-stretch:normal;font-size:medium;line-height:normal;font-family:sans-serif;font-variant-ligatures:normal;font-variant-position:normal;font-variant-caps:normal;font-variant-numeric:normal;font-variant-alternates:normal;font-feature-settings:normal;text-indent:0;text-align:start;text-decoration:none;text-decoration-line:none;text-decoration-style:solid;text-decoration-color:#000000;letter-spacing:normal;word-spacing:normal;text-transform:none;writing-mode:lr-tb;direction:ltr;text-orientation:mixed;dominant-baseline:auto;baseline-shift:baseline;text-anchor:start;white-space:normal;shape-padding:0;clip-rule:nonzero;display:inline;overflow:visible;visibility:visible;opacity:1;isolation:auto;mix-blend-mode:normal;color-interpolation:sRGB;color-interpolation-filters:linearRGB;solid-color:#000000;solid-opacity:1;vector-effect:none;fill:url(#linearGradient853);fill-opacity:1;fill-rule:nonzero;stroke:none;stroke-width:1.89999998;stroke-linecap:butt;stroke-linejoin:miter;stroke-miterlimit:4;stroke-dasharray:none;stroke-dashoffset:0;stroke-opacity:1;color-rendering:auto;image-rendering:auto;shape-rendering:auto;text-rendering:auto;enable-background:accumulate"
       d="m 35.779297,22.09375 c -3.356282,0.192188 -6.935064,1.215872 -9.6875,3.007812 -0.16815,0.05688 -0.317004,0.159721 -0.429688,0.296876 -0.01007,0.01213 -0.01984,0.0245 -0.0293,0.03711 -0.215875,0.275898 -0.262413,0.648203 -0.121093,0.96875 0.577669,4.352044 3.083169,9.124079 6.08789,12.029297 1.534096,1.483293 3.220344,2.525351 5.00586,2.550781 1.785516,0.02543 3.45496,-1.16253 4.486328,-3.40625 0.852627,-1.862956 0.871268,-3.337172 0.521484,-4.572266 1.164544,-0.538964 2.270463,-1.512474 3.126953,-3.371093 0.949698,-2.064009 0.681017,-4.027057 -0.507812,-5.300782 -1.188829,-1.273724 -3.040197,-1.900633 -5.136719,-2.152343 -1.048261,-0.125856 -2.168372,-0.15363 -3.316406,-0.08789 z"
       id="path2"
       inkscape:connector-curvature="0"
       sodipodi:nodetypes="cccccsscccsscc" />
    <path
       style="color:#000000;font-style:normal;font-variant:normal;font-weight:normal;font-stretch:normal;font-size:medium;line-height:normal;font-family:sans-serif;font-variant-ligatures:normal;font-variant-position:normal;font-variant-caps:normal;font-variant-numeric:normal;font-variant-alternates:normal;font-feature-settings:normal;text-indent:0;text-align:start;text-decoration:none;text-decoration-line:none;text-decoration-style:solid;text-decoration-color:#000000;letter-spacing:normal;word-spacing:normal;text-transform:none;writing-mode:lr-tb;direction:ltr;text-orientation:mixed;dominant-baseline:auto;baseline-shift:baseline;text-anchor:start;white-space:normal;shape-padding:0;clip-rule:nonzero;display:inline;overflow:visible;visibility:visible;opacity:1;isolation:auto;mix-blend-mode:normal;color-interpolation:sRGB;color-interpolation-filters:linearRGB;solid-color:#000000;solid-opacity:1;vector-effect:none;fill:url(#linearGradient837);fill-opacity:1;fill-rule:nonzero;stroke:none;stroke-width:1.89999998;stroke-linecap:butt;stroke-linejoin:miter;stroke-miterlimit:4;stroke-dasharray:none;stroke-dashoffset:0;stroke-opacity:1;color-rendering:auto;image-rendering:auto;shape-rendering:auto;text-rendering:auto;enable-background:accumulate"
       d="m 12.023438,9.546875 c -1.682417,-0.00473 -3.2601068,1.073516 -4.1757818,3.068359 -0.8547915,1.860429 -0.8746512,3.334808 -0.5253906,4.570313 -1.1651492,0.537721 -2.2711535,1.51003 -3.1289062,3.371094 -7e-7,6.67e-4 -7e-7,0.0013 0,0.002 -0.9853608,2.144268 -0.8751588,4.098173 0.1835937,5.439453 1.0587526,1.34128 2.8083303,1.991412 4.7890625,2.255859 3.9614644,0.528895 9.0872284,-0.489915 12.8847654,-2.65039 6.68e-4,-6.66e-4 0.0013,-0.0013 0.002,-0.002 0.0092,-0.0053 0.07926,-0.03082 0.263672,-0.07422 0.18441,-0.0434 0.490295,-0.106888 0.814453,-0.326172 0.387555,-0.253341 0.536053,-0.749158 0.351563,-1.173828 -6.66e-4,-6.68e-4 -0.0013,-0.0013 -0.002,-0.002 -0.03411,-0.28713 -0.07551,-0.572784 -0.126953,-0.857374 C 22.575315,18.850504 19.899155,14.39456 16.859375,11.763672 15.339485,10.448228 13.705854,9.5516013 12.023438,9.546875 Z"
       id="path4"
       inkscape:connector-curvature="0"
       sodipodi:nodetypes="cccccsscccccccsc" />
    <path
       style="color:#000000;font-style:normal;font-variant:normal;font-weight:normal;font-stretch:normal;font-size:medium;line-height:normal;font-family:sans-serif;font-variant-ligatures:normal;font-variant-position:normal;font-variant-caps:normal;font-variant-numeric:normal;font-variant-alternates:normal;font-feature-settings:normal;text-indent:0;text-align:start;text-decoration:none;text-decoration-line:none;text-decoration-style:solid;text-decoration-color:#000000;letter-spacing:normal;word-spacing:normal;text-transform:none;writing-mode:lr-tb;direction:ltr;text-orientation:mixed;dominant-baseline:auto;baseline-shift:baseline;text-anchor:start;white-space:normal;shape-padding:0;clip-rule:nonzero;display:inline;overflow:visible;visibility:visible;opacity:1;isolation:auto;mix-blend-mode:normal;color-interpolation:sRGB;color-interpolation-filters:linearRGB;solid-color:#000000;solid-opacity:1;vector-effect:none;fill:url(#linearGradient845);fill-opacity:1;fill-rule:nonzero;stroke:none;stroke-width:1.89999998;stroke-linecap:butt;stroke-linejoin:miter;stroke-miterlimit:4;stroke-dasharray:none;stroke-dashoffset:0;stroke-opacity:1;color-rendering:auto;image-rendering:auto;shape-rendering:auto;text-rendering:auto;enable-background:accumulate"
       d="M 25.876953,3.9941406 C 24.919306,4.0591832 24.075598,4.4012738 23.40625,4.9921875 22.067554,6.174015 21.466185,8.0628451 21.267578,10.1875 c -0.389122,4.162756 0.817365,9.418008 3.214844,13.097656 0.09552,0.310468 0.343038,0.550618 0.65625,0.636719 0.0245,0.0069 0.04925,0.01272 0.07422,0.01758 0.01621,0.003 0.03249,0.0056 0.04883,0.0078 0.169998,0.02712 0.34417,0.0075 0.503906,-0.05664 4.369822,-0.579211 8.971277,-3.196512 11.771484,-6.25 1.427154,-1.556241 2.42308,-3.237756 2.496094,-4.978516 0.07301,-1.740759 -1.00006,-3.4035061 -3.064453,-4.3515621 10e-7,-6.5e-4 10e-7,-0.0013 0,-0.00195 C 35.108804,7.4557573 33.63559,7.4361497 32.400391,7.7851562 31.862178,6.620098 30.889373,5.5139468 29.029297,4.65625 c -6.67e-4,-7e-7 -0.0013,-7e-7 -0.002,0 C 27.905483,4.140566 26.834601,3.9290981 25.876953,3.9941406 Z"
       id="path6"
       inkscape:connector-curvature="0"
       sodipodi:nodetypes="ssscccccsccccccs" />
    <path
       style="color:#000000;font-style:normal;font-variant:normal;font-weight:normal;font-stretch:normal;font-size:medium;line-height:normal;font-family:sans-serif;font-variant-ligatures:normal;font-variant-position:normal;font-variant-caps:normal;font-variant-numeric:normal;font-variant-alternates:normal;font-feature-settings:normal;text-indent:0;text-align:start;text-decoration:none;text-decoration-line:none;text-decoration-style:solid;text-decoration-color:#000000;letter-spacing:normal;word-spacing:normal;text-transform:none;writing-mode:lr-tb;direction:ltr;text-orientation:mixed;dominant-baseline:auto;baseline-shift:baseline;text-anchor:start;white-space:normal;shape-padding:0;clip-rule:nonzero;display:inline;overflow:visible;visibility:visible;opacity:1;isolation:auto;mix-blend-mode:normal;color-interpolation:sRGB;color-interpolation-filters:linearRGB;solid-color:#000000;solid-opacity:1;vector-effect:none;fill:url(#linearGradient861);fill-opacity:1;fill-rule:nonzero;stroke:none;stroke-width:1.89999998;stroke-linecap:butt;stroke-linejoin:miter;stroke-miterlimit:4;stroke-dasharray:none;stroke-dashoffset:0;stroke-opacity:1;color-rendering:auto;image-rendering:auto;shape-rendering:auto;text-rendering:auto;enable-background:accumulate"
       d="m 23.453125,26.044922 c -0.129279,0.0015 -0.256883,0.02946 -0.375,0.08203 -4.352303,0.578248 -9.124146,3.08337 -12.029297,6.087891 -1.4833008,1.534037 -2.5274623,3.220365 -2.5527342,5.005859 -0.025272,1.785495 1.1623157,3.453036 3.4062502,4.484375 6.67e-4,10e-7 0.0013,10e-7 0.002,0 1.8616,0.85327 3.335433,0.871654 4.570312,0.521484 0.539015,1.165092 1.513618,2.270489 3.373047,3.126954 2.063844,0.949187 4.025349,0.679297 5.298828,-0.509766 1.27348,-1.189063 1.900636,-3.038268 2.152344,-5.134766 0.493887,-4.113634 -0.516362,-9.312697 -2.921875,-13.005859 -3.08e-4,-4.73e-4 3.08e-4,-0.0015 0,-0.002 -0.05826,-0.172162 -0.164685,-0.323999 -0.306641,-0.4375 -0.0013,-6.7e-4 -0.0026,-0.0013 -0.0039,-0.002 -0.0064,-0.0053 -0.01295,-0.01051 -0.01953,-0.01563 -0.0052,-0.004 -0.01038,-0.0079 -0.01563,-0.01172 -0.02029,-0.01449 -0.04114,-0.02817 -0.0625,-0.04102 -0.154043,-0.09799 -0.333058,-0.149527 -0.515625,-0.148437 z"
       id="path8"
       inkscape:connector-curvature="0"
       sodipodi:nodetypes="ccssccccssccccccccc" />
  </g>
</svg>
