<?xml version="1.0" encoding="UTF-8" standalone="no"?>
<svg
   xmlns:dc="http://purl.org/dc/elements/1.1/"
   xmlns:cc="http://creativecommons.org/ns#"
   xmlns:rdf="http://www.w3.org/1999/02/22-rdf-syntax-ns#"
   xmlns:svg="http://www.w3.org/2000/svg"
   xmlns="http://www.w3.org/2000/svg"
   xmlns:xlink="http://www.w3.org/1999/xlink"
   xmlns:sodipodi="http://sodipodi.sourceforge.net/DTD/sodipodi-0.dtd"
   xmlns:inkscape="http://www.inkscape.org/namespaces/inkscape"
   viewBox="0 0 64 64"
   version="1.1"
   id="svg21"
   sodipodi:docname="preferences-system-privacy.svg"
   width="64"
   height="64"
   inkscape:version="0.92.4 5da689c313, 2019-01-14">
  <metadata
     id="metadata27">
    <rdf:RDF>
      <cc:Work
         rdf:about="">
        <dc:format>image/svg+xml</dc:format>
        <dc:type
           rdf:resource="http://purl.org/dc/dcmitype/StillImage" />
        <dc:title></dc:title>
      </cc:Work>
    </rdf:RDF>
  </metadata>
  <defs
     id="defs25">
    <linearGradient
       inkscape:collect="always"
       id="linearGradient875">
      <stop
         style="stop-color:#3c3c3c;stop-opacity:1"
         offset="0"
         id="stop871" />
      <stop
         style="stop-color:#686868;stop-opacity:1"
         offset="1"
         id="stop873" />
    </linearGradient>
    <style
       id="current-color-scheme"
       type="text/css">
      .ColorScheme-Text {
        color:#232629;
      }
    </style>
    <linearGradient
       inkscape:collect="always"
       xlink:href="#linearGradient875"
       id="linearGradient879"
       gradientUnits="userSpaceOnUse"
       x1="8.75"
       y1="3.5000007"
       x2="8.75"
       y2="12.898302"
       gradientTransform="matrix(4,0,0,4.0000017,-6.0000001e-8,-8.9999995e-6)" />
    <linearGradient
       inkscape:collect="always"
       xlink:href="#linearGradient875"
       id="linearGradient881"
       gradientUnits="userSpaceOnUse"
       x1="8.75"
       y1="3.5000007"
       x2="8.75"
       y2="12.898302"
       gradientTransform="matrix(2.6666656,0,0,2.6666668,-5.3333281,2.6666693)" />
    <linearGradient
       inkscape:collect="always"
       xlink:href="#linearGradient875"
       id="linearGradient885"
       gradientUnits="userSpaceOnUse"
       x1="8.75"
       y1="3.5000007"
       x2="8.75"
       y2="12.898302"
       gradientTransform="matrix(3.9999984,0,0,4.0000002,4.0000015,-3.9999977)" />
    <linearGradient
       inkscape:collect="always"
       xlink:href="#linearGradient875"
       id="linearGradient887"
       gradientUnits="userSpaceOnUse"
       x1="8.75"
       y1="3.5000007"
       x2="8.75"
       y2="12.898302"
       gradientTransform="matrix(2.6666656,0,0,2.6666668,4.0000015,-3.9999977)" />
    <filter
       inkscape:collect="always"
       style="color-interpolation-filters:sRGB"
       id="filter937"
       x="-0.06"
       width="1.12"
       y="-0.06"
       height="1.12">
      <feGaussianBlur
         inkscape:collect="always"
         stdDeviation="1.2"
         id="feGaussianBlur939" />
    </filter>
  </defs>
  <sodipodi:namedview
     pagecolor="#ffffff"
     bordercolor="#666666"
     borderopacity="1"
     objecttolerance="10"
     gridtolerance="10"
     guidetolerance="10"
     inkscape:pageopacity="0"
     inkscape:pageshadow="2"
     inkscape:window-width="1366"
     inkscape:window-height="704"
     id="namedview23"
     showgrid="true"
     inkscape:zoom="4.9166667"
     inkscape:cx="12.241939"
     inkscape:cy="28.189617"
     inkscape:window-x="0"
     inkscape:window-y="27"
     inkscape:window-maximized="1"
     inkscape:current-layer="svg21">
    <inkscape:grid
       type="xygrid"
       id="grid867" />
  </sodipodi:namedview>
  <linearGradient
     id="a">
    <stop
       offset="0"
       stop-color="#00a660"
       id="stop2" />
    <stop
       offset="1"
       stop-color="#00ff69"
       id="stop4" />
  </linearGradient>
  <linearGradient
     id="b"
     gradientUnits="userSpaceOnUse"
     x1="13.545"
     x2="35.271999"
     xlink:href="#a"
     y1="25.782"
     y2="25.782" />
  <linearGradient
     id="c"
     gradientUnits="userSpaceOnUse"
     x1="0.29300001"
     x2="43.116001"
     xlink:href="#a"
     y1="7.8850002"
     y2="35.749001" />
  <path
     style="opacity:0.25;fill:#000000;fill-opacity:1;filter:url(#filter937)"
     d="M 20,8 16,24 H 48 L 44,8 32,12 Z m -8,20 -4,4 h 48 l -4,-4 z m 6,8 c -5.522847,-2e-6 -10,4.477151 -10,10 0,5.522849 4.477153,10.000002 10,10 4.747842,-0.0052 8.837543,-3.348078 9.787109,-8 h 8.416016 c 0.950302,4.655514 5.045363,7.999487 9.796875,8 5.522847,2e-6 10,-4.477151 10,-10 0,-5.522849 -4.477153,-10.000002 -10,-10 -4.747842,0.0052 -8.837543,3.348078 -9.787109,8 H 27.796875 C 27.6402,43.249433 27.397721,42.519376 27.074219,41.824219 26,40 26,40 24.574219,38.480469 22.755013,36.885613 20.419309,36.004346 18,36 Z m 0,4 c 3.313708,-10e-7 6,2.686291 6,6 0,3.313709 -2.686292,6.000001 -6,6 -3.313708,10e-7 -6,-2.686291 -6,-6 0,-3.313709 2.686292,-6.000001 6,-6 z m 28,0 c 3.313708,-10e-7 6,2.686291 6,6 0,3.313709 -2.686292,6.000001 -6,6 -3.313708,10e-7 -6,-2.686291 -6,-6 0,-3.313709 2.686292,-6.000001 6,-6 z"
     id="path902"
     inkscape:connector-curvature="0"
     sodipodi:nodetypes="ccccccccccccsccccsccccccssssssssss" />
  <path
     inkscape:connector-curvature="0"
     class="ColorScheme-Text"
     d="M 19.999994,8.0000044 15.999995,24 H 48 L 44,8.0000044 31.999992,12.000002 Z M 12,27.999999 8.0000003,32.000005 H 56 l -4.000056,-4.000006 z"
     style="color:#232629;fill:url(#linearGradient879);fill-opacity:1;stroke:none;stroke-width:4.00000095"
     id="path840" />
  <path
     inkscape:connector-curvature="0"
     class="ColorScheme-Text"
     d="m 23.999993,44.000005 h 15.999994 v 4 H 23.999993 Z"
     style="color:#232629;fill:url(#linearGradient881);fill-opacity:1;stroke:none;stroke-width:2.66666627"
     id="path842" />
  <path
     id="path846"
     style="color:#232629;fill:url(#linearGradient885);fill-opacity:1;stroke:none;stroke-width:3.99999928"
     d="m 17.999996,36.000004 a 9.999996,10 0 0 0 -9.9999961,10.000001 9.999996,10 0 0 0 9.9999961,10 9.999996,10 0 0 0 9.999996,-10 9.999996,10 0 0 0 -9.999996,-10.000001 z m 0,4 a 5.9999976,6.0000003 0 0 1 5.999997,6.000001 5.9999976,6.0000003 0 0 1 -5.999997,6 5.9999976,6.0000003 0 0 1 -5.999998,-6 5.9999976,6.0000003 0 0 1 5.999998,-6.000001 z"
     class="ColorScheme-Text"
     inkscape:connector-curvature="0" />
  <path
     id="path848"
     style="color:#232629;fill:url(#linearGradient887);fill-opacity:1;stroke:none;stroke-width:2.66666627"
     d="m 45.999985,36.000004 a 9.999996,10 0 0 0 -9.999996,10.000001 9.999996,10 0 0 0 9.999996,10 9.999996,10 0 0 0 9.999996,-10 9.999996,10 0 0 0 -9.999996,-10.000001 z m 0,4 a 5.9999976,6.0000003 0 0 1 5.999997,6.000001 5.9999976,6.0000003 0 0 1 -5.999997,6 5.9999976,6.0000003 0 0 1 -5.999998,-6 5.9999976,6.0000003 0 0 1 5.999998,-6.000001 z"
     class="ColorScheme-Text"
     inkscape:connector-curvature="0" />
</svg>
