<?xml version="1.0" encoding="UTF-8" standalone="no"?>
<svg
   xmlns:dc="http://purl.org/dc/elements/1.1/"
   xmlns:cc="http://creativecommons.org/ns#"
   xmlns:rdf="http://www.w3.org/1999/02/22-rdf-syntax-ns#"
   xmlns:svg="http://www.w3.org/2000/svg"
   xmlns="http://www.w3.org/2000/svg"
   xmlns:xlink="http://www.w3.org/1999/xlink"
   xmlns:sodipodi="http://sodipodi.sourceforge.net/DTD/sodipodi-0.dtd"
   xmlns:inkscape="http://www.inkscape.org/namespaces/inkscape"
   viewBox="0 0 48 48"
   version="1.1"
   id="svg16"
   sodipodi:docname="preferences-desktop-notification.svg"
   inkscape:version="0.92.4 5da689c313, 2019-01-14">
  <metadata
     id="metadata22">
    <rdf:RDF>
      <cc:Work
         rdf:about="">
        <dc:format>image/svg+xml</dc:format>
        <dc:type
           rdf:resource="http://purl.org/dc/dcmitype/StillImage" />
      </cc:Work>
    </rdf:RDF>
  </metadata>
  <defs
     id="defs20">
    <filter
       inkscape:collect="always"
       style="color-interpolation-filters:sRGB"
       id="filter930"
       x="-0.059999995"
       width="1.12"
       y="-0.060000005"
       height="1.12">
      <feGaussianBlur
         inkscape:collect="always"
         stdDeviation="0.92500008"
         id="feGaussianBlur932" />
    </filter>
  </defs>
  <sodipodi:namedview
     pagecolor="#ffffff"
     bordercolor="#666666"
     borderopacity="1"
     objecttolerance="10"
     gridtolerance="10"
     guidetolerance="10"
     inkscape:pageopacity="0"
     inkscape:pageshadow="2"
     inkscape:window-width="1366"
     inkscape:window-height="699"
     id="namedview18"
     showgrid="false"
     inkscape:zoom="9.8333333"
     inkscape:cx="11.894046"
     inkscape:cy="23.1357"
     inkscape:window-x="0"
     inkscape:window-y="0"
     inkscape:window-maximized="1"
     inkscape:current-layer="g903" />
  <linearGradient
     id="a">
    <stop
       offset="0"
       stop-color="#00b5ff"
       id="stop2" />
    <stop
       offset="1"
       stop-color="#050aff"
       id="stop4" />
  </linearGradient>
  <linearGradient
     id="b"
     gradientUnits="userSpaceOnUse"
     x1="4.33863"
     x2="44.87913"
     xlink:href="#a"
     y1="26.49504008"
     y2="26.49504008" />
  <linearGradient
     id="c"
     gradientTransform="matrix(1.23927 0 0 .6142 -9.143 1.66)"
     gradientUnits="userSpaceOnUse"
     x1="15.081"
     x2="34.139"
     xlink:href="#a"
     y1="23.339"
     y2="23.339" />
  <linearGradient
     id="d"
     gradientTransform="matrix(1.33339 0 0 .6142 -4.543 12.716)"
     gradientUnits="userSpaceOnUse"
     x1="15.081"
     x2="34.139"
     xlink:href="#a"
     y1="23.339"
     y2="23.339" />
  <g
     id="g903"
     transform="matrix(1.3214286,0,0,1.3214286,3.636554,2.7330174)"
     style="fill:#000000;fill-opacity:1;stroke-width:0.75675678">
    <path
       style="opacity:0.24100001;fill:#000000;fill-opacity:1;stroke-width:1;filter:url(#filter930)"
       d="m 24.779297,5.375 c -2.62221,0 -4.625,2.0457252 -4.625,4.5957031 -2.87e-4,0.2203459 0.01857,0.4742159 0.05664,0.6914059 -4.776425,1.621824 -5.998221,5.983744 -6.003907,10.919922 0,6.449066 -5.2848769,11.607872 -7.9277341,14.1875 v 1.320313 H 20.207031 a 4.6250001,4.6250001 0 0 0 -0.05273,0.660156 4.6250001,4.6250001 0 0 0 4.625,4.625 4.6250001,4.6250001 0 0 0 4.625,-4.625 4.6250001,4.6250001 0 0 0 -0.05078,-0.660156 h 13.925781 v -1.320313 c -2.642857,-2.579627 -7.927734,-7.738434 -7.927735,-14.1875 -0.0057,-4.936178 -1.227483,-9.298098 -6.003906,-10.919922 0.03807,-0.21719 0.05693,-0.47106 0.05664,-0.6914059 0,-2.5499779 -2.00279,-4.5957031 -4.625,-4.5957031 z"
       transform="matrix(0.75675674,0,0,0.75675674,-2.7519868,-2.0682293)"
       id="circle905"
       inkscape:connector-curvature="0" />
    <circle
       style="fill:#515151;fill-opacity:1;stroke-width:0.75675678"
       id="circle883"
       cy="26.5"
       cx="15.999998"
       r="3.5" />
    <path
       style="fill:#f5cb3d;fill-opacity:1;stroke-width:0.75675678"
       id="path885"
       d="M 16,2 C 14.015625,2 12.5,3.5468495 12.5,5.4765625 12.499783,5.6433105 12.514159,5.83564 12.542969,6 8.9283778,7.227326 8.004303,10.528186 8,14.263672 8,19.144046 4,23.047849 2,25 v 1 H 16 30 V 25 C 28,23.04785 24,19.144046 24,14.263672 23.9957,10.528186 23.071621,7.227326 19.457031,6 19.485841,5.83564 19.50022,5.6433105 19.5,5.4765625 19.5,3.5468495 17.984375,2 16,2 Z"
       inkscape:connector-curvature="0" />
    <path
       id="path887"
       d="m 2,25 h 28 v 0.999999 H 2 Z"
       inkscape:connector-curvature="0"
       style="opacity:0.15;fill:#000000;fill-opacity:1;stroke-width:0.75675678" />
    <path
       id="path889"
       d="M 12.546875,5 C 12.525749,5.1573019 12.5,5.313055 12.5,5.4765625 12.499783,5.6433105 12.514159,5.83564 12.542969,6 h 6.914062 C 19.485841,5.83564 19.50022,5.6433105 19.5,5.4765625 19.5,5.313055 19.474251,5.1573019 19.453125,5 Z"
       inkscape:connector-curvature="0"
       style="opacity:0.15;fill:#000000;fill-opacity:1;stroke-width:0.75675678" />
    <path
       style="opacity:0.24100001;fill:#ffffff;fill-opacity:1;stroke:none;stroke-width:0.89999998;stroke-linecap:round;stroke-linejoin:round;stroke-miterlimit:4;stroke-dasharray:none;stroke-opacity:1"
       d="m 24.779297,5.375 c -2.62221,0 -4.625,2.0457252 -4.625,4.5957031 -2.87e-4,0.2203459 0.01857,0.4742159 0.05664,0.6914059 -4.776425,1.621824 -5.998221,5.983744 -6.003907,10.919922 0,6.449066 -5.2848769,11.607872 -7.9277341,14.1875 v 1.320313 H 24.779297 c 0.122132,-6.65593 -0.02137,-21.998566 0,-31.714844 z"
       transform="matrix(0.75675674,0,0,0.75675674,-2.7519868,-2.0682293)"
       id="rect944"
       inkscape:connector-curvature="0"
       sodipodi:nodetypes="cccccccc" />
  </g>
</svg>
