<?xml version="1.0" encoding="UTF-8" standalone="no"?>
<svg
   xmlns:dc="http://purl.org/dc/elements/1.1/"
   xmlns:cc="http://creativecommons.org/ns#"
   xmlns:rdf="http://www.w3.org/1999/02/22-rdf-syntax-ns#"
   xmlns:svg="http://www.w3.org/2000/svg"
   xmlns="http://www.w3.org/2000/svg"
   xmlns:xlink="http://www.w3.org/1999/xlink"
   xmlns:sodipodi="http://sodipodi.sourceforge.net/DTD/sodipodi-0.dtd"
   xmlns:inkscape="http://www.inkscape.org/namespaces/inkscape"
   height="64"
   viewBox="0 0 64 64"
   width="64"
   version="1.1"
   id="svg16"
   sodipodi:docname="remmina.svg"
   inkscape:version="0.92.4 5da689c313, 2019-01-14">
  <metadata
     id="metadata22">
    <rdf:RDF>
      <cc:Work
         rdf:about="">
        <dc:format>image/svg+xml</dc:format>
        <dc:type
           rdf:resource="http://purl.org/dc/dcmitype/StillImage" />
      </cc:Work>
    </rdf:RDF>
  </metadata>
  <defs
     id="defs20">
    <filter
       inkscape:collect="always"
       style="color-interpolation-filters:sRGB"
       id="filter854"
       x="-0.059999996"
       width="1.12"
       y="-0.060000004"
       height="1.12">
      <feGaussianBlur
         inkscape:collect="always"
         stdDeviation="1.4000002"
         id="feGaussianBlur856" />
    </filter>
  </defs>
  <sodipodi:namedview
     pagecolor="#ffffff"
     bordercolor="#666666"
     borderopacity="1"
     objecttolerance="10"
     gridtolerance="10"
     guidetolerance="10"
     inkscape:pageopacity="0"
     inkscape:pageshadow="2"
     inkscape:window-width="1366"
     inkscape:window-height="700"
     id="namedview18"
     showgrid="false"
     inkscape:zoom="5.2149125"
     inkscape:cx="26.234608"
     inkscape:cy="29.775997"
     inkscape:window-x="0"
     inkscape:window-y="0"
     inkscape:window-maximized="1"
     inkscape:current-layer="svg16" />
  <linearGradient
     id="a"
     gradientTransform="matrix(1.3040236 0 0 1.3040238 .703433 .70343)"
     gradientUnits="userSpaceOnUse"
     spreadMethod="pad"
     x1="15.96"
     x2="43.030998"
     y1="41.213001"
     y2="21.891001">
    <stop
       offset="0"
       stop-color="#13ccbc"
       id="stop2" />
    <stop
       offset="1"
       stop-color="#08a1e3"
       id="stop4" />
  </linearGradient>
  <linearGradient
     id="b"
     gradientTransform="matrix(1.3040236 0 0 1.3040238 .703433 .70343)"
     gradientUnits="userSpaceOnUse"
     x1="3.748"
     x2="31.632"
     xlink:href="#a"
     y1="28.753"
     y2="7.193">
    <stop
       offset="0"
       stop-color="#0090eb"
       id="stop7" />
    <stop
       offset="1"
       stop-color="#1eb5de"
       id="stop9" />
  </linearGradient>
  <path
     style="fill:#000000;fill-opacity:1;filter:url(#filter854);opacity:0.25"
     d="M 32 4 C 16.536888 3.9947839 3.9908718 16.535581 4 32 A 27.915233 27.915237 0 0 0 8.1757812 46.640625 L 12.572266 43.707031 A 22.211434 22.211437 0 0 1 9.21875 32 C 9.21353 19.63003 19.332345 9.5950424 31.810547 9.6015625 A 22.636546 22.636549 0 0 1 49.996094 18.759766 L 54.683594 15.628906 A 27.981738 27.981743 0 0 0 32 4 z M 18.933594 17.066406 L 18.933594 24.533203 L 24.533203 28.265625 L 18.933594 32 L 18.933594 39.466797 L 35.734375 28.265625 L 18.933594 17.066406 z M 55.826172 17.359375 L 51.152344 20.474609 A 22.194482 22.194485 0 0 1 54.400391 32 C 54.406891 44.371273 44.284842 54.404958 31.806641 54.398438 A 22.641762 22.641765 0 0 1 13.746094 45.417969 L 9.3144531 48.369141 A 27.981738 27.981743 0 0 0 32 60 C 47.464416 60.0052 60.010432 47.464418 60 32 A 27.915233 27.915237 0 0 0 55.826172 17.359375 z M 45.066406 24.533203 L 28.265625 35.734375 L 45.066406 46.933594 L 45.066406 39.466797 L 39.466797 35.734375 L 45.066406 32 L 45.066406 24.533203 z "
     id="path831" />
  <path
     d="m32 4.0000026c-15.463112-.0052161-28.0091231 12.5355804-27.9999949 27.9999994a27.915233 27.915237 0 0 0 4.1754835 14.641579l4.3971674-2.934054a22.211434 22.211437 0 0 1 -3.3539485-11.707525c-.00522-12.36997 10.1127035-22.4057373 22.5909055-22.3992172a22.636546 22.636549 0 0 1 18.185913 9.1581592l4.687965-3.129657a27.981738 27.981743 0 0 0 -22.683491-11.6292844zm13.066317 20.5331584-16.799737 11.200261 16.799737 11.20026v-7.46684l-5.599478-3.73342 5.599478-3.73342z"
     id="path12"
     fill="url(#b)" />
  <path
     d="m18.933684 17.066321v7.46684l5.599477 3.733421-5.599477 3.73342v7.46684l16.799736-11.20026zm36.892131.292101-4.67362 3.116617a22.194482 22.194485 0 0 1 3.248322 11.524963c.0065 12.371273-10.115311 22.405737-22.593512 22.399216a22.641762 22.641765 0 0 1 -18.060727-8.982115l-4.4310728 2.952309a27.981738 27.981743 0 0 0 22.6847948 11.630589c15.464416.0052 28.010427-12.535581 27.999995-27.999999a27.915233 27.915237 0 0 0 -4.17418-14.64158z"
     id="path14"
     fill="url(#a)" />
</svg>
