<?xml version="1.0" encoding="UTF-8" standalone="no"?>
<svg
   xmlns:dc="http://purl.org/dc/elements/1.1/"
   xmlns:cc="http://creativecommons.org/ns#"
   xmlns:rdf="http://www.w3.org/1999/02/22-rdf-syntax-ns#"
   xmlns:svg="http://www.w3.org/2000/svg"
   xmlns="http://www.w3.org/2000/svg"
   xmlns:sodipodi="http://sodipodi.sourceforge.net/DTD/sodipodi-0.dtd"
   xmlns:inkscape="http://www.inkscape.org/namespaces/inkscape"
   viewBox="0 0 64 64"
   version="1.1"
   id="svg13"
   sodipodi:docname="chrome-iabmpiboiopbgfabjmgeedhcmjenhbla-Default.svg"
   inkscape:version="0.92.4 5da689c313, 2019-01-14"
   width="64"
   height="64">
  <metadata
     id="metadata19">
    <rdf:RDF>
      <cc:Work
         rdf:about="">
        <dc:format>image/svg+xml</dc:format>
        <dc:type
           rdf:resource="http://purl.org/dc/dcmitype/StillImage" />
        <dc:title></dc:title>
      </cc:Work>
    </rdf:RDF>
  </metadata>
  <defs
     id="defs17">
    <linearGradient
       id="e"
       gradientUnits="userSpaceOnUse"
       x1="8"
       x2="8"
       y1="25"
       y2="11">
      <stop
         offset="0"
         stop-color="#2e3436"
         id="stop2-7" />
      <stop
         offset="1"
         stop-color="#555753"
         id="stop4-4" />
    </linearGradient>
    <filter
       inkscape:collect="always"
       style="color-interpolation-filters:sRGB"
       id="filter1074"
       x="-0.056249999"
       width="1.1125"
       y="-0.06428571"
       height="1.1285714">
      <feGaussianBlur
         inkscape:collect="always"
         stdDeviation="0.375"
         id="feGaussianBlur1076" />
    </filter>
  </defs>
  <sodipodi:namedview
     pagecolor="#ffffff"
     bordercolor="#666666"
     borderopacity="1"
     objecttolerance="10"
     gridtolerance="10"
     guidetolerance="10"
     inkscape:pageopacity="0"
     inkscape:pageshadow="2"
     inkscape:window-width="1366"
     inkscape:window-height="700"
     id="namedview15"
     showgrid="false"
     inkscape:zoom="4.9166667"
     inkscape:cx="-0.95911092"
     inkscape:cy="28.570944"
     inkscape:window-x="0"
     inkscape:window-y="0"
     inkscape:window-maximized="1"
     inkscape:current-layer="g1012" />
  <linearGradient
     id="a"
     gradientUnits="userSpaceOnUse"
     x1="5.046"
     x2="43.713001"
     y1="11.369"
     y2="40.555">
    <stop
       offset="0"
       stop-color="#e800ff"
       id="stop2" />
    <stop
       offset="1"
       stop-color="#ff5400"
       id="stop4" />
  </linearGradient>
  <g
     id="g894"
     transform="translate(5.1525424,14.033898)">
    <g
       transform="matrix(2.1847317,0,0,2.2242406,-6.2514026,-17.086409)"
       style="opacity:0.247;fill:#000000;fill-opacity:1;stroke-width:0.4536387;filter:url(#filter1074)"
       id="g1048">
      <path
         style="fill:#000000;fill-opacity:1;stroke-width:0.4536387"
         inkscape:connector-curvature="0"
         id="path1044"
         d="m 16,12 a 9,9 0 0 0 -7.877,4.668 c 0.129,0.364 0.357,0.677 0.656,0.908 A 8,8 0 0 1 16,13 a 4,4 0 0 0 -4,4 4,4 0 0 0 4,4 4,4 0 0 0 4,-4 4,4 0 0 0 -3.65,-3.982 8,8 0 0 1 6.87,4.558 c 0.302,-0.234 0.533,-0.55 0.66,-0.918 A 9,9 0 0 0 16,12 Z m 0,2 a 3,3 0 0 1 3,3 3,3 0 0 1 -3,3 3,3 0 0 1 -3,-3 3,3 0 0 1 3,-3 z m 0,1 a 2,2 0 0 0 -2,2 2,2 0 0 0 2,2 2,2 0 0 0 2,-2 A 2,2 0 0 0 17.91,16.412 1,1 0 0 1 17,17 1,1 0 0 1 16,16 1,1 0 0 1 16.59,15.09 2,2 0 0 0 16,15 Z" />
      <path
         style="fill:#000000;fill-opacity:1;stroke-width:0.4536387"
         inkscape:connector-curvature="0"
         id="path1046"
         d="m 8,11 v 11 h 7 v 2 h -3 v 1 h 8 v -1 h -3 v -2 h 7 V 11 H 9 Z m 1,1 h 14 v 9 H 9 Z" />
    </g>
    <g
       id="g1012"
       transform="translate(-5.2614716,1.9149752)">
      <rect
         transform="scale(-1)"
         style="opacity:1;fill:#f54123;fill-opacity:1;stroke:none;stroke-width:0.89999998;stroke-linecap:round;stroke-linejoin:round;stroke-miterlimit:4;stroke-dasharray:none;stroke-opacity:1"
         id="rect941"
         width="55.999989"
         height="49.885391"
         x="-60.108929"
         y="-40.936527"
         rx="4.0000038"
         ry="4.2411551" />
      <path
         sodipodi:nodetypes="ccccc"
         inkscape:connector-curvature="0"
         d="M 4.1089292,40.936504 53.371385,41.051127 15.053885,-8.9488744 H 4.1089292 Z"
         id="path869"
         style="opacity:0.34100001;fill:#ffffff;fill-opacity:1;stroke:none;stroke-width:1.64777088;stroke-linecap:round;stroke-opacity:1" />
      <g
         style="fill:none;fill-opacity:1;stroke:#000000;stroke-width:0.6513505;stroke-linecap:round;stroke-opacity:1"
         id="g17"
         transform="matrix(1.7351893,0,0,1.7665686,-13.128519,-19.246117)">
        <g
           style="fill:none;fill-opacity:1;stroke:#000000;stroke-width:0.97702569;stroke-opacity:1"
           id="g13">
          <circle
             style="fill:none;fill-opacity:1;stroke:#000000;stroke-width:0.97702569;stroke-opacity:1"
             id="circle7"
             r="1.535"
             cy="9.5150003"
             cx="38.453999" />
          <circle
             style="fill:none;fill-opacity:1;stroke:#000000;stroke-width:0.97702569;stroke-opacity:1"
             id="circle9"
             r="1.535"
             cy="9.5150003"
             cx="32.453999" />
          <circle
             style="fill:none;fill-opacity:1;stroke:#000000;stroke-width:0.97702569;stroke-opacity:1"
             id="circle11"
             r="1.535"
             cy="9.5150003"
             cx="26.454" />
        </g>
      </g>
    </g>
    <g
       id="g41"
       style="fill:#000000;fill-opacity:1;stroke-width:0.4536387"
       transform="matrix(2.1847317,0,0,2.2242406,-6.2514026,-17.086409)">
      <path
         d="m 16,12 a 9,9 0 0 0 -7.877,4.668 c 0.129,0.364 0.357,0.677 0.656,0.908 A 8,8 0 0 1 16,13 a 4,4 0 0 0 -4,4 4,4 0 0 0 4,4 4,4 0 0 0 4,-4 4,4 0 0 0 -3.65,-3.982 8,8 0 0 1 6.87,4.558 c 0.302,-0.234 0.533,-0.55 0.66,-0.918 A 9,9 0 0 0 16,12 Z m 0,2 a 3,3 0 0 1 3,3 3,3 0 0 1 -3,3 3,3 0 0 1 -3,-3 3,3 0 0 1 3,-3 z m 0,1 a 2,2 0 0 0 -2,2 2,2 0 0 0 2,2 2,2 0 0 0 2,-2 A 2,2 0 0 0 17.91,16.412 1,1 0 0 1 17,17 1,1 0 0 1 16,16 1,1 0 0 1 16.59,15.09 2,2 0 0 0 16,15 Z"
         id="path37"
         inkscape:connector-curvature="0"
         style="fill:#000000;fill-opacity:1;stroke-width:0.4536387" />
      <path
         d="m 8,11 v 11 h 7 v 2 h -3 v 1 h 8 v -1 h -3 v -2 h 7 V 11 H 9 Z m 1,1 h 14 v 9 H 9 Z"
         id="path39"
         inkscape:connector-curvature="0"
         style="fill:#000000;fill-opacity:1;stroke-width:0.4536387" />
    </g>
  </g>
</svg>
