<?xml version="1.0" encoding="UTF-8" standalone="no"?>
<svg
   xmlns:dc="http://purl.org/dc/elements/1.1/"
   xmlns:cc="http://creativecommons.org/ns#"
   xmlns:rdf="http://www.w3.org/1999/02/22-rdf-syntax-ns#"
   xmlns:svg="http://www.w3.org/2000/svg"
   xmlns="http://www.w3.org/2000/svg"
   xmlns:xlink="http://www.w3.org/1999/xlink"
   xmlns:sodipodi="http://sodipodi.sourceforge.net/DTD/sodipodi-0.dtd"
   xmlns:inkscape="http://www.inkscape.org/namespaces/inkscape"
   height="64"
   width="64"
   version="1.1"
   id="svg15"
   sodipodi:docname="com.viber.Viber.svg"
   inkscape:version="0.92.4 5da689c313, 2019-01-14">
  <metadata
     id="metadata21">
    <rdf:RDF>
      <cc:Work
         rdf:about="">
        <dc:format>image/svg+xml</dc:format>
        <dc:type
           rdf:resource="http://purl.org/dc/dcmitype/StillImage" />
        <dc:title />
      </cc:Work>
    </rdf:RDF>
  </metadata>
  <defs
     id="defs19">
    <linearGradient
       inkscape:collect="always"
       id="linearGradient905">
      <stop
         style="stop-color:#fafafa;stop-opacity:1"
         offset="0"
         id="stop901" />
      <stop
         style="stop-color:#eaeaea;stop-opacity:1"
         offset="1"
         id="stop903" />
    </linearGradient>
    <filter
       inkscape:collect="always"
       style="color-interpolation-filters:sRGB"
       id="filter869"
       x="-0.049846155"
       width="1.0996923"
       y="-0.046285716"
       height="1.0925714">
      <feGaussianBlur
         inkscape:collect="always"
         stdDeviation="1.08"
         id="feGaussianBlur871" />
    </filter>
    <linearGradient
       inkscape:collect="always"
       xlink:href="#linearGradient905"
       id="linearGradient907"
       x1="45.050846"
       y1="12.169492"
       x2="24.644068"
       y2="48.271187"
       gradientUnits="userSpaceOnUse"
       gradientTransform="matrix(0.89490199,0,0,0.89490199,3.3631363,3.3631365)" />
  </defs>
  <sodipodi:namedview
     pagecolor="#ffffff"
     bordercolor="#666666"
     borderopacity="1"
     objecttolerance="10"
     gridtolerance="10"
     guidetolerance="10"
     inkscape:pageopacity="0"
     inkscape:pageshadow="2"
     inkscape:window-width="1366"
     inkscape:window-height="700"
     id="namedview17"
     showgrid="false"
     inkscape:zoom="6.9532167"
     inkscape:cx="6.064113"
     inkscape:cy="34.811462"
     inkscape:window-x="0"
     inkscape:window-y="0"
     inkscape:window-maximized="1"
     inkscape:current-layer="svg15" />
  <linearGradient
     id="a"
     gradientTransform="rotate(-90,32,32)"
     gradientUnits="userSpaceOnUse"
     x1="3.5610001"
     x2="42.806"
     y1="5.1430001"
     y2="42.535999">
    <stop
       offset="0"
       stop-color="#6a40ff"
       id="stop2" />
    <stop
       offset="1"
       stop-color="#9300ff"
       id="stop4" />
  </linearGradient>
  <path
     sodipodi:nodetypes="ccccccccccccccccccccccc"
     inkscape:connector-curvature="0"
     id="path847"
     d="M 57.468821,36.419222 C 59.161192,22.368615 56.655728,13.498107 52.13644,9.4859786 l 0.0023,-0.00233 C 44.844597,2.6320275 20.210694,1.617922 11.48412,9.7913796 7.5651972,13.78952 6.1848297,19.657343 6.0335556,26.921603 5.8822827,34.188193 5.7026461,47.800519 18.563235,51.493262 h 0.01182 l -0.01182,5.639359 c 0,0 -0.08746,2.284652 1.392186,2.743914 1.69237,0.540856 2.458191,-0.519876 7.722026,-6.721072 8.802213,0.753002 15.562236,-0.972142 16.33042,-1.22392 1.77746,-0.587482 11.834768,-1.899992 13.460954,-15.512318 z M 28.544905,49.187626 c 0,0 -3.940164,2.915307 -5.636261,4.442389 C 22.013285,53.992444 21.71973,53.830962 21.437555,52.8997 21.182379,52.110743 20.104328,47.833154 20.104328,47.833154 9.2008395,44.751206 9.8437512,33.160097 9.9619326,27.096445 10.080115,21.030463 11.20521,16.062512 14.523767,12.717128 22.17961,5.6370406 43.77623,7.2199774 49.278794,12.320812 c 6.726932,5.881812 4.33256,22.499153 4.346742,23.065654 -1.382732,11.362645 -9.532578,12.083009 -11.031128,12.574908 -0.640548,0.209815 -6.585114,1.718152 -14.049503,1.226252 z"
     style="fill:#151515;stroke-width:21.33333206;fill-opacity:1;filter:url(#filter869);opacity:0.25" />
  <path
     style="opacity:1;fill:url(#linearGradient907);fill-opacity:1;stroke-width:21.33333206"
     d="M 54.792099,35.954771 C 56.306605,23.380855 54.06446,15.442619 50.02014,11.852158 l 0.0021,-0.0021 C 43.494655,5.7185431 21.449727,4.8110181 13.640298,12.125462 10.133246,15.703405 8.8979527,20.954532 8.7625772,27.455333 8.6272028,33.958218 8.4664456,46.139916 19.975412,49.444559 h 0.01058 l -0.01058,5.046674 c 0,0 -0.07827,2.044539 1.24587,2.455534 1.514506,0.484013 2.19984,-0.465238 6.910457,-6.014701 7.877118,0.673863 13.926676,-0.869972 14.614125,-1.095288 1.590653,-0.525739 10.590957,-1.700307 12.046235,-13.882005 z"
     id="path895"
     inkscape:connector-curvature="0"
     sodipodi:nodetypes="ccccccccccccc" />
  <path
     style="fill:#8e24aa;stroke-width:21.33333206"
     d="M 57.468821,36.419222 C 59.161192,22.368615 56.655728,13.498107 52.13644,9.4859786 l 0.0023,-0.00233 C 44.844597,2.6320275 20.210694,1.617922 11.48412,9.7913796 7.5651972,13.78952 6.1848297,19.657343 6.0335556,26.921603 5.8822827,34.188193 5.7026461,47.800519 18.563235,51.493262 h 0.01182 l -0.01182,5.639359 c 0,0 -0.08746,2.284652 1.392186,2.743914 1.69237,0.540856 2.458191,-0.519876 7.722026,-6.721072 8.802213,0.753002 15.562236,-0.972142 16.33042,-1.22392 1.77746,-0.587482 11.834768,-1.899992 13.460954,-15.512318 z M 28.544905,49.187626 c 0,0 -3.940164,2.915307 -5.636261,4.442389 C 22.013285,53.992444 21.71973,53.830962 21.437555,52.8997 21.182379,52.110743 20.104328,47.833154 20.104328,47.833154 9.2008395,44.751206 9.8437512,33.160097 9.9619326,27.096445 10.080115,21.030463 11.20521,16.062512 14.523767,12.717128 22.17961,5.6370406 43.77623,7.2199774 49.278794,12.320812 c 6.726932,5.881812 4.33256,22.499153 4.346742,23.065654 -1.382732,11.362645 -9.532578,12.083009 -11.031128,12.574908 -0.640548,0.209815 -6.585114,1.718152 -14.049503,1.226252 z"
     id="path2"
     inkscape:connector-curvature="0"
     sodipodi:nodetypes="ccccccccccccccccccccccc" />
  <path
     style="fill:#8e24aa;stroke-width:21.33333206"
     d="m 31.627097,14.048288 c -0.910002,0 -0.910002,1.398767 0,1.410422 7.060207,0.05362 12.874772,4.907339 12.938591,13.810486 0,0.939504 1.394549,0.927847 1.382731,-0.01166 h -0.0023 c -0.0757,-9.593202 -6.42445,-15.155629 -14.319022,-15.209248 z"
     id="path4"
     inkscape:connector-curvature="0" />
  <path
     style="fill:#8e24aa;stroke-width:21.33333206"
     d="m 40.913857,27.793497 c -0.02127,0.927848 1.370913,0.972143 1.382732,0.03264 0.115818,-5.289667 -3.19092,-9.646823 -9.404942,-10.106084 -0.910003,-0.06528 -1.004548,1.345146 -0.09691,1.410422 5.38911,0.403311 8.227846,4.030777 8.119119,8.663025 z"
     id="path6"
     inkscape:connector-curvature="0" />
  <path
     style="fill:#8e24aa;stroke-width:21.33333206"
     d="m 39.42476,33.810523 c -1.16764,-0.666745 -2.356553,-0.251778 -2.848191,0.403311 l -1.028185,1.312508 c -0.522366,0.666746 -1.498551,0.578157 -1.498551,0.578157 -7.124025,-1.858028 -9.029122,-9.210875 -9.029122,-9.210875 0,0 -0.08746,-0.995455 0.564911,-1.529318 l 1.285822,-1.049075 c 0.642912,-0.503556 1.049458,-1.715819 0.394729,-2.907101 -1.749097,-3.116918 -2.923827,-4.191636 -3.52183,-5.016908 -0.628729,-0.776315 -1.574187,-0.951161 -2.557463,-0.426624 h -0.02127 c -2.044552,1.179626 -4.282923,3.387345 -3.56674,5.66034 1.222004,2.396552 3.467467,10.036148 10.624582,15.808389 3.363466,2.729925 8.686393,5.527458 10.946039,6.173221 l 0.02127,0.03264 c 2.226553,0.732021 4.391651,-1.561956 5.547473,-3.639124 v -0.01632 c 0.512911,-1.004781 0.342729,-1.955942 -0.406546,-2.578393 -1.328369,-1.27754 -3.332739,-2.687962 -4.906927,-3.594829 z"
     id="path8"
     inkscape:connector-curvature="0" />
  <path
     style="fill:#8e24aa;stroke-width:21.33333206"
     d="m 33.865469,22.923459 c 2.271462,0.130552 3.372919,1.300852 3.491103,3.704399 0.04254,0.939505 1.425277,0.874229 1.382732,-0.06527 -0.151274,-3.137899 -1.810552,-4.886357 -4.798199,-5.049546 -0.910003,-0.05362 -0.995094,1.356803 -0.07564,1.410422 z"
     id="path10"
     inkscape:connector-curvature="0" />
</svg>
