<?xml version="1.0" encoding="UTF-8" standalone="no"?>
<svg
   xmlns:dc="http://purl.org/dc/elements/1.1/"
   xmlns:cc="http://creativecommons.org/ns#"
   xmlns:rdf="http://www.w3.org/1999/02/22-rdf-syntax-ns#"
   xmlns:svg="http://www.w3.org/2000/svg"
   xmlns="http://www.w3.org/2000/svg"
   xmlns:xlink="http://www.w3.org/1999/xlink"
   xmlns:sodipodi="http://sodipodi.sourceforge.net/DTD/sodipodi-0.dtd"
   xmlns:inkscape="http://www.inkscape.org/namespaces/inkscape"
   viewBox="0 0 64 64"
   version="1.1"
   id="svg13"
   sodipodi:docname="youtube.svg"
   inkscape:version="0.92.4 5da689c313, 2019-01-14"
   width="64"
   height="64">
  <metadata
     id="metadata19">
    <rdf:RDF>
      <cc:Work
         rdf:about="">
        <dc:format>image/svg+xml</dc:format>
        <dc:type
           rdf:resource="http://purl.org/dc/dcmitype/StillImage" />
        <dc:title></dc:title>
      </cc:Work>
    </rdf:RDF>
  </metadata>
  <defs
     id="defs17">
    <linearGradient
       inkscape:collect="always"
       id="linearGradient833">
      <stop
         style="stop-color:#ff0d22;stop-opacity:1"
         offset="0"
         id="stop829" />
      <stop
         style="stop-color:#fc3434;stop-opacity:1"
         offset="1"
         id="stop831" />
    </linearGradient>
    <linearGradient
       inkscape:collect="always"
       xlink:href="#linearGradient833"
       id="linearGradient835"
       x1="27.966103"
       y1="13.322033"
       x2="27.661016"
       y2="36.610168"
       gradientUnits="userSpaceOnUse"
       gradientTransform="matrix(1.1912917,0,0,1.2066908,3.4043533,3.0323518)" />
    <filter
       inkscape:collect="always"
       style="color-interpolation-filters:sRGB"
       id="filter844"
       x="-0.051428544"
       width="1.1028571"
       y="-0.072000053"
       height="1.1440001">
      <feGaussianBlur
         inkscape:collect="always"
         stdDeviation="1.2000003"
         id="feGaussianBlur846" />
    </filter>
    <filter
       inkscape:collect="always"
       style="color-interpolation-filters:sRGB"
       id="filter848"
       x="-0.063764869"
       width="1.1275297"
       y="-0.056693957"
       height="1.1133879">
      <feGaussianBlur
         inkscape:collect="always"
         stdDeviation="0.37468507"
         id="feGaussianBlur850" />
    </filter>
  </defs>
  <sodipodi:namedview
     pagecolor="#ffffff"
     bordercolor="#666666"
     borderopacity="1"
     objecttolerance="10"
     gridtolerance="10"
     guidetolerance="10"
     inkscape:pageopacity="0"
     inkscape:pageshadow="2"
     inkscape:window-width="1366"
     inkscape:window-height="700"
     id="namedview15"
     showgrid="false"
     inkscape:zoom="6.9532167"
     inkscape:cx="19.674424"
     inkscape:cy="28.545513"
     inkscape:window-x="0"
     inkscape:window-y="0"
     inkscape:window-maximized="1"
     inkscape:current-layer="svg13" />
  <linearGradient
     id="a"
     gradientUnits="userSpaceOnUse"
     x1="79.216003"
     x2="94.853996"
     y1="60.362999"
     y2="60.362999">
    <stop
       offset="0"
       stop-color="#f00"
       id="stop2" />
    <stop
       offset="1"
       stop-color="#f00"
       stop-opacity="0"
       id="stop4" />
  </linearGradient>
  <path
     style="color:#000000;font-style:normal;font-variant:normal;font-weight:normal;font-stretch:normal;font-size:medium;line-height:normal;font-family:sans-serif;font-variant-ligatures:normal;font-variant-position:normal;font-variant-caps:normal;font-variant-numeric:normal;font-variant-alternates:normal;font-feature-settings:normal;text-indent:0;text-align:start;text-decoration:none;text-decoration-line:none;text-decoration-style:solid;text-decoration-color:#000000;letter-spacing:normal;word-spacing:normal;text-transform:none;writing-mode:lr-tb;direction:ltr;text-orientation:mixed;dominant-baseline:auto;baseline-shift:baseline;text-anchor:start;white-space:normal;shape-padding:0;clip-rule:nonzero;display:inline;overflow:visible;visibility:visible;opacity:0.25;isolation:auto;mix-blend-mode:normal;color-interpolation:sRGB;color-interpolation-filters:linearRGB;solid-color:#000000;solid-opacity:1;vector-effect:none;fill:#000000;fill-opacity:1;fill-rule:nonzero;stroke:none;stroke-width:2.56455183;stroke-linecap:butt;stroke-linejoin:miter;stroke-miterlimit:4;stroke-dasharray:none;stroke-dashoffset:0;stroke-opacity:1;color-rendering:auto;image-rendering:auto;shape-rendering:auto;text-rendering:auto;enable-background:accumulate;filter:url(#filter844)"
     d="m 32.323423,12.000043 c -6.324162,0 -15.553833,0.369669 -18.313783,0.459579 -0.02097,9.83e-4 -0.04192,0.0025 -0.06282,0.0048 -1.516623,0.135136 -2.610735,0.237942 -3.625063,0.527922 -1.0143292,0.289982 -1.9040242,0.792906 -2.8153575,1.564927 -0.00626,0.0055 -0.012472,0.01099 -0.018614,0.0165 C 5.9824201,15.907503 5.1197481,17.836899 4.630547,20.197099 4.1413459,22.557299 4,25.396691 4,28.782987 v 6.410544 c 0,3.882849 0.2564812,6.835211 0.7538643,9.069036 0.4973831,2.233825 1.2265852,3.797819 2.366296,4.763128 2.1082724,1.803007 3.8377147,2.030214 5.0769497,2.220123 0.0031,1.4e-5 0.0062,1.4e-5 0.0093,0 0.135088,0.01954 1.319525,0.22933 4.26259,0.40773 C 19.412064,51.831947 24.246551,52 32.130297,52 c 4.92165,0 9.496871,-0.120412 12.952968,-0.254537 3.4561,-0.134118 5.634527,-0.260997 6.29849,-0.341737 0.0024,8e-6 0.0047,8e-6 0.007,0 1.390872,-0.179093 3.787991,-0.442424 5.602794,-2.458163 0.0024,-0.0031 0.0047,-0.0063 0.007,-0.0094 2.618746,-2.96698 3.001496,-7.52595 3.001496,-13.72375 v -7.381639 c 0,-2.008975 -0.05448,-4.467859 -0.44208,-6.787635 -0.3876,-2.319779 -1.073004,-4.550126 -2.629218,-6.02874 -0.01585,-0.0162 -0.03217,-0.03194 -0.04895,-0.04714 -0.949324,-0.800107 -1.729928,-1.421527 -2.808377,-1.824177 -1.078449,-0.402651 -2.337143,-0.563662 -4.318431,-0.664623 -0.0031,-1.3e-5 -0.0062,-1.3e-5 -0.0093,0 -1.088523,-0.04794 -10.45692,-0.441293 -17.17602,-0.452509 -0.08026,-0.01759 -0.162185,-0.02629 -0.244307,-0.02592 z"
     id="path826"
     inkscape:connector-curvature="0"
     sodipodi:nodetypes="cccsccsssscccsscccccsscccscccc" />
  <path
     sodipodi:nodetypes="cccsccsssscccsscccccsscccscccc"
     inkscape:connector-curvature="0"
     id="path7"
     d="m 32.323423,12.000043 c -6.324162,0 -15.553833,0.369669 -18.313783,0.459579 -0.02097,9.83e-4 -0.04192,0.0025 -0.06282,0.0048 -1.516623,0.135136 -2.610735,0.237942 -3.625063,0.527922 -1.0143292,0.289982 -1.9040242,0.792906 -2.8153575,1.564927 -0.00626,0.0055 -0.012472,0.01099 -0.018614,0.0165 C 5.9824201,15.907503 5.1197481,17.836899 4.630547,20.197099 4.1413459,22.557299 4,25.396691 4,28.782987 v 6.410544 c 0,3.882849 0.2564812,6.835211 0.7538643,9.069036 0.4973831,2.233825 1.2265852,3.797819 2.366296,4.763128 2.1082724,1.803007 3.8377147,2.030214 5.0769497,2.220123 0.0031,1.4e-5 0.0062,1.4e-5 0.0093,0 0.135088,0.01954 1.319525,0.22933 4.26259,0.40773 C 19.412064,51.831947 24.246551,52 32.130297,52 c 4.92165,0 9.496871,-0.120412 12.952968,-0.254537 3.4561,-0.134118 5.634527,-0.260997 6.29849,-0.341737 0.0024,8e-6 0.0047,8e-6 0.007,0 1.390872,-0.179093 3.787991,-0.442424 5.602794,-2.458163 0.0024,-0.0031 0.0047,-0.0063 0.007,-0.0094 2.618746,-2.96698 3.001496,-7.52595 3.001496,-13.72375 v -7.381639 c 0,-2.008975 -0.05448,-4.467859 -0.44208,-6.787635 -0.3876,-2.319779 -1.073004,-4.550126 -2.629218,-6.02874 -0.01585,-0.0162 -0.03217,-0.03194 -0.04895,-0.04714 -0.949324,-0.800107 -1.729928,-1.421527 -2.808377,-1.824177 -1.078449,-0.402651 -2.337143,-0.563662 -4.318431,-0.664623 -0.0031,-1.3e-5 -0.0062,-1.3e-5 -0.0093,0 -1.088523,-0.04794 -10.45692,-0.441293 -17.17602,-0.452509 -0.08026,-0.01759 -0.162185,-0.02629 -0.244307,-0.02592 z"
     style="color:#000000;font-style:normal;font-variant:normal;font-weight:normal;font-stretch:normal;font-size:medium;line-height:normal;font-family:sans-serif;font-variant-ligatures:normal;font-variant-position:normal;font-variant-caps:normal;font-variant-numeric:normal;font-variant-alternates:normal;font-feature-settings:normal;text-indent:0;text-align:start;text-decoration:none;text-decoration-line:none;text-decoration-style:solid;text-decoration-color:#000000;letter-spacing:normal;word-spacing:normal;text-transform:none;writing-mode:lr-tb;direction:ltr;text-orientation:mixed;dominant-baseline:auto;baseline-shift:baseline;text-anchor:start;white-space:normal;shape-padding:0;clip-rule:nonzero;display:inline;overflow:visible;visibility:visible;opacity:1;isolation:auto;mix-blend-mode:normal;color-interpolation:sRGB;color-interpolation-filters:linearRGB;solid-color:#000000;solid-opacity:1;vector-effect:none;fill:url(#linearGradient835);fill-opacity:1;fill-rule:nonzero;stroke:none;stroke-width:2.56455183;stroke-linecap:butt;stroke-linejoin:miter;stroke-miterlimit:4;stroke-dasharray:none;stroke-dashoffset:0;stroke-opacity:1;color-rendering:auto;image-rendering:auto;shape-rendering:auto;text-rendering:auto;enable-background:accumulate" />
  <path
     sodipodi:nodetypes="cccccccc"
     inkscape:connector-curvature="0"
     id="path832"
     d="m 20.5625,33.801309 c -0.53165,-0.01044 -0.968362,0.417467 -0.96875,0.949219 v 13.960937 c 3.57e-4,0.729503 0.788665,1.186462 1.421875,0.824219 L 33.21875,42.555215 c 0.636669,-0.365055 0.636669,-1.283382 0,-1.648437 L 21.015625,33.926309 c -0.138188,-0.07896 -0.293998,-0.121944 -0.453125,-0.125 z"
     style="color:#000000;font-style:normal;font-variant:normal;font-weight:normal;font-stretch:normal;font-size:medium;line-height:normal;font-family:sans-serif;font-variant-ligatures:normal;font-variant-position:normal;font-variant-caps:normal;font-variant-numeric:normal;font-variant-alternates:normal;font-feature-settings:normal;text-indent:0;text-align:start;text-decoration:none;text-decoration-line:none;text-decoration-style:solid;text-decoration-color:#000000;letter-spacing:normal;word-spacing:normal;text-transform:none;writing-mode:lr-tb;direction:ltr;text-orientation:mixed;dominant-baseline:auto;baseline-shift:baseline;text-anchor:start;white-space:normal;shape-padding:0;clip-rule:nonzero;display:inline;overflow:visible;visibility:visible;opacity:0.253;isolation:auto;mix-blend-mode:normal;color-interpolation:sRGB;color-interpolation-filters:linearRGB;solid-color:#000000;solid-opacity:1;vector-effect:none;fill:#000000;fill-opacity:1;fill-rule:nonzero;stroke:none;stroke-width:1.89999998;stroke-linecap:round;stroke-linejoin:round;stroke-miterlimit:4;stroke-dasharray:none;stroke-dashoffset:0;stroke-opacity:1;color-rendering:auto;image-rendering:auto;shape-rendering:auto;text-rendering:auto;enable-background:accumulate;filter:url(#filter848)"
     transform="matrix(1.3410978,0,0,1.3570573,-0.1214385,-23.886824)" />
  <path
     style="color:#000000;font-style:normal;font-variant:normal;font-weight:normal;font-stretch:normal;font-size:medium;line-height:normal;font-family:sans-serif;font-variant-ligatures:normal;font-variant-position:normal;font-variant-caps:normal;font-variant-numeric:normal;font-variant-alternates:normal;font-feature-settings:normal;text-indent:0;text-align:start;text-decoration:none;text-decoration-line:none;text-decoration-style:solid;text-decoration-color:#000000;letter-spacing:normal;word-spacing:normal;text-transform:none;writing-mode:lr-tb;direction:ltr;text-orientation:mixed;dominant-baseline:auto;baseline-shift:baseline;text-anchor:start;white-space:normal;shape-padding:0;clip-rule:nonzero;display:inline;overflow:visible;visibility:visible;opacity:1;isolation:auto;mix-blend-mode:normal;color-interpolation:sRGB;color-interpolation-filters:linearRGB;solid-color:#000000;solid-opacity:1;vector-effect:none;fill:#ffffff;fill-opacity:1;fill-rule:nonzero;stroke:none;stroke-width:2.56320238;stroke-linecap:round;stroke-linejoin:round;stroke-miterlimit:4;stroke-dasharray:none;stroke-dashoffset:0;stroke-opacity:1;color-rendering:auto;image-rendering:auto;shape-rendering:auto;text-rendering:auto;enable-background:accumulate"
     d="m 27.454884,21.983487 c -0.712994,-0.01417 -1.298668,0.566527 -1.299188,1.288145 v 18.945791 c 4.79e-4,0.989977 1.057677,1.610095 1.906873,1.118511 l 16.365584,-9.472895 c 0.853835,-0.495401 0.853835,-1.741623 0,-2.237024 L 28.062569,22.153119 c -0.185323,-0.107153 -0.39428,-0.165485 -0.607685,-0.169632 z"
     id="path9"
     inkscape:connector-curvature="0"
     sodipodi:nodetypes="cccccccc" />
</svg>
