<?xml version="1.0" encoding="UTF-8" standalone="no"?>
<svg
   xmlns:dc="http://purl.org/dc/elements/1.1/"
   xmlns:cc="http://creativecommons.org/ns#"
   xmlns:rdf="http://www.w3.org/1999/02/22-rdf-syntax-ns#"
   xmlns:svg="http://www.w3.org/2000/svg"
   xmlns="http://www.w3.org/2000/svg"
   xmlns:xlink="http://www.w3.org/1999/xlink"
   xmlns:sodipodi="http://sodipodi.sourceforge.net/DTD/sodipodi-0.dtd"
   xmlns:inkscape="http://www.inkscape.org/namespaces/inkscape"
   inkscape:version="1.0 (4035a4fb49, 2020-05-01)"
   sodipodi:docname="kate.svg"
   id="svg8"
   version="1.1"
   viewBox="0 0 297 297"
   height="297mm"
   width="297mm"
   inkscape:export-filename="/home/tysontan/Pictures/000_Creation/Artwork/2020/Vectors/kate.png"
   inkscape:export-xdpi="300"
   inkscape:export-ydpi="300">
  <defs
     id="defs2">
    <linearGradient
       id="linearGradient964"
       inkscape:collect="always">
      <stop
         id="stop960"
         offset="0"
         style="stop-color:#00ccff;stop-opacity:1" />
      <stop
         id="stop962"
         offset="1"
         style="stop-color:#0066ff;stop-opacity:1" />
    </linearGradient>
    <linearGradient
       id="linearGradient948"
       inkscape:collect="always">
      <stop
         id="stop944"
         offset="0"
         style="stop-color:#2ad4ff;stop-opacity:1" />
      <stop
         id="stop946"
         offset="1"
         style="stop-color:#2a7fff;stop-opacity:1" />
    </linearGradient>
    <linearGradient
       inkscape:collect="always"
       id="linearGradient936">
      <stop
         style="stop-color:#00ccff;stop-opacity:1"
         offset="0"
         id="stop932" />
      <stop
         style="stop-color:#2a7fff;stop-opacity:1"
         offset="1"
         id="stop934" />
    </linearGradient>
    <linearGradient
       inkscape:collect="always"
       id="linearGradient898">
      <stop
         style="stop-color:#2a7fff;stop-opacity:1"
         offset="0"
         id="stop894" />
      <stop
         style="stop-color:#00ccff;stop-opacity:1"
         offset="1"
         id="stop896" />
    </linearGradient>
    <linearGradient
       inkscape:collect="always"
       id="linearGradient888">
      <stop
         style="stop-color:#00ccff;stop-opacity:1"
         offset="0"
         id="stop884" />
      <stop
         style="stop-color:#00ccff;stop-opacity:1"
         offset="1"
         id="stop886" />
    </linearGradient>
    <linearGradient
       inkscape:collect="always"
       id="linearGradient852">
      <stop
         style="stop-color:#00ccff;stop-opacity:1"
         offset="0"
         id="stop848" />
      <stop
         style="stop-color:#2a7fff;stop-opacity:1"
         offset="1"
         id="stop850" />
    </linearGradient>
    <linearGradient
       id="linearGradient993"
       inkscape:collect="always">
      <stop
         id="stop989"
         offset="0"
         style="stop-color:#2a7fff;stop-opacity:1" />
      <stop
         id="stop991"
         offset="1"
         style="stop-color:#2a7fff;stop-opacity:1" />
    </linearGradient>
    <linearGradient
       gradientUnits="userSpaceOnUse"
       y2="109.66759"
       x2="66.335762"
       y1="104.46095"
       x1="66.951469"
       id="linearGradient995"
       xlink:href="#linearGradient993"
       inkscape:collect="always" />
    <linearGradient
       inkscape:collect="always"
       xlink:href="#linearGradient852"
       id="linearGradient854"
       x1="77.166962"
       y1="115.71481"
       x2="64.371704"
       y2="112.00438"
       gradientUnits="userSpaceOnUse" />
    <linearGradient
       inkscape:collect="always"
       xlink:href="#linearGradient888"
       id="linearGradient890"
       x1="62.960659"
       y1="115.88342"
       x2="77.488457"
       y2="107.31376"
       gradientUnits="userSpaceOnUse" />
    <linearGradient
       inkscape:collect="always"
       xlink:href="#linearGradient898"
       id="linearGradient900"
       x1="68.228661"
       y1="112.73174"
       x2="68.16433"
       y2="118.55463"
       gradientUnits="userSpaceOnUse" />
    <linearGradient
       inkscape:collect="always"
       xlink:href="#linearGradient898"
       id="linearGradient908"
       gradientUnits="userSpaceOnUse"
       x1="68.7071"
       y1="113.06454"
       x2="75.81916"
       y2="117.91264" />
    <linearGradient
       inkscape:collect="always"
       xlink:href="#linearGradient964"
       id="linearGradient930"
       gradientUnits="userSpaceOnUse"
       x1="77.401382"
       y1="106.36805"
       x2="68.670082"
       y2="120.35797" />
    <linearGradient
       inkscape:collect="always"
       xlink:href="#linearGradient936"
       id="linearGradient938"
       x1="61.163261"
       y1="105.1096"
       x2="64.927658"
       y2="109.0449"
       gradientUnits="userSpaceOnUse" />
    <linearGradient
       inkscape:collect="always"
       xlink:href="#linearGradient948"
       id="linearGradient942"
       gradientUnits="userSpaceOnUse"
       x1="63.36673"
       y1="106.86487"
       x2="71.135635"
       y2="104.88973" />
  </defs>
  <sodipodi:namedview
     showguides="true"
     inkscape:window-maximized="1"
     inkscape:window-y="0"
     inkscape:window-x="0"
     inkscape:window-height="1006"
     inkscape:window-width="1920"
     showgrid="false"
     inkscape:document-rotation="0"
     inkscape:current-layer="layer2"
     inkscape:document-units="mm"
     inkscape:cy="682.0456"
     inkscape:cx="626.11872"
     inkscape:zoom="0.5"
     inkscape:pageshadow="2"
     inkscape:pageopacity="0.0"
     borderopacity="1.0"
     bordercolor="#666666"
     pagecolor="#ffffff"
     id="base"
     inkscape:object-paths="true"
     inkscape:snap-intersection-paths="true"
     inkscape:snap-smooth-nodes="true"
     inkscape:snap-midpoints="true"
     inkscape:snap-bbox="true"
     showborder="true" />
  <metadata
     id="metadata5">
    <rdf:RDF>
      <cc:Work
         rdf:about="">
        <dc:format>image/svg+xml</dc:format>
        <dc:type
           rdf:resource="http://purl.org/dc/dcmitype/StillImage" />
        <dc:title></dc:title>
      </cc:Work>
    </rdf:RDF>
  </metadata>
  <g
     style="display:inline"
     inkscape:label="Vector Base"
     id="layer2"
     inkscape:groupmode="layer">
    <g
       id="g958"
       transform="matrix(13.278611,0,0,13.574717,-761.18793,-1402.883)">
      <path
         style="fill:url(#linearGradient938);fill-opacity:1;stroke:none;stroke-width:0.065;stroke-linecap:butt;stroke-linejoin:miter;stroke-miterlimit:4;stroke-dasharray:none;stroke-opacity:1"
         d="m 65.428762,109.91943 c -0.79474,-2.58086 -5.285936,-1.9546 -6.036655,-2.01063 0.842596,-0.40914 1.604061,-0.74639 3.341118,-1.97728 3.346321,-2.37122 6.889189,-1.85409 8.663362,-0.91242 -4.85033,0.18036 -3.926305,2.76518 -3.211896,4.12714 -0.908518,0.25814 -2.342683,0.64782 -2.755929,0.77319 z"
         id="path918"
         inkscape:connector-curvature="0" />
      <path
         sodipodi:nodetypes="cssscccccsssc"
         inkscape:connector-curvature="0"
         id="path997"
         d="m 77.401381,106.36805 c -1.746608,2.25673 -4.650524,5.30573 -7.828693,5.70736 -3.17817,0.40163 -6.208039,-0.0433 -6.909882,2.27202 -0.64633,2.1322 1.626883,4.12293 3.984589,3.64314 2.518769,-0.51257 1.974803,-3.30514 0.597137,-5.20681 1.046467,-0.0587 0.851808,-0.0435 2.626388,-0.131 2.645109,2.20549 3.521857,2.8343 8.143023,6.05209 -3.561162,-0.36484 -4.857257,-0.69982 -7.41144,-2.19429 0.661668,1.62462 2.075907,5.31186 2.382248,8.17285 -1.47315,-2.07065 -2.031632,-2.83161 -4.314667,-4.32544 -2.924418,-1.9135 -5.29286,-1.97828 -6.663677,-4.79745 -1.367857,-2.81308 0.442686,-4.83945 3.682518,-5.71701 4.629957,-1.2541 8.619281,-2.4431 11.712456,-3.47546 z"
         style="opacity:1;fill:url(#linearGradient854);fill-opacity:1;stroke:none;stroke-width:0.065;stroke-linecap:butt;stroke-linejoin:miter;stroke-miterlimit:4;stroke-dasharray:none;stroke-opacity:1" />
      <path
         sodipodi:nodetypes="cccc"
         inkscape:connector-curvature="0"
         id="path906"
         d="m 67.244532,112.78376 c 1.046467,-0.0587 0.851808,-0.0435 2.626388,-0.131 2.645109,2.20549 3.521857,2.8343 8.143023,6.05209 -4.644893,-0.32503 -8.159344,-1.66506 -10.769411,-5.92109 z"
         style="opacity:1;fill:url(#linearGradient908);fill-opacity:1;stroke:none;stroke-width:0.065;stroke-linecap:butt;stroke-linejoin:miter;stroke-miterlimit:4;stroke-dasharray:none;stroke-opacity:1" />
      <path
         style="opacity:1;fill:url(#linearGradient930);fill-opacity:1;stroke:none;stroke-width:0.065;stroke-linecap:butt;stroke-linejoin:miter;stroke-miterlimit:4;stroke-dasharray:none;stroke-opacity:1"
         d="m 77.401381,106.36805 c -1.746608,2.25673 -4.650524,5.30573 -7.828693,5.70736 -3.17817,0.40163 -6.208039,-0.0433 -6.909882,2.27202 -0.64633,2.1322 1.626883,4.12293 3.984589,3.64314 2.518769,-0.51257 1.974803,-3.30514 0.597137,-5.20681 1.046467,-0.0587 0.851808,-0.0435 2.626388,-0.131 2.645109,2.20549 3.521857,2.8343 8.143023,6.05209 -3.561162,-0.36484 -4.857257,-0.69982 -7.41144,-2.19429 0.661668,1.62462 2.075907,5.31186 2.382248,8.17285 -1.47315,-2.07065 -2.031632,-2.83161 -4.314667,-4.32544 -2.924418,-1.9135 -5.29286,-1.97828 -6.663677,-4.79745 -1.367857,-2.81308 0.442686,-4.83945 3.682518,-5.71701 4.629957,-1.2541 8.619281,-2.4431 11.712456,-3.47546 z"
         id="path926"
         inkscape:connector-curvature="0"
         sodipodi:nodetypes="cssscccccsssc" />
      <path
         style="opacity:1;fill:url(#linearGradient900);fill-opacity:1;stroke:none;stroke-width:0.065;stroke-linecap:butt;stroke-linejoin:miter;stroke-miterlimit:4;stroke-dasharray:none;stroke-opacity:1"
         d="m 67.244532,112.78376 c 1.046467,-0.0587 0.851808,-0.0435 2.626388,-0.131 2.645109,2.20549 3.521857,2.8343 8.143023,6.05209 -4.644893,-0.32503 -8.159344,-1.66506 -10.769411,-5.92109 z"
         id="path892"
         inkscape:connector-curvature="0"
         sodipodi:nodetypes="cccc" />
      <path
         sodipodi:nodetypes="ccccc"
         inkscape:connector-curvature="0"
         id="path940"
         d="m 59.392107,107.9088 c 0.842596,-0.40914 1.604061,-0.74639 3.341118,-1.97728 3.346321,-2.37122 6.889189,-1.85409 8.663362,-0.91242 -4.85033,0.18036 -4.225378,1.1257 -4.243278,1.86679 -3.222572,-0.66446 -4.163494,0.2396 -7.761202,1.02291 z"
         style="fill:url(#linearGradient942);fill-opacity:1;stroke:none;stroke-width:0.065;stroke-linecap:butt;stroke-linejoin:miter;stroke-miterlimit:4;stroke-dasharray:none;stroke-opacity:1" />
      <path
         inkscape:connector-curvature="0"
         id="path979"
         d="m 71.396587,105.0191 c -4.85033,0.18036 -3.926305,2.76518 -3.211896,4.12714 -0.566006,0.16082 -1.179475,0.34403 -1.936109,0.53991 -3.052938,-5.32116 2.656266,-6.01341 5.148005,-4.66705 z"
         style="fill:url(#linearGradient995);fill-opacity:1;stroke:none;stroke-width:0.065;stroke-linecap:butt;stroke-linejoin:miter;stroke-miterlimit:4;stroke-dasharray:none;stroke-opacity:1"
         sodipodi:nodetypes="cccc" />
      <path
         sodipodi:nodetypes="cscc"
         style="opacity:1;fill:url(#linearGradient890);fill-opacity:1;stroke:none;stroke-width:0.065;stroke-linecap:butt;stroke-linejoin:miter;stroke-miterlimit:4;stroke-dasharray:none;stroke-opacity:1"
         d="m 62.879799,116.88614 c -2.373486,-2.98949 -1.93525,-5.72962 2.712379,-7.1533 4.586439,-1.40494 8.716028,-2.33243 11.809203,-3.36479 -8.347338,3.11114 -18.799839,5.18999 -14.521582,10.51809 z"
         id="path880"
         inkscape:connector-curvature="0" />
    </g>
  </g>
</svg>
