<svg width="64" height="64" version="1.1" viewBox="0 0 64 64" xmlns="http://www.w3.org/2000/svg" xmlns:xlink="http://www.w3.org/1999/xlink">
<defs>
<ellipse id="dcc_nav_sound_42px-h" cx="15.5" cy="7.5" rx="15.5" ry="7.5"/>
<path id="dcc_nav_sound_42px-l" d="m15.5 7.5c3.3137 0 6 1.4551 6 3.25 0 1.0152-0.85928 1.9216-2.2054 2.5176-1.2065 0.15142-2.4794 0.23239-3.7946 0.23239s-2.5881-0.08097-3.795-0.23235c-1.3457-0.59603-2.205-1.5025-2.205-2.5177 0-1.7949 2.6863-3.25 6-3.25z"/>
<linearGradient id="linearGradient974" x1="7.8695" x2="20.831" y1="21.8" y2="21.8" gradientTransform="scale(1.0801 .92582)" gradientUnits="userSpaceOnUse">
<stop stop-color="#D0D4DD" offset="0"/>
<stop stop-color="#E8EAF6" offset=".13714"/>
<stop stop-color="#A6A7AE" offset=".63023"/>
<stop stop-color="#AEB0B9" offset="1"/>
</linearGradient>
<linearGradient id="linearGradient976" x1="8.5484" x2="18.076" y1="21.918" y2="23.568" gradientTransform="scale(1.0801 .92582)" gradientUnits="userSpaceOnUse">
<stop stop-color="#DBDBDB" offset="0"/>
<stop stop-color="#90969D" offset="1"/>
</linearGradient>
<linearGradient id="linearGradient978" x1="6.8533" x2="16.665" y1="23.513" y2="23.893" gradientTransform="scale(1.3229 .75593)" gradientUnits="userSpaceOnUse">
<stop stop-color="#383838" offset="0"/>
<stop stop-color="#5A5A5A" offset=".26111"/>
<stop stop-color="#1A1A1A" offset="1"/>
</linearGradient>
<linearGradient id="linearGradient980" x1="11.404" x2="11.404" y1="7.2741" y2="12.356" gradientTransform="scale(1.3591 .73576)" gradientUnits="userSpaceOnUse">
<stop stop-color="#E4E4E4" offset="0"/>
<stop stop-color="#B1B1B4" offset="1"/>
</linearGradient>
<linearGradient id="linearGradient982" x1="15.758" x2="8.95" y1="13.46" y2="14.037" gradientTransform="scale(1.3591 .73576)" gradientUnits="userSpaceOnUse">
<stop stop-color="#E4E4E4" stop-opacity="0" offset="0"/>
<stop stop-color="#9898A0" stop-opacity=".62" offset="1"/>
</linearGradient>
<radialGradient id="radialGradient984" cx="13.626" cy="14.12" r="28.176" gradientTransform="scale(1.4967 .66815)" gradientUnits="userSpaceOnUse">
<stop stop-color="#505255" offset="0"/>
<stop stop-color="#1E1F21" offset="1"/>
</radialGradient>
<linearGradient id="linearGradient986" x1="17.178" x2="1.5313" y1="11.413" y2="10.851" gradientTransform="scale(1.4967 .66815)" gradientUnits="userSpaceOnUse">
<stop stop-color="#343434" offset="0"/>
<stop stop-color="#151515" offset="1"/>
</linearGradient>
<radialGradient id="radialGradient988" cx="9.7503" cy="15.797" r="7.4826" gradientTransform="scale(1.4142 .70711)" gradientUnits="userSpaceOnUse">
<stop stop-color="#ABABAB" offset="0"/>
<stop stop-color="#5E6168" offset="1"/>
</radialGradient>
<filter id="filter990" x="-.062306" y="-.057859" width="1.1246" height="1.1157" color-interpolation-filters="sRGB">
<feGaussianBlur stdDeviation="1.2053958"/>
</filter>
</defs>
<g transform="translate(-58)" fill="#999" fill-rule="evenodd" filter="url(#filter990)">
<g fill="#999">
<path d="m85.243 34.375c-2.6001-4.5035-8.3587-6.0465-12.862-3.4464l-0.7766 0.44837c-4.9324 2.8477-6.6224 9.1548-3.7747 14.087l1.7935 3.1064c2.8477 4.9324 9.1548 6.6224 14.087 3.7747l0.7766-0.44837c4.5035-2.6001 6.0465-8.3587 3.4464-12.862z"/>
<path transform="rotate(60)" d="m87.635-48.117a12.554 7.1739 0 0 1-12.554 7.1739 12.554 7.1739 0 0 1-12.554-7.1739 12.554 7.1739 0 0 1 12.554-7.1739 12.554 7.1739 0 0 1 12.554 7.1739z"/>
<path d="m83.799 50.314c15.553 7.1183 24.139 8.0647 25.759 2.8387 2.6464-8.5413-17.009-42.585-25.729-44.565-5.335-1.2108-8.8086 6.6983-10.421 23.727h-2e-6c-0.71942 7.5994 3.4502 14.822 10.391 17.999z"/>
<path d="m83.799 50.314c15.553 7.1183 24.139 8.0647 25.759 2.8387 2.6464-8.5413-17.009-42.585-25.729-44.565-5.335-1.2108-8.8086 6.6983-10.421 23.727h-2e-6c-0.71942 7.5994 3.4502 14.822 10.391 17.999z"/>
</g>
<use transform="matrix(.89674 1.5532 -1.5532 .89674 92.492 1.1962)" width="100%" height="100%" fill="#999999" xlink:href="#dcc_nav_sound_42px-h"/>
<use transform="matrix(.89674 1.5532 -1.5532 .89674 92.492 1.1962)" width="100%" height="100%" fill="#999999" xlink:href="#dcc_nav_sound_42px-h"/>
<path d="m109.02 55.834c-0.12392 0.08314-0.2508 0.1624-0.38077 0.23744-6.4335 3.7144-17.872-4.0531-25.548-17.349s-8.6839-27.086-2.2504-30.8c0.12997-0.075039 0.26199-0.14539 0.39598-0.21111-6.0095 4.0341-4.8904 17.536 2.6314 30.564 7.4438 12.893 18.425 20.588 24.95 17.655z" fill="#999"/>
<path transform="rotate(60)" d="m99.741-66.5a24.66 10.761 0 0 1-24.66 10.761 24.66 10.761 0 0 1-24.66-10.761 24.66 10.761 0 0 1 24.66-10.761 24.66 10.761 0 0 1 24.66 10.761z" fill="#999"/>
<use transform="matrix(.89674 1.5532 -1.5532 .89674 92.492 1.1962)" width="100%" height="100%" fill="#999999" xlink:href="#dcc_nav_sound_42px-l"/>
<use transform="matrix(.89674 1.5532 -1.5532 .89674 92.492 1.1962)" width="100%" height="100%" fill="#999999" xlink:href="#dcc_nav_sound_42px-l"/>
</g>
<g transform="matrix(1.2495 0 0 1.2495 -.74147 3.2589)" fill-rule="evenodd">
<path transform="matrix(.7177 1.2431 -1.2431 .7177 28.199 -1.6508)" d="m14 12.75c-2.8995 0-5.25 2.3505-5.25 5.25v0.5c0 3.1756 2.5744 5.75 5.75 5.75h2c3.1756 0 5.75-2.5744 5.75-5.75v-0.5c0-2.8995-2.3505-5.25-5.25-5.25z" fill="url(#linearGradient974)" stroke="url(#linearGradient976)" stroke-width=".5"/>
<ellipse transform="matrix(.7177 1.2431 -1.2431 .7177 28.199 -1.6508)" cx="15.5" cy="17.5" rx="7" ry="4" fill="url(#linearGradient978)"/>
<path transform="matrix(.7177 1.2431 1.2431 -.7177 -.98414 15.198)" d="m21.294 5.5852c7.7733 5.5258 10.624 9.408 8.552 11.647-3.3866 3.6591-25.305 3.6591-28.692 0-2.072-2.2386 0.77871-6.1208 8.552-11.647l-9e-7 -1.3e-6c3.469-2.466 8.1188-2.466 11.588-2e-7z" fill="url(#linearGradient980)"/>
<path transform="matrix(.7177 1.2431 1.2431 -.7177 -.98414 15.198)" d="m21.294 5.5852c7.7733 5.5258 10.624 9.408 8.552 11.647-3.3866 3.6591-25.305 3.6591-28.692 0-2.072-2.2386 0.77871-6.1208 8.552-11.647l-9e-7 -1.3e-6c3.469-2.466 8.1188-2.466 11.588-2e-7z" fill="url(#linearGradient982)"/>
<use transform="matrix(.7177 1.2431 -1.2431 .7177 28.199 -1.6508)" width="100%" height="100%" fill="#000000" xlink:href="#dcc_nav_sound_42px-h"/>
<use transform="matrix(.7177 1.2431 -1.2431 .7177 28.199 -1.6508)" width="100%" height="100%" fill="#fafafa" xlink:href="#dcc_nav_sound_42px-h"/>
<path transform="matrix(.7177 1.2431 -1.2431 .7177 28.199 -1.6508)" d="m30.992 7.2499c0.0056 0.083018 0.0085 0.16638 0.0085 0.25006 0 4.1421-6.9396 7.5-15.5 7.5s-15.5-3.3579-15.5-7.5c0-0.08368 0.0028322-0.16704 0.0084527-0.25006 0.2726 4.0265 7.1041 7.2501 15.492 7.2501 8.301 0 15.078-3.1574 15.481-7.1257z" fill="#a1a1a1"/>
<ellipse transform="matrix(.7177 1.2431 -1.2431 .7177 28.199 -1.6508)" cx="15.5" cy="7.25" rx="13.75" ry="6" fill="url(#radialGradient984)" stroke="url(#linearGradient986)" stroke-width=".5"/>
<use transform="matrix(.7177 1.2431 -1.2431 .7177 28.199 -1.6508)" width="100%" height="100%" fill="#000000" xlink:href="#dcc_nav_sound_42px-l"/>
<use transform="matrix(.7177 1.2431 -1.2431 .7177 28.199 -1.6508)" width="100%" height="100%" fill="url(#radialGradient988)" xlink:href="#dcc_nav_sound_42px-l"/>
</g>
</svg>
