<svg width="64" height="64" version="1.1" viewBox="0 0 64 64" xml:space="preserve" xmlns="http://www.w3.org/2000/svg"><defs><filter id="filter869" x="-.056806" y="-.063575" width="1.1136" height="1.1271" color-interpolation-filters="sRGB"><feGaussianBlur stdDeviation="1.1834521"/></filter></defs><path d="m28.786 9.5357c-12.5 1.4286-21.786 12.679-21.786 25.357v6.9643c0 6.6071 5.3571 11.786 11.786 11.786 1.4286 0 2.5-1.0714 2.5-2.5v-13.036c0-2.3214-1.9643-4.2857-4.2857-4.2857h-2.8571c-2.1429 0-3.5714-1.7857-3.2143-3.9286 1.7857-10 10.536-17.143 21.071-17.143s19.286 7.1429 21.071 17.5c0.35714 2.1429-1.25 3.9286-3.2143 3.9286h-2.8571c-2.3214 0-4.2857 1.9643-4.2857 4.2857v13.036c0 1.4286 1.0714 2.5 2.5 2.5 6.6071 0 11.786-5.3571 11.786-11.786v-8.0357c0-14.643-13.036-26.607-28.214-24.643z" fill="#999" filter="url(#filter869)" stroke-width="1.7857"/><path d="m28.786 9.5357c-12.5 1.4286-21.786 12.679-21.786 25.357v6.9643c0 6.6071 5.3571 11.786 11.786 11.786 1.4286 0 2.5-1.0714 2.5-2.5v-13.036c0-2.3214-1.9643-4.2857-4.2857-4.2857h-2.8571c-2.1429 0-3.5714-1.7857-3.2143-3.9286 1.7857-10 10.536-17.143 21.071-17.143s19.286 7.1429 21.071 17.5c0.35714 2.1429-1.25 3.9286-3.2143 3.9286h-2.8571c-2.3214 0-4.2857 1.9643-4.2857 4.2857v13.036c0 1.4286 1.0714 2.5 2.5 2.5 6.6071 0 11.786-5.3571 11.786-11.786v-8.0357c0-14.643-13.036-26.607-28.214-24.643z" fill="#0c7bc6" stroke-width="1.7857"/></svg>
