<svg width="64" height="64" version="1.1" viewBox="0 0 64 64" xml:space="preserve" xmlns="http://www.w3.org/2000/svg"><defs>
			<filter id="filter989" x="-.075" y="-.069231" width="1.15" height="1.1385" color-interpolation-filters="sRGB"><feGaussianBlur stdDeviation="1.4423145"/></filter></defs>
<path d="m12.248 7c-1.8051 0-3.248 1.6817-3.248 3.4355v43.488c0 1.7538 1.4429 3.0762 3.248 3.0762h31.928c1.8038 0 3.2852-1.3223 3.2852-3.0762v-2.0527h7.6934v-16.666h-7.6934v-2.5645h7.6934v-14.102h-7.6934v-8.1035c0-1.7538-1.48-3.4355-3.2852-3.4355z" fill-opacity=".29804" filter="url(#filter989)"/><g transform="matrix(1.2821 0 0 1.2821 1.3038 1.8769)">
			<polygon points="35.003 12.996 35.003 38.996 42.003 38.996 42.003 25.996 36.003 25.996 36.003 23.996 42.003 23.996 42.003 12.996" fill="#dae000"/>
			<path d="m36.003 40.596c0 1.368-1.156 2.4-2.563 2.4h-24.903c-1.408 0-2.534-1.032-2.534-2.4v-33.921c0-1.368 1.126-2.679 2.534-2.679h24.903c1.408 0 2.563 1.311 2.563 2.679z" fill="#4a9e06"/>
			<rect x="8.003" y="6.996" width="16" height="16" fill="#3d3123"/>
			<g fill="#f9f0f7">
				<rect x="22.003" y="25.996" width="2" height="5"/>
				<rect x="25.003" y="33.996" width="1" height="6"/>
				<rect x="20.003" y="25.996" width="1" height="5"/>
				<rect x="19.003" y="33.996" width="1" height="6"/>
				<rect x="28.003" y="25.996" width="2" height="5"/>
				<rect x="25.003" y="25.996" width="2" height="5"/>
				<rect x="27.003" y="33.996" width="3" height="6"/>
				<rect x="21.003" y="33.996" width="3" height="6"/>
				<rect x="12.003" y="25.996" width="1" height="5"/>
				<rect x="31.003" y="25.996" width="2" height="5"/>
				<rect x="8.003" y="25.996" width="3" height="5"/>
				<rect x="14.003" y="25.996" width="5" height="5"/>
			</g>
			<rect x="26.003" y="6.996" width="7" height="4" fill="#3d3123"/>
			<rect x="32.003" y="10.996" width="1" height="7" fill="#dae000"/>
	</g>
</svg>
