<svg width="64" height="64" version="1.1" viewBox="0 0 64 64" xmlns="http://www.w3.org/2000/svg">
<title>deepin-sound-recorder</title>
<defs>
<filter id="filter992" x="-.046635" y="-.029315" width="1.0933" height="1.0586" color-interpolation-filters="sRGB">
<feGaussianBlur stdDeviation="0.61072266"/>
</filter>
</defs>
<path d="m32 7c-5.54 0-10 4.46-10 10v4.2852h8.5723v1.4297h-8.5723v1.4277h8.5723v1.4277h-8.5723v1.4297h8.5723v1.4277h-8.5723v2e-3h-5.7148v7.166c0 8.9843 6.9001 14.935 14.287 15.621v2.9258h-8.5723v2.8574h20v-2.8574h-8.5723v-2.9141c7.387-0.57124 14.287-5.6042 14.287-15.633v-7.166h-5.7148v-2e-3h-8.5723v-1.4277h8.5723v-1.4297h-8.5723v-1.4277h8.5723v-1.4277h-8.5723v-1.4297h8.5723v-4.2852c0-5.54-4.46-10-10-10zm0 5.7148a2.1428 2.1428 0 0 1 2.1426 2.1426 2.1428 2.1428 0 0 1-2.1426 2.1426 2.1428 2.1428 0 0 1-2.1426-2.1426 2.1428 2.1428 0 0 1 2.1426-2.1426zm-12.857 15.725h2.8574v7.1309c0 5.54 4.46 10 10 10s10-4.46 10-10v-7.1309h2.8574v7.1562c0 8.5228-6.386 12.822-12.857 12.822s-12.857-5.7266-12.857-12.822z" fill="#b3b3b3" filter="url(#filter992)" stroke-width="1.4286"/>
<g stroke-width="1.4286">
<path d="m19.143 35.596c0 7.0957 6.3857 12.823 12.857 12.823s12.857-4.3 12.857-12.823v-7.1571h-25.714zm28.571 0c0 10.673-7.8142 15.69-15.714 15.69s-15.714-6.1285-15.714-15.69v-7.1671h31.428v0.72142z" fill="#666"/>
<path d="m32 7c-5.54 0-9.9999 4.46-9.9999 9.9999v4.2857h8.5714v1.4286h-8.5714v1.4286h8.5714v1.4286h-8.5714v1.4286h8.5714v1.4286h-8.5714v7.1428c0 5.54 4.46 9.9999 9.9999 9.9999s9.9999-4.46 9.9999-9.9999v-7.1428h-8.5714v-1.4286h8.5714v-1.4286h-8.5714v-1.4286h8.5714v-1.4286h-8.5714v-1.4286h8.5714v-4.2857c0-5.54-4.46-9.9999-9.9999-9.9999zm0 5.7142a2.1428 2.1428 0 0 1 2.1428 2.1428 2.1428 2.1428 0 0 1-2.1428 2.1428 2.1428 2.1428 0 0 1-2.1428-2.1428 2.1428 2.1428 0 0 1 2.1428-2.1428z" fill="#999" fill-rule="evenodd"/>
<path d="m22 54.143v2.8571h20v-2.8571h-8.5714v-5.7142h-2.8571v5.7142z" fill="#666" fill-rule="evenodd"/>
</g>
</svg>
