<svg width="64" height="64" version="1.1" viewBox="0 0 64 64" xmlns="http://www.w3.org/2000/svg" xmlns:xlink="http://www.w3.org/1999/xlink">
<title>计算机-64px</title>
<defs>
<linearGradient id="linearGradient970" x1="28.555" x2="28.555" y1="10.086" y2="57.412" gradientTransform="scale(1.1206 .89235)" gradientUnits="userSpaceOnUse">
<stop stop-color="#FFF" offset="0"/>
<stop stop-color="#C3D6DE" offset="1"/>
</linearGradient>
<linearGradient id="linearGradient972" x1="25.408" x2="25.408" y1="18.725" y2="52.897" gradientTransform="scale(1.2594 .794)" gradientUnits="userSpaceOnUse">
<stop stop-color="#0E004D" offset="0"/>
<stop stop-color="#4735E4" offset="1"/>
</linearGradient>
<filter id="filter1309" x="-.056667" y="-.06375" width="1.1133" height="1.1275" color-interpolation-filters="sRGB">
<feGaussianBlur stdDeviation="1.275"/>
</filter>
</defs>
<g fill-rule="evenodd">
<path d="m6.5 8.94c-0.837 0-1.5 0.68874-1.5 1.5391v40.922c0 0.8493 0.672 1.5391 1.5 1.5391h-0.5c-0.554 0-1 0.446-1 1v2c0 0.554 0.446 1 1 1h52c0.554 0 1-0.446 1-1v-2c0-0.554-0.446-1-1-1h-0.5c0.837 0 1.5-0.68873 1.5-1.5391v-40.922c0-0.8493-0.672-1.5391-1.5-1.5391z" fill-opacity=".1098" filter="url(#filter1309)"/>
<path d="m5 10.505c0-0.831 0.663-1.505 1.5-1.505h51c0.828 0 1.5 0.675 1.5 1.505v39.99c0 0.831-0.663 1.505-1.5 1.505h-51c-0.828 0-1.5-0.675-1.5-1.505z" fill="url(#linearGradient970)"/>
<path d="m5 11.508c0-0.833 0.663-1.508 1.5-1.508h51c0.828 0 1.5 0.677 1.5 1.508v37.984c0 0.833-0.663 1.508-1.5 1.508h-51c-0.828 0-1.5-0.677-1.5-1.508z" fill="#eff7fb"/>
<path d="m7 11.492c0-0.272 0.223-0.492 0.495-0.492h49.01c0.273 0 0.495 0.228 0.495 0.492v32.016a0.494 0.494 0 0 1-0.495 0.492h-49.01a0.499 0.499 0 0 1-0.495-0.492z"/>
<path d="m9 13h46v29h-46z" fill="url(#linearGradient972)"/>
<path d="m55 31.526-3.833-1.86-5.111-5.894-2.556 1.193-5.111-5.965-2.556 2.386-2.555-2.386-10.315 11.436-9.49 1.09-4.473 2.386v7.755h44.673c0.733 0 1.327-0.604 1.327-1.326z" fill="#3612c1"/>
<path d="m24.333 41.967 24.278-5.965 6.389 3.579v2.386z" fill="#4224ca"/>
<path d="m42.861 31.826 3.195-7.754 2.555 11.93z" fill="#5042ec"/>
<path d="m33.278 19.3-3.834 8-3.833 5.123-6.389 2.386z" fill="#ab76ef"/>
<path d="m35.833 25.265-2.555 1.193 6.389 1.789 1.277-1.073-2.555-3.102z" fill="#4531d8"/>
<path d="m34.556 22.879-5.112 4.421 3.834-0.842 5.111-2.386z" fill="#7365ee"/>
<path d="m29.444 27.3 3.195 5.958-7.028-0.835z" fill="#5241eb"/>
<path d="m25.611 32.423-6.389 2.386 3.834 2.624z" fill="#6c51ef"/>
<path d="m15.389 37.553 7.667-0.12 1.277 4.534z" fill="#3e2bcd"/>
<path d="m23.056 37.433 11.5-5.01 2.555-2.386 0.639 2.386-13.417 9.544z" fill="#593ef3"/>
<path d="m9 41.967 6.389-4.414 8.944 4.414z" fill="#4735e4"/>
<path d="m34.556 22.879-1.278-3.579-2.556 5.333z" fill="#523de0"/>
<path d="m24.333 41.967 11.5-9.544 7.028-0.597 5.75 4.176z" fill="#654af8"/>
<path d="m37.111 30.037 6.389-4.772 2.556-1.193-3.195 7.754-8.305 1.79z" fill="#7f5ef1"/>
<path d="m37.111 30.037-2.555 3.579 5.75-2.983 5.75-6.561-2.556 1.193z" fill="#b57bff"/>
<path d="m38.389 19.3-3.833 3.579 3.833 1.193z" fill="#ab76ef"/>
<path d="m33.278 26.458 3.833 3.579-2.555 2.386-2.045 0.716z" fill="#442ae7"/>
<path d="m19.222 34.809-5.75-2.983 9.584-1.193z" fill="#7f5ef1"/>
<path d="m13.472 31.826-4.472 2.386 10.222 0.597z" fill="#593ef3"/>
<path d="m16.667 35.405-1.278 2.148-6.389 4.414v-4.772z" fill="#452ac5"/>
<path d="m42.861 31.826-0.639 5.727 6.389-1.551z" fill="#411bce"/>
<path d="m9 37.195v-2.983l10.222 0.597z" fill="#6f4ee6"/>
<path d="m9 13h12.667l15.833 29h-28.5z" fill="#fff" opacity=".123"/>
<path d="m7 44h50v1h-50z" fill="#fff"/>
<rect x="5" y="52" width="54" height="4" ry="1" fill="#eff7fb" style="paint-order:normal"/>
<path d="m5 54v1c0 0.554 0.446 1 1 1h52c0.554 0 1-0.446 1-1v-1c0 0.554-0.446 1-1 1h-52c-0.554 0-1-0.446-1-1z" fill="#c3d5de" style="paint-order:normal"/>
</g>
</svg>
