<svg width="64" height="64" version="1" xmlns="http://www.w3.org/2000/svg">
<defs>
<filter id="filter863" x="-.06" y="-.06" width="1.12" height="1.12" color-interpolation-filters="sRGB">
<feGaussianBlur stdDeviation="1.3"/>
</filter>
</defs>
<rect transform="matrix(0,-1,-1,0,0,0)" x="-58" y="-58" width="52" height="52" rx="2.5" ry="2.5" fill="#808080" filter="url(#filter863)"/>
<rect transform="matrix(0,-1,-1,0,0,0)" x="-58" y="-58" width="52" height="52" rx="2.5" ry="2.5" fill="#4f4f4f"/>
<g transform="matrix(2,0,0,2,2e-4,0)" opacity=".4">
<rect x="4" y="22" width="11" height="6" rx="1.25" ry="1.25"/>
<rect x="17" y="22" width="11" height="6" rx="1.25" ry="1.25"/>
<rect x="24" y="7" width="4" height="1"/>
<rect x="24" y="9" width="4" height="1"/>
<rect x="24" y="11" width="4" height="1"/>
<rect x="24" y="13" width="4" height="1"/>
<rect x="24" y="15" width="4" height="1"/>
<rect x="24" y="17" width="4" height="1"/>
</g>
</svg>
