<svg width="64" height="64" enable-background="new 0 0 48 48" version="1.1" viewBox="0 0 64 64" xml:space="preserve" xmlns="http://www.w3.org/2000/svg"><defs><linearGradient id="linearGradient914" x1="9.737" x2="19.02" y1="2.5e-8" y2="27.517" gradientTransform="matrix(1.6998 0 0 1.6998 9.8618 11.503)" gradientUnits="userSpaceOnUse"><stop stop-color="#909090" offset=".01378"/><stop stop-color="#585858" offset="1"/></linearGradient><filter id="dcc_nav_mouse_42px-a" x="-.429" y="-.429" width="1.857" height="1.857"><feOffset dy="2" in="SourceAlpha" result="shadowOffsetOuter1"/><feGaussianBlur in="shadowOffsetOuter1" result="shadowBlurOuter1" stdDeviation="2"/><feColorMatrix in="shadowBlurOuter1" result="shadowMatrixOuter1" values="0 0 0 0 0   0 0 0 0 0   0 0 0 0 0  0 0 0 0.2 0"/><feMerge><feMergeNode in="shadowMatrixOuter1"/><feMergeNode in="SourceGraphic"/></feMerge></filter><filter id="dcc_nav_mouse_42px-d" x="-.073" y="-.073" width="1.145" height="1.145"><feGaussianBlur in="SourceAlpha" result="shadowBlurInner1" stdDeviation="1.5"/><feOffset dx="-1" dy="-1" in="shadowBlurInner1" result="shadowOffsetInner1"/><feComposite in="shadowOffsetInner1" in2="SourceAlpha" k2="-1" k3="1" operator="arithmetic" result="shadowInnerInner1"/><feColorMatrix in="shadowInnerInner1" values="0 0 0 0 0   0 0 0 0 0   0 0 0 0 0  0 0 0 0.25 0"/></filter><filter id="dcc_nav_mouse_42px-f" x="-.055" y="-.055" width="1.109" height="1.218"><feOffset dy="1" in="SourceAlpha" result="shadowOffsetOuter1"/><feColorMatrix in="shadowOffsetOuter1" values="0 0 0 0 1   0 0 0 0 1   0 0 0 0 1  0 0 0 0.1 0"/></filter><filter id="dcc_nav_mouse_42px-h" x="-.031" y="-.032" width="1.063" height="1.129"><feOffset dy="1" in="SourceAlpha" result="shadowOffsetOuter1"/><feColorMatrix in="shadowOffsetOuter1" values="0 0 0 0 1   0 0 0 0 1   0 0 0 0 1  0 0 0 0.1 0"/></filter><linearGradient id="linearGradient916" x1="9.4582" x2="11.633" y1="1.931" y2="17.5" gradientUnits="userSpaceOnUse"><stop stop-color="#FFF" stop-opacity=".358" offset="0"/><stop stop-color="#FFF" stop-opacity="0" offset="1"/></linearGradient><mask id="dcc_nav_mouse_42px-e" fill="#fff"><path d="m17.818 3.0571 6.6424 6.6423c4.0761 4.0761 4.0761 10.685 0 14.761s-10.685 4.0761-14.761 0l-6.6423-6.6424c-4.0761-4.0761-4.0761-10.685 0-14.761s10.685-4.0761 14.761 0z"/></mask><filter id="filter1191" x="-.072" y="-.072" width="1.144" height="1.144" color-interpolation-filters="sRGB"><feGaussianBlur stdDeviation="0.82552388"/><feBlend in2="BackgroundImage" mode="overlay"/></filter></defs>
<path transform="matrix(1.6998 0 0 1.6998 9.7307 11.569)" d="m17.818 3.0571 6.6424 6.6423c4.0761 4.0761 4.0761 10.685 0 14.761s-10.685 4.0761-14.761 0l-6.6423-6.6424c-4.0761-4.0761-4.0761-10.685 0-14.761s10.685-4.0761 14.761 0z" fill="#b3b3b3" fill-rule="evenodd" filter="url(#filter1191)"/><g transform="translate(0,16)" display="none" opacity=".5">
	<polyline points="47.996 -3e-3 47.996 47.997 -4e-3 47.997 -4e-3 -3e-3" display="inline"/>
</g>
<path d="m40.149 16.699 11.291 11.291c6.9285 6.9285 6.9285 18.162 0 25.091-6.9285 6.9284-18.162 6.9285-25.091 0l-11.291-11.291c-6.9285-6.9285-6.9285-18.162 0-25.091 6.9285-6.9284 18.162-6.9285 25.091 0z" fill="url(#linearGradient914)" fill-rule="evenodd" stroke-width="1.6998"/><path transform="matrix(1.6998 0 0 1.6998 9.8618 11.503)" d="m17.818 3.0571 6.6424 6.6423c4.0761 4.0761 4.0761 10.685 0 14.761s-10.685 4.0761-14.761 0l-6.6423-6.6424c-4.0761-4.0761-4.0761-10.685 0-14.761s10.685-4.0761 14.761 0z" fill-rule="evenodd" filter="url(#dcc_nav_mouse_42px-d)"/><polygon transform="matrix(1.6998 0 0 1.6998 9.8618 11.503)" points="11.586 9.981 10.463 11.103 2.414 3.054 3.537 1.931" filter="url(#dcc_nav_mouse_42px-f)"/><polygon transform="matrix(1.6998 0 0 1.6998 9.8618 11.503)" points="11.586 9.981 10.463 11.103 2.414 3.054 3.537 1.931" fill="#4a4a4a" filter="url(#dcc_nav_mouse_42px-a)"/><polygon transform="matrix(1.6998 0 0 1.6998 9.8618 11.503)" points="17.741 2.897 18.828 3.999 3.983 18.345 2.897 17.242" filter="url(#dcc_nav_mouse_42px-h)"/><polygon transform="matrix(1.6998 0 0 1.6998 9.8618 11.503)" points="17.741 2.897 18.828 3.999 3.983 18.345 2.897 17.242" fill="#4a4a4a" filter="url(#dcc_nav_mouse_42px-a)"/><path transform="matrix(1.6998 0 0 1.6998 9.8618 11.503)" d="m16.025 4.1836 4.8944 4.8944c3.0034 3.0034 3.0034 7.8729 0 10.876-3.0034 3.0034-7.8729 3.0034-10.876 0l-4.8944-4.8944c-3.0034-3.0034-3.0034-7.8729 0-10.876s7.8729-3.0034 10.876 0z" fill="url(#linearGradient916)" fill-opacity=".75" fill-rule="evenodd" filter="url(#dcc_nav_mouse_42px-a)" mask="url(#dcc_nav_mouse_42px-e)"/></svg>
