<svg width="64" height="64" version="1.1" viewBox="0 0 64 64" xml:space="preserve" xmlns="http://www.w3.org/2000/svg"><defs><filter id="filter953" x="-.064165" y="-.056343" width="1.1283" height="1.1127" color-interpolation-filters="sRGB"><feGaussianBlur stdDeviation="1.3367675"/></filter></defs><path d="m20.846 3.4023v6.9434h-4.166v9.7227h-1.3887v2e-3h-4.166c-2.7583 1e-6 -4.168 1.4146-4.168 4.209v19.016c0 3.0027 1.195 4.5508 4.2422 4.5508h5.4805v4.166h4.166v8.332h22.223v-8.332h4.166v-4.166h5.4824c3.0708 0 4.2402-1.5481 4.2402-4.5508v-19.059c0-2.7346-1.389-4.166-4.1445-4.166h-4.1894v-2e-3h-1.3887v-9.7227h-4.166v-2.7773l-4.1894-4.166z" fill-opacity=".29804" filter="url(#filter953)" stroke-width="1.3889"/><g transform="translate(-.042254 -.12676)" stroke-width="1.3889"><path d="m56.999 38.919c0 4.9749-3.7555 9.0525-8.8886 9.0525h-32.221c-5.1332 0-8.8886-4.0791-8.8886-9.0525v-14.513c0-2.7944 1.4083-4.2096 4.1666-4.2096h41.688c2.7555 0 4.1443 1.4319 4.1443 4.1666z" fill="#edf1ff"/><path d="m7 34.083v9.3386c0 3.0027 1.1944 4.5499 4.2415 4.5499h41.517c3.0707 0 4.2415-1.5472 4.2415-4.5499v-9.3386z" fill="#bccadd"/><path d="m15.333 20.195h33.332v4.1666h-33.332zm0 20.833h33.332v5.5554h-33.332z" fill="#282a2f"/><path d="m16.722 46.583h30.555v5.5554h-30.555zm0-36.11h30.555v9.722h-30.555z" fill="#b3b5c9"/><path d="m20.889 43.805h22.222v16.666h-22.222zm22.222-23.61h-22.222v-16.666h18.033l4.1888 4.1666z" fill="#fff"/><circle cx="52.27" cy="30.968" r="1.7263" fill="#22ac38"/><circle cx="52.286" cy="37.868" r="1.7416" fill="#e60012"/></g></svg>
