<svg width="64" height="64" version="1.1" viewBox="0 0 64 64" xmlns="http://www.w3.org/2000/svg"><title>深度云打印-linux-64px</title><defs><linearGradient id="b" x1="25.211" x2="25.211" y1="12.443" y2="55.803" gradientTransform="scale(1.2693 .78782)" gradientUnits="userSpaceOnUse"><stop stop-color="#fff" offset="0"/><stop stop-color="#C0E9FE" offset="1"/></linearGradient><linearGradient id="c" x1="25.206" x2="25.206" y1="11.426" y2="56.65" gradientTransform="scale(1.2695 .78768)" gradientUnits="userSpaceOnUse"><stop stop-color="#EBF9FF" offset="0"/><stop stop-color="#C4E6F8" offset="1"/></linearGradient><linearGradient id="d" x1="27.002" x2="27.002" y1="37.922" y2="69.988" gradientTransform="scale(1.1851 .84383)" gradientUnits="userSpaceOnUse"><stop stop-color="#44A8FF" offset="0"/><stop stop-color="#016EDA" offset="1"/></linearGradient><filter id="a" color-interpolation-filters="sRGB"><feFlood flood-color="#000" flood-opacity=".196" result="flood"/><feComposite in="flood" in2="SourceGraphic" operator="in" result="composite1"/><feGaussianBlur in="composite1" result="blur" stdDeviation="1"/><feOffset dx="0" dy="1" result="offset"/><feComposite in="SourceGraphic" in2="offset" result="composite2"/></filter></defs><g fill-rule="evenodd" filter="url(#a)"><path d="M13.032 21.943V7.5c0-.828.676-1.5 1.501-1.5l34.997.003c.83 0 1.5.665 1.499 1.5l-.03 14.443z" fill="#43a6fe"/><path d="M13.032 21.943V8.501c0-.83.676-1.501 1.501-1.501l34.997.002c.83 0 1.5.681 1.498 1.502L51 21.946z" fill="#0080ff"/><path d="M61 33.271c0-5.328-3.592-9.819-8.507-11.245-1.412-5.485-6.421-9.55-12.401-9.55-1.74 0-3.396.347-4.91.969A14.236 14.236 0 0 0 24.83 9c-7.783 0-14.096 6.19-14.216 13.868C6.177 24.454 3 28.647 3 33.586c0 6.262 5.1 11.34 11.411 11.399v.014H49.52v-.021C55.891 44.788 61 39.626 61 33.271z" fill="url(#b)"/><path d="M52.55 21.775c-1.558-5.502-6.678-9.393-12.595-9.393-1.738 0-3.954.618-4.678.88A14.555 14.555 0 0 0 24.951 9c-7.752 0-13.95 5.5-14.457 13.64-4.475 1.725-7.494 5.963-7.494 10.768 0 6.357 5.227 11.52 11.705 11.577l34.532-.006c6.545-.194 11.763-5.446 11.763-11.877 0-5.315-3.5-9.603-8.45-11.327zm-3.342 22.232l-34.498.02C8.773 43.96 3.984 39.23 3.984 33.41c0-4.502 2.895-8.463 7.158-9.97l.321-.114.005-.337c.114-7.214 6.112-13.015 13.484-13.015 3.767 0 7.282 1.527 9.821 4.173l.232.241.311-.126a12.287 12.287 0 0 1 4.64-.906c5.56 0 10.36 3.714 11.714 8.927l.07.268.27.078c4.711 1.353 8.008 5.597 8.008 10.475 0 5.902-4.794 10.726-10.81 10.904z" fill="url(#c)"/><path d="M13.006 44.97C10.5 44.5 10 44 10 44l3-12s0 9 .006 12.97zM51 44.869c2.506-.47 3.006-.97 3.006-.97l-3-12s0 9-.006 12.97z" fill="#338dbc" fill-opacity=".2"/><circle cx="55" cy="32" r="2" fill="#0fb8ff"/><path d="M13 32v25.567c0 .825.676 1.492 1.501 1.491l34.997-.055A1.499 1.499 0 0 0 51 57.51V32z" fill="url(#d)"/><path d="M13 33v23.492c0 .833.676 1.508 1.501 1.508h34.997A1.5 1.5 0 0 0 51 56.492V33z" fill="#0080ff"/><path fill="#fff" d="M17 42h30v1H17zM17 49h30v1H17z"/></g></svg>