<svg width="64" height="64" version="1.1" viewBox="0 0 64 64" xmlns="http://www.w3.org/2000/svg">
<defs>
<filter id="filter870" x="-.0705" y="-.052222" width="1.141" height="1.1044" color-interpolation-filters="sRGB">
<feGaussianBlur stdDeviation="1.175"/>
</filter>
</defs>
<title>android-device-64px</title>
<g transform="translate(-5)">
<g fill-rule="evenodd">
<path d="m17 7.66a3.5507 2.663 0 0 1 3.5493-2.66h32.901a3.56 2.67 0 0 1 3.5493 2.66v48.68a3.5507 2.663 0 0 1-3.5493 2.66h-32.901a3.56 2.67 0 0 1-3.5493-2.66z" fill="#c1b6aa" filter="url(#filter870)"/>
<path d="m17 7.66a3.5507 2.663 0 0 1 3.5493-2.66h32.901a3.56 2.67 0 0 1 3.5493 2.66v48.68a3.5507 2.663 0 0 1-3.5493 2.66h-32.901a3.56 2.67 0 0 1-3.5493-2.66z" fill="#c1b6aa"/>
<path d="m18.333 7.338c0-0.74 0.79733-1.338 1.776-1.338h33.781c0.98133 0 1.776 0.602 1.776 1.338v49.324c0 0.74-0.79733 1.338-1.776 1.338h-33.781a1.7827 1.337 0 0 1-1.776-1.338z" fill="#f7ebde"/>
<path d="m19.667 11h34.667v42h-34.667z" fill="#1a1a1a"/>
<circle cx="43.67" cy="8.333" r=".667" fill="#1c1c1c"/>
</g>
<path d="m35.507 8.5h5m-10 0h1" fill="none" stroke="#8a837b" stroke-linecap="round"/>
</g>
</svg>
