<svg width="22" height="22" version="1.1" xmlns="http://www.w3.org/2000/svg">
<defs>
<style id="current-color-scheme" type="text/css">.ColorScheme-Text { color:#dfdfdf; } .ColorScheme-Highlight { color:#4285f4; }</style>
</defs>
<g transform="translate(2.5413 3.0262)" fill="#dfdfdf" shape-rendering="auto">
<path d="m2.5541 4.3806a0.50005 0.50005 0 0 0-0.22852 0.93164l4.6562 2.8066-4.6504 2.6992a0.50015 0.50015 0 1 0 0.50195 0.86524l5.3809-3.125a0.50005 0.50005 0 0 0 0.00586-0.85938l-5.3789-3.2422a0.50005 0.50005 0 0 0-0.28711-0.076172z" color="#000000" color-rendering="auto" dominant-baseline="auto" image-rendering="auto" solid-color="#000000" style="font-feature-settings:normal;font-variant-alternates:normal;font-variant-caps:normal;font-variant-ligatures:normal;font-variant-numeric:normal;font-variant-position:normal;isolation:auto;mix-blend-mode:normal;shape-padding:0;text-decoration-color:#000000;text-decoration-line:none;text-decoration-style:solid;text-indent:0;text-orientation:mixed;text-transform:none;white-space:normal"/>
<path d="m8.0121 0.65183a0.50005 0.50005 0 0 0-0.22852 0.93164l4.6562 2.8066-4.6504 2.6992a0.50015 0.50015 0 1 0 0.50195 0.86523l5.3809-3.125a0.50005 0.50005 0 0 0 0.0059-0.85938l-5.3789-3.2422a0.50005 0.50005 0 0 0-0.28711-0.076172z" color="#000000" color-rendering="auto" dominant-baseline="auto" image-rendering="auto" solid-color="#000000" style="font-feature-settings:normal;font-variant-alternates:normal;font-variant-caps:normal;font-variant-ligatures:normal;font-variant-numeric:normal;font-variant-position:normal;isolation:auto;mix-blend-mode:normal;shape-padding:0;text-decoration-color:#000000;text-decoration-line:none;text-decoration-style:solid;text-indent:0;text-orientation:mixed;text-transform:none;white-space:normal"/>
<path d="m7.5658 7.7739a0.50005 0.50005 0 0 0 0.91441-0.28987l-0.027494-5.4366 4.7255 2.5655a0.50015 0.50015 0 1 0 0.47746-0.87899l-5.4693-2.9675a0.50005 0.50005 0 0 0-0.7368 0.44236l0.031802 6.2804a0.50005 0.50005 0 0 0 0.084421 0.28479z" color="#000000" color-rendering="auto" dominant-baseline="auto" image-rendering="auto" solid-color="#000000" style="font-feature-settings:normal;font-variant-alternates:normal;font-variant-caps:normal;font-variant-ligatures:normal;font-variant-numeric:normal;font-variant-position:normal;isolation:auto;mix-blend-mode:normal;shape-padding:0;text-decoration-color:#000000;text-decoration-line:none;text-decoration-style:solid;text-indent:0;text-orientation:mixed;text-transform:none;white-space:normal"/>
<path d="m8.0121 7.9738a0.50005 0.50005 0 0 0-0.22852 0.93164l4.6562 2.8066-4.6504 2.6992a0.50015 0.50015 0 1 0 0.50195 0.86524l5.3809-3.125a0.50005 0.50005 0 0 0 0.0059-0.85938l-5.3789-3.2422a0.50005 0.50005 0 0 0-0.28711-0.076172z" color="#000000" color-rendering="auto" dominant-baseline="auto" image-rendering="auto" solid-color="#000000" style="font-feature-settings:normal;font-variant-alternates:normal;font-variant-caps:normal;font-variant-ligatures:normal;font-variant-numeric:normal;font-variant-position:normal;isolation:auto;mix-blend-mode:normal;shape-padding:0;text-decoration-color:#000000;text-decoration-line:none;text-decoration-style:solid;text-indent:0;text-orientation:mixed;text-transform:none;white-space:normal"/>
<path d="m7.5658 15.096a0.50005 0.50005 0 0 0 0.91441-0.28986l-0.027494-5.4366 4.7255 2.5655a0.50015 0.50015 0 1 0 0.47746-0.87899l-5.4693-2.9675a0.50005 0.50005 0 0 0-0.7368 0.44236l0.031802 6.2804a0.50005 0.50005 0 0 0 0.084421 0.28479z" color="#000000" color-rendering="auto" dominant-baseline="auto" image-rendering="auto" solid-color="#000000" style="font-feature-settings:normal;font-variant-alternates:normal;font-variant-caps:normal;font-variant-ligatures:normal;font-variant-numeric:normal;font-variant-position:normal;isolation:auto;mix-blend-mode:normal;shape-padding:0;text-decoration-color:#000000;text-decoration-line:none;text-decoration-style:solid;text-indent:0;text-orientation:mixed;text-transform:none;white-space:normal"/>
</g>
</svg>
