<svg width="22" height="22" version="1.1" xmlns="http://www.w3.org/2000/svg">
<defs>
<style id="current-color-scheme" type="text/css">.ColorScheme-Text { color:#dfdfdf; } .ColorScheme-Highlight { color:#4285f4; }</style>
</defs>
<g transform="translate(2.9452 3)" fill="#dfdfdf" shape-rendering="auto">
<path d="m2.1557 4.3806a0.50005 0.50005 0 0 0-0.22852 0.93164l4.6562 2.8066-4.6504 2.6992a0.50015 0.50015 0 1 0 0.50195 0.86524l5.3809-3.125a0.50005 0.50005 0 0 0 0.00586-0.85938l-5.3789-3.2422a0.50005 0.50005 0 0 0-0.28711-0.076172z" color="#000000" color-rendering="auto" dominant-baseline="auto" image-rendering="auto" solid-color="#000000" style="font-feature-settings:normal;font-variant-alternates:normal;font-variant-caps:normal;font-variant-ligatures:normal;font-variant-numeric:normal;font-variant-position:normal;isolation:auto;mix-blend-mode:normal;shape-padding:0;text-decoration-color:#000000;text-decoration-line:none;text-decoration-style:solid;text-indent:0;text-orientation:mixed;text-transform:none;white-space:normal"/>
<path d="m7.6137 0.65183a0.50005 0.50005 0 0 0-0.22852 0.93164l4.6562 2.8066-4.6504 2.6992a0.50015 0.50015 0 1 0 0.50195 0.86523l5.3809-3.125a0.50005 0.50005 0 0 0 0.0059-0.85938l-5.3789-3.2422a0.50005 0.50005 0 0 0-0.28711-0.076172z" color="#000000" color-rendering="auto" dominant-baseline="auto" image-rendering="auto" solid-color="#000000" style="font-feature-settings:normal;font-variant-alternates:normal;font-variant-caps:normal;font-variant-ligatures:normal;font-variant-numeric:normal;font-variant-position:normal;isolation:auto;mix-blend-mode:normal;shape-padding:0;text-decoration-color:#000000;text-decoration-line:none;text-decoration-style:solid;text-indent:0;text-orientation:mixed;text-transform:none;white-space:normal"/>
<path d="m7.1674 7.7739a0.50005 0.50005 0 0 0 0.91441-0.28987l-0.027494-5.4366 4.7255 2.5655a0.50015 0.50015 0 1 0 0.47746-0.87899l-5.4693-2.9675a0.50005 0.50005 0 0 0-0.7368 0.44236l0.031802 6.2804a0.50005 0.50005 0 0 0 0.084421 0.28479z" color="#000000" color-rendering="auto" dominant-baseline="auto" image-rendering="auto" solid-color="#000000" style="font-feature-settings:normal;font-variant-alternates:normal;font-variant-caps:normal;font-variant-ligatures:normal;font-variant-numeric:normal;font-variant-position:normal;isolation:auto;mix-blend-mode:normal;shape-padding:0;text-decoration-color:#000000;text-decoration-line:none;text-decoration-style:solid;text-indent:0;text-orientation:mixed;text-transform:none;white-space:normal"/>
<path d="m7.6133 7.9746c-0.49797 0.023043-0.6593 0.68079-0.22852 0.93164l1.6152 0.97266v-1.1543c0-0.00337 0.0019-0.0064 2e-3 -0.00977l-1.1016-0.66406c-0.085778-0.053886-0.1859-0.080448-0.28711-0.076172z" color="#000000" color-rendering="auto" dominant-baseline="auto" image-rendering="auto" solid-color="#000000" style="font-feature-settings:normal;font-variant-alternates:normal;font-variant-caps:normal;font-variant-ligatures:normal;font-variant-numeric:normal;font-variant-position:normal;isolation:auto;mix-blend-mode:normal;shape-padding:0;text-decoration-color:#000000;text-decoration-line:none;text-decoration-style:solid;text-indent:0;text-orientation:mixed;text-transform:none;white-space:normal"/>
<path d="m8.2617 13.906-0.87109 0.50586c-0.57993 0.33381-0.075693 1.203 0.50195 0.86524l1.1406-0.66211c-0.016914-0.052863-0.033203-0.10549-0.033203-0.16406v-0.45117h-0.45117c-0.10799 0-0.20216-0.03993-0.28711-0.09375z" color="#000000" color-rendering="auto" dominant-baseline="auto" image-rendering="auto" solid-color="#000000" style="font-feature-settings:normal;font-variant-alternates:normal;font-variant-caps:normal;font-variant-ligatures:normal;font-variant-numeric:normal;font-variant-position:normal;isolation:auto;mix-blend-mode:normal;shape-padding:0;text-decoration-color:#000000;text-decoration-line:none;text-decoration-style:solid;text-indent:0;text-orientation:mixed;text-transform:none;white-space:normal"/>
<path d="m7.5488 8.0293c-0.27613 0.0011-0.4991 0.22582-0.49805 0.50195l0.033203 6.2793c-0.00156 0.10137 0.027731 0.20082 0.083984 0.28516 0.27886 0.41193 0.92276 0.2083 0.91406-0.28906v-0.13086c-0.031403-0.069148-0.050781-0.14354-0.050781-0.22461v-2.9004c0-0.04491 0.015263-0.08518 0.025391-0.12695v-1.666l-0.00195-0.38867 0.035156 0.019531c0.069888-0.2234 0.26983-0.38867 0.51562-0.38867h0.39258v-0.22461l-1.2109-0.6875c-0.073331-0.039018-0.15522-0.059156-0.23828-0.058594z" color="#000000" color-rendering="auto" dominant-baseline="auto" image-rendering="auto" solid-color="#000000" style="font-feature-settings:normal;font-variant-alternates:normal;font-variant-caps:normal;font-variant-ligatures:normal;font-variant-numeric:normal;font-variant-position:normal;isolation:auto;mix-blend-mode:normal;shape-padding:0;text-decoration-color:#000000;text-decoration-line:none;text-decoration-style:solid;text-indent:0;text-orientation:mixed;text-transform:none;white-space:normal"/>
</g>
<path d="m14 11.725c0-0.399 0.325-0.725 0.725-0.725h0.55c0.4 0 0.725 0.326 0.725 0.725v1.275h-2zm3.451 1.275h-0.451v-1.275c0-0.951-0.773-1.725-1.725-1.725h-0.55c-0.952 0-1.725 0.774-1.725 1.725v1.275h-0.451c-0.303 0-0.549 0.246-0.549 0.55v2.901c0 0.304 0.246 0.549 0.549 0.549h4.902c0.303 0 0.549-0.245 0.549-0.549v-2.901c0-0.304-0.246-0.55-0.549-0.55z" fill="#dfdfdf" fill-rule="evenodd"/>
</svg>
