<svg width="22" height="22" version="1.1" xmlns="http://www.w3.org/2000/svg">
<defs>
<style id="current-color-scheme" type="text/css">.ColorScheme-Text { color:#dfdfdf; } .ColorScheme-Highlight { color:#4285f4; }</style>
</defs>
<path d="m6.7089 9c-2.067 0-3.7089 1.8185-3.7089 4s1.6418 4 3.7089 4c0.22501 0 0.77942-0.01674 1.0137-0.07031 0 0 0.00177-0.08427 0.00195-0.0918 0.00713 0.01427 0.00555 0.02001 0.015624 0.03711 0.019618 0.0333 0.056406 0.08066 0.11523 0.13281 0.3921 0.70796 0.97719 1.2473 1.7831 1.5508 0.87038 0.32772 1.9586 0.44141 3.3769 0.44141 1.3984 0 2.4764-0.10827 3.3417-0.42383 0.86526-0.31556 1.5087-0.8754 1.9022-1.6504 0.78703-1.55 0.7402-3.8258 0.7402-7.4258v-0.5h-12.29zm1.3594 1h9.9195c-0.0066 3.2493-0.0683 5.3879-0.61912 6.4727-0.29198 0.57501-0.67637 0.91712-1.3535 1.1641-0.67711 0.24694-1.6562 0.36328-2.9999 0.36328-1.3622 0-2.348-0.12193-3.0253-0.37695-0.67728-0.25502-1.0579-0.60497-1.3477-1.2031l-0.027343-0.05664c-0.0065897-0.02867-0.01191-0.04967-0.021483-0.10547-0.029439-0.17157-0.064091-0.44312-0.099606-0.77148-0.07103-0.65673-0.14608-1.5471-0.21483-2.4395-0.11709-1.5198-0.18455-2.6273-0.21093-3.0469zm-1.0996 0.0625h0.011719c0.077714 1.7056 0.21809 2.8392 0.36522 3.7871 0.05088 0.61969 0.10259 1.2661 0.15429 1.7441 0.021097 0.19506 0.041529 0.32521 0.062498 0.48047-0.18949-0.0029-0.51135-0.0098-0.59373-0.0098-0.46274 0-0.89566-0.11311-1.2871-0.30078-0.055779-0.02517-0.10625-0.05881-0.16016-0.08789-0.096347-0.05367-0.19372-0.10437-0.28319-0.16797-0.061976-0.04417-0.11737-0.097-0.17577-0.14648-0.093209-0.07752-0.18633-0.15415-0.26952-0.24219-0.50886-0.53853-0.82614-1.2592-0.82614-2.0547 0-0.36828 0.076882-0.71818 0.19921-1.0449 0.0065-0.01856 0.010717-0.03831 0.017577-0.05664 0.029499-0.07428 0.066427-0.14358 0.10156-0.21484 0.050372-0.10562 0.10382-0.20817 0.16601-0.30469 0.031087-0.04814 0.065894-0.09247 0.099606-0.13867 0.064249-0.08714 0.12975-0.17172 0.20311-0.25 0.067448-0.07432 0.13839-0.14366 0.21288-0.21094 0.022529-0.01938 0.045242-0.038 0.068357-0.05664 0.52341-0.44556 1.193-0.72461 1.9335-0.72461z" color="#000000" color-rendering="auto" dominant-baseline="auto" fill="#dfdfdf" image-rendering="auto" shape-rendering="auto" solid-color="#000000" style="font-feature-settings:normal;font-variant-alternates:normal;font-variant-caps:normal;font-variant-ligatures:normal;font-variant-numeric:normal;font-variant-position:normal;isolation:auto;mix-blend-mode:normal;shape-padding:0;text-decoration-color:#000000;text-decoration-line:none;text-decoration-style:solid;text-indent:0;text-orientation:mixed;text-transform:none;white-space:normal"/>
</svg>
