<svg width="22" height="22" version="1.1" xmlns="http://www.w3.org/2000/svg">
<defs>
<style id="current-color-scheme" type="text/css">.ColorScheme-Text { color:#dfdfdf; } .ColorScheme-Highlight { color:#4285f4; }</style>
</defs>
<g id="object-unlocked" transform="translate(-1,-1)" fill="#dfdfdf" fill-rule="evenodd">
<g transform="translate(6,4)" fill="#dfdfdf" fill-rule="nonzero">
<path id="Combined-Shape" d="m6 0c2.216 0 4 1.8225 4 4.0625v3.9375h1c0.554 0 1 0.446 1 1v6c0 0.554-0.446 1-1 1h-10c-0.554 0-1-0.446-1-1v-6c0-0.554 0.446-1 1-1h8v-4c0-1.9798-1.4138-3-3-3s-3 1.0202-3 3v1h-1v-1c0.0334-2.2116 1.805-4 4-4zm-5 9v6h10v-6z" fill="#dfdfdf"/>
</g>
</g>
</svg>
