<svg width="22" height="22" version="1" xmlns="http://www.w3.org/2000/svg">
<defs>
<style id="current-color-scheme" type="text/css">.ColorScheme-Text { color:#dfdfdf; } .ColorScheme-Highlight { color:#4285f4; }</style>
</defs>
<path d="m9.9999 7.0002v4.0001h2v-4.0001z" color="#4285f4" fill="currentColor"/>
<path d="m9.9999 12v2h2v-2z" color="#4285f4" fill="currentColor"/>
<path d="m10.93 3.0118a0.50005 0.50005 0 0 0-0.14258 0.019531l-0.02344 0.00781zm-0.16602 0.027344-6.2617 1.8555a0.50005 0.50005 0 0 0-0.023437 0.00781c-0.17183 0.06009-0.23703 0.15467-0.2793 0.2168-0.042263 0.062131-0.062685 0.10996-0.080078 0.1543-0.034786 0.088668-0.052386 0.16666-0.068359 0.24219-0.031947 0.15106-0.050781 0.24127-0.050781 0.39258 0 2.313 0.60914 4.9381 1.6738 7.2617 0.86396 1.8854 2.4135 4.4304 5 5.752a0.50005 0.50005 0 0 0 0.0098 0.0039c0.09161 0.04447 0.19919 0.07423 0.31637 0.07423 0.11677 0 0.22424-0.02939 0.31641-0.07422a0.50005 0.50005 0 0 0 0.0098-0.0039c2.5864-1.3215 4.1361-3.8665 5-5.752 1.0651-2.3239 1.6738-4.949 1.6738-7.2617 0-0.15148-0.01889-0.24164-0.05078-0.39258-0.01595-0.075468-0.03372-0.15172-0.06836-0.24023-0.01732-0.044257-0.038-0.092232-0.08008-0.1543-0.04208-0.062064-0.10514-0.15827-0.27734-0.21875a0.50005 0.50005 0 0 0-0.02539-0.00781l-6.2617-1.8555c-0.15059-0.052727-0.32204-0.052752-0.47266 0zm0.23633 0.97266 5.9805 1.7715c0.0085 0.068896 0.01953 0.16585 0.01953 0.125 0 2.1348-0.57837 4.6516-1.584 6.8457-0.79637 1.7381-2.2413 3.9866-4.416 5.168-2.1748-1.1813-3.6195-3.4298-4.416-5.168-1.0053-2.194-1.584-4.7107-1.584-6.8457 0 0.041157 0.010877-0.055249 0.019531-0.125z" color="#dfdfdf" color-rendering="auto" dominant-baseline="auto" fill="#4285f4" image-rendering="auto" shape-rendering="auto" solid-color="#000000" style="font-feature-settings:normal;font-variant-alternates:normal;font-variant-caps:normal;font-variant-ligatures:normal;font-variant-numeric:normal;font-variant-position:normal;isolation:auto;mix-blend-mode:normal;shape-padding:0;text-decoration-color:#000000;text-decoration-line:none;text-decoration-style:solid;text-indent:0;text-orientation:mixed;text-transform:none;white-space:normal"/>
</svg>
