<svg width="22" height="22" version="1.1" xmlns="http://www.w3.org/2000/svg">
<defs>
<style id="current-color-scheme" type="text/css">.ColorScheme-Text { color:#dfdfdf; } .ColorScheme-Highlight { color:#4285f4; }</style>
</defs>
<g id="user-trash-symbolic" transform="translate(2.997 2)" fill="#dfdfdf">
<path id="Combined-Shape" d="m13 4v10.5c0 0.27614-0.22386 0.5-0.5 0.5h-9c-0.27614 0-0.5-0.22386-0.5-0.5v-10.5h-1.4583c-0.27614 0-0.5-0.22386-0.5-0.5s0.22386-0.5 0.5-0.5h12.917c0.27614 0 0.5 0.22386 0.5 0.5s-0.22386 0.5-0.5 0.5h-1.4583zm-1 0h-8v10h8zm-6.5-2c-0.27614 0-0.5-0.22386-0.5-0.5s0.22386-0.5 0.5-0.5h5c0.27614 0 0.5 0.22386 0.5 0.5s-0.22386 0.5-0.5 0.5zm1.5 10.426c0 0.27614-0.22386 0.5-0.5 0.5s-0.5-0.22386-0.5-0.5v-6.8881c0-0.27614 0.22386-0.5 0.5-0.5s0.5 0.22386 0.5 0.5zm3 0c0 0.27614-0.22386 0.5-0.5 0.5s-0.5-0.22386-0.5-0.5v-6.8881c0-0.27614 0.22386-0.5 0.5-0.5s0.5 0.22386 0.5 0.5z" fill="#dfdfdf"/>
</g>
</svg>
