<svg width="22" height="22" version="1.1" xmlns="http://www.w3.org/2000/svg">
<defs>
<style id="current-color-scheme" type="text/css">.ColorScheme-Text { color:#dfdfdf; } .ColorScheme-Highlight { color:#4285f4; }</style>
</defs>
<path d="m11 2.998c-1.1046 0-2 0.89543-2 2h-1c-1.1046 0-2 0.89543-2 2v9c0 1.1046 0.89543 2 2 2h6a2 2 0 0 0 2-2v-9c0-1.1046-0.89543-2-2-2l-1 2e-3v-2e-3c0-1.1046-0.89543-2-2-2zm-3 9h6c0.554 0 1 0.446 1 1s-0.446 1-1 1h-6c-0.554 0-1-0.446-1-1s0.446-1 1-1zm0 3h6c0.554 0 1 0.446 1 1s-0.446 1-1 1h-6c-0.554 0-1-0.446-1-1s0.446-1 1-1z" fill="#dfdfdf"/>
</svg>
