<svg width="22" height="22" version="1.1" xmlns="http://www.w3.org/2000/svg">
<defs>
<style id="current-color-scheme" type="text/css">.ColorScheme-Text { color:#dfdfdf; } .ColorScheme-Highlight { color:#4285f4; }</style>
</defs>
<path class="ColorScheme-Text" d="m18.448 3.9931c0.74106 0 0.74106 0.99998 0 0.99998h-1.4482v3h2v3h-2v1h2v3h-2v2.4362c0 0.76098-1 0.76098-1 0v-12.436c0-0.99996 1-0.99996 1-0.99996zm-4.4482 2v1h-10v10h8v-3h2v1h-1v3h-10v-12zm4 3h-1v1h1zm-5 0v4h-1v-4zm-2 0v4h-1v-4zm-2 0v4h-1v-4zm-2 0v4h-1v-4zm11 4h-1v1h1z" color="#444444" fill="#dfdfdf"/>
</svg>
