<svg width="22" height="22" version="1.1" xmlns="http://www.w3.org/2000/svg">
<defs>
<style id="current-color-scheme" type="text/css">.ColorScheme-Text { color:#dfdfdf; } .ColorScheme-Highlight { color:#4285f4; }</style>
</defs>
<path d="M 14,8 15.414,9.4141 10,15 6.5859,11.4141 8,10 l 2,2.172 z" color="#dfdfdf" fill="currentColor" fill-rule="evenodd"/>
<path d="m11 3.0151-0.33789 0.30863c-0.94814 0.86687-2.2597 1.7115-3.4668 2.3616-1.2071 0.65012-2.3471 1.1139-2.8125 1.2248l-0.38281 0.089855v0.39653c0 2.551 0.62292 5.1909 1.7871 7.3349 1.1642 2.144 2.8945 3.8147 5.1133 4.2642l0.09961 0.01953 0.09961-0.01953c2.2188-0.44952 3.9491-2.1202 5.1133-4.2642 1.1642-2.144 1.7871-4.7839 1.7871-7.3349v-0.39653l-0.38477-0.089855c-0.46554-0.11091-1.6035-0.57464-2.8105-1.2248-1.2071-0.65012-2.5187-1.4947-3.4668-2.3616zm0 1.2775c0.99996 0.8534 2.1883 1.6588 3.3301 2.2737 1.0839 0.58378 1.9473 0.92203 2.6328 1.1349-0.04829 2.2933-0.60422 4.6665-1.6289 6.5535-1.0489 1.9317-2.5396 3.3029-4.334 3.7094-1.7945-0.40651-3.285-1.7777-4.334-3.7094-1.0247-1.8871-1.5806-4.2603-1.6289-6.5535 0.68538-0.2129 1.547-0.55118 2.6309-1.1349 1.1418-0.61495 2.332-1.4203 3.332-2.2737z" color="#dfdfdf" color-rendering="auto" dominant-baseline="auto" fill="#dfdfdf" fill-rule="evenodd" image-rendering="auto" shape-rendering="auto" solid-color="#000000" style="font-feature-settings:normal;font-variant-alternates:normal;font-variant-caps:normal;font-variant-ligatures:normal;font-variant-numeric:normal;font-variant-position:normal;isolation:auto;mix-blend-mode:normal;shape-padding:0;text-decoration-color:#000000;text-decoration-line:none;text-decoration-style:solid;text-indent:0;text-orientation:mixed;text-transform:none;white-space:normal"/>
</svg>
