<svg width="22" height="22" version="1.1" xmlns="http://www.w3.org/2000/svg">
<defs>
<style id="current-color-scheme" type="text/css">.ColorScheme-Text { color:#dfdfdf; } .ColorScheme-Highlight { color:#4285f4; }</style>
</defs>
<g transform="translate(3,2.9967)">
<path d="m15 1.0033-14 14h9v-5h5z" fill="#dfdfdf" opacity=".3"/>
<path d="m12.519 16.003c-0.276 0-0.5-0.224-0.5-0.5s0.224-0.5 0.5-0.5 0.5 0.224 0.5 0.5-0.224 0.5-0.5 0.5m0.0479-2.0196h-0.134c-0.239 0-0.433-0.194-0.433-0.433v-2.134c0-0.239 0.194-0.433 0.433-0.433h0.134c0.239 0 0.433 0.194 0.433 0.433v2.134c0 0.239-0.194 0.433-0.433 0.433" fill="#ff001e" fill-rule="evenodd"/>
</g>
</svg>
