<svg width="22" height="22" version="1.1" xmlns="http://www.w3.org/2000/svg">
<defs>
<style id="current-color-scheme" type="text/css">.ColorScheme-Text { color:#dfdfdf; } .ColorScheme-Highlight { color:#4285f4; }</style>
</defs>
<path d="m4.8743 9.5395 6.1231 6.0187 6.1075-6.018c-0.75157-0.70875-1.6057-1.2843-2.5302-1.7015-1.1252-0.50869-2.3376-0.77373-3.5858-0.77373-1.2476 0-2.461 0.2652-3.586 0.77382-0.92411 0.41734-1.7784 0.99298-2.5286 1.7007zm-1.289-0.40598c0.95084-1.0137 2.08-1.8267 3.3235-2.3883 1.2791-0.57827 2.6609-0.88027 4.0802-0.88027 1.4199 0 2.8007 0.30184 4.0798 0.8801 1.2434 0.56105 2.3718 1.3735 3.3246 2.3882 0.22298 0.23747 0.21576 0.60947-0.01627 0.8381l-6.958 6.856c-0.23337 0.22995-0.60806 0.23018-0.84172 5.13e-4l-6.975-6.856c-0.23242-0.22846-0.23998-0.60067-0.017024-0.83837z" fill="#dfdfdf"/>
</svg>
