<svg width="22" height="22" version="1.1" xmlns="http://www.w3.org/2000/svg">
<defs>
<style id="current-color-scheme" type="text/css">.ColorScheme-Text { color:#dfdfdf; } .ColorScheme-Highlight { color:#4285f4; }</style>
</defs>
<g transform="translate(2.9758 2.9731)" fill="#dfdfdf" fill-rule="evenodd">
<path d="m6.382 7.5499c-0.191 0.027-0.372 0.12-0.503 0.26l-1.19 1.188c-0.161 0.155-0.257 0.373-0.261 0.595v1.206l-2.229 2.2c-0.233 0.233-0.233 0.621 0 0.854 0.235 0.232 0.623 0.232 0.857 0l2.227-2.218h1.192c0.221-6e-3 0.44-0.101 0.595-0.261l1.19-1.188c0.307-0.315 0.307-0.874 0-1.188l-1.19-1.188c-0.176-0.182-0.436-0.281-0.688-0.26"/>
<path d="m9.6681 8.5036c0.19-0.026 0.37-0.12 0.503-0.26l1.189-1.187c0.162-0.156 0.257-0.373 0.261-0.595v-1.206l2.228-2.201c0.234-0.232 0.234-0.621 0-0.854-0.233-0.232-0.622-0.232-0.856 0l-2.228 2.218h-1.19c-0.222 6e-3 -0.441 0.102-0.596 0.262l-1.191 1.187c-0.306 0.315-0.306 0.874 0 1.189l1.191 1.187c0.176 0.183 0.436 0.281 0.689 0.26"/>
<path d="m12 8.725c0-0.399 0.325-0.725 0.725-0.725h0.55c0.4 0 0.725 0.326 0.725 0.725v1.275h-2zm3.451 1.275h-0.451v-1.275c0-0.951-0.773-1.725-1.725-1.725h-0.55c-0.952 0-1.725 0.774-1.725 1.725v1.275h-0.451c-0.303 0-0.549 0.246-0.549 0.55v2.901c0 0.304 0.246 0.549 0.549 0.549h4.902c0.303 0 0.549-0.245 0.549-0.549v-2.901c0-0.304-0.246-0.55-0.549-0.55z"/>
</g>
</svg>
