<svg width="22" height="22" version="1.1" xmlns="http://www.w3.org/2000/svg">
<defs>
<style id="current-color-scheme" type="text/css">.ColorScheme-Text { color:#dfdfdf; } .ColorScheme-Highlight { color:#4285f4; }</style>
</defs>
<path d="m11 3a8 8 0 0 0-8 8 8 8 0 0 0 0.99219 3.8574l0.83984-0.55859a7 7 0 0 1-0.83203-3.2988 7 7 0 0 1 7-7 7 7 0 0 1 5.4336 2.5918l0.83203-0.55469a8 8 0 0 0-6.2656-3.0371zm7.0117 4.1504-0.83984 0.55859a7 7 0 0 1 0.82812 3.291 7 7 0 0 1-7 7 7 7 0 0 1-5.4258-2.5859l-0.83398 0.55469a8 8 0 0 0 6.2598 3.0312 8 8 0 0 0 8-8 8 8 0 0 0-0.98828-3.8496z" color="#dfdfdf" fill="#dfdfdf"/>
<path d="m8 6.5996v1.9414l1.2891 0.85938-1.2891 0.85938v1.9395l4.1992-2.7988z" color="#dfdfdf" fill="currentColor"/>
<path d="m14 9.8008-4.1992 2.7988 4.1992 2.8008v-1.9414l-1.2891-0.85938 1.2891-0.85938z" color="#dfdfdf" fill="currentColor"/>
</svg>
