<svg width="22" height="22" version="1.1" xmlns="http://www.w3.org/2000/svg">
<defs>
<style id="current-color-scheme" type="text/css">.ColorScheme-Text { color:#dfdfdf; } .ColorScheme-Highlight { color:#4285f4; }</style>
</defs>
<path d="m11 4a0.50005 0.50005 0 1 0 0 1c1.5364-1e-6 3.0685 0.5822 4.2422 1.7559 2.3473 2.3473 2.3473 6.139 0 8.4863s-6.1371 2.3473-8.4844 0c-1.1737-1.1737-1.7578-2.7058-1.7578-4.2422 0.96119 6.56e-4 2.0185 0.0055 1.998 0l-1.2832-1.9824-1.2168-2.0176-1.2168 2.0176-1.2832 1.9824s1.0342-0.0018 2.002 0c0 1.7907 0.68607 3.5845 2.0508 4.9492 2.7295 2.7295 7.1689 2.7295 9.8984 0s2.7295-7.1709 0-9.9004c-1.3647-1.3647-3.1585-2.0488-4.9492-2.0488z" color="#000000" color-rendering="auto" dominant-baseline="auto" fill="#dfdfdf" fill-rule="evenodd" image-rendering="auto" shape-rendering="auto" solid-color="#000000" style="font-feature-settings:normal;font-variant-alternates:normal;font-variant-caps:normal;font-variant-ligatures:normal;font-variant-numeric:normal;font-variant-position:normal;isolation:auto;mix-blend-mode:normal;paint-order:stroke markers fill;shape-padding:0;text-decoration-color:#000000;text-decoration-line:none;text-decoration-style:solid;text-indent:0;text-orientation:mixed;text-transform:none;white-space:normal"/>
</svg>
