<svg width="22" height="22" version="1.1" xmlns="http://www.w3.org/2000/svg">
<defs>
<style id="current-color-scheme" type="text/css">.ColorScheme-Text { color:#dfdfdf; } .ColorScheme-Highlight { color:#4285f4; }</style>
</defs>
<g transform="translate(3,3)">
<rect width="16" height="16" opacity="0"/>
<g fill="#dfdfdf" fill-rule="evenodd" shape-rendering="auto">
<path d="m2.5 1a0.50005 0.50005 0 0 0-0.5 0.5v13a0.50005 0.50005 0 0 0 0.5 0.5h5.5a0.91373 1.023 0 0 1 0-0.04687 0.91373 1.023 0 0 1 0.12305-0.48828l0.24023-0.46485h-5.3633v-12h10v5.168a0.91373 1.023 0 0 1 0.29102 0.3418l0.70898 1.375v-7.3848a0.50005 0.50005 0 0 0-0.5-0.5z" color="#000000" color-rendering="auto" dominant-baseline="auto" image-rendering="auto" solid-color="#000000" style="font-feature-settings:normal;font-variant-alternates:normal;font-variant-caps:normal;font-variant-ligatures:normal;font-variant-numeric:normal;font-variant-position:normal;isolation:auto;mix-blend-mode:normal;shape-padding:0;text-decoration-color:#000000;text-decoration-line:none;text-decoration-style:solid;text-indent:0;text-orientation:mixed;text-transform:none;white-space:normal"/>
<path id="Line" d="m4.5 12a0.50005 0.50005 0 1 0 0 1h4.3789l0.51562-1z" color="#000000" color-rendering="auto" dominant-baseline="auto" image-rendering="auto" solid-color="#000000" style="font-feature-settings:normal;font-variant-alternates:normal;font-variant-caps:normal;font-variant-ligatures:normal;font-variant-numeric:normal;font-variant-position:normal;isolation:auto;mix-blend-mode:normal;shape-padding:0;text-decoration-color:#000000;text-decoration-line:none;text-decoration-style:solid;text-indent:0;text-orientation:mixed;text-transform:none;white-space:normal"/>
<path d="m2.5 10a0.50005 0.50005 0 1 0 0 1h7.4102l0.00586-0.01172 0.50976-0.98828z" color="#000000" color-rendering="auto" dominant-baseline="auto" image-rendering="auto" solid-color="#000000" style="font-feature-settings:normal;font-variant-alternates:normal;font-variant-caps:normal;font-variant-ligatures:normal;font-variant-numeric:normal;font-variant-position:normal;isolation:auto;mix-blend-mode:normal;shape-padding:0;text-decoration-color:#000000;text-decoration-line:none;text-decoration-style:solid;text-indent:0;text-orientation:mixed;text-transform:none;white-space:normal"/>
</g>
<path class="ColorScheme-Highlight" d="m12.463 9a0.71065 0.79561 0 0 0-0.57812 0.39648l-2.7891 5.4102a0.71065 0.79561 0 0 0-0.095703 0.37891 0.71065 0.79561 0 0 0 0.71094 0.81445h5.5781a0.71065 0.79561 0 0 0 0.61524-1.1934l-2.7891-5.4102a0.71065 0.79561 0 0 0-0.58203-0.39648 0.71065 0.79561 0 0 0-0.07031 0zm-0.46289 1h1v3h-1zm0 4h1v1h-1z" color="#4285f4" fill="#4285f4"/>
</g>
</svg>
