<svg xmlns="http://www.w3.org/2000/svg" xmlns:xlink="http://www.w3.org/1999/xlink" height="48" width="48">
    <defs>
        <linearGradient id="a">
            <stop stop-color="#fce080" offset="0"/>
            <stop stop-color="#fee69d" offset="1"/>
        </linearGradient>
        <linearGradient y2="13" x2="-30" y1="35.868" x1="-30" gradientTransform="matrix(1.3 0 0 1.3 73.6 6.6)" gradientUnits="userSpaceOnUse" id="b" xlink:href="#a"/>
    </defs>
    <path d="M25.2 17.233L25 12c-3-3-3-3.983-5.997-3.983H3.708C1.308 8.017 0 9.227 0 11.645v5.588" fill="#ecc359"/>
    <path d="M9.9 56C7.3 56 6 54.7 6 52.1V22.675l20.635.055c3.198.008 3.198-1.13 6.448-4.355H54.1c2.6 0 3.9.9 3.9 3.5V52.1c0 2.6-1.3 3.9-3.9 3.9z" fill="url(#b)" transform="matrix(.92308 0 0 .93023 -5.538 -5.093)"/>
    <path d="M.822 46c.599.661 1.517 1 2.772 1h40.8c1.255 0 2.173-.339 2.772-1z" fill-opacity=".392"/>
        <g transform="translate(13 20)">
            <path d="M1 3v16h20V3H1zm1 1h.049l5.974 5.977L2 16V4zm1.463 0h15.074L11 11.537 3.463 4zM19.95 4H20v12l-6.023-6.023L19.95 4zM8.73 10.684L11 12.95l2.27-2.267 6.267 6.267.463.463V18H2v-.586l.463-.463 6.267-6.267z" fill="#6f5f34" color="#6f5f34"/>

    </g>
</svg>
