<svg xmlns="http://www.w3.org/2000/svg" xmlns:xlink="http://www.w3.org/1999/xlink" height="48" width="48">
    <defs>
        <linearGradient id="b">
            <stop offset="0" stop-color="#353535"/>
            <stop offset="1" stop-color="#303030"/>
        </linearGradient>
        <linearGradient id="a">
            <stop offset="0" stop-color="#fcfcfc"/>
            <stop offset=".523" stop-color="#aaa"/>
            <stop offset=".723" stop-color="#aaa"/>
            <stop offset=".89"  stop-color="#aaa"/>
            <stop offset="1" stop-color="#cecbcb"/>
        </linearGradient>
        <linearGradient xlink:href="#a" id="d" gradientUnits="userSpaceOnUse" gradientTransform="matrix(0 -.3078 .32866 0 1.285 38.969)" x1="86.738" y1="93.621" x2="95.182" y2="102.066"/>
        <linearGradient xlink:href="#b" id="c" x1="20" y1="14" x2="35" y2="54" gradientUnits="userSpaceOnUse" gradientTransform="matrix(.8142 0 0 .73587 -2.246 .216)"/>
    </defs>
    <path d="M7.118 44H40.5V15.301L29.102 5H7.117z" fill="url(#c)"/>
    <path d="M28.322 4.5H7.5v39h33V16.037" fill="none" stroke="#606060"/>
    <path d="M28.321 4.5c1.45 0 2.161.982 2.707 1.737 1.126 1.554 1.08 4.544 1.106 6.302 1.878.025 5.036-.05 6.695 1.003.807.513 1.671 1.61 1.671 2.495 0-.705-.355-1.442-1.248-2.307-2.874-2.78-5.24-5.282-8.216-7.808-.688-.585-1.261-1.422-2.715-1.422z" fill="url(#d)" stroke="#606060"/>
        <g transform="scale(2 2) translate(4 6)">
            <path fill="#0288D1" d="M5.35 13.9c-.239-.062-.215-.129.179-.498.679-.635.792-1.267.599-3.347-.154-1.659-.189-1.786-.448-1.647-.562.301-1.263-.087-2.06-1.138-.394-.52-.431-.672-.364-1.481.041-.496.126-1.095.188-1.331.095-.362.065-.429-.198-.429a.75.75 0 0 1-.507-.237c-.272-.328.213-.855.787-.855.233 0 .512-.105.619-.234.276-.332.697-.29 1.17.117.503.433.674 1.435.392 2.291-.319.968-.098 1.063.349.149.25-.511.603-.957.894-1.129.264-.156.65-.553.858-.882.208-.329.468-.656.579-.727.34-.217 1.274-.516 1.622-.519.475-.01 1.112.552 1.225 1.069.054.244.34.82.636 1.279.296.459.538.916.538 1.014 0 .098.21.444.468.767.385.485.467.729.461 1.386-.007.901-.492 2.049-.67 1.586-.056-.146-.033-.395.052-.553.177-.331.021-1.799-.171-1.607-.134.134-.221 1.566-.184 3.01.049 1.874-.042 3.64-.19 3.688-.378.12-.543-.191-.388-.732.233-.814.185-2.979-.074-3.321-.12-.158-.264-.561-.32-.896-.057-.335-.164-.646-.239-.692-.246-.152-.617.832-.617 1.635 0 .629-.095.919-.468 1.435-.528.729-.569.944-.234 1.223.261.217.312.713.087.852-.081.05-.291-.064-.468-.254-.25-.268-.321-.29-.321-.1 0 .285-.578.478-.897.3-.171-.095-.13-.18.183-.386.559-.366.505-.666-.242-1.349-.582-.532-.634-.639-.538-1.112.302-1.498.301-1.537-.048-1.537-.228 0-.329.098-.329.322 0 .177-.077.467-.172.644-.167.312-.217.563-.621 3.127-.201 1.278-.251 1.327-1.121 1.1m4.187-2.721c.202-.392.232-.727.145-1.654-.115-1.231-.2-1.274-.537-.272-.115.343-.34.791-.5.995-.371.476-.364.62.049 1.06.443.471.539.457.843-.13"/>

    </g>
</svg>
