<svg xmlns="http://www.w3.org/2000/svg" xmlns:xlink="http://www.w3.org/1999/xlink" height="48" width="48">
    <defs>
        <linearGradient id="b">
            <stop offset="0" stop-color="#353535"/>
            <stop offset="1" stop-color="#303030"/>
        </linearGradient>
        <linearGradient id="a">
            <stop offset="0" stop-color="#fcfcfc"/>
            <stop offset=".523" stop-color="#aaa"/>
            <stop offset=".723" stop-color="#aaa"/>
            <stop offset=".89"  stop-color="#aaa"/>
            <stop offset="1" stop-color="#cecbcb"/>
        </linearGradient>
        <linearGradient xlink:href="#a" id="d" gradientUnits="userSpaceOnUse" gradientTransform="matrix(0 -.3078 .32866 0 1.285 38.969)" x1="86.738" y1="93.621" x2="95.182" y2="102.066"/>
        <linearGradient xlink:href="#b" id="c" x1="20" y1="14" x2="35" y2="54" gradientUnits="userSpaceOnUse" gradientTransform="matrix(.8142 0 0 .73587 -2.246 .216)"/>
    </defs>
    <path d="M7.118 44H40.5V15.301L29.102 5H7.117z" fill="url(#c)"/>
    <path d="M28.322 4.5H7.5v39h33V16.037" fill="none" stroke="#606060"/>
    <path d="M28.321 4.5c1.45 0 2.161.982 2.707 1.737 1.126 1.554 1.08 4.544 1.106 6.302 1.878.025 5.036-.05 6.695 1.003.807.513 1.671 1.61 1.671 2.495 0-.705-.355-1.442-1.248-2.307-2.874-2.78-5.24-5.282-8.216-7.808-.688-.585-1.261-1.422-2.715-1.422z" fill="url(#d)" stroke="#606060"/>
        <g transform="scale(2 2) translate(4 6)">
            <g fill="#0288D1">
        <path d="M8.364 3.323a.383.383 0 0 1-.385.382.383.383 0 0 1-.384-.382v-.942a.384.384 0 0 1 .769 0zM8.305 9.985a.316.316 0 0 1-.317.314H7.97a.316.316 0 0 1-.318-.314V8.966c0-.174.143-.317.318-.317h.017c.175 0 .317.141.317.317z"/>
        <path d="M11.981 12.982a.454.454 0 0 0 .087-.508L8.883 5.72c-.002-.018-.002-.037-.002-.057 0-.066.024-.127.064-.175.38-.286.624-.739.624-1.249a1.57 1.57 0 0 0-1.574-1.565c-.885 0-1.575.7-1.575 1.565 0 .51.244.963.623 1.249.04.048.065.108.065.175 0 .02 0 .04-.002.058L3.92 12.473a.452.452 0 0 0 .087.508l-.502 1.02.793-.86a.46.46 0 0 0 .532-.247L7.868 6.46a.152.152 0 0 1 .12-.058h.015c.049 0 .091.024.118.058l3.037 6.436a.457.457 0 0 0 .53.248l.794.86zM7.995 5.141a.9.9 0 1 1 0-1.8c.5 0 .904.402.904.9 0 .497-.404.9-.904.9"/>
        <path d="M11.445 9.506a.206.206 0 0 1-.207.205H4.72a.207.207 0 0 1-.207-.205v-.002c0-.114.093-.205.207-.205h6.518a.208.208 0 0 1 .207.207"/>
    </g>

    </g>
</svg>
