<svg xmlns="http://www.w3.org/2000/svg" xmlns:xlink="http://www.w3.org/1999/xlink" height="48" width="48">
    <defs>
        <linearGradient id="b">
            <stop offset="0" stop-color="#353535"/>
            <stop offset="1" stop-color="#303030"/>
        </linearGradient>
        <linearGradient id="a">
            <stop offset="0" stop-color="#fcfcfc"/>
            <stop offset=".523" stop-color="#aaa"/>
            <stop offset=".723" stop-color="#aaa"/>
            <stop offset=".89"  stop-color="#aaa"/>
            <stop offset="1" stop-color="#cecbcb"/>
        </linearGradient>
        <linearGradient xlink:href="#a" id="d" gradientUnits="userSpaceOnUse" gradientTransform="matrix(0 -.3078 .32866 0 1.285 38.969)" x1="86.738" y1="93.621" x2="95.182" y2="102.066"/>
        <linearGradient xlink:href="#b" id="c" x1="20" y1="14" x2="35" y2="54" gradientUnits="userSpaceOnUse" gradientTransform="matrix(.8142 0 0 .73587 -2.246 .216)"/>
    </defs>
    <path d="M7.118 44H40.5V15.301L29.102 5H7.117z" fill="url(#c)"/>
    <path d="M28.322 4.5H7.5v39h33V16.037" fill="none" stroke="#606060"/>
    <path d="M28.321 4.5c1.45 0 2.161.982 2.707 1.737 1.126 1.554 1.08 4.544 1.106 6.302 1.878.025 5.036-.05 6.695 1.003.807.513 1.671 1.61 1.671 2.495 0-.705-.355-1.442-1.248-2.307-2.874-2.78-5.24-5.282-8.216-7.808-.688-.585-1.261-1.422-2.715-1.422z" fill="url(#d)" stroke="#606060"/>
        <g transform="scale(2 2) translate(4 6)">
            <path d="M7.994 2c-.64-.002-1.29.1-1.931.309-1.925.62-3.336 2.139-3.866 4.16-.196.748-.199.818-.195 2.986.003 1.816.006 1.971.06 2.234.195.937.822 1.673 1.713 2.034.096.04.197.079.3.109.038.012.082.017.122.033.086.034.16.084.196.114.023.019.049.027.074.037a.117.117 0 0 0 .03.056c.061.058.124.06.169.073.1.043.217.027.326.029l.047.002c.146.002.278-.011.387-.041.109-.03.202-.068.256-.16.027-.045.017-.05.02-.069l.007-.068c.004-.054.007-.125.01-.213.003-.094.004-.242.006-.367.302.909.377 1.112.38.996.002-.078.39-3.001.416-3.131.033-.167.126-.141.19.053a87.52 87.52 0 0 1 .5 2.025c.28 1.17.457 1.837.476 1.797.015-.035.156-1.045.311-2.244.353-2.735.323-2.576.443-2.535.07.023.07.017.5 2.082.195.93.362 1.706.37 1.726.02.055.054-.139.2-1.203.236-1.69.34-2.353.378-2.388.063-.06.12.036.234.388l.098.305c.012.71.025 1.505.027 1.861l.006 1.006.125.092c.068.05.147.083.22.101h.003l.003.002h.008a1.97 1.97 0 0 0 .336.018 1.07 1.07 0 0 0 .362-.068.449.449 0 0 0 .138-.09c.04-.024.081-.051.125-.086.022-.02.145-.07.219-.102.068-.03.151-.042.232-.068.45-.15.747-.335 1.104-.686.355-.348.545-.64.703-1.08.232-.78.153-1.646.158-2.457.01-2.366-.034-2.415-.213-3.133a5.68 5.68 0 0 0-1.597-2.761A5.865 5.865 0 0 0 9.916 2.32 6.218 6.218 0 0 0 7.996 2h-.002zm.117.984c.313 0 .62.016.815.05 1.496.257 2.807 1.235 3.511 2.616.306.598.383 1.105.463 1.807.27 1.499.401 1.478-.904 1.027a4.723 4.723 0 0 1-.447-.16l-.11-.086c-.167-.128-.418-.153-.654-.133-.118.01-.232.034-.33.073a.435.435 0 0 0-.236.183c-.02.038-.018.05-.022.075a1.191 1.191 0 0 0-.006.09c-.003.074-.004.18-.004.326 0 .122.006.41.008.593l-.181-.55c-.152-.458-.235-.659-.254-.616-.016.034-.084.501-.15 1.04-.133 1.066-.23 1.743-.262 1.84-.011.032-.044.06-.073.06-.1 0-.138-.128-.61-2.127-.17-.72-.331-1.395-.358-1.5L8.256 7.4l-.053.418c-.16 1.267-.566 4.094-.6 4.16-.045.095-.104.1-.154.016-.052-.087-.469-1.664-.756-2.86-.136-.56-.258-1.019-.273-1.019-.014 0-.039.145-.053.323-.045.558-.301 2.925-.351 3.232-.048.297-.106.379-.182.252-.009-.014-.062-.182-.09-.262.006-.502.008-.896.018-1.4.019-.992.034-1.45.006-1.697-.014-.125-.043-.21-.106-.27-.063-.06-.127-.073-.19-.098-.178-.072-.415-.076-.628-.049a1.185 1.185 0 0 0-.29.07.345.345 0 0 0-.163.112 2.9 2.9 0 0 1-.338.127c-1.332.698-1.278.336-.963-1.027.36-2.482 1.798-4.036 4.168-4.395.222-.033.541-.049.853-.049z" fill="#1976D2"/>

    </g>
</svg>
