<svg xmlns="http://www.w3.org/2000/svg" xmlns:xlink="http://www.w3.org/1999/xlink" height="48" width="48">
    <defs>
        <linearGradient id="b">
            <stop offset="0" stop-color="#353535"/>
            <stop offset="1" stop-color="#303030"/>
        </linearGradient>
        <linearGradient id="a">
            <stop offset="0" stop-color="#fcfcfc"/>
            <stop offset=".523" stop-color="#aaa"/>
            <stop offset=".723" stop-color="#aaa"/>
            <stop offset=".89"  stop-color="#aaa"/>
            <stop offset="1" stop-color="#cecbcb"/>
        </linearGradient>
        <linearGradient xlink:href="#a" id="d" gradientUnits="userSpaceOnUse" gradientTransform="matrix(0 -.3078 .32866 0 1.285 38.969)" x1="86.738" y1="93.621" x2="95.182" y2="102.066"/>
        <linearGradient xlink:href="#b" id="c" x1="20" y1="14" x2="35" y2="54" gradientUnits="userSpaceOnUse" gradientTransform="matrix(.8142 0 0 .73587 -2.246 .216)"/>
    </defs>
    <path d="M7.118 44H40.5V15.301L29.102 5H7.117z" fill="url(#c)"/>
    <path d="M28.322 4.5H7.5v39h33V16.037" fill="none" stroke="#606060"/>
    <path d="M28.321 4.5c1.45 0 2.161.982 2.707 1.737 1.126 1.554 1.08 4.544 1.106 6.302 1.878.025 5.036-.05 6.695 1.003.807.513 1.671 1.61 1.671 2.495 0-.705-.355-1.442-1.248-2.307-2.874-2.78-5.24-5.282-8.216-7.808-.688-.585-1.261-1.422-2.715-1.422z" fill="url(#d)" stroke="#606060"/>
        <g transform="scale(2 2) translate(4 6)">
            <g fill="#F57C00">
        <path d="M7 2c-1.108 0-2 .892-2 2h3v1H4c-1.108 0-2 .892-2 2v2c0 1.108.892 2 2 2v-1c0-.889.39-1.676 1-2.225l.002-.002a3.02 3.02 0 0 1 .426-.32s.003 0 .004-.002c.149-.093.305-.172.47-.238.03-.012.062-.02.092-.03.14-.05.285-.096.434-.126.186-.036.377-.057.574-.057h4V4c0-1.108-.892-2-2-2zm0 .5a.499.499 0 1 1 0 1 .499.499 0 1 1 0-1zM12 8l-1.5 1.5.707.707.793-.793V13h-1v1h3v-1h-1V8z"/>
        <path d="M8 8a1.79 1.79 0 0 0-1.475.8C6.173 9.324 6 10.045 6 11c0 .956.173 1.677.525 2.2.353.521.917.8 1.475.8a1.79 1.79 0 0 0 1.475-.8c.352-.523.525-1.244.525-2.2 0-.956-.173-1.677-.525-2.2A1.79 1.79 0 0 0 8 8zm0 1c.27 0 .456.078.646.36.035.05.066.12.098.189l-1.73 1.73C7.009 11.186 7 11.102 7 11c0-.83.163-1.359.354-1.64.19-.282.375-.36.646-.36zm.986 1.72c.005.094.014.178.014.28 0 .83-.163 1.359-.354 1.64-.19.282-.375.36-.646.36-.27 0-.456-.078-.646-.36-.035-.05-.066-.12-.098-.189z"/>
    </g>

    </g>
</svg>
