<svg xmlns="http://www.w3.org/2000/svg" xmlns:xlink="http://www.w3.org/1999/xlink" height="48" width="48">
    <defs>
        <linearGradient id="b">
            <stop offset="0" stop-color="#353535"/>
            <stop offset="1" stop-color="#303030"/>
        </linearGradient>
        <linearGradient id="a">
            <stop offset="0" stop-color="#fcfcfc"/>
            <stop offset=".523" stop-color="#aaa"/>
            <stop offset=".723" stop-color="#aaa"/>
            <stop offset=".89"  stop-color="#aaa"/>
            <stop offset="1" stop-color="#cecbcb"/>
        </linearGradient>
        <linearGradient xlink:href="#a" id="d" gradientUnits="userSpaceOnUse" gradientTransform="matrix(0 -.3078 .32866 0 1.285 38.969)" x1="86.738" y1="93.621" x2="95.182" y2="102.066"/>
        <linearGradient xlink:href="#b" id="c" x1="20" y1="14" x2="35" y2="54" gradientUnits="userSpaceOnUse" gradientTransform="matrix(.8142 0 0 .73587 -2.246 .216)"/>
    </defs>
    <path d="M7.118 44H40.5V15.301L29.102 5H7.117z" fill="url(#c)"/>
    <path d="M28.322 4.5H7.5v39h33V16.037" fill="none" stroke="#606060"/>
    <path d="M28.321 4.5c1.45 0 2.161.982 2.707 1.737 1.126 1.554 1.08 4.544 1.106 6.302 1.878.025 5.036-.05 6.695 1.003.807.513 1.671 1.61 1.671 2.495 0-.705-.355-1.442-1.248-2.307-2.874-2.78-5.24-5.282-8.216-7.808-.688-.585-1.261-1.422-2.715-1.422z" fill="url(#d)" stroke="#606060"/>
        <g transform="scale(2 2) translate(4 6)">
            <path fill="#00796B" d="M3.897 10.662c-.128.23-.23.576-.23.794 0 .05 0 .115.013.204l-1.6-2.75a.713.713 0 0 1-.089-.333c0-.115.038-.256.09-.345l.767-1.344-.857-.486 2.79-.052 1.356 2.444-.87-.499-1.37 2.368m1.229-7.755a1.25 1.25 0 0 1 1.126-.653c.524 0 .934.244 1.228.742l.435.73-1.51 2.61-2.444-1.42 1.165-2.009m.178 9.968c-.729 0-1.33-.602-1.33-1.331 0-.205.09-.55.218-.768l.409-.73h3.033v2.829h-2.33M7.736 2.83a1.569 1.569 0 0 0-.755-.691h3.148c.282 0 .499.115.627.333l.78 1.33.845-.499-1.357 2.432-2.776-.039.857-.486-1.37-2.38m4.85 7.242c.384 0 .704-.103.972-.307l-1.587 2.763a.709.709 0 0 1-.626.346H9.846v.985l-1.432-2.393 1.432-2.393v.999h2.74m1.227-2.304c.116.205.18.422.18.653 0 .46-.295.947-.704 1.177a1.61 1.61 0 0 1-.73.167h-.844l-1.51-2.61L12.65 5.76l1.164 2.01"/>

    </g>
</svg>
