<svg xmlns="http://www.w3.org/2000/svg" xmlns:xlink="http://www.w3.org/1999/xlink" height="48" width="48">
    <defs>
        <linearGradient id="b">
            <stop offset="0" stop-color="#353535"/>
            <stop offset="1" stop-color="#303030"/>
        </linearGradient>
        <linearGradient id="a">
            <stop offset="0" stop-color="#fcfcfc"/>
            <stop offset=".523" stop-color="#aaa"/>
            <stop offset=".723" stop-color="#aaa"/>
            <stop offset=".89"  stop-color="#aaa"/>
            <stop offset="1" stop-color="#cecbcb"/>
        </linearGradient>
        <linearGradient xlink:href="#a" id="d" gradientUnits="userSpaceOnUse" gradientTransform="matrix(0 -.3078 .32866 0 1.285 38.969)" x1="86.738" y1="93.621" x2="95.182" y2="102.066"/>
        <linearGradient xlink:href="#b" id="c" x1="20" y1="14" x2="35" y2="54" gradientUnits="userSpaceOnUse" gradientTransform="matrix(.8142 0 0 .73587 -2.246 .216)"/>
    </defs>
    <path d="M7.118 44H40.5V15.301L29.102 5H7.117z" fill="url(#c)"/>
    <path d="M28.322 4.5H7.5v39h33V16.037" fill="none" stroke="#606060"/>
    <path d="M28.321 4.5c1.45 0 2.161.982 2.707 1.737 1.126 1.554 1.08 4.544 1.106 6.302 1.878.025 5.036-.05 6.695 1.003.807.513 1.671 1.61 1.671 2.495 0-.705-.355-1.442-1.248-2.307-2.874-2.78-5.24-5.282-8.216-7.808-.688-.585-1.261-1.422-2.715-1.422z" fill="url(#d)" stroke="#606060"/>
        <g transform="scale(2 2) translate(4 6)">
            <rect y="2.472" x="2.472" ry=".633" rx=".633" height="11.055" width="11.055" fill="none" stroke="#0288D1" stroke-width=".945" stroke-linecap="round" stroke-linejoin="round"/>
    <path style="marker:none" d="M7.1 3.21v1.8h-.956L8 7.11l1.856-2.1H8.9v-1.8zM7.672 7.41c-.052 0-.084.088-.084.197v.684a1.87 1.87 0 0 0-.582.244l-.487-.488c-.077-.076-.16-.111-.197-.075l-.46.46c-.036.036-.001.12.076.196l.487.488a1.87 1.87 0 0 0-.244.581h-.684c-.109 0-.197.033-.197.085v.656c0 .052.088.084.197.084h.684c.048.21.133.406.244.582l-.487.487c-.077.077-.112.16-.075.197l.459.46c.037.036.12.001.197-.076l.487-.487c.176.11.373.196.582.244v.684c0 .108.032.197.084.197h.656c.052 0 .085-.089.085-.197v-.684a1.87 1.87 0 0 0 .58-.244l.488.487c.077.077.16.112.197.075l.46-.46c.036-.036.001-.12-.075-.196l-.488-.487a1.87 1.87 0 0 0 .244-.582h.684c.109 0 .197-.032.197-.084v-.656c0-.052-.088-.085-.197-.085H9.82a1.87 1.87 0 0 0-.244-.581l.487-.488c.077-.076.112-.16.075-.196l-.459-.46c-.037-.036-.12-.001-.197.075l-.487.488a1.87 1.87 0 0 0-.582-.244v-.684c0-.109-.032-.197-.084-.197zM8 9.275c.459 0 .834.376.834.835a.837.837 0 0 1-.834.834.837.837 0 0 1-.834-.834c0-.459.375-.835.834-.835z" overflow="visible" fill="#0288D1"/>

    </g>
</svg>
