<svg xmlns="http://www.w3.org/2000/svg" xmlns:xlink="http://www.w3.org/1999/xlink" height="48" width="48">
    <defs>
        <linearGradient id="b">
            <stop offset="0" stop-color="#353535"/>
            <stop offset="1" stop-color="#303030"/>
        </linearGradient>
        <linearGradient id="a">
            <stop offset="0" stop-color="#fcfcfc"/>
            <stop offset=".523" stop-color="#aaa"/>
            <stop offset=".723" stop-color="#aaa"/>
            <stop offset=".89"  stop-color="#aaa"/>
            <stop offset="1" stop-color="#cecbcb"/>
        </linearGradient>
        <linearGradient xlink:href="#a" id="d" gradientUnits="userSpaceOnUse" gradientTransform="matrix(0 -.3078 .32866 0 1.285 38.969)" x1="86.738" y1="93.621" x2="95.182" y2="102.066"/>
        <linearGradient xlink:href="#b" id="c" x1="20" y1="14" x2="35" y2="54" gradientUnits="userSpaceOnUse" gradientTransform="matrix(.8142 0 0 .73587 -2.246 .216)"/>
    </defs>
    <path d="M7.118 44H40.5V15.301L29.102 5H7.117z" fill="url(#c)"/>
    <path d="M28.322 4.5H7.5v39h33V16.037" fill="none" stroke="#606060"/>
    <path d="M28.321 4.5c1.45 0 2.161.982 2.707 1.737 1.126 1.554 1.08 4.544 1.106 6.302 1.878.025 5.036-.05 6.695 1.003.807.513 1.671 1.61 1.671 2.495 0-.705-.355-1.442-1.248-2.307-2.874-2.78-5.24-5.282-8.216-7.808-.688-.585-1.261-1.422-2.715-1.422z" fill="url(#d)" stroke="#606060"/>
        <g transform="scale(2 2) translate(4 6)">
            <path d="M6.977 2v1.125c-.882.078-1.578.291-2.093.688-.568.432-.85 1.072-.85 1.906 0 1.165.73 1.921 2.224 2.281l.72.188v3.688c-.929-.079-1.799-.273-2.617-.656l-.36.906c.333.195.787.379 1.341.531.487.129 1.035.186 1.636.219v1.125h1.047v-1.125c.89-.068 1.605-.327 2.126-.781.559-.483.85-1.183.85-2.094 0-.737-.209-1.289-.621-1.687-.412-.403-1.033-.693-1.832-.875l-.523-.125v-3.25c.404.029.824.083 1.21.188.444.114.776.262 1.047.406l.327-.906c-.67-.399-1.529-.637-2.584-.688V2.001H7.24zm-.229 2.094c.069-.011.156.008.229 0v2.969L6.683 7c-.492-.114-.864-.284-1.112-.5-.244-.22-.36-.515-.36-.875 0-.856.505-1.366 1.537-1.531m1.276 4.313l.196.063c.603.144 1.017.34 1.243.594.231.25.327.593.327 1 0 1.133-.589 1.735-1.766 1.844z"/>

    </g>
</svg>
