<svg xmlns="http://www.w3.org/2000/svg" xmlns:xlink="http://www.w3.org/1999/xlink" height="48" width="48">
    <defs>
        <linearGradient id="b">
            <stop offset="0" stop-color="#353535"/>
            <stop offset="1" stop-color="#303030"/>
        </linearGradient>
        <linearGradient id="a">
            <stop offset="0" stop-color="#fcfcfc"/>
            <stop offset=".523" stop-color="#aaa"/>
            <stop offset=".723" stop-color="#aaa"/>
            <stop offset=".89"  stop-color="#aaa"/>
            <stop offset="1" stop-color="#cecbcb"/>
        </linearGradient>
        <linearGradient xlink:href="#a" id="d" gradientUnits="userSpaceOnUse" gradientTransform="matrix(0 -.3078 .32866 0 1.285 38.969)" x1="86.738" y1="93.621" x2="95.182" y2="102.066"/>
        <linearGradient xlink:href="#b" id="c" x1="20" y1="14" x2="35" y2="54" gradientUnits="userSpaceOnUse" gradientTransform="matrix(.8142 0 0 .73587 -2.246 .216)"/>
    </defs>
    <path d="M7.118 44H40.5V15.301L29.102 5H7.117z" fill="url(#c)"/>
    <path d="M28.322 4.5H7.5v39h33V16.037" fill="none" stroke="#606060"/>
    <path d="M28.321 4.5c1.45 0 2.161.982 2.707 1.737 1.126 1.554 1.08 4.544 1.106 6.302 1.878.025 5.036-.05 6.695 1.003.807.513 1.671 1.61 1.671 2.495 0-.705-.355-1.442-1.248-2.307-2.874-2.78-5.24-5.282-8.216-7.808-.688-.585-1.261-1.422-2.715-1.422z" fill="url(#d)" stroke="#606060"/>
        <g transform="scale(2 2) translate(4 6)">
            <path fill="#00796B" d="M2.093 1.66c-.03 0-.053 0-.068.018-.479.479 6.067 6.488 6.067 6.488l2.453 2.334c-.791 1.845 1.688 1.875 2.223 2.811.235.41-.051.967-.478.996.849.28 1.992-1.35 1.648-2.27-.41-1.099-.826-1.575-1.606-1.909-.322-.138-1.141-.149-1.427.012L8.632 7.627S3.023 1.74 2.094 1.659m1.034 5.834c-.217.001-.284.315-.284.745.041.85.579 3.33 3.25 5.137 2.249 1.522 6.365.972 6.298.108-.905-1.124-2.419-.423-2.439-3.114-.88.01-1.828-.131-1.793.24.148 1.552-2.313.433-3.267-1.15-.958-1.451-1.486-1.966-1.765-1.965m3.507 1.915c-.146 0-.263.048-.319.144-.111.192.069.505.403.698.334.193.695.193.806.001.111-.192-.07-.505-.404-.697-.167-.096-.486.001-.486-.145"/>

    </g>
</svg>
