<svg xmlns="http://www.w3.org/2000/svg" xmlns:xlink="http://www.w3.org/1999/xlink" height="48" width="48">
    <defs>
        <linearGradient id="b">
            <stop offset="0" stop-color="#353535"/>
            <stop offset="1" stop-color="#303030"/>
        </linearGradient>
        <linearGradient id="a">
            <stop offset="0" stop-color="#fcfcfc"/>
            <stop offset=".523" stop-color="#aaa"/>
            <stop offset=".723" stop-color="#aaa"/>
            <stop offset=".89"  stop-color="#aaa"/>
            <stop offset="1" stop-color="#cecbcb"/>
        </linearGradient>
        <linearGradient xlink:href="#a" id="d" gradientUnits="userSpaceOnUse" gradientTransform="matrix(0 -.3078 .32866 0 1.285 38.969)" x1="86.738" y1="93.621" x2="95.182" y2="102.066"/>
        <linearGradient xlink:href="#b" id="c" x1="20" y1="14" x2="35" y2="54" gradientUnits="userSpaceOnUse" gradientTransform="matrix(.8142 0 0 .73587 -2.246 .216)"/>
    </defs>
    <path d="M7.118 44H40.5V15.301L29.102 5H7.117z" fill="url(#c)"/>
    <path d="M28.322 4.5H7.5v39h33V16.037" fill="none" stroke="#606060"/>
    <path d="M28.321 4.5c1.45 0 2.161.982 2.707 1.737 1.126 1.554 1.08 4.544 1.106 6.302 1.878.025 5.036-.05 6.695 1.003.807.513 1.671 1.61 1.671 2.495 0-.705-.355-1.442-1.248-2.307-2.874-2.78-5.24-5.282-8.216-7.808-.688-.585-1.261-1.422-2.715-1.422z" fill="url(#d)" stroke="#606060"/>
        <g transform="scale(2 2) translate(4 6)">
            <path fill="#F57C00" color="#00796B" d="M2 2v2c5.523 0 10 4.477 10 10h2v-.063c0-.391-.026-.775-.063-1.156-.002-.021.002-.042 0-.063a11.888 11.888 0 0 0-.188-1.125c-.004-.02.004-.043 0-.063a11.755 11.755 0 0 0-1.188-3.25c-.004-.008.004-.024 0-.031a11.94 11.94 0 0 0-8.094-6c-.02-.004-.043.004-.063 0a11.942 11.942 0 0 0-1.125-.188c-.021-.002-.042.002-.063 0-.383-.039-.764-.06-1.156-.063h-.063m0 4v2a6 6 0 0 1 6 6h2a8 8 0 0 0-8-8m2 4a2 2 0 1 0-.001 3.999 2 2 0 0 0 .001-3.999"/>

    </g>
</svg>
