<svg xmlns="http://www.w3.org/2000/svg" xmlns:xlink="http://www.w3.org/1999/xlink" height="48" width="48">
    <defs>
        <linearGradient id="b">
            <stop offset="0" stop-color="#353535"/>
            <stop offset="1" stop-color="#303030"/>
        </linearGradient>
        <linearGradient id="a">
            <stop offset="0" stop-color="#fcfcfc"/>
            <stop offset=".523" stop-color="#aaa"/>
            <stop offset=".723" stop-color="#aaa"/>
            <stop offset=".89"  stop-color="#aaa"/>
            <stop offset="1" stop-color="#cecbcb"/>
        </linearGradient>
        <linearGradient xlink:href="#a" id="d" gradientUnits="userSpaceOnUse" gradientTransform="matrix(0 -.3078 .32866 0 1.285 38.969)" x1="86.738" y1="93.621" x2="95.182" y2="102.066"/>
        <linearGradient xlink:href="#b" id="c" x1="20" y1="14" x2="35" y2="54" gradientUnits="userSpaceOnUse" gradientTransform="matrix(.8142 0 0 .73587 -2.246 .216)"/>
    </defs>
    <path d="M7.118 44H40.5V15.301L29.102 5H7.117z" fill="url(#c)"/>
    <path d="M28.322 4.5H7.5v39h33V16.037" fill="none" stroke="#606060"/>
    <path d="M28.321 4.5c1.45 0 2.161.982 2.707 1.737 1.126 1.554 1.08 4.544 1.106 6.302 1.878.025 5.036-.05 6.695 1.003.807.513 1.671 1.61 1.671 2.495 0-.705-.355-1.442-1.248-2.307-2.874-2.78-5.24-5.282-8.216-7.808-.688-.585-1.261-1.422-2.715-1.422z" fill="url(#d)" stroke="#606060"/>
        <g transform="scale(2 2) translate(4 6)">
            <path fill="#00796B" color="#00796B" d="M5 2.002a3 3 0 0 0-3 3 3 3 0 0 0 3 3 3 3 0 0 0 3-3 3 3 0 0 0-3-3m3 3a3 3 0 0 0 3 3 3 3 0 0 0 3-3 3 3 0 0 0-3-3 3 3 0 0 0-3 3m-3-2a2 2 0 0 1 2 2 2 2 0 0 1-2 2 2 2 0 0 1-1.371-.549 1.5 1.5 0 0 0 .371.05 1.5 1.5 0 0 0 1.5-1.5 1.5 1.5 0 0 0-1.5-1.5 1.5 1.5 0 0 0-.375.048A2 2 0 0 1 5 3.003m6 0a2 2 0 0 1 2 2 2 2 0 0 1-2 2 2 2 0 0 1-1.371-.55 1.5 1.5 0 0 0 .371.05 1.5 1.5 0 0 0 1.5-1.5 1.5 1.5 0 0 0-1.5-1.5 1.5 1.5 0 0 0-.375.048A2 2 0 0 1 11 3.003m1.08 6.152c-.935.53-2.457.847-4.08.848-1.394-.001-2.725-.234-3.67-.645l-.629.734c.384.198.83.354 1.299.49v1.42a2 2 0 0 0 2 2 2 2 0 0 0 1.5-.68 2 2 0 0 0 1.5.68 2 2 0 0 0 2-2v-1.773c.272-.122.528-.253.754-.4zM11 10.58v1.424a1 1 0 0 1-1 1 1 1 0 0 1-1-1v-1.059a10.304 10.304 0 0 0 2-.365m-5 .238c.638.114 1.309.185 2 .186v1a1 1 0 0 1-1 1 1 1 0 0 1-1-1z"/>

    </g>
</svg>
