<svg xmlns="http://www.w3.org/2000/svg" xmlns:xlink="http://www.w3.org/1999/xlink" height="48" width="48">
    <defs>
        <linearGradient id="b">
            <stop offset="0" stop-color="#353535"/>
            <stop offset="1" stop-color="#303030"/>
        </linearGradient>
        <linearGradient id="a">
            <stop offset="0" stop-color="#fcfcfc"/>
            <stop offset=".523" stop-color="#aaa"/>
            <stop offset=".723" stop-color="#aaa"/>
            <stop offset=".89"  stop-color="#aaa"/>
            <stop offset="1" stop-color="#cecbcb"/>
        </linearGradient>
        <linearGradient xlink:href="#a" id="d" gradientUnits="userSpaceOnUse" gradientTransform="matrix(0 -.3078 .32866 0 1.285 38.969)" x1="86.738" y1="93.621" x2="95.182" y2="102.066"/>
        <linearGradient xlink:href="#b" id="c" x1="20" y1="14" x2="35" y2="54" gradientUnits="userSpaceOnUse" gradientTransform="matrix(.8142 0 0 .73587 -2.246 .216)"/>
    </defs>
    <path d="M7.118 44H40.5V15.301L29.102 5H7.117z" fill="url(#c)"/>
    <path d="M28.322 4.5H7.5v39h33V16.037" fill="none" stroke="#606060"/>
    <path d="M28.321 4.5c1.45 0 2.161.982 2.707 1.737 1.126 1.554 1.08 4.544 1.106 6.302 1.878.025 5.036-.05 6.695 1.003.807.513 1.671 1.61 1.671 2.495 0-.705-.355-1.442-1.248-2.307-2.874-2.78-5.24-5.282-8.216-7.808-.688-.585-1.261-1.422-2.715-1.422z" fill="url(#d)" stroke="#606060"/>
        <g transform="scale(2 2) translate(4 6)">
            <defs>
        <linearGradient id="c" x1="13.945" x2="1.994" gradientUnits="userSpaceOnUse">
            <stop stop-color="#388E3C"/>
            <stop offset="1" stop-color="#388E3C"/>
        </linearGradient>
        <linearGradient id="b" y1="1.991" x1="7.97" y2="13.942" x2="1.994" gradientUnits="userSpaceOnUse">
            <stop stop-color="#1976D2"/>
            <stop offset="1" stop-color="#0288D1"/>
        </linearGradient>
        <linearGradient id="a" y1="13.942" x1="13.945" y2="1.991" x2="7.97" gradientUnits="userSpaceOnUse">
            <stop stop-color="#C2185B"/>
            <stop offset="1" stop-color="#C2185B"/>
        </linearGradient>
    </defs>
    <g fill-rule="evenodd">
        <path fill="url(#a)" d="M7.97 1.991l.878 9.948 5.098 2z"/>
        <path fill="url(#b)" d="M7.97 1.991L1.995 13.942l6.512-5.876z"/>
        <path fill="url(#c)" d="M5.619 10.671l-3.624 3.27h11.95zm-3.614 3.25l-.022.02h.012z"/>
    </g>

    </g>
</svg>
