<svg xmlns="http://www.w3.org/2000/svg" xmlns:xlink="http://www.w3.org/1999/xlink" height="48" width="48">
    <defs>
        <linearGradient id="b">
            <stop offset="0" stop-color="#353535"/>
            <stop offset="1" stop-color="#303030"/>
        </linearGradient>
        <linearGradient id="a">
            <stop offset="0" stop-color="#fcfcfc"/>
            <stop offset=".523" stop-color="#aaa"/>
            <stop offset=".723" stop-color="#aaa"/>
            <stop offset=".89"  stop-color="#aaa"/>
            <stop offset="1" stop-color="#cecbcb"/>
        </linearGradient>
        <linearGradient xlink:href="#a" id="d" gradientUnits="userSpaceOnUse" gradientTransform="matrix(0 -.3078 .32866 0 1.285 38.969)" x1="86.738" y1="93.621" x2="95.182" y2="102.066"/>
        <linearGradient xlink:href="#b" id="c" x1="20" y1="14" x2="35" y2="54" gradientUnits="userSpaceOnUse" gradientTransform="matrix(.8142 0 0 .73587 -2.246 .216)"/>
    </defs>
    <path d="M7.118 44H40.5V15.301L29.102 5H7.117z" fill="url(#c)"/>
    <path d="M28.322 4.5H7.5v39h33V16.037" fill="none" stroke="#606060"/>
    <path d="M28.321 4.5c1.45 0 2.161.982 2.707 1.737 1.126 1.554 1.08 4.544 1.106 6.302 1.878.025 5.036-.05 6.695 1.003.807.513 1.671 1.61 1.671 2.495 0-.705-.355-1.442-1.248-2.307-2.874-2.78-5.24-5.282-8.216-7.808-.688-.585-1.261-1.422-2.715-1.422z" fill="url(#d)" stroke="#606060"/>
        <g transform="scale(2 2) translate(4 6)">
            <path fill="#1976D2" d="M2 3v2.22h2v5.554H2v2.21c2.112.009 3.879.011 6 .011v-2.221H6V9.072l2.488.019c.164.001.875.053 1.102 1.092.071.319.228 1.357.334 1.691.107.373.54 1.122 1 1.122.992-.008 2.151.004 3.073.004v-2.651a.96.96 0 0 1-.445.159c-.362.047-.763-.173-.812-.425-.213-1.371-.569-1.664-1.13-2.169.697-.505 1.422-1.251 1.422-2.249 0-1.077-.647-1.757-1.088-2.089-.619-.465-1.303-.57-1.488-.57-2.828.016-5.662 0-8.459 0zm4 2.22h3c.121 0 1 .303 1 .929 0 .52-.672.801-1.134.801L6 6.931z"/>

    </g>
</svg>
