<svg xmlns="http://www.w3.org/2000/svg" xmlns:xlink="http://www.w3.org/1999/xlink" height="48" width="48">
    <defs>
        <linearGradient id="b">
            <stop offset="0" stop-color="#353535"/>
            <stop offset="1" stop-color="#303030"/>
        </linearGradient>
        <linearGradient id="a">
            <stop offset="0" stop-color="#fcfcfc"/>
            <stop offset=".523" stop-color="#aaa"/>
            <stop offset=".723" stop-color="#aaa"/>
            <stop offset=".89"  stop-color="#aaa"/>
            <stop offset="1" stop-color="#cecbcb"/>
        </linearGradient>
        <linearGradient xlink:href="#a" id="d" gradientUnits="userSpaceOnUse" gradientTransform="matrix(0 -.3078 .32866 0 1.285 38.969)" x1="86.738" y1="93.621" x2="95.182" y2="102.066"/>
        <linearGradient xlink:href="#b" id="c" x1="20" y1="14" x2="35" y2="54" gradientUnits="userSpaceOnUse" gradientTransform="matrix(.8142 0 0 .73587 -2.246 .216)"/>
    </defs>
    <path d="M7.118 44H40.5V15.301L29.102 5H7.117z" fill="url(#c)"/>
    <path d="M28.322 4.5H7.5v39h33V16.037" fill="none" stroke="#606060"/>
    <path d="M28.321 4.5c1.45 0 2.161.982 2.707 1.737 1.126 1.554 1.08 4.544 1.106 6.302 1.878.025 5.036-.05 6.695 1.003.807.513 1.671 1.61 1.671 2.495 0-.705-.355-1.442-1.248-2.307-2.874-2.78-5.24-5.282-8.216-7.808-.688-.585-1.261-1.422-2.715-1.422z" fill="url(#d)" stroke="#606060"/>
        <g transform="scale(2 2) translate(4 6)">
            <path fill="#0288D1" d="M6.5 2A2.495 2.495 0 0 0 4 4.5C4 5.885 5.115 7 6.5 7S9 5.885 9 4.5 7.885 2 6.5 2m0 1C7.331 3 8 3.669 8 4.5S7.331 6 6.5 6 5 5.331 5 4.5 5.669 3 6.5 3M12 4c-1.108 0-2 .892-2 2s.892 2 2 2 2-.892 2-2-.892-2-2-2m0 1c.554 0 1 .446 1 1s-.446 1-1 1-1-.446-1-1 .446-1 1-1M6.5 8C4.007 8 2 10.01 2 12.5V14h9v-1.5C11 10.007 8.99 8 6.5 8m0 1c1.939 0 3.5 1.561 3.5 3.5v.5H3v-.5C3 10.561 4.561 9 6.5 9M12 9c-.555 0-1.067.16-1.512.42.243.237.465.495.656.777A1.996 1.996 0 0 1 13.999 12h-2.1c.065.323.1.657.1 1h3v-1c0-1.662-1.338-3-3-3"/>

    </g>
</svg>
