<svg xmlns="http://www.w3.org/2000/svg" xmlns:xlink="http://www.w3.org/1999/xlink" height="48" width="48">
    <defs>
        <linearGradient id="b">
            <stop offset="0" stop-color="#353535"/>
            <stop offset="1" stop-color="#303030"/>
        </linearGradient>
        <linearGradient id="a">
            <stop offset="0" stop-color="#fcfcfc"/>
            <stop offset=".523" stop-color="#aaa"/>
            <stop offset=".723" stop-color="#aaa"/>
            <stop offset=".89"  stop-color="#aaa"/>
            <stop offset="1" stop-color="#cecbcb"/>
        </linearGradient>
        <linearGradient xlink:href="#a" id="d" gradientUnits="userSpaceOnUse" gradientTransform="matrix(0 -.3078 .32866 0 1.285 38.969)" x1="86.738" y1="93.621" x2="95.182" y2="102.066"/>
        <linearGradient xlink:href="#b" id="c" x1="20" y1="14" x2="35" y2="54" gradientUnits="userSpaceOnUse" gradientTransform="matrix(.8142 0 0 .73587 -2.246 .216)"/>
    </defs>
    <path d="M7.118 44H40.5V15.301L29.102 5H7.117z" fill="url(#c)"/>
    <path d="M28.322 4.5H7.5v39h33V16.037" fill="none" stroke="#606060"/>
    <path d="M28.321 4.5c1.45 0 2.161.982 2.707 1.737 1.126 1.554 1.08 4.544 1.106 6.302 1.878.025 5.036-.05 6.695 1.003.807.513 1.671 1.61 1.671 2.495 0-.705-.355-1.442-1.248-2.307-2.874-2.78-5.24-5.282-8.216-7.808-.688-.585-1.261-1.422-2.715-1.422z" fill="url(#d)" stroke="#606060"/>
        <g transform="scale(2 2) translate(4 6)">
            <path fill="#C2185B" d="M3.856 2c-.162.01-.336 0-.527.132-1.704.732-.561 2.741 1.611 4.271.013-.288.133-.916.13-1.192-1.853-1.269-2.937-2.504-1.756-2.994 1.245-.516 1.631.893 1.653 2.938.116.12.92.653 1.042.737-.045-1.865-1.038-3.769-1.992-3.877-.051-.01-.107-.01-.161-.01M5.591 5.25l-.388-.151-.321.216-.065.681.406.311.169.226c1.25.828 2.315 1.466 3.716 1.993l.874.13h.575c.53-.312.214-.432 2.14-.672l-2.17.168c-1.674-.648-3.382-1.579-4.936-2.595m3.82 2.715c.251 0 2.209-.17 2.988-.242.771-.12 1.718-.156 1.539.744.204-.48-.261-1.295-.922-1.439-1.022-.228-2.644.397-3.227.59m.94.249c-.304.12-.999.207-1.327.315.465.24 2.8 1.101 3.764.921.154 0 .805-.468.821-.804-.05.612-2.904.156-3.258-.444m.635.011c-.25-.12-1.421-.114-1.68-.21-1.467.512-3.439 1.715-4.851 2.527l-.409.12c-.079.56-.425.753-.74 1.116l.478.48.374-.612c1.653-.996 4.921-2.606 6.827-3.379m-6.827 3.379c-.202.12-.395.24-.578.36-.424 1.202-.918 2.01-1.39 1.976.729.348 2.299-1.367 2.828-2.981M2.568 13.93c-1.112-.66 1.242-1.863 1.769-2.213.119-.336-.206-.893-.1-1.289-1.66 1.032-2.642 2.526-2.085 3.234.134.168.276.252.417.264m1.616-2.515c.077-.309 1.103-1.013 1.288-1.121.248-1.95.26-2.143.471-3.659-.126-.12-.902-.724-1.022-.808-.149 1.62-.429 3.816-.825 5.283"/>

    </g>
</svg>
