<svg width="64" height="64" version="1.1" viewBox="0 0 64 64" xmlns="http://www.w3.org/2000/svg" xmlns:xlink="http://www.w3.org/1999/xlink">
<defs>
<filter id="stack-download-a" x="-22.2%" y="-29.2%" width="144.4%" height="160.4%">
<feOffset dy="2" in="SourceAlpha" result="shadowOffsetOuter1"/>
<feGaussianBlur in="shadowOffsetOuter1" result="shadowBlurOuter1" stdDeviation="2"/>
<feColorMatrix in="shadowBlurOuter1" result="shadowMatrixOuter1" values="0 0 0 0 0   0 0 0 0 0   0 0 0 0 0  0 0 0 0.5 0"/>
<feMerge>
<feMergeNode in="shadowMatrixOuter1"/>
<feMergeNode in="SourceGraphic"/>
</feMerge>
</filter>
<linearGradient id="stack-download-d" x1="50%" x2="50%" y2="98.094%">
<stop stop-color="#14BBAC" offset="0"/>
<stop stop-color="#BEBEBE" offset="1"/>
</linearGradient>
<path id="stack-download-c" d="m46.509 9.9342e-9c0.8236 0 1.4964 0.66823 1.5027 1.5027l0.32186 42.151c0 0.74355-0.6069 1.3463-1.3339 1.3463h-39.999c-0.73669 0-1.3339-0.59004-1.3339-1.3463l0.32127-40.147c0.0066608-0.83234 0.67948-1.5071 1.5022-1.5071h25.018c0.27155 0 0.64862-0.15694 0.84006-0.34837l1.3033-1.3033c0.1924-0.1924 0.57401-0.34837 0.84211-0.34837h11.015z"/>
<filter id="stack-download-b" x="-16.4%" y="-11.1%" width="132.8%" height="131.1%">
<feOffset dy="2" in="SourceAlpha" result="shadowOffsetOuter1"/>
<feGaussianBlur in="shadowOffsetOuter1" result="shadowBlurOuter1" stdDeviation="2"/>
<feColorMatrix in="shadowBlurOuter1" values="0 0 0 0 0   0 0 0 0 0   0 0 0 0 0  0 0 0 0.5 0"/>
</filter>
<linearGradient id="stack-download-e" x1="50%" x2="50%" y2="98.094%">
<stop stop-color="#069AA6" offset="0"/>
<stop stop-color="#BEBEBE" offset="1"/>
</linearGradient>
<linearGradient id="stack-download-g" x1="50%" x2="50%" y2="92.487%">
<stop stop-color="#16C2AC" offset="0"/>
<stop stop-color="#0A9AB1" offset="1"/>
</linearGradient>
<path id="stack-download-f" d="m1.5006 48c-0.82877 0-1.5006-0.67749-1.5006-1.495l8.6674e-10 -37.01c1.9337e-11 -0.82569 0.66328-1.495 1.5006-1.495h50.999c0.82877 0 1.5006 0.67749 1.5006 1.495v37.01c0 0.82569-0.66328 1.495-1.5006 1.495h-50.999z"/>
<radialGradient id="stack-download-i" r="55%" fx="50%" fy="50%" gradientTransform="matrix(0 .9091 -1 0 1 .045)">
<stop stop-color="#FFF" stop-opacity=".217" offset="0"/>
<stop stop-color="#E9E9E9" stop-opacity=".745" offset="1"/>
</radialGradient>
<linearGradient id="stack-download-j" x1="50%" x2="50%" y2="100%">
<stop stop-color="#FFF" stop-opacity=".418" offset="0"/>
<stop stop-color="#FFF" stop-opacity=".329" offset="1"/>
</linearGradient>
</defs>
<g transform="translate(5 11)" fill="none" fill-rule="evenodd" filter="url(#stack-download-a)">
<use fill="#000" filter="url(#stack-download-b)" xlink:href="#stack-download-c"/>
<use fill="url(#stack-download-d)" xlink:href="#stack-download-c"/>
<path d="m46.492 1c0.83273 0 1.513 0.66999 1.5195 1.4931l0.32167 41.161c0 0.74355-0.6069 1.3463-1.3339 1.3463h-39.999c-0.73669 0-1.3339-0.59004-1.3339-1.3463l0.32107-39.159c0.0067704-0.82572 0.69204-1.4951 1.5103-1.4951l25.501-3e-8c0.27658 0 0.65773-0.15694 0.84916-0.34837l1.3033-1.3033c0.1924-0.1924 0.56533-0.34837 0.85387-0.34837h10.487z" fill="url(#stack-download-e)"/>
<path d="m3 45.005-1e-8 -38.51c0-0.82579 0.67854-1.4952 1.5025-1.4952h44.995c0.82979 0 1.5025 0.67757 1.5025 1.4952v38.51c0 0.73367-0.6069 1.3284-1.3339 1.3284h-45.332c-0.73669 0-1.3339-0.5843-1.3339-1.3284z" fill="#FFF"/>
<path d="m3 45.005-1e-8 -37.5c0-0.83127 0.67854-1.5051 1.5025-1.5051h44.995c0.82979 0 1.5025 0.677 1.5025 1.5051v37.5c0 0.73367-0.6069 1.3284-1.3339 1.3284h-45.332c-0.73669 0-1.3339-0.5843-1.3339-1.3284z" fill="#F1F1F1"/>
<mask id="stack-download-h" fill="#fff">
<use xlink:href="#stack-download-f"/>
</mask>
<use fill="url(#stack-download-g)" xlink:href="#stack-download-f"/>
<g mask="url(#stack-download-h)">
<g transform="translate(0 8)">
<path d="m3.5527e-15 37.505c-1.9146e-11 0.81755 0.67185 1.495 1.5006 1.495h50.999c0.83735 0 1.5006-0.66935 1.5006-1.495v1c0 0.82569-0.66328 1.495-1.5006 1.495h-50.999c-0.82877 0-1.5006-0.67749-1.5006-1.495l2.3419e-11 -1z" fill="#000" fill-opacity=".3"/>
<path d="m8.4343e-10 2.495 2.3419e-11 -1c1.9337e-11 -0.82569 0.66328-1.495 1.5006-1.495h50.999c0.82877 0 1.5006 0.67749 1.5006 1.495v1c0-0.81755-0.67185-1.495-1.5006-1.495h-50.999c-0.83735 0-1.5006 0.66935-1.5006 1.495z" fill="#FFF" fill-opacity=".3"/>
<path d="m2.5006 0c-0.83735 0-1.5006 0.66935-1.5006 1.495v37.01c0 0.81755 0.67185 1.495 1.5006 1.495h-1c-0.82877 0-1.5006-0.67749-1.5006-1.495l8.6674e-10 -37.01c1.9337e-11 -0.82569 0.66328-1.495 1.5006-1.495h1zm48.999 3.5527e-15h1c0.82877 0 1.5006 0.67749 1.5006 1.495v37.01c0 0.82569-0.66328 1.495-1.5006 1.495h-1c0.83735 0 1.5006-0.66935 1.5006-1.495v-37.01c0-0.81755-0.67185-1.495-1.5006-1.495z" fill="#FFF" fill-opacity=".06"/>
</g>
</g>
<g mask="url(#stack-download-h)">
<g transform="translate(9 19)">
<path d="m5.6176 18.5c2.3054 0 4.5-2.8009 4.5-5.5 0-2.4853-2.0147-4.5-4.5-4.5s-4.5 2.0147-4.5 4.5c0 2.6991 2.1946 5.5 4.5 5.5z" fill="url(#stack-download-i)" stroke="#FFF" stroke-opacity=".2"/>
<g fill="#FFF">
<circle cx="4" cy="12" r="1"/>
<circle cx="15" cy="4" r="1"/>
<circle cx="27" cy="10" r="1"/>
</g>
<path d="m16 10.5c2.3054 0 4.5-2.8009 4.5-5.5 0-2.4853-2.0147-4.5-4.5-4.5s-4.5 2.0147-4.5 4.5c0 2.6991 2.1946 5.5 4.5 5.5zm13 6c2.3054 0 4.5-2.8009 4.5-5.5 0-2.4853-2.0147-4.5-4.5-4.5s-4.5 2.0147-4.5 4.5c0 2.6991 2.1946 5.5 4.5 5.5z" fill="url(#stack-download-i)" stroke="#FFF" stroke-opacity=".2"/>
<path d="m16 12c0 7.8569 0.25107 11.966 0.6176 16.654m13.382-10.654c0 5.8622-1.0613 5.3196-0.99721 8.8169" stroke="url(#stack-download-j)" stroke-linecap="round"/>
<path transform="matrix(-1 0 0 1 13 0)" d="m8 20c0 4.5325-3.1838 4.113-2.9916 6.8169" stroke="url(#stack-download-j)" stroke-linecap="round"/>
</g>
</g>
</g>
</svg>
