<svg width="64" height="64" version="1.1" viewBox="0 0 64 64" xmlns="http://www.w3.org/2000/svg" xmlns:xlink="http://www.w3.org/1999/xlink">
<defs>
<filter id="stack-music-a" x="-22.2%" y="-25%" width="144.4%" height="150%">
<feOffset dy="2" in="SourceAlpha" result="shadowOffsetOuter1"/>
<feGaussianBlur in="shadowOffsetOuter1" result="shadowBlurOuter1" stdDeviation="2"/>
<feColorMatrix in="shadowBlurOuter1" result="shadowMatrixOuter1" values="0 0 0 0 0   0 0 0 0 0   0 0 0 0 0  0 0 0 0.5 0"/>
<feMerge>
<feMergeNode in="shadowMatrixOuter1"/>
<feMergeNode in="SourceGraphic"/>
</feMerge>
</filter>
<linearGradient id="stack-music-c" x1="50%" x2="50%" y2="95.786%">
<stop stop-color="#F87136" offset="0"/>
<stop stop-color="#D22E18" offset="1"/>
</linearGradient>
<path id="stack-music-b" d="m1.5006 48c-0.82877 0-1.5006-0.67749-1.5006-1.495l8.6674e-10 -37.01c1.9337e-11 -0.82569 0.66328-1.495 1.5006-1.495h50.999c0.82877 0 1.5006 0.67749 1.5006 1.495v37.01c0 0.82569-0.66328 1.495-1.5006 1.495h-50.999z"/>
<linearGradient id="stack-music-g" x1="50%" x2="50%" y2="97.774%">
<stop stop-color="#343434" offset="0"/>
<stop stop-color="#240B0B" offset="1"/>
</linearGradient>
<linearGradient id="stack-music-h" x1="50%" x2="50%" y2="100%">
<stop stop-color="#151515" offset="0"/>
<stop offset="1"/>
</linearGradient>
<circle id="stack-music-e" cx="17" cy="17" r="17"/>
<filter id="stack-music-f" x="-19.1%" y="-13.2%" width="138.2%" height="138.2%">
<feMorphology in="SourceAlpha" operator="dilate" radius="1" result="shadowSpreadOuter1"/>
<feOffset dy="2" in="shadowSpreadOuter1" result="shadowOffsetOuter1"/>
<feGaussianBlur in="shadowOffsetOuter1" result="shadowBlurOuter1" stdDeviation="1.5"/>
<feComposite in="shadowBlurOuter1" in2="SourceAlpha" operator="out" result="shadowBlurOuter1"/>
<feColorMatrix in="shadowBlurOuter1" values="0 0 0 0 0   0 0 0 0 0   0 0 0 0 0  0 0 0 0.5 0"/>
</filter>
<filter id="stack-music-j" x="-52.9%" y="-18.6%" width="205.9%" height="137.2%">
<feGaussianBlur in="SourceGraphic" stdDeviation="2"/>
</filter>
<filter id="stack-music-k" x="-52.9%" y="-18.6%" width="205.9%" height="137.2%">
<feGaussianBlur in="SourceGraphic" stdDeviation="2"/>
</filter>
<linearGradient id="stack-music-l" x1="50%" x2="50%" y2="100%">
<stop stop-color="#E91F95" offset="0"/>
<stop stop-color="#930DCE" offset="1"/>
</linearGradient>
</defs>
<g transform="translate(5 11)" fill="none" fill-rule="evenodd" filter="url(#stack-music-a)">
<path d="m46.509 9.9342e-9c0.8236 0 1.4964 0.66823 1.5027 1.5027l0.32186 42.151c0 0.74355-0.6069 1.3463-1.3339 1.3463h-39.999c-0.73669 0-1.3339-0.59004-1.3339-1.3463l0.32127-40.147c0.0066608-0.83234 0.67948-1.5071 1.5022-1.5071h25.018c0.27155 0 0.64862-0.15694 0.84006-0.34837l1.3033-1.3033c0.1924-0.1924 0.57401-0.34837 0.84211-0.34837h11.015z" fill="#FF7942"/>
<path d="m46.492 1c0.83273 0 1.513 0.66999 1.5195 1.4931l0.32167 41.161c0 0.74355-0.6069 1.3463-1.3339 1.3463h-39.999c-0.73669 0-1.3339-0.59004-1.3339-1.3463l0.32107-39.159c0.0067704-0.82572 0.69204-1.4951 1.5103-1.4951l25.501-3e-8c0.27658 0 0.65773-0.15694 0.84916-0.34837l1.3033-1.3033c0.1924-0.1924 0.56533-0.34837 0.85387-0.34837h10.487z" fill="#D8391D"/>
<path d="m3 45.005-1e-8 -38.51c0-0.82579 0.67854-1.4952 1.5025-1.4952h44.995c0.82979 0 1.5025 0.67757 1.5025 1.4952v38.51c0 0.73367-0.6069 1.3284-1.3339 1.3284h-45.332c-0.73669 0-1.3339-0.5843-1.3339-1.3284z" fill="#F6F6F6"/>
<path d="m3 45.005-1e-8 -37.5c0-0.83127 0.67854-1.5051 1.5025-1.5051h44.995c0.82979 0 1.5025 0.677 1.5025 1.5051v37.5c0 0.73367-0.6069 1.3284-1.3339 1.3284h-45.332c-0.73669 0-1.3339-0.5843-1.3339-1.3284z" fill="#D7D7D7"/>
<mask id="stack-music-d" fill="#fff">
<use xlink:href="#stack-music-b"/>
</mask>
<use fill="url(#stack-music-c)" xlink:href="#stack-music-b"/>
<g mask="url(#stack-music-d)">
<g transform="translate(10 20)">
<mask id="stack-music-i" fill="#fff">
<use xlink:href="#stack-music-e"/>
</mask>
<use fill="#000" filter="url(#stack-music-f)" xlink:href="#stack-music-e"/>
<circle cx="17" cy="17" r="17.5" fill="url(#stack-music-g)" stroke="url(#stack-music-h)"/>
<g mask="url(#stack-music-i)" opacity=".1">
<g transform="translate(-2 1)" fill="#FFF">
<path transform="rotate(120 17.738 15.434)" d="m17.738 15.434 5.6667 16.133h-11.333l5.6667-16.133zm0 0-5.6667-16.133h11.333l-5.6667 16.133z" filter="url(#stack-music-j)"/>
<path transform="rotate(45 17.738 15.434)" d="m17.738 15.434 5.6667 16.133h-11.333l5.6667-16.133zm0 0-5.6667-16.133h11.333l-5.6667 16.133z" filter="url(#stack-music-k)"/>
</g>
</g>
<g stroke="url(#stack-music-h)">
<circle cx="17" cy="17" r="15.5" mask="url(#stack-music-i)"/>
<circle cx="17" cy="17" r="13.5" mask="url(#stack-music-i)"/>
<circle cx="17" cy="17" r="11.5" mask="url(#stack-music-i)"/>
<circle cx="17" cy="17" r="9.5" mask="url(#stack-music-i)"/>
</g>
<circle cx="17" cy="17" r="7" fill="url(#stack-music-l)" mask="url(#stack-music-i)" stroke="#1A1A1A"/>
<polygon points="20 17 15 20 15 14" fill="#FFF" mask="url(#stack-music-i)"/>
</g>
</g>
<g mask="url(#stack-music-d)">
<g transform="translate(0 8)">
<path d="m3.5527e-15 37.505c-1.9146e-11 0.81755 0.67185 1.495 1.5006 1.495h50.999c0.83735 0 1.5006-0.66935 1.5006-1.495v1c0 0.82569-0.66328 1.495-1.5006 1.495h-50.999c-0.82877 0-1.5006-0.67749-1.5006-1.495l2.3419e-11 -1z" fill="#000" fill-opacity=".3"/>
<path d="m8.4343e-10 2.495 2.3419e-11 -1c1.9337e-11 -0.82569 0.66328-1.495 1.5006-1.495h50.999c0.82877 0 1.5006 0.67749 1.5006 1.495v1c0-0.81755-0.67185-1.495-1.5006-1.495h-50.999c-0.83735 0-1.5006 0.66935-1.5006 1.495z" fill="#FFF" fill-opacity=".3"/>
<path d="m2.5006 0c-0.83735 0-1.5006 0.66935-1.5006 1.495v37.01c0 0.81755 0.67185 1.495 1.5006 1.495h-1c-0.82877 0-1.5006-0.67749-1.5006-1.495l8.6674e-10 -37.01c1.9337e-11 -0.82569 0.66328-1.495 1.5006-1.495h1zm48.999 3.5527e-15h1c0.82877 0 1.5006 0.67749 1.5006 1.495v37.01c0 0.82569-0.66328 1.495-1.5006 1.495h-1c0.83735 0 1.5006-0.66935 1.5006-1.495v-37.01c0-0.81755-0.67185-1.495-1.5006-1.495z" fill="#FFF" fill-opacity=".06"/>
</g>
</g>
</g>
</svg>
