<svg width="64" height="64" version="1.1" viewBox="0 0 64 64" xmlns="http://www.w3.org/2000/svg">
<g fill="none" fill-rule="evenodd">
<path d="m8.5 17.495v2.0048h-1.9994c-0.55822 0-1.0006 0.44251-1.0006 0.99504v37.01c0 0.54422 0.45081 0.99504 1.0006 0.99504h50.999c0.55822 0 1.0006-0.44251 1.0006-0.99504v-37.01c0-0.54422-0.45081-0.99504-1.0006-0.99504h-1.9994v-2.0048c0-0.5442-0.45152-0.99523-1.0025-0.99523h-1.9555l-0.030494-3.9935c-0.0042672-0.55883-0.45286-1.0065-1.0028-1.0065h-11.015c-0.13739 0-0.39126 0.10463-0.48856 0.20193l-1.3033 1.3033c-0.28543 0.28544-0.78978 0.49482-1.1936 0.49482h-25.018c-0.54694 0-0.9977 0.45218-1.0022 1.0111l-0.015916 1.9889h-1.9695c-0.55065 0-1.0025 0.44843-1.0025 0.99523z" fill="#000" fill-opacity=".5" stroke="#FFF" stroke-opacity=".4"/>
<g transform="translate(22 27)">
<circle cx="10" cy="10" r="11" fill="#000" fill-opacity=".4" stroke="#FFF" stroke-opacity=".5" stroke-width="2"/>
<path transform="rotate(-45 10 9)" d="m8 5v6h6v2h-8v-8h2z" fill="#FFF"/>
</g>
</g>
</svg>
