<svg width="24" height="24" version="1.1" xmlns="http://www.w3.org/2000/svg">
<defs>
<style id="current-color-scheme" type="text/css">.ColorScheme-Text { color:#dfdfdf; } .ColorScheme-Highlight { color:#4285f4; }</style>
</defs>
<g fill="#dfdfdf" fill-rule="evenodd" shape-rendering="auto">
<path d="m12.486 6.0012a0.50005 0.50005 0 0 0-0.33984 0.14453l-2.8535 2.8535h-2.793a0.50005 0.50005 0 0 0-0.5 0.5v5a0.50005 0.50005 0 0 0 0.5 0.5h2.793l2.8535 2.8535a0.50005 0.50005 0 0 0 0.85352-0.35352v-11a0.50005 0.50005 0 0 0-0.51367-0.49805z" color="#000000" color-rendering="auto" dominant-baseline="auto" image-rendering="auto" solid-color="#000000" style="font-feature-settings:normal;font-variant-alternates:normal;font-variant-caps:normal;font-variant-ligatures:normal;font-variant-numeric:normal;font-variant-position:normal;isolation:auto;mix-blend-mode:normal;shape-padding:0;text-decoration-color:#000000;text-decoration-line:none;text-decoration-style:solid;text-indent:0;text-orientation:mixed;text-transform:none;white-space:normal"/>
<path d="m14.492 9.9914a0.50005 0.50005 0 0 0-0.49219 0.50781v3a0.50005 0.50005 0 1 0 1 0v-3a0.50005 0.50005 0 0 0-0.50781-0.50781z" color="#000000" color-rendering="auto" dominant-baseline="auto" image-rendering="auto" solid-color="#000000" style="font-feature-settings:normal;font-variant-alternates:normal;font-variant-caps:normal;font-variant-ligatures:normal;font-variant-numeric:normal;font-variant-position:normal;isolation:auto;mix-blend-mode:normal;shape-padding:0;text-decoration-color:#000000;text-decoration-line:none;text-decoration-style:solid;text-indent:0;text-orientation:mixed;text-transform:none;white-space:normal"/>
<path d="m16.492 8.9914a0.50005 0.50005 0 0 0-0.49219 0.50781v5a0.50005 0.50005 0 1 0 1 0v-5a0.50005 0.50005 0 0 0-0.50781-0.50781z" color="#000000" color-rendering="auto" dominant-baseline="auto" image-rendering="auto" solid-color="#000000" style="font-feature-settings:normal;font-variant-alternates:normal;font-variant-caps:normal;font-variant-ligatures:normal;font-variant-numeric:normal;font-variant-position:normal;isolation:auto;mix-blend-mode:normal;shape-padding:0;text-decoration-color:#000000;text-decoration-line:none;text-decoration-style:solid;text-indent:0;text-orientation:mixed;text-transform:none;white-space:normal"/>
<path d="m18.492 7.9914a0.50005 0.50005 0 0 0-0.49219 0.50781v7a0.50005 0.50005 0 1 0 1 0v-7a0.50005 0.50005 0 0 0-0.50781-0.50781z" color="#000000" color-rendering="auto" dominant-baseline="auto" image-rendering="auto" opacity=".3" solid-color="#000000" style="font-feature-settings:normal;font-variant-alternates:normal;font-variant-caps:normal;font-variant-ligatures:normal;font-variant-numeric:normal;font-variant-position:normal;isolation:auto;mix-blend-mode:normal;shape-padding:0;text-decoration-color:#000000;text-decoration-line:none;text-decoration-style:solid;text-indent:0;text-orientation:mixed;text-transform:none;white-space:normal"/>
</g>
</svg>
