<svg width="24" height="24" version="1.1" xmlns="http://www.w3.org/2000/svg">
<defs>
<style id="current-color-scheme" type="text/css">.ColorScheme-Text { color:#dfdfdf; } .ColorScheme-Highlight { color:#4285f4; }</style>
</defs>
<g transform="translate(4,4)">
<path id="Combined-Shape" d="m5 8.8377-0.38743 1.1623h0.38743v1h-2v-6h2v3.664z" fill="#ff001f" fill-rule="evenodd"/>
<polygon points="6 9 8 3 8 7 10 7 8 13 8 9" fill="#fff" fill-rule="evenodd"/>
<path d="m9.0541 13 0.33333-1h4.6126v-2.5c0-0.27614 0.22386-0.5 0.5-0.5h0.5v-2h-0.5c-0.27614 0-0.5-0.22386-0.5-0.5v-2.5h-5v-1h5.5c0.27614 0 0.5 0.22386 0.5 0.5v2.5h0.5c0.27614 0 0.5 0.22386 0.5 0.5v3c0 0.27614-0.22386 0.5-0.5 0.5h-0.5v2.5c0 0.27614-0.22386 0.5-0.5 0.5zm-2.0541 0h-5.5c-0.27614 0-0.5-0.22386-0.5-0.5v-9c0-0.27614 0.22386-0.5 0.5-0.5h5.4459l-0.33333 1h-4.6126v8h5z" fill="#dfdfdf"/>
</g>
</svg>
