<svg width="24" height="24" version="1.1" xmlns="http://www.w3.org/2000/svg">
<defs>
<style id="current-color-scheme" type="text/css">.ColorScheme-Text { color:#dfdfdf; } .ColorScheme-Highlight { color:#4285f4; }</style>
</defs>
<g transform="translate(4,4)">
<path d="m3 5v6h1.2656v-0.51758l0.12695 0.17578 1.8867-5.6582h-0.69336zm1 1h0.89258l-0.89258 2.6738z" color="#000000" color-rendering="auto" dominant-baseline="auto" fill="#dfdfdf" image-rendering="auto" shape-rendering="auto" solid-color="#000000" style="font-feature-settings:normal;font-variant-alternates:normal;font-variant-caps:normal;font-variant-ligatures:normal;font-variant-numeric:normal;font-variant-position:normal;isolation:auto;mix-blend-mode:normal;shape-padding:0;text-decoration-color:#000000;text-decoration-line:none;text-decoration-style:solid;text-indent:0;text-orientation:mixed;text-transform:none;white-space:normal"/>
<path d="m6.2792 5-1.6667 5h2.3874v1h-4v-6h3.2792z" fill="#ffd538" fill-rule="evenodd"/>
<path d="m9.0541 13 0.33333-1h4.6126v-2.5c0-0.27614 0.22386-0.5 0.5-0.5h0.5v-2h-0.5c-0.27614 0-0.5-0.22386-0.5-0.5v-2.5h-5v-1h5.5c0.27614 0 0.5 0.22386 0.5 0.5v2.5h0.5c0.27614 0 0.5 0.22386 0.5 0.5v3c0 0.27614-0.22386 0.5-0.5 0.5h-0.5v2.5c0 0.27614-0.22386 0.5-0.5 0.5zm-2.0541 0h-5.5c-0.27614 0-0.5-0.22386-0.5-0.5v-9c0-0.27614 0.22386-0.5 0.5-0.5h5.4459l-0.33333 1h-4.6126v8h5z" fill="#dfdfdf"/>
<polygon points="8 3 8 7 10 7 8 13 8 9 6 9" fill="#fff" fill-rule="evenodd"/>
</g>
</svg>
