<svg width="24" height="24" version="1.1" xmlns="http://www.w3.org/2000/svg">
<defs>
<style id="current-color-scheme" type="text/css">.ColorScheme-Text { color:#dfdfdf; } .ColorScheme-Highlight { color:#4285f4; }</style>
</defs>
<path d="m12 6.0078a3 3 0 0 0-3 3 3 3 0 0 0 1.6445 2.6738l-1.6445 6.3184h5.9746l-1.6406-6.3125a3 3 0 0 0 1.666-2.6797 3 3 0 0 0-3-3zm0 1a2 2 0 0 1 2 2 2 2 0 0 1-1.8438 1.9922h-0.0293v2e-3l0.25391 0.97852 0.70312 2.7227 0.59766 2.2969h-0.0039l2e-3 0.0078-3.3867-0.0059v-2e-3l0.11133-0.42578 1.1895-4.5977 0.25391-0.97656a2 2 0 0 1-1.8477-1.9922 2 2 0 0 1 2-2z" color="#000000" color-rendering="auto" dominant-baseline="auto" fill="#dfdfdf" image-rendering="auto" shape-rendering="auto" solid-color="#000000" style="font-feature-settings:normal;font-variant-alternates:normal;font-variant-caps:normal;font-variant-ligatures:normal;font-variant-numeric:normal;font-variant-position:normal;isolation:auto;mix-blend-mode:normal;shape-padding:0;text-decoration-color:#000000;text-decoration-line:none;text-decoration-style:solid;text-indent:0;text-orientation:mixed;text-transform:none;white-space:normal"/>
</svg>
