<svg width="24" height="24" version="1" xmlns="http://www.w3.org/2000/svg">
<defs>
<style id="current-color-scheme" type="text/css">.ColorScheme-Text { color:#dfdfdf; } .ColorScheme-Highlight { color:#4285f4; }</style>
</defs>
<path class="ColorScheme-Highlight" d="m11 8.0116v4.0001h2v-4.0001zm1 4.9884c-0.55228 0-1 0.44772-1 1s0.44772 1 1 1 1-0.44772 1-1c0-0.55229-0.44772-1-1-1z" color="#4285f4" fill="currentColor"/>
<path d="m11.787 4.0312-0.02344 0.00781-6.2734 1.8574-0.011719 0.00586c-0.17185 0.060089-0.23703 0.15466-0.27929 0.2168-0.042263 0.062134-0.062686 0.10996-0.080078 0.1543-0.034785 0.08867-0.052386 0.16666-0.068359 0.24219-0.031946 0.15106-0.050781 0.24126-0.050781 0.39258 0 2.3128 0.60909 4.9404 1.6738 7.2637 0.86396 1.8852 2.415 4.4287 5.002 5.75l0.0078 4e-3c0.093124 0.045489 0.19883 0.074125 0.31642 0.074125 0.11379 0 0.22543-0.02785 0.32422-0.07813h2e-3c2.5864-1.3211 4.136-3.8648 5-5.75 1.0651-2.3234 1.6738-4.9513 1.6738-7.2637 0-0.15148-0.01889-0.24359-0.050781-0.39453-0.01595-0.07547-0.03372-0.14977-0.06836-0.23828-0.01732-0.044257-0.038-0.09223-0.08008-0.1543-0.04208-0.062067-0.10512-0.15827-0.27734-0.21875l-0.01172-0.00586-6.2754-1.8574c-0.14374-0.050325-0.30573-0.045773-0.45117 0zm0.21289 0.98047 5.9805 1.7715c0.008493 0.068904 0.019531 0.16587 0.019531 0.125 0 2.1345-0.57844 4.6523-1.584 6.8457-0.79642 1.7377-2.242 3.9849-4.416 5.166-2.1739-1.1816-3.6198-3.4268-4.416-5.1641-1.0052-2.1935-1.584-4.7128-1.584-6.8477 0 0.040753 0.011044-0.05616 0.019531-0.125z" color="#4285f4" color-rendering="auto" dominant-baseline="auto" fill="#4285f4" image-rendering="auto" shape-rendering="auto" solid-color="#000000" style="font-feature-settings:normal;font-variant-alternates:normal;font-variant-caps:normal;font-variant-ligatures:normal;font-variant-numeric:normal;font-variant-position:normal;isolation:auto;mix-blend-mode:normal;shape-padding:0;text-decoration-color:#000000;text-decoration-line:none;text-decoration-style:solid;text-indent:0;text-orientation:mixed;text-transform:none;white-space:normal"/>
</svg>
