<svg width="24" height="24" version="1.1" xmlns="http://www.w3.org/2000/svg">
<defs>
<style id="current-color-scheme" type="text/css">.ColorScheme-Text { color:#dfdfdf; } .ColorScheme-Highlight { color:#4285f4; }</style>
</defs>
<g transform="translate(4.0003 3.9732)" fill="#dfdfdf">
<path d="m8 3.4595c-2.5081 0-4.5405 2.0336-4.5405 4.5405s2.0324 4.5405 4.5405 4.5405 4.5405-2.0336 4.5405-4.5405-2.0324-4.5405-4.5405-4.5405zm0 8.5136c-2.2703 0-3.973-1.7822-3.973-3.973s1.7027-3.973 3.973-3.973z" opacity=".3" stroke-width=".56757"/>
<g opacity=".3" shape-rendering="auto">
<path d="m7.9961 0.050781a0.28381 0.28381 0 0 0-0.2793 0.28711v1.7031a0.28381 0.28381 0 1 0 0.56641 0v-1.7031a0.28381 0.28381 0 0 0-0.28711-0.28711z" color="#000000" color-rendering="auto" dominant-baseline="auto" image-rendering="auto" solid-color="#000000" style="font-feature-settings:normal;font-variant-alternates:normal;font-variant-caps:normal;font-variant-ligatures:normal;font-variant-numeric:normal;font-variant-position:normal;isolation:auto;mix-blend-mode:normal;shape-padding:0;text-decoration-color:#000000;text-decoration-line:none;text-decoration-style:solid;text-indent:0;text-orientation:mixed;text-transform:none;white-space:normal"/>
<path d="m7.9961 13.672a0.28381 0.28381 0 0 0-0.2793 0.28711v1.7031a0.28381 0.28381 0 1 0 0.56641 0v-1.7031a0.28381 0.28381 0 0 0-0.28711-0.28711z" color="#000000" color-rendering="auto" dominant-baseline="auto" image-rendering="auto" solid-color="#000000" style="font-feature-settings:normal;font-variant-alternates:normal;font-variant-caps:normal;font-variant-ligatures:normal;font-variant-numeric:normal;font-variant-position:normal;isolation:auto;mix-blend-mode:normal;shape-padding:0;text-decoration-color:#000000;text-decoration-line:none;text-decoration-style:solid;text-indent:0;text-orientation:mixed;text-transform:none;white-space:normal"/>
<path d="m0.30859 7.7168a0.28381 0.28381 0 0 0 0.029297 0.56641h1.7031a0.28381 0.28381 0 1 0 0-0.56641h-1.7031a0.28381 0.28381 0 0 0-0.029297 0z" color="#000000" color-rendering="auto" dominant-baseline="auto" image-rendering="auto" solid-color="#000000" style="font-feature-settings:normal;font-variant-alternates:normal;font-variant-caps:normal;font-variant-ligatures:normal;font-variant-numeric:normal;font-variant-position:normal;isolation:auto;mix-blend-mode:normal;shape-padding:0;text-decoration-color:#000000;text-decoration-line:none;text-decoration-style:solid;text-indent:0;text-orientation:mixed;text-transform:none;white-space:normal"/>
<path d="m13.932 7.7168a0.28381 0.28381 0 0 0 0.02734 0.56641h1.7031a0.28381 0.28381 0 1 0 0-0.56641h-1.7031a0.28381 0.28381 0 0 0-0.02734 0z" color="#000000" color-rendering="auto" dominant-baseline="auto" image-rendering="auto" solid-color="#000000" style="font-feature-settings:normal;font-variant-alternates:normal;font-variant-caps:normal;font-variant-ligatures:normal;font-variant-numeric:normal;font-variant-position:normal;isolation:auto;mix-blend-mode:normal;shape-padding:0;text-decoration-color:#000000;text-decoration-line:none;text-decoration-style:solid;text-indent:0;text-orientation:mixed;text-transform:none;white-space:normal"/>
<path d="m3.7793 11.928a0.28381 0.28381 0 0 0-0.19336 0.08594l-1.2051 1.2031a0.2845 0.2845 0 1 0 0.40234 0.40234l1.2031-1.2031a0.28381 0.28381 0 0 0-0.20703-0.48828z" color="#000000" color-rendering="auto" dominant-baseline="auto" image-rendering="auto" solid-color="#000000" style="font-feature-settings:normal;font-variant-alternates:normal;font-variant-caps:normal;font-variant-ligatures:normal;font-variant-numeric:normal;font-variant-position:normal;isolation:auto;mix-blend-mode:normal;shape-padding:0;text-decoration-color:#000000;text-decoration-line:none;text-decoration-style:solid;text-indent:0;text-orientation:mixed;text-transform:none;white-space:normal"/>
<path d="m13.412 2.2949a0.28381 0.28381 0 0 0-0.19531 0.085937l-1.2031 1.2051a0.28381 0.28381 0 1 0 0.40234 0.40039l1.2031-1.2031a0.28381 0.28381 0 0 0-0.20703-0.48828z" color="#000000" color-rendering="auto" dominant-baseline="auto" image-rendering="auto" solid-color="#000000" style="font-feature-settings:normal;font-variant-alternates:normal;font-variant-caps:normal;font-variant-ligatures:normal;font-variant-numeric:normal;font-variant-position:normal;isolation:auto;mix-blend-mode:normal;shape-padding:0;text-decoration-color:#000000;text-decoration-line:none;text-decoration-style:solid;text-indent:0;text-orientation:mixed;text-transform:none;white-space:normal"/>
<path d="m12.211 11.928a0.28381 0.28381 0 0 0-0.19727 0.48828l1.2031 1.2031a0.2845 0.2845 0 1 0 0.40234-0.40234l-1.2031-1.2031a0.28381 0.28381 0 0 0-0.20508-0.08594z" color="#000000" color-rendering="auto" dominant-baseline="auto" image-rendering="auto" solid-color="#000000" style="font-feature-settings:normal;font-variant-alternates:normal;font-variant-caps:normal;font-variant-ligatures:normal;font-variant-numeric:normal;font-variant-position:normal;isolation:auto;mix-blend-mode:normal;shape-padding:0;text-decoration-color:#000000;text-decoration-line:none;text-decoration-style:solid;text-indent:0;text-orientation:mixed;text-transform:none;white-space:normal"/>
<path d="m2.5781 2.2949a0.28381 0.28381 0 0 0-0.19727 0.48828l1.2051 1.2031a0.28381 0.28381 0 1 0 0.40039-0.40039l-1.2031-1.2051a0.28381 0.28381 0 0 0-0.20508-0.085938z" color="#000000" color-rendering="auto" dominant-baseline="auto" image-rendering="auto" solid-color="#000000" style="font-feature-settings:normal;font-variant-alternates:normal;font-variant-caps:normal;font-variant-ligatures:normal;font-variant-numeric:normal;font-variant-position:normal;isolation:auto;mix-blend-mode:normal;shape-padding:0;text-decoration-color:#000000;text-decoration-line:none;text-decoration-style:solid;text-indent:0;text-orientation:mixed;text-transform:none;white-space:normal"/>
</g>
</g>
</svg>
