<svg width="24" height="24" version="1.1" xmlns="http://www.w3.org/2000/svg">
<defs>
<style id="current-color-scheme" type="text/css">.ColorScheme-Text { color:#dfdfdf; } .ColorScheme-Highlight { color:#4285f4; }</style>
</defs>
<path d="m5 6.998v10.002h14v-10.002zm1 1h3v1.9902h-3zm4 0h2v1.9902h-2zm3 0h2v1.9902h-2zm3 0h2v1.9902h-2zm-10 2.9902h2v2h-2zm3 0h2v2h-2zm3 0h2v2h-2zm3 0h3v2h-3zm-9 3h2v2.0117h-2zm3 0h6v2.0117h-6zm7 0h2v2.0117h-2z" color="#000000" color-rendering="auto" dominant-baseline="auto" fill="#dfdfdf" image-rendering="auto" opacity=".3" shape-rendering="auto" solid-color="#000000" style="font-feature-settings:normal;font-variant-alternates:normal;font-variant-caps:normal;font-variant-ligatures:normal;font-variant-numeric:normal;font-variant-position:normal;isolation:auto;mix-blend-mode:normal;shape-padding:0;text-decoration-color:#000000;text-decoration-line:none;text-decoration-style:solid;text-indent:0;text-orientation:mixed;text-transform:none;white-space:normal"/>
</svg>
