<svg width="24" height="24" version="1.1" xmlns="http://www.w3.org/2000/svg">
<defs>
<style id="current-color-scheme" type="text/css">.ColorScheme-Text { color:#dfdfdf; } .ColorScheme-Highlight { color:#4285f4; }</style>
</defs>
<g transform="rotate(-90 11.502 8.5025)" fill="#dfdfdf" opacity=".3">
<path d="m13.505 3h-11c-0.827 0-1.5 0.673-1.5 1.5v8c0 0.827 0.673 1.5 1.5 1.5h11c0.827 0 1.5-0.673 1.5-1.5v-8c0-0.827-0.672-1.5-1.5-1.5zm-11.5 1.5c0-0.275 0.225-0.5 0.5-0.5h1.5v4h-2zm0.5 8.5c-0.275 0-0.5-0.225-0.5-0.5v-3.5h2v4zm11.5-0.5c0 0.275-0.225 0.5-0.5 0.5h-8.5v-9h8.5c0.275 0 0.5 0.225 0.5 0.5z" style=""/>
<polygon points="6.005 6 6.005 12 12.005 12 13.005 12 13.005 5 6.005 5" style=""/>
</g>
</svg>
