<svg width="24" height="24" version="1.1" xmlns="http://www.w3.org/2000/svg">
<defs>
<style id="current-color-scheme" type="text/css">.ColorScheme-Text { color:#dfdfdf; } .ColorScheme-Highlight { color:#4285f4; }</style>
</defs>
<g transform="translate(1.0012 1)" fill="#dfdfdf" fill-rule="evenodd">
<g shape-rendering="auto">
<path d="m10.999 5.9044c-2.8904 0-5.5154 1.2559-7.4043 3.2676a0.60037 0.60037 0 1 0 0.875 0.82227c1.6811-1.7903 3.9857-2.8906 6.5293-2.8906 2.5446 0 4.8474 1.1005 6.5273 2.8906a0.60108 0.60108 0 1 0 0.87695-0.82227c-1.888-2.0118-4.5129-3.2676-7.4043-3.2676z" color="#000000" color-rendering="auto" dominant-baseline="auto" image-rendering="auto" solid-color="#000000" style="font-feature-settings:normal;font-variant-alternates:normal;font-variant-caps:normal;font-variant-ligatures:normal;font-variant-numeric:normal;font-variant-position:normal;isolation:auto;mix-blend-mode:normal;shape-padding:0;text-decoration-color:#000000;text-decoration-line:none;text-decoration-style:solid;text-indent:0;text-orientation:mixed;text-transform:none;white-space:normal"/>
<path d="m10.999 8.9044c-2.1143 0-4.0351 0.91992-5.4141 2.3887a0.60006 0.60006 0 1 0 0.875 0.82031c1.171-1.2472 2.7714-2.0098 4.5391-2.0098s3.368 0.76252 4.5391 2.0098a0.60006 0.60006 0 1 0 0.875-0.82031c-1.379-1.4688-3.2998-2.3887-5.4141-2.3887z" color="#000000" color-rendering="auto" dominant-baseline="auto" image-rendering="auto" solid-color="#000000" style="font-feature-settings:normal;font-variant-alternates:normal;font-variant-caps:normal;font-variant-ligatures:normal;font-variant-numeric:normal;font-variant-position:normal;isolation:auto;mix-blend-mode:normal;shape-padding:0;text-decoration-color:#000000;text-decoration-line:none;text-decoration-style:solid;text-indent:0;text-orientation:mixed;text-transform:none;white-space:normal"/>
<path d="m10.999 11.904c-1.3398 0-2.5556 0.58276-3.4238 1.5078a0.60006 0.60006 0 1 0 0.875 0.82031c0.65977-0.70295 1.5546-1.1289 2.5488-1.1289 0.9931 0 1.8898 0.42563 2.5508 1.1289a0.60006 0.60006 0 1 0 0.87305-0.82227c-0.86906-0.92473-2.0849-1.5059-3.4238-1.5059z" color="#000000" color-rendering="auto" dominant-baseline="auto" image-rendering="auto" solid-color="#000000" style="font-feature-settings:normal;font-variant-alternates:normal;font-variant-caps:normal;font-variant-ligatures:normal;font-variant-numeric:normal;font-variant-position:normal;isolation:auto;mix-blend-mode:normal;shape-padding:0;text-decoration-color:#000000;text-decoration-line:none;text-decoration-style:solid;text-indent:0;text-orientation:mixed;text-transform:none;white-space:normal"/>
</g>
<path d="m9.6677 15.573 1.339 1.427 1.337-1.425s-0.013-6e-3 -0.021-0.015c-0.733-0.781-1.991-0.694-2.655 0.013"/>
</g>
</svg>
