<svg width="24" height="24" version="1.1" xmlns="http://www.w3.org/2000/svg">
<defs>
<style id="current-color-scheme" type="text/css">.ColorScheme-Text { color:#dfdfdf; } .ColorScheme-Highlight { color:#4285f4; }</style>
</defs>
<g transform="translate(4.0008 4.0082)" fill="#dfdfdf" fill-rule="evenodd">
<path d="m5.3568 8.515c-0.191 0.027-0.372 0.12-0.503 0.26l-1.19 1.188c-0.161 0.155-0.257 0.373-0.261 0.595v1.206l-2.229 2.2c-0.233 0.233-0.233 0.621 0 0.854 0.235 0.232 0.623 0.232 0.857 0l2.227-2.218h1.192c0.221-6e-3 0.44-0.101 0.595-0.261l1.19-1.188c0.307-0.315 0.307-0.874 0-1.188l-1.19-1.188c-0.176-0.182-0.436-0.281-0.688-0.26m5.2861-1.0463c0.19-0.026 0.37-0.12 0.503-0.26l1.189-1.187c0.162-0.156 0.257-0.373 0.261-0.595v-1.206l2.228-2.201c0.234-0.232 0.234-0.621 0-0.854-0.233-0.232-0.622-0.232-0.856 0l-2.228 2.218h-1.19c-0.222 6e-3 -0.441 0.102-0.596 0.262l-1.191 1.187c-0.306 0.315-0.306 0.874 0 1.189l1.191 1.187c0.176 0.183 0.436 0.281 0.689 0.26" opacity=".3"/>
<path d="m9.5 9.9766a0.50155 0.50155 0 0 0-0.34961 0.86133l1.1426 1.1426-1.1426 1.1426a0.50155 0.50155 0 1 0 0.70898 0.70898l1.1445-1.1426 1.1426 1.1426a0.50155 0.50155 0 1 0 0.70898-0.70898l-1.1426-1.1426 1.1426-1.1426a0.50155 0.50155 0 1 0-0.70898-0.70898l-1.1426 1.1426-1.1445-1.1426a0.50155 0.50155 0 0 0-0.35938-0.15234z" color="#000000" color-rendering="auto" dominant-baseline="auto" image-rendering="auto" shape-rendering="auto" solid-color="#000000" style="font-feature-settings:normal;font-variant-alternates:normal;font-variant-caps:normal;font-variant-ligatures:normal;font-variant-numeric:normal;font-variant-position:normal;isolation:auto;mix-blend-mode:normal;shape-padding:0;text-decoration-color:#000000;text-decoration-line:none;text-decoration-style:solid;text-indent:0;text-orientation:mixed;text-transform:none;white-space:normal"/>
</g>
</svg>
