<svg width="24" height="24" version="1.1" xmlns="http://www.w3.org/2000/svg">
<defs>
<style id="current-color-scheme" type="text/css">.ColorScheme-Text { color:#dfdfdf; } .ColorScheme-Highlight { color:#4285f4; }</style>
</defs>
<g transform="translate(3.999,3.9958)" fill="#dfdfdf">
<path d="m15.001 1.0042-14 14 7.541-2e-3c-0.29913-0.004433-0.54102-0.24564-0.54102-0.54683v-3.9004c0-0.304 0.24583-0.55078 0.54883-0.55078h0.45117v-1.0043c0-0.99574 1.0437-1.9957 1.9957-1.9957h2.0085c0.952 0 1.9957 1.0447 1.9957 1.9957z" opacity=".3"/>
<path d="m11.001 9.7292c0-0.399 0.325-0.725 0.725-0.725h0.55c0.4 0 0.725 0.326 0.725 0.725v1.275h-2zm3.451 1.275h-0.451v-1.275c0-0.951-0.773-1.725-1.725-1.725h-0.55c-0.952 0-1.725 0.774-1.725 1.725v1.275h-0.451c-0.303 0-0.549 0.246-0.549 0.55v2.901c0 0.304 0.246 0.549 0.549 0.549h4.902c0.303 0 0.549-0.245 0.549-0.549v-2.901c0-0.304-0.246-0.55-0.549-0.55z" fill-rule="evenodd"/>
</g>
</svg>
