<svg width="24" height="24" version="1.1" xmlns="http://www.w3.org/2000/svg">
<defs>
<style id="current-color-scheme" type="text/css">.ColorScheme-Text { color:#dfdfdf; } .ColorScheme-Highlight { color:#4285f4; }</style>
</defs>
<g transform="translate(4.008 4.004)" fill="#dfdfdf" fill-rule="evenodd">
<path d="m7.9922 2.9004c-2.8904 0-5.5154 1.2559-7.4043 3.2676a0.60037 0.60037 0 1 0 0.875 0.82227c1.6811-1.7903 3.9857-2.8906 6.5293-2.8906 2.5446 0 4.8474 1.1005 6.5273 2.8906a0.60108 0.60108 0 1 0 0.87695-0.82227c-1.888-2.0118-4.5129-3.2676-7.4043-3.2676z" color="#000000" color-rendering="auto" dominant-baseline="auto" image-rendering="auto" shape-rendering="auto" solid-color="#000000" style="font-feature-settings:normal;font-variant-alternates:normal;font-variant-caps:normal;font-variant-ligatures:normal;font-variant-numeric:normal;font-variant-position:normal;isolation:auto;mix-blend-mode:normal;shape-padding:0;text-decoration-color:#000000;text-decoration-line:none;text-decoration-style:solid;text-indent:0;text-orientation:mixed;text-transform:none;white-space:normal"/>
<path d="m1.7723 8.1941 6.2286 5.8019 6.2193-5.7938s-0.06047-0.024395-0.09769-0.060988c-3.4096-3.1754-9.2614-2.8217-12.35 0.052856"/>
</g>
</svg>
