<svg width="24" height="24" version="1.1" xmlns="http://www.w3.org/2000/svg">
<defs>
<style id="current-color-scheme" type="text/css">.ColorScheme-Text { color:#dfdfdf; } .ColorScheme-Highlight { color:#4285f4; }</style>
</defs>
<g transform="translate(4.0072 4.0004)" fill="#dfdfdf">
<g fill-rule="evenodd">
<path d="m10.98 11.335c-0.133 0-0.266-0.053-0.364-0.157-0.171-0.181-0.357-0.345-0.554-0.488-0.224-0.161-0.274-0.473-0.113-0.698 0.161-0.222 0.473-0.276 0.698-0.112 0.249 0.179 0.483 0.385 0.697 0.612 0.189 0.201 0.18 0.518-0.021 0.707-0.097 0.091-0.22 0.136-0.343 0.136"/>
<path d="m8.6 13.017c0 0.442-0.358 0.8-0.8 0.8s-0.8-0.358-0.8-0.8 0.358-0.8 0.8-0.8 0.8 0.358 0.8 0.8"/>
<path d="m7.805 11.267h-0.109c-0.383 0-0.696-0.313-0.696-0.695v-5.11c0-0.382 0.313-0.695 0.696-0.695h0.109c0.382 0 0.695 0.313 0.695 0.695v5.11c0 0.382-0.313 0.695-0.695 0.695"/>
<path d="m11 8.7246c0-0.399 0.325-0.725 0.725-0.725h0.55c0.4 0 0.725 0.326 0.725 0.725v1.275h-2zm3.451 1.275h-0.451v-1.275c0-0.951-0.773-1.725-1.725-1.725h-0.55c-0.952 0-1.725 0.774-1.725 1.725v1.275h-0.451c-0.303 0-0.549 0.246-0.549 0.55v2.901c0 0.304 0.246 0.549 0.549 0.549h4.902c0.303 0 0.549-0.245 0.549-0.549v-2.901c0-0.304-0.246-0.55-0.549-0.55z"/>
</g>
<g shape-rendering="auto">
<path d="m7.9922 2.9004c-1.2866 0-2.5222 0.24925-3.6621 0.70312-1.4209 0.5658-2.6941 1.4482-3.7422 2.5645a0.60037 0.60037 0 1 0 0.875 0.82227c0.93278-0.99338 2.0599-1.7754 3.3105-2.2734 1.0033-0.39949 2.0865-0.61719 3.2188-0.61719 2.5446 0 4.8474 1.1005 6.5273 2.8906a0.60108 0.60108 0 1 0 0.87695-0.82227c-1.888-2.0118-4.5129-3.2676-7.4043-3.2676z" color="#000000" color-rendering="auto" dominant-baseline="auto" image-rendering="auto" solid-color="#000000" style="font-feature-settings:normal;font-variant-alternates:normal;font-variant-caps:normal;font-variant-ligatures:normal;font-variant-numeric:normal;font-variant-position:normal;isolation:auto;mix-blend-mode:normal;shape-padding:0;text-decoration-color:#000000;text-decoration-line:none;text-decoration-style:solid;text-indent:0;text-orientation:mixed;text-transform:none;white-space:normal"/>
<path d="m5.248 6.4766a0.60006 0.60006 0 0 0-0.21484 0.054688c-0.92701 0.41402-1.7591 1.0165-2.4551 1.7578a0.60006 0.60006 0 1 0 0.875 0.82031c0.59102-0.62949 1.2943-1.1358 2.0703-1.4824a0.60006 0.60006 0 0 0-0.27539-1.1504z" color="#000000" color-rendering="auto" dominant-baseline="auto" image-rendering="auto" solid-color="#000000" style="font-feature-settings:normal;font-variant-alternates:normal;font-variant-caps:normal;font-variant-ligatures:normal;font-variant-numeric:normal;font-variant-position:normal;isolation:auto;mix-blend-mode:normal;shape-padding:0;text-decoration-color:#000000;text-decoration-line:none;text-decoration-style:solid;text-indent:0;text-orientation:mixed;text-transform:none;white-space:normal"/>
<path d="m5.6113 9.6562a0.60006 0.60006 0 0 0-0.31836 0.11523c-0.26172 0.18702-0.50373 0.40139-0.72461 0.63672a0.60006 0.60006 0 1 0 0.875 0.82031c0.16784-0.17883 0.35026-0.33997 0.54688-0.48047a0.60006 0.60006 0 0 0-0.37891-1.0918z" color="#000000" color-rendering="auto" dominant-baseline="auto" image-rendering="auto" solid-color="#000000" style="font-feature-settings:normal;font-variant-alternates:normal;font-variant-caps:normal;font-variant-ligatures:normal;font-variant-numeric:normal;font-variant-position:normal;isolation:auto;mix-blend-mode:normal;shape-padding:0;text-decoration-color:#000000;text-decoration-line:none;text-decoration-style:solid;text-indent:0;text-orientation:mixed;text-transform:none;white-space:normal"/>
</g>
</g>
</svg>
