<svg width="24" height="24" version="1.1" xmlns="http://www.w3.org/2000/svg">
<defs>
<style id="current-color-scheme" type="text/css">.ColorScheme-Text { color:#dfdfdf; } .ColorScheme-Highlight { color:#4285f4; }</style>
</defs>
<g fill="#303030" fill-rule="evenodd" stroke-width=".99999">
<path d="m10.377 11.565c-0.19092 0.027-0.37185 0.12-0.50279 0.26l-1.1895 1.188c-0.16093 0.155-0.25689 0.373-0.26089 0.595v1.206l-2.2281 2.2c-0.2329 0.233-0.2329 0.621 0 0.854 0.2349 0.232 0.62274 0.232 0.85665 0l2.2261-2.218h1.1915c0.22091-6e-3 0.43982-0.101 0.59476-0.261l1.1895-1.188c0.30688-0.315 0.30688-0.874 0-1.188l-1.1895-1.188c-0.17593-0.182-0.43582-0.281-0.68772-0.26"/>
<path d="m13.662 12.519c0.18992-0.026 0.36985-0.12 0.50279-0.26l1.1885-1.187c0.16193-0.156 0.2569-0.373 0.26089-0.595v-1.206l2.2271-2.201c0.2339-0.232 0.2339-0.621 0-0.854-0.2329-0.232-0.62174-0.232-0.85565 0l-2.2271 2.218h-1.1895c-0.22191 6e-3 -0.44082 0.102-0.59576 0.262l-1.1905 1.187c-0.30588 0.315-0.30588 0.874 0 1.189l1.1905 1.187c0.17593 0.183 0.43582 0.281 0.68872 0.26"/>
<path d="m15.999 12.725c0-0.399 0.32487-0.725 0.7247-0.725h0.54977c0.39984 0 0.7247 0.326 0.7247 0.725v1.275h-1.9992zm3.4496 1.275h-0.45082v-1.275c0-0.951-0.77268-1.725-1.7243-1.725h-0.54977c-0.95161 0-1.7243 0.774-1.7243 1.725v1.275h-0.45082c-0.30288 0-0.54878 0.246-0.54878 0.55v2.901c0 0.304 0.2459 0.549 0.54878 0.549h4.9c0.30288 0 0.54878-0.245 0.54878-0.549v-2.901c0-0.304-0.2459-0.55-0.54878-0.55z"/>
</g>
</svg>
