<svg width="24" height="24" version="1.1" xmlns="http://www.w3.org/2000/svg">
<defs>
<style id="current-color-scheme" type="text/css">.ColorScheme-Text { color:#dfdfdf; } .ColorScheme-Highlight { color:#4285f4; }</style>
</defs>
<g fill="#dfdfdf">
<path d="m12 4.0215c-2.7703 0-5 2.361-5 5.2305 0 1.6897 0.76224 3.1943 1.9766 4.1504 0.44047 0.34792 0.72852 0.71333 0.72852 1.2207v0.01367l0.06836 1.3848h4.4492l0.08008-1.3711v-2e-3c0.02682-0.54064 0.29139-0.90694 0.7207-1.246 1.2143-0.95613 1.9766-2.4607 1.9766-4.1504 0-2.8694-2.2297-5.2305-5-5.2305zm0 1c2.2025 0 4 1.8749 4 4.2305 0 1.3903-0.62132 2.598-1.5957 3.3652-0.56874 0.44923-1.0564 1.1114-1.0996 1.9824l-0.02539 0.42188h-2.5547l-0.01953-0.42188v0.02344c0-0.90429-0.55179-1.5654-1.1094-2.0059-0.97439-0.76721-1.5957-1.9749-1.5957-3.3652 0-2.3556 1.7975-4.2305 4-4.2305z" color="#dfdfdf" color-rendering="auto" dominant-baseline="auto" image-rendering="auto" opacity=".3" shape-rendering="auto" solid-color="#000000" style="font-feature-settings:normal;font-variant-alternates:normal;font-variant-caps:normal;font-variant-ligatures:normal;font-variant-numeric:normal;font-variant-position:normal;isolation:auto;mix-blend-mode:normal;shape-padding:0;text-decoration-color:#000000;text-decoration-line:none;text-decoration-style:solid;text-indent:0;text-orientation:mixed;text-transform:none;white-space:normal"/>
<path d="m10 17v1h4v-1z" color="#dfdfdf" opacity=".3"/>
<path d="m11 19v1h2v-1z" color="#dfdfdf" opacity=".3"/>
</g>
</svg>
