<svg width="24" height="24" version="1.1" xmlns="http://www.w3.org/2000/svg">
<defs>
<style id="current-color-scheme" type="text/css">.ColorScheme-Text { color:#dfdfdf; } .ColorScheme-Highlight { color:#4285f4; }</style>
</defs>
<g transform="translate(-4.0004 -3.9998)" fill="#dfdfdf" fill-rule="evenodd">
<rect x="15" y="8" width="2" height="9" rx="1" ry="1" style="paint-order:stroke markers fill"/>
<path d="m11.395 11.898a0.50005 0.50005 0 0 0-0.34375 0.15234c-1.2662 1.2662-2.0508 3.0192-2.0508 4.9492 0 3.8601 3.1399 7 7 7s7-3.1399 7-7c0-1.93-0.7846-3.683-2.0508-4.9492a0.50005 0.50005 0 1 0-0.70703 0.70703c1.0864 1.0864 1.7578 2.5824 1.7578 4.2422 0 3.3196-2.6804 6-6 6s-6-2.6804-6-6c0-1.6598 0.67146-3.1558 1.7578-4.2422a0.50005 0.50005 0 0 0-0.36328-0.85937z" color="#000000" color-rendering="auto" dominant-baseline="auto" image-rendering="auto" shape-rendering="auto" solid-color="#000000" style="font-feature-settings:normal;font-variant-alternates:normal;font-variant-caps:normal;font-variant-ligatures:normal;font-variant-numeric:normal;font-variant-position:normal;isolation:auto;mix-blend-mode:normal;paint-order:stroke markers fill;shape-padding:0;text-decoration-color:#000000;text-decoration-line:none;text-decoration-style:solid;text-indent:0;text-orientation:mixed;text-transform:none;white-space:normal"/>
</g>
</svg>
