<svg width="128" height="128" version="1.1" viewBox="0 0 128 128" xmlns="http://www.w3.org/2000/svg" xmlns:xlink="http://www.w3.org/1999/xlink"><title>accessories-calculator</title><defs><linearGradient id="c" x1="57" x2="57" y1="4" y2="103.45" gradientTransform="translate(7 9)" gradientUnits="userSpaceOnUse"><stop stop-color="#F6F6F6" offset="0"/><stop stop-color="#EAEAEA" offset="1"/></linearGradient><linearGradient id="a" x1="50%" x2="50%" y2="96.217%"><stop stop-color="#fff" offset="0"/><stop stop-color="#fff" offset="1"/></linearGradient><linearGradient id="e" x1="20.748" x2="20.748" y1="1.012" y2="42.509" gradientTransform="scale(1.0121 .98802)" gradientUnits="userSpaceOnUse"><stop stop-color="#14C4FF" offset="0"/><stop stop-color="#009AFF" offset="1"/></linearGradient><linearGradient id="d" x1="20.748" x2="20.748" y1="1.012" y2="40.939" gradientTransform="scale(1.0121 .98802)" gradientUnits="userSpaceOnUse" xlink:href="#a"/><filter id="b" color-interpolation-filters="sRGB"><feFlood flood-color="#000" flood-opacity=".196" result="flood"/><feComposite in="flood" in2="SourceGraphic" operator="in" result="composite1"/><feGaussianBlur in="composite1" result="blur" stdDeviation="2"/><feOffset dx="0" dy="2" result="offset"/><feComposite in="SourceGraphic" in2="offset" result="composite2"/></filter></defs><g fill-rule="evenodd" filter="url(#b)"><path d="M15.66 13h96.68a2.66 2.66 0 0 1 2.66 2.66v96.68a2.66 2.66 0 0 1-2.66 2.66H15.66a2.66 2.66 0 0 1-2.66-2.66V15.66A2.66 2.66 0 0 1 15.66 13z" fill="url(#c)"/><path d="M115 63.5v48.84a2.66 2.66 0 0 1-2.66 2.66H15.66a2.66 2.66 0 0 1-2.66-2.66V63.5v47.84a2.66 2.66 0 0 0 2.66 2.66h96.68a2.66 2.66 0 0 0 2.66-2.66z" fill="#b5b5b5"/><path d="M115 64.5V15.66a2.66 2.66 0 0 0-2.66-2.66H15.66A2.66 2.66 0 0 0 13 15.66V64.5 16.66A2.66 2.66 0 0 1 15.66 14h96.68a2.66 2.66 0 0 1 2.66 2.66z" fill="#fff"/><g fill="none"><g transform="translate(19 66)"><rect y="1" width="42" height="42" rx="5.32" fill="#000" fill-opacity=".1"/><rect width="42" height="42" rx="5.32" fill="#fff"/><rect y="1" width="42" height="41" rx="5.32" fill="url(#d)"/><path d="M21.899 22.486l7.071-7.071L27.556 14l-7.071 7.07-7.071-7.07-1.415 1.414 7.072 7.07-7.072 7.072 1.415 1.414 7.07-7.07 7.072 7.07 1.414-1.414z" fill="#000"/></g><g transform="translate(19 19)"><rect y="1" width="42" height="42" rx="5.32" fill="#000" fill-opacity=".1"/><rect width="42" height="42" rx="5.32" fill="#fff"/><rect y="1" width="42" height="41" rx="5.32" fill="url(#d)"/><path d="M22 20V10h-2v10H10v2h10v10h2V22h10v-2z" fill="#000"/></g><g transform="translate(67 19)"><rect y="1" width="42" height="42" rx="5.32" fill="#000" fill-opacity=".1"/><rect width="42" height="42" rx="5.32" fill="#fff"/><rect y="1" width="42" height="41" rx="5.32" fill="url(#d)"/><path fill="#000" d="M10 20h22v2H10z"/></g><g transform="translate(67 66)"><rect y="1" width="42" height="42" rx="5.32" fill="#000" fill-opacity=".1"/><rect width="42" height="41" rx="5.32" fill="#45ceff"/><rect y="1" width="42" height="41" rx="5.32" fill="url(#e)"/><path d="M12 16h18v2H12zm0 8h18v2H12z" fill="#fff"/></g></g></g></svg>