<svg width="96" height="96" version="1.1" viewBox="0 0 96 96" xmlns="http://www.w3.org/2000/svg"><defs><filter id="a" color-interpolation-filters="sRGB"><feFlood flood-color="#000" flood-opacity=".196" result="flood"/><feComposite in="flood" in2="SourceGraphic" operator="in" result="composite1"/><feGaussianBlur in="composite1" result="blur" stdDeviation="1.5"/><feOffset dx="0" dy="1.5" result="offset"/><feComposite in="SourceGraphic" in2="offset" result="composite2"/></filter></defs><title>deepin-calculator</title><g transform="translate(3.16 2.777) scale(1.4013)" filter="url(#a)"><path d="M10 56v2c0 1.662 1.338 3 3 3h38c1.662 0 3-1.338 3-3v-2c0 1.662-1.338 3-3 3H13c-1.662 0-3-1.338-3-3z" opacity=".2"/><path d="M54 57V7c0-1.662-1.338-3-3-3H13c-1.662 0-3 1.338-3 3v50c0 1.662 1.338 3 3 3h38c1.662 0 3-1.338 3-3z" fill="#395d6d"/><path d="M13 4c-1.662 0-3 1.338-3 3v1c0-1.662 1.338-3 3-3h38c1.662 0 3 1.338 3 3V7c0-1.662-1.338-3-3-3z" fill="#fff" opacity=".1"/><path d="M31.885 22l-4.357 15.312-3.239-8.313H18v3h4.457l4.36 11h2.033l5.183-18H43v-3zm1.56 8l4.762 6.197L33 43h2.6l3.9-5.11L43.4 43H46L40.9 36.324 45.749 30H43.15l-3.553 4.629L36.04 30z" opacity=".2"/><path d="M31.885 21l-4.357 15.312-3.239-8.313H18v3h4.457l4.36 11h2.033l5.183-18H43v-3zm1.56 8l4.762 6.197L33 42h2.6l3.9-5.11L43.4 42H46L40.9 35.324 45.749 29H43.15l-3.553 4.629L36.04 29z" fill="#ff6868"/></g></svg>