<svg width="96" height="96" version="1.1" viewBox="0 0 96 96" xmlns="http://www.w3.org/2000/svg">
<defs>
<filter id="a" color-interpolation-filters="sRGB">
<feFlood flood-opacity=".196" result="flood"/>
<feComposite in="flood" in2="SourceGraphic" operator="in" result="composite1"/>
<feGaussianBlur in="composite1" result="blur" stdDeviation="5"/>
<feOffset dx="0" dy="5" result="offset"/>
<feComposite in="SourceGraphic" in2="offset" result="composite2"/>
</filter>
</defs>
<path transform="matrix(.18746 0 0 .20378 6.134 2.39)" d="m314.02 17.679c-36.879 0-70.09 14.37-93.344 40.599-23.26-26.229-56.47-40.599-93.35-40.599-70.322 0-127.33 59.675-127.33 133.29 0 19.779 3.338 38.813 9.184 56.989 0 0 5.301 16.4 9.997 25.428 53.671 115.43 201.49 190.28 201.49 190.28s147.82-74.852 201.49-190.28 6.925-15.38 9.997-25.428c5.582-18.26 9.184-37.21 9.184-56.989 0-73.615-57.008-133.29-127.33-133.29z" fill="#ea004e" filter="url(#a)"/>
</svg>
