<svg width="96" height="96" version="1.1" viewBox="0 0 96 96" xmlns="http://www.w3.org/2000/svg" xmlns:xlink="http://www.w3.org/1999/xlink"><title>chmsee-icon</title><defs><linearGradient id="f" x1="0" x2="60.946" y1="30.473" y2="30.473" gradientTransform="scale(.85892 1.1643)" gradientUnits="userSpaceOnUse"><stop stop-color="#E9E9E9" offset="0"/><stop stop-color="#fff" offset=".123"/><stop stop-color="#fff" offset="1"/></linearGradient><path id="e" d="M0 0h51.652c.384 0 .696.311.696.696V70.26a.696.696 0 0 1-.696.695H0V0z"/><filter id="d" x="-3.8%" y="-1.4%" width="107.6%" height="105.6%"><feOffset dx="0" dy="1" in="SourceAlpha" result="shadowOffsetOuter1"/><feGaussianBlur in="shadowOffsetOuter1" result="shadowBlurOuter1" stdDeviation=".5"/><feColorMatrix in="shadowBlurOuter1" values="0 0 0 0 0 0 0 0 0 0 0 0 0 0 0 0 0 0 0.196218297 0"/></filter><linearGradient id="g" x1="20.477" x2="9.547" y1="32.791" y2="32.791" gradientTransform="matrix(1.257 0 0 .79556 7.652 11.304)" gradientUnits="userSpaceOnUse"><stop stop-color="#E45C02" offset="0"/><stop stop-color="#FD6E0F" offset=".608"/><stop stop-color="#D65600" offset="1"/></linearGradient><filter id="i" x="-41.7%" y="-5.5%" width="183.3%" height="115%"><feOffset dx="0" dy="1" in="SourceAlpha" result="shadowOffsetOuter1"/><feGaussianBlur in="shadowOffsetOuter1" result="shadowBlurOuter1" stdDeviation="1.5"/><feColorMatrix in="shadowBlurOuter1" result="shadowMatrixOuter1" values="0 0 0 0 0 0 0 0 0 0 0 0 0 0 0 0 0 0 0.258803216 0"/><feMerge><feMergeNode in="shadowMatrixOuter1"/><feMergeNode in="SourceGraphic"/></feMerge></filter><linearGradient id="h" x1="0" x2="29.429" y1="14.715" y2="14.715" gradientTransform="scale(.40776 2.4524)" gradientUnits="userSpaceOnUse"><stop stop-color="#FAFAFA" offset="0"/><stop stop-color="#F4F4F4" offset=".419"/><stop stop-color="#FEFEFE" offset=".699"/><stop stop-color="#E3E1E1" offset="1"/></linearGradient><path id="b" d="M1.74 0h8.52C11.222 0 12 .779 12 1.74v70.434H1.739a1.74 1.74 0 0 1-1.74-1.739V1.739c0-.96.78-1.74 1.74-1.74z"/><linearGradient id="j" x1="10.317" x2=".559" y1="30.242" y2="30.242" gradientTransform="scale(1.1632 .85973)" gradientUnits="userSpaceOnUse"><stop stop-color="#E35B00" offset="0"/><stop stop-color="#FF9650" offset=".311"/><stop stop-color="#F27A29" offset=".433"/><stop stop-color="#E35B00" offset="1"/></linearGradient><linearGradient id="n" x1="45.264" x2="1.274" y1="16.854" y2="31.228" gradientTransform="scale(1.2455 .80288)" gradientUnits="userSpaceOnUse"><stop stop-color="#474747" offset="0"/><stop stop-color="#010101" offset=".038"/><stop offset="1"/></linearGradient><path id="m" d="M11.275 19.489c2.396 0 10.377.126 13.335 3.926.79 1.014.775 3.14.339 4.344-.905 2.535-3.125 6.428-8.307 7.224-1.267.195-3.352.144-4.615-.084-4.69-.828-6.314-3.79-6.876-5.921-.172-.648-1.22-5.054-.14-7.219.998-2 4.69-2.27 6.264-2.27zm36.437 0c1.279 0 4.891-.258 5.927 1.641 1.212 2.223-.03 7.171-.205 7.839-.64 2.45-2.697 6.004-9.184 6.149-6.848.162-9.583-4.47-10.614-7.359-.431-1.205-.45-3.33.335-4.344 2.957-3.8 11.346-3.926 13.74-3.926zM11.275 37.187c1.268.177 3.348.247 4.624.177 3.302-.168 9.166-1.344 10.917-7.354.362-1.233.612-2.88 1.179-3.307.292-.219.682-.39 1.207-.39.492 0 .85.139 1.105.334.52.395.985 1.954 1.607 3.084 1.564 2.856 5.107 7.605 11.306 7.605 0 0 11.854.833 13.363-9.754.18-1.27.174-3.806.726-4.96.381-.79.697-1.813.697-3.032 0-.898-.093-1.558-.27-2.047-.385-1.074-.995-1.51-1.316-2.752-.757-2.94-1.797-6.628-2.781-8.959-.497-1.177-1.802-2.842-2.897-3.507-.581-.356-1.19-.546-1.861-.438-.66.105-.267 2.033-.002 1.91.175-.08.37-.128.586-.128 2.024 0 3.296 7.503 3.296 7.503l.595 3.503c.209 1.265-.655 2.302-1.932 2.335-4.722.14-11.896.618-15.573 2.279-1.16.525-2.767 1.86-3.932 2.395-.924.428-1.983.814-2.763.814-.947 0-1.593-.311-2.285-.74-1.086-.674-2.85-1.785-4.034-2.27-4.216-1.72-11.19-2.464-15.893-2.483-1.282 0-2.146-.958-1.932-2.223l.929-5.466s1.267-7.502 3.292-7.502c.538 0 .951.297 1.253.665.516.628 1.105 1.307 1.635 1.32.534.01.993-.627.682-1.334a3.751 3.751 0 0 0-.798-1.135C10.36-.29 9.098-.238 7.95.465c-1.09.67-2.4 2.33-2.893 3.512-1.267 3-2.632 8.26-3.361 11.256-.297 1.246-.252 2.127-1.013 3.02C.266 18.746 0 19.383 0 20.23c0 0-.037 1.888.65 3.423.53 1.172 1.12 3.11 1.33 4.37.51 3.08 2.413 8.224 9.295 9.164z"/><linearGradient id="a" x1="100%" x2="50%" y1="83.411%" y2="90.986%"><stop stop-color="#2E2E2E" offset="0"/><stop stop-color="#1D1D1D" offset="1"/></linearGradient><linearGradient id="o" x1="38.016" x2="30.837" y1="48.311" y2="49.399" gradientTransform="scale(1.4213 .7036)" gradientUnits="userSpaceOnUse" xlink:href="#a"/><linearGradient id="q" x1="38.892" x2="31.579" y1="23.185" y2="24.293" gradientTransform="scale(1.3758 .72684)" gradientUnits="userSpaceOnUse" xlink:href="#a"/><linearGradient id="s" x1="14.435" x2="7.263" y1="26.475" y2="27.562" gradientTransform="scale(1.4216 .70342)" gradientUnits="userSpaceOnUse" xlink:href="#a"/><linearGradient id="t" x1="6.226" x2="3.355" y1="12.799" y2="13.234" gradientTransform="scale(3.5465 .28197)" gradientUnits="userSpaceOnUse" xlink:href="#a"/><linearGradient id="r" x1="24.634" x2="14.558" y1="34.754" y2="36.281" gradientTransform="scale(1.0701 .9345)" gradientUnits="userSpaceOnUse" xlink:href="#a"/><linearGradient id="u" x1="16.124" x2="13.497" y1="6.328" y2="6.726" gradientTransform="scale(.44475 2.2485)" gradientUnits="userSpaceOnUse" xlink:href="#a"/><mask id="k" fill="#fff"><use width="100%" height="100%" xlink:href="#b"/></mask><filter id="l" color-interpolation-filters="sRGB"><feFlood flood-color="#000" flood-opacity=".196" result="flood"/><feComposite in="flood" in2="SourceGraphic" operator="in" result="composite1"/><feGaussianBlur in="composite1" result="blur" stdDeviation="1.5"/><feOffset dx="-6.1" dy="1.5" result="offset"/><feComposite in="SourceGraphic" in2="offset" result="composite2"/></filter><filter id="c" color-interpolation-filters="sRGB"><feFlood flood-color="#000" flood-opacity=".196" result="flood"/><feComposite in="flood" in2="SourceGraphic" operator="in" result="composite1"/><feGaussianBlur in="composite1" result="blur" stdDeviation="1"/><feOffset dx="0" dy="1" result="offset"/><feComposite in="SourceGraphic" in2="offset" result="composite2"/></filter></defs><g fill-rule="evenodd" filter="url(#c)"><rect x="7.652" y="12.522" width="70.957" height="72.174" rx="3.478" fill="#e35b00"/><g transform="translate(19.652 12.522)" fill="none"><path d="M0 0h54.783c.384 0 .696.311.696.696V70.26a.696.696 0 0 1-.696.695H0z" fill="#fff"/><path d="M1.565 0h51.652c.384 0 .696.311.696.696V70.26a.696.696 0 0 1-.696.695H1.565z" fill="#e6e6e6"/><path fill="#fff" d="M54 33.375h1.5v6.375H54z"/><use width="100%" height="100%" fill="#000" filter="url(#d)" xlink:href="#e"/><use width="100%" height="100%" fill="url(#f)" fill-rule="evenodd" xlink:href="#e"/></g><path d="M19.652 33.739c.944-.464 2.86-.696 5.749-.696s5.552.116 7.99.348v8c-3.588-.232-6.251-.348-7.99-.348s-3.656.232-5.749.696z" fill="url(#g)"/><use transform="translate(7.652 11.304)" width="100%" height="100%" fill="url(#h)" filter="url(#i)" xlink:href="#b"/><path transform="translate(7.652 11.304)" d="M0 22.435c2.13-.58 4.173-.87 6.13-.87s3.914.29 5.87.87v8c-1.899-.58-3.856-.87-5.87-.87s-4.057.29-6.13.87" fill="url(#j)" filter="url(#i)" mask="url(#k)"/><g transform="translate(29.766 44)" fill="none" filter="url(#l)"><mask id="p" fill="#fff"><use width="100%" height="100%" xlink:href="#m"/></mask><use width="100%" height="100%" fill="url(#n)" fill-rule="nonzero" xlink:href="#m"/><path d="M33.625 27.565c.398 1.495.746 2.512 1.044 3.051 1.049 1.904 2.254 2.818 2.695 3.123 2.588 1.785 6.869 1.928 7.315 1.928.315 0 2.363-.093 4.86-1.146 2.51-1.058 3.924-4.222 4.26-5.565.087-.348.348-2 .174-2.608-.116-.406-.667-.667-1.652-.783z" fill="url(#o)" mask="url(#p)"/><path transform="rotate(-9 43.446 13.3)" d="M42.663 17.934c.716.095 7.183.765 8.84.673.188-.01.92-.194 1.376-.7.38-.42.506-1.169.576-1.237.32-.311-.902-8.69-.902-8.686-.003.019-5.32 9.658-9.778 9.24-4.457-.418-9.39 1.122-9.39 1.266 0 .097 2.204-.345 4.928-.54 1.322-.095 3.634-.11 4.35-.016z" fill="url(#q)" mask="url(#p)"/><g fill="url(#r)" mask="url(#p)"><path d="M.174 11.337C0 12.381.319 14.062 1.13 16.38c.527 1.504 2.232 2.676 4.185 3.253 2.565.758 5.47.66 5.815.66.315 0 2.787-.174 4.957-1.39 2.023-1.136 3.751-3.267 4.087-4.61.178-.71.294-2.072.348-4.086z" fill="url(#s)" transform="translate(4.668 15.304)"/><path transform="rotate(12 -58.57 32.93)" d="M12.206 2.862c5.216 0 9.873 1.166 9.873 1 0-.167-4.657-1.603-9.873-1.603S1.721 3.549 1.721 3.715c0 .166 5.269-.853 10.485-.853z" fill="url(#t)"/></g><path d="M7.171 4.375c-2.25 6.25-2.875 10.188-1.875 11.812z" fill="url(#u)" mask="url(#p)"/></g><path fill="#e35b00" d="M75.13 43.304h3.478v16H75.13z"/><path d="M37.574 36.117c0 .03.013.05.04.063s.06.018.106.018h.284c.05 0 .094-.007.13-.02a.267.267 0 0 0 .095-.056c.026-.024.049-.054.069-.09s.038-.076.053-.121c.006-.014.016-.021.032-.021.008 0 .018.002.027.007l.03.014a2.745 2.745 0 0 0-.065.363c-.002.019-.007.03-.016.036a.06.06 0 0 1-.031.008c-.03 0-.067-.002-.111-.007a1.224 1.224 0 0 0-.116-.006h-.652a9.535 9.535 0 0 0-.326.013.222.222 0 0 1-.005-.042c0-.024.008-.038.026-.042a.505.505 0 0 0 .146-.04.074.074 0 0 0 .039-.07v-1.33c0-.034-.012-.06-.037-.074a.427.427 0 0 0-.14-.038.027.027 0 0 1-.02-.014.056.056 0 0 1-.007-.028.23.23 0 0 1 .006-.044 12.631 12.631 0 0 0 .32.013 4.79 4.79 0 0 0 .366-.013.222.222 0 0 1 .005.042c0 .03-.01.045-.029.047a.577.577 0 0 0-.165.038c-.036.016-.054.046-.054.09zm1.403.06a.439.439 0 0 1-.187-.038.366.366 0 0 1-.133-.103.444.444 0 0 1-.079-.154.672.672 0 0 1 .021-.434.532.532 0 0 1 .294-.283.538.538 0 0 1 .29-.026.8.8 0 0 1 .154.055l.147-.076.023.008.001.405.002.406c0 .07.03.103.088.1a.077.077 0 0 0 .034-.007.355.355 0 0 0 .026-.015.12.12 0 0 1 .024-.018l.026.016a.324.324 0 0 1-.047.083.277.277 0 0 1-.065.056.167.167 0 0 1-.092.025c-.059 0-.1-.019-.125-.056a.283.283 0 0 1-.036-.155v-.079a.478.478 0 0 1-.046.107.346.346 0 0 1-.32.183zm.366-.577a.843.843 0 0 0-.015-.161.34.34 0 0 0-.048-.124c-.023-.034-.052-.06-.087-.078s-.08-.028-.135-.028a.342.342 0 0 0-.116.022c-.04.015-.078.04-.11.073s-.061.078-.083.13a.615.615 0 0 0-.01.357c.015.054.036.1.064.14.028.04.061.073.101.096.04.023.087.035.139.035.041 0 .08-.01.116-.031.035-.02.066-.05.092-.087s.048-.082.064-.132.026-.105.028-.165zm1.75.556a4.845 4.845 0 0 0-.55 0v-.044l.138-.021c.038-.005.057-.04.057-.102v-.44a.472.472 0 0 0-.047-.229c-.03-.056-.093-.085-.185-.085-.106 0-.211.052-.316.157v.626c0 .028.021.047.063.057l.146.037v.044l-.087-.005a1.888 1.888 0 0 0-.114-.003h-.086c-.06 0-.115 0-.163.002a1.32 1.32 0 0 0-.119.006v-.044l.136-.026c.035-.006.052-.032.052-.079v-.516c0-.054-.01-.09-.032-.11a.235.235 0 0 0-.116-.041v-.047a.413.413 0 0 0 .276-.233h.044v.238a.808.808 0 0 1 .216-.14.526.526 0 0 1 .207-.05c.202 0 .303.119.303.357v.516c0 .033.004.059.013.076.008.017.026.029.052.034l.112.02zm.584-.016a.4.4 0 0 1-.302-.131.425.425 0 0 1-.089-.148.585.585 0 0 1 .01-.408.52.52 0 0 1 .273-.284.487.487 0 0 1 .197-.04.693.693 0 0 1 .22.033c.029.009.053.02.072.032l.152-.097.023.008v.989a.433.433 0 0 1-.147.33.519.519 0 0 1-.165.1.582.582 0 0 1-.21.036.938.938 0 0 1-.228-.022.37.37 0 0 1-.128-.054.158.158 0 0 1-.069-.13c0-.03.009-.051.026-.066s.04-.022.068-.022c.042 0 .068.011.08.034s.023.047.035.075c.012.028.033.053.062.076s.084.034.162.034c.226 0 .34-.12.34-.358v-.31a.624.624 0 0 1-.05.117.43.43 0 0 1-.078.103c-.032.03-.069.056-.111.075s-.09.028-.143.028zm.381-.553a.79.79 0 0 0-.013-.147.332.332 0 0 0-.048-.123c-.023-.035-.055-.063-.095-.083a.344.344 0 0 0-.273-.005.27.27 0 0 0-.099.077.385.385 0 0 0-.068.13.757.757 0 0 0-.01.337c.012.05.029.095.052.134.023.04.053.07.09.094s.08.035.133.035A.25.25 0 0 0 41.86 36a.344.344 0 0 0 .103-.098.551.551 0 0 0 .095-.29zm.381-.43h.35v.668c0 .083.014.142.043.177.029.035.081.052.158.052a.461.461 0 0 0 .313-.127V35.3c0-.017-.003-.03-.008-.041s-.016-.019-.033-.025a.418.418 0 0 0-.071-.017 2.083 2.083 0 0 0-.123-.016v-.044h.42v.764c0 .032.002.056.005.073s.011.03.024.04c.012.008.03.014.053.016a.943.943 0 0 0 .098.004l.001.021.002.021-.368.094v-.198a1.317 1.317 0 0 1-.205.15.379.379 0 0 1-.19.05.272.272 0 0 1-.217-.096.381.381 0 0 1-.082-.256v-.542c0-.033-.011-.056-.033-.068a.476.476 0 0 0-.137-.034zm1.816 1.02a.439.439 0 0 1-.188-.038.366.366 0 0 1-.133-.103.444.444 0 0 1-.078-.154.672.672 0 0 1 .02-.434.532.532 0 0 1 .294-.283.538.538 0 0 1 .29-.026.8.8 0 0 1 .155.055l.146-.076.023.008a62.846 62.846 0 0 1 .003.811c0 .07.03.103.089.1a.077.077 0 0 0 .034-.007.355.355 0 0 0 .026-.015.12.12 0 0 1 .023-.018l.026.016a.324.324 0 0 1-.047.083.277.277 0 0 1-.065.056.167.167 0 0 1-.091.025c-.06 0-.101-.019-.125-.056a.283.283 0 0 1-.037-.155v-.079a.478.478 0 0 1-.046.107.354.354 0 0 1-.32.183zm.365-.577a.843.843 0 0 0-.014-.161.34.34 0 0 0-.048-.124c-.023-.034-.052-.06-.088-.078s-.08-.028-.134-.028a.342.342 0 0 0-.116.022.293.293 0 0 0-.111.073.404.404 0 0 0-.082.13.615.615 0 0 0-.01.357c.014.054.035.1.063.14.028.04.062.073.102.096.04.023.086.035.138.035.042 0 .08-.01.116-.031.036-.02.067-.05.093-.087s.047-.082.064-.132.025-.105.027-.165zm.947.54a.4.4 0 0 1-.303-.131.425.425 0 0 1-.088-.148.585.585 0 0 1 .01-.408.52.52 0 0 1 .273-.284.487.487 0 0 1 .197-.04.693.693 0 0 1 .219.033c.03.009.054.02.073.032l.151-.097.024.008v.989a.433.433 0 0 1-.148.33.519.519 0 0 1-.164.1.582.582 0 0 1-.21.036.938.938 0 0 1-.228-.022.37.37 0 0 1-.128-.054.158.158 0 0 1-.07-.13c0-.03.01-.051.027-.066s.04-.022.068-.022c.041 0 .068.011.08.034s.022.047.034.075a.195.195 0 0 0 .063.076c.03.023.084.034.162.034.226 0 .339-.12.339-.358v-.31a.624.624 0 0 1-.05.117.43.43 0 0 1-.078.103.343.343 0 0 1-.253.103zm.381-.553a.79.79 0 0 0-.013-.147.332.332 0 0 0-.048-.123c-.024-.035-.056-.063-.096-.083a.344.344 0 0 0-.272-.005.27.27 0 0 0-.1.077.385.385 0 0 0-.067.13.757.757 0 0 0-.01.337c.011.05.028.095.052.134.023.04.053.07.09.094s.08.035.133.035A.25.25 0 0 0 45.75 36a.344.344 0 0 0 .103-.098.551.551 0 0 0 .095-.29zm1.328-.088h-.718a.671.671 0 0 0-.007.099.48.48 0 0 0 .107.325c.07.082.17.124.294.124a.39.39 0 0 0 .167-.036.65.65 0 0 0 .165-.118l.01.06a.606.606 0 0 1-.205.177.58.58 0 0 1-.27.06.4.4 0 0 1-.178-.04.44.44 0 0 1-.144-.114.536.536 0 0 1-.095-.17.645.645 0 0 1 .004-.429.489.489 0 0 1 .629-.301.363.363 0 0 1 .206.203c.02.05.031.102.035.16zm-.705-.06h.379c.026 0 .048 0 .068-.002.019 0 .034-.004.046-.01.013-.006.02-.015.023-.027s0-.03-.004-.053a.278.278 0 0 0-.064-.122c-.032-.037-.081-.055-.148-.055a.279.279 0 0 0-.195.072.357.357 0 0 0-.105.197zm2.116.72a1.34 1.34 0 0 0-.113-.008 5.073 5.073 0 0 0-.466.008v-.045l.14-.028c.055-.01.082-.042.082-.094v-.52c0-.041-.01-.072-.032-.09s-.062-.036-.125-.05v-.04a.577.577 0 0 0 .166-.07c.05-.031.089-.07.119-.117h.044V36c0 .026.004.045.012.057.007.012.023.02.045.026l.128.031zm-.284-1.594c.033 0 .062.012.086.035s.036.052.036.085c0 .03-.012.055-.037.078s-.056.034-.09.034a.108.108 0 0 1-.08-.033.108.108 0 0 1-.033-.08c0-.032.012-.06.036-.084s.05-.035.082-.035zm1.672 1.591a4.845 4.845 0 0 0-.55 0v-.044l.138-.021c.038-.005.057-.04.057-.102v-.44a.472.472 0 0 0-.047-.229c-.031-.056-.093-.085-.185-.085-.106 0-.211.052-.316.157v.626c0 .028.021.047.063.057l.146.037v.044l-.087-.005a1.888 1.888 0 0 0-.114-.003h-.086c-.06 0-.115 0-.163.002a1.32 1.32 0 0 0-.119.006v-.044l.136-.026c.035-.006.052-.032.052-.079v-.516c0-.054-.01-.09-.032-.11a.235.235 0 0 0-.117-.041v-.047a.413.413 0 0 0 .277-.233h.044v.238a.808.808 0 0 1 .216-.14.526.526 0 0 1 .207-.05c.202 0 .303.119.303.357v.516c0 .033.004.059.013.076.008.017.026.029.052.034l.112.02zm.47-1.265h.033a7.395 7.395 0 0 1 .003.28l.35-.009v.097l-.35.01v.525c0 .102.007.179.022.23.015.05.056.073.124.07a.29.29 0 0 0 .09-.017.618.618 0 0 0 .114-.054l.023.037a.354.354 0 0 1-.126.096.504.504 0 0 1-.205.034.318.318 0 0 1-.11-.016.144.144 0 0 1-.068-.052.227.227 0 0 1-.035-.1 1.165 1.165 0 0 1-.009-.16v-.588a1.836 1.836 0 0 1-.14.003c-.025 0-.037-.007-.037-.02 0-.015.011-.027.034-.037a.488.488 0 0 0 .164-.107.715.715 0 0 0 .123-.222zm1.442.608h-.717a.671.671 0 0 0-.008.099.48.48 0 0 0 .107.325c.071.082.17.124.295.124a.39.39 0 0 0 .167-.036.65.65 0 0 0 .164-.118l.01.06a.606.606 0 0 1-.204.177.58.58 0 0 1-.27.06.4.4 0 0 1-.18-.04.44.44 0 0 1-.143-.114.536.536 0 0 1-.095-.17.645.645 0 0 1 .004-.429.489.489 0 0 1 .629-.301.363.363 0 0 1 .206.203c.02.05.032.102.035.16zm-.704-.06h.378c.026 0 .049 0 .068-.002.019 0 .035-.004.047-.01.012-.006.02-.015.022-.027s.001-.03-.004-.053a.278.278 0 0 0-.064-.122c-.032-.037-.081-.055-.147-.055a.279.279 0 0 0-.196.072.357.357 0 0 0-.104.197zm.884.72v-.042l.125-.023c.035-.01.057-.022.067-.04a.213.213 0 0 0 .014-.093v-.501c0-.035-.007-.06-.022-.076s-.047-.029-.098-.04l-.068-.015.006-.039a.681.681 0 0 0 .174-.085.42.42 0 0 0 .128-.158h.047a3.546 3.546 0 0 1 .01.324.76.76 0 0 1 .139-.177c.059-.058.112-.087.159-.087.043 0 .077.013.102.037a.127.127 0 0 1 .036.094c0 .035-.01.062-.03.082s-.045.03-.074.03a.188.188 0 0 1-.091-.026.174.174 0 0 0-.081-.026c-.018 0-.036.009-.054.026s-.035.038-.05.063-.03.05-.04.077-.015.049-.015.066v.436c0 .045.007.075.022.09.015.014.046.025.095.032l.188.029v.042a6.042 6.042 0 0 0-.334-.01h-.037a5.26 5.26 0 0 0-.318.01zm1.289-.892c.16-.117.313-.17.459-.16.122.007.22.057.293.15.074.091.111.213.111.364a.591.591 0 0 1-.041.222.53.53 0 0 1-.297.3.558.558 0 0 1-.223.044.706.706 0 0 1-.302-.075v.396c0 .023.007.04.022.054.015.013.044.023.087.03l.157.026v.044a.713.713 0 0 0-.082-.006l-.106-.004h-.107a5.382 5.382 0 0 0-.318.01v-.044l.11-.021c.026-.005.042-.013.05-.025.008-.011.012-.033.012-.066v-1.15c0-.065-.011-.098-.034-.1l-.128-.02.008-.037a1.733 1.733 0 0 0 .188-.089.368.368 0 0 0 .102-.099h.039zm0 .08v.561c0 .063.027.115.082.156s.127.06.215.06a.345.345 0 0 0 .269-.123.407.407 0 0 0 .076-.14.63.63 0 0 0-.003-.374c-.02-.058-.047-.107-.082-.147s-.078-.07-.127-.088a.341.341 0 0 0-.161-.017.615.615 0 0 0-.27.112zm1.025.812v-.042l.125-.023c.035-.01.057-.022.067-.04a.213.213 0 0 0 .014-.093v-.501c0-.035-.007-.06-.022-.076s-.047-.029-.098-.04l-.068-.015.005-.039a.681.681 0 0 0 .175-.085.42.42 0 0 0 .128-.158h.047a3.546 3.546 0 0 1 .01.324.76.76 0 0 1 .139-.177c.059-.058.112-.087.159-.087.043 0 .077.013.102.037a.127.127 0 0 1 .036.094c0 .035-.01.062-.03.082s-.045.03-.074.03c-.03 0-.06-.009-.092-.026s-.058-.026-.08-.026c-.018 0-.036.009-.054.026s-.035.038-.05.063-.03.05-.04.077-.016.049-.016.066v.436c0 .045.008.075.023.09.014.014.046.025.095.032l.188.029v.042a6.042 6.042 0 0 0-.334-.01h-.037a5.26 5.26 0 0 0-.318.01zm1.889-.66h-.718a.671.671 0 0 0-.007.099.48.48 0 0 0 .106.325c.072.082.17.124.295.124a.39.39 0 0 0 .167-.036.65.65 0 0 0 .165-.118l.01.06a.606.606 0 0 1-.205.177.58.58 0 0 1-.27.06.4.4 0 0 1-.178-.04.44.44 0 0 1-.144-.114.536.536 0 0 1-.095-.17.645.645 0 0 1 .004-.429.489.489 0 0 1 .629-.301.363.363 0 0 1 .206.203c.02.05.031.102.035.16zm-.705-.06h.379c.026 0 .048 0 .067-.002.02 0 .035-.004.047-.01.013-.006.02-.015.023-.027s0-.03-.004-.053a.278.278 0 0 0-.064-.122c-.032-.037-.082-.055-.148-.055a.279.279 0 0 0-.195.072.357.357 0 0 0-.105.197zm1.23-.548h.033l.001.14.002.14.35-.009v.097l-.35.01v.525c0 .102.007.179.022.23.015.05.056.073.124.07a.29.29 0 0 0 .09-.017.618.618 0 0 0 .113-.054l.024.037a.354.354 0 0 1-.127.096.504.504 0 0 1-.205.034.318.318 0 0 1-.11-.016.144.144 0 0 1-.067-.052.227.227 0 0 1-.035-.1 1.165 1.165 0 0 1-.01-.16v-.588c-.024 0-.047 0-.07.002l-.07.001c-.025 0-.037-.007-.037-.02 0-.015.012-.027.034-.037a.488.488 0 0 0 .164-.107.782.782 0 0 0 .123-.222zm.96 1.286a.439.439 0 0 1-.189-.038.366.366 0 0 1-.133-.103.444.444 0 0 1-.078-.154.672.672 0 0 1 .02-.434.532.532 0 0 1 .294-.283.538.538 0 0 1 .29-.026.801.801 0 0 1 .155.055l.146-.076.024.008v.405c.002.135.002.27.002.406 0 .07.03.103.089.1a.077.077 0 0 0 .034-.007.355.355 0 0 0 .026-.015.12.12 0 0 1 .023-.018l.027.016a.324.324 0 0 1-.047.083.277.277 0 0 1-.066.056.167.167 0 0 1-.091.025c-.06 0-.1-.019-.125-.056a.283.283 0 0 1-.037-.155v-.079a.478.478 0 0 1-.045.107.354.354 0 0 1-.32.183zm.364-.576a.843.843 0 0 0-.014-.162.34.34 0 0 0-.048-.124c-.023-.034-.052-.06-.088-.078s-.08-.028-.134-.028a.342.342 0 0 0-.116.022c-.041.015-.078.04-.111.073s-.06.078-.082.13a.615.615 0 0 0-.01.357c.014.054.035.1.063.14.028.04.062.073.102.096s.086.035.138.035c.042 0 .08-.01.116-.031.036-.02.067-.05.093-.087s.047-.082.064-.132.026-.105.027-.165zm.832-.71h.034a7.404 7.404 0 0 1 .003.28l.35-.009v.097l-.35.01v.525c0 .102.007.179.022.23.015.05.056.073.124.07a.29.29 0 0 0 .09-.017.618.618 0 0 0 .114-.054l.023.037a.354.354 0 0 1-.127.096.504.504 0 0 1-.204.034.318.318 0 0 1-.11-.016.144.144 0 0 1-.068-.052.227.227 0 0 1-.035-.1 1.165 1.165 0 0 1-.009-.16v-.588a1.836 1.836 0 0 1-.14.003c-.025 0-.037-.007-.037-.02 0-.015.01-.027.034-.037a.488.488 0 0 0 .164-.107.715.715 0 0 0 .123-.222zm1.078 1.268a1.34 1.34 0 0 0-.114-.008 5.073 5.073 0 0 0-.465.008v-.045l.14-.028c.054-.01.081-.042.081-.094v-.52c0-.041-.01-.071-.03-.09s-.063-.036-.126-.05v-.04a.577.577 0 0 0 .166-.07c.05-.031.089-.07.118-.117h.045V36c0 .026.004.045.011.057.008.012.023.02.046.026l.128.031zm-.284-1.594c.033 0 .061.012.086.035s.036.052.036.085c0 .03-.012.056-.038.078s-.055.034-.09.034c-.031 0-.058-.01-.08-.033s-.032-.048-.032-.08.012-.06.035-.084.051-.035.082-.035zm.99 1.625a.568.568 0 0 1-.216-.04.527.527 0 0 1-.287-.283.552.552 0 0 1-.041-.217.56.56 0 0 1 .041-.22.5.5 0 0 1 .118-.17.547.547 0 0 1 .178-.112.62.62 0 0 1 .229-.04c.085 0 .162.014.23.043a.53.53 0 0 1 .33.504.513.513 0 0 1-.162.381.542.542 0 0 1-.184.114.659.659 0 0 1-.235.04zm-.338-.52a.54.54 0 0 0 .096.341.306.306 0 0 0 .253.124.322.322 0 0 0 .262-.131.491.491 0 0 0 .076-.153.753.753 0 0 0 .003-.398.482.482 0 0 0-.072-.155.323.323 0 0 0-.266-.136.303.303 0 0 0-.258.128c-.063.085-.094.212-.094.38zm2.345.486a4.845 4.845 0 0 0-.55 0v-.044l.138-.021c.038-.005.057-.04.057-.102v-.44a.472.472 0 0 0-.047-.229c-.031-.056-.093-.085-.185-.085-.106 0-.211.052-.316.157v.626c0 .028.021.047.063.057l.146.037v.044l-.087-.005a1.888 1.888 0 0 0-.114-.003h-.086c-.06 0-.115 0-.163.002a1.32 1.32 0 0 0-.119.006v-.044l.136-.026c.035-.005.052-.032.052-.079v-.516c0-.054-.01-.09-.033-.11a.235.235 0 0 0-.116-.041v-.047a.413.413 0 0 0 .277-.233h.044v.238a.808.808 0 0 1 .215-.14.526.526 0 0 1 .208-.05c.202 0 .302.119.302.357v.516c0 .033.005.059.014.076.008.017.026.029.052.034l.112.02zm1.356.003a1.34 1.34 0 0 0-.113-.008 5.073 5.073 0 0 0-.466.008v-.045l.141-.028c.054-.01.081-.042.081-.094v-.52c0-.041-.01-.072-.031-.09s-.063-.036-.126-.05v-.04a.577.577 0 0 0 .166-.07c.05-.031.09-.07.119-.117h.044V36c0 .026.004.045.012.057.008.012.023.02.046.026l.127.031zm-.284-1.594c.033 0 .062.012.086.035s.037.052.037.085c0 .03-.013.055-.038.078s-.055.034-.09.034a.108.108 0 0 1-.08-.033.108.108 0 0 1-.032-.08c0-.032.011-.06.035-.084s.05-.035.082-.035zm1.077.84a.347.347 0 0 0-.172-.211.16.16 0 0 0-.075-.021c-.126 0-.188.055-.188.167 0 .048.021.088.064.12a.746.746 0 0 0 .191.09c.197.072.295.177.295.317a.3.3 0 0 1-.112.237c-.035.028-.075.05-.12.064s-.093.022-.143.022a.636.636 0 0 1-.31-.068l-.027-.297h.047a.449.449 0 0 0 .125.223c.06.055.122.082.188.082.06 0 .11-.017.15-.05s.059-.08.059-.135c0-.098-.082-.175-.245-.232a.71.71 0 0 1-.25-.135.254.254 0 0 1-.074-.191c0-.042.01-.08.029-.115.019-.035.045-.065.078-.089s.072-.043.116-.056a.502.502 0 0 1 .142-.02c.108 0 .198.021.269.063l.016.235zm1.279-.514h.034v.14c.002.046.002.092.002.14l.35-.009v.097l-.35.01v.525c0 .102.008.179.022.23.015.05.057.073.124.07a.29.29 0 0 0 .09-.017.618.618 0 0 0 .114-.054l.023.037a.354.354 0 0 1-.126.096.504.504 0 0 1-.205.034.318.318 0 0 1-.11-.016.144.144 0 0 1-.067-.052.227.227 0 0 1-.036-.1 1.165 1.165 0 0 1-.009-.16v-.588a1.836 1.836 0 0 1-.14.003c-.025 0-.037-.007-.037-.02 0-.015.011-.027.034-.037a.488.488 0 0 0 .164-.107.782.782 0 0 0 .123-.222zm.688-.183c0-.022-.002-.041-.006-.057s-.013-.03-.026-.04c-.013-.012-.032-.022-.058-.03s-.057-.018-.097-.027v-.034a.587.587 0 0 0 .131-.026c.053-.015.11-.038.169-.067h.062v.918c.124-.157.258-.236.405-.238a.37.37 0 0 1 .086.01c.073.017.13.054.17.113a.4.4 0 0 1 .062.232v.558c0 .018.003.031.01.04.007.01.025.02.055.028l.11.026v.045a5.73 5.73 0 0 0-.256-.01 2.935 2.935 0 0 0-.258.01v-.045l.104-.028a.118.118 0 0 0 .048-.025c.01-.01.015-.03.015-.059v-.532a.232.232 0 0 0-.062-.17.215.215 0 0 0-.16-.062.299.299 0 0 0-.176.052.73.73 0 0 0-.153.154v.558c0 .02.003.034.01.045s.019.018.04.023l.17.044v.045a1.36 1.36 0 0 0-.117-.008 5.218 5.218 0 0 0-.465.008v-.045l.133-.028c.022-.005.037-.012.044-.02.007-.008.01-.022.01-.043zm2.142.79h-.717a.671.671 0 0 0-.008.1.48.48 0 0 0 .107.325c.071.082.17.124.295.124a.39.39 0 0 0 .167-.036.65.65 0 0 0 .164-.118l.01.06a.606.606 0 0 1-.204.177.58.58 0 0 1-.27.06.4.4 0 0 1-.179-.04c-.055-.027-.103-.065-.144-.114s-.072-.106-.095-.17a.645.645 0 0 1 .004-.429.489.489 0 0 1 .629-.301.363.363 0 0 1 .206.203c.02.05.032.102.035.16zm-.704-.06h.446c.019-.001.035-.005.047-.011.012-.006.02-.015.022-.027s.001-.03-.004-.053a.278.278 0 0 0-.064-.122c-.032-.037-.081-.055-.147-.055a.279.279 0 0 0-.196.072.357.357 0 0 0-.104.197zM33.81 39.148c.038.005.119.007.242.007.126 0 .214-.002.266-.007v.044a.382.382 0 0 0-.126.034c-.018.012-.02.037-.004.075l.326.694.201-.407-.1-.26a.31.31 0 0 0-.047-.093.07.07 0 0 0-.04-.022l-.105-.021v-.044c.049.005.144.007.287.007.14 0 .234-.002.279-.007v.044l-.117.02a.157.157 0 0 0-.057.02.056.056 0 0 0-.022.026c-.003.01-.004.02-.001.03s.006.021.012.032l.253.657.258-.602c.01-.016.016-.034.016-.053s-.004-.036-.01-.052a.109.109 0 0 0-.032-.04.09.09 0 0 0-.05-.02l-.107-.018v-.044c.039.005.112.007.22.007.11 0 .19-.002.24-.007v.044l-.066.013c-.052.016-.096.064-.133.146l-.375.858h-.047l-.222-.54-.274.54h-.055l-.456-.931c-.025-.047-.058-.073-.1-.078l-.054-.008zm2.016-.439c0-.022-.002-.041-.006-.057s-.013-.03-.026-.04c-.013-.012-.032-.022-.058-.03s-.058-.018-.098-.027v-.034a.587.587 0 0 0 .132-.026c.053-.015.11-.038.168-.067h.063v.918c.124-.157.258-.236.404-.238a.37.37 0 0 1 .087.01c.073.016.13.054.17.113a.4.4 0 0 1 .062.232v.558c0 .018.003.031.01.04.007.01.025.02.055.028l.11.026v.045a5.73 5.73 0 0 0-.256-.01 2.935 2.935 0 0 0-.258.01v-.045l.104-.028a.118.118 0 0 0 .048-.025c.01-.01.014-.03.014-.059v-.532a.232.232 0 0 0-.06-.17.215.215 0 0 0-.161-.062.299.299 0 0 0-.176.052.73.73 0 0 0-.153.154v.558c0 .02.003.034.01.045s.019.018.04.023l.17.044v.045a1.36 1.36 0 0 0-.117-.008 5.218 5.218 0 0 0-.466.008v-.045l.133-.028c.023-.006.038-.012.045-.02.007-.008.01-.022.01-.043zm1.78 1.482a.568.568 0 0 1-.217-.04.527.527 0 0 1-.287-.283.552.552 0 0 1-.042-.217.56.56 0 0 1 .042-.22.5.5 0 0 1 .117-.17.547.547 0 0 1 .179-.112.62.62 0 0 1 .228-.04c.085 0 .162.014.231.042a.53.53 0 0 1 .33.505.513.513 0 0 1-.163.381.542.542 0 0 1-.184.114.659.659 0 0 1-.235.04zm-.34-.52a.54.54 0 0 0 .097.341.306.306 0 0 0 .253.124.322.322 0 0 0 .262-.132.491.491 0 0 0 .076-.152.753.753 0 0 0 .003-.398.482.482 0 0 0-.072-.155.323.323 0 0 0-.266-.136.303.303 0 0 0-.259.128c-.062.085-.094.212-.094.38zm1.667.486a19.494 19.494 0 0 0-.292-.008 4.49 4.49 0 0 0-.292.008v-.044l.156-.032c.023-.005.039-.012.047-.02s.013-.027.013-.053v-1.32c0-.036-.01-.063-.03-.08s-.068-.037-.14-.058v-.036a1.445 1.445 0 0 0 .284-.086h.061v1.575c0 .033.004.055.01.064.008.01.024.017.05.022l.133.024zm1.07-.657h-.718a.671.671 0 0 0-.007.099.48.48 0 0 0 .107.325c.07.082.17.124.294.124a.39.39 0 0 0 .167-.036.65.65 0 0 0 .165-.118l.01.06a.606.606 0 0 1-.205.177.58.58 0 0 1-.27.06.4.4 0 0 1-.178-.04.44.44 0 0 1-.144-.114.536.536 0 0 1-.095-.17.645.645 0 0 1 .004-.429.489.489 0 0 1 .629-.301.363.363 0 0 1 .206.203c.02.05.031.102.035.16zm-.705-.06h.379c.026 0 .048 0 .068-.002.019 0 .034-.004.047-.01.012-.006.02-.015.022-.027s.001-.03-.004-.053a.278.278 0 0 0-.064-.122c-.032-.037-.081-.055-.147-.055a.279.279 0 0 0-.196.072.357.357 0 0 0-.104.197zm1.881-.172c.16-.117.313-.17.46-.16.121.007.22.057.293.15.074.091.11.213.11.364a.591.591 0 0 1-.04.222.53.53 0 0 1-.297.3.558.558 0 0 1-.223.044.706.706 0 0 1-.303-.075v.396c0 .023.008.04.023.054.014.013.043.023.087.03l.156.026v.044a.713.713 0 0 0-.082-.006l-.105-.004h-.107a5.382 5.382 0 0 0-.319.01v-.044l.11-.021c.026-.005.043-.013.05-.025.009-.011.013-.033.013-.066v-1.15c0-.065-.012-.098-.034-.1l-.128-.02.008-.037a1.733 1.733 0 0 0 .188-.089.368.368 0 0 0 .101-.1h.04zm0 .08v.561c0 .063.028.115.083.155s.126.062.215.062a.345.345 0 0 0 .268-.124.407.407 0 0 0 .076-.14.63.63 0 0 0-.003-.374c-.019-.058-.046-.107-.082-.147a.319.319 0 0 0-.288-.105.615.615 0 0 0-.269.112zm1.607.843a.568.568 0 0 1-.216-.04.527.527 0 0 1-.287-.283.552.552 0 0 1-.042-.217.56.56 0 0 1 .042-.22.5.5 0 0 1 .117-.17.547.547 0 0 1 .179-.112.62.62 0 0 1 .228-.04c.085 0 .162.014.231.042a.53.53 0 0 1 .33.505.513.513 0 0 1-.163.381.542.542 0 0 1-.184.114.659.659 0 0 1-.235.04zm-.339-.52a.54.54 0 0 0 .097.341.306.306 0 0 0 .253.124.322.322 0 0 0 .262-.132.491.491 0 0 0 .076-.152.753.753 0 0 0 .003-.398.482.482 0 0 0-.072-.155.323.323 0 0 0-.266-.136.303.303 0 0 0-.259.128c-.062.085-.094.212-.094.38zm1.662.489a1.34 1.34 0 0 0-.114-.008 5.073 5.073 0 0 0-.465.008v-.045l.14-.028c.055-.01.082-.042.082-.094v-.52c0-.041-.01-.072-.032-.09s-.062-.036-.125-.05v-.04a.577.577 0 0 0 .166-.07c.05-.031.089-.07.118-.117h.045V40c0 .026.004.045.011.057.008.012.024.02.046.026l.128.031zm-.284-1.594c.033 0 .061.012.086.035s.036.052.036.085c0 .03-.012.055-.038.078s-.055.034-.09.034c-.03 0-.057-.01-.08-.033s-.032-.048-.032-.08.012-.06.035-.084.051-.035.083-.035zm1.672 1.591a4.845 4.845 0 0 0-.55 0v-.044l.138-.021c.038-.005.057-.04.057-.102v-.44a.472.472 0 0 0-.047-.229c-.031-.056-.093-.085-.185-.085-.106 0-.211.052-.316.157v.626c0 .028.021.047.063.057l.146.037v.044l-.087-.005a1.888 1.888 0 0 0-.114-.003h-.086c-.06 0-.115 0-.163.002a1.32 1.32 0 0 0-.119.006v-.044l.136-.026c.035-.006.052-.032.052-.079v-.516c0-.054-.01-.09-.033-.11a.235.235 0 0 0-.116-.041v-.047a.413.413 0 0 0 .277-.233h.044v.238a.808.808 0 0 1 .215-.14.526.526 0 0 1 .208-.05c.202 0 .302.119.302.357v.516c0 .033.005.059.013.076.01.017.027.029.053.034l.112.02zm.47-1.265H46a7.395 7.395 0 0 1 .003.28l.35-.009v.097l-.35.01v.525c0 .102.007.179.022.23.015.05.056.073.124.07a.29.29 0 0 0 .09-.017.618.618 0 0 0 .113-.054l.024.037a.354.354 0 0 1-.127.096.504.504 0 0 1-.204.034.318.318 0 0 1-.11-.016.144.144 0 0 1-.068-.052.227.227 0 0 1-.035-.1 1.165 1.165 0 0 1-.01-.16v-.588c-.023 0-.047 0-.07.002l-.07.001c-.024 0-.036-.007-.036-.02 0-.015.01-.027.033-.037a.488.488 0 0 0 .165-.107.715.715 0 0 0 .123-.222zm1.732 1.299a.568.568 0 0 1-.217-.04.527.527 0 0 1-.287-.283.552.552 0 0 1-.042-.217.56.56 0 0 1 .042-.22.5.5 0 0 1 .117-.17.547.547 0 0 1 .18-.112.62.62 0 0 1 .227-.04c.086 0 .163.014.231.042a.53.53 0 0 1 .33.505.513.513 0 0 1-.163.381.542.542 0 0 1-.184.114.659.659 0 0 1-.234.04zm-.34-.52a.54.54 0 0 0 .097.341.306.306 0 0 0 .253.124.322.322 0 0 0 .262-.132.491.491 0 0 0 .076-.152.753.753 0 0 0 .003-.398.482.482 0 0 0-.072-.155.323.323 0 0 0-.266-.136.303.303 0 0 0-.259.128c-.062.085-.094.212-.094.38zm1.498-.52l.336.007v.091l-.33.01v.653c0 .106.036.164.109.175l.17.026v.044a5.05 5.05 0 0 0-.285-.008h-.076c-.127 0-.222.003-.287.008v-.042l.081-.018a.25.25 0 0 0 .063-.018.072.072 0 0 0 .031-.029.1.1 0 0 0 .012-.046l.001-.071v-.642a1.354 1.354 0 0 0-.19-.016v-.039c.04-.015.072-.03.096-.043s.043-.025.056-.035a.083.083 0 0 0 .026-.031.095.095 0 0 0 .007-.037.962.962 0 0 1 .091-.373.637.637 0 0 1 .142-.186.397.397 0 0 1 .231-.098.565.565 0 0 1 .076-.005c.142.003.214.041.214.114 0 .065-.035.097-.105.097a.132.132 0 0 1-.052-.015l-.066-.03c-.023-.01-.048-.023-.073-.032a.208.208 0 0 0-.075-.014.182.182 0 0 0-.121.036c-.029.024-.05.057-.061.097s-.02.084-.021.134c-.002.05-.003.1-.003.153v.116c0 .03.001.052.003.066zm1.435-.26h.034v.14c.002.047.002.093.002.14l.35-.008v.097l-.35.01v.525c0 .102.008.179.022.23.015.05.056.073.124.07a.29.29 0 0 0 .09-.017.618.618 0 0 0 .114-.054l.023.037a.354.354 0 0 1-.126.096.504.504 0 0 1-.205.034.318.318 0 0 1-.11-.016.144.144 0 0 1-.067-.052.227.227 0 0 1-.036-.1 1.165 1.165 0 0 1-.009-.16v-.588a1.836 1.836 0 0 1-.14.003c-.025 0-.037-.007-.037-.02 0-.015.011-.027.034-.037a.488.488 0 0 0 .164-.107.715.715 0 0 0 .123-.222zm.688-.182c0-.022-.002-.041-.006-.057s-.013-.03-.026-.04c-.013-.012-.032-.022-.058-.03s-.057-.018-.097-.027v-.034a.587.587 0 0 0 .131-.026c.053-.015.11-.038.169-.067h.062v.918c.124-.157.258-.236.404-.238a.37.37 0 0 1 .087.01c.073.016.13.054.17.113a.4.4 0 0 1 .062.232v.558c0 .018.003.031.01.04.007.01.025.02.055.028l.11.026v.045a5.73 5.73 0 0 0-.256-.01 2.935 2.935 0 0 0-.258.01v-.045l.104-.028a.118.118 0 0 0 .048-.025c.01-.01.015-.03.015-.059v-.532a.232.232 0 0 0-.062-.17.215.215 0 0 0-.16-.062.299.299 0 0 0-.176.052.73.73 0 0 0-.153.154v.558c0 .02.003.034.01.045s.019.018.04.023l.17.044v.045a1.36 1.36 0 0 0-.117-.008 5.218 5.218 0 0 0-.466.008v-.045l.134-.028c.022-.006.037-.012.044-.02.007-.008.01-.022.01-.043zm2.142.79h-.717a.671.671 0 0 0-.008.1.48.48 0 0 0 .107.325c.071.082.17.124.295.124a.39.39 0 0 0 .167-.036.65.65 0 0 0 .164-.118l.01.06a.606.606 0 0 1-.204.177.58.58 0 0 1-.27.06.4.4 0 0 1-.18-.04.44.44 0 0 1-.143-.114.536.536 0 0 1-.095-.17.645.645 0 0 1 .004-.429.489.489 0 0 1 .629-.301.363.363 0 0 1 .206.203c.02.05.032.102.035.16zm-.704-.06h.446c.019-.001.035-.005.047-.011.012-.006.02-.015.022-.027s.001-.03-.004-.053a.278.278 0 0 0-.064-.122c-.032-.037-.081-.055-.147-.055a.279.279 0 0 0-.196.072.357.357 0 0 0-.104.197zm1.998.739a.439.439 0 0 1-.188-.038.366.366 0 0 1-.133-.103.444.444 0 0 1-.078-.154.672.672 0 0 1 .02-.434.532.532 0 0 1 .294-.283.538.538 0 0 1 .29-.026.801.801 0 0 1 .155.054l.146-.075.024.008v.405c.002.135.002.27.002.406 0 .07.03.103.089.1a.077.077 0 0 0 .034-.007.355.355 0 0 0 .026-.015.12.12 0 0 1 .023-.018l.026.016a.324.324 0 0 1-.047.083.277.277 0 0 1-.065.056.167.167 0 0 1-.091.025c-.06 0-.1-.019-.125-.056a.283.283 0 0 1-.037-.155v-.079a.478.478 0 0 1-.045.107.359.359 0 0 1-.32.183zm.365-.577a.843.843 0 0 0-.014-.161.34.34 0 0 0-.048-.124c-.023-.034-.052-.06-.088-.078s-.08-.028-.134-.028a.342.342 0 0 0-.116.022c-.041.015-.078.04-.111.073s-.06.078-.082.13a.615.615 0 0 0-.01.357c.014.054.035.1.063.14.028.04.062.072.102.096.04.023.086.035.138.035.042 0 .08-.01.116-.031.036-.021.067-.05.093-.087s.047-.082.064-.132.025-.105.027-.165zm1.435.407a.443.443 0 0 1-.17.136.533.533 0 0 1-.597-.11.489.489 0 0 1-.107-.17.64.64 0 0 1 .001-.428.48.48 0 0 1 .29-.287c.07-.027.15-.04.241-.04.096 0 .174.014.234.042.06.03.09.067.09.114a.099.099 0 0 1-.024.066.08.08 0 0 1-.054.03.09.09 0 0 1-.066-.028l-.065-.065c-.024-.025-.053-.047-.085-.067s-.071-.03-.118-.03a.218.218 0 0 0-.133.04.315.315 0 0 0-.09.106.538.538 0 0 0-.053.146.787.787 0 0 0-.017.162c0 .06.01.119.03.173.018.055.045.103.08.144s.077.073.127.098a.37.37 0 0 0 .165.036c.07 0 .125-.011.167-.034a.465.465 0 0 0 .12-.096zm.472-1.116h.034l.001.14.002.139.35-.008v.097l-.35.01v.525c0 .102.007.179.022.23.015.05.056.073.124.07a.29.29 0 0 0 .09-.017.618.618 0 0 0 .113-.054l.024.037a.354.354 0 0 1-.127.096.504.504 0 0 1-.205.034.318.318 0 0 1-.11-.016.144.144 0 0 1-.067-.052.227.227 0 0 1-.035-.1 1.165 1.165 0 0 1-.01-.16v-.588c-.024 0-.047 0-.07.002l-.07.001c-.024 0-.037-.007-.037-.02 0-.015.012-.027.034-.037a.488.488 0 0 0 .165-.107.715.715 0 0 0 .123-.222zm1.732 1.299a.568.568 0 0 1-.216-.04.527.527 0 0 1-.287-.283.552.552 0 0 1-.042-.217.56.56 0 0 1 .042-.22.5.5 0 0 1 .117-.17.547.547 0 0 1 .179-.112.62.62 0 0 1 .228-.04c.085 0 .162.014.231.042a.53.53 0 0 1 .33.505.513.513 0 0 1-.163.381.542.542 0 0 1-.184.114.659.659 0 0 1-.235.04zm-.339-.52a.54.54 0 0 0 .097.341.306.306 0 0 0 .253.124.322.322 0 0 0 .262-.132.491.491 0 0 0 .076-.152.753.753 0 0 0 .003-.398.482.482 0 0 0-.072-.155.323.323 0 0 0-.266-.136.303.303 0 0 0-.259.128c-.062.085-.094.212-.094.38zm1.498-.52l.336.007v.091l-.331.01v.653c0 .106.036.164.11.175l.169.026v.044a5.05 5.05 0 0 0-.284-.008h-.076c-.127 0-.223.003-.287.008v-.042l.08-.018a.25.25 0 0 0 .064-.018.072.072 0 0 0 .03-.029c.008-.012.012-.027.013-.046v-.713a1.354 1.354 0 0 0-.19-.016v-.039c.04-.015.073-.03.097-.043s.043-.025.056-.035a.083.083 0 0 0 .026-.031.095.095 0 0 0 .007-.037.962.962 0 0 1 .091-.373.637.637 0 0 1 .142-.186.397.397 0 0 1 .231-.098.565.565 0 0 1 .076-.005c.142.003.214.041.214.114 0 .065-.035.097-.105.097a.132.132 0 0 1-.052-.015l-.066-.03c-.023-.01-.048-.023-.074-.032a.208.208 0 0 0-.074-.014.182.182 0 0 0-.121.036c-.029.024-.05.057-.061.097s-.02.084-.021.134c-.002.05-.003.1-.003.153v.116c0 .03 0 .052.003.066zm1.09 1.009v-.042l.125-.023c.035-.01.057-.022.067-.04a.213.213 0 0 0 .014-.094v-.5c0-.035-.007-.06-.022-.076s-.047-.029-.098-.04l-.068-.015.006-.039a.681.681 0 0 0 .174-.085.42.42 0 0 0 .128-.158h.047a3.546 3.546 0 0 1 .01.324.76.76 0 0 1 .139-.177c.059-.058.112-.087.159-.087.043 0 .077.013.102.037a.127.127 0 0 1 .036.094c0 .035-.01.062-.03.082s-.045.03-.074.03c-.03 0-.06-.009-.092-.026s-.058-.026-.08-.026c-.018 0-.036.009-.054.026s-.035.038-.05.063-.03.05-.04.077a.194.194 0 0 0-.016.066v.436c0 .045.008.075.023.09.014.014.046.025.095.032l.188.029v.042a6.042 6.042 0 0 0-.334-.01h-.037a5.26 5.26 0 0 0-.318.01zm1.889-.66h-.718a.671.671 0 0 0-.007.099.48.48 0 0 0 .107.325c.07.082.17.124.294.124a.39.39 0 0 0 .167-.036.65.65 0 0 0 .165-.118l.01.06a.606.606 0 0 1-.205.177.58.58 0 0 1-.27.06.4.4 0 0 1-.178-.04.44.44 0 0 1-.144-.114.536.536 0 0 1-.095-.17.645.645 0 0 1 .004-.429.489.489 0 0 1 .629-.301.363.363 0 0 1 .206.203c.02.05.031.102.035.16zm-.705-.06h.379c.026 0 .048 0 .068-.002.019 0 .034-.004.046-.01.013-.006.02-.015.023-.027s0-.03-.004-.053a.278.278 0 0 0-.064-.122c-.032-.037-.081-.055-.148-.055a.279.279 0 0 0-.195.072.357.357 0 0 0-.105.197zm1.347.738a.439.439 0 0 1-.188-.038.366.366 0 0 1-.133-.103.444.444 0 0 1-.079-.154.672.672 0 0 1 .021-.434.532.532 0 0 1 .294-.283.538.538 0 0 1 .29-.026.801.801 0 0 1 .155.055l.146-.076.023.008.001.405.002.406c0 .07.03.103.088.1a.077.077 0 0 0 .034-.007.355.355 0 0 0 .026-.015.12.12 0 0 1 .024-.018l.026.016a.324.324 0 0 1-.047.083.277.277 0 0 1-.065.056.167.167 0 0 1-.092.025c-.059 0-.1-.019-.125-.056a.283.283 0 0 1-.036-.155v-.079a.478.478 0 0 1-.046.107.346.346 0 0 1-.32.183zm.365-.577a.843.843 0 0 0-.015-.161.34.34 0 0 0-.048-.124c-.022-.034-.052-.06-.087-.078s-.08-.028-.135-.028a.342.342 0 0 0-.116.022.293.293 0 0 0-.11.073.404.404 0 0 0-.083.13.615.615 0 0 0-.01.357c.015.054.036.1.064.14.028.04.061.073.101.096.04.023.087.035.139.035.041 0 .08-.01.116-.031.035-.02.066-.05.092-.087s.048-.082.064-.132.026-.105.028-.165zm1.346-.873c0-.035-.002-.063-.007-.084s-.014-.038-.028-.05-.036-.025-.063-.035a1.07 1.07 0 0 0-.106-.03v-.041a1.374 1.374 0 0 0 .319-.06h.065v1.541c0 .032.002.056.005.073s.011.03.024.038c.012.008.03.013.053.014l.095.006v.044a4.874 4.874 0 0 1-.357.06v-.125l-.118.05a.91.91 0 0 1-.195.054.622.622 0 0 1-.102.008.375.375 0 0 1-.297-.146.526.526 0 0 1-.126-.35.626.626 0 0 1 .156-.416.544.544 0 0 1 .164-.125.434.434 0 0 1 .194-.046c.133 0 .24.024.324.07zm0 1.283v-.488c0-.036-.002-.075-.007-.116a.287.287 0 0 0-.035-.112c-.019-.034-.049-.062-.09-.085s-.098-.034-.17-.034a.253.253 0 0 0-.132.037.346.346 0 0 0-.106.099.49.49 0 0 0-.07.149.667.667 0 0 0 .003.365c.019.054.044.1.076.138a.331.331 0 0 0 .262.12.573.573 0 0 0 .155-.02.321.321 0 0 0 .114-.053zm1.062.149a1.34 1.34 0 0 0-.114-.008 5.073 5.073 0 0 0-.466.008v-.045l.141-.028c.054-.01.081-.042.081-.094v-.52c0-.041-.01-.071-.031-.09s-.063-.036-.125-.05v-.04a.577.577 0 0 0 .165-.07c.05-.031.09-.07.119-.117h.044V40c0 .026.004.045.012.057.008.012.023.02.046.026l.128.031zm-.285-1.594c.033 0 .062.012.086.035s.037.052.037.085c0 .03-.013.056-.038.078s-.055.034-.09.034a.108.108 0 0 1-.08-.033.108.108 0 0 1-.032-.08c0-.032.012-.06.035-.084s.05-.035.082-.035zm1.672 1.591a4.845 4.845 0 0 0-.55 0v-.044l.138-.021c.038-.005.058-.04.058-.102v-.44a.472.472 0 0 0-.047-.229c-.032-.056-.093-.085-.186-.085-.106 0-.21.052-.315.157v.626c0 .028.02.047.062.057l.146.037v.044l-.087-.005a1.888 1.888 0 0 0-.113-.003h-.086c-.061 0-.116 0-.164.002a1.32 1.32 0 0 0-.118.006v-.044l.135-.026c.035-.005.053-.032.053-.079v-.516c0-.054-.011-.09-.033-.11a.235.235 0 0 0-.116-.041v-.047a.413.413 0 0 0 .276-.232h.045v.237a.808.808 0 0 1 .215-.14.526.526 0 0 1 .207-.05c.202 0 .303.119.303.357v.516c0 .033.004.059.013.076s.026.029.052.034l.112.02zm.585-.015a.4.4 0 0 1-.303-.132.425.425 0 0 1-.089-.148.585.585 0 0 1 .01-.408.52.52 0 0 1 .273-.284.487.487 0 0 1 .197-.04.693.693 0 0 1 .22.033c.03.009.053.02.073.032l.15-.097.024.008v.989a.433.433 0 0 1-.147.33.519.519 0 0 1-.164.1.582.582 0 0 1-.21.036.938.938 0 0 1-.229-.022.37.37 0 0 1-.127-.054.158.158 0 0 1-.07-.13c0-.03.01-.051.027-.066s.04-.022.067-.022c.042 0 .069.011.08.034l.035.075c.012.028.033.053.063.076s.083.034.161.034c.227 0 .34-.12.34-.358v-.31a.624.624 0 0 1-.05.117.43.43 0 0 1-.078.103.381.381 0 0 1-.111.075.343.343 0 0 1-.142.028zm.38-.554a.79.79 0 0 0-.012-.147.332.332 0 0 0-.049-.123c-.023-.035-.055-.063-.095-.083a.344.344 0 0 0-.273-.005.27.27 0 0 0-.099.077.385.385 0 0 0-.067.13.757.757 0 0 0-.01.337c.01.05.028.095.051.134.024.04.054.07.09.094s.081.035.133.035a.25.25 0 0 0 .133-.036.344.344 0 0 0 .103-.098.551.551 0 0 0 .095-.29zm.608.598a.136.136 0 0 1-.138-.138.134.134 0 0 1 .138-.139c.04 0 .073.013.1.04s.039.059.039.099a.136.136 0 0 1-.139.138z" fill="#1d1d1d"/><path d="M53.504 31.096c-.448 0-.84-.07-1.176-.208-.336-.139-.615-.33-.836-.572s-.387-.528-.496-.856-.164-.681-.164-1.06c0-.315.055-.632.164-.952a2.544 2.544 0 0 1 1.332-1.5c.336-.163.728-.244 1.176-.244.176 0 .337.004.484.012s.287.021.42.04.264.043.392.072.261.063.4.1c.005.144.024.32.056.528s.075.419.128.632c-.043.021-.085.032-.128.032s-.081-.005-.116-.016c-.035-.01-.057-.04-.068-.088-.096-.352-.248-.603-.456-.752s-.51-.224-.904-.224c-.33 0-.623.053-.876.16a1.778 1.778 0 0 0-1.032 1.14c-.088.27-.132.57-.132.9 0 .368.056.707.168 1.016.112.31.263.576.452.8s.41.397.664.52.524.184.812.184c.23 0 .423-.023.58-.068s.288-.11.392-.196c.104-.085.192-.19.264-.316s.14-.268.204-.428a.196.196 0 0 1 .192-.12.32.32 0 0 1 .152.04c-.064.187-.128.392-.192.616s-.117.448-.16.672a10.246 10.246 0 0 1-1.696.136zm7.32-.656c0 .107.035.18.104.22s.208.081.416.124c.053.01.08.048.08.112 0 .043-.005.09-.016.144a13.454 13.454 0 0 0-.96-.04c-.15 0-.308.004-.476.012s-.332.017-.492.028a.741.741 0 0 1-.016-.144c0-.064.027-.101.08-.112.197-.037.333-.077.408-.12.075-.043.112-.117.112-.224v-1.936h-2.512v1.936c0 .107.035.18.104.22s.208.081.416.124c.059.01.088.048.088.112 0 .043-.005.09-.016.144a14.9 14.9 0 0 0-.968-.04c-.15 0-.307.004-.472.012s-.33.017-.496.028a.741.741 0 0 1-.016-.144c0-.064.027-.101.08-.112.203-.037.341-.077.416-.12.075-.043.112-.117.112-.224v-4.064a.372.372 0 0 0-.02-.132c-.013-.035-.039-.065-.076-.092s-.09-.05-.156-.068-.153-.039-.26-.06c-.053-.005-.08-.048-.08-.128a.71.71 0 0 1 .016-.136 13.694 13.694 0 0 0 .944.04c.15 0 .307-.004.472-.012s.328-.017.488-.028c.01.053.016.099.016.136 0 .075-.027.117-.08.128-.208.032-.345.072-.412.12s-.1.125-.1.232v1.792h2.512v-1.792c0-.09-.032-.164-.096-.22s-.2-.1-.408-.132c-.059-.005-.088-.048-.088-.128a.71.71 0 0 1 .016-.136 13.567 13.567 0 0 0 .952.04c.15 0 .305-.004.468-.012s.327-.017.492-.028c.01.053.016.099.016.136 0 .075-.027.117-.08.128-.208.032-.345.072-.412.12s-.1.125-.1.232zm6.264-4.488c.01-.021.023-.043.036-.064s.036-.037.068-.048.075-.02.128-.028.128-.012.224-.012c.043 0 .099-.001.168-.004l.224-.008a9.184 9.184 0 0 0 .472-.028c.01.053.016.096.016.128 0 .085-.027.13-.08.136-.192.027-.32.063-.384.108s-.096.105-.096.18l.012.212.036.68.06 1.268c.024.528.052 1.184.084 1.968.005.101.04.176.104.224s.195.088.392.12c.027.005.047.02.06.044s.02.052.02.084-.005.075-.016.128l-.508-.028a8.035 8.035 0 0 0-.872 0 8.301 8.301 0 0 0-.484.028.688.688 0 0 1-.016-.128c0-.085.027-.128.08-.128.213-.043.359-.085.436-.128.077-.043.116-.115.116-.216l-.012-.296-.032-.664a141.41 141.41 0 0 1-.04-.848 153.285 153.285 0 0 0-.076-1.556 9.905 9.905 0 0 1-.016-.356l-1.752 4.232c-.021.048-.041.084-.06.108s-.044.036-.076.036a.2.2 0 0 1-.072-.008l-1.96-4.496c-.005.053-.012.183-.02.388l-.032.732-.044.896-.044.872-.032.672c-.014.267-.012.277-.012.288 0 .165.181.28.544.344.053.005.08.048.08.128a.685.685 0 0 1-.016.128c-.144-.01-.285-.02-.424-.028S63.011 31 62.904 31c-.085 0-.2.004-.344.012s-.28.017-.408.028a.688.688 0 0 1-.016-.128c0-.075.027-.117.08-.128.144-.027.26-.065.348-.116s.137-.127.148-.228c0-.048.005-.183.016-.404l.036-.788a321.824 321.824 0 0 1 .088-1.916 207.481 207.481 0 0 0 .044-1.012c0-.085-.033-.148-.1-.188s-.193-.076-.38-.108c-.053-.005-.08-.05-.08-.136 0-.032.005-.075.016-.128a15.075 15.075 0 0 0 .944.04c.096 0 .17.004.224.012.053.008.096.017.128.028s.055.027.068.048.025.043.036.064l1.712 3.992z"/></g></svg>