<?xml version="1.0" encoding="UTF-8"?>
<svg width="96" height="96" version="1.1" viewBox="0 0 96 96" xmlns="http://www.w3.org/2000/svg" xmlns:cc="http://creativecommons.org/ns#" xmlns:dc="http://purl.org/dc/elements/1.1/" xmlns:rdf="http://www.w3.org/1999/02/22-rdf-syntax-ns#">
 <metadata>
  <rdf:RDF>
   <cc:Work rdf:about="">
    <dc:format>image/svg+xml</dc:format>
    <dc:type rdf:resource="http://purl.org/dc/dcmitype/StillImage"/>
    <dc:title>deepin-repair-tools</dc:title>
   </cc:Work>
  </rdf:RDF>
 </metadata>
 <title>deepin-repair-tools</title>
 <defs>
  <linearGradient id="b" x1="37.987" x2="37.987" y1="70.207" gradientTransform="matrix(1.0267 0 0 .97402 9 11)" gradientUnits="userSpaceOnUse">
   <stop stop-color="#8E8E8E" offset="0"/>
   <stop stop-color="#AFAFAF" offset=".932"/>
   <stop stop-color="#BEBEBE" offset=".932"/>
   <stop stop-color="#C2C2C2" offset="1"/>
  </linearGradient>
  <linearGradient id="c" x1="37.987" x2="37.987" y2="74.334" gradientTransform="matrix(1.0267 0 0 .97402 9 11)" gradientUnits="userSpaceOnUse">
   <stop stop-color="#B3B3B3" offset="0"/>
   <stop stop-color="#727272" offset="1"/>
  </linearGradient>
  <filter id="a" color-interpolation-filters="sRGB">
   <feFlood flood-opacity=".196" result="flood"/>
   <feComposite in="flood" in2="SourceGraphic" operator="in" result="composite1"/>
   <feGaussianBlur in="composite1" result="blur" stdDeviation="1"/>
   <feOffset dx="0" dy="1" result="offset"/>
   <feComposite in="SourceGraphic" in2="offset" result="composite2"/>
  </filter>
 </defs>
 <path d="m9.858 14.93 2.973-3.031a3 3 0 0 1 2.142-0.9h66.054a3 3 0 0 1 2.142 0.9l2.973 3.031a3 3 0 0 1 0.858 2.1v66.444a1.52 1.52 0 0 1-1.514 1.525h-74.971a1.52 1.52 0 0 1-1.515-1.525v-66.444a3 3 0 0 1 0.858-2.101z" fill="url(#b)" fill-rule="evenodd" filter="url(#a)"/>
 <path d="m10.572 15.631a2 2 0 0 0-0.572 1.4v66.444a0.52 0.52 0 0 0 0.514 0.525h74.971a0.52 0.52 0 0 0 0.515-0.525v-66.443a2 2 0 0 0-0.572-1.401l-2.973-3.031a2 2 0 0 0-1.428-0.6h-66.054a2 2 0 0 0-1.428 0.6zm-0.714-0.7 2.973-3.031a3 3 0 0 1 2.142-0.9h66.054a3 3 0 0 1 2.142 0.9l2.973 3.03a3 3 0 0 1 0.858 2.102v66.443a1.52 1.52 0 0 1-1.515 1.525h-74.97a1.52 1.52 0 0 1-1.515-1.526v-66.443a3 3 0 0 1 0.858-2.1z" fill="url(#c)" filter="url(#a)"/>
 <g transform="matrix(1.4107 0 0 1.4107 5.042 -.88868)" fill-rule="evenodd">
  <path d="m12 13.001v33.602l7.9999-11.902 11.086 24.3h9.6279l-16.714-26h16z" opacity=".2"/>
  <path d="m12 12.001v33.6l7.9999-11.9 12 26.3h9.9999l-18-28h16z" fill="#fff"/>
 </g>
</svg>
