<svg width="96" height="96" version="1.1" viewBox="0 0 96 96" xmlns="http://www.w3.org/2000/svg" xmlns:xlink="http://www.w3.org/1999/xlink"><title>crossover</title><defs><path id="b" d="M42 82c11.046 0 21.046-4.477 28.284-11.716C77.523 63.045 82 53.045 82 42 82 19.909 64.091 2 42 2S2 19.909 2 42s17.909 40 40 40z"/><filter id="a" color-interpolation-filters="sRGB"><feFlood flood-color="#000" flood-opacity=".196" result="flood"/><feComposite in="flood" in2="SourceGraphic" operator="in" result="composite1"/><feGaussianBlur in="composite1" result="blur" stdDeviation="1"/><feOffset dx="0" dy="1" result="offset"/><feComposite in="SourceGraphic" in2="offset" result="composite2"/></filter></defs><g transform="translate(6 4)" fill="none" fill-rule="evenodd" filter="url(#a)"><circle cx="42" cy="42" r="42" fill="#fff"/><use width="100%" height="100%" fill="#fff" fill-rule="evenodd" xlink:href="#b"/><path d="M42 81.5c10.619 0 20.571-4.21 27.931-11.569S81.5 52.619 81.5 42C81.5 20.185 63.815 2.5 42 2.5S2.5 20.185 2.5 42 20.185 81.5 42 81.5z" stroke="#1038fb"/><path d="M74.886 31.566c-3.682-2.928-7.967-5.546-12.733-7.668-19.817-8.823-40.443-5.732-46.069 6.905s5.878 30.033 25.695 38.857a62.188 62.188 0 0 0 3.71 1.511C33.86 61.923 28.252 49.58 32.525 39.982c5.276-11.85 23.741-15.306 42.36-8.416z" fill="#1038fb"/><path d="M10.019 52.058c3.642 3.001 7.894 5.702 12.637 7.914 19.722 9.197 40.465 6.457 46.33-6.12 5.864-12.576-5.37-30.227-25.093-39.425a62.37 62.37 0 0 0-3.694-1.58c11.5 9.48 16.91 21.958 12.455 31.51-5.5 11.793-24.08 14.937-42.636 7.7z" fill="#fd5400" stroke="#fff" stroke-width="1.843"/></g></svg>