<svg width="96" height="96" version="1.1" viewBox="0 0 96 96" xmlns="http://www.w3.org/2000/svg"><title>日历-96px</title><defs><linearGradient id="b" x1="54.728" x2="54.728" y1="8.771" y2="77.181" gradientTransform="scale(.87706 1.1402)" gradientUnits="userSpaceOnUse"><stop stop-color="#fff" offset="0"/><stop stop-color="#D7D7D7" offset="1"/></linearGradient><linearGradient id="c" x1="46.066" x2="46.066" y1="14.588" y2="87.526" gradientTransform="scale(1.042 .95971)" gradientUnits="userSpaceOnUse"><stop stop-color="#FB5858" offset="0"/><stop stop-color="#DF2132" offset="1"/></linearGradient><filter id="a" color-interpolation-filters="sRGB"><feFlood flood-color="#000" flood-opacity=".196" result="flood"/><feComposite in="flood" in2="SourceGraphic" operator="in" result="composite1"/><feGaussianBlur in="composite1" result="blur" stdDeviation="1"/><feOffset dx="0" dy="1" result="offset"/><feComposite in="SourceGraphic" in2="offset" result="composite2"/></filter></defs><g fill-rule="evenodd" filter="url(#a)"><path fill="url(#b)" d="M18 10h60v78H18z"/><path d="M18 12.994c0-1.101.895-1.994 1.996-1.994h56.007c1.103 0 1.997.893 1.997 1.994v72.012A1.996 1.996 0 0 1 76.003 87H19.996A1.995 1.995 0 0 1 18 85.006z" fill="#f1f1f1"/><path fill="url(#c)" d="M10 14h76v70H10z"/><path fill="#eb3a49" d="M10 15h76v68H10z"/><path d="M28.938 53.387l5.25-3.035c2.352-1.367 4.001-2.534 4.95-3.5 1.494-1.513 2.241-3.245 2.241-5.195 0-2.28-.683-4.088-2.05-5.428-1.368-1.34-3.19-2.01-5.47-2.01-3.372 0-5.705 1.276-7 3.828-.692 1.367-1.075 3.263-1.148 5.688h-5.004c.055-3.41.684-6.19 1.887-8.34 2.133-3.792 5.897-5.688 11.293-5.688 4.485 0 7.761 1.212 9.83 3.637s3.104 5.122 3.104 8.094c0 3.135-1.103 5.815-3.309 8.039C42.236 50.77 39.8 52.659 36.5 54.5c0 0-9.64 4.5-10.5 9.5h20v5H19.75c.183-3.372.88-6.307 2.092-8.804 1.212-2.498 3.578-4.767 7.096-6.809zM78 30v5c-1.258 1.221-15 18-15.785 34h-5.441C59 50.953 69.248 38.154 72 35H51v-5z" fill="#df2031"/><path d="M28.938 52.387l5.25-3.035c2.352-1.367 4.001-2.534 4.95-3.5 1.494-1.513 2.241-3.245 2.241-5.195 0-2.28-.683-4.088-2.05-5.428-1.368-1.34-3.19-2.01-5.47-2.01-3.372 0-5.705 1.276-7 3.828-.692 1.367-1.075 3.263-1.148 5.688h-5.004c.055-3.41.684-6.19 1.887-8.34 2.133-3.792 5.897-5.688 11.293-5.688 4.485 0 7.761 1.212 9.83 3.637s3.104 5.122 3.104 8.094c0 3.135-1.103 5.815-3.309 8.039C42.236 49.77 39.8 51.659 36.5 53.5c0 0-9.64 4.5-10.5 9.5h20v5H19.75c.183-3.372.88-6.307 2.092-8.804 1.212-2.498 3.578-4.767 7.096-6.809zM78 29v5c-1.258 1.221-15 18-15.785 34h-5.441C59 49.953 69.248 37.154 72 34H51v-5z" fill="#fff"/></g></svg>