<svg width="96" height="96" version="1.1" viewBox="0 0 96 96" xmlns="http://www.w3.org/2000/svg" xmlns:xlink="http://www.w3.org/1999/xlink"><title>dde-introduction</title><defs><linearGradient id="b" x1="41.408" x2="41.408" y1="6" y2="90" gradientUnits="userSpaceOnUse"><stop stop-color="#30FFAF" offset="0"/><stop stop-color="#08C5FF" offset="1"/></linearGradient><linearGradient id="c" x1="48" x2="48" y1="6" y2="88.938" gradientUnits="userSpaceOnUse"><stop stop-color="#8BFFD4" offset="0"/><stop stop-color="#00B2D4" offset="1"/></linearGradient><path id="d" d="M48.646 5.182c10.442 0 18.906 8.465 18.906 18.906v35.663a4 4 0 0 1-4 4H29.739V24.088c0-10.442 8.465-18.906 18.906-18.906z"/><path id="e" d="M42.043 39.16h22.68v2.816h-22.68z"/><path id="f" d="M36.101 45.134h22.68v2.816h-22.68z"/><path id="g" d="M24.486 33.579a5.882 5.882 0 0 1 5.882 5.882v9.042H18.604v-9.042a5.882 5.882 0 0 1 5.882-5.882z"/><path id="h" d="M30.626 39.751a5.602 5.602 0 0 1 5.602 5.602v9.322H25.024v-9.322a5.602 5.602 0 0 1 5.602-5.602z"/><path id="i" d="M36.568 45.724a5.602 5.602 0 0 1 5.602 5.602v9.322H30.966v-9.322a5.602 5.602 0 0 1 5.602-5.602z"/><path id="j" d="M42.708 51.897a5.882 5.882 0 0 1 5.882 5.882v5.042a4 4 0 0 1-4 4h-7.764v-9.042a5.882 5.882 0 0 1 5.882-5.882z"/><path id="k" d="M43.457 13.992v10.862c0 5.832-4.39 10.56-9.803 10.56V13.992"/><filter id="a" color-interpolation-filters="sRGB"><feFlood flood-color="#000" flood-opacity=".196" result="flood"/><feComposite in="flood" in2="SourceGraphic" operator="in" result="composite1"/><feGaussianBlur in="composite1" result="blur" stdDeviation="1"/><feOffset dx="0" dy="1" result="offset"/><feComposite in="SourceGraphic" in2="offset" result="composite2"/></filter></defs><g fill-rule="evenodd" filter="url(#a)"><circle cx="48" cy="48" r="42" fill="url(#b)"/><path d="M48 90C24.804 90 6 71.196 6 48S24.804 6 48 6s42 18.804 42 42-18.804 42-42 42zm0-1c22.644 0 41-18.356 41-41S70.644 7 48 7 7 25.356 7 48s18.356 41 41 41z" fill="url(#c)"/><g transform="rotate(45 34.747 48.71)" fill="none"><use width="100%" height="100%" fill="#404040" fill-rule="evenodd" xlink:href="#d"/><path d="M30.94 62.552h32.613a2.8 2.8 0 0 0 2.8-2.8V24.089c0-9.779-7.927-17.706-17.706-17.706S30.941 14.31 30.941 24.089z" stroke="#373737" stroke-width="2.4"/></g><path d="M46.769 27.77l24.828 24.828a4 4 0 0 1 0 5.657L50.175 79.677a4 4 0 0 1-5.657 0L19.69 54.849c-7.478-7.478-7.478-19.601 0-27.08 7.478-7.477 19.601-7.477 27.08 0z" fill="#fff"/><g fill="none"><g transform="rotate(45 39.483 54.811)"><use width="100%" height="100%" fill="#606060" fill-rule="evenodd" xlink:href="#e"/><path stroke="#373737" stroke-width="2.8" d="M43.443 40.56h19.88v1h-19.88z"/></g><g transform="rotate(45 33.542 60.784)"><use width="100%" height="100%" fill="#606060" fill-rule="evenodd" xlink:href="#f"/><path stroke="#373737" stroke-width="2.8" d="M37.501 46.534h19.88v1h-19.88z"/></g><g transform="rotate(45 10.587 55.283)"><use width="100%" height="100%" fill="#404040" fill-rule="evenodd" xlink:href="#g"/><path d="M20.004 47.103h8.964v-7.642a4.482 4.482 0 0 0-8.964 0z" stroke="#373737" stroke-width="2.8"/></g><g transform="rotate(45 16.727 61.456)"><use width="100%" height="100%" fill="#404040" fill-rule="evenodd" xlink:href="#h"/><path d="M26.424 53.275h8.404v-7.922a4.202 4.202 0 1 0-8.404 0z" stroke="#373737" stroke-width="2.8"/></g><g transform="rotate(45 22.668 67.429)"><use width="100%" height="100%" fill="#404040" fill-rule="evenodd" xlink:href="#i"/><path d="M32.366 59.248h8.404v-7.922a4.202 4.202 0 1 0-8.404 0z" stroke="#373737" stroke-width="2.8"/></g><g transform="rotate(45 28.808 73.601)"><use width="100%" height="100%" fill="#404040" fill-rule="evenodd" xlink:href="#j"/><path d="M38.226 65.421h6.364a2.6 2.6 0 0 0 2.6-2.6v-5.042a4.482 4.482 0 0 0-8.964 0z" stroke="#373737" stroke-width="2.8"/></g><g transform="rotate(45 24.656 38.946)"><use width="100%" height="100%" fill="#404040" fill-rule="evenodd" xlink:href="#k"/><path d="M42.057 15.392h-7.003v18.495c3.958-.726 7.003-4.476 7.003-9.033z" stroke="#373737" stroke-width="2.8"/></g></g></g></svg>