<svg width="96" height="96" version="1.1" viewBox="0 0 96 96" xmlns="http://www.w3.org/2000/svg"><title>文件管理器-96px</title><defs><filter id="a" color-interpolation-filters="sRGB"><feFlood flood-color="#000" flood-opacity=".196" result="flood"/><feComposite in="flood" in2="SourceGraphic" operator="in" result="composite1"/><feGaussianBlur in="composite1" result="blur" stdDeviation="1"/><feOffset dx="0" dy="1" result="offset"/><feComposite in="SourceGraphic" in2="offset" result="composite2"/></filter></defs><g filter="url(#a)"><g fill-rule="evenodd"><path d="M12 33.6v-9.606c0-1.101.821-2.358 1.826-2.804l30.59-13.568c2.02-.896 5.295-.893 7.317.008L82.17 21.185c1.01.45 1.83 1.706 1.83 2.81v62.004c0 1.105-.897 2-2 2H14.002c-1.105 0-2-.898-2-2z" fill="#00b8ff"/><path d="M12.202 23.994H12c0-1.101.822-2.358 1.826-2.804l30.59-13.568c2.02-.896 5.295-.893 7.317.007L82.17 21.184c1.011.45 1.831 1.707 1.831 2.81H83.8c-.304-.78-.92-1.493-1.63-1.81L51.733 8.63c-2.022-.9-5.297-.903-7.317-.007L13.826 22.19c-.705.313-1.32 1.026-1.624 1.804z" fill="#5fd2ff"/><path fill="#ffd245" d="M14.2 28.097l59.378-8.908 8.016 57.04-59.377 8.907z"/><path fill="#eef6ff" d="M18 26h60v56H18z"/><path d="M13 34h70v52a1 1 0 0 1-1.003 1H14.003A.998.998 0 0 1 13 86z" fill="#39d4ff" opacity=".7"/><path fill="#b3efff" opacity=".7" d="M83 34H13v1h70z"/><path fill="#fff" d="M78 26H18v1h60z"/></g><path d="M43 65V50s1 4 5 4 5-4 5-4v24" fill="none" opacity=".1" stroke="#000" stroke-width="2.4"/><path d="M43 64V49s1 4 5 4 5-4 5-4v24" fill="none" stroke="#fff" stroke-width="2"/><g fill-rule="evenodd"><path d="M48 59c5.523 0 10-4.477 10-10s-4.477-10-10-10-10 4.477-10 10 4.477 10 10 10z" opacity=".1"/><path d="M48 58c5.523 0 10-4.477 10-10s-4.477-10-10-10-10 4.477-10 10 4.477 10 10 10z" fill="#fff"/><path d="M48 51a3 3 0 1 0 0-6 3 3 0 0 0 0 6z" fill="#4ed8ff"/></g></g></svg>