<svg width="96" height="96" version="1.1" viewBox="0 0 96 96" xmlns="http://www.w3.org/2000/svg"><title>deepin-show-desktop</title><defs><linearGradient id="b" x1="45.536" x2="45.536" y1="14.759" y2="90.653" gradientTransform="scale(1.0541 .94867)" gradientUnits="userSpaceOnUse"><stop stop-color="#54FFCD" offset="0"/><stop stop-color="#23C06D" offset="1"/></linearGradient><linearGradient id="c" x1="44.899" x2="44.899" y1="16.486" y2="90.87" gradientTransform="scale(1.0691 .9354)" gradientUnits="userSpaceOnUse"><stop stop-color="#23FFBE" offset="0"/><stop stop-color="#3FDA88" offset="1"/></linearGradient><filter id="a" color-interpolation-filters="sRGB"><feFlood flood-color="#000" flood-opacity=".196" result="flood"/><feComposite in="flood" in2="SourceGraphic" operator="in" result="composite1"/><feGaussianBlur in="composite1" result="blur" stdDeviation="1"/><feOffset dx="0" dy="1" result="offset"/><feComposite in="SourceGraphic" in2="offset" result="composite2"/></filter></defs><g fill-rule="evenodd" filter="url(#a)"><path d="M86.003 14.001a2 2 0 0 1 1.998 2V84c0 1.105-.899 2-1.998 2H9.998a2 2 0 0 1-1.997-2V16.002C8 14.897 8.899 14 9.998 14z" fill="url(#b)"/><path d="M86.003 15.001a2 2 0 0 1 1.998 2V83c0 1.105-.899 2-1.998 2H9.998a2 2 0 0 1-1.997-2V17.002C8 15.897 8.899 15 9.998 15z" fill="url(#c)"/><g transform="translate(16 22)"><rect y="44" width="64" height="12" rx="2" fill="#1fb366" opacity=".801"/><rect y="1" width="12" height="12" rx="2" opacity=".1"/><rect y="21" width="12" height="12" rx="2" opacity=".1"/><rect width="12" height="12" rx="2" fill="#fff"/><rect y="20" width="12" height="12" rx="2" fill="#fff"/></g></g></svg>