<svg width="96" height="96" version="1.1" viewBox="0 0 96 96" xmlns="http://www.w3.org/2000/svg"><title>deepin-repair-tools</title><defs><linearGradient id="b" x1="37.987" x2="37.987" y1="70.207" gradientTransform="matrix(1.0267 0 0 .97402 9 11)" gradientUnits="userSpaceOnUse"><stop stop-color="#8E8E8E" offset="0"/><stop stop-color="#AFAFAF" offset=".932"/><stop stop-color="#BEBEBE" offset=".932"/><stop stop-color="#C2C2C2" offset="1"/></linearGradient><linearGradient id="c" x1="37.987" x2="37.987" y2="74.334" gradientTransform="matrix(1.0267 0 0 .97402 9 11)" gradientUnits="userSpaceOnUse"><stop stop-color="#B3B3B3" offset="0"/><stop stop-color="#727272" offset="1"/></linearGradient><filter id="a" color-interpolation-filters="sRGB"><feFlood flood-color="#000" flood-opacity=".196" result="flood"/><feComposite in="flood" in2="SourceGraphic" operator="in" result="composite1"/><feGaussianBlur in="composite1" result="blur" stdDeviation="1"/><feOffset dx="0" dy="1" result="offset"/><feComposite in="SourceGraphic" in2="offset" result="composite2"/></filter></defs><g filter="url(#a)"><path d="M9.858 14.93l2.973-3.031a3 3 0 0 1 2.142-.9h66.054a3 3 0 0 1 2.142.9l2.973 3.031a3 3 0 0 1 .858 2.1v66.444a1.52 1.52 0 0 1-1.514 1.525H10.515A1.52 1.52 0 0 1 9 83.474V17.03a3 3 0 0 1 .858-2.101z" fill="url(#b)" fill-rule="evenodd"/><path d="M10.572 15.631a2 2 0 0 0-.572 1.4v66.444a.52.52 0 0 0 .514.525h74.971a.52.52 0 0 0 .515-.525V17.032a2 2 0 0 0-.572-1.401L82.455 12.6a2 2 0 0 0-1.428-.6H14.973a2 2 0 0 0-1.428.6zm-.714-.7l2.973-3.031a3 3 0 0 1 2.142-.9h66.054a3 3 0 0 1 2.142.9l2.973 3.03A3 3 0 0 1 87 17.032v66.443A1.52 1.52 0 0 1 85.485 85h-74.97A1.52 1.52 0 0 1 9 83.474V17.031a3 3 0 0 1 .858-2.1z" fill="url(#c)"/><path d="M55.173 48.552l-2.638-2.677a3.508 3.508 0 0 0-1.058-.736c-.159-.163-.32-.331-.486-.504l3.984-4.486c.758-.853 1.112-2 .966-3.138a7.872 7.872 0 0 1-.058-1.288 7.655 7.655 0 0 1-.013-.19c-.214-4.151 2.933-7.693 7.03-7.91a7.351 7.351 0 0 1 5.505 2.06l-3.538.687a3.75 3.75 0 0 0-2.966 4.397l.007.038a3.75 3.75 0 0 0 4.397 2.965l4.194-.815c-.767 3.13-3.478 5.523-6.822 5.7a7.412 7.412 0 0 1-.48.01c-.336.037-.673.051-1.01.043a3.86 3.86 0 0 0-2.979 1.3zm-6.78 7.633L38.247 67.608c.028.213.045.374.05.483.131 2.533-1.784 4.688-4.284 4.82-2.5.134-4.626-1.807-4.757-4.34-.131-2.533 1.788-4.688 4.284-4.821a6.51 6.51 0 0 1 .474 0l10.773-12.13c.138.336.327.652.565.936zm-12.87 10.438l-2.418-.544-1.707 1.831.71 2.375 2.42.543 1.706-1.83zM51.11 47.28l18.557 18.826c1.264 1.282 1.297 3.416.096 4.749-.368.348-1.277 1.127-1.277 1.127-1.39 1.139-3.466.931-4.622-.448L46.885 51.272a1.585 1.585 0 0 1-.352-.802c-.51-.65-2.482-3.078-6.554-7.146-4.81-4.805-5.633-2.38-6.521-1.581-.888.798-.798 1.539-.798 1.539-.078.455-.39 1.065-.738 1.361l-1.419 1.203c-.132.065-2.6-2.607-3.383-3.492-.672-.76-1.745-2.28-1.745-2.28a.488.488 0 0 1 .034-.587s1.314-1.513 1.8-1.543c1.425-.087 2.085-.222 2.784-1.303.7-1.08.7-1.932 1.09-2.557.258-.416 2.417-3.116 5.575-5.008 6.058-3.628 10.758-3.853 11.732-3.785l4.56.32-2.361 2.363c-.196.071-.516.17-.714.22 0 0-2.883.65-5.17 2.337-2.287 1.687-2.91 4.586-1.162 7.995 1.025 2 1.695 2.69 3.098 4.305a92.096 92.096 0 0 0 3.728 4.035c.272.062.53.2.741.413z" fill="#fff"/></g></svg>