<svg width="96" height="96" version="1.1" viewBox="0 0 96 96" xmlns="http://www.w3.org/2000/svg"><title>远程协助-96px</title><defs><linearGradient id="b" x1="45.536" x2="45.536" y1="14.759" y2="90.653" gradientTransform="scale(1.0541 .94867)" gradientUnits="userSpaceOnUse"><stop stop-color="#01D2C4" offset="0"/><stop stop-color="#0C9E94" offset="1"/></linearGradient><linearGradient id="c" x1="44.899" x2="44.899" y1="16.037" y2="90.87" gradientTransform="scale(1.0691 .9354)" gradientUnits="userSpaceOnUse"><stop stop-color="#1BC3BD" offset="0"/><stop stop-color="#0FBBAF" offset="1"/></linearGradient><filter id="d" color-interpolation-filters="sRGB"><feFlood flood-color="#0D9E94" result="flood"/><feComposite in="flood" in2="SourceGraphic" operator="in" result="composite1"/><feGaussianBlur in="composite1" result="blur" stdDeviation="0"/><feOffset dx="0" dy="1" result="offset"/><feComposite in="SourceGraphic" in2="offset" result="composite2"/></filter><filter id="a" color-interpolation-filters="sRGB"><feFlood flood-color="#000" flood-opacity=".196" result="flood"/><feComposite in="flood" in2="SourceGraphic" operator="in" result="composite1"/><feGaussianBlur in="composite1" result="blur" stdDeviation="1"/><feOffset dx="0" dy="1" result="offset"/><feComposite in="SourceGraphic" in2="offset" result="composite2"/></filter></defs><g fill-rule="evenodd" filter="url(#a)"><path d="M86.003 14.001a2 2 0 0 1 1.998 2V84c0 1.105-.899 2-1.998 2H9.998a2 2 0 0 1-1.997-2V16.002C8 14.897 8.899 14 9.998 14z" fill="url(#b)"/><path d="M86.003 15.001a2 2 0 0 1 1.998 2V83c0 1.105-.899 2-1.998 2H9.998a2 2 0 0 1-1.997-2V17.002C8 15.897 8.899 15 9.998 15z" fill="url(#c)"/><path d="M60.971 31.652a1440.856 1440.856 0 0 1-12.668 12.672l10.469 10.438-12.516 12.707c-5.142-4.924-10.194-9.884-15.309-14.801l-.102-.09c-2.531-2.111-3.995-5.542-3.468-8.723.561-4.263 4.762-7.949 8.996-7.859.82-.01 1.648.172 2.277.305 2.001.429 3.858 2.235 5.574 3.972-.003.004.93.938.93.938l2.437 2.426 4.915-4.914c.754-.755 1.171-2.2 0-3.36-.6-.6-1.259-.784-1.86-.726a2.525 2.525 0 0 0-1.512.726l-2.285 2.285c-1.77-1.763-4.509-4.427-7.375-5.05a12.791 12.791 0 0 0-3.133-.399c-6.393-.126-11.896 4.865-12.73 11.055-.765 4.683 1.28 9.331 4.79 12.258l-.102-.09c5.13 4.932 10.653 10.244 15.84 15.164.73.637 1.325.743 2.094.743.592.007 1.266-.195 1.957-.86l11.578-11.605s7.755-7.729 11.582-11.53c.816-.818.875-1.961.058-2.778-.816-.816-1.984-.789-2.8.027l-8.274 8.274c-.217.046-.674-.43-.652-.7L71.905 39.93c.816-.816.877-1.984.058-2.8-.816-.817-1.906-.703-2.722.113l-9.68 9.683c-.253.044-.804-.433-.734-.757l11.457-11.461c.657-.703 1.048-1.952.207-2.832-.817-.817-2.07-.762-2.887.058l-11.82 11.824c-.284 0-.716-.397-.711-.691l8.652-8.652c.816-.817.965-1.957.075-2.801-.446-.422-.964-.605-1.465-.586a2.017 2.017 0 0 0-1.364.625z" fill="#ecfefd" filter="url(#d)"/></g></svg>