<svg width="96" height="96" version="1.1" viewBox="0 0 96 96" xmlns="http://www.w3.org/2000/svg"><title>deepin-calculator</title><defs><linearGradient id="b" x1="43" x2="43" y1="2" y2="74.242" gradientTransform="translate(5 7)" gradientUnits="userSpaceOnUse"><stop stop-color="#35C7FF" offset="0"/><stop stop-color="#00A7FF" offset="1"/></linearGradient><linearGradient id="c" x1="24" x2="24" y1="3" y2="39.563" gradientTransform="translate(5 7)" gradientUnits="userSpaceOnUse"><stop stop-color="#fff" offset="0"/><stop stop-color="#fff" offset="1"/></linearGradient><filter id="a" color-interpolation-filters="sRGB"><feFlood flood-color="#000" flood-opacity=".196" result="flood"/><feComposite in="flood" in2="SourceGraphic" operator="in" result="composite1"/><feGaussianBlur in="composite1" result="blur" stdDeviation="1"/><feOffset dx="0" dy="1" result="offset"/><feComposite in="SourceGraphic" in2="offset" result="composite2"/></filter></defs><g fill-rule="evenodd" filter="url(#a)"><path d="M13 9h70a4 4 0 0 1 4 4v70a4 4 0 0 1-4 4H13a4 4 0 0 1-4-4V13a4 4 0 0 1 4-4z" fill="url(#b)"/><path d="M13 10h35v38H10V13a3 3 0 0 1 3-3z" fill="url(#c)"/><path d="M48 48h38v35a3 3 0 0 1-3 3H48z" fill="#fff"/><path d="M87 47v36a4 4 0 0 1-4 4H13a4 4 0 0 1-4-4V47v35a4 4 0 0 0 4 4h70a4 4 0 0 0 4-4z" fill="#248ff4"/><path d="M87 49V13a4 4 0 0 0-4-4H13a4 4 0 0 0-4 4v36-35a4 4 0 0 1 4-4h70a4 4 0 0 1 4 4z" fill="#5fd1ff"/><path d="M27.5 67L23 71.5l1.5 1.5 4.5-4.5 4.5 4.5 1.5-1.5-4.5-4.5 4.5-4.5-1.5-1.5-4.5 4.5-4.5-4.5-1.5 1.5z" fill="#fff"/><path d="M30 28v-6h-2v6h-6v2h6v6h2v-6h6v-2z" fill="#2abff9"/><path d="M60 29h14v2H60z" fill="#fff"/><path d="M60 63h14v2H60zm0 6h14v2H60z" fill="#2abff9"/></g></svg>