<svg width="96" height="96" version="1.1" viewBox="0 0 96 96" xmlns="http://www.w3.org/2000/svg"><title>深度启动盘制作工具-96px</title><defs><linearGradient id="b" x1="28.335" x2="28.335" y1="47.176" y2="94.277" gradientTransform="rotate(45 30.681 65.32) scale(1.08278 .92355)" gradientUnits="userSpaceOnUse"><stop stop-color="#FBCA48" offset="0"/><stop stop-color="#C38F0C" offset="1"/></linearGradient><filter id="a" color-interpolation-filters="sRGB"><feFlood flood-color="#000" flood-opacity=".196" result="flood"/><feComposite in="flood" in2="SourceGraphic" operator="in" result="composite1"/><feGaussianBlur in="composite1" result="blur" stdDeviation="1"/><feOffset dx="0" dy="1" result="offset"/><feComposite in="SourceGraphic" in2="offset" result="composite2"/></filter></defs><g fill-rule="evenodd" filter="url(#a)"><path d="M15.302 80.698C6.14 71.536 4.635 55.303 13.716 46.222L28.03 31.908 64.092 67.97 49.778 82.284c-9.083 9.082-25.312 7.577-34.476-1.586zm4.24-4.24c-4.934-4.935-7.324-13.407-4.886-19.735l24.522 24.522c-6.331 2.435-14.712.137-19.636-4.788z" fill="url(#b)"/><path d="M16.362 79.638C7.2 70.476 5.695 54.243 14.776 45.162l12.193-12.193L63.03 69.031 50.838 81.224c-9.083 9.082-25.312 7.577-34.476-1.586zm-1.706-22.915l24.522 24.522c-6.332 2.435-14.712.137-19.636-4.787-4.935-4.934-7.325-13.407-4.886-19.735z" fill="#f5b923"/><path d="M59.557 6.16l30.282 30.282c1.596 1.597 1.604 4.177.04 5.741L64.092 67.97 28.03 31.908 53.817 6.121c1.574-1.574 4.134-1.567 5.74.04z" fill="#2e2e2e"/><path d="M58.497 7.221l30.282 30.282c1.596 1.596 1.604 4.176.04 5.74L64.092 67.972 28.03 31.909 52.757 7.182c1.574-1.574 4.134-1.567 5.74.04z"/><path d="M59.849 12.816l3.182 3.182-11.667 11.667-3.182-3.182zm20.153 20.153l3.182 3.182-11.667 11.667-3.182-3.182zm-15.91-11.667l3.182 3.182-7.425 7.425-3.182-3.182zm7.425 7.425l3.182 3.182-7.425 7.424-3.182-3.182zM49.243 40.394l-3.182 3.182-3.182-3.182 3.182-3.182zm9.545 9.546l-3.181 3.181-3.183-3.182 3.182-3.182z" fill="#e0c13f"/><path d="M59.849 12.816l3.182 3.182-10.607 10.607-3.182-3.182zm20.153 20.153l3.182 3.182-10.607 10.607-3.182-3.182zm-15.91-11.667l3.182 3.182-6.364 6.364-3.182-3.182zm7.425 7.425l3.182 3.182-6.364 6.364-3.182-3.182zM49.243 40.394l-2.122 2.12-3.182-3.181 2.122-2.121zm9.545 9.546l-2.12 2.12-3.183-3.181 2.121-2.122z" fill="#ffeb95"/><path fill="#c38f0b" d="M15.301 55.243l25.456 25.456-1.59.53L14.77 56.834z"/></g></svg>