<svg width="96" height="96" version="1.1" viewBox="0 0 96 96" xmlns="http://www.w3.org/2000/svg"><title>深度看图-96px</title><defs><linearGradient id="b" x1="40.873" x2="40.873" y1="12.111" y2="84.774" gradientTransform="matrix(1.101 0 0 .9083 3 11)" gradientUnits="userSpaceOnUse"><stop stop-color="#fff" offset="0"/><stop stop-color="#BEC2D0" offset="1"/></linearGradient><linearGradient id="c" x1="40.249" x2="40.249" y1="13.416" y2="84.971" gradientTransform="matrix(1.118 0 0 .89443 3 11)" gradientUnits="userSpaceOnUse"><stop stop-color="#F3F3F3" offset="0"/><stop stop-color="#F1F1F1" offset="1"/></linearGradient><linearGradient id="d" x1="36.742" x2="36.742" y1="77.159" y2="23.047" gradientTransform="matrix(1.2247 0 0 .8165 3 11)" gradientUnits="userSpaceOnUse"><stop stop-color="#FF9191" offset="0"/><stop stop-color="#FFAE00" offset="1"/></linearGradient><linearGradient id="e" x1="54.912" x2="75.525" y1="31.763" y2="56.695" gradientTransform="scale(.9699 1.031)" gradientUnits="userSpaceOnUse"><stop stop-color="#FFE48A" offset="0"/><stop stop-color="#FFC0C1" offset="1"/></linearGradient><linearGradient id="f" x1="55.365" x2="75.586" y1="32.383" y2="56.84" gradientTransform="scale(.97087 1.03)" gradientUnits="userSpaceOnUse"><stop stop-color="#FFD241" offset="0"/><stop stop-color="#FFC0C1" offset="1"/></linearGradient><filter id="a" color-interpolation-filters="sRGB"><feFlood flood-color="#000" flood-opacity=".196" result="flood"/><feComposite in="flood" in2="SourceGraphic" operator="in" result="composite1"/><feGaussianBlur in="composite1" result="blur" stdDeviation="1"/><feOffset dx="0" dy="1" result="offset"/><feComposite in="SourceGraphic" in2="offset" result="composite2"/></filter></defs><g fill-rule="evenodd" filter="url(#a)"><rect x="20" y="14" width="56" height="61" rx="2" fill="#efefef" opacity=".7"/><rect x="14" y="18" width="68" height="61" rx="2" fill="#efefef" opacity=".8"/><rect x="8" y="22" width="80" height="66" rx="2" fill="url(#b)"/><rect x="8" y="23" width="80" height="64" rx="2" fill="url(#c)"/><path fill="url(#d)" d="M12 26h72v48H12z"/><path fill="#ada1fe" d="M31.868 74.014l20.086-26.053L41.802 34.5 12 74.014z"/><path fill="#8173dd" d="M31.868 74.014l20.086-26.053L42.3 35.2 13 74.014z"/><path fill="#a2b7ff" d="M31.868 74.014l20.061-26.087 19.674 26.087H51.736z"/><path fill="#89a1f6" d="M33 74.014L52.5 48.7l19.103 25.314H51.736z"/><path transform="translate(3 11)" fill="url(#e)" d="M68.603 63.014L48.929 36.927l5.767-7.5 25.828 33.587z"/><path transform="translate(3 11)" fill="url(#f)" d="M68.603 63.014L49.5 37.7l5.7-7.6 25.324 32.914z"/><path opacity=".06" d="M12 26h72v1H12z"/><path opacity=".08" d="M14 21h68v1H14z"/><path opacity=".05" d="M20 17h56v1H20z"/><g fill="#fff"><path d="M12 74h72v1H12zM16 18h64c1.2 0 1.75 1 1.75 1H14.3s.5-1 1.7-1z"/><path d="M22 14h52c1.2 0 1.75 1 1.75 1H20.3s.5-1 1.7-1z" opacity=".5"/></g></g></svg>