<svg width="96" height="96" version="1.1" viewBox="0 0 96 96" xmlns="http://www.w3.org/2000/svg" xmlns:xlink="http://www.w3.org/1999/xlink"><title>deepin-picker</title><defs><linearGradient id="b" x1="48" x2="48" y1="6" y2="86.784" gradientUnits="userSpaceOnUse"><stop stop-color="#2E2E2E" offset="0"/><stop stop-color="#121212" offset="1"/></linearGradient><linearGradient id="c" x1="48" x2="48" y1="35.912" y2="88.82" gradientUnits="userSpaceOnUse"><stop stop-color="#333" offset="0"/><stop offset="1"/></linearGradient><linearGradient id="d" x1="20.277" x2="9.862" y1="9.342" y2="21.561" gradientUnits="userSpaceOnUse"><stop stop-color="#7366FF" offset="0"/><stop stop-color="#1696FF" offset="1"/></linearGradient><path id="e" d="M19.164 4.99l6.501 11.26a25.121 25.121 0 0 0-9.415 9.415L4.99 19.163A38.18 38.18 0 0 1 19.164 4.99z"/><linearGradient id="f" x1="35.61" x2="22.196" y1="8.416" y2="8.416" gradientTransform="scale(1.0671 .9371)" gradientUnits="userSpaceOnUse"><stop stop-color="#8D47FF" offset="0"/><stop stop-color="#6671FF" offset="1"/></linearGradient><path id="g" d="M20.039 4.505A37.832 37.832 0 0 1 38 0v13c-4.129 0-8.024 1-11.456 2.773L20.038 4.504z"/><linearGradient id="h" x1="3.159" x2="8.416" y1="37.746" y2="21.896" gradientTransform="scale(.9371 1.0671)" gradientUnits="userSpaceOnUse"><stop stop-color="#30CED6" offset="0"/><stop stop-color="#28BCE3" offset=".316"/><stop stop-color="#1696FF" offset="1"/></linearGradient><path id="i" d="M4.505 20.039l11.268 6.506A24.894 24.894 0 0 0 13 38.001H0A37.83 37.83 0 0 1 4.505 20.04z"/><linearGradient id="j" x1="4.58" x2="2.288" y1="54.497" y2="35.733" gradientTransform="scale(.9483 1.0545)" gradientUnits="userSpaceOnUse"><stop stop-color="#7EE22C" offset="0"/><stop stop-color="#30D6B2" offset="1"/></linearGradient><path id="k" d="M.013 39H13.02a24.862 24.862 0 0 0 3.601 11.966L5.36 57.468A37.8 37.8 0 0 1 .013 39z"/><linearGradient id="l" x1="21.477" x2="10.225" y1="66.982" y2="57.218" gradientTransform="scale(1.0197 .98068)" gradientUnits="userSpaceOnUse"><stop stop-color="#C1EA55" offset="0"/><stop stop-color="#74E126" offset="1"/></linearGradient><path id="m" d="M5.883 58.32l11.274-6.51a25.122 25.122 0 0 0 8.945 8.183l-6.503 11.263A38.185 38.185 0 0 1 5.883 58.32z"/><linearGradient id="n" x1="35.798" x2="22.084" y1="72.422" y2="72.422" gradientTransform="scale(1.0615 .94206)" gradientUnits="userSpaceOnUse"><stop stop-color="#FBEF4D" offset="0"/><stop stop-color="#B9EA56" offset="1"/></linearGradient><path id="o" d="M20.481 71.729l6.51-11.277A24.898 24.898 0 0 0 38 63v13a37.834 37.834 0 0 1-17.52-4.27z"/><linearGradient id="p" x1="50.482" x2="35.911" y1="67.9" y2="73.153" gradientTransform="scale(1.0502 .95216)" gradientUnits="userSpaceOnUse"><stop stop-color="#FFD600" offset="0"/><stop stop-color="#FFED58" offset="1"/></linearGradient><path id="q" d="M39 75.987V62.98a24.86 24.86 0 0 0 11.536-3.346l6.501 11.26A37.802 37.802 0 0 1 39 75.986z"/><linearGradient id="r" x1="65.545" x2="55.91" y1="54.995" y2="66.66" gradientUnits="userSpaceOnUse"><stop stop-color="#FFC134" offset="0"/><stop stop-color="#FBE04D" offset="1"/></linearGradient><path id="s" d="M57.896 70.382l-6.505-11.267a25.132 25.132 0 0 0 7.724-7.724l11.267 6.505a38.198 38.198 0 0 1-12.486 12.486z"/><linearGradient id="t" x1="73.185" x2="77.071" y1="53.499" y2="36.314" gradientTransform="scale(.95216 1.0502)" gradientUnits="userSpaceOnUse"><stop stop-color="#F5B543" offset="0"/><stop stop-color="#EF7640" offset="1"/></linearGradient><path id="u" d="M70.895 57.037l-11.26-6.501A24.863 24.863 0 0 0 62.981 39h13.007a37.8 37.8 0 0 1-5.093 18.037z"/><linearGradient id="v" x1="72.422" x2="69.568" y1="37.891" y2="24.03" gradientTransform="scale(.94206 1.0615)" gradientUnits="userSpaceOnUse"><stop stop-color="#EF7640" offset="0"/><stop stop-color="#FB563F" offset="1"/></linearGradient><path id="w" d="M76 38H63c0-3.95-.916-7.687-2.548-11.008l11.277-6.51A37.838 37.838 0 0 1 76 38z"/><linearGradient id="x" x1="67.142" x2="56.245" y1="23.189" y2="10.918" gradientTransform="scale(.98068 1.0197)" gradientUnits="userSpaceOnUse"><stop stop-color="#FB563F" offset="0"/><stop stop-color="#DA377B" offset="1"/></linearGradient><path id="y" d="M71.256 19.6l-11.263 6.503a25.12 25.12 0 0 0-8.182-8.945l6.51-11.274A38.189 38.189 0 0 1 71.255 19.6z"/><linearGradient id="z" x1="52.425" x2="35.358" y1="8.77" y2="6.62" gradientTransform="scale(1.0545 .9483)" gradientUnits="userSpaceOnUse"><stop stop-color="#DA377B" offset="0"/><stop stop-color="#894CEC" offset="1"/></linearGradient><path id="A" d="M57.468 5.359l-6.502 11.262A24.863 24.863 0 0 0 39 13.02V.013a37.8 37.8 0 0 1 18.468 5.346z"/><linearGradient id="D" x1="33.664" x2="33.664" y1="26.778" y2="1.49" gradientTransform="scale(.6764 1.4784)" gradientUnits="userSpaceOnUse"><stop stop-color="#ECFFE8" offset="0"/><stop stop-color="#fff" offset="1"/></linearGradient><path id="C" d="M22.77 43.618c6.5-18.324 9.75-29.281 9.75-32.871 0-5.385-4.365-9.75-9.75-9.75s-9.75 4.365-9.75 9.75c0 3.59 3.25 14.547 9.75 32.871z"/><filter id="B" x="-15.4%" y="-7%" width="151.3%" height="123.5%"><feMorphology in="SourceAlpha" operator="dilate" radius="1" result="shadowSpreadOuter1"/><feOffset dx="2" dy="2" in="shadowSpreadOuter1" result="shadowOffsetOuter1"/><feGaussianBlur in="shadowOffsetOuter1" result="shadowBlurOuter1" stdDeviation="1"/><feComposite in="shadowBlurOuter1" in2="SourceAlpha" operator="out" result="shadowBlurOuter1"/><feColorMatrix in="shadowBlurOuter1" values="0 0 0 0 0 0 0 0 0 0 0 0 0 0 0 0 0 0 0.2 0"/></filter><linearGradient id="E" x1="33.74" x2="6.533" y1="21.423" y2="44.059" gradientTransform="scale(1.1788 .84832)" gradientUnits="userSpaceOnUse"><stop stop-color="#F5B543" offset="0"/><stop stop-color="#FBE04D" offset=".38"/><stop stop-color="#D9EA56" offset=".74"/><stop stop-color="#7BD938" offset="1"/></linearGradient><filter id="a" color-interpolation-filters="sRGB"><feFlood flood-color="#000" flood-opacity=".196" result="flood"/><feComposite in="flood" in2="SourceGraphic" operator="in" result="composite1"/><feGaussianBlur in="composite1" result="blur" stdDeviation="1"/><feOffset dx="0" dy="1" result="offset"/><feComposite in="SourceGraphic" in2="offset" result="composite2"/></filter></defs><g filter="url(#a)"><circle cx="48" cy="48" r="42" fill="url(#b)" fill-rule="evenodd"/><path d="M48 7C25.356 7 7 25.356 7 48s18.356 41 41 41 41-18.356 41-41S70.644 7 48 7zm0-1c23.196 0 42 18.804 42 42S71.196 90 48 90 6 71.196 6 48 24.804 6 48 6z" fill="url(#c)"/><g transform="translate(10 10)" fill="none" fill-rule="evenodd"><use width="100%" height="100%" fill="url(#d)" fill-rule="evenodd" xlink:href="#e"/><path d="M19.348 4.308l7.002 12.128-.438.249a24.621 24.621 0 0 0-9.227 9.228l-.249.437-12.128-7.002.247-.432a38.685 38.685 0 0 1 14.36-14.36z" stroke="#000" stroke-opacity=".2"/><use width="100%" height="100%" fill="url(#f)" fill-rule="evenodd" xlink:href="#g"/><path d="M19.802 4.064A38.33 38.33 0 0 1 38-.5h.5v14H38c-3.96 0-7.785.94-11.226 2.717l-.424.22-7.002-12.129z" stroke="#000" stroke-opacity=".2"/><use width="100%" height="100%" fill="url(#h)" fill-rule="evenodd" xlink:href="#i"/><path d="M4.308 19.348l12.128 7.002-.219.424A24.39 24.39 0 0 0 13.5 38v.5h-14V38c0-6.438 1.582-12.65 4.564-18.198z" stroke="#000" stroke-opacity=".2"/><use width="100%" height="100%" fill="url(#j)" fill-rule="evenodd" xlink:href="#k"/><path d="M-.5 38.5h14l.02.48a24.36 24.36 0 0 0 3.529 11.726l.265.437-12.13 7.004-.253-.422A38.297 38.297 0 0 1-.486 39.013z" stroke="#000" stroke-opacity=".2"/><use width="100%" height="100%" fill="url(#l)" fill-rule="evenodd" xlink:href="#m"/><path d="M5.182 58.148l12.132-7.005.26.392a24.621 24.621 0 0 0 8.766 8.019l.452.244-7.005 12.133-.43-.238A38.69 38.69 0 0 1 5.46 58.588z" stroke="#000" stroke-opacity=".2"/><use width="100%" height="100%" fill="url(#n)" fill-rule="evenodd" xlink:href="#o"/><path d="M19.787 71.932l7.006-12.135.42.206A24.397 24.397 0 0 0 38 62.5h.5v14H38a38.333 38.333 0 0 1-17.75-4.327z" stroke="#000" stroke-opacity=".2"/><use width="100%" height="100%" fill="url(#p)" fill-rule="evenodd" xlink:href="#q"/><path d="M38.5 76.5V62.499l.48-.019a24.362 24.362 0 0 0 11.305-3.279l.434-.251 7.001 12.126-.432.25a38.296 38.296 0 0 1-18.275 5.16z" stroke="#000" stroke-opacity=".2"/><use width="100%" height="100%" fill="url(#r)" fill-rule="evenodd" xlink:href="#s"/><path d="M57.72 71.077L50.718 58.95l.405-.257a24.632 24.632 0 0 0 7.57-7.57l.257-.405 12.127 7.002-.27.438a38.694 38.694 0 0 1-12.649 12.649z" stroke="#000" stroke-opacity=".2"/><use width="100%" height="100%" fill="url(#t)" fill-rule="evenodd" xlink:href="#u"/><path d="M71.077 57.72l-12.126-7.001.252-.434A24.361 24.361 0 0 0 62.48 38.98l.02-.48h14l-.013.513a38.297 38.297 0 0 1-5.16 18.275z" stroke="#000" stroke-opacity=".2"/><use width="100%" height="100%" fill="url(#v)" fill-rule="evenodd" xlink:href="#w"/><path d="M76.5 38.5h-14V38c0-3.792-.862-7.46-2.497-10.788l-.206-.42 12.135-7.006.241.464A38.333 38.333 0 0 1 76.5 38z" stroke="#000" stroke-opacity=".2"/><use width="100%" height="100%" fill="url(#x)" fill-rule="evenodd" xlink:href="#y"/><path d="M71.931 19.787l-12.133 7.005-.245-.451a24.621 24.621 0 0 0-8.019-8.767l-.391-.26 7.005-12.131.44.279a38.682 38.682 0 0 1 13.105 13.896z" stroke="#000" stroke-opacity=".2"/><use width="100%" height="100%" fill="url(#z)" fill-rule="evenodd" xlink:href="#A"/><path d="M58.147 5.183l-7.004 12.13-.437-.265a24.361 24.361 0 0 0-11.726-3.53l-.48-.018V-.501l.513.013A38.297 38.297 0 0 1 57.725 4.93z" stroke="#000" stroke-opacity=".2"/></g><g fill="none" fill-rule="evenodd"><g transform="rotate(45 -9.772 59.828)"><use width="100%" height="100%" fill="#000" filter="url(#B)" xlink:href="#C"/><use width="100%" height="100%" fill="url(#D)" fill-rule="evenodd" xlink:href="#C"/><path d="M22.299 43.785c-6.527-18.401-9.779-29.364-9.779-33.038 0-5.66 4.59-10.25 10.25-10.25s10.25 4.59 10.25 10.25c0 3.675-3.252 14.638-9.779 33.038l-.47 1.329z" stroke="#000" stroke-opacity=".1"/></g><path d="M8.32 36.082c-.205.427-.41.858-.618 1.295C25.255 29.016 35.3 23.566 37.84 21.027a9.725 9.725 0 0 0 2.843-7.394 9.714 9.714 0 0 1-2.843 6.395c-2.509 2.508-12.348 7.86-29.52 16.055z" fill="url(#E)" fill-opacity=".8" transform="translate(17 34)"/><path d="M57.682 48.633a9.725 9.725 0 0 0-2.843-7.394c-3.808-3.808-9.981-3.808-13.789 0-2.538 2.538-7.988 12.584-16.349 30.138l.618-.295C33.33 54.33 38.575 44.714 41.049 42.24c3.808-3.807 9.982-3.807 13.79 0a9.714 9.714 0 0 1 2.843 6.394z" fill="#fff" fill-opacity=".5"/><path d="M48 53.25a5.25 5.25 0 1 0 0-10.5 5.25 5.25 0 0 0 0 10.5z" fill="#7bd938" fill-rule="nonzero" stroke="#5ac50e"/></g></g></svg>