<svg width="96" height="96" version="1.1" viewBox="0 0 96 96" xmlns="http://www.w3.org/2000/svg"><title>ISO安装器-96px</title><defs><linearGradient id="b" x1="21.831" x2="21.831" y1="74.9" y2="114.41" gradientTransform="scale(2.1949 .45561)" gradientUnits="userSpaceOnUse"><stop stop-color="#FFDB86" offset="0"/><stop stop-color="#FFB036" offset="1"/></linearGradient><filter id="a" color-interpolation-filters="sRGB"><feFlood flood-color="#000" flood-opacity=".196" result="flood"/><feComposite in="flood" in2="SourceGraphic" operator="in" result="composite1"/><feGaussianBlur in="composite1" result="blur" stdDeviation="1"/><feOffset dx="0" dy="1" result="offset"/><feComposite in="SourceGraphic" in2="offset" result="composite2"/></filter></defs><g fill-rule="evenodd" filter="url(#a)"><path d="M56.983 5.295c-16.96-4.96-34.726 4.764-39.688 21.724-4.96 16.958 4.766 34.726 21.726 39.686 16.956 4.96 34.726-4.764 39.684-21.722 4.96-16.962-4.766-34.728-21.722-39.688z" fill="#eef3f7"/><path d="M56.702 6.255C40.272 1.45 23.061 10.87 18.254 27.3c-4.805 16.428 4.617 33.64 21.047 38.445 16.426 4.805 33.641-4.615 38.444-21.043C82.55 28.27 73.128 11.06 56.702 6.254z" fill="#fff"/><path d="M57.576 9.623C53.552 8.155 49.43 7.76 45.43 8.131c-4.638.366-6.902 1.802-6.768 1.542-7.584 2.708-13.996 8.532-16.966 16.7-5.288 14.546 2.202 30.632 16.726 35.928 14.53 5.296 30.592-2.204 35.88-16.75 5.29-14.546-2.2-30.63-16.726-35.928zM39.378 59.671a25.12 25.12 0 0 1-4.356-2.108c6.768.52 15.6-1.04 21.556-6.614 0 0 11.354-9.072 3.14-23.96 0 0 1.324 6-.364 10.936 0 0-1.61 6.712-8.766 8.662-10.54 2.872-22.55-4.506-27.57-8.08-.378-3.674-.042-7.47 1.304-11.174 1.996-5.488 5.748-9.77 10.332-12.646-1.146 8.018-.24 15.4 1.062 18.492 1.748 4.146 4.786 8.982 10.712 9.602 5.926.622 9.194-4.924 9.194-4.924 3.04-4.62 3.516-11.254 3.47-11.414-.046-.162-.81-.6-.81-.6-2.046 8.28-5.42 11.046-5.42 11.046-5.32 5.136-9.088 1.574-9.088 1.574-4.05-4.35-1.214-11.42-1.214-11.42 1.586-4.816 6.208-11.864 11.446-15.448.872.216 1.75.35 2.612.664a24.993 24.993 0 0 1 8.294 5.038c-3.83 1.398-10.014 4.354-10.014 4.354-9.802 4.128-10.464 10.372-10.464 10.372-1.014 6.436 4.092 3.712 4.092 3.712 5.256-2.56 7.838-10.538 7.838-10.538-1.64-.312-2.932.186-2.932.186-2.098 5.178-6.378 7.308-6.378 7.308-1.684.892-2.076-.684-2.076-.684-.284-1.18 1.218-1.382 1.218-1.382 2.332-.906 3.824-3.356 4.162-4.358.336-1.004.962-1.082.962-1.082 3.196-1.02 6.11-1.248 6.11-1.248 3.968-.488 10.042 1.404 10.042 1.404a37.63 37.63 0 0 0 3.828 1.286c2.226 5.562 2.578 11.896.372 17.968-4.756 13.09-19.216 19.842-32.294 15.076z" fill="#00b7ff" opacity=".8"/><rect x="12" y="36" width="72" height="52" rx="2" fill="#c58331"/><path d="M12 37.999c0-1.104.897-2 2-2H82a2 2 0 0 1 2 2V85c0 1.104-.897 2-2 2H14A2 2 0 0 1 12 85z" fill="#d69a4e"/><path d="M91.115 50.175c.45 1.008-.087 1.825-1.19 1.825H5.91c-1.107 0-1.64-.82-1.193-1.825l6.378-14.35C11.544 34.817 12.804 34 13.907 34h67.999c1.104 0 2.366.82 2.814 1.825z" fill="url(#b)"/><path d="M83.37 35.048c.554 0 1.186.41 1.41.915l6.288 14.109c.225.504-.04.914-.601.914l-85.124.051c-.557 0-.826-.412-.606-.907l6.318-14.214c.223-.501.85-.908 1.406-.907z" fill="#ffcd6f"/><g fill="#b08043"><path d="M41.904 66.655h-4.15l.002-.694c0-.236.222-.468.463-.469h3.462c.208 0 .45.237.45.466-.002.181-.004.292-.004.465 0 0 0 .232-.223.232m1.144 3.253c.238 0 .239-.215.239-.237l-.002-.69c0-.233-.233-.236-.233-.236l-4.84-.004c-.464 0-.457-.453-.457-.453-.006-.03 0-.473 0-.473h4.608c1.279 0 1.15-.93 1.15-.93v-.922s.124-1.637-1.61-1.637h-3.881c-1.764 0-1.645 1.615-1.645 1.615v2.337c0 1.63 1.615 1.622 1.615 1.622zM34.527 68.517s.004.227-.23.227c-.251 0-1.477.003-2.23 0-.754-.002-1.678-.169-1.678-1.61s1.026-1.64 1.667-1.64l2.47.002v3.021m1.154-6.285h-.919s-.23 0-.23.24l-.001 1.853h-2.983c-2.167 0-2.549 1.895-2.547 2.794.002.9.39 2.784 2.581 2.782 2.192-.002 2.253.003 3.18.003 1.15 0 1.151-1.156 1.151-1.156v-6.283c0-.233-.232-.233-.232-.233M60.094 63.628h-.921a.232.232 0 0 1-.23-.233v-.93c0-.128.103-.232.23-.232h.921c.127 0 .23.104.23.232v.93a.232.232 0 0 1-.23.233M60.094 69.907h-.921a.232.232 0 0 1-.23-.233v-5.116c0-.128.103-.232.23-.232h.921c.127 0 .23.104.23.232v5.116a.232.232 0 0 1-.23.233M64.47 64.327c-1.692-.002-3.685 0-3.685 0v5.344c0 .105.067.26.276.234l.804-.003c.318.046.308-.235.308-.235l-.006-4.175 2.301-.002c.039 0 .93.018.93 1.161l-.006 3.024c0 .128.103.233.23.233l.92-.001c.128 0 .231-.104.231-.233v-3.129c0-1.289-.611-2.216-2.303-2.218M52.955 65.712s-.004-.227.23-.227c.251 0 1.477-.003 2.23 0 .754.002 1.678.169 1.678 1.61s-1.026 1.64-1.667 1.64l-2.47-.002v-3.021m-1.152 6.285h.917s.23 0 .23-.24l.001-1.853h2.983c2.167 0 2.55-1.895 2.547-2.794-.002-.9-.39-2.784-2.581-2.782-2.192.002-2.251-.003-3.18-.003-1.148 0-1.148 1.156-1.148 1.156v6.283c0 .233.231.233.231.233M49.504 66.655h-4.15l.002-.694c0-.236.222-.468.463-.469h3.462c.208 0 .45.237.45.466-.002.181-.004.292-.004.465 0 0 0 .232-.223.232m1.144 3.253c.238 0 .239-.215.239-.237l-.002-.69c0-.233-.233-.236-.233-.236l-4.84-.004c-.465 0-.457-.453-.457-.453-.006-.03 0-.473 0-.473h4.608c1.279 0 1.15-.93 1.15-.93v-.922s.124-1.637-1.61-1.637h-3.881c-1.764 0-1.645 1.615-1.645 1.615v2.337c0 1.63 1.615 1.622 1.615 1.622z"/></g></g></svg>