<svg width="96" height="96" version="1.1" viewBox="0 0 96 96" xmlns="http://www.w3.org/2000/svg"><title>深度云扫描-96px</title><defs><linearGradient id="b" x1="34.467" x2="34.467" y1="1.537" y2="66.95" gradientTransform="scale(1.2766 .78333)" gradientUnits="userSpaceOnUse"><stop stop-color="#fff" offset="0"/><stop stop-color="#C0E9FE" offset="1"/></linearGradient><linearGradient id="c" x1="34.467" x2="34.467" y2="68.238" gradientTransform="scale(1.2766 .78335)" gradientUnits="userSpaceOnUse"><stop stop-color="#EBF9FF" offset="0"/><stop stop-color="#C4E6F8" offset="1"/></linearGradient><linearGradient id="d" x1="66.096" x2="66.096" y1="44.223" y2="46.932" gradientTransform="scale(1.1952 .83666)" gradientUnits="userSpaceOnUse"><stop stop-color="#fff" offset="0"/><stop stop-color="#fff" stop-opacity="0" offset="1"/></linearGradient><filter id="a" color-interpolation-filters="sRGB"><feFlood flood-color="#000" flood-opacity=".196" result="flood"/><feComposite in="flood" in2="SourceGraphic" operator="in" result="composite1"/><feGaussianBlur in="composite1" result="blur" stdDeviation="1"/><feOffset dx="0" dy="1" result="offset"/><feComposite in="SourceGraphic" in2="offset" result="composite2"/></filter></defs><g transform="translate(4 8)" fill-rule="evenodd" filter="url(#a)"><path d="M88 36.406c0-7.992-5.45-14.728-12.908-16.868C72.95 11.31 65.35 5.214 56.276 5.214c-2.64 0-5.152.52-7.448 1.452A21.718 21.718 0 0 0 33.12 0C21.312 0 11.732 9.286 11.55 20.802 4.818 23.18-.002 29.47-.002 36.878c0 9.394 7.738 17.012 17.314 17.098v.022H70.58v-.032C80.247 53.68 88 45.938 88 36.406z" fill="url(#b)"/><path d="M75.176 19.162C72.81 10.91 65.043 5.075 56.068 5.075c-2.637 0-6.069.925-7.117 1.302C44.85 2.329 39.27 0 33.305 0 21.308 0 12 8.5 11.403 20.454 4.594 23.034 0 29.404 0 36.627 0 46.165 7.93 53.913 17.76 54l52.392-.01C80.081 53.699 88 45.818 88 36.167c0-7.976-5.5-14.667-12.824-17.005zM70.107 52.53l-52.342.03c-9.007-.1-16.274-7.2-16.274-15.933 0-6.755 4.394-12.7 10.861-14.961l.487-.17.008-.506C13.02 10.164 22.12 1.46 33.305 1.46c5.715 0 11.049 2.292 14.9 6.261l.353.363.472-.19a18.823 18.823 0 0 1 7.038-1.359c8.438 0 15.718 5.572 17.774 13.395l.106.403.408.116c7.15 2.032 12.151 8.4 12.151 15.718 0 8.857-7.272 16.096-16.4 16.363z" fill="url(#c)"/><circle cx="78.988" cy="39.02" r="3" fill="#00b0df"/><rect x="16" y="26" width="56" height="54" rx="2" fill="#acdcfc"/><rect x="20" y="74" width="48" height="3" rx="1" fill="#fff"/><path fill="#145cb0" d="M20 30h48v46H20z"/><path fill="#0070ff" d="M21 31h46v44H21z"/><g fill="#fff"><path opacity=".5" d="M30 70V36h20l8 8v26z"/><path d="M33 42h15v1H33zm22 5v1H33v-1zm0 11v1H33v-1zm-8 5h8v1h-8z" opacity=".505"/><path fill-opacity=".5" d="M58 44h-8v-8z"/></g><path d="M16 54c-3.758-.705-5-1.3-5-1.3L16 28s-.008 20.045 0 26zM72 53.9c3.758-.505 5-1.4 5-1.4L72 28s.008 20.145 0 25.9z" fill="#338dbc" fill-opacity=".4"/><path opacity=".1" d="M58 44v26H29.997V36h-1v34.973H29V71h30V44l-8-8h-1z"/><path d="M23 55v1c0 .552-.444 1-1 1h-1v-6h1c.552 0 1 .444 1 1v1h42v-1c0-.552.444-1 1-1h1v6h-1c-.552 0-1-.444-1-1v-1z" fill="#00fff3" opacity=".3"/><path d="M23 54v1c0 .552-.444 1-1 1h-1v-6h1c.552 0 1 .444 1 1v1h42v-1c0-.552.444-1 1-1h1v6h-1c-.552 0-1-.444-1-1v-1z" fill="#fff"/><circle cx="79" cy="39" r="2" fill="#31d4ff"/><ellipse cx="79" cy="38.167" rx="1.667" ry="1.167" fill="url(#d)"/></g></svg>