<svg width="96" height="96" version="1.1" viewBox="0 0 96 96" xmlns="http://www.w3.org/2000/svg"><title>深度终端-96px</title><defs><linearGradient id="b" x1="45.537" x2="45.537" y1="14.757" y2="89.442" gradientTransform="scale(1.0541 .94868)" gradientUnits="userSpaceOnUse"><stop stop-color="#FF5E70" offset="0"/><stop stop-color="#CA2935" offset="1"/></linearGradient><linearGradient id="c" x1="44.9" x2="44.9" y1="16.036" y2="90.869" gradientTransform="scale(1.069 .93541)" gradientUnits="userSpaceOnUse"><stop stop-color="#EC3F4C" offset="0"/><stop stop-color="#DE434E" offset="1"/></linearGradient><filter id="a" color-interpolation-filters="sRGB"><feFlood flood-color="#000" flood-opacity=".196" result="flood"/><feComposite in="flood" in2="SourceGraphic" operator="in" result="composite1"/><feGaussianBlur in="composite1" result="blur" stdDeviation="1"/><feOffset dx="0" dy="1" result="offset"/><feComposite in="SourceGraphic" in2="offset" result="composite2"/></filter></defs><g fill-rule="evenodd" filter="url(#a)"><path d="M8 16.001c0-1.105.898-2 1.998-2h76.004A2 2 0 0 1 88 16v67.998c0 1.105-.898 2-1.998 2H9.998A2 2 0 0 1 8 84z" fill="url(#b)"/><path d="M8 17.001c0-1.105.898-2 1.998-2h76.004A2 2 0 0 1 88 17v65.998c0 1.105-.898 2-1.998 2H9.998A2 2 0 0 1 8 83z" fill="url(#c)"/><path d="M32.384 37.442l-14.767 8.614a2.25 2.25 0 1 0 2.267 3.887l18-10.5c1.489-.868 1.489-3.019 0-3.887l-18-10.5a2.25 2.25 0 1 0-2.267 3.887z" fill="#ca353f"/><path d="M32.384 35.942l-14.767 8.614a2.25 2.25 0 1 0 2.267 3.887l18-10.5c1.489-.868 1.489-3.019 0-3.887l-18-10.5a2.25 2.25 0 1 0-2.267 3.887z" fill="#fff0f0"/><path d="M31.089 36.697l-13.473 7.86a2.25 2.25 0 0 0-.988 2.693 2.24 2.24 0 0 1 .988-1.194l14.767-8.614zm7.784.053a2.248 2.248 0 0 0-.99-2.694l-18-10.5a2.25 2.25 0 0 0-3.255 2.693 2.25 2.25 0 0 1 3.255-1.193l18 10.5c.494.288.824.717.99 1.194z" fill="#fff"/><path d="M56.869 58c1.177 0 2.13-1.12 2.13-2.5s-.953-2.5-2.13-2.5H36.13C34.953 53 34 54.12 34 55.5s.953 2.5 2.13 2.5z" fill="#ca3540"/><path d="M56.455 57c1.13 0 2.546-1.12 2.546-2.5S57.584 52 56.454 52H36.546C35.416 52 34 53.12 34 54.5s1.416 2.5 2.546 2.5z" fill="#fff0f0"/><path d="M59 54.5c0-1.38-1.323-2.5-2.5-2.5h-20c-1.177 0-2.5 1.12-2.5 2.5 0 0 .5-1.5 2.5-1.5h20c2 0 2.5 1.5 2.5 1.5z" fill="#fff"/></g></svg>