<svg width="96" height="96" version="1.1" viewBox="0 0 96 96" xmlns="http://www.w3.org/2000/svg" xmlns:xlink="http://www.w3.org/1999/xlink"><title>软件包安装器-96px</title><defs><path id="b" d="M76 26h1.905c1.105 0 2.367.82 2.814 1.825l6.396 14.35c.449 1.008-.087 1.825-1.19 1.825H80v33.993A2.005 2.005 0 0 1 78 80H10c-1.105 0-2-.903-2-2.007V44H1.91C.802 44 .27 43.18.716 42.175l6.378-14.35C7.543 26.817 8.804 26 9.907 26H12V2c0-1.16.754-2 2-2h42.02L76 20v6z"/><linearGradient id="c" x1="21.831" x2="21.831" y1="74.9" y2="85.096" gradientTransform="scale(2.1949 .45561)" gradientUnits="userSpaceOnUse"><stop stop-color="#fff" offset="0"/><stop stop-color="#C9DAE9" offset="1"/></linearGradient><filter id="a" color-interpolation-filters="sRGB"><feFlood flood-color="#000" flood-opacity=".196" result="flood"/><feComposite in="flood" in2="SourceGraphic" operator="in" result="composite1"/><feGaussianBlur in="composite1" result="blur" stdDeviation="1"/><feOffset dx="0" dy="1" result="offset"/><feComposite in="SourceGraphic" in2="offset" result="composite2"/></filter></defs><g filter="url(#a)"><use transform="translate(4 8)" width="100%" height="100%" fill-opacity="0" xlink:href="#b"/><g fill-rule="evenodd"><path d="M78.002 86H18c-1.247 0-2-.952-2-2V10c0-1.16.753-2 2-2h42.02L80 28v56c-.064 2-1.998 2-1.998 2z" fill="#92d700"/><path d="M78.002 86H18c-1.247 0-2-.952-2-2V10c0-1.16.753-2 2-2h42.02L80 28v56c-.064 2-1.998 2-1.998 2z" fill="#d70751"/><path d="M16 84c0 1.048.753 2 2 2h60.002s1.934 0 1.998-2v-1c-.064 2-1.998 2-1.998 2H18c-1.247 0-2-.952-2-2z" opacity=".1"/><path d="M16 10c0-1.16.753-2 2-2h42.02v1H18c-1.247 0-2 .84-2 2v36.5z" fill="#fff" opacity=".197"/><path d="M32.147 68.843c-.017.015-.017 2.439-.05 3.071-.035.512-.086 1.611-1.315 1.611-1.262 0-1.57-1.28-1.672-1.836-.12-.618-.12-1.13-.12-1.355 0-.723.052-2.741 1.98-2.741.58 0 .904.15 1.16.27l.017.98zm-4.948 1.777c0-1.747.495-4.096 3.549-4.096.7 0 1.11.105 1.433.195 0-1.987 0-2.212-.46-2.65 1.16-.09 1.69-.255 2.303-.511-.221 1.174-.221 5.044-.221 7.332 0 2.35.204 3.434.477 3.915-.153-.015-.29-.03-.426-.03-.137-.015-.29-.015-.478-.015-.529 0-.853.03-1.177.045l-.035-1.34c-.29.888-.972 1.4-2.03 1.4-.375 0-2.935 0-2.935-4.245zm13.86-.618l-.032.888h-4.54c0 .738.034 2.876 2.696 2.876 1.024 0 1.485-.256 1.844-.452-.103.467-.189.813-.172 1.355-.307.076-.87.226-2.03.226-2.611 0-4.163-1.205-4.163-4.26 0-.723 0-4.126 3.48-4.126 2.526 0 2.918 1.732 2.918 3.493zm-4.606-.15h2.918c.033-1.07-.068-2.365-1.4-2.365-1.21 0-1.5 1.115-1.518 2.364zm5.261 2.439v-3.704c0-3.237 0-4.232-.665-4.472.733-.06 1.416-.135 2.525-.587-.136 1.37-.153 4.05-.153 4.818.256-.618.734-1.822 2.372-1.822.819 0 1.587.362 2.064 1.069.494.753.563 1.942.563 2.484 0 .888-.17 2.063-.665 2.936-1.041 1.882-2.97 1.882-3.635 1.882-1.041 0-1.91-.135-2.61-.376.204-.482.204-1.114.204-2.228zm4.897-1.641c0-1.174-.256-2.755-1.553-2.755-.153 0-.955.014-1.313 1.083-.12.332-.273 1.009-.273 2.304 0 1.084 0 2.017.034 2.56.222.044.563.09.836.09 1.98 0 2.27-1.882 2.27-3.283zm5.09 4.155a6.89 6.89 0 0 0-1.077-.075c-.545 0-.921.03-1.313.075.17-.286.239-.422.29-1.4.068-1.34.085-4.924-.034-5.677-.085-.572-.238-.662-.477-.813 1.399-.12 1.791-.21 2.44-.481-.137.662-.155.994-.155 2.002-.033 5.195-.05 5.752.325 6.369zm.77-2.409c0-2.018 1.434-2.755 3.602-2.755.46 0 .734.03 1.058.045 0-1.174 0-2.003-1.417-2.003-.886 0-1.757.271-2.423.783a3.635 3.635 0 0 0-.529-1.264c.495-.226 1.485-.678 3.174-.678 2.56 0 2.901 1.129 2.901 2.274l-.017 3.071c0 .798 0 1.37.034 1.942.052.587.154.738.341.994-.29-.015-.563-.045-.853-.045-.512 0-.819.03-1.126.045-.051-.527-.069-.933-.051-1.596-.325.632-.853 1.657-2.423 1.657-.137 0-.564 0-.99-.166-.956-.407-1.28-1.355-1.28-2.304zm4.694-1.852h-.906c-.647 0-2.081.106-2.081 1.52 0 .739.221 1.491 1.246 1.491.444 0 1.04-.196 1.399-.873.29-.527.308-1.19.342-2.138zm9.828 2.77c.017.513.017 1.055.256 1.491-.376-.03-.598-.075-1.297-.075-.41 0-.631.03-.956.075.068-.195.103-.27.137-.527.051-.346.086-1.505.086-1.912V70.74c0-.708 0-1.732-.052-2.093-.034-.256-.119-.948-1.11-.948-.972 0-1.296.632-1.416 1.144-.136.527-.136 1.1-.136 3.327.017 1.928.017 2.108.187 2.635-.29-.03-.648-.06-1.16-.06-.41 0-.682.015-1.023.06.12-.241.188-.361.222-1.204.034-.829.102-4.894-.052-5.857-.085-.588-.256-.723-.443-.874 1.382-.06 1.825-.256 2.252-.45v1.595c.205-.468.631-1.506 2.338-1.506 2.133 0 2.15 1.37 2.167 2.273zm-15.149-9.011l-1.413 1.246-1.413-1.246 1.413-1.247zm7.766-28.955l-.34.72c.503-1.52.214-3.176.284-4.607l-.14-.038c-.123-3.6-3.236-7.426-6.005-8.721-2.388-1.103-6.064-1.292-7.761-.461.233-.207 1.165-.294.884-.453-2.659.264-2.064.927-4.103 1.447-.559.54 1.632-.433.453.266-1.093.302-1.602-.19-3.222 1.487.144.232 1.028-.69.29.236-1.522-.188-4.809 3.483-5.507 4.7l.365.063c-.599 1.501-1.387 2.459-1.494 3.358-.155 2.211-.927 6.244.145 7.482l-.105 1.035c.147.294.259.592.441.869l-.238.019c1.128 3.558 1.212.066 2.701 3.761-.216-.072-.434-.152-.749-.577-.038.324.459 1.297 1.048 2.056l-.25.285c.329.597.631.728.86.935-1.227-.669 1.136 2.205 1.35 2.572l.188-.336c-.028.483.346 1.106 1.046 1.969l.583-.023c.24.476 1.118 1.332 1.65 1.373l-.354.462c1.337.423.65.561 2.293 1.143l-.332-.586c.838.727 1.097 1.363 2.28 1.921 1.64.572 1.858.345 3.541.827-1.427-.04-3.104-.026-4.232-.43-7.697-2.084-14.738-11.113-14.223-20.413-.118-1.883.187-4.235-.126-4.704.44-1.433.95-3.18 1.975-5.258-.074-.14.169.407.69-.482.316-.694.575-1.458.972-2.133l.205-.048c.206-1.192 2.78-3.018 3.546-3.938l.052.352c1.672-1.568 4.651-2.619 6.328-3.368-.44.488.987-.048 2.015-.11-.324.181-.646.323-.95.536 1.234-.295 1.175.12 2.437-.046-.443.064-.98.24-.895.307 1.41.163 1.625-.436 2.929-.001l-.082-.386c1.812.654 2.19.543 4.16 1.588.69.034.76-.426 1.804-.001.183.322-.042.382 1.24 1.145.143-.057-.255-.42-.57-.707 2.579 1.378 5.38 4.315 6.235 7.46-.8-1.475-.082.752-.358.635.357.962.65 1.957.83 2.983-.237-.841-.753-2.874-1.657-4.185-.074.846-1.167-.584-.57 1.278.455.66.092-.669.654.504.009.557.22 1.11.344 1.836-.191-.031-.428-.802-.568-.587.194.913.514 1.389.635 1.46-.062.152-.224-.143-.235.478.075 1.43.4.826.556.894-.157.704-.787 1.532-.475 2.743-.09-.368-.265-.737-.396-1.084-.123 1.034.229 1.235-.249 2.488.344-1.13.307-2.149-.018-1.658.144 1.605-1.27 2.838-1.116 3.853l-.411-.565c-1.114 1.613-.027.888-.784 2.11.278-.48-.145-.197.216-.741-.24.014-1.071 1.022-1.833 1.615-2.99 2.397-6.56 2.71-10.017 1.42-.134.11.617.699 1.172.983 1.316.487 2.805.507 3.977.463-2.533 1.06-7.37-1.076-8.952-3.908.358.077 1.584 1.991 2.502 2.301-.542-.434-.962-.987-1.351-1.556a7.947 7.947 0 0 0 2.597 1.986c-.061-.237.27-.284-.19-.595-2.931-2.246-4.663-4.154-4.061-8.572.446-.338.565-2.18 1.59-2.826.625-1.38 2.498-2.652 4.5-2.685 2.041-.111 3.765 1.092 4.631 2.226-1.576-1.47-4.157-1.917-6.358-.828-2.25 1.014-3.585 3.492-3.39 5.96.083-.122.157-.046.197-.35-.069 4.796 5.17 8.312 8.94 6.537l.045.1c1.53-.417 1.332-.761 2.332-1.448-.078.161-.673.573-.318.58.486-.13 2.005-1.543 2.752-2.207.343-.739-.183-.4.296-1.329l.585-.291c.325-.94.685-1.471.644-2.565z" fill="#c10648"/><path d="M32.147 67.843c-.017.015-.017 2.439-.05 3.071-.035.512-.086 1.611-1.315 1.611-1.262 0-1.57-1.28-1.672-1.836-.12-.618-.12-1.13-.12-1.355 0-.723.052-2.741 1.98-2.741.58 0 .904.15 1.16.27l.017.98zm-4.948 1.777c0-1.747.495-4.096 3.549-4.096.7 0 1.11.105 1.433.195 0-1.987 0-2.212-.46-2.65 1.16-.09 1.69-.255 2.303-.511-.221 1.174-.221 5.044-.221 7.332 0 2.35.204 3.434.477 3.915-.153-.015-.29-.03-.426-.03-.137-.015-.29-.015-.478-.015-.529 0-.853.03-1.177.045l-.035-1.34c-.29.888-.972 1.4-2.03 1.4-.375 0-2.935 0-2.935-4.245zm13.86-.618l-.032.888h-4.54c0 .738.034 2.876 2.696 2.876 1.024 0 1.485-.256 1.844-.452-.103.467-.189.813-.172 1.355-.307.076-.87.226-2.03.226-2.611 0-4.163-1.205-4.163-4.26 0-.723 0-4.126 3.48-4.126 2.526 0 2.918 1.732 2.918 3.493zm-4.606-.15h2.918c.033-1.07-.068-2.365-1.4-2.365-1.21 0-1.5 1.115-1.518 2.364zm5.261 2.439v-3.704c0-3.237 0-4.232-.665-4.472.733-.06 1.416-.135 2.525-.587-.136 1.37-.153 4.05-.153 4.818.256-.618.734-1.822 2.372-1.822.819 0 1.587.362 2.064 1.069.494.753.563 1.942.563 2.484 0 .888-.17 2.063-.665 2.936-1.041 1.882-2.97 1.882-3.635 1.882-1.041 0-1.91-.135-2.61-.376.204-.482.204-1.114.204-2.228zm4.897-1.641c0-1.174-.256-2.755-1.553-2.755-.153 0-.955.014-1.313 1.083-.12.332-.273 1.009-.273 2.304 0 1.084 0 2.017.034 2.56.222.044.563.09.836.09 1.98 0 2.27-1.882 2.27-3.283zm5.09 4.155a6.89 6.89 0 0 0-1.077-.075c-.545 0-.921.03-1.313.075.17-.286.239-.422.29-1.4.068-1.34.085-4.924-.034-5.677-.085-.572-.238-.662-.477-.813 1.399-.12 1.791-.21 2.44-.481-.137.662-.155.994-.155 2.002-.033 5.195-.05 5.752.325 6.369zm.77-2.409c0-2.018 1.434-2.755 3.602-2.755.46 0 .734.03 1.058.045 0-1.174 0-2.003-1.417-2.003-.886 0-1.757.271-2.423.783a3.635 3.635 0 0 0-.529-1.264c.495-.226 1.485-.678 3.174-.678 2.56 0 2.901 1.129 2.901 2.274l-.017 3.071c0 .798 0 1.37.034 1.942.052.587.154.738.341.994-.29-.015-.563-.045-.853-.045-.512 0-.819.03-1.126.045-.051-.527-.069-.933-.051-1.596-.325.632-.853 1.657-2.423 1.657-.137 0-.564 0-.99-.166-.956-.407-1.28-1.355-1.28-2.304zm4.694-1.852h-.906c-.647 0-2.081.106-2.081 1.52 0 .739.221 1.491 1.246 1.491.444 0 1.04-.196 1.399-.873.29-.527.308-1.19.342-2.138zm9.828 2.77c.017.513.017 1.055.256 1.491-.376-.03-.598-.075-1.297-.075-.41 0-.631.03-.956.075.068-.195.103-.27.137-.527.051-.346.086-1.505.086-1.912V69.74c0-.708 0-1.732-.052-2.093-.034-.256-.119-.948-1.11-.948-.972 0-1.296.632-1.416 1.144-.136.527-.136 1.1-.136 3.327.017 1.928.017 2.108.187 2.635-.29-.03-.648-.06-1.16-.06-.41 0-.682.015-1.023.06.12-.241.188-.361.222-1.204.034-.829.102-4.894-.052-5.857-.085-.588-.256-.723-.443-.874 1.382-.06 1.825-.256 2.252-.45v1.595c.205-.468.631-1.506 2.338-1.506 2.133 0 2.15 1.37 2.167 2.273zm-15.149-9.011l-1.413 1.246-1.413-1.246 1.413-1.247zm7.766-28.955l-.34.72c.503-1.52.214-3.176.284-4.607l-.14-.038c-.123-3.6-3.236-7.426-6.005-8.721-2.388-1.103-6.064-1.292-7.761-.461.233-.207 1.165-.294.884-.453-2.659.264-2.064.927-4.103 1.447-.559.54 1.632-.433.453.266-1.093.302-1.602-.19-3.222 1.487.144.232 1.028-.69.29.236-1.522-.188-4.809 3.483-5.507 4.7l.365.063c-.599 1.501-1.387 2.459-1.494 3.358-.155 2.211-.927 6.244.145 7.482l-.105 1.035c.147.294.259.592.441.869l-.238.019c1.128 3.558 1.212.066 2.701 3.761-.216-.072-.434-.152-.749-.577-.038.324.459 1.297 1.048 2.056l-.25.285c.329.597.631.728.86.935-1.227-.669 1.136 2.205 1.35 2.572l.188-.336c-.028.483.346 1.106 1.046 1.969l.583-.023c.24.476 1.118 1.332 1.65 1.373l-.354.462c1.337.423.65.561 2.293 1.143l-.332-.586c.838.727 1.097 1.363 2.28 1.921 1.64.572 1.858.345 3.541.827-1.427-.04-3.104-.026-4.232-.43-7.697-2.084-14.738-11.113-14.223-20.413-.118-1.883.187-4.235-.126-4.704.44-1.433.95-3.18 1.975-5.258-.074-.14.169.407.69-.482.316-.694.575-1.458.972-2.133l.205-.048c.206-1.192 2.78-3.018 3.546-3.938l.052.352c1.672-1.568 4.651-2.619 6.328-3.368-.44.488.987-.048 2.015-.11-.324.181-.646.323-.95.536 1.234-.295 1.175.12 2.437-.046-.443.064-.98.24-.895.307 1.41.163 1.625-.436 2.929-.001l-.082-.386c1.812.654 2.19.543 4.16 1.588.69.034.76-.426 1.804-.001.183.322-.042.382 1.24 1.145.143-.057-.255-.42-.57-.707 2.579 1.378 5.38 4.315 6.235 7.46-.8-1.475-.082.752-.358.635.357.962.65 1.957.83 2.983-.237-.841-.753-2.874-1.657-4.185-.074.846-1.167-.584-.57 1.278.455.66.092-.669.654.504.009.557.22 1.11.344 1.836-.191-.031-.428-.802-.568-.587.194.913.514 1.389.635 1.46-.062.152-.224-.143-.235.478.075 1.43.4.826.556.894-.157.704-.787 1.532-.475 2.743-.09-.368-.265-.737-.396-1.084-.123 1.034.229 1.235-.249 2.488.344-1.13.307-2.149-.018-1.658.144 1.605-1.27 2.838-1.116 3.853l-.411-.565c-1.114 1.613-.027.888-.784 2.11.278-.48-.145-.197.216-.741-.24.014-1.071 1.022-1.833 1.615-2.99 2.397-6.56 2.71-10.017 1.42-.134.11.617.699 1.172.983 1.316.487 2.805.507 3.977.463-2.533 1.06-7.37-1.076-8.952-3.908.358.077 1.584 1.991 2.502 2.301-.542-.434-.962-.987-1.351-1.556a7.947 7.947 0 0 0 2.597 1.986c-.061-.237.27-.284-.19-.595-2.931-2.246-4.663-4.154-4.061-8.572.446-.338.565-2.18 1.59-2.826.625-1.38 2.498-2.652 4.5-2.685 2.041-.111 3.765 1.092 4.631 2.226-1.576-1.47-4.157-1.917-6.358-.828-2.25 1.014-3.585 3.492-3.39 5.96.083-.122.157-.046.197-.35-.069 4.796 5.17 8.312 8.94 6.537l.045.1c1.53-.417 1.332-.761 2.332-1.448-.078.161-.673.573-.318.58.486-.13 2.005-1.543 2.752-2.207.343-.739-.183-.4.296-1.329l.585-.291c.325-.94.685-1.471.644-2.565z" fill="#fff"/><path d="M61.858 28.056C60.754 28.056 60 27.104 60 26V8l20 20z" fill="#ff5491"/><rect x="12" y="36" width="72" height="52" rx="2" fill="#c0d0df"/><path d="M12 37.999c0-1.104.897-2 2-2H82a2 2 0 0 1 2 2V85c0 1.104-.897 2-2 2H14A2 2 0 0 1 12 85z" fill="#dee8f2"/><path d="M91.115 50.175c.45 1.008-.087 1.825-1.19 1.825H5.91c-1.107 0-1.64-.82-1.193-1.825l6.378-14.35C11.544 34.817 12.804 34 13.907 34h67.999c1.104 0 2.366.82 2.814 1.825z" fill="url(#c)"/><path d="M82.371 35.048c.554 0 1.185.41 1.41.915l6.287 14.109c.225.504-.03.914-.593.914l-83.14.051c-.553 0-.818-.412-.598-.907l6.318-14.214c.223-.501.856-.907 1.406-.907z" fill="#f0f8fa"/></g><g fill="#10acff" fill-rule="evenodd"><path d="M41.904 66.655h-4.15l.002-.694c0-.236.222-.468.463-.469h3.462c.208 0 .45.237.45.466-.002.181-.004.292-.004.465 0 0 0 .232-.223.232m1.144 3.253c.238 0 .239-.215.239-.237l-.002-.69c0-.233-.233-.236-.233-.236l-4.84-.004c-.464 0-.457-.453-.457-.453-.006-.03 0-.473 0-.473h4.608c1.279 0 1.15-.93 1.15-.93v-.922s.124-1.637-1.61-1.637h-3.881c-1.764 0-1.645 1.615-1.645 1.615v2.337c0 1.63 1.615 1.622 1.615 1.622zM34.527 68.517s.004.227-.23.227c-.251 0-1.477.003-2.23 0-.754-.002-1.678-.169-1.678-1.61s1.026-1.64 1.667-1.64l2.47.002v3.021m1.154-6.285h-.919s-.23 0-.23.24l-.001 1.853h-2.983c-2.167 0-2.549 1.895-2.547 2.794.002.9.39 2.784 2.581 2.782 2.192-.002 2.253.003 3.18.003 1.15 0 1.151-1.156 1.151-1.156v-6.283c0-.233-.232-.233-.232-.233M60.094 63.628h-.921a.232.232 0 0 1-.23-.233v-.93c0-.128.103-.232.23-.232h.921c.127 0 .23.104.23.232v.93a.232.232 0 0 1-.23.233M60.094 69.907h-.921a.232.232 0 0 1-.23-.233v-5.116c0-.128.103-.232.23-.232h.921c.127 0 .23.104.23.232v5.116a.232.232 0 0 1-.23.233M64.47 64.327c-1.692-.002-3.685 0-3.685 0v5.344c0 .105.067.26.276.234l.804-.003c.318.046.308-.235.308-.235l-.006-4.175 2.301-.002c.039 0 .93.018.93 1.161l-.006 3.024c0 .128.103.233.23.233l.92-.001c.128 0 .231-.104.231-.233v-3.129c0-1.289-.611-2.216-2.303-2.218M52.955 65.712s-.004-.227.23-.227c.251 0 1.477-.003 2.23 0 .754.002 1.678.169 1.678 1.61s-1.026 1.64-1.667 1.64l-2.47-.002v-3.021m-1.152 6.285h.917s.23 0 .23-.24l.001-1.853h2.983c2.167 0 2.55-1.895 2.547-2.794-.002-.9-.39-2.784-2.581-2.782-2.192.002-2.251-.003-3.18-.003-1.148 0-1.148 1.156-1.148 1.156v6.283c0 .233.231.233.231.233M49.504 66.655h-4.15l.002-.694c0-.236.222-.468.463-.469h3.462c.208 0 .45.237.45.466-.002.181-.004.292-.004.465 0 0 0 .232-.223.232m1.144 3.253c.238 0 .239-.215.239-.237l-.002-.69c0-.233-.233-.236-.233-.236l-4.84-.004c-.465 0-.457-.453-.457-.453-.006-.03 0-.473 0-.473h4.608c1.279 0 1.15-.93 1.15-.93v-.922s.124-1.637-1.61-1.637h-3.881c-1.764 0-1.645 1.615-1.645 1.615v2.337c0 1.63 1.615 1.622 1.615 1.622z"/></g></g></svg>