<svg width="96" height="96" version="1.1" viewBox="0 0 96 96" xmlns="http://www.w3.org/2000/svg" xmlns:xlink="http://www.w3.org/1999/xlink"><title>deepin-font-installer</title><defs><path id="b" d="M80 34h1.905c1.105 0 2.367.82 2.814 1.825l6.396 14.35c.449 1.008-.087 1.825-1.19 1.825H84v33.993A2.005 2.005 0 0 1 82 88H14c-1.105 0-2-.903-2-2.007V52H5.91c-1.108 0-1.64-.82-1.194-1.825l6.378-14.35C11.543 34.817 12.804 34 13.907 34H16V10c0-1.16.754-2 2-2h42.02L80 28v6z"/><linearGradient id="c" x1="21.831" x2="21.831" y1="74.9" y2="85.096" gradientTransform="scale(2.1949 .45561)" gradientUnits="userSpaceOnUse"><stop stop-color="#fff" offset="0"/><stop stop-color="#C9DAE9" offset="1"/></linearGradient><filter id="a" color-interpolation-filters="sRGB"><feFlood flood-color="#000" flood-opacity=".196" result="flood"/><feComposite in="flood" in2="SourceGraphic" operator="in" result="composite1"/><feGaussianBlur in="composite1" result="blur" stdDeviation="1"/><feOffset dx="0" dy="1" result="offset"/><feComposite in="SourceGraphic" in2="offset" result="composite2"/></filter></defs><g filter="url(#a)"><use width="100%" height="100%" fill-opacity="0" xlink:href="#b"/><g fill-rule="evenodd"><path d="M78.002 86H18c-1.247 0-2-.952-2-2V10c0-1.16.753-2 2-2h42.02L80 28v56c-.064 2-1.998 2-1.998 2z" fill="#92d700"/><path d="M78.002 86H18c-1.247 0-2-.952-2-2V10c0-1.16.753-2 2-2h42.02L80 28v56c-.064 2-1.998 2-1.998 2z" fill="#e5b400"/><path d="M16 84c0 1.048.753 2 2 2h60.002s1.934 0 1.998-2v-1c-.064 2-1.998 2-1.998 2H18c-1.247 0-2-.952-2-2z" opacity=".1"/><path d="M16 10c0-1.16.753-2 2-2h42.02v1H18c-1.247 0-2 .84-2 2v36.5z" fill="#fff" opacity=".197"/><path d="M52.979 47H42.59v-1.248c.914-.059 1.673-.176 2.276-.352s.906-.392.906-.65c0-.105-.012-.234-.035-.387a1.846 1.846 0 0 0-.106-.404l-2.074-5.59H34.82c-.329.82-.595 1.535-.8 2.145s-.39 1.172-.554 1.687c-.152.504-.258.914-.316 1.23a4.436 4.436 0 0 0-.088.774c0 .469.369.832 1.107 1.09s1.57.41 2.496.457V47H27.28v-1.248c.304-.023.685-.09 1.142-.202.457-.111.832-.26 1.125-.448.469-.317.832-.648 1.09-.994.258-.345.51-.823.756-1.432a987.08 987.08 0 0 0 4.148-10.547c1.512-3.903 2.86-7.377 4.043-10.424h1.406l8.315 21.516c.176.457.375.826.598 1.107.222.281.533.557.931.826.27.164.621.302 1.055.414.433.11.797.172 1.09.184zM42.924 36.805l-3.78-9.668-3.708 9.668zm26.912 9.879c-.55.2-1.034.36-1.45.483a4.99 4.99 0 0 1-1.415.185c-.914 0-1.644-.214-2.189-.642-.545-.427-.893-1.052-1.046-1.872h-.105c-.762.844-1.58 1.488-2.452 1.934-.873.445-1.925.668-3.155.668-1.301 0-2.37-.399-3.208-1.196-.838-.796-1.257-1.84-1.257-3.128 0-.668.093-1.266.281-1.793a4.285 4.285 0 0 1 .844-1.424c.293-.352.68-.665 1.16-.94s.932-.496 1.353-.66c.528-.2 1.597-.568 3.208-1.107 1.612-.54 2.699-.961 3.261-1.266v-1.74c0-.152-.032-.445-.097-.879s-.202-.844-.413-1.23c-.234-.434-.565-.812-.993-1.134s-1.034-.484-1.82-.484c-.538 0-1.04.091-1.502.273-.463.181-.788.372-.976.571 0 .234.056.58.167 1.037.112.457.167.88.167 1.266 0 .41-.184.785-.553 1.125-.37.34-.882.51-1.538.51-.586 0-1.017-.208-1.292-.624s-.414-.882-.414-1.398c0-.54.19-1.055.572-1.547.38-.492.876-.932 1.485-1.318.528-.328 1.166-.607 1.916-.835a7.518 7.518 0 0 1 2.197-.343c.985 0 1.843.067 2.576.202a4.728 4.728 0 0 1 1.995.87c.597.434 1.052 1.023 1.362 1.767.31.744.466 1.702.466 2.874 0 1.676-.018 3.16-.053 4.456-.035 1.295-.053 2.71-.053 4.245 0 .457.08.82.238 1.09.158.27.401.498.73.685.175.106.453.164.834.176.381.012.77.018 1.17.018zm-6.135-9.281c-.996.293-1.869.58-2.619.861a10.6 10.6 0 0 0-2.092 1.055 4.76 4.76 0 0 0-1.388 1.415c-.34.545-.51 1.192-.51 1.942 0 .973.255 1.688.764 2.145.51.457 1.158.685 1.943.685.832 0 1.564-.202 2.197-.606a6.394 6.394 0 0 0 1.6-1.433z" fill="#cda100"/><path d="M52.979 46H42.59v-1.248c.914-.059 1.673-.176 2.276-.352s.906-.392.906-.65c0-.105-.012-.234-.035-.387a1.846 1.846 0 0 0-.106-.404l-2.074-5.59H34.82c-.329.82-.595 1.535-.8 2.145s-.39 1.172-.554 1.687c-.152.504-.258.914-.316 1.23a4.436 4.436 0 0 0-.088.774c0 .469.369.832 1.107 1.09s1.57.41 2.496.457V46H27.28v-1.248c.304-.023.685-.09 1.142-.202.457-.111.832-.26 1.125-.448.469-.317.832-.648 1.09-.994.258-.345.51-.823.756-1.432a987.08 987.08 0 0 0 4.148-10.547c1.512-3.903 2.86-7.377 4.043-10.424h1.406l8.315 21.516c.176.457.375.826.598 1.107.222.281.533.557.931.826.27.164.621.302 1.055.414.433.11.797.172 1.09.184zM42.924 35.805l-3.78-9.668-3.708 9.668zm26.912 9.879c-.55.2-1.034.36-1.45.483a4.99 4.99 0 0 1-1.415.185c-.914 0-1.644-.214-2.189-.642-.545-.427-.893-1.052-1.046-1.872h-.105c-.762.844-1.58 1.488-2.452 1.934-.873.445-1.925.668-3.155.668-1.301 0-2.37-.399-3.208-1.196-.838-.796-1.257-1.84-1.257-3.128 0-.668.093-1.266.281-1.793a4.285 4.285 0 0 1 .844-1.424c.293-.352.68-.665 1.16-.94s.932-.496 1.353-.66c.528-.2 1.597-.568 3.208-1.107 1.612-.54 2.699-.961 3.261-1.266v-1.74c0-.152-.032-.445-.097-.879s-.202-.844-.413-1.23c-.234-.434-.565-.812-.993-1.134s-1.034-.484-1.82-.484c-.538 0-1.04.091-1.502.273-.463.181-.788.372-.976.571 0 .234.056.58.167 1.037.112.457.167.88.167 1.266 0 .41-.184.785-.553 1.125-.37.34-.882.51-1.538.51-.586 0-1.017-.208-1.292-.624s-.414-.882-.414-1.398c0-.54.19-1.055.572-1.547.38-.492.876-.932 1.485-1.318.528-.328 1.166-.607 1.916-.835a7.518 7.518 0 0 1 2.197-.343c.985 0 1.843.067 2.576.202a4.728 4.728 0 0 1 1.995.87c.597.434 1.052 1.023 1.362 1.767.31.744.466 1.702.466 2.874 0 1.676-.018 3.16-.053 4.456-.035 1.295-.053 2.71-.053 4.245 0 .457.08.82.238 1.09.158.27.401.498.73.685.175.106.453.164.834.176.381.012.77.018 1.17.018zm-6.135-9.281c-.996.293-1.869.58-2.619.861a10.6 10.6 0 0 0-2.092 1.055 4.76 4.76 0 0 0-1.388 1.415c-.34.545-.51 1.192-.51 1.942 0 .973.255 1.688.764 2.145.51.457 1.158.685 1.943.685.832 0 1.564-.202 2.197-.606a6.394 6.394 0 0 0 1.6-1.433z" fill="#fff"/><path d="M61.858 28.056C60.754 28.056 60 27.104 60 26V8l20 20z" fill="#ffe587"/><rect x="12" y="36" width="72" height="52" rx="2" fill="#c0d0df"/><path d="M12 37.999c0-1.104.897-2 2-2H82a2 2 0 0 1 2 2V85c0 1.104-.897 2-2 2H14A2 2 0 0 1 12 85z" fill="#dee8f2"/><path d="M91.115 50.175c.45 1.008-.087 1.825-1.19 1.825H5.91c-1.107 0-1.64-.82-1.193-1.825l6.378-14.35C11.544 34.817 12.804 34 13.907 34h67.999c1.104 0 2.366.82 2.814 1.825z" fill="url(#c)"/><path d="M82.371 35.048c.554 0 1.185.41 1.41.915l6.287 14.109c.225.504-.03.914-.593.914l-83.14.051c-.553 0-.818-.412-.598-.907l6.318-14.214c.223-.501.856-.907 1.406-.907z" fill="#f0f8fa"/></g><g fill="#10acff" fill-rule="evenodd"><path d="M41.904 66.655h-4.15l.002-.694c0-.236.222-.468.463-.469h3.462c.208 0 .45.237.45.466-.002.181-.004.292-.004.465 0 0 0 .232-.223.232m1.144 3.253c.238 0 .239-.215.239-.237l-.002-.69c0-.233-.233-.236-.233-.236l-4.84-.004c-.464 0-.457-.453-.457-.453-.006-.03 0-.473 0-.473h4.608c1.279 0 1.15-.93 1.15-.93v-.922s.124-1.637-1.61-1.637h-3.881c-1.764 0-1.645 1.615-1.645 1.615v2.337c0 1.63 1.615 1.622 1.615 1.622zM34.527 68.517s.004.227-.23.227c-.251 0-1.477.003-2.23 0-.754-.002-1.678-.169-1.678-1.61s1.026-1.64 1.667-1.64l2.47.002v3.021m1.154-6.285h-.919s-.23 0-.23.24l-.001 1.853h-2.983c-2.167 0-2.549 1.895-2.547 2.794.002.9.39 2.784 2.581 2.782 2.192-.002 2.253.003 3.18.003 1.15 0 1.151-1.156 1.151-1.156v-6.283c0-.233-.232-.233-.232-.233M60.094 63.628h-.921a.232.232 0 0 1-.23-.233v-.93c0-.128.103-.232.23-.232h.921c.127 0 .23.104.23.232v.93a.232.232 0 0 1-.23.233M60.094 69.907h-.921a.232.232 0 0 1-.23-.233v-5.116c0-.128.103-.232.23-.232h.921c.127 0 .23.104.23.232v5.116a.232.232 0 0 1-.23.233M64.47 64.327c-1.692-.002-3.685 0-3.685 0v5.344c0 .105.067.26.276.234l.804-.003c.318.046.308-.235.308-.235l-.006-4.175 2.301-.002c.039 0 .93.018.93 1.161l-.006 3.024c0 .128.103.233.23.233l.92-.001c.128 0 .231-.104.231-.233v-3.129c0-1.289-.611-2.216-2.303-2.218M52.955 65.712s-.004-.227.23-.227c.251 0 1.477-.003 2.23 0 .754.002 1.678.169 1.678 1.61s-1.026 1.64-1.667 1.64l-2.47-.002v-3.021m-1.152 6.285h.917s.23 0 .23-.24l.001-1.853h2.983c2.167 0 2.55-1.895 2.547-2.794-.002-.9-.39-2.784-2.581-2.782-2.192.002-2.251-.003-3.18-.003-1.148 0-1.148 1.156-1.148 1.156v6.283c0 .233.231.233.231.233M49.504 66.655h-4.15l.002-.694c0-.236.222-.468.463-.469h3.462c.208 0 .45.237.45.466-.002.181-.004.292-.004.465 0 0 0 .232-.223.232m1.144 3.253c.238 0 .239-.215.239-.237l-.002-.69c0-.233-.233-.236-.233-.236l-4.84-.004c-.465 0-.457-.453-.457-.453-.006-.03 0-.473 0-.473h4.608c1.279 0 1.15-.93 1.15-.93v-.922s.124-1.637-1.61-1.637h-3.881c-1.764 0-1.645 1.615-1.645 1.615v2.337c0 1.63 1.615 1.622 1.615 1.622z"/></g></g></svg>