<svg width="96" height="96" version="1.1" viewBox="0 0 96 96" xmlns="http://www.w3.org/2000/svg" xmlns:xlink="http://www.w3.org/1999/xlink"><title>深度商店-96px</title><defs><linearGradient id="b" x1="40.792" x2="40.792" y1="42.361" y2="103.55" gradientTransform="scale(1.1767 .84984)" gradientUnits="userSpaceOnUse"><stop stop-color="#FFBE3F" offset="0"/><stop stop-color="#FF7400" offset="1"/></linearGradient><linearGradient id="c" x1="48.04" x2="48.04" y1="36.345" y2="88.842" gradientTransform="scale(1.0096 .99052)" gradientUnits="userSpaceOnUse"><stop stop-color="#FF9C27" offset="0"/><stop stop-color="#FF5300" offset="1"/></linearGradient><path id="e" d="M30 27a3 3 0 1 0-6 0 3 3 0 0 0 6 0zm42 0a3 3 0 1 0-6 0 3 3 0 0 0 6 0z"/><filter id="d" x="-50%" y="-50%" width="200%" height="200%"><feOffset dx="0" dy="1" in="SourceAlpha" result="shadowOffsetOuter1"/><feColorMatrix in="shadowOffsetOuter1" values="0 0 0 0 0 0 0 0 0 0 0 0 0 0 0 0 0 0 0.1 0"/></filter><filter id="a" color-interpolation-filters="sRGB"><feFlood flood-color="#000" flood-opacity=".196" result="flood"/><feComposite in="flood" in2="SourceGraphic" operator="in" result="composite1"/><feGaussianBlur in="composite1" result="blur" stdDeviation="1"/><feOffset dx="0" dy="1" result="offset"/><feComposite in="SourceGraphic" in2="offset" result="composite2"/></filter></defs><g filter="url(#a)"><g fill-rule="evenodd"><path d="M12 17.991c0-1.1.897-1.99 2-1.99H82a2 2 0 0 1 2 1.99V36H12z" fill="#efefef"/><path d="M12 17.991c0-1.1.897-1.99 2-1.99H82a2 2 0 0 1 2 1.99V36H12z" fill="#fff"/><path d="M12 18.997A2 2 0 0 1 14 17H82c1.105 0 2 .89 2 1.997V36H12z" fill="#efefef"/><path d="M12 85.97V36h72v50c0 2-2 2-2 2H14.016C12.032 88 12 85.97 12 85.97z" fill="url(#b)"/><path d="M12 84.994V37h72v48c0 2-1.997 2-1.997 2H14.061C12 87 12 84.994 12 84.994z" fill="#ffa737"/><path d="M75 36v52H64V36zm-21 0v52H43V36zm-21 0v52H22V36z" fill="url(#c)"/><path d="M75 37v50H64V37zm-21 0v50H43V37zm-21 0v50H22V37z" fill="#ff7300"/><use width="100%" height="100%" fill="#000" filter="url(#d)" xlink:href="#e"/><use width="100%" height="100%" fill="#a5988e" fill-rule="evenodd" xlink:href="#e"/><path d="M29 27a2 2 0 1 0-4 0 2 2 0 0 0 4 0zm42 0a2 2 0 1 0-4 0 2 2 0 0 0 4 0z" fill="#4f3825"/></g><path d="M69 29c0 13.255-6.5 26-21 26S27 42.255 27 29" fill="none" opacity=".1" stroke="#000" stroke-linecap="round" stroke-linejoin="round" stroke-width="3"/><path d="M69 27c0 13.255-6.5 26-21 26S27 40.255 27 27" fill="none" stroke="#fff" stroke-linecap="round" stroke-linejoin="round" stroke-width="2.6"/></g></svg>