<svg width="96" height="96" version="1.1" viewBox="0 0 96 96" xmlns="http://www.w3.org/2000/svg" xmlns:xlink="http://www.w3.org/1999/xlink"><title>deepin-music</title><defs><linearGradient id="c" x1="23.361" x2="95.713" y1="36.818" y2="61.549" gradientUnits="userSpaceOnUse"><stop stop-color="#052900" offset="0"/><stop stop-color="#47692F" offset=".257"/><stop stop-color="#122600" offset=".583"/><stop stop-color="#0E2700" offset=".72"/><stop stop-color="#0D2500" offset="1"/></linearGradient><path id="d" d="M56 82c18.778 0 34-15.222 34-34S74.778 14 56 14 22 29.222 22 48s15.222 34 34 34z"/><linearGradient id="a" x1="2.055%" y1="41.813%" y2="34.486%"><stop stop-color="#0C360D" stop-opacity=".381" offset="0"/><stop offset="1"/></linearGradient><linearGradient id="l" x1="-2.598" x2="59.756" y1="66.529" y2="66.529" gradientTransform="matrix(0 1.1547 -.86603 0 81 15)" gradientUnits="userSpaceOnUse"><stop stop-color="#A1F500" offset="0"/><stop stop-color="#71CA1E" offset="1"/></linearGradient><linearGradient id="e" x1="8.904" x2="52" y1="26.398" y2="23.174" gradientUnits="userSpaceOnUse" xlink:href="#a"/><linearGradient id="f" x1="6.986" x2="54" y1="26.07" y2="22.553" gradientUnits="userSpaceOnUse" xlink:href="#a"/><linearGradient id="g" x1="5.069" x2="56" y1="25.743" y2="21.933" gradientUnits="userSpaceOnUse" xlink:href="#a"/><linearGradient id="h" x1="3.151" x2="58" y1="25.415" y2="21.312" gradientUnits="userSpaceOnUse" xlink:href="#a"/><linearGradient id="i" x1="1.233" x2="60" y1="25.088" y2="20.691" gradientUnits="userSpaceOnUse" xlink:href="#a"/><linearGradient id="j" x1="12.74" x2="48" y1="27.053" y2="24.415" gradientUnits="userSpaceOnUse" xlink:href="#a"/><linearGradient id="k" x1="10.822" x2="50" y1="26.725" y2="23.794" gradientUnits="userSpaceOnUse" xlink:href="#a"/><filter id="b" color-interpolation-filters="sRGB"><feFlood flood-color="#000" flood-opacity=".196" result="flood"/><feComposite in="flood" in2="SourceGraphic" operator="in" result="composite1"/><feGaussianBlur in="composite1" result="blur" stdDeviation="1"/><feOffset dx="0" dy="1" result="offset"/><feComposite in="SourceGraphic" in2="offset" result="composite2"/></filter></defs><g fill-rule="evenodd" filter="url(#b)"><g transform="rotate(90 56 48)" fill="none"><use width="100%" height="100%" fill="url(#c)" fill-rule="evenodd" xlink:href="#d"/><path d="M56 81c18.225 0 33-14.775 33-33S74.225 15 56 15 23 29.775 23 48s14.775 33 33 33z" stroke="#478500" stroke-width="2"/></g><g fill="none" opacity=".8"><path transform="rotate(90 34 52)" d="M30.8 51.5c11.716 0 20.7-9.46 20.7-21.5 0-11.874-9.626-21.5-21.5-21.5S8.5 18.126 8.5 30c0 11.723 10.268 21.5 22.3 21.5z" stroke="url(#e)"/><path transform="rotate(90 34 52)" d="M30.873 53.5C43.679 53.5 53.5 43.16 53.5 30 53.5 17.021 42.979 6.5 30 6.5S6.5 17.021 6.5 30c0 12.815 11.222 23.5 24.373 23.5z" stroke="url(#f)"/><path transform="rotate(90 34 52)" d="M30.945 55.5C44.842 55.5 55.5 44.279 55.5 30 55.5 15.917 44.083 4.5 30 4.5S4.5 15.917 4.5 30c0 13.906 12.177 25.5 26.445 25.5z" stroke="url(#g)"/><path transform="rotate(90 34 52)" d="M31.018 57.5C46.006 57.5 57.5 45.398 57.5 30 57.5 14.812 45.188 2.5 30 2.5S2.5 14.812 2.5 30c0 14.997 13.131 27.5 28.518 27.5z" stroke="url(#h)"/><path transform="rotate(90 34 52)" d="M31.091 59.5C47.169 59.5 59.5 46.517 59.5 30 59.5 13.708 46.292.5 30 .5S.5 13.708.5 30c0 16.089 14.085 29.5 30.591 29.5z" stroke="url(#i)"/><path transform="rotate(90 34 52)" d="M30 47.5c9.665 0 17.5-7.835 17.5-17.5S39.665 12.5 30 12.5 12.5 20.335 12.5 30 20.335 47.5 30 47.5z" stroke="url(#j)"/><path transform="rotate(90 34 52)" d="M30 49.5c10.77 0 19.5-8.73 19.5-19.5S40.77 10.5 30 10.5 10.5 19.23 10.5 30 19.23 49.5 30 49.5z" stroke="url(#k)"/></g><circle transform="rotate(90)" cx="48" cy="-56" r="15"/><circle transform="rotate(90)" cx="48" cy="-56" r="10" fill="#478500"/><path d="M57.998 12c1.106 0 2.002.897 2.002 2V82c0 1.105-.892 2-2.002 2H8.002A2.002 2.002 0 0 1 6 82V14C6 12.896 6.892 12 8.002 12z" fill="url(#l)"/><path d="M57.998 13c1.106 0 2.002.898 2.002 2V81c0 1.105-.892 2-2.002 2H8.002A2.003 2.003 0 0 1 6 81V15C6 13.896 6.892 13 8.002 13z" fill="#92dc00"/><path d="M31.966 33s0-.998.986-1 1.007 1 1.007 1-.062 2.608 5.01 6c.928.608 9.99 6 5.557 15.842 0 0-.24.506-.77.294-.418-.168-.276-.702-.276-.702S46.96 44 33.96 41c0 0 .02 14.16.008 18.032.012 2.968-1.97 5.684-5.54 6.64-3.787 1.015-7.495-.541-8.28-3.475-.787-2.934 1.646-6.135 5.434-7.15 2.402-.644 4.771-.254 6.384.866z" fill="#fff"/></g></svg>