<svg width="96" height="96" version="1.1" viewBox="0 0 96 96" xmlns="http://www.w3.org/2000/svg"><title>deepin-movie</title><defs><linearGradient id="b" x1="75.554" x2="16.528" y1="10.323" y2="73.816" gradientTransform="matrix(1.0481 0 0 .95407 5 6)" gradientUnits="userSpaceOnUse"><stop stop-color="#0BA2FF" offset="0"/><stop stop-color="#0067FF" offset="1"/></linearGradient><linearGradient id="c" x1="62.801" x2="42.933" y1="7.337" y2="81.755" gradientTransform="matrix(1.0481 0 0 .95407 5 6)" gradientUnits="userSpaceOnUse"><stop stop-color="#4BB4FF" offset="0"/><stop stop-color="#005DDB" offset="1"/></linearGradient><linearGradient id="d" x1="47.403" x2="7.808" y1="24.506" y2="27.136" gradientTransform="matrix(.62519 .02183 -.05579 1.5976 6.476 5.396)" gradientUnits="userSpaceOnUse"><stop stop-color="#2BB8FF" offset="0"/><stop stop-color="#537CFF" offset="1"/></linearGradient><linearGradient id="e" x1="50.774" x2="11.456" y1="38.457" y2="42.829" gradientTransform="matrix(.62519 .02183 -.05579 1.5976 6.476 5.396)" gradientUnits="userSpaceOnUse"><stop stop-color="#5BCBFF" offset="0"/><stop stop-color="#006CFF" offset="1"/></linearGradient><linearGradient id="f" x1="13.934" x2="13.934" y1="0" y2="27.868" gradientTransform="scale(.94262 1.0609)" gradientUnits="userSpaceOnUse"><stop stop-color="#fff" offset="0"/><stop stop-color="#EFFAFD" offset="1"/></linearGradient><filter id="a" color-interpolation-filters="sRGB"><feFlood flood-color="#000" flood-opacity=".294" result="flood"/><feComposite in="flood" in2="SourceGraphic" operator="in" result="composite1"/><feGaussianBlur in="composite1" result="blur" stdDeviation="1"/><feOffset dx="0" dy="1" result="offset"/><feComposite in="SourceGraphic" in2="offset" result="composite2"/></filter></defs><g filter="url(#a)"><path d="M86.5 13H11l6.538 71h68.963a2.5 2.5 0 0 0 2.5-2.5v-66a2.5 2.5 0 0 0-2.5-2.5zM81 24h-7v-7h7zm-14 0h-7v-7h7zm-14 0h-7v-7h7zm-14 0h-7v-7h7zm42 54h-7v-7h7zm-14 0h-7v-6h7zm-14 0h-7v-6h7z" fill="url(#b)" fill-rule="evenodd"/><path d="M12.096 14l6.354 69H86.5a1.5 1.5 0 0 0 1.5-1.5v-66a1.5 1.5 0 0 0-1.5-1.5zM86.5 13a2.5 2.5 0 0 1 2.5 2.5v66a2.5 2.5 0 0 1-2.5 2.5H17.538l-6.539-71z" fill="url(#c)"/><g fill-rule="evenodd"><path d="M46 75v4h7v-4 3h-7zm14 0v4h7v-4 3h-7zm15-3h-1v7h7v-1h-6zM32 21v4h7v-4 3h-7zm14 0v4h7v-4 3h-7zm14 0v4h7v-4 3h-7zm14 0v4h7v-4 3h-7z" fill="#fff" fill-opacity=".1"/><path d="M75 18v5h5v-5zm6-1v7h-7v-7zm-20 1v5h5v-5zm6-1v7h-7v-7zm-20 1v5h5v-5zm6-1v7h-7v-7zm-20 1v5h5v-5zm6-1v7h-7v-7z" fill="#1b78ff" fill-rule="nonzero"/><g fill="#005bfc" fill-rule="nonzero"><path d="M75 72v5h5v-5zm6-1v7h-7v-7zM61 72v5h5v-5zm6-1v7h-7v-7zM47 72v5h5v-5zm6-1v7h-7v-7z"/></g></g><path d="M35.544 89.446l-22.477-.785c-.544-.04-2.138-.075-2.058-2.348L8.3 10.643c-.018-.52.058-1.677 2.21-2.022l10.762-1.724c2.137.075 2.033 1.537 2.064 2.172.312 6.494 1.84 34.39 2.28 42.102.598 10.514 6.478 13.5 9.284 13.598 1.603.056 1.521 1.364 1.541 1.829l1.289 20.581c-.077 2.187-2.187 2.267-2.187 2.267z" fill="url(#d)" fill-rule="evenodd"/><path d="M36.13 88.255c.371-.203.581-.52.603-1.013l-1.289-20.6c-.01-.377-.019-.473-.051-.595-.055-.203-.128-.264-.526-.278-4.975-.174-9.726-5.37-10.248-14.541-.558-9.8-2.008-36.456-2.28-42.11-.016-.451-.026-.564-.063-.707-.082-.317-.27-.474-.945-.51L10.67 9.61c-1.198.192-1.389.457-1.37 1l2.708 75.74c-.027.79.143 1.07.465 1.203.159.064.306.087.633.11l22.427.784c.131-.01.369-.066.596-.19zm-.586 1.19l-22.477-.784c-.544-.04-2.137-.075-2.058-2.348l-2.708-75.67c-.018-.521.059-1.677 2.211-2.022l10.761-1.724c2.138.075 2.033 1.537 2.064 2.172.313 6.494 1.841 34.39 2.28 42.102.598 10.514 6.478 13.5 9.284 13.598 1.604.056 1.522 1.364 1.542 1.829l1.288 20.58c-.076 2.188-2.187 2.267-2.187 2.267z" fill="url(#e)"/><g fill-rule="evenodd"><path d="M42 49.356V35a1 1 0 0 1 1.494-.87l24.268 13.782a1 1 0 0 1 .325 1.444.996.996 0 0 0-.325-.295L43.494 35.279a1 1 0 0 0-1.494.87z" fill="#fff"/><path d="M0 28.564V1A1 1 0 0 1 1.494.13l24.268 13.782a1 1 0 0 1 0 1.74L1.494 29.434A1 1 0 0 1 0 28.564z" fill="url(#f)" transform="translate(42 34)"/><path d="M42 49v14.356a1 1 0 0 0 1.494.87l24.268-13.782A1 1 0 0 0 68.087 49a1 1 0 0 1-.325.295L43.494 63.077a1 1 0 0 1-1.494-.87z" fill="#0766f8"/></g></g></svg>