<svg width="96" height="96" version="1.1" viewBox="0 0 96 96" xmlns="http://www.w3.org/2000/svg" xmlns:xlink="http://www.w3.org/1999/xlink"><title>deepin-download</title><defs><linearGradient id="b" x1="48" x2="48" y1="83.624" y2="6" gradientUnits="userSpaceOnUse"><stop stop-color="#5141FF" offset="0"/><stop stop-color="#00C0FF" offset="1"/></linearGradient><linearGradient id="c" x1=".318" x2="47.694" y1="23.756" y2="23.756" gradientTransform="scale(.91645 1.0912)" gradientUnits="userSpaceOnUse"><stop stop-color="#fff" offset="0"/><stop stop-color="#fff" offset=".499"/><stop stop-color="#F4FBFF" offset=".499"/><stop stop-color="#fff" offset="1"/></linearGradient><path id="d" d="M21.136 51.272L.427 15.656a1 1 0 0 1 1.186-1.45l20.066 6.813a1 1 0 0 0 .643 0l20.066-6.813a1 1 0 0 1 1.186 1.45l-20.71 35.616a1 1 0 0 1-1.728 0zM11.802.123l9.884 3.27a1 1 0 0 0 .628 0L32.2.122a.958.958 0 0 1 1.259.91v.604a1 1 0 0 1-.686.949L22.314 6.045a1 1 0 0 1-.628 0L11.228 2.586a1 1 0 0 1-.686-.95v-.603a.958.958 0 0 1 1.26-.91zm0 7.579l9.884 3.269a1 1 0 0 0 .628 0l9.885-3.27a.958.958 0 0 1 1.259.91v.604a1 1 0 0 1-.686.95l-10.458 3.459a1 1 0 0 1-.628 0l-10.458-3.46a1 1 0 0 1-.686-.949v-.603a.958.958 0 0 1 1.26-.91z"/><linearGradient id="e" x1="48" x2="48" y1="6" y2="83.953" gradientUnits="userSpaceOnUse"><stop stop-color="#46CEFF" offset="0"/><stop stop-color="#3D3AEC" offset="1"/></linearGradient><filter id="a" color-interpolation-filters="sRGB"><feFlood flood-color="#000" flood-opacity=".196" result="flood"/><feComposite in="flood" in2="SourceGraphic" operator="in" result="composite1"/><feGaussianBlur in="composite1" result="blur" stdDeviation="1"/><feOffset dx="0" dy="1" result="offset"/><feComposite in="SourceGraphic" in2="offset" result="composite2"/></filter></defs><g filter="url(#a)"><circle cx="48" cy="48" r="42" fill="url(#b)" fill-rule="evenodd"/><g transform="translate(26 23)" fill="none" fill-rule="evenodd"><use width="100%" height="100%" fill="url(#c)" fill-rule="evenodd" xlink:href="#d"/><path d="M21.568 51.021a.5.5 0 0 0 .864 0l20.71-35.616a.5.5 0 0 0-.593-.725l-20.066 6.812a1.5 1.5 0 0 1-.965 0L1.452 14.68a.5.5 0 0 0-.593.725zM11.645.598a.458.458 0 0 0-.602.435v.604a.5.5 0 0 0 .343.475L21.844 5.57a.5.5 0 0 0 .314 0l10.458-3.458a.5.5 0 0 0 .343-.475v-.604a.458.458 0 0 0-.603-.435l-9.884 3.27a1.5 1.5 0 0 1-.942 0zm0 7.579a.458.458 0 0 0-.602.435v.604a.5.5 0 0 0 .343.474l10.458 3.46a.5.5 0 0 0 .314 0l10.458-3.46a.5.5 0 0 0 .343-.474v-.604a.458.458 0 0 0-.603-.435l-9.884 3.269a1.5 1.5 0 0 1-.942 0z" stroke="#fff"/></g><path d="M48 7C25.356 7 7 25.356 7 48s18.356 41 41 41 41-18.356 41-41S70.644 7 48 7zm0-1c23.196 0 42 18.804 42 42S71.196 90 48 90 6 71.196 6 48 24.804 6 48 6z" fill="url(#e)"/></g></svg>