<svg width="96" height="96" version="1.1" viewBox="0 0 96 96" xmlns="http://www.w3.org/2000/svg" xmlns:xlink="http://www.w3.org/1999/xlink"><title>deepin-manual</title><defs><rect id="b" x="10" y="6" width="76" height="84" rx="4"/><radialGradient id="c" cx="50.463" cy="19.749" r="76.775" gradientTransform="scale(.95119 1.0513)" gradientUnits="userSpaceOnUse"><stop stop-color="#04A38C" offset="0"/><stop stop-color="#075661" offset="1"/></radialGradient><linearGradient id="d" x1="15.424" x2="10.513" y1="58.136" y2="58.136" gradientTransform="scale(.95119 1.0513)" gradientUnits="userSpaceOnUse"><stop stop-color="#04A38C" stop-opacity="0" offset="0"/><stop stop-color="#075661" offset="1"/></linearGradient><filter id="a" color-interpolation-filters="sRGB"><feFlood flood-color="#000" flood-opacity=".196" result="flood"/><feComposite in="flood" in2="SourceGraphic" operator="in" result="composite1"/><feGaussianBlur in="composite1" result="blur" stdDeviation="1"/><feOffset dx="0" dy="1" result="offset"/><feComposite in="SourceGraphic" in2="offset" result="composite2"/></filter></defs><g filter="url(#a)"><g fill-rule="evenodd"><use width="100%" height="100%" fill="#000" fill-opacity=".1" xlink:href="#b"/><rect x="10" y="6" width="76" height="84" rx="4" fill="url(#c)"/><path d="M86 11a4 4 0 0 0-4-4H14a4 4 0 0 0-4 4v-1a4 4 0 0 1 4-4h68a4 4 0 0 1 4 4z" fill="#00ab9d" fill-opacity=".6"/><rect x="10" y="6" width="76" height="84" rx="4" fill="url(#d)"/></g><g fill="#fff"><path d="M56.929 69.973a.066.066 0 0 0 .006.004l-.002-.001zm-.81-.094c-.655-.026-1.661-.013-3.016.038-2.715.104-7.28.088-12.789.5-.354-.167-.548-.314-.582-.44-.052-.19-.067-.519.263-.729 1.068-.505 15.459-.088 16.125-.062.339.013.908.028 1.076.062.26.054.357.954.28 1.17-.179.496-3.833.105-10.966.736 10.966.629 10.922.642 9.623 1.474-2.338 1.497-16.898 3.184-16.898 3.184 8.615 0 19.231 1.007 20.62 1.736C61.244 78.277 52.32 80 48.915 80c1.56-.225 5.166-.602 7.324-1.527.218-.094 1.103-.457.69-.625-.532-.217-1.592-.497-3.19-.695-3.223-.398-8.573-.747-16.05-1.046-1.406.062-1.92.042-1.54-.061-1.209-.71 5.069-2.149 14.327-3.418.766-.517-1.685-.946-7.353-1.287-.08-.266.55-.49 1.889-.67 1.422-.192 11.299-.624 11.692-.748a6.22 6.22 0 0 0-.585-.044z" opacity=".2"/><path d="M41.54 52.893l.74-8.371c.686-.905 1.69-1.678 3.02-2.326 2.114-1.03 3.38-1.345 6.218-1.594.901-.08 1.352-.133 1.836-.223l.721 8.157-.153.03c-.494.092-.926.142-1.89.222-3.179.265-4.683.622-7.095 1.736-1.424.658-2.56 1.45-3.397 2.369zm-.379 4.284a.287.287 0 0 0 .061-.157c.16-2.294 1.587-4.054 4.358-5.334 2.237-1.033 3.58-1.35 6.58-1.6 1.011-.085 1.482-.14 2.031-.24l.81 9.154H41zm1.307-14.784L42.945 37h10.11l.184 2.07a8.01 8.01 0 0 1-.074.014c-.465.091-.872.141-1.785.221-3.023.266-4.458.624-6.753 1.742-.822.4-1.542.85-2.16 1.346zM39.948 60h16.104a.4.4 0 0 1 .394.364L57 67.636c.015.201-.148.364-.365.364H39.367c-.217 0-.38-.163-.365-.364l.554-7.272a.4.4 0 0 1 .393-.364zm2.402-32h11.3a.35.35 0 0 1 .35.35v1.3a.35.35 0 0 1-.35.35h-11.3a.35.35 0 0 1-.35-.35v-1.3a.35.35 0 0 1 .35-.35zM42 27l6-3 6 3zm6-3.212a1.39 1.39 0 0 1-1.384-1.394c0-.77.62-1.394 1.384-1.394s1.385.624 1.385 1.394c0 .77-.62 1.394-1.385 1.394zm-3 7.562v1.3a.35.35 0 0 1-.35.35h-1.3a.35.35 0 0 1-.35-.35v-1.3a.35.35 0 0 1 .35-.35h1.3a.35.35 0 0 1 .35.35zm8 0v1.3a.35.35 0 0 1-.35.35h-1.3a.35.35 0 0 1-.35-.35v-1.3a.35.35 0 0 1 .35-.35h1.3a.35.35 0 0 1 .35.35zm-3 0v1.3a.35.35 0 0 1-.35.35h-3.3a.35.35 0 0 1-.35-.35v-1.3a.35.35 0 0 1 .35-.35h3.3a.35.35 0 0 1 .35.35zM42.35 34h11.3a.35.35 0 0 1 .35.35v1.3a.35.35 0 0 1-.35.35h-11.3a.35.35 0 0 1-.35-.35v-1.3a.35.35 0 0 1 .35-.35zm5 9a.35.35 0 0 0-.35.35v3.3c0 .193.157.35.35.35h1.3a.35.35 0 0 0 .35-.35v-3.3a.35.35 0 0 0-.35-.35z" fill-rule="evenodd"/><path d="M10 40V26l31 6v2zm43-8l33-6v14l-33-6z" fill-rule="evenodd" opacity=".3"/></g><g fill-rule="evenodd"><path d="M14 81h68.474a3.5 3.5 0 0 0 3.5-3.5V77v8a4 4 0 0 1-4 4H14a4 4 0 0 1 0-8z" fill="#034849"/><path d="M14 82h69a2 2 0 0 0 2-2v4a4 4 0 0 1-4 4H14a3 3 0 1 1 0-6z" fill="#d5fcf9"/><path d="M86 85v1a4 4 0 0 1-4 4H14a4 4 0 0 1-4-4v-1a4 4 0 0 0 4 4h68a4 4 0 0 0 4-4z" fill="#002f2b"/></g></g></svg>