<svg width="96" height="96" version="1.1" viewBox="0 0 96 96" xmlns="http://www.w3.org/2000/svg"><title>deepin-clone</title><defs><linearGradient id="b" x1="48" x2="48" y1="8.409" y2="90" gradientUnits="userSpaceOnUse"><stop stop-color="#0090FF" offset="0"/><stop stop-color="#0076FF" offset="1"/></linearGradient><linearGradient id="c" x1="48" x2="48" y1="6" y2="90" gradientUnits="userSpaceOnUse"><stop stop-color="#53A3FF" offset="0"/><stop stop-color="#0065EA" offset="1"/></linearGradient><filter id="a" color-interpolation-filters="sRGB"><feFlood flood-color="#000" flood-opacity=".196" result="flood"/><feComposite in="flood" in2="SourceGraphic" operator="in" result="composite1"/><feGaussianBlur in="composite1" result="blur" stdDeviation="1"/><feOffset dx="0" dy="1" result="offset"/><feComposite in="SourceGraphic" in2="offset" result="composite2"/></filter></defs><g filter="url(#a)"><circle cx="48" cy="48" r="42" fill="url(#b)" fill-rule="evenodd"/><path d="M48 7C25.356 7 7 25.356 7 48s18.356 41 41 41 41-18.356 41-41S70.644 7 48 7zm0-1c23.196 0 42 18.804 42 42S71.196 90 48 90 6 71.196 6 48 24.804 6 48 6z" fill="url(#c)"/><path d="M23.72 47c.524-13.508 11.633-24.298 25.261-24.298 13.963 0 25.281 11.326 25.281 25.298s-11.319 25.298-25.28 25.298c-7.19 0-13.89-3.016-18.652-8.22a1.85 1.85 0 0 0-2.613-.115 1.852 1.852 0 0 0-.116 2.616A28.896 28.896 0 0 0 48.981 77c16.006 0 28.981-12.984 28.981-29s-12.975-29-28.98-29C33.31 19 20.542 31.447 20.016 47H15l7 14 7-14h-5.28z" fill="#006be7"/><path d="M23.72 46c.524-13.508 11.633-24.298 25.261-24.298 13.963 0 25.281 11.326 25.281 25.298s-11.319 25.298-25.28 25.298c-7.19 0-13.89-3.016-18.652-8.22a1.85 1.85 0 0 0-2.613-.115 1.852 1.852 0 0 0-.116 2.616A28.896 28.896 0 0 0 48.981 76c16.006 0 28.981-12.984 28.981-29s-12.975-29-28.98-29C33.31 18 20.542 30.447 20.016 46H15l7 14 7-14h-5.28z" fill="#fff"/><g fill-rule="evenodd"><path d="M55.697 30.92a18.003 18.003 0 0 1 7.092 4.413c-.549.014-1.123.015-1.709-.005 0 0-5.177.247-8.08 1.726 0 0-2.164.986-4.328 2.658 0 0-.46.234-.437 1.096.02.859-.44 3.149-1.974 4.491 0 0-1.094.575-.547 1.397 0 0 .739 1.096 1.78-.055 0 0 2.684-2.82 2.849-7.367 0 0 .849-.74 2.19-.96 0 0 .247 6.82-3.066 10.245 0 0-3.152 3.506-4.164-1.699 0 0-1.233-4.958 5.122-10.847 0 0 2.854-2.91 5.272-5.094zm-21.798 9.024a18.037 18.037 0 0 1 11.808-9.429c-2.21 4.121-3.335 9.533-3.227 13.059 0 0-.204 6.196 4.11 8.393 0 0 3.876 1.674 6.518-3.738 0 0 1.816-3.054 1.077-9.955 0 0 .707.122.787.232.08.11 1.561 5.314.52 9.697 0 0-.958 5.15-5.67 6.328-4.711 1.178-8.382-1.672-10.875-4.356-1.5-1.615-3.586-5.43-5.048-10.231zm1.768 18.947c5.537.922 13.062 1.163 18.4-2.606 4.936-3.486 4.3-9.068 4.3-9.068-.081-4.246-2.765-8.463-2.765-8.463C66.037 47.847 59.87 57.95 59.87 57.95c-1.699 3.341-4.458 5.971-7.498 7.895-.776.103-1.568.155-2.372.155-5.848 0-11.045-2.788-14.333-7.109z" fill="#006be7"/><path d="M55.697 29.92a18.003 18.003 0 0 1 7.092 4.413c-.549.014-1.123.015-1.709-.005 0 0-5.177.247-8.08 1.726 0 0-2.164.986-4.328 2.658 0 0-.46.234-.437 1.096.02.859-.44 3.149-1.974 4.491 0 0-1.094.575-.547 1.397 0 0 .739 1.096 1.78-.055 0 0 2.684-2.82 2.849-7.367 0 0 .849-.74 2.19-.96 0 0 .247 6.82-3.066 10.245 0 0-3.152 3.506-4.164-1.699 0 0-1.233-4.958 5.122-10.847 0 0 2.854-2.91 5.272-5.094zm-21.798 9.024a18.037 18.037 0 0 1 11.808-9.429c-2.21 4.121-3.335 9.533-3.227 13.059 0 0-.204 6.196 4.11 8.393 0 0 3.876 1.674 6.518-3.738 0 0 1.816-3.053 1.077-9.955 0 0 .707.122.787.232.08.11 1.561 5.314.52 9.697 0 0-.958 5.15-5.67 6.328-4.711 1.178-8.382-1.672-10.875-4.356-1.5-1.615-3.586-5.43-5.048-10.231zm1.768 18.947c5.537.922 13.062 1.163 18.4-2.606 4.936-3.486 4.3-9.068 4.3-9.068-.081-4.246-2.765-8.463-2.765-8.463C66.037 46.847 59.87 56.95 59.87 56.95c-1.699 3.342-4.458 5.971-7.498 7.895-.776.103-1.568.155-2.372.155-5.848 0-11.045-2.788-14.333-7.109z" fill="#fff"/></g></g></svg>