<svg width="96" height="96" version="1.1" viewBox="0 0 96 96" xmlns="http://www.w3.org/2000/svg"><title>深度截图-96px</title><defs><filter id="a" color-interpolation-filters="sRGB"><feFlood flood-color="#000" flood-opacity=".196" result="flood"/><feComposite in="flood" in2="SourceGraphic" operator="in" result="composite1"/><feGaussianBlur in="composite1" result="blur" stdDeviation="1"/><feOffset dx="0" dy="1" result="offset"/><feComposite in="SourceGraphic" in2="offset" result="composite2"/></filter></defs><g fill-rule="evenodd" filter="url(#a)"><path d="M18.376 11.641a1.998 1.998 0 0 1 2.45-1.415l70.51 18.893a1.996 1.996 0 0 1 1.414 2.45L77.53 88.376a1.998 1.998 0 0 1-2.45 1.416L4.57 70.899a1.996 1.996 0 0 1-1.415-2.451z" fill="#a6dbff"/><path d="M77.528 88.377a1.998 1.998 0 0 1-2.45 1.415L4.568 70.9a1.995 1.995 0 0 1-1.42-2.428 1.996 1.996 0 0 0 1.42 1.428l70.51 18.893a1.998 1.998 0 0 0 2.45-1.415z" fill="#7fcafd"/><path d="M91.335 29.119l-70.51-18.893a1.998 1.998 0 0 0-2.45 1.415v1a1.998 1.998 0 0 1 2.45-1.415l70.51 18.893a1.996 1.996 0 0 1 1.42 1.428 1.995 1.995 0 0 0-1.42-2.428z" fill="#c4e7ff"/><path d="M87 80.004A2.004 2.004 0 0 1 84.994 82H11.007A2.002 2.002 0 0 1 9 80.004V23.997c0-1.102.903-1.996 2.007-1.996h73.986c1.109 0 2.007.894 2.007 1.996z" fill="#ea004e"/><path d="M87 20.002A2.007 2.007 0 0 0 84.994 18H11.007A2.008 2.008 0 0 0 9 20.003V56c20 13 38.64-4.028 42.644-12.942 4.512 3.02 15.014 1.352 19.538-4.38C73.966 46.09 81.628 51.29 87 51z" fill="#ff0056"/><path d="M9 20.509C9 18.5 10 18 11.5 18H85c1 0 2 1 2 2v.495A1.5 1.5 0 0 0 85.5 19h-75c-.829 0-1.5.664-1.5 1.495z" fill="#ff6594"/><path d="M9 79.5c0 2.009 1 2.509 2.5 2.509H85c1 0 2-1 2-2v-.495a1.5 1.5 0 0 1-1.5 1.495h-75c-.829 0-1.5-.664-1.5-1.495zM63.016 41c0-1.104-.91-2.13-2.016-2H37.016v-6a2 2 0 0 0-4 0v6H27c-1.104-.13-2 .896-2 2s.896 2 2 2h6.016v18a2 2 0 0 0 2 2h24v6a2 2 0 0 0 4 0v-6H69a2 2 0 0 0 0-4h-5.984zM37 43h22v16H37z" fill="#cf0045"/><path d="M63.016 40c0-1.104-.91-2.13-2.016-2H37.016v-6a2 2 0 0 0-4 0v6H27c-1.104-.13-2 .896-2 2s.896 2 2 2h6.016v18a2 2 0 0 0 2 2h24v6a2 2 0 0 0 4 0v-6H69a2 2 0 0 0 0-4h-5.984zM37 42h22v16H37z" fill="#fff9f9"/><g fill="#fff"><path d="M37 38h24.1c1 0 1.63 1 1.63 1H37zM33 38h-6c-1.4 0-1.7 1-1.7 1H33zM63 58h6c1 0 1.7 1 1.7 1H63zM37 58h22v1H37z"/></g></g></svg>