<svg width="96" height="96" version="1.1" viewBox="0 0 96 96" xmlns="http://www.w3.org/2000/svg"><title>deepin-clone</title><defs><linearGradient id="b" x1="32" x2="32" y1="4" y2="59.907" gradientTransform="translate(-.061 .03) scale(1.5019)" gradientUnits="userSpaceOnUse"><stop stop-color="#FF9BBA" offset="0"/><stop stop-color="#DA0C0C" offset="1"/></linearGradient><linearGradient id="c" x1="32" x2="32" y1="6" y2="58.91" gradientTransform="translate(-.061 .03) scale(1.5019)" gradientUnits="userSpaceOnUse"><stop stop-color="#FF4B83" offset="0"/><stop stop-color="#EE3A3A" offset="1"/></linearGradient><linearGradient id="d" x1="44.439" x2="44.439" y1="10.129" y2="28.634" gradientTransform="matrix(1.0815 0 0 2.0857 -.061 .03)" gradientUnits="userSpaceOnUse"><stop stop-color="#FF004F" offset="0"/><stop stop-color="#E13333" offset="1"/></linearGradient><filter id="a" color-interpolation-filters="sRGB"><feFlood flood-color="#000" flood-opacity=".196" result="flood"/><feComposite in="flood" in2="SourceGraphic" operator="in" result="composite1"/><feGaussianBlur in="composite1" result="blur" stdDeviation="1"/><feOffset dx="0" dy="1" result="offset"/><feComposite in="SourceGraphic" in2="offset" result="composite2"/></filter></defs><g filter="url(#a)"><g stroke-width="1.502"><circle cx="48" cy="48.091" r="42.053" fill="url(#b)" fill-rule="evenodd"/><circle cx="48" cy="48.091" r="40.551" fill="url(#c)" fill-rule="evenodd"/><path d="M34.482 49.618c0 7.46 6.712 13.481 13.517 13.481s13.517-4.521 13.517-13.481v-7.524H34.482zm30.038 0c0 11.221-8.214 16.495-16.521 16.495s-16.521-6.442-16.521-16.495v-7.535H64.52z" fill="#e40f35"/><path d="M34.482 51.12c0 7.46 6.712 13.481 13.517 13.481S61.516 60.08 61.516 51.12v-7.524H34.482zm30.038 0c0 11.221-8.214 16.495-16.521 16.495S31.478 61.173 31.478 51.12v-7.535H64.52v.76z" fill="#fff"/></g><g fill-rule="evenodd"><rect x="37.486" y="19.555" width="21.027" height="40.551" rx="10.513" fill="url(#d)" stroke-width="1.502"/><rect x="37.486" y="21.057" width="21.027" height="40.551" rx="10.513" fill="#fff" stroke-width="1.502"/><path fill="#e40f35" d="M37.486 72.121h21.027v-3.004H37.486z"/><path fill="#fff" d="M49.501 64.612h-3.003v6.007h-9.012v3.004h21.027V70.62H49.5z"/><g transform="translate(-.061 .03) scale(1.5019)" fill="#f94568"><circle cx="32.5" cy="19.5" r="1.5"/><path d="M25 26h6v1h-6zM33 26h6v1h-6zM25 28h6v1h-6zM33 28h6v1h-6zM25 24h6v1h-6zM33 24h6v1h-6z"/></g></g></g></svg>