<svg width="96" height="96" version="1.1" viewBox="0 0 96 96" xmlns="http://www.w3.org/2000/svg"><title>深度用户反馈-96px</title><defs><linearGradient id="b" x1="46.843" x2="46.843" y1="8.198" y2="90.173" gradientTransform="scale(1.0247 .9759)" gradientUnits="userSpaceOnUse"><stop stop-color="#A7FE59" offset="0"/><stop stop-color="#2BA305" offset="1"/></linearGradient><filter id="a" color-interpolation-filters="sRGB"><feFlood flood-color="#000" flood-opacity=".196" result="flood"/><feComposite in="flood" in2="SourceGraphic" operator="in" result="composite1"/><feGaussianBlur in="composite1" result="blur" stdDeviation="1"/><feOffset dx="0" dy="1" result="offset"/><feComposite in="SourceGraphic" in2="offset" result="composite2"/></filter></defs><g fill-rule="evenodd" filter="url(#a)"><path d="M48 84c23.197 0 42-15.909 42-38.001C90 23.909 71.197 8.002 48 8 24.803 8 6 23.909 6 45.999c0 12.097 5.638 22.34 14.548 29.133.533.407-.677 8.365-4.131 10.996-.85.647-.302 1.977.76 1.866 4.063-.426 10.03-1.95 14.165-6.94C36.45 82.965 42.082 84 48 84z" fill="#57c93f"/><path d="M89 45.999C89 24.872 71.1 9.002 48 9 24.901 9 7 24.871 7 45.999c0 11.402 5.171 21.489 14.154 28.337 1.618 1.233-.885 10.114-4.132 12.587 5.436-.49 10.232-2.506 13.55-6.507l.454-.548.666.25c5.07 1.895 10.591 2.881 16.307 2.881 23.1 0 41-15.87 41-37zM31.342 81.055c-4.136 4.989-10.102 6.513-14.165 6.939-1.063.111-1.61-1.219-.76-1.866 3.454-2.63 4.664-10.59 4.13-10.996C11.638 68.34 6 58.096 6 46 6 23.91 24.803 8 48 8c23.197.002 42 15.91 42 38 0 22.091-18.803 38-42 38-5.919 0-11.551-1.035-16.658-2.945z" fill="url(#b)" opacity=".4"/><g fill="#fff"><rect x="26" y="32" width="44" height="4" rx="2"/><rect x="26" y="44" width="44" height="4" rx="2"/><rect x="26" y="56" width="44" height="4" rx="2"/></g><path d="M26 35c0-1.105.899-2 2.005-2h39.99c1.107 0 2.005.888 2.005 2 0 1.105-.9 2-2.005 2h-39.99A1.998 1.998 0 0 1 26 35zm0 12c0-1.105.899-2 2.005-2h39.99c1.107 0 2.005.888 2.005 2 0 1.105-.9 2-2.005 2h-39.99A1.998 1.998 0 0 1 26 47zm0 12c0-1.105.899-2 2.005-2h39.99c1.107 0 2.005.888 2.005 2 0 1.105-.9 2-2.005 2h-39.99A1.998 1.998 0 0 1 26 59z" fill="#37be15"/><path d="M26 34c0-1.105.899-2 2.005-2h39.99c1.107 0 2.005.888 2.005 2 0 1.105-.9 2-2.005 2h-39.99A1.998 1.998 0 0 1 26 34zm0 12c0-1.105.899-2 2.005-2h39.99c1.107 0 2.005.888 2.005 2 0 1.105-.9 2-2.005 2h-39.99A1.998 1.998 0 0 1 26 46zm0 12c0-1.105.899-2 2.005-2h39.99c1.107 0 2.005.888 2.005 2 0 1.105-.9 2-2.005 2h-39.99A1.998 1.998 0 0 1 26 58z" fill="#f0ffe4"/><g fill="#fff"><path d="M69.937 34.499A1.998 1.998 0 0 0 67.995 32h-39.99a2.003 2.003 0 0 0-1.942 2.502A2.006 2.006 0 0 1 28.005 33h39.99a2 2 0 0 1 1.942 1.5zM69.937 46.499A1.998 1.998 0 0 0 67.995 44h-39.99a2.003 2.003 0 0 0-1.942 2.502A2.006 2.006 0 0 1 28.005 45h39.99a2 2 0 0 1 1.942 1.5zM69.937 58.499A1.998 1.998 0 0 0 67.995 56h-39.99a2.003 2.003 0 0 0-1.942 2.502A2.006 2.006 0 0 1 28.005 57h39.99a2 2 0 0 1 1.942 1.5z"/></g></g></svg>