<svg width="96" height="96" version="1.1" viewBox="0 0 96 96" xmlns="http://www.w3.org/2000/svg"><title>deepin-multitasking-view</title><defs><linearGradient id="b" x1="48" x2="48" y1="6" y2="87.462" gradientUnits="userSpaceOnUse"><stop stop-color="#FFB594" offset="0"/><stop stop-color="#FFB8A0" offset=".08"/><stop stop-color="#F94444" offset="1"/></linearGradient><linearGradient id="c" x1="48" x2="48" y1="7" y2="89" gradientUnits="userSpaceOnUse"><stop stop-color="#FFA57D" offset="0"/><stop stop-color="#FF9B7A" offset=".08"/><stop stop-color="#FF5959" offset="1"/></linearGradient><filter id="a" color-interpolation-filters="sRGB"><feFlood flood-color="#000" flood-opacity=".196" result="flood"/><feComposite in="flood" in2="SourceGraphic" operator="in" result="composite1"/><feGaussianBlur in="composite1" result="blur" stdDeviation="1"/><feOffset dx="0" dy="1" result="offset"/><feComposite in="SourceGraphic" in2="offset" result="composite2"/></filter></defs><g filter="url(#a)"><path d="M6 48C6 24.804 24.804 6 48 6s42 18.804 42 42-18.804 42-42 42S6 71.196 6 48z" fill="url(#b)" fill-rule="evenodd"/><path d="M7 48C7 25.356 25.356 7 48 7s41 18.356 41 41-18.356 41-41 41S7 70.644 7 48z" fill="url(#c)" fill-rule="evenodd"/><path d="M26 39h4v20h-4zm40 0h4v20h-4zm-32-4h28v28H34z" opacity=".1"/><path d="M26 38h4v20h-4zm40 0h4v20h-4zm-32-4h28v28H34z" fill="#fff5f3"/><path d="M34 34h28v1H34zm-8 4h4v1h-4zm40 0h4v1h-4z" fill="#fff" fill-rule="evenodd"/></g></svg>