<svg width="96" height="96" version="1.1" viewBox="0 0 96 96" xmlns="http://www.w3.org/2000/svg"><title>deepin-screen-recorder</title><defs><linearGradient id="b" x1="44.9" x2="44.9" y1="14.967" y2="89.8" gradientTransform="matrix(1.069 0 0 .93541 -5.385 4.749)" gradientUnits="userSpaceOnUse"><stop stop-color="#FF9C53" offset="0"/><stop stop-color="#FF303E" offset="1"/></linearGradient><linearGradient id="c" x1="43.852" x2="43.852" y1="16.957" y2="90.313" gradientTransform="matrix(1.0886 -.11442 .0955 .90858 -4.859 5.286)" gradientUnits="userSpaceOnUse"><stop stop-color="#FF7C44" offset="0"/><stop stop-color="#FF4E5A" offset="1"/></linearGradient><filter id="a" color-interpolation-filters="sRGB"><feFlood flood-color="#000" flood-opacity=".196" result="flood"/><feComposite in="flood" in2="SourceGraphic" operator="in" result="composite1"/><feGaussianBlur in="composite1" result="blur" stdDeviation="1"/><feOffset dx="0" dy="1" result="offset"/><feComposite in="SourceGraphic" in2="offset" result="composite2"/></filter></defs><g fill-rule="evenodd" filter="url(#a)"><rect transform="rotate(-6)" x="2.615" y="18.749" width="80" height="70" rx="2" fill="url(#b)"/><path d="M4.78 21.867a1.993 1.993 0 0 1 1.767-2.203l75.59-7.944a2.012 2.012 0 0 1 2.205 1.785l6.879 62.629a1.993 1.993 0 0 1-1.768 2.202l-75.589 7.945a2.012 2.012 0 0 1-2.205-1.785z" fill="url(#c)"/><path d="M55.31 43.512l11.435-7.169c.937-.587 1.792-.173 1.91.923l2.368 21.878c.12 1.096-.628 1.688-1.678 1.318L56.62 55.98l.276 2.63a4.003 4.003 0 0 1-3.56 4.4L27.48 65.73a3.999 3.999 0 0 1-4.397-3.566l-1.88-17.89a4.003 4.003 0 0 1 3.56-4.402l25.857-2.717a3.999 3.999 0 0 1 4.397 3.565zm0 0l-10.568 6.625c-.936.586-.848 1.361.198 1.73l11.68 4.114z" fill="#ff382d"/><path d="M55.31 42.012l11.435-7.169c.937-.587 1.792-.173 1.91.923l2.368 21.878c.12 1.096-.628 1.688-1.667 1.322L56.62 54.48l.276 2.629a4.003 4.003 0 0 1-3.56 4.402L27.48 64.228a3.999 3.999 0 0 1-4.397-3.565l-1.88-17.89a4.003 4.003 0 0 1 3.56-4.402l25.857-2.717a3.999 3.999 0 0 1 4.397 3.565zm0 0l-10.568 6.625c-.936.586-.853 1.36.187 1.726L56.62 54.48z" fill="#fff"/><path fill="#fff" opacity=".3" d="M64.751 36.18l20.73-13.24 4.6 43.759-23.03-8.64z"/><path d="M66.745 35.593c.937-.587 1.792-.173 1.91.922l2.368 21.128c.12 1.097-.628 1.689-1.667 1.323l-12.731-4.479.271 1.872a4.003 4.003 0 0 1-3.56 4.401L27.48 63.478a3.999 3.999 0 0 1-4.397-3.565l-1.88-16.39a4.003 4.003 0 0 1 3.56-4.402l25.857-2.718c2.197-.23 4.274 1.36 4.506 3.566 0 0 .234 2.75.26 2.734l11.36-7.11zM44.742 48.636c-.936.587-.853 2.11.187 2.476l11.809 4.118-1.428-13.219z" fill="#fff3f3"/><circle cx="79.5" cy="18" r="2.25" fill="#ff4000"/><circle cx="79.5" cy="17.25" r="2.25" fill="#fff"/></g></svg>