<svg width="96" height="96" version="1.1" viewBox="0 0 96 96" xmlns="http://www.w3.org/2000/svg" xmlns:xlink="http://www.w3.org/1999/xlink"><title>deepin-system-monitor</title><defs><linearGradient id="b" x1="47.447" x2="32.741" y1="84" y2="1.013" gradientUnits="userSpaceOnUse"><stop stop-color="#4721FF" offset="0"/><stop stop-color="#8F86FF" offset="1"/></linearGradient><linearGradient id="c" x1="47.317" x2="32.786" y1="83" y2="1" gradientUnits="userSpaceOnUse"><stop stop-color="#5F3EFF" offset="0"/><stop stop-color="#6E62FF" offset="1"/></linearGradient><linearGradient id="e" x1="33.75" x2="33.75" y1=".375" y2="67.125" gradientUnits="userSpaceOnUse"><stop stop-color="#1E007E" offset="0"/><stop stop-color="#3721B2" offset="1"/></linearGradient><circle id="d" cx="33.75" cy="33.75" r="33.375"/><path id="h" d="M13.981 47.201c.296.632.855 1.528 1.698 2.428 1.445 1.543 3.221 2.492 5.32 2.492 2.58 0 4.467-1.522 5.878-4.285.99-1.939 1.565-3.816 2.713-8.31 2.099-8.22 3.469-10.9 6.41-10.9 2.876 0 4 2.638 5.39 10.811.767 4.501 1.183 6.38 2.012 8.329 1.191 2.798 2.99 4.355 5.598 4.355 3.252 0 4.458-1.885 5.47-6.208.029-.12.056-.238.11-.473.726-3.126 1.22-3.998 2.42-3.998.908 0 1.335.612 2.017 2.862l.255.847c.105.343.193.624.285.897 1.496 4.471 4.088 6.599 9.552 6.068a1.125 1.125 0 1 0-.218-2.24c-4.302.418-6.009-.983-7.2-4.542-.084-.25-.167-.513-.266-.837l-.255-.846c-.954-3.145-1.87-4.46-4.17-4.46-2.748 0-3.648 1.59-4.611 5.74l-.11.47c-.79 3.378-1.49 4.47-3.279 4.47-2.877 0-4-2.638-5.391-10.812-.766-4.5-1.182-6.38-2.011-8.328-1.191-2.798-2.99-4.356-5.598-4.356-2.578 0-4.466 1.522-5.877 4.285-.99 1.939-1.565 3.816-2.713 8.31-2.099 8.22-3.469 10.9-6.41 10.9-1.4 0-2.624-.653-3.679-1.779a8.447 8.447 0 0 1-.992-1.295 5.877 5.877 0 0 1-.31-.549 1.125 1.125 0 0 0-2.038.954z"/><filter id="g" x="-26.7%" y="-58.1%" width="153.3%" height="216.2%"><feMorphology in="SourceAlpha" operator="dilate" radius=".5" result="shadowSpreadOuter1"/><feOffset dx="0" dy="0" in="shadowSpreadOuter1" result="shadowOffsetOuter1"/><feGaussianBlur in="shadowOffsetOuter1" result="shadowBlurOuter1" stdDeviation="4.5"/><feColorMatrix in="shadowBlurOuter1" values="0 0 0 0 0.243137255 0 0 0 0 0.423529412 0 0 0 0 1 0 0 0 1 0"/></filter><filter id="a" color-interpolation-filters="sRGB"><feFlood flood-color="#000" flood-opacity=".196" result="flood"/><feComposite in="flood" in2="SourceGraphic" operator="in" result="composite1"/><feGaussianBlur in="composite1" result="blur" stdDeviation="1"/><feOffset dx="0" dy="1" result="offset"/><feComposite in="SourceGraphic" in2="offset" result="composite2"/></filter></defs><g transform="translate(6 6)" fill="none" fill-rule="evenodd" filter="url(#a)"><circle cx="42" cy="42" r="42" fill="url(#b)"/><circle cx="42" cy="42" r="41" fill="url(#c)"/><g transform="translate(8.25 8.625)"><mask id="f" fill="#fff"><use width="100%" height="100%" xlink:href="#d"/></mask><use width="100%" height="100%" fill="url(#e)" xlink:href="#d"/><g mask="url(#f)" stroke="#fff"><path d="M17.625 3.875h32.25" opacity=".2"/><path d="M11.25 8.875h46.125M6.75 13.875h55.5" opacity=".1"/><path d="M4.5 18.875h59.25" opacity=".2"/><path d="M1.125 22.875h66M1.125 27.875h66" opacity=".1"/><path d="M.75 32.875H67.5" opacity=".2"/><path d="M1.125 37.875h66M1.875 42.875H66" opacity=".1"/><path d="M4.125 47.875h60" opacity=".2"/><path d="M6.75 52.875h55.125M10.5 57.875h46.875" opacity=".1"/></g><g stroke="#fff" mask="url(#f)"><path d="M63.25 51.25v-36M3.25 51.25v-36" opacity=".2"/><path d="M8.25 55V9.625M13.25 63.25V5.125" opacity=".1"/><path d="M18.25 63.625V4" opacity=".2"/><path d="M23.25 65.5V1.75M28.25 65.125V.25" opacity=".1"/><path d="M33.25 65.5V.25" opacity=".2"/><path d="M38.25 65.125V.25M43.25 65.5V1.75" opacity=".1"/><path d="M48.25 64.375V4" opacity=".2"/><path d="M53.25 63.25V5.125M58.25 56.25V10.875" opacity=".1"/></g></g><path d="M57.144 73.382C68.606 67.773 76.5 55.996 76.5 42.375c0-19.054-15.446-34.5-34.5-34.5S7.5 23.321 7.5 42.375c0 13.651 7.928 25.45 19.431 31.044" opacity=".497" stroke="#fff" stroke-linecap="round" stroke-width="2"/><path d="M42 7.875c-19.054 0-34.5 15.377-34.5 34.345 0 13.59 7.928 25.336 19.431 30.905" stroke="#fff" stroke-linecap="round" stroke-linejoin="round" stroke-width="2"/><g fill-rule="nonzero"><use width="100%" height="100%" fill="#000" filter="url(#g)" xlink:href="#h"/><use width="100%" height="100%" fill="#fff" fill-rule="evenodd" xlink:href="#h"/></g><rect x="31.875" y="70.125" width="20.25" height="9" rx="4.5" fill="#6040ff"/><path d="M37.418 78.51c.72 0 1.313-.285 1.77-.818l-.585-.69c-.3.323-.675.548-1.147.548-.878 0-1.448-.727-1.448-1.935 0-1.192.63-1.912 1.47-1.912.42 0 .743.195 1.02.465l.585-.705a2.264 2.264 0 0 0-1.627-.713c-1.403 0-2.58 1.073-2.58 2.903 0 1.852 1.14 2.857 2.542 2.857zm2.663-.105v-5.55h1.822c1.23 0 2.175.427 2.175 1.74 0 1.268-.953 1.837-2.145 1.837h-.743v1.973zm1.11-2.85h.667c.765 0 1.133-.323 1.133-.96 0-.645-.406-.862-1.17-.862h-.63zm6.022 2.955c1.357 0 2.145-.757 2.145-2.603v-3.052h-1.065v3.15c0 1.155-.42 1.545-1.08 1.545-.652 0-1.05-.39-1.05-1.545v-3.15h-1.11v3.053c0 1.844.81 2.602 2.16 2.602z" fill="#4e30dd"/><path d="M37.418 77.76c.72 0 1.313-.285 1.77-.818l-.585-.69c-.3.323-.675.548-1.147.548-.878 0-1.448-.727-1.448-1.935 0-1.192.63-1.912 1.47-1.912.42 0 .743.195 1.02.465l.585-.705A2.264 2.264 0 0 0 37.456 72c-1.403 0-2.58 1.073-2.58 2.903 0 1.852 1.14 2.857 2.542 2.857zm2.663-.105v-5.55h1.822c1.23 0 2.175.427 2.175 1.74 0 1.268-.953 1.837-2.145 1.837h-.743v1.973zm1.11-2.85h.667c.765 0 1.133-.323 1.133-.96 0-.645-.406-.862-1.17-.862h-.63zm6.022 2.955c1.357 0 2.145-.757 2.145-2.603v-3.052h-1.065v3.15c0 1.155-.42 1.545-1.08 1.545-.652 0-1.05-.39-1.05-1.545v-3.15h-1.11v3.053c0 1.844.81 2.602 2.16 2.602z" fill="#fff"/></g></svg>