<svg width="96" height="96" version="1.1" viewBox="0 0 96 96" xmlns="http://www.w3.org/2000/svg"><title>深度云打印-linux-96px</title><defs><linearGradient id="b" x1="38.036" x2="38.036" y1="19.187" y2="83.854" gradientTransform="scale(1.262 .79241)" gradientUnits="userSpaceOnUse"><stop stop-color="#fff" offset="0"/><stop stop-color="#C0E9FE" offset="1"/></linearGradient><linearGradient id="c" x1="38.035" x2="38.035" y1="17.668" y2="85.126" gradientTransform="scale(1.262 .79241)" gradientUnits="userSpaceOnUse"><stop stop-color="#EBF9FF" offset="0"/><stop stop-color="#C4E6F8" offset="1"/></linearGradient><linearGradient id="d" x1="3.347" x2="3.347" y1="1.195" y2="3.903" gradientTransform="scale(1.1952 .83666)" gradientUnits="userSpaceOnUse"><stop stop-color="#fff" offset="0"/><stop stop-color="#fff" stop-opacity="0" offset="1"/></linearGradient><linearGradient id="e" x1="40.357" x2="40.357" y1="57.09" y2="105.86" gradientTransform="scale(1.1894 .84077)" gradientUnits="userSpaceOnUse"><stop stop-color="#44A8FF" offset="0"/><stop stop-color="#016EDA" offset="1"/></linearGradient><filter id="a" color-interpolation-filters="sRGB"><feFlood flood-color="#000" flood-opacity=".196" result="flood"/><feComposite in="flood" in2="SourceGraphic" operator="in" result="composite1"/><feGaussianBlur in="composite1" result="blur" stdDeviation="1"/><feOffset dx="0" dy="1" result="offset"/><feComposite in="SourceGraphic" in2="offset" result="composite2"/></filter></defs><g fill-rule="evenodd" filter="url(#a)"><path d="M19 33V11.258A2.255 2.255 0 0 1 21.256 9h53.488C75.99 9 77 10 77 11.258V33z" fill="#43a6fe"/><path d="M19 32V12.251A2.251 2.251 0 0 1 21.256 10h53.488A2.25 2.25 0 0 1 77 12.251V32z" fill="#0080ff"/><path d="M91 50c0-7.585-5.326-14.321-12.851-16-1.857-8.69-9.284-14.786-17.793-15-2.939.214-5.393.734-7.908 2-3.576-4.43-9.023-7-14.828-7-11.792 0-21.154 9.286-21.747 21C9.71 37.18 4.999 43.471 4.999 51c0 9.274 7.562 16.892 16.805 17h52.391C83.424 67.682 91 59.94 91 50z" fill="url(#b)"/><path d="M78.47 33.17c-2.31-8.256-9.902-14.095-18.676-14.095-2.577 0-5.863.927-6.937 1.32A21.454 21.454 0 0 0 37.548 14c-11.495 0-20.687 8.253-21.436 20.467C9.476 37.056 5 43.416 5 50.627 5 60.165 12.75 67.913 22.356 68l51.202-.01C83.262 67.699 91 59.818 91 50.167c0-7.976-5.19-14.41-12.53-16.998zm-4.956 33.361l-51.152.03c-8.803-.1-15.905-7.2-15.905-15.933 0-6.755 4.294-12.7 10.614-14.961l.476-.17.008-.506c.169-10.826 9.062-19.53 19.993-19.53a20.002 20.002 0 0 1 14.562 6.261l.343.363.462-.19a18.03 18.03 0 0 1 6.878-1.359c8.246 0 15.361 5.572 17.37 13.395l.104.403.399.116c6.987 2.032 11.875 8.4 11.875 15.718 0 8.857-7.107 16.096-16.028 16.363z" fill="url(#c)"/><path d="M19 67.7c-3-.6-5-1.8-5-1.8L19 48s-.01 13.684 0 19.7zM77 67.8c3-.4 5-1.6 5-1.6l-.716-2.521L77 47.999z" fill="#338dbc" fill-opacity=".2"/><g transform="translate(79 45)"><circle cx="3.988" cy="3.02" r="3" fill="#00b0df"/><circle cx="4" cy="3" r="2" fill="#31d4ff"/><ellipse cx="4" cy="2.167" rx="1.667" ry="1.167" fill="url(#d)"/></g><path d="M19 48v38.752A2.25 2.25 0 0 0 21.256 89h53.488A2.257 2.257 0 0 0 77 86.752V48z" fill="url(#e)"/><path d="M19 49v36.749A2.251 2.251 0 0 0 21.256 88h53.488A2.25 2.25 0 0 0 77 85.75V49z" fill="#0080ff"/><path fill="#fff" d="M26 63h44v2H26zM26 74h44v2H26z"/></g></svg>