<svg width="96" height="96" version="1.1" viewBox="0 0 96 96" xmlns="http://www.w3.org/2000/svg"><title>deepin-clone</title><path d="M48 5.033c-23.21 0-42.03 18.817-42.03 42.03S24.79 89.094 48 89.094s42.031-18.818 42.031-42.03c0-23.214-18.82-42.031-42.03-42.031z" fill="#6eaa36"/><path d="M48.263 16.145c-12.894 0-20.263 5.28-25.071 11.228 3.685 1.01 6.26 1.852 7.09 2.127l.098-5.576.073-.16.186-.057c1.134.164 25.31 3.739 35.492 9.673 1.261.742 1.88 1.515 2.66 2.314 2.815 2.91 6.553 15.021 6.949 17.525l-.16.26c-.145.053-.5.3-.964.617-2.376 1.66-7.93 5.549-15.052 4.916-6.404-.57-14.76-4.244-24.839-10.881.444 1.046 2.54 6.02 2.89 6.856l.144.172c1.46.754 15.463 7.894 22.412 7.749 5.606-.112 11.592-2.848 13.987-4.284l.763-.145c.213.167.18.492.114.793-.147.686-.476 1.945-.705 2.53l-.187.488c-.272.724-.539 1.423-1.048 1.841-1.413 1.285-3.674 2.302-7.204 3.85-5.458 2.385-14.304 3.886-22.525 3.838-2.94-.072-5.79-.395-8.29-.681-5.22-.593-9.459-1.072-11.992.895 6.16 6.96 15.159 11.357 25.186 11.357 18.57 0 33.64-15.053 33.64-33.625 0-18.568-15.07-33.624-33.64-33.624h-.004zm8.888 17.795c-2.573.039-4.995 1.001-6.887 2.775a10.25 10.25 0 0 0-3.289 7.204c-.185 5.692 4.296 10.497 9.99 10.71a10.27 10.27 0 0 0 7.417-2.79 10.288 10.288 0 0 0 3.278-7.189c.195-5.7-4.286-10.505-9.99-10.71-.173-.005-.347-.002-.518 0zm-.274 3.05c.237-.015.464-.01.705 0 3.977.139 7.105 3.473 6.971 7.459a7.187 7.187 0 0 1-2.283 5.034 7.215 7.215 0 0 1-5.176 1.925c-3.975-.147-7.09-3.495-6.96-7.474a7.172 7.172 0 0 1 2.287-5.02 7.128 7.128 0 0 1 4.456-1.925zm1.896 3.609c-1.773 0-3.206.96-3.206 2.142 0 1.174 1.433 2.142 3.206 2.142 1.767 0 3.19-.966 3.19-2.142 0-1.182-1.424-2.142-3.19-2.142z" opacity=".2"/><path d="M48.262 14.642c-12.895 0-20.264 5.28-25.072 11.229 3.685 1.01 6.26 1.852 7.09 2.126l.099-5.576.072-.16.187-.057c1.134.164 25.31 3.74 35.492 9.673 1.26.742 1.88 1.516 2.66 2.314 2.814 2.91 6.552 15.021 6.948 17.525l-.16.26c-.145.053-.5.3-.964.617-2.375 1.661-7.93 5.55-15.051 4.917-6.405-.571-14.76-4.245-24.84-10.882.445 1.046 2.54 6.021 2.89 6.857l.145.171c1.46.754 15.462 7.894 22.411 7.75 5.607-.112 11.592-2.848 13.988-4.285l.762-.145c.213.167.18.492.115.793-.148.686-.477 1.946-.706 2.53l-.186.489c-.273.724-.54 1.423-1.048 1.84-1.413 1.286-3.675 2.302-7.204 3.85-5.459 2.386-14.305 3.886-22.526 3.838-2.94-.071-5.79-.395-8.29-.68-5.219-.593-9.458-1.072-11.991.895 6.16 6.961 15.158 11.358 25.185 11.358 18.57 0 33.64-15.053 33.64-33.625 0-18.569-15.07-33.625-33.64-33.625h-.004zm8.888 17.796c-2.574.038-4.996 1-6.887 2.774a10.25 10.25 0 0 0-3.29 7.204c-.184 5.692 4.296 10.497 9.99 10.71a10.27 10.27 0 0 0 7.417-2.79 10.288 10.288 0 0 0 3.278-7.188c.195-5.7-4.285-10.505-9.99-10.71-.172-.006-.346-.003-.518 0zm-.274 3.049c.237-.015.464-.01.705 0 3.977.14 7.104 3.474 6.97 7.459a7.187 7.187 0 0 1-2.282 5.035 7.215 7.215 0 0 1-5.176 1.925c-3.976-.148-7.091-3.495-6.96-7.475a7.172 7.172 0 0 1 2.287-5.02 7.128 7.128 0 0 1 4.455-1.924zm1.895 3.609c-1.773 0-3.205.96-3.205 2.142 0 1.174 1.432 2.142 3.205 2.142 1.767 0 3.19-.966 3.19-2.142 0-1.182-1.423-2.142-3.19-2.142z" fill="#fff"/><path d="M6.002 47.696a42.03 42.03 0 0 0-.032.868A42.03 42.03 0 0 0 48 90.594a42.03 42.03 0 0 0 42.031-42.03 42.03 42.03 0 0 0-.032-.61 42.03 42.03 0 0 1-41.998 41.14A42.03 42.03 0 0 1 6.002 47.696z" opacity=".2"/><path d="M48 5.032a42.03 42.03 0 0 0-42.03 42.03 42.03 42.03 0 0 0 .032.61 42.03 42.03 0 0 1 42-41.138A42.03 42.03 0 0 1 90 47.93a42.03 42.03 0 0 0 .032-.868 42.03 42.03 0 0 0-42.031-42.03z" fill="#fff" opacity=".2"/></svg>