<svg width="96" height="96" version="1.1" viewBox="0 0 96 96" xmlns="http://www.w3.org/2000/svg"><title>deepin-calculator</title><path d="M12.884 9.679a3.893 3.893 0 0 0-3.902 3.901v70.233a3.893 3.893 0 0 0 3.902 3.902H32.67V33.368h26.477V9.678zm50.445 0v78.036h19.787a3.893 3.893 0 0 0 3.902-3.902V13.58a3.893 3.893 0 0 0-3.902-3.901zm-26.477 27.87v50.166h22.296V37.549z" opacity=".2"/><path d="M12.884 8.285a3.893 3.893 0 0 0-3.902 3.902v70.232a3.893 3.893 0 0 0 3.902 3.902H32.67V31.975h26.477V8.285zm50.445 0v78.036h19.787a3.893 3.893 0 0 0 3.902-3.902V12.187a3.893 3.893 0 0 0-3.902-3.902zm-26.477 27.87v50.166h22.296V36.155z" fill="#16a085"/><path d="M12.885 8.285a3.895 3.895 0 0 0-3.903 3.903v1.394a3.895 3.895 0 0 1 3.903-3.903h46.263V8.285zm50.443 0V9.68h19.787a3.895 3.895 0 0 1 3.902 3.903v-1.394a3.895 3.895 0 0 0-3.902-3.903zm-26.476 27.87v1.394h22.296v-1.394z" fill="#fff" opacity=".2"/></svg>