<svg width="96" height="96" version="1.1" viewBox="0 0 96 96" xmlns="http://www.w3.org/2000/svg"><title>deepin-calculator</title><path d="M85.29 13.643c-.145-.433-.132-.978-.405-1.336-3.73.537-7.422 1.458-10.875 2.979-3.658 1.57-7.632 4.208-10.427 7.03 4.554 4.742 8.082 10.526 12.212 15.024 1.924 2.787 3.863 7.112 5.506 10.066.365-.66 2.565-3.481 2.87-4.174 2.405-4.953 2.913-10.562 2.785-15.987-.055-4.577-.735-9.122-1.665-13.6zM10.666 13.643c.145-.433.132-.978.405-1.336 3.73.537 7.423 1.458 10.875 2.979 3.658 1.57 7.633 4.208 10.428 7.03-4.555 4.742-8.082 10.526-12.213 15.024-1.924 2.787-3.862 7.112-5.506 10.066-.364-.66-2.565-3.481-2.87-4.174C9.382 38.28 8.874 32.67 9 27.245c.056-4.577.735-9.122 1.666-13.6z" opacity=".2"/><path d="M34.45 18.15a38.31 38.31 0 0 0-2.199 1.571c-1.685 1.255-3.225 2.7-4.725 4.164a65.763 65.763 0 0 0-1.676 1.78c-.251.275-.5.55-.746.829-.188.216-.374.433-.56.651 0 .002-.002.003-.003.004l-.01.013c-5.164 6.037-9.263 12.94-12.543 20.141a96.449 96.449 0 0 0-.994 2.336l-.213.507-.074.197a88.014 88.014 0 0 0-1.633 4.41.816.816 0 0 0-.07.394l.002.008c.02.28.15.556.237.821a42.674 42.674 0 0 0 2.343 5.372l.03.059a39.752 39.752 0 0 0 4.766 7.142 38.74 38.74 0 0 0 3.97 4.147c.127.116.256.23.384.343l.13.116c.513.451 1.037.89 1.572 1.317 3.28 2.647 7.125 4.808 11.063 6.267l.4.146a40.178 40.178 0 0 0 4.195 1.282 40.903 40.903 0 0 0 8.388 1.175l.035.002c.246.008.493.014.74.018l.25.005c.168.002.335.001.502.001l.5-.001.252-.005c.246-.004.493-.01.74-.018l.036-.002a40.903 40.903 0 0 0 9.214-1.39l.012-.003a40.191 40.191 0 0 0 3.359-1.066c.13-.046.261-.094.392-.143l.005-.002c3.984-1.46 7.793-3.651 11.067-6.27a41.277 41.277 0 0 0 2.082-1.772 38.745 38.745 0 0 0 3.97-4.147 39.743 39.743 0 0 0 4.76-7.135l.04-.075c.122-.235.242-.471.36-.708l.006-.012a42.665 42.665 0 0 0 1.972-4.642c.086-.266.218-.543.237-.822 0-.003.002-.005.003-.008l-.002-.006a.814.814 0 0 0-.07-.389 82.7 82.7 0 0 0-.588-1.676 87.998 87.998 0 0 0-1.047-2.74l-.071-.19-.207-.495a96.376 96.376 0 0 0-1-2.348c-3.28-7.2-7.378-14.105-12.542-20.141l-.007-.009-.005-.006-.002-.003a79.111 79.111 0 0 0-.56-.65 66.314 66.314 0 0 0-.711-.791 65.47 65.47 0 0 0-1.71-1.818c-1.5-1.464-3.04-2.908-4.723-4.163a38.267 38.267 0 0 0-2.202-1.572c-4.62-3.01-8.479-4.297-13.718-4.438-4.759.028-10.049 2.26-13.402 4.438z" opacity=".2"/><path d="M85.29 10.857c-.145-.433-.132-.979-.405-1.337-3.73.538-7.422 1.459-10.875 2.98-3.658 1.57-7.632 4.208-10.427 7.03 4.554 4.742 8.082 10.526 12.212 15.024 1.924 2.787 3.863 7.111 5.506 10.066.365-.66 2.565-3.482 2.87-4.174 2.405-4.954 2.913-10.562 2.785-15.987-.055-4.577-.735-9.123-1.665-13.601z" fill="#db3d7f"/><path d="M84.885 9.52c-3.73.537-7.423 1.458-10.875 2.979-3.658 1.57-7.632 4.209-10.427 7.03.233.243.453.498.68.746 2.74-2.573 6.372-4.934 9.747-6.383 3.452-1.521 7.145-2.44 10.875-2.977.273.358.26.903.406 1.336.93 4.478 1.61 9.022 1.665 13.599.007.319.005.64.008.96.012-.785.01-1.572-.008-2.353-.055-4.577-.735-9.12-1.665-13.6-.146-.432-.133-.98-.406-1.338z" fill="#fff" opacity=".1"/><path d="M10.666 10.857c.145-.433.132-.979.405-1.337 3.73.538 7.423 1.459 10.875 2.98 3.658 1.57 7.633 4.208 10.428 7.03-4.555 4.742-8.082 10.526-12.213 15.024-1.924 2.787-3.862 7.111-5.506 10.066-.364-.66-2.565-3.482-2.87-4.174C9.382 35.492 8.874 29.884 9 24.459c.056-4.577.735-9.123 1.666-13.601z" fill="#db3d7f"/><path d="M11.072 9.52c-.273.357-.26.905-.405 1.338-.93 4.478-1.61 9.022-1.666 13.599a61.33 61.33 0 0 0-.008 2.353c.003-.32.001-.641.008-.96.056-4.577.735-9.12 1.666-13.6.145-.432.132-.977.405-1.335 3.73.538 7.423 1.456 10.875 2.977 3.376 1.45 7.008 3.81 9.747 6.383.227-.248.447-.503.68-.746-2.795-2.821-6.769-5.46-10.427-7.03-3.452-1.522-7.145-2.442-10.875-2.98z" fill="#fff" opacity=".1"/><path d="M34.45 16.757a38.31 38.31 0 0 0-2.199 1.57c-1.685 1.256-3.225 2.7-4.725 4.165a65.763 65.763 0 0 0-1.676 1.78c-.251.275-.5.55-.746.829-.188.216-.374.433-.56.651l-.003.004-.01.013c-5.164 6.037-9.263 12.94-12.543 20.141a96.449 96.449 0 0 0-.994 2.335c-.071.17-.143.338-.213.508l-.074.197a88.014 88.014 0 0 0-1.633 4.409.816.816 0 0 0-.07.395l.002.008c.02.279.15.556.237.821a42.674 42.674 0 0 0 2.343 5.372l.03.059a39.752 39.752 0 0 0 4.766 7.142 38.74 38.74 0 0 0 3.97 4.147c.127.116.256.229.384.343l.13.115c.513.452 1.037.891 1.572 1.317 3.28 2.647 7.125 4.808 11.063 6.267.133.05.266.1.4.146a40.178 40.178 0 0 0 4.195 1.282 40.903 40.903 0 0 0 8.388 1.176l.035.002c.246.008.493.014.74.018l.25.005c.168.002.335 0 .502 0 .167 0 .334.002.5 0l.252-.005c.246-.005.493-.01.74-.018l.036-.002a40.903 40.903 0 0 0 9.214-1.39l.012-.003a40.191 40.191 0 0 0 3.359-1.066c.13-.046.261-.095.392-.143l.005-.002c3.984-1.46 7.793-3.652 11.067-6.27a41.277 41.277 0 0 0 2.082-1.773 38.745 38.745 0 0 0 3.97-4.146 39.743 39.743 0 0 0 4.76-7.136l.04-.074c.122-.235.242-.471.36-.709l.006-.012a42.665 42.665 0 0 0 1.972-4.642c.086-.265.218-.542.237-.821 0-.003.002-.006.003-.008l-.002-.006a.814.814 0 0 0-.07-.39 82.7 82.7 0 0 0-.588-1.675 87.998 87.998 0 0 0-1.047-2.74l-.071-.19c-.068-.166-.138-.33-.207-.495a96.376 96.376 0 0 0-1-2.348c-3.28-7.201-7.378-14.105-12.542-20.141l-.007-.01-.005-.005-.002-.003a79.111 79.111 0 0 0-.56-.65 66.314 66.314 0 0 0-.711-.792 65.47 65.47 0 0 0-1.71-1.818c-1.5-1.463-3.04-2.907-4.723-4.162a38.267 38.267 0 0 0-2.203-1.572c-4.619-3.01-8.478-4.297-13.718-4.438-4.758.028-10.048 2.26-13.402 4.438z" fill="#e4e4e4"/><g fill="#3f3f3f"><path d="M28.617 45.755c-1.785.001-3.57.252-5.273.77-.496 2.998-.745 6.15.273 9.075.797 2.582 2.818 4.775 5.372 5.794 3.111 1.29 6.657 1.336 9.914.595.42-1.876.77-3.786.72-5.715.081-2.367-.473-4.831-1.911-6.77-1.657-2.289-4.529-3.46-7.315-3.668a19.32 19.32 0 0 0-1.78-.081zm-.037 2.468c.956-.018 1.913.058 2.845.248.409.169 1.025.076 1.313.414-1.305.504-2.423 1.558-2.785 2.908-.442 1.414-.005 3.031 1.052 4.08 1.521 1.69 4.538 1.769 6.122.129-.04 1.299-.083 2.624-.4 3.878-1.319.132-2.675.186-3.99-.022-2.4-.258-4.88-1.422-6.087-3.559-1.372-2.343-1.385-5.14-1.048-7.74.388-.211.84-.165 1.265-.206.567-.075 1.14-.12 1.713-.13zM39.655 66.162c-.119.242.233.406.367.594 1.957 1.845 3.889 3.706 5.88 5.528.402.383 1.003.55 1.585.69.004 1.088.013 2.176-.004 3.265.227.222.643.19.938.073-.02-1.1.023-2.2-.024-3.297.599-.19 1.242-.355 1.684-.756 1.996-1.902 4.025-3.787 6.015-5.693.074-.125.331-.237.229-.392-2.24-.556-4.575-.79-6.906-.893-3.29-.101-6.607.12-9.764.881zM47.852 12.32c-2.017.012-4.13.42-6.151 1.053 1.807 6.498 3.523 13.021 5.306 19.525l.743-.075c.486-6.81 1.2-13.612 1.662-20.423a31.605 31.605 0 0 0-1.56-.08zm-7.007 1.335c-2.42.842-4.665 1.979-6.395 3.102-1.005.724-3.017 2.085-1.194.857 3.567 5.657 7.177 11.29 10.759 16.939.225-.088.45-.178.676-.27-.518-2.564-.918-5.146-1.443-7.707-.437-2.136-.759-4.29-1.196-6.425-.446-2.159-.786-4.335-1.207-6.496z"/></g><path d="M29.068 74.326L11.097 86.835" fill="none" opacity=".2" stroke="#000" stroke-linecap="round" stroke-linejoin="round" stroke-width="4.1793"/><path d="M29.068 72.933L11.097 85.442" fill="none" stroke="#db3d7f" stroke-linecap="round" stroke-linejoin="round" stroke-width="4.1793"/><path d="M67.516 45.755c1.784.001 3.57.252 5.273.77.495 2.998.744 6.15-.274 9.075-.797 2.582-2.818 4.775-5.372 5.794-3.11 1.29-6.657 1.336-9.914.595-.419-1.876-.769-3.786-.72-5.715-.08-2.367.473-4.831 1.912-6.77 1.657-2.289 4.528-3.46 7.314-3.668a19.32 19.32 0 0 1 1.781-.081zm.037 2.468a13.033 13.033 0 0 0-2.846.248c-.408.169-1.025.076-1.312.414 1.305.504 2.422 1.558 2.784 2.908.443 1.414.006 3.031-1.051 4.08-1.522 1.69-4.539 1.769-6.123.129.04 1.299.084 2.624.401 3.878 1.318.132 2.675.186 3.989-.022 2.4-.258 4.88-1.422 6.087-3.559 1.373-2.343 1.386-5.14 1.048-7.74-.387-.211-.84-.165-1.264-.206-.567-.075-1.14-.12-1.713-.13z" fill="#3f3f3f"/><g fill="none" stroke-linecap="round" stroke-linejoin="round" stroke-width="3"><path d="M40.213 74.326L22.242 86.835" opacity=".2" stroke="#000" stroke-width="4.1793"/><path d="M40.213 72.933L22.242 85.442" stroke="#db3d7f" stroke-width="4.1793"/><path d="M66.82 74.326l17.972 12.509" opacity=".2" stroke="#000" stroke-width="4.1793"/><path d="M66.82 72.933l17.972 12.509" stroke="#db3d7f" stroke-width="4.1793"/><path d="M55.676 74.326l17.971 12.509" opacity=".2" stroke="#000" stroke-width="4.1793"/><path d="M55.676 72.933l17.971 12.509" stroke="#db3d7f" stroke-width="4.1793"/></g></svg>