<svg width="96" height="96" version="1.1" viewBox="0 0 96 96" xmlns="http://www.w3.org/2000/svg"><title>deepin-clone</title><path d="M19.494 6.915c-3.504.29-8.759 2.8-11.187 6.645-3.01 4.77-2.312 7.196-2.162 9.486.15 2.29.6 4.344 1.32 6.47 1.092 3.225 2.893 5.78 4.46 8.592-1.657 4.365-2.817 8.899-2.829 13.607v.03c0 21.342 17.56 38.901 38.902 38.901 21.343 0 38.902-17.559 38.902-38.902v-.018c-.007-4.714-1.17-9.253-2.829-13.624 1.567-2.81 3.368-5.36 4.46-8.585.72-2.127 1.171-4.18 1.32-6.47.15-2.29.848-4.717-2.162-9.487-1.616-2.559-4.567-4.861-7.323-5.833-2.75-.968-5.086-.963-7.002-.789a22.98 22.98 0 0 0-3.524.602c-5.283 1.277-9.923 3.74-14.606 6.698-2.411-.47-4.734-1.39-7.201-1.396h-.04c-2.48.001-4.819.921-7.243 1.39-4.68-2.954-9.315-5.416-14.594-6.692a22.974 22.974 0 0 0-3.536-.602 17.971 17.971 0 0 0-3.127-.023z" opacity=".2"/><path d="M19.494 5.419c-3.504.29-8.759 2.8-11.187 6.645-3.01 4.771-2.312 7.196-2.162 9.486.15 2.29.6 4.344 1.32 6.47 1.092 3.225 2.893 5.78 4.46 8.592-1.657 4.365-2.817 8.899-2.829 13.607v.03c0 21.342 17.56 38.901 38.902 38.901 21.343 0 38.902-17.559 38.902-38.902v-.018c-.007-4.714-1.17-9.253-2.829-13.624 1.567-2.81 3.368-5.36 4.46-8.586.72-2.126 1.171-4.18 1.32-6.47.15-2.29.848-4.716-2.162-9.485-1.616-2.56-4.567-4.862-7.323-5.833-2.75-.97-5.086-.964-7.002-.79a22.98 22.98 0 0 0-3.524.603c-5.283 1.277-9.923 3.74-14.606 6.698-2.411-.47-4.734-1.39-7.201-1.397h-.04c-2.48.001-4.819.921-7.243 1.39-4.68-2.954-9.315-5.416-14.594-6.692a22.974 22.974 0 0 0-3.536-.602 17.971 17.971 0 0 0-3.127-.023z" fill="#fb5140"/><path d="M20.482 18.845c-.971.08-1.637.447-2.052 1.104-.591.938-.435 3.338.374 5.728.805 2.376 2.726 6.128 4.524 9.176a30.124 30.124 0 0 1 11.818-10.088c-4.241-2.677-8.801-4.872-11.818-5.599a11.154 11.154 0 0 0-1.771-.31 6.198 6.198 0 0 0-1.075-.011zm55.033 0a6.2 6.2 0 0 0-1.076.011c-.525.046-1.113.144-1.77.31-3.345.805-8.608 3.379-13.204 6.459-2.339 1.567-2.49 1.772-2.49 3.36 0 1.136.094 1.512.667 2.7 1.586 3.29 5.131 6.65 8.165 7.739 1.345.483 3.067.467 3.705-.035 1.602-1.256 6.307-9.656 7.68-13.712.81-2.39.966-4.79.374-5.728-.415-.657-1.08-1.024-2.051-1.104zm-27.518 5.967a26.932 26.932 0 0 0-26.932 26.932 26.932 26.932 0 0 0 26.932 26.933A26.932 26.932 0 0 0 74.93 51.744a26.932 26.932 0 0 0-2.443-11.134c-.313.382-.641.75-1.123 1.128-1.336 1.053-2.37 1.02-3.413 1.029a8.994 8.994 0 0 1-3.156-.526c-4.18-1.5-7.85-5.116-9.848-9.258-.627-1.299-.964-2.703-.965-3.998 0-.839.13-2.166.842-3.261a26.932 26.932 0 0 0-6.827-.912z" opacity=".2"/><path d="M20.482 17.348c-.971.08-1.637.447-2.052 1.105-.591.937-.435 3.337.374 5.728.805 2.375 2.726 6.128 4.524 9.176a30.124 30.124 0 0 1 11.818-10.088c-4.241-2.678-8.801-4.873-11.818-5.6a11.154 11.154 0 0 0-1.771-.31 6.198 6.198 0 0 0-1.075-.01zm55.033 0a6.2 6.2 0 0 0-1.076.012c-.525.045-1.113.143-1.77.31-3.345.805-8.608 3.378-13.204 6.458-2.339 1.567-2.49 1.772-2.49 3.36 0 1.136.094 1.513.667 2.701 1.586 3.29 5.131 6.65 8.165 7.739 1.345.482 3.067.467 3.705-.036 1.602-1.255 6.307-9.656 7.68-13.711.81-2.39.966-4.79.374-5.728-.415-.657-1.08-1.024-2.051-1.105zm-27.518 5.968a26.932 26.932 0 0 0-26.932 26.932A26.932 26.932 0 0 0 47.997 77.18 26.932 26.932 0 0 0 74.93 50.248a26.932 26.932 0 0 0-2.443-11.134c-.313.382-.641.75-1.123 1.128-1.336 1.052-2.37 1.02-3.413 1.029a8.994 8.994 0 0 1-3.156-.526c-4.18-1.5-7.85-5.116-9.848-9.259-.627-1.298-.964-2.702-.965-3.997 0-.84.13-2.167.842-3.262a26.932 26.932 0 0 0-6.827-.912z" fill="#fff"/><path d="M74.882 5.355a22.989 22.989 0 0 0-5.042.69c-5.283 1.276-9.92 3.74-14.604 6.698-2.412-.47-4.734-1.39-7.202-1.397h-.04c-2.48.002-4.82.922-7.243 1.391-4.68-2.954-9.314-5.417-14.593-6.693a22.975 22.975 0 0 0-3.536-.602 17.974 17.974 0 0 0-3.128-.023c-3.504.29-8.76 2.8-11.188 6.646-2.281 3.615-2.428 5.88-2.303 7.763.095-1.605.588-3.548 2.303-6.267 2.428-3.846 7.684-6.355 11.188-6.646 1.1-.091 2.136-.066 3.128.024 1.192.104 2.367.311 3.536.602 5.279 1.276 9.913 3.738 14.593 6.693 2.424-.47 4.763-1.39 7.242-1.391h.041c2.468.006 4.79.927 7.202 1.397 4.683-2.958 9.321-5.422 14.604-6.7a22.985 22.985 0 0 1 3.525-.601c1.916-.175 4.253-.18 7.003.789 2.756.971 5.708 3.274 7.324 5.833 1.715 2.719 2.208 4.662 2.303 6.267.125-1.884-.023-4.148-2.303-7.763-1.616-2.56-4.568-4.862-7.324-5.834a15.32 15.32 0 0 0-5.486-.876zm9.516 32.193c-.107.187-.22.367-.324.555 1.579 4.163 2.697 8.477 2.808 12.95.006-.268.02-.533.02-.803v-.02c-.006-4.38-1.032-8.6-2.504-12.682zm-72.797.003c-1.471 4.077-2.494 8.293-2.505 12.667v.032c0 .274.015.543.02.815.112-4.475 1.229-8.793 2.81-12.956-.106-.19-.217-.37-.325-.558z" fill="#fff" opacity=".2"/></svg>