<svg width="96" height="96" version="1.1" viewBox="0 0 96 96" xmlns="http://www.w3.org/2000/svg"><title>deepin-calculator</title><g fill-rule="evenodd"><path d="M47.995 9.88c-3.437 8.424-5.51 13.934-9.337 22.108 2.346 2.487 4.666 4.949 9.343 8.22-5.028-2.07-7.897-3.713-10.46-5.868C32.642 44.557 24.97 59.11 9.4 87.08 21.637 80.016 30.158 75.662 39 74a22.393 22.393 0 0 1-.581-5.24l.013-.393c.194-7.838 5.323-14.363 10.068-14.374 4.745-.011 9.36 8.016 9.166 15.855a22.137 22.137 0 0 1-.494 4.21c8.745 1.71 17.356 6.054 29.429 13.021-2.38-4.38-4.505-8.33-6.534-12.092-3.196-2.477-5.967-5.097-12.767-8.587 4.674 1.215 7.458 2.013 10.066 3.579-20.628-38.4-22.299-43.504-29.374-60.1z" opacity=".2"/><path d="M47.995 8.5c-3.437 8.425-5.51 13.936-9.337 22.11 2.346 2.486 4.666 4.948 9.343 8.218-5.028-2.068-7.897-3.712-10.46-5.867-4.898 10.217-12.57 24.77-28.14 52.74 12.237-7.063 20.758-11.418 29.6-13.08a22.393 22.393 0 0 1-.581-5.24l.013-.392c.194-7.839 5.323-14.364 10.068-14.375 4.745-.01 9.36 8.016 9.166 15.855a22.137 22.137 0 0 1-.494 4.21c8.745 1.71 17.356 6.054 29.429 13.022-2.38-4.382-4.505-8.331-6.534-12.093-3.196-2.476-5.967-5.097-12.767-8.586 4.674 1.214 7.458 2.012 10.066 3.578C56.74 30.2 55.068 25.097 47.993 8.5z" fill="#1793d1"/><path d="M47.996 8.504c-3.436 8.423-5.512 13.934-9.338 22.106.139.147.284.295.423.442 3.537-7.638 5.62-13.091 8.915-21.169 6.939 16.279 8.787 21.691 28.326 58.136.354.182.7.375 1.045.582C56.74 30.205 55.069 25.097 47.996 8.505zM37.541 32.961C32.644 43.177 24.97 57.73 9.4 85.7c.384-.223.734-.42 1.112-.636C25.249 58.552 32.776 44.279 37.54 34.339c2.563 2.155 5.433 3.799 10.46 5.868a54.02 54.02 0 0 1-4.275-3.315c-2.551-1.267-4.467-2.487-6.185-3.931zM67.3 66.4c6.8 3.489 9.57 6.11 12.766 8.586 1.695 3.141 3.537 6.554 5.458 10.1.366.21.706.399 1.077.613-2.38-4.38-4.506-8.33-6.534-12.092-2.301-1.783-4.405-3.645-7.927-5.848-1.394-.437-2.933-.865-4.839-1.36zM38.44 68.254c-.002.037-.008.073-.009.11l-.013.394c-.01 1.356.105 2.67.318 3.92.088-.017.175-.042.263-.059a22.443 22.443 0 0 1-.56-4.365zm19.212.423a22.07 22.07 0 0 1-.48 4.001c.074.014.148.036.221.051.142-.93.25-1.887.275-2.884.01-.389-.003-.779-.016-1.168z" fill="#fff" opacity=".2"/></g></svg>