<svg width="96" height="96" version="1.1" viewBox="0 0 96 96" xmlns="http://www.w3.org/2000/svg"><title>deepin-clone</title><g transform="translate(-.035 -.786) scale(1.5011)"><circle cx="32" cy="33" r="28" opacity=".2"/><circle cx="32" cy="32" r="28" fill="#0068c8"/><path d="M38.738 11.942c-.82-.04-5.398 1.32-6.758 3.02-3.796.262-18.267 10.014-27.968 16.812A28 28 0 0 0 4 32a28 28 0 0 0 .14 2.562c3.841-1.424 7.796-2.72 9.56-2.702.4 0 .7.058.82.218.8.92-2.56 5.424-6.02 10.524-.486.708-.955 1.418-1.433 2.132a28 28 0 0 0 .968 1.696c4.495-5.606 9.557-11.79 11.067-12.008.1-.02.178 0 .238.02.276.332-4.407 7.868-8.969 15.312a28 28 0 0 0 1.805 2c2.052-2.826 4.18-5.778 6.285-8.676 5.2-7.18 9.8-13.916 12.06-13.976.06 0 .117.02.197.02 6.534.036 12.894 15.436 16.582 26.32a28 28 0 0 0 1.802-1.29c-1.856-12.246-5.836-30.308-13.724-35.574.9-.6.982-3.656.982-3.656z" fill="#fff"/><path d="M32 4A28 28 0 0 0 4 32a28 28 0 0 0 .021.586A28 28 0 0 1 32 5a28 28 0 0 1 27.979 27.414A28 28 0 0 0 60 32 28 28 0 0 0 32 4z" fill="#fff" opacity=".1"/></g></svg>