<svg width="96" height="96" version="1.1" viewBox="0 0 96 96" xmlns="http://www.w3.org/2000/svg"><title>deepin-clone</title><path d="M60.008 6.722c-16.58 0-30.02 13.44-30.02 30.02s13.44 30.02 30.02 30.02 30.02-13.44 30.02-30.02v-25.43a4.569 4.569 0 0 0-4.59-4.59z" opacity=".2"/><path d="M60.008 5.221c-16.58 0-30.02 13.44-30.02 30.02s13.44 30.02 30.02 30.02 30.02-13.44 30.02-30.02V9.811a4.569 4.569 0 0 0-4.59-4.59z" fill="#666"/><path d="M60.008 57.756a20.96 20.96 0 0 0 21.014-21.014V15.728H60.008c-11.648 0-21.014 9.367-21.014 21.014s9.366 21.014 21.014 21.014z" opacity=".2"/><path d="M60.008 56.255a20.96 20.96 0 0 0 21.014-21.014V14.229H60.008c-11.648 0-21.014 9.366-21.014 21.014s9.366 21.014 21.014 21.014z" fill="#ececec"/><path d="M35.992 30.738c-16.58 0-30.02 13.44-30.02 30.02v25.427a4.58 4.58 0 0 0 4.596 4.593h25.424c16.58 0 30.02-13.44 30.02-30.02s-13.44-30.02-30.02-30.02z" opacity=".2"/><path d="M60.008 5.221c-16.58 0-30.02 13.44-30.02 30.02 0 .253.012.5.018.751.4-16.232 13.674-29.27 30.002-29.27h25.428a4.57 4.57 0 0 1 4.592 4.591v-1.5a4.57 4.57 0 0 0-4.592-4.591z" fill="#fff" opacity=".1"/><path d="M35.992 29.237c-16.58 0-30.02 13.44-30.02 30.02v25.427a4.58 4.58 0 0 0 4.596 4.593h25.424c16.58 0 30.02-13.44 30.02-30.02s-13.44-30.02-30.02-30.02z" fill="gray"/><path d="M35.992 39.744a20.96 20.96 0 0 0-21.014 21.014v21.014h21.014c11.648 0 21.014-9.366 21.014-21.014S47.64 39.745 35.992 39.745z" opacity=".2"/><path d="M35.992 38.243a20.96 20.96 0 0 0-21.014 21.014v21.014h21.014c11.648 0 21.014-9.366 21.014-21.014S47.64 38.243 35.992 38.243z" fill="#fff"/><path d="M35.992 29.237c-16.58 0-30.02 13.44-30.02 30.02v1.501c0-16.58 13.44-30.02 30.02-30.02 16.328 0 29.603 13.038 30.002 29.27.006-.25.018-.498.018-.75 0-16.58-13.44-30.02-30.02-30.02z" fill="#fff" opacity=".2"/></svg>