<svg width="96" height="96" version="1.1" viewBox="0 0 96 96" xmlns="http://www.w3.org/2000/svg"><title>deepin-clone</title><path d="M89.968 46.991A42.03 42.03 0 0 1 48 87.779 42.03 42.03 0 0 1 6.035 47.507a42.03 42.03 0 0 0-.066 1.243 42.03 42.03 0 0 0 42.03 42.031 42.03 42.03 0 0 0 42.032-42.03 42.03 42.03 0 0 0-.063-1.76z" opacity=".2"/><path d="M90.03 47.25A42.03 42.03 0 0 1 48 89.28 42.03 42.03 0 0 1 5.969 47.25a42.03 42.03 0 0 1 42.03-42.032A42.03 42.03 0 0 1 90.032 47.25z" fill="#f56e2c"/><path d="M71.807 45.748a24.018 24.018 0 0 0-8.691-15.608c-.976.363-2.012.597-3.107.597-3.777 0-7.026-2.384-8.356-5.711A24.018 24.018 0 0 0 48 24.733a24.018 24.018 0 0 0-9.32 1.882l4.569 7.916a15.011 15.011 0 0 1 4.75-.793 15.011 15.011 0 0 1 14.694 12.01h9.112zm-.006 6.005h-9.094A15.011 15.011 0 0 1 48 63.76a15.011 15.011 0 0 1-4.75-.785l-4.556 7.892a24.018 24.018 0 0 0 9.304 1.9 24.018 24.018 0 0 0 3.666-.315c1.333-3.314 4.575-5.689 8.343-5.689 1.099 0 2.141.23 3.12.598A24.018 24.018 0 0 0 71.8 51.754zM66.013 21.73a6.004 6.004 0 0 0-6.004-6.005 6.004 6.004 0 0 0-6.005 6.005 6.004 6.004 0 0 0 6.005 6.004 6.004 6.004 0 0 0 6.004-6.004zm0 54.04a6.004 6.004 0 0 0-6.004-6.005 6.004 6.004 0 0 0-6.005 6.004 6.004 6.004 0 0 0 6.005 6.005 6.004 6.004 0 0 0 6.004-6.005zM38.056 37.533L33.5 29.641a24.018 24.018 0 0 0-8.76 13.246c1.378 1.584 2.246 3.622 2.246 5.864 0 2.239-.866 4.274-2.24 5.858a24.018 24.018 0 0 0 8.748 13.263l4.564-7.899a15.011 15.011 0 0 1-5.068-11.222 15.011 15.011 0 0 1 5.068-11.216zM23.982 48.75a6.004 6.004 0 0 0-6.004-6.004 6.004 6.004 0 0 0-6.005 6.004 6.004 6.004 0 0 0 6.005 6.005 6.004 6.004 0 0 0 6.004-6.005z" opacity=".2"/><path d="M71.807 44.247a24.018 24.018 0 0 0-8.691-15.608c-.976.365-2.012.598-3.107.598-3.777 0-7.026-2.386-8.356-5.711A24.018 24.018 0 0 0 48 23.232a24.018 24.018 0 0 0-9.32 1.883l4.569 7.916a15.011 15.011 0 0 1 4.75-.793 15.011 15.011 0 0 1 14.694 12.009h9.112zm-.006 6.004h-9.094A15.011 15.011 0 0 1 48 62.261a15.011 15.011 0 0 1-4.75-.787l-4.556 7.893a24.018 24.018 0 0 0 9.304 1.9 24.018 24.018 0 0 0 3.666-.315c1.333-3.314 4.575-5.689 8.343-5.689 1.099 0 2.141.23 3.12.598A24.018 24.018 0 0 0 71.8 50.253zM66.013 20.23a6.004 6.004 0 0 0-6.004-6.004 6.004 6.004 0 0 0-6.005 6.004 6.004 6.004 0 0 0 6.005 6.005 6.004 6.004 0 0 0 6.004-6.005zm0 54.04a6.004 6.004 0 0 0-6.004-6.004 6.004 6.004 0 0 0-6.005 6.004 6.004 6.004 0 0 0 6.005 6.004 6.004 6.004 0 0 0 6.004-6.004zM38.056 36.033L33.5 28.14a24.018 24.018 0 0 0-8.76 13.246c1.378 1.584 2.246 3.621 2.246 5.864 0 2.239-.866 4.274-2.24 5.857a24.018 24.018 0 0 0 8.748 13.264l4.564-7.899a15.011 15.011 0 0 1-5.068-11.222 15.011 15.011 0 0 1 5.068-11.216zM23.982 47.249a6.004 6.004 0 0 0-6.004-6.004 6.004 6.004 0 0 0-6.005 6.004 6.004 6.004 0 0 0 6.005 6.005 6.004 6.004 0 0 0 6.004-6.005z" fill="#fff"/><path d="M47.997 5.218A42.03 42.03 0 0 0 5.969 47.25a42.03 42.03 0 0 0 .026.739A42.03 42.03 0 0 1 47.997 6.72H48a42.03 42.03 0 0 1 41.99 41.262 42.03 42.03 0 0 0 .038-.733A42.03 42.03 0 0 0 48 5.22z" fill="#fff" opacity=".2"/></svg>