<svg width="96" height="96" version="1.1" viewBox="0 0 96 96" xmlns="http://www.w3.org/2000/svg"><title>deepin-clone</title><path d="M48 6.722C24.797 6.722 5.985 25.53 5.969 48.73v35.53a6.509 6.509 0 0 0 6.523 6.522h35.53c23.206 0 42.009-18.824 42.009-42.03 0-23.214-18.818-42.031-42.03-42.031z" opacity=".2"/><path d="M48 5.22c-23.203 0-42.015 18.81-42.031 42.01v35.529a6.509 6.509 0 0 0 6.523 6.522h35.53c23.206 0 42.009-18.823 42.009-42.03 0-23.213-18.818-42.031-42.03-42.031z" fill="#324e89"/><g fill="#fff"><path d="M61.51 14.225c-10.778 0-19.515 8.737-19.515 19.514v10.508h-13.51c-10.777 0-19.514 8.737-19.514 19.514s8.737 19.515 19.514 19.515S48 74.539 48 63.76V53.254h13.51c10.777 0 19.514-8.737 19.514-19.515S72.287 14.225 61.51 14.225zm0 9.007c5.803 0 10.507 4.704 10.507 10.507S67.313 44.247 61.51 44.247h-7.734s-2.774-.002-2.774-3.12V33.74c0-5.803 4.704-10.507 10.508-10.507zM28.485 53.254h7.735s2.773.002 2.773 3.12v7.387c0 5.804-4.704 10.508-10.508 10.508-5.803 0-10.507-4.704-10.507-10.508s4.704-10.507 10.507-10.507z" opacity=".2"/><path d="M61.51 14.225c-10.778 0-19.515 8.737-19.515 19.514v10.508h-10.59c-2.458.183-4.392 2.16-4.391 4.662a4.66 4.66 0 0 0 2.949 4.345h6.257s2.773.002 2.773 3.12v7.387c0 5.804-4.704 10.508-10.508 10.508-1.5 0-2.07-.134-3.002-.299a4.503 4.503 0 0 0-4.503 4.503 4.503 4.503 0 0 0 4.216 4.486c.05.014.088.05.14.059 1.026.168 2.077.258 3.15.258C39.263 83.276 48 74.539 48 63.76V53.254h11.956a4.666 4.666 0 0 0 2.973-4.351c-.002-2.467-1.888-4.444-4.293-4.656h-4.86s-2.774-.002-2.774-3.12V33.74c0-5.803 4.704-10.507 10.508-10.507.728 0 1.441.074 2.128.217h.006a4.503 4.503 0 0 0 5.371-4.421 4.503 4.503 0 0 0-3.213-4.31h-.012a4.503 4.503 0 0 0-1.038-.182c-1.058-.183-2.132-.31-3.242-.31z"/><path d="M48 5.219c-23.203 0-42.015 18.808-42.031 42.006v1.501c.017-23.2 18.828-42.006 42.03-42.006 22.879 0 41.475 18.282 42.005 41.034.009-.168.026-.334.026-.505C90.03 24.036 71.212 5.22 48 5.22z" opacity=".1"/></g></svg>