<?xml version="1.0" encoding="UTF-8"?>
<svg width="96" height="96" version="1.1" viewBox="0 0 96 96" xmlns="http://www.w3.org/2000/svg" xmlns:cc="http://creativecommons.org/ns#" xmlns:dc="http://purl.org/dc/elements/1.1/" xmlns:rdf="http://www.w3.org/1999/02/22-rdf-syntax-ns#">
 <metadata>
  <rdf:RDF>
   <cc:Work rdf:about="">
    <dc:format>image/svg+xml</dc:format>
    <dc:type rdf:resource="http://purl.org/dc/dcmitype/StillImage"/>
    <dc:title>deepin-multitasking-view</dc:title>
   </cc:Work>
  </rdf:RDF>
 </metadata>
 <title>deepin-multitasking-view</title>
 <defs>
  <filter id="filter850" color-interpolation-filters="sRGB">
   <feFlood flood-color="rgb(0,0,0)" flood-opacity=".19608" result="flood"/>
   <feComposite in="flood" in2="SourceGraphic" operator="in" result="composite1"/>
   <feGaussianBlur in="composite1" result="blur" stdDeviation="1"/>
   <feOffset dx="0" dy="1" result="offset"/>
   <feComposite in="SourceGraphic" in2="offset" result="composite2"/>
  </filter>
 </defs>
 <g transform="matrix(1.4782 0 0 1.4782 .49394 .69733)" fill-rule="evenodd" filter="url(#filter850)">
  <circle id="Oval" cx="32" cy="32" r="28" fill="#c51818"/>
  <path id="Rectangle" d="m40.749 20.559c0.74338-0.74338 1.9435-0.74854 2.6921 5.3e-5 0.74341 0.74341 0.74576 1.9464 5.3e-5 2.6921l-20.191 20.191c-0.74338 0.74338-1.9435 0.74854-2.6921-5.4e-5 -0.74341-0.74341-0.74576-1.9464-5.3e-5 -2.6921z" fill="#fff"/>
  <path d="m43.441 40.748c0.74332 0.74332 0.74847 1.9433-5.3e-5 2.6918-0.74334 0.74334-1.9462 0.74569-2.6918 5.3e-5l-20.189-20.189c-0.74332-0.74332-0.74847-1.9433 5.3e-5 -2.6918 0.74334-0.74334 1.9462-0.74569 2.6918-5.3e-5z" fill="#fff"/>
 </g>
</svg>
