<svg width="96" height="96" version="1.1" viewBox="0 0 96 96" xmlns="http://www.w3.org/2000/svg"><title>evince</title><defs><linearGradient id="b" x1="39.795" x2="39.795" y1="75.902" y2="1.069" gradientTransform="scale(1.069 .93541)" gradientUnits="userSpaceOnUse"><stop stop-color="#E91A1A" offset="0"/><stop stop-color="#FA8C55" offset="1"/></linearGradient><filter id="a" color-interpolation-filters="sRGB"><feFlood flood-color="#000" flood-opacity=".196" result="flood"/><feComposite in="flood" in2="SourceGraphic" operator="in" result="composite1"/><feGaussianBlur in="composite1" result="blur" stdDeviation="1"/><feOffset dx="0" dy="1" result="offset"/><feComposite in="SourceGraphic" in2="offset" result="composite2"/></filter></defs><g transform="translate(8 12)" fill-rule="evenodd" filter="url(#a)"><path d="M80 35.5V4a4 4 0 0 0-4-4H4a4 4 0 0 0-4 4v31.5V5a4 4 0 0 1 4-4h72a4 4 0 0 1 4 4z" fill="#ff9e71"/><path d="M80 36.5V68a4 4 0 0 1-4 4H4a4 4 0 0 1-4-4V36.5 67a4 4 0 0 0 4 4h72a4 4 0 0 0 4-4z" fill="#d41e1c"/><rect y="1" width="80" height="70" rx="4" fill="url(#b)"/><path d="M21.036 52.21c10.31 4.589 26.631 3.804 48.964-2.356V45.06v5.794c-22.333 6.16-38.655 6.945-48.964 2.356h.255L12 59c.906-.904 1.793-1.79 2.66-2.658l6.63-4.132zm-2.2-1.113l-.3.298.04.014-.334.336c-.462-.283-.909-.58-1.34-.89-2.81-2.024-3.92-4.7-3.774-7.646.131 2.55 1.286 4.854 3.774 6.645.613.442 1.258.856 1.933 1.243zm3.32-3.312l.092-.092zm1.913 2.428l.102.202.9-.56c1.089-.544 1.906-1.087 2.45-1.63s7.625-7.33 21.24-20.363c1.38-1.45 1.594-2.257 1.627-3.455.004.097.006.195.006.295 0 1.629 0 2.443-1.634 4.16-13.615 13.033-20.695 19.82-21.239 20.363s-1.361 1.086-2.45 1.63l-.275.17a8.996 8.996 0 0 1-.727-.812zM42.945 24.82c-2-2.352-21.143 1.541-21.557 16.58-.466-17.265 23.188-20.618 21.655-16.796-.026.067-.059.139-.097.216z" fill="#d73020"/><path d="M21.29 52.21L12 58c2.321-2.315 4.513-4.512 6.575-6.591l-.04-.014.3-.298c-.676-.387-1.32-.801-1.934-1.243C2.197 39.265 34.056 10.756 48.76 19.716c1.09 1.028 1.634 2.356 1.634 3.985s0 2.444-1.634 4.16c-13.615 13.034-20.695 19.82-21.239 20.364s-1.361 1.086-2.45 1.629l-.9.56-.102-.202c3.538 4.467 10.577 4.874 21.115 1.22C49.724 49.86 57.996 45.804 70 39.266v10.589c-22.333 6.159-38.655 6.944-48.964 2.355zm.866-4.425C35.197 34.53 42.16 26.804 43.042 24.604c1.634-4.073-25.324 0-21.239 20.363.178.888.414 1.71.706 2.466z" fill="#fff"/></g></svg>