<svg width="96" height="96" version="1.1" viewBox="0 0 96 96" xmlns="http://www.w3.org/2000/svg"><title>firefox-zh</title><defs><linearGradient id="b" x1="84.228" x2="99.039" y1="6.343" y2="22.728" gradientTransform="scale(.7689 1.3006)" gradientUnits="userSpaceOnUse"><stop stop-color="#F89B09" offset="0"/><stop stop-color="#FBDB00" offset="1"/></linearGradient><linearGradient id="c" x1="186.11" x2="186.11" y1="15.851" y2="20.764" gradientTransform="scale(.42268 2.3658)" gradientUnits="userSpaceOnUse"><stop stop-color="#F6901A" offset="0"/><stop stop-color="#FF5224" offset="1"/></linearGradient><linearGradient id="d" x1="82.184" x2="76.658" y1="54.504" y2="62.472" gradientTransform="scale(.91411 1.094)" gradientUnits="userSpaceOnUse"><stop stop-color="#F95828" offset="0"/><stop stop-color="#F02044" offset="1"/></linearGradient><linearGradient id="e" x1="35.619" x2="31.557" y1="129.63" y2="132.94" gradientTransform="scale(1.6717 .59818)" gradientUnits="userSpaceOnUse"><stop stop-color="#B21969" offset="0"/><stop stop-color="#8E123B" offset="1"/></linearGradient><linearGradient id="f" x1="52.632" x2="36.165" y1="10.74" y2="64.974" gradientUnits="userSpaceOnUse"><stop stop-color="#01A2FC" offset="0"/><stop stop-color="#441A7E" offset="1"/></linearGradient><linearGradient id="g" x1="13.518" x2="13.518" y1="7.817" y2="19.313" gradientTransform="scale(.81749 1.2233)" gradientUnits="userSpaceOnUse"><stop stop-color="#EF2545" offset="0"/><stop stop-color="#C01F49" offset="1"/></linearGradient><linearGradient id="h" x1="74.895" x2="81.907" y1="11.547" y2="43.092" gradientTransform="scale(.64825 1.5426)" gradientUnits="userSpaceOnUse"><stop stop-color="#191F78" stop-opacity="0" offset="0"/><stop stop-color="#20257B" offset="1"/></linearGradient><linearGradient id="i" x1="20.228" x2="40.862" y1="37.582" y2="29.623" gradientTransform="scale(.98255 1.0178)" gradientUnits="userSpaceOnUse"><stop stop-color="#282990" offset="0"/><stop stop-color="#272D98" stop-opacity="0" offset="1"/></linearGradient><linearGradient id="j" x1="64.395" x2="-11.357" y1=".285" y2="37.506" gradientTransform="scale(.97852 1.0219)" gradientUnits="userSpaceOnUse"><stop stop-color="#FEEA04" offset="0"/><stop stop-color="#FFE900" offset=".273"/><stop stop-color="#FF7916" offset=".461"/><stop stop-color="#FF282F" offset=".762"/><stop stop-color="#BF0573" offset="1"/></linearGradient><linearGradient id="k" x1="28.939" x2="23.08" y1="17.259" y2="24.684" gradientTransform="scale(1.1775 .84922)" gradientUnits="userSpaceOnUse"><stop stop-color="#F79C0F" offset="0"/><stop stop-color="#FF681C" offset="1"/></linearGradient><linearGradient id="l" x1="16.155" x2="37.193" y1="26.733" y2="26.733" gradientTransform="scale(.85131 1.1747)" gradientUnits="userSpaceOnUse"><stop stop-color="#FF372A" offset="0"/><stop stop-color="#FF8703" offset=".788"/><stop stop-color="#FCAA00" offset="1"/></linearGradient><linearGradient id="m" x1="30.185" x2="29.535" y1="73.427" y2="66.821" gradientTransform="scale(1.3027 .76763)" gradientUnits="userSpaceOnUse"><stop stop-color="#211B61" offset="0"/><stop stop-color="#222982" stop-opacity="0" offset="1"/></linearGradient><linearGradient id="n" x1="14.307" x2="33.81" y1="54.377" y2="68.482" gradientTransform="scale(1.3027 .76763)" gradientUnits="userSpaceOnUse"><stop stop-color="#D93A20" offset="0"/><stop stop-color="#FF4D1E" offset=".274"/><stop stop-color="#FF8703" offset=".535"/><stop stop-color="#FFBC01" offset="1"/></linearGradient><linearGradient id="o" x1="17.79" x2="27.506" y1="47.675" y2="65.476" gradientTransform="scale(1.1282 .88636)" gradientUnits="userSpaceOnUse"><stop stop-color="#E3311F" offset="0"/><stop stop-color="#F14719" offset=".5"/><stop stop-color="#EA2C16" offset="1"/></linearGradient><linearGradient id="p" x1="84.984" x2="64.907" y1="24.339" y2="53.062" gradientTransform="scale(.68899 1.4514)" gradientUnits="userSpaceOnUse"><stop stop-color="#FF9302" offset="0"/><stop stop-color="#FFCA00" offset=".317"/><stop stop-color="#FF7B16" offset=".765"/><stop stop-color="#FF5F1F" stop-opacity="0" offset="1"/></linearGradient><linearGradient id="q" x1="82.971" x2="108.46" y1="2.83" y2="40.868" gradientTransform="scale(.65756 1.5208)" gradientUnits="userSpaceOnUse"><stop stop-color="#FFF150" offset="0"/><stop stop-color="#FFEE4C" offset=".208"/><stop stop-color="#FFCD28" offset=".672"/><stop stop-color="#FF9601" offset="1"/></linearGradient><linearGradient id="r" x1="85.555" x2="99.963" y1="4.022" y2="46.423" gradientTransform="scale(.60793 1.6449)" gradientUnits="userSpaceOnUse"><stop stop-color="#FFEB02" offset="0"/><stop stop-color="#FFAC00" offset=".718"/><stop stop-color="#FF7417" offset="1"/></linearGradient><linearGradient id="s" x1="68.922" x2="60.364" y1="9.383" y2="1.187" gradientTransform="scale(.88181 1.134)" gradientUnits="userSpaceOnUse"><stop stop-color="#FFE900" offset="0"/><stop stop-color="#FFE309" offset="1"/></linearGradient><filter id="a" color-interpolation-filters="sRGB"><feFlood flood-color="#000" flood-opacity=".196" result="flood"/><feComposite in="flood" in2="SourceGraphic" operator="in" result="composite1"/><feGaussianBlur in="composite1" result="blur" stdDeviation="1"/><feOffset dx="0" dy="1" result="offset"/><feComposite in="SourceGraphic" in2="offset" result="composite2"/></filter></defs><g transform="translate(8.25 6)" fill-rule="evenodd" filter="url(#a)"><path d="M63.188 16.5c-.875-3.125-.375-5.875 1.5-8.25 1.158 2.61 2.095 4.485 2.813 5.625 4.143 6.586 7.445 11.516 8.437 15.188 1.25 4.625-3 .438-12.75-12.562z" fill="url(#b)"/><path d="M77.812 39.75l1.875-2.25c.125 6.75-.563 10.625-2.063 11.625" fill="url(#c)"/><path d="M75 59.625c-4.375 5.375-6.75 8.25-7.125 8.625-.563.563 6-1.5 6.75-4.688.5-2.124.625-3.437.375-3.937z" fill="url(#d)"/><path d="M61.875 75.562L50.813 79.5c5 .124 8-.313 9-1.313s1.688-1.875 2.063-2.625z" fill="url(#e)"/><circle cx="39.75" cy="42" r="35" fill="url(#f)"/><path d="M15.75 18c-3.375-3-4.688-5.813-3.938-8.438-3.874 4-5.687 8.688-5.437 14.063" fill="url(#g)"/><path d="M46.875 17.812c-2.375 5.375.625 11.125 9 17.25 4.875 9.75 2.625 18.312-6.75 25.688s-8.21 7.625 3.495.75c9.92-11.625 12.942-20.062 9.068-25.312" fill="url(#h)"/><path d="M39.562 27.75c1.25 1.125.5 2.813-2.25 5.063-3.125 1.75-4.938 2.687-5.438 2.812-.75.188-.75 4.875-1.312 5.25s-2.813 1.5-4.313 3c-1 1-.125 2.625 2.625 4.875l-9-2.813 6.188-7.874L32.437 33z" fill="url(#i)"/><path d="M32.25 25.5c-1.125-.563-2.625-1.5-2.813-3.563S21.188 14.625 12 18.75-4.5 41.625 3.376 59.438s24.75 23.812 33.75 24.188 17.061.188 22.874-5.625c-2 1-4.812 1.5-8.437 1.5 3.57-1.215 6.12-2.141 7.652-2.78 9.892-4.122 15.09-8.82 15.598-14.095-.835 1.395-1.585 2.395-2.25 3-.71.645-2.022 1.458-3.937 2.437 4.5-5.125 7.625-9.812 9.375-14.062s2.312-9.75 1.687-16.5c-.13 3.144-.318 5.394-.562 6.75s-.745 2.919-1.5 4.688c.682-5.182.932-8.744.75-10.688s-1.057-5.07-2.625-9.375c-4.375-8-8.75-13.5-13.125-16.5C56.25 6 53.125 2.064 53.25.564a.643.643 0 0 0-.006-.188c-.27-1.18-6.362 10.488-6.182 15.188.188 4.875.375 12.375 9.563 18.375 3.75 6.375 4.062 12.875.937 19.5-4.687 9.938-21.75 14.812-30.75 2.813-8.293-11.058.323-18.187 3.75-20.625.292-.208.357-.805.563-.938s4.566-1.942 6.562-3.562c1.331-1.08 2.155-2.963 2.063-3.563-.232-1.5-6.375-1.5-7.5-2.062z" fill="url(#j)"/><path d="M24.562 18.562c3.875-3.375 7.5-4.563 10.875-3.563-4.125 3.5-6.188 6-6.188 7.5" fill="url(#k)"/><path d="M24.562 18.375c3.875-3.125 7.5-4.25 10.875-3.375-4.25 3.125-6.688 7-7.313 11.625-.25 3.375.563 6.375 2.438 9-.25 2.875-.563 4.438-.938 4.688-1 .124-2.625-.188-4.875-.938-3.375-1.125-8.812 3.938-8.062 7.688.38 1.9-2.418-3.279-4.563-9.215-2.088-5.778 4.107-16.09 7.099-17.343a255.24 255.24 0 0 1 5.339-2.13z" fill="url(#l)"/><path d="M33.375 50.625c.75 0 1.076-.117 1.5-.188 2.846-.874 4.908-1.312 6.188-1.312 1.918 0 6.374 2.063 5.812 4.688-.125.5-.75.937-1.5.75-.75-.25-1.25-.313-1.5-.188l-.398.202c-.25.16-.922.498-2.014 1.013-1.863.923-4.226 2.047-4.9 2.16-.034.005-.07.012-.11.02-1.248.361-2.587.542-4.016.542-.34 0-.672-.007-.995-.023a13.731 13.731 0 0 1-1.155-.092c-1.423-.164-2.643-.5-3.662-1.01-3.069-1.138-5.069-2.013-6-2.624-3.218-2.114-3.731-3.864-3.75-3.938-.019-.074-1.875-6 1.125-8.438s5.361-2.174 8.625-1.312c.577.153.792.669.007.882-1.97.535-2.597 1.74-1.882 3.618.987 2.59 3.752 4.536 8.437 5.25z" fill="url(#m)"/><path d="M33.375 49.5c.75 0 1.076-.117 1.5-.188C37.721 48.438 39.783 48 41.063 48c1.918 0 6.374 2.063 5.812 4.688-.125.5-.75.937-1.5.75-.75-.25-1.25-.313-1.5-.188l-.398.202c-.25.16-.922.498-2.014 1.013-1.863.923-4.226 2.047-4.9 2.16-.034.005-.07.012-.11.02-1.248.361-2.587.542-4.016.542-.34 0-.672-.007-.995-.023a13.731 13.731 0 0 1-1.155-.092c-1.423-.164-2.643-.5-3.662-1.01-3.069-1.138-5.069-2.013-6-2.624-3.218-2.114-3.731-3.864-3.75-3.938S15 43.5 18 41.062s5.361-2.174 8.625-1.312c.577.153 1.577.34 3 .563-4.25 0-5.875 1.312-4.875 3.937.987 2.59 3.752 4.535 8.437 5.25z" fill="url(#n)"/><path transform="rotate(16 26.455 49.733)" d="M13.87 46.909c1.268-8.252 13.035-7.105 13.035-7.105-.346.346-9.499 6.764.559 14.079 3.655 2.658 15.609 6.252 10.406 5.794-5.203-.459-25.903-.495-24-12.767z" fill="url(#o)" fill-rule="nonzero"/><path d="M59.438 76.312c.42-.258 3.81-5.267 4.688-5.813 3.25-10.25 4.062-18.311 2.437-24.187s-5.188-9.688-9.938-12.189c9 11.375 7.438 23.812-5.437 38.062-.491.544-.958 1.067-1.4 1.568-2.57 1.814-3.353 2.854-2.35 3.12 1.141.302 5.141.115 12-.563z" fill="url(#p)"/><path d="M62.625 12.375c4.375 3 8.75 8.5 13.125 16.5 1.775 4.313 2.525 7.313 2.625 9.375.1 2.063.188 4.875-.75 10.5.755-1.77 1.168-3.144 1.412-4.5s.52-3.606.65-6.75c.626 6.75.063 12.25-1.687 16.5s-4.875 8.938-9.375 14.062c-.59.587-1.144 1.1-1.775 1.688 4.5-29.439-1.313-28.5-11.25-39.376-6.625-7.25-7.47-17.25-2.537-30 .187-.187.187 0 .187.188-.043 1.541 3.08 5.517 9.375 11.812z" fill="url(#q)"/><path d="M53.062.375c-9.5 14-8.313 25.25 3.563 33.75 17.811 12.75 5.707 38.812 3 41.625s14.811-4.5 15.187-13.125c-1.624 2.375-3.687 4.188-6.187 5.438 4.5-17.876 2.125-29.689-7.125-35.439s-12.062-16.5-8.438-32.25z" fill="url(#r)"/><path d="M62.193 11.944c.245.3.397.398.211.3-4.97-2.644-9.47-8.315-9.16-11.869.352 1.76 3.327 5.614 8.949 11.57z" fill="url(#s)"/></g></svg>