<svg width="96" height="96" version="1.1" viewBox="0 0 96 96" xmlns="http://www.w3.org/2000/svg"><title>foxitreader</title><defs><linearGradient id="b" x1="32.377" x2="34.939" y1="9.822" y2="76.008" gradientTransform="matrix(.92983 .03247 -.03751 1.0742 1.572 -1.58)" gradientUnits="userSpaceOnUse"><stop stop-color="#FF9E00" offset="0"/><stop stop-color="#FF5C11" offset="1"/></linearGradient><linearGradient id="c" x1="142.63" x2="142.63" y1=".699" y2="9.448" gradientTransform="matrix(.11865 .00414 -.29395 8.4176 1.527 -.565)" gradientUnits="userSpaceOnUse"><stop stop-color="#F07900" offset="0"/><stop stop-color="#F30101" offset="1"/></linearGradient><filter id="a" color-interpolation-filters="sRGB"><feFlood flood-color="#000" flood-opacity=".196" result="flood"/><feComposite in="flood" in2="SourceGraphic" operator="in" result="composite1"/><feGaussianBlur in="composite1" result="blur" stdDeviation="1"/><feOffset dx="0" dy="1" result="offset"/><feComposite in="SourceGraphic" in2="offset" result="composite2"/></filter></defs><g filter="url(#a)"><g fill-rule="evenodd"><path d="M17.347 5.272l1.087.436 1.012-.163 61.912 2.162a5.167 5.167 0 0 1 4.983 5.344l-2.545 72.897a5.167 5.167 0 0 1-5.345 4.984L13.102 88.65a3.18 3.18 0 0 1-3.067-3.289L12.68 9.625a4.513 4.513 0 0 1 4.667-4.352z" fill="#ff5e00"/><path d="M18.331 5.348l1.037.424.966-.16 58.84 2.055a5.167 5.167 0 0 1 4.983 5.344l-2.47 70.713a5.167 5.167 0 0 1-5.344 4.984l-63.166-2.205a1.987 1.987 0 0 1-1.917-2.056l2.617-74.945a4.306 4.306 0 0 1 4.454-4.153z" fill="#fff"/><path d="M17.325 4.734l1.066.435 1.278-.154 57.047.292a5.168 5.168 0 0 1 5.138 5.358l-2.531 68.659a5.167 5.167 0 0 1-5.366 4.973l-61.671-2.413a1.392 1.392 0 0 0-.836.24L10.156 83l2.483-73.89a4.53 4.53 0 0 1 4.686-4.376z" fill="url(#b)"/><path d="M79.703 6.276a5.161 5.161 0 0 1 2.15 4.389l-2.53 68.659a5.167 5.167 0 0 1-5.366 4.973l-61.671-2.412a1.392 1.392 0 0 0-.836.238l-1.294.878.037-1.12 1.179-.799c.246-.167.539-.25.836-.239l60.667 2.41h.014a5.168 5.168 0 0 0 5.355-4.974l2.53-68.657a5.145 5.145 0 0 0-1.073-3.347z" fill="#e51c1a"/><path d="M81.843 10.954l.01-.289a5.168 5.168 0 0 0-5.138-5.358L19.67 5.015l-1.278.155-1.066-.435h-.006a4.53 4.53 0 0 0-4.68 4.376L10.154 83l.056-.037 2.446-72.79A4.53 4.53 0 0 1 17.343 5.8l1.066.435 1.279-.154 57.047.291a5.168 5.168 0 0 1 5.108 4.583z" fill="#ffbd67"/></g><path d="M18.227 6.444L15.64 80.538" fill="none" opacity=".5" stroke="url(#c)" stroke-linecap="square" stroke-width="1.06"/><path d="M53.263 60.855c-1.04.97-18.342 6.406-14.729-10.58 3.437-11.959 12.415-9.632 14.426-9.562 2.01.07 6.932 3.262 6.932 3.262s-.76-7.073-7.762-8.324c0 0 7.108-1.765 14.764 9.575 0 0-.514-14.11-13.548-15.572-16.05-1.567-23.545 11.257-23.545 11.257s-12.73 18.68 6.09 27.39c16.916 5.623 23.334-5.225 23.334-5.225s5.272-6.862.562-16.086c0 0-.106 3.016-2.152 3.951 0 0 .106-3.016-2.875-4.127 0 0 .654 10.09-10.37 8.698 0 0 2.84 5.132 8.873 5.342z" fill="#fff"/><path d="M45.225 55.594c-.535-.666-.798-1.14-.798-1.14 11.024 1.39 10.37-8.698 10.37-8.698 2.981 1.11 2.876 4.127 2.876 4.127 2.046-.935 2.15-3.951 2.15-3.951 1.512 2.958 1.996 5.674 1.956 7.998-.108-2.075-.65-4.419-1.937-6.939 0 0-.105 3.017-2.15 3.952 0 0 .105-3.016-2.876-4.127 0 0 .623 9.607-9.59 8.778zm-19.576-1.84c-.359-7.23 4.189-13.902 4.189-13.902s7.494-12.824 23.545-11.257c13.035 1.461 13.548 15.572 13.548 15.572l-.1-.149c-.469-3.447-2.734-13.164-13.43-14.364-16.05-1.567-23.544 11.257-23.544 11.257s-4.113 6.034-4.208 12.842zm29.834-17.93c3.944 2.423 4.445 7.091 4.445 7.091l-.232-.147c-.566-2.077-2.33-6.19-7.511-7.117 0 0 1.263-.313 3.298.174zm-17.387 18.39c-.236 12.135 14.272 7.527 15.222 6.641a10.404 10.404 0 0 1-1.96-.253c-4.021 1.201-12.773 2.204-13.261-6.388z" fill="#ea7221"/><text transform="rotate(1)" x=".265" y="-.842" fill="#fff" fill-rule="evenodd" font-family="SourceHanSansSC-Medium, 'Source Han Sans SC'" font-size="5.963" font-weight="400"><tspan x="30.558" y="17.247">PDF READER</tspan></text></g></svg>