<?xml version="1.0" encoding="UTF-8"?>
<svg width="96" height="96" version="1.1" viewBox="0 0 96 96" xmlns="http://www.w3.org/2000/svg" xmlns:cc="http://creativecommons.org/ns#" xmlns:dc="http://purl.org/dc/elements/1.1/" xmlns:rdf="http://www.w3.org/1999/02/22-rdf-syntax-ns#">
 <metadata>
  <rdf:RDF>
   <cc:Work rdf:about="">
    <dc:format>image/svg+xml</dc:format>
    <dc:type rdf:resource="http://purl.org/dc/dcmitype/StillImage"/>
    <dc:title>深度商店-96px</dc:title>
   </cc:Work>
  </rdf:RDF>
 </metadata>
 <title>深度商店-96px</title>
 <defs>
  <filter id="filter951" color-interpolation-filters="sRGB">
   <feFlood flood-color="rgb(0,0,0)" flood-opacity=".19608" result="flood"/>
   <feComposite in="flood" in2="SourceGraphic" operator="in" result="composite1"/>
   <feGaussianBlur in="composite1" result="blur" stdDeviation="0.5"/>
   <feOffset dx="0" dy="0.5" result="offset"/>
   <feComposite in="SourceGraphic" in2="offset" result="composite2"/>
  </filter>
 </defs>
 <g transform="matrix(1.8564 0 0 1.8564 96.266 8.3283)" filter="url(#filter951)">
  <path d="m-10 43h-32a3 3 0 0 1-3-3v-32a3 3 0 0 1 3-3h32a3 3 0 0 1 3 3v32a3 3 0 0 1-3 3z" fill="#f2b135"/>
  <path d="m-19 36h-14a1 1 0 0 1-1-1v-3h16v3a1 1 0 0 1-1 1z" fill="#fddf7a"/>
  <path d="m-19 33h-14a1 1 0 0 1-1-1v-2l-1-2h18l-1 2v2a1 1 0 0 1-1 1z" fill="#c9caca"/>
  <path d="m-18 30h-16l-0.469-0.937 16.968-0.061zm-16 1h16v1h-16z" fill="#b6b7b7"/>
  <path d="m-42 26.996v-18.075c0-0.555 0.45-1.004 1.004-1.004h29.992c0.554 0 1.004 0.449 1.004 1.004v18.075c0 0.554-0.45 1.004-1.004 1.004h-29.992c-0.554 0-1.004-0.45-1.004-1.004z" fill="#e69827" opacity=".63"/>
  <path d="m-10 5h-32a3 3 0 0 0-3 3v22a1 1 0 0 0 1 1h9a1 1 0 0 0 1-1v-1a1 1 0 0 0-1-1h-5.996c-0.554 0-1.004-0.45-1.004-1.004v-18.075a0.92 0.92 0 0 1 0.921-0.921h30.075c0.554 0 1.004 0.45 1.004 1.004v17.992c0 0.554-0.45 1.004-1.004 1.004h-5.996a1 1 0 0 0-1 1v1a1 1 0 0 0 1 1h9a1 1 0 0 0 1-1v-22a3 3 0 0 0-3-3z" fill="#fddf7a"/>
  <path d="m-11 28h-30v-16.996c0-0.554 0.45-1.004 1.004-1.004h27.991c0.555 0 1.005 0.45 1.005 1.004z" fill="#f0f0f0"/>
  <path d="m-21.965 18.74 9.961-7.74-13.996 9.5-13.996-9.5 9.953 7.734-8.171 8.402 9.024-7.74 3.19 2.479 3.183-2.473 9.017 7.734z" fill="#c9caca"/>
 </g>
</svg>
