<svg width="96" height="96" version="1.1" viewBox="0 0 96 96" xmlns="http://www.w3.org/2000/svg" xmlns:xlink="http://www.w3.org/1999/xlink"><title>gimp</title><defs><radialGradient id="b" cx="46.116" cy="35.454" r="32.527" gradientTransform="scale(1.1026 .90691)" gradientUnits="userSpaceOnUse"><stop stop-color="#DEE0F2" offset="0"/><stop stop-color="#3B3A4C" offset="1"/></radialGradient><linearGradient id="c" x1="15.298" x2="13.563" y1="25.19" y2="40.137" gradientTransform="scale(.87423 1.1439)" gradientUnits="userSpaceOnUse"><stop stop-color="#757681" offset="0"/><stop stop-color="#41414A" stop-opacity="0" offset="1"/></linearGradient><linearGradient id="d" x1="11.291" x2="12.57" y1="28.813" y2="37.025" gradientTransform="scale(1.0016 .99845)" gradientUnits="userSpaceOnUse"><stop stop-color="#fff" offset="0"/><stop stop-color="#fff" stop-opacity=".318" offset="1"/></linearGradient><linearGradient id="e" x1="149.98" x2="152.93" y1="10.428" y2="13.869" gradientTransform="scale(.52474 1.9057)" gradientUnits="userSpaceOnUse"><stop stop-color="#4C495E" offset="0"/><stop stop-color="#252330" offset="1"/></linearGradient><linearGradient id="f" x1="156.21" x2="145.38" y1="1.709" y2="12.788" gradientTransform="scale(.53864 1.8565)" gradientUnits="userSpaceOnUse"><stop stop-color="#C1C2E1" stop-opacity=".105" offset="0"/><stop stop-color="#676779" offset="1"/></linearGradient><path id="g" d="M91.66 81.979c-8.843-3.85-12.184-8.536-10.024-14.061 2.098-3.655 7.95-.247 8.121 4.294.256 2.98.89 6.236 1.903 9.767z"/><linearGradient id="h" x1="106.89" x2="113.66" y1="53.248" y2="62.341" gradientTransform="scale(.77903 1.2837)" gradientUnits="userSpaceOnUse"><stop stop-color="#fff" stop-opacity=".104" offset="0"/><stop stop-color="#fff" stop-opacity=".069" offset="1"/></linearGradient><path id="i" d="M85.897 78.82c1.552 1.11 3.473 2.162 5.764 3.16-.926-3.226-1.535-6.221-1.829-8.987-2.08-3.266-3.763-5.458-5.049-6.576-.96-.143-1.885.075-2.592.773.094.18.205.373.333.58 1.325 5.787 2.45 9.47 3.373 11.05z"/><linearGradient id="j" x1="112.36" x2="117.74" y1="50.058" y2="57.764" gradientTransform="scale(.74535 1.3417)" gradientUnits="userSpaceOnUse"><stop stop-color="#fff" stop-opacity=".2" offset="0"/><stop stop-color="#fff" stop-opacity="0" offset="1"/></linearGradient><path id="k" d="M82.411 66.993c.635-.51 1.415-.685 2.226-.595 3.397 6.812 4.605 10.492 3.624 11.041-1.02.571-2.97-2.911-5.85-10.446z"/><linearGradient id="l" x1="130.09" x2="134.62" y1="43.481" y2="49.968" gradientTransform="scale(.64758 1.5442)" gradientUnits="userSpaceOnUse"><stop stop-color="#fff" stop-opacity=".275" offset="0"/><stop stop-color="#fff" stop-opacity="0" offset="1"/></linearGradient><path id="m" d="M83.386 66.489c.207-.059.421-.094.64-.108 2.742 6.512 3.985 10.079 3.73 10.7-.267.65-1.763-2.716-4.488-10.098l.118-.494z"/><linearGradient id="n" x1="191.64" x2="179.48" y1="19.843" y2="19.843" gradientTransform="matrix(.23314 -.2984 2.0809 1.6258 -18.324 85.348)" gradientUnits="userSpaceOnUse"><stop stop-color="#FF4900" offset="0"/><stop stop-color="#FFD052" offset=".492"/><stop stop-color="#FF3800" offset="1"/></linearGradient><linearGradient id="o" x1="73.837" x2="70.183" y1="62.415" y2="66.352" gradientTransform="matrix(1.0649 0 0 .93907 .75 7.5)" gradientUnits="userSpaceOnUse"><stop stop-color="#fff" stop-opacity="0" offset="0"/><stop stop-color="#fff" offset="1"/></linearGradient><filter id="a" color-interpolation-filters="sRGB"><feFlood flood-color="#000" flood-opacity=".196" result="flood"/><feComposite in="flood" in2="SourceGraphic" operator="in" result="composite1"/><feGaussianBlur in="composite1" result="blur" stdDeviation="1"/><feOffset dx="0" dy="1" result="offset"/><feComposite in="SourceGraphic" in2="offset" result="composite2"/></filter></defs><g fill-rule="evenodd" filter="url(#a)"><g transform="translate(.75 7.5)"><path d="M24.819 10.322c5.483 10.736 15.665 14.836 30.547 12.298C77.689 18.813 82.005-1.546 83.857 2.123c1.851 3.67 5.287 44.8-14.099 56.22-12.924 7.613-29.078 5.075-48.464-7.613-7.245-4.295-10.574-7.71-9.987-10.248 7.833-3.123 12.043-5.564 12.63-7.32.588-1.757.882-9.37.882-22.84z" fill="url(#b)"/><path d="M42.443 50.915c6.603.527 12.116-.731 16.538-3.776.213-.222-.624-.88-2.51-1.973 5.634 1.905 4.473 4.053-3.483 6.444-3.014.758-6.529.527-10.544-.695z" fill="#252330"/><ellipse transform="rotate(-29 14.348 38.211)" cx="14.348" cy="38.211" rx="9.399" ry="12.298" fill="#252330"/><ellipse transform="rotate(-29 13.374 36.198)" cx="13.374" cy="36.198" rx="5.644" ry="7.385" fill="url(#c)"/><ellipse cx="52.135" cy="29.061" rx="11.455" ry="11.42" fill="#fff"/><ellipse cx="54.779" cy="31.697" rx="4.699" ry="4.685" fill="#424b4e"/><ellipse cx="55.072" cy="31.99" rx="2.643" ry="2.635" fill="#171717"/><ellipse cx="31.281" cy="29.94" rx="7.637" ry="7.613" fill="#fff"/><ellipse cx="32.162" cy="31.99" rx="3.818" ry="3.807" fill="#424b4e"/><ellipse cx="32.401" cy="32.227" rx="2.148" ry="2.141" fill="#171717"/><ellipse cx="11.308" cy="32.868" rx="4.112" ry="4.099" fill="url(#d)"/><path d="M76.854 23.932c4.134-13.927 6.385-21.302 6.753-22.124.553-1.233-4.98 24.163-5.681 24.572-.467.272-.824-.543-1.072-2.448z" fill="url(#e)"/><path d="M77.011 25.263c-.675-1.544 3.61-9.976 6.7-23.905.114-.516.283-.851.43-1.285-5.268 15.627-8.068 23.045-7.13 25.19z" fill="url(#f)" fill-rule="nonzero"/></g><use transform="translate(.75 7.5)" width="100%" height="100%" fill="#252330" xlink:href="#g"/><use transform="translate(.75 7.5)" width="100%" height="100%" fill="url(#h)" xlink:href="#i"/><use transform="translate(.75 7.5)" width="100%" height="100%" fill="url(#j)" xlink:href="#k"/><use transform="translate(.75 7.5)" width="100%" height="100%" fill="url(#l)" xlink:href="#m"/><path d="M57 57.938c-.125 0 .188-.375.938-1.125 1.124-1.125 2.261-2.063 12.495 5.813 6.823 5.25 11.657 9.125 14.504 11.625l-2.812 2.812c-6.725-5.052-11.725-8.864-15-11.438A390.282 390.282 0 0 0 57 57.937z" fill="url(#n)"/><path d="M74.275 65.599c4.83 3.765 8.384 6.65 10.663 8.651l-2.813 2.813a1388.992 1388.992 0 0 1-10.692-8.1l2.842-3.364z" fill="#d8d8d8"/><path d="M74.932 66.112c4.496 3.515 7.831 6.228 10.006 8.138l-1.668 1.668c-6.065-4.474-9.19-6.992-9.373-7.554-.298-.91.292-1.661 1.035-2.252z" fill="url(#o)"/></g></svg>