<svg width="96" height="96" version="1.1" viewBox="0 0 96 96" xmlns="http://www.w3.org/2000/svg"><title>chrome-96px</title><defs><linearGradient id="b" x1="41.684" x2="41.684" y1="7.223" y2="68.548" gradientTransform="scale(1.1862 .843)" gradientUnits="userSpaceOnUse"><stop stop-color="#F7503B" offset="0"/><stop stop-color="#F34735" offset=".217"/><stop stop-color="#E72F25" offset=".572"/><stop stop-color="#D5090D" offset="1"/></linearGradient><linearGradient id="c" x1="37.285" x2="37.285" y1="23.517" y2="85.522" gradientTransform="scale(.95035 1.0522)" gradientUnits="userSpaceOnUse"><stop stop-color="#35C230" offset="0"/><stop stop-color="#34BE30" offset=".348"/><stop stop-color="#31B331" offset=".681"/><stop stop-color="#2CA032" offset="1"/></linearGradient><linearGradient id="d" x1="48" x2="48" y1="32.02" y2="64.02" gradientUnits="userSpaceOnUse"><stop stop-color="#31B2FF" offset="0"/><stop stop-color="#1F7AFF" offset="1"/></linearGradient><linearGradient id="e" x1="48" x2="48" y1="33" y2="63" gradientUnits="userSpaceOnUse"><stop stop-color="#47BAFF" offset="0"/><stop stop-color="#3D8BFF" offset="1"/></linearGradient><linearGradient id="f" x1="48" x2="48" y1="6" y2="90" gradientUnits="userSpaceOnUse"><stop stop-color="#fff" offset="0"/><stop stop-color="#515151" offset="1"/></linearGradient><filter id="a" color-interpolation-filters="sRGB"><feFlood flood-color="#000" flood-opacity=".196" result="flood"/><feComposite in="flood" in2="SourceGraphic" operator="in" result="composite1"/><feGaussianBlur in="composite1" result="blur" stdDeviation="1"/><feOffset dx="0" dy="1" result="offset"/><feComposite in="SourceGraphic" in2="offset" result="composite2"/></filter></defs><g filter="url(#a)"><g fill-rule="evenodd"><path d="M85.82 29.506C78.948 15.634 64.628 6.09 48.072 6.09c-14.498 0-27.424 7.528-34.996 18.656l19.336 33.04z" fill="url(#b)"/><path d="M45.258 89.99c15.472 1.07 30.634-6.632 38.982-20.898 7.308-12.49 7.394-27.452 1.578-39.586l-38.012-.08z" fill="#ffcf00"/><path d="M32.412 57.786l-19.336-33.04a41.715 41.715 0 0 0-7.104 23.346c0 22.254 17.35 40.456 39.288 41.898l19.638-33.458z" fill="url(#c)"/><path d="M48 69.022c-11.028 0-20-8.974-20-20.002s8.972-19.998 20-19.998c11.026 0 20 8.97 20 19.998s-8.974 20.002-20 20.002z" opacity=".1"/><path d="M48 68.022c-11.028 0-20-8.974-20-20.002s8.972-19.998 20-19.998c11.026 0 20 8.97 20 19.998s-8.974 20.002-20 20.002z" fill="#f7f7f7"/><path d="M28.006 48.52a20.281 20.281 0 0 1-.006-.5c0-11.028 8.972-19.998 20-19.998 11.026 0 20 8.97 20 19.998 0 .167-.002.334-.006.5C67.727 37.722 58.859 29.022 48 29.022c-10.861 0-19.728 8.7-19.994 19.498z" fill="#fff"/><circle cx="48" cy="48.02" r="16" fill="url(#d)"/><circle cx="48" cy="48" r="15" fill="url(#e)"/></g><circle cx="48" cy="48" r="41.5" fill="none" opacity=".196" stroke="url(#f)"/></g></svg>