<svg width="96" height="96" version="1.1" viewBox="0 0 96 96" xmlns="http://www.w3.org/2000/svg" xmlns:xlink="http://www.w3.org/1999/xlink"><title>gparted</title><defs><linearGradient id="a" x1="50%" x2="50%" y1="1.833%" y2="50%"><stop stop-color="#989898" offset="0"/><stop stop-color="#D5D5D5" offset="1"/></linearGradient><linearGradient id="d" x1="26.375" x2="26.375" y1="2.5" y2="30.556" gradientUnits="userSpaceOnUse"><stop stop-color="#3E3E3E" offset="0"/><stop stop-color="#3E3E3F" offset=".914"/><stop stop-color="#fff" stop-opacity="0" offset="1"/></linearGradient><linearGradient id="e" x1="26.375" x2="26.375" y1=".5" y2="27.211" gradientTransform="scale(.99999 1)" gradientUnits="userSpaceOnUse"><stop stop-color="#D5D5D5" offset="0"/><stop stop-color="#D6D6D7" offset=".897"/><stop stop-color="#fff" stop-opacity="0" offset="1"/></linearGradient><linearGradient id="g" x1="8" x2="8" y2="16" gradientUnits="userSpaceOnUse"><stop stop-color="#020300" offset="0"/><stop stop-color="#000200" offset="1"/></linearGradient><path id="f" d="M8 16A8 8 0 1 1 8 0a8 8 0 0 1 0 16z"/><path id="h" d="M4.015 14.938a8.039 8.039 0 0 1-3.021-3.074l14.35-7.043A8.026 8.026 0 0 0 13.057 1.8L4.015 14.938z"/><linearGradient id="i" x1="8" x2="8" y1="9" y2="7" gradientUnits="userSpaceOnUse"><stop stop-color="#E2E096" offset="0"/><stop stop-color="#F9F8D2" offset="1"/></linearGradient><linearGradient id="c" x1="1.5" x2="1.5" y1=".805" y2="2.25" gradientUnits="userSpaceOnUse" xlink:href="#a"/><filter id="b" color-interpolation-filters="sRGB"><feFlood flood-color="#000" flood-opacity=".196" result="flood"/><feComposite in="flood" in2="SourceGraphic" operator="in" result="composite1"/><feGaussianBlur in="composite1" result="blur" stdDeviation="1"/><feOffset dx="0" dy="1" result="offset"/><feComposite in="SourceGraphic" in2="offset" result="composite2"/></filter></defs><g fill="none" filter="url(#b)"><g fill-rule="evenodd"><g fill-rule="nonzero"><path d="M82 82c0 3.887-3.206 7-7 7H21c-3.794 0-7-3.113-7-7V16c0-3.885 3.206-7 7-7h54c3.794 0 7 3.115 7 7z" fill="#8d8d8d"/><path d="M82 79.158c0 3.966-3.206 7.092-7.138 7.092H21.138c-3.932 0-7.138-3.125-7.138-7.092V13.092C14 9.125 17.206 6 21.138 6h53.724C78.794 6 82 9.125 82 13.092z" fill="#d0d1d6"/><path d="M82 81c0 3.884-3.206 7-7 7H21c-3.794 0-7-3.116-7-7V15c0-3.884 3.206-7 7-7h54c3.794 0 7 3.116 7 7z" fill="#cacbcf"/><path d="M76.5 13.501a3 3 0 1 1-6-.002 3 3 0 0 1 6 .002z" fill="#85858a"/><path transform="matrix(1 0 0 -1 72 15.75)" d="M3 2.25a1.5 1.5 0 1 1-3 0 1.5 1.5 0 0 1 3 0z" fill="url(#c)"/><path d="M25.5 13.501a3 3 0 1 1-6-.002 3 3 0 0 1 6 .002z" fill="#85858a"/><g transform="translate(21 11.25)" fill="url(#c)"><path transform="matrix(1 0 0 -1 0 4.5)" d="M3 2.25a1.5 1.5 0 1 1-3 0 1.5 1.5 0 0 1 3 0z" fill="url(#c)"/></g><path d="M20 60h-6v21c0 3.865 3.206 7 7 7h27V74c-11.46.001-21.599-5.526-28-14z" fill="#949496"/></g><path transform="matrix(1 0 0 -1 21.625 69.5)" d="M26.375 2.5c-14.358 0-26 11.64-26 25.999s11.642 26.001 26 26.001 26-11.641 26-26.001S40.733 2.5 26.375 2.5zm15.933 41.933a22.504 22.504 0 0 1-7.163 4.832c-2.775 1.173-5.725 1.767-8.77 1.767s-5.995-.594-8.77-1.767a22.504 22.504 0 0 1-7.162-4.832A22.436 22.436 0 0 1 3.84 28.499a22.446 22.446 0 0 1 6.602-15.932 22.417 22.417 0 0 1 7.162-4.83 22.378 22.378 0 0 1 8.77-1.77c3.045 0 5.995.595 8.77 1.77a22.413 22.413 0 0 1 7.163 4.83A22.446 22.446 0 0 1 48.91 28.5a22.441 22.441 0 0 1-6.602 15.934z" fill="url(#d)" fill-rule="nonzero"/><path d="M26.375.5c-14.358 0-26 11.64-26 26s11.642 26.001 26 26.001 26-11.642 26-26.001-11.642-26-26-26zm15.933 41.934a22.503 22.503 0 0 1-7.163 4.832c-2.775 1.173-5.725 1.767-8.77 1.767s-5.995-.594-8.77-1.767a22.504 22.504 0 0 1-7.162-4.832A22.435 22.435 0 0 1 3.84 26.5a22.446 22.446 0 0 1 6.602-15.933 22.416 22.416 0 0 1 7.162-4.83 22.378 22.378 0 0 1 8.77-1.77c3.045 0 5.995.595 8.77 1.77a22.415 22.415 0 0 1 7.163 4.83A22.446 22.446 0 0 1 48.91 26.5a22.442 22.442 0 0 1-6.602 15.934z" fill="url(#e)" fill-rule="nonzero" transform="translate(21.625 12.5)"/><path d="M71.625 40.683c0 13.072-10.745 23.817-24 23.817s-24-10.745-24-23.817c0-13.438 10.745-24.183 24-24.183s24 10.746 24 24.183" fill="#49494c"/><path fill="#4f4f50" d="M37.498 16.962L58.499 63l10-8-41.363-29.793z"/><g><g transform="translate(39.75 32.125)"><use width="100%" height="100%" fill="url(#g)" xlink:href="#f"/><use width="100%" height="100%" fill="#4f4f50" opacity=".5" xlink:href="#h"/></g><path d="M47.75 44.125a4 4 0 1 1 0-8 4 4 0 0 1 0 8z" fill="#85858a"/><path d="M9 8a1 1 0 1 1-2 0 1 1 0 0 1 2 0" fill="url(#i)" transform="translate(39.75 32.125)"/></g><path d="M48 14c-14.358 0-26 11.64-26 26s11.642 26.001 26 26.001S74 54.359 74 40 62.358 14 48 14zm15.933 41.934a22.503 22.503 0 0 1-7.163 4.832c-2.775 1.173-5.725 1.767-8.77 1.767s-5.995-.594-8.77-1.767a22.504 22.504 0 0 1-7.162-4.832A22.435 22.435 0 0 1 25.466 40a22.446 22.446 0 0 1 6.602-15.933 22.416 22.416 0 0 1 7.162-4.83 22.378 22.378 0 0 1 8.77-1.77c3.045 0 5.995.595 8.77 1.77a22.415 22.415 0 0 1 7.163 4.83A22.446 22.446 0 0 1 70.535 40a22.442 22.442 0 0 1-6.602 15.934z" fill="#595959" fill-rule="nonzero"/><g fill="#ecf1f6" fill-rule="nonzero"><path d="M36.447 77.367l18.489-22.984c.264-.308.424-.702.424-1.133 0-.964-.801-1.748-1.788-1.748-.44 0-.843.154-1.154.415L28.95 70.028c-1.322.956-2.177 2.492-2.177 4.222 0 2.902 2.4 5.25 5.36 5.25 1.768 0 3.336-.838 4.312-2.133z"/></g><g><g transform="matrix(-1 0 0 1 65.625 76.5)" fill="#d9d9d9"><rect width="1.125" height="10.5" rx=".563"/><rect x="3" width="1.125" height="10.5" rx=".563"/><rect x="6" width="1.125" height="10.5" rx=".563"/><rect x="9" width="1.125" height="10.5" rx=".563"/><rect x="12" width="1.125" height="10.5" rx=".563"/></g><g fill="#747474" transform="matrix(-1 0 0 1 65.625 74.25)"><rect width="1.125" height="10.5" rx=".563"/><rect x="3" width="1.125" height="10.5" rx=".563"/><rect x="6" width="1.125" height="10.5" rx=".563"/><rect x="9" width="1.125" height="10.5" rx=".563"/><rect x="12" width="1.125" height="10.5" rx=".563"/></g><g transform="matrix(-1 0 0 1 65.625 75.375)" fill="#949496"><rect width="1.125" height="10.5" rx=".563"/><rect x="3" width="1.125" height="10.5" rx=".563"/><rect x="6" width="1.125" height="10.5" rx=".563"/><rect x="9" width="1.125" height="10.5" rx=".563"/><rect x="12" width="1.125" height="10.5" rx=".563"/></g></g></g><path d="M76.5 81.001a3 3 0 1 1-6-.002 3 3 0 0 1 6 .002z" fill="#85858a"/><path transform="matrix(1 0 0 -1 72 83.25)" d="M3 2.25a1.5 1.5 0 1 1-3 0 1.5 1.5 0 0 1 3 0z" fill="url(#c)"/><g><path d="M25.5 81.001a3 3 0 1 1-6-.002 3 3 0 0 1 6 .002z" fill="#85858a"/><path transform="matrix(1 0 0 -1 21 83.25)" d="M3 2.25a1.5 1.5 0 1 1-3 0 1.5 1.5 0 0 1 3 0z" fill="url(#c)"/></g></g></svg>