<svg width="96" height="96" version="1.1" viewBox="0 0 96 96" xmlns="http://www.w3.org/2000/svg"><title>drive-harddisk-96px</title><defs><linearGradient id="b" x1="39.569" x2="39.569" y1="2.957" y2="69.475" gradientTransform="matrix(.98561 0 0 1.0146 9 5)" gradientUnits="userSpaceOnUse"><stop stop-color="#B0F400" offset="0"/><stop stop-color="#9DDA00" offset=".019"/><stop stop-color="#73C300" offset="1"/></linearGradient><linearGradient id="c" x1="17.052" x2="17.052" y1="160.1" y2="189.83" gradientTransform="matrix(2.2871 0 0 .43724 9 5)" gradientUnits="userSpaceOnUse"><stop stop-color="#fff" offset="0"/><stop stop-color="#BEC8BD" offset="1"/></linearGradient><filter id="a" color-interpolation-filters="sRGB"><feFlood flood-color="#000" flood-opacity=".196" result="flood"/><feComposite in="flood" in2="SourceGraphic" operator="in" result="composite1"/><feGaussianBlur in="composite1" result="blur" stdDeviation="1"/><feOffset dx="0" dy="1" result="offset"/><feComposite in="SourceGraphic" in2="offset" result="composite2"/></filter></defs><g fill-rule="evenodd" filter="url(#a)"><rect x="14" y="8" width="68" height="70" rx="2" fill="url(#b)"/><path fill="#6fb400" d="M14 67h68v6H14z"/><path fill="#f3f3f3" d="M14 68h68v12H14z"/><rect x="14" y="75" width="68" height="13" rx="2" fill="url(#c)"/><path d="M14 77.992c0-1.1.897-1.992 1.998-1.992h64.003A2 2 0 0 1 82 77.992v7.016C82 86.108 81.102 87 80 87H15.998A2 2 0 0 1 14 85.008z" fill="#cbd8ca"/><g fill="#75c500"><path d="M73.974 79.992h2v4h-2zM69.974 79.992h2v4h-2zM65.974 79.992h2v4h-2zM61.974 79.992h2v4h-2zM57.974 79.992h2v4h-2zM53.974 79.992h2v4h-2z"/></g><path d="M24 84a2 2 0 1 0 0-4 2 2 0 0 0 0 4z" fill="#6cb601"/><path d="M24 83a1 1 0 1 0 0-2 1 1 0 0 0 0 2z" fill="#87e300"/></g></svg>