<svg width="96" height="96" version="1.1" viewBox="0 0 96 96" xmlns="http://www.w3.org/2000/svg"><defs><filter id="a" color-interpolation-filters="sRGB"><feFlood flood-color="#000" flood-opacity=".196" result="flood"/><feComposite in="flood" in2="SourceGraphic" operator="in" result="composite1"/><feGaussianBlur in="composite1" result="blur" stdDeviation="1"/><feOffset dx="0" dy="1" result="offset"/><feComposite in="SourceGraphic" in2="offset" result="composite2"/></filter></defs><title>deepin-calculator</title><g transform="translate(-.025 -1.139) scale(1.5008)" filter="url(#a)"><path d="M10.058 15.175c-.017.062-.058.116-.058.183 0 7.709 2.008 16.62 5.511 24.447 2.841 6.35 7.951 14.82 16.155 19.113a.715.715 0 0 0 .664 0c8.204-4.292 13.314-12.762 16.154-19.113 3.503-7.828 5.512-16.74 5.512-24.447 0-.067-.042-.12-.059-.183-.283 7.272-2.22 15.407-5.453 22.632-2.84 6.35-7.95 14.82-16.154 19.112a.715.715 0 0 1-.664 0c-8.203-4.292-13.313-12.762-16.155-19.112-3.232-7.224-5.169-15.36-5.452-22.631z" opacity=".2"/><path d="M53.512 13.662L32.24 6.045a.715.715 0 0 0-.483 0l-21.271 7.617a.737.737 0 0 0-.485.695c0 7.708 2.009 16.62 5.512 24.447 2.84 6.35 7.95 14.822 16.154 19.113a.717.717 0 0 0 .665 0c8.204-4.292 13.313-12.763 16.155-19.113 3.503-7.828 5.511-16.74 5.511-24.447a.737.737 0 0 0-.484-.695z" fill="#7e97de"/><path d="M43.734 23.126l-11.603-4.101a.395.395 0 0 0-.263 0l-11.603 4.101A.397.397 0 0 0 20 23.5c0 4.151 1.096 8.95 3.007 13.164 1.55 3.42 4.336 7.981 8.812 10.292a.395.395 0 0 0 .362 0c4.475-2.311 7.262-6.873 8.812-10.292C42.903 32.45 44 27.65 44 23.5a.397.397 0 0 0-.265-.374z" opacity=".2"/><path d="M43.734 22.126l-11.603-4.101a.395.395 0 0 0-.263 0l-11.603 4.101A.397.397 0 0 0 20 22.5c0 4.151 1.096 8.95 3.007 13.164 1.55 3.42 4.336 7.981 8.812 10.292a.395.395 0 0 0 .362 0c4.475-2.311 7.262-6.873 8.812-10.292C42.903 31.45 44 26.65 44 22.5a.397.397 0 0 0-.265-.374z" fill="#fff"/><path d="M32 6.004a.717.717 0 0 0-.243.041l-21.272 7.617a.737.737 0 0 0-.485.695c0 .272.018.553.028.83a.729.729 0 0 1 .457-.525l21.272-7.617a.72.72 0 0 1 .485 0l21.27 7.617c.235.084.4.287.457.525.01-.277.027-.558.027-.83a.737.737 0 0 0-.484-.695l-21.27-7.617a.717.717 0 0 0-.243-.041z" opacity=".2" fill="#fff"/></g></svg>