<svg width="96" height="96" version="1.1" viewBox="0 0 96 96" xmlns="http://www.w3.org/2000/svg"><defs><filter id="a" color-interpolation-filters="sRGB"><feFlood flood-color="#000" flood-opacity=".196" result="flood"/><feComposite in="flood" in2="SourceGraphic" operator="in" result="composite1"/><feGaussianBlur in="composite1" result="blur" stdDeviation="1"/><feOffset dx="0" dy="1" result="offset"/><feComposite in="SourceGraphic" in2="offset" result="composite2"/></filter></defs><title>deepin-calculator</title><g transform="translate(3.3 2.711) scale(1.3935)" filter="url(#a)"><path d="M4 53.222v2C4 56.762 5.25 58 6.8 58h50.4c1.55 0 2.8-1.238 2.8-2.778v-2C60 54.762 58.75 56 57.2 56H6.8C5.25 56 4 54.762 4 53.222z" opacity=".2"/><path d="M59.999 54.222V9.779a2.782 2.782 0 0 0-2.8-2.778H6.8A2.783 2.783 0 0 0 4 9.779v44.443A2.782 2.782 0 0 0 6.8 57h50.399c1.551 0 2.8-1.24 2.8-2.778z" fill="#4789d2"/><g opacity=".2"><g transform="matrix(2 0 0 2 -1.007 -3.997)"><path d="M10.939 9a.589.589 0 0 0-.496.232c-.673.863-1.376 2.028-2.045 3.069l-.797-1.367a.59.59 0 1 0-1.017.594l1.271 2.18a.589.589 0 0 0 .996.033c.828-1.228 1.765-2.816 2.52-3.784A.589.589 0 0 0 10.939 9z" fill-rule="evenodd"/><rect x="12.5" y="11" width="13" height="2" rx="1" ry="1"/></g><g transform="matrix(2 0 0 2 -1.007 .001)"><rect x="12.5" y="16" width="13" height="2" rx="1" ry="1"/><circle cx="8.5" cy="17" r="1"/></g><g transform="matrix(2 0 0 2 -1.007 2)"><rect x="12.5" y="21" width="13" height="2" rx="1" ry="1"/><circle cx="8.5" cy="22" r="1"/></g></g><g fill="#ffdd73"><g transform="matrix(2 0 0 2 -1.007 -4.997)"><path d="M10.939 9a.589.589 0 0 0-.496.232c-.673.863-1.376 2.028-2.045 3.069l-.796-1.367a.59.59 0 1 0-1.018.594l1.271 2.18a.589.589 0 0 0 .997.032c.827-1.227 1.764-2.815 2.519-3.783A.589.589 0 0 0 10.939 9z" fill-rule="evenodd"/><rect x="12.5" y="11" width="13" height="2" rx="1" ry="1"/></g><g transform="matrix(2 0 0 2 -1.007 -.999)"><rect x="12.5" y="16" width="13" height="2" rx="1" ry="1"/><circle cx="8.5" cy="17" r="1"/></g><g transform="matrix(2 0 0 2 -1.007 1)"><rect x="12.5" y="21" width="13" height="2" rx="1" ry="1"/><circle cx="8.5" cy="22" r="1"/></g></g><path d="M6.8 7A2.783 2.783 0 0 0 4 9.777v1A2.783 2.783 0 0 1 6.8 8H57.2c1.552 0 2.8 1.238 2.8 2.777v-1A2.782 2.782 0 0 0 57.2 7z" fill="#fff" opacity=".2"/></g></svg>