<?xml version="1.0" encoding="UTF-8"?>
<svg width="96" height="96" version="1.1" viewBox="0 0 96 96" xmlns="http://www.w3.org/2000/svg" xmlns:cc="http://creativecommons.org/ns#" xmlns:dc="http://purl.org/dc/elements/1.1/" xmlns:rdf="http://www.w3.org/1999/02/22-rdf-syntax-ns#">
 <metadata>
  <rdf:RDF>
   <cc:Work rdf:about="">
    <dc:format>image/svg+xml</dc:format>
    <dc:type rdf:resource="http://purl.org/dc/dcmitype/StillImage"/>
    <dc:title>deepin-calculator</dc:title>
   </cc:Work>
  </rdf:RDF>
 </metadata>
 <title>deepin-calculator</title>
 <defs>
  <filter id="filter999" color-interpolation-filters="sRGB">
   <feFlood flood-color="rgb(0,0,0)" flood-opacity=".19608" result="flood"/>
   <feComposite in="flood" in2="SourceGraphic" operator="in" result="composite1"/>
   <feGaussianBlur in="composite1" result="blur" stdDeviation="1"/>
   <feOffset dx="0" dy="1" result="offset"/>
   <feComposite in="SourceGraphic" in2="offset" result="composite2"/>
  </filter>
 </defs>
 <g transform="matrix(1.8905 0 0 1.8905 .50037 3.2748)" filter="url(#filter999)">
  <path d="m26.404 3.173 20.846 11.981-16.555 28.804-20.845-11.98z" fill="#f4f4f3"/>
  <path d="m44.37 15.93-14.45 25.145-17.186-9.877 14.451-25.145z" fill="#a6c4ed"/>
  <g fill="#83a9de">
   <path d="m25.908 8.149 17.119 9.951-1.46 2.51-17.118-9.953zm12.646 17.91-17.298-10.127 1.449-2.493 17.299 10.126zm-2.932 5.064-17.218-9.952 1.387-2.387 17.219 9.952zm-5.73 9.953-17.382-9.983 1.387-2.387 17.383 9.983zm2.712-4.726-17.258-10.086 1.387-2.387 17.258 10.086z"/>
   <path d="m42.24 14.822-14.547 25.02-2.327-1.352 14.547-25.021zm-10.572-6.147-14.548 25.022-2.396-1.393 14.548-25.021zm5.342 3.116-14.545 25.021-2.396-1.392 14.547-25.022z"/>
  </g>
  <path d="m13.233 4.083 23.317 5.86-8.096 32.22-23.318-5.86z" fill="#fafaf9"/>
  <path d="m33.992 11.477-7.068 28.126-19.224-4.83 7.068-28.127z" fill="#a6c4ed"/>
  <g fill="#83a9de">
   <path d="m14.158 9.053 19.218 4.776-0.7 2.818-19.218-4.776zm-1.524 5.975 19.218 4.776-0.696 2.8-19.218-4.777zm17.069 13.402-19.116-4.777 0.666-2.68 19.116 4.777zm-21.338 3.718 19.218 4.776-0.666 2.68-19.218-4.776zm1.375-5.429 19.217 4.776-0.666 2.68-19.217-4.777z"/>
   <path d="m31.702 10.904-6.98 28.089-2.458-0.61 6.98-28.09zm-11.868-2.951-6.981 28.09-2.69-0.67 6.981-28.088zm6 1.5-6.981 28.09-2.69-0.67 6.982-28.088z"/>
  </g>
  <path d="m3 8h24v33h-24z" fill="#fefefd"/>
  <g fill="#ef2929">
   <path d="m7.906 14.003c0.357-0.05 0.489-0.088 0.489-0.238 0-0.163-0.188-0.652-0.421-1.229h-1.448c-0.063 0.119-0.376 0.966-0.376 1.16 0 0.213 0.169 0.251 0.521 0.307v0.088h-1.424v-0.088c0.438-0.088 0.521-0.144 0.752-0.708l1.361-3.192 0.075-0.031 0.42 1.16c0.289 0.784 0.571 1.568 0.81 2.17 0.188 0.464 0.238 0.533 0.677 0.602v0.088h-1.436zm-0.608-3.349a31.286 31.286 0 0 0-0.696 1.681h1.316l-0.607-1.681zm-1.373 4.429a0.933 0.933 0 0 1 1.288 0l0.242 0.233 0.242-0.233a0.933 0.933 0 0 1 1.288 0c0.4 0.387 0.4 1.014 0 1.401l-1.53 1.479-1.53-1.479a0.968 0.968 0 0 1 0-1.401zm17.69-1.08c0.357-0.05 0.489-0.088 0.489-0.238 0-0.163-0.188-0.652-0.421-1.229h-1.448c-0.063 0.119-0.376 0.966-0.376 1.16 0 0.213 0.169 0.251 0.521 0.307v0.088h-1.424v-0.088c0.438-0.088 0.521-0.144 0.752-0.708l1.361-3.192 0.075-0.031 0.42 1.16c0.289 0.784 0.571 1.568 0.81 2.17 0.188 0.464 0.238 0.533 0.677 0.602v0.088h-1.436zm-0.608-3.349a31.286 31.286 0 0 0-0.696 1.681h1.316l-0.607-1.681zm-1.373 4.429a0.933 0.933 0 0 1 1.288 0l0.242 0.233 0.242-0.233a0.933 0.933 0 0 1 1.288 0c0.4 0.387 0.4 1.014 0 1.401l-1.53 1.479-1.53-1.479a0.966 0.966 0 0 1 0-1.401zm-13.728 19.826h1.436v0.088c-0.438 0.069-0.489 0.138-0.677 0.602-0.238 0.602-0.521 1.386-0.81 2.17l-0.42 1.16-0.075-0.032-1.361-3.192c-0.231-0.564-0.313-0.621-0.752-0.708v-0.088h1.424v0.088c-0.352 0.056-0.521 0.093-0.521 0.307 0 0.194 0.313 1.041 0.376 1.16h1.448c0.232-0.577 0.421-1.066 0.421-1.229 0-0.15-0.132-0.188-0.489-0.238zm-0.595 3.436 0.607-1.681h-1.316c0.2 0.527 0.445 1.123 0.696 1.681zm-1.386-4.428a0.933 0.933 0 0 0 1.288 0l0.242-0.233 0.242 0.233a0.933 0.933 0 0 0 1.288 0 0.968 0.968 0 0 0 0-1.401l-1.53-1.479-1.53 1.479a0.968 0.968 0 0 0 0 1.401z"/>
   <path d="m23.615 34.909h1.436v0.088c-0.438 0.069-0.489 0.138-0.677 0.602-0.238 0.602-0.521 1.386-0.81 2.17l-0.42 1.16-0.075-0.031-1.361-3.192c-0.231-0.564-0.313-0.621-0.752-0.708v-0.088h1.424v0.088c-0.352 0.056-0.521 0.094-0.521 0.307 0 0.194 0.313 1.041 0.376 1.16h1.448c0.232-0.577 0.421-1.066 0.421-1.229 0-0.15-0.132-0.188-0.489-0.238zm-0.595 3.436 0.607-1.681h-1.316c0.2 0.527 0.445 1.123 0.696 1.681zm-1.386-4.428a0.933 0.933 0 0 0 1.288 0l0.242-0.233 0.242 0.233a0.933 0.933 0 0 0 1.288 0 0.968 0.968 0 0 0 0-1.401l-1.53-1.479-1.53 1.479a0.966 0.966 0 0 0 0 1.401z"/>
   <path d="m12.378 22.253a1.6 1.6 0 0 1 2.208 0l0.414 0.4 0.414-0.4a1.6 1.6 0 0 1 2.208 0 1.658 1.658 0 0 1 0 2.401l-2.622 2.535-2.622-2.535a1.656 1.656 0 0 1 0-2.401z"/>
  </g>
 </g>
</svg>
