<svg width="96" height="96" version="1.1" viewBox="0 0 96 96" xmlns="http://www.w3.org/2000/svg"><defs><filter id="a" color-interpolation-filters="sRGB"><feFlood flood-color="#000" flood-opacity=".196" result="flood"/><feComposite in="flood" in2="SourceGraphic" operator="in" result="composite1"/><feGaussianBlur in="composite1" result="blur" stdDeviation="1"/><feOffset dx="0" dy="1" result="offset"/><feComposite in="SourceGraphic" in2="offset" result="composite2"/></filter></defs><title>deepin-calculator</title><g transform="translate(5.97 6.41) scale(1.2997)" filter="url(#a)"><path d="M20 46v9c0 3 3 3 3 3h29s3 0 3-3v-9H25z" opacity=".2"/><path fill="#ff0" d="M25 45h5v12h-5z"/><path d="M20 45v9c0 3 3 3 3 3h2V45zM30 45h5v12h-5z" fill="#38732b"/><path fill="#ff0" d="M35 45h5v12h-5z"/><path fill="#38732b" d="M40 45h5v12h-5z"/><path fill="#ff0" d="M45 45h5v12h-5z"/><path d="M55 45v9c0 3-3 3-3 3h-2V45z" fill="#38732b"/><path d="M5 10h6v44" fill="none" opacity=".2" stroke="#030303" stroke-linecap="round" stroke-linejoin="round" stroke-width="6"/><rect transform="matrix(0 -1 -1 0 0 0)" x="-53" y="-62" width="42" height="54" rx="2.625" ry="2.7" opacity=".2"/><rect transform="matrix(0 -1 -1 0 0 0)" x="-52" y="-62" width="42" height="54" rx="2.625" ry="2.7" fill="#5bbd41"/><path d="M10.699 10c-1.496 0-2.7 1.17-2.7 2.625v1C8 12.171 9.204 11 10.7 11h48.602c1.496 0 2.7 1.17 2.7 2.625v-1C62 11.171 60.796 10 59.3 10z" fill="#fff" opacity=".2"/><g fill="none" stroke-linecap="round" stroke-linejoin="round"><path d="M22.5 20.5h18l-18 24h18" opacity=".1" stroke="#000" stroke-width="5"/><path d="M22.5 19.5h18l-18 24h18" stroke="#3f3f3f" stroke-width="5"/><path d="M46.5 19.5h8l-8 12h8" opacity=".1" stroke="#000" stroke-width="3"/><path d="M46.5 18.5h8l-8 12h8" stroke="#3f3f3f" stroke-width="3"/><path d="M5 9h6v44" stroke="#e4e4e4" stroke-width="6"/></g></g></svg>