<svg width="96" height="96" version="1.1" viewBox="0 0 96 96" xmlns="http://www.w3.org/2000/svg"><defs><filter id="a" color-interpolation-filters="sRGB"><feFlood flood-color="#000" flood-opacity=".196" result="flood"/><feComposite in="flood" in2="SourceGraphic" operator="in" result="composite1"/><feGaussianBlur in="composite1" result="blur" stdDeviation="1"/><feOffset dx="0" dy="1" result="offset"/><feComposite in="SourceGraphic" in2="offset" result="composite2"/></filter></defs><title>deepin-calculator</title><g transform="translate(4.946 4.273) scale(1.3454)" filter="url(#a)"><path d="M32 5c-2.614.037-4.48 1.611-5.356 4.218l.036-.117-4.11 11.898H8.628c-1.654.054-3.144 1.025-4.195 2.305-2.273 2.609-1.792 7.316 1.094 9.261l10.89 7.957-4.226 13.133-.011.043c-.646 2.122-.039 4.306 1.585 5.801.012.011.024.025.036.035 1.952 1.736 4.697 1.956 6.902.52.042-.027.08-.057.121-.086L32 51.999l11.176 7.969c.04.03.08.059.121.086 2.205 1.436 4.95 1.216 6.903-.52.012-.01.023-.024.035-.035 1.624-1.495 2.232-3.68 1.586-5.8l-.012-.044-4.227-13.133 10.891-7.957c2.887-1.945 3.367-6.652 1.094-9.261-1.05-1.28-2.541-2.251-4.195-2.305H41.43L37.32 9.101l.036.117C36.48 6.611 34.615 5.037 32 5z" opacity=".2"/><path d="M32 4c-2.614.037-4.479 1.612-5.354 4.219l.032-.117L22.57 20H8.628c-1.654.053-3.146 1.025-4.197 2.304-2.273 2.61-1.79 7.314 1.096 9.26l10.89 7.961-4.226 13.131-.013.043c-.646 2.121-.039 4.308 1.586 5.803l.039.033c1.952 1.735 4.693 1.956 6.898.52.042-.028.085-.057.125-.087L32 51l11.174 7.969c.04.029.083.058.125.086 2.204 1.436 4.946 1.215 6.898-.52l.04-.033c1.624-1.495 2.231-3.681 1.585-5.803a1.828 1.828 0 0 0-.013-.043l-4.227-13.13 10.891-7.962c2.886-1.946 3.369-6.65 1.096-9.26-1.051-1.28-2.543-2.25-4.198-2.304H41.43L37.322 8.102l.031.117C36.478 5.612 34.614 4.038 32 4z" fill="#ffbc2c"/><path d="M32 4c-2.614.037-4.48 1.612-5.356 4.219l.036-.117L22.57 20H8.628c-1.654.053-3.144 1.025-4.195 2.304-1.063 1.22-1.516 2.897-1.41 4.537.1-1.303.563-2.565 1.41-3.537 1.051-1.28 2.541-2.25 4.195-2.304H22.57l4.11-11.898-.035.117C27.52 6.612 29.385 5.037 32 5c2.614.037 4.48 1.612 5.356 4.219l-.036-.117L41.43 21h13.942c1.654.053 3.144 1.025 4.195 2.304.847.972 1.31 2.234 1.41 3.537.106-1.64-.347-3.317-1.41-4.537-1.051-1.28-2.541-2.25-4.195-2.304H41.43L37.32 8.102l.036.117C36.48 5.612 34.614 4.037 32 4zM16.158 40.334l-3.967 12.322-.012.043a5.683 5.683 0 0 0-.22 2.207c.034-.402.098-.805.22-1.207l.012-.043 4.227-13.133zm31.684 0l-.26.19 4.227 13.132c.005.015.007.029.012.043.122.403.186.806.22 1.207a5.682 5.682 0 0 0-.22-2.207c-.005-.014-.007-.028-.012-.043z" fill="#fff" opacity=".2"/></g></svg>