<svg width="96" height="96" version="1.1" viewBox="0 0 96 96" xmlns="http://www.w3.org/2000/svg"><defs><filter id="a" color-interpolation-filters="sRGB"><feFlood flood-color="#000" flood-opacity=".196" result="flood"/><feComposite in="flood" in2="SourceGraphic" operator="in" result="composite1"/><feGaussianBlur in="composite1" result="blur" stdDeviation="1"/><feOffset dx="0" dy="1" result="offset"/><feComposite in="SourceGraphic" in2="offset" result="composite2"/></filter></defs><title>deepin-clone</title><g transform="translate(-.035 -.786) scale(1.5011)" filter="url(#a)"><path d="M32 4C16.488 4 4 16.488 4 32s12.488 28 28 28 28-12.488 28-28S47.512 4 32 4z" fill="#fecd38"/><path d="M32 4C16.488 4 4 16.488 4 32c0 .098.011.194.018.291C4.392 17.11 16.726 5 32 5s27.608 12.11 27.982 27.291c.006-.097.017-.193.017-.291C60 16.488 47.511 4 32 4z" fill="#fff" opacity=".2"/><path d="M32 16.001v12h12l-12 20v-12H20z" fill="#3f3f3f"/><path d="M59.982 32.664C59.63 47.866 47.289 60 32 60 16.712 60 4.371 47.868 4.018 32.668c-.006.11-.018.22-.018.332 0 15.512 12.488 28 28 28s28-12.488 28-28c0-.113-.01-.224-.017-.336z" opacity=".2"/></g></svg>