<svg width="96" height="96" version="1.1" viewBox="0 0 96 96" xmlns="http://www.w3.org/2000/svg">
<title>计算机-96px</title>
<defs>
<linearGradient id="a" x1="42.933" x2="42.933" y1="15.652" y2="87.207" gradientTransform="scale(1.118 .89443)" gradientUnits="userSpaceOnUse">
<stop stop-color="#FFF" offset="0"/>
<stop stop-color="#C3D6DE" offset="1"/>
</linearGradient>
<linearGradient id="b" x1="38.367" x2="38.367" y1="26.226" y2="80.07" gradientTransform="scale(1.2511 .79931)" gradientUnits="userSpaceOnUse">
<stop stop-color="#0E004D" offset="0"/>
<stop stop-color="#4735E4" offset="1"/>
</linearGradient>
<filter id="filter875" color-interpolation-filters="sRGB">
<feFlood flood-color="rgb(0,0,0)" flood-opacity=".19608" result="flood"/>
<feComposite in="flood" in2="SourceGraphic" operator="in" result="composite1"/>
<feGaussianBlur in="composite1" result="blur" stdDeviation="2.5"/>
<feOffset dx="0" dy="2.5" result="offset"/>
<feComposite in="SourceGraphic" in2="offset" result="composite2"/>
</filter>
</defs>
<g fill-rule="evenodd" filter="url(#filter875)">
<rect x="8" y="14" width="80" height="64" rx="4" fill="url(#a)"/>
<path d="m8 16.993c0-1.1 0.898-1.993 1.997-1.993h76.006a2 2 0 0 1 1.997 1.993v58.014c0 1.1-0.898 1.993-1.997 1.993h-76.006a2 2 0 0 1-1.997-1.993z" fill="#eff7fb"/>
<rect x="10" y="16" width="76" height="50" rx="1"/>
<path d="m12 18h72v46h-72z" fill="url(#b)"/>
<path d="m12 18h19l25 46h-44z" fill="#fff" opacity=".123"/>
</g>
</svg>
