<svg width="96" height="96" version="1.1" viewBox="0 0 96 96" xmlns="http://www.w3.org/2000/svg"><defs><filter id="a" color-interpolation-filters="sRGB"><feFlood flood-color="#000" flood-opacity=".196" result="flood"/><feComposite in="flood" in2="SourceGraphic" operator="in" result="composite1"/><feGaussianBlur in="composite1" result="blur" stdDeviation="1"/><feOffset dx="0" dy="1" result="offset"/><feComposite in="SourceGraphic" in2="offset" result="composite2"/></filter></defs><title>deepin-calculator</title><path d="M14.648-6.898a3.886 3.886 0 0 0-3.9 3.89v1.345a3.886 3.886 0 0 1 3.9-3.89h70.237c2.162 0 3.9 1.736 3.9 3.89V-3.01a3.886 3.886 0 0 0-3.9-3.889z" fill="#fff" opacity=".1" stroke-width="1.345"/><g transform="translate(3.408 2.71) scale(1.3935)" filter="url(#a)"><path d="M4 53.222v2C4 56.762 5.25 58 6.801 58h50.4C58.75 58 60 56.762 60 55.222v-2C60 54.762 58.75 56 57.2 56H6.801c-1.55 0-2.8-1.238-2.8-2.778z" opacity=".2"/><path d="M6.801 7.001a2.783 2.783 0 0 0-2.8 2.777v44.444A2.783 2.783 0 0 0 6.8 57h50.397c1.551 0 2.8-1.239 2.8-2.778V9.782a2.784 2.784 0 0 0-2.8-2.777H6.801v-.004z" fill="#8b346f"/><path d="M6.801 7.001a2.783 2.783 0 0 0-2.8 2.777v44.444A2.783 2.783 0 0 0 6.8 57h11.2V7.005H6.8z" opacity=".2"/><path d="M6.8 7.002A2.783 2.783 0 0 0 4 9.779v.998A2.783 2.783 0 0 1 6.8 8H57.2c1.55 0 2.8 1.238 2.8 2.777V9.78a2.784 2.784 0 0 0-2.8-2.777z" fill="#fff" opacity=".1"/><rect x="8" y="36" width="6" height="6" rx=".75" ry=".75" opacity=".2"/><rect x="8" y="12" width="6" height="6" rx=".75" ry=".75" opacity=".2"/><rect x="8" y="11" width="6" height="6" rx=".75" ry=".75" fill="#fff"/><rect x="8" y="20" width="6" height="6" rx=".75" ry=".75" opacity=".2"/><rect x="8" y="19" width="6" height="6" rx=".75" ry=".75" fill="#fff"/><rect x="8" y="28" width="6" height="6" rx=".75" ry=".75" opacity=".2"/><rect x="8" y="27" width="6" height="6" rx=".75" ry=".75" fill="#fff"/><rect x="8" y="35" width="6" height="6" rx=".75" ry=".75" fill="#fff"/></g></svg>