<svg width="96" height="96" version="1.1" viewBox="0 0 96 96" xmlns="http://www.w3.org/2000/svg"><defs><filter id="a" color-interpolation-filters="sRGB"><feFlood flood-color="#000" flood-opacity=".196" result="flood"/><feComposite in="flood" in2="SourceGraphic" operator="in" result="composite1"/><feGaussianBlur in="composite1" result="blur" stdDeviation="1"/><feOffset dx="0" dy="1" result="offset"/><feComposite in="SourceGraphic" in2="offset" result="composite2"/></filter></defs><title>deepin-calculator</title><g transform="translate(8.982 6.544) scale(1.2193)" filter="url(#a)"><rect x="4" y="9" width="56" height="48" rx="3" ry="3" opacity=".2"/><rect x="4" y="8" width="56" height="48" rx="3" ry="3" fill="#4ab3e4"/><path d="M7 8c-1.662 0-3 1.338-3 3v1c0-1.662 1.338-3 3-3h50c1.66 0 3 1.338 3 3v-1c0-1.662-1.34-3-3-3z" fill="#fff" opacity=".2"/><rect x="36" y="14" width="28" height="20" rx="1.2" ry="1.2" opacity=".2"/><rect x="36" y="13" width="28" height="20" rx="1.2" ry="1.2" fill="#ebebeb"/><rect x="18" y="40" width="28" height="20" rx="1.2" ry="1.2" opacity=".2"/><rect x="18" y="39" width="28" height="20" rx="1.2" ry="1.2" fill="#ebebeb"/><rect y="14" width="28" height="20" rx="1.2" ry="1.2" opacity=".2"/><rect y="13" width="28" height="20" rx="1.2" ry="1.2" fill="#ebebeb"/></g></svg>