<svg width="96" height="96" version="1.1" viewBox="0 0 96 96" xmlns="http://www.w3.org/2000/svg"><defs><filter id="a" color-interpolation-filters="sRGB"><feFlood flood-color="#000" flood-opacity=".196" result="flood"/><feComposite in="flood" in2="SourceGraphic" operator="in" result="composite1"/><feGaussianBlur in="composite1" result="blur" stdDeviation="1"/><feOffset dx="0" dy="1" result="offset"/><feComposite in="SourceGraphic" in2="offset" result="composite2"/></filter></defs><title>deepin-calculator</title><g transform="translate(3.348 2.65) scale(1.3954)" filter="url(#a)"><path d="M32 10c-5.54 0-10 4.46-10 10v1c0-5.54 4.46-10 10-10s10 4.46 10 10v-1c0-5.54-4.46-10-10-10zM10 57.199v1c0 1.55 1.25 2.8 2.8 2.8H51.2c1.55 0 2.8-1.25 2.8-2.8v-1c0 1.55-1.25 2.8-2.8 2.8H12.8C11.25 60 10 58.75 10 57.2z" opacity=".2"/><path d="M32 4c-8.864 0-16 7.136-16 16v6h6v-6c0-5.54 4.46-10 10-10s10 4.46 10 10v6h6v-6c0-8.863-7.136-16-16-16z" fill="#d2d2d2"/><rect transform="matrix(0 -1 -1 0 0 0)" x="-60" y="-54" width="33.999" height="44" rx="2.8" ry="2.8" fill="#ffb437"/><path d="M32 4c-8.864 0-16 7.136-16 16v1c0-8.864 7.136-16 16-16s16 7.136 16 16v-1c0-8.864-7.136-16-16-16zM12.801 26c-1.551 0-2.8 1.25-2.8 2.8v1c0-1.55 1.249-2.8 2.8-2.8h38.398c1.55 0 2.8 1.25 2.8 2.8v-1c0-1.55-1.25-2.8-2.8-2.8z" fill="#fff" opacity=".2"/><rect x="10" y="32" width="44" height="20" rx="0" ry="0" fill="#fed96a"/></g></svg>