<svg width="96px" height="96px" version="1.1" viewBox="0 0 96 96" xmlns="http://www.w3.org/2000/svg" xmlns:xlink="http://www.w3.org/1999/xlink">
<title>application-x-gzip</title>
<desc>Created with Sketch.</desc>
<defs>
<path id="path-1" d="m22 10.25c0-1.2426 1.0074-2.25 2.25-2.25h17.5c1.2426 0 2.25 1.0074 2.25 2.25v-8c0-1.2426 1.0074-2.25 2.25-2.25h17.5c1.2426-2.2827e-16 2.25 1.0074 2.25 2.25v73.5c0 1.2426-1.0074 2.25-2.25 2.25h-17.5c-1.2426 0-2.25-1.0074-2.25-2.25 0 1.2426-1.0074 2.25-2.25 2.25h-17.5c-1.2426 0-2.25-1.0074-2.25-2.25 0 1.2426-1.0074 2.25-2.25 2.25h-17.786c-1.0848 0-1.9643-0.98604-1.9643-2.2024l-2.7914e-15 -69.595c0-1.2163 0.87944-2.2024 1.9643-2.2024h17.786c1.2426 0 2.25 1.0074 2.25 2.25v4z"/>
<filter id="filter-2" x="-10.6%" y="-6.4%" width="121.2%" height="117.9%">
<feOffset dx="0" dy="2" in="SourceAlpha" result="shadowOffsetOuter1"/>
<feGaussianBlur in="shadowOffsetOuter1" result="shadowBlurOuter1" stdDeviation="2"/>
<feComposite in="shadowBlurOuter1" in2="SourceAlpha" operator="out" result="shadowBlurOuter1"/>
<feColorMatrix in="shadowBlurOuter1" values="0 0 0 0 0   0 0 0 0 0   0 0 0 0 0  0 0 0 0.2 0"/>
</filter>
<linearGradient id="linearGradient-3" x1="123.64" x2="83.481" y1="20.08" y2="20.08" gradientTransform="matrix(.53108 0 0 1.8829 15 10)" gradientUnits="userSpaceOnUse">
<stop stop-color="#C926EA" offset="0"/>
<stop stop-color="#B505C3" offset="1"/>
</linearGradient>
<linearGradient id="linearGradient-4" x1="78.272" x2="40.812" y1="24.32" y2="24.32" gradientTransform="matrix(.56061 0 0 1.7838 15 10)" gradientUnits="userSpaceOnUse">
<stop stop-color="#628FFF" offset="0"/>
<stop stop-color="#4084FF" offset="1"/>
</linearGradient>
<linearGradient id="linearGradient-5" x1="40.348" x2="2.635" y1="22.355" y2="22.355" gradientTransform="matrix(.54525 0 0 1.834 15 10)" gradientUnits="userSpaceOnUse">
<stop stop-color="#6DBD00" offset="0"/>
<stop stop-color="#8FBF12" offset="1"/>
</linearGradient>
</defs>
<g fill-rule="evenodd">
<g id="Combined-Shape" transform="translate(15,10)" fill="#000000">
<use width="100%" height="100%" filter="url(#filter-2)" xlink:href="#path-1"/>
<use width="100%" height="100%" fill-opacity=".1" fill-rule="evenodd" xlink:href="#path-1"/>
</g>
<path d="m81 12.25v73.5c0 1.2426-1.0074 2.25-2.25 2.25h-17.5c-1.2426 0-2.25-1.0074-2.25-2.25v-73.5c0-1.2426 1.0074-2.25 2.25-2.25h17.5c1.2426 0 2.25 1.0074 2.25 2.25z" fill="url(#linearGradient-3)"/>
<path d="m59 20.25v65.5c0 1.2426-1.0074 2.25-2.25 2.25h-17.5c-1.2426 0-2.25-1.0074-2.25-2.25v-65.5c0-1.2426 1.0074-2.25 2.25-2.25h17.5c1.2426 0 2.25 1.0074 2.25 2.25z" fill="url(#linearGradient-4)"/>
<path d="m37 16.25v69.5c0 1.2426-1.0074 2.25-2.25 2.25h-17.786c-1.0848 0-1.9643-0.98604-1.9643-2.2024v-69.595c0-1.2163 0.87944-2.2024 1.9643-2.2024h17.786c1.2426 0 2.25 1.0074 2.25 2.25z" fill="url(#linearGradient-5)"/>
<path d="m59 20.25v1c0-1.2426-1.0074-2.25-2.25-2.25h-17.5c-1.2426 0-2.25 1.0074-2.25 2.25v-1c0-1.2426 1.0074-2.25 2.25-2.25h17.5c1.2426 0 2.25 1.0074 2.25 2.25zm0-7v-1c0-1.2426 1.0074-2.25 2.25-2.25h17.5c1.2426 0 2.25 1.0074 2.25 2.25v1c0-1.2426-1.0074-2.25-2.25-2.25h-17.5c-1.2426 0-2.25 1.0074-2.25 2.25zm-44 3.9524v-1c0-1.2163 0.87944-2.2024 1.9643-2.2024h17.786c1.2426 0 2.25 1.0074 2.25 2.25v1c0-1.2426-1.0074-2.25-2.25-2.25h-17.786c-1.0848 0-1.9643 0.98604-1.9643 2.2024z" fill="#fff" fill-opacity=".2"/>
<path d="m59 19.25v-7zm22 65.5v1c0 1.2426-1.0074 2.25-2.25 2.25h-17.5c-1.2426 0-2.25-1.0074-2.25-2.25 0 1.2426-1.0074 2.25-2.25 2.25h-17.5c-1.2426 0-2.25-1.0074-2.25-2.25 0 1.2426-1.0074 2.25-2.25 2.25h-17.786c-1.0848 0-1.9643-0.98604-1.9643-2.2024v-1c0 1.2163 0.87944 2.2024 1.9643 2.2024h17.786c1.2426 0 2.25-1.0074 2.25-2.25 0 1.2426 1.0074 2.25 2.25 2.25h17.5c1.2426 0 2.25-1.0074 2.25-2.25 0 1.2426 1.0074 2.25 2.25 2.25h17.5c1.2426 0 2.25-1.0074 2.25-2.25zm-44-68.5v3z" fill-opacity=".2"/>
</g>
</svg>
