<svg width="96" height="96" version="1.1" viewBox="0 0 96 96" xmlns="http://www.w3.org/2000/svg"><defs><filter id="a" color-interpolation-filters="sRGB"><feFlood flood-color="#000" flood-opacity=".196" result="flood"/><feComposite in="flood" in2="SourceGraphic" operator="in" result="composite1"/><feGaussianBlur in="composite1" result="blur" stdDeviation="1"/><feOffset dx="0" dy="1" result="offset"/><feComposite in="SourceGraphic" in2="offset" result="composite2"/></filter></defs><title>deepin-clone</title><g transform="translate(-.032 -.782) scale(1.501)" filter="url(#a)"><path d="M50.003 5.005c-7.825.091-19.898 2.284-23.672 6.816h-.012c-3.01 4.413-3.391 21.681-2.61 20.617 6.41-8.766 21.768-19.594 30.942-23.945 4.953-2.36 1.438-3.559-4.649-3.488zm-29.23 9.863c-1.977.339-9.913 5.853-8.086 15.762l.004.004c1.735 5.062 12.845 11.794 12.461 10.527-3.156-10.449-4.297-17.21-3.945-26.12.006-.166-.151-.221-.434-.173zm21.672 4.438c-5.296.384-14.609 9.474-13.301 9.421 10.833-.376 17.599.247 26.051 2.895 1.254.392-1.354-11.426-12.75-12.316zm-5.73 9.46c-.276.016-.395.092-.301.227 6.19 8.964 9.34 15.032 11.723 23.625.354 1.275 8.786-7.347 3.34-17.476-2.792-3.743-12.794-6.476-14.758-6.375h-.004zM8.032 30.475c-1.02-.135-3.41 11.08 6.109 16.78 4.921 2.023 17.264-1.96 16.066-2.511-9.879-4.488-15.67-8.083-22.086-14.223a.153.153 0 0 0-.09-.047zm31.91 5.476c-.062-.016-.105.014-.125.094-2.743 10.57-5.275 16.93-10.203 24.34-.737 1.093 11.243 1.963 15.344-8.797l.004.004c1.077-4.903-4.102-15.398-5.02-15.641zm-3.012 6.754c-.025-.006-.053-.002-.09.016-9.78 4.714-16.233 6.874-25.039 7.847-1.3.15 5.768 9.94 16.57 6.16l.012-.004c4.555-2.411 9.327-13.823 8.55-14.019h-.003z" opacity=".2"/><path d="M50.001 4.003c-7.825.091-19.898 2.284-23.672 6.816h-.008c-3.011 4.413-3.395 21.681-2.613 20.617 6.409-8.766 21.77-19.594 30.943-23.945 4.953-2.36 1.436-3.56-4.65-3.488zm-7.556 14.3c-5.296.385-14.612 9.475-13.303 9.423 10.833-.376 17.6.248 26.051 2.896 1.254.392-1.35-11.428-12.747-12.318zm-5.73 9.464c-.278.015-.394.089-.3.225 6.19 8.963 9.336 15.034 11.719 23.627.354 1.274 8.788-7.348 3.342-17.477-2.793-3.745-12.803-6.478-14.76-6.375zm3.224 7.183c-.062-.016-.105.014-.125.093-2.742 10.57-5.274 16.933-10.203 24.341-.737 1.094 11.246 1.961 15.346-8.799l.003.006c1.077-4.903-4.103-15.4-5.021-15.642zm-3.009 6.754c-.025-.006-.055-.001-.092.017-9.78 4.714-16.232 6.874-25.038 7.847-1.3.15 5.767 9.937 16.57 6.158l.01-.003c4.556-2.412 9.328-13.822 8.551-14.02z" fill="#37a0f2"/><path d="M20.771 13.868c-1.977.339-9.911 5.852-8.084 15.761l.003.005c1.734 5.063 12.847 11.791 12.462 10.524-3.156-10.449-4.296-17.208-3.944-26.118.006-.165-.155-.22-.437-.172zM8.029 29.472c-1.019-.135-3.406 11.082 6.112 16.783 4.921 2.022 17.262-1.962 16.064-2.513-9.88-4.488-15.67-8.081-22.084-14.22a.163.163 0 0 0-.092-.05z" fill="#4f4f4f"/><path d="M50.002 4.002c-7.825.091-19.898 2.286-23.672 6.818h-.008c-2.305 3.378-3.067 14.261-2.949 18.717-.001-4.893.793-14.56 2.95-17.719h.007c3.774-4.532 15.847-6.725 23.672-6.816 3.41-.04 6.01.32 6.77 1.059 1.073-1.408-2.074-2.112-6.77-2.057zm-7.557 14.301c-5.296.384-14.61 9.476-13.303 9.424.158-.006.296-.007.452-.012 1.965-2.361 8.658-8.108 12.852-8.412 9.002.703 12.507 8.208 12.969 11.145.518-1.38-2.536-11.329-12.97-12.145zm-5.58 10.354c.03.044.056.087.086.13 2.318.048 11.808 2.711 14.525 6.354 1.197 2.226 1.721 4.379 1.81 6.37.063-2.264-.41-4.765-1.81-7.37-1.649-2.21-5.8-4.047-9.338-5.177a75.927 75.927 0 0 0-5.273-.307zm3.074 6.293c-.06-.016-.104.014-.125.094-2.742 10.57-5.274 16.933-10.203 24.342-.1.15.055.292.38.404 4.67-7.156 7.156-13.463 9.824-23.746.02-.08.063-.11.125-.094.803.212 4.87 8.274 5.152 13.57.26-5.209-4.296-14.345-5.152-14.57zm-3.01 6.754c-.024-.006-.054 0-.091.017-9.78 4.715-16.231 6.875-25.037 7.848-.248.029-.189.411.14.98 8.733-.98 15.17-3.139 24.897-7.827.007-.004.012-.002.019-.004.166-.596.208-.98.074-1.014z" fill="#fff" opacity=".2"/><path d="M20.771 13.869c-1.793.307-8.46 4.882-8.328 13.119.39-7.612 6.608-11.827 8.328-12.121v.002c.236-.04.38-.004.42.104.009-.314.005-.613.018-.932.006-.165-.156-.22-.438-.172zm.387 3.834c-.036 7.41 1.102 13.689 3.742 22.584.184.03.292.002.252-.129-2.71-8.97-3.925-15.228-3.994-22.455zm-13.13 11.77c-.428-.057-1.092 1.91-1.015 4.621.085-2.18.641-3.67 1.016-3.621.033.004.062.02.092.049 6.249 5.98 11.935 9.55 21.355 13.879.659-.304.965-.55.728-.658a144.088 144.088 0 0 1-5.103-2.444c-.34.133-2.146-.82-4.27-2.265-4.79-2.731-8.629-5.606-12.711-9.512a.161.161 0 0 0-.092-.049z" fill="#fff" opacity=".1"/></g></svg>