<svg width="96" height="96" version="1.1" viewBox="0 0 96 96" xmlns="http://www.w3.org/2000/svg" xmlns:xlink="http://www.w3.org/1999/xlink">
<defs>
<filter id="a" color-interpolation-filters="sRGB">
<feFlood flood-opacity=".196" result="flood"/>
<feComposite in="flood" in2="SourceGraphic" operator="in" result="composite1"/>
<feGaussianBlur in="composite1" result="blur" stdDeviation="1"/>
<feOffset dx="0" dy="1" result="offset"/>
<feComposite in="SourceGraphic" in2="offset" result="composite2"/>
</filter>
<linearGradient id="linearGradient909" x1="-1.6" x2="65.6" y1="32" y2="32" gradientTransform="matrix(.56061 0 0 1.7838 15 10)" gradientUnits="userSpaceOnUse">
<stop stop-color="#628FFF" offset="0"/>
<stop stop-color="#4084FF" offset="1"/>
</linearGradient>
</defs>
<title>deepin-clone</title>
<path transform="matrix(1.5011 0 0 1.5011 -.035 -.786)" d="M 59.958,31.828 A 28,28 0 0 1 32,59 28,28 0 0 1 4.044,32.172 28,28 0 0 0 4,33 28,28 0 0 0 32,61 28,28 0 0 0 60,33 28,28 0 0 0 59.958,31.828 Z" filter="url(#a)" opacity=".2"/>
<circle transform="matrix(1.5011 0 0 1.5011 -.035 -.786)" cx="32" cy="32" r="28" fill="url(#linearGradient909)" filter="url(#a)"/>
<path transform="matrix(1.5011 0 0 1.5011 -.035 -.786)" d="m50 33a18 18 0 0 0-18-18 18 18 0 0 0-18 18 18 18 0 0 0 18 18 18 18 0 0 0 18-18zm-4 0a14 14 0 0 1-14 14 14 14 0 0 1-14-14 14 14 0 0 1 14-14 14 14 0 0 1 14 14zm-6 0c0-1.108-0.892-2-2-2h-12c-1.108 0-2 0.892-2 2s0.892 2 2 2h12c1.108 0 2-0.892 2-2z" filter="url(#a)" opacity=".2"/>
<path transform="matrix(1.5011 0 0 1.5011 -.035 -.786)" d="m50 32a18 18 0 0 0-18-18 18 18 0 0 0-18 18 18 18 0 0 0 18 18 18 18 0 0 0 18-18zm-4 0a14 14 0 0 1-14 14 14 14 0 0 1-14-14 14 14 0 0 1 14-14 14 14 0 0 1 14 14zm-6 0c0-1.108-0.892-2-2-2h-12c-1.108 0-2 0.892-2 2s0.892 2 2 2h12c1.108 0 2-0.892 2-2z" fill="#fff" filter="url(#a)"/>
<path transform="matrix(1.5011 0 0 1.5011 -.035 -.786)" d="M 31.998,4 A 28,28 0 0 0 4,32 28,28 0 0 0 4.018,32.492 28,28 0 0 1 31.998,5 H 32 A 28,28 0 0 1 59.973,32.5 28,28 0 0 0 59.998,32 28,28 0 0 0 32,4 Z" fill="#fff" filter="url(#a)" opacity=".2"/>
</svg>
