<svg width="96" height="96" version="1.1" viewBox="0 0 96 96" xmlns="http://www.w3.org/2000/svg"><defs><filter id="a" color-interpolation-filters="sRGB"><feFlood flood-color="#000" flood-opacity=".196" result="flood"/><feComposite in="flood" in2="SourceGraphic" operator="in" result="composite1"/><feGaussianBlur in="composite1" result="blur" stdDeviation="1"/><feOffset dx="0" dy="1" result="offset"/><feComposite in="SourceGraphic" in2="offset" result="composite2"/></filter></defs><title>deepin-clone</title><g transform="translate(1.621 .896) scale(1.4493)" filter="url(#a)"><path d="M32.168 7a26.017 26.017 0 0 0-10.137 2.01A25.922 25.922 0 0 0 8.01 42.97a25.92 25.92 0 0 0 33.959 14.022A25.921 25.921 0 0 0 55.99 23.03 25.922 25.922 0 0 0 32.168 7zM32 19a14 14 0 0 1 14 14 14 14 0 0 1-14 14 14 14 0 0 1-14-14 14 14 0 0 1 14-14z" opacity=".2"/><path d="M32.168 6a26.017 26.017 0 0 0-10.137 2.01A25.922 25.922 0 0 0 8.01 41.97a25.92 25.92 0 0 0 33.959 14.022A25.921 25.921 0 0 0 55.99 22.03 25.922 25.922 0 0 0 32.168 6zM32 18a14 14 0 0 1 14 14 14 14 0 0 1-14 14 14 14 0 0 1-14-14 14 14 0 0 1 14-14z" fill="#e4e4e4"/><path d="M32.168 6a26.017 26.017 0 0 0-10.137 2.01A25.917 25.917 0 0 0 6.013 32.448a25.915 25.915 0 0 1 16.018-23.44A26.015 26.015 0 0 1 32.168 7 25.922 25.922 0 0 1 55.99 23.03a26.028 26.028 0 0 1 1.996 9.525c.07-3.499-.562-7.073-1.996-10.523a25.922 25.922 0 0 0-23.822-16.03zm13.811 26.412A14 14 0 0 1 32 46a14 14 0 0 1-13.979-13.414 14 14 0 0 0-.021.412 14 14 0 0 0 14 14 14 14 0 0 0 14-14 14 14 0 0 0-.022-.586z" fill="#fff" opacity=".2"/><path d="M32.167 4a26.429 26.429 0 0 0-9.653 1.789 2.425 2.448 0 0 0-1.403 3.158l4.308 11.417a2.425 2.448 0 0 0 3.128 1.419 9.63 9.63 0 0 1 3.45-.645 9.606 9.606 0 0 1 3.442.653 2.425 2.448 0 0 0 3.134-1.414l4.315-11.433a2.425 2.448 0 0 0-1.405-3.16C38.543 4.652 35.395 4.016 32.167 4zM7.062 21.952a2.448 2.425 0 0 0-2.274 1.562A26.428 26.428 0 0 0 3 33.167c.017 3.228.652 6.375 1.783 9.316a2.448 2.425 0 0 0 3.16 1.405l11.434-4.313a2.448 2.425 0 0 0 1.413-3.136 9.606 9.606 0 0 1-.653-3.442 9.63 9.63 0 0 1 .645-3.45 2.448 2.425 0 0 0-1.419-3.128L7.946 22.11a2.448 2.425 0 0 0-.884-.159zm49.876 0a2.448 2.425 0 0 0-.885.16l-11.417 4.307a2.448 2.425 0 0 0-1.418 3.128 9.63 9.63 0 0 1 .644 3.45 9.606 9.606 0 0 1-.652 3.442 2.448 2.425 0 0 0 1.413 3.136l11.433 4.313a2.448 2.425 0 0 0 3.16-1.405c1.132-2.94 1.767-6.088 1.784-9.316a26.429 26.429 0 0 0-1.789-9.653 2.448 2.425 0 0 0-2.273-1.562zM36.388 44.05a2.425 2.448 0 0 0-.95.16 9.606 9.606 0 0 1-3.441.652 9.63 9.63 0 0 1-3.45-.644 2.425 2.448 0 0 0-3.128 1.418L21.11 57.053a2.425 2.448 0 0 0 1.403 3.159A26.428 26.428 0 0 0 32.167 62c3.228-.017 6.375-.652 9.316-1.783a2.425 2.448 0 0 0 1.405-3.161l-4.315-11.433a2.425 2.448 0 0 0-2.185-1.572z" opacity=".2"/><path d="M32.167 3a26.429 26.429 0 0 0-9.653 1.789 2.425 2.448 0 0 0-1.403 3.158l4.308 11.417a2.425 2.448 0 0 0 3.128 1.419 9.63 9.63 0 0 1 3.45-.645 9.606 9.606 0 0 1 3.442.653 2.425 2.448 0 0 0 3.134-1.414l4.315-11.433a2.425 2.448 0 0 0-1.405-3.16C38.543 3.652 35.395 3.016 32.167 3zM7.062 20.952a2.448 2.425 0 0 0-2.274 1.562A26.428 26.428 0 0 0 3 32.167c.017 3.228.652 6.375 1.783 9.316a2.448 2.425 0 0 0 3.16 1.405l11.434-4.313a2.448 2.425 0 0 0 1.413-3.136 9.606 9.606 0 0 1-.653-3.442 9.63 9.63 0 0 1 .645-3.45 2.448 2.425 0 0 0-1.419-3.128L7.946 21.11a2.448 2.425 0 0 0-.884-.159zm49.876 0a2.448 2.425 0 0 0-.885.16l-11.417 4.307a2.448 2.425 0 0 0-1.418 3.128 9.63 9.63 0 0 1 .644 3.45 9.606 9.606 0 0 1-.652 3.442 2.448 2.425 0 0 0 1.413 3.136l11.433 4.313a2.448 2.425 0 0 0 3.16-1.405c1.132-2.94 1.767-6.088 1.784-9.316a26.429 26.429 0 0 0-1.789-9.653 2.448 2.425 0 0 0-2.273-1.562zM36.388 43.05a2.425 2.448 0 0 0-.95.16 9.606 9.606 0 0 1-3.441.652 9.63 9.63 0 0 1-3.45-.644 2.425 2.448 0 0 0-3.128 1.418L21.11 56.053a2.425 2.448 0 0 0 1.403 3.159A26.428 26.428 0 0 0 32.167 61c3.228-.017 6.375-.652 9.316-1.783a2.425 2.448 0 0 0 1.405-3.161l-4.315-11.433a2.425 2.448 0 0 0-2.185-1.572z" fill="#e74c3c"/></g></svg>