<svg width="96" height="96" version="1.1" viewBox="0 0 96 96" xmlns="http://www.w3.org/2000/svg"><defs><filter id="a" color-interpolation-filters="sRGB"><feFlood flood-color="#000" flood-opacity=".196" result="flood"/><feComposite in="flood" in2="SourceGraphic" operator="in" result="composite1"/><feGaussianBlur in="composite1" result="blur" stdDeviation="1"/><feOffset dx="0" dy="1" result="offset"/><feComposite in="SourceGraphic" in2="offset" result="composite2"/></filter></defs><title>deepin-clone</title><g transform="translate(-.035 -.786) scale(1.5011)" filter="url(#a)"><path d="M59.958 31.828A28 28 0 0 1 32 59 28 28 0 0 1 4.044 32.172 28 28 0 0 0 4 33a28 28 0 0 0 28 28 28 28 0 0 0 28-28 28 28 0 0 0-.042-1.172z" opacity=".2"/><circle cx="32" cy="32" r="28" fill="#eac046"/><path d="M28 9v6.469a18 18 0 0 0-14 17.53c0 9.942 8.059 18 18 18 9.159-.01 16.85-6.897 17.867-16 0 0 .133-2-1.867-2s-2.16 2-2.16 2A14 14 0 0 1 32 47c-7.732 0-14-6.267-14-14a14 14 0 0 1 10-13.401V25l8-8z" opacity=".2"/><path d="M28 8v6.469a18 18 0 0 0-14 17.53c0 9.942 8.059 18 18 18 9.159-.01 16.85-6.897 17.867-16 0 0 .133-2-1.867-2s-2.16 2-2.16 2A14 14 0 0 1 32 46c-7.732 0-14-6.267-14-14a14 14 0 0 1 10-13.401V24l8-8z" fill="#fff"/><path d="M31.998 4A28 28 0 0 0 4 32a28 28 0 0 0 .018.492A28 28 0 0 1 31.998 5H32a28 28 0 0 1 27.973 27.5 28 28 0 0 0 .025-.5A28 28 0 0 0 32 4z" fill="#fff" opacity=".2"/></g></svg>