<svg width="96" height="96" version="1.1" viewBox="0 0 96 96" xmlns="http://www.w3.org/2000/svg" xmlns:xlink="http://www.w3.org/1999/xlink">
<defs>
<filter id="a" color-interpolation-filters="sRGB">
<feFlood flood-opacity=".196" result="flood"/>
<feComposite in="flood" in2="SourceGraphic" operator="in" result="composite1"/>
<feGaussianBlur in="composite1" result="blur" stdDeviation="1"/>
<feOffset dx="0" dy="1" result="offset"/>
<feComposite in="SourceGraphic" in2="offset" result="composite2"/>
</filter>
<linearGradient id="linearGradient909" x1="-1.6" x2="65.6" y1="32" y2="32" gradientTransform="matrix(.53108 0 0 1.8829 15 10)" gradientUnits="userSpaceOnUse">
<stop stop-color="#C926EA" offset="0"/>
<stop stop-color="#B505C3" offset="1"/>
</linearGradient>
</defs>
<title>deepin-clone</title>
<path transform="matrix(1.5011 0 0 1.5011 -.035 -.786)" d="M 59.958,31.828 A 28,28 0 0 1 32,59 28,28 0 0 1 4.044,32.172 28,28 0 0 0 4,33 28,28 0 0 0 32,61 28,28 0 0 0 60,33 28,28 0 0 0 59.958,31.828 Z" filter="url(#a)" opacity=".2"/>
<circle transform="matrix(1.5011 0 0 1.5011 -.035 -.786)" cx="32" cy="32" r="28" fill="url(#linearGradient909)" filter="url(#a)"/>
<path transform="matrix(1.5011 0 0 1.5011 -.035 -.786)" d="m32 15c-9.941 0-18 8.059-18 18s8.059 18 18 18 18-8.059 18-18-8.059-18-18-18zm0 4c7.732 0 14 6.268 14 14s-6.268 14-14 14-14-6.268-14-14 6.268-14 14-14zm0 10a4 4 0 0 0-4 4 4 4 0 0 0 4 4 4 4 0 0 0 4-4 4 4 0 0 0-4-4z" filter="url(#a)" opacity=".2"/>
<path transform="matrix(1.5011 0 0 1.5011 -.035 -.786)" d="m32 14c-9.941 0-18 8.059-18 18s8.059 18 18 18 18-8.059 18-18-8.059-18-18-18zm0 4c7.732 0 14 6.268 14 14s-6.268 14-14 14-14-6.268-14-14 6.268-14 14-14zm0 10a4 4 0 0 0-4 4 4 4 0 0 0 4 4 4 4 0 0 0 4-4 4 4 0 0 0-4-4z" fill="#fff" filter="url(#a)"/>
<path transform="matrix(1.5011 0 0 1.5011 -.035 -.786)" d="M 31.998,4 A 28,28 0 0 0 4,32 28,28 0 0 0 4.018,32.492 28,28 0 0 1 31.998,5 H 32 A 28,28 0 0 1 59.973,32.5 28,28 0 0 0 59.998,32 28,28 0 0 0 32,4 Z" fill="#fff" filter="url(#a)" opacity=".2"/>
</svg>
