<svg width="128" height="128" version="1.1" viewBox="0 0 128 128" xmlns="http://www.w3.org/2000/svg"><title>wps-office-etmain</title><defs><linearGradient id="b" x1="57" x2="57" y1="4" y2="106" gradientTransform="translate(7 9)" gradientUnits="userSpaceOnUse"><stop stop-color="#92CF00" offset="0"/><stop stop-color="#57AC00" offset="1"/></linearGradient><linearGradient id="c" x1="37.421" x2="12.171" y1="41.79" y2="41.79" gradientTransform="matrix(1.3094 0 0 .7637 32 32)" gradientUnits="userSpaceOnUse"><stop stop-color="#F5F5F5" offset="0"/><stop stop-color="#A1E37D" offset="1"/></linearGradient><filter id="a" color-interpolation-filters="sRGB"><feFlood flood-color="#000" flood-opacity=".196" result="flood"/><feComposite in="flood" in2="SourceGraphic" operator="in" result="composite1"/><feGaussianBlur in="composite1" result="blur" stdDeviation="1"/><feOffset dx="0" dy="1" result="offset"/><feComposite in="SourceGraphic" in2="offset" result="composite2"/></filter></defs><g filter="url(#a)"><g fill-rule="evenodd"><path d="M15.667 13h80.319c.653 0 1.284.24 1.772.674l16.347 14.53c.569.507.895 1.232.895 1.994v82.136a2.667 2.667 0 0 1-2.667 2.666H15.666a2.667 2.667 0 0 1-2.667-2.666V15.667A2.667 2.667 0 0 1 15.666 13z" fill="url(#b)"/><path d="M115 71.214V29.095c0-.805-.363-1.566-.989-2.073L97.424 13.594A2.667 2.667 0 0 0 95.746 13h-80.08A2.667 2.667 0 0 0 13 15.667V64.5 16.667A2.667 2.667 0 0 1 15.666 14h80.08c.611 0 1.203.21 1.678.594l16.587 13.428c.626.507.989 1.268.989 2.073z" fill="#9af300"/><path d="M115 70.714v42.119a2.667 2.667 0 0 1-2.667 2.667H15.666A2.667 2.667 0 0 1 13 112.833V64v47.833a2.667 2.667 0 0 0 2.666 2.667h96.667a2.667 2.667 0 0 0 2.667-2.667z" fill="#4b9000"/></g><path d="M82 57h11.34A2.66 2.66 0 0 1 96 59.66v33.68A2.66 2.66 0 0 1 93.34 96H34.66A2.66 2.66 0 0 1 32 93.34v-9.68A2.66 2.66 0 0 1 34.66 81h43.68A2.66 2.66 0 0 0 81 78.34v-5.759A2.649 2.649 0 0 0 79.34 72H47v1.5V55h.083c.293 1.15 1.336 2 2.577 2H82v-1zm-35-6.34V72H34.66A2.66 2.66 0 0 1 32 69.34V35.66A2.66 2.66 0 0 1 34.66 33h58.68A2.66 2.66 0 0 1 96 35.66v9.68A2.66 2.66 0 0 1 93.34 48H49.66A2.66 2.66 0 0 0 47 50.66z" fill="#58aa00"/><path d="M47 71V54h.083c.293 1.15 1.336 2 2.577 2H81v-1 18.83-.17A2.66 2.66 0 0 0 78.34 71z" fill="url(#c)"/><path d="M93.34 95H34.66A2.66 2.66 0 0 1 32 92.34v-9.68A2.66 2.66 0 0 1 34.66 80h43.68A2.66 2.66 0 0 0 81 77.34V56h12.34A2.66 2.66 0 0 1 96 58.66v33.68A2.66 2.66 0 0 1 93.34 95zM47 49.66V71H34.66A2.66 2.66 0 0 1 32 68.34V34.66A2.66 2.66 0 0 1 34.66 32h58.68A2.66 2.66 0 0 1 96 34.66v9.68A2.66 2.66 0 0 1 93.34 47H49.66A2.66 2.66 0 0 0 47 49.66z" fill="#fff"/><path d="M93.34 95H34.66A2.66 2.66 0 0 1 32 92.34v-8.68A2.66 2.66 0 0 1 34.66 81h43.68A2.66 2.66 0 0 0 81 78.34V57h12.34A2.66 2.66 0 0 1 96 59.66v32.68A2.66 2.66 0 0 1 93.34 95zM47 49.66V71H34.66A2.66 2.66 0 0 1 32 68.34V35.66A2.66 2.66 0 0 1 34.66 33h58.68A2.66 2.66 0 0 1 96 35.66v8.68A2.66 2.66 0 0 1 93.34 47H49.66A2.66 2.66 0 0 0 47 49.66z" fill="#f7ffed"/></g></svg>