<svg width="128" height="128" version="1.1" viewBox="0 0 128 128" xmlns="http://www.w3.org/2000/svg"><title>wps-office-wpsmain</title><defs><linearGradient id="b" x1="57.001" x2="57.001" y1="4.355" y2="103.33" gradientTransform="translate(7 9)" gradientUnits="userSpaceOnUse"><stop stop-color="#535CFF" offset="0"/><stop stop-color="#3F4CFF" offset="1"/></linearGradient><linearGradient id="c" x1="25.986" x2="25.986" y1="30.335" y2="75.066" gradientTransform="matrix(1.2297 0 0 .8132 32 32)" gradientUnits="userSpaceOnUse"><stop stop-color="#A2BAFF" offset="0"/><stop stop-color="#93BDFF" offset="1"/></linearGradient><filter id="a" color-interpolation-filters="sRGB"><feFlood flood-color="#000" flood-opacity=".196" result="flood"/><feComposite in="flood" in2="SourceGraphic" operator="in" result="composite1"/><feGaussianBlur in="composite1" result="blur" stdDeviation="1"/><feOffset dx="0" dy="1" result="offset"/><feComposite in="SourceGraphic" in2="offset" result="composite2"/></filter></defs><g filter="url(#a)"><g fill-rule="evenodd"><path d="M15.667 13h80.319c.653 0 1.284.24 1.772.674l16.347 14.53c.569.507.895 1.232.895 1.994v82.136a2.667 2.667 0 0 1-2.667 2.666H15.666a2.667 2.667 0 0 1-2.667-2.666V15.667A2.667 2.667 0 0 1 15.666 13z" fill="url(#b)"/><path d="M115 71.214V29.095c0-.805-.363-1.566-.989-2.073L97.424 13.594A2.667 2.667 0 0 0 95.746 13h-80.08A2.667 2.667 0 0 0 13 15.667V64.5 16.667A2.667 2.667 0 0 1 15.666 14h80.08c.611 0 1.203.21 1.678.594l16.587 13.428c.626.507.989 1.268.989 2.073z" fill="#858fff"/><path d="M115 70.714v42.119a2.667 2.667 0 0 1-2.667 2.667H15.666A2.667 2.667 0 0 1 13 112.833V64v47.833a2.667 2.667 0 0 0 2.666 2.667h96.667a2.667 2.667 0 0 0 2.667-2.667z" fill="#3e23ff"/></g><path d="M80 95.402l-.021.017L65.84 81.281a2.667 2.667 0 0 0-3.772 0L48 95.35v.317H34.667a2.667 2.667 0 0 1-2.666-2.666V35.334a2.667 2.667 0 0 1 2.666-2.667h10.667a2.667 2.667 0 0 1 2.667 2.667v36.288l14.07-14.07a2.667 2.667 0 0 1 3.77 0l14.16 14.16V35.335a2.667 2.667 0 0 1 2.667-2.667h10.667a2.667 2.667 0 0 1 2.667 2.667V93a2.667 2.667 0 0 1-2.667 2.666H80.002z" fill="#482fff"/><path d="M62.069 56.552L34.733 83.888 47.93 94.419l14.138-14.138a2.667 2.667 0 0 1 3.771 0l14.138 14.138 13.197-10.531-27.336-27.336a2.667 2.667 0 0 0-3.771 0z" fill="url(#c)"/><path d="M34.667 32.667h10.667a2.667 2.667 0 0 1 2.667 2.667v59.333H34.668A2.667 2.667 0 0 1 32 92V35.333a2.667 2.667 0 0 1 2.667-2.667zm48 0h10.667a2.667 2.667 0 0 1 2.667 2.667V92a2.667 2.667 0 0 1-2.667 2.666H80.001V35.334a2.667 2.667 0 0 1 2.667-2.666z" fill="#fff"/><path d="M34.667 33.667h10.667a2.667 2.667 0 0 1 2.667 2.667v58.333H34.668A2.667 2.667 0 0 1 32 92V36.333a2.667 2.667 0 0 1 2.667-2.667zm48 0h10.667a2.667 2.667 0 0 1 2.667 2.667V92a2.667 2.667 0 0 1-2.667 2.666H80.001V36.334a2.667 2.667 0 0 1 2.667-2.666z" fill="#ebf1ff"/></g></svg>