<svg width="128" height="128" version="1.1" viewBox="0 0 128 128" xmlns="http://www.w3.org/2000/svg"><title>wps-office-wppmain</title><defs><linearGradient id="b" x1="57" x2="57" y1="4" y2="106" gradientTransform="translate(7 9)" gradientUnits="userSpaceOnUse"><stop stop-color="#FF8767" offset="0"/><stop stop-color="#FF6134" offset="1"/></linearGradient><linearGradient id="c" x1="35.107" x2="11.998" y1="48.009" y2="48.009" gradientTransform="matrix(1.3587 0 0 .73598 32 31)" gradientUnits="userSpaceOnUse"><stop stop-color="#FFD6C2" offset="0"/><stop stop-color="#FFC4B1" offset="1"/></linearGradient><filter id="a" color-interpolation-filters="sRGB"><feFlood flood-color="#000" flood-opacity=".196" result="flood"/><feComposite in="flood" in2="SourceGraphic" operator="in" result="composite1"/><feGaussianBlur in="composite1" result="blur" stdDeviation="1"/><feOffset dx="0" dy="1" result="offset"/><feComposite in="SourceGraphic" in2="offset" result="composite2"/></filter></defs><g filter="url(#a)"><g fill-rule="evenodd"><path d="M15.667 13h80.319c.653 0 1.284.24 1.772.674l16.347 14.53c.569.507.895 1.232.895 1.994v82.136a2.667 2.667 0 0 1-2.667 2.666H15.666a2.667 2.667 0 0 1-2.667-2.666V15.667A2.667 2.667 0 0 1 15.666 13z" fill="url(#b)"/><path d="M115 71.214V29.095c0-.805-.363-1.566-.989-2.073L97.424 13.594A2.667 2.667 0 0 0 95.746 13h-80.08A2.667 2.667 0 0 0 13 15.667V64.5 16.667A2.667 2.667 0 0 1 15.666 14h80.08c.611 0 1.203.21 1.678.594l16.587 13.428c.626.507.989 1.268.989 2.073z" fill="#ffa187"/><path d="M115 70.714v42.119a2.667 2.667 0 0 1-2.667 2.667H15.666A2.667 2.667 0 0 1 13 112.833V64v47.833a2.667 2.667 0 0 0 2.666 2.667h96.667a2.667 2.667 0 0 0 2.667-2.667z" fill="#f53600"/></g><path d="M48 67.333V76h32V60v2H50.667A2.667 2.667 0 0 1 48 59.333v-8.667A2.667 2.667 0 0 1 50.667 48h26.667a2.667 2.667 0 0 1 2.667 2.666V76h13.333A2.667 2.667 0 0 0 96 73.333V36.664A2.667 2.667 0 0 0 93.334 34H34.667A2.667 2.667 0 0 0 32 36.665v56.667A2.667 2.667 0 0 0 34.667 96h10.667A2.667 2.667 0 0 0 48 93.333z" fill="#f53600"/><path d="M80 59v16H48V57.667v.667A2.667 2.667 0 0 0 50.667 61H80z" fill="url(#c)"/><path d="M77.333 47H50.666a2.667 2.667 0 0 0-2.667 2.667v42.667A2.667 2.667 0 0 1 45.333 95H34.666a2.667 2.667 0 0 1-2.667-2.666V33.667A2.667 2.667 0 0 1 34.666 31h58.667a2.667 2.667 0 0 1 2.666 2.667v38.667A2.667 2.667 0 0 1 93.333 75H80V49.667a2.667 2.667 0 0 0-2.667-2.666z" fill="#fff"/><path d="M77.333 47H50.666a2.667 2.667 0 0 0-2.667 2.667v42.667A2.667 2.667 0 0 1 45.333 95H34.666a2.667 2.667 0 0 1-2.667-2.666V34.667A2.667 2.667 0 0 1 34.666 32h58.667a2.667 2.667 0 0 1 2.666 2.667v37.667A2.667 2.667 0 0 1 93.333 75H80V49.667a2.667 2.667 0 0 0-2.667-2.666z" fill="#fff0ec"/></g></svg>