<svg width="96" height="96" version="1.1" viewBox="0 0 96 96" xmlns="http://www.w3.org/2000/svg">
<defs>
<filter id="a" color-interpolation-filters="sRGB">
<feFlood flood-opacity=".196" result="flood"/>
<feComposite in="flood" in2="SourceGraphic" operator="in" result="composite1"/>
<feGaussianBlur in="composite1" result="blur" stdDeviation="1"/>
<feOffset dx="0" dy="1" result="offset"/>
<feComposite in="SourceGraphic" in2="offset" result="composite2"/>
</filter>
</defs>
<title>deepin-calculator</title>
<path d="M14.648-6.898a3.886 3.886 0 0 0-3.9 3.89v1.345a3.886 3.886 0 0 1 3.9-3.89h70.237c2.162 0 3.9 1.736 3.9 3.89V-3.01a3.886 3.886 0 0 0-3.9-3.889z" fill="#fff" opacity=".1" stroke-width="1.345"/>
<rect transform="matrix(0,-1.3935,-1.3935,0,3.408,2.711)" x="-60" y="-60" width="56" height="56" rx="3" ry="3" fill="#f5b923" filter="url(#a)"/>
<path transform="matrix(1.3935,0,0,1.3935,3.408,2.711)" d="m7 4c-1.662 0-3 1.338-3 3v1c0-1.662 1.338-3 3-3h50c1.662 0 3 1.338 3 3v-1c0-1.662-1.338-3-3-3z" fill="#fff" filter="url(#a)" opacity=".2"/>
<path transform="matrix(1.3935,0,0,1.3935,3.408,2.711)" d="m15 16c-1.662 0-3 1.338-3 3v30c0 1.662 1.338 3 3 3s3-1.338 3-3v-30c0-1.662-1.338-3-3-3zm16 0c-1.662 0-3 1.338-3 3v30c0 1.662 1.338 3 3 3s3-1.338 3-3v-30c0-1.662-1.338-3-3-3zm16 0c-1.662 0-3 1.338-3 3v30c0 1.662 1.338 3 3 3s3-1.338 3-3v-30c0-1.662-1.338-3-3-3z" filter="url(#a)" opacity=".3"/>
<path transform="matrix(1.3935,0,0,1.3935,3.408,2.711)" d="m4 57v1c0 1.662 1.338 3 3 3h50c1.662 0 3-1.338 3-3v-1c0 1.662-1.338 3-3 3h-50c-1.662 0-3-1.338-3-3z" filter="url(#a)" opacity=".2"/>
<path transform="matrix(1.3935,0,0,1.3935,3.408,2.711)" d="m12 29v20c0 1.662 1.338 3 3 3s3-1.338 3-3v-20zm32 2v18c0 1.662 1.338 3 3 3s3-1.338 3-3v-18zm-16 10v8c0 1.662 1.338 3 3 3s3-1.338 3-3v-8z" fill="#4f4f4f" filter="url(#a)"/>
<path transform="matrix(1.3935,0,0,1.3935,3.408,2.711)" d="m15 24a6 6 0 1 0 0 12 6 6 0 0 0 0-12zm32 3a6 6 0 1 0 0 12 6 6 0 0 0 0-12zm-16 7a6 6 0 1 0 0 12 6 6 0 0 0 0-12z" filter="url(#a)" opacity=".2"/>
<path transform="matrix(1.3935,0,0,1.3935,3.408,2.711)" d="m15 23a6 6 0 1 0 0 12 6 6 0 0 0 0-12zm32 3a6 6 0 1 0 0 12 6 6 0 0 0 0-12zm-16 7a6 6 0 1 0 0 12 6 6 0 0 0 0-12z" fill="#fff" filter="url(#a)"/>
</svg>
