<svg width="128" height="128" version="1.1" viewBox="0 0 128 128" xmlns="http://www.w3.org/2000/svg">
<title>deepin-sound-recorder</title>
<defs>
<filter id="filter876" x="-.046286" y="-.029455" width="1.0926" height="1.0589" color-interpolation-filters="sRGB">
<feGaussianBlur stdDeviation="1.35"/>
</filter>
</defs>
<path d="m65 9c-12.339 0-22.273 9.8122-22.273 22v9.4277h19.092v3.1426h-19.092v3.1445h19.092v3.1426h-19.092v3.1426h19.092v3.1426h-31.818v15.768c0 19.765 15.366 32.859 31.818 34.369v6.4355h-19.092v6.2852h44.547v-6.2852h-19.092v-6.4102c16.452-1.2573 31.818-12.332 31.818-34.395v-15.768h-31.818v-3.1426h19.092v-3.1426h-19.092v-3.1426h19.092v-3.1445h-19.092v-3.1426h19.092v-9.4277c0-12.188-9.9343-22-22.273-22zm0 12.57a4.7727 4.7142 0 0 1 4.7734 4.7148 4.7727 4.7142 0 0 1-4.7734 4.7148 4.7727 4.7142 0 0 1-4.7734-4.7148 4.7727 4.7142 0 0 1 4.7734-4.7148zm-28.637 34.596h6.3633v15.691c0 12.188 9.9343 22 22.273 22 12.339 0 22.273-9.8122 22.273-22v-15.691h6.3633v15.744c0 18.751-14.223 28.211-28.637 28.211s-28.637-12.6-28.637-28.211z" fill="#b3b3b3" filter="url(#filter876)" stroke-width="3.1624"/>
<g transform="matrix(2.2273 0 0 2.2 -6.274 -6.4)" stroke-width="1.4286">
<path d="m19.143 35.596c0 7.0957 6.3857 12.823 12.857 12.823s12.857-4.3 12.857-12.823v-7.1571h-25.714zm28.571 0c0 10.673-7.8142 15.69-15.714 15.69s-15.714-6.1285-15.714-15.69v-7.1671h31.428v0.72142z" fill="#666"/>
<path d="m32 7c-5.54 0-9.9999 4.46-9.9999 9.9999v4.2857h8.5714v1.4286h-8.5714v1.4286h8.5714v1.4286h-8.5714v1.4286h8.5714v1.4286h-8.5714v7.1428c0 5.54 4.46 9.9999 9.9999 9.9999s9.9999-4.46 9.9999-9.9999v-7.1428h-8.5714v-1.4286h8.5714v-1.4286h-8.5714v-1.4286h8.5714v-1.4286h-8.5714v-1.4286h8.5714v-4.2857c0-5.54-4.46-9.9999-9.9999-9.9999zm0 5.7142a2.1428 2.1428 0 0 1 2.1428 2.1428 2.1428 2.1428 0 0 1-2.1428 2.1428 2.1428 2.1428 0 0 1-2.1428-2.1428 2.1428 2.1428 0 0 1 2.1428-2.1428z" fill="#999" fill-rule="evenodd"/>
<path d="m22 54.143v2.8571h20v-2.8571h-8.5714v-5.7142h-2.8571v5.7142z" fill="#666" fill-rule="evenodd"/>
</g>
</svg>
