<svg width="128" height="128" version="1.1" viewBox="0 0 128 128" xmlns="http://www.w3.org/2000/svg">
<title>计算机-128px</title>
<defs>
<linearGradient id="a" x1="57.111" x2="57.111" y1="20.171" y2="116.55" gradientTransform="scale(1.1206 .89235)" gradientUnits="userSpaceOnUse">
<stop stop-color="#FFF" offset="0"/>
<stop stop-color="#C3D6DE" offset="1"/>
</linearGradient>
<linearGradient id="b" x1="51.016" x2="51.016" y1="35.037" y2="106.63" gradientTransform="scale(1.2545 .79713)" gradientUnits="userSpaceOnUse">
<stop stop-color="#0E004D" offset="0"/>
<stop stop-color="#4735E4" offset="1"/>
</linearGradient>
<filter id="filter951" x="-.045333" y="-.051" width="1.0907" height="1.102" color-interpolation-filters="sRGB">
<feGaussianBlur stdDeviation="2.0400004"/>
</filter>
</defs>
<g fill-rule="evenodd">
<path d="m12.67 19a2.672 2.672 0 0 0-2.6699 2.6758v78.648a2.666 2.666 0 0 0 2.6699 2.6758h102.66a2.672 2.672 0 0 0 2.6699-2.6758v-78.648a2.666 2.666 0 0 0-2.6699-2.6758zm0.24805 85c-1.6163 0-2.918 1.3017-2.918 2.918v5.1641c0 1.6163 1.3017 2.918 2.918 2.918h102.16c1.6163 0 2.918-1.3017 2.918-2.918v-5.1641c0-1.6163-1.3017-2.918-2.918-2.918z" fill="#b3b3b3" filter="url(#filter951)"/>
<path d="m10 20.998a3.001 3.001 0 0 1 3.001-2.998h102a3.005 3.005 0 0 1 3 2.998v80.004a3.001 3.001 0 0 1-3.001 2.998h-102a3.005 3.005 0 0 1-3-2.998z" fill="url(#a)"/>
<path d="m10 21.676a2.672 2.672 0 0 1 2.67-2.676h102.66a2.666 2.666 0 0 1 2.67 2.676v78.648a2.672 2.672 0 0 1-2.67 2.676h-102.66a2.666 2.666 0 0 1-2.67-2.676z" fill="#eff7fb"/>
<rect x="10" y="104" width="108" height="11" rx="2.9174" fill="#eff7fb"/>
<path d="m13 22.493c0-0.824 0.678-1.493 1.501-1.493h98.999c0.829 0 1.501 0.663 1.501 1.493v64.014c0 0.824-0.678 1.493-1.501 1.493h-99a1.494 1.494 0 0 1-1.5-1.493z"/>
<path d="m16 24h96v61h-96z" fill="url(#b)"/>
<path d="M 112,64.868 104,61.176 93.333,49.474 88,51.842 77.333,40 72,44.737 66.667,40 45.14,62.703 25.332,64.868 16,69.605 V 85 h 93.332 A 2.672,2.672 0 0 0 112,82.327 Z" fill="#3612c1"/>
<path d="M 48,85 98.667,73.158 112,80.263 V 85 Z" fill="#4224ca"/>
<path d="m86.667 64.868 6.666-15.394 5.334 23.684z" fill="#5042ec"/>
<path d="m66.667 40-8 15.882-8 10.171-13.334 4.736z" fill="#ab76ef"/>
<path d="m72 51.842-5.333 2.369 13.333 3.552 2.667-2.131-5.334-6.158z" fill="#4531d8"/>
<path d="m69.333 47.105-10.666 8.777 8-1.671 10.666-4.737z" fill="#7365ee"/>
<path d="m58.667 55.882 6.666 11.829-14.666-1.658z" fill="#5241eb"/>
<path d="m50.667 66.053-13.334 4.736 8 5.211z" fill="#6c51ef"/>
<path d="m29.333 76.237 16-0.237 2.667 9z" fill="#3e2bcd"/>
<path d="m45.333 76 24-9.947 5.334-4.737 1.333 4.737-28 18.947z" fill="#593ef3"/>
<path d="M 16,85 29.333,76.237 48,85 Z" fill="#4735e4"/>
<path d="m69.333 47.105-2.666-7.105-5.334 10.588z" fill="#523de0"/>
<path d="m48 85 24-18.947 14.667-1.185 12 8.29z" fill="#654af8"/>
<path d="m74.667 61.316 13.333-9.474 5.333-2.368-6.666 15.394-17.334 3.553z" fill="#7f5ef1"/>
<path d="m74.667 61.316-5.334 7.105 12-5.921 12-13.026-5.333 2.368z" fill="#b57bff"/>
<path d="m77.333 40-8 7.105 8 2.369z" fill="#ab76ef"/>
<path d="m66.667 54.211 8 7.105-5.334 4.737-3.933 1.647z" fill="#442ae7"/>
<path d="m37.333 70.789-12-5.921 20-2.368z" fill="#7f5ef1"/>
<path d="m25.333 64.868-9.333 4.737 21.333 1.184z" fill="#593ef3"/>
<path d="M 32,71.974 29.333,76.237 16,85 v -9.474 z" fill="#452ac5"/>
<path d="m86.667 64.868-1.334 11.402 13.334-3.112z" fill="#411bce"/>
<path d="m16 75.526v-5.921l21.333 1.184z" fill="#6f4ee6"/>
<path d="m16 24h25.477l33.523 61h-59z" fill="#fff" opacity=".123"/>
<path d="m10 111.08v1c0 1.6163 1.3017 2.918 2.918 2.918h102.16c1.6163 0 2.918-1.3017 2.918-2.918v-1c0 1.6163-1.3017 2.918-2.918 2.918h-102.16c-1.6163 0-2.918-1.3017-2.918-2.918z" fill="#c3d5de"/>
</g>
</svg>
