<svg width="128" height="128" enable-background="new 0 0 48 48" version="1.1" viewBox="0 0 128 128" xml:space="preserve" xmlns="http://www.w3.org/2000/svg"><defs><linearGradient id="linearGradient914" x1="9.737" x2="19.02" y1="2.5e-8" y2="27.517" gradientTransform="matrix(1.2525 0 0 1.2525 6.7851 86.785)" gradientUnits="userSpaceOnUse"><stop stop-color="#909090" offset=".01378"/><stop stop-color="#585858" offset="1"/></linearGradient><filter id="dcc_nav_mouse_42px-a" x="-.429" y="-.429" width="1.857" height="1.857"><feOffset dy="2" in="SourceAlpha" result="shadowOffsetOuter1"/><feGaussianBlur in="shadowOffsetOuter1" result="shadowBlurOuter1" stdDeviation="2"/><feColorMatrix in="shadowBlurOuter1" result="shadowMatrixOuter1" values="0 0 0 0 0   0 0 0 0 0   0 0 0 0 0  0 0 0 0.2 0"/><feMerge><feMergeNode in="shadowMatrixOuter1"/><feMergeNode in="SourceGraphic"/></feMerge></filter><filter id="dcc_nav_mouse_42px-d" x="-.073" y="-.073" width="1.145" height="1.145"><feGaussianBlur in="SourceAlpha" result="shadowBlurInner1" stdDeviation="1.5"/><feOffset dx="-1" dy="-1" in="shadowBlurInner1" result="shadowOffsetInner1"/><feComposite in="shadowOffsetInner1" in2="SourceAlpha" k2="-1" k3="1" operator="arithmetic" result="shadowInnerInner1"/><feColorMatrix in="shadowInnerInner1" values="0 0 0 0 0   0 0 0 0 0   0 0 0 0 0  0 0 0 0.25 0"/></filter><filter id="dcc_nav_mouse_42px-f" x="-.055" y="-.055" width="1.109" height="1.218"><feOffset dy="1" in="SourceAlpha" result="shadowOffsetOuter1"/><feColorMatrix in="shadowOffsetOuter1" values="0 0 0 0 1   0 0 0 0 1   0 0 0 0 1  0 0 0 0.1 0"/></filter><filter id="dcc_nav_mouse_42px-h" x="-.031" y="-.032" width="1.063" height="1.129"><feOffset dy="1" in="SourceAlpha" result="shadowOffsetOuter1"/><feColorMatrix in="shadowOffsetOuter1" values="0 0 0 0 1   0 0 0 0 1   0 0 0 0 1  0 0 0 0.1 0"/></filter><filter id="filter941" x="-.06" y="-.06" width="1.12" height="1.12" color-interpolation-filters="sRGB"><feGaussianBlur stdDeviation="2.2773264"/></filter></defs>
<path d="m80.675 31.468 21.989 21.988c13.493 13.493 13.493 35.371 0 48.864s-35.371 13.493-48.864 0l-21.988-21.989c-13.493-13.493-13.493-35.371 0-48.864 13.493-13.493 35.371-13.493 48.864 0z" fill="#b3b3b3" fill-rule="evenodd" filter="url(#filter941)" stroke-width="3.3104"/><g transform="translate(0,80)" display="none" opacity=".5">
	<polyline points="47.996 -3e-3 47.996 47.997 -4e-3 47.997 -4e-3 -3e-3" display="inline"/>
</g>
<g transform="matrix(2.643 0 0 2.643 3.7581 -208.03)"><path d="m29.102 90.614 8.3196 8.3195c5.1053 5.1053 5.1053 13.383 0 18.488s-13.383 5.1053-18.488 0l-8.3195-8.3196c-5.1053-5.1053-5.1053-13.383 0-18.488 5.1053-5.1052 13.383-5.1053 18.488 0z" fill="url(#linearGradient914)" fill-rule="evenodd" stroke-width="1.2525"/><path transform="matrix(1.2525 0 0 1.2525 6.7851 86.785)" d="m17.818 3.0571 6.6424 6.6423c4.0761 4.0761 4.0761 10.685 0 14.761s-10.685 4.0761-14.761 0l-6.6423-6.6424c-4.0761-4.0761-4.0761-10.685 0-14.761s10.685-4.0761 14.761 0z" fill-rule="evenodd" filter="url(#dcc_nav_mouse_42px-d)"/><g transform="translate(0,80)"><polygon transform="matrix(1.2525,0,0,1.2525,6.7851,6.7851)" points="11.586 9.981 10.463 11.103 2.414 3.054 3.537 1.931" filter="url(#dcc_nav_mouse_42px-f)"/><polygon transform="matrix(1.2525,0,0,1.2525,6.7851,6.7851)" points="11.586 9.981 10.463 11.103 2.414 3.054 3.537 1.931" fill="#4a4a4a" filter="url(#dcc_nav_mouse_42px-a)"/><polygon transform="matrix(1.2525,0,0,1.2525,6.7851,6.7851)" points="17.741 2.897 18.828 3.999 3.983 18.345 2.897 17.242" filter="url(#dcc_nav_mouse_42px-h)"/><polygon transform="matrix(1.2525,0,0,1.2525,6.7851,6.7851)" points="17.741 2.897 18.828 3.999 3.983 18.345 2.897 17.242" fill="#4a4a4a" filter="url(#dcc_nav_mouse_42px-a)"/></g></g></svg>
