<svg width="128" height="128" version="1.1" viewBox="0 0 128 128" xmlns="http://www.w3.org/2000/svg"><title>深度云打印-linux-128px</title><defs><linearGradient id="b" x1="50.421" x2="50.421" y1="24.884" y2="111.6" gradientTransform="scale(1.2693 .78782)" gradientUnits="userSpaceOnUse"><stop stop-color="#fff" offset="0"/><stop stop-color="#C0E9FE" offset="1"/></linearGradient><linearGradient id="c" x1="50.422" x2="50.422" y1="22.847" y2="113.31" gradientTransform="scale(1.2693 .78784)" gradientUnits="userSpaceOnUse"><stop stop-color="#EBF9FF" offset="0"/><stop stop-color="#C4E6F8" offset="1"/></linearGradient><linearGradient id="d" x1="3.528" x2="3.528" y1="1.134" y2="4.56" gradientTransform="scale(1.1339 .88193)" gradientUnits="userSpaceOnUse"><stop stop-color="#fff" offset="0"/><stop stop-color="#fff" stop-opacity="0" offset="1"/></linearGradient><linearGradient id="e" x1="53.947" x2="53.947" y1="75.926" y2="139.99" gradientTransform="scale(1.1863 .84292)" gradientUnits="userSpaceOnUse"><stop stop-color="#44A8FF" offset="0"/><stop stop-color="#016EDA" offset="1"/></linearGradient><filter id="a" color-interpolation-filters="sRGB"><feFlood flood-color="#000" flood-opacity=".235" result="flood"/><feComposite in="flood" in2="SourceGraphic" operator="in" result="composite1"/><feGaussianBlur in="composite1" result="blur" stdDeviation="2"/><feOffset dx="0" dy="2" result="offset"/><feComposite in="SourceGraphic" in2="offset" result="composite2"/></filter></defs><g fill-rule="evenodd" filter="url(#a)"><path d="M26 44V14.996A3.004 3.004 0 0 1 29.003 12h69.995A2.995 2.995 0 0 1 102 14.996V44H26z" fill="#43a6fe"/><path d="M26 43V16c0-1.657 1.351-3 3.003-3h69.995A3.004 3.004 0 0 1 102 16v27H26z" fill="#0080ff"/><path d="M122 66.541c0-10.656-7.184-19.637-17.015-22.491-2.824-10.971-12.841-19.099-24.802-19.099-3.48 0-6.791.693-9.818 1.936-5.188-5.461-12.536-8.888-20.706-8.888-15.565 0-28.193 12.381-28.433 27.736C12.353 48.905 6 57.292 6 67.17c0 12.525 10.2 22.683 22.822 22.797v.03h70.215v-.043c12.744-.382 22.962-10.704 22.962-23.413z" fill="url(#b)"/><path d="M105 44c-3.017-11.449-13.257-19.233-25-19-3.567-.233-8 1-9.27 1.732C64.918 21.02 57.659 18 50 18c-15.602 0-28 11.004-29 27-8.963 3.74-15 12.221-15 22 0 12.554 10.453 22.883 23 23h69c15-.5 24-10.909 24-24 0-10.411-7-18.988-17-22zm-7 44H29c-11.427-.135-21-9.582-21-21 0-15 15-20.5 15-20.5C23.188 32.082 35.177 20 50 20c11 0 20.5 9.5 20.5 9.5 17.5-6.5 30.106 5.169 32.5 16 0 0 17 4.5 17 20.5 0 11.971-9.58 21.603-22 22z" fill="url(#c)"/><path d="M26.011 89.941C21 89.001 20 88.001 20 88.001l6-24s0 18 .011 25.94zM102.01 89.737c5.011-.94 6.011-1.94 6.011-1.94l-6-24s0 18-.011 25.94z" fill="#338dbc" fill-opacity=".2"/><g transform="translate(106 60)"><circle cx="4" cy="4" r="4" fill="#00b0df"/><circle cx="4" cy="4" r="3" fill="#31d4ff"/><ellipse cx="4" cy="2.556" rx="2" ry="1.556" fill="url(#d)"/></g><path d="M26 64v51c0 1.657 1.351 3 3.003 3h69.995a2.996 2.996 0 0 0 3.002-3V64H26z" fill="url(#e)"/><path d="M26 65v48.999a3.007 3.007 0 0 0 3.003 3.002h69.995a2.998 2.998 0 0 0 3.002-3.002V65H26z" fill="#0080ff"/><path fill="#fff" d="M34 84h60v2H34zM34 98h60v2H34z"/></g></svg>