<svg width="128" height="128" version="1.1" viewBox="0 0 128 128" xmlns="http://www.w3.org/2000/svg">
<defs>
<filter id="filter871" x="-.039064" y="-.033382" width="1.0781" height="1.0668" color-interpolation-filters="sRGB">
<feGaussianBlur stdDeviation="1.53"/>
</filter>
</defs>
<title>android-device-128px</title>
<g fill-rule="evenodd">
<path d="m16.926 12.996a6.0585 3.996 0 0 1 6.0585-3.996h81.883a6.0645 4 0 0 1 6.0585 3.996v102.01a6.0585 3.996 0 0 1-6.0585 3.996h-81.883a6.0645 4 0 0 1-6.0585-3.996z" fill="#ccc" filter="url(#filter871)"/>
<path d="m16.926 12.996a6.0585 3.996 0 0 1 6.0585-3.996h81.883a6.0645 4 0 0 1 6.0585 3.996v102.01a6.0585 3.996 0 0 1-6.0585 3.996h-81.883a6.0645 4 0 0 1-6.0585-3.996z" fill="#c1b6aa"/>
<path d="m20 13.66c0-1.47 1.7966-2.66 4.0359-2.66h79.864a4.0329 2.66 0 0 1 4.0359 2.66v100.68c0 1.47-1.7966 2.66-4.0359 2.66h-79.864a4.0329 2.66 0 0 1-4.0359-2.66z" fill="#f7ebde"/>
<path d="m23 21h82v85h-82z" fill="#1a1a1a"/>
<circle cx="73.5" cy="16.5" r="1.5" fill="#1c1c1c"/>
</g>
<path d="m60.5 16.5h9m-15 0h2" fill="none" stroke="#8a837b" stroke-linecap="round"/>
</svg>
