<?xml version="1.0" encoding="UTF-8" standalone="no"?>
<svg
   xmlns:dc="http://purl.org/dc/elements/1.1/"
   xmlns:cc="http://creativecommons.org/ns#"
   xmlns:rdf="http://www.w3.org/1999/02/22-rdf-syntax-ns#"
   xmlns:svg="http://www.w3.org/2000/svg"
   xmlns="http://www.w3.org/2000/svg"
   xmlns:sodipodi="http://sodipodi.sourceforge.net/DTD/sodipodi-0.dtd"
   xmlns:inkscape="http://www.inkscape.org/namespaces/inkscape"
   height="48"
   width="48"
   version="1.1"
   id="svg9"
   sodipodi:docname="visualstudiocode.svg"
   inkscape:version="0.92.4 5da689c313, 2019-01-14">
  <metadata
     id="metadata15">
    <rdf:RDF>
      <cc:Work
         rdf:about="">
        <dc:format>image/svg+xml</dc:format>
        <dc:type
           rdf:resource="http://purl.org/dc/dcmitype/StillImage" />
      </cc:Work>
    </rdf:RDF>
  </metadata>
  <defs
     id="defs13">
    <filter
       color-interpolation-filters="sRGB"
       filterUnits="userSpaceOnUse"
       height="236.149"
       width="298.822"
       y="40.5225"
       x="-21.4896"
       id="filter0_d">
      <feFlood
         id="feFlood844"
         result="BackgroundImageFix"
         flood-opacity="0" />
      <feColorMatrix
         id="feColorMatrix846"
         values="0 0 0 0 0 0 0 0 0 0 0 0 0 0 0 0 0 0 127 0"
         type="matrix"
         in="SourceAlpha" />
      <feOffset
         id="feOffset848" />
      <feGaussianBlur
         id="feGaussianBlur850"
         stdDeviation="10.6667" />
      <feColorMatrix
         id="feColorMatrix852"
         values="0 0 0 0 0 0 0 0 0 0 0 0 0 0 0 0 0 0 0.25 0"
         type="matrix" />
      <feBlend
         id="feBlend854"
         result="effect1_dropShadow"
         in2="BackgroundImageFix"
         mode="overlay" />
      <feBlend
         id="feBlend856"
         result="shape"
         in2="effect1_dropShadow"
         in="SourceGraphic"
         mode="normal" />
    </filter>
    <filter
       color-interpolation-filters="sRGB"
       filterUnits="userSpaceOnUse"
       height="297.347"
       width="122.667"
       y="-20.6735"
       x="154.667"
       id="filter1_d">
      <feFlood
         id="feFlood859"
         result="BackgroundImageFix"
         flood-opacity="0" />
      <feColorMatrix
         id="feColorMatrix861"
         values="0 0 0 0 0 0 0 0 0 0 0 0 0 0 0 0 0 0 127 0"
         type="matrix"
         in="SourceAlpha" />
      <feOffset
         id="feOffset863" />
      <feGaussianBlur
         id="feGaussianBlur865"
         stdDeviation="10.6667" />
      <feColorMatrix
         id="feColorMatrix867"
         values="0 0 0 0 0 0 0 0 0 0 0 0 0 0 0 0 0 0 0.25 0"
         type="matrix" />
      <feBlend
         id="feBlend869"
         result="effect1_dropShadow"
         in2="BackgroundImageFix"
         mode="overlay" />
      <feBlend
         id="feBlend871"
         result="shape"
         in2="effect1_dropShadow"
         in="SourceGraphic"
         mode="normal" />
    </filter>
    <linearGradient
       gradientUnits="userSpaceOnUse"
       y2="255.34"
       x2="127.844"
       y1="0.659988"
       x1="127.844"
       id="paint0_linear">
      <stop
         id="stop874"
         stop-color="white" />
      <stop
         id="stop876"
         stop-opacity="0"
         stop-color="white"
         offset="1" />
    </linearGradient>
  </defs>
  <sodipodi:namedview
     pagecolor="#ffffff"
     bordercolor="#666666"
     borderopacity="1"
     objecttolerance="10"
     gridtolerance="10"
     guidetolerance="10"
     inkscape:pageopacity="0"
     inkscape:pageshadow="2"
     inkscape:window-width="1366"
     inkscape:window-height="699"
     id="namedview11"
     showgrid="false"
     inkscape:zoom="6.9532166"
     inkscape:cx="19.937531"
     inkscape:cy="25.288606"
     inkscape:window-x="0"
     inkscape:window-y="0"
     inkscape:window-maximized="1"
     inkscape:current-layer="g842" />
  <linearGradient
     id="a"
     gradientUnits="userSpaceOnUse"
     x1="2.315"
     x2="45.55"
     y1="3.661"
     y2="44.136"
     gradientTransform="translate(-133.46341,-16.107653)">
    <stop
       offset="0"
       stop-color="#ff00d4"
       id="stop2" />
    <stop
       offset="1"
       stop-color="#4300ff"
       stop-opacity=".945"
       id="stop4" />
  </linearGradient>
  <g
     style="fill:none"
     mask="url(#mask0)"
     id="g842"
     transform="translate(66.504265,-32.945272)">
    <path
       style="fill:#0065a9;stroke-width:1"
       inkscape:connector-curvature="0"
       d="m -23.464229,40.952816 -8.394532,-4.030807 c -0.971594,-0.466565 -2.132891,-0.269758 -2.895524,0.490729 l -27.480776,24.987635 c -0.739163,0.672147 -0.738314,1.832653 0.0018,2.503689 l 2.244718,2.03501 c 0.605109,0.548669 1.516402,0.588983 2.167902,0.09618 l 33.093213,-25.036745 c 1.11021,-0.839937 2.704865,-0.05025 2.704865,1.339503 v -0.0972 c 0,-0.975526 -0.560358,-1.864807 -1.441714,-2.287998 z"
       id="path828" />
    <path
       id="path830"
       d="m 246.94,228.362 -52.747,25.397 c -6.105,2.939 -13.402,1.699 -18.194,-3.092 L 3.32371,93.2272 C -1.32082,88.9925 -1.31548,81.6802 3.33523,77.4523 L 17.4399,64.6298 c 3.8022,-3.4565 9.5283,-3.711 13.622,-0.6053 L 239.003,221.773 c 6.976,5.292 16.996,0.317 16.996,-8.44 v 0.613 c 0,6.146 -3.521,11.749 -9.059,14.416 z"
       inkscape:connector-curvature="0"
       style="fill:#007acc;stroke-width:6.29209328;filter:url(#filter0_d)"
       transform="matrix(0.15914712,0,0,0.15871245,-62.764019,36.566275)" />
    <path
       id="path834"
       d="m 194.196,253.763 c -6.107,2.937 -13.404,1.696 -18.196,-3.096 5.904,5.904 16,1.722 16,-6.628 V 11.9606 c 0,-8.35003 -10.096,-12.531775 -16,-6.62739 4.792,-4.792044 12.089,-6.033817 18.196,-3.09673 l 52.738,25.36202 c 5.542,2.665 9.066,8.2701 9.066,14.4193 V 213.983 c 0,6.149 -3.524,11.754 -9.066,14.419 z"
       inkscape:connector-curvature="0"
       style="opacity:1;fill:#008eff;stroke-width:6.29209328;filter:url(#filter1_d);fill-opacity:1"
       transform="matrix(0.15914712,0,0,0.15871245,-62.764019,36.566275)" />
    <g
       style="opacity:0.25;mix-blend-mode:overlay;stroke-width:6.29209328"
       id="g840"
       transform="matrix(0.15914712,0,0,0.15871245,-62.764019,36.566275)">
      <path
         style="clip-rule:evenodd;fill:#0099ff;fill-opacity:1;fill-rule:evenodd;stroke-width:6.29209328"
         inkscape:connector-curvature="0"
         d="m 181.378,254.252 c 4.032,1.57 8.63,1.47 12.699,-0.488 l 52.706,-25.362 c 5.539,-2.665 9.061,-8.27 9.061,-14.419 V 42.0179 c 0,-6.1492 -3.522,-11.7543 -9.06,-14.4193 L 194.077,2.23665 c -5.34,-2.569949 -11.591,-1.940473 -16.279,1.46736 -0.669,0.48682 -1.307,1.03036 -1.906,1.62936 L 74.9927,97.386 31.0429,64.0245 C 26.9517,60.9189 21.229,61.1734 17.4292,64.6298 L 3.33311,77.4523 c -4.64789,4.228 -4.65322,11.5402 -0.01151,15.775 L 41.4364,128 3.3216,162.773 c -4.64171,4.235 -4.63638,11.547 0.01151,15.775 L 17.4292,191.37 c 3.7998,3.457 9.5225,3.711 13.6137,0.606 l 43.9498,-33.362 100.8993,92.053 c 1.596,1.597 3.471,2.8 5.486,3.585 z M 191.883,69.8851 115.323,128 l 76.56,58.115 z"
         id="path838" />
    </g>
  </g>
</svg>
