<?xml version="1.0" encoding="UTF-8" standalone="no"?>
<svg
   xmlns:dc="http://purl.org/dc/elements/1.1/"
   xmlns:cc="http://creativecommons.org/ns#"
   xmlns:rdf="http://www.w3.org/1999/02/22-rdf-syntax-ns#"
   xmlns:svg="http://www.w3.org/2000/svg"
   xmlns="http://www.w3.org/2000/svg"
   xmlns:xlink="http://www.w3.org/1999/xlink"
   xmlns:sodipodi="http://sodipodi.sourceforge.net/DTD/sodipodi-0.dtd"
   xmlns:inkscape="http://www.inkscape.org/namespaces/inkscape"
   width="64"
   height="64"
   version="1.1"
   id="svg37"
   sodipodi:docname="addressbook.svg"
   inkscape:version="0.92.4 5da689c313, 2019-01-14">
  <metadata
     id="metadata41">
    <rdf:RDF>
      <cc:Work
         rdf:about="">
        <dc:format>image/svg+xml</dc:format>
        <dc:type
           rdf:resource="http://purl.org/dc/dcmitype/StillImage" />
      </cc:Work>
    </rdf:RDF>
  </metadata>
  <sodipodi:namedview
     pagecolor="#ffffff"
     bordercolor="#666666"
     borderopacity="1"
     objecttolerance="10"
     gridtolerance="10"
     guidetolerance="10"
     inkscape:pageopacity="0"
     inkscape:pageshadow="2"
     inkscape:window-width="1366"
     inkscape:window-height="700"
     id="namedview39"
     showgrid="false"
     inkscape:zoom="5.2149125"
     inkscape:cx="2.2179287"
     inkscape:cy="37.132536"
     inkscape:window-x="0"
     inkscape:window-y="0"
     inkscape:window-maximized="1"
     inkscape:current-layer="svg37" />
  <defs
     id="defs11">
    <linearGradient
       inkscape:collect="always"
       id="linearGradient852">
      <stop
         id="stop850"
         offset="0"
         style="stop-color:#e7e7e7;stop-opacity:1" />
      <stop
         id="stop848"
         offset="1"
         style="stop-color:#ffffff;stop-opacity:1;" />
    </linearGradient>
    <linearGradient
       id="a"
       y1="538.8"
       y2="505.8"
       x2="0"
       gradientUnits="userSpaceOnUse"
       gradientTransform="matrix(1.45455 0 0 1 -198.81 -31)">
      <stop
         stop-color="#ffac35"
         id="stop2" />
      <stop
         offset="1"
         stop-color="#ff8736"
         id="stop4" />
    </linearGradient>
    <linearGradient
       gradientTransform="matrix(1.99076 0 0 1.5359 -798.541 -767.894)"
       gradientUnits="userSpaceOnUse"
       x2="424.009"
       y2="511.57"
       y1="535.407"
       id="e"
       xlink:href="#a"
       x1="424.315" />
    <filter
       id="d"
       x="-.066"
       width="1.131"
       y="-.055"
       height="1.111"
       color-interpolation-filters="sRGB">
      <feGaussianBlur
         stdDeviation="1.198"
         id="feGaussianBlur8" />
    </filter>
    <linearGradient
       inkscape:collect="always"
       xlink:href="#linearGradient852"
       id="linearGradient854"
       x1="33.339546"
       y1="47.380333"
       x2="33.189426"
       y2="23.515928"
       gradientUnits="userSpaceOnUse" />
  </defs>
  <linearGradient
     id="c">
    <stop
       offset="0"
       stop-color="#f10c86"
       id="stop13" />
    <stop
       offset="1"
       stop-color="#f10c86"
       stop-opacity="0"
       id="stop15" />
  </linearGradient>
  <linearGradient
     id="b">
    <stop
       offset="0"
       stop-color="#11c6f8"
       id="stop18" />
    <stop
       offset="1"
       stop-color="#ff007f"
       id="stop20" />
  </linearGradient>
  <path
     d="M10.847 7.635v52.008h43.797V7.635z"
     color="#000"
     fill="#313131"
     filter="url(#d)"
     opacity=".259"
     id="path23" />
  <path
     d="M10.847 7.635v2.737h43.797V7.635z"
     color="#000"
     fill="#ffab35"
     id="path25" />
  <path
     d="M10.847 9.004v1.368h43.797V9.004z"
     color="#000"
     fill="#fff"
     id="path27" />
  <path
     d="M10.847 10.372v49.271h43.797v-49.27z"
     color="#000"
     fill="url(#e)"
     id="path29" />
  <path
     color="#000"
     fill="#7f8c8d"
     d="M28.64 4.898h1.369v8.212H28.64zM14.953 4.898h1.369v8.212h-1.369zM21.797 4.898h1.369v8.212h-1.369zM35.483 4.898h1.369v8.212h-1.369zM42.326 4.898h1.369v8.212h-1.369zM49.169 4.898h1.369v8.212h-1.369z"
     id="path31" />
  <path
     d="M34.107 50.07c-2.901-.118-4.859-.334-6.38-.71-1.74-.432-2.979-1.08-3.486-1.834-.352-.523-.415-.787-.387-1.77.02-.83.02-.837.218-1.241.493-.997 1.394-1.848 3.063-2.872.824-.51 2.535-1.325 3.74-1.806 1.204-.474 1.478-.662 1.739-1.22a1.422 1.408 0 0 0 .162-.753c0-.655-.12-.99-.528-1.436A11.563 11.447 0 0 1 29.43 29.2c0-2.767 1.204-4.928 3.33-5.967a6.352 6.288 0 0 1 2.775-.67c2.98-.111 5.437 1.52 6.275 4.183.444 1.401.45 3.277.028 4.929-.415 1.603-1.338 3.43-2.303 4.51-.493.565-.549.649-.655 1.13a2.627 2.6 0 0 0 .085 1.533c.197.405.45.586 1.204.85 3.944 1.395 6.711 3.242 7.401 4.922.12.286.127.398.127 1.276 0 .934 0 .976-.155 1.283-.634 1.338-2.634 2.196-6.126 2.635a64.294 63.647 0 0 1-7.31.279z"
     fill="#2d2d2d"
     id="path33"
     style="fill:#383838;fill-opacity:1" />
  <path
     d="M32.073 48.647c-2.901-.118-4.859-.335-6.38-.711-1.74-.432-2.979-1.08-3.486-1.833-.352-.523-.415-.788-.387-1.771.021-.83.021-.837.218-1.24.493-.998 1.394-1.848 3.063-2.873.824-.509 2.536-1.325 3.74-1.806 1.204-.474 1.479-.662 1.74-1.22a1.422 1.408 0 0 0 .161-.752c0-.656-.12-.99-.528-1.436a11.563 11.447 0 0 1-2.817-7.23c0-2.767 1.204-4.928 3.331-5.967a6.352 6.288 0 0 1 2.775-.67c2.978-.11 5.436 1.52 6.274 4.184.444 1.4.45 3.276.028 4.928-.415 1.604-1.338 3.43-2.303 4.51-.492.565-.549.649-.654 1.13a2.627 2.6 0 0 0 .084 1.534c.197.404.45.585 1.204.85 3.944 1.394 6.711 3.242 7.401 4.922.12.285.127.397.127 1.275 0 .934 0 .976-.155 1.283-.634 1.339-2.633 2.196-6.126 2.635a64.294 63.647 0 0 1-7.31.279z"
     fill="#fff"
     id="path35"
     style="fill-opacity:1;fill:url(#linearGradient854)" />
</svg>
