<?xml version="1.0" encoding="UTF-8" standalone="no"?>
<svg
   xmlns:dc="http://purl.org/dc/elements/1.1/"
   xmlns:cc="http://creativecommons.org/ns#"
   xmlns:rdf="http://www.w3.org/1999/02/22-rdf-syntax-ns#"
   xmlns:svg="http://www.w3.org/2000/svg"
   xmlns="http://www.w3.org/2000/svg"
   xmlns:xlink="http://www.w3.org/1999/xlink"
   xmlns:sodipodi="http://sodipodi.sourceforge.net/DTD/sodipodi-0.dtd"
   xmlns:inkscape="http://www.inkscape.org/namespaces/inkscape"
   viewBox="0 0 64 64"
   version="1.1"
   id="svg13"
   sodipodi:docname="arduino.svg"
   inkscape:version="0.92.4 5da689c313, 2019-01-14"
   width="64"
   height="64">
  <metadata
     id="metadata19">
    <rdf:RDF>
      <cc:Work
         rdf:about="">
        <dc:format>image/svg+xml</dc:format>
        <dc:type
           rdf:resource="http://purl.org/dc/dcmitype/StillImage" />
        <dc:title></dc:title>
      </cc:Work>
    </rdf:RDF>
  </metadata>
  <defs
     id="defs17" />
  <sodipodi:namedview
     pagecolor="#ffffff"
     bordercolor="#666666"
     borderopacity="1"
     objecttolerance="10"
     gridtolerance="10"
     guidetolerance="10"
     inkscape:pageopacity="0"
     inkscape:pageshadow="2"
     inkscape:window-width="1366"
     inkscape:window-height="699"
     id="namedview15"
     showgrid="false"
     inkscape:zoom="4.9166667"
     inkscape:cx="24.20339"
     inkscape:cy="24"
     inkscape:window-x="0"
     inkscape:window-y="0"
     inkscape:window-maximized="1"
     inkscape:current-layer="g849" />
  <linearGradient
     id="a">
    <stop
       offset="0"
       stop-color="#b100ff"
       id="stop2" />
    <stop
       offset="1"
       stop-color="#00ffa2"
       id="stop4" />
  </linearGradient>
  <linearGradient
     id="b"
     gradientUnits="userSpaceOnUse"
     x1="1.624052"
     x2="46.373486"
     xlink:href="#a"
     y1="23.735895"
     y2="23.735895" />
  <linearGradient
     id="c"
     gradientUnits="userSpaceOnUse"
     x1="1.1471519"
     x2="46.850388"
     xlink:href="#a"
     y1="23.735895"
     y2="23.735895" />
  <g
     id="g849"
     transform="matrix(2,0,0,2,0,2)"
     style="stroke-width:0.5">
    <path
       id="path826"
       d="m 11,8 a 9,9 0 0 0 -9,9 9,9 0 0 0 9,9 9,9 0 0 0 4.998,-1.5234 9,9 0 0 0 5.002,1.523 9,9 0 0 0 9,-9 9,9 0 0 0 -9,-9 A 9,9 0 0 0 16.002,9.523 9,9 0 0 0 11,7.9996 Z"
       inkscape:connector-curvature="0"
       style="opacity:0.2;stroke-width:0.5" />
    <path
       id="path828"
       d="m 11,7 a 9,9 0 0 0 -9,9 9,9 0 0 0 9,9 9,9 0 0 0 4.998,-1.523 A 9,9 0 0 0 21,25 9,9 0 0 0 30,16 9,9 0 0 0 21,7 9,9 0 0 0 16.002,8.5234 9,9 0 0 0 11,7 Z"
       inkscape:connector-curvature="0"
       style="fill:#0eb569;stroke-width:0.5;fill-opacity:1" />
    <path
       id="path830"
       d="M 10.869,12 C 10.235,12 9.6035,12.127 9.0156,12.375 8.4278,12.623 7.8906,12.989 7.4375,13.451 6.9844,13.913 6.6201,14.466 6.373,15.074 6.126,15.682 6,16.338 6,16.998 c 0,0.66023 0.126,1.3158 0.37305,1.9238 0.24706,0.60801 0.61137,1.1592 1.0645,1.6211 0.4531,0.4619 0.99026,0.82794 1.5781,1.0762 0.57443,0.24257 1.1907,0.36735 1.8105,0.37305 0.01464,5.3e-4 0.0284,0.0014 0.04297,0.002 1.5072,0.07139 2.7205,-0.52617 3.6094,-1.3945 0.60761,-0.59359 1.0858,-1.2954 1.5215,-2.0098 0.43566,0.71438 0.91387,1.4162 1.5215,2.0098 0.88887,0.86836 2.1022,1.4659 3.6094,1.3945 0.01457,-5.3e-4 0.02833,-0.0013 0.04297,-0.002 0.61984,-0.0053 1.2361,-0.13048 1.8105,-0.37305 0.58786,-0.24823 1.125,-0.61427 1.5781,-1.0762 l 0.0039,-0.0059 c 0.452,-0.461 0.815,-1.009 1.061,-1.615 0.247,-0.608 0.373,-1.264 0.373,-1.924 0,-0.66 -0.126,-1.316 -0.373,-1.924 l -0.0059,-0.0098 c -0.247,-0.604 -0.608,-1.153 -1.059,-1.613 -0.453,-0.462 -0.99,-0.828 -1.578,-1.076 -0.587,-0.248 -1.219,-0.375 -1.853,-0.375 -1.588,0 -2.842,0.652 -3.768,1.561 -0.535,0.524 -0.969,1.124 -1.363,1.738 -0.394,-0.614 -0.828,-1.214 -1.363,-1.738 -0.926,-0.909 -2.18,-1.561 -3.768,-1.561 z m 0.18164,2 c 1.1286,0 1.8486,0.38049 2.5098,1.0117 0.52412,0.50036 0.98387,1.1816 1.4395,1.9238 -0.51994,0.86712 -1.0232,1.6601 -1.5879,2.1973 -0.62253,0.59215 -1.2662,0.91858 -2.3203,0.86133 h -0.04102 c -0.40198,0 -0.80791,-0.08036 -1.1777,-0.23242 C 9.50817,19.6117 9.17238,19.38809 8.8945,19.11523 l -0.011719,-0.0098 c -0.2803,-0.278 -0.5067,-0.613 -0.6565,-0.972 -0.1499,-0.359 -0.2266,-0.75 -0.2266,-1.137 0,-0.38661 0.076742,-0.77772 0.22656,-1.1367 0.14981,-0.35901 0.3762,-0.69274 0.65625,-0.9707 L 8.89421,14.87731 c 0.2779,-0.273 0.6137,-0.495 0.9785,-0.645 0.37,-0.152 0.776,-0.232 1.178,-0.232 z m 9.8984,0 c 0.40199,0 0.80792,0.08037 1.1777,0.23242 0.36485,0.15001 0.70064,0.37167 0.97852,0.64453 l 0.01172,0.01172 c 0.28005,0.27797 0.50644,0.61169 0.65625,0.9707 0.15,0.358 0.227,0.749 0.227,1.136 0,0.38662 -0.07674,0.77771 -0.22656,1.1367 -0.14981,0.359 -0.37619,0.69468 -0.65625,0.97266 l -0.01172,0.0098 c -0.27788,0.27286 -0.61367,0.49647 -0.97852,0.64648 -0.36982,0.15206 -0.77575,0.23242 -1.1777,0.23242 h -0.04101 c -1.0541,0.05725 -1.6978,-0.26918 -2.3203,-0.86133 -0.565,-0.537 -1.068,-1.33 -1.588,-2.197 0.456,-0.743 0.915,-1.424 1.439,-1.924 0.662,-0.632 1.382,-1.012 2.51,-1.012 z m -0.949,1 v 1 h -1 v 2 h 1 v 1 h 2 v -1 h 1 v -2 h -1 v -1 z m -11,1 v 2 h 4 v -2 z"
       inkscape:connector-curvature="0"
       style="opacity:0.2;stroke-width:0.5" />
    <path
       id="path832"
       d="M 10.869,11 C 10.235,11 9.6035,11.127 9.0156,11.375 8.4278,11.623 7.8906,11.989 7.4375,12.451 6.9844,12.913 6.6201,13.466 6.373,14.074 6.126,14.682 6,15.338 6,15.998 c 0,0.66023 0.126,1.3158 0.37305,1.9238 0.24706,0.60801 0.61137,1.1592 1.0645,1.6211 0.4531,0.4619 0.99026,0.82794 1.5781,1.0762 0.57443,0.24257 1.1907,0.36735 1.8105,0.37305 0.01464,5.3e-4 0.0284,0.0014 0.04297,0.002 1.5072,0.07139 2.7205,-0.52617 3.6094,-1.3945 0.60761,-0.59359 1.0858,-1.2954 1.5215,-2.0098 0.43566,0.71438 0.91387,1.4162 1.5215,2.0098 0.88887,0.86836 2.1022,1.4659 3.6094,1.3945 0.01457,-5.3e-4 0.02833,-0.0013 0.04297,-0.002 0.61984,-0.0053 1.2361,-0.13048 1.8105,-0.37305 0.58786,-0.24823 1.125,-0.61427 1.5781,-1.0762 l 0.0039,-0.0059 c 0.452,-0.461 0.815,-1.009 1.061,-1.615 0.247,-0.608 0.373,-1.264 0.373,-1.924 0,-0.66 -0.126,-1.316 -0.373,-1.924 l -0.0059,-0.0098 c -0.247,-0.604 -0.608,-1.153 -1.059,-1.613 -0.453,-0.462 -0.99,-0.828 -1.578,-1.076 -0.587,-0.248 -1.219,-0.375 -1.853,-0.375 -1.588,0 -2.842,0.652 -3.768,1.561 -0.535,0.524 -0.969,1.124 -1.363,1.738 -0.394,-0.614 -0.828,-1.214 -1.363,-1.738 -0.926,-0.909 -2.18,-1.561 -3.768,-1.561 z m 0.18164,2 c 1.1286,0 1.8486,0.38049 2.5098,1.0117 0.52412,0.50036 0.98387,1.1816 1.4395,1.9238 -0.51994,0.86712 -1.0232,1.6601 -1.5879,2.1973 -0.62253,0.59215 -1.2662,0.91858 -2.3203,0.86133 h -0.04102 c -0.40198,0 -0.80791,-0.08036 -1.1777,-0.23242 C 9.50817,18.6117 9.17238,18.38809 8.8945,18.11523 l -0.011719,-0.0098 c -0.2803,-0.278 -0.5067,-0.613 -0.6565,-0.972 -0.1499,-0.359 -0.2266,-0.75 -0.2266,-1.137 0,-0.38661 0.076742,-0.77772 0.22656,-1.1367 0.14981,-0.35901 0.3762,-0.69274 0.65625,-0.9707 L 8.89421,13.87731 c 0.2779,-0.273 0.6137,-0.495 0.9785,-0.645 0.37,-0.152 0.776,-0.232 1.178,-0.232 z m 9.8984,0 c 0.40199,0 0.80792,0.08037 1.1777,0.23242 0.36485,0.15001 0.70064,0.37167 0.97852,0.64453 l 0.01172,0.01172 c 0.28005,0.27797 0.50644,0.61169 0.65625,0.9707 0.15,0.358 0.227,0.749 0.227,1.136 0,0.38662 -0.07674,0.77771 -0.22656,1.1367 -0.14981,0.359 -0.37619,0.69468 -0.65625,0.97266 l -0.01172,0.0098 c -0.27788,0.27286 -0.61367,0.49647 -0.97852,0.64648 -0.36982,0.15206 -0.77575,0.23242 -1.1777,0.23242 h -0.04101 c -1.0541,0.05725 -1.6978,-0.26918 -2.3203,-0.86133 -0.565,-0.537 -1.068,-1.33 -1.588,-2.197 0.456,-0.743 0.915,-1.424 1.439,-1.924 0.662,-0.632 1.382,-1.012 2.51,-1.012 z m -0.949,1 v 1 h -1 v 2 h 1 v 1 h 2 v -1 h 1 v -2 h -1 v -1 z m -11,1 v 2 h 4 v -2 z"
       inkscape:connector-curvature="0"
       style="fill:#bbfec2;stroke-width:0.5;fill-opacity:1" />
    <path
       id="path834"
       d="M 11,7 A 9,9 0 0 0 2,16 9,9 0 0 0 2.0215,16.424 9,9 0 0 1 11,8 9,9 0 0 1 16.002,9.5234 9,9 0 0 1 21,8 9,9 0 0 1 29.979,16.576 9,9 0 0 0 30,16 9,9 0 0 0 21,7 9,9 0 0 0 16.002,8.5234 9,9 0 0 0 11,7 Z"
       inkscape:connector-curvature="0"
       style="opacity:0.2;fill:#ffffff;stroke-width:0.5" />
  </g>
</svg>
