<?xml version="1.0" encoding="UTF-8" standalone="no"?>
<!-- Created with Inkscape (http://www.inkscape.org/) -->

<svg
   xmlns:dc="http://purl.org/dc/elements/1.1/"
   xmlns:cc="http://creativecommons.org/ns#"
   xmlns:rdf="http://www.w3.org/1999/02/22-rdf-syntax-ns#"
   xmlns:svg="http://www.w3.org/2000/svg"
   xmlns="http://www.w3.org/2000/svg"
   xmlns:xlink="http://www.w3.org/1999/xlink"
   xmlns:sodipodi="http://sodipodi.sourceforge.net/DTD/sodipodi-0.dtd"
   xmlns:inkscape="http://www.inkscape.org/namespaces/inkscape"
   id="svg2"
   height="64"
   viewBox="0 0 64 64.000001"
   width="64"
   version="1.1"
   inkscape:version="0.92.4 5da689c313, 2019-01-14"
   sodipodi:docname="gnome-calculator.svg">
  <sodipodi:namedview
     pagecolor="#ffffff"
     bordercolor="#666666"
     borderopacity="1"
     objecttolerance="10"
     gridtolerance="10"
     guidetolerance="10"
     inkscape:pageopacity="0"
     inkscape:pageshadow="2"
     inkscape:window-width="1366"
     inkscape:window-height="704"
     id="namedview27"
     showgrid="false"
     inkscape:zoom="4"
     inkscape:cx="-5.0759033"
     inkscape:cy="16.38241"
     inkscape:window-x="0"
     inkscape:window-y="27"
     inkscape:window-maximized="0"
     inkscape:current-layer="svg2" />
  <defs
     id="defs4">
    <linearGradient
       id="linearGradient6148-4-1-3"
       y2="1046.4"
       gradientUnits="userSpaceOnUse"
       x2="46"
       gradientTransform="matrix(1.1666667,0,0,1.1666667,-5.3333335,-1158.4667)"
       y1="1015.8"
       x1="46">
      <stop
         id="stop9109-6"
         stop-color="#37a4f5"
         offset="0" />
      <stop
         id="stop9111-7"
         stop-color="#0566af"
         offset="1" />
    </linearGradient>
    <linearGradient
       id="linearGradient6104-5"
       y2="56"
       xlink:href="#linearGradient6142-3"
       gradientUnits="userSpaceOnUse"
       x2="23"
       gradientTransform="matrix(1.1666667,0,0,1.1666667,-5.3333335,-5.3799552)"
       y1="4"
       x1="23" />
    <linearGradient
       id="linearGradient6142-3">
      <stop
         id="stop6144-5"
         stop-color="#7a747c"
         offset="0" />
      <stop
         id="stop6146-6"
         stop-color="#534d52"
         offset="1" />
    </linearGradient>
    <linearGradient
       id="linearGradient6102-2"
       y2="60"
       xlink:href="#linearGradient6142-3"
       gradientUnits="userSpaceOnUse"
       x2="23"
       gradientTransform="matrix(1.1666667,0,0,1.1666667,-5.3333335,-5.3332848)"
       y1="8"
       x1="23" />
    <linearGradient
       id="linearGradient6100-9"
       y2="61"
       xlink:href="#linearGradient6142-3"
       gradientUnits="userSpaceOnUse"
       x2="23"
       gradientTransform="matrix(1.1666667,0,0,1.1666667,-5.3333335,-5.3332848)"
       y1="8"
       x1="23" />
    <linearGradient
       id="linearGradient6148-4-1-3-3"
       y2="1046.4"
       gradientUnits="userSpaceOnUse"
       x2="46"
       gradientTransform="translate(0,-988.4)"
       y1="1015.8"
       x1="46">
      <stop
         id="stop9109-6-6"
         stop-color="#37a4f5"
         offset="0" />
      <stop
         id="stop9111-7-7"
         stop-color="#0566af"
         offset="1" />
    </linearGradient>
    <linearGradient
       id="linearGradient6104-5-5"
       y2="56"
       xlink:href="#linearGradient6142-3"
       gradientUnits="userSpaceOnUse"
       x2="23"
       gradientTransform="translate(0,-0.03996)"
       y1="4"
       x1="23" />
    <linearGradient
       id="linearGradient6148-4-1-3-9"
       y2="1046.4"
       gradientUnits="userSpaceOnUse"
       x2="46"
       gradientTransform="translate(0,-989.4)"
       y1="1015.8"
       x1="46">
      <stop
         id="stop9109-6-1"
         stop-color="#37a4f5"
         offset="0" />
      <stop
         id="stop9111-7-2"
         stop-color="#0566af"
         offset="1" />
    </linearGradient>
    <linearGradient
       id="linearGradient6104-5-7"
       y2="56"
       xlink:href="#linearGradient6142-3"
       gradientUnits="userSpaceOnUse"
       x2="23"
       gradientTransform="translate(0,-1.03996)"
       y1="4"
       x1="23" />
  </defs>
  <metadata
     id="metadata7">
    <rdf:RDF>
      <cc:Work
         rdf:about="">
        <dc:format>image/svg+xml</dc:format>
        <dc:type
           rdf:resource="http://purl.org/dc/dcmitype/StillImage" />
        <dc:title />
      </cc:Work>
    </rdf:RDF>
  </metadata>
  <path
     id="rect6095-3-2-1"
     style="color:#000000;isolation:auto;mix-blend-mode:normal;solid-color:#000000;fill:#343031;stroke-width:1.16666663;color-rendering:auto;image-rendering:auto;shape-rendering:auto"
     d="M 30.833333,4 29.666667,5.1666704 V 29.62 L 5.1666667,29.66667 4,30.83333 c 0.6463333,0 1.1666667,0.520352 1.1666667,1.16667 0,0.646352 -0.5203334,1.16667 -1.1666667,1.16667 L 5.1666667,34.33333 29.666667,34.28629 V 58.832949 L 30.833333,60 c 0,-0.646352 0.520334,-1.16667 1.166667,-1.16667 0.646333,0 1.166667,0.520352 1.166667,1.16667 l 1.166666,-1.16667 V 34.28667 l 24.5,0.04704 L 60,33.16667 c -0.646333,0 -1.166667,-0.520352 -1.166667,-1.16667 0,-0.646352 0.520334,-1.16667 1.166667,-1.16667 l -1.166667,-1.16666 -24.5,-0.04704 V 5.1666704 L 33.166667,4 c 0,0.646352 -0.520334,1.1666704 -1.166667,1.1666704 -0.646333,0 -1.166667,-0.520352 -1.166667,-1.1666704 z"
     inkscape:connector-curvature="0" />
  <path
     id="path4922-2-2"
     style="color:#000000;isolation:auto;mix-blend-mode:normal;solid-color:#000000;fill:url(#linearGradient6100-9);stroke-width:1.16666663;color-rendering:auto;image-rendering:auto;shape-rendering:auto"
     d="M 8.6666667,4 C 6.0813333,4 4,6.0813296 4,8.6666704 V 30.83333 H 30.833333 V 4 Z"
     inkscape:connector-curvature="0" />
  <path
     id="path4920-4-7"
     style="color:#000000;isolation:auto;mix-blend-mode:normal;solid-color:#000000;fill:url(#linearGradient6102-2);stroke-width:1.16666663;color-rendering:auto;image-rendering:auto;shape-rendering:auto"
     d="M 33.166667,4 V 30.83333 H 60 V 8.6666704 C 60,6.0813296 57.918667,4 55.333333,4 Z"
     inkscape:connector-curvature="0" />
  <path
     id="path6140-9-5-0"
     style="color:#000000;isolation:auto;mix-blend-mode:normal;solid-color:#000000;fill:url(#linearGradient6104-5);stroke-width:1.16666663;color-rendering:auto;image-rendering:auto;shape-rendering:auto"
     d="M 4,33.16667 V 55.33333 C 4,57.91867 6.0813333,60 8.6666667,60 H 30.833333 V 33.16667 Z"
     inkscape:connector-curvature="0" />
  <path
     id="rect6074-4-1-9"
     style="color:#000000;isolation:auto;mix-blend-mode:normal;solid-color:#000000;fill:url(#linearGradient6148-4-1-3);stroke-width:1.16666663;color-rendering:auto;image-rendering:auto;shape-rendering:auto"
     d="M 33.166667,33.16667 V 60 H 55.333333 C 57.918667,60 60,57.91867 60,55.33333 V 33.16667 Z"
     inkscape:connector-curvature="0" />
  <g
     id="g19"
     transform="matrix(1.1666667,0,0,1.1666667,-5.3333333,-5.3333296)">
    <path
       id="rect6299-1-7-3"
       style="color:#000000;isolation:auto;mix-blend-mode:normal;solid-color:#000000;fill:#fafafa;color-rendering:auto;image-rendering:auto;shape-rendering:auto"
       d="m 21,15 c -0.554,0 -1,0.446 -1,1 v 4 h -4 c -0.554,0 -1,0.446 -1,1 0,0.554 0.46254,1.1344 1,1 h 4 v 4 c 0,0.554 0.446,1 1,1 0.554,0 1,-0.446 1,-1 v -4 h 4 c 0.554,0 1,-0.446 1,-1 0,-0.554 -0.46254,-0.8656 -1,-1 h -4 v -4 c 0,-0.554 -0.446,-1 -1,-1 z m 17,5 c -0.554,0 -1,0.446 -1,1 0,0.554 0.446,1 1,1 h 10 c 0.554,0 1,-0.446 1,-1 0,-0.554 -0.446,-1 -1,-1 z M 17.465,38.463 c -0.25562,0 -0.51116,0.099 -0.70703,0.2949 -0.39174,0.3917 -0.39174,1.0223 0,1.4141 l 2.8281,2.8281 -2.8281,2.8281 c -0.39174,0.3918 -0.39174,1.0224 0,1.4141 0.39174,0.3918 1.0223,0.3918 1.4141,0 l 2.828,-2.9 2.8281,2.8281 c 0.39174,0.3918 1.0223,0.3918 1.4141,0 0.39173,-0.3917 0.39173,-1.0223 0,-1.4141 l -2.8281,-2.8281 2.8281,-2.8281 c 0.39173,-0.3918 0.39173,-1.0224 0,-1.4141 -0.39174,-0.3918 -1.0223,-0.3918 -1.4141,0 l -2.828,2.8 -2.828,-2.8 c -0.19586,-0.1959 -0.45141,-0.2949 -0.70703,-0.2949 z"
       inkscape:connector-curvature="0" />
    <path
       id="rect6317-7-5-5-6"
       style="color:#000000;isolation:auto;mix-blend-mode:normal;solid-color:#000000;fill:#e2f2fe;color-rendering:auto;image-rendering:auto;shape-rendering:auto"
       d="m 38,40 c -0.554,0 -1,0.446 -1,1 0,0.554 0.446,1 1,1 h 10 c 0.554,0 1,-0.446 1,-1 0,-0.554 -0.446,-1 -1,-1 z m 0,4 c -0.554,0 -1,0.446 -1,1 0,0.554 0.446,1 1,1 h 10 c 0.554,0 1,-0.446 1,-1 0,-0.554 -0.446,-1 -1,-1 z"
       inkscape:connector-curvature="0" />
    <path
       id="path6472-5-71-0"
       style="color:#000000;isolation:auto;mix-blend-mode:normal;solid-color:#000000;fill:#b6b2b6;color-rendering:auto;image-rendering:auto;shape-rendering:auto"
       d="m 33,8 v 1 h 19 c 2.216,0 4,1.784 4,4 V 12 C 56,9.784 54.216,8 52,8 Z"
       inkscape:connector-curvature="0" />
    <path
       id="path6470-5-6-6"
       style="color:#000000;isolation:auto;mix-blend-mode:normal;solid-color:#000000;fill:#7a747c;color-rendering:auto;image-rendering:auto;shape-rendering:auto"
       d="m 8,33 v 1 h 23 v -1 z"
       inkscape:connector-curvature="0" />
    <path
       id="path6140-2-4-9-2"
       style="color:#000000;isolation:auto;mix-blend-mode:normal;solid-color:#000000;fill:#37a4f5;color-rendering:auto;image-rendering:auto;shape-rendering:auto"
       d="m 33,33 v 1 h 23 v -1 z"
       inkscape:connector-curvature="0" />
    <path
       id="path6472-5-7-8-6"
       style="color:#000000;isolation:auto;mix-blend-mode:normal;solid-color:#000000;fill:#b6b2b6;color-rendering:auto;image-rendering:auto;shape-rendering:auto"
       d="M 31,8 V 9 H 12 C 9.784,9 8,10.784 8,13 V 12 C 8,9.784 9.784,8 12,8 Z"
       inkscape:connector-curvature="0" />
  </g>
  <path
     style="color:#000000;isolation:auto;mix-blend-mode:normal;solid-color:#000000;fill:#343031;stroke-width:1.16666663;color-rendering:auto;image-rendering:auto;shape-rendering:auto"
     d="m 4,54.16667 v 1.16666 C 4,57.91867 6.0813333,60 8.6666667,60 H 30.833333 V 58.83333 H 8.6666667 C 6.0813333,58.83333 4,56.752 4,54.16667 Z"
     id="path6140-9-5-0-6"
     inkscape:connector-curvature="0" />
  <path
     style="color:#000000;isolation:auto;mix-blend-mode:normal;solid-color:#000000;fill:#023962;stroke-width:1.16666663;color-rendering:auto;image-rendering:auto;shape-rendering:auto"
     d="m 60,54.16667 c 0,2.58533 -2.081333,4.66666 -4.666667,4.66666 H 33.166667 V 60 H 55.333333 C 57.918667,60 60,57.91867 60,55.33333 Z"
     id="rect6074-4-1-9-2"
     inkscape:connector-curvature="0" />
</svg>
