<?xml version="1.0" encoding="UTF-8" standalone="no"?>
<!-- Created with Inkscape (http://www.inkscape.org/) -->

<svg
   xmlns:dc="http://purl.org/dc/elements/1.1/"
   xmlns:cc="http://creativecommons.org/ns#"
   xmlns:rdf="http://www.w3.org/1999/02/22-rdf-syntax-ns#"
   xmlns:svg="http://www.w3.org/2000/svg"
   xmlns="http://www.w3.org/2000/svg"
   xmlns:xlink="http://www.w3.org/1999/xlink"
   xmlns:sodipodi="http://sodipodi.sourceforge.net/DTD/sodipodi-0.dtd"
   xmlns:inkscape="http://www.inkscape.org/namespaces/inkscape"
   id="svg2"
   height="64"
   viewBox="0 0 64 64.000001"
   width="64"
   version="1.1"
   inkscape:version="0.91 r13725"
   sodipodi:docname="kamoso.svg">
  <sodipodi:namedview
     pagecolor="#ffffff"
     bordercolor="#666666"
     borderopacity="1"
     objecttolerance="10"
     gridtolerance="10"
     guidetolerance="10"
     inkscape:pageopacity="0"
     inkscape:pageshadow="2"
     inkscape:window-width="2986"
     inkscape:window-height="1590"
     id="namedview15"
     showgrid="false"
     inkscape:zoom="3.6875"
     inkscape:cx="-69.768143"
     inkscape:cy="-11.953452"
     inkscape:window-x="0"
     inkscape:window-y="0"
     inkscape:window-maximized="0"
     inkscape:current-layer="svg2" />
  <defs
     id="defs4">
    <linearGradient
       inkscape:collect="always"
       xlink:href="#linearGradient13696"
       id="linearGradient5355"
       x1="40"
       y1="65"
       x2="40"
       y2="44"
       gradientUnits="userSpaceOnUse" />
    <linearGradient
       id="linearGradient13696"
       inkscape:collect="always">
      <stop
         id="stop13698"
         offset="0"
         style="stop-color:#343031;stop-opacity:1" />
      <stop
         id="stop13700"
         offset="1"
         style="stop-color:#534d52;stop-opacity:1" />
    </linearGradient>
    <linearGradient
       inkscape:collect="always"
       xlink:href="#linearGradient13696"
       id="linearGradient5347"
       x1="39"
       y1="51"
       x2="39"
       y2="14"
       gradientUnits="userSpaceOnUse" />
    <linearGradient
       inkscape:collect="always"
       xlink:href="#linearGradient13677"
       id="linearGradient5330"
       x1="-514.36218"
       y1="148.00002"
       x2="-474.36221"
       y2="148.00002"
       gradientUnits="userSpaceOnUse"
       gradientTransform="translate(466.36222,-116.00003)" />
    <linearGradient
       id="linearGradient13677"
       inkscape:collect="always">
      <stop
         id="stop13679"
         offset="0"
         style="stop-color:#b6b2b6;stop-opacity:1" />
      <stop
         id="stop13681"
         offset="1"
         style="stop-color:#dddbdb;stop-opacity:1" />
    </linearGradient>
    <linearGradient
       inkscape:collect="always"
       xlink:href="#linearGradient13696"
       id="linearGradient5339"
       x1="-510.36221"
       y1="148.00002"
       x2="-478.36221"
       y2="148.00002"
       gradientUnits="userSpaceOnUse"
       gradientTransform="translate(522.36221,-180)" />
    <linearGradient
       inkscape:collect="always"
       xlink:href="#linearGradient4492"
       id="linearGradient5302"
       x1="-506.36221"
       y1="148.00002"
       x2="-482.36221"
       y2="148.00002"
       gradientUnits="userSpaceOnUse"
       gradientTransform="translate(466.36222,-116.00003)" />
    <linearGradient
       inkscape:collect="always"
       id="linearGradient4492">
      <stop
         style="stop-color:#0566af;stop-opacity:1;"
         offset="0"
         id="stop4494" />
      <stop
         style="stop-color:#023962;stop-opacity:1"
         offset="1"
         id="stop4496" />
    </linearGradient>
    <linearGradient
       inkscape:collect="always"
       xlink:href="#linearGradient4467"
       id="linearGradient5294"
       x1="19"
       y1="28"
       x2="45"
       y2="28"
       gradientUnits="userSpaceOnUse"
       gradientTransform="matrix(0,1,-1,0,60,-4)" />
    <linearGradient
       inkscape:collect="always"
       id="linearGradient4467">
      <stop
         style="stop-color:#1287de;stop-opacity:1;"
         offset="0"
         id="stop4469" />
      <stop
         style="stop-color:#37a4f5;stop-opacity:1"
         offset="1"
         id="stop4471" />
    </linearGradient>
    <linearGradient
       gradientTransform="translate(-49,-964.3622)"
       gradientUnits="userSpaceOnUse"
       y2="1020.3622"
       x2="23"
       y1="1020.3622"
       x1="19"
       id="linearGradient4549-8-7"
       xlink:href="#linearGradient4543"
       inkscape:collect="always" />
    <linearGradient
       id="linearGradient4543"
       inkscape:collect="always">
      <stop
         id="stop4545"
         offset="0"
         style="stop-color:#60d61a;stop-opacity:1;" />
      <stop
         id="stop4547"
         offset="1"
         style="stop-color:#f1d23b;stop-opacity:1" />
    </linearGradient>
  </defs>
  <metadata
     id="metadata7">
    <rdf:RDF>
      <cc:Work
         rdf:about="">
        <dc:format>image/svg+xml</dc:format>
        <dc:type
           rdf:resource="http://purl.org/dc/dcmitype/StillImage" />
        <dc:title />
      </cc:Work>
    </rdf:RDF>
  </metadata>
  <path
     id="path5163"
     d="M 32,42 A 14,14 0 0 0 18,56 14,14 0 0 0 18.0078,56.224609 28,28 0 0 0 32,60 28,28 0 0 0 45.988281,56.214844 14,14 0 0 0 46,56 14,14 0 0 0 32,42 Z"
     style="color:#000000;clip-rule:nonzero;display:inline;overflow:visible;visibility:visible;opacity:1;isolation:auto;mix-blend-mode:normal;color-interpolation:sRGB;color-interpolation-filters:linearRGB;solid-color:#000000;solid-opacity:1;fill:url(#linearGradient5355);fill-opacity:1;fill-rule:nonzero;stroke:none;stroke-width:2;stroke-linecap:round;stroke-linejoin:miter;stroke-miterlimit:4;stroke-dasharray:none;stroke-dashoffset:0;stroke-opacity:1;color-rendering:auto;image-rendering:auto;shape-rendering:auto;text-rendering:auto;enable-background:accumulate"
     inkscape:connector-curvature="0" />
  <rect
     ry="2"
     y="41.999996"
     x="29.999987"
     height="12"
     width="4"
     id="rect5357"
     style="color:#000000;clip-rule:nonzero;display:inline;overflow:visible;visibility:visible;opacity:1;isolation:auto;mix-blend-mode:normal;color-interpolation:sRGB;color-interpolation-filters:linearRGB;solid-color:#000000;solid-opacity:1;fill:#343031;fill-opacity:1;fill-rule:nonzero;stroke:none;stroke-width:2;stroke-linecap:round;stroke-linejoin:miter;stroke-miterlimit:4;stroke-dasharray:none;stroke-dashoffset:0;stroke-opacity:1;color-rendering:auto;image-rendering:auto;shape-rendering:auto;text-rendering:auto;enable-background:accumulate" />
  <path
     id="path5173"
     d="m 8,14 c -2.216,0 -4,1.784 -4,4 l 0,20 c 0,2.216 1.784,4 4,4 l 4,0 0,-28 -4,0 z m 44,0 0,28 4,0 c 2.21601,0 4,-1.784 4,-4 l 0,-20 c 0,-2.216 -1.78399,-4 -4,-4 l -4,0 z"
     style="color:#000000;clip-rule:nonzero;display:inline;overflow:visible;visibility:visible;opacity:1;isolation:auto;mix-blend-mode:normal;color-interpolation:sRGB;color-interpolation-filters:linearRGB;solid-color:#000000;solid-opacity:1;fill:url(#linearGradient5347);fill-opacity:1;fill-rule:nonzero;stroke:none;stroke-width:2;stroke-linecap:round;stroke-linejoin:miter;stroke-miterlimit:4;stroke-dasharray:none;stroke-dashoffset:0;stroke-opacity:1;color-rendering:auto;image-rendering:auto;shape-rendering:auto;text-rendering:auto;enable-background:accumulate"
     inkscape:connector-curvature="0" />
  <path
     id="rect5115"
     d="m 12,14 0,28 40,0 0,-28 -40,0 z"
     style="color:#000000;clip-rule:nonzero;display:inline;overflow:visible;visibility:visible;opacity:1;isolation:auto;mix-blend-mode:normal;color-interpolation:sRGB;color-interpolation-filters:linearRGB;solid-color:#000000;solid-opacity:1;fill:#cac6c9;fill-opacity:1;fill-rule:nonzero;stroke:none;stroke-width:2;stroke-linecap:round;stroke-linejoin:miter;stroke-miterlimit:4;stroke-dasharray:none;stroke-dashoffset:0;stroke-opacity:1;color-rendering:auto;image-rendering:auto;shape-rendering:auto;text-rendering:auto;enable-background:accumulate"
     inkscape:connector-curvature="0" />
  <path
     id="rect5115-6"
     d="m 12,41 0,1 40,0 0,-1 -40,0 z"
     style="color:#000000;clip-rule:nonzero;display:inline;overflow:visible;visibility:visible;opacity:1;isolation:auto;mix-blend-mode:normal;color-interpolation:sRGB;color-interpolation-filters:linearRGB;solid-color:#000000;solid-opacity:1;fill:#98929a;fill-opacity:1;fill-rule:nonzero;stroke:none;stroke-width:2;stroke-linecap:round;stroke-linejoin:miter;stroke-miterlimit:4;stroke-dasharray:none;stroke-dashoffset:0;stroke-opacity:1;color-rendering:auto;image-rendering:auto;shape-rendering:auto;text-rendering:auto;enable-background:accumulate"
     inkscape:connector-curvature="0" />
  <circle
     transform="matrix(0,-1,1,0,0,0)"
     r="20"
     cy="31.999987"
     cx="-27.999996"
     id="path5141"
     style="color:#000000;clip-rule:nonzero;display:inline;overflow:visible;visibility:visible;opacity:1;isolation:auto;mix-blend-mode:normal;color-interpolation:sRGB;color-interpolation-filters:linearRGB;solid-color:#000000;solid-opacity:1;fill:url(#linearGradient5330);fill-opacity:1;fill-rule:nonzero;stroke:none;stroke-width:2;stroke-linecap:round;stroke-linejoin:miter;stroke-miterlimit:4;stroke-dasharray:none;stroke-dashoffset:0;stroke-opacity:1;color-rendering:auto;image-rendering:auto;shape-rendering:auto;text-rendering:auto;enable-background:accumulate" />
  <circle
     r="15.999995"
     cy="-31.999987"
     cx="27.999996"
     id="path5117-5"
     style="color:#000000;clip-rule:nonzero;display:inline;overflow:visible;visibility:visible;opacity:1;isolation:auto;mix-blend-mode:normal;color-interpolation:sRGB;color-interpolation-filters:linearRGB;solid-color:#000000;solid-opacity:1;fill:url(#linearGradient5339);fill-opacity:1;fill-rule:nonzero;stroke:none;stroke-width:2;stroke-linecap:round;stroke-linejoin:miter;stroke-miterlimit:4;stroke-dasharray:none;stroke-dashoffset:0;stroke-opacity:1;color-rendering:auto;image-rendering:auto;shape-rendering:auto;text-rendering:auto;enable-background:accumulate"
     transform="matrix(0,1,-1,0,0,0)" />
  <circle
     transform="matrix(0,-1,1,0,0,0)"
     r="11.999995"
     cy="31.999987"
     cx="-27.999996"
     id="path5121-0"
     style="color:#000000;clip-rule:nonzero;display:inline;overflow:visible;visibility:visible;opacity:1;isolation:auto;mix-blend-mode:normal;color-interpolation:sRGB;color-interpolation-filters:linearRGB;solid-color:#000000;solid-opacity:1;fill:url(#linearGradient5302);fill-opacity:1;fill-rule:nonzero;stroke:none;stroke-width:2;stroke-linecap:round;stroke-linejoin:miter;stroke-miterlimit:4;stroke-dasharray:none;stroke-dashoffset:0;stroke-opacity:1;color-rendering:auto;image-rendering:auto;shape-rendering:auto;text-rendering:auto;enable-background:accumulate" />
  <path
     inkscape:connector-curvature="0"
     id="path5119"
     d="M 45,28 A 12.999995,12.999995 0 0 0 32,15 12.999995,12.999995 0 0 0 19,28 12.999995,12.999995 0 0 0 32,41 12.999995,12.999995 0 0 0 45,28 Z m -2,0 A 10.999995,10.999995 0 0 1 32,39 10.999995,10.999995 0 0 1 21,28 10.999995,10.999995 0 0 1 32,17 10.999995,10.999995 0 0 1 43,28 Z m -2,0 C 40.996,25.56506 40.00638,23.23548 38.25586,21.54297 L 34,24 l 6.99805,4.03906 0.002,-0.0391 z m -0.28125,2.1875 -4.25586,-2.45703 0,8.07226 c 2.12278,-1.21559 3.6593,-3.2429 4.25586,-5.61523 z M 36.52734,20.23242 C 35.15374,19.42854 33.59154,19.00328 32,19 c -0.83301,7e-4 -1.66188,0.11705 -2.46289,0.3457 l 0,4.92188 6.99023,-4.03516 z M 34.46289,31.73047 27.4707,35.76758 C 28.84487,36.5718 30.4078,36.99707 32,37 c 0.83301,-7e-4 1.66188,-0.11705 2.46289,-0.3457 l 0,-4.92383 z M 30,31.99805 l -6.99805,-4.04102 -0.002,0.043 c 0.004,2.43397 0.99287,4.76271 2.74219,6.45508 l 4.25781,-2.45703 z M 27.53711,20.19727 c -2.1212,1.2151 -3.65685,3.24078 -4.25391,5.61132 l 4.25391,2.45704 0,-8.06836 z"
     style="color:#000000;clip-rule:nonzero;display:inline;overflow:visible;visibility:visible;opacity:1;isolation:auto;mix-blend-mode:normal;color-interpolation:sRGB;color-interpolation-filters:linearRGB;solid-color:#000000;solid-opacity:1;fill:url(#linearGradient5294);fill-opacity:1;fill-rule:nonzero;stroke:none;stroke-width:2;stroke-linecap:round;stroke-linejoin:miter;stroke-miterlimit:4;stroke-dasharray:none;stroke-dashoffset:0;stroke-opacity:1;color-rendering:auto;image-rendering:auto;shape-rendering:auto;text-rendering:auto;enable-background:accumulate" />
  <circle
     r="3.0000131"
     cy="27.999996"
     cx="31.999987"
     id="path5123"
     style="color:#000000;clip-rule:nonzero;display:inline;overflow:visible;visibility:visible;opacity:1;isolation:auto;mix-blend-mode:normal;color-interpolation:sRGB;color-interpolation-filters:linearRGB;solid-color:#000000;solid-opacity:1;fill:#023962;fill-opacity:1;fill-rule:nonzero;stroke:none;stroke-width:2;stroke-linecap:round;stroke-linejoin:miter;stroke-miterlimit:4;stroke-dasharray:none;stroke-dashoffset:0;stroke-opacity:1;color-rendering:auto;image-rendering:auto;shape-rendering:auto;text-rendering:auto;enable-background:accumulate" />
  <circle
     r="1"
     cy="24.999996"
     cx="28.999987"
     id="path5320"
     style="color:#000000;clip-rule:nonzero;display:inline;overflow:visible;visibility:visible;opacity:1;isolation:auto;mix-blend-mode:normal;color-interpolation:sRGB;color-interpolation-filters:linearRGB;solid-color:#000000;solid-opacity:1;fill:#82c8fa;fill-opacity:1;fill-rule:nonzero;stroke:none;stroke-width:2;stroke-linecap:round;stroke-linejoin:miter;stroke-miterlimit:4;stroke-dasharray:none;stroke-dashoffset:0;stroke-opacity:1;color-rendering:auto;image-rendering:auto;shape-rendering:auto;text-rendering:auto;enable-background:accumulate" />
  <circle
     r="2"
     cy="21.999996"
     cx="25.999987"
     id="path5322"
     style="color:#000000;clip-rule:nonzero;display:inline;overflow:visible;visibility:visible;opacity:1;isolation:auto;mix-blend-mode:normal;color-interpolation:sRGB;color-interpolation-filters:linearRGB;solid-color:#000000;solid-opacity:1;fill:#82c8fa;fill-opacity:1;fill-rule:nonzero;stroke:none;stroke-width:2;stroke-linecap:round;stroke-linejoin:miter;stroke-miterlimit:4;stroke-dasharray:none;stroke-dashoffset:0;stroke-opacity:1;color-rendering:auto;image-rendering:auto;shape-rendering:auto;text-rendering:auto;enable-background:accumulate" />
  <path
     id="path5163-8"
     d="M 45.960938,55.230469 A 28,28 0 0 1 32,59 28,28 0 0 1 18.027344,55.234375 14,14 0 0 0 18,56 14,14 0 0 0 18.007812,56.224609 28,28 0 0 0 32,60 28,28 0 0 0 45.988281,56.214844 14,14 0 0 0 46,56 14,14 0 0 0 45.960938,55.230469 Z"
     style="color:#000000;clip-rule:nonzero;display:inline;overflow:visible;visibility:visible;opacity:1;isolation:auto;mix-blend-mode:normal;color-interpolation:sRGB;color-interpolation-filters:linearRGB;solid-color:#000000;solid-opacity:1;fill:#343031;fill-opacity:1;fill-rule:nonzero;stroke:none;stroke-width:2;stroke-linecap:round;stroke-linejoin:miter;stroke-miterlimit:4;stroke-dasharray:none;stroke-dashoffset:0;stroke-opacity:1;color-rendering:auto;image-rendering:auto;shape-rendering:auto;text-rendering:auto;enable-background:accumulate"
     inkscape:connector-curvature="0" />
  <path
     id="path5173-0"
     d="m 4,37 0,1 c 0,2.216 1.784,4 4,4 l 4,0 0,-1 -4,0 C 5.784,41 4,39.216 4,37 Z m 56,0 c 0,2.216 -1.78399,4 -4,4 l -4,0 0,1 4,0 c 2.21601,0 4,-1.784 4,-4 l 0,-1 z"
     style="color:#000000;clip-rule:nonzero;display:inline;overflow:visible;visibility:visible;opacity:1;isolation:auto;mix-blend-mode:normal;color-interpolation:sRGB;color-interpolation-filters:linearRGB;solid-color:#000000;solid-opacity:1;fill:#343031;fill-opacity:1;fill-rule:nonzero;stroke:none;stroke-width:2;stroke-linecap:round;stroke-linejoin:miter;stroke-miterlimit:4;stroke-dasharray:none;stroke-dashoffset:0;stroke-opacity:1;color-rendering:auto;image-rendering:auto;shape-rendering:auto;text-rendering:auto;enable-background:accumulate"
     inkscape:connector-curvature="0" />
  <path
     id="path5141-5"
     d="M 16.810547,41 A 20,20 0 0 0 32,48 20,20 0 0 0 47.167969,41 l -0.9375,0 A 20,20 0 0 1 32,47 20,20 0 0 1 17.738281,41 l -0.927734,0 z"
     style="color:#000000;clip-rule:nonzero;display:inline;overflow:visible;visibility:visible;opacity:1;isolation:auto;mix-blend-mode:normal;color-interpolation:sRGB;color-interpolation-filters:linearRGB;solid-color:#000000;solid-opacity:1;fill:#98929a;fill-opacity:1;fill-rule:nonzero;stroke:none;stroke-width:2;stroke-linecap:round;stroke-linejoin:miter;stroke-miterlimit:4;stroke-dasharray:none;stroke-dashoffset:0;stroke-opacity:1;color-rendering:auto;image-rendering:auto;shape-rendering:auto;text-rendering:auto;enable-background:accumulate"
     inkscape:connector-curvature="0" />
  <circle
     style="color:#000000;clip-rule:nonzero;display:inline;overflow:visible;visibility:visible;opacity:1;isolation:auto;mix-blend-mode:normal;color-interpolation:sRGB;color-interpolation-filters:linearRGB;solid-color:#000000;solid-opacity:1;fill:url(#linearGradient4549-8-7);fill-opacity:1;fill-rule:nonzero;stroke:none;stroke-width:4;stroke-linecap:butt;stroke-linejoin:miter;stroke-miterlimit:4;stroke-dasharray:none;stroke-dashoffset:0;stroke-opacity:1;color-rendering:auto;image-rendering:auto;shape-rendering:auto;text-rendering:auto;enable-background:accumulate"
     id="path4522-2-2"
     cx="-27.999981"
     cy="56.000019"
     r="2"
     transform="matrix(0,-1,1,0,0,0)" />
  <path
     style="color:#000000;clip-rule:nonzero;display:inline;overflow:visible;visibility:visible;opacity:1;isolation:auto;mix-blend-mode:normal;color-interpolation:sRGB;color-interpolation-filters:linearRGB;solid-color:#000000;solid-opacity:1;fill:#f7e385;fill-opacity:1;fill-rule:nonzero;stroke:none;stroke-width:4;stroke-linecap:butt;stroke-linejoin:miter;stroke-miterlimit:4;stroke-dasharray:none;stroke-dashoffset:0;stroke-opacity:1;color-rendering:auto;image-rendering:auto;shape-rendering:auto;text-rendering:auto;enable-background:accumulate"
     d="m 56,26 a 2,2 0 0 0 -2,2 2,2 0 0 0 0.0644,0.5039 A 2,2 0 0 1 55.99995,27 2,2 0 0 1 57.93549,28.4961 2,2 0 0 0 57.99999,28 a 2,2 0 0 0 -2,-2 z"
     id="path4522-26"
     inkscape:connector-curvature="0" />
</svg>
