<?xml version="1.0" encoding="UTF-8" standalone="no"?>
<svg
   xmlns:dc="http://purl.org/dc/elements/1.1/"
   xmlns:cc="http://creativecommons.org/ns#"
   xmlns:rdf="http://www.w3.org/1999/02/22-rdf-syntax-ns#"
   xmlns:svg="http://www.w3.org/2000/svg"
   xmlns="http://www.w3.org/2000/svg"
   xmlns:sodipodi="http://sodipodi.sourceforge.net/DTD/sodipodi-0.dtd"
   xmlns:inkscape="http://www.inkscape.org/namespaces/inkscape"
   height="64"
   width="64"
   version="1.1"
   id="svg27"
   sodipodi:docname="ckb.svg"
   style="enable-background:new"
   inkscape:version="0.92.4 5da689c313, 2019-01-14">
  <metadata
     id="metadata33">
    <rdf:RDF>
      <cc:Work
         rdf:about="">
        <dc:format>image/svg+xml</dc:format>
        <dc:type
           rdf:resource="http://purl.org/dc/dcmitype/StillImage" />
        <dc:title />
      </cc:Work>
    </rdf:RDF>
  </metadata>
  <defs
     id="defs31" />
  <sodipodi:namedview
     pagecolor="#ffffff"
     bordercolor="#666666"
     borderopacity="1"
     objecttolerance="10"
     gridtolerance="10"
     guidetolerance="10"
     inkscape:pageopacity="0"
     inkscape:pageshadow="2"
     inkscape:window-width="1366"
     inkscape:window-height="700"
     id="namedview29"
     showgrid="false"
     inkscape:zoom="13.906433"
     inkscape:cx="33.112724"
     inkscape:cy="18.909077"
     inkscape:window-x="0"
     inkscape:window-y="0"
     inkscape:window-maximized="1"
     inkscape:current-layer="svg27" />
  <filter
     id="a"
     style="color-interpolation-filters:sRGB">
    <feColorMatrix
       result="fbSourceGraphic"
       values="3.54 0 0 -0.360317 -1.27 0 3.54 0 -0.360317 -1.27 0 0 3.54 -0.360317 -1.27 0 0 0 1 0"
       id="feColorMatrix2" />
    <feColorMatrix
       in="fbSourceGraphic"
       result="fbSourceGraphicAlpha"
       values="0 0 0 -1 0 0 0 0 -1 0 0 0 0 -1 0 0 0 0 1 0"
       id="feColorMatrix4" />
    <feColorMatrix
       in="fbSourceGraphic"
       values="3.54 0 0 -0.360249 -1.27 0 3.54 0 -0.360249 -1.27 0 0 3.54 -0.360249 -1.27 0 0 0 1 0"
       id="feColorMatrix6" />
  </filter>
  <path
     style="opacity:0.66507179;fill:#c3c3c3;fill-opacity:1;stroke-width:1.64171529"
     d="M 6.6484375,15 C 5.7409011,15 5,15.735075 5,16.636719 v 3.271484 a 1.6470714,1.6363766 0 0 0 1.6484375,1.636719 H 9.9394531 A 1.6470714,1.6363766 0 0 0 11.587891,19.908203 V 16.636719 C 11.587891,15.735075 10.84699,15 9.9394531,15 Z m 9.8808595,0 c -0.907537,0 -1.646484,0.735075 -1.646485,1.636719 v 3.271484 a 1.6470714,1.6363766 0 0 0 1.646485,1.636719 h 3.292969 a 1.6470714,1.6363766 0 0 0 1.648437,-1.636719 V 16.636719 C 21.470703,15.735075 20.729802,15 19.822266,15 Z m 9.882812,0 c -0.907536,0 -1.646484,0.735075 -1.646484,1.636719 v 3.271484 a 1.6470714,1.6363766 0 0 0 1.646484,1.636719 h 3.292969 a 1.6470714,1.6363766 0 0 0 1.646484,-1.636719 V 16.636719 C 31.351562,15.735075 30.612615,15 29.705078,15 Z m 9.882813,0 c -0.907537,0 -1.646485,0.735075 -1.646484,1.636719 v 3.271484 a 1.6470714,1.6363766 0 0 0 1.646484,1.636719 h 3.292969 a 1.6470714,1.6363766 0 0 0 1.646484,-1.636719 V 16.636719 C 41.234375,15.735075 40.495427,15 39.587891,15 Z m 9.882812,0 c -0.907536,0 -1.648437,0.735075 -1.648437,1.636719 v 3.271484 a 1.6470714,1.6363766 0 0 0 1.648437,1.636719 h 3.292969 a 1.6470714,1.6363766 0 0 0 1.646485,-1.636719 V 16.636719 C 51.117188,15.735075 50.37824,15 49.470703,15 Z m 9.882813,0 c -0.907537,0 -1.648438,0.735075 -1.648438,1.636719 v 3.271484 a 1.6470714,1.6363766 0 0 0 1.648438,1.636719 h 3.291015 A 1.6470714,1.6363766 0 0 0 61,19.908203 V 16.636719 C 61,15.735075 60.259098,15 59.351562,15 Z M 6.6484375,24.818359 C 5.7409011,24.818359 5,25.553434 5,26.455078 v 3.271484 a 1.6470714,1.6363766 0 0 0 1.6484375,1.636719 h 3.2910156 a 1.6470714,1.6363766 0 0 0 1.6484379,-1.636719 v -3.271484 c 0,-0.901644 -0.740901,-1.636719 -1.6484379,-1.636719 z m 9.8808595,0 c -0.907537,0 -1.646484,0.735075 -1.646485,1.636719 v 3.271484 a 1.6470714,1.6363766 0 0 0 1.646485,1.636719 h 3.292969 a 1.6470714,1.6363766 0 0 0 1.648437,-1.636719 v -3.271484 c 0,-0.901644 -0.740901,-1.636719 -1.648437,-1.636719 z m 9.882812,0 c -0.907536,0 -1.646484,0.735075 -1.646484,1.636719 v 3.271484 a 1.6470714,1.6363766 0 0 0 1.646484,1.636719 h 3.292969 a 1.6470714,1.6363766 0 0 0 1.646484,-1.636719 v -3.271484 c 0,-0.901644 -0.738947,-1.636719 -1.646484,-1.636719 z m 9.882813,0 c -0.907537,0 -1.646485,0.735075 -1.646484,1.636719 v 3.271484 a 1.6470714,1.6363766 0 0 0 1.646484,1.636719 h 3.292969 a 1.6470714,1.6363766 0 0 0 1.646484,-1.636719 v -3.271484 c 0,-0.901644 -0.738948,-1.636719 -1.646484,-1.636719 z m 9.882812,0 c -0.907536,0 -1.648437,0.735075 -1.648437,1.636719 v 3.271484 a 1.6470714,1.6363766 0 0 0 1.648437,1.636719 h 3.292969 a 1.6470714,1.6363766 0 0 0 1.646485,-1.636719 v -3.271484 c 0,-0.901644 -0.738948,-1.636719 -1.646485,-1.636719 z m 9.882813,0 c -0.907537,0 -1.648438,0.735075 -1.648438,1.636719 v 3.271484 a 1.6470714,1.6363766 0 0 0 1.648438,1.636719 h 3.291015 A 1.6470714,1.6363766 0 0 0 61,29.726562 v -3.271484 c 0,-0.901644 -0.740902,-1.636719 -1.648438,-1.636719 z M 6.6484375,34.636719 C 5.7409011,34.63672 5,35.371794 5,36.273438 v 3.271484 a 1.6470714,1.6363766 0 0 0 1.6484375,1.636719 h 3.2910156 a 1.6470714,1.6363766 0 0 0 1.6484379,-1.636719 v -3.271484 c 0,-0.901644 -0.740901,-1.636719 -1.6484379,-1.636719 z m 9.8808595,0 c -0.907537,10e-7 -1.646484,0.735075 -1.646485,1.636719 v 3.271484 a 1.6470714,1.6363766 0 0 0 1.646485,1.636719 h 3.292969 a 1.6470714,1.6363766 0 0 0 1.648437,-1.636719 v -3.271484 c 0,-0.901644 -0.740901,-1.636719 -1.648437,-1.636719 z m 9.882812,0 c -0.907536,10e-7 -1.646484,0.735075 -1.646484,1.636719 v 3.271484 a 1.6470714,1.6363766 0 0 0 1.646484,1.636719 h 3.292969 a 1.6470714,1.6363766 0 0 0 1.646484,-1.636719 v -3.271484 c 0,-0.901644 -0.738947,-1.636719 -1.646484,-1.636719 z m 9.882813,0 c -0.907537,10e-7 -1.646485,0.735075 -1.646484,1.636719 v 3.271484 a 1.6470714,1.6363766 0 0 0 1.646484,1.636719 h 3.292969 a 1.6470714,1.6363766 0 0 0 1.646484,-1.636719 v -3.271484 c 0,-0.901644 -0.738948,-1.636719 -1.646484,-1.636719 z m 9.882812,0 c -0.907536,10e-7 -1.648437,0.735075 -1.648437,1.636719 v 3.271484 a 1.6470714,1.6363766 0 0 0 1.648437,1.636719 h 3.292969 a 1.6470714,1.6363766 0 0 0 1.646485,-1.636719 v -3.271484 c 0,-0.901644 -0.738948,-1.636719 -1.646485,-1.636719 z m 9.882813,0 c -0.907537,10e-7 -1.648438,0.735075 -1.648438,1.636719 v 3.271484 a 1.6470714,1.6363766 0 0 0 1.648438,1.636719 h 3.291015 A 1.6470714,1.6363766 0 0 0 61,39.544922 v -3.271484 c 0,-0.901644 -0.740902,-1.636719 -1.648438,-1.636719 z m -39.53125,9.818359 c -0.907536,0 -1.646485,0.735075 -1.646485,1.636719 v 3.271484 A 1.6470714,1.6363766 0 0 0 16.529297,51 h 32.941406 a 1.6470714,1.6363766 0 0 0 1.646485,-1.636719 v -3.271484 c 0,-0.901644 -0.738949,-1.636719 -1.646485,-1.636719 z"
     id="path1342"
     inkscape:connector-curvature="0" />
  <path
     d="M 5.6475075,14 C 4.7399711,14 4,14.735166 4,15.63681 v 3.271094 a 1.6470714,1.6363766 0 0 0 1.6475075,1.63681 h 3.2924723 a 1.6470714,1.6363766 0 0 0 1.6475072,-1.63681 V 15.63681 C 10.587487,14.735166 9.8475162,14 8.9399798,14 Z m 9.8825025,0 c -0.907537,0 -1.647508,0.735166 -1.647508,1.63681 v 3.271094 a 1.6470714,1.6363766 0 0 0 1.647508,1.63681 h 3.292473 a 1.6470714,1.6363766 0 0 0 1.647507,-1.63681 V 15.63681 C 20.46999,14.735166 19.730019,14 18.822483,14 Z M 5.6475075,23.818334 C 4.7399711,23.818334 4,24.553499 4,25.455143 v 3.271094 a 1.6470714,1.6363766 0 0 0 1.6475075,1.636809 h 3.2924723 a 1.6470714,1.6363766 0 0 0 1.6475072,-1.636809 v -3.271094 c 0,-0.901644 -0.7399708,-1.636809 -1.6475072,-1.636809 z"
     id="path9"
     style="fill:#e94336;fill-opacity:1;stroke-width:1.64171529"
     inkscape:connector-curvature="0" />
  <path
     style="fill:#b3158f;fill-opacity:1;stroke-width:1.64171529"
     d="m 25.412512,14 c -0.907536,0 -1.647507,0.735166 -1.647507,1.63681 v 3.271094 a 1.6470714,1.6363766 0 0 0 1.647507,1.63681 h 3.292473 a 1.6470714,1.6363766 0 0 0 1.647507,-1.63681 V 15.63681 C 30.352492,14.735166 29.612522,14 28.704985,14 Z m 9.882503,0 c -0.907537,0 -1.647508,0.735166 -1.647508,1.63681 v 3.271094 a 1.6470714,1.6363766 0 0 0 1.647508,1.63681 h 3.292473 a 1.6470714,1.6363766 0 0 0 1.647507,-1.63681 V 15.63681 C 40.234995,14.735166 39.495024,14 38.587488,14 Z m 9.882502,0 c -0.907536,0 -1.647507,0.735166 -1.647507,1.63681 v 3.271094 a 1.6470714,1.6363766 0 0 0 1.647507,1.63681 h 3.292473 a 1.6470714,1.6363766 0 0 0 1.647507,-1.63681 V 15.63681 C 50.117497,14.735166 49.377527,14 48.46999,14 Z"
     id="path11"
     inkscape:connector-curvature="0" />
  <path
     style="fill:#1d78df;fill-opacity:1;stroke-width:1.64171529"
     d="m 55.06002,14 c -0.907537,0 -1.647508,0.735166 -1.647508,1.63681 v 3.271094 a 1.6470714,1.6363766 0 0 0 1.647508,1.63681 h 3.292472 A 1.6470714,1.6363766 0 0 0 60,18.907904 V 15.63681 C 60,14.735166 59.260028,14 58.352492,14 Z m 0,9.818334 c -0.907537,0 -1.647508,0.735165 -1.647508,1.636809 v 3.271094 a 1.6470714,1.6363766 0 0 0 1.647508,1.636809 h 3.292472 A 1.6470714,1.6363766 0 0 0 60,28.726237 v -3.271094 c 0,-0.901644 -0.739972,-1.636809 -1.647508,-1.636809 z m 0,9.818331 c -0.907537,10e-7 -1.647508,0.735167 -1.647508,1.636811 v 3.271093 a 1.6470714,1.6363766 0 0 0 1.647508,1.636809 h 3.292472 A 1.6470714,1.6363766 0 0 0 60,38.544569 v -3.271093 c 0,-0.901644 -0.739972,-1.636811 -1.647508,-1.636811 z"
     id="path13"
     inkscape:connector-curvature="0" />
  <path
     d="m 15.53001,23.818334 c -0.907537,0 -1.647508,0.735165 -1.647508,1.636809 v 3.271094 a 1.6470714,1.6363766 0 0 0 1.647508,1.636809 h 3.292473 a 1.6470714,1.6363766 0 0 0 1.647507,-1.636809 v -3.271094 c 0,-0.901644 -0.739971,-1.636809 -1.647507,-1.636809 z m 9.882502,0 c -0.907536,0 -1.647507,0.735165 -1.647507,1.636809 v 3.271094 a 1.6470714,1.6363766 0 0 0 1.647507,1.636809 h 3.292473 a 1.6470714,1.6363766 0 0 0 1.647507,-1.636809 v -3.271094 c 0,-0.901644 -0.73997,-1.636809 -1.647507,-1.636809 z M 5.6475075,33.636665 C 4.7399711,33.636666 4,34.371832 4,35.273476 v 3.271093 a 1.6470714,1.6363766 0 0 0 1.6475075,1.636809 h 3.2924723 a 1.6470714,1.6363766 0 0 0 1.6475072,-1.636809 v -3.271093 c 0,-0.901644 -0.7399708,-1.636811 -1.6475072,-1.636811 z m 9.8825025,0 c -0.907537,10e-7 -1.647508,0.735167 -1.647508,1.636811 v 3.271093 a 1.6470714,1.6363766 0 0 0 1.647508,1.636809 h 3.292473 a 1.6470714,1.6363766 0 0 0 1.647507,-1.636809 v -3.271093 c 0,-0.901644 -0.739971,-1.636811 -1.647507,-1.636811 z m 9.882502,0 c -0.907536,10e-7 -1.647507,0.735167 -1.647507,1.636811 v 3.271093 a 1.6470714,1.6363766 0 0 0 1.647507,1.636809 h 3.292473 a 1.6470714,1.6363766 0 0 0 1.647507,-1.636809 v -3.271093 c 0,-0.901644 -0.73997,-1.636811 -1.647507,-1.636811 z m 9.882503,0 c -0.907537,10e-7 -1.647508,0.735167 -1.647508,1.636811 v 3.271093 a 1.6470714,1.6363766 0 0 0 1.647508,1.636809 h 3.292473 a 1.6470714,1.6363766 0 0 0 1.647507,-1.636809 v -3.271093 c 0,-0.901644 -0.739971,-1.636811 -1.647507,-1.636811 z"
     id="path15"
     style="fill:#ffd95d;fill-opacity:1;stroke-width:1.29750121"
     inkscape:connector-curvature="0" />
  <path
     style="fill:#00c321;fill-opacity:1;stroke-width:1.64171529"
     d="m 35.295015,23.818334 c -0.907537,0 -1.647508,0.735165 -1.647508,1.636809 v 3.271094 a 1.6470714,1.6363766 0 0 0 1.647508,1.636809 h 3.292473 a 1.6470714,1.6363766 0 0 0 1.647507,-1.636809 v -3.271094 c 0,-0.901644 -0.739971,-1.636809 -1.647507,-1.636809 z m 9.882502,0 c -0.907536,0 -1.647507,0.735165 -1.647507,1.636809 v 3.271094 a 1.6470714,1.6363766 0 0 0 1.647507,1.636809 h 3.292473 a 1.6470714,1.6363766 0 0 0 1.647507,-1.636809 v -3.271094 c 0,-0.901644 -0.73997,-1.636809 -1.647507,-1.636809 z m 0,9.818331 c -0.907536,10e-7 -1.647507,0.735167 -1.647507,1.636811 v 3.271093 a 1.6470714,1.6363766 0 0 0 1.647507,1.636809 h 3.292473 a 1.6470714,1.6363766 0 0 0 1.647507,-1.636809 v -3.271093 c 0,-0.901644 -0.73997,-1.636811 -1.647507,-1.636811 z"
     id="path17"
     inkscape:connector-curvature="0" />
  <path
     d="m 15.529234,43.454493 h 32.941428 c 0.907536,0 1.647071,0.734733 1.647071,1.636377 v 3.272754 A 1.6470714,1.6363766 0 0 1 48.470662,50 H 15.529234 A 1.6470714,1.6363766 0 0 1 13.882163,48.363624 V 45.09087 c 0,-0.901644 0.739535,-1.636377 1.647071,-1.636377"
     id="path25"
     style="fill:#757575;stroke-width:1.64171529;fill-opacity:1"
     inkscape:connector-curvature="0" />
</svg>
