<?xml version="1.0" encoding="UTF-8" standalone="no"?>
<svg
   xmlns:dc="http://purl.org/dc/elements/1.1/"
   xmlns:cc="http://creativecommons.org/ns#"
   xmlns:rdf="http://www.w3.org/1999/02/22-rdf-syntax-ns#"
   xmlns:svg="http://www.w3.org/2000/svg"
   xmlns="http://www.w3.org/2000/svg"
   xmlns:xlink="http://www.w3.org/1999/xlink"
   xmlns:sodipodi="http://sodipodi.sourceforge.net/DTD/sodipodi-0.dtd"
   xmlns:inkscape="http://www.inkscape.org/namespaces/inkscape"
   viewBox="0 0 64 64"
   version="1.1"
   id="svg9"
   sodipodi:docname="emacs.svg"
   width="64"
   height="64"
   inkscape:version="0.92.4 5da689c313, 2019-01-14">
  <metadata
     id="metadata15">
    <rdf:RDF>
      <cc:Work
         rdf:about="">
        <dc:format>image/svg+xml</dc:format>
        <dc:type
           rdf:resource="http://purl.org/dc/dcmitype/StillImage" />
        <dc:title></dc:title>
      </cc:Work>
    </rdf:RDF>
  </metadata>
  <defs
     id="defs13">
    <linearGradient
       inkscape:collect="always"
       xlink:href="#a"
       id="linearGradient839"
       x1="11.18898"
       y1="31.999765"
       x2="58.838036"
       y2="31.999765"
       gradientUnits="userSpaceOnUse"
       gradientTransform="matrix(1.0073652,0,0,1.0073309,-3.2713894,0.76564861)" />
    <linearGradient
       id="linearGradient871"
       gradientUnits="userSpaceOnUse"
       x1="7.9826369"
       x2="43.441353"
       y1="9.5418625"
       y2="41.066063"
       gradientTransform="matrix(1.3210894,0,0,1.3210894,1.9862715,-1.0268099)">
      <stop
         offset="0"
         stop-color="#d852ff"
         id="stop2-1"
         style="stop-color:#ad00e0;stop-opacity:1" />
      <stop
         offset="1"
         stop-color="#8700d4"
         stop-opacity=".604"
         id="stop4-0"
         style="stop-color:#7400b9;stop-opacity:0.60392159" />
    </linearGradient>
  </defs>
  <sodipodi:namedview
     pagecolor="#ffffff"
     bordercolor="#666666"
     borderopacity="1"
     objecttolerance="10"
     gridtolerance="10"
     guidetolerance="10"
     inkscape:pageopacity="0"
     inkscape:pageshadow="2"
     inkscape:window-width="1366"
     inkscape:window-height="700"
     id="namedview11"
     showgrid="true"
     inkscape:zoom="6.9532167"
     inkscape:cx="17.608006"
     inkscape:cy="30.591013"
     inkscape:window-x="0"
     inkscape:window-y="0"
     inkscape:window-maximized="1"
     inkscape:current-layer="svg9">
    <inkscape:grid
       type="xygrid"
       id="grid841" />
  </sodipodi:namedview>
  <linearGradient
     id="a"
     gradientUnits="userSpaceOnUse"
     x1="7.9826369"
     x2="43.441353"
     y1="9.5418625"
     y2="41.066063"
     gradientTransform="matrix(1.3210894,0,0,1.3210894,1.9862715,-1.0268099)">
    <stop
       style="stop-color:#7400b9;stop-opacity:0.60392159"
       id="stop4"
       stop-opacity=".604"
       stop-color="#8700d4"
       offset="0" />
    <stop
       style="stop-color:#ad00e0;stop-opacity:1"
       id="stop2"
       stop-color="#d852ff"
       offset="1" />
  </linearGradient>
  <path
     d="M 48.000443,7 H 34.000222 c 4.261284,0.9887652 14.000221,3.225797 14.000221,4.999719 0,3.779398 -18.000664,-0.999411 -22.001108,-0.999411 -2.000221,0 -5.994012,0.335354 -5.999334,2.999564 -0.01597,6.999873 9.403571,13.000333 16.000443,17.00064 -4.59399,-1.332105 -8.80071,-2.000154 -12.801153,-2.000154 C 17.999778,29.000358 8,31.000512 8,38.000384 c 0,6.192092 12.536321,11.883814 15.999114,12.999002 6.020627,1.940269 16.000443,2.99025 16.000443,4.000308 0,0.999411 -7.999557,2.000153 -17.999335,2.000153 H 15.999557 C 20.000001,59 25.999335,59 32,59 l 6.000665,-0.004 c 3.999113,-0.0026 14.000222,-0.139731 14.000222,-3.595752 0,-3.016865 -12.00133,-5.562636 -18.000665,-6.800256 -8.368194,-1.725977 -14.446046,-5.08352 -14.000221,-7.600014 1.064655,-6.020422 16.000443,-6.00046 28.000442,-6.00046 -5.234112,-4.201284 -18.000664,-11.99962 -18.000664,-15.399748 0,-1.455867 2.000221,-1.789892 4.000443,-1.799207 7.999556,-0.03992 14.000221,1.699399 16.000444,1.699399 C 53.999778,19.499962 56,17.000768 56,13.999872 56,9.000153 50.000666,7 48.000443,7 Z"
     id="path7"
     inkscape:connector-curvature="0"
     style="fill:url(#linearGradient839);fill-opacity:1;stroke:none;stroke-width:2.39543438;stroke-linecap:round;stroke-linejoin:round" />
  <path
     inkscape:connector-curvature="0"
     style="fill:#ffffff;fill-opacity:0.18595041;stroke:none;stroke-width:2.39543438;stroke-linecap:round;stroke-linejoin:round"
     d="M 35,7 V 7.2382812 C 39.58192,8.3054795 48,10.337332 48,12 c 0,2.326987 -6.821479,1.406147 -13,0.357422 v 5.464844 C 42.486703,17.924479 48.085925,19.5 50,19.5 c 3.999112,0 6,-2.499104 6,-5.5 0,-4.999719 -5.999777,-7 -8,-7 z m 0,18.398438 v 4.984374 C 35.331311,30.585801 35.680536,30.806279 36,31 35.663172,30.90233 35.332736,30.815137 35,30.724609 v 4.544922 C 39.215323,35.010873 43.779844,35 48,35 44.893427,32.506436 39.169352,28.754616 35,25.398438 Z m 0,23.417968 v 4.679688 c 2.85767,0.562755 5,1.040237 5,1.503906 0,0.485449 -1.912739,0.968608 -5,1.339844 v 2.658203 l 3,-0.002 c 3.999113,-0.0026 14,-0.139682 14,-3.595703 0,-2.875735 -10.783589,-5.289341 -17,-6.583985 z"
     id="path7-9" />
</svg>
