<?xml version="1.0" encoding="UTF-8" standalone="no"?>
<svg
   xmlns:dc="http://purl.org/dc/elements/1.1/"
   xmlns:cc="http://creativecommons.org/ns#"
   xmlns:rdf="http://www.w3.org/1999/02/22-rdf-syntax-ns#"
   xmlns:svg="http://www.w3.org/2000/svg"
   xmlns="http://www.w3.org/2000/svg"
   xmlns:xlink="http://www.w3.org/1999/xlink"
   xmlns:sodipodi="http://sodipodi.sourceforge.net/DTD/sodipodi-0.dtd"
   xmlns:inkscape="http://www.inkscape.org/namespaces/inkscape"
   viewBox="0 0 64 64"
   version="1.1"
   id="svg52"
   sodipodi:docname="falkon.svg"
   width="64"
   height="64"
   inkscape:version="0.92.4 5da689c313, 2019-01-14">
  <metadata
     id="metadata58">
    <rdf:RDF>
      <cc:Work
         rdf:about="">
        <dc:format>image/svg+xml</dc:format>
        <dc:type
           rdf:resource="http://purl.org/dc/dcmitype/StillImage" />
        <dc:title></dc:title>
      </cc:Work>
    </rdf:RDF>
  </metadata>
  <defs
     id="defs56">
    <filter
       inkscape:collect="always"
       style="color-interpolation-filters:sRGB"
       id="filter886"
       x="-0.059596081"
       width="1.1191922"
       y="-0.060409431"
       height="1.1208189">
      <feGaussianBlur
         inkscape:collect="always"
         stdDeviation="1.3022958"
         id="feGaussianBlur888" />
    </filter>
  </defs>
  <sodipodi:namedview
     pagecolor="#ffffff"
     bordercolor="#666666"
     borderopacity="1"
     objecttolerance="10"
     gridtolerance="10"
     guidetolerance="10"
     inkscape:pageopacity="0"
     inkscape:pageshadow="2"
     inkscape:window-width="1366"
     inkscape:window-height="699"
     id="namedview54"
     showgrid="false"
     inkscape:zoom="6.9532167"
     inkscape:cx="17.914653"
     inkscape:cy="28.776631"
     inkscape:window-x="0"
     inkscape:window-y="0"
     inkscape:window-maximized="1"
     inkscape:current-layer="svg52" />
  <linearGradient
     id="s"
     x1="24"
     x2="44"
     y1="24"
     y2="44"
     gradientUnits="userSpaceOnUse"
     gradientTransform="matrix(1.3117125,0,0,1.3117685,1.2079671,-0.68681459)">
    <stop
       stop-color="#292c2f"
       offset="0"
       id="stop2" />
    <stop
       stop-opacity="0"
       offset="1"
       id="stop4" />
  </linearGradient>
  <linearGradient
     id="t"
     x1="189.34399"
     x2="-27.879999"
     y1="-34.772999"
     y2="126.119"
     gradientTransform="matrix(0.41595717,0,0,0.41045236,6.8116031,4.8973839)"
     gradientUnits="userSpaceOnUse">
    <stop
       stop-color="#d446ff"
       offset="0"
       id="stop7" />
    <stop
       stop-color="#a0d8ff"
       offset="1"
       id="stop9" />
  </linearGradient>
  <linearGradient
     id="l">
    <stop
       stop-color="#fff"
       offset="0"
       id="stop12" />
    <stop
       stop-color="#dadada"
       offset="1"
       id="stop14" />
  </linearGradient>
  <linearGradient
     id="r"
     x1="49.298"
     x2="95.398003"
     y1="81.098"
     y2="56.09"
     gradientTransform="matrix(0.37868,0,0,0.26203,4.272,4.257)"
     gradientUnits="userSpaceOnUse"
     xlink:href="#l" />
  <linearGradient
     id="q"
     x1="61.021"
     x2="27.009001"
     y1="119.444"
     y2="77.337997"
     gradientTransform="matrix(0.35013,0,0,0.2834,4.272,4.257)"
     gradientUnits="userSpaceOnUse"
     xlink:href="#l" />
  <linearGradient
     id="p"
     x1="87.486"
     x2="39.143002"
     y1="37.283001"
     y2="58.523998"
     gradientTransform="matrix(0.42584,0,0,0.23301,4.272,4.257)"
     gradientUnits="userSpaceOnUse">
    <stop
       stop-color="#d0d0d0"
       offset="0"
       id="stop19" />
    <stop
       stop-color="#fff"
       offset="1"
       id="stop21" />
  </linearGradient>
  <linearGradient
     id="k">
    <stop
       stop-color="#ffdc68"
       offset="0"
       id="stop24" />
    <stop
       stop-color="#ce4300"
       offset="1"
       id="stop26" />
  </linearGradient>
  <linearGradient
     id="o"
     x1="39.132"
     x2="-14.568"
     y1="94.823997"
     y2="160.96001"
     gradientTransform="matrix(0.36573,0,0,0.2713,4.272,4.257)"
     gradientUnits="userSpaceOnUse"
     xlink:href="#k" />
  <linearGradient
     id="n"
     x1="24.438999"
     x2="12.066"
     y1="54.424"
     y2="58.196999"
     gradientTransform="matrix(0.67462,0,0,0.14709,4.272,4.257)"
     gradientUnits="userSpaceOnUse"
     xlink:href="#k" />
  <linearGradient
     id="m"
     x1="32.174"
     x2="-13.135"
     y1="91.75"
     y2="161.326"
     gradientTransform="matrix(0.47125,0,0,0.21056,4.272,4.257)"
     gradientUnits="userSpaceOnUse"
     xlink:href="#k" />
  <ellipse
     style="fill:#000000;stroke:none;stroke-width:0.55800003;stroke-opacity:1;fill-opacity:1;filter:url(#filter886);opacity:0.25"
     id="ellipse868"
     ry="25.869387"
     rx="26.222445"
     cy="30.795631"
     cx="33.041916" />
  <ellipse
     cx="33.041916"
     cy="30.795631"
     rx="26.222445"
     ry="25.869387"
     id="ellipse32"
     style="fill:url(#t);stroke:none;stroke-width:0.55800003;stroke-opacity:1" />
  <path
     d="m 53.002248,24.874306 -22.936606,-9.819898 -11.510277,0.634895 6.263427,6.244018 -11.103646,14.665572 2.06857,2.067348 2.476514,3.935305 -0.612571,9.104985 a 26.234251,26.23537 0 0 0 1.045435,0.717537 l 31.091523,-1.75777 0.0053,0.0053 c 5.900073,-4.837812 9.356435,-11.981703 9.458749,-19.550607 z"
     id="path34"
     inkscape:connector-curvature="0"
     style="opacity:0.4;fill:url(#s);stroke-width:1" />
  <g
     id="g50"
     style="fill-rule:evenodd;stroke-width:2.40901303"
     transform="matrix(1.3117125,0,0,1.3117685,1.2079671,-0.68681539)">
    <path
       d="m 11.262,43.28 c 0,0 6.247,-21.963 30.565,-19.17 0,0 -15.455,-9.218 -30.458,3.209 -4.432,10.312 -0.107,15.96 -0.107,15.96 z"
       id="path36"
       inkscape:connector-curvature="0"
       style="fill:url(#r);stroke-width:2.40901303" />
    <path
       d="m 13.122,40.502 c 0,0 6.518,-15.79 23.918,-16.067 -13.226,3.237 0.022,14.714 0.022,14.714 0,0 -10.462,9.523 -23.94,1.353 z"
       id="path38"
       inkscape:connector-curvature="0"
       style="fill:url(#q);stroke-width:2.40901303" />
    <path
       d="m 9.492,28.398 c 0,0 13.02,-14.388 32.463,-4.447 -0.348,-2.704 -2.648,-5.756 -6.77,-6.628 -0.912,-0.436 -7.595,-10.813 -21.96,-4.84 4.419,0.346 6.315,0.968 6.423,1.44 -7.643,-1.32 -9.908,9.606 -10.156,14.475 z"
       id="path40"
       inkscape:connector-curvature="0"
       style="fill:url(#p);stroke-width:2.40901303" />
    <path
       d="m 28.165,16.192 c 0,0 3.331,-1.198 3.765,2.367 -3.285,0.31 -3.765,-2.367 -3.765,-2.367 z"
       id="path42"
       inkscape:connector-curvature="0"
       style="fill:#202020;stroke-width:2.40901303" />
    <path
       d="m 11.175,43.35 c 0,0 5.694,-18.662 24.734,-19.385 0,0 -15.45,-2.832 -26.362,14.534 -0.06,2.457 1.628,4.852 1.628,4.852 z"
       id="path44"
       inkscape:connector-curvature="0"
       style="fill:url(#o);stroke-width:2.40901303" />
    <path
       d="m 13.24,12.485 c 0,0 4.75,0.278 6.445,1.45 0.708,-0.147 1.31,-0.634 1.411,-1.297 -0.607,-0.253 -6.167,-0.707 -7.855,-0.153 z"
       id="path46"
       inkscape:connector-curvature="0"
       style="fill:url(#n);stroke-width:2.40901303" />
    <path
       d="m 9.535,28.423 c 0,0 5.946,-7.175 17.948,-8.032 0,0 -16.34,0.742 -17.71,5.377 -0.382,1.115 -0.238,2.655 -0.238,2.655 z"
       id="path48"
       inkscape:connector-curvature="0"
       style="fill:url(#m);stroke-width:2.40901303" />
  </g>
</svg>
