<?xml version="1.0" encoding="UTF-8" standalone="no"?>
<svg
   xmlns:dc="http://purl.org/dc/elements/1.1/"
   xmlns:cc="http://creativecommons.org/ns#"
   xmlns:rdf="http://www.w3.org/1999/02/22-rdf-syntax-ns#"
   xmlns:svg="http://www.w3.org/2000/svg"
   xmlns="http://www.w3.org/2000/svg"
   xmlns:xlink="http://www.w3.org/1999/xlink"
   xmlns:sodipodi="http://sodipodi.sourceforge.net/DTD/sodipodi-0.dtd"
   xmlns:inkscape="http://www.inkscape.org/namespaces/inkscape"
   viewBox="0 0 64 64"
   version="1.1"
   id="svg23"
   sodipodi:docname="ibus.svg"
   width="64"
   height="64"
   inkscape:version="0.92.4 5da689c313, 2019-01-14">
  <metadata
     id="metadata29">
    <rdf:RDF>
      <cc:Work
         rdf:about="">
        <dc:format>image/svg+xml</dc:format>
        <dc:type
           rdf:resource="http://purl.org/dc/dcmitype/StillImage" />
        <dc:title></dc:title>
      </cc:Work>
    </rdf:RDF>
  </metadata>
  <defs
     id="defs27">
    <linearGradient
       inkscape:collect="always"
       xlink:href="#a"
       id="linearGradient844"
       gradientUnits="userSpaceOnUse"
       x1="11.274"
       y1="-13.248"
       x2="39.273998"
       y2="-13.248" />
  </defs>
  <sodipodi:namedview
     pagecolor="#ffffff"
     bordercolor="#666666"
     borderopacity="1"
     objecttolerance="10"
     gridtolerance="10"
     guidetolerance="10"
     inkscape:pageopacity="0"
     inkscape:pageshadow="2"
     inkscape:window-width="1366"
     inkscape:window-height="700"
     id="namedview25"
     showgrid="false"
     inkscape:zoom="2.4583333"
     inkscape:cx="5.6481176"
     inkscape:cy="49.291584"
     inkscape:window-x="0"
     inkscape:window-y="0"
     inkscape:window-maximized="1"
     inkscape:current-layer="g21" />
  <linearGradient
     gradientUnits="userSpaceOnUse"
     x1="11.274"
     x2="39.273998"
     y1="-13.248"
     y2="-13.248"
     id="linearGradient6">
    <stop
       offset="0"
       stop-color="#1f081d"
       id="stop2" />
    <stop
       offset="1"
       stop-color="#ebff00"
       id="stop4" />
  </linearGradient>
  <linearGradient
     id="a"
     gradientUnits="userSpaceOnUse"
     x1="11.274"
     x2="39.273998"
     y1="-13.248"
     y2="-13.248">
    <stop
       offset="0"
       stop-color="#00ff56"
       id="stop8" />
    <stop
       offset="1"
       stop-color="#ebff00"
       id="stop10" />
  </linearGradient>
  <g
     transform="matrix(2,0,0,2,-18.548,58.496)"
     id="g21"
     style="fill:url(#linearGradient844);stroke-width:0.64609998">
    <path
       d="m 22.274,-12.248 c -0.554,0 -1,0.446 -1,1 v 6 c 0,0.554 0.446,1 1,1 h 6 c 0.554,0 1,-0.446 1,-1 v -6 c 0,-0.554 -0.446,-1 -1,-1 z m 2,2 h 2 v 2 h 1 l -2,2.5 -2,-2.5 h 1 z"
       id="path13"
       inkscape:connector-curvature="0"
       style="fill:#103f91;fill-opacity:1;stroke-width:0.64609998" />
    <path
       d="m 22.274,-14.248 c -0.554,0 -1,-0.446 -1,-1 v -6 c 0,-0.554 0.446,-1 1,-1 h 6 c 0.554,0 1,0.446 1,1 v 6 c 0,0.554 -0.446,1 -1,1 z m 2,-2 h 2 v -2 h 1 l -2,-2.5 -2,2.5 h 1 z"
       id="path15"
       inkscape:connector-curvature="0"
       style="fill:#41a5ee;fill-opacity:1;stroke-width:0.64609998" />
    <path
       d="m 19.274,-5.248 c 0,0.554 -0.446,1 -1,1 h -6 c -0.554,0 -1,-0.446 -1,-1 v -6 c 0,-0.554 0.446,-1 1,-1 h 6 c 0.554,0 1,0.446 1,1 z m -2,-2 v -2 h -2 v -1 l -2.5,2 2.5,2 v -1 z"
       id="path17"
       inkscape:connector-curvature="0"
       style="fill:#1653b6;fill-opacity:1;stroke-width:0.64609998" />
    <path
       d="m 31.274,-5.248 c 0,0.554 0.446,1 1,1 h 6 c 0.554,0 1,-0.446 1,-1 v -6 c 0,-0.554 -0.446,-1 -1,-1 h -6 c -0.554,0 -1,0.446 -1,1 z m 2,-2 v -2 h 2 v -1 l 2.5,2 -2.5,2 v -1 z"
       id="path19"
       inkscape:connector-curvature="0"
       style="fill:#2b7cd3;fill-opacity:1;stroke-width:0.64609998" />
  </g>
</svg>
