<?xml version="1.0" encoding="UTF-8" standalone="no"?>
<svg
   xmlns:dc="http://purl.org/dc/elements/1.1/"
   xmlns:cc="http://creativecommons.org/ns#"
   xmlns:rdf="http://www.w3.org/1999/02/22-rdf-syntax-ns#"
   xmlns:svg="http://www.w3.org/2000/svg"
   xmlns="http://www.w3.org/2000/svg"
   xmlns:sodipodi="http://sodipodi.sourceforge.net/DTD/sodipodi-0.dtd"
   xmlns:inkscape="http://www.inkscape.org/namespaces/inkscape"
   viewBox="0 0 64 64"
   version="1.1"
   id="svg34"
   sodipodi:docname="inkscape.svg"
   width="64"
   height="64"
   inkscape:version="0.92.4 5da689c313, 2019-01-14">
  <metadata
     id="metadata38">
    <rdf:RDF>
      <cc:Work
         rdf:about="">
        <dc:format>image/svg+xml</dc:format>
        <dc:type
           rdf:resource="http://purl.org/dc/dcmitype/StillImage" />
        <dc:title></dc:title>
      </cc:Work>
    </rdf:RDF>
  </metadata>
  <sodipodi:namedview
     pagecolor="#ffffff"
     bordercolor="#666666"
     borderopacity="1"
     objecttolerance="10"
     gridtolerance="10"
     guidetolerance="10"
     inkscape:pageopacity="0"
     inkscape:pageshadow="2"
     inkscape:window-width="1366"
     inkscape:window-height="700"
     id="namedview36"
     showgrid="false"
     inkscape:zoom="9.8333333"
     inkscape:cx="24.296497"
     inkscape:cy="21.32236"
     inkscape:window-x="0"
     inkscape:window-y="0"
     inkscape:window-maximized="1"
     inkscape:current-layer="g32" />
  <defs
     id="defs10">
    <linearGradient
       x1="35"
       y1="1010.6"
       gradientTransform="matrix(0.9999897,0,0,0.99998369,1.8811522e-4,-1004.342)"
       x2="35"
       gradientUnits="userSpaceOnUse"
       y2="1048.4"
       id="b">
      <stop
         offset="0"
         stop-color="#2f2f2f"
         id="stop2" />
      <stop
         offset="1"
         id="stop4" />
    </linearGradient>
    <filter
       id="a"
       x="-0.059999999"
       width="1.12"
       y="-0.059999999"
       height="1.12"
       style="color-interpolation-filters:sRGB">
      <feGaussianBlur
         stdDeviation="1.4"
         id="feGaussianBlur7" />
    </filter>
    <filter
       inkscape:collect="always"
       style="color-interpolation-filters:sRGB"
       id="filter870"
       x="-0.060000001"
       width="1.12"
       y="-0.059999999"
       height="1.12">
      <feGaussianBlur
         inkscape:collect="always"
         stdDeviation="1.4"
         id="feGaussianBlur872" />
    </filter>
  </defs>
  <g
     id="g32"
     style="color:#000000;fill:none;stroke:none;stroke-width:5.60900021"
     transform="translate(0,16)">
    <path
       style="opacity:0.25;isolation:auto;mix-blend-mode:normal;solid-color:#000000;fill:#050505;fill-opacity:1;stroke-width:5.33398533;filter:url(#filter870)"
       d="m 31.998047,4 c -0.88254,0 -1.784422,0.1926781 -2.375,0.7832031 L 4.78125,29.628906 c -0.4413532,0.441313 -0.660012,1.060617 -0.7421875,1.710938 h -0.00195 c -0.023022,0.191834 -0.029455,0.384337 -0.03125,0.576172 -1.705e-4,0.01823 -0.00391,0.03646 -0.00391,0.05469 -5.83e-5,0.0098 -0.00194,0.01952 -0.00195,0.0293 0,1.104975 0.4472034,2.104471 1.171875,2.828125 1.7384511,1.738292 11.3124995,3.166472 11.3124995,4.451172 0,1.376288 -4.556102,1.516567 -5.390624,3.166015 -0.0017,-0.0028 -0.0061,-0.005 -0.0078,-0.0078 a 1.2002501,1.2001401 0 0 0 -0.09375,0.257812 c -0.0035,0.01414 -0.0067,0.02863 -0.0098,0.04297 a 1.2002501,1.2001401 0 0 0 -0.01953,0.355469 1.2002501,1.2001401 0 0 0 0,0.002 c 7.63e-4,0.0096 -0.0029,0.01764 -0.002,0.02734 0.252019,2.524707 13.168261,3.200065 13.433593,5.585937 0.227277,2.037175 -1.754822,2.693636 -2.289062,3.857422 -0.0025,-0.0036 -0.0073,-0.0061 -0.0098,-0.0098 a 1.344504,1.3443809 0 0 0 -0.0332,0.08008 c -0.0041,0.01034 -0.0078,0.02082 -0.01172,0.03125 a 1.344504,1.3443809 0 0 0 -0.0625,0.222656 c -0.0028,0.01496 -0.0055,0.02978 -0.0078,0.04492 a 1.344504,1.3443809 0 0 0 -0.002,0.0059 1.344504,1.3443809 0 0 0 -0.01172,0.238282 1.344504,1.3443809 0 0 0 0,0.0078 c 3.29e-4,0.01007 -0.0025,0.01914 -0.002,0.0293 0.09805,1.822641 5.874399,0.500362 6.78125,2.4375 2.29e-4,4.89e-4 -2.29e-4,0.0015 0,0.002 0.0032,0.0071 0.0028,0.01622 0.0059,0.02344 0.05484,0.123799 0.09432,0.258618 0.107422,0.410156 0.05213,0.608126 -0.02528,1.14183 -0.08008,1.611328 -6.56e-4,-0.0026 -0.0013,-0.0052 -0.002,-0.0078 -0.02639,0.229083 -0.03856,0.43553 -0.03516,0.63086 0.005,1.098764 0.713588,1.67566 5.256051,1.67566 4.248856,0 6.480927,-1.165977 6.857422,-2.496094 0.0023,-0.008 0.0076,-0.01539 0.0098,-0.02344 5.71e-4,-0.002 0.0014,-0.0039 0.002,-0.0059 0.01814,-0.06936 0.02712,-0.13891 0.03516,-0.208984 0.01001,-0.07404 0.0149,-0.148093 0.01367,-0.222656 -0.0013,-0.03529 -9e-5,-0.07013 -0.0039,-0.105469 -0.01136,-0.130248 -0.03283,-0.260656 -0.07813,-0.390625 -0.0013,0.0039 -0.0045,0.0078 -0.0059,0.01172 -0.202229,-0.559854 -0.717844,-1.108235 -1.539063,-1.574219 -1.430858,-0.81209 -1.610647,-1.387659 -1.007812,-1.929687 0.775074,-0.696894 2.84188,-1.337911 5.203125,-2.357422 2.715127,-1.171426 4.660887,-2.105394 4.486328,-3.417969 -0.0068,-0.06049 -0.01913,-0.121434 -0.03516,-0.183594 -0.0099,-0.03571 -0.01821,-0.07113 -0.03125,-0.107422 -0.0097,-0.02872 -0.0137,-0.05684 -0.02539,-0.08594 -0.002,0.0046 -0.0058,0.0091 -0.0078,0.01367 -0.259767,-0.632808 -0.977845,-1.354345 -2.308594,-2.228516 -1.972162,-1.295101 -2.244399,-2.24293 -1.478516,-3 0.984708,-0.973376 3.686784,-1.63144 6.695313,-2.302734 0.968649,-0.25213 1.814014,-0.522492 2.589844,-0.802735 C 59.979103,36.265822 60,33.041789 60,32.056641 c 0,-0.0085 -0.0019,-0.01691 -0.002,-0.02539 1.2e-5,-0.01272 0.002,-0.03483 0.002,-0.04687 -1.47e-4,-0.135394 -0.01532,-0.270643 -0.02539,-0.40625 v -0.02734 c -2.13e-4,0.0023 -0.0017,0.0055 -0.002,0.0078 -0.05728,-0.73379 -0.260723,-1.451379 -0.753906,-1.945313 L 34.376953,4.7636719 C 33.785422,4.1645889 32.842546,4 31.998047,4 Z m 25.5,39.998047 c -1.157831,6.18e-4 -3.512288,0.633203 -4.251953,1.486328 -0.0036,-0.0042 -0.01017,-0.0075 -0.01367,-0.01172 -0.02281,0.0268 -0.03632,0.05483 -0.05664,0.08203 -0.02877,0.03858 -0.05643,0.07779 -0.07813,0.117187 -0.01479,0.02583 -0.02754,0.05195 -0.03906,0.07813 -0.02419,0.05744 -0.03738,0.114983 -0.04492,0.173828 C 53.011921,45.94047 53,45.955884 53,45.972656 c 0,0.0046 0.0018,0.0091 0.002,0.01367 -8.1e-5,0.004 -0.002,0.0077 -0.002,0.01172 C 53,47.103022 56.11913,48 57.5,48 c 1.38087,0 2.5,-0.896978 2.5,-2.001953 0,-0.004 -0.0019,-0.0077 -0.002,-0.01172 4e-5,-0.0047 0.002,-0.009 0.002,-0.01367 0,-0.02241 -0.01055,-0.04228 -0.01172,-0.06445 -0.0075,-0.132181 -0.02833,-0.260471 -0.06641,-0.384765 -0.0049,-0.0164 -0.0045,-0.03452 -0.0098,-0.05078 -0.0015,0.0047 -0.0043,0.009 -0.0059,0.01367 C 59.622014,44.63251 58.657799,43.998769 57.5,43.998047 Z M 17.5,48 c -1.157099,0 -2.121351,0.630602 -2.40625,1.484375 -0.0016,-0.0047 -0.0043,-0.009 -0.0059,-0.01367 a 1.6176065,1.6174583 0 0 0 -0.0332,0.113281 c -0.0017,0.0065 -0.0023,0.01306 -0.0039,0.01953 a 1.6176065,1.6174583 0 0 0 -0.04883,0.367187 c 0,0.0026 -1.3e-5,0.0052 0,0.0078 C 15.001856,49.985805 15,49.992692 15,50 c 0,1.104025 1.11913,1.998047 2.5,1.998047 1.380872,0 3.5,-0.894022 3.5,-1.998047 0,-0.0033 -0.0019,-0.0065 -0.002,-0.0098 1.51e-4,-0.0066 0.0039,-0.01292 0.0039,-0.01953 a 1.0027759,1.0026841 0 0 0 -0.162109,-0.5 c -0.0027,0.0046 -0.007,0.0091 -0.0098,0.01367 C 20.317695,48.630463 18.657224,48 17.5,48 Z m 34,0.998047 c -1.162308,0 -2.129993,0.638752 -2.410156,1.498047 a 2.4999373,1.9997667 0 0 1 -0.0078,-0.02148 2.4999373,1.9997667 0 0 0 -0.03125,0.121094 2.4999373,1.9997667 0 0 0 -0.05078,0.375 2.4999373,1.9997667 0 0 0 0.002,0.01758 c -2.1e-5,0.0034 -0.002,0.0064 -0.002,0.0098 0,0.01133 0.0037,0.02192 0.0039,0.0332 a 2.4999373,1.9997667 0 0 0 0.03516,0.271484 c 0.01603,0.08352 0.03789,0.164365 0.06641,0.244141 a 2.4999373,1.9997667 0 0 0 0.01367,0.03125 C 49.431166,52.398521 50.372743,53 51.5,53 c 1.160523,0 2.126335,-0.636291 2.408203,-1.494141 0.01969,-0.05994 0.03804,-0.11964 0.05078,-0.18164 a 2.4999373,1.9997667 0 0 0 0.03711,-0.289063 C 53.996386,51.022566 54,51.010693 54,50.998047 c 0,-0.006 -0.0019,-0.01157 -0.002,-0.01758 a 2.4999373,1.9997667 0 0 0 0,-0.0098 2.4999373,1.9997667 0 0 0 -0.04883,-0.375 2.4999373,1.9997667 0 0 0 -0.0332,-0.121094 2.4999373,1.9997667 0 0 1 -0.0078,0.01758 C 53.626335,49.634902 52.660523,48.998047 51.5,48.998047 Z m -2.417969,1.476562 a 2.4999373,1.9997667 0 0 1 0,-0.0039 h -0.002 a 2.4999373,1.9997667 0 0 0 0.002,0.0039 z"
       transform="translate(0,-16)"
       id="path847"
       inkscape:connector-curvature="0" />
    <path
       style="isolation:auto;mix-blend-mode:normal;solid-color:#000000;fill:url(#b);stroke-width:5.33398533"
       d="M 29.622328,-11.217388 4.7818793,13.629343 C 4.1922515,14.218917 4.001098,15.124198 4.000147,16 c 0,1.104975 0.4469758,2.104398 1.1716474,2.828052 1.7384511,1.738292 11.3122946,3.166582 11.3122946,4.451282 0,1.545254 -5.755527,1.528138 -5.523482,3.843641 0.25202,2.524707 13.167721,3.199864 13.433053,5.585736 0.266285,2.386823 -2.51733,2.872746 -2.428885,4.507387 0.104611,1.944642 6.673255,0.310953 6.894841,2.873697 C 29.079299,42.652539 26.999435,44 33.998888,44 c 6.999452,0 8.559114,-3.159925 5.289532,-5.015181 -3.270533,-1.856206 -9.51e-4,-2.475259 4.196818,-4.287723 4.19872,-1.811513 6.585762,-3.048667 2.077962,-6.009848 -4.507799,-2.960231 -0.133142,-4.108949 5.215354,-5.302361 9.221017,-2.400136 9.221017,-6.299881 9.221017,-7.400102 -9.5e-4,-0.874851 -0.193054,-1.781083 -0.781732,-2.370657 L 34.37644,-11.236407 C 33.784909,-11.83549 32.843407,-12 31.998908,-12 c -0.88254,0 -1.786002,0.192087 -2.37658,0.782612 z m 27.877031,39.216166 c -1.38087,0 -4.500191,0.895771 -4.500191,1.999796 0,1.104975 3.119321,2.000747 4.500191,2.000747 1.38087,0 2.500212,-0.895772 2.500212,-2.000747 0,-1.104025 -1.119342,-1.999796 -2.501163,-1.999796 z M 17.49977,31.999321 c -1.38087,0 -2.49926,0.894821 -2.49926,1.999796 0,1.104025 1.11839,1.999796 2.49926,1.999796 1.380872,0 3.499726,-0.895771 3.499726,-1.999796 0,-1.104975 -2.118854,-1.999796 -3.499726,-1.999796 z m 33.999651,0.999423 c -1.38087,0 -2.500212,0.895771 -2.500212,1.999796 0,1.104975 1.119342,2.000747 2.500212,2.000747 1.380869,0 2.500212,-0.895772 2.500212,-2.000747 0,-1.104025 -1.119343,-1.999796 -2.500212,-1.999796 z"
       id="path20"
       inkscape:connector-curvature="0" />
    <path
       style="isolation:auto;mix-blend-mode:normal;solid-color:#000000;fill:#e7e5e5;stroke-width:7.85518551"
       d="m 32.000699,-9.999622 c -0.585419,0 -0.942554,0.17785 -0.963561,0.197456 L 19.118669,2.1194121 24.000899,7.0011954 35.000624,2.0017787 41.000473,5.0000283 45.510163,2.7453894 32.96426,-9.802166 c -0.02101,-0.01961 -0.378143,-0.196056 -0.963561,-0.196056 z"
       id="path22"
       inkscape:connector-curvature="0" />
    <path
       d="m 32.000699,-9.999622 c -0.585419,0 -0.942554,0.17785 -0.963561,0.197456 L 19.120069,2.1194121 19.620057,2.6193537 31.037138,-8.8022827 c 0.021,-0.019606 0.378142,-0.1960556 0.963561,-0.1960556 0.585418,0 0.942553,0.17645 0.963561,0.1960556 L 44.844915,3.0800843 45.510163,2.7467898 32.96426,-9.800766 c -0.02101,-0.02101 -0.378143,-0.198856 -0.963561,-0.198856 z"
       style="isolation:auto;mix-blend-mode:normal;solid-color:#000000;fill:#fcfcfc;stroke-width:7.85518551"
       id="path24"
       inkscape:connector-curvature="0" />
    <path
       inkscape:connector-curvature="0"
       id="path26"
       style="opacity:0.03;isolation:auto;mix-blend-mode:normal;solid-color:#000000;fill:#aeaeae;stroke-width:7.47005844"
       d="m 4,16.040757 c 0,0.347298 0.060222,0.677792 0.1442541,0.999883 H 59.904761 C 59.981788,16.624722 60,16.26342 60,16.040757 H 4.0014005 Z" />
    <path
       inkscape:connector-curvature="0"
       id="path28"
       style="isolation:auto;mix-blend-mode:normal;solid-color:#000000;fill:#aeaeae;stroke-width:7.47005844"
       d="m 4.0378142,15.340558 c -0.025209,0.21006 -0.036413,0.420119 -0.036413,0.630179 0,1.106313 0.448168,2.104796 1.170839,2.828802 1.5503813,1.550239 9.3190938,2.854008 10.9829168,4.028941 0.201676,-0.168047 0.329124,-0.355701 0.329124,-0.578364 0,-1.284164 -9.5739891,-2.712568 -11.3106403,-4.450461 a 3.9802924,3.9799278 0 0 1 -1.134426,-2.459097 z m 55.9369738,0.21006 c -0.140053,1.534835 -1.193249,4.736142 -9.194448,6.805928 -4.198774,0.936866 -7.777116,1.849925 -6.949407,3.629829 0.661049,-1.159529 3.614757,-1.886335 6.949407,-2.629945 9.219657,-2.300852 9.219657,-6.199557 9.219657,-7.300269 0,-0.140039 -0.014,-0.280079 -0.02521,-0.420119 z M 11.086657,26.437303 a 1.2002501,1.2001401 0 0 0 -0.124646,0.658186 c 0.246492,2.471701 12.613128,3.170499 13.39322,5.436341 0.05603,-0.254872 0.07563,-0.536352 0.04061,-0.850041 -0.252094,-2.274245 -11.988494,-2.995449 -13.30919,-5.244486 z m 42.146002,3.03606 c -0.13585,0.159645 -0.232487,0.326293 -0.232487,0.499942 0,1.104913 3.118969,1.999766 4.499887,1.999766 1.380918,0 2.499938,-0.896254 2.499938,-1.999766 0,-0.173649 -0.03641,-0.340297 -0.08824,-0.499942 -0.278705,0.861244 -1.247868,1.498425 -2.411705,1.498425 -1.162436,0 -3.543329,-0.637181 -4.2674,-1.498425 z m -5.354207,1.428405 c -0.431362,0.992881 -2.147005,1.79951 -4.392046,2.768584 -3.502714,1.512429 -6.34578,2.195823 -5.293986,3.45898 0.679255,-0.736608 2.819258,-1.390594 5.293986,-2.459096 2.950906,-1.274361 4.995672,-2.264442 4.392046,-3.767068 z m -32.790494,2.569728 a 1.6176065,1.6174583 0 0 0 -0.08683,0.499942 c 0,1.104913 1.119019,1.999766 2.499936,1.999766 1.379519,0 3.499913,-0.896254 3.499913,-1.999766 a 1.0027759,1.0026841 0 0 0 -0.16106,-0.499942 c -0.501388,0.861244 -2.175016,1.499825 -3.338853,1.499825 -1.163834,0 -2.134399,-0.638581 -2.413103,-1.499825 z m 33.993545,0.998483 a 2.4999373,1.9997667 0 0 0 -0.08123,0.501342 2.4999373,1.9997667 0 0 0 2.499937,1.999767 2.4999373,1.9997667 0 0 0 2.498537,-1.999767 2.4999373,1.9997667 0 0 0 -0.08263,-0.497141 2.4999373,1.9997667 0 0 1 -2.417307,1.498425 2.4999373,1.9997667 0 0 1 -2.418706,-1.502626 z M 22.096185,36.55657 a 1.344504,1.3443809 0 0 0 -0.130249,0.631579 c 0.103639,1.935349 6.606277,0.329093 6.886383,2.840005 0.02521,-0.301085 0.03781,-0.621776 0.0084,-0.966274 -0.205878,-2.376473 -5.852795,-1.152526 -6.764537,-2.50671 z m 18.737626,3.991131 c -0.438365,1.299568 -2.662399,2.422687 -6.831761,2.422687 -3.97049,0 -5.018082,-0.434123 -5.22396,-1.277162 -0.172264,1.495624 -0.09104,2.277045 5.22396,2.277045 5.221157,0 7.411579,-1.758898 6.831761,-3.42257 z" />
  </g>
</svg>
