<?xml version="1.0" encoding="UTF-8" standalone="no"?>
<svg
   xmlns:dc="http://purl.org/dc/elements/1.1/"
   xmlns:cc="http://creativecommons.org/ns#"
   xmlns:rdf="http://www.w3.org/1999/02/22-rdf-syntax-ns#"
   xmlns:svg="http://www.w3.org/2000/svg"
   xmlns="http://www.w3.org/2000/svg"
   xmlns:sodipodi="http://sodipodi.sourceforge.net/DTD/sodipodi-0.dtd"
   xmlns:inkscape="http://www.inkscape.org/namespaces/inkscape"
   viewBox="0 0 64 64"
   version="1.1"
   id="svg17"
   sodipodi:docname="kcachegrind.svg"
   width="64"
   height="64"
   inkscape:version="0.92.4 5da689c313, 2019-01-14">
  <metadata
     id="metadata23">
    <rdf:RDF>
      <cc:Work
         rdf:about="">
        <dc:format>image/svg+xml</dc:format>
        <dc:type
           rdf:resource="http://purl.org/dc/dcmitype/StillImage" />
        <dc:title></dc:title>
      </cc:Work>
    </rdf:RDF>
  </metadata>
  <defs
     id="defs21">
    <linearGradient
       id="a-2"
       gradientTransform="matrix(-1.3528216,-0.36248003,0.36248723,-1.3527947,55.768289,73.160135)"
       gradientUnits="userSpaceOnUse"
       x1="394.57169"
       x2="422.57166"
       y1="525.79797"
       y2="553.79797">
      <stop
         offset="0"
         stop-color="#d6d9dc"
         id="stop2-3" />
      <stop
         offset="1"
         stop-color="#a1a9b1"
         id="stop4-5" />
    </linearGradient>
    <linearGradient
       gradientTransform="matrix(1.3999806,0,0,1.3999528,-1.5999199,-1.5998085)"
       id="b"
       gradientUnits="userSpaceOnUse"
       x1="25"
       x2="38"
       y1="15.303711"
       y2="28.303711">
      <stop
         offset="0"
         stop-color="#3daee9"
         id="stop7"
         style="stop-color:#e4e93d;stop-opacity:1" />
      <stop
         offset="1"
         stop-color="#2980b9"
         id="stop9"
         style="stop-color:#29b970;stop-opacity:1" />
    </linearGradient>
  </defs>
  <sodipodi:namedview
     pagecolor="#ffffff"
     bordercolor="#666666"
     borderopacity="1"
     objecttolerance="10"
     gridtolerance="10"
     guidetolerance="10"
     inkscape:pageopacity="0"
     inkscape:pageshadow="2"
     inkscape:window-width="1366"
     inkscape:window-height="704"
     id="namedview19"
     showgrid="false"
     inkscape:zoom="6.9532167"
     inkscape:cx="23.726818"
     inkscape:cy="26.867945"
     inkscape:window-x="0"
     inkscape:window-y="27"
     inkscape:window-maximized="1"
     inkscape:current-layer="svg17" />
  <linearGradient
     id="a"
     gradientUnits="userSpaceOnUse"
     x1="11.374"
     x2="37.32"
     y1="7.2600002"
     y2="41.43">
    <stop
       offset="0"
       stop-color="#f600ff"
       id="stop2" />
    <stop
       offset="1"
       stop-color="#0ae97c"
       id="stop4" />
  </linearGradient>
  <ellipse
     style="fill:#232629;fill-rule:evenodd;stroke-width:1.39996672"
     cx="31.999634"
     cy="31.999022"
     id="circle12"
     rx="19.59973"
     ry="19.599339" />
  <path
     inkscape:connector-curvature="0"
     style="opacity:0.68;fill:#f6f6f6;stroke-width:1.39996672;fill-opacity:1"
     d="m 22.199751,12.39972 v 1.399953 h 6.999903 V 12.39972 Z m -1.399981,0.311708 a 22.39969,22.399245 0 0 0 -1.760912,1.088245 h 1.760912 z m -3.469874,2.488197 a 22.39969,22.399245 0 0 0 -0.730068,0.598808 v 0.801145 h 5.599923 v -1.399953 z m -2.67965,2.799906 a 22.39969,22.399245 0 0 0 -1.145688,1.399953 h 11.495154 v -1.399953 z m 11.749447,0 v 1.399953 h 2.799961 v -1.399953 z m -13.688092,2.799906 a 22.39969,22.399245 0 0 0 -0.749209,1.399952 h 6.037417 v -1.399952 z m 6.688189,0 v 1.399952 h 11.199845 v -1.399952 z m -8.14559,2.799905 a 22.39969,22.399245 0 0 0 -0.254294,0.83669 v 0.563263 h 11.199845 v -1.399953 z m -0.850379,2.799906 a 22.39969,22.399245 0 0 0 -0.391011,1.399953 h 5.187038 v -1.399953 z m 6.196007,0 v 1.399953 h 6.999904 v -1.399953 z m -6.9999028,5.599811 a 22.39969,22.399245 0 0 0 0.1367221,1.399953 H 20.799776 v -1.399953 z m 12.5998258,0 v 1.399953 h 2.799961 v -1.399953 z m -11.199845,2.799906 v 1.399953 h 6.999903 v -1.399953 z m 8.399884,0 v 1.399953 h 13.999806 v -1.399953 z m -8.995969,2.799905 a 22.39969,22.399245 0 0 0 0.423821,1.399953 h 5.772186 V 37.59887 Z m 7.595988,0 v 1.399953 h 6.999903 V 37.59887 Z m 8.399884,0 v 1.399953 h 2.799961 V 37.59887 Z m 5.599922,1.399953 v 5.599812 h 1.399981 v -5.599812 z m 4.199942,0 v 5.599812 h 4.199942 v -5.599812 z m 6.999903,0 v 5.599812 h 1.399981 v -5.599812 z m 4.199942,0 v 5.599812 h 3.095271 a 22.39969,22.399245 0 0 0 1.104671,-1.982356 v -3.617456 z m -9.799864,1.399953 h 1.399981 v 2.799906 h -1.399981 z m 11.199845,0 h 1.399981 v 2.799906 h -1.399981 z m -36.087782,2.799906 a 22.39969,22.399245 0 0 0 0.792957,1.399953 h 10.095174 v -1.399953 z m 12.288111,0 v 1.399953 h 2.799962 v -1.399953 z m -9.799864,2.799905 v 0.6699 a 22.39969,22.399245 0 0 0 0.598819,0.730053 h 5.001103 v -1.399953 z m 6.999903,0 v 1.399953 h 6.999903 v -1.399953 z m 9.799864,0 v 5.599812 h 4.199942 v -5.599812 z m 6.999904,0 v 5.599812 h 1.39998 v -5.599812 z m 4.199941,0 v 5.288104 a 22.39969,22.399245 0 0 0 1.760913,-1.088245 H 44.599441 V 47.39854 h 1.399981 v 1.949544 a 22.39969,22.399245 0 0 0 1.39998,-1.148398 v -2.201099 z m -9.799864,1.399953 h 1.399981 v 2.799906 h -1.399981 z m -16.0697,1.399953 a 22.39969,22.399245 0 0 0 1.708962,1.399953 h 4.560874 v -1.399953 z"
     id="path14" />
  <path
     inkscape:connector-curvature="0"
     style="fill:#ed1515;stroke-width:1.39996672;stroke-miterlimit:0"
     d="m 33.194541,30.804143 -0.494921,0.494898 -0.494907,0.494911 14.700944,14.700695 0.989828,-0.989809 z"
     stroke-miterlimit="0"
     id="path16" />
  <path
     inkscape:connector-curvature="0"
     style="fill:#fcfcfc;fill-rule:evenodd;stroke-width:1.39996672"
     d="M 31.999629,12.399678 H 33.39961 V 31.299041 H 31.999629 Z"
     id="path18" />
  <path
     inkscape:connector-curvature="0"
     style="fill:url(#b);fill-rule:evenodd;stroke-width:1.39996672"
     d="M 33.399596,12.39972 V 31.009249 L 47.83963,45.448997 A 20.999709,20.999292 0 0 0 51.599344,39.20116 V 24.783287 A 20.999709,20.999292 0 0 0 39.144439,12.39972 Z"
     id="path20" />
  <path
     inkscape:connector-curvature="0"
     style="fill:url(#a-2);stroke-width:4.19990015;stroke-linejoin:round"
     d="m 29.131293,59.846557 a 28.010759,28.010203 0 0 0 5.738087,0.0084 l 0.665256,-4.341589 a 23.809146,23.808673 0 0 0 5.164263,-1.380158 l 2.739454,3.418643 a 28.010759,28.010203 0 0 0 4.970463,-2.876343 l -1.589608,-4.076887 a 23.809146,23.808673 0 0 0 3.795208,-3.774608 l 4.051754,1.578376 a 28.010759,28.010203 0 0 0 2.87122,-4.976538 l -3.392111,-2.718386 a 23.809146,23.808673 0 0 0 0.852364,-2.546836 23.809146,23.808673 0 0 0 0.517307,-2.628132 l 4.333262,-0.665243 a 28.010759,28.010203 0 0 0 0.0084,-5.737973 l -4.341662,-0.66523 a 23.809146,23.808673 0 0 0 -1.380199,-5.164174 l 3.418711,-2.739399 a 28.010759,28.010203 0 0 0 -2.8764,-4.970365 l -4.076954,1.589577 A 23.809146,23.808673 0 0 0 46.825816,13.384853 L 48.404392,9.3334311 A 28.010759,28.010203 0 0 0 43.427545,6.4622538 L 40.711247,9.8544235 A 23.809146,23.808673 0 0 0 38.162162,9.0018802 23.809146,23.808673 0 0 0 35.533979,8.4845697 l -0.662975,-4.333022 a 28.010759,28.010203 0 0 0 -5.738087,-0.0084 l -0.667973,4.34145 A 23.809146,23.808673 0 0 0 23.301102,9.8651471 L 20.561704,6.4468543 A 28.010759,28.010203 0 0 0 15.59124,9.3231974 l 1.589608,4.0768866 a 23.809146,23.808673 0 0 0 -3.795207,3.774609 L 9.3335929,15.594986 A 28.010759,28.010203 0 0 0 6.4623726,20.57151 l 3.392097,2.718387 a 23.809146,23.808673 0 0 0 -0.8523502,2.54685 23.809146,23.808673 0 0 0 -0.5173068,2.628117 l -4.333262,0.665244 a 28.010759,28.010203 0 0 0 -0.0084,5.737973 l 4.3416619,0.665243 a 23.809146,23.808673 0 0 0 1.3801989,5.16416 l -3.4187107,2.7394 a 28.010759,28.010203 0 0 0 2.8764002,4.970364 l 4.0769681,-1.589576 a 23.809146,23.808673 0 0 0 3.774684,3.795132 l -1.578409,4.051673 a 28.010759,28.010203 0 0 0 4.976623,2.871164 l 2.718455,-3.39203 a 23.809146,23.808673 0 0 0 2.546887,0.852333 23.809146,23.808673 0 0 0 2.628183,0.517297 z M 26.924952,50.938195 A 19.607531,19.607141 0 0 1 13.060341,26.92444 19.607531,19.607141 0 0 1 37.074559,13.060105 19.607531,19.607141 0 0 1 50.939183,37.073846 19.607531,19.607141 0 0 1 26.924952,50.938195"
     id="path22" />
  <path
     inkscape:connector-curvature="0"
     style="opacity:0.20800003;stroke-width:4.19990015;stroke-linejoin:round"
     d="m 16.025612,9.0420169 c -0.14578,0.092537 -0.290706,0.1864177 -0.43475,0.2816285 l 1.589986,4.0764386 c 0.133559,-0.121796 0.268419,-0.24215 0.404679,-0.360922 z m 31.942532,0.0112 -1.547006,3.9682361 c 0.136218,0.119696 0.271176,0.240904 0.404678,0.363666 l 1.579822,-4.0502596 c -0.144954,-0.095197 -0.29079,-0.18912 -0.437494,-0.2816425 z M 32.732421,11.005507 c -9.141019,-0.341183 -17.303424,5.683486 -19.67082,14.519036 -0.433434,1.724392 -0.630285,3.499714 -0.585149,5.277165 0.06496,-1.308704 0.261026,-2.607609 0.585149,-3.877212 2.803434,-10.458487 13.553871,-16.664786 24.012944,-13.862809 8.331453,2.237335 14.221829,9.657057 14.511121,18.27868 C 51.9317,22.198885 45.910089,14.032947 37.074545,11.661735 35.656309,11.281087 34.199797,11.060959 32.732421,11.005507 Z m 24.31373,8.563763 -3.275059,2.623484 c 0.130198,0.366115 0.251493,0.735353 0.363659,1.10739 l 3.419985,-2.738321 C 57.391806,20.227626 57.22224,19.896719 57.046151,19.56927 Z m -50.0766634,0.0112 c -0.1751796,0.327463 -0.3438213,0.658384 -0.505841,0.992552 l 3.390823,2.717421 C 9.9684281,22.919273 10.09157,22.550946 10.223603,22.185796 Z M 59.991024,31.253122 c -0.01806,0.739847 -0.06552,1.478687 -0.142182,2.214782 l -4.33392,0.664431 c -0.122778,0.884882 -0.295368,1.762149 -0.516803,2.627642 -0.236163,0.864835 -0.889855,2.820023 -1.221973,3.652729 l 0.369133,0.295306 c 0.176678,-0.475956 0.706948,-2.061809 0.85284,-2.548082 0.221435,-0.865493 0.393969,-1.74276 0.516803,-2.627642 l 4.33392,-0.664431 c 0.125298,-1.200586 0.17273,-2.408017 0.142182,-3.614735 z M 4.0355482,31.31878 c -0.03948,1.184108 -0.0042,2.369518 0.1066785,3.549105 l 4.3421379,0.667161 c 0.219489,1.37887 0.9233852,3.843822 1.3806889,5.163026 L 10.228726,40.405524 C 9.5761675,38.742016 8.7494509,35.902268 8.4843646,34.135121 L 4.1422267,33.46796 C 4.0792277,32.7532 4.0435277,32.036298 4.0355482,31.318808 Z M 57.029743,43.018788 c -0.676163,1.390881 -1.466354,2.723384 -2.362467,3.983846 L 50.61499,45.424957 c -1.119257,1.396397 -2.797581,3.024066 -4.20046,4.135194 l 0.404678,1.039031 c 1.242497,-1.020075 2.78368,-2.525263 3.795782,-3.774272 l 4.052286,1.577676 c 1.125052,-1.556005 2.087133,-3.223573 2.871052,-4.976398 z m -50.0739192,0.0112 -0.508585,0.407401 c 0.7859771,1.751159 1.7498918,3.416893 2.8765122,4.970924 l 4.076898,-1.58861 c 1.00422,1.254595 2.537871,2.766698 3.773704,3.793928 l 0.404678,-1.036287 C 16.182606,48.458109 14.511813,46.8226 13.400649,45.419749 L 9.323751,47.008401 C 8.4260134,45.749886 7.6339884,44.419217 6.9558238,43.030029 Z m 33.7417172,9.703969 c -1.663541,0.652532 -3.395247,1.115721 -5.162429,1.380816 l -0.664444,4.342038 c -1.908356,0.193781 -3.831579,0.191037 -5.739375,-0.0084 L 28.466848,54.114576 C 27.581949,53.9918 26.704665,53.819214 25.839155,53.597797 24.974303,53.361625 24.123478,53.076805 23.290756,52.744694 l -2.717937,3.390518 C 18.98149,55.41565 17.460957,54.548757 16.031086,53.545929 l -0.434764,1.118324 c 1.556051,1.125044 3.223652,2.087106 4.976497,2.870996 l 2.717937,-3.390504 c 0.832722,0.332111 1.683547,0.616931 2.548399,0.853089 0.86551,0.221431 1.742794,0.393961 2.627693,0.516779 l 0.664445,4.333848 c 1.907796,0.199241 3.831019,0.201985 5.739375,0.0084 l 0.664444,-4.342037 C 37.302294,55.249729 39.034,54.78654 40.697541,54.134008 l 2.739804,3.417845 c 1.751194,-0.785961 3.416961,-1.749857 4.971023,-2.876455 l -0.43475,-1.118324 c -1.427924,1.00441 -2.946623,1.873137 -4.536273,2.594826 z"
     id="path24" />
  <g
     transform="matrix(1.3999806,0,0,1.3999528,-1.5999199,-1.5998085)"
     id="g30"
     style="fill-rule:evenodd">
    <circle
       cx="24.50001"
       cy="23.499969"
       r="1.5"
       id="circle26"
       style="fill:#fcfcfc" />
    <circle
       cx="24.50001"
       cy="23.499969"
       r="0.5"
       id="circle28"
       style="fill:#232629" />
  </g>
</svg>
