<?xml version="1.0" encoding="UTF-8" standalone="no"?>
<svg
   xmlns:dc="http://purl.org/dc/elements/1.1/"
   xmlns:cc="http://creativecommons.org/ns#"
   xmlns:rdf="http://www.w3.org/1999/02/22-rdf-syntax-ns#"
   xmlns:svg="http://www.w3.org/2000/svg"
   xmlns="http://www.w3.org/2000/svg"
   xmlns:xlink="http://www.w3.org/1999/xlink"
   xmlns:sodipodi="http://sodipodi.sourceforge.net/DTD/sodipodi-0.dtd"
   xmlns:inkscape="http://www.inkscape.org/namespaces/inkscape"
   viewBox="0 0 64 64"
   version="1.1"
   id="svg13"
   sodipodi:docname="network-workgroup.svg"
   width="64"
   height="64"
   inkscape:version="0.92.4 5da689c313, 2019-01-14">
  <metadata
     id="metadata19">
    <rdf:RDF>
      <cc:Work
         rdf:about="">
        <dc:format>image/svg+xml</dc:format>
        <dc:type
           rdf:resource="http://purl.org/dc/dcmitype/StillImage" />
        <dc:title></dc:title>
      </cc:Work>
    </rdf:RDF>
  </metadata>
  <defs
     id="defs17">
    <linearGradient
       y2="962.85999"
       y1="1002.6"
       gradientTransform="translate(58.788,-954.44)"
       x2="11"
       gradientUnits="userSpaceOnUse"
       x1="11"
       id="linearGradient5203-4">
      <stop
         offset="0"
         stop-color="#b6b2b6"
         id="stop7328-7-5" />
      <stop
         offset="1"
         stop-color="#dddbdb"
         id="stop7330-0-4" />
    </linearGradient>
    <linearGradient
       x1="20"
       y1="1000.4"
       gradientTransform="translate(0,-1044.42)"
       x2="20"
       gradientUnits="userSpaceOnUse"
       y2="1032.4"
       id="linearGradient7024-1">
      <stop
         style="stop-color:#e4720c;stop-opacity:1"
         offset="0"
         stop-color="#60cc9f"
         id="stop7019-0" />
      <stop
         style="stop-color:#ec4040;stop-opacity:1"
         offset="1"
         stop-color="#0566af"
         id="stop7021-3" />
    </linearGradient>
    <linearGradient
       y2="44"
       y1="12"
       gradientTransform="rotate(180,32,28.03)"
       x2="14"
       gradientUnits="userSpaceOnUse"
       x1="14"
       id="linearGradient7015-5">
      <stop
         style="stop-color:#f7e385;stop-opacity:1"
         offset="0"
         stop-color="#9ce0c4"
         id="stop7011-3" />
      <stop
         style="stop-color:#f99133;stop-opacity:1"
         offset="1"
         stop-color="#37a4f5"
         id="stop7013-5" />
    </linearGradient>
    <linearGradient
       x1="35"
       y1="996.35999"
       gradientTransform="translate(0,-988.38)"
       x2="35"
       gradientUnits="userSpaceOnUse"
       y2="1044.4"
       id="linearGradient4200">
      <stop
         offset="0"
         stop-color="#334545"
         id="stop5215" />
      <stop
         offset="1"
         stop-color="#172525"
         id="stop5217" />
    </linearGradient>
    <linearGradient
       y2="962.85999"
       x2="11"
       y1="1002.6"
       x1="11"
       gradientTransform="matrix(1.3838224,0,0,1.3838224,80.729517,-1339.1019)"
       gradientUnits="userSpaceOnUse"
       id="linearGradient4232"
       xlink:href="#linearGradient5203-4" />
    <linearGradient
       y2="1044.4"
       x2="35"
       y1="996.35999"
       x1="35"
       gradientTransform="matrix(1.3838224,0,0,1.3838224,-0.622631,-1386.0687)"
       gradientUnits="userSpaceOnUse"
       id="linearGradient4234"
       xlink:href="#linearGradient4200" />
    <linearGradient
       y2="962.85999"
       x2="11"
       y1="1002.6"
       x1="11"
       gradientTransform="translate(58.788,-954.44)"
       gradientUnits="userSpaceOnUse"
       id="linearGradient901"
       xlink:href="#linearGradient5203-4"
       inkscape:collect="always" />
    <linearGradient
       y2="1044.4"
       x2="35"
       y1="996.35999"
       x1="35"
       gradientTransform="translate(0,-988.38)"
       gradientUnits="userSpaceOnUse"
       id="linearGradient903"
       xlink:href="#linearGradient4200"
       inkscape:collect="always" />
    <linearGradient
       x1="605.99"
       y1="1320.4"
       gradientTransform="matrix(1.7492,0,0,1.7494,-1119.9,-2277.9)"
       x2="638"
       gradientUnits="userSpaceOnUse"
       y2="1320.4"
       id="linearGradient5388">
      <stop
         offset="0"
         stop-color="#0566af"
         id="stop13941" />
      <stop
         offset="1"
         stop-color="#1287de"
         id="stop13943" />
    </linearGradient>
    <linearGradient
       x1="23.977"
       y1="11.271"
       gradientTransform="matrix(2.1538,0,0,2.1535,-19.692,-19.768)"
       x2="23.977"
       gradientUnits="userSpaceOnUse"
       y2="36.953"
       id="linearGradient5722">
      <stop
         offset="0"
         stop-color="#7dec40"
         id="stop7333-5" />
      <stop
         offset="1"
         stop-color="#44a410"
         id="stop7335-8" />
    </linearGradient>
    <linearGradient
       y2="153.5"
       x2="-493.36"
       gradientTransform="translate(526.36,-120)"
       y1="153.5"
       gradientUnits="userSpaceOnUse"
       x1="-494.36"
       id="linearGradient4881">
      <stop
         offset="0"
         id="stop4877" />
      <stop
         offset="1"
         stop-opacity="0"
         id="stop4879" />
    </linearGradient>
    <linearGradient
       y2="153.5"
       x2="-493.36"
       gradientTransform="matrix(-1,0,0,1,-462.36,-120)"
       y1="153.5"
       gradientUnits="userSpaceOnUse"
       x1="-494.36"
       id="linearGradient4913">
      <stop
         offset="0"
         stop-color="#f5f4f4"
         id="stop4909" />
      <stop
         offset="1"
         stop-opacity="0"
         stop-color="#f5f4f4"
         id="stop4911" />
    </linearGradient>
  </defs>
  <sodipodi:namedview
     pagecolor="#ffffff"
     bordercolor="#666666"
     borderopacity="1"
     objecttolerance="10"
     gridtolerance="10"
     guidetolerance="10"
     inkscape:pageopacity="0"
     inkscape:pageshadow="2"
     inkscape:window-width="1366"
     inkscape:window-height="700"
     id="namedview15"
     showgrid="true"
     inkscape:zoom="5.117575"
     inkscape:cx="2.5961728"
     inkscape:cy="17.376945"
     inkscape:window-x="0"
     inkscape:window-y="0"
     inkscape:window-maximized="1"
     inkscape:current-layer="g899">
    <inkscape:grid
       type="xygrid"
       id="grid943" />
  </sodipodi:namedview>
  <linearGradient
     id="a"
     gradientUnits="userSpaceOnUse"
     x1="23.235851"
     x2="43.239864"
     y1="29.534632"
     y2="29.534632">
    <stop
       offset="0"
       stop-color="#ff00b5"
       id="stop2" />
    <stop
       offset="1"
       stop-color="#ff0050"
       stop-opacity=".99"
       id="stop4" />
  </linearGradient>
  <g
     id="g941"
     transform="matrix(0.85576107,0,0,0.85576107,10.482248,2.3763656)">
    <rect
       x="-59.992001"
       y="4.0005002"
       width="55.992001"
       height="55.999001"
       transform="rotate(-90)"
       rx="27.996"
       id="rect7360-8"
       style="fill:url(#linearGradient5388)" />
    <path
       d="M 4.0137,31.496 C 4.0108,31.663 4,31.828 4,31.996 4,47.506 16.486,59.992 31.996,59.992 h 0.006 c 15.51,0 27.996,-12.486 27.996,-27.996 0,-0.168 -0.009,-0.333 -0.012,-0.5 C 59.72,46.772 47.344,58.992 32.002,58.992 H 31.996 C 16.654,58.992 4.28,46.772 4.014,31.496 Z"
       id="rect7360-8-5"
       inkscape:connector-curvature="0"
       style="fill:#023962" />
    <path
       d="m 31.999,4.0199 c -2.0332,0 -4.0105,0.22389 -5.9166,0.63089 l -2.482,4.9683 -3.752,-2.8125 c -6.729,3.2344 -11.941,9.0594 -14.356,16.216 l 5.5073,-2.2031 4.2,2.7996 1.4,-4.1993 18.2,-9.7989 -1.109,-5.5452 c -0.56,-0.034 -1.122,-0.054 -1.691,-0.054 m 20.734,9.1936 -1.135,3.4047 1.4,1.3997 -5.5999,8.3988 2.7999,9.7987 9.2851,1.163 c 0.33587,-1.7991 0.5158,-3.5982 0.5158,-5.3973 0,-4.7936 -1.1997,-9.2948 -3.3061,-13.233 l -2.294,-0.767 0.834,-1.671 c -0.75,-1.111 -1.602,-2.143 -2.498,-3.133 m -48.178,13.203 c -0.308,1.533 -0.4846,3.118 -0.5341,4.734 l 9.7783,3.6652 -1.4,-4.1993 -2.7999,-4.1995 z m 9.2441,8.3988 6.9998,16.798 v 6.0732 c 3.4289,1.4901 7.2109,2.3256 11.2,2.3256 0.27784,0 0.55137,0 0.82923,-0.02199 l 8.97,-15.379 -22.399,-12.598 z"
       id="path7362-0"
       inkscape:connector-curvature="0"
       style="fill:url(#linearGradient5722);fill-rule:evenodd" />
    <path
       d="m 59.984,31.52 c -0.03654,2.0047 -0.28578,3.9555 -0.71875,5.834 l 0.21484,0.02734 c 0.02292,-0.11852 0.04107,-0.23836 0.0625,-0.35742 0.13669,-0.78043 0.24877,-1.5614 0.32422,-2.3418 0.04147,-0.42896 0.07365,-0.85815 0.0957,-1.2871 0.02257,-0.46316 0.03516,-0.92948 0.03516,-1.3984 0,-0.09627 -0.0028,-0.19162 -0.0059,-0.28711 -6.1e-4,-0.06353 -0.0068,-0.12603 -0.0078,-0.18945 z M 20.8,56.672 v 0.98242 c -0.0019,0.0056 -0.002,0.01199 -0.0039,0.01758 3.4269,1.4898 7.2118,2.3203 11.199,2.3203 h 0.0059 c 0.27706,0 0.5511,-0.01357 0.82617,-0.02148 2.69e-4,-0.0048 0.0017,-0.0089 0.002,-0.01367 l 0.58398,-1 c -0.46763,0.02302 -0.93856,0.03516 -1.4121,0.03516 h -0.0059 c -3.9868,0 -7.7697,-0.83074 -11.195,-2.3203 z"
       id="rect7360-8-5-2"
       inkscape:connector-curvature="0"
       style="fill:#255c08" />
    <g
       transform="rotate(-90,-139.18,323.18)"
       id="g4956">
      <path
         transform="rotate(-90,323.18,203.18)"
         d="m 32,4 v 56 a 28,28 0 0 0 1,-0.03516 v -55.914 a 28,28 0 0 0 -1,-0.051 z"
         style="color:#000000;opacity:0.05;isolation:auto;mix-blend-mode:normal;solid-color:#000000;fill:url(#linearGradient4881);color-rendering:auto;image-rendering:auto;shape-rendering:auto"
         id="rect4873"
         inkscape:connector-curvature="0" />
      <path
         transform="rotate(-90,323.18,203.18)"
         d="m 32,4 a 28,28 0 0 0 -1,0.035156 v 55.914 a 28,28 0 0 0 1,0.051 v -56 z"
         style="color:#000000;opacity:0.05;isolation:auto;mix-blend-mode:normal;solid-color:#000000;fill:url(#linearGradient4913);color-rendering:auto;image-rendering:auto;shape-rendering:auto"
         id="rect4873-5"
         inkscape:connector-curvature="0" />
      <path
         transform="rotate(-90,323.18,203.18)"
         d="M 32,4 V 60 A 28,28 0 0 0 60,32 28,28 0 0 0 32,4 Z"
         style="color:#000000;opacity:0.203;isolation:auto;mix-blend-mode:normal;solid-color:#000000;fill:#ffffff;fill-opacity:1;color-rendering:auto;image-rendering:auto;shape-rendering:auto"
         id="rect4915"
         inkscape:connector-curvature="0" />
    </g>
  </g>
  <g
     style="stroke-width:1.38382244"
     transform="matrix(0.60929483,0,0,0.60929483,0.83431247,25.206329)"
     id="g899">
    <rect
       style="color:#000000;clip-rule:nonzero;display:inline;overflow:visible;visibility:visible;opacity:1;isolation:auto;mix-blend-mode:normal;color-interpolation:sRGB;color-interpolation-filters:linearRGB;solid-color:#000000;solid-opacity:1;fill:#7a747c;fill-opacity:1;fill-rule:nonzero;stroke:none;stroke-width:2.76764488;stroke-linecap:butt;stroke-linejoin:miter;stroke-miterlimit:4;stroke-dasharray:none;stroke-dashoffset:0;stroke-opacity:1;color-rendering:auto;image-rendering:auto;shape-rendering:auto;text-rendering:auto;enable-background:accumulate"
       id="rect4183"
       width="24.908802"
       height="8.8892994"
       x="31.205284"
       y="43.331516" />
    <rect
       rx="2.4054982e-05"
       x="28.437639"
       y="50.86467"
       width="30.444092"
       height="2.7676446"
       ry="2.4054982e-05"
       style="color:#000000;isolation:auto;mix-blend-mode:normal;solid-color:#000000;fill:#cac6c9;stroke-width:1.38382244;color-rendering:auto;image-rendering:auto;shape-rendering:auto"
       id="rect6778-1" />
    <g
       style="stroke-width:1.00000012"
       transform="matrix(1.3838224,0,0,1.3838224,-0.622631,-18.326449)"
       id="g4153">
      <rect
         rx="4.0000005"
         id="rect6768-2"
         style="color:#000000;isolation:auto;mix-blend-mode:normal;solid-color:#000000;fill:url(#linearGradient901);stroke-width:1.00000012;color-rendering:auto;image-rendering:auto;shape-rendering:auto"
         ry="4.0000005"
         height="40"
         width="56"
         y="7.98"
         x="4" />
      <rect
         rx="4.0000005"
         id="rect6772-9"
         style="color:#000000;isolation:auto;mix-blend-mode:normal;solid-color:#000000;fill:url(#linearGradient903);stroke-width:1.00000012;color-rendering:auto;image-rendering:auto;shape-rendering:auto"
         ry="4.0000005"
         height="36"
         width="56"
         y="9.9799995"
         x="4" />
      <rect
         rx="2.0000002"
         id="rect6774-9"
         style="color:#000000;isolation:auto;mix-blend-mode:normal;solid-color:#000000;fill:url(#linearGradient7024-1);stroke-width:1.00000012;color-rendering:auto;image-rendering:auto;shape-rendering:auto"
         ry="2.0000002"
         height="32"
         width="52"
         y="-44.02"
         x="6"
         transform="scale(1,-1)" />
      <path
         inkscape:connector-curvature="0"
         id="path6780-2"
         d="m 56,44.02 c 1.108,0 2,-0.892 2,-2 v -28 c 0,-1.108 -0.89199,-2 -2,-2 h -8.9414 a 22,22 0 0 1 6.941,16 22,22 0 0 1 -6.9219,16 h 8.922 z m -12.041,0 a 20,20 0 0 0 8.041,-16 20,20 0 0 0 -8.0352,-16 h -3.7559 a 18,18 0 0 1 9.791,16 18,18 0 0 1 -9.7637,16 h 3.7226 z m -20.168,0 a 18,18 0 0 1 -9.791,-16 18,18 0 0 1 9.7637,-16 h -3.7226 a 20,20 0 0 0 -8.041,16 20,20 0 0 0 8.0352,16 h 3.7559 z m -6.8496,0 A 22,22 0 0 1 10,28.02 a 22,22 0 0 1 6.9219,-16 H 8 c -1.108,0 -2,0.892 -2,2 v 28 c 0,1.108 0.89199,2 2,2 z m 15.453,-0.014 a 16,16 0 0 0 9.7051,-3.5879 l -5.6992,-8.33 a 6,6 0 0 1 -2.041,1.4414 l -1.9648,10.476 z m -2.0234,-0.07 1.8613,-9.9238 a 6,6 0 0 1 -0.232,0 6,6 0 0 1 -2.2305,-0.4336 l -8.7852,6.0098 a 16,16 0 0 0 9.3867,4.3398 z m 13.207,-4.9004 a 16,16 0 0 0 4.3379,-9.3886 l -9.9238,-1.8614 a 6,6 0 0 1 0.008,0.2344 6,6 0 0 1 -0.4336,2.2266 l 6.0117,8.789 z m -23.977,-0.9179 8.3281,-5.6993 a 6,6 0 0 1 -1.4395,-2.039 l -10.477,-1.9649 a 16,16 0 0 0 3.587,9.703 z M 32,32.0177 a 4,4 0 0 0 4,-4 4,4 0 0 0 -4,-4 4,4 0 0 0 -4,4 4,4 0 0 0 4,4 z m -5.9922,-3.7676 a 6,6 0 0 1 -0.008,-0.2324 6,6 0 0 1 0.43555,-2.2285 l -6.0137,-8.7871 a 16,16 0 0 0 -4.3379,9.3886 l 9.9238,1.8594 z m 21.979,-0.6289 a 16,16 0 0 0 -3.5879,-9.7031 l -8.3301,5.6992 a 6,6 0 0 1 1.4394,2.0391 l 10.479,1.9648 z m -20.387,-3.6719 a 6,6 0 0 1 2.041,-1.4414 l 1.9629,-10.476 a 16,16 0 0 0 -9.7031,3.5879 l 5.6992,8.33 z m 6.627,-1.498 8.7891,-6.0117 a 16,16 0 0 0 -9.3887,-4.3379 l -1.8594,9.9238 a 6,6 0 0 1 0.23242,-0.01 6,6 0 0 1 2.2266,0.4336 z"
         style="color:#000000;isolation:auto;mix-blend-mode:normal;solid-color:#000000;fill:url(#linearGradient7015-5);stroke-width:1.00000012;color-rendering:auto;image-rendering:auto;shape-rendering:auto" />
    </g>
    <path
       inkscape:connector-curvature="0"
       id="rect6778-1-3"
       d="m 28.437638,52.247842 v 1.383823 H 58.88173 v -1.383823 z"
       style="color:#000000;isolation:auto;mix-blend-mode:normal;solid-color:#000000;fill:#7a747c;stroke-width:1.38382244;color-rendering:auto;image-rendering:auto;shape-rendering:auto" />
    <rect
       rx="5.5352898"
       x="4.9126582"
       y="-7.283546"
       width="77.494049"
       height="55.352894"
       ry="5.5352898"
       style="color:#000000;isolation:auto;mix-blend-mode:normal;solid-color:#000000;fill:url(#linearGradient4232);stroke-width:1.38382244;color-rendering:auto;image-rendering:auto;shape-rendering:auto"
       id="rect6768-2-7" />
    <rect
       rx="5.5352898"
       x="4.9126582"
       y="-4.5159016"
       width="77.494049"
       height="49.817604"
       ry="5.5352898"
       style="color:#000000;isolation:auto;mix-blend-mode:normal;solid-color:#000000;fill:url(#linearGradient4234);stroke-width:1.38382244;color-rendering:auto;image-rendering:auto;shape-rendering:auto"
       id="rect6772-9-0" />
    <rect
       rx="2.7676449"
       transform="scale(1,-1)"
       x="7.6803026"
       y="-42.589413"
       width="71.958763"
       height="44.282314"
       ry="2.7676449"
       style="color:#000000;isolation:auto;mix-blend-mode:normal;solid-color:#000000;fill:#ffffff;fill-opacity:1;stroke-width:1.38382244;color-rendering:auto;image-rendering:auto;shape-rendering:auto"
       id="rect6774-9-9" />
    <path
       style="fill:none;fill-opacity:1;stroke:#328c41;stroke-width:1.38382244px;stroke-linecap:round;stroke-linejoin:round;stroke-opacity:1"
       d="M 78.697206,25.896882 69.840497,22.261696 56.435746,31.836518 43.337689,11.90892 25.796317,30.164982 18.13646,9.100374 8.4844338,26.555867"
       id="path912"
       inkscape:connector-curvature="0"
       sodipodi:nodetypes="ccccccc" />
    <path
       inkscape:connector-curvature="0"
       id="rect6768-2-7-2"
       d="m 4.9126587,41.150236 v 1.383822 c 0,3.06655 2.4687388,5.53529 5.5352893,5.53529 H 76.87142 c 3.066551,0 5.53529,-2.46874 5.53529,-5.53529 v -1.383822 c 0,3.06655 -2.468739,5.535289 -5.53529,5.535289 H 10.447948 c -3.0665505,0 -5.5352893,-2.468739 -5.5352893,-5.535289 z"
       style="color:#000000;isolation:auto;mix-blend-mode:normal;solid-color:#000000;fill:#98929a;stroke-width:1.38382244;color-rendering:auto;image-rendering:auto;shape-rendering:auto" />
    <path
       sodipodi:nodetypes="ccccccccccccc"
       inkscape:connector-curvature="0"
       id="path907"
       d="M 18.13646,9.100374 7.6789593,27.962024 v 10.797855 l 3.8299287,3.829929 h 64.300911 l 3.82993,-3.829929 V 26.671668 L 79.415319,26.335053 69.840497,22.505124 56.435746,32.079945 43.337689,12.152348 25.796317,30.164982 Z"
       style="fill:#6aff87;fill-opacity:1;stroke:none;stroke-width:1.38382244px;stroke-linecap:butt;stroke-linejoin:miter;stroke-opacity:1" />
    <path
       inkscape:connector-curvature="0"
       id="rect6774-9-9-9"
       d="m 7.6803028,38.436646 v 1.383822 c 0,1.533275 1.2343699,2.767645 2.7676452,2.767645 H 76.87142 c 1.533276,0 2.767645,-1.23437 2.767645,-2.767645 v -1.383822 c 0,1.533275 -1.234369,2.767645 -2.767645,2.767645 H 10.447948 c -1.5332753,0 -2.7676452,-1.23437 -2.7676452,-2.767645 z"
       style="color:#000000;isolation:auto;mix-blend-mode:normal;solid-color:#000000;fill:#fdf9e3;stroke-width:1.38382244;color-rendering:auto;image-rendering:auto;shape-rendering:auto" />
    <path
       inkscape:connector-curvature="0"
       id="rect6768-2-7-0"
       d="m 10.447948,-7.2835461 c -3.0665505,0 -5.5352893,2.4687387 -5.5352893,5.5352891 v 1.38382228 c 0,-3.06655028 2.4687388,-5.53528928 5.5352893,-5.53528928 H 76.87142 c 3.066551,0 5.53529,2.468739 5.53529,5.53528928 V -1.748257 c 0,-3.0665504 -2.468739,-5.5352891 -5.53529,-5.5352891 z"
       style="color:#000000;isolation:auto;mix-blend-mode:normal;solid-color:#000000;fill:#e7e5e5;stroke-width:1.38382244;color-rendering:auto;image-rendering:auto;shape-rendering:auto" />
  </g>
</svg>
