<?xml version="1.0" encoding="UTF-8" standalone="no"?>
<svg
   xmlns:dc="http://purl.org/dc/elements/1.1/"
   xmlns:cc="http://creativecommons.org/ns#"
   xmlns:rdf="http://www.w3.org/1999/02/22-rdf-syntax-ns#"
   xmlns:svg="http://www.w3.org/2000/svg"
   xmlns="http://www.w3.org/2000/svg"
   xmlns:xlink="http://www.w3.org/1999/xlink"
   xmlns:sodipodi="http://sodipodi.sourceforge.net/DTD/sodipodi-0.dtd"
   xmlns:inkscape="http://www.inkscape.org/namespaces/inkscape"
   viewBox="0 0 64 64"
   version="1.1"
   id="svg9"
   sodipodi:docname="openmw.svg"
   width="64"
   height="64"
   inkscape:version="0.92.4 5da689c313, 2019-01-14">
  <metadata
     id="metadata15">
    <rdf:RDF>
      <cc:Work
         rdf:about="">
        <dc:format>image/svg+xml</dc:format>
        <dc:type
           rdf:resource="http://purl.org/dc/dcmitype/StillImage" />
        <dc:title />
      </cc:Work>
    </rdf:RDF>
  </metadata>
  <defs
     id="defs13">
    <linearGradient
       inkscape:collect="always"
       id="linearGradient854">
      <stop
         style="stop-color:#575757;stop-opacity:1;"
         offset="0"
         id="stop850" />
      <stop
         id="stop858"
         offset="0.5"
         style="stop-color:#606060;stop-opacity:0.49803922" />
      <stop
         style="stop-color:#575757;stop-opacity:1"
         offset="1"
         id="stop852" />
    </linearGradient>
    <linearGradient
       inkscape:collect="always"
       xlink:href="#linearGradient854"
       id="linearGradient856"
       x1="15.244743"
       y1="7.9108524"
       x2="15.53238"
       y2="57.671993"
       gradientUnits="userSpaceOnUse" />
    <filter
       inkscape:collect="always"
       style="color-interpolation-filters:sRGB"
       id="filter878"
       x="-0.08142211"
       width="1.1628442"
       y="-0.047502199"
       height="1.0950044">
      <feGaussianBlur
         inkscape:collect="always"
         stdDeviation="1.1083847"
         id="feGaussianBlur880" />
    </filter>
    <filter
       inkscape:collect="always"
       style="color-interpolation-filters:sRGB"
       id="filter931"
       x="-0.059684273"
       width="1.1193685"
       y="-0.060319097"
       height="1.1206382">
      <feGaussianBlur
         inkscape:collect="always"
         stdDeviation="0.99201253"
         id="feGaussianBlur933" />
    </filter>
  </defs>
  <sodipodi:namedview
     pagecolor="#ffffff"
     bordercolor="#666666"
     borderopacity="1"
     objecttolerance="10"
     gridtolerance="10"
     guidetolerance="10"
     inkscape:pageopacity="0"
     inkscape:pageshadow="2"
     inkscape:window-width="1366"
     inkscape:window-height="700"
     id="namedview11"
     showgrid="false"
     inkscape:zoom="9.8333332"
     inkscape:cx="11.04335"
     inkscape:cy="34.666481"
     inkscape:window-x="0"
     inkscape:window-y="0"
     inkscape:window-maximized="1"
     inkscape:current-layer="svg9" />
  <linearGradient
     id="a"
     gradientUnits="userSpaceOnUse"
     x1="5.1235719"
     x2="45.334751"
     y1="5.9797349"
     y2="42.796738"
     gradientTransform="matrix(1.2495077,0,0,1.274279,1.4933344,0.55588979)">
    <stop
       offset="0"
       stop-color="#ffeb00"
       id="stop2" />
    <stop
       offset="1"
       stop-color="#ff2824"
       id="stop4" />
  </linearGradient>
  <path
     style="color:#000000;font-style:normal;font-variant:normal;font-weight:normal;font-stretch:normal;font-size:medium;line-height:normal;font-family:sans-serif;font-variant-ligatures:normal;font-variant-position:normal;font-variant-caps:normal;font-variant-numeric:normal;font-variant-alternates:normal;font-feature-settings:normal;text-indent:0;text-align:start;text-decoration:none;text-decoration-line:none;text-decoration-style:solid;text-decoration-color:#000000;letter-spacing:normal;word-spacing:normal;text-transform:none;writing-mode:lr-tb;direction:ltr;text-orientation:mixed;dominant-baseline:auto;baseline-shift:baseline;text-anchor:start;white-space:normal;shape-padding:0;clip-rule:nonzero;display:inline;overflow:visible;visibility:visible;opacity:0.25;isolation:auto;mix-blend-mode:normal;color-interpolation:sRGB;color-interpolation-filters:linearRGB;solid-color:#000000;solid-opacity:1;vector-effect:none;fill:#000000;fill-opacity:1;fill-rule:nonzero;stroke:none;stroke-width:2.27129841;stroke-linecap:round;stroke-linejoin:round;stroke-miterlimit:4;stroke-dasharray:none;stroke-dashoffset:0;stroke-opacity:1;color-rendering:auto;image-rendering:auto;shape-rendering:auto;text-rendering:auto;enable-background:accumulate;filter:url(#filter931)"
     d="m 33.912109,12.267578 c -0.783709,0.04536 -1.286184,0.853126 -0.980468,1.576172 1.0876,2.572412 2.419712,5.149614 2.476562,8.873047 -4.250377,-1.205819 -9.947112,-0.824779 -14.990234,4.568359 -0.636692,0.679751 -0.229584,1.794725 0.695312,1.904297 2.739764,0.329268 5.57081,0.432161 8.751953,2.244141 -3.169544,3.135633 -5.698505,8.351423 -3.628906,15.539062 0.261802,0.906487 1.450705,1.116973 2.007813,0.355469 1.627242,-2.228643 3.131739,-4.682018 6.183593,-6.583984 1.092609,4.357177 4.29151,9.191509 11.433594,10.957031 0.908717,0.226273 1.685423,-0.682564 1.320313,-1.544922 -1.086594,-2.572751 -2.420117,-5.149328 -2.476563,-8.871094 4.249845,1.203573 9.945554,0.821207 14.988281,-4.570312 C 60.327049,36.035767 59.922038,34.924552 59,34.8125 c -2.739929,-0.329288 -5.572409,-0.433884 -8.753906,-2.246094 3.170063,-3.13655 5.700334,-8.351851 3.630859,-15.539062 -0.261803,-0.906485 -1.450704,-1.116972 -2.007812,-0.355469 -1.62736,2.228805 -3.133137,4.682914 -6.185547,6.585937 C 44.591176,18.899551 41.393592,14.064433 34.25,12.298828 c -0.11043,-0.02728 -0.224331,-0.03781 -0.337891,-0.03125 z"
     id="path913"
     inkscape:connector-curvature="0"
     sodipodi:nodetypes="cccccccccccccccccccc" />
  <path
     sodipodi:nodetypes="csccscc"
     inkscape:connector-curvature="0"
     id="path860"
     d="M 35.529297,4 C 14.726767,4 4,18.982562 4,32 4,45.017437 14.727503,60 35.53125,60 36.681805,60.0018 37.10541,58.488313 36.121094,57.892578 24.154467,50.632973 18.429688,42.468695 18.429688,32 c 0,-10.468783 5.722855,-18.63299 17.689453,-25.8925781 C 37.103457,5.5116866 36.679851,3.9982087 35.529297,4 Z"
     style="color:#000000;font-style:normal;font-variant:normal;font-weight:normal;font-stretch:normal;font-size:medium;line-height:normal;font-family:sans-serif;font-variant-ligatures:normal;font-variant-position:normal;font-variant-caps:normal;font-variant-numeric:normal;font-variant-alternates:normal;font-feature-settings:normal;text-indent:0;text-align:start;text-decoration:none;text-decoration-line:none;text-decoration-style:solid;text-decoration-color:#000000;letter-spacing:normal;word-spacing:normal;text-transform:none;writing-mode:lr-tb;direction:ltr;text-orientation:mixed;dominant-baseline:auto;baseline-shift:baseline;text-anchor:start;white-space:normal;shape-padding:0;clip-rule:nonzero;display:inline;overflow:visible;visibility:visible;opacity:0.25;isolation:auto;mix-blend-mode:normal;color-interpolation:sRGB;color-interpolation-filters:linearRGB;solid-color:#000000;solid-opacity:1;vector-effect:none;fill:#000000;fill-opacity:1;fill-rule:nonzero;stroke:none;stroke-width:2.27129841;stroke-linecap:round;stroke-linejoin:round;stroke-miterlimit:4;stroke-dasharray:none;stroke-dashoffset:0;stroke-opacity:1;color-rendering:auto;image-rendering:auto;shape-rendering:auto;text-rendering:auto;enable-background:accumulate;filter:url(#filter878)" />
  <path
     sodipodi:nodetypes="cccccccccccccccccccc"
     inkscape:connector-curvature="0"
     id="path829"
     d="m 33.912109,12.267578 c -0.783709,0.04536 -1.286184,0.853126 -0.980468,1.576172 1.0876,2.572412 2.419712,5.149614 2.476562,8.873047 -4.250377,-1.205819 -9.947112,-0.824779 -14.990234,4.568359 -0.636692,0.679751 -0.229584,1.794725 0.695312,1.904297 2.739764,0.329268 5.57081,0.432161 8.751953,2.244141 -3.169544,3.135633 -5.698505,8.351423 -3.628906,15.539062 0.261802,0.906487 1.450705,1.116973 2.007813,0.355469 1.627242,-2.228643 3.131739,-4.682018 6.183593,-6.583984 1.092609,4.357177 4.29151,9.191509 11.433594,10.957031 0.908717,0.226273 1.685423,-0.682564 1.320313,-1.544922 -1.086594,-2.572751 -2.420117,-5.149328 -2.476563,-8.871094 4.249845,1.203573 9.945554,0.821207 14.988281,-4.570312 C 60.327049,36.035767 59.922038,34.924552 59,34.8125 c -2.739929,-0.329288 -5.572409,-0.433884 -8.753906,-2.246094 3.170063,-3.13655 5.700334,-8.351851 3.630859,-15.539062 -0.261803,-0.906485 -1.450704,-1.116972 -2.007812,-0.355469 -1.62736,2.228805 -3.133137,4.682914 -6.185547,6.585937 C 44.591176,18.899551 41.393592,14.064433 34.25,12.298828 c -0.11043,-0.02728 -0.224331,-0.03781 -0.337891,-0.03125 z"
     style="color:#000000;font-style:normal;font-variant:normal;font-weight:normal;font-stretch:normal;font-size:medium;line-height:normal;font-family:sans-serif;font-variant-ligatures:normal;font-variant-position:normal;font-variant-caps:normal;font-variant-numeric:normal;font-variant-alternates:normal;font-feature-settings:normal;text-indent:0;text-align:start;text-decoration:none;text-decoration-line:none;text-decoration-style:solid;text-decoration-color:#000000;letter-spacing:normal;word-spacing:normal;text-transform:none;writing-mode:lr-tb;direction:ltr;text-orientation:mixed;dominant-baseline:auto;baseline-shift:baseline;text-anchor:start;white-space:normal;shape-padding:0;clip-rule:nonzero;display:inline;overflow:visible;visibility:visible;opacity:1;isolation:auto;mix-blend-mode:normal;color-interpolation:sRGB;color-interpolation-filters:linearRGB;solid-color:#000000;solid-opacity:1;vector-effect:none;fill:#f7ac00;fill-opacity:1;fill-rule:nonzero;stroke:none;stroke-width:2.27129841;stroke-linecap:round;stroke-linejoin:round;stroke-miterlimit:4;stroke-dasharray:none;stroke-dashoffset:0;stroke-opacity:1;color-rendering:auto;image-rendering:auto;shape-rendering:auto;text-rendering:auto;enable-background:accumulate" />
  <path
     inkscape:connector-curvature="0"
     style="color:#000000;font-style:normal;font-variant:normal;font-weight:normal;font-stretch:normal;font-size:medium;line-height:normal;font-family:sans-serif;font-variant-ligatures:normal;font-variant-position:normal;font-variant-caps:normal;font-variant-numeric:normal;font-variant-alternates:normal;font-feature-settings:normal;text-indent:0;text-align:start;text-decoration:none;text-decoration-line:none;text-decoration-style:solid;text-decoration-color:#000000;letter-spacing:normal;word-spacing:normal;text-transform:none;writing-mode:lr-tb;direction:ltr;text-orientation:mixed;dominant-baseline:auto;baseline-shift:baseline;text-anchor:start;white-space:normal;shape-padding:0;clip-rule:nonzero;display:inline;overflow:visible;visibility:visible;opacity:1;isolation:auto;mix-blend-mode:normal;color-interpolation:sRGB;color-interpolation-filters:linearRGB;solid-color:#000000;solid-opacity:1;vector-effect:none;fill:#575757;fill-opacity:1;fill-rule:nonzero;stroke:none;stroke-width:2.27129841;stroke-linecap:round;stroke-linejoin:round;stroke-miterlimit:4;stroke-dasharray:none;stroke-dashoffset:0;stroke-opacity:1;color-rendering:auto;image-rendering:auto;shape-rendering:auto;text-rendering:auto;enable-background:accumulate"
     d="M 35.529297,4 C 14.726767,4 4.0000002,18.982562 4.0000002,32 c 0,13.017437 10.7275028,28 31.5312498,28 0.365739,5.72e-4 0.646798,-0.161163 0.84375,-0.388672 C 19.267763,57.183775 10.472656,43.786993 10.472656,32 10.472656,20.213006 19.266828,6.8162248 36.373047,4.3886719 36.176095,4.1611625 35.895036,3.9994306 35.529297,4 Z"
     id="path7-1" />
  <path
     style="color:#000000;font-style:normal;font-variant:normal;font-weight:normal;font-stretch:normal;font-size:medium;line-height:normal;font-family:sans-serif;font-variant-ligatures:normal;font-variant-position:normal;font-variant-caps:normal;font-variant-numeric:normal;font-variant-alternates:normal;font-feature-settings:normal;text-indent:0;text-align:start;text-decoration:none;text-decoration-line:none;text-decoration-style:solid;text-decoration-color:#000000;letter-spacing:normal;word-spacing:normal;text-transform:none;writing-mode:lr-tb;direction:ltr;text-orientation:mixed;dominant-baseline:auto;baseline-shift:baseline;text-anchor:start;white-space:normal;shape-padding:0;clip-rule:nonzero;display:inline;overflow:visible;visibility:visible;opacity:1;isolation:auto;mix-blend-mode:normal;color-interpolation:sRGB;color-interpolation-filters:linearRGB;solid-color:#000000;solid-opacity:1;vector-effect:none;fill:#ffe026;fill-opacity:1;fill-rule:nonzero;stroke:none;stroke-width:1.47681272;stroke-linecap:round;stroke-linejoin:round;stroke-miterlimit:4;stroke-dasharray:none;stroke-dashoffset:0;stroke-opacity:1;color-rendering:auto;image-rendering:auto;shape-rendering:auto;text-rendering:auto;enable-background:accumulate"
     d="m 39.517777,18.573645 c -0.499842,-0.103403 -0.951358,0.31936 -0.881032,0.824917 0.250168,1.798634 0.653096,3.641424 0.0622,5.989498 -2.466532,-1.472594 -6.108496,-2.191962 -10.183423,0.346519 -0.514268,0.319773 -0.446217,1.088544 0.116225,1.313007 1.665301,0.667861 3.426027,1.208908 5.119017,2.882265 -2.518318,1.435949 -4.984379,4.286143 -4.894142,9.148632 0.01188,0.613378 0.723147,0.945649 1.201189,0.561139 1.39704,-1.12586 2.754809,-2.41352 4.991603,-3.094468 -0.04704,2.920401 1.148487,6.494938 5.33697,8.805687 0.532641,0.295035 1.173397,-0.145052 1.089212,-0.7481 -0.24948,-1.798677 -0.653399,-3.641312 -0.06253,-5.988271 2.466575,1.471094 6.108118,2.189456 10.182525,-0.348075 0.512269,-0.319853 0.444903,-1.085911 -0.115327,-1.311451 -1.665401,-0.667901 -3.426742,-1.210259 -5.119915,-2.883819 2.518798,-1.436438 4.985599,-4.286105 4.895368,-9.148305 -0.01188,-0.613376 -0.723146,-0.945648 -1.201188,-0.561139 -1.397142,1.125942 -2.755839,2.413848 -4.993159,3.095366 0.04734,-2.921049 -1.147226,-6.495858 -5.336641,-8.806914 -0.06476,-0.03572 -0.134529,-0.06149 -0.206953,-0.07649 z"
     id="path935"
     inkscape:connector-curvature="0"
     sodipodi:nodetypes="cccccccccccccccccccc" />
  <path
     sodipodi:nodetypes="cccccccccccccccccccc"
     inkscape:connector-curvature="0"
     id="path830"
     d="m 42.676326,24.893757 c -0.237919,-0.161829 -0.564353,-0.03925 -0.63696,0.239174 -0.258336,0.990567 -0.446672,2.037128 -1.261643,3.132066 -0.966127,-1.299647 -2.707017,-2.461053 -5.377198,-2.019693 -0.336856,0.05539 -0.467516,0.470381 -0.223157,0.70877 0.722803,0.707531 1.52269,1.369647 2.042674,2.606705 -1.62148,0.203594 -3.521298,1.15485 -4.52485,3.70616 -0.126331,0.321943 0.172224,0.648619 0.504206,0.551691 0.970655,-0.284387 1.95582,-0.661504 3.267598,-0.532805 -0.655445,1.510439 -0.805228,3.629932 0.876407,5.738018 0.213596,0.268696 0.642306,0.177985 0.728761,-0.1542 0.258702,-0.99044 0.446488,-2.037135 1.261202,-3.131499 0.966474,1.298875 2.707362,2.459665 5.377067,2.01869 0.335833,-0.05587 0.466262,-0.469295 0.223291,-0.707766 -0.722846,-0.707573 -1.52277,-1.370506 -2.042805,-2.607708 1.621836,-0.203744 3.521925,-1.154567 4.525418,-3.705724 0.126331,-0.321943 -0.172224,-0.648618 -0.504205,-0.551692 -0.970726,0.284408 -1.956428,0.661453 -3.268603,0.532936 0.655742,-1.51071 0.806084,-3.630139 -0.875971,-5.738584 -0.026,-0.0326 -0.05677,-0.06108 -0.09123,-0.08454 z"
     style="color:#000000;font-style:normal;font-variant:normal;font-weight:normal;font-stretch:normal;font-size:medium;line-height:normal;font-family:sans-serif;font-variant-ligatures:normal;font-variant-position:normal;font-variant-caps:normal;font-variant-numeric:normal;font-variant-alternates:normal;font-feature-settings:normal;text-indent:0;text-align:start;text-decoration:none;text-decoration-line:none;text-decoration-style:solid;text-decoration-color:#000000;letter-spacing:normal;word-spacing:normal;text-transform:none;writing-mode:lr-tb;direction:ltr;text-orientation:mixed;dominant-baseline:auto;baseline-shift:baseline;text-anchor:start;white-space:normal;shape-padding:0;clip-rule:nonzero;display:inline;overflow:visible;visibility:visible;opacity:1;isolation:auto;mix-blend-mode:normal;color-interpolation:sRGB;color-interpolation-filters:linearRGB;solid-color:#000000;solid-opacity:1;vector-effect:none;fill:#575757;fill-opacity:1;fill-rule:nonzero;stroke:none;stroke-width:0.8325187;stroke-linecap:round;stroke-linejoin:round;stroke-miterlimit:4;stroke-dasharray:none;stroke-dashoffset:0;stroke-opacity:1;color-rendering:auto;image-rendering:auto;shape-rendering:auto;text-rendering:auto;enable-background:accumulate" />
  <path
     inkscape:connector-curvature="0"
     style="color:#000000;font-style:normal;font-variant:normal;font-weight:normal;font-stretch:normal;font-size:medium;line-height:normal;font-family:sans-serif;font-variant-ligatures:normal;font-variant-position:normal;font-variant-caps:normal;font-variant-numeric:normal;font-variant-alternates:normal;font-feature-settings:normal;text-indent:0;text-align:start;text-decoration:none;text-decoration-line:none;text-decoration-style:solid;text-decoration-color:#000000;letter-spacing:normal;word-spacing:normal;text-transform:none;writing-mode:lr-tb;direction:ltr;text-orientation:mixed;dominant-baseline:auto;baseline-shift:baseline;text-anchor:start;white-space:normal;shape-padding:0;clip-rule:nonzero;display:inline;overflow:visible;visibility:visible;opacity:1;isolation:auto;mix-blend-mode:normal;color-interpolation:sRGB;color-interpolation-filters:linearRGB;solid-color:#000000;solid-opacity:1;vector-effect:none;fill:#b9b9b9;fill-opacity:1;fill-rule:nonzero;stroke:none;stroke-width:2.27129841;stroke-linecap:round;stroke-linejoin:round;stroke-miterlimit:4;stroke-dasharray:none;stroke-dashoffset:0;stroke-opacity:1;color-rendering:auto;image-rendering:auto;shape-rendering:auto;text-rendering:auto;enable-background:accumulate"
     d="m 35.861328,4.0566402 c 0.04197,0.013103 0.08418,0.025318 0.123047,0.042969 -0.03981,-0.017013 -0.0802,-0.030474 -0.123047,-0.042969 z m 0.177734,0.072266 c 0.127946,0.067633 0.24244,0.1540171 0.333985,0.2597657 -0.09215,-0.1064488 -0.202334,-0.1941438 -0.333985,-0.2597657 z m 0.333985,0.2597657 C 19.266828,6.8162243 10.472656,20.213005 10.472656,31.999999 c 0,11.786993 8.795107,25.183775 25.902344,27.611328 0.422626,-0.488197 0.417515,-1.312387 -0.253906,-1.71875 C 24.154467,50.632972 18.429688,42.468694 18.429688,31.999999 c 0,-10.468783 5.722855,-18.632989 17.689453,-25.8925776 0.671421,-0.4063626 0.676532,-1.2305524 0.253906,-1.7187495 z m 0.002,55.2226561 c -0.09155,0.105749 -0.206039,0.192132 -0.333984,0.259766 0.13165,-0.06562 0.241833,-0.153317 0.333984,-0.259766 z m -0.388672,0.289063 c -0.03887,0.01765 -0.08108,0.02987 -0.123047,0.04297 0.04285,-0.01249 0.08324,-0.02596 0.123047,-0.04297 z"
     id="path7-3" />
</svg>
