<?xml version="1.0" encoding="UTF-8" standalone="no"?>
<svg
   xmlns:dc="http://purl.org/dc/elements/1.1/"
   xmlns:cc="http://creativecommons.org/ns#"
   xmlns:rdf="http://www.w3.org/1999/02/22-rdf-syntax-ns#"
   xmlns:svg="http://www.w3.org/2000/svg"
   xmlns="http://www.w3.org/2000/svg"
   xmlns:sodipodi="http://sodipodi.sourceforge.net/DTD/sodipodi-0.dtd"
   xmlns:inkscape="http://www.inkscape.org/namespaces/inkscape"
   viewBox="0 0 64 64"
   version="1.1"
   id="svg21"
   sodipodi:docname="gtkconfig.svg"
   width="64"
   height="64"
   inkscape:version="0.92.4 5da689c313, 2019-01-14">
  <metadata
     id="metadata27">
    <rdf:RDF>
      <cc:Work
         rdf:about="">
        <dc:format>image/svg+xml</dc:format>
        <dc:type
           rdf:resource="http://purl.org/dc/dcmitype/StillImage" />
        <dc:title></dc:title>
      </cc:Work>
    </rdf:RDF>
  </metadata>
  <defs
     id="defs25">
    <filter
       height="1.3524402"
       y="-0.1762201"
       width="1.0717977"
       x="-0.035898857"
       id="filter863"
       style="color-interpolation-filters:sRGB"
       inkscape:collect="always">
      <feGaussianBlur
         id="feGaussianBlur865"
         stdDeviation="0.22541487"
         inkscape:collect="always" />
    </filter>
    <filter
       inkscape:collect="always"
       style="color-interpolation-filters:sRGB"
       id="filter923"
       x="-0.067497055"
       width="1.1349941"
       y="-0.054001885"
       height="1.1080038">
      <feGaussianBlur
         inkscape:collect="always"
         stdDeviation="0.67739406"
         id="feGaussianBlur925" />
    </filter>
    <filter
       inkscape:collect="always"
       style="color-interpolation-filters:sRGB"
       id="filter959"
       x="-0.054642523"
       width="1.109285"
       y="-0.066522234"
       height="1.1330445">
      <feGaussianBlur
         inkscape:collect="always"
         stdDeviation="1.274992"
         id="feGaussianBlur961" />
    </filter>
  </defs>
  <sodipodi:namedview
     pagecolor="#ffffff"
     bordercolor="#666666"
     borderopacity="1"
     objecttolerance="10"
     gridtolerance="10"
     guidetolerance="10"
     inkscape:pageopacity="0"
     inkscape:pageshadow="2"
     inkscape:window-width="1366"
     inkscape:window-height="700"
     id="namedview23"
     showgrid="false"
     inkscape:zoom="4.9166667"
     inkscape:cx="4.7720724"
     inkscape:cy="40.729861"
     inkscape:window-x="0"
     inkscape:window-y="0"
     inkscape:window-maximized="1"
     inkscape:current-layer="svg21" />
  <linearGradient
     id="a"
     gradientUnits="userSpaceOnUse"
     x1="7.2189999"
     x2="43.369999"
     y1="10.666"
     y2="42.018002">
    <stop
       offset="0"
       stop-color="#f40"
       id="stop2" />
    <stop
       offset="1"
       stop-color="#ff00c3"
       id="stop4" />
  </linearGradient>
  <rect
     transform="scale(-1)"
     style="opacity:0.25;fill:#000000;fill-opacity:1;stroke:none;stroke-width:1.32683527;stroke-linecap:round;stroke-linejoin:round;stroke-miterlimit:4;stroke-dasharray:none;stroke-opacity:1;filter:url(#filter959)"
     id="rect937"
     width="55.999992"
     height="45.999371"
     x="-60"
     y="-56"
     rx="6.0863075"
     ry="6.0581465" />
  <rect
     ry="6.0581465"
     rx="6.0863075"
     y="-56"
     x="-60"
     height="45.999371"
     width="55.999992"
     id="rect941"
     style="opacity:1;fill:#ff515a;fill-opacity:1;stroke:none;stroke-width:1.32683527;stroke-linecap:round;stroke-linejoin:round;stroke-miterlimit:4;stroke-dasharray:none;stroke-opacity:1"
     transform="scale(-1)" />
  <g
     transform="matrix(1.7351893,0,0,1.7665686,-13.237449,-1.0066284)"
     id="g17"
     style="fill:#000102;fill-opacity:1;stroke:none;stroke-linecap:round;stroke-opacity:1">
    <circle
       style="fill:#000102;fill-opacity:1;stroke:none;stroke-width:1.5;stroke-opacity:1"
       id="circle7-0"
       r="1.535"
       cy="9.5150003"
       cx="38.453999" />
    <circle
       style="fill:#000102;fill-opacity:1;stroke:none;stroke-width:1.5;stroke-opacity:1"
       id="circle9-0"
       r="1.535"
       cy="9.5150003"
       cx="32.453999" />
    <circle
       style="fill:#000102;fill-opacity:1;stroke:none;stroke-width:1.5;stroke-opacity:1"
       id="circle11-8"
       r="1.535"
       cy="9.5150003"
       cx="26.454" />
  </g>
  <g
     style="opacity:0.331;fill:#000102;fill-opacity:1;stroke:none;stroke-linecap:round;stroke-opacity:1;filter:url(#filter863)"
     id="g833"
     transform="matrix(1.7351893,0,0,1.7665686,-13.237449,-1.0066284)">
    <circle
       cx="38.453999"
       cy="9.5150003"
       r="1.535"
       id="circle827"
       style="fill:#000102;fill-opacity:1;stroke:none;stroke-width:1.5;stroke-opacity:1" />
    <circle
       cx="32.453999"
       cy="9.5150003"
       r="1.535"
       id="circle829"
       style="fill:#000102;fill-opacity:1;stroke:none;stroke-width:1.5;stroke-opacity:1" />
    <circle
       cx="26.454"
       cy="9.5150003"
       r="1.535"
       id="circle831"
       style="fill:#000102;fill-opacity:1;stroke:none;stroke-width:1.5;stroke-opacity:1" />
  </g>
  <path
     inkscape:connector-curvature="0"
     style="opacity:1;fill:#ffffff;fill-opacity:0.29752066;stroke:none;stroke-width:1.32683527;stroke-linecap:round;stroke-linejoin:round;stroke-miterlimit:4;stroke-dasharray:none;stroke-opacity:1"
     d="M 10.085938,10 C 6.7141231,10 4,12.702794 4,16.059007 V 49.940993 C 4,53.297206 6.7141231,56 10.085938,56 h 43.08789 L 14.945312,10 Z"
     id="rect941-7" />
  <path
     d="m 41.063221,22.109247 c -6.115663,0 -7.26391,8.935042 -3.823111,8.935042 3.440799,0 9.940087,-8.935042 3.823111,-8.935042 z m -9.419829,1.374218 c -0.09722,0 -0.202323,0.0092 -0.310053,0.01971 -3.465761,0.420411 -2.24657,6.060484 -0.400704,6.165587 1.786746,0.102475 3.740342,-6.174783 0.709444,-6.185293 z m -6.01056,2.082346 c -0.211519,-0.01314 -0.446686,0.02628 -0.708129,0.128752 -2.785221,1.099636 -0.423039,5.640073 1.136423,5.333962 1.416258,-0.275896 1.618581,-5.333962 -0.428294,-5.462714 z m -4.547005,3.710126 c -0.241736,-0.0066 -0.503179,0.07488 -0.783015,0.27458 -2.229491,1.600189 0.75017,5.46534 2.06264,4.866255 1.148248,-0.525513 0.415156,-5.081715 -1.279625,-5.140835 z m 13.170681,3.691732 c -4.832096,-0.08014 -11.206574,2.276787 -12.293074,7.012977 -1.175836,5.123755 4.847862,12.233953 11.131689,12.233953 3.091333,0 6.656941,-2.715591 7.324344,-6.15639 0.509748,-2.623626 -5.996109,-1.572599 -5.762255,0.162909 0.279836,2.081034 -1.568657,3.109726 -3.380365,1.768353 -5.764883,-4.269797 9.545951,-6.400755 8.535652,-12.233954 -0.313995,-1.815648 -2.657785,-2.740552 -5.557305,-2.789162 z"
     id="path897"
     inkscape:connector-curvature="0"
     style="opacity:0.25;fill:#000000;fill-opacity:1;stroke:none;stroke-width:2.62756729;filter:url(#filter923)" />
  <path
     style="fill:#ffffff;fill-opacity:1;stroke:none;stroke-width:2.62756729"
     inkscape:connector-curvature="0"
     id="path17"
     d="m 41.063221,22.109247 c -6.115663,0 -7.26391,8.935042 -3.823111,8.935042 3.440799,0 9.940087,-8.935042 3.823111,-8.935042 z m -9.419829,1.374218 c -0.09722,0 -0.202323,0.0092 -0.310053,0.01971 -3.465761,0.420411 -2.24657,6.060484 -0.400704,6.165587 1.786746,0.102475 3.740342,-6.174783 0.709444,-6.185293 z m -6.01056,2.082346 c -0.211519,-0.01314 -0.446686,0.02628 -0.708129,0.128752 -2.785221,1.099636 -0.423039,5.640073 1.136423,5.333962 1.416258,-0.275896 1.618581,-5.333962 -0.428294,-5.462714 z m -4.547005,3.710126 c -0.241736,-0.0066 -0.503179,0.07488 -0.783015,0.27458 -2.229491,1.600189 0.75017,5.46534 2.06264,4.866255 1.148248,-0.525513 0.415156,-5.081715 -1.279625,-5.140835 z m 13.170681,3.691732 c -4.832096,-0.08014 -11.206574,2.276787 -12.293074,7.012977 -1.175836,5.123755 4.847862,12.233953 11.131689,12.233953 3.091333,0 6.656941,-2.715591 7.324344,-6.15639 0.509748,-2.623626 -5.996109,-1.572599 -5.762255,0.162909 0.279836,2.081034 -1.568657,3.109726 -3.380365,1.768353 -5.764883,-4.269797 9.545951,-6.400755 8.535652,-12.233954 -0.313995,-1.815648 -2.657785,-2.740552 -5.557305,-2.789162 z" />
</svg>
