<?xml version="1.0" encoding="UTF-8" standalone="no"?>
<svg
   xmlns:dc="http://purl.org/dc/elements/1.1/"
   xmlns:cc="http://creativecommons.org/ns#"
   xmlns:rdf="http://www.w3.org/1999/02/22-rdf-syntax-ns#"
   xmlns:svg="http://www.w3.org/2000/svg"
   xmlns="http://www.w3.org/2000/svg"
   xmlns:sodipodi="http://sodipodi.sourceforge.net/DTD/sodipodi-0.dtd"
   xmlns:inkscape="http://www.inkscape.org/namespaces/inkscape"
   viewBox="0 0 64 64"
   version="1.1"
   id="svg11"
   sodipodi:docname="redshift.svg"
   width="64"
   height="64"
   inkscape:version="0.92.4 5da689c313, 2019-01-14">
  <metadata
     id="metadata17">
    <rdf:RDF>
      <cc:Work
         rdf:about="">
        <dc:format>image/svg+xml</dc:format>
        <dc:type
           rdf:resource="http://purl.org/dc/dcmitype/StillImage" />
        <dc:title />
      </cc:Work>
    </rdf:RDF>
  </metadata>
  <defs
     id="defs15">
    <filter
       inkscape:collect="always"
       style="color-interpolation-filters:sRGB"
       id="filter990"
       x="-0.078"
       width="1.156"
       y="-0.04875"
       height="1.0975">
      <feGaussianBlur
         inkscape:collect="always"
         stdDeviation="1.1375"
         id="feGaussianBlur992" />
    </filter>
  </defs>
  <sodipodi:namedview
     pagecolor="#ffffff"
     bordercolor="#666666"
     borderopacity="1"
     objecttolerance="10"
     gridtolerance="10"
     guidetolerance="10"
     inkscape:pageopacity="0"
     inkscape:pageshadow="2"
     inkscape:window-width="1366"
     inkscape:window-height="700"
     id="namedview13"
     showgrid="true"
     inkscape:zoom="3.4766084"
     inkscape:cx="35.002012"
     inkscape:cy="11.950234"
     inkscape:window-x="0"
     inkscape:window-y="0"
     inkscape:window-maximized="1"
     inkscape:current-layer="svg11">
    <inkscape:grid
       type="xygrid"
       id="grid835" />
  </sodipodi:namedview>
  <linearGradient
     id="a"
     gradientUnits="userSpaceOnUse"
     x1="7.809"
     x2="28.645"
     y1="24.927"
     y2="24.927"
     gradientTransform="translate(0,16)">
    <stop
       offset="0"
       stop-color="#ff971f"
       id="stop2" />
    <stop
       offset="1"
       stop-color="#ff1f7e"
       id="stop4" />
  </linearGradient>
  <path
     style="stroke-width:0.109375;fill:#000000;fill-opacity:1;opacity:0.25;filter:url(#filter990)"
     d="M 31.5 4 C 21.85105 4 14 11.85105 14 21.5 C 14 25.83738 15.976565 29.805715 17.890625 33.640625 C 19.490235 36.856905 21 39.89206 21 42.5 C 21 44.43462 22.56548 46 24.5 46 L 38.5 46 C 40.43462 46 42 44.43452 42 42.5 C 42 39.76223 43.528377 36.713414 45.148438 33.490234 C 47.042048 29.716804 49 25.81353 49 21.5 C 49 11.85105 41.14895 4 31.5 4 z M 24.5 47.75 C 23.53269 47.75 22.75 48.53269 22.75 49.5 C 22.75 50.46731 23.53269 51.25 24.5 51.25 C 23.53269 51.25 22.75 52.03269 22.75 53 C 22.75 53.96731 23.53269 54.75 24.5 54.75 C 23.53269 54.75 22.75 55.53269 22.75 56.5 C 22.75 57.46731 23.53269 58.25 24.5 58.25 L 28 58.25 C 28.82709 59.35053 30.12253 60 31.5 60 C 32.87747 60 34.1728 59.35064 35 58.25 L 38.5 58.25 C 39.46731 58.25 40.25 57.46731 40.25 56.5 C 40.25 55.53269 39.46731 54.75 38.5 54.75 C 39.46731 54.75 40.25 53.96731 40.25 53 C 40.25 52.03269 39.46731 51.25 38.5 51.25 C 39.46731 51.25 40.25 50.46731 40.25 49.5 C 40.25 48.53269 39.46731 47.75 38.5 47.75 L 24.5 47.75 z "
     id="path961" />
  <path
     id="path910"
     d="m 38.5,51.25 c 0.96731,0 1.75,0.78269 1.75,1.75 0,0.96731 -0.78269,1.75 -1.75,1.75 0.96731,0 1.75,0.78269 1.75,1.75 0,0.96731 -0.78269,1.75 -1.75,1.75 H 35 C 34.1728,59.35064 32.87747,60 31.5,60 30.12253,60 28.82709,59.35053 28,58.25 h -3.5 c -0.96731,0 -1.75,-0.78269 -1.75,-1.75 0,-0.96731 0.78269,-1.75 1.75,-1.75 -0.96731,0 -1.75,-0.78269 -1.75,-1.75 0,-0.96731 0.78269,-1.75 1.75,-1.75 -0.96731,0 -1.75,-0.78269 -1.75,-1.75 0,-0.96731 0.78269,-1.75 1.75,-1.75 h 14 c 0.96731,0 1.75,0.78269 1.75,1.75 0,0.96731 -0.78269,1.75 -1.75,1.75 z"
     inkscape:connector-curvature="0"
     style="stroke-width:0.109375;fill:#828282;fill-opacity:1"
     sodipodi:nodetypes="cscsscscsscscssssc" />
  <path
     style="fill:#dc2126;fill-opacity:1;stroke-width:0.109375"
     inkscape:connector-curvature="0"
     d="M 31.5,4 C 21.85105,4 14,11.85105 14,21.5 c 0,4.33738 1.97564,8.30572 3.8897,12.14063 C 19.48931,36.85691 21,39.89206 21,42.5 c 0,1.93462 1.56548,3.5 3.5,3.5 h 14 c 1.93462,0 3.5,-1.56548 3.5,-3.5 0,-2.73777 1.52786,-5.78659 3.14792,-9.00977 C 47.04153,29.7168 49,25.81353 49,21.5 49,11.85105 41.14895,4 31.5,4 Z"
     id="path920"
     sodipodi:nodetypes="sscsssscss" />
  <path
     inkscape:connector-curvature="0"
     style="fill:#f0542d;fill-opacity:1;stroke-width:0.109375"
     d="m 31.5,4 c -9.644437,0.00535 -17.490234,7.854337 -17.490234,17.5 0,4.33738 1.976565,8.305715 3.890625,12.140625 1.59961,3.21628 3.109375,6.251435 3.109375,8.859375 0,1.93462 1.56548,3.5 3.5,3.5 H 31.5 Z"
     id="path920-0" />
  <path
     sodipodi:nodetypes="ssssssssssssss"
     id="path930"
     d="m 36.75,26.75 c 0,0.96731 -0.78269,1.75 -1.75,1.75 h -7 c -0.96731,0 -1.75,-0.78269 -1.75,-1.75 C 26.25,25.78269 27.03269,25 28,25 h 7 c 0.96731,0 1.75,0.78269 1.75,1.75 z m 0,-5.25 c 0,0.96731 -0.78269,1.75 -1.75,1.75 h -7 c -0.96731,0 -1.75,-0.78269 -1.75,-1.75 0,-0.96731 0.78269,-1.75 1.75,-1.75 h 7 c 0.96731,0 1.75,0.78269 1.75,1.75 z"
     inkscape:connector-curvature="0"
     style="fill:#ffffff;fill-opacity:1;stroke-width:0.109375" />
</svg>
