<?xml version="1.0" encoding="UTF-8" standalone="no"?>
<svg
   xmlns:dc="http://purl.org/dc/elements/1.1/"
   xmlns:cc="http://creativecommons.org/ns#"
   xmlns:rdf="http://www.w3.org/1999/02/22-rdf-syntax-ns#"
   xmlns:svg="http://www.w3.org/2000/svg"
   xmlns="http://www.w3.org/2000/svg"
   xmlns:xlink="http://www.w3.org/1999/xlink"
   xmlns:sodipodi="http://sodipodi.sourceforge.net/DTD/sodipodi-0.dtd"
   xmlns:inkscape="http://www.inkscape.org/namespaces/inkscape"
   viewBox="0 0 48 48"
   version="1.1"
   id="svg29"
   sodipodi:docname="skype.svg"
   inkscape:version="0.92.4 5da689c313, 2019-01-14">
  <metadata
     id="metadata33">
    <rdf:RDF>
      <cc:Work
         rdf:about="">
        <dc:format>image/svg+xml</dc:format>
        <dc:type
           rdf:resource="http://purl.org/dc/dcmitype/StillImage" />
      </cc:Work>
    </rdf:RDF>
  </metadata>
  <sodipodi:namedview
     pagecolor="#ffffff"
     bordercolor="#666666"
     borderopacity="1"
     objecttolerance="10"
     gridtolerance="10"
     guidetolerance="10"
     inkscape:pageopacity="0"
     inkscape:pageshadow="2"
     inkscape:window-width="810"
     inkscape:window-height="480"
     id="namedview31"
     showgrid="false"
     inkscape:zoom="4.9166667"
     inkscape:cx="24"
     inkscape:cy="24"
     inkscape:window-x="0"
     inkscape:window-y="0"
     inkscape:window-maximized="0"
     inkscape:current-layer="svg29" />
  <defs
     id="defs12">
    <linearGradient
       id="b">
      <stop
         offset="0"
         stop-color="#008cd1"
         id="stop2" />
      <stop
         offset="1"
         stop-color="#00a5dd"
         id="stop4" />
    </linearGradient>
    <linearGradient
       xlink:href="#a"
       id="e"
       x1="11.505"
       y1="13.627"
       x2="34.085"
       y2="33.906"
       gradientUnits="userSpaceOnUse" />
    <linearGradient
       xlink:href="#b"
       id="c"
       x1="11.794"
       y1="15.505"
       x2="36.475"
       y2="33.012"
       gradientUnits="userSpaceOnUse" />
    <filter
       id="d"
       x="-.06"
       width="1.12"
       y="-.06"
       height="1.12"
       color-interpolation-filters="sRGB">
      <feGaussianBlur
         stdDeviation=".985"
         id="feGaussianBlur9" />
    </filter>
  </defs>
  <linearGradient
     id="a"
     gradientTransform="rotate(-90 24 24)"
     gradientUnits="userSpaceOnUse"
     x1="8.356"
     x2="41.396"
     y1="7.755"
     y2="38.532">
    <stop
       offset="0"
       stop-color="#00adeb"
       id="stop14" />
    <stop
       offset="1"
       stop-color="#0087db"
       id="stop16" />
  </linearGradient>
  <path
     d="M18.06 11a7.047 7.047 0 0 0-7.05 7.05c0 1.203.305 2.367.836 3.359-.176.84-.273 1.695-.273 2.586 0 6.863 5.566 12.43 12.438 12.43.887 0 1.746-.094 2.582-.27.996.539 2.145.84 3.355.84a7.047 7.047 0 0 0 7.05-7.05 7.117 7.117 0 0 0-.84-3.363c.176-.836.27-1.695.27-2.582 0-6.859-5.566-12.43-12.43-12.43-.891 0-1.75.09-2.586.27a7.16 7.16 0 0 0-3.359-.84m5.703 5.16c3.883 0 5.887 2.043 5.887 3.242 0 1.203-.578 1.383-1.531 1.383-1.852 0-1.094-2.223-4.563-2.223-1.148 0-2.582.523-2.582 1.859 0 1.074 1.27 1.469 3.512 2.02 3.379.902 5.914 1.801 5.914 4.891 0 3-2.453 4.504-6.336 4.504s-6.363-2.313-6.363-3.512.457-1.5 1.41-1.5c1.855 0 1.605 2.523 5.074 2.523 1.152 0 2.852-.523 2.852-1.863 0-1.07-.09-1.441-2.551-2.102-2.629-.355-6.875-1.207-6.875-4.473 0-3 2.273-4.746 6.156-4.746m0 0"
     transform="translate(-13.642 -13.639) scale(1.55674)"
     fill="url(#c)"
     id="path19" />
  <circle
     r="19.703"
     cy="23.839"
     cx="23.874"
     opacity=".25"
     filter="url(#d)"
     id="circle21" />
  <circle
     cx="23.874"
     cy="23.839"
     r="19.703"
     fill="url(#e)"
     id="circle23" />
  <path
     d="M24.357 12.025c6.045 0 9.164 3.18 9.164 5.047 0 1.873-.899 2.154-2.382 2.154-2.883 0-1.704-3.46-7.104-3.46-1.787 0-4.02.812-4.02 2.892 0 1.672 1.977 2.287 5.467 3.145 5.26 1.404 9.207 2.804 9.207 7.615 0 4.67-3.818 7.012-9.863 7.012s-9.906-3.6-9.906-5.467c0-1.867.712-2.336 2.195-2.336 2.888 0 2.498 3.928 7.899 3.928 1.793 0 4.441-.815 4.441-2.9 0-1.667-.141-2.243-3.973-3.272-4.092-.553-10.7-1.88-10.7-6.965 0-4.67 3.536-7.387 9.581-7.387z"
     fill="#fff"
     id="path27" />
</svg>
