<?xml version="1.0" encoding="UTF-8" standalone="no"?>
<svg
   xmlns:dc="http://purl.org/dc/elements/1.1/"
   xmlns:cc="http://creativecommons.org/ns#"
   xmlns:rdf="http://www.w3.org/1999/02/22-rdf-syntax-ns#"
   xmlns:svg="http://www.w3.org/2000/svg"
   xmlns="http://www.w3.org/2000/svg"
   xmlns:xlink="http://www.w3.org/1999/xlink"
   xmlns:sodipodi="http://sodipodi.sourceforge.net/DTD/sodipodi-0.dtd"
   xmlns:inkscape="http://www.inkscape.org/namespaces/inkscape"
   viewBox="0 0 64 64"
   version="1.1"
   id="svg13"
   sodipodi:docname="sudoku.svg"
   width="64"
   height="64"
   inkscape:version="0.92.4 5da689c313, 2019-01-14">
  <metadata
     id="metadata19">
    <rdf:RDF>
      <cc:Work
         rdf:about="">
        <dc:format>image/svg+xml</dc:format>
        <dc:type
           rdf:resource="http://purl.org/dc/dcmitype/StillImage" />
        <dc:title></dc:title>
      </cc:Work>
    </rdf:RDF>
  </metadata>
  <defs
     id="defs17">
    <linearGradient
       gradientTransform="rotate(90,32.942051,32.480424)"
       gradientUnits="userSpaceOnUse"
       y2="32"
       x2="56.309361"
       y1="32"
       x1="8"
       id="linearGradient5124"
       xlink:href="#linearGradient5118"
       inkscape:collect="always" />
    <linearGradient
       id="linearGradient5118"
       inkscape:collect="always">
      <stop
         id="stop5120"
         offset="0"
         style="stop-color:#dddbdb;stop-opacity:1" />
      <stop
         id="stop5122"
         offset="1"
         style="stop-color:#b6b2b6;stop-opacity:1" />
    </linearGradient>
    <linearGradient
       gradientTransform="translate(-1.96e-5,-1052.3622)"
       gradientUnits="userSpaceOnUse"
       y2="1020.3622"
       x2="56"
       y1="1020.3622"
       x1="8"
       id="linearGradient5116"
       xlink:href="#linearGradient5110"
       inkscape:collect="always" />
    <linearGradient
       id="linearGradient5110"
       inkscape:collect="always">
      <stop
         style="stop-color:#ffffff;stop-opacity:1"
         offset="0"
         id="stop5114" />
      <stop
         style="stop-color:#f5f5f5;stop-opacity:1"
         offset="1"
         id="stop5112" />
    </linearGradient>
    <linearGradient
       inkscape:collect="always"
       xlink:href="#linearGradient5110"
       id="linearGradient901"
       gradientUnits="userSpaceOnUse"
       gradientTransform="translate(-0.46164629,-1053.7847)"
       x1="8"
       y1="1020.3622"
       x2="56"
       y2="1020.3622" />
    <filter
       inkscape:collect="always"
       style="color-interpolation-filters:sRGB"
       id="filter928"
       x="-0.06"
       width="1.12"
       y="-0.06"
       height="1.12">
      <feGaussianBlur
         inkscape:collect="always"
         stdDeviation="1.2"
         id="feGaussianBlur930" />
    </filter>
  </defs>
  <sodipodi:namedview
     pagecolor="#ffffff"
     bordercolor="#666666"
     borderopacity="1"
     objecttolerance="10"
     gridtolerance="10"
     guidetolerance="10"
     inkscape:pageopacity="0"
     inkscape:pageshadow="2"
     inkscape:window-width="1366"
     inkscape:window-height="699"
     id="namedview15"
     showgrid="false"
     inkscape:zoom="4.9166667"
     inkscape:cx="15.141933"
     inkscape:cy="33.036004"
     inkscape:window-x="0"
     inkscape:window-y="0"
     inkscape:window-maximized="1"
     inkscape:current-layer="svg13" />
  <linearGradient
     id="a">
    <stop
       offset="0"
       stop-color="#00ff1f"
       id="stop2" />
    <stop
       offset="1"
       stop-color="#00d7ff"
       id="stop4" />
  </linearGradient>
  <linearGradient
     id="b"
     gradientUnits="userSpaceOnUse"
     x1="2.086"
     x2="45.914001"
     xlink:href="#a"
     y1="24"
     y2="24"
     gradientTransform="translate(-59.389831,1.1525424)" />
  <linearGradient
     id="c"
     gradientUnits="userSpaceOnUse"
     x1="2.0179999"
     x2="45.983002"
     xlink:href="#a"
     y1="24"
     y2="24"
     gradientTransform="translate(-59.389831,1.1525424)" />
  <rect
     transform="rotate(90)"
     ry="4.0000172"
     y="-57.422474"
     x="7.5383563"
     height="48"
     width="48"
     id="rect906"
     style="color:#000000;clip-rule:nonzero;display:inline;overflow:visible;visibility:visible;opacity:0.253;isolation:auto;mix-blend-mode:normal;color-interpolation:sRGB;color-interpolation-filters:linearRGB;solid-color:#000000;solid-opacity:1;fill:#151515;fill-opacity:1;fill-rule:nonzero;stroke:none;stroke-width:2;stroke-linecap:butt;stroke-linejoin:miter;stroke-miterlimit:4;stroke-dasharray:none;stroke-dashoffset:0;stroke-opacity:1;color-rendering:auto;image-rendering:auto;shape-rendering:auto;text-rendering:auto;enable-background:accumulate;filter:url(#filter928)"
     rx="4.0000172" />
  <rect
     rx="4.0000172"
     style="color:#000000;clip-rule:nonzero;display:inline;overflow:visible;visibility:visible;opacity:1;isolation:auto;mix-blend-mode:normal;color-interpolation:sRGB;color-interpolation-filters:linearRGB;solid-color:#000000;solid-opacity:1;fill:url(#linearGradient901);fill-opacity:1;fill-rule:nonzero;stroke:none;stroke-width:2;stroke-linecap:butt;stroke-linejoin:miter;stroke-miterlimit:4;stroke-dasharray:none;stroke-dashoffset:0;stroke-opacity:1;color-rendering:auto;image-rendering:auto;shape-rendering:auto;text-rendering:auto;enable-background:accumulate"
     id="rect4991"
     width="48"
     height="48"
     x="7.5383563"
     y="-57.422474"
     ry="4.0000172"
     transform="rotate(90)" />
  <path
     style="color:#000000;clip-rule:nonzero;display:inline;overflow:visible;visibility:visible;opacity:1;isolation:auto;mix-blend-mode:normal;color-interpolation:sRGB;color-interpolation-filters:linearRGB;solid-color:#000000;solid-opacity:1;fill:url(#linearGradient5124);fill-opacity:1;fill-rule:nonzero;stroke:none;stroke-width:2;stroke-linecap:butt;stroke-linejoin:miter;stroke-miterlimit:4;stroke-dasharray:none;stroke-dashoffset:0;stroke-opacity:1;color-rendering:auto;image-rendering:auto;shape-rendering:auto;text-rendering:auto;enable-background:accumulate"
     d="m 57.422475,21.538373 h -14 V 7.5383737 h -2 V 21.538373 h -16 V 7.5383737 h -2 V 21.538373 H 9.4224749 v 2 H 23.422475 v 16 H 9.4224749 v 2 H 23.422475 v 14 h 2 v -14 h 16 v 14 h 2 v -14 h 14 v -2 h -14 v -16 h 14 z m -16,2 v 16 h -16 v -16 z"
     id="rect4993"
     inkscape:connector-curvature="0"
     sodipodi:nodetypes="cccccccccccccccccccccccccccccccccc" />
  <path
     style="color:#000000;clip-rule:nonzero;display:inline;overflow:visible;visibility:visible;opacity:1;isolation:auto;mix-blend-mode:normal;color-interpolation:sRGB;color-interpolation-filters:linearRGB;solid-color:#000000;solid-opacity:1;fill:#98929a;fill-opacity:1;fill-rule:nonzero;stroke:none;stroke-width:2;stroke-linecap:butt;stroke-linejoin:miter;stroke-miterlimit:4;stroke-dasharray:none;stroke-dashoffset:0;stroke-opacity:1;color-rendering:auto;image-rendering:auto;shape-rendering:auto;text-rendering:auto;enable-background:accumulate"
     d="m 9.4224749,50.538373 v 1 c 0,2.216 1.7839901,4 4.0000001,4 h 40 c 2.21601,0 4,-1.784 4,-4 v -1 c 0,2.216 -1.78399,4 -4,4 h -40 c -2.21601,0 -4.0000001,-1.784 -4.0000001,-4 z"
     id="rect4991-9"
     inkscape:connector-curvature="0" />
  <path
     d="m 37.152542,18.836274 h -5.996 v -0.867 l 2.402,-2.348 c 0.734,-0.727 1.215,-1.23 1.449,-1.539 0.234,-0.312 0.406,-0.609 0.523,-0.898 0.117,-0.289 0.176,-0.605 0.176,-0.938 0,-0.48 -0.145,-0.855 -0.441,-1.121 -0.293,-0.281 -0.703,-0.422 -1.23,-0.422 -0.368655,-0.0025 -0.73488,0.05982 -1.082,0.184 -0.336,0.121 -0.715,0.34 -1.125,0.66 l -0.551,-0.691 c 0.84,-0.68 1.758,-1.0199996 2.746,-1.0199996 0.859,0 1.531,0.2149996 2.02,0.6449996 0.488,0.43 0.73,0.996 0.73,1.723 0,0.563 -0.164,1.113 -0.488,1.668 -0.324,0.555 -0.934,1.25 -1.824,2.09 l -1.996,1.898 v 0.051 h 4.691 v 0.938 m -3.242,11.874912 c 1.012,0 1.793,0.234 2.371,0.699 0.574,0.461 0.867,1.094 0.867,1.898 0,0.922 -0.316,1.645 -0.949,2.164 -0.629,0.523 -1.492,0.781 -2.598,0.781 -1.07,0 -1.895,-0.16 -2.457,-0.477 v -0.973 c 0.305,0.18 0.684,0.316 1.133,0.43 0.453,0.102 0.898,0.152 1.336,0.152 0.766,0 1.359,-0.168 1.781,-0.512 0.426,-0.336 0.641,-0.813 0.641,-1.457 0,-1.23 -0.816,-1.852 -2.445,-1.852 -0.414,0 -0.969,0.059 -1.656,0.176 l -0.563,-0.332 0.359,-4.156 h 4.742 v 0.934 h -3.816 l -0.242,2.668 c 0.5,-0.094 1,-0.145 1.492,-0.145 m 3.242,19.928183 h -1.398 v 2.055 h -1.027 v -2.055 h -4.578 v -0.887 l 4.473,-6.06 h 1.133 v 6.02 h 1.398 v 0.926 m -2.422,-0.926 v -2.98 c 0,-0.586 0.023,-1.238 0.066,-1.977 h -0.051 c -0.173135,0.335546 -0.366144,0.660457 -0.578,0.973 l -2.941,3.98 h 3.508"
     id="path9"
     inkscape:connector-curvature="0"
     style="fill:#000000;fill-opacity:1"
     sodipodi:nodetypes="cccccsscccccscsscccccccscscccscsscccccccccccccccccccccsccccc" />
  <g
     transform="translate(1.4224749,-0.46162669)"
     id="g870"
     style="fill:#000000;fill-opacity:1" />
</svg>
