<?xml version="1.0" encoding="UTF-8" standalone="no"?>
<svg
   xmlns:dc="http://purl.org/dc/elements/1.1/"
   xmlns:cc="http://creativecommons.org/ns#"
   xmlns:rdf="http://www.w3.org/1999/02/22-rdf-syntax-ns#"
   xmlns:svg="http://www.w3.org/2000/svg"
   xmlns="http://www.w3.org/2000/svg"
   xmlns:xlink="http://www.w3.org/1999/xlink"
   xmlns:sodipodi="http://sodipodi.sourceforge.net/DTD/sodipodi-0.dtd"
   xmlns:inkscape="http://www.inkscape.org/namespaces/inkscape"
   version="1.1"
   viewBox="0 0 64 64"
   id="svg60"
   sodipodi:docname="system-software-update.svg"
   width="64"
   height="64"
   inkscape:version="0.92.4 5da689c313, 2019-01-14">
  <metadata
     id="metadata66">
    <rdf:RDF>
      <cc:Work
         rdf:about="">
        <dc:format>image/svg+xml</dc:format>
        <dc:type
           rdf:resource="http://purl.org/dc/dcmitype/StillImage" />
        <dc:title></dc:title>
      </cc:Work>
    </rdf:RDF>
  </metadata>
  <defs
     id="defs64">
    <linearGradient
       inkscape:collect="always"
       xlink:href="#j"
       id="linearGradient873"
       gradientUnits="userSpaceOnUse"
       y1="30"
       x2="0"
       y2="8"
       gradientTransform="scale(2)" />
    <linearGradient
       inkscape:collect="always"
       xlink:href="#k"
       id="linearGradient875"
       gradientUnits="userSpaceOnUse"
       y1="30"
       x2="0"
       y2="8"
       gradientTransform="scale(2)" />
    <linearGradient
       inkscape:collect="always"
       xlink:href="#i"
       id="linearGradient877"
       gradientUnits="userSpaceOnUse"
       gradientTransform="matrix(0.66667,0,0,-0.37037,-256.38,197.926)"
       x1="408.57001"
       y1="512.79797"
       x2="408.57001"
       y2="504.698" />
  </defs>
  <sodipodi:namedview
     pagecolor="#ffffff"
     bordercolor="#666666"
     borderopacity="1"
     objecttolerance="10"
     gridtolerance="10"
     guidetolerance="10"
     inkscape:pageopacity="0"
     inkscape:pageshadow="2"
     inkscape:window-width="1366"
     inkscape:window-height="699"
     id="namedview62"
     showgrid="false"
     inkscape:zoom="5.2149125"
     inkscape:cx="-5.9583621"
     inkscape:cy="20.501382"
     inkscape:window-x="0"
     inkscape:window-y="0"
     inkscape:window-maximized="1"
     inkscape:current-layer="svg60" />
  <linearGradient
     id="l"
     x1="22"
     x2="22"
     y1="30"
     y2="8"
     gradientTransform="matrix(0,-2,-2,0,88,88)"
     gradientUnits="userSpaceOnUse"
     xlink:href="#k" />
  <linearGradient
     id="m"
     x1="18"
     x2="30"
     y1="18"
     y2="30"
     gradientUnits="userSpaceOnUse"
     gradientTransform="matrix(2,0,0,2,7.5932203,4.2033898)">
    <stop
       stop-color="#292c2f"
       offset="0"
       id="stop3" />
    <stop
       stop-opacity="0"
       offset="1"
       id="stop5" />
  </linearGradient>
  <linearGradient
     id="p"
     x1="25"
     x2="25"
     y1="8"
     y2="2"
     gradientUnits="userSpaceOnUse"
     xlink:href="#j"
     gradientTransform="scale(2)" />
  <linearGradient
     id="j"
     x2="0"
     y1="30"
     y2="8"
     gradientUnits="userSpaceOnUse">
    <stop
       stop-color="#cea476"
       offset="0"
       id="stop9" />
    <stop
       stop-color="#dab58b"
       offset="1"
       id="stop11" />
  </linearGradient>
  <linearGradient
     id="o"
     x1="411.427"
     x2="411.427"
     y1="543.79999"
     y2="512.79999"
     gradientTransform="matrix(0.7,0,0,1.41936,-240,-711.846)"
     gradientUnits="userSpaceOnUse">
    <stop
       stop-color="#73ba25"
       offset="0"
       id="stop14"
       style="stop-color:#13a338;stop-opacity:1" />
    <stop
       stop-color="#81c13b"
       stop-opacity=".85"
       offset="1"
       id="stop16"
       style="stop-color:#09ad11;stop-opacity:0.8509804" />
  </linearGradient>
  <linearGradient
     id="i"
     x1="408.57001"
     x2="408.57001"
     y1="512.79797"
     y2="504.698"
     gradientTransform="matrix(0.66667,0,0,-0.37037,-256.38,197.926)"
     gradientUnits="userSpaceOnUse">
    <stop
       stop-color="#ebc69a"
       offset="0"
       id="stop19" />
    <stop
       stop-color="#73ba25"
       stop-opacity="0"
       offset="1"
       id="stop21" />
  </linearGradient>
  <linearGradient
     id="n"
     x1="411.57001"
     x2="411.57001"
     y1="512.80103"
     y2="503.80099"
     gradientTransform="matrix(0.66667,0,0,0.66667,-256.38,-333.867)"
     gradientUnits="userSpaceOnUse"
     xlink:href="#i">
    <stop
       stop-color="#ebc69a"
       offset="0"
       id="stop24" />
    <stop
       stop-color="#f4e0c8"
       stop-opacity="0"
       offset="1"
       id="stop26" />
  </linearGradient>
  <linearGradient
     id="k"
     x2="0"
     y1="30"
     y2="8"
     gradientUnits="userSpaceOnUse">
    <stop
       stop-color="#cfd2d5"
       offset="0"
       id="stop29" />
    <stop
       stop-color="#eff0f1"
       offset="1"
       id="stop31" />
  </linearGradient>
  <path
     d="M 12,4 4,16 H 60 L 52,4 H 14 Z"
     id="path34"
     inkscape:connector-curvature="0"
     style="fill:url(#p);fill-rule:evenodd;stroke-width:1" />
  <path
     d="M 4,16 H 60 V 60 H 4 Z"
     id="path36"
     inkscape:connector-curvature="0"
     style="fill:url(#linearGradient873);stroke-width:1" />
  <path
     d="M 4,16 H 28 V 60 H 4 Z"
     id="path38"
     inkscape:connector-curvature="0"
     style="fill:url(#linearGradient875);stroke-width:1" />
  <path
     d="M 28,16 H 60 V 60 H 28 Z"
     id="path40"
     inkscape:connector-curvature="0"
     style="fill:url(#o);stroke-width:1" />
  <path
     d="M 6,48 V 58 H 16 V 48 Z m 2,2 h 2 v 2 h 2 v -2 h 2 v 4 h -2 v 2 H 10 V 54 H 8 Z"
     id="path42"
     inkscape:connector-curvature="0"
     style="fill:#1b1b1b;stroke-width:1;fill-opacity:1" />
  <g
     id="g50"
     style="stroke-width:0.93349999;stroke-opacity:0.55"
     transform="scale(2)">
    <path
       d="m 14,2 v 9 l 1,-1 1,1 1,-1 c 0,0 1,1 1,0.972 V 2 Z"
       id="path44"
       inkscape:connector-curvature="0"
       style="fill:#f4e0c8;stroke-width:0.93349999" />
    <path
       d="m 14,2 h 4 v 6 h -4 z"
       id="path46"
       inkscape:connector-curvature="0"
       style="fill:url(#n);stroke-width:0.93349999" />
    <path
       d="m 14,8 v 3 l 1,-1 1,1 1,-1 c 0,0 1,1 1,0.973 V 8 Z"
       id="path48"
       inkscape:connector-curvature="0"
       style="fill:url(#linearGradient877);stroke-width:0.93349999" />
  </g>
  <path
     d="m 56,44 a 11.92,11.92 0 0 1 -1.688,6.062 l -5.374,-5.374 1.436,-1.438 3.25,3.25 c 0.104,-0.39 0.196,-0.78 0.25,-1.188 C 53.89,45.208 53.926,45.106 53.938,45 53.972,44.664 54,44.346 54,44 A 10,10 0 0 0 44,34 c -0.486,0 -0.972,0.056 -1.438,0.126 -0.272,0.04 -0.548,0.062 -0.812,0.124 a 9.474,9.474 0 0 0 -1.626,0.562 c -0.06,0.028 -0.126,0.036 -0.186,0.064 -0.184,0.08 -0.328,0.216 -0.5,0.312 -0.016,0.008 -0.046,-0.01 -0.064,0 l -1.436,-1.5 A 11.92,11.92 0 0 1 44,32 12,12 0 0 1 56,44 Z M 50.062,54.312 A 11.92,11.92 0 0 1 44,56 12,12 0 0 1 32,44 11.92,11.92 0 0 1 33.688,37.938 l 1.5,1.5 3.812,3.874 -1.376,1.376 -3.25,-3.188 c -0.1,0.39 -0.194,0.78 -0.25,1.188 C 34.11,42.792 34.074,42.894 34.064,43 34.028,43.336 34,43.654 34,44 c 0,0.346 0.028,0.664 0.062,1 0.034,0.336 0.06,0.674 0.126,1 A 10.034,10.034 0 0 0 44,54 c 0.496,0 0.96,-0.056 1.438,-0.126 0.272,-0.04 0.548,-0.062 0.812,-0.124 0.574,-0.134 1.096,-0.334 1.626,-0.562 0.06,-0.026 0.126,-0.036 0.186,-0.064 0.18,-0.08 0.33,-0.216 0.5,-0.312 h 0.064 z"
     id="path54"
     inkscape:connector-curvature="0"
     style="fill:url(#l);stroke-width:1" />
  <path
     d="m 4,58 v 2 h 24 v -2 z"
     id="path56"
     inkscape:connector-curvature="0"
     style="fill:#363636;stroke-width:1;fill-opacity:1" />
  <path
     d="m 28,58 h 32 v 2 H 28 Z"
     id="path58"
     inkscape:connector-curvature="0"
     style="fill:#269e58;stroke-width:1;fill-opacity:1" />
</svg>
