<?xml version="1.0" encoding="UTF-8" standalone="no"?>
<svg
   xmlns:dc="http://purl.org/dc/elements/1.1/"
   xmlns:cc="http://creativecommons.org/ns#"
   xmlns:rdf="http://www.w3.org/1999/02/22-rdf-syntax-ns#"
   xmlns:svg="http://www.w3.org/2000/svg"
   xmlns="http://www.w3.org/2000/svg"
   xmlns:xlink="http://www.w3.org/1999/xlink"
   xmlns:sodipodi="http://sodipodi.sourceforge.net/DTD/sodipodi-0.dtd"
   xmlns:inkscape="http://www.inkscape.org/namespaces/inkscape"
   height="64"
   width="64"
   version="1.1"
   id="svg18"
   sodipodi:docname="chrome-clhhggbfdinjmjhajaheehoeibfljjno-Default.svg"
   inkscape:version="0.92.4 5da689c313, 2019-01-14">
  <metadata
     id="metadata24">
    <rdf:RDF>
      <cc:Work
         rdf:about="">
        <dc:format>image/svg+xml</dc:format>
        <dc:type
           rdf:resource="http://purl.org/dc/dcmitype/StillImage" />
      </cc:Work>
    </rdf:RDF>
  </metadata>
  <defs
     id="defs22">
    <linearGradient
       inkscape:collect="always"
       id="linearGradient871">
      <stop
         style="stop-color:#ffffff;stop-opacity:1;"
         offset="0"
         id="stop867" />
      <stop
         style="stop-color:#d2d2d2;stop-opacity:1"
         offset="1"
         id="stop869" />
    </linearGradient>
    <linearGradient
       inkscape:collect="always"
       xlink:href="#b"
       id="linearGradient843"
       x1="2.9860001"
       y1="-32.002998"
       x2="61.014999"
       y2="-32.002998"
       gradientUnits="userSpaceOnUse"
       gradientTransform="matrix(0,0.96503474,-0.96491833,0,1.1197192,1.1184062)" />
    <linearGradient
       inkscape:collect="always"
       xlink:href="#linearGradient871"
       id="linearGradient873"
       x1="33.52935"
       y1="19.69998"
       x2="33.236378"
       y2="46.547436"
       gradientUnits="userSpaceOnUse"
       gradientTransform="matrix(0.96491833,0,0,0.96503474,1.1197192,1.1184062)" />
    <filter
       inkscape:collect="always"
       style="color-interpolation-filters:sRGB"
       id="filter912"
       x="-0.060692808"
       width="1.1213856"
       y="-0.05932283"
       height="1.1186457">
      <feGaussianBlur
         inkscape:collect="always"
         stdDeviation="0.77641005"
         id="feGaussianBlur914" />
    </filter>
    <filter
       inkscape:collect="always"
       style="color-interpolation-filters:sRGB"
       id="filter838"
       x="-0.06"
       width="1.12"
       y="-0.06"
       height="1.12">
      <feGaussianBlur
         inkscape:collect="always"
         stdDeviation="1.4"
         id="feGaussianBlur840" />
    </filter>
  </defs>
  <sodipodi:namedview
     pagecolor="#ffffff"
     bordercolor="#666666"
     borderopacity="1"
     objecttolerance="10"
     gridtolerance="10"
     guidetolerance="10"
     inkscape:pageopacity="0"
     inkscape:pageshadow="2"
     inkscape:window-width="1366"
     inkscape:window-height="700"
     id="namedview20"
     showgrid="false"
     inkscape:zoom="5.2149125"
     inkscape:cx="0.92864754"
     inkscape:cy="22.395647"
     inkscape:window-x="0"
     inkscape:window-y="0"
     inkscape:window-maximized="1"
     inkscape:current-layer="g16" />
  <linearGradient
     id="a"
     gradientUnits="userSpaceOnUse"
     x1="16.45429"
     x2="43.39991"
     y1="34.07258"
     y2="34.07258">
    <stop
       offset="0"
       stop-color="#1287de"
       id="stop2" />
    <stop
       offset="1"
       stop-color="#37a4f5"
       id="stop4" />
  </linearGradient>
  <linearGradient
     id="b"
     gradientUnits="userSpaceOnUse"
     x1="2.98562548"
     x2="61.01405452"
     y1="-32.00398548"
     y2="-32.00398548">
    <stop
       offset="0"
       stop-color="#2de3cc"
       id="stop7" />
    <stop
       offset="1"
       stop-color="#1388de"
       id="stop9" />
  </linearGradient>
  <g
     id="g16"
     style="fill:none;stroke-width:3">
    <path
       inkscape:connector-curvature="0"
       id="path832"
       d="m 60,31.999518 v 9.64e-4 C 60,47.512215 47.513721,60 32.00386,60 h -0.0077 C 16.486279,60 4,47.512215 4,32.000482 v -9.64e-4 C 4,16.487785 16.486279,4 31.99614,4 h 0.0077 C 47.513721,4 60,16.487785 60,31.999518 Z"
       style="fill:#000000;fill-opacity:1;stroke:none;stroke-width:2.89492965;filter:url(#filter838);opacity:0.25" />
    <path
       style="fill:url(#linearGradient843);fill-opacity:1;stroke:none;stroke-width:2.89492965"
       d="m 60,31.999518 v 9.64e-4 C 60,47.512215 47.513721,60 32.00386,60 h -0.0077 C 16.486279,60 4,47.512215 4,32.000482 v -9.64e-4 C 4,16.487785 16.486279,4 31.99614,4 h 0.0077 C 47.513721,4 60,16.487785 60,31.999518 Z"
       id="rect12"
       inkscape:connector-curvature="0" />
    <path
       style="color:#000000;font-style:normal;font-variant:normal;font-weight:normal;font-stretch:normal;font-size:medium;line-height:normal;font-family:sans-serif;font-variant-ligatures:normal;font-variant-position:normal;font-variant-caps:normal;font-variant-numeric:normal;font-variant-alternates:normal;font-feature-settings:normal;text-indent:0;text-align:start;text-decoration:none;text-decoration-line:none;text-decoration-style:solid;text-decoration-color:#000000;letter-spacing:normal;word-spacing:normal;text-transform:none;writing-mode:lr-tb;direction:ltr;text-orientation:mixed;dominant-baseline:auto;baseline-shift:baseline;text-anchor:start;white-space:normal;shape-padding:0;clip-rule:nonzero;display:inline;overflow:visible;visibility:visible;opacity:0.28200001;isolation:auto;mix-blend-mode:normal;color-interpolation:sRGB;color-interpolation-filters:linearRGB;solid-color:#000000;solid-opacity:1;vector-effect:none;fill:#000000;fill-opacity:1;fill-rule:nonzero;stroke:none;stroke-width:3;stroke-linecap:butt;stroke-linejoin:miter;stroke-miterlimit:4;stroke-dasharray:none;stroke-dashoffset:0;stroke-opacity:1;filter:url(#filter912);color-rendering:auto;image-rendering:auto;shape-rendering:auto;text-rendering:auto;enable-background:accumulate"
       d="m 42.845078,17.95961 c -0.243821,-0.01483 -0.654251,-0.005 -1.080078,0.08398 -0.426592,0.08914 -0.932943,0.236476 -1.753906,0.501953 -1.641926,0.530956 -4.542959,1.542754 -10.150391,3.503906 v 0.002 c -3.194319,1.118445 -6.133135,2.157906 -8.298828,2.933552 -1.082846,0.387822 -1.97249,0.709471 -2.607422,0.943359 -0.317467,0.116944 -0.570962,0.210421 -0.759765,0.283203 -0.0944,0.03639 -0.17185,0.0666 -0.242188,0.0957 -0.07034,0.0291 0.0036,-0.05057 -0.337891,0.171875 v 0.002 h -0.002 c -0.993682,0.650017 -1.509765,1.731124 -1.509765,2.882812 0,0.446707 0.04503,1.002191 0.304687,1.556641 0.136586,0.291656 0.323501,0.551887 0.539063,0.791015 0.04595,0.222865 0.110857,0.451256 0.21875,0.681641 0.259655,0.554451 0.686444,1.003869 1.1875,1.386719 1.002113,0.765701 2.42882,1.467184 5.003906,2.724609 1.288199,0.629466 2.361443,1.173462 3.123047,1.578125 0.380802,0.202331 0.684409,0.369847 0.884765,0.488282 0.06253,0.03696 0.08234,0.04961 0.09375,0.05469 0.02803,0.04606 0.0567,0.09068 0.09961,0.166016 0.105828,0.185838 0.262733,0.478179 0.421875,0.77539 0.30438,0.593586 0.583844,1.124955 0.919922,1.804688 0.631289,1.276205 1.090981,2.176216 1.492187,2.933593 0.604218,1.200019 1.102764,2.162178 1.484375,2.791016 0.531376,0.875627 1.078568,1.470981 1.66211,1.824219 l 0.002,-0.0039 c 1.533585,0.927706 3.468049,0.335428 4.496093,-1.044922 l 0.002,-0.002 c 0.269959,-0.362508 0.185347,-0.313854 0.220703,-0.394532 0.03556,-0.08115 0.07011,-0.1664 0.111328,-0.269531 0.08244,-0.20626 0.18602,-0.478384 0.3125,-0.814453 0.252959,-0.672137 0.593721,-1.599967 0.99414,-2.703125 0.800838,-2.206314 1.840546,-5.110892 2.873047,-8.027344 1.032501,-2.916453 2.058304,-5.843169 2.833985,-8.089843 0.387841,-1.123339 0.711728,-2.075361 0.945312,-2.777344 0.116792,-0.350992 0.211792,-0.639022 0.28125,-0.861328 0.06946,-0.222306 0.09915,-0.167922 0.162109,-0.625 v -0.002 c 0.138104,-1.01326 -0.177026,-2.070428 -0.857421,-2.839843 -0.161203,-0.633475 -0.473158,-1.226722 -0.953125,-1.683594 -0.227918,-0.217008 -0.587352,-0.491824 -0.994141,-0.634766 -0.406667,-0.142899 -0.74802,-0.164982 -1.121094,-0.1875 z"
       id="path879"
       inkscape:connector-curvature="0"
       transform="matrix(0.96491833,0,0,0.96503474,0.14032669,2.0979155)" />
    <path
       sodipodi:nodetypes="cscccsccccccscscccccscsccccccsssssccccscc"
       inkscape:connector-curvature="0"
       id="path875"
       d="m 42.21395,20.851301 c -0.235267,-0.01431 -0.631299,-0.0048 -1.042187,0.08104 -0.411627,0.08602 -0.900214,0.228208 -1.692376,0.484402 -1.584325,0.512391 -4.383584,1.488812 -9.794297,3.381392 v 0.0019 c -3.082257,1.079379 -5.917976,2.082495 -8.007693,2.83102 -1.044858,0.374262 -1.90329,0.684665 -2.515948,0.910375 -0.30633,0.112855 -0.550932,0.203063 -0.733112,0.2733 -0.09109,0.03512 -0.165821,0.06427 -0.233692,0.09235 -0.06787,0.02808 0.0035,-0.0488 -0.326036,0.165865 v 0.0019 h -0.0019 c -0.958822,0.627289 -1.456801,1.670595 -1.456801,2.782014 0,0.431088 0.04345,0.967148 0.293998,1.502212 0.250546,0.535064 0.662363,0.968768 1.145841,1.338232 0.966957,0.738928 2.343614,1.415884 4.828361,2.629343 1.243007,0.607457 2.2786,1.132432 3.013486,1.522946 0.367443,0.195256 0.660399,0.356914 0.853726,0.471208 0.140059,0.0828 0.115569,0.06871 0.0735,0.02262 0.0312,0.05154 0.06401,0.104209 0.113076,0.190369 0.129921,0.228174 0.309373,0.557283 0.518267,0.951841 0.417786,0.789115 0.956718,1.844697 1.507685,2.959188 1.009503,2.041042 1.628178,3.258272 2.140912,4.103283 0.512735,0.845011 1.040729,1.419547 1.6038,1.760434 l 0.0019,-0.0038 c 1.479785,0.895269 3.346385,0.3237 4.338364,-1.008386 l 0.0019,-0.0019 c 0.260489,-0.349833 0.178844,-0.302879 0.21296,-0.380736 0.03431,-0.07831 0.06765,-0.160583 0.107423,-0.260108 0.07955,-0.199048 0.179495,-0.461657 0.301537,-0.785975 0.244085,-0.648636 0.572893,-1.544024 0.959264,-2.60861 0.772744,-2.129169 1.775977,-4.932187 2.772256,-7.746664 0.996279,-2.814479 1.986094,-5.638862 2.734563,-7.806981 0.374235,-1.08406 0.686761,-2.002795 0.91215,-2.680233 0.112695,-0.33872 0.204362,-0.616679 0.271383,-0.831212 0.06702,-0.214533 0.09567,-0.16205 0.156422,-0.603147 v -0.0019 C 45.418314,23.520256 45.04589,22.395908 44.25688,21.644774 44.036958,21.435353 43.690133,21.170146 43.297615,21.032202 42.905215,20.8943 42.575838,20.872989 42.215852,20.851258 Z"
       style="color:#000000;font-style:normal;font-variant:normal;font-weight:normal;font-stretch:normal;font-size:medium;line-height:normal;font-family:sans-serif;font-variant-ligatures:normal;font-variant-position:normal;font-variant-caps:normal;font-variant-numeric:normal;font-variant-alternates:normal;font-feature-settings:normal;text-indent:0;text-align:start;text-decoration:none;text-decoration-line:none;text-decoration-style:solid;text-decoration-color:#000000;letter-spacing:normal;word-spacing:normal;text-transform:none;writing-mode:lr-tb;direction:ltr;text-orientation:mixed;dominant-baseline:auto;baseline-shift:baseline;text-anchor:start;white-space:normal;shape-padding:0;clip-rule:nonzero;display:inline;overflow:visible;visibility:visible;opacity:1;isolation:auto;mix-blend-mode:normal;color-interpolation:sRGB;color-interpolation-filters:linearRGB;solid-color:#000000;solid-opacity:1;vector-effect:none;fill:#454545;fill-opacity:1;fill-rule:nonzero;stroke:none;stroke-width:2.89492965;stroke-linecap:butt;stroke-linejoin:miter;stroke-miterlimit:4;stroke-dasharray:none;stroke-dashoffset:0;stroke-opacity:1;color-rendering:auto;image-rendering:auto;shape-rendering:auto;text-rendering:auto;enable-background:accumulate" />
    <path
       style="color:#000000;font-style:normal;font-variant:normal;font-weight:normal;font-stretch:normal;font-size:medium;line-height:normal;font-family:sans-serif;font-variant-ligatures:normal;font-variant-position:normal;font-variant-caps:normal;font-variant-numeric:normal;font-variant-alternates:normal;font-feature-settings:normal;text-indent:0;text-align:start;text-decoration:none;text-decoration-line:none;text-decoration-style:solid;text-decoration-color:#000000;letter-spacing:normal;word-spacing:normal;text-transform:none;writing-mode:lr-tb;direction:ltr;text-orientation:mixed;dominant-baseline:auto;baseline-shift:baseline;text-anchor:start;white-space:normal;shape-padding:0;clip-rule:nonzero;display:inline;overflow:visible;visibility:visible;opacity:1;isolation:auto;mix-blend-mode:normal;color-interpolation:sRGB;color-interpolation-filters:linearRGB;solid-color:#000000;solid-opacity:1;vector-effect:none;fill:url(#linearGradient873);fill-opacity:1;fill-rule:nonzero;stroke:none;stroke-width:2.89492965;stroke-linecap:butt;stroke-linejoin:miter;stroke-miterlimit:4;stroke-dasharray:none;stroke-dashoffset:0;stroke-opacity:1;color-rendering:auto;image-rendering:auto;shape-rendering:auto;text-rendering:auto;enable-background:accumulate"
       d="m 41.483126,19.428765 c -0.235268,-0.01431 -0.631299,-0.0048 -1.042187,0.08104 -0.411627,0.08602 -0.900214,0.228207 -1.692376,0.484402 -1.584325,0.512391 -4.383584,1.488812 -9.794298,3.381392 v 0.0019 c -3.082257,1.079379 -5.917975,2.082495 -8.007692,2.83102 -1.044858,0.374262 -1.903291,0.684664 -2.515948,0.910374 -0.30633,0.112855 -0.550932,0.203064 -0.733112,0.273301 -0.09109,0.03512 -0.165822,0.06427 -0.233692,0.09235 -0.06787,0.02808 0.0035,-0.0488 -0.326036,0.165865 v 0.0019 h -0.0019 c -0.958822,0.627289 -1.456801,1.670596 -1.456801,2.782015 0,0.431088 0.04345,0.967148 0.293998,1.502211 0.250546,0.535065 0.662362,0.968769 1.145841,1.338232 0.966957,0.738929 2.343613,1.415885 4.828361,2.629344 1.243007,0.607456 2.2786,1.132431 3.013485,1.522945 0.367443,0.195257 0.660399,0.356914 0.853726,0.471208 0.140059,0.0828 0.11557,0.06871 0.0735,0.02262 0.0312,0.05154 0.06401,0.104208 0.113077,0.190368 0.129921,0.228174 0.309373,0.557284 0.518266,0.951841 0.417787,0.789116 0.956719,1.844698 1.507685,2.959188 1.009504,2.041042 1.628178,3.258272 2.140913,4.103284 0.512734,0.84501 1.040729,1.419547 1.603799,1.760433 l 0.0019,-0.0038 c 1.479784,0.895268 3.346385,0.3237 4.338364,-1.008386 l 0.0019,-0.0019 c 0.26049,-0.349833 0.178845,-0.302879 0.212961,-0.380736 0.03431,-0.07831 0.06765,-0.160583 0.107423,-0.260108 0.07955,-0.199048 0.179494,-0.461657 0.301537,-0.785976 0.244085,-0.648635 0.572892,-1.544023 0.959264,-2.608609 0.772743,-2.12917 1.775977,-4.932187 2.772256,-7.746665 0.996279,-2.814478 1.986094,-5.638861 2.734563,-7.80698 0.374235,-1.084061 0.68676,-2.002796 0.91215,-2.680234 0.112694,-0.338719 0.204362,-0.616678 0.271383,-0.831211 0.06702,-0.214533 0.09567,-0.162051 0.156422,-0.603147 v -0.0019 c 0.145632,-1.068628 -0.226793,-2.192975 -1.015802,-2.94411 -0.219923,-0.20942 -0.566747,-0.474627 -0.959265,-0.612571 -0.392401,-0.137903 -0.721778,-0.159213 -1.081763,-0.180944 z"
       id="path14"
       inkscape:connector-curvature="0"
       sodipodi:nodetypes="cscccsccccccscscccccscsccccccsssssccccscc" />
  </g>
</svg>
