<?xml version="1.0" encoding="UTF-8" standalone="no"?>
<svg
   xmlns:dc="http://purl.org/dc/elements/1.1/"
   xmlns:cc="http://creativecommons.org/ns#"
   xmlns:rdf="http://www.w3.org/1999/02/22-rdf-syntax-ns#"
   xmlns:svg="http://www.w3.org/2000/svg"
   xmlns="http://www.w3.org/2000/svg"
   xmlns:xlink="http://www.w3.org/1999/xlink"
   xmlns:sodipodi="http://sodipodi.sourceforge.net/DTD/sodipodi-0.dtd"
   xmlns:inkscape="http://www.inkscape.org/namespaces/inkscape"
   height="64"
   width="64"
   version="1.1"
   id="svg9"
   sodipodi:docname="vivaldi.svg"
   inkscape:version="0.92.4 5da689c313, 2019-01-14">
  <metadata
     id="metadata15">
    <rdf:RDF>
      <cc:Work
         rdf:about="">
        <dc:format>image/svg+xml</dc:format>
        <dc:type
           rdf:resource="http://purl.org/dc/dcmitype/StillImage" />
        <dc:title></dc:title>
      </cc:Work>
    </rdf:RDF>
  </metadata>
  <defs
     id="defs13">
    <linearGradient
       inkscape:collect="always"
       id="linearGradient925">
      <stop
         style="stop-color:#f9f9f9;stop-opacity:1;"
         offset="0"
         id="stop921" />
      <stop
         style="stop-color:#dadada;stop-opacity:1"
         offset="1"
         id="stop923" />
    </linearGradient>
    <linearGradient
       id="linearGradient3481"
       y1="1"
       x2="0"
       y2="47"
       gradientUnits="userSpaceOnUse">
      <stop
         style="stop-color:#fc5858;stop-opacity:1"
         id="stop2-7" />
      <stop
         offset="1"
         style="stop-color:#fc4444;stop-opacity:1"
         id="stop4-3" />
    </linearGradient>
    <linearGradient
       id="linearGradient3481-4"
       y1="1"
       x2="0"
       y2="47"
       gradientUnits="userSpaceOnUse">
      <stop
         style="stop-color:#fc5858;stop-opacity:1"
         id="stop2-0" />
      <stop
         offset="1"
         style="stop-color:#fc4444;stop-opacity:1"
         id="stop4-0" />
    </linearGradient>
    <linearGradient
       id="linearGradient4218"
       y1="1"
       x2="0"
       y2="47"
       gradientUnits="userSpaceOnUse">
      <stop
         style="stop-color:#fc5858;stop-opacity:1"
         id="stop4214" />
      <stop
         offset="1"
         style="stop-color:#fc4444;stop-opacity:1"
         id="stop4216" />
    </linearGradient>
    <linearGradient
       id="linearGradient3481-6"
       y1="1"
       x2="0"
       y2="47"
       gradientUnits="userSpaceOnUse">
      <stop
         style="stop-color:#fc5858;stop-opacity:1"
         id="stop2-03" />
      <stop
         offset="1"
         style="stop-color:#fc4444;stop-opacity:1"
         id="stop4-6" />
    </linearGradient>
    <linearGradient
       id="linearGradient4218-4"
       y1="1"
       x2="0"
       y2="47"
       gradientUnits="userSpaceOnUse">
      <stop
         style="stop-color:#fc5858;stop-opacity:1"
         id="stop4214-9" />
      <stop
         offset="1"
         style="stop-color:#fc4444;stop-opacity:1"
         id="stop4216-2" />
    </linearGradient>
    <linearGradient
       id="linearGradient3481-2"
       y1="1"
       x2="0"
       y2="47"
       gradientUnits="userSpaceOnUse">
      <stop
         style="stop-color:#fc5858;stop-opacity:1"
         id="stop2-9" />
      <stop
         offset="1"
         style="stop-color:#fc4444;stop-opacity:1"
         id="stop4-2" />
    </linearGradient>
    <linearGradient
       id="linearGradient4218-2"
       y1="1"
       x2="0"
       y2="47"
       gradientUnits="userSpaceOnUse">
      <stop
         style="stop-color:#fc5858;stop-opacity:1"
         id="stop4214-2" />
      <stop
         offset="1"
         style="stop-color:#fc4444;stop-opacity:1"
         id="stop4216-7" />
    </linearGradient>
    <linearGradient
       id="linearGradient3481-0"
       y1="1"
       x2="0"
       y2="47"
       gradientUnits="userSpaceOnUse">
      <stop
         style="stop-color:#fc5858;stop-opacity:1"
         id="stop2-02" />
      <stop
         offset="1"
         style="stop-color:#fc4444;stop-opacity:1"
         id="stop4-1" />
    </linearGradient>
    <linearGradient
       id="linearGradient4218-5"
       y1="1"
       x2="0"
       y2="47"
       gradientUnits="userSpaceOnUse">
      <stop
         style="stop-color:#fc5858;stop-opacity:1"
         id="stop4214-6" />
      <stop
         offset="1"
         style="stop-color:#fc4444;stop-opacity:1"
         id="stop4216-73" />
    </linearGradient>
    <linearGradient
       inkscape:collect="always"
       xlink:href="#linearGradient925"
       id="linearGradient927"
       x1="34.42482"
       y1="20.203745"
       x2="34.42482"
       y2="45.729168"
       gradientUnits="userSpaceOnUse"
       gradientTransform="translate(0,1.0169492)" />
    <filter
       inkscape:collect="always"
       style="color-interpolation-filters:sRGB"
       id="filter947"
       x="-0.06"
       width="1.12"
       y="-0.06"
       height="1.12">
      <feGaussianBlur
         inkscape:collect="always"
         stdDeviation="1.4"
         id="feGaussianBlur949" />
    </filter>
    <filter
       inkscape:collect="always"
       style="color-interpolation-filters:sRGB"
       id="filter995"
       x="-0.057691579"
       width="1.1153832"
       y="-0.062500855"
       height="1.1250017">
      <feGaussianBlur
         inkscape:collect="always"
         stdDeviation="0.89646115"
         id="feGaussianBlur997" />
    </filter>
  </defs>
  <sodipodi:namedview
     pagecolor="#ffffff"
     bordercolor="#666666"
     borderopacity="1"
     objecttolerance="10"
     gridtolerance="10"
     guidetolerance="10"
     inkscape:pageopacity="0"
     inkscape:pageshadow="2"
     inkscape:window-width="1366"
     inkscape:window-height="700"
     id="namedview11"
     showgrid="false"
     inkscape:zoom="6.9532167"
     inkscape:cx="21.871856"
     inkscape:cy="33.546879"
     inkscape:window-x="0"
     inkscape:window-y="0"
     inkscape:window-maximized="1"
     inkscape:current-layer="svg9" />
  <linearGradient
     id="a"
     gradientUnits="userSpaceOnUse"
     x1="61.605946"
     x2="104.59952"
     y1="29.33997"
     y2="29.33997"
     gradientTransform="translate(-50.440678,5.9406777)">
    <stop
       offset="0"
       stop-color="#ff8500"
       id="stop2" />
    <stop
       offset="1"
       stop-color="#f06"
       id="stop4" />
  </linearGradient>
  <circle
     r="28"
     cy="32"
     cx="32"
     id="circle929"
     style="opacity:0.25;fill:#000000;fill-opacity:1;stroke:none;stroke-width:2.3599999;stroke-linecap:round;stroke-linejoin:round;stroke-miterlimit:4;stroke-dasharray:none;stroke-opacity:1;filter:url(#filter947)" />
  <circle
     style="opacity:1;fill:#ec1e2b;fill-opacity:1;stroke:none;stroke-width:2.3599999;stroke-linecap:round;stroke-linejoin:round;stroke-miterlimit:4;stroke-dasharray:none;stroke-opacity:1"
     id="path825"
     cx="32"
     cy="32"
     r="28" />
  <path
     inkscape:connector-curvature="0"
     style="opacity:0.2;fill:#ffffff;fill-opacity:0.96280992;stroke:none;stroke-width:2.3599999;stroke-linecap:round;stroke-linejoin:round;stroke-miterlimit:4;stroke-dasharray:none;stroke-opacity:1"
     d="M 32,60 V 4 A 28,28 0 0 0 4,32 28,28 0 0 0 32,60 Z"
     id="path825-4" />
  <path
     d="m 14.2009,23.433105 14.997108,26.496263 c 0,0 0.811748,1.418401 2.855429,1.418401 2.042265,0 2.855429,-1.418401 2.855429,-1.418401 0,0 10.423549,-15.965167 14.675854,-24.481254 0.427383,-0.854767 0.887754,-1.719579 1.081369,-2.657516 0.131988,-0.636776 0.195049,-1.319436 0.04298,-1.951913 -0.185001,-0.771579 -0.542109,-1.560368 -1.124388,-2.098178 -0.67263,-0.620998 -1.606268,-1.002498 -2.515531,-1.097148 -0.978106,-0.103331 -2.020739,0.131988 -2.897014,0.589443 -0.615268,0.324118 -1.161692,0.841853 -1.505887,1.448507 -0.341331,0.600922 -0.428816,1.329482 -0.467536,2.019322 -0.02579,0.474701 0.06743,0.952282 0.164858,1.416953 0.03303,0.159126 0.08749,0.314089 0.141933,0.466102 0.139067,0.388663 0.328434,0.75725 0.470417,1.144464 0.11766,0.318388 0.281085,0.631044 0.318372,0.969509 0.06018,0.544975 0.04585,1.127253 -0.154913,1.636374 -0.979539,2.478245 -2.663263,4.86184 -4.889079,6.317528 -0.922176,0.602338 -2.102494,0.752936 -3.202507,0.800252 -1.254892,0.0531 -2.700534,-0.04585 -3.718792,-0.599473 -1.018259,-0.553588 -1.497274,-1.514483 -2.135482,-2.362085 -2.92857,-3.886583 -7.715836,-12.399822 -7.715836,-12.399822 0,0 -2.080969,-3.678639 -5.825584,-1.448507 -3.743184,2.231565 -1.455688,5.794046 -1.455688,5.794046 z"
     style="fill:#000000;fill-opacity:1;fill-rule:evenodd;stroke:none;stroke-width:1.43416893;opacity:0.25;filter:url(#filter995)"
     id="path969"
     inkscape:connector-curvature="0" />
  <path
     inkscape:connector-curvature="0"
     id="path27"
     style="fill:url(#linearGradient927);fill-opacity:1;fill-rule:evenodd;stroke:none;stroke-width:1.43416893"
     d="m 14.2009,23.433105 14.997108,26.496263 c 0,0 0.811748,1.418401 2.855429,1.418401 2.042265,0 2.855429,-1.418401 2.855429,-1.418401 0,0 10.423549,-15.965167 14.675854,-24.481254 0.427383,-0.854767 0.887754,-1.719579 1.081369,-2.657516 0.131988,-0.636776 0.195049,-1.319436 0.04298,-1.951913 -0.185001,-0.771579 -0.542109,-1.560368 -1.124388,-2.098178 -0.67263,-0.620998 -1.606268,-1.002498 -2.515531,-1.097148 -0.978106,-0.103331 -2.020739,0.131988 -2.897014,0.589443 -0.615268,0.324118 -1.161692,0.841853 -1.505887,1.448507 -0.341331,0.600922 -0.428816,1.329482 -0.467536,2.019322 -0.02579,0.474701 0.06743,0.952282 0.164858,1.416953 0.03303,0.159126 0.08749,0.314089 0.141933,0.466102 0.139067,0.388663 0.328434,0.75725 0.470417,1.144464 0.11766,0.318388 0.281085,0.631044 0.318372,0.969509 0.06018,0.544975 0.04585,1.127253 -0.154913,1.636374 -0.979539,2.478245 -2.663263,4.86184 -4.889079,6.317528 -0.922176,0.602338 -2.102494,0.752936 -3.202507,0.800252 -1.254892,0.0531 -2.700534,-0.04585 -3.718792,-0.599473 -1.018259,-0.553588 -1.497274,-1.514483 -2.135482,-2.362085 -2.92857,-3.886583 -7.715836,-12.399822 -7.715836,-12.399822 0,0 -2.080969,-3.678639 -5.825584,-1.448507 -3.743184,2.231565 -1.455688,5.794046 -1.455688,5.794046 z" />
</svg>
