<?xml version="1.0" encoding="UTF-8" standalone="no"?>
<svg
   xmlns:dc="http://purl.org/dc/elements/1.1/"
   xmlns:cc="http://creativecommons.org/ns#"
   xmlns:rdf="http://www.w3.org/1999/02/22-rdf-syntax-ns#"
   xmlns:svg="http://www.w3.org/2000/svg"
   xmlns="http://www.w3.org/2000/svg"
   xmlns:xlink="http://www.w3.org/1999/xlink"
   xmlns:sodipodi="http://sodipodi.sourceforge.net/DTD/sodipodi-0.dtd"
   xmlns:inkscape="http://www.inkscape.org/namespaces/inkscape"
   viewBox="0 0 64 64"
   version="1.1"
   id="svg8"
   sodipodi:docname="youtube-dl.svg"
   width="64"
   height="64"
   inkscape:version="0.92.4 5da689c313, 2019-01-14">
  <metadata
     id="metadata14">
    <rdf:RDF>
      <cc:Work
         rdf:about="">
        <dc:format>image/svg+xml</dc:format>
        <dc:type
           rdf:resource="http://purl.org/dc/dcmitype/StillImage" />
        <dc:title></dc:title>
      </cc:Work>
    </rdf:RDF>
  </metadata>
  <defs
     id="defs12">
    <linearGradient
       inkscape:collect="always"
       id="linearGradient833">
      <stop
         style="stop-color:#ff0d22;stop-opacity:1"
         offset="0"
         id="stop829" />
      <stop
         style="stop-color:#fc3434;stop-opacity:1"
         offset="1"
         id="stop831" />
    </linearGradient>
    <linearGradient
       inkscape:collect="always"
       xlink:href="#linearGradient833"
       id="linearGradient835-8"
       x1="27.966103"
       y1="13.322033"
       x2="27.661016"
       y2="36.610168"
       gradientUnits="userSpaceOnUse"
       gradientTransform="matrix(1.1912917,0,0,1.2066908,3.404349,3.03235)" />
    <filter
       inkscape:collect="always"
       style="color-interpolation-filters:sRGB"
       id="filter887"
       x="-0.051428546"
       width="1.1028571"
       y="-0.072000051"
       height="1.1440001">
      <feGaussianBlur
         inkscape:collect="always"
         stdDeviation="1.2000003"
         id="feGaussianBlur889" />
    </filter>
    <filter
       inkscape:collect="always"
       style="color-interpolation-filters:sRGB"
       id="filter909"
       x="-0.06419101"
       width="1.128382"
       y="-0.056322709"
       height="1.1126454">
      <feGaussianBlur
         inkscape:collect="always"
         stdDeviation="0.54331017"
         id="feGaussianBlur911" />
    </filter>
  </defs>
  <sodipodi:namedview
     pagecolor="#ffffff"
     bordercolor="#666666"
     borderopacity="1"
     objecttolerance="10"
     gridtolerance="10"
     guidetolerance="10"
     inkscape:pageopacity="0"
     inkscape:pageshadow="2"
     inkscape:window-width="1366"
     inkscape:window-height="700"
     id="namedview10"
     showgrid="false"
     inkscape:zoom="6.9532167"
     inkscape:cx="27.603655"
     inkscape:cy="37.187637"
     inkscape:window-x="0"
     inkscape:window-y="0"
     inkscape:window-maximized="1"
     inkscape:current-layer="svg8" />
  <path
     style="color:#000000;font-style:normal;font-variant:normal;font-weight:normal;font-stretch:normal;font-size:medium;line-height:normal;font-family:sans-serif;font-variant-ligatures:normal;font-variant-position:normal;font-variant-caps:normal;font-variant-numeric:normal;font-variant-alternates:normal;font-feature-settings:normal;text-indent:0;text-align:start;text-decoration:none;text-decoration-line:none;text-decoration-style:solid;text-decoration-color:#000000;letter-spacing:normal;word-spacing:normal;text-transform:none;writing-mode:lr-tb;direction:ltr;text-orientation:mixed;dominant-baseline:auto;baseline-shift:baseline;text-anchor:start;white-space:normal;shape-padding:0;clip-rule:nonzero;display:inline;overflow:visible;visibility:visible;opacity:0.25;isolation:auto;mix-blend-mode:normal;color-interpolation:sRGB;color-interpolation-filters:linearRGB;solid-color:#000000;solid-opacity:1;vector-effect:none;fill:#000000;fill-opacity:1;fill-rule:nonzero;stroke:none;stroke-width:2.56455183;stroke-linecap:butt;stroke-linejoin:miter;stroke-miterlimit:4;stroke-dasharray:none;stroke-dashoffset:0;stroke-opacity:1;color-rendering:auto;image-rendering:auto;shape-rendering:auto;text-rendering:auto;enable-background:accumulate;filter:url(#filter887)"
     d="m 32.323423,12.000042 c -6.324166,0 -15.553837,0.369669 -18.313787,0.459579 -0.02097,9.83e-4 -0.04192,0.0025 -0.06282,0.0048 -1.516623,0.135136 -2.610735,0.237942 -3.625063,0.527922 -1.014329,0.289983 -1.904024,0.792907 -2.815357,1.564927 -0.0063,0.0055 -0.01247,0.01099 -0.01861,0.0165 C 5.98242,15.907502 5.119748,17.836898 4.630547,20.197098 4.141346,22.557298 4,25.39669 4,28.782987 v 6.410544 c 0,3.882849 0.256481,6.835211 0.753864,9.069036 0.497383,2.233825 1.226586,3.797819 2.366296,4.763128 2.108273,1.803007 3.837715,2.030214 5.07695,2.220123 0.0031,1.4e-5 0.0062,1.4e-5 0.0093,0 0.135088,0.01954 1.319525,0.22933 4.26259,0.40773 C 19.41206,51.831947 24.246547,52 32.130293,52 c 4.92165,0 9.49687,-0.120412 12.95297,-0.254537 3.4561,-0.134118 5.63453,-0.260998 6.29849,-0.341737 0.002,8e-6 0.005,8e-6 0.007,0 1.39087,-0.179094 3.78799,-0.442425 5.60279,-2.458163 0.002,-0.0031 0.005,-0.0063 0.007,-0.0094 2.61875,-2.96698 3.0015,-7.52595 3.0015,-13.723751 v -7.381638 c 0,-2.008975 -0.0545,-4.46786 -0.44208,-6.787636 -0.3876,-2.319779 -1.07301,-4.550125 -2.62922,-6.028739 -0.0159,-0.0162 -0.0322,-0.03194 -0.0489,-0.04714 -0.94932,-0.800108 -1.72993,-1.421527 -2.80838,-1.824178 -1.07845,-0.402651 -2.33714,-0.563662 -4.31843,-0.664623 -0.003,-1.3e-5 -0.006,-1.3e-5 -0.009,0 -1.08852,-0.04794 -10.45692,-0.441293 -17.17602,-0.452509 -0.0803,-0.01759 -0.16218,-0.02629 -0.2443,-0.02592 z"
     id="path869"
     inkscape:connector-curvature="0"
     sodipodi:nodetypes="cccsccsssscccsscccccsscccscccc" />
  <path
     sodipodi:nodetypes="cccsccsssscccsscccccsscccscccc"
     inkscape:connector-curvature="0"
     id="path7-9"
     d="m 32.323423,12.000042 c -6.324166,0 -15.553837,0.369669 -18.313787,0.459579 -0.02097,9.83e-4 -0.04192,0.0025 -0.06282,0.0048 -1.516623,0.135136 -2.610735,0.237942 -3.625063,0.527922 -1.014329,0.289983 -1.904024,0.792907 -2.815357,1.564927 -0.0063,0.0055 -0.01247,0.01099 -0.01861,0.0165 C 5.98242,15.907502 5.119748,17.836898 4.630547,20.197098 4.141346,22.557298 4,25.39669 4,28.782987 v 6.410544 c 0,3.882849 0.256481,6.835211 0.753864,9.069036 0.497383,2.233825 1.226586,3.797819 2.366296,4.763128 2.108273,1.803007 3.837715,2.030214 5.07695,2.220123 0.0031,1.4e-5 0.0062,1.4e-5 0.0093,0 0.135088,0.01954 1.319525,0.22933 4.26259,0.40773 C 19.41206,51.831947 24.246547,52 32.130293,52 c 4.92165,0 9.49687,-0.120412 12.95297,-0.254537 3.4561,-0.134118 5.63453,-0.260998 6.29849,-0.341737 0.002,8e-6 0.005,8e-6 0.007,0 1.39087,-0.179094 3.78799,-0.442425 5.60279,-2.458163 0.002,-0.0031 0.005,-0.0063 0.007,-0.0094 2.61875,-2.96698 3.0015,-7.52595 3.0015,-13.723751 v -7.381638 c 0,-2.008975 -0.0545,-4.46786 -0.44208,-6.787636 -0.3876,-2.319779 -1.07301,-4.550125 -2.62922,-6.028739 -0.0159,-0.0162 -0.0322,-0.03194 -0.0489,-0.04714 -0.94932,-0.800108 -1.72993,-1.421527 -2.80838,-1.824178 -1.07845,-0.402651 -2.33714,-0.563662 -4.31843,-0.664623 -0.003,-1.3e-5 -0.006,-1.3e-5 -0.009,0 -1.08852,-0.04794 -10.45692,-0.441293 -17.17602,-0.452509 -0.0803,-0.01759 -0.16218,-0.02629 -0.2443,-0.02592 z"
     style="color:#000000;font-style:normal;font-variant:normal;font-weight:normal;font-stretch:normal;font-size:medium;line-height:normal;font-family:sans-serif;font-variant-ligatures:normal;font-variant-position:normal;font-variant-caps:normal;font-variant-numeric:normal;font-variant-alternates:normal;font-feature-settings:normal;text-indent:0;text-align:start;text-decoration:none;text-decoration-line:none;text-decoration-style:solid;text-decoration-color:#000000;letter-spacing:normal;word-spacing:normal;text-transform:none;writing-mode:lr-tb;direction:ltr;text-orientation:mixed;dominant-baseline:auto;baseline-shift:baseline;text-anchor:start;white-space:normal;shape-padding:0;clip-rule:nonzero;display:inline;overflow:visible;visibility:visible;opacity:1;isolation:auto;mix-blend-mode:normal;color-interpolation:sRGB;color-interpolation-filters:linearRGB;solid-color:#000000;solid-opacity:1;vector-effect:none;fill:url(#linearGradient835-8);fill-opacity:1;fill-rule:nonzero;stroke:none;stroke-width:2.56455183;stroke-linecap:butt;stroke-linejoin:miter;stroke-miterlimit:4;stroke-dasharray:none;stroke-dashoffset:0;stroke-opacity:1;color-rendering:auto;image-rendering:auto;shape-rendering:auto;text-rendering:auto;enable-background:accumulate" />
  <path
     style="color:#000000;font-style:normal;font-variant:normal;font-weight:normal;font-stretch:normal;font-size:medium;line-height:normal;font-family:sans-serif;font-variant-ligatures:normal;font-variant-position:normal;font-variant-caps:normal;font-variant-numeric:normal;font-variant-alternates:normal;font-feature-settings:normal;text-indent:0;text-align:start;text-decoration:none;text-decoration-line:none;text-decoration-style:solid;text-decoration-color:#000000;letter-spacing:normal;word-spacing:normal;text-transform:none;writing-mode:lr-tb;direction:ltr;text-orientation:mixed;dominant-baseline:auto;baseline-shift:baseline;text-anchor:start;white-space:normal;shape-padding:0;clip-rule:nonzero;display:inline;overflow:visible;visibility:visible;opacity:0.25;isolation:auto;mix-blend-mode:normal;color-interpolation:sRGB;color-interpolation-filters:linearRGB;solid-color:#000000;solid-opacity:1;vector-effect:none;fill:#000000;fill-opacity:1;fill-rule:nonzero;stroke:none;stroke-width:1.90100002;stroke-linecap:butt;stroke-linejoin:miter;stroke-miterlimit:4;stroke-dasharray:none;stroke-dashoffset:0;stroke-opacity:1;color-rendering:auto;image-rendering:auto;shape-rendering:auto;text-rendering:auto;enable-background:accumulate;filter:url(#filter909)"
     d="m 27.926376,23.015986 c -0.52469,-3.18e-4 -0.95041,0.424533 -0.95117,0.949219 v 10.833984 h -3.20507 c -0.83833,0.0016 -1.26435,1.008622 -0.68165,1.611329 l 9.20704,9.46875 c 0.37329,0.384035 0.98999,0.384035 1.36328,0 l 9.205066,-9.46875 c 0.5827,-0.602703 0.15668,-1.609761 -0.68164,-1.611329 H 38.977166 V 23.965205 c -7.6e-4,-0.52469 -0.42649,-0.949542 -0.95118,-0.949219 z"
     id="path891"
     inkscape:connector-curvature="0"
     sodipodi:nodetypes="ccccccccccccc" />
  <path
     sodipodi:nodetypes="ccccccccccccc"
     inkscape:connector-curvature="0"
     id="path4"
     d="m 27.926376,23.015986 c -0.52469,-3.18e-4 -0.95041,0.424533 -0.95117,0.949219 v 10.833984 h -3.20507 c -0.83833,0.0016 -1.26435,1.008622 -0.68165,1.611329 l 9.20704,9.46875 c 0.37329,0.384035 0.98999,0.384035 1.36328,0 l 9.205066,-9.46875 c 0.5827,-0.602703 0.15668,-1.609761 -0.68164,-1.611329 H 38.977166 V 23.965205 c -7.6e-4,-0.52469 -0.42649,-0.949542 -0.95118,-0.949219 z"
     style="color:#000000;font-style:normal;font-variant:normal;font-weight:normal;font-stretch:normal;font-size:medium;line-height:normal;font-family:sans-serif;font-variant-ligatures:normal;font-variant-position:normal;font-variant-caps:normal;font-variant-numeric:normal;font-variant-alternates:normal;font-feature-settings:normal;text-indent:0;text-align:start;text-decoration:none;text-decoration-line:none;text-decoration-style:solid;text-decoration-color:#000000;letter-spacing:normal;word-spacing:normal;text-transform:none;writing-mode:lr-tb;direction:ltr;text-orientation:mixed;dominant-baseline:auto;baseline-shift:baseline;text-anchor:start;white-space:normal;shape-padding:0;clip-rule:nonzero;display:inline;overflow:visible;visibility:visible;opacity:1;isolation:auto;mix-blend-mode:normal;color-interpolation:sRGB;color-interpolation-filters:linearRGB;solid-color:#000000;solid-opacity:1;vector-effect:none;fill:#ffffff;fill-opacity:1;fill-rule:nonzero;stroke:none;stroke-width:1.90100002;stroke-linecap:butt;stroke-linejoin:miter;stroke-miterlimit:4;stroke-dasharray:none;stroke-dashoffset:0;stroke-opacity:1;color-rendering:auto;image-rendering:auto;shape-rendering:auto;text-rendering:auto;enable-background:accumulate" />
</svg>
