<?xml version="1.0" encoding="UTF-8" standalone="no"?>
<svg
   xmlns:dc="http://purl.org/dc/elements/1.1/"
   xmlns:cc="http://creativecommons.org/ns#"
   xmlns:rdf="http://www.w3.org/1999/02/22-rdf-syntax-ns#"
   xmlns:svg="http://www.w3.org/2000/svg"
   xmlns="http://www.w3.org/2000/svg"
   xmlns:xlink="http://www.w3.org/1999/xlink"
   xmlns:sodipodi="http://sodipodi.sourceforge.net/DTD/sodipodi-0.dtd"
   xmlns:inkscape="http://www.inkscape.org/namespaces/inkscape"
   viewBox="0 0 64 64"
   version="1.1"
   id="svg8"
   sodipodi:docname="youtube-to-mp3.svg"
   inkscape:version="0.92.4 5da689c313, 2019-01-14"
   width="64"
   height="64">
  <metadata
     id="metadata14">
    <rdf:RDF>
      <cc:Work
         rdf:about="">
        <dc:format>image/svg+xml</dc:format>
        <dc:type
           rdf:resource="http://purl.org/dc/dcmitype/StillImage" />
        <dc:title></dc:title>
      </cc:Work>
    </rdf:RDF>
  </metadata>
  <defs
     id="defs12">
    <linearGradient
       id="linearGradient833"
       inkscape:collect="always">
      <stop
         id="stop829"
         offset="0"
         style="stop-color:#ff0d22;stop-opacity:1" />
      <stop
         id="stop831"
         offset="1"
         style="stop-color:#fc3434;stop-opacity:1" />
    </linearGradient>
    <linearGradient
       gradientTransform="matrix(1.1912917,0,0,1.2066908,71.934226,0.3712993)"
       gradientUnits="userSpaceOnUse"
       y2="36.610168"
       x2="27.661016"
       y1="13.322033"
       x1="27.966103"
       id="linearGradient835-8"
       xlink:href="#linearGradient833"
       inkscape:collect="always" />
    <filter
       inkscape:collect="always"
       style="color-interpolation-filters:sRGB"
       id="filter876"
       x="-0.068613472"
       width="1.1372269"
       y="-0.053307927"
       height="1.1066159">
      <feGaussianBlur
         inkscape:collect="always"
         stdDeviation="0.39756481"
         id="feGaussianBlur878" />
    </filter>
    <filter
       inkscape:collect="always"
       style="color-interpolation-filters:sRGB"
       id="filter900"
       x="-0.051428545"
       width="1.1028571"
       y="-0.072000051"
       height="1.1440001">
      <feGaussianBlur
         inkscape:collect="always"
         stdDeviation="1.2000003"
         id="feGaussianBlur902" />
    </filter>
  </defs>
  <sodipodi:namedview
     pagecolor="#ffffff"
     bordercolor="#666666"
     borderopacity="1"
     objecttolerance="10"
     gridtolerance="10"
     guidetolerance="10"
     inkscape:pageopacity="0"
     inkscape:pageshadow="2"
     inkscape:window-width="1366"
     inkscape:window-height="700"
     id="namedview10"
     showgrid="false"
     inkscape:zoom="6.9532167"
     inkscape:cx="10.879635"
     inkscape:cy="19.209921"
     inkscape:window-x="0"
     inkscape:window-y="0"
     inkscape:window-maximized="1"
     inkscape:current-layer="g6" />
  <g
     id="g6"
     style="fill:none;stroke:#ff0000;stroke-width:1.90100002;stroke-linecap:round;stroke-linejoin:round"
     transform="translate(40.271187,-6.169492)">
    <g
       transform="translate(-108.80106,8.8305445)"
       id="g882"
       style="opacity:0.25;fill:#000000;fill-opacity:1;filter:url(#filter900)">
      <path
         sodipodi:nodetypes="cccsccsssscccsscccccsscccscccc"
         inkscape:connector-curvature="0"
         id="path880"
         d="m 100.8533,9.3389905 c -6.324166,0 -15.553837,0.369669 -18.313787,0.459579 -0.02097,9.83e-4 -0.04192,0.0025 -0.06282,0.0048 -1.516623,0.135136 -2.610735,0.2379425 -3.625063,0.5279225 -1.014329,0.289982 -1.904024,0.792906 -2.815357,1.564927 -0.0063,0.0055 -0.01247,0.01099 -0.01861,0.0165 -1.505366,1.333732 -2.368038,3.263128 -2.857239,5.623328 -0.489201,2.3602 -0.630547,5.199592 -0.630547,8.585888 v 6.410544 c 0,3.882849 0.256481,6.835211 0.753864,9.069036 0.497383,2.233825 1.226586,3.797819 2.366296,4.763128 2.108273,1.803007 3.837715,2.030214 5.07695,2.220123 0.0031,1.4e-5 0.0062,1.4e-5 0.0093,0 0.135088,0.01954 1.319525,0.22933 4.26259,0.40773 2.94306,0.178399 7.777547,0.346452 15.661293,0.346452 4.92165,0 9.49687,-0.120412 12.95297,-0.254537 3.4561,-0.134118 5.63453,-0.260998 6.29849,-0.341737 0.002,8e-6 0.005,8e-6 0.007,0 1.39087,-0.179094 3.78799,-0.442425 5.60279,-2.458163 0.002,-0.0031 0.005,-0.0063 0.007,-0.0094 2.61875,-2.96698 3.0015,-7.52595 3.0015,-13.723751 v -7.381638 c 0,-2.008975 -0.0545,-4.46786 -0.44208,-6.787636 -0.3876,-2.319779 -1.07301,-4.550125 -2.62922,-6.028739 -0.0159,-0.0162 -0.0322,-0.03194 -0.0489,-0.04714 -0.94932,-0.800108 -1.72993,-1.421527 -2.80838,-1.824178 -1.07845,-0.402651 -2.33714,-0.5636615 -4.31843,-0.6646225 -0.003,-1.3e-5 -0.006,-1.3e-5 -0.009,0 -1.08852,-0.04794 -10.45692,-0.441293 -17.17602,-0.452509 -0.0803,-0.01759 -0.16218,-0.02629 -0.2443,-0.02592 z"
         style="color:#000000;font-style:normal;font-variant:normal;font-weight:normal;font-stretch:normal;font-size:medium;line-height:normal;font-family:sans-serif;font-variant-ligatures:normal;font-variant-position:normal;font-variant-caps:normal;font-variant-numeric:normal;font-variant-alternates:normal;font-feature-settings:normal;text-indent:0;text-align:start;text-decoration:none;text-decoration-line:none;text-decoration-style:solid;text-decoration-color:#000000;letter-spacing:normal;word-spacing:normal;text-transform:none;writing-mode:lr-tb;direction:ltr;text-orientation:mixed;dominant-baseline:auto;baseline-shift:baseline;text-anchor:start;white-space:normal;shape-padding:0;clip-rule:nonzero;display:inline;overflow:visible;visibility:visible;opacity:1;isolation:auto;mix-blend-mode:normal;color-interpolation:sRGB;color-interpolation-filters:linearRGB;solid-color:#000000;solid-opacity:1;vector-effect:none;fill:#000000;fill-opacity:1;fill-rule:nonzero;stroke:none;stroke-width:2.56455183;stroke-linecap:butt;stroke-linejoin:miter;stroke-miterlimit:4;stroke-dasharray:none;stroke-dashoffset:0;stroke-opacity:1;color-rendering:auto;image-rendering:auto;shape-rendering:auto;text-rendering:auto;enable-background:accumulate" />
    </g>
    <g
       id="g854"
       transform="translate(-108.80106,8.8305445)">
      <path
         style="color:#000000;font-style:normal;font-variant:normal;font-weight:normal;font-stretch:normal;font-size:medium;line-height:normal;font-family:sans-serif;font-variant-ligatures:normal;font-variant-position:normal;font-variant-caps:normal;font-variant-numeric:normal;font-variant-alternates:normal;font-feature-settings:normal;text-indent:0;text-align:start;text-decoration:none;text-decoration-line:none;text-decoration-style:solid;text-decoration-color:#000000;letter-spacing:normal;word-spacing:normal;text-transform:none;writing-mode:lr-tb;direction:ltr;text-orientation:mixed;dominant-baseline:auto;baseline-shift:baseline;text-anchor:start;white-space:normal;shape-padding:0;clip-rule:nonzero;display:inline;overflow:visible;visibility:visible;opacity:1;isolation:auto;mix-blend-mode:normal;color-interpolation:sRGB;color-interpolation-filters:linearRGB;solid-color:#000000;solid-opacity:1;vector-effect:none;fill:url(#linearGradient835-8);fill-opacity:1;fill-rule:nonzero;stroke:none;stroke-width:2.56455183;stroke-linecap:butt;stroke-linejoin:miter;stroke-miterlimit:4;stroke-dasharray:none;stroke-dashoffset:0;stroke-opacity:1;color-rendering:auto;image-rendering:auto;shape-rendering:auto;text-rendering:auto;enable-background:accumulate"
         d="m 100.8533,9.3389905 c -6.324166,0 -15.553837,0.369669 -18.313787,0.459579 -0.02097,9.83e-4 -0.04192,0.0025 -0.06282,0.0048 -1.516623,0.135136 -2.610735,0.2379425 -3.625063,0.5279225 -1.014329,0.289982 -1.904024,0.792906 -2.815357,1.564927 -0.0063,0.0055 -0.01247,0.01099 -0.01861,0.0165 -1.505366,1.333732 -2.368038,3.263128 -2.857239,5.623328 -0.489201,2.3602 -0.630547,5.199592 -0.630547,8.585888 v 6.410544 c 0,3.882849 0.256481,6.835211 0.753864,9.069036 0.497383,2.233825 1.226586,3.797819 2.366296,4.763128 2.108273,1.803007 3.837715,2.030214 5.07695,2.220123 0.0031,1.4e-5 0.0062,1.4e-5 0.0093,0 0.135088,0.01954 1.319525,0.22933 4.26259,0.40773 2.94306,0.178399 7.777547,0.346452 15.661293,0.346452 4.92165,0 9.49687,-0.120412 12.95297,-0.254537 3.4561,-0.134118 5.63453,-0.260998 6.29849,-0.341737 0.002,8e-6 0.005,8e-6 0.007,0 1.39087,-0.179094 3.78799,-0.442425 5.60279,-2.458163 0.002,-0.0031 0.005,-0.0063 0.007,-0.0094 2.61875,-2.96698 3.0015,-7.52595 3.0015,-13.723751 v -7.381638 c 0,-2.008975 -0.0545,-4.46786 -0.44208,-6.787636 -0.3876,-2.319779 -1.07301,-4.550125 -2.62922,-6.028739 -0.0159,-0.0162 -0.0322,-0.03194 -0.0489,-0.04714 -0.94932,-0.800108 -1.72993,-1.421527 -2.80838,-1.824178 -1.07845,-0.402651 -2.33714,-0.5636615 -4.31843,-0.6646225 -0.003,-1.3e-5 -0.006,-1.3e-5 -0.009,0 -1.08852,-0.04794 -10.45692,-0.441293 -17.17602,-0.452509 -0.0803,-0.01759 -0.16218,-0.02629 -0.2443,-0.02592 z"
         id="path7-9"
         inkscape:connector-curvature="0"
         sodipodi:nodetypes="cccsccsssscccsscccccsscccscccc" />
    </g>
    <g
       style="opacity:0.25;fill:#000000;fill-opacity:1;stroke:none;stroke-opacity:1;filter:url(#filter876)"
       transform="matrix(1.5142412,0,0,1.5142412,-19.610169,-1542.113)"
       id="g858">
      <path
         sodipodi:nodetypes="ccccccccccccccccccscccc"
         inkscape:connector-curvature="0"
         id="path856"
         d="m 13.96875,1035.4102 c -0.106254,0 -0.211226,0.024 -0.310547,0.062 0,0 -1.849925,0.5875 -2.941406,0.2031 h 0.002 c -0.60309,-0.2132 -1.218225,-0.1972 -1.7539062,-0.061 -0.1396354,0.036 -0.2692092,0.1036 -0.3789063,0.1973 -1.3123232,0.4914 -2.2285156,1.4472 -2.2285156,1.4472 -0.3273217,0.3582 -0.3323729,0.9054 -0.011719,1.2695 l -0.1171875,-0.1328 1.4335938,5.3204 c -1.3678713,-0.1498 -2.8038463,0.056 -4.0800782,0.9785 -2.3688136,1.7121 -3.34236961,4.7897 -1.7792968,6.9316 1.5598193,2.1375 4.7781995,2.1785 7.1464844,0.4668 1.8538394,-1.3402 2.9817164,-3.4509 2.5507814,-5.4609 v 0 c -0.02454,-0.1145 -0.04594,-0.1726 -0.04687,-0.1758 v 0 l -1.5527346,-6.0078 c 0.2968156,-0.053 0.5729126,-0.1104 1.1621096,-0.1504 1.384627,-0.094 2.281729,-1.1011 2.878906,-1.9317 0.597178,-0.8305 0.931641,-1.6347 0.931641,-1.6347 0.269766,-0.6381 -0.211797,-1.3412 -0.904297,-1.3203 z"
         style="color:#000000;font-style:normal;font-variant:normal;font-weight:normal;font-stretch:normal;font-size:medium;line-height:normal;font-family:sans-serif;font-variant-ligatures:normal;font-variant-position:normal;font-variant-caps:normal;font-variant-numeric:normal;font-variant-alternates:normal;font-feature-settings:normal;text-indent:0;text-align:start;text-decoration:none;text-decoration-line:none;text-decoration-style:solid;text-decoration-color:#000000;letter-spacing:normal;word-spacing:normal;text-transform:none;writing-mode:lr-tb;direction:ltr;text-orientation:mixed;dominant-baseline:auto;baseline-shift:baseline;text-anchor:start;white-space:normal;shape-padding:0;clip-rule:nonzero;display:inline;overflow:visible;visibility:visible;opacity:1;isolation:auto;mix-blend-mode:normal;color-interpolation:sRGB;color-interpolation-filters:linearRGB;solid-color:#000000;solid-opacity:1;vector-effect:none;fill:#000000;fill-opacity:1;fill-rule:nonzero;stroke:none;stroke-width:1.90100002;stroke-linecap:butt;stroke-linejoin:miter;stroke-miterlimit:4;stroke-dasharray:none;stroke-dashoffset:0;stroke-opacity:1;color-rendering:auto;image-rendering:auto;shape-rendering:auto;text-rendering:auto;enable-background:accumulate" />
    </g>
    <g
       id="g862"
       transform="matrix(1.5142412,0,0,1.5142412,-19.610169,-1542.113)"
       style="fill:#ffffff;fill-opacity:1;stroke:none;stroke-opacity:1">
      <path
         style="color:#000000;font-style:normal;font-variant:normal;font-weight:normal;font-stretch:normal;font-size:medium;line-height:normal;font-family:sans-serif;font-variant-ligatures:normal;font-variant-position:normal;font-variant-caps:normal;font-variant-numeric:normal;font-variant-alternates:normal;font-feature-settings:normal;text-indent:0;text-align:start;text-decoration:none;text-decoration-line:none;text-decoration-style:solid;text-decoration-color:#000000;letter-spacing:normal;word-spacing:normal;text-transform:none;writing-mode:lr-tb;direction:ltr;text-orientation:mixed;dominant-baseline:auto;baseline-shift:baseline;text-anchor:start;white-space:normal;shape-padding:0;clip-rule:nonzero;display:inline;overflow:visible;visibility:visible;opacity:1;isolation:auto;mix-blend-mode:normal;color-interpolation:sRGB;color-interpolation-filters:linearRGB;solid-color:#000000;solid-opacity:1;vector-effect:none;fill:#ffffff;fill-opacity:1;fill-rule:nonzero;stroke:none;stroke-width:1.90100002;stroke-linecap:butt;stroke-linejoin:miter;stroke-miterlimit:4;stroke-dasharray:none;stroke-dashoffset:0;stroke-opacity:1;color-rendering:auto;image-rendering:auto;shape-rendering:auto;text-rendering:auto;enable-background:accumulate"
         d="m 13.96875,1035.4102 c -0.106254,0 -0.211226,0.024 -0.310547,0.062 0,0 -1.849925,0.5875 -2.941406,0.2031 h 0.002 c -0.60309,-0.2132 -1.218225,-0.1972 -1.7539062,-0.061 -0.1396354,0.036 -0.2692092,0.1036 -0.3789063,0.1973 -1.3123232,0.4914 -2.2285156,1.4472 -2.2285156,1.4472 -0.3273217,0.3582 -0.3323729,0.9054 -0.011719,1.2695 l -0.1171875,-0.1328 1.4335938,5.3204 c -1.3678713,-0.1498 -2.8038463,0.056 -4.0800782,0.9785 -2.3688136,1.7121 -3.34236961,4.7897 -1.7792968,6.9316 1.5598193,2.1375 4.7781995,2.1785 7.1464844,0.4668 1.8538394,-1.3402 2.9817164,-3.4509 2.5507814,-5.4609 v 0 c -0.02454,-0.1145 -0.04594,-0.1726 -0.04687,-0.1758 v 0 l -1.5527346,-6.0078 c 0.2968156,-0.053 0.5729126,-0.1104 1.1621096,-0.1504 1.384627,-0.094 2.281729,-1.1011 2.878906,-1.9317 0.597178,-0.8305 0.931641,-1.6347 0.931641,-1.6347 0.269766,-0.6381 -0.211797,-1.3412 -0.904297,-1.3203 z"
         id="path860"
         inkscape:connector-curvature="0"
         sodipodi:nodetypes="ccccccccccccccccccscccc" />
    </g>
  </g>
</svg>
