<?xml version="1.0" encoding="UTF-8" standalone="no"?>
<svg
   xmlns:dc="http://purl.org/dc/elements/1.1/"
   xmlns:cc="http://creativecommons.org/ns#"
   xmlns:rdf="http://www.w3.org/1999/02/22-rdf-syntax-ns#"
   xmlns:svg="http://www.w3.org/2000/svg"
   xmlns="http://www.w3.org/2000/svg"
   xmlns:sodipodi="http://sodipodi.sourceforge.net/DTD/sodipodi-0.dtd"
   xmlns:inkscape="http://www.inkscape.org/namespaces/inkscape"
   height="1024"
   width="1024"
   id="svg4"
   viewBox="-10 0 1024 1024"
   version="1.1"
   sodipodi:docname="gamepad_BW.svg"
   inkscape:version="1.0.1 (3bc2e813f5, 2020-09-07, custom)">
  <sodipodi:namedview
     pagecolor="#ffffff"
     bordercolor="#666666"
     borderopacity="1"
     objecttolerance="10"
     gridtolerance="10"
     guidetolerance="10"
     inkscape:pageopacity="0"
     inkscape:pageshadow="2"
     inkscape:window-width="1920"
     inkscape:window-height="971"
     id="namedview6"
     showgrid="false"
     inkscape:zoom="0.8970765"
     inkscape:cx="533.56643"
     inkscape:cy="525.21357"
     inkscape:window-x="0"
     inkscape:window-y="36"
     inkscape:window-maximized="1"
     inkscape:current-layer="svg4"
     showguides="true"
     inkscape:guide-bbox="true"
     inkscape:document-rotation="0"
     inkscape:pagecheckerboard="true">
    <sodipodi:guide
       position="501.0808,619.85303"
       orientation="1,0"
       id="guide1379" />
    <inkscape:grid
       type="xygrid"
       id="grid866" />
    <sodipodi:guide
       position="1598.7367,460.47364"
       orientation="1,0"
       id="guide933" />
  </sodipodi:namedview>
  <metadata
     id="metadata10">
    <rdf:RDF>
      <cc:Work
         rdf:about="">
        <dc:format>image/svg+xml</dc:format>
        <dc:type
           rdf:resource="http://purl.org/dc/dcmitype/StillImage" />
        <dc:title />
      </cc:Work>
    </rdf:RDF>
  </metadata>
  <defs
     id="defs8">
    <rect
       x="74.211449"
       y="324.81564"
       width="459.43942"
       height="366.63495"
       id="rect900" />
    <rect
       x="35.256512"
       y="333.98157"
       width="347.15747"
       height="295.59946"
       id="rect894" />
    <rect
       x="108.58348"
       y="309.92111"
       width="379.23801"
       height="282.99634"
       id="rect873" />
    <rect
       x="124.62378"
       y="305.3382"
       width="331.11722"
       height="216.54379"
       id="rect867" />
    <rect
       x="139.51831"
       y="103.68894"
       width="425.06744"
       height="260.0817"
       id="rect861" />
    <rect
       x="367.51941"
       y="188.4733"
       width="111.13619"
       height="76.764206"
       id="rect845" />
  </defs>
  <path
     id="path1408-3-5"
     style="display:inline;opacity:1;fill:#000000;fill-opacity:1;stroke:none;stroke-width:5.9049;stroke-miterlimit:4;stroke-dasharray:none;stroke-opacity:1"
     inkscape:label="gamepad 2"
     d="M 220.00088,269.72594 C 164.6699,273.71679 108.21462,296.18224 67.333357,335.45492 -4.3798601,400.97453 -29.104912,511.44215 7.8375235,601.28058 42.409599,691.96199 135.93276,755.51003 232.97277,754.25583 c 69.84741,0.37029 138.97672,-31.48398 184.07718,-84.82015 l 84.95002,1.25902 84.95012,-1.25902 c 45.10046,53.33617 114.22967,85.19044 184.07707,84.82015 97.04002,1.2542 190.56348,-62.29384 225.13525,-152.97525 36.94259,-89.83843 12.21739,-200.30605 -59.49583,-265.82566 -40.88127,-39.27268 -97.33654,-61.73813 -152.66752,-65.72898 l -281.99909,0.81337 z m -3.36134,122.29907 c 22.15916,0 39.99691,7.52316 39.99691,16.86491 v 65.45719 h 68.30298 c 10.49185,0 18.93933,16.83336 18.93933,37.7427 0,20.90933 -8.44748,37.7427 -18.93933,37.7427 h -68.30298 v 65.4572 c 0,9.34173 -17.83775,16.8609 -39.99691,16.8609 -22.15905,0 -39.99895,-7.51917 -39.99895,-16.8609 v -65.4572 h -68.30298 c -10.491952,0 -18.937388,-16.83337 -18.937388,-37.7427 0,-20.90934 8.445436,-37.7427 18.937388,-37.7427 h 68.30298 v -65.45719 c 0,-9.34175 17.8399,-16.86491 39.99895,-16.86491 z m 592.44413,1.39291 a 43.509836,43.509836 0 0 1 43.51018,43.51023 43.509836,43.509836 0 0 1 -43.51018,43.51023 43.509836,43.509836 0 0 1 -43.51029,-43.51023 43.509836,43.509836 0 0 1 43.51029,-43.51023 z m 87.57004,87.09041 a 43.509836,43.509836 0 0 1 43.50814,43.51022 43.509836,43.509836 0 0 1 -43.50814,43.51022 43.509836,43.509836 0 0 1 -43.51029,-43.51022 43.509836,43.509836 0 0 1 43.51029,-43.51022 z m -175.99139,0.29177 a 43.509836,43.509836 0 0 1 43.50814,43.51022 43.509836,43.509836 0 0 1 -43.50814,43.51023 43.509836,43.509836 0 0 1 -43.51029,-43.51023 43.509836,43.509836 0 0 1 43.51029,-43.51022 z m 89.04888,87.27026 a 43.509836,43.509836 0 0 1 43.51019,43.51023 43.509836,43.509836 0 0 1 -43.51019,43.51022 43.509836,43.509836 0 0 1 -43.50825,-43.51022 43.509836,43.509836 0 0 1 43.50825,-43.51023 z" />
</svg>
