<?xml version="1.0" encoding="UTF-8" standalone="no"?>
<svg
   xmlns:dc="http://purl.org/dc/elements/1.1/"
   xmlns:cc="http://creativecommons.org/ns#"
   xmlns:rdf="http://www.w3.org/1999/02/22-rdf-syntax-ns#"
   xmlns:svg="http://www.w3.org/2000/svg"
   xmlns="http://www.w3.org/2000/svg"
   height="1024"
   width="1024"
   id="svg4"
   viewBox="-10 0 1024 1024"
   version="1.1">
  <metadata
     id="metadata10">
    <rdf:RDF>
      <cc:Work
         rdf:about="">
        <dc:format>image/svg+xml</dc:format>
        <dc:type
           rdf:resource="http://purl.org/dc/dcmitype/StillImage" />
        <dc:title></dc:title>
      </cc:Work>
    </rdf:RDF>
  </metadata>
  <defs
     id="defs8" />
  <path
     style="stroke-width:0.59049"
     fill="currentColor"
     d="m 246.31782,578.72542 -59.63949,59.63949 Q 161.87775,577.54444 161.87775,512.00005 v -75.58272 q 0,-15.35274 11.21931,-26.57205 11.21931,-11.21931 26.57205,-11.21931 15.35274,0 26.57206,11.21931 11.21931,11.21931 11.21931,26.57205 v 75.58272 q 0,31.29597 8.85734,66.72537 z M 904.1237,223.25043 690.95679,436.41733 v 75.58272 q 0,77.94468 -55.50606,133.45074 -55.50606,55.50606 -133.45074,55.50606 -32.47695,0 -64.36341,-11.21931 l -56.68704,56.68705 q 57.27753,30.11499 121.05045,30.11499 109.24065,0 186.89009,-77.64944 77.64943,-77.64943 77.64943,-186.89008 v -75.58272 q 0,-15.35274 11.21931,-26.57205 11.21931,-11.21931 26.57205,-11.21931 15.35274,0 26.57205,11.21931 11.21931,11.21931 11.21931,26.57205 v 75.58272 q 0,130.49829 -87.09727,227.0434 -87.09728,96.54512 -215.23361,110.71688 v 77.94465 h 151.16544 q 15.35274,0 26.57205,11.21931 11.21931,11.21931 11.21931,26.57205 0,15.35274 -11.21931,26.57205 -11.21931,11.2192 -26.57205,11.2192 h -377.9136 q -15.35274,0 -26.57205,-11.2192 -11.21931,-11.21931 -11.21931,-26.57205 0,-15.35274 11.21931,-26.57205 11.21931,-11.21931 26.57205,-11.21931 H 464.20863 V 849.76033 Q 390.39738,842.08396 325.44348,801.93064 L 175.45902,951.91507 q -5.9049,5.9049 -13.58127,5.9049 -7.67637,0 -13.58127,-5.9049 L 99.8763,903.49492 q -5.9049,-5.9049 -5.9049,-13.58127 0,-7.67637 5.9049,-13.58127 L 828.54096,147.66772 q 5.9049,-5.9049 13.58127,-5.9049 7.67637,0 13.58127,5.9049 l 48.4202,48.42018 q 5.9049,5.9049 5.9049,13.58127 0,7.67637 -5.9049,13.58126 z M 679.73748,145.30576 313.04319,512.00005 V 209.66917 q 0,-77.94468 55.50606,-133.450733 55.50606,-55.50606 133.45074,-55.50606 60.22998,0 108.94541,34.83891 48.71542,34.83891 68.79208,89.754473 z"
     id="path1735" />
</svg>
