<?xml version="1.0" encoding="UTF-8" standalone="no"?>
<svg
   xmlns:dc="http://purl.org/dc/elements/1.1/"
   xmlns:cc="http://creativecommons.org/ns#"
   xmlns:rdf="http://www.w3.org/1999/02/22-rdf-syntax-ns#"
   xmlns:svg="http://www.w3.org/2000/svg"
   xmlns="http://www.w3.org/2000/svg"
   height="1024"
   width="1024"
   id="svg4"
   viewBox="-10 0 1024 1024"
   version="1.1">
  <metadata
     id="metadata10">
    <rdf:RDF>
      <cc:Work
         rdf:about="">
        <dc:format>image/svg+xml</dc:format>
        <dc:type
           rdf:resource="http://purl.org/dc/dcmitype/StillImage" />
        <dc:title></dc:title>
      </cc:Work>
    </rdf:RDF>
  </metadata>
  <defs
     id="defs8" />
  <path
     style="stroke-width:0.59049"
     fill="currentColor"
     d="m 842.12222,436.41727 v 75.58272 q 0,130.49829 -87.09727,227.04341 -87.09723,96.54511 -215.23356,110.71687 v 77.94468 h 151.16544 q 15.35269,0 26.572,11.21931 11.21931,11.21931 11.21931,26.57202 0,15.35274 -11.21931,26.57209 -11.21931,11.21933 -26.572,11.21933 h -377.9136 q -15.35274,0 -26.57205,-11.21933 -11.21931,-11.21935 -11.21931,-26.57209 0,-15.35271 11.21931,-26.57202 11.21931,-11.21931 26.57205,-11.21931 H 464.20867 V 849.76027 Q 336.07234,835.58851 248.97506,739.0434 161.87778,642.49828 161.87778,511.99999 v -75.58272 q 0,-15.35275 11.21932,-26.57206 11.21931,-11.21931 26.57205,-11.21931 15.35274,0 26.57205,11.21931 11.21931,11.21931 11.21931,26.57206 v 75.58272 q 0,109.24065 77.64943,186.89009 77.64944,77.64943 186.89009,77.64943 109.24065,0 186.89008,-77.64943 77.64939,-77.64944 77.64939,-186.89009 v -75.58272 q 0,-15.35275 11.21931,-26.57206 11.21931,-11.21931 26.57205,-11.21931 15.35274,0 26.57205,11.21931 11.21931,11.21931 11.21931,26.57206 z M 690.95683,209.66911 v 302.33088 q 0,77.94468 -55.50606,133.45074 -55.50606,55.50606 -133.45074,55.50606 -77.94468,0 -133.45074,-55.50606 -55.50606,-55.50606 -55.50606,-133.45074 V 209.66911 q 0,-77.94468 55.50606,-133.450732 55.50606,-55.50606 133.45074,-55.50606 77.94468,0 133.45074,55.50606 55.50606,55.506052 55.50606,133.450732 z"
     id="path1686" />
</svg>
