<?xml version="1.0" encoding="UTF-8" standalone="no"?>
<svg
   xmlns:dc="http://purl.org/dc/elements/1.1/"
   xmlns:cc="http://creativecommons.org/ns#"
   xmlns:rdf="http://www.w3.org/1999/02/22-rdf-syntax-ns#"
   xmlns:svg="http://www.w3.org/2000/svg"
   xmlns="http://www.w3.org/2000/svg"
   height="1024"
   width="1024"
   id="svg4"
   viewBox="-10 0 1024 1024"
   version="1.1">
  <metadata
     id="metadata10">
    <rdf:RDF>
      <cc:Work
         rdf:about="">
        <dc:format>image/svg+xml</dc:format>
        <dc:type
           rdf:resource="http://purl.org/dc/dcmitype/StillImage" />
        <dc:title></dc:title>
      </cc:Work>
    </rdf:RDF>
  </metadata>
  <defs
     id="defs8" />
  <path
     style="stroke-width:0.59049"
     d="m 701.73754,89.200105 c -5.83615,0.12583 -11.66983,1.58426 -16.76641,4.45955 -4.97762,2.7734 -9.28513,6.682765 -12.73563,11.202385 -3.32789,4.39419 -5.69234,9.53741 -6.67565,14.97116 -1.11989,6.04797 -0.84472,12.39943 1.08323,18.25705 1.89115,5.73179 5.37729,10.85172 9.69537,15.0351 3.67999,3.56964 7.87919,6.58587 12.3379,9.10522 8.4077,4.50833 17.53412,7.40717 25.89138,12.01249 7.30363,4.01127 14.55309,8.12482 21.67001,12.46049 3.2205,1.95652 6.43401,3.9681 9.5628,5.97647 6.27865,4.05739 12.4774,8.24483 18.49675,12.67922 4.70854,3.51151 9.34075,7.12987 13.8701,10.83584 12.26533,10.03017 23.95282,20.83913 34.8939,32.33426 10.11969,10.63832 19.6488,21.91776 28.45152,33.69914 5.13117,6.87373 10.07184,13.97698 14.73744,21.20702 2.6506,4.10756 5.2729,8.34217 7.7621,12.55293 8.6915,14.68798 16.4924,30.05772 23.2066,45.80651 1.4196,3.32262 2.8264,6.77659 4.1518,10.13769 1.81,4.6212 3.542,9.28999 5.1536,13.93579 5.1904,14.92747 9.4185,30.19609 12.6468,45.68749 0.6971,3.35829 1.3569,6.76765 1.9621,10.13097 1.9272,10.76779 3.3811,21.62464 4.359,32.4793 0.6456,7.16876 1.0807,14.3991 1.3232,21.56554 0.278,8.29132 0.2959,16.64042 0.058,24.90207 -0.1868,6.21205 -0.5135,12.36285 -0.9902,18.5591 -0.9521,12.23373 -2.4959,24.51228 -4.6515,36.62771 -0.6491,3.64276 -1.3473,7.25209 -2.1068,10.89107 -4.4622,21.40884 -10.9014,42.48065 -19.0963,62.78745 -6.383,15.7994 -13.8566,31.23022 -22.2615,46.08415 -1.0791,1.90991 -2.1834,3.80437 -3.2708,5.66783 -11.0185,18.70666 -23.61746,36.48704 -37.69805,53.01488 -13.39794,15.73895 -28.1636,30.38361 -43.97759,43.73131 -2.74891,2.3188 -5.53267,4.60203 -8.35682,6.85813 -3.77162,2.99466 -7.60733,5.97037 -11.50704,8.82805 -3.87675,2.83449 -7.93099,5.60186 -11.97978,8.30316 -12.46197,8.28069 -25.36998,15.87928 -38.54775,22.96049 -7.43106,3.80575 -15.33859,6.50837 -22.76281,10.35399 -4.52074,2.39899 -8.73983,5.3774 -12.50534,8.84394 -4.91068,4.5487 -8.89326,10.25134 -10.79503,16.71441 -1.96029,6.60498 -1.91181,13.7538 -0.10956,20.38778 1.65507,5.94613 4.97097,11.35927 9.25516,15.77593 4.69089,4.90365 10.59288,8.7633 17.18275,10.53 8.26482,2.26332 17.21329,1.51227 25.16333,-1.58031 2.67995,-1.10241 5.31332,-2.31426 7.96046,-3.49317 31.91856,-14.41305 62.27346,-32.35464 90.03071,-53.72762 25.58916,-19.66036 48.94336,-42.20627 69.62936,-66.96748 16.3657,-19.57824 31.1,-40.51124 44.1647,-62.42749 15.3478,-25.79041 28.2394,-53.06049 38.1587,-81.39217 10.0691,-28.68994 17.0771,-58.44488 20.9789,-88.59606 3.5527,-27.3877 4.5888,-55.09036 3.3284,-82.67487 -1.3749,-29.7921 -5.6013,-59.46659 -12.8564,-88.40084 -8.4445,-33.81449 -21.0448,-66.56965 -37.2238,-97.43232 -11.6046,-22.14148 -24.9869,-43.34663 -39.8739,-63.42511 -18.6414,-25.11638 -39.7986,-48.38751 -63.24346,-69.10231 -22.8879,-20.25884 -47.9291,-38.06554 -74.50911,-53.15198 -14.90365,-8.46392 -30.2778,-16.100315 -46.01807,-22.882755 -4.03407,-1.64578 -8.33211,-2.648 -12.67477,-2.99347 -1.32123,-0.10056 -2.64692,-0.13302 -3.97166,-0.10511 z M 424.79657,150.02058 c -5.83574,0.12606 -11.66905,1.58444 -16.76528,4.45954 -3.62508,1.99907 -6.85689,4.64865 -9.72132,7.62577 -65.25341,65.25226 -130.50683,130.50452 -195.76025,195.75678 -51.77424,0.002 -103.548626,-0.006 -155.322796,0.009 -6.13128,0.0644 -12.27192,1.62674 -17.57872,4.7269 -4.7624,2.74593 -8.89489,6.53109 -12.22978,10.88863 -3.21482,4.23126 -5.53366,9.15735 -6.59213,14.37301 -0.71376,3.34051 -0.8324999,6.77018 -0.77631,10.17499 0.002,75.00921 -0.004,150.01848 0.007,225.02765 0.0699,6.9543 2.12763,13.90976 6.05826,19.66638 3.1136,4.63629 7.18393,8.62181 11.83868,11.70133 5.35196,3.49022 11.65776,5.48135 18.04196,5.71492 3.13776,0.10979 6.27848,0.0146 9.41752,0.0481 49.045426,0 98.090856,0 147.136266,0 65.66065,65.66005 131.31773,131.32365 196.98537,196.97656 4.91681,4.86002 11.11793,8.5262 17.91103,9.98031 5.90587,1.29835 12.12116,1.18446 17.97739,-0.31947 5.83704,-1.54297 11.20667,-4.65553 15.61059,-8.76614 5.05419,-4.63907 9.07922,-10.52093 11.01285,-17.14083 1.20867,-4.03319 1.59766,-8.26927 1.49935,-12.46646 -0.003,-213.65625 0.002,-427.31261 -0.005,-640.96894 -0.0178,-6.75779 -1.87488,-13.54097 -5.55119,-19.23255 -3.12396,-4.90373 -7.31983,-9.10824 -12.14087,-12.34769 -5.07763,-3.3568 -11.02615,-5.37247 -17.09933,-5.78703 -1.31545,-0.0965 -2.6355,-0.12527 -3.95421,-0.10072 z m 217.31532,77.94468 c -5.86061,0.12314 -11.71879,1.59285 -16.83191,4.48815 -4.95559,2.77219 -9.2455,6.66958 -12.68399,11.17378 -3.34684,4.41779 -5.71618,9.59409 -6.69327,15.05944 -1.01516,5.57065 -0.81445,11.35657 0.5226,16.85575 1.46003,5.81851 4.50088,11.21525 8.67907,15.51568 4.09178,4.27639 9.12787,7.52878 14.40002,10.15848 10.87039,5.66896 21.67269,11.42667 32.1817,17.76767 1.62365,0.98659 3.19652,1.96182 4.78113,2.97738 0.88082,0.57549 1.86806,1.21697 2.77827,1.83471 3.72773,2.52002 7.30399,5.25589 10.85152,8.02155 13.391,10.54554 25.66839,22.63335 36.33235,35.97475 7.41706,9.27871 14.16913,19.27965 20.04951,29.67606 9.49282,16.7957 16.98935,34.80765 21.93063,53.49249 1.40712,5.27619 2.61616,10.66177 3.62145,15.9934 0.78047,4.19162 1.44182,8.35144 1.98237,12.5857 0.74941,5.86016 1.2748,11.82033 1.57188,17.73591 0.41093,8.2499 0.38826,16.53452 -0.0692,24.78471 -0.16257,2.91415 -0.38383,5.91929 -0.65749,8.82778 -0.31719,3.41644 -0.71895,6.82479 -1.19184,10.22314 -1.50656,10.70429 -3.81013,21.38983 -6.88373,31.79073 -1.68849,5.73146 -3.63856,11.47495 -5.80865,17.07923 -1.44889,3.76119 -3.06246,7.5996 -4.71094,11.28047 -8.59994,19.12225 -19.74808,37.12207 -33.25543,53.16947 -3.90284,4.63498 -8.09511,9.22308 -12.37113,13.52061 -9.37866,9.44435 -19.61425,18.03238 -30.4919,25.69949 -6.97482,4.75658 -14.40219,8.9866 -21.80306,13.11683 -7.09376,3.93856 -14.30194,7.70443 -21.50329,11.47446 -6.08414,3.3125 -11.70062,7.74562 -15.60478,13.52914 -3.29646,4.81833 -5.20871,10.51342 -5.7656,16.30948 -0.52836,5.52862 -0.0508,11.20571 1.8056,16.46171 1.56132,4.52898 4.10526,8.68362 7.27201,12.26637 4.6387,5.30457 10.63218,9.53357 17.40989,11.58869 5.2612,1.60927 10.86994,2.08093 16.32751,1.39129 4.39607,-0.56883 8.66249,-1.91807 12.69468,-3.73881 20.3844,-8.80042 39.83011,-19.80446 57.72181,-32.96128 18.72864,-13.74051 35.71711,-29.82277 50.61486,-47.63843 11.85871,-14.17161 22.42493,-29.41455 31.69214,-45.3978 13.32004,-22.9909 23.72042,-47.70073 30.51956,-73.39768 6.67377,-25.1085 9.90252,-51.09853 9.92826,-77.07011 0.0558,-24.95126 -2.82465,-49.93024 -8.88939,-74.14224 -6.57657,-26.38825 -16.94052,-51.79835 -30.39997,-75.41804 -7.45411,-13.08157 -15.78941,-25.6653 -24.96865,-37.60076 -15.01682,-19.52052 -32.39397,-37.25279 -51.82362,-52.4011 -17.29639,-13.52022 -36.17706,-24.98983 -56.06653,-34.2724 -3.75401,-1.7426 -7.52665,-3.45177 -11.35925,-5.01449 -5.04443,-1.89416 -10.44039,-2.90015 -15.83484,-2.77136 z m -59.0571,139.35564 c -6.84463,0.12734 -13.68655,2.10809 -19.40036,5.91146 -4.62831,3.03449 -8.65334,7.00731 -11.70226,11.62889 -3.23765,4.97776 -5.13687,10.78853 -5.59016,16.70276 -0.49487,6.14938 0.2327,12.51571 2.89772,18.13309 1.3463,2.88957 3.19206,5.52483 5.33502,7.87764 4.35146,4.96029 9.47121,9.21778 15.036,12.75269 4.73083,2.94407 9.41202,5.97032 13.98258,9.15883 2.82684,1.9828 5.65473,3.96906 8.3894,6.07772 3.11245,2.49283 5.88373,5.39457 8.34006,8.53154 0.19434,0.25895 0.45869,0.58922 0.66024,0.86255 3.00641,4.00836 5.55579,8.35466 7.67695,12.8914 0.40886,0.8929 0.80548,1.82918 1.14478,2.68742 0.18034,0.44719 0.32708,0.85131 0.50788,1.32408 0.18849,0.51177 0.4248,1.18446 0.61936,1.76224 2.08562,6.24089 3.18347,12.78199 3.57985,19.34086 0.26649,4.74243 0.24046,9.66232 -0.16569,14.4047 -0.15524,1.7814 -0.35482,3.48762 -0.61742,5.25677 -0.17802,1.15844 -0.3942,2.43106 -0.63471,3.62523 -0.66831,3.32833 -1.56929,6.67917 -2.76603,9.9005 -1.63282,4.4553 -3.87958,8.71158 -6.43758,12.74898 -3.79172,5.96766 -8.56071,11.38653 -14.37627,15.4524 -3.88646,2.84011 -7.8451,5.58077 -11.85834,8.23849 -2.03028,1.33452 -4.15447,2.71213 -6.2502,4.01769 -5.06431,3.06427 -9.82723,6.65505 -14.0031,10.8594 -2.34558,2.37996 -4.6195,4.87037 -6.4211,7.69605 -2.9418,4.6465 -4.46319,10.10262 -4.7249,15.57457 -0.39405,7.19137 1.0402,14.57724 4.69001,20.83439 3.23563,5.59019 7.95641,10.26103 13.39464,13.71351 5.45543,3.40647 11.83821,5.27132 18.26311,5.4285 4.17566,0.13275 8.40563,-0.23532 12.41757,-1.44445 1.5585,-0.4608 3.02963,-1.15444 4.51579,-1.79975 13.36857,-5.41851 25.92626,-12.87064 36.97217,-22.15796 12.3848,-10.36434 22.8036,-22.96802 31.19014,-36.7429 7.27103,-11.90195 13.0496,-24.73796 16.86613,-38.16124 5.19384,-18.13021 6.7703,-37.24008 5.02448,-56.00207 -1.31059,-14.06706 -4.6524,-27.93805 -9.85906,-41.07056 -4.88751,-12.30641 -11.34554,-23.97671 -19.03555,-34.75036 -9.37672,-13.1187 -20.91686,-24.74598 -34.25944,-33.83488 -8.6409,-5.91767 -18.00882,-10.74713 -27.77004,-14.52867 -4.83071,-2.36453 -10.31422,-2.98089 -15.63167,-2.90151 z"
     id="path955" />
</svg>
