<svg width="22" height="22" version="1.1" viewBox="0 0 22 22" xmlns="http://www.w3.org/2000/svg" xmlns:xlink="http://www.w3.org/1999/xlink">
<defs>
<linearGradient id="deepin-launcher-c" x1="50%" x2="50%" y1="4.64%" y2="97.178%">
<stop stop-color="#00ABFF" offset="0"/>
<stop stop-color="#0163FA" offset="1"/>
</linearGradient>
<path id="deepin-launcher-b" d="m1 11c0-5.5229 4.4771-10 10-10s10 4.4771 10 10-4.4771 10-10 10-10-4.4771-10-10z"/>
<filter id="deepin-launcher-a" x="-7.5%" y="-7.5%" width="115%" height="115%">
<feOffset in="SourceAlpha" result="shadowOffsetOuter1"/>
<feGaussianBlur in="shadowOffsetOuter1" result="shadowBlurOuter1" stdDeviation=".5"/>
<feColorMatrix in="shadowBlurOuter1" values="0 0 0 0 0   0 0 0 0 0   0 0 0 0 0  0 0 0 0.2 0"/>
</filter>
</defs>
<g fill-rule="evenodd">
<use filter="url(#deepin-launcher-a)" xlink:href="#deepin-launcher-b"/>
<use fill="url(#deepin-launcher-c)" xlink:href="#deepin-launcher-b"/>
<path d="m14.38 3.676c-1.0341-0.48312-2.1877-0.75297-3.4044-0.75297-0.41812 0-0.8288 0.03187-1.2297 0.093312-1.1308 1.705-1.7147 4.3426-1.6665 5.9779 0 0-0.079474 2.5071 1.6058 3.3963 0 0 1.5145 0.67717 2.5467-1.5125 0 0 0.70937-1.2357 0.42062-4.0285 0 0 0.27625 0.049602 0.30749 0.094172 0.031234 0.04421 0.61011 2.1501 0.20337 3.9236 0 0-0.37447 2.084-2.2156 2.5606-1.8404 0.47661-3.2748-0.67646-4.2486-1.7627-0.70404-0.78525-1.7393-2.8554-2.2843-5.3596-0.93929 1.3172-1.4918 2.9292-1.4918 4.6703 0 1.2995 0.30783 2.5271 0.85456 3.6139 1.8503 0.5403 6.4002 1.5438 9.305-0.58505 1.9417-1.4233 1.6915-3.7026 1.6915-3.7026-0.032146-1.7338-1.0877-3.456-1.0877-3.456 4.1045 3.7131 1.6786 7.8383 1.6786 7.8383-1.0608 2.1668-3.1736 3.6-5.1093 4.3121 0.2372 0.021017 0.47735 0.03175 0.72001 0.03175 4.4474 0 8.0526-3.6052 8.0526-8.0524 0-1.8946-0.65434-3.6365-1.7494-5.0119-0.36487 0.021404-0.77487 0.032056-1.1983 0.018161 0 0-2.1838 0.10198-3.4083 0.71275 0 0-0.91315 0.40718-1.8259 1.0975 0 0-0.19372 0.096843-0.18435 0.45267 0.0082435 0.35472-0.18585 1.3004-0.83259 1.8547 0 0-0.46163 0.23734-0.23082 0.57702 0 0 0.31175 0.45267 0.7509-0.022743 0 0 1.1324-1.165 1.2017-3.0425 0 0 0.35822-0.30593 0.92402-0.39617 0 0 0.10417 2.8165-1.2935 4.2306 0 0-1.3294 1.4479-1.7566-0.70138 0 0-0.52009-2.0476 2.1609-4.4793 0 0 1.7239-1.7216 2.794-2.5893zm-3.3801 16.324c-4.9706 0-9-4.0293-9-8.9998s4.0295-9.0002 9-9.0002 9 4.0296 9 9.0002c0 4.9705-4.0294 8.9998-9 8.9998z" fill="#F0F9FF" fill-rule="nonzero"/>
</g>
</svg>
