<svg width="22px" height="22px" version="1.1" viewBox="0 0 22 22" xmlns="http://www.w3.org/2000/svg">
<title>folder-remote</title>
<desc>Created with Sketch.</desc>
<defs>
<linearGradient id="linearGradient-1" x1="57.154%" x2="57.154%" y2="100%">
<stop stop-color="#6AC4FF" offset="0"/>
<stop stop-color="#6CCDFC" offset=".96265"/>
<stop stop-color="#6AC4FF" offset="1"/>
</linearGradient>
</defs>
<g fill="none" fill-rule="evenodd">
<g id="folder-remote">
<g id="Group" transform="translate(2 3)">
<polygon id="Combined-Shape" points="11 0 16 0 16 14.995 2 14.995 2 1 10 1" fill="#6AC4FF"/>
<polygon points="1 15 1 2 17 2 17 15" fill="#fff"/>
<polygon points="1.7167e-11 16 0 3 18 3 18 16" fill="url(#linearGradient-1)"/>
</g>
<g transform="translate(6 8)" stroke="#2CA7F8" stroke-linecap="round" stroke-linejoin="round">
<path id="Path" d="m5.3591 6.6409c-0.19214-0.19214-0.50868-0.18711-0.70702 0.011222-0.19834 0.19834-0.20336 0.51488-0.011222 0.70702s0.50868 0.18711 0.70702-0.011222c0.19834-0.19834 0.20336-0.51488 0.011222-0.70702z"/>
<path d="m9.74 2.0906c-1.293-0.99325-2.955-1.5906-4.768-1.5906-1.7962 0-3.4442 0.58632-4.732 1.5631"/>
<path d="m8.498 3.6521c-0.96244-0.7205-2.1885-1.1521-3.5237-1.1521-1.3134 0-2.5211 0.41764-3.4763 1.117"/>
<path d="m7.2613 5.2021c-0.62739-0.44061-1.4101-0.70215-2.259-0.70215-0.84078 0-1.6167 0.25659-2.241 0.68964"/>
</g>
</g>
</g>
</svg>
