<svg width="22" height="22" version="1.1" viewBox="0 0 22 22" xmlns="http://www.w3.org/2000/svg">
<title>folder-documents</title>
<defs>
<linearGradient id="a" x1="8.7429" x2="8.7429" y1="3.5301" y2="18.827" gradientTransform="matrix(1.1767 0 0 .84984 2 3)" gradientUnits="userSpaceOnUse">
<stop stop-color="#6AC4FF" offset="0"/>
<stop stop-color="#6CCDFC" offset=".963"/>
<stop stop-color="#6AC4FF" offset="1"/>
</linearGradient>
</defs>
<g fill-rule="evenodd">
<path d="m13 3h5v14.995h-14v-13.995h8z" fill="#6ac4ff"/>
<path d="m3 18v-13h16v13z" fill="#fff"/>
<path d="m2 19v-13h18v13z" fill="url(#a)"/>
</g>
<g transform="matrix(.52934 0 0 .52934 -1.7038 -2.5825)" fill="#2ca7f8">
<path id="Path" d="m17.73 35.779c1e-3 2.96e-4 4.1762 5.19e-4 12.525 6.7e-4 4.18e-4 -0.0032 0.0012-0.06107 0.0023-0.17366 6e-3 -0.04163 0.0064-0.07923 0.0069-0.13776 0.0018-0.2305 3e-3 -0.56511 0.0038-0.99641 0.0015-0.7822 0.0015-1.8698 3.62e-4 -3.2119-0.0016-1.8605-0.0051-3.874-0.01003-6.199l-4.2528-3.8467h-8.276zm-0.09384-0.02602c-9e-5 -1.79e-4 0.0023 8.4e-4 0.0048 0.0018zm12.621 0.04412c0.0014-0.0044 3e-3 -0.01008 0.0049-0.01738-0.0015-4e-5 -0.0031-6.1e-5 -0.0049-6.1e-5zm-0.0084 0.0564c3e-3 -0.0055 0.0084-0.03445 0.0084 0.0058l1.7e-5 -0.01797c-0.0033 0.0041-0.0061 0.0083-0.0084 0.01218zm-12.715-15.854c0.11756-0.01767 0.19593 0 0.19593 0h8.7705l5.011 4.5326c0.0063 2.8855 0.02357 11.276 0 11.328 0 0-9.9e-4 1.1337-1.254 1.1337h-12.528s-1.254-8.91e-4 -1.254-1.1337v-14.727c0-0.84962 0.70564-1.0806 1.058-1.1337z"/>
<polygon transform="matrix(1.254,0,0,1.2144,8.9571,13.921)" points="12.762 13.848 11.996 16 11.23 13.848 9.168 14.828 10.148 12.766 7.9961 12 10.148 11.234 9.168 9.1719 11.23 10.152 11.996 8 12.762 10.152 14.824 9.1719 13.844 11.234 15.996 12 13.844 12.766 14.824 14.828"/>
</g>
</svg>
