<svg width="22px" height="22px" version="1.1" viewBox="0 0 22 22" xmlns="http://www.w3.org/2000/svg">
<title>folder-remote</title>
<desc>Created with Sketch.</desc>
<defs>
<linearGradient id="linearGradient-1" x1="8.7429" x2="8.7429" y1="3.5301" y2="18.827" gradientTransform="scale(1.1767 .84984)" gradientUnits="userSpaceOnUse">
<stop stop-color="#6AC4FF" offset="0"/>
<stop stop-color="#6CCDFC" offset=".96265"/>
<stop stop-color="#6AC4FF" offset="1"/>
</linearGradient>
</defs>
<g fill-rule="evenodd">
<polygon id="Combined-Shape" transform="translate(2,3)" points="11 0 16 0 16 14.995 2 14.995 2 1 10 1" fill="#6ac4ff"/>
<polygon transform="translate(2,3)" points="17 2 17 15 1 15 1 2" fill="#fff"/>
<polygon transform="translate(2,3)" points="18 3 18 16 1.7167e-11 16 0 3" fill="url(#linearGradient-1)"/>
</g>
<g transform="matrix(.5 0 0 .5 -1 -2)" fill="#2ca7f8" stroke="#6bc9fd" stroke-linecap="round" stroke-linejoin="round" stroke-width=".5">
<circle cx="26.5" cy="27.5" r="3.25"/>
<circle cx="34" cy="34" r="1.75"/>
<circle cx="30" cy="32" r="3.75"/>
<circle cx="15.5" cy="32.5" r="3.25"/>
<circle cx="18.5" cy="26" r="1.75"/>
<circle cx="19" cy="30" r="3.75"/>
<circle cx="19" cy="34" r="1.75"/>
<circle cx="22.5" cy="25.5" r="3.25"/>
<circle cx="24" cy="31" r="4.75"/>
</g>
</svg>
