<svg width="22" height="22" version="1.1" viewBox="0 0 22 22" xmlns="http://www.w3.org/2000/svg">
<title>folder-documents</title>
<defs>
<linearGradient id="a" x1="8.7429" x2="8.7429" y1="3.5301" y2="18.827" gradientTransform="matrix(1.1767 0 0 .84984 2 3)" gradientUnits="userSpaceOnUse">
<stop stop-color="#6AC4FF" offset="0"/>
<stop stop-color="#6CCDFC" offset=".963"/>
<stop stop-color="#6AC4FF" offset="1"/>
</linearGradient>
</defs>
<g fill-rule="evenodd">
<path d="m13 3h5v14.995h-14v-13.995h8z" fill="#6ac4ff"/>
<path d="m3 18v-13h16v13z" fill="#fff"/>
<path d="m2 19v-13h18v13z" fill="url(#a)"/>
</g>
<path d="m9.134 8.5c-2.5762 0-4.6647 1.7909-4.6647 4 0 2.2091 2.0885 4 4.6647 4h8.3966v-0.79999h-8.3966c-2.061 0-3.7317-1.4327-3.7317-3.2 0-1.7673 1.6708-3.2 3.7317-3.2zm0 1.2c-1.8033 0-3.2653 1.2536-3.2653 2.8 0 1.5463 1.4619 2.8 3.2653 2.8h8.3966v-0.79999h-8.3966c-1.2881 0-2.3324-0.89541-2.3324-2 0-1.1046 1.0442-2 2.3324-2 0.32115 3.15e-4 0.63876 0.0575 0.93292 0.16797v-0.84845c-0.3026-0.078355-0.61685-0.11862-0.93292-0.11953zm0 1.2c-1.0305 0-1.8659 0.71636-1.8659 1.6 0 0.88361 0.83539 1.6 1.8659 1.6h8.3966v-0.79999h-8.3966c-0.51525 0-0.93292-0.35817-0.93292-0.79999 0-0.44182 0.41769-0.79999 0.93292-0.79999 0.33272 5.2e-4 0.63997 0.15292 0.80631 0.4h0.99764c-0.21246-0.70559-0.95411-1.199-1.8039-1.2z" fill="#2ca7f8" stroke-width=".43196"/>
</svg>
