<svg width="22" height="22" version="1.1" viewBox="0 0 22 22" xmlns="http://www.w3.org/2000/svg">
<title>folder-documents</title>
<defs>
<linearGradient id="a" x1="8.7429" x2="8.7429" y1="3.5301" y2="18.827" gradientTransform="matrix(1.1767 0 0 .84984 2 3)" gradientUnits="userSpaceOnUse">
<stop stop-color="#6AC4FF" offset="0"/>
<stop stop-color="#6CCDFC" offset=".963"/>
<stop stop-color="#6AC4FF" offset="1"/>
</linearGradient>
</defs>
<g fill-rule="evenodd">
<path d="m13 3h5v14.995h-14v-13.995h8z" fill="#6ac4ff"/>
<path d="m3 18v-13h16v13z" fill="#fff"/>
<path d="m2 19v-13h18v13z" fill="url(#a)"/>
</g>
<g id="tools-media-optical-format" transform="matrix(.6 0 0 .6 3.8 5.3)" fill="none" stroke="#2ca7f8">
<g id="tools-media-optical-erase" transform="translate(5,5)" fill="none" stroke="#2ca7f8">
<path d="m7 1c-3.29 0-6 2.71-6 6s2.71 6 6 6 6-2.71 6-6-2.71-6-6-6zm0-1c3.8423 0 7 3.1577 7 7s-3.1577 7-7 7-7-3.1577-7-7 3.1577-7 7-7z"/>
<path d="m7 6c-0.54636 0-1 0.45364-1 1s0.45364 1 1 1c0.54637 0 1-0.45363 1-1 0-0.54634-0.45366-1-1-1zm0-1c1.0986 0 2 0.90135 2 2s-0.90135 2-2 2-2-0.90136-2-2 0.90135-2 2-2z"/>
</g>
</g>
</svg>
