<svg width="22px" height="22px" version="1.1" viewBox="0 0 22 22" xmlns="http://www.w3.org/2000/svg">
<title>folder-remote</title>
<desc>Created with Sketch.</desc>
<defs>
<linearGradient id="linearGradient-1" x1="8.7429" x2="8.7429" y1="3.5301" y2="18.827" gradientTransform="scale(1.1767 .84984)" gradientUnits="userSpaceOnUse">
<stop stop-color="#6AC4FF" offset="0"/>
<stop stop-color="#6CCDFC" offset=".96265"/>
<stop stop-color="#6AC4FF" offset="1"/>
</linearGradient>
</defs>
<g fill-rule="evenodd">
<polygon id="Combined-Shape" transform="translate(2,3)" points="16 14.995 2 14.995 2 1 10 1 11 0 16 0" fill="#6ac4ff"/>
<polygon transform="translate(2,3)" points="1 15 1 2 17 2 17 15" fill="#fff"/>
<polygon transform="translate(2,3)" points="1.7167e-11 16 0 3 18 3 18 16" fill="url(#linearGradient-1)"/>
</g>
<g transform="translate(-.47113 .47125)" stroke-linejoin="round">
<path d="m15.47 16.028h-7.9987v-7.9987h7.9987z" fill="none" stroke="#2ca7f8"/>
<g transform="matrix(.49992 0 0 .49992 -.60284 -2.547)" fill="#2ca7f8" stroke-width="2.0003">
<path d="m24 29h4v1h-4z"/>
<rect x="20" y="23" width="1" height="7"/>
<path d="m19.5 24c-0.83 0-1.5 0.67-1.5 1.5s0.67 1.5 1.5 1.5h2c0.28 0 0.5 0.22 0.5 0.5s-0.22 0.51-0.5 0.5h-3.41c0.21 0.58 0.76 1 1.41 1h2c0.83 0 1.5-0.67 1.5-1.5s-0.67-1.5-1.5-1.5h-2c-0.28 0-0.5-0.22-0.5-0.5s0.22-0.5 0.5-0.5h3.41c-0.21-0.58-0.76-1-1.41-1h-0.5z"/>
</g>
</g>
</svg>
