<svg width="22" height="22" version="1.1" viewBox="0 0 22 22" xmlns="http://www.w3.org/2000/svg">
<title>folder-documents</title>
<defs>
<linearGradient id="a" x1="8.7429" x2="8.7429" y1="3.5301" y2="18.827" gradientTransform="matrix(1.1767 0 0 .84984 2 3)" gradientUnits="userSpaceOnUse">
<stop stop-color="#6AC4FF" offset="0"/>
<stop stop-color="#6CCDFC" offset=".963"/>
<stop stop-color="#6AC4FF" offset="1"/>
</linearGradient>
</defs>
<g fill-rule="evenodd">
<path d="m13 3h5v14.995h-14v-13.995h8z" fill="#6ac4ff"/>
<path d="m3 18v-13h16v13z" fill="#fff"/>
<path d="m2 19v-13h18v13z" fill="url(#a)"/>
</g>
<path d="m9.4544 10.389c-0.22312-0.09123-0.4625-0.13813-0.70436-0.13938-0.9375 0-1.7312 0.69566-1.8563 1.625-0.9075 0.31188-1.5181 1.165-1.5188 2.125 0 1.2432 1.0068 2.25 2.25 2.25h6.75c1.2431 0 2.25-1.0068 2.25-2.25-6.42e-4 -0.95498-0.60502-1.8057-1.5062-2.1212 0.0037-0.04312 0.0038-0.08504 6e-3 -0.12812 0-1.6569-1.3431-3.0006-3-3.0006-1.1281 0-2.1587 0.63439-2.6706 1.6394zm2.67-0.38938h0.0015c0.98065 0 1.7488 0.76875 1.7493 1.7493-6.34e-4 0.0144-3e-3 0.0363-3e-3 0.04245-0.03937 0.56188 0.30188 1.0813 0.83377 1.2675 0.40438 0.14125 0.66814 0.5125 0.66877 0.94062 0 0.5675-0.4325 0.99998-0.99998 0.99998h-6.7499c-0.56688 0-0.99935-0.43188-0.99998-0.99877v-0.0015c6.32e-4 -0.43 0.2675-0.80314 0.675-0.94316 0.4475-0.15375 0.76938-0.54688 0.8325-1.0156 0.04312-0.31813 0.2975-0.54062 0.61627-0.54125 0.08063 6.35e-4 0.15938 0.01689 0.2325 0.04687 0.60184 0.24625 1.2918-0.01065 1.5869-0.59002 0.29938-0.58875 0.89752-0.95689 1.5563-0.95689z" fill="#2ca7f8" stroke-width=".62498"/>
</svg>
