<svg width="22" height="22" version="1.1" viewBox="0 0 22 22" xmlns="http://www.w3.org/2000/svg">
<title>folder-documents</title>
<defs>
<linearGradient id="a" x1="8.7429" x2="8.7429" y1="3.5301" y2="18.827" gradientTransform="matrix(1.1767 0 0 .84984 2 3)" gradientUnits="userSpaceOnUse">
<stop stop-color="#6AC4FF" offset="0"/>
<stop stop-color="#6CCDFC" offset=".963"/>
<stop stop-color="#6AC4FF" offset="1"/>
</linearGradient>
</defs>
<g fill-rule="evenodd">
<path d="m13 3h5v14.995h-14v-13.995h8z" fill="#6ac4ff"/>
<path d="m3 18v-13h16v13z" fill="#fff"/>
<path d="m2 19v-13h18v13z" fill="url(#a)"/>
</g>
<path d="m11 8c-2.4851 0-4.5 2.0149-4.5 4.5s2.0149 4.5 4.5 4.5h2.8125s0.52706 0 0.5625-0.5625c0-0.5625-0.5625-0.5625-0.5625-0.5625h-2.8125c-1.8641 0-3.375-1.5109-3.375-3.375s1.5109-3.375 3.375-3.375c1.8641 0 3.375 1.5109 3.375 3.375v0.5625c0 0.3105-0.252 0.5625-0.5625 0.5625s-0.5625-0.252-0.5625-0.5625v-0.5625c0-1.2426-1.0074-2.25-2.25-2.25-1.2426 0-2.25 1.0074-2.25 2.25 0 1.2426 1.0074 2.25 2.25 2.25 0.58838 0 1.1194-0.23119 1.5204-0.60075 0.32062 0.38081 0.79369 0.60075 1.2921 0.60075 0.93206 0 1.6875-0.756 1.6875-1.6875v-0.5625c0-2.4851-2.0149-4.5-4.5-4.5zm0 3.375c0.62156 0 1.125 0.50344 1.125 1.125 0 0.62156-0.50344 1.125-1.125 1.125-0.62156 0-1.125-0.50344-1.125-1.125 0-0.62156 0.50344-1.125 1.125-1.125z" fill="#2ca7f8" stroke-width=".5625"/>
</svg>
