<svg width="22" height="22" version="1.1" viewBox="0 0 22 22" xmlns="http://www.w3.org/2000/svg">
<title>folder-documents</title>
<defs>
<linearGradient id="a" x1="8.7429" x2="8.7429" y1="3.5301" y2="18.827" gradientTransform="matrix(1.1767 0 0 .84984 2 3)" gradientUnits="userSpaceOnUse">
<stop stop-color="#6AC4FF" offset="0"/>
<stop stop-color="#6CCDFC" offset=".963"/>
<stop stop-color="#6AC4FF" offset="1"/>
</linearGradient>
</defs>
<g fill-rule="evenodd">
<path d="m13 3h5v14.995h-14v-13.995h8z" fill="#6ac4ff"/>
<path d="m3 18v-13h16v13z" fill="#fff"/>
<path d="m2 19v-13h18v13z" fill="url(#a)"/>
</g>
<path d="m11 8c2.4853 0 4.5 2.0147 4.5 4.5s-2.0147 4.5-4.5 4.5-4.5-2.0147-4.5-4.5 2.0147-4.5 4.5-4.5zm2.5714 1.9286h-1.2857l-1.2857 1.9286-1.2857-1.9286h-1.2857v5.1429h1.2857v-2.5714l1.2857 1.2857 1.2857-1.2857v2.5714h1.2857z" fill="#2ca7f8" stroke-width=".64288"/>
</svg>
