<svg width="22" height="22" version="1.1" viewBox="0 0 22 22" xmlns="http://www.w3.org/2000/svg">
<defs>
<linearGradient id="folder-video-stack-a" x1="50%" x2="50%" y2="97.197%">
<stop stop-color="#414141" offset="0"/>
<stop stop-color="#2B2B2B" offset="1"/>
</linearGradient>
<linearGradient id="folder-video-stack-b" x1="32.824%" x2="50%" y2="100%">
<stop stop-color="#FFE00B" offset="0"/>
<stop stop-color="#D38700" offset="1"/>
</linearGradient>
</defs>
<g transform="translate(2 3)" fill-rule="evenodd">
<polygon points="11 0 16 0 16 14.995 2 14.995 2 1 10 1" fill="#161616"/>
<polygon points="1 15 1 2 17 2 17 15" fill="#262626"/>
<polygon points="0 16 0 3 18 3 18 16" fill="url(#folder-video-stack-a)"/>
<polygon points="12 9.5 8 12 8 7" fill="url(#folder-video-stack-b)"/>
<path d="m1 4h2v2h-2v-2zm0 4h2v2h-2v-2zm0 5h2v2h-2v-2zm14-9h2v2h-2v-2zm0 4h2v2h-2v-2zm0 5h2v2h-2v-2z" fill="#1B1B1B"/>
</g>
</svg>
