<svg width="22" height="22" version="1.1" viewBox="0 0 22 22" xmlns="http://www.w3.org/2000/svg">
<title>folder-documents</title>
<defs>
<linearGradient id="a" x1="8.7429" x2="8.7429" y1="3.5301" y2="18.827" gradientTransform="matrix(1.1767 0 0 .84984 2 3)" gradientUnits="userSpaceOnUse">
<stop stop-color="#6AC4FF" offset="0"/>
<stop stop-color="#6CCDFC" offset=".963"/>
<stop stop-color="#6AC4FF" offset="1"/>
</linearGradient>
</defs>
<g fill-rule="evenodd">
<path d="m13 3h5v14.995h-14v-13.995h8z" fill="#6ac4ff"/>
<path d="m3 18v-13h16v13z" fill="#fff"/>
<path d="m2 19v-13h18v13z" fill="url(#a)"/>
</g>
<path id="Shape" d="m16.788 13.737c0-1.0512-0.71686-1.9373-1.6979-2.2187-0.28176-1.0823-1.2814-1.8842-2.475-1.8842-0.34726 0-0.67766 0.0684-0.9797 0.19099-0.51773-0.53878-1.2509-0.87687-2.0662-0.87687-1.5532 0-2.8133 1.2214-2.8372 2.7362-0.8855 0.31279-1.5195 1.1402-1.5195 2.1146 0 1.2357 1.0178 2.2377 2.2774 2.249v3e-3h7.0064v-0.0042c1.2717-0.03762 2.2914-1.056 2.2914-2.3097z" fill="none" stroke="#2ca7f8" stroke-width=".997"/>
</svg>
