<svg width="22px" height="22px" version="1.1" viewBox="0 0 22 22" xmlns="http://www.w3.org/2000/svg">
<title>folder-music</title>
<desc>Created with Sketch.</desc>
<defs>
<linearGradient id="linearGradient-1" x1="8.7429" x2="8.7429" y1="3.5301" y2="18.827" gradientTransform="scale(1.1767 .84984)" gradientUnits="userSpaceOnUse">
<stop stop-color="#6AC4FF" offset="0"/>
<stop stop-color="#6CCDFC" offset=".96265"/>
<stop stop-color="#6AC4FF" offset="1"/>
</linearGradient>
</defs>
<g fill-rule="evenodd">
<polygon id="Combined-Shape" transform="translate(2,3)" points="11 0 16 0 16 14.995 2 14.995 2 1 10 1" fill="#6ac4ff"/>
<polygon transform="translate(2,3)" points="17 2 17 15 1 15 1 2" fill="#fff"/>
<polygon transform="translate(2,3)" points="18 3 18 16 1.7167e-11 16 0 3" fill="url(#linearGradient-1)"/>
</g>
<g transform="matrix(.75 0 0 .75 5.75 8)" fill="#2ca7f8">
<polygon points="3 0 3 1 11 1 11 0"/>
<path d="m1 5.5v-0.5h12v1.5-3.5h-12zm0-3.5h12c0.5 0 1 0.5 1 1v4c0 0.5-0.5 1-1 1h-1v-2h-10v2h-1c-0.5 0-1-0.5-1-1v-4c0-0.5 0.5-1 1-1z"/>
<path d="m3 7h8v5h-8zm1 1v3h6v-3z"/>
</g>
</svg>
