<svg width="22px" height="22px" version="1.1" viewBox="0 0 22 22" xmlns="http://www.w3.org/2000/svg">
<title>folder-music</title>
<desc>Created with Sketch.</desc>
<defs>
<linearGradient id="linearGradient-1" x1="57.154%" x2="57.154%" y2="100%">
<stop stop-color="#6AC4FF" offset="0"/>
<stop stop-color="#6CCDFC" offset=".96265"/>
<stop stop-color="#6AC4FF" offset="1"/>
</linearGradient>
</defs>
<g fill="none" fill-rule="evenodd">
<g id="folder-music">
<g id="Group" transform="translate(2 3)">
<polygon id="Combined-Shape" points="11 0 16 0 16 14.995 2 14.995 2 1 10 1" fill="#6AC4FF"/>
<polygon points="1 15 1 2 17 2 17 15" fill="#fff"/>
<polygon points="1.7167e-11 16 0 3 18 3 18 16" fill="url(#linearGradient-1)"/>
</g>
<g id="音乐" transform="translate(5 8)" stroke="#2CA7F8">
<path id="Line" d="m9.5 6.5v-4" stroke-linecap="round" stroke-linejoin="round"/>
<path d="m3.5 6.5v-5" stroke-linecap="round" stroke-linejoin="round"/>
<path id="Oval" d="m2.2819 7.92c0.81351-0.24241 1.3468-0.96276 1.1911-1.609s-0.9414-0.97353-1.7549-0.73113c-0.81351 0.24241-1.3468 0.96276-1.1911 1.609s0.9414 0.97353 1.7549 0.73113z"/>
<path d="m8.2819 7.92c0.81351-0.24241 1.3468-0.96276 1.1911-1.609s-0.9414-0.97353-1.7549-0.73113c-0.81351 0.24241-1.3468 0.96276-1.1911 1.609s0.9414 0.97353 1.7549 0.73113z"/>
<rect transform="translate(6.5 1.5) scale(-1 1) translate(-6.5 -1.5)" x="3.5" y=".5" width="6" height="2" stroke-linecap="round" stroke-linejoin="round"/>
</g>
</g>
</g>
</svg>
