<svg width="22" height="22" version="1.1" viewBox="0 0 22 22" xmlns="http://www.w3.org/2000/svg">
<title>folder-documents</title>
<defs>
<linearGradient id="a" x1="8.7429" x2="8.7429" y1="3.5301" y2="18.827" gradientTransform="matrix(1.1767 0 0 .84984 2 3)" gradientUnits="userSpaceOnUse">
<stop stop-color="#6AC4FF" offset="0"/>
<stop stop-color="#6CCDFC" offset=".963"/>
<stop stop-color="#6AC4FF" offset="1"/>
</linearGradient>
</defs>
<g fill-rule="evenodd">
<path d="m13 3h5v14.995h-14v-13.995h8z" fill="#6ac4ff"/>
<path d="m3 18v-13h16v13z" fill="#fff"/>
<path d="m2 19v-13h18v13z" fill="url(#a)"/>
<g id="object-locked" transform="matrix(.61364 0 0 .61364 3.6364 5.1364)" fill="#2ca7f8" stroke="#2ca7f8" stroke-width=".66667">
<g transform="translate(6,5)" fill="#2ca7f8" fill-rule="nonzero" stroke="#2ca7f8" stroke-width=".66667">
<path d="m6 1c-1.6565 0-3 1.3667-3 3.0625v2.9375h-2v6h10v-6h-2v-2.9375c0-1.6952-1.3438-3.0625-3-3.0625zm0-1c2.216 0 4 1.8225 4 4.0625v1.9375h1c0.554 0 1 0.446 1 1v6c0 0.554-0.446 1-1 1h-10c-0.554 0-1-0.446-1-1v-6c0-0.554 0.446-1 1-1h1v-1.9375c0-2.2409 1.784-4.0625 4-4.0625z"/>
<rect id="Rectangle" x="2" y="6" width="8" height="1"/>
</g>
</g>
</g>
</svg>
