<svg width="22" height="22" version="1.1" viewBox="0 0 22 22" xmlns="http://www.w3.org/2000/svg">
<title>folder-documents</title>
<defs>
<linearGradient id="a" x1="8.7429" x2="8.7429" y1="3.5301" y2="18.827" gradientTransform="matrix(1.1767 0 0 .84984 2 3)" gradientUnits="userSpaceOnUse">
<stop stop-color="#6AC4FF" offset="0"/>
<stop stop-color="#6CCDFC" offset=".963"/>
<stop stop-color="#6AC4FF" offset="1"/>
</linearGradient>
</defs>
<g fill-rule="evenodd">
<path d="m13 3h5v14.995h-14v-13.995h8z" fill="#6ac4ff"/>
<path d="m3 18v-13h16v13z" fill="#fff"/>
<path d="m2 19v-13h18v13z" fill="url(#a)"/>
</g>
<g transform="matrix(.6 0 0 .6 6.2 7.7)" fill="none" stroke="#2ca7f8">
<g id="folder-recent-symbolic" fill="none" stroke="#2ca7f8">
<path d="m8 15c-3.866 0-7-3.134-7-7s3.134-7 7-7 7 3.134 7 7-3.134 7-7 7zm0-1c3.3137 0 6-2.6863 6-6s-2.6863-6-6-6-6 2.6863-6 6 2.6863 6 6 6zm0-10v4h4c0.27614 0 0.5 0.22386 0.5 0.5s-0.22386 0.5-0.5 0.5h-4.5c-0.27614 0-0.5-0.22386-0.5-0.5v-4.5c0-0.27614 0.22386-0.5 0.5-0.5s0.5 0.22386 0.5 0.5z" fill="none" stroke="#2ca7f8"/>
</g>
</g>
</svg>
