<svg width="22px" height="22px" version="1.1" viewBox="0 0 22 22" xmlns="http://www.w3.org/2000/svg">
<title>folder-open</title>
<desc>Created with Sketch.</desc>
<defs>
<linearGradient id="linearGradient-1" x1="9.2189" x2="9.2189" y1="10.787" y2="25.62" gradientTransform="scale(1.3484 .74162)" gradientUnits="userSpaceOnUse">
<stop stop-color="#6AC4FF" offset="0"/>
<stop stop-color="#6CCDFC" offset=".96265"/>
<stop stop-color="#6AC4FF" offset="1"/>
</linearGradient>
</defs>
<g fill-rule="evenodd">
<polygon id="Combined-Shape" points="18 17.995 4 17.995 4 4 12 4 13 3 18 3" fill="#6ac4ff"/>
<polygon points="3 18 3 6 19 6 19 18" fill="#fff"/>
<polygon points="3 19 1 8 21 8 19 19" fill="url(#linearGradient-1)"/>
</g>
<g transform="rotate(-90 12.757 11.743)">
<path d="m15.5 7.1157c-3.7e-5 -0.31705-0.30027-0.54409-0.66351-0.50784l-4.0146 0.40092v-1.985c1.06e-4 -0.21086-0.13488-0.37448-0.33435-0.40764-0.1968-0.032714-0.41269 0.069045-0.5396 0.25205 0 0-3.3668 4.852-3.3668 4.852-0.1083 0.15598-0.1083 0.37609 0 0.53207 0 0 3.3668 4.852 3.3668 4.852 0.12691 0.183 0.3428 0.28476 0.5396 0.25205 0.19947-0.03316 0.33445-0.19678 0.33435-0.40764v-1.985l4.0146 0.40092c0.36324 0.03624 0.66347-0.19079 0.66351-0.50784v-5.7411m-1.302 0.66079v4.4195l-3.8732-0.25787c-0.26745-0.01778-0.4807 0.1829-0.48073 0.44796v1.0312s-2.4723-3.431-2.4723-3.431 2.4723-3.431 2.4723-3.431v1.0312c2.61e-5 0.26507 0.21328 0.46574 0.48073 0.44796l3.8732-0.25787" color="#000000" color-rendering="auto" dominant-baseline="auto" fill="#2ca7f8" fill-rule="evenodd" image-rendering="auto" shape-rendering="auto" solid-color="#000000" style="font-feature-settings:normal;font-variant-alternates:normal;font-variant-caps:normal;font-variant-ligatures:normal;font-variant-numeric:normal;font-variant-position:normal;isolation:auto;mix-blend-mode:normal;shape-padding:0;text-decoration-color:#000000;text-decoration-line:none;text-decoration-style:solid;text-indent:0;text-orientation:mixed;text-transform:none;white-space:normal"/>
</g>
</svg>
