<svg width="22px" height="22px" version="1.1" viewBox="0 0 22 22" xmlns="http://www.w3.org/2000/svg">
<title>folder-remote</title>
<desc>Created with Sketch.</desc>
<defs>
<linearGradient id="linearGradient-1" x1="8.7429" x2="8.7429" y1="3.5301" y2="18.827" gradientTransform="scale(1.1767 .84984)" gradientUnits="userSpaceOnUse">
<stop stop-color="#6AC4FF" offset="0"/>
<stop stop-color="#6CCDFC" offset=".96265"/>
<stop stop-color="#6AC4FF" offset="1"/>
</linearGradient>
</defs>
<g fill-rule="evenodd">
<polygon id="Combined-Shape" transform="translate(2,3)" points="11 0 16 0 16 14.995 2 14.995 2 1 10 1" fill="#6ac4ff"/>
<polygon transform="translate(2,3)" points="17 2 17 15 1 15 1 2" fill="#fff"/>
<polygon transform="translate(2,3)" points="18 3 18 16 1.7167e-11 16 0 3" fill="url(#linearGradient-1)"/>
</g>
<path d="m11.3 8.3a3.9 3.9 0 0 0-3.6059 2.4187 3 3 0 0 0-2.6941 2.9813 3 3 0 0 0 3 3h7.05c1.0769 0 1.95-0.87306 1.95-1.95 0-0.7362-0.41266-1.3697-1.0148-1.7015a1.8 1.8 0 0 0 0.41485-1.1485 1.8 1.8 0 0 0-1.8-1.8 1.8 1.8 0 0 0-0.01406 0 3.9 3.9 0 0 0-3.286-1.8zm0 1.2a2.7 2.7 0 0 1 2.7 2.7 2.7 2.7 0 0 1-2.7 2.7 2.7 2.7 0 0 1-2.7-2.7 2.7 2.7 0 0 1 2.7-2.7zm0 0.6a2.1 2.1 0 0 0-2.1 2.1 2.1 2.1 0 0 0 2.1 2.1 2.1 2.1 0 0 0 2.1-2.1 2.1 2.1 0 0 0-2.1-2.1zm-0.9 0.6h1.5a0.9 0.9 0 0 1 0.9 0.9 0.9 0.9 0 0 1-0.9 0.9h-0.9v1.2h-0.6v-1.2zm0.6 0.6v0.6h0.9a0.3 0.3 0 0 0 0.3-0.3 0.3 0.3 0 0 0-0.3-0.3z" fill="#2ca7f8" stroke-width=".6"/>
</svg>
