<svg width="22" height="22" version="1.1" viewBox="0 0 22 22" xmlns="http://www.w3.org/2000/svg">
<title>folder-documents</title>
<defs>
<linearGradient id="a" x1="8.7429" x2="8.7429" y1="3.5301" y2="18.827" gradientTransform="matrix(1.1767 0 0 .84984 2 3)" gradientUnits="userSpaceOnUse">
<stop stop-color="#6AC4FF" offset="0"/>
<stop stop-color="#6CCDFC" offset=".963"/>
<stop stop-color="#6AC4FF" offset="1"/>
</linearGradient>
</defs>
<g fill-rule="evenodd">
<path d="m13 3h5v14.995h-14v-13.995h8z" fill="#6ac4ff"/>
<path d="m3 18v-13h16v13z" fill="#fff"/>
<path d="m2 19v-13h18v13z" fill="url(#a)"/>
</g>
<path d="m11.361 14.477c-0.7201 0.33497-1.0692 0.33112-1.5186 0.29896-0.53685-0.03858-0.96827-0.18581-1.1579-0.3144-0.11702-0.07908-0.27582-0.04822-0.3549 0.06879-0.07908 0.11702-0.04886 0.27582 0.06815 0.3549 0.3054 0.20638 0.84419 0.36005 1.408 0.40055 0.09516 0.0071-0.12087 0.01093-0.0084 0.01093 0.49056 0 1.1129-0.04629 1.779-0.35619 0.12794-0.05979 0.18388-0.21152 0.12409-0.33948-0.05979-0.12859-0.21152-0.18388-0.33948-0.12409zm2.8411-0.37869c0.02444-2.2213 0.25332-6.418-3.9984-6.0789-4.1978 0.33819-2.7634 4.7725-2.8264 6.2577-0.05529 0.78501-0.50857 1.7456-0.87698 2.7229h1.327c0.11702-0.41405 0.20252-0.8236 0.23981-1.2139 0.06815 0.04758 0.14144 0.09323 0.21924 0.13759 0.1273 0.07522 0.2366 0.17488 0.35233 0.27968 0.27004 0.24625 0.57605 0.52528 1.1747 0.56065 0.0405 0.0019-0.24046 0.0033-0.2006 0.0033 0.60564 0 1.0197-0.26489 1.3521-0.4777 0.15945-0.10223 0.29768-0.19031 0.42691-0.23274 0.3684-0.11508 0.69052-0.30154 0.93098-0.53814 0.03729-0.03729 0.07265-0.07522 0.1048-0.1138 0.13437 0.49121 0.31761 1.0435 0.52142 1.5951h2.5512c-0.58184-0.89819-1.3103-1.7784-1.2981-2.9016zm-6.4186-1.2087c-0.04179-0.7246 0.30539-1.3347 0.77472-1.3617 0.46934-0.02765 0.88339 0.53814 0.92519 1.2627l6.75e-4 6.75e-4c0.0019 0.03858 0.0026 0.0778 0.0026 0.11573-0.14852 0.03729-0.28289 0.09194-0.40312 0.15495 0-0.0052-6.75e-4 -0.01029-0.0012-0.01608-0.03986-0.41148-0.25975-0.72202-0.49056-0.69372-0.23081 0.02765-0.38576 0.38383-0.34526 0.79598 0.01736 0.17938 0.06879 0.33948 0.1408 0.46099-0.018 0.01415-0.06879 0.05079-0.12666 0.09323-0.04372 0.03215-0.09709 0.07136-0.16074 0.1183-0.17488-0.22953-0.29511-0.55871-0.31633-0.93098zm4.435 1.7919c-0.01672 0.38255-0.51757 0.74322-0.98048 0.88789l-0.0026 6.75e-4c-0.19224 0.06236-0.3639 0.17231-0.54585 0.28868-0.30539 0.19546-0.6211 0.39734-1.0769 0.39734-0.02958 0 0.26039-6.75e-4 0.23081-0.0026-0.41791-0.02443-0.61334-0.20252-0.86028-0.4282-0.13052-0.1183-0.26554-0.2411-0.43977-0.34333l-0.0033-0.0026c-0.37547-0.21152-0.60884-0.47513-0.62364-0.70469-0.0071-0.1138 0.04372-0.21281 0.15109-0.29318 0.23403-0.17552 0.39091-0.29061 0.49442-0.36647 0.11573-0.08423 0.15045-0.10994 0.17617-0.13437 0.018-0.01736 0.03858-0.03665 0.05979-0.05722 0.21474-0.20896 0.25332-0.55872 0.80498-0.55872 0.33754 0 0.7111 0.12987 1.1091 0.38576 0.18774 0.12216 0.3504 0.1781 0.55679 0.24946 0.14209 0.0495 0.30347 0.1048 0.51885 0.19674l0.0033 0.0019c0.20124 0.0823 0.43848 0.23339 0.42756 0.48285zm-0.11059-0.9001c-0.03858-0.01929-0.07908-0.03793-0.12087-0.05529-0.19417-0.08294-0.3504-0.13952-0.47963-0.18453 0.07137-0.13952 0.11573-0.31375 0.12023-0.50278v-6.75e-4c0.0096-0.46034-0.22246-0.83389-0.51885-0.83451-0.29639-6.75e-4 -0.54457 0.37162-0.55421 0.83198v0.045675c-0.1826-0.08423-0.36198-0.1453-0.53814-0.1826-6.75e-4 -0.01736-0.0012-0.03472-0.0019-0.05208v-6.75e-4c-0.01672-0.83839 0.49764-1.5328 1.1496-1.5501 0.65131-0.018 1.1933 0.64743 1.2107 1.4865 0.0077 0.37933-0.09387 0.72843-0.26682 0.99915z" fill="#2ca7f8" stroke-width=".64293"/>
</svg>
