<svg width="22px" height="22px" version="1.1" viewBox="0 0 22 22" xmlns="http://www.w3.org/2000/svg">
<title>folder-open</title>
<desc>Created with Sketch.</desc>
<defs>
<linearGradient id="linearGradient-1" x1="9.2189" x2="9.2189" y1="10.787" y2="25.62" gradientTransform="scale(1.3484 .74162)" gradientUnits="userSpaceOnUse">
<stop stop-color="#6AC4FF" offset="0"/>
<stop stop-color="#6CCDFC" offset=".96265"/>
<stop stop-color="#6AC4FF" offset="1"/>
</linearGradient>
</defs>
<g fill-rule="evenodd">
<polygon id="Combined-Shape" points="18 17.995 4 17.995 4 4 12 4 13 3 18 3" fill="#6ac4ff"/>
<polygon points="3 18 3 6 19 6 19 18" fill="#fff"/>
<polygon points="3 19 1 8 21 8 19 19" fill="url(#linearGradient-1)"/>
</g>
<g transform="translate(16.807 1.2686)">
<g id="videos_normal_16px" transform="translate(-9,20.5)" fill="none" fill-rule="evenodd" stroke="#2ca7f8" stroke-linecap="round" stroke-linejoin="round">
<path d="m3.2003-9.9852s0.01381 4.3615 0.01381 4.3615"/>
<path d="m6.4332-9.336h-6.4617"/>
<path d="m5.9895-6.0794h-5.5537"/>
<path d="m4.7646-5.6236s-0.065161 0.85177-0.065161 0.85177"/>
<path d="m3.2141-5.6236s0.0027 0.85177 0.0027 0.85177"/>
<path d="m1.6637-5.6236s0.070555 0.85177 0.070555 0.85177"/>
<path d="m1.1853-11.399 0.11712 1.414"/>
<path d="m3.1958-11.399 0.00448 1.414"/>
<path d="m5.2064-11.399-0.10817 1.414"/>
<path d="m6.1198-4.3733 1.2177-7.7976h-8.2882l1.2671 7.7976h5.8034"/>
</g>
</g>
</svg>
