<svg width="22" height="22" version="1.1" viewBox="0 0 22 22" xmlns="http://www.w3.org/2000/svg">
<title>folder-documents</title>
<defs>
<linearGradient id="a" x1="8.7429" x2="8.7429" y1="3.5301" y2="18.827" gradientTransform="matrix(1.1767 0 0 .84984 2 3)" gradientUnits="userSpaceOnUse">
<stop stop-color="#6AC4FF" offset="0"/>
<stop stop-color="#6CCDFC" offset=".963"/>
<stop stop-color="#6AC4FF" offset="1"/>
</linearGradient>
</defs>
<g fill-rule="evenodd">
<path d="m13 3h5v14.995h-14v-13.995h8z" fill="#6ac4ff"/>
<path d="m3 18v-13h16v13z" fill="#fff"/>
<path d="m2 19v-13h18v13z" fill="url(#a)"/>
</g>
<path d="m8.1236 8-0.4242 0.4248 0.8448 0.8454a1.5003 1.5016 0 0 0-0.246 0.8226 1.5003 1.5016 0 0 0 1.2006 1.4712v2.466a1.5003 1.5016 0 0 0-1.2 1.4682 1.5003 1.5016 0 0 0 1.5006 1.5018 1.5003 1.5016 0 0 0 1.5-1.5018 1.5003 1.5016 0 0 0-1.2-1.4706v-2.466a1.5003 1.5016 0 0 0 0.5214-0.2124l0.9246 0.9258a1.5003 1.5016 0 0 0-0.246 0.8208 1.5003 1.5016 0 0 0 1.5006 1.5018 1.5003 1.5016 0 0 0 1.5006-1.5024 1.5003 1.5016 0 0 0-1.5-1.5018 1.5003 1.5016 0 0 0-0.8328 0.2538l-0.9204-0.9222a1.5003 1.5016 0 0 0 0.252-0.8328 1.5003 1.5016 0 0 0-1.5-1.5018 1.5003 1.5016 0 0 0-0.8316 0.2538l-0.8436-0.8442z" fill="#2ca7f8" stroke-width=".6"/>
</svg>
