<svg width="22" height="22" version="1.1" viewBox="0 0 22 22" xmlns="http://www.w3.org/2000/svg">
<title>folder-documents</title>
<defs>
<linearGradient id="a" x1="8.7429" x2="8.7429" y1="3.5301" y2="18.827" gradientTransform="matrix(1.1767 0 0 .84984 2 3)" gradientUnits="userSpaceOnUse">
<stop stop-color="#6AC4FF" offset="0"/>
<stop stop-color="#6CCDFC" offset=".963"/>
<stop stop-color="#6AC4FF" offset="1"/>
</linearGradient>
</defs>
<g fill-rule="evenodd">
<path d="m13 3h5v14.995h-14v-13.995h8z" fill="#6ac4ff"/>
<path d="m3 18v-13h16v13z" fill="#fff"/>
<path d="m2 19v-13h18v13z" fill="url(#a)"/>
</g>
<path d="m8.9897 8.4796-2.5127 1.5077 2.0102 1.4574-2.0152 1.5077 2.5178 1.5579 2.0102-1.5077-2.5127-1.5077 2.5127-1.5077 2.5127 1.5077-2.5127 1.5077 2.0102 1.5077 2.5178-1.5579-2.0152-1.4574 2.0102-1.5077-2.5127-1.5077-2.0102 1.4574zm2.0102 5.0254-2.0102 1.5077-0.50254-0.30153v0.30153l2.5127 1.5077 2.5127-1.5077v-0.30153l-0.50254 0.30153z" fill="none" stroke="#2ca7f8" stroke-linejoin="round"/>
</svg>
