<svg width="22" height="22" version="1.1" viewBox="0 0 22 22" xmlns="http://www.w3.org/2000/svg">
<title>folder-documents</title>
<defs>
<linearGradient id="a" x1="8.7429" x2="8.7429" y1="3.5301" y2="18.827" gradientTransform="matrix(1.1767 0 0 .84984 2 3)" gradientUnits="userSpaceOnUse">
<stop stop-color="#6AC4FF" offset="0"/>
<stop stop-color="#6CCDFC" offset=".963"/>
<stop stop-color="#6AC4FF" offset="1"/>
</linearGradient>
</defs>
<g fill-rule="evenodd">
<path d="m13 3h5v14.995h-14v-13.995h8z" fill="#6ac4ff"/>
<path d="m3 18v-13h16v13z" fill="#fff"/>
<path d="m2 19v-13h18v13z" fill="url(#a)"/>
<path d="m13.818 8.5631c0.06874 0 0.13802 0.03699 0.16369 0.11205l0.9975 2.7003h-2.3224l0.9986-2.7003c0.02567-0.07506 0.09386-0.11205 0.16259-0.11205zm-1.1612 2.8123-1.6566 5.062-1.6566-5.062zm-3.3133 0h-2.3224l0.9975-2.7003c0.05134-0.15012 0.27492-0.15012 0.32628 0zm-2.3224 0 3.979 5.062-4.358-3.0079c-0.12026-0.08297-0.17116-0.23045-0.12524-0.36473zm3.979 5.062 3.979-5.062 0.50425 1.6896c0.04592 0.13427-5e-3 0.28176-0.12524 0.36473z" fill="#2ca7f8" stroke-width=".56245"/>
</g>
</svg>
