<svg width="22" height="22" version="1.1" viewBox="0 0 22 22" xmlns="http://www.w3.org/2000/svg">
<title>folder-documents</title>
<defs>
<linearGradient id="a" x1="8.7429" x2="8.7429" y1="3.5301" y2="18.827" gradientTransform="matrix(1.1767 0 0 .84984 2 3)" gradientUnits="userSpaceOnUse">
<stop stop-color="#6AC4FF" offset="0"/>
<stop stop-color="#6CCDFC" offset=".963"/>
<stop stop-color="#6AC4FF" offset="1"/>
</linearGradient>
</defs>
<g fill-rule="evenodd">
<path d="m13 3h5v14.995h-14v-13.995h8z" fill="#6ac4ff"/>
<path d="m3 18v-13h16v13z" fill="#fff"/>
<path d="m2 19v-13h18v13z" fill="url(#a)"/>
<g id="object-unlocked" transform="matrix(.6235 0 0 .6235 3.518 5.018)" fill="#2ca7f8" stroke="#2ca7f8" stroke-width=".46667">
<g transform="translate(6,4)" fill="#2ca7f8" fill-rule="nonzero" stroke="#2ca7f8" stroke-width=".46667">
<path d="m6 0c2.216 0 4 1.8225 4 4.0625v3.9375h1c0.554 0 1 0.446 1 1v6c0 0.554-0.446 1-1 1h-10c-0.554 0-1-0.446-1-1v-6c0-0.554 0.446-1 1-1h8v-4c0-1.9798-1.4138-3-3-3s-3 1.0202-3 3v1h-1v-1c0.0334-2.2116 1.805-4 4-4zm-5 9v6h10v-6z" fill="#2ca7f8" stroke="#2ca7f8" stroke-width=".46667"/>
</g>
</g>
</g>
</svg>
