<svg width="22" height="22" version="1.1" viewBox="0 0 22 22" xmlns="http://www.w3.org/2000/svg">
<title>folder-documents</title>
<defs>
<linearGradient id="a" x1="8.7429" x2="8.7429" y1="3.5301" y2="18.827" gradientTransform="matrix(1.1767 0 0 .84984 2 3)" gradientUnits="userSpaceOnUse">
<stop stop-color="#6AC4FF" offset="0"/>
<stop stop-color="#6CCDFC" offset=".963"/>
<stop stop-color="#6AC4FF" offset="1"/>
</linearGradient>
</defs>
<g fill-rule="evenodd">
<path d="m13 3h5v14.995h-14v-13.995h8z" fill="#6ac4ff"/>
<path d="m3 18v-13h16v13z" fill="#fff"/>
<path d="m2 19v-13h18v13z" fill="url(#a)"/>
</g>
<path d="m12.867 8.5153c-0.4961 0.017968-1.096 0.28648-1.4514 0.65182-0.31842 0.32441-0.59692 0.84148-0.52206 1.3376 0.553 0.03793 1.116-0.24655 1.4604-0.6119 0.34438-0.36634 0.57596-0.87043 0.51307-1.3775zm-0.44919 1.9994c-0.62188-0.06189-0.91235 0.36235-1.2278 0.36235s-0.80255-0.35236-1.3172-0.34238c-0.67778 0.01-1.3047 0.3883-1.6537 0.98822-0.70423 1.2078-0.17948 2.9976 0.50688 3.9768 0.33529 0.47913 0.74555 1.0012 1.2612 1.0012 0.51607 0 0.69674-0.32641 1.3076-0.32641 0.61189 0 0.47814 0.32641 1.0182 0.32641 0.54002 0 0.78957-0.50209 1.123-0.98322 0.3853-0.556 0.4402-1.0132 0.4402-1.0132s-0.99021-0.51108-1.0002-1.7049c-0.01-0.9992 1.0002-1.5033 1.0002-1.5033-0.46915-0.67778-1.1978-0.77061-1.4584-0.78159z" fill="none" stroke="#2ca7f8"/>
</svg>
