<svg width="22" height="22" version="1.1" viewBox="0 0 22 22" xmlns="http://www.w3.org/2000/svg">
<title>folder-documents</title>
<defs>
<linearGradient id="a" x1="8.7429" x2="8.7429" y1="3.5301" y2="18.827" gradientTransform="matrix(1.1767 0 0 .84984 2 3)" gradientUnits="userSpaceOnUse">
<stop stop-color="#6AC4FF" offset="0"/>
<stop stop-color="#6CCDFC" offset=".963"/>
<stop stop-color="#6AC4FF" offset="1"/>
</linearGradient>
</defs>
<g fill-rule="evenodd">
<path d="m13 3h5v14.995h-14v-13.995h8z" fill="#6ac4ff"/>
<path d="m3 18v-13h16v13z" fill="#fff"/>
<path d="m2 19v-13h18v13z" fill="url(#a)"/>
</g>
<g transform="matrix(.46995 0 0 .46995 1.9234 3.6065)" fill="#2ca7f8">
<path d="m19.5 5.0932v1h-1v-1zm0 1h1v1h-1zm0 1v1h-1v-1zm0 1h1v1h-1zm0 1v1h-1v-1zm0 1h1v1h-1zm0 1v1h-1v-1zm0 1h1c0.1561 1.3909-1 1.3909-1 0z"/>
<path d="m19.314 12.5c2.21 0 4 1.8 4 4v8c0 2.2-1.79 4-4 4s-4-1.8-4-4v-8c0-2.2 1.79-4 4-4zm0 2c-1.104 0-2 0.8-2 2 0 1 0.896 2 2 2s2-1 2-2c0-1.2-0.896-2-2-2zm0 6c-1.104 0-2 0.8-2 2v2c0 1 0.896 2 2 2s2-1 2-2v-2c0-1.2-0.896-2-2-2z"/>
</g>
</svg>
