<svg width="22px" height="22px" version="1.1" viewBox="0 0 22 22" xmlns="http://www.w3.org/2000/svg">
<title>folder-remote</title>
<desc>Created with Sketch.</desc>
<defs>
<linearGradient id="linearGradient-1" x1="8.7429" x2="8.7429" y1="3.5301" y2="18.827" gradientTransform="scale(1.1767 .84984)" gradientUnits="userSpaceOnUse">
<stop stop-color="#6AC4FF" offset="0"/>
<stop stop-color="#6CCDFC" offset=".96265"/>
<stop stop-color="#6AC4FF" offset="1"/>
</linearGradient>
</defs>
<g fill-rule="evenodd">
<polygon id="Combined-Shape" transform="translate(2,3)" points="16 14.995 2 14.995 2 1 10 1 11 0 16 0" fill="#6ac4ff"/>
<polygon transform="translate(2,3)" points="1 15 1 2 17 2 17 15" fill="#fff"/>
<polygon transform="translate(2,3)" points="1.7167e-11 16 0 3 18 3 18 16" fill="url(#linearGradient-1)"/>
</g>
<path d="m9.0203 9.9548c-1.4056 0-2.5453 1.1397-2.5453 2.5453s1.1397 2.5453 2.5453 2.5453c1.0775-0.0017 2.0368-0.68101 2.396-1.6969h1.8462v1.1312h1.6969v-1.1312h0.56562v-1.6969h-4.1087c-0.3586-1.0159-1.3185-1.6952-2.396-1.6969zm0 1.6969c0.46834 0 0.84843 0.3801 0.84843 0.84843 0 0.46834-0.3801 0.84844-0.84843 0.84844-0.46834 0-0.84844-0.3801-0.84844-0.84844s0.3801-0.84843 0.84844-0.84843z" fill="none" stroke="#2ca7f8" stroke-linejoin="round"/>
</svg>
