<svg width="22" height="22" version="1.1" viewBox="0 0 22 22" xmlns="http://www.w3.org/2000/svg">
<title>folder-documents</title>
<defs>
<linearGradient id="a" x1="8.7429" x2="8.7429" y1="3.5301" y2="18.827" gradientTransform="matrix(1.1767 0 0 .84984 2 3)" gradientUnits="userSpaceOnUse">
<stop stop-color="#6AC4FF" offset="0"/>
<stop stop-color="#6CCDFC" offset=".963"/>
<stop stop-color="#6AC4FF" offset="1"/>
</linearGradient>
</defs>
<g fill-rule="evenodd">
<path d="m13 3h5v14.995h-14v-13.995h8z" fill="#6ac4ff"/>
<path d="m3 18v-13h16v13z" fill="#fff"/>
<path d="m2 19v-13h18v13z" fill="url(#a)"/>
<g id="mail-mark-important" transform="matrix(.65906 0 0 .65906 3.4208 4.9208)" fill="#2ca7f8" stroke="#2ca7f8" stroke-width=".65577">
<g transform="translate(5,5)" fill="#2ca7f8" fill-rule="nonzero" stroke="#2ca7f8" stroke-width=".65577">
<path id="Path" d="m6.5 1c-3.0375 0-5.5 2.4625-5.5 5.5 0 3.0376 2.4624 5.5 5.5 5.5s5.5-2.4624 5.5-5.5c0-3.0375-2.4625-5.5-5.5-5.5zm0-1c3.5899 0 6.5 2.9102 6.5 6.5 0 3.5899-2.9101 6.5-6.5 6.5s-6.5-2.9101-6.5-6.5c0-3.5898 2.9101-6.5 6.5-6.5z"/>
<path d="m6.5 3c0.55229 0 1 0.44771 1 1s-0.44771 1-1 1-1-0.44771-1-1 0.44771-1 1-1z"/>
<polygon points="7 11.004 6 11.004 6 6.0039 7 6.0039"/>
</g>
</g>
</g>
</svg>
