<svg width="22" height="22" version="1.1" viewBox="0 0 22 22" xmlns="http://www.w3.org/2000/svg">
<title>folder-documents</title>
<defs>
<linearGradient id="a" x1="8.7429" x2="8.7429" y1="3.5301" y2="18.827" gradientTransform="matrix(1.1767 0 0 .84984 2 3)" gradientUnits="userSpaceOnUse">
<stop stop-color="#6AC4FF" offset="0"/>
<stop stop-color="#6CCDFC" offset=".963"/>
<stop stop-color="#6AC4FF" offset="1"/>
</linearGradient>
</defs>
<g fill-rule="evenodd">
<path d="m13 3h5v14.995h-14v-13.995h8z" fill="#6ac4ff"/>
<path d="m3 18v-13h16v13z" fill="#fff"/>
<path d="m2 19v-13h18v13z" fill="url(#a)"/>
</g>
<path d="m9.8248 8s0.52969 0.29893 0.15557 1.0851c-0.56634 1.1841 0.52264 1.4548 0.52264 1.4548s-0.34585-0.27771 0.11507-1.2555c0.50979-1.0832-0.79329-1.2844-0.79329-1.2844zm2.0565 1.1828s-1.0555 0.405-0.37542 1.5113c0.44999 0.73349-0.04886 1.0973-0.04886 1.0973s1.276-0.36193 0.66019-1.3744c-0.55284-0.91544-0.23593-1.2343-0.23593-1.2343zm-3.0394 0.0302s-0.92444 0.70394-9e-3 1.5692c0.60494 0.57599 0.20828 1.0748 0.20828 1.0748s1.1462-0.72834 0.31757-1.5242c-0.74764-0.71804-0.51684-1.1198-0.51684-1.1198zm0.19928 2.644h-2.5412l1.2857 5.1429h5.1429l0.17678-0.70584c0.14978 0.0373 0.30471 0.063 0.46607 0.063 1.0652 0 1.9285-0.86334 1.9285-1.9285 0-0.90384-0.62354-1.6566-1.4625-1.8655l0.17678-0.70584zm4.8413 1.3255a0.64284 1.2857 15 0 1 0.02186 0.0039 0.64284 1.2857 15 0 1 0.28864 1.4091 0.64284 1.2857 15 0 1-0.93279 1.0787z" fill="#2ca7f8" stroke-width=".64284"/>
</svg>
