<svg width="22" height="22" version="1.1" viewBox="0 0 22 22" xmlns="http://www.w3.org/2000/svg">
<title>folder-documents</title>
<defs>
<linearGradient id="a" x1="8.7429" x2="8.7429" y1="3.5301" y2="18.827" gradientTransform="matrix(1.1767 0 0 .84984 2 3)" gradientUnits="userSpaceOnUse">
<stop stop-color="#6AC4FF" offset="0"/>
<stop stop-color="#6CCDFC" offset=".963"/>
<stop stop-color="#6AC4FF" offset="1"/>
</linearGradient>
</defs>
<g fill-rule="evenodd">
<path d="m13 3h5v14.995h-14v-13.995h8z" fill="#6ac4ff"/>
<path d="m3 18v-13h16v13z" fill="#fff"/>
<path d="m2 19v-13h18v13z" fill="url(#a)"/>
<g id="project-development" transform="matrix(.61926 0 0 .61926 3.5689 5.0689)" fill="#2ca7f8" stroke="#2ca7f8" stroke-width=".53356">
<g transform="translate(5,5)" fill="#2ca7f8" fill-rule="nonzero" stroke="#2ca7f8" stroke-width=".53356">
<path d="m1 0h12s0.07564 0.0041375 0.18164 0.023438c0.204 0.0302 0.35866 0.10342 0.47266 0.20312 0.022 0.0169 0.04345 0.035088 0.06445 0.054688 0.019 0.021 0.03769 0.042353 0.05469 0.064453 0.1 0.114 0.17212 0.26846 0.20312 0.47266 0.019 0.1054 0.02344 0.18164 0.02344 0.18164v12c0 1-1 1-1 1h-12s-1 0-1-1v-12s0.0041375-0.076241 0.023438-0.18164c0.0302-0.2042 0.10342-0.35866 0.20312-0.47266 0.0169-0.0221 0.035088-0.043453 0.054688-0.064453 0.021-0.0196 0.042353-0.037788 0.064453-0.054688 0.114-0.0997 0.26846-0.17292 0.47266-0.20312 0.1054-0.0193 0.18164-0.023438 0.18164-0.023438zm0 5v8h12v-8zm0-4v3h12v-3z" fill="#2ca7f8" stroke="#2ca7f8" stroke-width=".53356"/>
</g>
</g>
</g>
</svg>
