<svg width="22px" height="22px" version="1.1" viewBox="0 0 22 22" xmlns="http://www.w3.org/2000/svg">
<title>folder-remote</title>
<desc>Created with Sketch.</desc>
<defs>
<linearGradient id="linearGradient-1" x1="8.7429" x2="8.7429" y1="3.5301" y2="18.827" gradientTransform="scale(1.1767 .84984)" gradientUnits="userSpaceOnUse">
<stop stop-color="#6AC4FF" offset="0"/>
<stop stop-color="#6CCDFC" offset=".96265"/>
<stop stop-color="#6AC4FF" offset="1"/>
</linearGradient>
</defs>
<g fill-rule="evenodd">
<polygon id="Combined-Shape" transform="translate(2,3)" points="11 0 16 0 16 14.995 2 14.995 2 1 10 1" fill="#6ac4ff"/>
<polygon transform="translate(2,3)" points="17 2 17 15 1 15 1 2" fill="#fff"/>
<polygon transform="translate(2,3)" points="18 3 18 16 1.7167e-11 16 0 3" fill="url(#linearGradient-1)"/>
</g>
<path d="m10.357 8.8586a2.9988 2.9988 0 0 1 2.9988 2.9988 2.9988 2.9988 0 0 1-0.4751 1.6151l1.5722 1.5718c0.12038 0.12038 0.18807 0.28403 0.18807 0.45454 0 0.35472-0.28788 0.64259-0.64259 0.64259-0.1705 0-0.33415-0.06769-0.45454-0.18807l-1.5705-1.5705a2.9988 2.9988 0 0 1-1.6164 0.47338 2.9988 2.9988 0 0 1-2.9988-2.9988 2.9988 2.9988 0 0 1 2.9988-2.9988zm0 1.2852a1.7136 1.7136 0 0 0-1.7136 1.7136 1.7136 1.7136 0 0 0 1.7136 1.7136 1.7136 1.7136 0 0 0 1.7136-1.7136 1.7136 1.7136 0 0 0-1.7136-1.7136z" fill="none" stroke="#2ca7f8" stroke-width=".71715"/>
</svg>
