<svg width="22px" height="22px" version="1.1" viewBox="0 0 22 22" xmlns="http://www.w3.org/2000/svg">
<title>folder-videos</title>
<desc>Created with Sketch.</desc>
<defs>
<linearGradient id="linearGradient-1" x1="57.154%" x2="57.154%" y2="100%">
<stop stop-color="#6AC4FF" offset="0"/>
<stop stop-color="#6CCDFC" offset=".96265"/>
<stop stop-color="#6AC4FF" offset="1"/>
</linearGradient>
</defs>
<g fill="none" fill-rule="evenodd">
<g id="folder-videos">
<g id="Group" transform="translate(2 3)">
<polygon id="Combined-Shape" points="11 0 16 0 16 14.995 2 14.995 2 1 10 1" fill="#6AC4FF"/>
<polygon points="1 15 1 2 17 2 17 15" fill="#fff"/>
<polygon points="1.7167e-11 16 0 3 18 3 18 16" fill="url(#linearGradient-1)"/>
</g>
<g id="videos_normal_16px" transform="translate(7 8)" stroke="#2CA7F8" stroke-linecap="round" stroke-linejoin="round">
<path d="m2 4.5h4"/>
<path d="m2.5 1v7"/>
<path d="m5.5 1v7"/>
<path d="m6 2.5h1"/>
<path d="m6 4.5h1"/>
<path d="m6 6.5h1"/>
<path d="m1 6.5h1"/>
<path d="m1 4.5h1"/>
<path d="m1 2.5h1"/>
<polygon points="0.5 0.5 0.5 8.5 7.5 8.5 7.5 0.5"/>
</g>
</g>
</g>
</svg>
