<svg width="22" height="22" version="1.1" viewBox="0 0 22 22" xmlns="http://www.w3.org/2000/svg">
<title>folder-documents</title>
<defs>
<linearGradient id="a" x1="8.7429" x2="8.7429" y1="3.5301" y2="18.827" gradientTransform="matrix(1.1767 0 0 .84984 2 3)" gradientUnits="userSpaceOnUse">
<stop stop-color="#6AC4FF" offset="0"/>
<stop stop-color="#6CCDFC" offset=".963"/>
<stop stop-color="#6AC4FF" offset="1"/>
</linearGradient>
</defs>
<g fill-rule="evenodd">
<path d="m13 3h5v14.995h-14v-13.995h8z" fill="#6ac4ff"/>
<path d="m3 18v-13h16v13z" fill="#fff"/>
<path d="m2 19v-13h18v13z" fill="url(#a)"/>
</g>
<path d="m11 8.0729c-2.493 0-4.5001 2.007-4.5001 4.5001 0 2.0098 1.305 3.7014 3.1169 4.2826v-0.93495c-1.1391 0.25138-1.3788-0.501-1.3788-0.501-0.1863-0.48073-0.45484-0.60863-0.45484-0.60863-0.37184-0.25795 0.02747-0.25379 0.02747-0.25379 0.41104 0.02936 0.62732 0.42957 0.62732 0.42957 0.36529 0.63583 0.95876 0.45259 1.192 0.34608 0.03721-0.26873 0.14348-0.45305 0.26038-0.55702-0.90932-0.10502-1.6974-0.68649-1.6974-2.281 0-0.45417 0.32993-1.0506 0.59185-1.3413-0.04224-0.10525-0.18343-0.75339 0.03955-1.3261 0 0 0.02148-0.0068 0.06592-0.0088 0.13326-0.0062 0.43302 0.24658 1.0196 0.65039 0.35412-0.10173 0.80721-0.1493 1.0901-0.15161 0.31902-0.0027 0.68841 0.05225 1.0213 0.15161 0.58669-0.40383 0.96151-0.65767 1.0943-0.65152h0.0011c0.04438 0.0021 0.06592 0.0088 0.06592 0.0088 0.2235 0.57272 0.08263 1.2219 0.04065 1.3272 0.26242 0.29071 0.58929 0.88709 0.58929 1.3413 0 1.5986-0.95679 2.1747-1.8688 2.2777 0.14682 0.12848 0.18347 0.38323 0.18347 0.77125 0 0.46864-0.0012 0.77322-0.0022 0.96683v0.41639c1.9444-0.49765 3.3751-2.2502 3.3751-4.3539 0-2.493-2.007-4.5001-4.5001-4.5001z" fill="#2ca7f8" stroke-width=".56253"/>
</svg>
