<svg width="22" height="22" version="1.1" viewBox="0 0 22 22" xmlns="http://www.w3.org/2000/svg">
<title>folder-documents</title>
<defs>
<linearGradient id="a" x1="8.7429" x2="8.7429" y1="3.5301" y2="18.827" gradientTransform="matrix(1.1767 0 0 .84984 2 3)" gradientUnits="userSpaceOnUse">
<stop stop-color="#6AC4FF" offset="0"/>
<stop stop-color="#6CCDFC" offset=".963"/>
<stop stop-color="#6AC4FF" offset="1"/>
</linearGradient>
</defs>
<g fill-rule="evenodd">
<path d="m13 3h5v14.995h-14v-13.995h8z" fill="#6ac4ff"/>
<path d="m3 18v-13h16v13z" fill="#fff"/>
<path d="m2 19v-13h18v13z" fill="url(#a)"/>
</g>
<g id="rating" transform="matrix(.54211 0 0 .54211 4.4947 5.9952)" fill="none" stroke="#2ca7f8" stroke-linejoin="round" stroke-width="1.3853">
<g transform="translate(4,4)" fill="none" stroke="#2ca7f8" stroke-linejoin="round" stroke-width="1.3853">
<path id="Shape" d="m8 3.1694-1.4191 3.6791-3.9375 0.21185 3.0617 2.4876-1.0146 3.81 3.3095-2.1431 3.3095 2.1431-1.0146-3.81 3.0617-2.4876-3.9375-0.21185zm-1e-7 -2.7788 2.1191 5.4941 5.8809 0.31641-4.5723 3.7148 1.5156 5.6914-4.9434-3.2012-4.9434 3.2012 1.5156-5.6914-4.5723-3.7148 5.8809-0.31641z" fill="none" stroke="#2ca7f8" stroke-linejoin="round" stroke-width="1.3853"/>
</g>
</g>
</svg>
