<svg width="22" height="22" version="1.1" viewBox="0 0 22 22" xmlns="http://www.w3.org/2000/svg">
<title>folder-documents</title>
<defs>
<linearGradient id="a" x1="8.7429" x2="8.7429" y1="3.5301" y2="18.827" gradientTransform="matrix(1.1767 0 0 .84984 2 3)" gradientUnits="userSpaceOnUse">
<stop stop-color="#6AC4FF" offset="0"/>
<stop stop-color="#6CCDFC" offset=".963"/>
<stop stop-color="#6AC4FF" offset="1"/>
</linearGradient>
</defs>
<g fill-rule="evenodd">
<path d="m13 3h5v14.995h-14v-13.995h8z" fill="#6ac4ff"/>
<path d="m3 18v-13h16v13z" fill="#fff"/>
<path d="m2 19v-13h18v13z" fill="url(#a)"/>
</g>
<path d="m4.5714 13.543 3.8597 1.5821c0.02893 1.0427 0.88264 1.8733 1.926 1.8746 1.0652 0 1.9324-0.90129 1.9286-1.9286l2.5714-1.9286c1.4316 0 2.5714-1.1514 2.5714-2.5714 0-1.4201-1.1514-2.5714-2.5714-2.5714s-2.5721 1.1391-2.5714 2.5714l-1.9286 2.5714c-0.34971 0-0.69557 0.09771-0.99578 0.28029l-4.7899-1.9665m10.286-2.8138c1.0652 0 1.9286 0.86336 1.9286 1.9286 0 1.0652-0.86336 1.9286-1.9286 1.9286-1.0646 0-1.9086-1.0511-1.9286-1.9286 0-1.0652 0.86336-1.9286 1.9286-1.9286zm0 0.64286c-0.71036 0-1.2857 0.57536-1.2857 1.2857 0 0.71036 0.57536 1.2857 1.2857 1.2857s1.2857-0.57536 1.2857-1.2857c0-0.71036-0.57536-1.2857-1.2857-1.2857zm-4.5 4.5c0.71036 0 1.2857 0.57536 1.2857 1.2857 0 0.71036-0.57536 1.2857-1.2857 1.2857-0.58114 0-1.0903-0.38957-1.242-0.95079l0.57407 0.23529c0.49436 0.2025 1.0556-0.03214 1.2581-0.5265 0.2025-0.49436-0.0315-1.0556-0.52586-1.2581l-0.16329-0.06621c0.03279-0.0032 0.06621-0.0045 0.099-0.0051z" fill="#2ca7f8" stroke-width=".64286"/>
</svg>
