<svg width="22px" height="22px" version="1.1" viewBox="0 0 22 22" xmlns="http://www.w3.org/2000/svg">
<title>folder-open</title>
<desc>Created with Sketch.</desc>
<defs>
<linearGradient id="linearGradient-1" x1="9.2189" x2="9.2189" y1="10.787" y2="25.62" gradientTransform="scale(1.3484 .74162)" gradientUnits="userSpaceOnUse">
<stop stop-color="#6AC4FF" offset="0"/>
<stop stop-color="#6CCDFC" offset=".96265"/>
<stop stop-color="#6AC4FF" offset="1"/>
</linearGradient>
</defs>
<g fill-rule="evenodd">
<polygon id="Combined-Shape" points="13 3 18 3 18 17.995 4 17.995 4 4 12 4" fill="#6ac4ff"/>
<polygon points="19 6 19 18 3 18 3 6" fill="#fff"/>
<polygon points="21 8 19 19 3 19 1 8" fill="url(#linearGradient-1)"/>
</g>
<g transform="matrix(0 1 1 0 -5.7826 30.329)">
<g transform="translate(-11.888 12.624)" fill="none" fill-rule="evenodd" stroke="#2ca7f8" stroke-linecap="round" stroke-linejoin="round">
<path d="m-2.1411 3.8364c-0.15988 0.17141-0.15567 0.45788 0.00928 0.63593 0.1629 0.17584 0.41874 0.17632 0.5716 0.00491 0.15106-0.16939 0.14713-0.44623-0.00888-0.62207-0.15793-0.178-0.41405-0.18812-0.572-0.018773"/>
<path d="m-6.5344-0.83244c-1.1619 1.2168-1.9042 2.9805-1.9042 5.0027 0 2.0035 0.72884 3.7573 1.8732 4.9786"/>
<path d="m-4.87 0.67677c-0.74492 0.88864-1.2098 2.1152-1.2098 3.4965 0 1.3588 0.45005 2.5704 1.1744 3.4593"/>
<path d="m-3.3876 2.0246c-0.40574 0.56714-0.6523 1.3076-0.6523 2.1264 0 0.81105 0.24193 1.5469 0.64095 2.1147"/>
</g>
</g>
</svg>
