<svg width="22" height="22" version="1.1" viewBox="0 0 22 22" xmlns="http://www.w3.org/2000/svg">
<title>folder-documents</title>
<defs>
<linearGradient id="a" x1="8.7429" x2="8.7429" y1="3.5301" y2="18.827" gradientTransform="matrix(1.1767 0 0 .84984 2 3)" gradientUnits="userSpaceOnUse">
<stop stop-color="#6AC4FF" offset="0"/>
<stop stop-color="#6CCDFC" offset=".963"/>
<stop stop-color="#6AC4FF" offset="1"/>
</linearGradient>
</defs>
<g fill-rule="evenodd">
<path d="m13 3h5v14.995h-14v-13.995h8z" fill="#6ac4ff"/>
<path d="m3 18v-13h16v13z" fill="#fff"/>
<path d="m2 19v-13h18v13z" fill="url(#a)"/>
</g>
<path d="m13.773 8.4355c-1.7187 0-2.0421 2.3226-1.0742 2.3226 0.96619 0 2.7941-2.3226 1.0742-2.3226zm-2.6414 0.58065c-0.02729 0-0.05748 0.0029-0.08768 0.00581-0.98419 0.11845-0.63871 1.7065-0.11439 1.7361 0.5069 0.02903 1.062-1.7373 0.20264-1.7419zm-1.7942 0.58065c-0.070258-0.0029-0.14865 0.00639-0.23516 0.028461-0.9209 0.23284-0.13994 1.1944 0.37568 1.1294 0.46802-0.058645 0.53594-1.1305-0.14052-1.1578zm-1.2838 1.1613c-0.082452-0.001064-0.17187 0.016839-0.26652 0.060968-0.75716 0.35768 0.25548 1.2205 0.70084 1.087 0.38961-0.11729 0.1411-1.1346-0.43432-1.1479zm3.5315 0.58065c-1.3552-0.02148-3.1425 0.61839-3.4479 1.9039-0.32981 1.3918 1.3605 3.3219 3.1221 3.3219 0.8669 0 1.8668-0.38961 2.0537-1.3233 0.14226-0.71187-1.7948-0.40529-1.7292 0.06561 0.07839 0.56497-0.3269 0.47499-0.83497 0.1109-1.4923-1.1758 2.6769-1.7367 2.394-3.3201-0.08768-0.49297-0.74497-0.74497-1.5579-0.75774z" fill="none" stroke="#2ca7f8" stroke-width=".87097"/>
</svg>
