<svg width="22px" height="22px" version="1.1" viewBox="0 0 22 22" xmlns="http://www.w3.org/2000/svg">
<title>folder-open</title>
<desc>Created with Sketch.</desc>
<defs>
<linearGradient id="linearGradient-1" x1="9.2189" x2="9.2189" y1="10.787" y2="25.62" gradientTransform="scale(1.3484 .74162)" gradientUnits="userSpaceOnUse">
<stop stop-color="#6AC4FF" offset="0"/>
<stop stop-color="#6CCDFC" offset=".96265"/>
<stop stop-color="#6AC4FF" offset="1"/>
</linearGradient>
</defs>
<g fill-rule="evenodd">
<polygon id="Combined-Shape" points="18 17.995 4 17.995 4 4 12 4 13 3 18 3" fill="#6ac4ff"/>
<polygon points="3 18 3 6 19 6 19 18" fill="#fff"/>
<polygon points="3 19 1 8 21 8 19 19" fill="url(#linearGradient-1)"/>
</g>
<g transform="matrix(0 -.52934 .52934 0 -3.2712 38.211)" fill="#2ca7f8">
<path id="Path" d="m39.01 22.247c-2.07e-4 8.52e-4 -3.63e-4 3.4293-4.69e-4 10.285 0.0022 6.7e-4 0.04276 0.0072 0.12186 0.01967 0.02934 0.0092 0.05588 0.01344 0.09728 0.01989 0.16399 0.02545 0.4048 0.06163 0.7201 0.10838 0.58639 0.08699 1.4345 0.21096 2.5372 0.37114 1.6416 0.23842 3.5846 0.51888 6.0777 0.8778l4.8484-4.2306v-9.6095s-14.402 2.1582-14.402 2.1582m0.01821-0.07983c1.25e-4 -9.3e-5 -5.88e-4 2e-3 -0.0013 0.0041l0.0013-0.0041m-0.03086 10.365c0.0031 0.0016 7e-3 0.0035 0.01215 0.0058 2.8e-5 -0.0012 4.3e-5 -0.0025 4.3e-5 -4e-3l-0.01219-0.0018m-0.039374-0.012625c0.0038 3e-3 0.02404 0.01039-4e-3 0.0063l0.01253 0.0018c-0.0029-0.0031-0.0058-0.0058-0.0085-0.0081l7e-6 -1.3e-5m16.213-12.93c0.02652 0.13736 0 0.23564 0 0.23564v10.548l-5.9985 4.9738c-3.1342-0.54381-10.183-1.7677-10.219-1.7934 0 0-0.77265-0.13639-0.77265-1.1408v-10.042s5.94e-4 -1.0053 0.77265-1.1438l14.572-2.6149c1.2231-0.21946 1.5661 0.5663 1.6456 0.97712l-1.5e-4 7.09e-4"/>
<path transform="matrix(1.254,0,0,1.2144,8.9571,13.921)" d="m32.924 11.079s-2.3849 0.80789-2.3849 0.80789l1.0466 2.2513-2.1323-1.1757-0.72799 2.0981-0.69678-2.1759s-1.7353 0.80593-1.7353 0.80593l0.80049-1.8779-1.7049-0.71958 1.7049-0.72595-0.80049-1.8749s1.7353 0.79944 1.7353 0.79944l0.69678-2.1784 0.72799 2.0953 2.1323-1.1837-1.0466 2.2552s2.3849 0.79897 2.3849 0.79897"/>
</g>
</svg>
