<svg width="22" height="22" version="1.1" viewBox="0 0 22 22" xmlns="http://www.w3.org/2000/svg">
<title>folder-documents</title>
<defs>
<linearGradient id="a" x1="8.7429" x2="8.7429" y1="3.5301" y2="18.827" gradientTransform="matrix(1.1767 0 0 .84984 2 3)" gradientUnits="userSpaceOnUse">
<stop stop-color="#6AC4FF" offset="0"/>
<stop stop-color="#6CCDFC" offset=".963"/>
<stop stop-color="#6AC4FF" offset="1"/>
</linearGradient>
</defs>
<g fill-rule="evenodd">
<path d="m13 3h5v14.995h-14v-13.995h8z" fill="#6ac4ff"/>
<path d="m3 18v-13h16v13z" fill="#fff"/>
<path d="m2 19v-13h18v13z" fill="url(#a)"/>
</g>
<path d="m15.323 10.69-0.0029-0.0031h-7.39e-4c-0.26283-1.0833-1.16-1.7931-2.2291-1.7931-0.46252 0-0.89217 0.10579-1.2532 0.34878h-1.6753c-0.36105-0.24296-0.79105-0.34875-1.2532-0.34875-1.0695 0-1.9664 0.70986-2.2291 1.793h-6.878e-4l-0.00293 0.0026c-0.020595 0.08197-0.73076 3.4235-0.73076 3.8882 0 0.84558 0.65999 1.5279 1.4739 1.5279 0.43724 0 0.82573-0.20327 1.0958-0.51741l1.0084-1.3154c0.13684-0.17836 0.34769-0.33686 0.57118-0.33686h1.8335c0.22638 0 0.4394 0.16068 0.57588 0.34264l0.98128 1.3085c0.27007 0.31411 0.65822 0.5156 1.0954 0.5156 0.81417 0 1.4739-0.67912 1.4739-1.5247-3.6e-4 -0.47585-0.71093-3.8062-0.73117-3.8879zm-4.8651 1.4409h-0.90262v0.90262c0 0.09965-0.08088 0.18052-0.18052 0.18052h-0.72214c-0.099651 0-0.18052-0.08088-0.18052-0.18052v-0.90262h-0.90262c-0.099651 0-0.18052-0.08088-0.18052-0.18052v-0.72208c0-0.09965 0.08088-0.18052 0.18052-0.18052h0.90262v-0.90262c0-0.09965 0.080879-0.18052 0.18052-0.18052h0.72214c0.099651 0 0.18052 0.08088 0.18052 0.18052v0.90262h0.90262c0.09965 0 0.18053 0.08088 0.18053 0.18052v0.72208c0 0.09965-0.08088 0.18052-0.18053 0.18052zm1.9858-0.36106c0 0.1993-0.16176 0.36106-0.36106 0.36106h-0.36106c-0.1993 0-0.36105-0.16175-0.36105-0.36106v-0.36106c0-0.1993 0.16175-0.36106 0.36105-0.36106h0.36106c0.1993 0 0.36106 0.16176 0.36106 0.36106zm2.1663 0c0 0.1993-0.16176 0.36106-0.36106 0.36106h-0.36106c-0.1993 0-0.36105-0.16175-0.36105-0.36106v-0.36106c0-0.1993 0.16175-0.36106 0.36105-0.36106h0.36106c0.1993 0 0.36106 0.16176 0.36106 0.36106zm-1.0832-1.0831c0 0.1993-0.16176 0.36106-0.36106 0.36106h-0.36106c-0.1993 0-0.36105-0.16175-0.36105-0.36106v-0.36105c0-0.1993 0.16176-0.36106 0.36105-0.36106h0.36106c0.1993 0 0.36106 0.16175 0.36106 0.36106zm0.01187 2.1403c0 0.1993-0.16175 0.36106-0.36105 0.36106h-0.36105c-0.1993 0-0.36105-0.16176-0.36105-0.36106v-0.36106c0-0.1993 0.16176-0.36105 0.36105-0.36105h0.36106c0.1993 0 0.36105 0.16175 0.36105 0.36105z" fill="none" stroke="#2ca7f8" stroke-width=".78831"/>
</svg>
