<svg width="22px" height="22px" version="1.1" viewBox="0 0 22 22" xmlns="http://www.w3.org/2000/svg">
<title>network-server-24px copy</title>
<desc>Created with Sketch.</desc>
<defs>
<linearGradient id="linearGradient-1" x1="57.154%" x2="57.154%" y2="100%">
<stop stop-color="#6AC4FF" offset="0"/>
<stop stop-color="#6CCDFC" offset=".96265"/>
<stop stop-color="#6AC4FF" offset="1"/>
</linearGradient>
</defs>
<g fill="none" fill-rule="evenodd">
<g id="network-server-24px-copy">
<g id="Group" transform="translate(2 3)">
<polygon id="Combined-Shape" points="11 0 16 0 16 14.995 2 14.995 2 1 10 1" fill="#6AC4FF"/>
<polygon points="1 15 1 2 17 2 17 15" fill="#fff"/>
<polygon points="1.7167e-11 16 0 3 18 3 18 16" fill="url(#linearGradient-1)"/>
</g>
<g transform="translate(6 7)" stroke="#2CA7F8" stroke-linecap="round" stroke-linejoin="round">
<path d="m9.5 5c0 2.4851-2.0149 4.5-4.5 4.5s-4.5-2.0149-4.5-4.5 2.0149-4.5 4.5-4.5 4.5 2.0149 4.5 4.5z"/>
<path d="m9.1667 6.25c-5.6667 1.75-7.3167-2.3044-7.9167-3.3333"/>
<path d="m1.5 7.5c0.22833-1.1961 2-4.375 7-5"/>
<path d="m5.5 9.5c2-5.5-0.88444-7.925-2-8.5"/>
</g>
</g>
</g>
</svg>
