<svg width="22" height="22" version="1.1" viewBox="0 0 22 22" xmlns="http://www.w3.org/2000/svg">
<defs>
<linearGradient id="stack-app-a" x1="50%" x2="50%" y2="97.162%">
<stop stop-color="#582BFF" offset="0"/>
<stop stop-color="#7D5FFF" offset="1"/>
</linearGradient>
<linearGradient id="stack-app-b" x1="100%" x2="8.859%" y1="77.19%" y2="4.533%">
<stop stop-color="#D1C0FF" offset="0"/>
<stop stop-color="#8375FF" offset="1"/>
</linearGradient>
<linearGradient id="stack-app-c" x1="50%" x2="50%" y2="392.79%">
<stop stop-color="#FFF" stop-opacity=".8" offset="0"/>
<stop stop-color="#882AFF" stop-opacity=".117" offset="1"/>
</linearGradient>
<linearGradient id="stack-app-d" x1="50%" x2="50%" y1="-22.147%" y2="100%">
<stop stop-color="#CAA2FF" stop-opacity=".3" offset="0"/>
<stop stop-color="#6249F0" offset="1"/>
</linearGradient>
<linearGradient id="stack-app-e" x1="-3.822%" y1="55.584%" y2="40.499%">
<stop stop-color="#B9B7FF" offset="0"/>
<stop stop-color="#8174FF" offset="1"/>
</linearGradient>
<linearGradient id="stack-app-f" x1="50%" x2="50%" y1="-22.147%" y2="100%">
<stop stop-color="#B6A2FF" offset="0"/>
<stop stop-color="#6249F0" offset="1"/>
</linearGradient>
</defs>
<g transform="translate(2 3)" fill="none" fill-rule="evenodd">
<polygon points="11 0 16 0 16 14.995 2 14.995 2 1 10 1" fill="#4A00D5"/>
<polygon points="1 15 1 2 17 2 17 15" fill="#D7D7D7"/>
<polygon points="0 16 0 3 18 3 18 16" fill="url(#stack-app-a)"/>
<g transform="translate(2.327 3.213)">
<polygon points="1.673 2.787 6.673 4.832 6.673 11.787 1.673 9.742" fill="url(#stack-app-b)"/>
<polygon points="1.673 2.787 6.673 4.832 11.673 2.787 6.673 0.742" fill="url(#stack-app-c)"/>
<polygon points="6.673 4.832 11.673 2.787 6.673 0.742" fill="url(#stack-app-d)"/>
<polygon points="6.673 2.787 11.673 4.787 11.673 11.787 6.673 9.787" fill="url(#stack-app-e)"/>
<polygon points="1.673 2.787 6.673 4.832 5.297 7.161 0.297 5.115" fill="url(#stack-app-f)"/>
<polygon points="8.314 2.787 13.314 4.787 11.673 7.161 6.673 5.161" fill="url(#stack-app-f)"/>
</g>
</g>
</svg>
