<svg width="22" height="22" version="1.1" viewBox="0 0 22 22" xmlns="http://www.w3.org/2000/svg" xmlns:xlink="http://www.w3.org/1999/xlink">
<defs>
<linearGradient id="stack-download-a" x1="50%" x2="50%" y2="98.094%">
<stop stop-color="#069AA6" offset="0"/>
<stop stop-color="#BEBEBE" offset="1"/>
</linearGradient>
<linearGradient id="stack-download-c" x1="50%" x2="50%" y2="92.487%">
<stop stop-color="#16C2AC" offset="0"/>
<stop stop-color="#0A9AB1" offset="1"/>
</linearGradient>
<polygon id="stack-download-b" points="0 16 0 3 18 3 18 16"/>
<radialGradient id="stack-download-e" r="56.897%" fx="50%" fy="50%" gradientTransform="matrix(0 .87879 -1 0 1 .06)">
<stop stop-color="#FFF" stop-opacity=".217" offset="0"/>
<stop stop-color="#E9E9E9" stop-opacity=".745" offset="1"/>
</radialGradient>
<linearGradient id="stack-download-f" x1="50%" x2="50%" y2="100%">
<stop stop-color="#FFF" stop-opacity=".418" offset="0"/>
<stop stop-color="#FFF" stop-opacity=".329" offset="1"/>
</linearGradient>
</defs>
<g transform="translate(2 3)" fill="none" fill-rule="evenodd">
<polygon points="11 0 16 0 16 14.995 2 14.995 2 1 10 1" fill="url(#stack-download-a)"/>
<polygon points="1 15 1 2 17 2 17 15" fill="#F1F1F1"/>
<mask id="stack-download-d" fill="#fff">
<use xlink:href="#stack-download-b"/>
</mask>
<use fill="url(#stack-download-c)" xlink:href="#stack-download-b"/>
<g mask="url(#stack-download-d)">
<g transform="translate(1 5)">
<path d="m2.8088 8.3276c0.99483 0 2-1.3271 2-2.6034 0-1.1559-0.89929-2.0862-2-2.0862s-2 0.9303-2 2.0862c0 1.2763 1.0052 2.6034 2 2.6034z" fill="url(#stack-download-e)" stroke="#FFF" stroke-opacity=".2"/>
<g fill="#FFF">
<ellipse cx="2" cy="5.207" rx="1" ry="1"/>
<ellipse cx="7.5" cy="1.069" rx="1" ry="1"/>
<ellipse cx="13.5" cy="4.172" rx="1" ry="1"/>
</g>
<path d="m8 5.1897c0.99483 0 2-1.3271 2-2.6034 0-1.1559-0.89929-2.0862-2-2.0862s-2 0.9303-2 2.0862c0 1.2763 1.0052 2.6034 2 2.6034zm5.5 2.1034c0.99483 0 2-1.3271 2-2.6034 0-1.1559-0.89929-2.0862-2-2.0862s-2 0.9303-2 2.0862c0 1.2763 1.0052 2.6034 2 2.6034z" fill="url(#stack-download-e)" stroke="#FFF" stroke-opacity=".2"/>
<path d="m8 6.2069c0 4.0639 0.12553 6.1895 0.3088 8.614m5.6912-6.5105c0 3.0322-0.53064 2.7515-0.49861 4.5605" stroke="url(#stack-download-f)" stroke-linecap="round"/>
<path transform="matrix(-1 0 0 1 6.5 0)" d="m4 9.3448c0 2.3444-1.5919 2.1274-1.4958 3.526" stroke="url(#stack-download-f)" stroke-linecap="round"/>
</g>
</g>
</g>
</svg>
