<svg width="22px" height="22px" version="1.1" viewBox="0 0 22 22" xmlns="http://www.w3.org/2000/svg">
<title>user-trash-full-opened</title>
<desc>Created with Sketch.</desc>
<g fill="none" fill-rule="evenodd">
<g id="user-trash-full-opened">
<path id="Combined-Shape" d="m4.4887 18.425c0.079054 0.87137 0.849 1.5752 1.72 1.5752h9.5826c0.86631 0 1.6411-0.70523 1.72-1.5752l1.4887-13.425h0.5c0.62582 0 1-0.41746 1-1 0-0.5866-0.41782-1-1-1h-16.946c-0.57948 0-1.0541 0.41746-1.0541 1 0 0.5866 0.47195 1 1.0541 1h0.44586l1.4887 13.425z" fill="#fff"/>
<g id="Group" transform="translate(5.1 7.3)">
<path d="m0.72945 10.222s-1e-9 0.85711 0.83365 0.85711h5.7242l-0.30665-3.1755-6.4188 0.2136 0.16756 2.1048z" fill="#617B13"/>
<polygon transform="translate(7.9539 4.4443) rotate(-20) translate(-7.9539 -4.4443)" points="4.085 3.5862 10.994 1.584 11.823 4.7303 4.6377 7.3045" fill="#6D8700"/>
<polygon points="0.36936 5.9076 0.64906 9.2219 3.7521 10.327 7.1347 1.8392 2.8285 0.015538" fill="#839928"/>
<polygon points="2.7127 11.074 3.4265 11.082 7.3689 4.6187 4.2814 2.7774 1.1939 7.7489" fill="#748D10"/>
<polygon points="0.83068 2.4092 9.9115 7.3806 8.4586 10.143 0.35848 5.9076 0.1587 3.6981" fill="#6D8700"/>
<path d="m7.0503 9.7834c-0.19651 0.43186-0.58953 1.2956-0.58953 1.2956s2.8136-2e-7 3.6472-2e-7c0.83365 0 0.91702-0.85711 0.91702-0.85711l0.63393-6.3597-1.7664-0.32498-2.8422 6.2462z" fill="#869D29"/>
<polygon points="0.43113 6.6441 0.49562 7.5035 6.565 10.855 8.0239 7.6914 1.5571 4.0663" fill="#90A72F"/>
</g>
</g>
</g>
</svg>
