<svg width="22px" height="22px" version="1.1" viewBox="0 0 22 22" xmlns="http://www.w3.org/2000/svg">
<title>user-trash</title>
<desc>Created with Sketch.</desc>
<g fill="none" fill-rule="evenodd">
<g id="user-trash">
<path id="Combined-Shape" d="m4.4887 18.425c0.079054 0.87137 0.849 1.5752 1.72 1.5752h9.5826c0.86631 0 1.6411-0.70523 1.72-1.5752l1.4887-13.425h0.5c0.62582 0 1-0.41746 1-1 0-0.5866-0.41782-1-1-1h-16.946c-0.57948 0-1.0541 0.41746-1.0541 1 0 0.5866 0.47195 1 1.0541 1h0.44586l1.4887 13.425z" fill="#fff"/>
<path d="m10.944 9.571c-1.0492-2.1121-2.1529-0.41132-2.1529-0.41132l-0.83684 1.4473 1.7226 0.98209 1.2671-2.0181zm3.7255-0.64703-0.92842 0.513-0.34026-0.58618s-0.26289-0.61005-1.56-0.54612c0 0-1.6074 0.043905-1.7747 0.013865 0 0 0.45553 0.087811 0.68211 0.43212l1.0263 1.7716-0.75 0.41286 2.5168 0.053149 1.1282-2.0643zm-6.1689 5.1084c-1.3018 1.9711 0.76184 2.0089 0.76184 2.0089l1.6997-0.054689-0.033947-1.9465-2.4276-0.0077027zm-2.5011-2.7684 0.93158 0.50684-0.33789 0.58772s-0.39632 0.53765 0.33395 1.5837c0 0 0.87553 1.3187 0.93395 1.4735 0 0-0.16026-0.42519 0.023684-0.79338l1.0184-1.7762 0.75237 0.40901-1.2624-2.1244-2.3937 0.13326zm7.8529 2.4733c2.3992 0.14789 1.4258-1.6268 1.4258-1.6268l-0.87868-1.4227-1.7242 0.97978 1.1771 2.0697zm-2.5445 1.5074 1.2868-2.1113v0.84191h2.085c0.41921-0.023108 0.72158-0.36742 0.72158-0.36742-0.10974 0.12478-0.86289 1.5144-0.86289 1.5144-0.57947 1.1323-1.2537 1.0568-1.2537 1.0568h-0.69v1.0399l-1.2868-1.9742z" fill="#97BB00"/>
</g>
</g>
</svg>
