<svg width="16" height="16" version="1.1" viewBox="0 0 16 16" xmlns="http://www.w3.org/2000/svg">
<title>configure</title>
<g transform="translate(-3.9985,-4.001)" fill="#303030">
<path d="m11.17 6-0.13 1.56-0.597 0.221a4.5 4.5 0 0 0-1.315 0.761l-0.49 0.407-1.42-0.668-0.83 1.438 1.292 0.897-0.111 0.63c-0.045 0.251-0.068 0.505-0.069 0.753 0 0.256 0.022 0.51 0.066 0.763l0.108 0.628-1.285 0.891 0.83 1.438 1.413-0.665 0.49 0.403a4.5 4.5 0 0 0 1.317 0.756l0.602 0.22 0.127 1.569h1.658l0.13-1.56 0.597-0.222a4.5 4.5 0 0 0 1.315-0.76l0.49-0.407 1.42 0.668 0.83-1.438-1.292-0.897 0.111-0.63c0.045-0.251 0.068-0.505 0.07-0.753a4.5 4.5 0 0 0-0.066-0.763l-0.109-0.628 1.285-0.891-0.83-1.438-1.413 0.665-0.489-0.403a4.5 4.5 0 0 0-1.318-0.756l-0.601-0.22-0.128-1.569zm-0.92-1h3.5l0.15 1.85a5.5 5.5 0 0 1 1.612 0.923l1.672-0.787 1.75 3.032-1.518 1.052c0.053 0.308 0.08 0.62 0.08 0.932a5.5 5.5 0 0 1-0.084 0.928l1.522 1.056-1.75 3.032-1.676-0.79a5.5 5.5 0 0 1-1.608 0.93l-0.154 1.844h-3.5l-0.15-1.85a5.5 5.5 0 0 1-1.612-0.923l-1.671 0.787-1.75-3.032 1.517-1.052a5.5 5.5 0 0 1-0.08-0.932 5.5 5.5 0 0 1 0.084-0.928l-1.521-1.056 1.75-3.032 1.675 0.79a5.5 5.5 0 0 1 1.608-0.93z"/>
<path d="m12 10a2 2 0 1 1 0 4 2 2 0 0 1 0-4zm0 3a1 1 0 1 0 0-2 1 1 0 0 0 0 2z"/>
</g>
</svg>
