<svg width="16" height="16" version="1.1" viewBox="0 0 16 16" xmlns="http://www.w3.org/2000/svg">
<path d="m7 1-5 14h1l1.4492-4h3.5508v-1h-3.2031l3.0078-8h0.4082l1.6641 4.2324c0.25161-0.14366 0.53751-0.23242 0.84766-0.23242h0.16211l-1.8867-5h-2z" fill="#303030"/>
<path d="m11.725 7c-0.952 0-1.7246 0.77361-1.7246 1.7246v0.27539h1v-0.27539c0-0.399 0.32461-0.72461 0.72461-0.72461h0.55078c0.4 0 0.72461 0.32561 0.72461 0.72461v1.2754h-1.3887-0.61133-1-0.45117c-0.303 0-0.54883 0.24678-0.54883 0.55078v2.9004c0 0.304 0.24583 0.54883 0.54883 0.54883h4.9023c0.303 0 0.54883-0.24483 0.54883-0.54883v-2.9004c0-0.304-0.24583-0.55078-0.54883-0.55078h-0.45117v-1.2754c0-0.951-0.77261-1.7246-1.7246-1.7246h-0.55078z" fill="#303030" fill-rule="evenodd"/>
</svg>
