<svg width="16" height="16" version="1.1" viewBox="0 0 16 16" xmlns="http://www.w3.org/2000/svg">
<path d="m7 1-5 14h1l1.4492-4h3.5508v-1h-3.2031l3.0078-8h0.4082l1.6641 4.2324c0.25161-0.14366 0.53751-0.23242 0.84766-0.23242h0.16211l-1.8867-5h-2z" fill="#303030"/>
<path d="m11 8.725c0-0.399 0.325-0.725 0.725-0.725h0.55c0.4 0 0.725 0.326 0.725 0.725v1.275h-2zm3.451 1.275h-0.451v-1.275c0-0.951-0.773-1.725-1.725-1.725h-0.55c-0.952 0-1.725 0.774-1.725 1.725v1.275h-0.451c-0.303 0-0.549 0.246-0.549 0.55v2.901c0 0.304 0.246 0.549 0.549 0.549h4.902c0.303 0 0.549-0.245 0.549-0.549v-2.901c0-0.304-0.246-0.55-0.549-0.55z" fill="#303030" fill-rule="evenodd"/>
</svg>
