<svg version="1.1" viewBox="0 0 16 16" xmlns="http://www.w3.org/2000/svg">
<defs>
<style id="current-color-scheme" type="text/css">.ColorScheme-Text {
        color:#bebebe;
      }</style>
</defs>
<path class="ColorScheme-Text" d="m3 2v12h10v-9l-3-3h-7zm1 1h5v3h3v7h-8v-10zm3.4551 3a1.5 1.5 0 0 0-1.3672 1h-1.0879v1h1.0879a1.5 1.5 0 0 0 1.4121 1 1.5 1.5 0 0 0 1.4121-1h2.0879v-1h-2.0879a1.5 1.5 0 0 0-1.4121-1 1.5 1.5 0 0 0-0.044922 0zm0.044922 1a0.5 0.5 0 0 1 0.5 0.5 0.5 0.5 0 0 1-0.5 0.5 0.5 0.5 0 0 1-0.5-0.5 0.5 0.5 0 0 1 0.5-0.5zm0.95508 2a1.5 1.5 0 0 0-1.3672 1h-2.0879v1h2.0879a1.5 1.5 0 0 0 1.4121 1 1.5 1.5 0 0 0 1.4121-1h1.0879v-1h-1.0879a1.5 1.5 0 0 0-1.4121-1 1.5 1.5 0 0 0-0.044922 0zm0.044922 1a0.5 0.5 0 0 1 0.5 0.5 0.5 0.5 0 0 1-0.5 0.5 0.5 0.5 0 0 1-0.5-0.5 0.5 0.5 0 0 1 0.5-0.5z" fill="#303030"/>
</svg>
