<svg version="1.1" viewBox="0 0 16 16" xmlns="http://www.w3.org/2000/svg">
<defs>
<style id="current-color-scheme" type="text/css">.ColorScheme-Text {
        color:#232629;
      }</style>
</defs>
<path class="ColorScheme-Text" d="m3 2v1 10 1h5 1 1v-1h-1-1-4v-10h2 1 2 2 1v6h1v-7h-1-3-2-1-3zm5 3c-1.662 0-3 1.338-3 3s1.338 3 3 3c0.64939 0 1.26-0.2145 1.75-0.5625l2.5312 2.5625 0.71875-0.71875-2.5625-2.5312c0.34805-0.4899 0.5625-1.1006 0.5625-1.75 0-1.662-1.338-3-3-3zm0 1c1.108 0 2 0.892 2 2s-0.892 2-2 2-2-0.892-2-2 0.892-2 2-2z" fill="#303030"/>
</svg>
