<svg version="1.1" viewBox="0 0 16 16" xmlns="http://www.w3.org/2000/svg">
<defs>
<style id="current-color-scheme" type="text/css">.ColorScheme-Text {
        color:#232629;
      }</style>
</defs>
<path class="ColorScheme-Text" d="m2 2v12h1 1 3v-1h-1-1v-3h1 1 1v-1h-1-2-1.0312v4h-0.96875v-10h1 1v3 1h2 4v-1-3h0.28125l1.7188 1.7188v0.28125 2h1v-2.7188l-2.2812-2.2812h-0.03125-0.6875-7-1-1zm4 1h1.9062v3h-1.9062v-3zm6 5-4 4v1 1h2l4-4-2-2zm-0.31055 1.6895 0.5918 0.5918-1.6875 1.6875v0.015625l-1.2812 1.2969-0.59375-0.59375 2.9707-2.998z" fill="#303030"/>
</svg>
