<svg width="16" height="16" version="1.1" viewBox="0 0 16 16" xmlns="http://www.w3.org/2000/svg">
<g transform="translate(-3.5926 -3.9457)" fill="#303030">
<path d="m10.027 12-1.2852 0.03086c-0.51978 0.0601-0.96666 0.28248-1.2449 0.59873-0.33295 0.37851-0.50536 0.85771-0.50089 1.3625 0.00416 0.49962 0.19087 0.99375 0.52994 1.3766 0.34518 0.38979 0.88223 0.63171 1.4701 0.63171h5.992l-4.0256-4.0256zm-0.45829-0.98798 0.43128-0.011656-5.3651-5.3887 0.70496-0.67376 12.719 12.719-0.68562 0.69792-1.3639-1.3542h-7.013c-0.9083 0-1.7064-0.39021-2.2188-0.96875-0.51232-0.5785-0.77525-1.3106-0.78125-2.0312-0.00639-0.7206 0.2356-1.4465 0.75-2.0312 0.44321-0.50379 1.1158-0.84294 1.8799-0.93152zm-0.56872-4.0117h3.5938c1.6802 0 3.0001 1.3657 3 3v3.5938l-2.5938-2.5938h1.5938v-1c0-0.98481-0.66667-1.6462-2-1.9842h-2.4626z"/>
<path d="m8.9961 14h2.5017l1.0921 1h-3.5938c-0.27576-0.038895-0.46778-0.29397-0.42888-0.56973 0.029492-0.2091 0.18615-0.37767 0.39252-0.42239z"/>
</g>
</svg>
