<svg version="1.1" viewBox="0 0 16 16" xmlns="http://www.w3.org/2000/svg">
<defs>
<style id="current-color-scheme" type="text/css">.ColorScheme-Text {
        color:#232629;
      }</style>
</defs>
<path class="ColorScheme-Text" d="m8 3a9 9 0 0 0-7.877 4.668c0.12895 0.36203 0.35725 0.6772 0.65625 0.9082a8 8 0 0 1 7.2207-4.5762 4 4 0 0 0-4 4 4 4 0 0 0 4 4 4 4 0 0 0 4-4 4 4 0 0 0-3.6504-3.9824 8 8 0 0 1 6.8711 4.5586c0.3013-0.23417 0.53216-0.54597 0.66016-0.91797a9 9 0 0 0-7.8809-4.6582zm0 2a3 3 0 0 1 3 3 3 3 0 0 1-3 3 3 3 0 0 1-3-3 3 3 0 0 1 3-3z" color="#232629" fill="#303030"/>
<path d="M8 6A2 2 0 0 0 6 8 2 2 0 0 0 8 10 2 2 0 0 0 10 8 2 2 0 0 0 9.910156 7.412109 1 1 0 0 1 9 8 1 1 0 0 1 8 7 1 1 0 0 1 8.589844 6.089844 2 2 0 0 0 8 6" fill="#da4453"/>
</svg>
