<svg width="16" height="16" version="1.1" viewBox="0 0 16 16" xmlns="http://www.w3.org/2000/svg">
<g transform="translate(-3.9849 -4.0057)" fill="#303030">
<path d="m17.046 6.0486c-5e-5 -2.822e-4 -3.9361 0.68664-11.808 2.0608 0 0.00752 0 0.014907 4.509e-4 0.021561l0.32225 1.869h1.6757l1.417-2.4404 3.0702 2.4404h1.4609l1.1848-1.5934 2.2879 1.5934h1.0875zm-8.1089 3.0139-1.125 1.9375h-3.0938l-0.46875-2.7188s-0.1723-0.9826 0.8125-1.1562l11.811-2.0625s0.06125-0.03036 0.15625-0.031297c0.28707-0.002623 0.87172 0.1052 1.002 0.8438l0.90625 5.125h-2.5938l-1.75-1.2188-0.90625 1.2188h-2.3125z"/>
<polygon points="6 12 5 12 5 13 6 13"/>
<polygon points="8 12 7 12 7 13 8 13"/>
<polygon points="10 12 9 12 9 13 10 13"/>
<polygon points="12 12 11 12 11 13 12 13"/>
<polygon points="14 12 13 12 13 13 14 13"/>
<polygon points="16 12 15 12 15 13 16 13"/>
<polygon points="18 12 17 12 17 13 18 13"/>
<polygon points="20 12 19 12 19 13 20 13"/>
<path d="m18.453 14.178 0.98407-0.1778 0.31055 1.7188c0.17364 0.98476-0.8125 1.1562-0.8125 1.1562l-11.811 2.0938s-0.98261 0.1723-1.1562-0.8125l-0.54582-3.1562-0.17648-1h0.96622l0.052303 7.4e-4 0.68819 3.9796c0.00478 9.1e-5 3.9413-0.69666 11.81-2.0903-0.01272 0.0019 0.01974-0.0092 0.04381-0.02415-0.0059 0.0086-0.0363 0.06665-0.04264 0.03067-1.91e-4 -0.0045-0.04468-0.25068-0.13347-0.73868l-0.04558-0.25226z"/>
</g>
</svg>
