<svg width="16" height="16" version="1.1" viewBox="0 0 16 16" xmlns="http://www.w3.org/2000/svg">
<g transform="translate(-4,-3)" fill="#303030">
<path d="m6 5v13h13v-1h-12v-1.6113c0.12-0.23253 0.23956-0.46553 0.39258-0.68359 0.81654-1.1636 2.1464-2.1462 4.6836-2.6562 2.6739-0.53756 4.213-1.4839 5.0449-2.6797 0.83193-1.1958 0.91082-2.5589 0.89258-3.7969-4.9e-4 -0.13467-0.05528-0.26345-0.15196-0.35719-0.096685-0.093743-0.22709-0.14453-0.36171-0.14086-0.13262 0.00359-0.25838 0.059735-0.34959 0.15608-0.09121 0.09634-0.1404 0.22498-0.13674 0.3576 0.0174 1.1818-0.07 2.2841-0.71484 3.2109-0.64481 0.92683-1.8932 1.7616-4.4199 2.2695-2.354 0.47324-3.8843 1.3922-4.8789 2.5215v-8.5898z"/>
<path d="m18 6.4004c-0.0434 0.99924-0.2288 2.0342-0.87891 2.9688-0.83192 1.1958-2.371 2.1421-5.0449 2.6797-2.5372 0.51006-3.867 1.4926-4.6836 2.6562-0.15302 0.21806-0.27258 0.45106-0.39258 0.68359v1.6113h11z" opacity=".3"/>
</g>
</svg>
