<svg version="1.1" viewBox="0 0 16 16" xmlns="http://www.w3.org/2000/svg">
<defs>
<style id="current-color-scheme" type="text/css">.ColorScheme-Text {
        color:#232629;
      }</style>
</defs>
<g transform="translate(-3 -1033.4)" fill="#303030">
<path class="ColorScheme-Text" transform="translate(0 1030.4)" d="m4 7c-0.55401 0-1 0.44599-1 1v6c0 0.55401 0.44599 1 1 1h5c0.55401 0 1-0.44599 1-1v-1h2v1c0 0.554 0.44599 1 1 1h5c0.55401 0 1-0.446 1-1v-6c0-0.554-0.44599-1-1-1h-5c-0.55401 0-1 0.446-1 1v1h-2v-1c0-0.55401-0.44599-1-1-1zm0 1h3 2v1c-0.55401 0-1 0.44599-1 1v2c0 0.55401 0.44599 1 1 1v1h-2-3zm9 0h3 2v6h-2-3v-1c0.55401 0 1-0.44599 1-1v-2c0-0.55401-0.44599-1-1-1zm-4 2h4v2h-4z" fill="#303030"/>
</g>
</svg>
