<svg version="1.1" viewBox="0 0 16 16" xmlns="http://www.w3.org/2000/svg">
<defs>
<style id="current-color-scheme" type="text/css">.ColorScheme-Text {
        color:#232629;
      }</style>
</defs>
<path class="ColorScheme-Text" d="m1 2v12h8v-1h-6.3438l3.9863-4.6504 1.3574 1.3574c-0.013148-0.02367 6-6 6-6v4.293h1v-6h-14zm1.707 1h10.586l-5.293 5.293-5.293-5.293zm-0.70703 0.70703 3.9336 3.9336-3.9336 4.5898v-8.5234zm10 4.293-0.57422 1.6133-1.5469-0.73438 0.73437 1.5469-1.6133 0.57422 1.6133 0.57422-0.73437 1.5469 1.5469-0.73438 0.57422 1.6133 0.57422-1.6133 1.5469 0.73438-0.73438-1.5469 1.6133-0.57422-1.6133-0.57422 0.73438-1.5469-1.5469 0.73438-0.57422-1.6133z" fill="#303030"/>
</svg>
