<svg width="16" height="16" version="1.1" viewBox="0 0 16 16" xmlns="http://www.w3.org/2000/svg">
<title>object-straighten</title>
<desc>Created with Sketch.</desc>
<g id="object-straighten" transform="translate(-4 -3.9999)" fill="#303030" fill-rule="evenodd">
<path id="Shape" d="m15.052 6.2049c-0.0078 0.00142-3.2876 0.58417-9.8392 1.7482-1.416e-4 0.00742-3.44e-5 0.014703 3.745e-4 0.021286l0.35227 2.0256h10.155zm-0.01519-0.99787c0.28448-0.0023 0.86976 0.085611 1 0.82422l0.875 4.9688h-12.187l-0.5-2.875s-0.17231-0.9826 0.8125-1.1562l9.8437-1.75s0.06142-0.010952 0.15625-0.011719zm-11.037 6.793h1.0371l-0.037109 1h-1zm2 0h1v1h-1zm2 0h1v1h-1zm2 0h1v1h-1zm2 0h1v1h-1zm2 0h1v1h-1zm2 0h1v1h-1zm2 0h1v1h-1zm-11.047 5.7928c0.00476 9.1e-5 3.2857-0.58208 9.8429-1.7465l-0.18964-1.0463h-10.159zm-1.7031-3.7928h12.191l0.33984 1.875c0.17365 0.98476-0.8125 1.1562-0.8125 1.1562l-9.8438 1.75s-0.9826 0.17231-1.1562-0.8125z" fill="#303030" fill-rule="nonzero"/>
</g>
</svg>
