<svg width="16" height="16" version="1.1" xmlns="http://www.w3.org/2000/svg">
<g fill="#303030">
<g>
<path d="m7.3105 9a2.637 2.637 0 0 0 0.68945 1.2383v-0.6875c0-0.053944 0.016823-0.10306 0.03125-0.15234-0.26471-0.090202-0.50943-0.22509-0.7207-0.39844z"/>
<path d="m10.48 5.8301c0.04651 0.05669 0.0838 0.12052 0.125 0.18164 0.040065-0.0027908 0.078371-0.011719 0.11914-0.011719h0.23828c-0.15419-0.070378-0.31384-0.13068-0.48242-0.16992z"/>
<path d="m5.5 4.6406-0.5 1.5-1.5 0.5 1.5 0.5 0.5 1.5 0.5-1.5 1.5-0.5-1.5-0.5z"/>
<path d="M 8,4.5 A 0.5,0.5 0 0 1 7.5,5 0.5,0.5 0 0 1 7,4.5 0.5,0.5 0 0 1 7.5,4 0.5,0.5 0 0 1 8,4.5 Z m 5,0 A 0.5,0.5 0 0 1 12.5,5 0.5,0.5 0 0 1 12,4.5 0.5,0.5 0 0 1 12.5,4 0.5,0.5 0 0 1 13,4.5 Z m -4,2 A 0.5,0.5 0 0 1 8.5,7 0.5,0.5 0 0 1 8,6.5 0.5,0.5 0 0 1 8.5,6 0.5,0.5 0 0 1 9,6.5 Z m -4,3 A 0.5,0.5 0 0 1 4.5,10 0.5,0.5 0 0 1 4,9.5 0.5,0.5 0 0 1 4.5,9 0.5,0.5 0 0 1 5,9.5 Z"/>
<path d="m4.5 14c-0.277 0-0.5 0.223-0.5 0.5s0.223 0.5 0.5 0.5h4.0488c-0.303 0-0.54883-0.24483-0.54883-0.54883v-0.45117h-3.5z"/>
<path d="m2 2c-1.108 0-2 0.892-2 2v7c0 1.108 0.892 2 2 2h6v-1h-6c-0.554 0-1-0.446-1-1v-7c0-0.554 0.446-1 1-1h12c0.554 0 1 0.446 1 1v3.7246 1 0.27539h0.45117c0.303 0 0.54883 0.24678 0.54883 0.55078v-5.5508c0-1.108-0.892-2-2-2h-12z"/>
</g>
<path d="m11.725 7c-0.952 0-1.7246 0.77361-1.7246 1.7246v0.27539h1v-0.27539c0-0.399 0.32461-0.72461 0.72461-0.72461h0.55078c0.4 0 0.72461 0.32561 0.72461 0.72461v1.2754h-3.4512c-0.303 0-0.54883 0.24678-0.54883 0.55078v2.9004c0 0.304 0.24583 0.54883 0.54883 0.54883h4.9023c0.303 0 0.54883-0.24483 0.54883-0.54883v-2.9004c0-0.304-0.24583-0.55078-0.54883-0.55078h-0.45117v-1.2754c0-0.951-0.77261-1.7246-1.7246-1.7246h-0.55078z" fill-rule="evenodd"/>
</g>
</svg>
