<svg version="1.1" viewBox="0 0 16 16" xmlns="http://www.w3.org/2000/svg">
<defs>
<style id="current-color-scheme" type="text/css">.ColorScheme-Text {
        color:#232629;
      }</style>
</defs>
<path d="m7 2v1.1016a5 5 0 0 0-1.7539 0.73047l-0.78125-0.78125-1.4141 1.4141 0.78125 0.78125a5 5 0 0 0-0.72656 1.7539h-1.1055v2h1.1016a5 5 0 0 0 0.73047 1.7539l-0.78125 0.78125 1.4141 1.4141 0.78125-0.78125a5 5 0 0 0 1.7539 0.72656v1.1055h2v-1.1016a5 5 0 0 0 1.7539-0.73047l0.78125 0.78125 1.4141-1.4141-0.78125-0.78125a5 5 0 0 0 0.72656-1.7539h1.1055v-2h-1.1016a5 5 0 0 0-0.73047-1.7539l0.78125-0.78125-1.4141-1.4141-0.78125 0.78125a5 5 0 0 0-1.7539-0.72656v-1.1055h-2zm1 2a4 4 0 0 1 2.8691 1.2129 4 4 0 0 1 1.1309 2.7871 4 4 0 0 1-1.2129 2.8691 4 4 0 0 1-2.7871 1.1309 4 4 0 0 1-2.8691-1.2129 4 4 0 0 1-1.1309-2.7871 4 4 0 0 1 1.2129-2.8691 4 4 0 0 1 2.7871-1.1309z" fill="#303030"/>
<path d="m8 6a2 2 0 0 0-2 2 2 2 0 0 0 2 2 2 2 0 0 0 2-2 2 2 0 0 0-2-2zm0 1a1 1 0 0 1 1 1 1 1 0 0 1-1 1 1 1 0 0 1-1-1 1 1 0 0 1 1-1z" fill="#303030" fill-rule="evenodd" style="paint-order:markers fill stroke"/>
</svg>
