<svg version="1.1" viewBox="0 0 16 16" xmlns="http://www.w3.org/2000/svg">
<defs>
<style id="current-color-scheme" type="text/css">.ColorScheme-Text {
        color:#bebebe;
      }</style>
</defs>
<rect x="6" y="7" width="4" height="2" rx="0" ry="0" fill="#303030" fill-rule="evenodd" style="paint-order:markers fill stroke"/>
<path d="m8 2a6 6 0 0 0-6 6 6 6 0 0 0 6 6 6 6 0 0 0 6-6 6 6 0 0 0-6-6zm0 1a5 5 0 0 1 5 5 5 5 0 0 1-5 5 5 5 0 0 1-5-5 5 5 0 0 1 5-5z" fill="#303030" fill-rule="evenodd" style="paint-order:markers fill stroke"/>
</svg>
