<svg version="1.1" viewBox="0 0 16 16" xmlns="http://www.w3.org/2000/svg">
<defs>
<style id="current-color-scheme" type="text/css">.ColorScheme-Text {
        color:#232629;
      }</style>
</defs>
<path class="ColorScheme-Text" d="m14 8c0 1.1088-0.31933 2.1401-0.84375 3.0312l-2.6875-2.6875 0.71875-0.71875 1.625 1.625c0.05109-0.19534 0.097716-0.38986 0.125-0.59375 0.007789-0.052406 0.025184-0.10328 0.03125-0.15625 0.01707-0.16809 0.03125-0.32741 0.03125-0.5 0-2.7614-2.2386-5-5-5-0.24302 0-0.48551 0.02845-0.71875 0.0625-0.13625 0.019955-0.2738 0.031786-0.40625 0.0625-0.28658 0.06695-0.54762 0.16665-0.8125 0.28125-0.030675 0.013272-0.063399 0.017376-0.09375 0.03125-0.09166 0.040961-0.16333 0.10826-0.25 0.15625-8e-3 0.00445-0.02305-0.00433-0.03125 0l-0.71875-0.75c0.89118-0.52442 1.9224-0.84375 3.0312-0.84375 3.3137 0 6 2.6863 6 6zm-2.9688 5.1562c-0.89118 0.52442-1.9224 0.84375-3.0312 0.84375-3.3137 0-6-2.6863-6-6 0-1.1088 0.31933-2.1401 0.84375-3.0312l0.75 0.75 1.9062 1.9375-0.6875 0.6875-1.625-1.5938c-0.05109 0.19534-0.09772 0.38986-0.125 0.59375-0.0078 0.052406-0.02518 0.10328-0.03125 0.15625-0.01707 0.16809-0.03125 0.32741-0.03125 0.5s0.01418 0.33191 0.03125 0.5c0.01707 0.16809 0.029198 0.33726 0.0625 0.5 0.46623 2.2784 2.49 4 4.9062 4 0.24826 0 0.48019-0.02756 0.71875-0.0625 0.13625-0.01995 0.2738-0.03179 0.40625-0.0625 0.28658-0.06695 0.54762-0.16665 0.8125-0.28125 0.030718-0.01299 0.063349-0.01766 0.09375-0.03125 0.08886-0.04062 0.16474-0.10861 0.25-0.15625h0.03125z" fill="#303030"/>
</svg>
