<svg width="16" height="16" version="1.1" viewBox="0 0 16 16" xmlns="http://www.w3.org/2000/svg">
<defs>
<style id="current-color-scheme" type="text/css">.ColorScheme-Text { color:#444444; } .ColorScheme-Highlight { color:#5294e2; }</style>
</defs>
<path d="m4.9492 1.9844-0.92969 0.92969h-0.72266c-1.0948 0-1.7787 0.61998-2.0703 1.2031-0.29157 0.58314-0.28516 1.1523-0.28516 1.1523v6.502c0 1.0948 0.61998 1.7787 1.2031 2.0703 0.58314 0.29157 1.1523 0.28516 1.1523 0.28516h9.2891c1.0948 0 1.7787-0.62194 2.0703-1.2051s0.28516-1.1504 0.28516-1.1504v-6.502c0-1.0948-0.62194-1.7807-1.2051-2.0723-0.58314-0.29157-1.1504-0.2832-1.1504-0.2832h-0.72266l-0.92969-0.92969zm0.41016 0.99609h5.1621l0.92969 0.92773h1.1348s0.36127 0.00681 0.70703 0.17969c0.34576 0.17288 0.65234 0.41862 0.65234 1.1816v6.502s-0.0068 0.35932-0.17969 0.70508c-0.17288 0.34576-0.41666 0.6543-1.1797 0.6543h-9.2891s-0.36127-0.0068-0.70703-0.17969c-0.34576-0.17288-0.6543-0.41666-0.6543-1.1797v-6.502s0.00681-0.36127 0.17969-0.70703c0.17288-0.34576 0.41862-0.6543 1.1816-0.6543h1.1348zm2.582 1.791c-1.808 0-3.2852 1.4752-3.2852 3.2832s1.4772 3.2852 3.2852 3.2852c1.808 0 3.2832-1.4772 3.2832-3.2852s-1.4752-3.2832-3.2832-3.2832zm0 0.99414c1.27 0 2.2891 1.019 2.2891 2.2891s-1.019 2.2891-2.2891 2.2891c-1.27 0-2.2891-1.019-2.2891-2.2891 0-1.27 1.019-2.2891 2.2891-2.2891z" color="#444444" color-rendering="auto" dominant-baseline="auto" fill="#303030" image-rendering="auto" shape-rendering="auto" solid-color="#000000" style="font-feature-settings:normal;font-variant-alternates:normal;font-variant-caps:normal;font-variant-ligatures:normal;font-variant-numeric:normal;font-variant-position:normal;isolation:auto;mix-blend-mode:normal;shape-padding:0;text-decoration-color:#000000;text-decoration-line:none;text-decoration-style:solid;text-indent:0;text-orientation:mixed;text-transform:none;white-space:normal"/>
</svg>
