<svg version="1.1" viewBox="0 0 16 16" xmlns="http://www.w3.org/2000/svg">
<defs>
<style id="current-color-scheme" type="text/css">.ColorScheme-Text {
        color:#232629;
      }</style>
</defs>
<path class="ColorScheme-Text" d="m8 3a9 9 0 0 0-7.877 4.668c0.12895 0.36375 0.35744 0.6766 0.65625 0.9082a8 8 0 0 1 7.2207-4.5762 4 4 0 0 0-4 4 4 4 0 0 0 4 4 4 4 0 0 0 4-4 4 4 0 0 0-3.6504-3.9824 8 8 0 0 1 6.8711 4.5586c0.30152-0.2337 0.53191-0.55009 0.66016-0.91797a9 9 0 0 0-7.8809-4.6582zm0 2a3 3 0 0 1 3 3 3 3 0 0 1-3 3 3 3 0 0 1-3-3 3 3 0 0 1 3-3zm0 1a2 2 0 0 0-2 2 2 2 0 0 0 2 2 2 2 0 0 0 2-2 2 2 0 0 0-0.089844-0.58789 1 1 0 0 1-0.91016 0.58789 1 1 0 0 1-1-1 1 1 0 0 1 0.58984-0.91016 2 2 0 0 0-0.58984-0.089844z" color="#232629" fill="#303030"/>
</svg>
