<svg version="1.1" viewBox="0 0 16 16" xmlns="http://www.w3.org/2000/svg">
<defs>
<style id="current-color-scheme" type="text/css">.ColorScheme-Text {
        color:#232629;
      }</style>
</defs>
<path d="m8 0.38867-2.1191 5.4941-5.8809 0.31641 2.2148 1.8008h0.0019531l2.3555 1.9141-1.5156 5.6914 4.9434-3.2012 4.9434 3.2012-1.5156-5.6914 2.3555-1.9141 2.2168-1.8008-5.8809-0.31641-2.1191-5.4941zm0 2.7793 1.418 3.6777h0.0019531l3.9375 0.21094-1.1562 0.93945h-2.207v0.0039062h2.2031l-1.9023 1.5449 1.0137 3.8105-3.3027-2.1406v-1.2188h-0.0058594-0.0058594v1.2188l-3.3027 2.1406 1.0137-3.8105-1.9023-1.5449h2.2031v-0.0039062h-2.207-0.0019531l-1.1543-0.93945 3.9375-0.21094h0.0019531l1.418-3.6777z" fill="#303030"/>
</svg>
