<svg width="16" height="16" version="1.1" xmlns="http://www.w3.org/2000/svg">
<path d="m10.5 1c-0.277 0-0.5 0.2231-0.5 0.5v1.7931l-1.2676-1.2676c-0.1958-0.1959-0.5111-0.1959-0.707 0s-0.1959 0.5112 0 0.707l1.2676 1.2675h-1.793c-0.277 0-0.5 0.2231-0.5 0.5 0 0.2771 0.223 0.5 0.5 0.5h1.793l-1.2676 1.2677c-0.1959 0.1958-0.1959 0.5111 0 0.707s0.5112 0.1959 0.707 0l1.2676-1.2676v1.7929c0 0.2771 0.223 0.5 0.5 0.5s0.5-0.2229 0.5-0.5v-1.7929l1.268 1.2676c0.195 0.1959 0.511 0.1959 0.707 0 0.195-0.1959 0.195-0.5112 0-0.707l-1.268-1.2677h1.793c0.277 0 0.5-0.2229 0.5-0.5 0-0.2769-0.223-0.5-0.5-0.5h-1.793l1.268-1.2675c0.195-0.1958 0.195-0.5111 0-0.707-0.196-0.1959-0.512-0.1959-0.707 0l-1.268 1.2676v-1.7931c0-0.2769-0.223-0.5-0.5-0.5zm-8 11c-0.8284 0-1.5 0.672-1.5 1.5s0.6716 1.5 1.5 1.5 1.5-0.672 1.5-1.5-0.6716-1.5-1.5-1.5z" fill="#303030"/>
</svg>
