<svg xmlns="http://www.w3.org/2000/svg" xmlns:xlink="http://www.w3.org/1999/xlink" height="64" width="64">
    <defs>
        <linearGradient id="a">
            <stop offset="0" stop-color="#fce080"/>
            <stop offset="1" stop-color="#fee69d"/>
        </linearGradient>
        <linearGradient xlink:href="#a" id="b" gradientUnits="userSpaceOnUse" gradientTransform="matrix(1.3 0 0 1.3 73.6 6.6)" x1="-30" y1="35.868" x2="-30" y2="13"/>
    </defs>
    <path d="M33.3 24v-6c-3.9-3.9-3.9-5-6.5-5H9.9C7.3 13 6 14.3 6 16.9V24" fill="#ecc359"/>
    <path d="M9.9 56C7.3 56 6 54.7 6 52.1V23h20.8c2.6 0 2.6-1.1 6.5-5h20.8c2.6 0 3.9 1.6 3.9 4.2v29.9c0 2.6-1.3 3.9-3.9 3.9z" fill="url(#b)"/>
    <path d="M6.995 55c.65.665 1.63 1 2.945 1h44.2c1.315 0 2.295-.335 2.945-1z" fill-opacity=".392"/>
        <g transform="translate(21 28)">
            <path d="M5 3v5H3v8h4v3h8v-3h4V8h-2V3H5m1 1h10v4h-1V7H7v1H6V4m1 1v1h8V5H7M4 9h14v6h-2v-2H6v2H4V9m10 1v1h3v-1h-3m-6 6h6v2H8v-2" fill="#6f5f34" color="#6f5f34"/>

    </g>
</svg>
