<svg xmlns="http://www.w3.org/2000/svg" xmlns:xlink="http://www.w3.org/1999/xlink" height="64" width="64">
    <defs>
        <linearGradient id="a">
            <stop offset="0" stop-color="#fce080"/>
            <stop offset="1" stop-color="#fee69d"/>
        </linearGradient>
        <linearGradient xlink:href="#a" id="b" gradientUnits="userSpaceOnUse" gradientTransform="matrix(1.3 0 0 1.3 73.6 6.6)" x1="-30" y1="35.868" x2="-30" y2="13"/>
    </defs>
    <path d="M33.3 24v-6c-3.9-3.9-3.9-5-6.5-5H9.9C7.3 13 6 14.3 6 16.9V24" fill="#ecc359"/>
    <path d="M9.9 56C7.3 56 6 54.7 6 52.1V23h20.8c2.6 0 2.6-1.1 6.5-5h20.8c2.6 0 3.9 1.6 3.9 4.2v29.9c0 2.6-1.3 3.9-3.9 3.9z" fill="url(#b)"/>
    <path d="M6.995 55c.65.665 1.63 1 2.945 1h44.2c1.315 0 2.295-.335 2.945-1z" fill-opacity=".392"/>
        <g transform="translate(21 28)">
            <path d="M14 3c-1.662 0-3 1.338-3 3s1.338 3 3 3 3-1.338 3-3-1.338-3-3-3zm0 1a2 2 0 0 1 2 2 2 2 0 0 1-2 2 2 2 0 0 1-2-2 2 2 0 0 1 2-2zM8 6C6.338 6 5 7.338 5 9s1.338 3 3 3 3-1.338 3-3-1.338-3-3-3zm0 1a2 2 0 0 1 2 2 2 2 0 0 1-2 2 2 2 0 0 1-2-2 2 2 0 0 1 2-2zm6 3c-.646 0-1.256.134-1.818.361l.455.914c.428-.16.877-.275 1.363-.275 2.216 0 4 1.784 4 4h-3.5l.5 1h4v-1c0-2.77-2.23-5-5-5zm-6 3c-2.77 0-5 2.23-5 5v1h10v-1c0-2.77-2.23-5-5-5zm0 1c2.216 0 4 1.784 4 4H4c0-2.216 1.784-4 4-4z" fill="#6f5f34" color="#6f5f34"/>

    </g>
</svg>
