<svg width="16px" height="16px" version="1.1" viewBox="0 0 16 16" xmlns="http://www.w3.org/2000/svg" xmlns:xlink="http://www.w3.org/1999/xlink">
<title>battery-080-symbolic</title>
<desc>Created with Sketch.</desc>
<defs>
<polygon id="path-1" points="3 11.048 11 11.048 11 5.048 3 5.048"/>
</defs>
<path d="m3 5.0488v6h8v-6zm1 1h6v4h-6z" color="#000000" color-rendering="auto" dominant-baseline="auto" fill="#dfdfdf" fill-rule="evenodd" image-rendering="auto" shape-rendering="auto" solid-color="#000000" style="font-feature-settings:normal;font-variant-alternates:normal;font-variant-caps:normal;font-variant-ligatures:normal;font-variant-numeric:normal;font-variant-position:normal;isolation:auto;mix-blend-mode:normal;shape-padding:0;text-decoration-color:#000000;text-decoration-line:none;text-decoration-style:solid;text-indent:0;text-orientation:mixed;text-transform:none;white-space:normal"/>
<use width="100%" height="100%" fill="#5df61f" fill-rule="evenodd" xlink:href="#path-1"/>
<polygon points="16 0 0 0 0 16 16 16" opacity="0"/>
<path d="m1.5 3a0.50005 0.50005 0 0 0-0.5 0.5v9a0.50005 0.50005 0 0 0 0.5 0.5h13a0.50005 0.50005 0 0 0 0.5-0.5v-2.5h0.5a0.50005 0.50005 0 0 0 0.5-0.5v-3a0.50005 0.50005 0 0 0-0.5-0.5h-0.5v-2.5a0.50005 0.50005 0 0 0-0.5-0.5zm0.5 1h12v2.5a0.50005 0.50005 0 0 0 0.5 0.5h0.5v2h-0.5a0.50005 0.50005 0 0 0-0.5 0.5v2.5h-12z" color="#000000" color-rendering="auto" dominant-baseline="auto" fill="#dfdfdf" fill-rule="evenodd" image-rendering="auto" shape-rendering="auto" solid-color="#000000" style="font-feature-settings:normal;font-variant-alternates:normal;font-variant-caps:normal;font-variant-ligatures:normal;font-variant-numeric:normal;font-variant-position:normal;isolation:auto;mix-blend-mode:normal;shape-padding:0;text-decoration-color:#000000;text-decoration-line:none;text-decoration-style:solid;text-indent:0;text-orientation:mixed;text-transform:none;white-space:normal"/>
</svg>
