<svg width="16px" height="16px" version="1.1" viewBox="0 0 16 16" xmlns="http://www.w3.org/2000/svg">
<title>battery-full-charged-symbolic</title>
<desc>Created with Sketch.</desc>
<polygon points="16 0 0 0 0 16 16 16" opacity="0"/>
<g fill-rule="evenodd">
<g fill="#fff">
<polygon points="10 7.011 12 7.011 12 6.011 10 6.011"/>
<polygon points="10 10.011 12 10.011 12 9.011 10 9.011"/>
<path d="m8.1752 5c-1.767 0-3.175 1.357-3.175 3.006 0 1.648 1.6 2.995 3.2 2.995l0.8 0.01v-6.011z"/>
</g>
<path d="m1.5 3a0.50005 0.50005 0 0 0-0.5 0.5v9a0.50005 0.50005 0 0 0 0.5 0.5h13a0.50005 0.50005 0 0 0 0.5-0.5v-2.5h0.5a0.50005 0.50005 0 0 0 0.5-0.5v-3a0.50005 0.50005 0 0 0-0.5-0.5h-0.5v-2.5a0.50005 0.50005 0 0 0-0.5-0.5zm0.5 1h12v2.5a0.50005 0.50005 0 0 0 0.5 0.5h0.5v2h-0.5a0.50005 0.50005 0 0 0-0.5 0.5v2.5h-12z" color="#000000" color-rendering="auto" dominant-baseline="auto" fill="#dfdfdf" image-rendering="auto" shape-rendering="auto" solid-color="#000000" style="font-feature-settings:normal;font-variant-alternates:normal;font-variant-caps:normal;font-variant-ligatures:normal;font-variant-numeric:normal;font-variant-position:normal;isolation:auto;mix-blend-mode:normal;shape-padding:0;text-decoration-color:#000000;text-decoration-line:none;text-decoration-style:solid;text-indent:0;text-orientation:mixed;text-transform:none;white-space:normal"/>
<rect id="Rectangle" x="3" y="7" width="4" height="2" fill="#fff"/>
</g>
</svg>
