<svg width="16px" height="16px" version="1.1" viewBox="0 0 16 16" xmlns="http://www.w3.org/2000/svg">
<title>battery-unknow-symbolic</title>
<desc>Created with Sketch.</desc>
<polygon points="16 0 0 0 0 16 16 16" fill="none"/>
<path d="m1.5 3a0.50005 0.50005 0 0 0-0.5 0.5v9a0.50005 0.50005 0 0 0 0.5 0.5h13a0.50005 0.50005 0 0 0 0.5-0.5v-2.5h0.5a0.50005 0.50005 0 0 0 0.5-0.5v-3a0.50005 0.50005 0 0 0-0.5-0.5h-0.5v-2.5a0.50005 0.50005 0 0 0-0.5-0.5zm0.5 1h12v2.5a0.50005 0.50005 0 0 0 0.5 0.5h0.5v2h-0.5a0.50005 0.50005 0 0 0-0.5 0.5v2.5h-12z" color="#000000" color-rendering="auto" dominant-baseline="auto" fill="#dfdfdf" fill-rule="evenodd" image-rendering="auto" shape-rendering="auto" solid-color="#000000" style="font-feature-settings:normal;font-variant-alternates:normal;font-variant-caps:normal;font-variant-ligatures:normal;font-variant-numeric:normal;font-variant-position:normal;isolation:auto;mix-blend-mode:normal;shape-padding:0;text-decoration-color:#000000;text-decoration-line:none;text-decoration-style:solid;text-indent:0;text-orientation:mixed;text-transform:none;white-space:normal"/>
<path id="Combined-Shape" d="m7 5h3v1h-3zm-1 1h1v1h-1zm4 0h1v1h-1zm-1 1h1v1h-1zm-1 1h1v1h-1zm0 2h1v1h-1z" fill="#fff" fill-rule="evenodd"/>
</svg>
