<svg width="16" height="16" version="1.1" xmlns="http://www.w3.org/2000/svg">
<defs>
<style id="current-color-scheme" type="text/css">.ColorScheme-Text { color:#dfdfdf; } .ColorScheme-Highlight { color:#4285f4; }</style>
</defs>
<g fill="#dfdfdf">
<path d="m7.1934 2.3e-7c-1.0982 1.38-1.4274 1.57-1.0313 2.45 0.3591 0.8 1.2869 0.7 0.8203 2.55 0.7664-0.9 1.3753-1.54 0.7735-2.46-0.6122-0.94-0.9475-1.01-0.5625-2.54z"/>
<path d="m10.193 2.3e-7c-1.0978 1.38-1.427 1.57-1.0309 2.45 0.3591 0.8 1.2869 0.7 0.8203 2.55 0.7666-0.9 1.3756-1.54 0.7736-2.46-0.612-0.94-0.9476-1.01-0.563-2.54z"/>
<path d="m13.193 2.3e-7c-1.098 1.38-1.427 1.57-1.031 2.45 0.359 0.8 1.287 0.7 0.82 2.55 0.767-0.9 1.376-1.54 0.774-2.46-0.612-0.94-0.948-1.01-0.563-2.54z"/>
<path d="m3.709 6c-2.0671 0-3.709 1.8185-3.709 4 0 2.1815 1.6419 4 3.709 4 0.22502 0 0.77945-0.016743 1.0137-0.070312 0 0 0.0017692-0.084268 0.0019532-0.091797 0.0071267 0.01427 0.0055523 0.020012 0.015625 0.037109 0.019619 0.0333 0.056408 0.080661 0.11523 0.13281 0.39211 0.70796 0.97722 1.2473 1.7832 1.5508 0.87041 0.32772 1.9587 0.44141 3.377 0.44141 1.3984 0 2.4765-0.10827 3.3418-0.42383 0.86529-0.31556 1.5088-0.8754 1.9023-1.6504 0.78706-1.55 0.74023-3.8258 0.74023-7.4258v-0.5h-11.818-0.18164-0.29102zm1.3594 1h9.9199c-0.0066 3.2493-0.0683 5.3879-0.61914 6.4727-0.29199 0.57501-0.67639 0.91712-1.3535 1.1641-0.67713 0.24694-1.6563 0.36328-3 0.36328-1.3622 0-2.3481-0.12193-3.0254-0.37695s-1.0579-0.60497-1.3477-1.2031l-0.027344-0.056641c-0.0065921-0.028665-0.01191-0.049666-0.021484-0.10547-0.02944-0.17157-0.064093-0.44312-0.099609-0.77148-0.071033-0.65673-0.14609-1.5471-0.21484-2.4395-0.11709-1.5198-0.18456-2.6273-0.21094-3.0469zm-1.0996 0.0625h0.011719c0.077717 1.7056 0.2181 2.8392 0.36523 3.7871 0.050882 0.61969 0.10259 1.2661 0.1543 1.7441 0.021098 0.19506 0.04153 0.32521 0.0625 0.48047-0.1895-0.002934-0.51137-0.009766-0.59375-0.009766-0.46276 0-0.89569-0.11311-1.2871-0.30078-0.05578-0.02517-0.10625-0.058811-0.16016-0.087891-0.09635-0.053675-0.19373-0.10437-0.2832-0.16797-0.061978-0.044169-0.11737-0.096997-0.17578-0.14648-0.093212-0.077517-0.18634-0.15415-0.26953-0.24219-0.50888-0.53853-0.82617-1.2592-0.82617-2.0547 0-0.36828 0.076885-0.71818 0.19922-1.0449 0.0065-0.018564 0.010717-0.038306 0.017578-0.056641 0.0295-0.07428 0.066429-0.14358 0.10156-0.21484 0.050374-0.10562 0.10382-0.20817 0.16602-0.30469 0.031088-0.048135 0.065896-0.092466 0.099609-0.13867 0.064251-0.087139 0.12975-0.17172 0.20312-0.25 0.06745-0.074324 0.13839-0.14366 0.21289-0.21094 0.02253-0.019378 0.045244-0.038 0.068359-0.056641 0.52343-0.44556 1.193-0.72461 1.9336-0.72461z" color="#000000" color-rendering="auto" dominant-baseline="auto" image-rendering="auto" shape-rendering="auto" solid-color="#000000" style="font-feature-settings:normal;font-variant-alternates:normal;font-variant-caps:normal;font-variant-ligatures:normal;font-variant-numeric:normal;font-variant-position:normal;isolation:auto;mix-blend-mode:normal;shape-padding:0;text-decoration-color:#000000;text-decoration-line:none;text-decoration-style:solid;text-indent:0;text-orientation:mixed;text-transform:none;white-space:normal"/>
</g>
</svg>
