<svg width="16" height="16" version="1.1" viewBox="0 0 16 16" xmlns="http://www.w3.org/2000/svg">
<defs>
<style id="current-color-scheme" type="text/css">.ColorScheme-Text { color:#444444; } .ColorScheme-Highlight { color:#5294e2; }</style>
</defs>
<g fill="#dfdfdf">
<path id="Combined-Shape" d="m8 2c-1.6565 0-3 1.3667-3 3.0625v2.9375h-2v6h10v-6h-2v-2.9375c0-1.6952-1.3438-3.0625-3-3.0625zm0-1c2.216 0 4 1.8225 4 4.0625v1.9375h1c0.554 0 1 0.446 1 1v6c0 0.554-0.446 1-1 1h-10c-0.554 0-1-0.446-1-1v-6c0-0.554 0.446-1 1-1h1v-1.9375c0-2.2409 1.784-4.0625 4-4.0625z"/>
<rect id="Rectangle" x="4" y="7" width="8" height="1"/>
</g>
</svg>
