<svg width="16" height="16" version="1" xmlns="http://www.w3.org/2000/svg">
<defs>
<style id="current-color-scheme" type="text/css">.ColorScheme-Text { color:#dfdfdf; } .ColorScheme-Highlight { color:#4285f4; }</style>
</defs>
<path d="m7.7734 1.0374-5.3203 1.8889c-0.17297 0.061894-0.23351 0.15869-0.27344 0.21878-0.039932 0.060082-0.05847 0.10547-0.074219 0.1465-0.031498 0.082062-0.046578 0.14949-0.060547 0.21682-0.027938 0.13466-0.044922 0.20967-0.044922 0.35356 0 4.0371 1.4193 6.8195 2.8516 8.5694 0.71613 0.87493 1.4337 1.4944 1.9785 1.8987 0.27239 0.20212 0.50256 0.34976 0.66797 0.44927 0.082707 0.04976 0.14813 0.0868 0.19727 0.11329 0.024569 0.01325 0.045135 0.02452 0.0625 0.0332 0.00868 0.0043 0.016823 0.0069 0.027344 0.01172 0.00526 0.0024 0.010118 0.0051 0.021484 0.0098 0.00568 0.0024 0.013379 0.0068 0.027344 0.01172 0.013965 0.0049 0.11122 0.02538 0.11133 0.02539l0.14844 0.015605 0.13281-0.066414s5.7734-2.9963 5.7734-11.072c0-0.14456-0.01696-0.21902-0.04492-0.35356-0.01398-0.067271-0.02915-0.13495-0.06055-0.21682-0.0157-0.040938-0.03447-0.086537-0.07422-0.1465-0.03975-0.059964-0.10012-0.15454-0.27344-0.21682v-0.00195l-5.3203-1.8889c-0.13955-0.049888-0.31358-0.049888-0.45312 0zm0.22656 0.98058 4.9883 1.7736c0.003498 0.032301 0.011719 0.10141 0.011719 0.070321 0 7.1077-4.4122 9.7166-5.0117 10.042-0.13842-0.084031-0.32861-0.20344-0.5625-0.377-0.48911-0.36294-1.1435-0.93001-1.7988-1.7307-1.3107-1.6013-2.627-4.1301-2.627-7.9345 0 0.03077 0.00823-0.038029 0.011719-0.07032z" color="#000000" color-rendering="auto" dominant-baseline="auto" fill="#dfdfdf" image-rendering="auto" shape-rendering="auto" solid-color="#000000" style="font-feature-settings:normal;font-variant-alternates:normal;font-variant-caps:normal;font-variant-ligatures:normal;font-variant-numeric:normal;font-variant-position:normal;isolation:auto;mix-blend-mode:normal;shape-padding:0;text-decoration-color:#000000;text-decoration-line:none;text-decoration-style:solid;text-indent:0;text-orientation:mixed;text-transform:none;white-space:normal"/>
<path class="ColorScheme-Text" d="m7.9349 1.0114-5.8026 1.7381c-0.0792 0.027999-0.13226 0.41483-0.13226 0.49909 0 2.0756 0.54797 4.476 1.5033 6.5838 0.77494 1.7097 2.1685 3.9899 4.4058 5.1458 0.029143 0.014 0.06 0.021875 0.090857 0.021875 0.030857 0 0.061714-0.0079 0.09-0.02187 2.238-1.1558 3.6317-3.436 4.4066-5.1458 0.95572-2.1087 1.5034-4.5084 1.5034-6.5838 0-0.08426-0.053143-0.47109-0.132-0.49909l-5.8029-1.7381c-0.042857-0.015137-0.087429-0.015137-0.13029 0z" fill="none"/>
<path class="ColorScheme-Highlight" d="m7 4.0117v4.0001h2v-4.0001zm1 4.9884c-0.55228 0-1 0.44772-1 1 0 0.55228 0.44772 1 1 1s1-0.44772 1-1c0-0.55229-0.44772-1-1-1z" fill="currentColor"/>
</svg>
