<svg width="16px" height="16px" version="1.1" viewBox="0 0 16 16" xmlns="http://www.w3.org/2000/svg">
<title>user-trash-symbolic</title>
<desc>Created with Sketch.</desc>
<g id="user-trash-symbolic" fill="#dfdfdf">
<path id="Combined-Shape" d="m13 4v10.5c0 0.27614-0.22386 0.5-0.5 0.5h-9c-0.27614 0-0.5-0.22386-0.5-0.5v-10.5h-1.4583c-0.27614 0-0.5-0.22386-0.5-0.5s0.22386-0.5 0.5-0.5h12.917c0.27614 0 0.5 0.22386 0.5 0.5s-0.22386 0.5-0.5 0.5h-1.4583zm-1 0h-8v10h8zm-6.5-2c-0.27614 0-0.5-0.22386-0.5-0.5s0.22386-0.5 0.5-0.5h5c0.27614 0 0.5 0.22386 0.5 0.5s-0.22386 0.5-0.5 0.5zm1.5 10.426c0 0.27614-0.22386 0.5-0.5 0.5s-0.5-0.22386-0.5-0.5v-6.8881c0-0.27614 0.22386-0.5 0.5-0.5s0.5 0.22386 0.5 0.5zm3 0c0 0.27614-0.22386 0.5-0.5 0.5s-0.5-0.22386-0.5-0.5v-6.8881c0-0.27614 0.22386-0.5 0.5-0.5s0.5 0.22386 0.5 0.5z" fill="#dfdfdf"/>
</g>
</svg>
