<svg enable-background="new 0 0 16 16" version="1.1" viewBox="0 0 16 16" xml:space="preserve" xmlns="http://www.w3.org/2000/svg">
<g transform="rotate(-90,7.5025,8.5025)" fill="#dfdfdf"><path d="m13.505 3h-11c-0.827 0-1.5 0.673-1.5 1.5v8c0 0.827 0.673 1.5 1.5 1.5h11c0.827 0 1.5-0.673 1.5-1.5v-8c0-0.827-0.672-1.5-1.5-1.5zm-11.5 1.5c0-0.275 0.225-0.5 0.5-0.5h1.5v4h-2zm0.5 8.5c-0.275 0-0.5-0.225-0.5-0.5v-3.5h2v4zm11.5-0.5c0 0.275-0.225 0.5-0.5 0.5h-8.5v-9h8.5c0.275 0 0.5 0.225 0.5 0.5z"/><polygon points="6.005 5 6.005 6 6.005 12 12.005 12 13.005 12 13.005 5"/></g>
</svg>
