<svg width="16" height="16" enable-background="new" version="1.1" xmlns="http://www.w3.org/2000/svg">
<title>Pop Symbolic Icon Theme</title>
<path id="Shape" d="m8.0294 7.0004-0.23584-0.66705c-0.49372-1.3965-1.813-2.3309-3.2942-2.3333-1.9327 3.83e-4 -3.4993 1.5672-3.4993 3.5 0 1.933 1.567 3.5 3.4984 3.5 1.4817-0.0023 2.8013-0.93675 3.2951-2.3333l0.2354-0.66583 4.9711-0.00595v2.0012h1v-2.0078l1 0.0039v-0.99554zm6.9706-1.0037 1-5.378e-4v0.99946l-1 0.0011zm-3 2.9995-3.2637 0.00391c-0.6349 1.7958-2.3316 2.997-4.2363 3-2.4853 0-4.5-2.0147-4.5-4.5s2.0147-4.5 4.5-4.5c1.9047 0.0027 3.6014 1.2042 4.2363 3l7.2637-0.00391v3l-1-0.0039v2.0039h-3v-1zm-7.5-2.9961c0.82843 0 1.5 0.67157 1.5 1.5s-0.67157 1.5-1.5 1.5-1.5-0.67157-1.5-1.5 0.67157-1.5 1.5-1.5z" fill="#4285f4"/>
</svg>
