<svg version="1.1" viewBox="0 0 16 16" xmlns="http://www.w3.org/2000/svg">
<defs>
<style id="current-color-scheme" type="text/css">.ColorScheme-Text {
        color:#232629;
      }
      .ColorScheme-NegativeText {
        color:#da4453;
      }</style>
</defs>
<path class="ColorScheme-Text" d="m8 2c-1.108 0-2 0.892-2 2v4c0 1.108 0.892 2 2 2s2-0.892 2-2v-4c0-1.108-0.892-2-2-2zm-4 5v1c0 1.847 1.286 3.4055 3 3.8555v1.1445h-1v1h4v-1h-1v-1.1445c1.714-0.451 3-2.0105 3-3.8555v-1h-1v1c0 1.645-1.355 3-3 3s-3-1.355-3-3v-1z" color="#232629" fill="#dfdfdf"/>
</svg>
