<svg version="1.1" viewBox="0 0 16 16" xmlns="http://www.w3.org/2000/svg">
<defs>
<style id="current-color-scheme" type="text/css">.ColorScheme-Text {
        color:#232629;
      }
      .ColorScheme-NegativeText {
        color:#da4453;
      }</style>
</defs>
<g fill="#dfdfdf">
<path class="ColorScheme-Text" d="m5 2c-1.108 0-2 0.892-2 2v4c0 1.108 0.892 2 2 2s2-0.892 2-2v-4c0-1.108-0.892-2-2-2zm-4 5v1c0 1.847 1.286 3.4055 3 3.8555v1.1445h-1v1h4v-1h-1v-1.1445c1.714-0.451 3-2.0105 3-3.8555v-1h-1v1c0 1.645-1.355 3-3 3s-3-1.355-3-3v-1h-1z"/>
<path class="ColorScheme-Text" d="m10.768 4.4609-0.76758 0.48633c0.69895 0.92713 1.0689 1.981 1.0723 3.0547-0.0023 1.0742-0.37161 2.1288-1.0703 3.0566l0.76758 0.48633c0.83771-1.068 1.2822-2.2932 1.2852-3.543-0.0041-1.2492-0.44916-2.4737-1.2871-3.541z"/>
<path class="ColorScheme-Text" d="m13.064 3-0.75781 0.48047c1.1166 1.348 1.7104 2.9159 1.7109 4.5176-0.0043 1.6003-0.6008 3.1661-1.7188 4.5117l0.76953 0.49023c1.2587-1.4861 1.93-3.2245 1.9316-5.002-0.003773-1.7764-0.67644-3.5134-1.9355-4.998z" fill-opacity=".25"/>
</g>
</svg>
