<svg version="1.1" viewBox="0 0 16 16" xmlns="http://www.w3.org/2000/svg">
<style id="current-color-scheme" type="text/css">.ColorScheme-Text{color:#232629;}.ColorScheme-NegativeText{color:#da4453;}</style>
<path class="ColorScheme-Text" d="m5 2c-1.108 0-2 0.892-2 2v4c0 1.108 0.892 2 2 2s2-0.892 2-2v-4c0-1.108-0.892-2-2-2zm-4 5v1c0 1.847 1.286 3.4055 3 3.8555v1.1445h-1v1h4v-1h-1v-1.1445c1.0666-0.28065 1.9658-0.99082 2.4941-1.9316a4 4 0 0 1-0.49414-1.9238c0 1.645-1.355 3-3 3s-3-1.355-3-3v-1z" fill="#dfdfdf"/>
<path class="ColorScheme-NegativeText" d="m12 5a3 3 0 0 1 1.7363 0.55664l0.0019-0.00191 0.01176 0.011724a3 3 0 0 1 0.67771 0.67773l0.01758 0.01758-0.0038 0.0039a3 3 0 0 1 0.55852 1.7344 3 3 0 0 1-3 3 3 3 0 0 1-1.7363-0.55664l-0.0019 0.0019-0.01164-0.01164a3 3 0 0 1-0.67791-0.67776l-0.01758-0.01758 0.00384-0.0039a3 3 0 0 1-0.55848-1.7344 3 3 0 0 1 3-3zm0 1a2 2 0 0 0-2 2 2 2 0 0 0 0.2793 1.0137l2.7344-2.7344a2 2 0 0 0-1.0137-0.2793zm1.7207 0.98633-2.7344 2.7344a2 2 0 0 0 1.0137 0.2793 2 2 0 0 0 2-2 2 2 0 0 0-0.2793-1.0137z" fill="currentColor"/>
</svg>
