<svg version="1.1" viewBox="0 0 16 16" xmlns="http://www.w3.org/2000/svg">
<defs>
<style id="current-color-scheme" type="text/css">.ColorScheme-Text {
        color:#232629;
      }
      .ColorScheme-NegativeText {
        color:#da4453;
      }</style>
</defs>
<path class="ColorScheme-Text" d="m5 2c-1.108 0-2 0.892-2 2v4c0 1.108 0.892 2 2 2s2-0.892 2-2v-4c0-1.108-0.892-2-2-2zm-4 5v1c0 1.847 1.286 3.4055 3 3.8555v1.1445h-1v1h4v-1h-1v-1.1445c1.714-0.451 3-2.0105 3-3.8555v-1h-1v1c0 1.645-1.355 3-3 3s-3-1.355-3-3v-1h-1z" fill="#dfdfdf"/>
<path class="ColorScheme-Text" d="m13.064 3-0.75781 0.48047a10.802 8.3685 0 0 1 1.7109 4.5176 10.802 8.3685 0 0 1-1.7188 4.5117l0.76953 0.49023a11.784 9.1292 0 0 0 1.9316-5.002 11.784 9.1292 0 0 0-1.9355-4.998zm-2.2969 1.4609-0.76758 0.48633a7.8558 6.0862 0 0 1 1.0723 3.0547 7.8558 6.0862 0 0 1-1.0703 3.0566l0.76758 0.48633a8.8378 6.8469 0 0 0 1.2852-3.543 8.8378 6.8469 0 0 0-1.2871-3.541z" fill="#dfdfdf" fill-opacity=".25"/>
</svg>
