<svg width="16" height="16" version="1.1" xmlns="http://www.w3.org/2000/svg">
<defs>
<style id="current-color-scheme" type="text/css">.ColorScheme-Text { color:#dfdfdf; } .ColorScheme-Highlight { color:#4285f4; }</style>
</defs>
<g fill="#dfdfdf" fill-rule="evenodd">
<path d="m 8,5 c 0.8403,0.0011 1.6417,0.3547 2.209,0.9746 L 10.998,5.5176 10.82,6.9922 10.824,7 H 10.82 L 10.699,8 8.4004,7.0176 9.3086,6.4922 C 8.9458,6.176 8.4812,6.0013 8,6 7.286,6.0006 6.6265,6.3817 6.2695,7 H 5.1738 C 5.5973,5.8021 6.7295,5.001 8,5 Z"/>
<path d="M 5.2988,8.0176 7.5977,9 6.7012,9.5176 C 7.0628,9.828 7.5234,9.9991 8,10 8.714,9.9994 9.3735,9.6183 9.7305,9 H 10.826 C 10.403,10.198 9.2705,10.999 8,11 7.1655,10.999 6.3694,10.65 5.8027,10.037 L 5,10.5 5.1797,9.0098 5.1758,9 h 0.0039 z"/>
<path d="m8 1-0.3418 0.32031c-1.5725 1.4688-4.4548 2.6513-5.2773 2.8516l-0.38086 0.091797v0.39453c0 2.2145 0.52703 4.5589 1.5156 6.4785 0.98859 1.9196 2.4626 3.4443 4.3828 3.8418l0.10156 0.021484 0.10156-0.021484c1.9202-0.39749 3.3942-1.9222 4.3828-3.8418 0.98859-1.9196 1.5156-4.264 1.5156-6.4785v-0.39453l-0.38086-0.091797c-0.82313-0.20024-3.7049-1.3827-5.2773-2.8516zm0 1.2773c1.647 1.404 3.7766 2.3474 4.9629 2.7012-0.048718 1.9624-0.51336 4.0375-1.3691 5.6992-0.88 1.7087-2.1251 2.9165-3.5938 3.2676-1.4687-0.35104-2.7138-1.5588-3.5938-3.2676-0.85578-1.6617-1.3204-3.7369-1.3691-5.6992 1.1858-0.35372 3.3157-1.2972 4.9629-2.7012z" color="#000000" color-rendering="auto" dominant-baseline="auto" image-rendering="auto" shape-rendering="auto" solid-color="#000000" style="font-feature-settings:normal;font-variant-alternates:normal;font-variant-caps:normal;font-variant-ligatures:normal;font-variant-numeric:normal;font-variant-position:normal;isolation:auto;mix-blend-mode:normal;shape-padding:0;text-decoration-color:#000000;text-decoration-line:none;text-decoration-style:solid;text-indent:0;text-orientation:mixed;text-transform:none;white-space:normal"/>
</g>
</svg>
