<svg width="16" height="16.003" enable-background="new" version="1.1" xmlns="http://www.w3.org/2000/svg">
<title>Pop Symbolic Icon Theme</title>
<path d="m15 1.0033-14 14h9v-5h5z" fill="#dfdfdf" opacity=".3"/>
<path d="m11.507 10.99a0.50155 0.50155 0 0 0-0.34961 0.86133l1.1426 1.1426-1.1426 1.1426a0.50155 0.50155 0 1 0 0.70898 0.70898l1.1445-1.1426 1.1426 1.1426a0.50155 0.50155 0 1 0 0.70898-0.70898l-1.1426-1.1426 1.1426-1.1426a0.50155 0.50155 0 1 0-0.70898-0.70898l-1.1426 1.1426-1.1445-1.1426a0.50155 0.50155 0 0 0-0.35938-0.15234z" color="#000000" color-rendering="auto" dominant-baseline="auto" fill="#dfdfdf" fill-rule="evenodd" image-rendering="auto" shape-rendering="auto" solid-color="#000000" style="font-feature-settings:normal;font-variant-alternates:normal;font-variant-caps:normal;font-variant-ligatures:normal;font-variant-numeric:normal;font-variant-position:normal;isolation:auto;mix-blend-mode:normal;shape-padding:0;text-decoration-color:#000000;text-decoration-line:none;text-decoration-style:solid;text-indent:0;text-orientation:mixed;text-transform:none;white-space:normal"/>
</svg>
