<svg width="16px" height="16px" version="1.1" viewBox="0 0 16 16" xmlns="http://www.w3.org/2000/svg">
<title>network-wireless-signal-full-secure-symbolic</title>
<desc>Created with Sketch.</desc>
<polygon points="16 0 0 0 0 16 16 16" opacity="0"/>
<g fill="#dfdfdf" fill-rule="evenodd">
<path d="m8 12.015c-0.502 3e-3 -0.999 0.199-1.339 0.562l1.339 1.426 0.08-0.085c-0.048-0.148-0.08-0.303-0.08-0.467z"/>
<g shape-rendering="auto">
<path d="m7.9922 2.9004c-2.8904 0-5.5154 1.2559-7.4043 3.2676a0.60037 0.60037 0 1 0 0.875 0.82227c1.6811-1.7903 3.9857-2.8906 6.5293-2.8906 2.5446 0 4.8474 1.1005 6.5273 2.8906a0.60108 0.60108 0 1 0 0.87695-0.82227c-1.888-2.0118-4.5129-3.2676-7.4043-3.2676z" color="#000000" color-rendering="auto" dominant-baseline="auto" image-rendering="auto" opacity=".3" solid-color="#000000" style="font-feature-settings:normal;font-variant-alternates:normal;font-variant-caps:normal;font-variant-ligatures:normal;font-variant-numeric:normal;font-variant-position:normal;isolation:auto;mix-blend-mode:normal;shape-padding:0;text-decoration-color:#000000;text-decoration-line:none;text-decoration-style:solid;text-indent:0;text-orientation:mixed;text-transform:none;white-space:normal"/>
<path d="m7.9922 5.9004c-2.1143 0-4.0351 0.91992-5.4141 2.3887a0.60006 0.60006 0 1 0 0.875 0.82031c1.171-1.2472 2.7714-2.0098 4.5391-2.0098 0.49074 0 0.96706 0.060296 1.4258 0.17188a0.60019 0.60019 0 1 0 0.28516-1.166c-0.55018-0.13382-1.124-0.20508-1.7109-0.20508z" color="#000000" color-rendering="auto" dominant-baseline="auto" image-rendering="auto" solid-color="#000000" style="font-feature-settings:normal;font-variant-alternates:normal;font-variant-caps:normal;font-variant-ligatures:normal;font-variant-numeric:normal;font-variant-position:normal;isolation:auto;mix-blend-mode:normal;shape-padding:0;text-decoration-color:#000000;text-decoration-line:none;text-decoration-style:solid;text-indent:0;text-orientation:mixed;text-transform:none;white-space:normal"/>
<path d="m7.9922 8.9004c-1.3398 0-2.5556 0.58276-3.4238 1.5078a0.60006 0.60006 0 1 0 0.875 0.82031c0.65977-0.70295 1.5546-1.1289 2.5488-1.1289a0.60006 0.60006 0 1 0 0-1.1992z" color="#000000" color-rendering="auto" dominant-baseline="auto" image-rendering="auto" solid-color="#000000" style="font-feature-settings:normal;font-variant-alternates:normal;font-variant-caps:normal;font-variant-ligatures:normal;font-variant-numeric:normal;font-variant-position:normal;isolation:auto;mix-blend-mode:normal;shape-padding:0;text-decoration-color:#000000;text-decoration-line:none;text-decoration-style:solid;text-indent:0;text-orientation:mixed;text-transform:none;white-space:normal"/>
</g>
<path d="m11 8.7246c0-0.399 0.325-0.725 0.725-0.725h0.55c0.4 0 0.725 0.326 0.725 0.725v1.275h-2zm3.451 1.275h-0.451v-1.275c0-0.951-0.773-1.725-1.725-1.725h-0.55c-0.952 0-1.725 0.774-1.725 1.725v1.275h-0.451c-0.303 0-0.549 0.246-0.549 0.55v2.901c0 0.304 0.246 0.549 0.549 0.549h4.902c0.303 0 0.549-0.245 0.549-0.549v-2.901c0-0.304-0.246-0.55-0.549-0.55z"/>
</g>
</svg>
