<svg width="16" height="16" version="1.1" viewBox="0 0 16 16" xmlns="http://www.w3.org/2000/svg">
<path d="m8.0098 2.9121c-1.4446 0-2.8281 0.31203-4.082 0.87891-1.2517 0.56552-2.3783 1.3823-3.3223 2.3887a0.60006 0.60006 0 0 0 0.01758 0.83789l6.9746 6.8574a0.60006 0.60006 0 0 0 0.8418-2e-3l6.957-6.8554a0.60006 0.60006 0 0 0 0.01758-0.83789c-0.94464-1.006-2.0713-1.8231-3.3242-2.3887-1.2538-0.56682-2.6345-0.87891-4.0801-0.87891zm0 1.1992c1.2725 0 2.4798 0.27426 3.584 0.77344a0.60006 0.60006 0 0 0 2e-3 0c0.92339 0.41666 1.716 1.0696 2.4609 1.7695l-6.0391 5.9512-6.0547-5.9531c0.74434-0.69962 1.5364-1.3509 2.459-1.7676a0.60006 0.60006 0 0 0 0.0019 0c1.1041-0.49913 2.3145-0.77344 3.5859-0.77344z" color="#000000" color-rendering="auto" dominant-baseline="auto" fill="#dfdfdf" image-rendering="auto" opacity=".3" shape-rendering="auto" solid-color="#000000" style="font-feature-settings:normal;font-variant-alternates:normal;font-variant-caps:normal;font-variant-ligatures:normal;font-variant-numeric:normal;font-variant-position:normal;isolation:auto;mix-blend-mode:normal;shape-padding:0;text-decoration-color:#000000;text-decoration-line:none;text-decoration-style:solid;text-indent:0;text-orientation:mixed;text-transform:none;white-space:normal"/>
</svg>
