<svg width="16" height="16" enable-background="new" version="1.1" xmlns="http://www.w3.org/2000/svg">
<title>Pop Symbolic Icon Theme</title>
<path d="m15 1.0039-14 14 7.541-0.001953c-0.29913-0.004433-0.54102-0.24569-0.54102-0.54688v-0.45508h-2.002l-0.0058594-2.5918 3.2539-3.2539c0.20816-0.37056 0.52949-0.68842 0.89648-0.89648l3.8574-3.8574v3.9512c0.56412 0.38583 1 1.0348 1 1.6484v-7.9961z" fill="#dfdfdf"/>
<path d="m11 9.7289c0-0.399 0.325-0.725 0.725-0.725h0.55c0.4 0 0.725 0.326 0.725 0.725v1.275h-2zm3.451 1.275h-0.451v-1.275c0-0.951-0.773-1.725-1.725-1.725h-0.55c-0.952 0-1.725 0.774-1.725 1.725v1.275h-0.451c-0.303 0-0.549 0.246-0.549 0.55v2.901c0 0.304 0.246 0.549 0.549 0.549h4.902c0.303 0 0.549-0.245 0.549-0.549v-2.901c0-0.304-0.246-0.55-0.549-0.55z" fill="#dfdfdf" fill-rule="evenodd"/>
</svg>
