<svg width="16px" height="16px" version="1.1" viewBox="0 0 16 16" xmlns="http://www.w3.org/2000/svg">
<title>network-wireless-offline-symbolic</title>
<desc>Created with Sketch.</desc>
<g fill="#dfdfdf" fill-rule="evenodd">
<g shape-rendering="auto">
<path d="m7.9922 2.9004c-1.4446 0-2.8262 0.31203-4.0801 0.87891-1.2523 0.56554-2.378 1.3819-3.3223 2.3887a0.60037 0.60037 0 1 0 0.875 0.82227c0.83969-0.89523 1.8377-1.6187 2.9414-2.1172 1.1041-0.49913 2.3145-0.77344 3.5859-0.77344 1.2725 0 2.4817 0.27426 3.5859 0.77344h2e-3c1.1045 0.4984 2.1016 1.2218 2.9414 2.1172a0.60037 0.60037 0 1 0 0.875-0.82227c-0.9442-1.0066-2.0708-1.8231-3.3243-2.3887-1.2538-0.56682-2.6345-0.87891-4.0801-0.87891z" color="#000000" color-rendering="auto" dominant-baseline="auto" image-rendering="auto" solid-color="#000000" style="font-feature-settings:normal;font-variant-alternates:normal;font-variant-caps:normal;font-variant-ligatures:normal;font-variant-numeric:normal;font-variant-position:normal;isolation:auto;mix-blend-mode:normal;shape-padding:0;text-decoration-color:#000000;text-decoration-line:none;text-decoration-style:solid;text-indent:0;text-orientation:mixed;text-transform:none;white-space:normal"/>
<path d="m10.746 6.4863a0.60006 0.60006 0 0 0-0.26172 1.1504c0.38396 0.17329 0.74872 0.3858 1.0918 0.63281 0.34262 0.24735 0.66218 0.52766 0.95508 0.83984a0.60006 0.60006 0 1 0 0.875-0.82031c-0.3451-0.36782-0.72353-0.70149-1.1289-0.99414-0.40693-0.29299-0.84079-0.54524-1.2988-0.75195a0.60006 0.60006 0 0 0-0.23242-0.056641z" color="#000000" color-rendering="auto" dominant-baseline="auto" image-rendering="auto" solid-color="#000000" style="font-feature-settings:normal;font-variant-alternates:normal;font-variant-caps:normal;font-variant-ligatures:normal;font-variant-numeric:normal;font-variant-position:normal;isolation:auto;mix-blend-mode:normal;shape-padding:0;text-decoration-color:#000000;text-decoration-line:none;text-decoration-style:solid;text-indent:0;text-orientation:mixed;text-transform:none;white-space:normal"/>
<path d="m5.2812 6.4863a0.60006 0.60006 0 0 0-0.27344 0.056641c-0.45876 0.20704-0.89296 0.46081-1.2988 0.75195h-0.00195c-0.40595 0.29307-0.78258 0.62622-1.127 0.99219a0.60037 0.60037 0 1 0 0.875 0.82227c0.29329-0.31167 0.61152-0.59311 0.95312-0.83984 0.34414-0.24686 0.71051-0.45985 1.0938-0.63281a0.60006 0.60006 0 0 0-0.2207-1.1504z" color="#000000" color-rendering="auto" dominant-baseline="auto" image-rendering="auto" solid-color="#000000" style="font-feature-settings:normal;font-variant-alternates:normal;font-variant-caps:normal;font-variant-ligatures:normal;font-variant-numeric:normal;font-variant-position:normal;isolation:auto;mix-blend-mode:normal;shape-padding:0;text-decoration-color:#000000;text-decoration-line:none;text-decoration-style:solid;text-indent:0;text-orientation:mixed;text-transform:none;white-space:normal"/>
<path d="m10.369 9.6641a0.60006 0.60006 0 0 0-0.36328 1.0937c0.19206 0.13743 0.37234 0.29472 0.53711 0.4707a0.60006 0.60006 0 1 0 0.875-0.82031c-0.21723-0.23201-0.45495-0.44238-0.71289-0.62695a0.60006 0.60006 0 0 0-0.33594-0.11719z" color="#000000" color-rendering="auto" dominant-baseline="auto" image-rendering="auto" solid-color="#000000" style="font-feature-settings:normal;font-variant-alternates:normal;font-variant-caps:normal;font-variant-ligatures:normal;font-variant-numeric:normal;font-variant-position:normal;isolation:auto;mix-blend-mode:normal;shape-padding:0;text-decoration-color:#000000;text-decoration-line:none;text-decoration-style:solid;text-indent:0;text-orientation:mixed;text-transform:none;white-space:normal"/>
<path d="m5.6582 9.6641a0.60006 0.60006 0 0 0-0.375 0.11719c-0.25794 0.18457-0.49762 0.39494-0.71484 0.62695a0.60041 0.60041 0 1 0 0.87695 0.82031c0.16477-0.17599 0.3431-0.33327 0.53516-0.4707a0.60006 0.60006 0 0 0-0.32227-1.0937z" color="#000000" color-rendering="auto" dominant-baseline="auto" image-rendering="auto" solid-color="#000000" style="font-feature-settings:normal;font-variant-alternates:normal;font-variant-caps:normal;font-variant-ligatures:normal;font-variant-numeric:normal;font-variant-position:normal;isolation:auto;mix-blend-mode:normal;shape-padding:0;text-decoration-color:#000000;text-decoration-line:none;text-decoration-style:solid;text-indent:0;text-orientation:mixed;text-transform:none;white-space:normal"/>
</g>
<path d="m9 13c0 0.5525-0.4475 1-1 1s-1-0.4475-1-1 0.4475-1 1-1 1 0.4475 1 1"/>
<path d="m8.0634 11.25h-0.109c-0.383 0-0.696-0.313-0.696-0.695v-5.11c0-0.382 0.313-0.695 0.696-0.695h0.109c0.382 0 0.695 0.313 0.695 0.695v5.11c0 0.382-0.313 0.695-0.695 0.695"/>
</g>
</svg>
