<?xml version="1.0" encoding="UTF-8" standalone="no"?>
<svg
   xmlns:dc="http://purl.org/dc/elements/1.1/"
   xmlns:cc="http://creativecommons.org/ns#"
   xmlns:rdf="http://www.w3.org/1999/02/22-rdf-syntax-ns#"
   xmlns:svg="http://www.w3.org/2000/svg"
   xmlns="http://www.w3.org/2000/svg"
   xmlns:sodipodi="http://sodipodi.sourceforge.net/DTD/sodipodi-0.dtd"
   xmlns:inkscape="http://www.inkscape.org/namespaces/inkscape"
   width="16"
   height="16"
   version="1.1"
   id="svg8"
   sodipodi:docname="notes-app-symbolic.svg"
   inkscape:version="0.92.5 (2060ec1f9f, 2020-04-08)">
  <metadata
     id="metadata14">
    <rdf:RDF>
      <cc:Work
         rdf:about="">
        <dc:format>image/svg+xml</dc:format>
        <dc:type
           rdf:resource="http://purl.org/dc/dcmitype/StillImage" />
      </cc:Work>
    </rdf:RDF>
  </metadata>
  <defs
     id="defs12" />
  <sodipodi:namedview
     pagecolor="#ffffff"
     bordercolor="#666666"
     borderopacity="1"
     objecttolerance="10"
     gridtolerance="10"
     guidetolerance="10"
     inkscape:pageopacity="0"
     inkscape:pageshadow="2"
     inkscape:window-width="1366"
     inkscape:window-height="703"
     id="namedview10"
     showgrid="false"
     inkscape:zoom="14.75"
     inkscape:cx="-0.27118644"
     inkscape:cy="8"
     inkscape:window-x="0"
     inkscape:window-y="0"
     inkscape:window-maximized="1"
     inkscape:current-layer="svg8" />
  <g
     fill="#363636"
     id="g6"
     style="fill:#dfdfdf;fill-opacity:1">
    <path
       d="m4.994 0c-1.258 0.015-2.179-0.03-2.931 0.385-0.19 0.104-0.358 0.246-0.5 0.416l-0.063 0.088c-0.11 0.148-0.207 0.311-0.275 0.494-0.165 0.437-0.225 0.96-0.225 1.617v9c0 0.658 0.06 1.179 0.225 1.617 0.164 0.439 0.461 0.789 0.838 0.996 0.752 0.415 1.673 0.372 2.931 0.387h5.012c1.258-0.014 2.179 0.03 2.932-0.385 0.38938-0.22212 0.68659-0.57606 0.838-0.998 0.164-0.438 0.224-0.96 0.224-1.617v-9c0-0.658-0.06-1.179-0.225-1.617-0.067799-0.17655-0.1604-0.34255-0.275-0.493l-0.062-0.09c-0.13978-0.16758-0.30929-0.30793-0.5-0.414-0.753-0.414-1.674-0.371-2.932-0.386h-5.008zm-2.994 3h11v9c0 0.592-0.063 1.006-0.16 1.266-0.098 0.26-0.202 0.371-0.385 0.472-0.366 0.202-1.196 0.247-2.455 0.262h-5c-1.259-0.015-2.09-0.06-2.455-0.262-0.184-0.1-0.287-0.213-0.385-0.472-0.098-0.26-0.16-0.674-0.16-1.266z"
       color="#000000"
       font-family="sans-serif"
       font-weight="400"
       overflow="visible"
       solid-color="#000000"
       style="font-feature-settings:normal;font-variant-alternates:normal;font-variant-caps:normal;font-variant-ligatures:normal;font-variant-numeric:normal;font-variant-position:normal;isolation:auto;mix-blend-mode:normal;shape-padding:0;text-decoration-color:#000000;text-decoration-line:none;text-decoration-style:solid;text-indent:0;text-orientation:mixed;text-transform:none;white-space:normal;fill:#dfdfdf;fill-opacity:1"
       id="path2" />
    <path
       d="m5 4h7v1h-7zm0 2h7v1h-7zm0 2h7v1h-7zm0 2h4v1h-4zm-2-7h1v11h-1z"
       id="path4"
       style="fill:#dfdfdf;fill-opacity:1" />
  </g>
</svg>
