<svg width="16" height="16" version="1.1" xmlns="http://www.w3.org/2000/svg">
<defs>
<style id="current-color-scheme" type="text/css">.ColorScheme-Text { color:#dfdfdf; } .ColorScheme-Highlight { color:#4285f4; }</style>
</defs>
<path d="m8 1a7 7 0 0 0-7 7 7 7 0 0 0 0.85156 3.3418l0.83398-0.5625a6 6 0 0 1-0.68555-2.7793 6 6 0 0 1 6-6 6 6 0 0 1 4.5605 2.1113l0.83789-0.5625a7 7 0 0 0-5.3984-2.5488zm6.1055 3.582-0.83594 0.5625a6 6 0 0 1 0.73047 2.8555 6 6 0 0 1-6 6 6 6 0 0 1-4.6172-2.1777l-0.83203 0.56055a7 7 0 0 0 5.4492 2.6172 7 7 0 0 0 7-7 7 7 0 0 0-0.89453-3.418z" fill="#dfdfdf"/>
<path class="ColorScheme-Text" d="m5 4.1992v1.7335l1.151 0.76735-1.151 0.76735v1.7318l3.7496-2.4991z" fill="currentColor"/>
<path class="ColorScheme-Text" d="m10.55 7-3.7496 2.4991 3.7496 2.5009v-1.7335l-1.151-0.76735 1.151-0.76735z" fill="currentColor"/>
</svg>
