<svg width="16" height="16" version="1.1" xmlns="http://www.w3.org/2000/svg">
<path d="m8 0-0.16016 0.054723-5.8398 1.9739v6.8638c0 2.175 1.6169 3.6211 2.9062 4.5342 1.3247 0.93811 2.9238 1.5127 2.9238 1.5127l0.16992 0.060586 0.16992-0.060589s1.5992-0.5746 2.9238-1.5127h2e-3v-2e-3c1.29-0.92317 2.9042-2.3814 2.9042-4.5322v-6.8638zm0 1.0573 5 1.6886v6.1466c0 1.6409-1.2831 2.8581-2.4863 3.7192-1.0943 0.7741-2.3408 1.2324-2.5137 1.2977-0.17303-0.06534-1.4209-0.52442-2.5156-1.2997-1.2039-0.85262-2.4844-2.0448-2.4844-3.7173v-6.1466z" color="#000000" color-rendering="auto" dominant-baseline="auto" fill="#dfdfdf" image-rendering="auto" shape-rendering="auto" solid-color="#000000" style="font-feature-settings:normal;font-variant-alternates:normal;font-variant-caps:normal;font-variant-ligatures:normal;font-variant-numeric:normal;font-variant-position:normal;isolation:auto;mix-blend-mode:normal;shape-padding:0;text-decoration-color:#000000;text-decoration-line:none;text-decoration-style:solid;text-indent:0;text-orientation:mixed;text-transform:none;white-space:normal"/>
<path d="m7.9541 9.9376c-0.276 0-0.5-0.224-0.5-0.5s0.224-0.5 0.5-0.5 0.5 0.224 0.5 0.5-0.224 0.5-0.5 0.5m0.0479-2.0196h-0.134c-0.239 0-0.433-0.194-0.433-0.433v-2.134c0-0.239 0.194-0.433 0.433-0.433h0.134c0.239 0 0.433 0.194 0.433 0.433v2.134c0 0.239-0.194 0.433-0.433 0.433" fill="#4285f4" fill-rule="evenodd"/>
</svg>
