<svg width="16" height="16" version="1.1" xmlns="http://www.w3.org/2000/svg">
<path d="m8 0-0.16016 0.054723-5.8398 1.9739v6.8638c0 2.175 1.6169 3.6211 2.9062 4.5342 1.3247 0.93811 2.9238 1.5127 2.9238 1.5127l0.16992 0.060586 0.16992-0.060589s1.5992-0.5746 2.9238-1.5127h2e-3v-2e-3c1.29-0.92317 2.9042-2.3814 2.9042-4.5322v-6.8638zm0 1.0573 5 1.6886v6.1466c0 1.6409-1.2831 2.8581-2.4863 3.7192-1.0943 0.7741-2.3408 1.2324-2.5137 1.2977-0.17303-0.06534-1.4209-0.52442-2.5156-1.2997-1.2039-0.85262-2.4844-2.0448-2.4844-3.7173v-6.1466z" color="#000000" color-rendering="auto" dominant-baseline="auto" fill="#4285f4" image-rendering="auto" shape-rendering="auto" solid-color="#000000" style="font-feature-settings:normal;font-variant-alternates:normal;font-variant-caps:normal;font-variant-ligatures:normal;font-variant-numeric:normal;font-variant-position:normal;isolation:auto;mix-blend-mode:normal;shape-padding:0;text-decoration-color:#000000;text-decoration-line:none;text-decoration-style:solid;text-indent:0;text-orientation:mixed;text-transform:none;white-space:normal"/>
<path d="m6.5 5.2051a0.50155 0.50155 0 0 0-0.34961 0.86133l1.1426 1.1426-1.1426 1.1426a0.50155 0.50155 0 1 0 0.70898 0.70898l1.1426-1.1426 1.1426 1.1426a0.50155 0.50155 0 1 0 0.70898-0.70898l-1.1426-1.1426 1.1426-1.1426a0.50155 0.50155 0 0 0-0.36523-0.86133 0.50155 0.50155 0 0 0-0.34375 0.15234l-1.1426 1.1426-1.1426-1.1426a0.50155 0.50155 0 0 0-0.35938-0.15234z" color="#000000" color-rendering="auto" dominant-baseline="auto" fill="#4285f4" image-rendering="auto" shape-rendering="auto" solid-color="#000000" style="font-feature-settings:normal;font-variant-alternates:normal;font-variant-caps:normal;font-variant-ligatures:normal;font-variant-numeric:normal;font-variant-position:normal;isolation:auto;mix-blend-mode:normal;shape-padding:0;text-decoration-color:#000000;text-decoration-line:none;text-decoration-style:solid;text-indent:0;text-orientation:mixed;text-transform:none;white-space:normal"/>
</svg>
