<svg width="16.003" height="16" enable-background="new" version="1.1" xmlns="http://www.w3.org/2000/svg">
<title>Pop Symbolic Icon Theme</title>
<path d="m14.553 12.854c0.297-0.15 0.447-0.374 0.447-0.856v-9.002c0-0.106-0.039-0.342-0.144-0.553-0.149-0.297-0.374-0.447-0.856-0.447h-12c-0.482 0-0.707 0.15-0.855 0.447a1.404 1.404 0 0 0-0.145 0.553v9.002c0 0.109 0.039 0.342 0.144 0.553 0.15 0.297 0.374 0.447 0.856 0.447h12c0.106 0 0.342-0.039 0.553-0.144zm-12.553-11.858h12c2 0 2 2 2 2v9.002c0 2-2 2-2 2h-12c-2 0-2-2-2-2v-9.002s0-2 2-2z" fill="#dfdfdf"/>
<path d="m3.979 14.998s-0.979 2e-3 -0.979 1.002v-4e-3h10v4e-3c0-1-1-1.002-1-1.002z" fill="#dfdfdf"/>
</svg>
