<svg width="16px" height="16px" version="1.1" viewBox="0 0 16 16" xmlns="http://www.w3.org/2000/svg">
<title>disk-normal-16px</title>
<desc>Created with Sketch.</desc>
<rect width="16" height="16" opacity="0"/>
<g fill="#dfdfdf" fill-rule="evenodd" shape-rendering="auto">
<path d="m2.5 1a0.50005 0.50005 0 0 0-0.5 0.5v13a0.50005 0.50005 0 0 0 0.5 0.5h5.5a0.91373 1.023 0 0 1 0-0.046875 0.91373 1.023 0 0 1 0.12305-0.48828l0.24023-0.46484h-5.3633v-12h10v5.168a0.91373 1.023 0 0 1 0.29102 0.3418l0.70898 1.375v-7.3848a0.50005 0.50005 0 0 0-0.5-0.5h-11z" color="#000000" color-rendering="auto" dominant-baseline="auto" image-rendering="auto" solid-color="#000000" style="font-feature-settings:normal;font-variant-alternates:normal;font-variant-caps:normal;font-variant-ligatures:normal;font-variant-numeric:normal;font-variant-position:normal;isolation:auto;mix-blend-mode:normal;shape-padding:0;text-decoration-color:#000000;text-decoration-line:none;text-decoration-style:solid;text-indent:0;text-orientation:mixed;text-transform:none;white-space:normal"/>
<path id="Line" d="m4.5 12a0.50005 0.50005 0 1 0 0 1h4.3789l0.51562-1h-4.8945z" color="#000000" color-rendering="auto" dominant-baseline="auto" image-rendering="auto" solid-color="#000000" style="font-feature-settings:normal;font-variant-alternates:normal;font-variant-caps:normal;font-variant-ligatures:normal;font-variant-numeric:normal;font-variant-position:normal;isolation:auto;mix-blend-mode:normal;shape-padding:0;text-decoration-color:#000000;text-decoration-line:none;text-decoration-style:solid;text-indent:0;text-orientation:mixed;text-transform:none;white-space:normal"/>
<path d="m2.5 10a0.50005 0.50005 0 1 0 0 1h7.4102l0.0058594-0.011719 0.50977-0.98828h-7.9258z" color="#000000" color-rendering="auto" dominant-baseline="auto" image-rendering="auto" solid-color="#000000" style="font-feature-settings:normal;font-variant-alternates:normal;font-variant-caps:normal;font-variant-ligatures:normal;font-variant-numeric:normal;font-variant-position:normal;isolation:auto;mix-blend-mode:normal;shape-padding:0;text-decoration-color:#000000;text-decoration-line:none;text-decoration-style:solid;text-indent:0;text-orientation:mixed;text-transform:none;white-space:normal"/>
</g>
<path class="ColorScheme-Highlight" d="m12.463 9a0.71065 0.79561 0 0 0-0.57812 0.39648l-2.7891 5.4102a0.71065 0.79561 0 0 0-0.095703 0.37891 0.71065 0.79561 0 0 0 0.71094 0.81445h5.5781a0.71065 0.79561 0 0 0 0.61524-1.1934l-2.7891-5.4102a0.71065 0.79561 0 0 0-0.58203-0.39648 0.71065 0.79561 0 0 0-0.07031 0zm-0.46289 1h1v3h-1zm0 4h1v1h-1z" fill="#4285f4"/>
</svg>
