<svg xmlns="http://www.w3.org/2000/svg" xmlns:xlink="http://www.w3.org/1999/xlink" height="48" width="48">
    <defs>
        <linearGradient id="a">
            <stop stop-color="#fce080" offset="0"/>
            <stop stop-color="#fee69d" offset="1"/>
        </linearGradient>
        <linearGradient y2="13" x2="-30" y1="35.868" x1="-30" gradientTransform="matrix(1.3 0 0 1.3 73.6 6.6)" gradientUnits="userSpaceOnUse" id="b" xlink:href="#a"/>
    </defs>
    <path d="M25.2 17.233L25 12c-3-3-3-3.983-5.997-3.983H3.708C1.308 8.017 0 9.227 0 11.645v5.588" fill="#ecc359"/>
    <path d="M9.9 56C7.3 56 6 54.7 6 52.1V22.675l20.635.055c3.198.008 3.198-1.13 6.448-4.355H54.1c2.6 0 3.9.9 3.9 3.5V52.1c0 2.6-1.3 3.9-3.9 3.9z" fill="url(#b)" transform="matrix(.92308 0 0 .93023 -5.538 -5.093)"/>
    <path d="M.822 46c.599.661 1.517 1 2.772 1h40.8c1.255 0 2.173-.339 2.772-1z" fill-opacity=".392"/>
        <g transform="translate(13 20)">
            <g fill="#6f5f34" color="#6f5f34">
        <path d="M7 8v1H6v1h1v1h1v-1h1V9H8V8zm7.5 1.9a.6.6 0 0 0-.6.6.6.6 0 0 0 .6.6.6.6 0 0 0 .6-.6.6.6 0 0 0-.6-.6zm1-1a.6.6 0 0 0-.6.6.6.6 0 0 0 .6.6.6.6 0 0 0 .6-.6.6.6 0 0 0-.6-.6zm-2 0a.6.6 0 0 0-.6.6.6.6 0 0 0 .6.6.6.6 0 0 0 .6-.6.6.6 0 0 0-.6-.6zm1-1a.6.6 0 0 0-.6.6.6.6 0 0 0 .6.6.6.6 0 0 0 .6-.6.6.6 0 0 0-.6-.6z"/>
        <path d="M6 6c-1.657 0-3 2.239-3 5v3.5a1.5 1.5 0 0 0 2.56 1.06l2.536-2.535A1.5 1.5 0 0 0 11 12.5a1.5 1.5 0 0 0 2.904.525l2.535 2.536A1.5 1.5 0 0 0 19 14.5V11c0-2.761-1.343-5-3-5zm0 1h10c1.105 0 2 1.79 2 4v3.5a.5.5 0 0 1-.854.354L14.293 12H13v.5a.5.5 0 0 1-1 0V12h-2v.5a.5.5 0 0 1-1 0V12H7.707l-2.853 2.854A.5.5 0 0 1 4 14.5V11c0-2.21.895-4 2-4z"/>
    </g>

    </g>
</svg>
