<svg xmlns="http://www.w3.org/2000/svg" xmlns:xlink="http://www.w3.org/1999/xlink" height="48" width="48">
    <defs>
        <linearGradient id="a">
            <stop stop-color="#fce080" offset="0"/>
            <stop stop-color="#fee69d" offset="1"/>
        </linearGradient>
        <linearGradient y2="13" x2="-30" y1="35.868" x1="-30" gradientTransform="matrix(1.3 0 0 1.3 73.6 6.6)" gradientUnits="userSpaceOnUse" id="b" xlink:href="#a"/>
    </defs>
    <path d="M25.2 17.233L25 12c-3-3-3-3.983-5.997-3.983H3.708C1.308 8.017 0 9.227 0 11.645v5.588" fill="#ecc359"/>
    <path d="M9.9 56C7.3 56 6 54.7 6 52.1V22.675l20.635.055c3.198.008 3.198-1.13 6.448-4.355H54.1c2.6 0 3.9.9 3.9 3.5V52.1c0 2.6-1.3 3.9-3.9 3.9z" fill="url(#b)" transform="matrix(.92308 0 0 .93023 -5.538 -5.093)"/>
    <path d="M.822 46c.599.661 1.517 1 2.772 1h40.8c1.255 0 2.173-.339 2.772-1z" fill-opacity=".392"/>
        <g transform="translate(13 20)">
            <path d="M11 3a8 3 0 0 0-8 3v10a8 3 0 0 0 8 3 8 3 0 0 0 8-3V6a8 3 0 0 0-8-3zm0 1a7 2 0 0 1 7 2 7 2 0 0 1-7 2 7 2 0 0 1-7-2 7 2 0 0 1 7-2zm7 3.445V11a7 2 0 0 1-7 2 7 2 0 0 1-7-2V7.451A8 3 0 0 0 11 9a8 3 0 0 0 7-1.555zm0 5V16a7 2 0 0 1-7 2 7 2 0 0 1-7-2v-3.549A8 3 0 0 0 11 14a8 3 0 0 0 7-1.555z" fill="#6f5f34" color="#6f5f34"/>

    </g>
</svg>
